G04 #@! TF.GenerationSoftware,KiCad,Pcbnew,(5.1.5)-3*
G04 #@! TF.CreationDate,2020-08-05T00:43:19-04:00*
G04 #@! TF.ProjectId,SOIC 8-14-16-20,534f4943-2038-42d3-9134-2d31362d3230,rev?*
G04 #@! TF.SameCoordinates,Original*
G04 #@! TF.FileFunction,Copper,L1,Top*
G04 #@! TF.FilePolarity,Positive*
%FSLAX46Y46*%
G04 Gerber Fmt 4.6, Leading zero omitted, Abs format (unit mm)*
G04 Created by KiCad (PCBNEW (5.1.5)-3) date 2020-08-05 00:43:19*
%MOMM*%
%LPD*%
G04 APERTURE LIST*
%ADD10C,0.100000*%
%ADD11O,1.700000X1.700000*%
%ADD12R,1.700000X1.700000*%
%ADD13C,0.600000*%
%ADD14C,0.152400*%
G04 APERTURE END LIST*
G04 #@! TA.AperFunction,SMDPad,CuDef*
D10*
G36*
X146569703Y-87150722D02*
G01*
X146584264Y-87152882D01*
X146598543Y-87156459D01*
X146612403Y-87161418D01*
X146625710Y-87167712D01*
X146638336Y-87175280D01*
X146650159Y-87184048D01*
X146661066Y-87193934D01*
X146670952Y-87204841D01*
X146679720Y-87216664D01*
X146687288Y-87229290D01*
X146693582Y-87242597D01*
X146698541Y-87256457D01*
X146702118Y-87270736D01*
X146704278Y-87285297D01*
X146705000Y-87300000D01*
X146705000Y-88950000D01*
X146704278Y-88964703D01*
X146702118Y-88979264D01*
X146698541Y-88993543D01*
X146693582Y-89007403D01*
X146687288Y-89020710D01*
X146679720Y-89033336D01*
X146670952Y-89045159D01*
X146661066Y-89056066D01*
X146650159Y-89065952D01*
X146638336Y-89074720D01*
X146625710Y-89082288D01*
X146612403Y-89088582D01*
X146598543Y-89093541D01*
X146584264Y-89097118D01*
X146569703Y-89099278D01*
X146555000Y-89100000D01*
X146255000Y-89100000D01*
X146240297Y-89099278D01*
X146225736Y-89097118D01*
X146211457Y-89093541D01*
X146197597Y-89088582D01*
X146184290Y-89082288D01*
X146171664Y-89074720D01*
X146159841Y-89065952D01*
X146148934Y-89056066D01*
X146139048Y-89045159D01*
X146130280Y-89033336D01*
X146122712Y-89020710D01*
X146116418Y-89007403D01*
X146111459Y-88993543D01*
X146107882Y-88979264D01*
X146105722Y-88964703D01*
X146105000Y-88950000D01*
X146105000Y-87300000D01*
X146105722Y-87285297D01*
X146107882Y-87270736D01*
X146111459Y-87256457D01*
X146116418Y-87242597D01*
X146122712Y-87229290D01*
X146130280Y-87216664D01*
X146139048Y-87204841D01*
X146148934Y-87193934D01*
X146159841Y-87184048D01*
X146171664Y-87175280D01*
X146184290Y-87167712D01*
X146197597Y-87161418D01*
X146211457Y-87156459D01*
X146225736Y-87152882D01*
X146240297Y-87150722D01*
X146255000Y-87150000D01*
X146555000Y-87150000D01*
X146569703Y-87150722D01*
G37*
G04 #@! TD.AperFunction*
G04 #@! TA.AperFunction,SMDPad,CuDef*
G36*
X145299703Y-87150722D02*
G01*
X145314264Y-87152882D01*
X145328543Y-87156459D01*
X145342403Y-87161418D01*
X145355710Y-87167712D01*
X145368336Y-87175280D01*
X145380159Y-87184048D01*
X145391066Y-87193934D01*
X145400952Y-87204841D01*
X145409720Y-87216664D01*
X145417288Y-87229290D01*
X145423582Y-87242597D01*
X145428541Y-87256457D01*
X145432118Y-87270736D01*
X145434278Y-87285297D01*
X145435000Y-87300000D01*
X145435000Y-88950000D01*
X145434278Y-88964703D01*
X145432118Y-88979264D01*
X145428541Y-88993543D01*
X145423582Y-89007403D01*
X145417288Y-89020710D01*
X145409720Y-89033336D01*
X145400952Y-89045159D01*
X145391066Y-89056066D01*
X145380159Y-89065952D01*
X145368336Y-89074720D01*
X145355710Y-89082288D01*
X145342403Y-89088582D01*
X145328543Y-89093541D01*
X145314264Y-89097118D01*
X145299703Y-89099278D01*
X145285000Y-89100000D01*
X144985000Y-89100000D01*
X144970297Y-89099278D01*
X144955736Y-89097118D01*
X144941457Y-89093541D01*
X144927597Y-89088582D01*
X144914290Y-89082288D01*
X144901664Y-89074720D01*
X144889841Y-89065952D01*
X144878934Y-89056066D01*
X144869048Y-89045159D01*
X144860280Y-89033336D01*
X144852712Y-89020710D01*
X144846418Y-89007403D01*
X144841459Y-88993543D01*
X144837882Y-88979264D01*
X144835722Y-88964703D01*
X144835000Y-88950000D01*
X144835000Y-87300000D01*
X144835722Y-87285297D01*
X144837882Y-87270736D01*
X144841459Y-87256457D01*
X144846418Y-87242597D01*
X144852712Y-87229290D01*
X144860280Y-87216664D01*
X144869048Y-87204841D01*
X144878934Y-87193934D01*
X144889841Y-87184048D01*
X144901664Y-87175280D01*
X144914290Y-87167712D01*
X144927597Y-87161418D01*
X144941457Y-87156459D01*
X144955736Y-87152882D01*
X144970297Y-87150722D01*
X144985000Y-87150000D01*
X145285000Y-87150000D01*
X145299703Y-87150722D01*
G37*
G04 #@! TD.AperFunction*
G04 #@! TA.AperFunction,SMDPad,CuDef*
G36*
X144029703Y-87150722D02*
G01*
X144044264Y-87152882D01*
X144058543Y-87156459D01*
X144072403Y-87161418D01*
X144085710Y-87167712D01*
X144098336Y-87175280D01*
X144110159Y-87184048D01*
X144121066Y-87193934D01*
X144130952Y-87204841D01*
X144139720Y-87216664D01*
X144147288Y-87229290D01*
X144153582Y-87242597D01*
X144158541Y-87256457D01*
X144162118Y-87270736D01*
X144164278Y-87285297D01*
X144165000Y-87300000D01*
X144165000Y-88950000D01*
X144164278Y-88964703D01*
X144162118Y-88979264D01*
X144158541Y-88993543D01*
X144153582Y-89007403D01*
X144147288Y-89020710D01*
X144139720Y-89033336D01*
X144130952Y-89045159D01*
X144121066Y-89056066D01*
X144110159Y-89065952D01*
X144098336Y-89074720D01*
X144085710Y-89082288D01*
X144072403Y-89088582D01*
X144058543Y-89093541D01*
X144044264Y-89097118D01*
X144029703Y-89099278D01*
X144015000Y-89100000D01*
X143715000Y-89100000D01*
X143700297Y-89099278D01*
X143685736Y-89097118D01*
X143671457Y-89093541D01*
X143657597Y-89088582D01*
X143644290Y-89082288D01*
X143631664Y-89074720D01*
X143619841Y-89065952D01*
X143608934Y-89056066D01*
X143599048Y-89045159D01*
X143590280Y-89033336D01*
X143582712Y-89020710D01*
X143576418Y-89007403D01*
X143571459Y-88993543D01*
X143567882Y-88979264D01*
X143565722Y-88964703D01*
X143565000Y-88950000D01*
X143565000Y-87300000D01*
X143565722Y-87285297D01*
X143567882Y-87270736D01*
X143571459Y-87256457D01*
X143576418Y-87242597D01*
X143582712Y-87229290D01*
X143590280Y-87216664D01*
X143599048Y-87204841D01*
X143608934Y-87193934D01*
X143619841Y-87184048D01*
X143631664Y-87175280D01*
X143644290Y-87167712D01*
X143657597Y-87161418D01*
X143671457Y-87156459D01*
X143685736Y-87152882D01*
X143700297Y-87150722D01*
X143715000Y-87150000D01*
X144015000Y-87150000D01*
X144029703Y-87150722D01*
G37*
G04 #@! TD.AperFunction*
G04 #@! TA.AperFunction,SMDPad,CuDef*
G36*
X142759703Y-87150722D02*
G01*
X142774264Y-87152882D01*
X142788543Y-87156459D01*
X142802403Y-87161418D01*
X142815710Y-87167712D01*
X142828336Y-87175280D01*
X142840159Y-87184048D01*
X142851066Y-87193934D01*
X142860952Y-87204841D01*
X142869720Y-87216664D01*
X142877288Y-87229290D01*
X142883582Y-87242597D01*
X142888541Y-87256457D01*
X142892118Y-87270736D01*
X142894278Y-87285297D01*
X142895000Y-87300000D01*
X142895000Y-88950000D01*
X142894278Y-88964703D01*
X142892118Y-88979264D01*
X142888541Y-88993543D01*
X142883582Y-89007403D01*
X142877288Y-89020710D01*
X142869720Y-89033336D01*
X142860952Y-89045159D01*
X142851066Y-89056066D01*
X142840159Y-89065952D01*
X142828336Y-89074720D01*
X142815710Y-89082288D01*
X142802403Y-89088582D01*
X142788543Y-89093541D01*
X142774264Y-89097118D01*
X142759703Y-89099278D01*
X142745000Y-89100000D01*
X142445000Y-89100000D01*
X142430297Y-89099278D01*
X142415736Y-89097118D01*
X142401457Y-89093541D01*
X142387597Y-89088582D01*
X142374290Y-89082288D01*
X142361664Y-89074720D01*
X142349841Y-89065952D01*
X142338934Y-89056066D01*
X142329048Y-89045159D01*
X142320280Y-89033336D01*
X142312712Y-89020710D01*
X142306418Y-89007403D01*
X142301459Y-88993543D01*
X142297882Y-88979264D01*
X142295722Y-88964703D01*
X142295000Y-88950000D01*
X142295000Y-87300000D01*
X142295722Y-87285297D01*
X142297882Y-87270736D01*
X142301459Y-87256457D01*
X142306418Y-87242597D01*
X142312712Y-87229290D01*
X142320280Y-87216664D01*
X142329048Y-87204841D01*
X142338934Y-87193934D01*
X142349841Y-87184048D01*
X142361664Y-87175280D01*
X142374290Y-87167712D01*
X142387597Y-87161418D01*
X142401457Y-87156459D01*
X142415736Y-87152882D01*
X142430297Y-87150722D01*
X142445000Y-87150000D01*
X142745000Y-87150000D01*
X142759703Y-87150722D01*
G37*
G04 #@! TD.AperFunction*
G04 #@! TA.AperFunction,SMDPad,CuDef*
G36*
X142759703Y-82200722D02*
G01*
X142774264Y-82202882D01*
X142788543Y-82206459D01*
X142802403Y-82211418D01*
X142815710Y-82217712D01*
X142828336Y-82225280D01*
X142840159Y-82234048D01*
X142851066Y-82243934D01*
X142860952Y-82254841D01*
X142869720Y-82266664D01*
X142877288Y-82279290D01*
X142883582Y-82292597D01*
X142888541Y-82306457D01*
X142892118Y-82320736D01*
X142894278Y-82335297D01*
X142895000Y-82350000D01*
X142895000Y-84000000D01*
X142894278Y-84014703D01*
X142892118Y-84029264D01*
X142888541Y-84043543D01*
X142883582Y-84057403D01*
X142877288Y-84070710D01*
X142869720Y-84083336D01*
X142860952Y-84095159D01*
X142851066Y-84106066D01*
X142840159Y-84115952D01*
X142828336Y-84124720D01*
X142815710Y-84132288D01*
X142802403Y-84138582D01*
X142788543Y-84143541D01*
X142774264Y-84147118D01*
X142759703Y-84149278D01*
X142745000Y-84150000D01*
X142445000Y-84150000D01*
X142430297Y-84149278D01*
X142415736Y-84147118D01*
X142401457Y-84143541D01*
X142387597Y-84138582D01*
X142374290Y-84132288D01*
X142361664Y-84124720D01*
X142349841Y-84115952D01*
X142338934Y-84106066D01*
X142329048Y-84095159D01*
X142320280Y-84083336D01*
X142312712Y-84070710D01*
X142306418Y-84057403D01*
X142301459Y-84043543D01*
X142297882Y-84029264D01*
X142295722Y-84014703D01*
X142295000Y-84000000D01*
X142295000Y-82350000D01*
X142295722Y-82335297D01*
X142297882Y-82320736D01*
X142301459Y-82306457D01*
X142306418Y-82292597D01*
X142312712Y-82279290D01*
X142320280Y-82266664D01*
X142329048Y-82254841D01*
X142338934Y-82243934D01*
X142349841Y-82234048D01*
X142361664Y-82225280D01*
X142374290Y-82217712D01*
X142387597Y-82211418D01*
X142401457Y-82206459D01*
X142415736Y-82202882D01*
X142430297Y-82200722D01*
X142445000Y-82200000D01*
X142745000Y-82200000D01*
X142759703Y-82200722D01*
G37*
G04 #@! TD.AperFunction*
G04 #@! TA.AperFunction,SMDPad,CuDef*
G36*
X144029703Y-82200722D02*
G01*
X144044264Y-82202882D01*
X144058543Y-82206459D01*
X144072403Y-82211418D01*
X144085710Y-82217712D01*
X144098336Y-82225280D01*
X144110159Y-82234048D01*
X144121066Y-82243934D01*
X144130952Y-82254841D01*
X144139720Y-82266664D01*
X144147288Y-82279290D01*
X144153582Y-82292597D01*
X144158541Y-82306457D01*
X144162118Y-82320736D01*
X144164278Y-82335297D01*
X144165000Y-82350000D01*
X144165000Y-84000000D01*
X144164278Y-84014703D01*
X144162118Y-84029264D01*
X144158541Y-84043543D01*
X144153582Y-84057403D01*
X144147288Y-84070710D01*
X144139720Y-84083336D01*
X144130952Y-84095159D01*
X144121066Y-84106066D01*
X144110159Y-84115952D01*
X144098336Y-84124720D01*
X144085710Y-84132288D01*
X144072403Y-84138582D01*
X144058543Y-84143541D01*
X144044264Y-84147118D01*
X144029703Y-84149278D01*
X144015000Y-84150000D01*
X143715000Y-84150000D01*
X143700297Y-84149278D01*
X143685736Y-84147118D01*
X143671457Y-84143541D01*
X143657597Y-84138582D01*
X143644290Y-84132288D01*
X143631664Y-84124720D01*
X143619841Y-84115952D01*
X143608934Y-84106066D01*
X143599048Y-84095159D01*
X143590280Y-84083336D01*
X143582712Y-84070710D01*
X143576418Y-84057403D01*
X143571459Y-84043543D01*
X143567882Y-84029264D01*
X143565722Y-84014703D01*
X143565000Y-84000000D01*
X143565000Y-82350000D01*
X143565722Y-82335297D01*
X143567882Y-82320736D01*
X143571459Y-82306457D01*
X143576418Y-82292597D01*
X143582712Y-82279290D01*
X143590280Y-82266664D01*
X143599048Y-82254841D01*
X143608934Y-82243934D01*
X143619841Y-82234048D01*
X143631664Y-82225280D01*
X143644290Y-82217712D01*
X143657597Y-82211418D01*
X143671457Y-82206459D01*
X143685736Y-82202882D01*
X143700297Y-82200722D01*
X143715000Y-82200000D01*
X144015000Y-82200000D01*
X144029703Y-82200722D01*
G37*
G04 #@! TD.AperFunction*
G04 #@! TA.AperFunction,SMDPad,CuDef*
G36*
X145299703Y-82200722D02*
G01*
X145314264Y-82202882D01*
X145328543Y-82206459D01*
X145342403Y-82211418D01*
X145355710Y-82217712D01*
X145368336Y-82225280D01*
X145380159Y-82234048D01*
X145391066Y-82243934D01*
X145400952Y-82254841D01*
X145409720Y-82266664D01*
X145417288Y-82279290D01*
X145423582Y-82292597D01*
X145428541Y-82306457D01*
X145432118Y-82320736D01*
X145434278Y-82335297D01*
X145435000Y-82350000D01*
X145435000Y-84000000D01*
X145434278Y-84014703D01*
X145432118Y-84029264D01*
X145428541Y-84043543D01*
X145423582Y-84057403D01*
X145417288Y-84070710D01*
X145409720Y-84083336D01*
X145400952Y-84095159D01*
X145391066Y-84106066D01*
X145380159Y-84115952D01*
X145368336Y-84124720D01*
X145355710Y-84132288D01*
X145342403Y-84138582D01*
X145328543Y-84143541D01*
X145314264Y-84147118D01*
X145299703Y-84149278D01*
X145285000Y-84150000D01*
X144985000Y-84150000D01*
X144970297Y-84149278D01*
X144955736Y-84147118D01*
X144941457Y-84143541D01*
X144927597Y-84138582D01*
X144914290Y-84132288D01*
X144901664Y-84124720D01*
X144889841Y-84115952D01*
X144878934Y-84106066D01*
X144869048Y-84095159D01*
X144860280Y-84083336D01*
X144852712Y-84070710D01*
X144846418Y-84057403D01*
X144841459Y-84043543D01*
X144837882Y-84029264D01*
X144835722Y-84014703D01*
X144835000Y-84000000D01*
X144835000Y-82350000D01*
X144835722Y-82335297D01*
X144837882Y-82320736D01*
X144841459Y-82306457D01*
X144846418Y-82292597D01*
X144852712Y-82279290D01*
X144860280Y-82266664D01*
X144869048Y-82254841D01*
X144878934Y-82243934D01*
X144889841Y-82234048D01*
X144901664Y-82225280D01*
X144914290Y-82217712D01*
X144927597Y-82211418D01*
X144941457Y-82206459D01*
X144955736Y-82202882D01*
X144970297Y-82200722D01*
X144985000Y-82200000D01*
X145285000Y-82200000D01*
X145299703Y-82200722D01*
G37*
G04 #@! TD.AperFunction*
G04 #@! TA.AperFunction,SMDPad,CuDef*
G36*
X146569703Y-82200722D02*
G01*
X146584264Y-82202882D01*
X146598543Y-82206459D01*
X146612403Y-82211418D01*
X146625710Y-82217712D01*
X146638336Y-82225280D01*
X146650159Y-82234048D01*
X146661066Y-82243934D01*
X146670952Y-82254841D01*
X146679720Y-82266664D01*
X146687288Y-82279290D01*
X146693582Y-82292597D01*
X146698541Y-82306457D01*
X146702118Y-82320736D01*
X146704278Y-82335297D01*
X146705000Y-82350000D01*
X146705000Y-84000000D01*
X146704278Y-84014703D01*
X146702118Y-84029264D01*
X146698541Y-84043543D01*
X146693582Y-84057403D01*
X146687288Y-84070710D01*
X146679720Y-84083336D01*
X146670952Y-84095159D01*
X146661066Y-84106066D01*
X146650159Y-84115952D01*
X146638336Y-84124720D01*
X146625710Y-84132288D01*
X146612403Y-84138582D01*
X146598543Y-84143541D01*
X146584264Y-84147118D01*
X146569703Y-84149278D01*
X146555000Y-84150000D01*
X146255000Y-84150000D01*
X146240297Y-84149278D01*
X146225736Y-84147118D01*
X146211457Y-84143541D01*
X146197597Y-84138582D01*
X146184290Y-84132288D01*
X146171664Y-84124720D01*
X146159841Y-84115952D01*
X146148934Y-84106066D01*
X146139048Y-84095159D01*
X146130280Y-84083336D01*
X146122712Y-84070710D01*
X146116418Y-84057403D01*
X146111459Y-84043543D01*
X146107882Y-84029264D01*
X146105722Y-84014703D01*
X146105000Y-84000000D01*
X146105000Y-82350000D01*
X146105722Y-82335297D01*
X146107882Y-82320736D01*
X146111459Y-82306457D01*
X146116418Y-82292597D01*
X146122712Y-82279290D01*
X146130280Y-82266664D01*
X146139048Y-82254841D01*
X146148934Y-82243934D01*
X146159841Y-82234048D01*
X146171664Y-82225280D01*
X146184290Y-82217712D01*
X146197597Y-82211418D01*
X146211457Y-82206459D01*
X146225736Y-82202882D01*
X146240297Y-82200722D01*
X146255000Y-82200000D01*
X146555000Y-82200000D01*
X146569703Y-82200722D01*
G37*
G04 #@! TD.AperFunction*
D11*
X148550000Y-81680000D03*
X148550000Y-84220000D03*
X148550000Y-86760000D03*
D12*
X148550000Y-89300000D03*
D11*
X140300000Y-89320000D03*
X140300000Y-86780000D03*
X140300000Y-84240000D03*
D12*
X140300000Y-81700000D03*
D13*
X142595600Y-84785200D03*
X143865600Y-84785200D03*
X145135600Y-84785200D03*
X146400000Y-84800000D03*
X146405600Y-86563200D03*
X145135600Y-86563200D03*
X143865600Y-86563200D03*
X142595600Y-86563200D03*
D14*
X142595000Y-83175000D02*
X142595000Y-84784600D01*
X142595000Y-84784600D02*
X142595600Y-84785200D01*
X143865000Y-83175000D02*
X143865000Y-84784600D01*
X143865000Y-84784600D02*
X143865600Y-84785200D01*
X145135000Y-83175000D02*
X145135000Y-84784600D01*
X145135000Y-84784600D02*
X145135600Y-84785200D01*
X146405000Y-83175000D02*
X146405000Y-84795000D01*
X146405000Y-84795000D02*
X146400000Y-84800000D01*
X146405000Y-88125000D02*
X146405000Y-86563800D01*
X146405000Y-86563800D02*
X146405600Y-86563200D01*
X145135000Y-88125000D02*
X145135000Y-86563800D01*
X145135000Y-86563800D02*
X145135600Y-86563200D01*
X143865000Y-88125000D02*
X143865000Y-86563800D01*
X143865000Y-86563800D02*
X143865600Y-86563200D01*
X142595000Y-88125000D02*
X142595000Y-86563800D01*
X142595000Y-86563800D02*
X142595600Y-86563200D01*
M02*
