G04 #@! TF.GenerationSoftware,KiCad,Pcbnew,(5.1.5)-3*
G04 #@! TF.CreationDate,2020-08-05T00:43:19-04:00*
G04 #@! TF.ProjectId,SOIC 8-14-16-20,534f4943-2038-42d3-9134-2d31362d3230,rev?*
G04 #@! TF.SameCoordinates,Original*
G04 #@! TF.FileFunction,Soldermask,Top*
G04 #@! TF.FilePolarity,Negative*
%FSLAX46Y46*%
G04 Gerber Fmt 4.6, Leading zero omitted, Abs format (unit mm)*
G04 Created by KiCad (PCBNEW (5.1.5)-3) date 2020-08-05 00:43:19*
%MOMM*%
%LPD*%
G04 APERTURE LIST*
%ADD10C,0.100000*%
G04 APERTURE END LIST*
D10*
G36*
X140413512Y-88423927D02*
G01*
X140562812Y-88453624D01*
X140726784Y-88521544D01*
X140874354Y-88620147D01*
X140999853Y-88745646D01*
X141098456Y-88893216D01*
X141166376Y-89057188D01*
X141201000Y-89231259D01*
X141201000Y-89408741D01*
X141166376Y-89582812D01*
X141098456Y-89746784D01*
X140999853Y-89894354D01*
X140874354Y-90019853D01*
X140726784Y-90118456D01*
X140562812Y-90186376D01*
X140413512Y-90216073D01*
X140388742Y-90221000D01*
X140211258Y-90221000D01*
X140186488Y-90216073D01*
X140037188Y-90186376D01*
X139873216Y-90118456D01*
X139725646Y-90019853D01*
X139600147Y-89894354D01*
X139501544Y-89746784D01*
X139433624Y-89582812D01*
X139399000Y-89408741D01*
X139399000Y-89231259D01*
X139433624Y-89057188D01*
X139501544Y-88893216D01*
X139600147Y-88745646D01*
X139725646Y-88620147D01*
X139873216Y-88521544D01*
X140037188Y-88453624D01*
X140186488Y-88423927D01*
X140211258Y-88419000D01*
X140388742Y-88419000D01*
X140413512Y-88423927D01*
G37*
G36*
X149451000Y-90201000D02*
G01*
X147649000Y-90201000D01*
X147649000Y-88399000D01*
X149451000Y-88399000D01*
X149451000Y-90201000D01*
G37*
G36*
X146664928Y-87101764D02*
G01*
X146686009Y-87108160D01*
X146705445Y-87118548D01*
X146722476Y-87132524D01*
X146736452Y-87149555D01*
X146746840Y-87168991D01*
X146753236Y-87190072D01*
X146756000Y-87218140D01*
X146756000Y-89031860D01*
X146753236Y-89059928D01*
X146746840Y-89081009D01*
X146736452Y-89100445D01*
X146722476Y-89117476D01*
X146705445Y-89131452D01*
X146686009Y-89141840D01*
X146664928Y-89148236D01*
X146636860Y-89151000D01*
X146173140Y-89151000D01*
X146145072Y-89148236D01*
X146123991Y-89141840D01*
X146104555Y-89131452D01*
X146087524Y-89117476D01*
X146073548Y-89100445D01*
X146063160Y-89081009D01*
X146056764Y-89059928D01*
X146054000Y-89031860D01*
X146054000Y-87218140D01*
X146056764Y-87190072D01*
X146063160Y-87168991D01*
X146073548Y-87149555D01*
X146087524Y-87132524D01*
X146104555Y-87118548D01*
X146123991Y-87108160D01*
X146145072Y-87101764D01*
X146173140Y-87099000D01*
X146636860Y-87099000D01*
X146664928Y-87101764D01*
G37*
G36*
X142854928Y-87101764D02*
G01*
X142876009Y-87108160D01*
X142895445Y-87118548D01*
X142912476Y-87132524D01*
X142926452Y-87149555D01*
X142936840Y-87168991D01*
X142943236Y-87190072D01*
X142946000Y-87218140D01*
X142946000Y-89031860D01*
X142943236Y-89059928D01*
X142936840Y-89081009D01*
X142926452Y-89100445D01*
X142912476Y-89117476D01*
X142895445Y-89131452D01*
X142876009Y-89141840D01*
X142854928Y-89148236D01*
X142826860Y-89151000D01*
X142363140Y-89151000D01*
X142335072Y-89148236D01*
X142313991Y-89141840D01*
X142294555Y-89131452D01*
X142277524Y-89117476D01*
X142263548Y-89100445D01*
X142253160Y-89081009D01*
X142246764Y-89059928D01*
X142244000Y-89031860D01*
X142244000Y-87218140D01*
X142246764Y-87190072D01*
X142253160Y-87168991D01*
X142263548Y-87149555D01*
X142277524Y-87132524D01*
X142294555Y-87118548D01*
X142313991Y-87108160D01*
X142335072Y-87101764D01*
X142363140Y-87099000D01*
X142826860Y-87099000D01*
X142854928Y-87101764D01*
G37*
G36*
X144124928Y-87101764D02*
G01*
X144146009Y-87108160D01*
X144165445Y-87118548D01*
X144182476Y-87132524D01*
X144196452Y-87149555D01*
X144206840Y-87168991D01*
X144213236Y-87190072D01*
X144216000Y-87218140D01*
X144216000Y-89031860D01*
X144213236Y-89059928D01*
X144206840Y-89081009D01*
X144196452Y-89100445D01*
X144182476Y-89117476D01*
X144165445Y-89131452D01*
X144146009Y-89141840D01*
X144124928Y-89148236D01*
X144096860Y-89151000D01*
X143633140Y-89151000D01*
X143605072Y-89148236D01*
X143583991Y-89141840D01*
X143564555Y-89131452D01*
X143547524Y-89117476D01*
X143533548Y-89100445D01*
X143523160Y-89081009D01*
X143516764Y-89059928D01*
X143514000Y-89031860D01*
X143514000Y-87218140D01*
X143516764Y-87190072D01*
X143523160Y-87168991D01*
X143533548Y-87149555D01*
X143547524Y-87132524D01*
X143564555Y-87118548D01*
X143583991Y-87108160D01*
X143605072Y-87101764D01*
X143633140Y-87099000D01*
X144096860Y-87099000D01*
X144124928Y-87101764D01*
G37*
G36*
X145394928Y-87101764D02*
G01*
X145416009Y-87108160D01*
X145435445Y-87118548D01*
X145452476Y-87132524D01*
X145466452Y-87149555D01*
X145476840Y-87168991D01*
X145483236Y-87190072D01*
X145486000Y-87218140D01*
X145486000Y-89031860D01*
X145483236Y-89059928D01*
X145476840Y-89081009D01*
X145466452Y-89100445D01*
X145452476Y-89117476D01*
X145435445Y-89131452D01*
X145416009Y-89141840D01*
X145394928Y-89148236D01*
X145366860Y-89151000D01*
X144903140Y-89151000D01*
X144875072Y-89148236D01*
X144853991Y-89141840D01*
X144834555Y-89131452D01*
X144817524Y-89117476D01*
X144803548Y-89100445D01*
X144793160Y-89081009D01*
X144786764Y-89059928D01*
X144784000Y-89031860D01*
X144784000Y-87218140D01*
X144786764Y-87190072D01*
X144793160Y-87168991D01*
X144803548Y-87149555D01*
X144817524Y-87132524D01*
X144834555Y-87118548D01*
X144853991Y-87108160D01*
X144875072Y-87101764D01*
X144903140Y-87099000D01*
X145366860Y-87099000D01*
X145394928Y-87101764D01*
G37*
G36*
X140413512Y-85883927D02*
G01*
X140562812Y-85913624D01*
X140726784Y-85981544D01*
X140874354Y-86080147D01*
X140999853Y-86205646D01*
X141098456Y-86353216D01*
X141166376Y-86517188D01*
X141201000Y-86691259D01*
X141201000Y-86868741D01*
X141166376Y-87042812D01*
X141098456Y-87206784D01*
X140999853Y-87354354D01*
X140874354Y-87479853D01*
X140726784Y-87578456D01*
X140562812Y-87646376D01*
X140413512Y-87676073D01*
X140388742Y-87681000D01*
X140211258Y-87681000D01*
X140186488Y-87676073D01*
X140037188Y-87646376D01*
X139873216Y-87578456D01*
X139725646Y-87479853D01*
X139600147Y-87354354D01*
X139501544Y-87206784D01*
X139433624Y-87042812D01*
X139399000Y-86868741D01*
X139399000Y-86691259D01*
X139433624Y-86517188D01*
X139501544Y-86353216D01*
X139600147Y-86205646D01*
X139725646Y-86080147D01*
X139873216Y-85981544D01*
X140037188Y-85913624D01*
X140186488Y-85883927D01*
X140211258Y-85879000D01*
X140388742Y-85879000D01*
X140413512Y-85883927D01*
G37*
G36*
X148663512Y-85863927D02*
G01*
X148812812Y-85893624D01*
X148976784Y-85961544D01*
X149124354Y-86060147D01*
X149249853Y-86185646D01*
X149348456Y-86333216D01*
X149416376Y-86497188D01*
X149451000Y-86671259D01*
X149451000Y-86848741D01*
X149416376Y-87022812D01*
X149348456Y-87186784D01*
X149249853Y-87334354D01*
X149124354Y-87459853D01*
X148976784Y-87558456D01*
X148812812Y-87626376D01*
X148663512Y-87656073D01*
X148638742Y-87661000D01*
X148461258Y-87661000D01*
X148436488Y-87656073D01*
X148287188Y-87626376D01*
X148123216Y-87558456D01*
X147975646Y-87459853D01*
X147850147Y-87334354D01*
X147751544Y-87186784D01*
X147683624Y-87022812D01*
X147649000Y-86848741D01*
X147649000Y-86671259D01*
X147683624Y-86497188D01*
X147751544Y-86333216D01*
X147850147Y-86185646D01*
X147975646Y-86060147D01*
X148123216Y-85961544D01*
X148287188Y-85893624D01*
X148436488Y-85863927D01*
X148461258Y-85859000D01*
X148638742Y-85859000D01*
X148663512Y-85863927D01*
G37*
G36*
X140413512Y-83343927D02*
G01*
X140562812Y-83373624D01*
X140726784Y-83441544D01*
X140874354Y-83540147D01*
X140999853Y-83665646D01*
X141098456Y-83813216D01*
X141166376Y-83977188D01*
X141187196Y-84081860D01*
X141200670Y-84149597D01*
X141201000Y-84151259D01*
X141201000Y-84328741D01*
X141166376Y-84502812D01*
X141098456Y-84666784D01*
X140999853Y-84814354D01*
X140874354Y-84939853D01*
X140726784Y-85038456D01*
X140562812Y-85106376D01*
X140413512Y-85136073D01*
X140388742Y-85141000D01*
X140211258Y-85141000D01*
X140186488Y-85136073D01*
X140037188Y-85106376D01*
X139873216Y-85038456D01*
X139725646Y-84939853D01*
X139600147Y-84814354D01*
X139501544Y-84666784D01*
X139433624Y-84502812D01*
X139399000Y-84328741D01*
X139399000Y-84151259D01*
X139399331Y-84149597D01*
X139412804Y-84081860D01*
X139433624Y-83977188D01*
X139501544Y-83813216D01*
X139600147Y-83665646D01*
X139725646Y-83540147D01*
X139873216Y-83441544D01*
X140037188Y-83373624D01*
X140186488Y-83343927D01*
X140211258Y-83339000D01*
X140388742Y-83339000D01*
X140413512Y-83343927D01*
G37*
G36*
X148663512Y-83323927D02*
G01*
X148812812Y-83353624D01*
X148976784Y-83421544D01*
X149124354Y-83520147D01*
X149249853Y-83645646D01*
X149348456Y-83793216D01*
X149416376Y-83957188D01*
X149451000Y-84131259D01*
X149451000Y-84308741D01*
X149416376Y-84482812D01*
X149348456Y-84646784D01*
X149249853Y-84794354D01*
X149124354Y-84919853D01*
X148976784Y-85018456D01*
X148812812Y-85086376D01*
X148663512Y-85116073D01*
X148638742Y-85121000D01*
X148461258Y-85121000D01*
X148436488Y-85116073D01*
X148287188Y-85086376D01*
X148123216Y-85018456D01*
X147975646Y-84919853D01*
X147850147Y-84794354D01*
X147751544Y-84646784D01*
X147683624Y-84482812D01*
X147649000Y-84308741D01*
X147649000Y-84131259D01*
X147683624Y-83957188D01*
X147751544Y-83793216D01*
X147850147Y-83645646D01*
X147975646Y-83520147D01*
X148123216Y-83421544D01*
X148287188Y-83353624D01*
X148436488Y-83323927D01*
X148461258Y-83319000D01*
X148638742Y-83319000D01*
X148663512Y-83323927D01*
G37*
G36*
X142854928Y-82151764D02*
G01*
X142876009Y-82158160D01*
X142895445Y-82168548D01*
X142912476Y-82182524D01*
X142926452Y-82199555D01*
X142936840Y-82218991D01*
X142943236Y-82240072D01*
X142946000Y-82268140D01*
X142946000Y-84081860D01*
X142943236Y-84109928D01*
X142936840Y-84131009D01*
X142926452Y-84150445D01*
X142912476Y-84167476D01*
X142895445Y-84181452D01*
X142876009Y-84191840D01*
X142854928Y-84198236D01*
X142826860Y-84201000D01*
X142363140Y-84201000D01*
X142335072Y-84198236D01*
X142313991Y-84191840D01*
X142294555Y-84181452D01*
X142277524Y-84167476D01*
X142263548Y-84150445D01*
X142253160Y-84131009D01*
X142246764Y-84109928D01*
X142244000Y-84081860D01*
X142244000Y-82268140D01*
X142246764Y-82240072D01*
X142253160Y-82218991D01*
X142263548Y-82199555D01*
X142277524Y-82182524D01*
X142294555Y-82168548D01*
X142313991Y-82158160D01*
X142335072Y-82151764D01*
X142363140Y-82149000D01*
X142826860Y-82149000D01*
X142854928Y-82151764D01*
G37*
G36*
X146664928Y-82151764D02*
G01*
X146686009Y-82158160D01*
X146705445Y-82168548D01*
X146722476Y-82182524D01*
X146736452Y-82199555D01*
X146746840Y-82218991D01*
X146753236Y-82240072D01*
X146756000Y-82268140D01*
X146756000Y-84081860D01*
X146753236Y-84109928D01*
X146746840Y-84131009D01*
X146736452Y-84150445D01*
X146722476Y-84167476D01*
X146705445Y-84181452D01*
X146686009Y-84191840D01*
X146664928Y-84198236D01*
X146636860Y-84201000D01*
X146173140Y-84201000D01*
X146145072Y-84198236D01*
X146123991Y-84191840D01*
X146104555Y-84181452D01*
X146087524Y-84167476D01*
X146073548Y-84150445D01*
X146063160Y-84131009D01*
X146056764Y-84109928D01*
X146054000Y-84081860D01*
X146054000Y-82268140D01*
X146056764Y-82240072D01*
X146063160Y-82218991D01*
X146073548Y-82199555D01*
X146087524Y-82182524D01*
X146104555Y-82168548D01*
X146123991Y-82158160D01*
X146145072Y-82151764D01*
X146173140Y-82149000D01*
X146636860Y-82149000D01*
X146664928Y-82151764D01*
G37*
G36*
X145394928Y-82151764D02*
G01*
X145416009Y-82158160D01*
X145435445Y-82168548D01*
X145452476Y-82182524D01*
X145466452Y-82199555D01*
X145476840Y-82218991D01*
X145483236Y-82240072D01*
X145486000Y-82268140D01*
X145486000Y-84081860D01*
X145483236Y-84109928D01*
X145476840Y-84131009D01*
X145466452Y-84150445D01*
X145452476Y-84167476D01*
X145435445Y-84181452D01*
X145416009Y-84191840D01*
X145394928Y-84198236D01*
X145366860Y-84201000D01*
X144903140Y-84201000D01*
X144875072Y-84198236D01*
X144853991Y-84191840D01*
X144834555Y-84181452D01*
X144817524Y-84167476D01*
X144803548Y-84150445D01*
X144793160Y-84131009D01*
X144786764Y-84109928D01*
X144784000Y-84081860D01*
X144784000Y-82268140D01*
X144786764Y-82240072D01*
X144793160Y-82218991D01*
X144803548Y-82199555D01*
X144817524Y-82182524D01*
X144834555Y-82168548D01*
X144853991Y-82158160D01*
X144875072Y-82151764D01*
X144903140Y-82149000D01*
X145366860Y-82149000D01*
X145394928Y-82151764D01*
G37*
G36*
X144124928Y-82151764D02*
G01*
X144146009Y-82158160D01*
X144165445Y-82168548D01*
X144182476Y-82182524D01*
X144196452Y-82199555D01*
X144206840Y-82218991D01*
X144213236Y-82240072D01*
X144216000Y-82268140D01*
X144216000Y-84081860D01*
X144213236Y-84109928D01*
X144206840Y-84131009D01*
X144196452Y-84150445D01*
X144182476Y-84167476D01*
X144165445Y-84181452D01*
X144146009Y-84191840D01*
X144124928Y-84198236D01*
X144096860Y-84201000D01*
X143633140Y-84201000D01*
X143605072Y-84198236D01*
X143583991Y-84191840D01*
X143564555Y-84181452D01*
X143547524Y-84167476D01*
X143533548Y-84150445D01*
X143523160Y-84131009D01*
X143516764Y-84109928D01*
X143514000Y-84081860D01*
X143514000Y-82268140D01*
X143516764Y-82240072D01*
X143523160Y-82218991D01*
X143533548Y-82199555D01*
X143547524Y-82182524D01*
X143564555Y-82168548D01*
X143583991Y-82158160D01*
X143605072Y-82151764D01*
X143633140Y-82149000D01*
X144096860Y-82149000D01*
X144124928Y-82151764D01*
G37*
G36*
X141201000Y-82601000D02*
G01*
X139399000Y-82601000D01*
X139399000Y-80799000D01*
X141201000Y-80799000D01*
X141201000Y-82601000D01*
G37*
G36*
X148663512Y-80783927D02*
G01*
X148812812Y-80813624D01*
X148976784Y-80881544D01*
X149124354Y-80980147D01*
X149249853Y-81105646D01*
X149348456Y-81253216D01*
X149416376Y-81417188D01*
X149451000Y-81591259D01*
X149451000Y-81768741D01*
X149416376Y-81942812D01*
X149348456Y-82106784D01*
X149249853Y-82254354D01*
X149124354Y-82379853D01*
X148976784Y-82478456D01*
X148812812Y-82546376D01*
X148663512Y-82576073D01*
X148638742Y-82581000D01*
X148461258Y-82581000D01*
X148436488Y-82576073D01*
X148287188Y-82546376D01*
X148123216Y-82478456D01*
X147975646Y-82379853D01*
X147850147Y-82254354D01*
X147751544Y-82106784D01*
X147683624Y-81942812D01*
X147649000Y-81768741D01*
X147649000Y-81591259D01*
X147683624Y-81417188D01*
X147751544Y-81253216D01*
X147850147Y-81105646D01*
X147975646Y-80980147D01*
X148123216Y-80881544D01*
X148287188Y-80813624D01*
X148436488Y-80783927D01*
X148461258Y-80779000D01*
X148638742Y-80779000D01*
X148663512Y-80783927D01*
G37*
M02*
