M48
; DRILL file {KiCad (5.1.5)-3} date 2/24/2020 8:26:33 PM
; FORMAT={-:-/ absolute / inch / decimal}
; #@! TF.CreationDate,2020-02-24T20:26:33-05:00
; #@! TF.GenerationSoftware,Kicad,Pcbnew,(5.1.5)-3
FMAT,2
INCH
T1C0.0394
%
G90
G05
T1
X3.7402Y-4.1831
X3.7402Y-4.2831
X3.7402Y-4.3831
X3.7402Y-4.4831
X3.7402Y-4.5831
X3.7402Y-4.6831
X3.7402Y-4.7831
X3.7402Y-4.8831
X3.7402Y-4.9831
X3.7402Y-5.0831
X3.7402Y-5.1831
X3.7402Y-5.2831
X3.7402Y-5.3831
X3.7402Y-5.4831
X3.7402Y-5.5831
X3.7402Y-5.6831
X4.9291Y-4.1831
X4.9291Y-4.2831
X4.9291Y-4.3831
X4.9291Y-4.4831
X4.9291Y-4.5831
X4.9291Y-4.6831
X4.9291Y-4.7831
X4.9291Y-4.8831
X4.9291Y-4.9831
X4.9291Y-5.0831
X4.9291Y-5.1831
X4.9291Y-5.2831
X4.9291Y-5.3831
X4.9291Y-5.4831
X4.9291Y-5.5831
X4.9291Y-5.6831
T0
M30
