G04 #@! TF.GenerationSoftware,KiCad,Pcbnew,(5.1.5)-3*
G04 #@! TF.CreationDate,2020-02-24T20:26:35-05:00*
G04 #@! TF.ProjectId,SRAM CY7C109D-10XI,5352414d-2043-4593-9743-313039442d31,rev?*
G04 #@! TF.SameCoordinates,Original*
G04 #@! TF.FileFunction,Copper,L2,Bot*
G04 #@! TF.FilePolarity,Positive*
%FSLAX46Y46*%
G04 Gerber Fmt 4.6, Leading zero omitted, Abs format (unit mm)*
G04 Created by KiCad (PCBNEW (5.1.5)-3) date 2020-02-24 20:26:35*
%MOMM*%
%LPD*%
G04 APERTURE LIST*
%ADD10O,1.700000X1.700000*%
%ADD11R,1.700000X1.700000*%
%ADD12C,0.254000*%
G04 APERTURE END LIST*
D10*
X125200000Y-144350000D03*
X125200000Y-141810000D03*
X125200000Y-139270000D03*
X125200000Y-136730000D03*
X125200000Y-134190000D03*
X125200000Y-131650000D03*
X125200000Y-129110000D03*
X125200000Y-126570000D03*
X125200000Y-124030000D03*
X125200000Y-121490000D03*
X125200000Y-118950000D03*
X125200000Y-116410000D03*
X125200000Y-113870000D03*
X125200000Y-111330000D03*
X125200000Y-108790000D03*
D11*
X125200000Y-106250000D03*
D10*
X95000000Y-106250000D03*
X95000000Y-108790000D03*
X95000000Y-111330000D03*
X95000000Y-113870000D03*
X95000000Y-116410000D03*
X95000000Y-118950000D03*
X95000000Y-121490000D03*
X95000000Y-124030000D03*
X95000000Y-126570000D03*
X95000000Y-129110000D03*
X95000000Y-131650000D03*
X95000000Y-134190000D03*
X95000000Y-136730000D03*
X95000000Y-139270000D03*
X95000000Y-141810000D03*
D11*
X95000000Y-144350000D03*
D12*
G36*
X125648126Y-102726714D02*
G01*
X126271572Y-102914943D01*
X126846579Y-103220681D01*
X127351247Y-103632279D01*
X127766362Y-104134067D01*
X128076105Y-104706924D01*
X128268682Y-105329039D01*
X128340001Y-106007594D01*
X128340000Y-144967721D01*
X128273286Y-145648126D01*
X128085057Y-146271570D01*
X127779323Y-146846573D01*
X127367721Y-147351248D01*
X126865933Y-147766362D01*
X126293077Y-148076104D01*
X125670961Y-148268682D01*
X124992417Y-148340000D01*
X95032279Y-148340000D01*
X94351874Y-148273286D01*
X93728430Y-148085057D01*
X93153427Y-147779323D01*
X92648752Y-147367721D01*
X92233638Y-146865933D01*
X91923896Y-146293077D01*
X91731318Y-145670961D01*
X91660000Y-144992417D01*
X91660000Y-143500000D01*
X93511928Y-143500000D01*
X93511928Y-145200000D01*
X93524188Y-145324482D01*
X93560498Y-145444180D01*
X93619463Y-145554494D01*
X93698815Y-145651185D01*
X93795506Y-145730537D01*
X93905820Y-145789502D01*
X94025518Y-145825812D01*
X94150000Y-145838072D01*
X95850000Y-145838072D01*
X95974482Y-145825812D01*
X96094180Y-145789502D01*
X96204494Y-145730537D01*
X96301185Y-145651185D01*
X96380537Y-145554494D01*
X96439502Y-145444180D01*
X96475812Y-145324482D01*
X96488072Y-145200000D01*
X96488072Y-143500000D01*
X96475812Y-143375518D01*
X96439502Y-143255820D01*
X96380537Y-143145506D01*
X96301185Y-143048815D01*
X96204494Y-142969463D01*
X96094180Y-142910498D01*
X96021620Y-142888487D01*
X96153475Y-142756632D01*
X96315990Y-142513411D01*
X96427932Y-142243158D01*
X96485000Y-141956260D01*
X96485000Y-141663740D01*
X96427932Y-141376842D01*
X96315990Y-141106589D01*
X96153475Y-140863368D01*
X95946632Y-140656525D01*
X95772240Y-140540000D01*
X95946632Y-140423475D01*
X96153475Y-140216632D01*
X96315990Y-139973411D01*
X96427932Y-139703158D01*
X96485000Y-139416260D01*
X96485000Y-139123740D01*
X96427932Y-138836842D01*
X96315990Y-138566589D01*
X96153475Y-138323368D01*
X95946632Y-138116525D01*
X95772240Y-138000000D01*
X95946632Y-137883475D01*
X96153475Y-137676632D01*
X96315990Y-137433411D01*
X96427932Y-137163158D01*
X96485000Y-136876260D01*
X96485000Y-136583740D01*
X96427932Y-136296842D01*
X96315990Y-136026589D01*
X96153475Y-135783368D01*
X95946632Y-135576525D01*
X95772240Y-135460000D01*
X95946632Y-135343475D01*
X96153475Y-135136632D01*
X96315990Y-134893411D01*
X96427932Y-134623158D01*
X96485000Y-134336260D01*
X96485000Y-134043740D01*
X96427932Y-133756842D01*
X96315990Y-133486589D01*
X96153475Y-133243368D01*
X95946632Y-133036525D01*
X95772240Y-132920000D01*
X95946632Y-132803475D01*
X96153475Y-132596632D01*
X96315990Y-132353411D01*
X96427932Y-132083158D01*
X96485000Y-131796260D01*
X96485000Y-131503740D01*
X96427932Y-131216842D01*
X96315990Y-130946589D01*
X96153475Y-130703368D01*
X95946632Y-130496525D01*
X95772240Y-130380000D01*
X95946632Y-130263475D01*
X96153475Y-130056632D01*
X96315990Y-129813411D01*
X96427932Y-129543158D01*
X96485000Y-129256260D01*
X96485000Y-128963740D01*
X96427932Y-128676842D01*
X96315990Y-128406589D01*
X96153475Y-128163368D01*
X95946632Y-127956525D01*
X95772240Y-127840000D01*
X95946632Y-127723475D01*
X96153475Y-127516632D01*
X96315990Y-127273411D01*
X96427932Y-127003158D01*
X96485000Y-126716260D01*
X96485000Y-126423740D01*
X96427932Y-126136842D01*
X96315990Y-125866589D01*
X96153475Y-125623368D01*
X95946632Y-125416525D01*
X95772240Y-125300000D01*
X95946632Y-125183475D01*
X96153475Y-124976632D01*
X96315990Y-124733411D01*
X96427932Y-124463158D01*
X96485000Y-124176260D01*
X96485000Y-123883740D01*
X96427932Y-123596842D01*
X96315990Y-123326589D01*
X96153475Y-123083368D01*
X95946632Y-122876525D01*
X95772240Y-122760000D01*
X95946632Y-122643475D01*
X96153475Y-122436632D01*
X96315990Y-122193411D01*
X96427932Y-121923158D01*
X96485000Y-121636260D01*
X96485000Y-121343740D01*
X96427932Y-121056842D01*
X96315990Y-120786589D01*
X96153475Y-120543368D01*
X95946632Y-120336525D01*
X95772240Y-120220000D01*
X95946632Y-120103475D01*
X96153475Y-119896632D01*
X96315990Y-119653411D01*
X96427932Y-119383158D01*
X96485000Y-119096260D01*
X96485000Y-118803740D01*
X96427932Y-118516842D01*
X96315990Y-118246589D01*
X96153475Y-118003368D01*
X95946632Y-117796525D01*
X95772240Y-117680000D01*
X95946632Y-117563475D01*
X96153475Y-117356632D01*
X96315990Y-117113411D01*
X96427932Y-116843158D01*
X96485000Y-116556260D01*
X96485000Y-116263740D01*
X96427932Y-115976842D01*
X96315990Y-115706589D01*
X96153475Y-115463368D01*
X95946632Y-115256525D01*
X95772240Y-115140000D01*
X95946632Y-115023475D01*
X96153475Y-114816632D01*
X96315990Y-114573411D01*
X96427932Y-114303158D01*
X96485000Y-114016260D01*
X96485000Y-113723740D01*
X96427932Y-113436842D01*
X96315990Y-113166589D01*
X96153475Y-112923368D01*
X95946632Y-112716525D01*
X95772240Y-112600000D01*
X95946632Y-112483475D01*
X96153475Y-112276632D01*
X96315990Y-112033411D01*
X96427932Y-111763158D01*
X96485000Y-111476260D01*
X96485000Y-111183740D01*
X96427932Y-110896842D01*
X96315990Y-110626589D01*
X96153475Y-110383368D01*
X95946632Y-110176525D01*
X95772240Y-110060000D01*
X95946632Y-109943475D01*
X96153475Y-109736632D01*
X96315990Y-109493411D01*
X96427932Y-109223158D01*
X96485000Y-108936260D01*
X96485000Y-108643740D01*
X96427932Y-108356842D01*
X96315990Y-108086589D01*
X96153475Y-107843368D01*
X95946632Y-107636525D01*
X95772240Y-107520000D01*
X95946632Y-107403475D01*
X96153475Y-107196632D01*
X96315990Y-106953411D01*
X96427932Y-106683158D01*
X96485000Y-106396260D01*
X96485000Y-106103740D01*
X96427932Y-105816842D01*
X96315990Y-105546589D01*
X96218043Y-105400000D01*
X123711928Y-105400000D01*
X123711928Y-107100000D01*
X123724188Y-107224482D01*
X123760498Y-107344180D01*
X123819463Y-107454494D01*
X123898815Y-107551185D01*
X123995506Y-107630537D01*
X124105820Y-107689502D01*
X124178380Y-107711513D01*
X124046525Y-107843368D01*
X123884010Y-108086589D01*
X123772068Y-108356842D01*
X123715000Y-108643740D01*
X123715000Y-108936260D01*
X123772068Y-109223158D01*
X123884010Y-109493411D01*
X124046525Y-109736632D01*
X124253368Y-109943475D01*
X124427760Y-110060000D01*
X124253368Y-110176525D01*
X124046525Y-110383368D01*
X123884010Y-110626589D01*
X123772068Y-110896842D01*
X123715000Y-111183740D01*
X123715000Y-111476260D01*
X123772068Y-111763158D01*
X123884010Y-112033411D01*
X124046525Y-112276632D01*
X124253368Y-112483475D01*
X124427760Y-112600000D01*
X124253368Y-112716525D01*
X124046525Y-112923368D01*
X123884010Y-113166589D01*
X123772068Y-113436842D01*
X123715000Y-113723740D01*
X123715000Y-114016260D01*
X123772068Y-114303158D01*
X123884010Y-114573411D01*
X124046525Y-114816632D01*
X124253368Y-115023475D01*
X124427760Y-115140000D01*
X124253368Y-115256525D01*
X124046525Y-115463368D01*
X123884010Y-115706589D01*
X123772068Y-115976842D01*
X123715000Y-116263740D01*
X123715000Y-116556260D01*
X123772068Y-116843158D01*
X123884010Y-117113411D01*
X124046525Y-117356632D01*
X124253368Y-117563475D01*
X124427760Y-117680000D01*
X124253368Y-117796525D01*
X124046525Y-118003368D01*
X123884010Y-118246589D01*
X123772068Y-118516842D01*
X123715000Y-118803740D01*
X123715000Y-119096260D01*
X123772068Y-119383158D01*
X123884010Y-119653411D01*
X124046525Y-119896632D01*
X124253368Y-120103475D01*
X124427760Y-120220000D01*
X124253368Y-120336525D01*
X124046525Y-120543368D01*
X123884010Y-120786589D01*
X123772068Y-121056842D01*
X123715000Y-121343740D01*
X123715000Y-121636260D01*
X123772068Y-121923158D01*
X123884010Y-122193411D01*
X124046525Y-122436632D01*
X124253368Y-122643475D01*
X124427760Y-122760000D01*
X124253368Y-122876525D01*
X124046525Y-123083368D01*
X123884010Y-123326589D01*
X123772068Y-123596842D01*
X123715000Y-123883740D01*
X123715000Y-124176260D01*
X123772068Y-124463158D01*
X123884010Y-124733411D01*
X124046525Y-124976632D01*
X124253368Y-125183475D01*
X124427760Y-125300000D01*
X124253368Y-125416525D01*
X124046525Y-125623368D01*
X123884010Y-125866589D01*
X123772068Y-126136842D01*
X123715000Y-126423740D01*
X123715000Y-126716260D01*
X123772068Y-127003158D01*
X123884010Y-127273411D01*
X124046525Y-127516632D01*
X124253368Y-127723475D01*
X124427760Y-127840000D01*
X124253368Y-127956525D01*
X124046525Y-128163368D01*
X123884010Y-128406589D01*
X123772068Y-128676842D01*
X123715000Y-128963740D01*
X123715000Y-129256260D01*
X123772068Y-129543158D01*
X123884010Y-129813411D01*
X124046525Y-130056632D01*
X124253368Y-130263475D01*
X124427760Y-130380000D01*
X124253368Y-130496525D01*
X124046525Y-130703368D01*
X123884010Y-130946589D01*
X123772068Y-131216842D01*
X123715000Y-131503740D01*
X123715000Y-131796260D01*
X123772068Y-132083158D01*
X123884010Y-132353411D01*
X124046525Y-132596632D01*
X124253368Y-132803475D01*
X124427760Y-132920000D01*
X124253368Y-133036525D01*
X124046525Y-133243368D01*
X123884010Y-133486589D01*
X123772068Y-133756842D01*
X123715000Y-134043740D01*
X123715000Y-134336260D01*
X123772068Y-134623158D01*
X123884010Y-134893411D01*
X124046525Y-135136632D01*
X124253368Y-135343475D01*
X124427760Y-135460000D01*
X124253368Y-135576525D01*
X124046525Y-135783368D01*
X123884010Y-136026589D01*
X123772068Y-136296842D01*
X123715000Y-136583740D01*
X123715000Y-136876260D01*
X123772068Y-137163158D01*
X123884010Y-137433411D01*
X124046525Y-137676632D01*
X124253368Y-137883475D01*
X124427760Y-138000000D01*
X124253368Y-138116525D01*
X124046525Y-138323368D01*
X123884010Y-138566589D01*
X123772068Y-138836842D01*
X123715000Y-139123740D01*
X123715000Y-139416260D01*
X123772068Y-139703158D01*
X123884010Y-139973411D01*
X124046525Y-140216632D01*
X124253368Y-140423475D01*
X124427760Y-140540000D01*
X124253368Y-140656525D01*
X124046525Y-140863368D01*
X123884010Y-141106589D01*
X123772068Y-141376842D01*
X123715000Y-141663740D01*
X123715000Y-141956260D01*
X123772068Y-142243158D01*
X123884010Y-142513411D01*
X124046525Y-142756632D01*
X124253368Y-142963475D01*
X124427760Y-143080000D01*
X124253368Y-143196525D01*
X124046525Y-143403368D01*
X123884010Y-143646589D01*
X123772068Y-143916842D01*
X123715000Y-144203740D01*
X123715000Y-144496260D01*
X123772068Y-144783158D01*
X123884010Y-145053411D01*
X124046525Y-145296632D01*
X124253368Y-145503475D01*
X124496589Y-145665990D01*
X124766842Y-145777932D01*
X125053740Y-145835000D01*
X125346260Y-145835000D01*
X125633158Y-145777932D01*
X125903411Y-145665990D01*
X126146632Y-145503475D01*
X126353475Y-145296632D01*
X126515990Y-145053411D01*
X126627932Y-144783158D01*
X126685000Y-144496260D01*
X126685000Y-144203740D01*
X126627932Y-143916842D01*
X126515990Y-143646589D01*
X126353475Y-143403368D01*
X126146632Y-143196525D01*
X125972240Y-143080000D01*
X126146632Y-142963475D01*
X126353475Y-142756632D01*
X126515990Y-142513411D01*
X126627932Y-142243158D01*
X126685000Y-141956260D01*
X126685000Y-141663740D01*
X126627932Y-141376842D01*
X126515990Y-141106589D01*
X126353475Y-140863368D01*
X126146632Y-140656525D01*
X125972240Y-140540000D01*
X126146632Y-140423475D01*
X126353475Y-140216632D01*
X126515990Y-139973411D01*
X126627932Y-139703158D01*
X126685000Y-139416260D01*
X126685000Y-139123740D01*
X126627932Y-138836842D01*
X126515990Y-138566589D01*
X126353475Y-138323368D01*
X126146632Y-138116525D01*
X125972240Y-138000000D01*
X126146632Y-137883475D01*
X126353475Y-137676632D01*
X126515990Y-137433411D01*
X126627932Y-137163158D01*
X126685000Y-136876260D01*
X126685000Y-136583740D01*
X126627932Y-136296842D01*
X126515990Y-136026589D01*
X126353475Y-135783368D01*
X126146632Y-135576525D01*
X125972240Y-135460000D01*
X126146632Y-135343475D01*
X126353475Y-135136632D01*
X126515990Y-134893411D01*
X126627932Y-134623158D01*
X126685000Y-134336260D01*
X126685000Y-134043740D01*
X126627932Y-133756842D01*
X126515990Y-133486589D01*
X126353475Y-133243368D01*
X126146632Y-133036525D01*
X125972240Y-132920000D01*
X126146632Y-132803475D01*
X126353475Y-132596632D01*
X126515990Y-132353411D01*
X126627932Y-132083158D01*
X126685000Y-131796260D01*
X126685000Y-131503740D01*
X126627932Y-131216842D01*
X126515990Y-130946589D01*
X126353475Y-130703368D01*
X126146632Y-130496525D01*
X125972240Y-130380000D01*
X126146632Y-130263475D01*
X126353475Y-130056632D01*
X126515990Y-129813411D01*
X126627932Y-129543158D01*
X126685000Y-129256260D01*
X126685000Y-128963740D01*
X126627932Y-128676842D01*
X126515990Y-128406589D01*
X126353475Y-128163368D01*
X126146632Y-127956525D01*
X125972240Y-127840000D01*
X126146632Y-127723475D01*
X126353475Y-127516632D01*
X126515990Y-127273411D01*
X126627932Y-127003158D01*
X126685000Y-126716260D01*
X126685000Y-126423740D01*
X126627932Y-126136842D01*
X126515990Y-125866589D01*
X126353475Y-125623368D01*
X126146632Y-125416525D01*
X125972240Y-125300000D01*
X126146632Y-125183475D01*
X126353475Y-124976632D01*
X126515990Y-124733411D01*
X126627932Y-124463158D01*
X126685000Y-124176260D01*
X126685000Y-123883740D01*
X126627932Y-123596842D01*
X126515990Y-123326589D01*
X126353475Y-123083368D01*
X126146632Y-122876525D01*
X125972240Y-122760000D01*
X126146632Y-122643475D01*
X126353475Y-122436632D01*
X126515990Y-122193411D01*
X126627932Y-121923158D01*
X126685000Y-121636260D01*
X126685000Y-121343740D01*
X126627932Y-121056842D01*
X126515990Y-120786589D01*
X126353475Y-120543368D01*
X126146632Y-120336525D01*
X125972240Y-120220000D01*
X126146632Y-120103475D01*
X126353475Y-119896632D01*
X126515990Y-119653411D01*
X126627932Y-119383158D01*
X126685000Y-119096260D01*
X126685000Y-118803740D01*
X126627932Y-118516842D01*
X126515990Y-118246589D01*
X126353475Y-118003368D01*
X126146632Y-117796525D01*
X125972240Y-117680000D01*
X126146632Y-117563475D01*
X126353475Y-117356632D01*
X126515990Y-117113411D01*
X126627932Y-116843158D01*
X126685000Y-116556260D01*
X126685000Y-116263740D01*
X126627932Y-115976842D01*
X126515990Y-115706589D01*
X126353475Y-115463368D01*
X126146632Y-115256525D01*
X125972240Y-115140000D01*
X126146632Y-115023475D01*
X126353475Y-114816632D01*
X126515990Y-114573411D01*
X126627932Y-114303158D01*
X126685000Y-114016260D01*
X126685000Y-113723740D01*
X126627932Y-113436842D01*
X126515990Y-113166589D01*
X126353475Y-112923368D01*
X126146632Y-112716525D01*
X125972240Y-112600000D01*
X126146632Y-112483475D01*
X126353475Y-112276632D01*
X126515990Y-112033411D01*
X126627932Y-111763158D01*
X126685000Y-111476260D01*
X126685000Y-111183740D01*
X126627932Y-110896842D01*
X126515990Y-110626589D01*
X126353475Y-110383368D01*
X126146632Y-110176525D01*
X125972240Y-110060000D01*
X126146632Y-109943475D01*
X126353475Y-109736632D01*
X126515990Y-109493411D01*
X126627932Y-109223158D01*
X126685000Y-108936260D01*
X126685000Y-108643740D01*
X126627932Y-108356842D01*
X126515990Y-108086589D01*
X126353475Y-107843368D01*
X126221620Y-107711513D01*
X126294180Y-107689502D01*
X126404494Y-107630537D01*
X126501185Y-107551185D01*
X126580537Y-107454494D01*
X126639502Y-107344180D01*
X126675812Y-107224482D01*
X126688072Y-107100000D01*
X126688072Y-105400000D01*
X126675812Y-105275518D01*
X126639502Y-105155820D01*
X126580537Y-105045506D01*
X126501185Y-104948815D01*
X126404494Y-104869463D01*
X126294180Y-104810498D01*
X126174482Y-104774188D01*
X126050000Y-104761928D01*
X124350000Y-104761928D01*
X124225518Y-104774188D01*
X124105820Y-104810498D01*
X123995506Y-104869463D01*
X123898815Y-104948815D01*
X123819463Y-105045506D01*
X123760498Y-105155820D01*
X123724188Y-105275518D01*
X123711928Y-105400000D01*
X96218043Y-105400000D01*
X96153475Y-105303368D01*
X95946632Y-105096525D01*
X95703411Y-104934010D01*
X95433158Y-104822068D01*
X95146260Y-104765000D01*
X94853740Y-104765000D01*
X94566842Y-104822068D01*
X94296589Y-104934010D01*
X94053368Y-105096525D01*
X93846525Y-105303368D01*
X93684010Y-105546589D01*
X93572068Y-105816842D01*
X93515000Y-106103740D01*
X93515000Y-106396260D01*
X93572068Y-106683158D01*
X93684010Y-106953411D01*
X93846525Y-107196632D01*
X94053368Y-107403475D01*
X94227760Y-107520000D01*
X94053368Y-107636525D01*
X93846525Y-107843368D01*
X93684010Y-108086589D01*
X93572068Y-108356842D01*
X93515000Y-108643740D01*
X93515000Y-108936260D01*
X93572068Y-109223158D01*
X93684010Y-109493411D01*
X93846525Y-109736632D01*
X94053368Y-109943475D01*
X94227760Y-110060000D01*
X94053368Y-110176525D01*
X93846525Y-110383368D01*
X93684010Y-110626589D01*
X93572068Y-110896842D01*
X93515000Y-111183740D01*
X93515000Y-111476260D01*
X93572068Y-111763158D01*
X93684010Y-112033411D01*
X93846525Y-112276632D01*
X94053368Y-112483475D01*
X94227760Y-112600000D01*
X94053368Y-112716525D01*
X93846525Y-112923368D01*
X93684010Y-113166589D01*
X93572068Y-113436842D01*
X93515000Y-113723740D01*
X93515000Y-114016260D01*
X93572068Y-114303158D01*
X93684010Y-114573411D01*
X93846525Y-114816632D01*
X94053368Y-115023475D01*
X94227760Y-115140000D01*
X94053368Y-115256525D01*
X93846525Y-115463368D01*
X93684010Y-115706589D01*
X93572068Y-115976842D01*
X93515000Y-116263740D01*
X93515000Y-116556260D01*
X93572068Y-116843158D01*
X93684010Y-117113411D01*
X93846525Y-117356632D01*
X94053368Y-117563475D01*
X94227760Y-117680000D01*
X94053368Y-117796525D01*
X93846525Y-118003368D01*
X93684010Y-118246589D01*
X93572068Y-118516842D01*
X93515000Y-118803740D01*
X93515000Y-119096260D01*
X93572068Y-119383158D01*
X93684010Y-119653411D01*
X93846525Y-119896632D01*
X94053368Y-120103475D01*
X94227760Y-120220000D01*
X94053368Y-120336525D01*
X93846525Y-120543368D01*
X93684010Y-120786589D01*
X93572068Y-121056842D01*
X93515000Y-121343740D01*
X93515000Y-121636260D01*
X93572068Y-121923158D01*
X93684010Y-122193411D01*
X93846525Y-122436632D01*
X94053368Y-122643475D01*
X94227760Y-122760000D01*
X94053368Y-122876525D01*
X93846525Y-123083368D01*
X93684010Y-123326589D01*
X93572068Y-123596842D01*
X93515000Y-123883740D01*
X93515000Y-124176260D01*
X93572068Y-124463158D01*
X93684010Y-124733411D01*
X93846525Y-124976632D01*
X94053368Y-125183475D01*
X94227760Y-125300000D01*
X94053368Y-125416525D01*
X93846525Y-125623368D01*
X93684010Y-125866589D01*
X93572068Y-126136842D01*
X93515000Y-126423740D01*
X93515000Y-126716260D01*
X93572068Y-127003158D01*
X93684010Y-127273411D01*
X93846525Y-127516632D01*
X94053368Y-127723475D01*
X94227760Y-127840000D01*
X94053368Y-127956525D01*
X93846525Y-128163368D01*
X93684010Y-128406589D01*
X93572068Y-128676842D01*
X93515000Y-128963740D01*
X93515000Y-129256260D01*
X93572068Y-129543158D01*
X93684010Y-129813411D01*
X93846525Y-130056632D01*
X94053368Y-130263475D01*
X94227760Y-130380000D01*
X94053368Y-130496525D01*
X93846525Y-130703368D01*
X93684010Y-130946589D01*
X93572068Y-131216842D01*
X93515000Y-131503740D01*
X93515000Y-131796260D01*
X93572068Y-132083158D01*
X93684010Y-132353411D01*
X93846525Y-132596632D01*
X94053368Y-132803475D01*
X94227760Y-132920000D01*
X94053368Y-133036525D01*
X93846525Y-133243368D01*
X93684010Y-133486589D01*
X93572068Y-133756842D01*
X93515000Y-134043740D01*
X93515000Y-134336260D01*
X93572068Y-134623158D01*
X93684010Y-134893411D01*
X93846525Y-135136632D01*
X94053368Y-135343475D01*
X94227760Y-135460000D01*
X94053368Y-135576525D01*
X93846525Y-135783368D01*
X93684010Y-136026589D01*
X93572068Y-136296842D01*
X93515000Y-136583740D01*
X93515000Y-136876260D01*
X93572068Y-137163158D01*
X93684010Y-137433411D01*
X93846525Y-137676632D01*
X94053368Y-137883475D01*
X94227760Y-138000000D01*
X94053368Y-138116525D01*
X93846525Y-138323368D01*
X93684010Y-138566589D01*
X93572068Y-138836842D01*
X93515000Y-139123740D01*
X93515000Y-139416260D01*
X93572068Y-139703158D01*
X93684010Y-139973411D01*
X93846525Y-140216632D01*
X94053368Y-140423475D01*
X94227760Y-140540000D01*
X94053368Y-140656525D01*
X93846525Y-140863368D01*
X93684010Y-141106589D01*
X93572068Y-141376842D01*
X93515000Y-141663740D01*
X93515000Y-141956260D01*
X93572068Y-142243158D01*
X93684010Y-142513411D01*
X93846525Y-142756632D01*
X93978380Y-142888487D01*
X93905820Y-142910498D01*
X93795506Y-142969463D01*
X93698815Y-143048815D01*
X93619463Y-143145506D01*
X93560498Y-143255820D01*
X93524188Y-143375518D01*
X93511928Y-143500000D01*
X91660000Y-143500000D01*
X91660000Y-106032278D01*
X91726714Y-105351874D01*
X91914943Y-104728428D01*
X92220681Y-104153421D01*
X92632279Y-103648753D01*
X93134067Y-103233638D01*
X93706924Y-102923895D01*
X94329039Y-102731318D01*
X95007584Y-102660000D01*
X124967722Y-102660000D01*
X125648126Y-102726714D01*
G37*
X125648126Y-102726714D02*
X126271572Y-102914943D01*
X126846579Y-103220681D01*
X127351247Y-103632279D01*
X127766362Y-104134067D01*
X128076105Y-104706924D01*
X128268682Y-105329039D01*
X128340001Y-106007594D01*
X128340000Y-144967721D01*
X128273286Y-145648126D01*
X128085057Y-146271570D01*
X127779323Y-146846573D01*
X127367721Y-147351248D01*
X126865933Y-147766362D01*
X126293077Y-148076104D01*
X125670961Y-148268682D01*
X124992417Y-148340000D01*
X95032279Y-148340000D01*
X94351874Y-148273286D01*
X93728430Y-148085057D01*
X93153427Y-147779323D01*
X92648752Y-147367721D01*
X92233638Y-146865933D01*
X91923896Y-146293077D01*
X91731318Y-145670961D01*
X91660000Y-144992417D01*
X91660000Y-143500000D01*
X93511928Y-143500000D01*
X93511928Y-145200000D01*
X93524188Y-145324482D01*
X93560498Y-145444180D01*
X93619463Y-145554494D01*
X93698815Y-145651185D01*
X93795506Y-145730537D01*
X93905820Y-145789502D01*
X94025518Y-145825812D01*
X94150000Y-145838072D01*
X95850000Y-145838072D01*
X95974482Y-145825812D01*
X96094180Y-145789502D01*
X96204494Y-145730537D01*
X96301185Y-145651185D01*
X96380537Y-145554494D01*
X96439502Y-145444180D01*
X96475812Y-145324482D01*
X96488072Y-145200000D01*
X96488072Y-143500000D01*
X96475812Y-143375518D01*
X96439502Y-143255820D01*
X96380537Y-143145506D01*
X96301185Y-143048815D01*
X96204494Y-142969463D01*
X96094180Y-142910498D01*
X96021620Y-142888487D01*
X96153475Y-142756632D01*
X96315990Y-142513411D01*
X96427932Y-142243158D01*
X96485000Y-141956260D01*
X96485000Y-141663740D01*
X96427932Y-141376842D01*
X96315990Y-141106589D01*
X96153475Y-140863368D01*
X95946632Y-140656525D01*
X95772240Y-140540000D01*
X95946632Y-140423475D01*
X96153475Y-140216632D01*
X96315990Y-139973411D01*
X96427932Y-139703158D01*
X96485000Y-139416260D01*
X96485000Y-139123740D01*
X96427932Y-138836842D01*
X96315990Y-138566589D01*
X96153475Y-138323368D01*
X95946632Y-138116525D01*
X95772240Y-138000000D01*
X95946632Y-137883475D01*
X96153475Y-137676632D01*
X96315990Y-137433411D01*
X96427932Y-137163158D01*
X96485000Y-136876260D01*
X96485000Y-136583740D01*
X96427932Y-136296842D01*
X96315990Y-136026589D01*
X96153475Y-135783368D01*
X95946632Y-135576525D01*
X95772240Y-135460000D01*
X95946632Y-135343475D01*
X96153475Y-135136632D01*
X96315990Y-134893411D01*
X96427932Y-134623158D01*
X96485000Y-134336260D01*
X96485000Y-134043740D01*
X96427932Y-133756842D01*
X96315990Y-133486589D01*
X96153475Y-133243368D01*
X95946632Y-133036525D01*
X95772240Y-132920000D01*
X95946632Y-132803475D01*
X96153475Y-132596632D01*
X96315990Y-132353411D01*
X96427932Y-132083158D01*
X96485000Y-131796260D01*
X96485000Y-131503740D01*
X96427932Y-131216842D01*
X96315990Y-130946589D01*
X96153475Y-130703368D01*
X95946632Y-130496525D01*
X95772240Y-130380000D01*
X95946632Y-130263475D01*
X96153475Y-130056632D01*
X96315990Y-129813411D01*
X96427932Y-129543158D01*
X96485000Y-129256260D01*
X96485000Y-128963740D01*
X96427932Y-128676842D01*
X96315990Y-128406589D01*
X96153475Y-128163368D01*
X95946632Y-127956525D01*
X95772240Y-127840000D01*
X95946632Y-127723475D01*
X96153475Y-127516632D01*
X96315990Y-127273411D01*
X96427932Y-127003158D01*
X96485000Y-126716260D01*
X96485000Y-126423740D01*
X96427932Y-126136842D01*
X96315990Y-125866589D01*
X96153475Y-125623368D01*
X95946632Y-125416525D01*
X95772240Y-125300000D01*
X95946632Y-125183475D01*
X96153475Y-124976632D01*
X96315990Y-124733411D01*
X96427932Y-124463158D01*
X96485000Y-124176260D01*
X96485000Y-123883740D01*
X96427932Y-123596842D01*
X96315990Y-123326589D01*
X96153475Y-123083368D01*
X95946632Y-122876525D01*
X95772240Y-122760000D01*
X95946632Y-122643475D01*
X96153475Y-122436632D01*
X96315990Y-122193411D01*
X96427932Y-121923158D01*
X96485000Y-121636260D01*
X96485000Y-121343740D01*
X96427932Y-121056842D01*
X96315990Y-120786589D01*
X96153475Y-120543368D01*
X95946632Y-120336525D01*
X95772240Y-120220000D01*
X95946632Y-120103475D01*
X96153475Y-119896632D01*
X96315990Y-119653411D01*
X96427932Y-119383158D01*
X96485000Y-119096260D01*
X96485000Y-118803740D01*
X96427932Y-118516842D01*
X96315990Y-118246589D01*
X96153475Y-118003368D01*
X95946632Y-117796525D01*
X95772240Y-117680000D01*
X95946632Y-117563475D01*
X96153475Y-117356632D01*
X96315990Y-117113411D01*
X96427932Y-116843158D01*
X96485000Y-116556260D01*
X96485000Y-116263740D01*
X96427932Y-115976842D01*
X96315990Y-115706589D01*
X96153475Y-115463368D01*
X95946632Y-115256525D01*
X95772240Y-115140000D01*
X95946632Y-115023475D01*
X96153475Y-114816632D01*
X96315990Y-114573411D01*
X96427932Y-114303158D01*
X96485000Y-114016260D01*
X96485000Y-113723740D01*
X96427932Y-113436842D01*
X96315990Y-113166589D01*
X96153475Y-112923368D01*
X95946632Y-112716525D01*
X95772240Y-112600000D01*
X95946632Y-112483475D01*
X96153475Y-112276632D01*
X96315990Y-112033411D01*
X96427932Y-111763158D01*
X96485000Y-111476260D01*
X96485000Y-111183740D01*
X96427932Y-110896842D01*
X96315990Y-110626589D01*
X96153475Y-110383368D01*
X95946632Y-110176525D01*
X95772240Y-110060000D01*
X95946632Y-109943475D01*
X96153475Y-109736632D01*
X96315990Y-109493411D01*
X96427932Y-109223158D01*
X96485000Y-108936260D01*
X96485000Y-108643740D01*
X96427932Y-108356842D01*
X96315990Y-108086589D01*
X96153475Y-107843368D01*
X95946632Y-107636525D01*
X95772240Y-107520000D01*
X95946632Y-107403475D01*
X96153475Y-107196632D01*
X96315990Y-106953411D01*
X96427932Y-106683158D01*
X96485000Y-106396260D01*
X96485000Y-106103740D01*
X96427932Y-105816842D01*
X96315990Y-105546589D01*
X96218043Y-105400000D01*
X123711928Y-105400000D01*
X123711928Y-107100000D01*
X123724188Y-107224482D01*
X123760498Y-107344180D01*
X123819463Y-107454494D01*
X123898815Y-107551185D01*
X123995506Y-107630537D01*
X124105820Y-107689502D01*
X124178380Y-107711513D01*
X124046525Y-107843368D01*
X123884010Y-108086589D01*
X123772068Y-108356842D01*
X123715000Y-108643740D01*
X123715000Y-108936260D01*
X123772068Y-109223158D01*
X123884010Y-109493411D01*
X124046525Y-109736632D01*
X124253368Y-109943475D01*
X124427760Y-110060000D01*
X124253368Y-110176525D01*
X124046525Y-110383368D01*
X123884010Y-110626589D01*
X123772068Y-110896842D01*
X123715000Y-111183740D01*
X123715000Y-111476260D01*
X123772068Y-111763158D01*
X123884010Y-112033411D01*
X124046525Y-112276632D01*
X124253368Y-112483475D01*
X124427760Y-112600000D01*
X124253368Y-112716525D01*
X124046525Y-112923368D01*
X123884010Y-113166589D01*
X123772068Y-113436842D01*
X123715000Y-113723740D01*
X123715000Y-114016260D01*
X123772068Y-114303158D01*
X123884010Y-114573411D01*
X124046525Y-114816632D01*
X124253368Y-115023475D01*
X124427760Y-115140000D01*
X124253368Y-115256525D01*
X124046525Y-115463368D01*
X123884010Y-115706589D01*
X123772068Y-115976842D01*
X123715000Y-116263740D01*
X123715000Y-116556260D01*
X123772068Y-116843158D01*
X123884010Y-117113411D01*
X124046525Y-117356632D01*
X124253368Y-117563475D01*
X124427760Y-117680000D01*
X124253368Y-117796525D01*
X124046525Y-118003368D01*
X123884010Y-118246589D01*
X123772068Y-118516842D01*
X123715000Y-118803740D01*
X123715000Y-119096260D01*
X123772068Y-119383158D01*
X123884010Y-119653411D01*
X124046525Y-119896632D01*
X124253368Y-120103475D01*
X124427760Y-120220000D01*
X124253368Y-120336525D01*
X124046525Y-120543368D01*
X123884010Y-120786589D01*
X123772068Y-121056842D01*
X123715000Y-121343740D01*
X123715000Y-121636260D01*
X123772068Y-121923158D01*
X123884010Y-122193411D01*
X124046525Y-122436632D01*
X124253368Y-122643475D01*
X124427760Y-122760000D01*
X124253368Y-122876525D01*
X124046525Y-123083368D01*
X123884010Y-123326589D01*
X123772068Y-123596842D01*
X123715000Y-123883740D01*
X123715000Y-124176260D01*
X123772068Y-124463158D01*
X123884010Y-124733411D01*
X124046525Y-124976632D01*
X124253368Y-125183475D01*
X124427760Y-125300000D01*
X124253368Y-125416525D01*
X124046525Y-125623368D01*
X123884010Y-125866589D01*
X123772068Y-126136842D01*
X123715000Y-126423740D01*
X123715000Y-126716260D01*
X123772068Y-127003158D01*
X123884010Y-127273411D01*
X124046525Y-127516632D01*
X124253368Y-127723475D01*
X124427760Y-127840000D01*
X124253368Y-127956525D01*
X124046525Y-128163368D01*
X123884010Y-128406589D01*
X123772068Y-128676842D01*
X123715000Y-128963740D01*
X123715000Y-129256260D01*
X123772068Y-129543158D01*
X123884010Y-129813411D01*
X124046525Y-130056632D01*
X124253368Y-130263475D01*
X124427760Y-130380000D01*
X124253368Y-130496525D01*
X124046525Y-130703368D01*
X123884010Y-130946589D01*
X123772068Y-131216842D01*
X123715000Y-131503740D01*
X123715000Y-131796260D01*
X123772068Y-132083158D01*
X123884010Y-132353411D01*
X124046525Y-132596632D01*
X124253368Y-132803475D01*
X124427760Y-132920000D01*
X124253368Y-133036525D01*
X124046525Y-133243368D01*
X123884010Y-133486589D01*
X123772068Y-133756842D01*
X123715000Y-134043740D01*
X123715000Y-134336260D01*
X123772068Y-134623158D01*
X123884010Y-134893411D01*
X124046525Y-135136632D01*
X124253368Y-135343475D01*
X124427760Y-135460000D01*
X124253368Y-135576525D01*
X124046525Y-135783368D01*
X123884010Y-136026589D01*
X123772068Y-136296842D01*
X123715000Y-136583740D01*
X123715000Y-136876260D01*
X123772068Y-137163158D01*
X123884010Y-137433411D01*
X124046525Y-137676632D01*
X124253368Y-137883475D01*
X124427760Y-138000000D01*
X124253368Y-138116525D01*
X124046525Y-138323368D01*
X123884010Y-138566589D01*
X123772068Y-138836842D01*
X123715000Y-139123740D01*
X123715000Y-139416260D01*
X123772068Y-139703158D01*
X123884010Y-139973411D01*
X124046525Y-140216632D01*
X124253368Y-140423475D01*
X124427760Y-140540000D01*
X124253368Y-140656525D01*
X124046525Y-140863368D01*
X123884010Y-141106589D01*
X123772068Y-141376842D01*
X123715000Y-141663740D01*
X123715000Y-141956260D01*
X123772068Y-142243158D01*
X123884010Y-142513411D01*
X124046525Y-142756632D01*
X124253368Y-142963475D01*
X124427760Y-143080000D01*
X124253368Y-143196525D01*
X124046525Y-143403368D01*
X123884010Y-143646589D01*
X123772068Y-143916842D01*
X123715000Y-144203740D01*
X123715000Y-144496260D01*
X123772068Y-144783158D01*
X123884010Y-145053411D01*
X124046525Y-145296632D01*
X124253368Y-145503475D01*
X124496589Y-145665990D01*
X124766842Y-145777932D01*
X125053740Y-145835000D01*
X125346260Y-145835000D01*
X125633158Y-145777932D01*
X125903411Y-145665990D01*
X126146632Y-145503475D01*
X126353475Y-145296632D01*
X126515990Y-145053411D01*
X126627932Y-144783158D01*
X126685000Y-144496260D01*
X126685000Y-144203740D01*
X126627932Y-143916842D01*
X126515990Y-143646589D01*
X126353475Y-143403368D01*
X126146632Y-143196525D01*
X125972240Y-143080000D01*
X126146632Y-142963475D01*
X126353475Y-142756632D01*
X126515990Y-142513411D01*
X126627932Y-142243158D01*
X126685000Y-141956260D01*
X126685000Y-141663740D01*
X126627932Y-141376842D01*
X126515990Y-141106589D01*
X126353475Y-140863368D01*
X126146632Y-140656525D01*
X125972240Y-140540000D01*
X126146632Y-140423475D01*
X126353475Y-140216632D01*
X126515990Y-139973411D01*
X126627932Y-139703158D01*
X126685000Y-139416260D01*
X126685000Y-139123740D01*
X126627932Y-138836842D01*
X126515990Y-138566589D01*
X126353475Y-138323368D01*
X126146632Y-138116525D01*
X125972240Y-138000000D01*
X126146632Y-137883475D01*
X126353475Y-137676632D01*
X126515990Y-137433411D01*
X126627932Y-137163158D01*
X126685000Y-136876260D01*
X126685000Y-136583740D01*
X126627932Y-136296842D01*
X126515990Y-136026589D01*
X126353475Y-135783368D01*
X126146632Y-135576525D01*
X125972240Y-135460000D01*
X126146632Y-135343475D01*
X126353475Y-135136632D01*
X126515990Y-134893411D01*
X126627932Y-134623158D01*
X126685000Y-134336260D01*
X126685000Y-134043740D01*
X126627932Y-133756842D01*
X126515990Y-133486589D01*
X126353475Y-133243368D01*
X126146632Y-133036525D01*
X125972240Y-132920000D01*
X126146632Y-132803475D01*
X126353475Y-132596632D01*
X126515990Y-132353411D01*
X126627932Y-132083158D01*
X126685000Y-131796260D01*
X126685000Y-131503740D01*
X126627932Y-131216842D01*
X126515990Y-130946589D01*
X126353475Y-130703368D01*
X126146632Y-130496525D01*
X125972240Y-130380000D01*
X126146632Y-130263475D01*
X126353475Y-130056632D01*
X126515990Y-129813411D01*
X126627932Y-129543158D01*
X126685000Y-129256260D01*
X126685000Y-128963740D01*
X126627932Y-128676842D01*
X126515990Y-128406589D01*
X126353475Y-128163368D01*
X126146632Y-127956525D01*
X125972240Y-127840000D01*
X126146632Y-127723475D01*
X126353475Y-127516632D01*
X126515990Y-127273411D01*
X126627932Y-127003158D01*
X126685000Y-126716260D01*
X126685000Y-126423740D01*
X126627932Y-126136842D01*
X126515990Y-125866589D01*
X126353475Y-125623368D01*
X126146632Y-125416525D01*
X125972240Y-125300000D01*
X126146632Y-125183475D01*
X126353475Y-124976632D01*
X126515990Y-124733411D01*
X126627932Y-124463158D01*
X126685000Y-124176260D01*
X126685000Y-123883740D01*
X126627932Y-123596842D01*
X126515990Y-123326589D01*
X126353475Y-123083368D01*
X126146632Y-122876525D01*
X125972240Y-122760000D01*
X126146632Y-122643475D01*
X126353475Y-122436632D01*
X126515990Y-122193411D01*
X126627932Y-121923158D01*
X126685000Y-121636260D01*
X126685000Y-121343740D01*
X126627932Y-121056842D01*
X126515990Y-120786589D01*
X126353475Y-120543368D01*
X126146632Y-120336525D01*
X125972240Y-120220000D01*
X126146632Y-120103475D01*
X126353475Y-119896632D01*
X126515990Y-119653411D01*
X126627932Y-119383158D01*
X126685000Y-119096260D01*
X126685000Y-118803740D01*
X126627932Y-118516842D01*
X126515990Y-118246589D01*
X126353475Y-118003368D01*
X126146632Y-117796525D01*
X125972240Y-117680000D01*
X126146632Y-117563475D01*
X126353475Y-117356632D01*
X126515990Y-117113411D01*
X126627932Y-116843158D01*
X126685000Y-116556260D01*
X126685000Y-116263740D01*
X126627932Y-115976842D01*
X126515990Y-115706589D01*
X126353475Y-115463368D01*
X126146632Y-115256525D01*
X125972240Y-115140000D01*
X126146632Y-115023475D01*
X126353475Y-114816632D01*
X126515990Y-114573411D01*
X126627932Y-114303158D01*
X126685000Y-114016260D01*
X126685000Y-113723740D01*
X126627932Y-113436842D01*
X126515990Y-113166589D01*
X126353475Y-112923368D01*
X126146632Y-112716525D01*
X125972240Y-112600000D01*
X126146632Y-112483475D01*
X126353475Y-112276632D01*
X126515990Y-112033411D01*
X126627932Y-111763158D01*
X126685000Y-111476260D01*
X126685000Y-111183740D01*
X126627932Y-110896842D01*
X126515990Y-110626589D01*
X126353475Y-110383368D01*
X126146632Y-110176525D01*
X125972240Y-110060000D01*
X126146632Y-109943475D01*
X126353475Y-109736632D01*
X126515990Y-109493411D01*
X126627932Y-109223158D01*
X126685000Y-108936260D01*
X126685000Y-108643740D01*
X126627932Y-108356842D01*
X126515990Y-108086589D01*
X126353475Y-107843368D01*
X126221620Y-107711513D01*
X126294180Y-107689502D01*
X126404494Y-107630537D01*
X126501185Y-107551185D01*
X126580537Y-107454494D01*
X126639502Y-107344180D01*
X126675812Y-107224482D01*
X126688072Y-107100000D01*
X126688072Y-105400000D01*
X126675812Y-105275518D01*
X126639502Y-105155820D01*
X126580537Y-105045506D01*
X126501185Y-104948815D01*
X126404494Y-104869463D01*
X126294180Y-104810498D01*
X126174482Y-104774188D01*
X126050000Y-104761928D01*
X124350000Y-104761928D01*
X124225518Y-104774188D01*
X124105820Y-104810498D01*
X123995506Y-104869463D01*
X123898815Y-104948815D01*
X123819463Y-105045506D01*
X123760498Y-105155820D01*
X123724188Y-105275518D01*
X123711928Y-105400000D01*
X96218043Y-105400000D01*
X96153475Y-105303368D01*
X95946632Y-105096525D01*
X95703411Y-104934010D01*
X95433158Y-104822068D01*
X95146260Y-104765000D01*
X94853740Y-104765000D01*
X94566842Y-104822068D01*
X94296589Y-104934010D01*
X94053368Y-105096525D01*
X93846525Y-105303368D01*
X93684010Y-105546589D01*
X93572068Y-105816842D01*
X93515000Y-106103740D01*
X93515000Y-106396260D01*
X93572068Y-106683158D01*
X93684010Y-106953411D01*
X93846525Y-107196632D01*
X94053368Y-107403475D01*
X94227760Y-107520000D01*
X94053368Y-107636525D01*
X93846525Y-107843368D01*
X93684010Y-108086589D01*
X93572068Y-108356842D01*
X93515000Y-108643740D01*
X93515000Y-108936260D01*
X93572068Y-109223158D01*
X93684010Y-109493411D01*
X93846525Y-109736632D01*
X94053368Y-109943475D01*
X94227760Y-110060000D01*
X94053368Y-110176525D01*
X93846525Y-110383368D01*
X93684010Y-110626589D01*
X93572068Y-110896842D01*
X93515000Y-111183740D01*
X93515000Y-111476260D01*
X93572068Y-111763158D01*
X93684010Y-112033411D01*
X93846525Y-112276632D01*
X94053368Y-112483475D01*
X94227760Y-112600000D01*
X94053368Y-112716525D01*
X93846525Y-112923368D01*
X93684010Y-113166589D01*
X93572068Y-113436842D01*
X93515000Y-113723740D01*
X93515000Y-114016260D01*
X93572068Y-114303158D01*
X93684010Y-114573411D01*
X93846525Y-114816632D01*
X94053368Y-115023475D01*
X94227760Y-115140000D01*
X94053368Y-115256525D01*
X93846525Y-115463368D01*
X93684010Y-115706589D01*
X93572068Y-115976842D01*
X93515000Y-116263740D01*
X93515000Y-116556260D01*
X93572068Y-116843158D01*
X93684010Y-117113411D01*
X93846525Y-117356632D01*
X94053368Y-117563475D01*
X94227760Y-117680000D01*
X94053368Y-117796525D01*
X93846525Y-118003368D01*
X93684010Y-118246589D01*
X93572068Y-118516842D01*
X93515000Y-118803740D01*
X93515000Y-119096260D01*
X93572068Y-119383158D01*
X93684010Y-119653411D01*
X93846525Y-119896632D01*
X94053368Y-120103475D01*
X94227760Y-120220000D01*
X94053368Y-120336525D01*
X93846525Y-120543368D01*
X93684010Y-120786589D01*
X93572068Y-121056842D01*
X93515000Y-121343740D01*
X93515000Y-121636260D01*
X93572068Y-121923158D01*
X93684010Y-122193411D01*
X93846525Y-122436632D01*
X94053368Y-122643475D01*
X94227760Y-122760000D01*
X94053368Y-122876525D01*
X93846525Y-123083368D01*
X93684010Y-123326589D01*
X93572068Y-123596842D01*
X93515000Y-123883740D01*
X93515000Y-124176260D01*
X93572068Y-124463158D01*
X93684010Y-124733411D01*
X93846525Y-124976632D01*
X94053368Y-125183475D01*
X94227760Y-125300000D01*
X94053368Y-125416525D01*
X93846525Y-125623368D01*
X93684010Y-125866589D01*
X93572068Y-126136842D01*
X93515000Y-126423740D01*
X93515000Y-126716260D01*
X93572068Y-127003158D01*
X93684010Y-127273411D01*
X93846525Y-127516632D01*
X94053368Y-127723475D01*
X94227760Y-127840000D01*
X94053368Y-127956525D01*
X93846525Y-128163368D01*
X93684010Y-128406589D01*
X93572068Y-128676842D01*
X93515000Y-128963740D01*
X93515000Y-129256260D01*
X93572068Y-129543158D01*
X93684010Y-129813411D01*
X93846525Y-130056632D01*
X94053368Y-130263475D01*
X94227760Y-130380000D01*
X94053368Y-130496525D01*
X93846525Y-130703368D01*
X93684010Y-130946589D01*
X93572068Y-131216842D01*
X93515000Y-131503740D01*
X93515000Y-131796260D01*
X93572068Y-132083158D01*
X93684010Y-132353411D01*
X93846525Y-132596632D01*
X94053368Y-132803475D01*
X94227760Y-132920000D01*
X94053368Y-133036525D01*
X93846525Y-133243368D01*
X93684010Y-133486589D01*
X93572068Y-133756842D01*
X93515000Y-134043740D01*
X93515000Y-134336260D01*
X93572068Y-134623158D01*
X93684010Y-134893411D01*
X93846525Y-135136632D01*
X94053368Y-135343475D01*
X94227760Y-135460000D01*
X94053368Y-135576525D01*
X93846525Y-135783368D01*
X93684010Y-136026589D01*
X93572068Y-136296842D01*
X93515000Y-136583740D01*
X93515000Y-136876260D01*
X93572068Y-137163158D01*
X93684010Y-137433411D01*
X93846525Y-137676632D01*
X94053368Y-137883475D01*
X94227760Y-138000000D01*
X94053368Y-138116525D01*
X93846525Y-138323368D01*
X93684010Y-138566589D01*
X93572068Y-138836842D01*
X93515000Y-139123740D01*
X93515000Y-139416260D01*
X93572068Y-139703158D01*
X93684010Y-139973411D01*
X93846525Y-140216632D01*
X94053368Y-140423475D01*
X94227760Y-140540000D01*
X94053368Y-140656525D01*
X93846525Y-140863368D01*
X93684010Y-141106589D01*
X93572068Y-141376842D01*
X93515000Y-141663740D01*
X93515000Y-141956260D01*
X93572068Y-142243158D01*
X93684010Y-142513411D01*
X93846525Y-142756632D01*
X93978380Y-142888487D01*
X93905820Y-142910498D01*
X93795506Y-142969463D01*
X93698815Y-143048815D01*
X93619463Y-143145506D01*
X93560498Y-143255820D01*
X93524188Y-143375518D01*
X93511928Y-143500000D01*
X91660000Y-143500000D01*
X91660000Y-106032278D01*
X91726714Y-105351874D01*
X91914943Y-104728428D01*
X92220681Y-104153421D01*
X92632279Y-103648753D01*
X93134067Y-103233638D01*
X93706924Y-102923895D01*
X94329039Y-102731318D01*
X95007584Y-102660000D01*
X124967722Y-102660000D01*
X125648126Y-102726714D01*
M02*
