G04 #@! TF.GenerationSoftware,KiCad,Pcbnew,(5.1.5)-3*
G04 #@! TF.CreationDate,2020-03-18T19:13:38-04:00*
G04 #@! TF.ProjectId,SingleBoard,53696e67-6c65-4426-9f61-72642e6b6963,rev?*
G04 #@! TF.SameCoordinates,Original*
G04 #@! TF.FileFunction,Copper,L1,Top*
G04 #@! TF.FilePolarity,Positive*
%FSLAX46Y46*%
G04 Gerber Fmt 4.6, Leading zero omitted, Abs format (unit mm)*
G04 Created by KiCad (PCBNEW (5.1.5)-3) date 2020-03-18 19:13:38*
%MOMM*%
%LPD*%
G04 APERTURE LIST*
%ADD10C,0.304800*%
%ADD11R,1.200899X0.239400*%
%ADD12O,1.700000X1.700000*%
%ADD13R,1.700000X1.700000*%
%ADD14C,0.250000*%
%ADD15C,0.500000*%
G04 APERTURE END LIST*
D10*
X114778760Y-84742700D02*
X115108960Y-84610620D01*
X114499360Y-85171960D02*
X114778760Y-84742700D01*
X114169160Y-85710440D02*
X114499360Y-85171960D01*
X113658620Y-86541020D02*
X114169160Y-85710440D01*
X112190500Y-87511300D02*
X112800100Y-86980440D01*
X111679960Y-88021840D02*
X112190500Y-87511300D01*
X111370080Y-88682240D02*
X111679960Y-88021840D01*
X111138940Y-88372360D02*
X111370080Y-88682240D01*
X111298960Y-87592580D02*
X111138940Y-88372360D01*
X112309880Y-86322580D02*
X111298960Y-87592580D01*
X112459740Y-85812040D02*
X112309880Y-86322580D01*
X111598680Y-84722380D02*
X112459740Y-85812040D01*
X111370080Y-84872240D02*
X111598680Y-84722380D01*
X110529340Y-85502160D02*
X111370080Y-84872240D01*
X110280420Y-85832360D02*
X110529340Y-85502160D01*
X110229620Y-85880620D02*
X110280420Y-85832360D01*
X110150880Y-86421640D02*
X110229620Y-85880620D01*
X110150880Y-87480820D02*
X110150880Y-86421640D01*
X110379480Y-88352040D02*
X110150880Y-87480820D01*
X110008640Y-88771140D02*
X110379480Y-88352040D01*
X109510800Y-87102360D02*
X110008640Y-88771140D01*
X109620020Y-85420880D02*
X109510800Y-87102360D01*
X111349760Y-83350780D02*
X110120400Y-84862080D01*
X113249680Y-82682760D02*
X111349760Y-83350780D01*
X114199640Y-82400820D02*
X113249680Y-82682760D01*
X112309880Y-87460500D02*
X112568960Y-87811020D01*
X112078740Y-88171700D02*
X112109220Y-88171700D01*
X111779020Y-87991360D02*
X112078740Y-88171700D01*
X113610360Y-86652780D02*
X113678940Y-86622300D01*
X116960620Y-88471420D02*
X113610360Y-86652780D01*
X115159760Y-84691900D02*
X116960620Y-88471420D01*
X110100080Y-84841760D02*
X110130560Y-84841760D01*
X109239020Y-84412500D02*
X110100080Y-84841760D01*
X112210820Y-78621300D02*
X109239020Y-84412500D01*
X114090420Y-82352560D02*
X112210820Y-78621300D01*
X116909820Y-89390900D02*
X112868680Y-87181100D01*
X106848880Y-89312160D02*
X116909820Y-89390900D01*
X108908820Y-85151640D02*
X106848880Y-89312160D01*
X109538740Y-85431040D02*
X108908820Y-85151640D01*
X111700280Y-86441960D02*
X111928880Y-86571500D01*
X111271020Y-86980440D02*
X111700280Y-86441960D01*
X111298960Y-86370840D02*
X111271020Y-86980440D01*
X110859540Y-86162560D02*
X111298960Y-86370840D01*
X110989080Y-87562100D02*
X110859540Y-86162560D01*
X110890020Y-87871980D02*
X110989080Y-87562100D01*
X110610620Y-87640840D02*
X110890020Y-87871980D01*
X110481080Y-86802640D02*
X110610620Y-87640840D01*
X110481080Y-85860300D02*
X110481080Y-86802640D01*
X112060960Y-85911100D02*
X112238760Y-86142240D01*
X111580900Y-85382780D02*
X112060960Y-85911100D01*
X111220220Y-85502160D02*
X111580900Y-85382780D01*
X110890020Y-85352300D02*
X111220220Y-85502160D01*
X111911100Y-79332500D02*
X112949960Y-80071640D01*
X111649480Y-79942100D02*
X113579880Y-81341640D01*
X111250700Y-80602500D02*
X113859280Y-82352560D01*
X110989080Y-81130820D02*
X113198880Y-82581160D01*
X110641100Y-81770900D02*
X112459740Y-82911360D01*
X111550420Y-83190760D02*
X111580900Y-83190760D01*
X110280420Y-82400820D02*
X111550420Y-83190760D01*
X109950220Y-83040900D02*
X110968760Y-83731780D01*
X110689360Y-84181360D02*
X110689360Y-84161040D01*
X109769880Y-83551440D02*
X110689360Y-84181360D01*
X109490480Y-84031500D02*
X110310900Y-84511560D01*
X114700020Y-84971300D02*
X115540760Y-85601220D01*
X114451100Y-85431040D02*
X116099560Y-86721360D01*
X114120900Y-86040640D02*
X116378960Y-87381760D01*
X108629420Y-85662180D02*
X109371100Y-86060960D01*
X108449080Y-86162560D02*
X109520960Y-86751840D01*
X108250960Y-86652780D02*
X109538740Y-87381760D01*
X109589540Y-87991360D02*
X109620020Y-87991360D01*
X107969020Y-87201420D02*
X109589540Y-87991360D01*
X107659140Y-87661160D02*
X110859540Y-89312160D01*
X107440700Y-88222500D02*
X109820680Y-89360420D01*
X107229880Y-88750820D02*
X108350020Y-89342640D01*
X110460760Y-88372360D02*
X111979680Y-89390900D01*
X113021080Y-89312160D02*
X113049020Y-89312160D01*
X111649480Y-88301240D02*
X113021080Y-89312160D01*
X112238760Y-87841500D02*
X114169160Y-89291840D01*
X115258820Y-89312160D02*
X115279140Y-89312160D01*
X112520700Y-87460500D02*
X115258820Y-89312160D01*
X111349760Y-85070360D02*
X112060960Y-85580900D01*
X107539760Y-90041140D02*
X107969020Y-91311140D01*
X107130820Y-91311140D02*
X107539760Y-90041140D01*
X107250200Y-90960620D02*
X107849640Y-90970780D01*
X108210320Y-90048760D02*
X108891040Y-90041140D01*
X109221240Y-90041140D02*
X109858780Y-90030980D01*
X108550680Y-90048760D02*
X108581160Y-91280660D01*
X109538740Y-91311140D02*
X109531120Y-90058920D01*
X110338840Y-91280660D02*
X110349000Y-91280660D01*
X110338840Y-90048760D02*
X110338840Y-91280660D01*
X110349000Y-90048760D02*
X110859540Y-90048760D01*
X110379480Y-90650740D02*
X110399800Y-90650740D01*
X110801120Y-90640580D02*
X110379480Y-90650740D01*
X110359160Y-91300980D02*
X110369320Y-91300980D01*
X110900180Y-91318760D02*
X110359160Y-91300980D01*
X112190500Y-91290820D02*
X112190500Y-90058920D01*
X111479300Y-90089400D02*
X112190500Y-91290820D01*
X111489460Y-91328920D02*
X111479300Y-90089400D01*
X112609600Y-90041140D02*
X113310640Y-90041140D01*
X112970280Y-90069080D02*
X112990600Y-91280660D01*
X113780540Y-90030980D02*
X113770380Y-91290820D01*
X114430780Y-90180840D02*
X114639060Y-90058920D01*
X114319020Y-90389120D02*
X114430780Y-90180840D01*
X114319020Y-90709160D02*
X114319020Y-90389120D01*
X114430780Y-91140960D02*
X114319020Y-90709160D01*
X114600960Y-91280660D02*
X114430780Y-91140960D01*
X114809240Y-91300980D02*
X114600960Y-91280660D01*
X115040380Y-91189220D02*
X114809240Y-91300980D01*
X115149600Y-90970780D02*
X115040380Y-91189220D01*
X115159760Y-90671060D02*
X115149600Y-90970780D01*
X115149600Y-90330700D02*
X115159760Y-90671060D01*
X114979420Y-90119880D02*
X115149600Y-90330700D01*
X114750820Y-90048760D02*
X114979420Y-90119880D01*
X116439920Y-91300980D02*
X116429760Y-90069080D01*
X115721100Y-90099560D02*
X116439920Y-91300980D01*
X115710940Y-91290820D02*
X115721100Y-90099560D01*
X105850660Y-92111240D02*
X105210580Y-92111240D01*
X105200420Y-93371080D02*
X105789700Y-93371080D01*
X105210580Y-92111240D02*
X105200420Y-93371080D01*
X105629680Y-92731000D02*
X105251220Y-92720840D01*
X106361200Y-93371080D02*
X106950480Y-93371080D01*
X106368820Y-92101080D02*
X106361200Y-93371080D01*
X107389900Y-93381240D02*
X107958860Y-93381240D01*
X107389900Y-92118860D02*
X107389900Y-93381240D01*
X107440700Y-92731000D02*
X107791220Y-92731000D01*
X107389900Y-92118860D02*
X107958860Y-92118860D01*
X107400060Y-92129020D02*
X107389900Y-92118860D01*
X108880880Y-93371080D02*
X109228860Y-93289800D01*
X108670060Y-93269480D02*
X108880880Y-93371080D01*
X108510040Y-93020560D02*
X108670060Y-93269480D01*
X108489720Y-92659880D02*
X108510040Y-93020560D01*
X108588780Y-92289040D02*
X108489720Y-92659880D01*
X108840240Y-92139180D02*
X108588780Y-92289040D01*
X109061220Y-92139180D02*
X108840240Y-92139180D01*
X109299980Y-92250940D02*
X109061220Y-92139180D01*
X109650500Y-92118860D02*
X110321060Y-92118860D01*
X109950220Y-92499860D02*
X109970540Y-93371080D01*
X109970540Y-92129020D02*
X109990860Y-92129020D01*
X109960380Y-92520180D02*
X109970540Y-92129020D01*
X110829060Y-92779260D02*
X110839220Y-92779260D01*
X111230380Y-92779260D02*
X110829060Y-92779260D01*
X111400560Y-92690360D02*
X111230380Y-92779260D01*
X111489460Y-92499860D02*
X111400560Y-92690360D01*
X111400560Y-92240780D02*
X111489460Y-92499860D01*
X111210060Y-92129020D02*
X111400560Y-92240780D01*
X110770640Y-92139180D02*
X111210060Y-92129020D01*
X110770640Y-93360920D02*
X110770640Y-92139180D01*
X111121160Y-92819900D02*
X111479300Y-93360920D01*
X112180340Y-92179820D02*
X112360680Y-92169660D01*
X112030480Y-92370320D02*
X112180340Y-92179820D01*
X111959360Y-92789420D02*
X112030480Y-92370320D01*
X112030480Y-93109460D02*
X111959360Y-92789420D01*
X112238760Y-93371080D02*
X112030480Y-93109460D01*
X112459740Y-93381240D02*
X112238760Y-93371080D01*
X112650240Y-93330440D02*
X112459740Y-93381240D01*
X112769620Y-93170420D02*
X112650240Y-93330440D01*
X112840740Y-92789420D02*
X112769620Y-93170420D01*
X112779780Y-92421120D02*
X112840740Y-92789420D01*
X112640080Y-92200140D02*
X112779780Y-92421120D01*
X112391160Y-92129020D02*
X112640080Y-92200140D01*
X113630680Y-93399020D02*
X113320800Y-93360920D01*
X113879600Y-93320280D02*
X113630680Y-93399020D01*
X114029460Y-93150100D02*
X113879600Y-93320280D01*
X113920240Y-92880860D02*
X114029460Y-93150100D01*
X113668780Y-92769100D02*
X113920240Y-92880860D01*
X113369060Y-92609080D02*
X113668780Y-92769100D01*
X113310640Y-92421120D02*
X113369060Y-92609080D01*
X113450340Y-92169660D02*
X113310640Y-92421120D01*
X113811020Y-92111240D02*
X113450340Y-92169660D01*
X114039620Y-92179820D02*
X113811020Y-92111240D01*
X114430780Y-92118860D02*
X115081020Y-92118860D01*
X114740660Y-92129020D02*
X114760980Y-93371080D01*
X115799840Y-92149340D02*
X116201160Y-93371080D01*
X115380740Y-93381240D02*
X115799840Y-92149340D01*
X115510280Y-93020560D02*
X116041140Y-93020560D01*
X116460240Y-92149340D02*
X117151120Y-92139180D01*
X116800600Y-92149340D02*
X116831080Y-93371080D01*
X117631180Y-92111240D02*
X117631180Y-93340600D01*
X118741160Y-93360920D02*
X118918960Y-93249160D01*
X118449060Y-93360920D02*
X118741160Y-93360920D01*
X118200140Y-93160260D02*
X118449060Y-93360920D01*
X118149340Y-92758940D02*
X118200140Y-93160260D01*
X118240780Y-92339840D02*
X118149340Y-92758940D01*
X118479540Y-92139180D02*
X118240780Y-92339840D01*
X118710680Y-92118860D02*
X118479540Y-92139180D01*
X118979920Y-92271260D02*
X118710680Y-92118860D01*
X107638820Y-95489440D02*
X107570240Y-95469120D01*
X107979180Y-95550400D02*
X107638820Y-95489440D01*
X108210320Y-95441180D02*
X107979180Y-95550400D01*
X108261120Y-95169400D02*
X108210320Y-95441180D01*
X108129040Y-94961120D02*
X108261120Y-95169400D01*
X107798840Y-94829040D02*
X108129040Y-94961120D01*
X107570240Y-94709660D02*
X107798840Y-94829040D01*
X107549920Y-94498840D02*
X107570240Y-94709660D01*
X107781060Y-94270240D02*
X107549920Y-94498840D01*
X108090940Y-94260080D02*
X107781060Y-94270240D01*
X108299220Y-94321040D02*
X108090940Y-94260080D01*
X109399040Y-94260080D02*
X108850400Y-94260080D01*
X109228860Y-94839200D02*
X108830080Y-94829040D01*
X108840240Y-95499600D02*
X108819920Y-94270240D01*
X109439680Y-95530080D02*
X108840240Y-95499600D01*
X110679200Y-95509760D02*
X110679200Y-94270240D01*
X109990860Y-94331200D02*
X110679200Y-95509760D01*
X109990860Y-95499600D02*
X109990860Y-94331200D01*
X111550420Y-95509760D02*
X111281180Y-95469120D01*
X111789180Y-95489440D02*
X111550420Y-95509760D01*
X111959360Y-95288780D02*
X111789180Y-95489440D01*
X111928880Y-95090660D02*
X111959360Y-95288780D01*
X111761240Y-94940800D02*
X111928880Y-95090660D01*
X111540260Y-94869680D02*
X111761240Y-94940800D01*
X111339600Y-94780780D02*
X111540260Y-94869680D01*
X111240540Y-94590280D02*
X111339600Y-94780780D01*
X111309120Y-94379460D02*
X111240540Y-94590280D01*
X111519940Y-94260080D02*
X111309120Y-94379460D01*
X111789180Y-94229600D02*
X111519940Y-94260080D01*
X112000000Y-94321040D02*
X111789180Y-94229600D01*
X112510540Y-94219440D02*
X112510540Y-95479280D01*
X112960120Y-94270240D02*
X113630680Y-94280400D01*
X113300480Y-95479280D02*
X113310640Y-95479280D01*
X113290320Y-94290560D02*
X113300480Y-95479280D01*
X114100580Y-94290560D02*
X114090420Y-95489440D01*
X114921000Y-95489440D02*
X115360420Y-94270240D01*
X114509520Y-94270240D02*
X114921000Y-95489440D01*
X116399280Y-94260080D02*
X115799840Y-94270240D01*
X115799840Y-95509760D02*
X115779520Y-94290560D01*
X116409440Y-95530080D02*
X115799840Y-95509760D01*
X116208780Y-94829040D02*
X115850640Y-94839200D01*
X108870720Y-96439400D02*
X108571000Y-96429240D01*
X109040900Y-96530840D02*
X108870720Y-96439400D01*
X109160280Y-96769600D02*
X109040900Y-96530840D01*
X109200920Y-97099800D02*
X109160280Y-96769600D01*
X109089160Y-97501120D02*
X109200920Y-97099800D01*
X108819920Y-97678920D02*
X109089160Y-97501120D01*
X108499880Y-97678920D02*
X108819920Y-97678920D01*
X108499880Y-96439400D02*
X108499880Y-97678920D01*
X109739400Y-97661140D02*
X110359160Y-97678920D01*
X109769880Y-96419080D02*
X109739400Y-97661140D01*
X110369320Y-96419080D02*
X109769880Y-96419080D01*
X109841000Y-97038840D02*
X109841000Y-97021060D01*
X110178820Y-97010900D02*
X109841000Y-97038840D01*
X111138940Y-97678920D02*
X111560580Y-96419080D01*
X110719840Y-96408920D02*
X111138940Y-97678920D01*
X112000000Y-96419080D02*
X112000000Y-97661140D01*
X113310640Y-97569700D02*
X113320800Y-97559540D01*
X113160780Y-97689080D02*
X113310640Y-97569700D01*
X112899160Y-97650980D02*
X113160780Y-97689080D01*
X112619760Y-97480800D02*
X112899160Y-97650980D01*
X112520700Y-97181080D02*
X112619760Y-97480800D01*
X112599440Y-96779760D02*
X112520700Y-97181080D01*
X112850900Y-96490200D02*
X112599440Y-96779760D01*
X113099820Y-96439400D02*
X112850900Y-96490200D01*
X113310640Y-96530840D02*
X113099820Y-96439400D01*
X113879600Y-97661140D02*
X114451100Y-97678920D01*
X113869440Y-96439400D02*
X113879600Y-97661140D01*
X114479040Y-96419080D02*
X113869440Y-96439400D01*
X114199640Y-97010900D02*
X113889760Y-97021060D01*
X114979420Y-97650980D02*
X114989580Y-97640820D01*
X115210560Y-97689080D02*
X114979420Y-97650980D01*
X115520440Y-97640820D02*
X115210560Y-97689080D01*
X115660140Y-97450320D02*
X115520440Y-97640820D01*
X115540760Y-97160760D02*
X115660140Y-97450320D01*
X115279140Y-97059160D02*
X115540760Y-97160760D01*
X114999740Y-96840720D02*
X115279140Y-97059160D01*
X114999740Y-96599420D02*
X114999740Y-96840720D01*
X115230880Y-96429240D02*
X114999740Y-96599420D01*
X115500120Y-96429240D02*
X115230880Y-96429240D01*
X115721100Y-96520680D02*
X115500120Y-96429240D01*
D11*
X122096048Y-65249999D03*
X122096048Y-65750000D03*
X122096048Y-66249999D03*
X122096048Y-66750001D03*
X122096048Y-67250000D03*
X122096048Y-67749999D03*
X122096048Y-68250000D03*
X122096048Y-68749999D03*
X122096048Y-69250001D03*
X122096048Y-69750000D03*
X122096048Y-70249999D03*
X122096048Y-70750000D03*
X122096048Y-71250000D03*
X122096048Y-71749998D03*
X122096048Y-72250000D03*
X122096048Y-72749999D03*
X122096048Y-73250001D03*
X122096048Y-73750000D03*
X122096048Y-74249999D03*
X122096048Y-74750000D03*
X122096048Y-75249999D03*
X122096048Y-75750001D03*
X122096048Y-76250000D03*
X122096048Y-76749999D03*
X102403952Y-76750001D03*
X102403952Y-76250000D03*
X102403952Y-75750001D03*
X102403952Y-75249999D03*
X102403952Y-74750000D03*
X102403952Y-74250001D03*
X102403952Y-73750000D03*
X102403952Y-73250001D03*
X102403952Y-72749999D03*
X102403952Y-72250000D03*
X102403952Y-71750001D03*
X102403952Y-71250000D03*
X102403952Y-70750000D03*
X102403952Y-70249999D03*
X102403952Y-69750000D03*
X102403952Y-69250001D03*
X102403952Y-68749999D03*
X102403952Y-68250000D03*
X102403952Y-67749999D03*
X102403952Y-67250000D03*
X102403952Y-66750001D03*
X102403952Y-66249999D03*
X102403952Y-65750000D03*
X102403952Y-65250001D03*
D12*
X131000000Y-102420000D03*
X131000000Y-99880000D03*
X131000000Y-97340000D03*
X131000000Y-94800000D03*
X131000000Y-92260000D03*
X131000000Y-89720000D03*
X131000000Y-87180000D03*
X131000000Y-84640000D03*
X131000000Y-82100000D03*
X131000000Y-79560000D03*
X131000000Y-77020000D03*
X131000000Y-74480000D03*
X131000000Y-71940000D03*
X131000000Y-69400000D03*
X131000000Y-66860000D03*
X131000000Y-64320000D03*
X131000000Y-61780000D03*
X131000000Y-59240000D03*
X131000000Y-56700000D03*
X131000000Y-54160000D03*
X131000000Y-51620000D03*
X131000000Y-49080000D03*
X131000000Y-46540000D03*
D13*
X131000000Y-44000000D03*
D12*
X94000000Y-44000000D03*
X94000000Y-46540000D03*
X94000000Y-49080000D03*
X94000000Y-51620000D03*
X94000000Y-54160000D03*
X94000000Y-56700000D03*
X94000000Y-59240000D03*
X94000000Y-61780000D03*
X94000000Y-64320000D03*
X94000000Y-66860000D03*
X94000000Y-69400000D03*
X94000000Y-71940000D03*
X94000000Y-74480000D03*
X94000000Y-77020000D03*
X94000000Y-79560000D03*
X94000000Y-82100000D03*
X94000000Y-84640000D03*
X94000000Y-87180000D03*
X94000000Y-89720000D03*
X94000000Y-92260000D03*
X94000000Y-94800000D03*
X94000000Y-97340000D03*
X94000000Y-99880000D03*
D13*
X94000000Y-102420000D03*
D14*
X96200000Y-44000000D02*
X94000000Y-44000000D01*
X102403952Y-65250001D02*
X100150001Y-65250001D01*
X100050000Y-47850000D02*
X96200000Y-44000000D01*
X100050000Y-65150000D02*
X100050000Y-47850000D01*
X100150001Y-65250001D02*
X100050000Y-65150000D01*
X96190000Y-46540000D02*
X94000000Y-46540000D01*
X99600000Y-49950000D02*
X96190000Y-46540000D01*
X99600000Y-65350000D02*
X99600000Y-49950000D01*
X102403952Y-65750000D02*
X100000000Y-65750000D01*
X100000000Y-65750000D02*
X99600000Y-65350000D01*
X96130000Y-49080000D02*
X94000000Y-49080000D01*
X99150000Y-52100000D02*
X96130000Y-49080000D01*
X99150000Y-65550000D02*
X99150000Y-52100000D01*
X102403952Y-66249999D02*
X99850000Y-66250000D01*
X99850000Y-66250000D02*
X99150000Y-65550000D01*
X96120000Y-51620000D02*
X94000000Y-51620000D01*
X98700000Y-54200000D02*
X96120000Y-51620000D01*
X102403952Y-66750001D02*
X99700000Y-66750000D01*
X98700000Y-65750000D02*
X98700000Y-54200000D01*
X99700000Y-66750000D02*
X98700000Y-65750000D01*
X98250000Y-65950000D02*
X98250000Y-56250000D01*
X96160000Y-54160000D02*
X94000000Y-54160000D01*
X102403952Y-67250000D02*
X99550000Y-67250000D01*
X98250000Y-56250000D02*
X96160000Y-54160000D01*
X99550000Y-67250000D02*
X98250000Y-65950000D01*
X96200000Y-56700000D02*
X94000000Y-56700000D01*
X97800000Y-66150000D02*
X97800000Y-58300000D01*
X97800000Y-58300000D02*
X96200000Y-56700000D01*
X102403952Y-67749999D02*
X99400000Y-67750000D01*
X99400000Y-67750000D02*
X97800000Y-66150000D01*
X97350000Y-60400000D02*
X96190000Y-59240000D01*
X97350000Y-66350000D02*
X97350000Y-60400000D01*
X96190000Y-59240000D02*
X94000000Y-59240000D01*
X102403952Y-68250000D02*
X99250000Y-68250000D01*
X99250000Y-68250000D02*
X97350000Y-66350000D01*
X96130000Y-61780000D02*
X94000000Y-61780000D01*
X96900000Y-66550000D02*
X96900000Y-62550000D01*
X102403952Y-68749999D02*
X99100000Y-68750000D01*
X96900000Y-62550000D02*
X96130000Y-61780000D01*
X99100000Y-68750000D02*
X96900000Y-66550000D01*
X96150000Y-69400000D02*
X94000000Y-69400000D01*
X102403952Y-70249999D02*
X97000000Y-70250000D01*
X97000000Y-70250000D02*
X96150000Y-69400000D01*
X96210000Y-71940000D02*
X94000000Y-71940000D01*
X102403952Y-70750000D02*
X97400000Y-70750000D01*
X97400000Y-70750000D02*
X96210000Y-71940000D01*
X96300000Y-76500000D02*
X95780000Y-77020000D01*
X96300000Y-73200000D02*
X96300000Y-76500000D01*
X95780000Y-77020000D02*
X94000000Y-77020000D01*
X102403952Y-71750001D02*
X97749999Y-71750001D01*
X97749999Y-71750001D02*
X96300000Y-73200000D01*
X96140000Y-79560000D02*
X94000000Y-79560000D01*
X96750000Y-73400000D02*
X96750000Y-78950000D01*
X96750000Y-78950000D02*
X96140000Y-79560000D01*
X102403952Y-72250000D02*
X97900000Y-72250000D01*
X97900000Y-72250000D02*
X96750000Y-73400000D01*
X101153952Y-72749999D02*
X98050001Y-72749999D01*
X98050001Y-72749999D02*
X97200000Y-73600000D01*
X97200000Y-73600000D02*
X97200000Y-81050000D01*
X96150000Y-82100000D02*
X94000000Y-82100000D01*
X97200000Y-81050000D02*
X96150000Y-82100000D01*
X101153952Y-72749999D02*
X102403952Y-72749999D01*
X97650000Y-83050000D02*
X96060000Y-84640000D01*
X97650000Y-73800000D02*
X97650000Y-83050000D01*
X102403952Y-73250001D02*
X98199999Y-73250001D01*
X96060000Y-84640000D02*
X94000000Y-84640000D01*
X98199999Y-73250001D02*
X97650000Y-73800000D01*
X98100000Y-85150000D02*
X96070000Y-87180000D01*
X98100000Y-74000000D02*
X98100000Y-85150000D01*
X96070000Y-87180000D02*
X94000000Y-87180000D01*
X102403952Y-73750000D02*
X98350000Y-73750000D01*
X98350000Y-73750000D02*
X98100000Y-74000000D01*
X98550000Y-87300000D02*
X96130000Y-89720000D01*
X96130000Y-89720000D02*
X94000000Y-89720000D01*
X98550000Y-74400000D02*
X98550000Y-87300000D01*
X102403952Y-74250001D02*
X98699999Y-74250001D01*
X98699999Y-74250001D02*
X98550000Y-74400000D01*
X96040000Y-92260000D02*
X94000000Y-92260000D01*
X99000000Y-89300000D02*
X96040000Y-92260000D01*
X99000000Y-74950000D02*
X99000000Y-89300000D01*
X102403952Y-74750000D02*
X99200000Y-74750000D01*
X99200000Y-74750000D02*
X99000000Y-74950000D01*
X96150000Y-94800000D02*
X94000000Y-94800000D01*
X99450000Y-75400000D02*
X99450000Y-91500000D01*
X99450000Y-91500000D02*
X96150000Y-94800000D01*
X102403952Y-75249999D02*
X99600000Y-75250000D01*
X99600000Y-75250000D02*
X99450000Y-75400000D01*
X96360000Y-97340000D02*
X94000000Y-97340000D01*
X99900000Y-75850000D02*
X99900000Y-93800000D01*
X99900000Y-93800000D02*
X96360000Y-97340000D01*
X102403952Y-75750001D02*
X100000000Y-75750000D01*
X100000000Y-75750000D02*
X99900000Y-75850000D01*
X102403952Y-76250000D02*
X100450000Y-76250000D01*
X100450000Y-76250000D02*
X100350000Y-76350000D01*
X100350000Y-76350000D02*
X100350000Y-95950000D01*
X96420000Y-99880000D02*
X94000000Y-99880000D01*
X100350000Y-95950000D02*
X96420000Y-99880000D01*
X96430000Y-102420000D02*
X94000000Y-102420000D01*
X100800000Y-98050000D02*
X96430000Y-102420000D01*
X100800000Y-76950000D02*
X100800000Y-98050000D01*
X102403952Y-76750001D02*
X101000000Y-76750000D01*
X101000000Y-76750000D02*
X100800000Y-76950000D01*
X123700000Y-76900000D02*
X123700000Y-97250000D01*
X122096048Y-76749999D02*
X123550000Y-76750000D01*
X128870000Y-102420000D02*
X131000000Y-102420000D01*
X123700000Y-97250000D02*
X128870000Y-102420000D01*
X123550000Y-76750000D02*
X123700000Y-76900000D01*
X122096048Y-76250000D02*
X124050000Y-76250000D01*
X124050000Y-76250000D02*
X124150000Y-76350000D01*
X124150000Y-76350000D02*
X124150000Y-95150000D01*
X128880000Y-99880000D02*
X131000000Y-99880000D01*
X124150000Y-95150000D02*
X128880000Y-99880000D01*
X122096048Y-75249999D02*
X122946498Y-75250000D01*
X122946498Y-75250000D02*
X124950000Y-75250000D01*
X124950000Y-75250000D02*
X125050000Y-75350000D01*
X125050000Y-75350000D02*
X125050000Y-91000000D01*
X128850000Y-94800000D02*
X131000000Y-94800000D01*
X125050000Y-91000000D02*
X128850000Y-94800000D01*
X122096048Y-74750000D02*
X125400000Y-74750000D01*
X125400000Y-74750000D02*
X125500000Y-74850000D01*
X125500000Y-74850000D02*
X125500000Y-88900000D01*
X128860000Y-92260000D02*
X131000000Y-92260000D01*
X125500000Y-88900000D02*
X128860000Y-92260000D01*
X122096048Y-74249999D02*
X122946498Y-74250000D01*
X122946498Y-74250000D02*
X125850000Y-74250000D01*
X125850000Y-74250000D02*
X125950000Y-74350000D01*
X125950000Y-74350000D02*
X125950000Y-86750000D01*
X128920000Y-89720000D02*
X131000000Y-89720000D01*
X125950000Y-86750000D02*
X128920000Y-89720000D01*
X126400000Y-84750000D02*
X128830000Y-87180000D01*
X126400000Y-73950000D02*
X126400000Y-84750000D01*
X128830000Y-87180000D02*
X131000000Y-87180000D01*
X122096048Y-73750000D02*
X126200000Y-73750000D01*
X126200000Y-73750000D02*
X126400000Y-73950000D01*
X122096048Y-73250001D02*
X126750001Y-73250001D01*
X126750001Y-73250001D02*
X126850000Y-73350000D01*
X126850000Y-73350000D02*
X126850000Y-82700000D01*
X128790000Y-84640000D02*
X131000000Y-84640000D01*
X126850000Y-82700000D02*
X128790000Y-84640000D01*
X122096048Y-72749999D02*
X122946498Y-72750000D01*
X122946498Y-72750000D02*
X126900000Y-72750000D01*
X126900000Y-72750000D02*
X127300000Y-73150000D01*
X127300000Y-73150000D02*
X127300000Y-80600000D01*
X128800000Y-82100000D02*
X131000000Y-82100000D01*
X127300000Y-80600000D02*
X128800000Y-82100000D01*
X127750000Y-78500000D02*
X128810000Y-79560000D01*
X128810000Y-79560000D02*
X131000000Y-79560000D01*
X127750000Y-72950000D02*
X127750000Y-78500000D01*
X122096048Y-72250000D02*
X127050000Y-72250000D01*
X127050000Y-72250000D02*
X127750000Y-72950000D01*
X122096048Y-71749998D02*
X127199998Y-71749998D01*
X127199998Y-71749998D02*
X128200000Y-72750000D01*
X128200000Y-72750000D02*
X128200000Y-76400000D01*
X128820000Y-77020000D02*
X131000000Y-77020000D01*
X128200000Y-76400000D02*
X128820000Y-77020000D01*
X128830000Y-74480000D02*
X131000000Y-74480000D01*
X128650000Y-74300000D02*
X128830000Y-74480000D01*
X128650000Y-72550000D02*
X128650000Y-74300000D01*
X122096048Y-71250000D02*
X127350000Y-71250000D01*
X127350000Y-71250000D02*
X128650000Y-72550000D01*
X128690000Y-71940000D02*
X131000000Y-71940000D01*
X122096048Y-70750000D02*
X127500000Y-70750000D01*
X127500000Y-70750000D02*
X128690000Y-71940000D01*
X125400000Y-69400000D02*
X131000000Y-69400000D01*
X122096048Y-70249999D02*
X124550000Y-70250000D01*
X124550000Y-70250000D02*
X125400000Y-69400000D01*
X127310000Y-66860000D02*
X131000000Y-66860000D01*
X127300000Y-66850000D02*
X127310000Y-66860000D01*
X122096048Y-69750000D02*
X124400000Y-69750000D01*
X124400000Y-69750000D02*
X127300000Y-66850000D01*
X122096048Y-69250001D02*
X124249999Y-69250001D01*
X124249999Y-69250001D02*
X126800000Y-66700000D01*
X126800000Y-66700000D02*
X126800000Y-66150000D01*
X128630000Y-64320000D02*
X131000000Y-64320000D01*
X126800000Y-66150000D02*
X128630000Y-64320000D01*
X122096048Y-68749999D02*
X124100001Y-68749999D01*
X124100001Y-68749999D02*
X126350000Y-66500000D01*
X126350000Y-66500000D02*
X126350000Y-63950000D01*
X128520000Y-61780000D02*
X131000000Y-61780000D01*
X126350000Y-63950000D02*
X128520000Y-61780000D01*
X128460000Y-59240000D02*
X131000000Y-59240000D01*
X125900000Y-61800000D02*
X128460000Y-59240000D01*
X122096048Y-68250000D02*
X123950000Y-68250000D01*
X125900000Y-66300000D02*
X125900000Y-61800000D01*
X123950000Y-68250000D02*
X125900000Y-66300000D01*
X122096048Y-67749999D02*
X123800001Y-67749999D01*
X123800001Y-67749999D02*
X125450000Y-66100000D01*
X125450000Y-66100000D02*
X125450000Y-59700000D01*
X128450000Y-56700000D02*
X131000000Y-56700000D01*
X125450000Y-59700000D02*
X128450000Y-56700000D01*
X125000000Y-57600000D02*
X128440000Y-54160000D01*
X125000000Y-65900000D02*
X125000000Y-57600000D01*
X122096048Y-67250000D02*
X123650000Y-67250000D01*
X128440000Y-54160000D02*
X131000000Y-54160000D01*
X123650000Y-67250000D02*
X125000000Y-65900000D01*
X128430000Y-51620000D02*
X131000000Y-51620000D01*
X124550000Y-65700000D02*
X124550000Y-55500000D01*
X122096048Y-66750001D02*
X123500000Y-66750000D01*
X124550000Y-55500000D02*
X128430000Y-51620000D01*
X123500000Y-66750000D02*
X124550000Y-65700000D01*
X123650000Y-51250000D02*
X128360000Y-46540000D01*
X128360000Y-46540000D02*
X131000000Y-46540000D01*
X123650000Y-65300000D02*
X123650000Y-51250000D01*
X122096048Y-65750000D02*
X123200000Y-65750000D01*
X123200000Y-65750000D02*
X123650000Y-65300000D01*
X122096048Y-65249999D02*
X123050001Y-65249999D01*
X123050001Y-65249999D02*
X123200000Y-65100000D01*
X123200000Y-65100000D02*
X123200000Y-49150000D01*
X128350000Y-44000000D02*
X131000000Y-44000000D01*
X123200000Y-49150000D02*
X128350000Y-44000000D01*
X122096048Y-66249999D02*
X123350001Y-66249999D01*
X123350001Y-66249999D02*
X124100000Y-65500000D01*
X124100000Y-65500000D02*
X124100000Y-53400000D01*
X128420000Y-49080000D02*
X131000000Y-49080000D01*
X124100000Y-53400000D02*
X128420000Y-49080000D01*
X122096048Y-75750001D02*
X124450001Y-75750001D01*
X124450001Y-75750001D02*
X124600000Y-75900000D01*
X124600000Y-75900000D02*
X124600000Y-93100000D01*
X128840000Y-97340000D02*
X131000000Y-97340000D01*
X124600000Y-93100000D02*
X128840000Y-97340000D01*
D15*
G36*
X133237213Y-40801975D02*
G01*
X133465397Y-40870868D01*
X133675848Y-40982768D01*
X133860558Y-41133414D01*
X134012490Y-41317066D01*
X134125855Y-41526732D01*
X134196339Y-41754429D01*
X134225000Y-42027115D01*
X134225001Y-104962088D01*
X134198024Y-105237213D01*
X134129132Y-105465396D01*
X134017234Y-105675846D01*
X133866587Y-105860558D01*
X133682931Y-106012491D01*
X133473268Y-106125855D01*
X133245569Y-106196339D01*
X132972885Y-106225000D01*
X92037902Y-106225000D01*
X91762787Y-106198024D01*
X91534604Y-106129132D01*
X91324154Y-106017234D01*
X91139442Y-105866587D01*
X90987509Y-105682931D01*
X90874145Y-105473268D01*
X90803661Y-105245569D01*
X90775000Y-104972885D01*
X90775000Y-101570000D01*
X92396372Y-101570000D01*
X92396372Y-103270000D01*
X92410853Y-103417026D01*
X92453739Y-103558401D01*
X92523381Y-103688693D01*
X92617105Y-103802895D01*
X92731307Y-103896619D01*
X92861599Y-103966261D01*
X93002974Y-104009147D01*
X93150000Y-104023628D01*
X94850000Y-104023628D01*
X94997026Y-104009147D01*
X95138401Y-103966261D01*
X95268693Y-103896619D01*
X95382895Y-103802895D01*
X95476619Y-103688693D01*
X95546261Y-103558401D01*
X95589147Y-103417026D01*
X95601166Y-103295000D01*
X96387021Y-103295000D01*
X96430000Y-103299233D01*
X96472979Y-103295000D01*
X96601530Y-103282339D01*
X96766468Y-103232305D01*
X96918476Y-103151056D01*
X97051712Y-103041712D01*
X97079117Y-103008319D01*
X101388319Y-98699117D01*
X101421712Y-98671712D01*
X101531056Y-98538476D01*
X101612305Y-98386468D01*
X101650694Y-98259920D01*
X101662339Y-98221531D01*
X101679233Y-98050001D01*
X101675000Y-98007022D01*
X101675000Y-93371080D01*
X104293654Y-93371080D01*
X104302013Y-93455955D01*
X104309680Y-93540803D01*
X104310717Y-93544322D01*
X104311077Y-93547981D01*
X104335840Y-93629613D01*
X104359906Y-93711316D01*
X104361610Y-93714567D01*
X104362677Y-93718084D01*
X104402885Y-93793306D01*
X104442434Y-93868755D01*
X104444740Y-93871611D01*
X104446472Y-93874852D01*
X104500601Y-93940809D01*
X104554091Y-94007068D01*
X104556907Y-94009417D01*
X104559240Y-94012260D01*
X104625229Y-94066416D01*
X104690585Y-94120940D01*
X104693805Y-94122694D01*
X104696648Y-94125028D01*
X104771914Y-94165259D01*
X104846672Y-94205997D01*
X104850175Y-94207090D01*
X104853416Y-94208823D01*
X104935050Y-94233586D01*
X105016353Y-94258967D01*
X105020002Y-94259356D01*
X105023519Y-94260423D01*
X105108413Y-94268784D01*
X105193108Y-94277816D01*
X105241096Y-94273480D01*
X105834029Y-94273480D01*
X105966601Y-94260423D01*
X106075450Y-94227404D01*
X106096796Y-94233879D01*
X106178967Y-94259345D01*
X106181681Y-94259629D01*
X106184299Y-94260423D01*
X106270170Y-94268880D01*
X106355760Y-94277829D01*
X106402810Y-94273480D01*
X106674773Y-94273480D01*
X106674274Y-94275965D01*
X106661569Y-94317029D01*
X106656798Y-94362876D01*
X106647708Y-94408080D01*
X106647618Y-94451079D01*
X106643169Y-94493831D01*
X106647433Y-94539726D01*
X106647430Y-94541292D01*
X106651558Y-94584117D01*
X106659614Y-94670825D01*
X106660060Y-94672324D01*
X106668258Y-94757382D01*
X106668737Y-94807203D01*
X106685816Y-94888954D01*
X106701972Y-94971069D01*
X106704002Y-94975998D01*
X106705089Y-94981203D01*
X106737791Y-95058056D01*
X106750596Y-95089153D01*
X106700835Y-95211519D01*
X106667285Y-95386081D01*
X106668434Y-95563833D01*
X106704241Y-95737947D01*
X106773327Y-95901730D01*
X106873037Y-96048888D01*
X106999541Y-96173766D01*
X107147976Y-96271564D01*
X107271377Y-96321746D01*
X107302768Y-96331047D01*
X107307900Y-96333665D01*
X107387939Y-96356282D01*
X107424962Y-96367252D01*
X107430579Y-96368332D01*
X107436094Y-96369890D01*
X107474166Y-96376709D01*
X107555781Y-96392395D01*
X107561539Y-96392358D01*
X107597480Y-96398795D01*
X107597481Y-97634581D01*
X107593114Y-97678920D01*
X107610537Y-97855821D01*
X107662137Y-98025924D01*
X107745932Y-98182692D01*
X107858700Y-98320100D01*
X107996108Y-98432868D01*
X108152876Y-98516663D01*
X108322979Y-98568263D01*
X108455551Y-98581320D01*
X108499880Y-98585686D01*
X108544209Y-98581320D01*
X108773151Y-98581320D01*
X108815012Y-98585672D01*
X108861794Y-98581320D01*
X108864249Y-98581320D01*
X108906041Y-98577204D01*
X108992005Y-98569207D01*
X108994366Y-98568505D01*
X108996821Y-98568263D01*
X109079636Y-98543141D01*
X109162385Y-98518528D01*
X109164562Y-98517380D01*
X109166924Y-98516663D01*
X109243292Y-98475843D01*
X109280206Y-98456368D01*
X109282240Y-98455025D01*
X109296506Y-98447399D01*
X109368515Y-98488587D01*
X109370309Y-98489188D01*
X109371949Y-98490117D01*
X109454480Y-98517381D01*
X109537069Y-98545044D01*
X109538943Y-98545283D01*
X109540735Y-98545875D01*
X109627160Y-98556534D01*
X109669212Y-98561897D01*
X109671081Y-98561951D01*
X109717155Y-98567633D01*
X109759713Y-98564493D01*
X110377592Y-98582220D01*
X110510484Y-98572970D01*
X110681997Y-98526269D01*
X110745834Y-98494466D01*
X110791727Y-98512186D01*
X110851156Y-98538806D01*
X110874489Y-98544141D01*
X110896814Y-98552761D01*
X110960962Y-98563913D01*
X111024441Y-98578428D01*
X111048364Y-98579108D01*
X111071944Y-98583208D01*
X111137038Y-98581631D01*
X111202125Y-98583482D01*
X111225723Y-98579482D01*
X111249649Y-98578902D01*
X111313193Y-98564654D01*
X111377383Y-98553773D01*
X111399740Y-98545249D01*
X111423100Y-98540011D01*
X111482652Y-98513636D01*
X111543476Y-98490445D01*
X111563742Y-98477722D01*
X111585630Y-98468028D01*
X111589792Y-98465099D01*
X111652997Y-98498883D01*
X111823100Y-98550483D01*
X112000000Y-98567906D01*
X112176901Y-98550483D01*
X112347004Y-98498883D01*
X112456808Y-98440191D01*
X112511530Y-98465895D01*
X112587613Y-98502545D01*
X112591919Y-98503656D01*
X112595942Y-98505546D01*
X112677915Y-98525849D01*
X112759730Y-98546962D01*
X112808612Y-98549712D01*
X113001136Y-98577749D01*
X113058779Y-98590090D01*
X113133248Y-98591174D01*
X113207670Y-98594633D01*
X113222017Y-98592466D01*
X113236517Y-98592677D01*
X113309761Y-98579213D01*
X113383434Y-98568085D01*
X113397081Y-98563161D01*
X113411345Y-98560539D01*
X113480563Y-98533041D01*
X113550641Y-98507757D01*
X113553719Y-98505901D01*
X113607782Y-98521812D01*
X113675130Y-98544551D01*
X113692902Y-98546861D01*
X113710101Y-98551923D01*
X113780905Y-98558302D01*
X113807232Y-98561725D01*
X113825043Y-98562279D01*
X113887140Y-98567874D01*
X113913682Y-98565037D01*
X114467346Y-98582262D01*
X114600260Y-98573333D01*
X114764938Y-98528922D01*
X114802519Y-98540322D01*
X114861674Y-98546148D01*
X114986581Y-98566737D01*
X114996604Y-98570242D01*
X115074177Y-98581176D01*
X115107531Y-98586674D01*
X115118059Y-98587361D01*
X115172621Y-98595052D01*
X115206551Y-98593139D01*
X115240462Y-98595353D01*
X115295086Y-98588147D01*
X115305622Y-98587553D01*
X115339032Y-98582350D01*
X115416692Y-98572105D01*
X115426745Y-98568690D01*
X115614684Y-98539420D01*
X115658320Y-98537041D01*
X115702271Y-98525780D01*
X115703104Y-98525650D01*
X115745699Y-98514653D01*
X115830514Y-98492921D01*
X115831267Y-98492560D01*
X115832088Y-98492348D01*
X115911635Y-98454018D01*
X115990794Y-98416056D01*
X115991469Y-98415550D01*
X115992224Y-98415186D01*
X116062423Y-98362332D01*
X116132997Y-98309398D01*
X116133559Y-98308771D01*
X116134230Y-98308266D01*
X116192711Y-98242797D01*
X116221925Y-98210213D01*
X116222423Y-98209534D01*
X116252649Y-98175696D01*
X116274845Y-98138050D01*
X116372864Y-98004387D01*
X116413255Y-97955336D01*
X116446305Y-97893748D01*
X116481923Y-97833591D01*
X116488268Y-97815551D01*
X116497308Y-97798706D01*
X116517709Y-97731850D01*
X116540905Y-97665904D01*
X116543609Y-97646977D01*
X116549189Y-97628689D01*
X116556156Y-97559130D01*
X116566040Y-97489933D01*
X116564999Y-97470844D01*
X116566905Y-97451816D01*
X116560166Y-97382225D01*
X116556361Y-97312440D01*
X116551616Y-97293921D01*
X116549773Y-97274887D01*
X116529588Y-97207949D01*
X116512241Y-97140245D01*
X116484766Y-97082955D01*
X116465451Y-97036104D01*
X116475229Y-97024181D01*
X116558966Y-96867383D01*
X116610505Y-96697262D01*
X116627865Y-96520354D01*
X116616830Y-96408726D01*
X116728342Y-96378918D01*
X116887815Y-96300392D01*
X117028903Y-96192264D01*
X117146186Y-96058690D01*
X117235158Y-95904800D01*
X117292396Y-95736511D01*
X117315703Y-95560288D01*
X117304183Y-95382906D01*
X117258278Y-95211178D01*
X117179752Y-95051706D01*
X117104664Y-94953727D01*
X117114698Y-94810241D01*
X117161656Y-94751002D01*
X117242783Y-94592837D01*
X117291493Y-94421884D01*
X117305915Y-94244714D01*
X117298752Y-94182764D01*
X117454280Y-94229943D01*
X117631180Y-94247366D01*
X117808081Y-94229943D01*
X117978184Y-94178343D01*
X118017751Y-94157194D01*
X118028635Y-94164329D01*
X118066257Y-94179528D01*
X118102056Y-94198663D01*
X118148483Y-94212747D01*
X118193451Y-94230913D01*
X118233315Y-94238480D01*
X118272159Y-94250263D01*
X118320448Y-94255019D01*
X118368089Y-94264062D01*
X118452798Y-94263320D01*
X118684213Y-94263320D01*
X118715878Y-94267333D01*
X118772877Y-94263320D01*
X118785489Y-94263320D01*
X118817105Y-94260206D01*
X118893196Y-94254849D01*
X118905432Y-94251507D01*
X118918061Y-94250263D01*
X118991101Y-94228107D01*
X119064672Y-94208011D01*
X119076018Y-94202348D01*
X119088164Y-94198663D01*
X119155465Y-94162689D01*
X119183861Y-94148515D01*
X119194531Y-94141808D01*
X119244932Y-94114868D01*
X119269609Y-94094616D01*
X119436721Y-93989574D01*
X119542013Y-93907968D01*
X119658568Y-93773758D01*
X119746701Y-93619387D01*
X119803023Y-93450788D01*
X119825372Y-93274443D01*
X119812889Y-93097124D01*
X119766051Y-92925649D01*
X119706629Y-92806611D01*
X119769039Y-92717931D01*
X119841018Y-92555399D01*
X119879905Y-92381948D01*
X119884205Y-92204242D01*
X119853755Y-92029113D01*
X119789724Y-91863289D01*
X119694573Y-91713143D01*
X119571958Y-91584445D01*
X119463018Y-91507777D01*
X119188369Y-91352315D01*
X119146489Y-91323692D01*
X119070492Y-91291275D01*
X118994819Y-91257763D01*
X118988726Y-91256397D01*
X118982985Y-91253948D01*
X118902071Y-91236969D01*
X118821368Y-91218875D01*
X118815126Y-91218724D01*
X118809017Y-91217442D01*
X118726293Y-91216574D01*
X118643663Y-91214575D01*
X118593680Y-91223266D01*
X118434688Y-91237243D01*
X118380122Y-91237881D01*
X118302929Y-91254175D01*
X118225436Y-91268746D01*
X118216074Y-91272509D01*
X118206198Y-91274594D01*
X118133678Y-91305631D01*
X118079240Y-91327514D01*
X117978183Y-91273497D01*
X117808080Y-91221897D01*
X117631180Y-91204474D01*
X117454279Y-91221897D01*
X117343429Y-91255523D01*
X117341971Y-91255104D01*
X117333206Y-90192289D01*
X117367540Y-90169818D01*
X117407676Y-90148767D01*
X117441728Y-90121264D01*
X117478361Y-90097289D01*
X117510714Y-90065546D01*
X117545962Y-90037078D01*
X117573994Y-90003461D01*
X117605246Y-89972799D01*
X117630782Y-89935359D01*
X117659802Y-89900557D01*
X117680740Y-89862112D01*
X117705406Y-89825947D01*
X117723146Y-89784248D01*
X117744821Y-89744449D01*
X117757856Y-89702660D01*
X117774993Y-89662377D01*
X117784258Y-89618015D01*
X117797751Y-89574755D01*
X117802382Y-89531229D01*
X117811332Y-89488374D01*
X117811764Y-89443056D01*
X117816558Y-89397996D01*
X117812608Y-89354396D01*
X117813025Y-89310624D01*
X117804609Y-89266102D01*
X117800520Y-89220965D01*
X117788139Y-89178971D01*
X117780009Y-89135960D01*
X117763068Y-89093931D01*
X117750252Y-89050463D01*
X117729918Y-89011695D01*
X117713552Y-88971093D01*
X117713465Y-88970961D01*
X117739712Y-88935358D01*
X117747396Y-88918989D01*
X117757541Y-88904017D01*
X117785110Y-88838655D01*
X117815252Y-88774450D01*
X117819596Y-88756896D01*
X117826624Y-88740233D01*
X117840911Y-88670751D01*
X117857949Y-88601897D01*
X117858785Y-88583833D01*
X117862427Y-88566119D01*
X117862885Y-88495186D01*
X117866162Y-88424330D01*
X117863457Y-88406449D01*
X117863574Y-88388365D01*
X117850187Y-88318721D01*
X117839576Y-88248572D01*
X117833432Y-88231555D01*
X117830020Y-88213804D01*
X117803307Y-88148117D01*
X117794338Y-88123275D01*
X117786602Y-88107040D01*
X117763057Y-88049142D01*
X117748457Y-88026983D01*
X115955342Y-84263719D01*
X115886529Y-84149655D01*
X115886272Y-84149373D01*
X115868994Y-84116078D01*
X115757910Y-83977306D01*
X115621886Y-83862871D01*
X115466152Y-83777172D01*
X115296691Y-83723501D01*
X115120014Y-83703922D01*
X114942914Y-83719187D01*
X114814975Y-83756300D01*
X114474601Y-83892450D01*
X114421687Y-83909200D01*
X114353389Y-83946771D01*
X114284218Y-83982666D01*
X114275606Y-83989560D01*
X114265940Y-83994877D01*
X114206295Y-84045041D01*
X114145445Y-84093750D01*
X114138343Y-84102192D01*
X114129900Y-84109293D01*
X114081176Y-84170145D01*
X114031011Y-84229774D01*
X114004258Y-84278390D01*
X113760600Y-84652738D01*
X113753251Y-84662440D01*
X113736425Y-84689879D01*
X113718874Y-84716844D01*
X113713268Y-84727642D01*
X113400021Y-85238475D01*
X113280406Y-85433074D01*
X113267198Y-85399443D01*
X113260439Y-85388911D01*
X113255551Y-85377405D01*
X113212515Y-85314237D01*
X113195248Y-85287332D01*
X113187533Y-85277569D01*
X113155466Y-85230501D01*
X113132569Y-85208013D01*
X112359069Y-84229160D01*
X112357021Y-84225246D01*
X112304008Y-84159481D01*
X112279220Y-84128112D01*
X112276173Y-84124950D01*
X112245463Y-84086853D01*
X112214647Y-84061107D01*
X112186781Y-84032191D01*
X112168481Y-84019468D01*
X113527889Y-83541495D01*
X114498892Y-83253309D01*
X114622269Y-83203072D01*
X114770660Y-83105206D01*
X114897107Y-82980270D01*
X114996750Y-82833067D01*
X115065762Y-82669254D01*
X115101489Y-82495124D01*
X115102558Y-82317370D01*
X115068928Y-82142823D01*
X115001892Y-81978191D01*
X114904026Y-81829800D01*
X114779090Y-81703353D01*
X114771085Y-81697934D01*
X114352601Y-80867187D01*
X114352546Y-80867074D01*
X114352540Y-80867066D01*
X113806902Y-79783901D01*
X113797524Y-79749368D01*
X113718366Y-79590208D01*
X113692407Y-79556613D01*
X113028341Y-78238353D01*
X113003241Y-78180516D01*
X112963174Y-78122673D01*
X112925494Y-78063209D01*
X112912637Y-78049714D01*
X112902023Y-78034390D01*
X112851422Y-77985458D01*
X112802883Y-77934507D01*
X112787642Y-77923780D01*
X112774241Y-77910821D01*
X112715065Y-77872699D01*
X112657519Y-77832198D01*
X112640479Y-77824651D01*
X112624807Y-77814555D01*
X112559324Y-77788707D01*
X112494990Y-77760214D01*
X112476810Y-77756137D01*
X112459465Y-77749291D01*
X112390193Y-77736714D01*
X112321540Y-77721320D01*
X112302911Y-77720868D01*
X112284567Y-77717538D01*
X112214190Y-77718718D01*
X112143835Y-77717012D01*
X112125469Y-77720205D01*
X112106834Y-77720517D01*
X112038049Y-77735401D01*
X111968705Y-77747456D01*
X111951316Y-77754170D01*
X111933098Y-77758112D01*
X111868536Y-77786131D01*
X111802879Y-77811481D01*
X111787133Y-77821459D01*
X111770035Y-77828879D01*
X111712178Y-77868955D01*
X111652729Y-77906626D01*
X111639236Y-77919480D01*
X111623909Y-77930097D01*
X111574965Y-77980710D01*
X111524027Y-78029237D01*
X111513303Y-78044474D01*
X111500340Y-78057879D01*
X111462208Y-78117071D01*
X111421718Y-78174601D01*
X111396189Y-78232241D01*
X108453994Y-83965751D01*
X108427506Y-84007940D01*
X108397702Y-84086101D01*
X108367011Y-84163855D01*
X108366063Y-84169074D01*
X108364173Y-84174032D01*
X108350194Y-84256486D01*
X108335258Y-84338753D01*
X108335347Y-84344057D01*
X108334460Y-84349288D01*
X108336836Y-84432872D01*
X108337140Y-84451017D01*
X108312027Y-84468952D01*
X108298869Y-84482956D01*
X108283721Y-84494772D01*
X108238117Y-84547615D01*
X108190309Y-84598498D01*
X108180134Y-84614802D01*
X108167584Y-84629345D01*
X108133173Y-84690056D01*
X108119784Y-84711511D01*
X108111302Y-84728643D01*
X108079932Y-84783988D01*
X108071958Y-84808107D01*
X107939479Y-85075679D01*
X107929895Y-85085216D01*
X107830776Y-85232772D01*
X107762348Y-85396831D01*
X107749914Y-85458549D01*
X106903956Y-87167155D01*
X106853285Y-87245442D01*
X106804972Y-87367077D01*
X106047978Y-88896000D01*
X106013879Y-88958611D01*
X105995369Y-89017956D01*
X105973385Y-89076085D01*
X105968961Y-89102618D01*
X105960949Y-89128305D01*
X105954372Y-89190119D01*
X105944151Y-89251422D01*
X105944989Y-89278310D01*
X105942142Y-89305064D01*
X105947751Y-89366976D01*
X105949686Y-89429092D01*
X105955752Y-89455296D01*
X105958180Y-89482095D01*
X105975761Y-89541729D01*
X105989776Y-89602269D01*
X106000837Y-89626785D01*
X106008447Y-89652597D01*
X106037323Y-89707651D01*
X106062881Y-89764298D01*
X106078517Y-89786191D01*
X106091013Y-89810016D01*
X106130065Y-89858367D01*
X106166192Y-89908952D01*
X106185800Y-89927375D01*
X106202702Y-89948302D01*
X106250438Y-89988108D01*
X106295738Y-90030670D01*
X106318560Y-90044912D01*
X106339223Y-90062142D01*
X106393813Y-90091872D01*
X106446541Y-90124777D01*
X106471703Y-90134293D01*
X106495331Y-90147161D01*
X106551910Y-90164809D01*
X106258266Y-91076748D01*
X106230061Y-91206942D01*
X106230049Y-91207661D01*
X106197259Y-91210692D01*
X106092814Y-91241691D01*
X106027561Y-91221897D01*
X105894989Y-91208840D01*
X105258552Y-91208840D01*
X105217892Y-91204504D01*
X105169904Y-91208840D01*
X105166251Y-91208840D01*
X105125682Y-91212836D01*
X105040857Y-91220500D01*
X105037338Y-91221537D01*
X105033679Y-91221897D01*
X104952047Y-91246660D01*
X104870344Y-91270726D01*
X104867093Y-91272430D01*
X104863576Y-91273497D01*
X104788354Y-91313705D01*
X104712905Y-91353254D01*
X104710049Y-91355560D01*
X104706808Y-91357292D01*
X104640851Y-91411421D01*
X104574592Y-91464911D01*
X104572243Y-91467727D01*
X104569400Y-91470060D01*
X104515244Y-91536049D01*
X104460720Y-91601405D01*
X104458966Y-91604625D01*
X104456632Y-91607468D01*
X104416401Y-91682734D01*
X104375663Y-91757492D01*
X104374570Y-91760995D01*
X104372837Y-91764236D01*
X104348074Y-91845870D01*
X104322693Y-91927173D01*
X104322304Y-91930822D01*
X104321237Y-91934339D01*
X104312878Y-92019213D01*
X104308567Y-92059636D01*
X104308538Y-92063280D01*
X104303814Y-92111240D01*
X104307823Y-92151941D01*
X104298378Y-93323120D01*
X104293654Y-93371080D01*
X101675000Y-93371080D01*
X101675000Y-77625000D01*
X102446930Y-77625001D01*
X102463906Y-77623329D01*
X103004401Y-77623329D01*
X103151427Y-77608848D01*
X103292802Y-77565962D01*
X103423094Y-77496320D01*
X103537296Y-77402596D01*
X103631020Y-77288394D01*
X103700662Y-77158102D01*
X103743548Y-77016727D01*
X103758029Y-76869701D01*
X103758029Y-76630301D01*
X103745195Y-76500001D01*
X103758029Y-76369700D01*
X103758029Y-76130300D01*
X103745195Y-76000001D01*
X103758029Y-75869701D01*
X103758029Y-75630301D01*
X103745195Y-75500000D01*
X103758029Y-75369699D01*
X103758029Y-75130299D01*
X103745195Y-75000000D01*
X103758029Y-74869700D01*
X103758029Y-74630300D01*
X103745195Y-74500001D01*
X103758029Y-74369701D01*
X103758029Y-74130301D01*
X103745195Y-74000000D01*
X103758029Y-73869700D01*
X103758029Y-73630300D01*
X103745195Y-73500001D01*
X103758029Y-73369701D01*
X103758029Y-73130301D01*
X103745195Y-73000000D01*
X103758029Y-72869699D01*
X103758029Y-72630299D01*
X103745195Y-72500000D01*
X103758029Y-72369700D01*
X103758029Y-72130300D01*
X103745195Y-72000001D01*
X103758029Y-71869701D01*
X103758029Y-71630301D01*
X103745195Y-71500001D01*
X103758029Y-71369700D01*
X103758029Y-71130300D01*
X103745195Y-71000000D01*
X103758029Y-70869700D01*
X103758029Y-70630300D01*
X103745195Y-70500000D01*
X103758029Y-70369699D01*
X103758029Y-70130299D01*
X103745195Y-70000000D01*
X103758029Y-69869700D01*
X103758029Y-69630300D01*
X103745195Y-69500001D01*
X103758029Y-69369701D01*
X103758029Y-69130301D01*
X103745195Y-69000000D01*
X103758029Y-68869699D01*
X103758029Y-68630299D01*
X103745195Y-68499999D01*
X103758029Y-68369700D01*
X103758029Y-68130300D01*
X103745195Y-68000000D01*
X103758029Y-67869699D01*
X103758029Y-67630299D01*
X103745195Y-67500000D01*
X103758029Y-67369700D01*
X103758029Y-67130300D01*
X103745195Y-67000001D01*
X103758029Y-66869701D01*
X103758029Y-66630301D01*
X103745195Y-66500000D01*
X103758029Y-66369699D01*
X103758029Y-66130299D01*
X103751154Y-66060499D01*
X120737599Y-66060499D01*
X120783722Y-66106622D01*
X120799338Y-66158101D01*
X120848459Y-66250000D01*
X120799338Y-66341900D01*
X120783723Y-66393375D01*
X120737599Y-66439499D01*
X120751899Y-66529497D01*
X120741971Y-66630301D01*
X120741971Y-66869701D01*
X120754805Y-67000001D01*
X120741971Y-67130300D01*
X120741971Y-67369700D01*
X120754805Y-67500000D01*
X120741971Y-67630299D01*
X120741971Y-67869699D01*
X120754805Y-68000000D01*
X120741971Y-68130300D01*
X120741971Y-68369700D01*
X120754805Y-68499999D01*
X120741971Y-68630299D01*
X120741971Y-68869699D01*
X120754805Y-69000000D01*
X120741971Y-69130301D01*
X120741971Y-69369701D01*
X120754805Y-69500001D01*
X120741971Y-69630300D01*
X120741971Y-69869700D01*
X120754805Y-70000000D01*
X120741971Y-70130299D01*
X120741971Y-70369699D01*
X120754805Y-70500000D01*
X120741971Y-70630300D01*
X120741971Y-70869700D01*
X120754805Y-71000000D01*
X120741971Y-71130300D01*
X120741971Y-71369700D01*
X120754805Y-71499999D01*
X120741971Y-71630298D01*
X120741971Y-71869698D01*
X120754805Y-71999999D01*
X120741971Y-72130300D01*
X120741971Y-72369700D01*
X120754805Y-72500000D01*
X120741971Y-72630299D01*
X120741971Y-72869699D01*
X120754805Y-73000000D01*
X120741971Y-73130301D01*
X120741971Y-73369701D01*
X120754805Y-73500001D01*
X120741971Y-73630300D01*
X120741971Y-73869700D01*
X120754805Y-74000000D01*
X120741971Y-74130299D01*
X120741971Y-74369699D01*
X120754805Y-74500000D01*
X120741971Y-74630300D01*
X120741971Y-74869700D01*
X120754805Y-75000000D01*
X120741971Y-75130299D01*
X120741971Y-75369699D01*
X120751899Y-75470503D01*
X120737599Y-75560501D01*
X120783723Y-75606625D01*
X120799338Y-75658100D01*
X120848459Y-75750000D01*
X120799338Y-75841899D01*
X120783722Y-75893378D01*
X120737599Y-75939501D01*
X120751899Y-76029498D01*
X120741971Y-76130300D01*
X120741971Y-76369700D01*
X120754805Y-76500000D01*
X120741971Y-76630299D01*
X120741971Y-76869699D01*
X120756452Y-77016725D01*
X120799338Y-77158100D01*
X120868980Y-77288392D01*
X120962704Y-77402594D01*
X121076906Y-77496318D01*
X121207198Y-77565960D01*
X121348573Y-77608846D01*
X121495599Y-77623327D01*
X122036103Y-77623327D01*
X122053069Y-77624998D01*
X122825000Y-77624999D01*
X122825001Y-97207011D01*
X122820767Y-97250000D01*
X122837661Y-97421529D01*
X122887695Y-97586467D01*
X122913710Y-97635137D01*
X122968945Y-97738476D01*
X123078289Y-97871712D01*
X123111676Y-97899112D01*
X128220888Y-103008325D01*
X128248288Y-103041712D01*
X128381524Y-103151056D01*
X128533532Y-103232305D01*
X128698469Y-103282339D01*
X128869999Y-103299233D01*
X128912978Y-103295000D01*
X129660352Y-103295000D01*
X129757199Y-103439941D01*
X129980059Y-103662801D01*
X130242116Y-103837902D01*
X130533297Y-103958513D01*
X130842414Y-104020000D01*
X131157586Y-104020000D01*
X131466703Y-103958513D01*
X131757884Y-103837902D01*
X132019941Y-103662801D01*
X132242801Y-103439941D01*
X132417902Y-103177884D01*
X132538513Y-102886703D01*
X132600000Y-102577586D01*
X132600000Y-102262414D01*
X132538513Y-101953297D01*
X132417902Y-101662116D01*
X132242801Y-101400059D01*
X132019941Y-101177199D01*
X131979235Y-101150000D01*
X132019941Y-101122801D01*
X132242801Y-100899941D01*
X132417902Y-100637884D01*
X132538513Y-100346703D01*
X132600000Y-100037586D01*
X132600000Y-99722414D01*
X132538513Y-99413297D01*
X132417902Y-99122116D01*
X132242801Y-98860059D01*
X132019941Y-98637199D01*
X131976250Y-98608006D01*
X132094446Y-98518071D01*
X132303247Y-98281919D01*
X132461965Y-98009569D01*
X132564500Y-97711488D01*
X132587572Y-97595497D01*
X132418494Y-97344000D01*
X131004000Y-97344000D01*
X131004000Y-97364000D01*
X130996000Y-97364000D01*
X130996000Y-97344000D01*
X129581506Y-97344000D01*
X129412428Y-97595497D01*
X129435500Y-97711488D01*
X129538035Y-98009569D01*
X129696753Y-98281919D01*
X129905554Y-98518071D01*
X130023750Y-98608006D01*
X129980059Y-98637199D01*
X129757199Y-98860059D01*
X129660352Y-99005000D01*
X129242437Y-99005000D01*
X125025000Y-94787564D01*
X125025000Y-92212436D01*
X128200888Y-95388325D01*
X128228288Y-95421712D01*
X128355706Y-95526281D01*
X128361524Y-95531056D01*
X128513532Y-95612305D01*
X128678470Y-95662339D01*
X128850000Y-95679233D01*
X128892979Y-95675000D01*
X129660352Y-95675000D01*
X129757199Y-95819941D01*
X129980059Y-96042801D01*
X130023750Y-96071994D01*
X129905554Y-96161929D01*
X129696753Y-96398081D01*
X129538035Y-96670431D01*
X129435500Y-96968512D01*
X129412428Y-97084503D01*
X129581506Y-97336000D01*
X130996000Y-97336000D01*
X130996000Y-97316000D01*
X131004000Y-97316000D01*
X131004000Y-97336000D01*
X132418494Y-97336000D01*
X132587572Y-97084503D01*
X132564500Y-96968512D01*
X132461965Y-96670431D01*
X132303247Y-96398081D01*
X132094446Y-96161929D01*
X131976250Y-96071994D01*
X132019941Y-96042801D01*
X132242801Y-95819941D01*
X132417902Y-95557884D01*
X132538513Y-95266703D01*
X132600000Y-94957586D01*
X132600000Y-94642414D01*
X132538513Y-94333297D01*
X132417902Y-94042116D01*
X132242801Y-93780059D01*
X132019941Y-93557199D01*
X131979235Y-93530000D01*
X132019941Y-93502801D01*
X132242801Y-93279941D01*
X132417902Y-93017884D01*
X132538513Y-92726703D01*
X132600000Y-92417586D01*
X132600000Y-92102414D01*
X132538513Y-91793297D01*
X132417902Y-91502116D01*
X132242801Y-91240059D01*
X132019941Y-91017199D01*
X131979235Y-90990000D01*
X132019941Y-90962801D01*
X132242801Y-90739941D01*
X132417902Y-90477884D01*
X132538513Y-90186703D01*
X132600000Y-89877586D01*
X132600000Y-89562414D01*
X132538513Y-89253297D01*
X132417902Y-88962116D01*
X132242801Y-88700059D01*
X132019941Y-88477199D01*
X131979235Y-88450000D01*
X132019941Y-88422801D01*
X132242801Y-88199941D01*
X132417902Y-87937884D01*
X132538513Y-87646703D01*
X132600000Y-87337586D01*
X132600000Y-87022414D01*
X132538513Y-86713297D01*
X132417902Y-86422116D01*
X132242801Y-86160059D01*
X132019941Y-85937199D01*
X131979235Y-85910000D01*
X132019941Y-85882801D01*
X132242801Y-85659941D01*
X132417902Y-85397884D01*
X132538513Y-85106703D01*
X132600000Y-84797586D01*
X132600000Y-84482414D01*
X132538513Y-84173297D01*
X132417902Y-83882116D01*
X132242801Y-83620059D01*
X132019941Y-83397199D01*
X131979235Y-83370000D01*
X132019941Y-83342801D01*
X132242801Y-83119941D01*
X132417902Y-82857884D01*
X132538513Y-82566703D01*
X132600000Y-82257586D01*
X132600000Y-81942414D01*
X132538513Y-81633297D01*
X132417902Y-81342116D01*
X132242801Y-81080059D01*
X132019941Y-80857199D01*
X131979235Y-80830000D01*
X132019941Y-80802801D01*
X132242801Y-80579941D01*
X132417902Y-80317884D01*
X132538513Y-80026703D01*
X132600000Y-79717586D01*
X132600000Y-79402414D01*
X132538513Y-79093297D01*
X132417902Y-78802116D01*
X132242801Y-78540059D01*
X132019941Y-78317199D01*
X131979235Y-78290000D01*
X132019941Y-78262801D01*
X132242801Y-78039941D01*
X132417902Y-77777884D01*
X132538513Y-77486703D01*
X132600000Y-77177586D01*
X132600000Y-76862414D01*
X132538513Y-76553297D01*
X132417902Y-76262116D01*
X132242801Y-76000059D01*
X132019941Y-75777199D01*
X131979235Y-75750000D01*
X132019941Y-75722801D01*
X132242801Y-75499941D01*
X132417902Y-75237884D01*
X132538513Y-74946703D01*
X132600000Y-74637586D01*
X132600000Y-74322414D01*
X132538513Y-74013297D01*
X132417902Y-73722116D01*
X132242801Y-73460059D01*
X132019941Y-73237199D01*
X131979235Y-73210000D01*
X132019941Y-73182801D01*
X132242801Y-72959941D01*
X132417902Y-72697884D01*
X132538513Y-72406703D01*
X132600000Y-72097586D01*
X132600000Y-71782414D01*
X132538513Y-71473297D01*
X132417902Y-71182116D01*
X132242801Y-70920059D01*
X132019941Y-70697199D01*
X131979235Y-70670000D01*
X132019941Y-70642801D01*
X132242801Y-70419941D01*
X132417902Y-70157884D01*
X132538513Y-69866703D01*
X132600000Y-69557586D01*
X132600000Y-69242414D01*
X132538513Y-68933297D01*
X132417902Y-68642116D01*
X132242801Y-68380059D01*
X132019941Y-68157199D01*
X131979235Y-68130000D01*
X132019941Y-68102801D01*
X132242801Y-67879941D01*
X132417902Y-67617884D01*
X132538513Y-67326703D01*
X132600000Y-67017586D01*
X132600000Y-66702414D01*
X132538513Y-66393297D01*
X132417902Y-66102116D01*
X132242801Y-65840059D01*
X132019941Y-65617199D01*
X131979235Y-65590000D01*
X132019941Y-65562801D01*
X132242801Y-65339941D01*
X132417902Y-65077884D01*
X132538513Y-64786703D01*
X132600000Y-64477586D01*
X132600000Y-64162414D01*
X132538513Y-63853297D01*
X132417902Y-63562116D01*
X132242801Y-63300059D01*
X132019941Y-63077199D01*
X131979235Y-63050000D01*
X132019941Y-63022801D01*
X132242801Y-62799941D01*
X132417902Y-62537884D01*
X132538513Y-62246703D01*
X132600000Y-61937586D01*
X132600000Y-61622414D01*
X132538513Y-61313297D01*
X132417902Y-61022116D01*
X132242801Y-60760059D01*
X132019941Y-60537199D01*
X131979235Y-60510000D01*
X132019941Y-60482801D01*
X132242801Y-60259941D01*
X132417902Y-59997884D01*
X132538513Y-59706703D01*
X132600000Y-59397586D01*
X132600000Y-59082414D01*
X132538513Y-58773297D01*
X132417902Y-58482116D01*
X132242801Y-58220059D01*
X132019941Y-57997199D01*
X131979235Y-57970000D01*
X132019941Y-57942801D01*
X132242801Y-57719941D01*
X132417902Y-57457884D01*
X132538513Y-57166703D01*
X132600000Y-56857586D01*
X132600000Y-56542414D01*
X132538513Y-56233297D01*
X132417902Y-55942116D01*
X132242801Y-55680059D01*
X132019941Y-55457199D01*
X131979235Y-55430000D01*
X132019941Y-55402801D01*
X132242801Y-55179941D01*
X132417902Y-54917884D01*
X132538513Y-54626703D01*
X132600000Y-54317586D01*
X132600000Y-54002414D01*
X132538513Y-53693297D01*
X132417902Y-53402116D01*
X132242801Y-53140059D01*
X132019941Y-52917199D01*
X131979235Y-52890000D01*
X132019941Y-52862801D01*
X132242801Y-52639941D01*
X132417902Y-52377884D01*
X132538513Y-52086703D01*
X132600000Y-51777586D01*
X132600000Y-51462414D01*
X132538513Y-51153297D01*
X132417902Y-50862116D01*
X132242801Y-50600059D01*
X132019941Y-50377199D01*
X131976250Y-50348006D01*
X132094446Y-50258071D01*
X132303247Y-50021919D01*
X132461965Y-49749569D01*
X132564500Y-49451488D01*
X132587572Y-49335497D01*
X132418494Y-49084000D01*
X131004000Y-49084000D01*
X131004000Y-49104000D01*
X130996000Y-49104000D01*
X130996000Y-49084000D01*
X129581506Y-49084000D01*
X129412428Y-49335497D01*
X129435500Y-49451488D01*
X129538035Y-49749569D01*
X129696753Y-50021919D01*
X129905554Y-50258071D01*
X130023750Y-50348006D01*
X129980059Y-50377199D01*
X129757199Y-50600059D01*
X129660352Y-50745000D01*
X128472979Y-50745000D01*
X128430000Y-50740767D01*
X128387021Y-50745000D01*
X128258470Y-50757661D01*
X128093532Y-50807695D01*
X127941524Y-50888944D01*
X127808288Y-50998288D01*
X127780888Y-51031675D01*
X124525000Y-54287564D01*
X124525000Y-51612436D01*
X128722437Y-47415000D01*
X129660352Y-47415000D01*
X129757199Y-47559941D01*
X129980059Y-47782801D01*
X130023750Y-47811994D01*
X129905554Y-47901929D01*
X129696753Y-48138081D01*
X129538035Y-48410431D01*
X129435500Y-48708512D01*
X129412428Y-48824503D01*
X129581506Y-49076000D01*
X130996000Y-49076000D01*
X130996000Y-49056000D01*
X131004000Y-49056000D01*
X131004000Y-49076000D01*
X132418494Y-49076000D01*
X132587572Y-48824503D01*
X132564500Y-48708512D01*
X132461965Y-48410431D01*
X132303247Y-48138081D01*
X132094446Y-47901929D01*
X131976250Y-47811994D01*
X132019941Y-47782801D01*
X132242801Y-47559941D01*
X132417902Y-47297884D01*
X132538513Y-47006703D01*
X132600000Y-46697586D01*
X132600000Y-46382414D01*
X132538513Y-46073297D01*
X132417902Y-45782116D01*
X132242801Y-45520059D01*
X132223511Y-45500769D01*
X132268693Y-45476619D01*
X132382895Y-45382895D01*
X132476619Y-45268693D01*
X132546261Y-45138401D01*
X132589147Y-44997026D01*
X132603628Y-44850000D01*
X132603628Y-43150000D01*
X132589147Y-43002974D01*
X132546261Y-42861599D01*
X132476619Y-42731307D01*
X132382895Y-42617105D01*
X132268693Y-42523381D01*
X132138401Y-42453739D01*
X131997026Y-42410853D01*
X131850000Y-42396372D01*
X130150000Y-42396372D01*
X130002974Y-42410853D01*
X129861599Y-42453739D01*
X129731307Y-42523381D01*
X129617105Y-42617105D01*
X129523381Y-42731307D01*
X129453739Y-42861599D01*
X129410853Y-43002974D01*
X129398834Y-43125000D01*
X128392979Y-43125000D01*
X128350000Y-43120767D01*
X128307021Y-43125000D01*
X128178470Y-43137661D01*
X128013532Y-43187695D01*
X127861524Y-43268944D01*
X127728288Y-43378288D01*
X127700888Y-43411675D01*
X122611676Y-48500888D01*
X122578289Y-48528288D01*
X122468945Y-48661524D01*
X122468528Y-48662305D01*
X122387695Y-48813533D01*
X122337661Y-48978471D01*
X122320767Y-49150000D01*
X122325001Y-49192989D01*
X122325000Y-64374999D01*
X122053069Y-64374999D01*
X122036093Y-64376671D01*
X121495599Y-64376671D01*
X121348573Y-64391152D01*
X121207198Y-64434038D01*
X121076906Y-64503680D01*
X120962704Y-64597404D01*
X120868980Y-64711606D01*
X120799338Y-64841898D01*
X120756452Y-64983273D01*
X120741971Y-65130299D01*
X120741971Y-65369699D01*
X120754805Y-65500000D01*
X120741971Y-65630300D01*
X120741971Y-65869700D01*
X120751899Y-65970502D01*
X120737599Y-66060499D01*
X103751154Y-66060499D01*
X103745195Y-65999999D01*
X103758029Y-65869700D01*
X103758029Y-65630300D01*
X103745195Y-65500001D01*
X103758029Y-65369701D01*
X103758029Y-65130301D01*
X103743548Y-64983275D01*
X103700662Y-64841900D01*
X103631020Y-64711608D01*
X103537296Y-64597406D01*
X103423094Y-64503682D01*
X103292802Y-64434040D01*
X103151427Y-64391154D01*
X103004401Y-64376673D01*
X102463907Y-64376673D01*
X102446931Y-64375001D01*
X100925000Y-64375001D01*
X100925000Y-47892978D01*
X100929233Y-47849999D01*
X100912339Y-47678469D01*
X100862305Y-47513532D01*
X100809639Y-47415000D01*
X100781056Y-47361524D01*
X100671712Y-47228288D01*
X100638325Y-47200888D01*
X96849117Y-43411681D01*
X96821712Y-43378288D01*
X96688476Y-43268944D01*
X96536468Y-43187695D01*
X96371530Y-43137661D01*
X96242979Y-43125000D01*
X96200000Y-43120767D01*
X96157021Y-43125000D01*
X95339648Y-43125000D01*
X95242801Y-42980059D01*
X95019941Y-42757199D01*
X94757884Y-42582098D01*
X94466703Y-42461487D01*
X94157586Y-42400000D01*
X93842414Y-42400000D01*
X93533297Y-42461487D01*
X93242116Y-42582098D01*
X92980059Y-42757199D01*
X92757199Y-42980059D01*
X92582098Y-43242116D01*
X92461487Y-43533297D01*
X92400000Y-43842414D01*
X92400000Y-44157586D01*
X92461487Y-44466703D01*
X92582098Y-44757884D01*
X92757199Y-45019941D01*
X92980059Y-45242801D01*
X93020765Y-45270000D01*
X92980059Y-45297199D01*
X92757199Y-45520059D01*
X92582098Y-45782116D01*
X92461487Y-46073297D01*
X92400000Y-46382414D01*
X92400000Y-46697586D01*
X92461487Y-47006703D01*
X92582098Y-47297884D01*
X92757199Y-47559941D01*
X92980059Y-47782801D01*
X93020765Y-47810000D01*
X92980059Y-47837199D01*
X92757199Y-48060059D01*
X92582098Y-48322116D01*
X92461487Y-48613297D01*
X92400000Y-48922414D01*
X92400000Y-49237586D01*
X92461487Y-49546703D01*
X92582098Y-49837884D01*
X92757199Y-50099941D01*
X92980059Y-50322801D01*
X93020765Y-50350000D01*
X92980059Y-50377199D01*
X92757199Y-50600059D01*
X92582098Y-50862116D01*
X92461487Y-51153297D01*
X92400000Y-51462414D01*
X92400000Y-51777586D01*
X92461487Y-52086703D01*
X92582098Y-52377884D01*
X92757199Y-52639941D01*
X92980059Y-52862801D01*
X93020765Y-52890000D01*
X92980059Y-52917199D01*
X92757199Y-53140059D01*
X92582098Y-53402116D01*
X92461487Y-53693297D01*
X92400000Y-54002414D01*
X92400000Y-54317586D01*
X92461487Y-54626703D01*
X92582098Y-54917884D01*
X92757199Y-55179941D01*
X92980059Y-55402801D01*
X93020765Y-55430000D01*
X92980059Y-55457199D01*
X92757199Y-55680059D01*
X92582098Y-55942116D01*
X92461487Y-56233297D01*
X92400000Y-56542414D01*
X92400000Y-56857586D01*
X92461487Y-57166703D01*
X92582098Y-57457884D01*
X92757199Y-57719941D01*
X92980059Y-57942801D01*
X93020765Y-57970000D01*
X92980059Y-57997199D01*
X92757199Y-58220059D01*
X92582098Y-58482116D01*
X92461487Y-58773297D01*
X92400000Y-59082414D01*
X92400000Y-59397586D01*
X92461487Y-59706703D01*
X92582098Y-59997884D01*
X92757199Y-60259941D01*
X92980059Y-60482801D01*
X93020765Y-60510000D01*
X92980059Y-60537199D01*
X92757199Y-60760059D01*
X92582098Y-61022116D01*
X92461487Y-61313297D01*
X92400000Y-61622414D01*
X92400000Y-61937586D01*
X92461487Y-62246703D01*
X92582098Y-62537884D01*
X92757199Y-62799941D01*
X92980059Y-63022801D01*
X93020765Y-63050000D01*
X92980059Y-63077199D01*
X92757199Y-63300059D01*
X92582098Y-63562116D01*
X92461487Y-63853297D01*
X92400000Y-64162414D01*
X92400000Y-64477586D01*
X92461487Y-64786703D01*
X92582098Y-65077884D01*
X92757199Y-65339941D01*
X92980059Y-65562801D01*
X93020765Y-65590000D01*
X92980059Y-65617199D01*
X92757199Y-65840059D01*
X92582098Y-66102116D01*
X92461487Y-66393297D01*
X92400000Y-66702414D01*
X92400000Y-67017586D01*
X92461487Y-67326703D01*
X92582098Y-67617884D01*
X92757199Y-67879941D01*
X92980059Y-68102801D01*
X93020765Y-68130000D01*
X92980059Y-68157199D01*
X92757199Y-68380059D01*
X92582098Y-68642116D01*
X92461487Y-68933297D01*
X92400000Y-69242414D01*
X92400000Y-69557586D01*
X92461487Y-69866703D01*
X92582098Y-70157884D01*
X92757199Y-70419941D01*
X92980059Y-70642801D01*
X93020765Y-70670000D01*
X92980059Y-70697199D01*
X92757199Y-70920059D01*
X92582098Y-71182116D01*
X92461487Y-71473297D01*
X92400000Y-71782414D01*
X92400000Y-72097586D01*
X92461487Y-72406703D01*
X92582098Y-72697884D01*
X92757199Y-72959941D01*
X92980059Y-73182801D01*
X93020765Y-73210000D01*
X92980059Y-73237199D01*
X92757199Y-73460059D01*
X92582098Y-73722116D01*
X92461487Y-74013297D01*
X92400000Y-74322414D01*
X92400000Y-74637586D01*
X92461487Y-74946703D01*
X92582098Y-75237884D01*
X92757199Y-75499941D01*
X92980059Y-75722801D01*
X93020765Y-75750000D01*
X92980059Y-75777199D01*
X92757199Y-76000059D01*
X92582098Y-76262116D01*
X92461487Y-76553297D01*
X92400000Y-76862414D01*
X92400000Y-77177586D01*
X92461487Y-77486703D01*
X92582098Y-77777884D01*
X92757199Y-78039941D01*
X92980059Y-78262801D01*
X93020765Y-78290000D01*
X92980059Y-78317199D01*
X92757199Y-78540059D01*
X92582098Y-78802116D01*
X92461487Y-79093297D01*
X92400000Y-79402414D01*
X92400000Y-79717586D01*
X92461487Y-80026703D01*
X92582098Y-80317884D01*
X92757199Y-80579941D01*
X92980059Y-80802801D01*
X93020765Y-80830000D01*
X92980059Y-80857199D01*
X92757199Y-81080059D01*
X92582098Y-81342116D01*
X92461487Y-81633297D01*
X92400000Y-81942414D01*
X92400000Y-82257586D01*
X92461487Y-82566703D01*
X92582098Y-82857884D01*
X92757199Y-83119941D01*
X92980059Y-83342801D01*
X93020765Y-83370000D01*
X92980059Y-83397199D01*
X92757199Y-83620059D01*
X92582098Y-83882116D01*
X92461487Y-84173297D01*
X92400000Y-84482414D01*
X92400000Y-84797586D01*
X92461487Y-85106703D01*
X92582098Y-85397884D01*
X92757199Y-85659941D01*
X92980059Y-85882801D01*
X93020765Y-85910000D01*
X92980059Y-85937199D01*
X92757199Y-86160059D01*
X92582098Y-86422116D01*
X92461487Y-86713297D01*
X92400000Y-87022414D01*
X92400000Y-87337586D01*
X92461487Y-87646703D01*
X92582098Y-87937884D01*
X92757199Y-88199941D01*
X92980059Y-88422801D01*
X93020765Y-88450000D01*
X92980059Y-88477199D01*
X92757199Y-88700059D01*
X92582098Y-88962116D01*
X92461487Y-89253297D01*
X92400000Y-89562414D01*
X92400000Y-89877586D01*
X92461487Y-90186703D01*
X92582098Y-90477884D01*
X92757199Y-90739941D01*
X92980059Y-90962801D01*
X93020765Y-90990000D01*
X92980059Y-91017199D01*
X92757199Y-91240059D01*
X92582098Y-91502116D01*
X92461487Y-91793297D01*
X92400000Y-92102414D01*
X92400000Y-92417586D01*
X92461487Y-92726703D01*
X92582098Y-93017884D01*
X92757199Y-93279941D01*
X92980059Y-93502801D01*
X93020765Y-93530000D01*
X92980059Y-93557199D01*
X92757199Y-93780059D01*
X92582098Y-94042116D01*
X92461487Y-94333297D01*
X92400000Y-94642414D01*
X92400000Y-94957586D01*
X92461487Y-95266703D01*
X92582098Y-95557884D01*
X92757199Y-95819941D01*
X92980059Y-96042801D01*
X93020765Y-96070000D01*
X92980059Y-96097199D01*
X92757199Y-96320059D01*
X92582098Y-96582116D01*
X92461487Y-96873297D01*
X92400000Y-97182414D01*
X92400000Y-97497586D01*
X92461487Y-97806703D01*
X92582098Y-98097884D01*
X92757199Y-98359941D01*
X92980059Y-98582801D01*
X93020765Y-98610000D01*
X92980059Y-98637199D01*
X92757199Y-98860059D01*
X92582098Y-99122116D01*
X92461487Y-99413297D01*
X92400000Y-99722414D01*
X92400000Y-100037586D01*
X92461487Y-100346703D01*
X92582098Y-100637884D01*
X92757199Y-100899941D01*
X92776489Y-100919231D01*
X92731307Y-100943381D01*
X92617105Y-101037105D01*
X92523381Y-101151307D01*
X92453739Y-101281599D01*
X92410853Y-101422974D01*
X92396372Y-101570000D01*
X90775000Y-101570000D01*
X90775000Y-42037902D01*
X90801975Y-41762787D01*
X90870868Y-41534603D01*
X90982768Y-41324152D01*
X91133414Y-41139442D01*
X91317066Y-40987510D01*
X91526732Y-40874145D01*
X91754429Y-40803661D01*
X92027115Y-40775000D01*
X132962098Y-40775000D01*
X133237213Y-40801975D01*
G37*
X133237213Y-40801975D02*
X133465397Y-40870868D01*
X133675848Y-40982768D01*
X133860558Y-41133414D01*
X134012490Y-41317066D01*
X134125855Y-41526732D01*
X134196339Y-41754429D01*
X134225000Y-42027115D01*
X134225001Y-104962088D01*
X134198024Y-105237213D01*
X134129132Y-105465396D01*
X134017234Y-105675846D01*
X133866587Y-105860558D01*
X133682931Y-106012491D01*
X133473268Y-106125855D01*
X133245569Y-106196339D01*
X132972885Y-106225000D01*
X92037902Y-106225000D01*
X91762787Y-106198024D01*
X91534604Y-106129132D01*
X91324154Y-106017234D01*
X91139442Y-105866587D01*
X90987509Y-105682931D01*
X90874145Y-105473268D01*
X90803661Y-105245569D01*
X90775000Y-104972885D01*
X90775000Y-101570000D01*
X92396372Y-101570000D01*
X92396372Y-103270000D01*
X92410853Y-103417026D01*
X92453739Y-103558401D01*
X92523381Y-103688693D01*
X92617105Y-103802895D01*
X92731307Y-103896619D01*
X92861599Y-103966261D01*
X93002974Y-104009147D01*
X93150000Y-104023628D01*
X94850000Y-104023628D01*
X94997026Y-104009147D01*
X95138401Y-103966261D01*
X95268693Y-103896619D01*
X95382895Y-103802895D01*
X95476619Y-103688693D01*
X95546261Y-103558401D01*
X95589147Y-103417026D01*
X95601166Y-103295000D01*
X96387021Y-103295000D01*
X96430000Y-103299233D01*
X96472979Y-103295000D01*
X96601530Y-103282339D01*
X96766468Y-103232305D01*
X96918476Y-103151056D01*
X97051712Y-103041712D01*
X97079117Y-103008319D01*
X101388319Y-98699117D01*
X101421712Y-98671712D01*
X101531056Y-98538476D01*
X101612305Y-98386468D01*
X101650694Y-98259920D01*
X101662339Y-98221531D01*
X101679233Y-98050001D01*
X101675000Y-98007022D01*
X101675000Y-93371080D01*
X104293654Y-93371080D01*
X104302013Y-93455955D01*
X104309680Y-93540803D01*
X104310717Y-93544322D01*
X104311077Y-93547981D01*
X104335840Y-93629613D01*
X104359906Y-93711316D01*
X104361610Y-93714567D01*
X104362677Y-93718084D01*
X104402885Y-93793306D01*
X104442434Y-93868755D01*
X104444740Y-93871611D01*
X104446472Y-93874852D01*
X104500601Y-93940809D01*
X104554091Y-94007068D01*
X104556907Y-94009417D01*
X104559240Y-94012260D01*
X104625229Y-94066416D01*
X104690585Y-94120940D01*
X104693805Y-94122694D01*
X104696648Y-94125028D01*
X104771914Y-94165259D01*
X104846672Y-94205997D01*
X104850175Y-94207090D01*
X104853416Y-94208823D01*
X104935050Y-94233586D01*
X105016353Y-94258967D01*
X105020002Y-94259356D01*
X105023519Y-94260423D01*
X105108413Y-94268784D01*
X105193108Y-94277816D01*
X105241096Y-94273480D01*
X105834029Y-94273480D01*
X105966601Y-94260423D01*
X106075450Y-94227404D01*
X106096796Y-94233879D01*
X106178967Y-94259345D01*
X106181681Y-94259629D01*
X106184299Y-94260423D01*
X106270170Y-94268880D01*
X106355760Y-94277829D01*
X106402810Y-94273480D01*
X106674773Y-94273480D01*
X106674274Y-94275965D01*
X106661569Y-94317029D01*
X106656798Y-94362876D01*
X106647708Y-94408080D01*
X106647618Y-94451079D01*
X106643169Y-94493831D01*
X106647433Y-94539726D01*
X106647430Y-94541292D01*
X106651558Y-94584117D01*
X106659614Y-94670825D01*
X106660060Y-94672324D01*
X106668258Y-94757382D01*
X106668737Y-94807203D01*
X106685816Y-94888954D01*
X106701972Y-94971069D01*
X106704002Y-94975998D01*
X106705089Y-94981203D01*
X106737791Y-95058056D01*
X106750596Y-95089153D01*
X106700835Y-95211519D01*
X106667285Y-95386081D01*
X106668434Y-95563833D01*
X106704241Y-95737947D01*
X106773327Y-95901730D01*
X106873037Y-96048888D01*
X106999541Y-96173766D01*
X107147976Y-96271564D01*
X107271377Y-96321746D01*
X107302768Y-96331047D01*
X107307900Y-96333665D01*
X107387939Y-96356282D01*
X107424962Y-96367252D01*
X107430579Y-96368332D01*
X107436094Y-96369890D01*
X107474166Y-96376709D01*
X107555781Y-96392395D01*
X107561539Y-96392358D01*
X107597480Y-96398795D01*
X107597481Y-97634581D01*
X107593114Y-97678920D01*
X107610537Y-97855821D01*
X107662137Y-98025924D01*
X107745932Y-98182692D01*
X107858700Y-98320100D01*
X107996108Y-98432868D01*
X108152876Y-98516663D01*
X108322979Y-98568263D01*
X108455551Y-98581320D01*
X108499880Y-98585686D01*
X108544209Y-98581320D01*
X108773151Y-98581320D01*
X108815012Y-98585672D01*
X108861794Y-98581320D01*
X108864249Y-98581320D01*
X108906041Y-98577204D01*
X108992005Y-98569207D01*
X108994366Y-98568505D01*
X108996821Y-98568263D01*
X109079636Y-98543141D01*
X109162385Y-98518528D01*
X109164562Y-98517380D01*
X109166924Y-98516663D01*
X109243292Y-98475843D01*
X109280206Y-98456368D01*
X109282240Y-98455025D01*
X109296506Y-98447399D01*
X109368515Y-98488587D01*
X109370309Y-98489188D01*
X109371949Y-98490117D01*
X109454480Y-98517381D01*
X109537069Y-98545044D01*
X109538943Y-98545283D01*
X109540735Y-98545875D01*
X109627160Y-98556534D01*
X109669212Y-98561897D01*
X109671081Y-98561951D01*
X109717155Y-98567633D01*
X109759713Y-98564493D01*
X110377592Y-98582220D01*
X110510484Y-98572970D01*
X110681997Y-98526269D01*
X110745834Y-98494466D01*
X110791727Y-98512186D01*
X110851156Y-98538806D01*
X110874489Y-98544141D01*
X110896814Y-98552761D01*
X110960962Y-98563913D01*
X111024441Y-98578428D01*
X111048364Y-98579108D01*
X111071944Y-98583208D01*
X111137038Y-98581631D01*
X111202125Y-98583482D01*
X111225723Y-98579482D01*
X111249649Y-98578902D01*
X111313193Y-98564654D01*
X111377383Y-98553773D01*
X111399740Y-98545249D01*
X111423100Y-98540011D01*
X111482652Y-98513636D01*
X111543476Y-98490445D01*
X111563742Y-98477722D01*
X111585630Y-98468028D01*
X111589792Y-98465099D01*
X111652997Y-98498883D01*
X111823100Y-98550483D01*
X112000000Y-98567906D01*
X112176901Y-98550483D01*
X112347004Y-98498883D01*
X112456808Y-98440191D01*
X112511530Y-98465895D01*
X112587613Y-98502545D01*
X112591919Y-98503656D01*
X112595942Y-98505546D01*
X112677915Y-98525849D01*
X112759730Y-98546962D01*
X112808612Y-98549712D01*
X113001136Y-98577749D01*
X113058779Y-98590090D01*
X113133248Y-98591174D01*
X113207670Y-98594633D01*
X113222017Y-98592466D01*
X113236517Y-98592677D01*
X113309761Y-98579213D01*
X113383434Y-98568085D01*
X113397081Y-98563161D01*
X113411345Y-98560539D01*
X113480563Y-98533041D01*
X113550641Y-98507757D01*
X113553719Y-98505901D01*
X113607782Y-98521812D01*
X113675130Y-98544551D01*
X113692902Y-98546861D01*
X113710101Y-98551923D01*
X113780905Y-98558302D01*
X113807232Y-98561725D01*
X113825043Y-98562279D01*
X113887140Y-98567874D01*
X113913682Y-98565037D01*
X114467346Y-98582262D01*
X114600260Y-98573333D01*
X114764938Y-98528922D01*
X114802519Y-98540322D01*
X114861674Y-98546148D01*
X114986581Y-98566737D01*
X114996604Y-98570242D01*
X115074177Y-98581176D01*
X115107531Y-98586674D01*
X115118059Y-98587361D01*
X115172621Y-98595052D01*
X115206551Y-98593139D01*
X115240462Y-98595353D01*
X115295086Y-98588147D01*
X115305622Y-98587553D01*
X115339032Y-98582350D01*
X115416692Y-98572105D01*
X115426745Y-98568690D01*
X115614684Y-98539420D01*
X115658320Y-98537041D01*
X115702271Y-98525780D01*
X115703104Y-98525650D01*
X115745699Y-98514653D01*
X115830514Y-98492921D01*
X115831267Y-98492560D01*
X115832088Y-98492348D01*
X115911635Y-98454018D01*
X115990794Y-98416056D01*
X115991469Y-98415550D01*
X115992224Y-98415186D01*
X116062423Y-98362332D01*
X116132997Y-98309398D01*
X116133559Y-98308771D01*
X116134230Y-98308266D01*
X116192711Y-98242797D01*
X116221925Y-98210213D01*
X116222423Y-98209534D01*
X116252649Y-98175696D01*
X116274845Y-98138050D01*
X116372864Y-98004387D01*
X116413255Y-97955336D01*
X116446305Y-97893748D01*
X116481923Y-97833591D01*
X116488268Y-97815551D01*
X116497308Y-97798706D01*
X116517709Y-97731850D01*
X116540905Y-97665904D01*
X116543609Y-97646977D01*
X116549189Y-97628689D01*
X116556156Y-97559130D01*
X116566040Y-97489933D01*
X116564999Y-97470844D01*
X116566905Y-97451816D01*
X116560166Y-97382225D01*
X116556361Y-97312440D01*
X116551616Y-97293921D01*
X116549773Y-97274887D01*
X116529588Y-97207949D01*
X116512241Y-97140245D01*
X116484766Y-97082955D01*
X116465451Y-97036104D01*
X116475229Y-97024181D01*
X116558966Y-96867383D01*
X116610505Y-96697262D01*
X116627865Y-96520354D01*
X116616830Y-96408726D01*
X116728342Y-96378918D01*
X116887815Y-96300392D01*
X117028903Y-96192264D01*
X117146186Y-96058690D01*
X117235158Y-95904800D01*
X117292396Y-95736511D01*
X117315703Y-95560288D01*
X117304183Y-95382906D01*
X117258278Y-95211178D01*
X117179752Y-95051706D01*
X117104664Y-94953727D01*
X117114698Y-94810241D01*
X117161656Y-94751002D01*
X117242783Y-94592837D01*
X117291493Y-94421884D01*
X117305915Y-94244714D01*
X117298752Y-94182764D01*
X117454280Y-94229943D01*
X117631180Y-94247366D01*
X117808081Y-94229943D01*
X117978184Y-94178343D01*
X118017751Y-94157194D01*
X118028635Y-94164329D01*
X118066257Y-94179528D01*
X118102056Y-94198663D01*
X118148483Y-94212747D01*
X118193451Y-94230913D01*
X118233315Y-94238480D01*
X118272159Y-94250263D01*
X118320448Y-94255019D01*
X118368089Y-94264062D01*
X118452798Y-94263320D01*
X118684213Y-94263320D01*
X118715878Y-94267333D01*
X118772877Y-94263320D01*
X118785489Y-94263320D01*
X118817105Y-94260206D01*
X118893196Y-94254849D01*
X118905432Y-94251507D01*
X118918061Y-94250263D01*
X118991101Y-94228107D01*
X119064672Y-94208011D01*
X119076018Y-94202348D01*
X119088164Y-94198663D01*
X119155465Y-94162689D01*
X119183861Y-94148515D01*
X119194531Y-94141808D01*
X119244932Y-94114868D01*
X119269609Y-94094616D01*
X119436721Y-93989574D01*
X119542013Y-93907968D01*
X119658568Y-93773758D01*
X119746701Y-93619387D01*
X119803023Y-93450788D01*
X119825372Y-93274443D01*
X119812889Y-93097124D01*
X119766051Y-92925649D01*
X119706629Y-92806611D01*
X119769039Y-92717931D01*
X119841018Y-92555399D01*
X119879905Y-92381948D01*
X119884205Y-92204242D01*
X119853755Y-92029113D01*
X119789724Y-91863289D01*
X119694573Y-91713143D01*
X119571958Y-91584445D01*
X119463018Y-91507777D01*
X119188369Y-91352315D01*
X119146489Y-91323692D01*
X119070492Y-91291275D01*
X118994819Y-91257763D01*
X118988726Y-91256397D01*
X118982985Y-91253948D01*
X118902071Y-91236969D01*
X118821368Y-91218875D01*
X118815126Y-91218724D01*
X118809017Y-91217442D01*
X118726293Y-91216574D01*
X118643663Y-91214575D01*
X118593680Y-91223266D01*
X118434688Y-91237243D01*
X118380122Y-91237881D01*
X118302929Y-91254175D01*
X118225436Y-91268746D01*
X118216074Y-91272509D01*
X118206198Y-91274594D01*
X118133678Y-91305631D01*
X118079240Y-91327514D01*
X117978183Y-91273497D01*
X117808080Y-91221897D01*
X117631180Y-91204474D01*
X117454279Y-91221897D01*
X117343429Y-91255523D01*
X117341971Y-91255104D01*
X117333206Y-90192289D01*
X117367540Y-90169818D01*
X117407676Y-90148767D01*
X117441728Y-90121264D01*
X117478361Y-90097289D01*
X117510714Y-90065546D01*
X117545962Y-90037078D01*
X117573994Y-90003461D01*
X117605246Y-89972799D01*
X117630782Y-89935359D01*
X117659802Y-89900557D01*
X117680740Y-89862112D01*
X117705406Y-89825947D01*
X117723146Y-89784248D01*
X117744821Y-89744449D01*
X117757856Y-89702660D01*
X117774993Y-89662377D01*
X117784258Y-89618015D01*
X117797751Y-89574755D01*
X117802382Y-89531229D01*
X117811332Y-89488374D01*
X117811764Y-89443056D01*
X117816558Y-89397996D01*
X117812608Y-89354396D01*
X117813025Y-89310624D01*
X117804609Y-89266102D01*
X117800520Y-89220965D01*
X117788139Y-89178971D01*
X117780009Y-89135960D01*
X117763068Y-89093931D01*
X117750252Y-89050463D01*
X117729918Y-89011695D01*
X117713552Y-88971093D01*
X117713465Y-88970961D01*
X117739712Y-88935358D01*
X117747396Y-88918989D01*
X117757541Y-88904017D01*
X117785110Y-88838655D01*
X117815252Y-88774450D01*
X117819596Y-88756896D01*
X117826624Y-88740233D01*
X117840911Y-88670751D01*
X117857949Y-88601897D01*
X117858785Y-88583833D01*
X117862427Y-88566119D01*
X117862885Y-88495186D01*
X117866162Y-88424330D01*
X117863457Y-88406449D01*
X117863574Y-88388365D01*
X117850187Y-88318721D01*
X117839576Y-88248572D01*
X117833432Y-88231555D01*
X117830020Y-88213804D01*
X117803307Y-88148117D01*
X117794338Y-88123275D01*
X117786602Y-88107040D01*
X117763057Y-88049142D01*
X117748457Y-88026983D01*
X115955342Y-84263719D01*
X115886529Y-84149655D01*
X115886272Y-84149373D01*
X115868994Y-84116078D01*
X115757910Y-83977306D01*
X115621886Y-83862871D01*
X115466152Y-83777172D01*
X115296691Y-83723501D01*
X115120014Y-83703922D01*
X114942914Y-83719187D01*
X114814975Y-83756300D01*
X114474601Y-83892450D01*
X114421687Y-83909200D01*
X114353389Y-83946771D01*
X114284218Y-83982666D01*
X114275606Y-83989560D01*
X114265940Y-83994877D01*
X114206295Y-84045041D01*
X114145445Y-84093750D01*
X114138343Y-84102192D01*
X114129900Y-84109293D01*
X114081176Y-84170145D01*
X114031011Y-84229774D01*
X114004258Y-84278390D01*
X113760600Y-84652738D01*
X113753251Y-84662440D01*
X113736425Y-84689879D01*
X113718874Y-84716844D01*
X113713268Y-84727642D01*
X113400021Y-85238475D01*
X113280406Y-85433074D01*
X113267198Y-85399443D01*
X113260439Y-85388911D01*
X113255551Y-85377405D01*
X113212515Y-85314237D01*
X113195248Y-85287332D01*
X113187533Y-85277569D01*
X113155466Y-85230501D01*
X113132569Y-85208013D01*
X112359069Y-84229160D01*
X112357021Y-84225246D01*
X112304008Y-84159481D01*
X112279220Y-84128112D01*
X112276173Y-84124950D01*
X112245463Y-84086853D01*
X112214647Y-84061107D01*
X112186781Y-84032191D01*
X112168481Y-84019468D01*
X113527889Y-83541495D01*
X114498892Y-83253309D01*
X114622269Y-83203072D01*
X114770660Y-83105206D01*
X114897107Y-82980270D01*
X114996750Y-82833067D01*
X115065762Y-82669254D01*
X115101489Y-82495124D01*
X115102558Y-82317370D01*
X115068928Y-82142823D01*
X115001892Y-81978191D01*
X114904026Y-81829800D01*
X114779090Y-81703353D01*
X114771085Y-81697934D01*
X114352601Y-80867187D01*
X114352546Y-80867074D01*
X114352540Y-80867066D01*
X113806902Y-79783901D01*
X113797524Y-79749368D01*
X113718366Y-79590208D01*
X113692407Y-79556613D01*
X113028341Y-78238353D01*
X113003241Y-78180516D01*
X112963174Y-78122673D01*
X112925494Y-78063209D01*
X112912637Y-78049714D01*
X112902023Y-78034390D01*
X112851422Y-77985458D01*
X112802883Y-77934507D01*
X112787642Y-77923780D01*
X112774241Y-77910821D01*
X112715065Y-77872699D01*
X112657519Y-77832198D01*
X112640479Y-77824651D01*
X112624807Y-77814555D01*
X112559324Y-77788707D01*
X112494990Y-77760214D01*
X112476810Y-77756137D01*
X112459465Y-77749291D01*
X112390193Y-77736714D01*
X112321540Y-77721320D01*
X112302911Y-77720868D01*
X112284567Y-77717538D01*
X112214190Y-77718718D01*
X112143835Y-77717012D01*
X112125469Y-77720205D01*
X112106834Y-77720517D01*
X112038049Y-77735401D01*
X111968705Y-77747456D01*
X111951316Y-77754170D01*
X111933098Y-77758112D01*
X111868536Y-77786131D01*
X111802879Y-77811481D01*
X111787133Y-77821459D01*
X111770035Y-77828879D01*
X111712178Y-77868955D01*
X111652729Y-77906626D01*
X111639236Y-77919480D01*
X111623909Y-77930097D01*
X111574965Y-77980710D01*
X111524027Y-78029237D01*
X111513303Y-78044474D01*
X111500340Y-78057879D01*
X111462208Y-78117071D01*
X111421718Y-78174601D01*
X111396189Y-78232241D01*
X108453994Y-83965751D01*
X108427506Y-84007940D01*
X108397702Y-84086101D01*
X108367011Y-84163855D01*
X108366063Y-84169074D01*
X108364173Y-84174032D01*
X108350194Y-84256486D01*
X108335258Y-84338753D01*
X108335347Y-84344057D01*
X108334460Y-84349288D01*
X108336836Y-84432872D01*
X108337140Y-84451017D01*
X108312027Y-84468952D01*
X108298869Y-84482956D01*
X108283721Y-84494772D01*
X108238117Y-84547615D01*
X108190309Y-84598498D01*
X108180134Y-84614802D01*
X108167584Y-84629345D01*
X108133173Y-84690056D01*
X108119784Y-84711511D01*
X108111302Y-84728643D01*
X108079932Y-84783988D01*
X108071958Y-84808107D01*
X107939479Y-85075679D01*
X107929895Y-85085216D01*
X107830776Y-85232772D01*
X107762348Y-85396831D01*
X107749914Y-85458549D01*
X106903956Y-87167155D01*
X106853285Y-87245442D01*
X106804972Y-87367077D01*
X106047978Y-88896000D01*
X106013879Y-88958611D01*
X105995369Y-89017956D01*
X105973385Y-89076085D01*
X105968961Y-89102618D01*
X105960949Y-89128305D01*
X105954372Y-89190119D01*
X105944151Y-89251422D01*
X105944989Y-89278310D01*
X105942142Y-89305064D01*
X105947751Y-89366976D01*
X105949686Y-89429092D01*
X105955752Y-89455296D01*
X105958180Y-89482095D01*
X105975761Y-89541729D01*
X105989776Y-89602269D01*
X106000837Y-89626785D01*
X106008447Y-89652597D01*
X106037323Y-89707651D01*
X106062881Y-89764298D01*
X106078517Y-89786191D01*
X106091013Y-89810016D01*
X106130065Y-89858367D01*
X106166192Y-89908952D01*
X106185800Y-89927375D01*
X106202702Y-89948302D01*
X106250438Y-89988108D01*
X106295738Y-90030670D01*
X106318560Y-90044912D01*
X106339223Y-90062142D01*
X106393813Y-90091872D01*
X106446541Y-90124777D01*
X106471703Y-90134293D01*
X106495331Y-90147161D01*
X106551910Y-90164809D01*
X106258266Y-91076748D01*
X106230061Y-91206942D01*
X106230049Y-91207661D01*
X106197259Y-91210692D01*
X106092814Y-91241691D01*
X106027561Y-91221897D01*
X105894989Y-91208840D01*
X105258552Y-91208840D01*
X105217892Y-91204504D01*
X105169904Y-91208840D01*
X105166251Y-91208840D01*
X105125682Y-91212836D01*
X105040857Y-91220500D01*
X105037338Y-91221537D01*
X105033679Y-91221897D01*
X104952047Y-91246660D01*
X104870344Y-91270726D01*
X104867093Y-91272430D01*
X104863576Y-91273497D01*
X104788354Y-91313705D01*
X104712905Y-91353254D01*
X104710049Y-91355560D01*
X104706808Y-91357292D01*
X104640851Y-91411421D01*
X104574592Y-91464911D01*
X104572243Y-91467727D01*
X104569400Y-91470060D01*
X104515244Y-91536049D01*
X104460720Y-91601405D01*
X104458966Y-91604625D01*
X104456632Y-91607468D01*
X104416401Y-91682734D01*
X104375663Y-91757492D01*
X104374570Y-91760995D01*
X104372837Y-91764236D01*
X104348074Y-91845870D01*
X104322693Y-91927173D01*
X104322304Y-91930822D01*
X104321237Y-91934339D01*
X104312878Y-92019213D01*
X104308567Y-92059636D01*
X104308538Y-92063280D01*
X104303814Y-92111240D01*
X104307823Y-92151941D01*
X104298378Y-93323120D01*
X104293654Y-93371080D01*
X101675000Y-93371080D01*
X101675000Y-77625000D01*
X102446930Y-77625001D01*
X102463906Y-77623329D01*
X103004401Y-77623329D01*
X103151427Y-77608848D01*
X103292802Y-77565962D01*
X103423094Y-77496320D01*
X103537296Y-77402596D01*
X103631020Y-77288394D01*
X103700662Y-77158102D01*
X103743548Y-77016727D01*
X103758029Y-76869701D01*
X103758029Y-76630301D01*
X103745195Y-76500001D01*
X103758029Y-76369700D01*
X103758029Y-76130300D01*
X103745195Y-76000001D01*
X103758029Y-75869701D01*
X103758029Y-75630301D01*
X103745195Y-75500000D01*
X103758029Y-75369699D01*
X103758029Y-75130299D01*
X103745195Y-75000000D01*
X103758029Y-74869700D01*
X103758029Y-74630300D01*
X103745195Y-74500001D01*
X103758029Y-74369701D01*
X103758029Y-74130301D01*
X103745195Y-74000000D01*
X103758029Y-73869700D01*
X103758029Y-73630300D01*
X103745195Y-73500001D01*
X103758029Y-73369701D01*
X103758029Y-73130301D01*
X103745195Y-73000000D01*
X103758029Y-72869699D01*
X103758029Y-72630299D01*
X103745195Y-72500000D01*
X103758029Y-72369700D01*
X103758029Y-72130300D01*
X103745195Y-72000001D01*
X103758029Y-71869701D01*
X103758029Y-71630301D01*
X103745195Y-71500001D01*
X103758029Y-71369700D01*
X103758029Y-71130300D01*
X103745195Y-71000000D01*
X103758029Y-70869700D01*
X103758029Y-70630300D01*
X103745195Y-70500000D01*
X103758029Y-70369699D01*
X103758029Y-70130299D01*
X103745195Y-70000000D01*
X103758029Y-69869700D01*
X103758029Y-69630300D01*
X103745195Y-69500001D01*
X103758029Y-69369701D01*
X103758029Y-69130301D01*
X103745195Y-69000000D01*
X103758029Y-68869699D01*
X103758029Y-68630299D01*
X103745195Y-68499999D01*
X103758029Y-68369700D01*
X103758029Y-68130300D01*
X103745195Y-68000000D01*
X103758029Y-67869699D01*
X103758029Y-67630299D01*
X103745195Y-67500000D01*
X103758029Y-67369700D01*
X103758029Y-67130300D01*
X103745195Y-67000001D01*
X103758029Y-66869701D01*
X103758029Y-66630301D01*
X103745195Y-66500000D01*
X103758029Y-66369699D01*
X103758029Y-66130299D01*
X103751154Y-66060499D01*
X120737599Y-66060499D01*
X120783722Y-66106622D01*
X120799338Y-66158101D01*
X120848459Y-66250000D01*
X120799338Y-66341900D01*
X120783723Y-66393375D01*
X120737599Y-66439499D01*
X120751899Y-66529497D01*
X120741971Y-66630301D01*
X120741971Y-66869701D01*
X120754805Y-67000001D01*
X120741971Y-67130300D01*
X120741971Y-67369700D01*
X120754805Y-67500000D01*
X120741971Y-67630299D01*
X120741971Y-67869699D01*
X120754805Y-68000000D01*
X120741971Y-68130300D01*
X120741971Y-68369700D01*
X120754805Y-68499999D01*
X120741971Y-68630299D01*
X120741971Y-68869699D01*
X120754805Y-69000000D01*
X120741971Y-69130301D01*
X120741971Y-69369701D01*
X120754805Y-69500001D01*
X120741971Y-69630300D01*
X120741971Y-69869700D01*
X120754805Y-70000000D01*
X120741971Y-70130299D01*
X120741971Y-70369699D01*
X120754805Y-70500000D01*
X120741971Y-70630300D01*
X120741971Y-70869700D01*
X120754805Y-71000000D01*
X120741971Y-71130300D01*
X120741971Y-71369700D01*
X120754805Y-71499999D01*
X120741971Y-71630298D01*
X120741971Y-71869698D01*
X120754805Y-71999999D01*
X120741971Y-72130300D01*
X120741971Y-72369700D01*
X120754805Y-72500000D01*
X120741971Y-72630299D01*
X120741971Y-72869699D01*
X120754805Y-73000000D01*
X120741971Y-73130301D01*
X120741971Y-73369701D01*
X120754805Y-73500001D01*
X120741971Y-73630300D01*
X120741971Y-73869700D01*
X120754805Y-74000000D01*
X120741971Y-74130299D01*
X120741971Y-74369699D01*
X120754805Y-74500000D01*
X120741971Y-74630300D01*
X120741971Y-74869700D01*
X120754805Y-75000000D01*
X120741971Y-75130299D01*
X120741971Y-75369699D01*
X120751899Y-75470503D01*
X120737599Y-75560501D01*
X120783723Y-75606625D01*
X120799338Y-75658100D01*
X120848459Y-75750000D01*
X120799338Y-75841899D01*
X120783722Y-75893378D01*
X120737599Y-75939501D01*
X120751899Y-76029498D01*
X120741971Y-76130300D01*
X120741971Y-76369700D01*
X120754805Y-76500000D01*
X120741971Y-76630299D01*
X120741971Y-76869699D01*
X120756452Y-77016725D01*
X120799338Y-77158100D01*
X120868980Y-77288392D01*
X120962704Y-77402594D01*
X121076906Y-77496318D01*
X121207198Y-77565960D01*
X121348573Y-77608846D01*
X121495599Y-77623327D01*
X122036103Y-77623327D01*
X122053069Y-77624998D01*
X122825000Y-77624999D01*
X122825001Y-97207011D01*
X122820767Y-97250000D01*
X122837661Y-97421529D01*
X122887695Y-97586467D01*
X122913710Y-97635137D01*
X122968945Y-97738476D01*
X123078289Y-97871712D01*
X123111676Y-97899112D01*
X128220888Y-103008325D01*
X128248288Y-103041712D01*
X128381524Y-103151056D01*
X128533532Y-103232305D01*
X128698469Y-103282339D01*
X128869999Y-103299233D01*
X128912978Y-103295000D01*
X129660352Y-103295000D01*
X129757199Y-103439941D01*
X129980059Y-103662801D01*
X130242116Y-103837902D01*
X130533297Y-103958513D01*
X130842414Y-104020000D01*
X131157586Y-104020000D01*
X131466703Y-103958513D01*
X131757884Y-103837902D01*
X132019941Y-103662801D01*
X132242801Y-103439941D01*
X132417902Y-103177884D01*
X132538513Y-102886703D01*
X132600000Y-102577586D01*
X132600000Y-102262414D01*
X132538513Y-101953297D01*
X132417902Y-101662116D01*
X132242801Y-101400059D01*
X132019941Y-101177199D01*
X131979235Y-101150000D01*
X132019941Y-101122801D01*
X132242801Y-100899941D01*
X132417902Y-100637884D01*
X132538513Y-100346703D01*
X132600000Y-100037586D01*
X132600000Y-99722414D01*
X132538513Y-99413297D01*
X132417902Y-99122116D01*
X132242801Y-98860059D01*
X132019941Y-98637199D01*
X131976250Y-98608006D01*
X132094446Y-98518071D01*
X132303247Y-98281919D01*
X132461965Y-98009569D01*
X132564500Y-97711488D01*
X132587572Y-97595497D01*
X132418494Y-97344000D01*
X131004000Y-97344000D01*
X131004000Y-97364000D01*
X130996000Y-97364000D01*
X130996000Y-97344000D01*
X129581506Y-97344000D01*
X129412428Y-97595497D01*
X129435500Y-97711488D01*
X129538035Y-98009569D01*
X129696753Y-98281919D01*
X129905554Y-98518071D01*
X130023750Y-98608006D01*
X129980059Y-98637199D01*
X129757199Y-98860059D01*
X129660352Y-99005000D01*
X129242437Y-99005000D01*
X125025000Y-94787564D01*
X125025000Y-92212436D01*
X128200888Y-95388325D01*
X128228288Y-95421712D01*
X128355706Y-95526281D01*
X128361524Y-95531056D01*
X128513532Y-95612305D01*
X128678470Y-95662339D01*
X128850000Y-95679233D01*
X128892979Y-95675000D01*
X129660352Y-95675000D01*
X129757199Y-95819941D01*
X129980059Y-96042801D01*
X130023750Y-96071994D01*
X129905554Y-96161929D01*
X129696753Y-96398081D01*
X129538035Y-96670431D01*
X129435500Y-96968512D01*
X129412428Y-97084503D01*
X129581506Y-97336000D01*
X130996000Y-97336000D01*
X130996000Y-97316000D01*
X131004000Y-97316000D01*
X131004000Y-97336000D01*
X132418494Y-97336000D01*
X132587572Y-97084503D01*
X132564500Y-96968512D01*
X132461965Y-96670431D01*
X132303247Y-96398081D01*
X132094446Y-96161929D01*
X131976250Y-96071994D01*
X132019941Y-96042801D01*
X132242801Y-95819941D01*
X132417902Y-95557884D01*
X132538513Y-95266703D01*
X132600000Y-94957586D01*
X132600000Y-94642414D01*
X132538513Y-94333297D01*
X132417902Y-94042116D01*
X132242801Y-93780059D01*
X132019941Y-93557199D01*
X131979235Y-93530000D01*
X132019941Y-93502801D01*
X132242801Y-93279941D01*
X132417902Y-93017884D01*
X132538513Y-92726703D01*
X132600000Y-92417586D01*
X132600000Y-92102414D01*
X132538513Y-91793297D01*
X132417902Y-91502116D01*
X132242801Y-91240059D01*
X132019941Y-91017199D01*
X131979235Y-90990000D01*
X132019941Y-90962801D01*
X132242801Y-90739941D01*
X132417902Y-90477884D01*
X132538513Y-90186703D01*
X132600000Y-89877586D01*
X132600000Y-89562414D01*
X132538513Y-89253297D01*
X132417902Y-88962116D01*
X132242801Y-88700059D01*
X132019941Y-88477199D01*
X131979235Y-88450000D01*
X132019941Y-88422801D01*
X132242801Y-88199941D01*
X132417902Y-87937884D01*
X132538513Y-87646703D01*
X132600000Y-87337586D01*
X132600000Y-87022414D01*
X132538513Y-86713297D01*
X132417902Y-86422116D01*
X132242801Y-86160059D01*
X132019941Y-85937199D01*
X131979235Y-85910000D01*
X132019941Y-85882801D01*
X132242801Y-85659941D01*
X132417902Y-85397884D01*
X132538513Y-85106703D01*
X132600000Y-84797586D01*
X132600000Y-84482414D01*
X132538513Y-84173297D01*
X132417902Y-83882116D01*
X132242801Y-83620059D01*
X132019941Y-83397199D01*
X131979235Y-83370000D01*
X132019941Y-83342801D01*
X132242801Y-83119941D01*
X132417902Y-82857884D01*
X132538513Y-82566703D01*
X132600000Y-82257586D01*
X132600000Y-81942414D01*
X132538513Y-81633297D01*
X132417902Y-81342116D01*
X132242801Y-81080059D01*
X132019941Y-80857199D01*
X131979235Y-80830000D01*
X132019941Y-80802801D01*
X132242801Y-80579941D01*
X132417902Y-80317884D01*
X132538513Y-80026703D01*
X132600000Y-79717586D01*
X132600000Y-79402414D01*
X132538513Y-79093297D01*
X132417902Y-78802116D01*
X132242801Y-78540059D01*
X132019941Y-78317199D01*
X131979235Y-78290000D01*
X132019941Y-78262801D01*
X132242801Y-78039941D01*
X132417902Y-77777884D01*
X132538513Y-77486703D01*
X132600000Y-77177586D01*
X132600000Y-76862414D01*
X132538513Y-76553297D01*
X132417902Y-76262116D01*
X132242801Y-76000059D01*
X132019941Y-75777199D01*
X131979235Y-75750000D01*
X132019941Y-75722801D01*
X132242801Y-75499941D01*
X132417902Y-75237884D01*
X132538513Y-74946703D01*
X132600000Y-74637586D01*
X132600000Y-74322414D01*
X132538513Y-74013297D01*
X132417902Y-73722116D01*
X132242801Y-73460059D01*
X132019941Y-73237199D01*
X131979235Y-73210000D01*
X132019941Y-73182801D01*
X132242801Y-72959941D01*
X132417902Y-72697884D01*
X132538513Y-72406703D01*
X132600000Y-72097586D01*
X132600000Y-71782414D01*
X132538513Y-71473297D01*
X132417902Y-71182116D01*
X132242801Y-70920059D01*
X132019941Y-70697199D01*
X131979235Y-70670000D01*
X132019941Y-70642801D01*
X132242801Y-70419941D01*
X132417902Y-70157884D01*
X132538513Y-69866703D01*
X132600000Y-69557586D01*
X132600000Y-69242414D01*
X132538513Y-68933297D01*
X132417902Y-68642116D01*
X132242801Y-68380059D01*
X132019941Y-68157199D01*
X131979235Y-68130000D01*
X132019941Y-68102801D01*
X132242801Y-67879941D01*
X132417902Y-67617884D01*
X132538513Y-67326703D01*
X132600000Y-67017586D01*
X132600000Y-66702414D01*
X132538513Y-66393297D01*
X132417902Y-66102116D01*
X132242801Y-65840059D01*
X132019941Y-65617199D01*
X131979235Y-65590000D01*
X132019941Y-65562801D01*
X132242801Y-65339941D01*
X132417902Y-65077884D01*
X132538513Y-64786703D01*
X132600000Y-64477586D01*
X132600000Y-64162414D01*
X132538513Y-63853297D01*
X132417902Y-63562116D01*
X132242801Y-63300059D01*
X132019941Y-63077199D01*
X131979235Y-63050000D01*
X132019941Y-63022801D01*
X132242801Y-62799941D01*
X132417902Y-62537884D01*
X132538513Y-62246703D01*
X132600000Y-61937586D01*
X132600000Y-61622414D01*
X132538513Y-61313297D01*
X132417902Y-61022116D01*
X132242801Y-60760059D01*
X132019941Y-60537199D01*
X131979235Y-60510000D01*
X132019941Y-60482801D01*
X132242801Y-60259941D01*
X132417902Y-59997884D01*
X132538513Y-59706703D01*
X132600000Y-59397586D01*
X132600000Y-59082414D01*
X132538513Y-58773297D01*
X132417902Y-58482116D01*
X132242801Y-58220059D01*
X132019941Y-57997199D01*
X131979235Y-57970000D01*
X132019941Y-57942801D01*
X132242801Y-57719941D01*
X132417902Y-57457884D01*
X132538513Y-57166703D01*
X132600000Y-56857586D01*
X132600000Y-56542414D01*
X132538513Y-56233297D01*
X132417902Y-55942116D01*
X132242801Y-55680059D01*
X132019941Y-55457199D01*
X131979235Y-55430000D01*
X132019941Y-55402801D01*
X132242801Y-55179941D01*
X132417902Y-54917884D01*
X132538513Y-54626703D01*
X132600000Y-54317586D01*
X132600000Y-54002414D01*
X132538513Y-53693297D01*
X132417902Y-53402116D01*
X132242801Y-53140059D01*
X132019941Y-52917199D01*
X131979235Y-52890000D01*
X132019941Y-52862801D01*
X132242801Y-52639941D01*
X132417902Y-52377884D01*
X132538513Y-52086703D01*
X132600000Y-51777586D01*
X132600000Y-51462414D01*
X132538513Y-51153297D01*
X132417902Y-50862116D01*
X132242801Y-50600059D01*
X132019941Y-50377199D01*
X131976250Y-50348006D01*
X132094446Y-50258071D01*
X132303247Y-50021919D01*
X132461965Y-49749569D01*
X132564500Y-49451488D01*
X132587572Y-49335497D01*
X132418494Y-49084000D01*
X131004000Y-49084000D01*
X131004000Y-49104000D01*
X130996000Y-49104000D01*
X130996000Y-49084000D01*
X129581506Y-49084000D01*
X129412428Y-49335497D01*
X129435500Y-49451488D01*
X129538035Y-49749569D01*
X129696753Y-50021919D01*
X129905554Y-50258071D01*
X130023750Y-50348006D01*
X129980059Y-50377199D01*
X129757199Y-50600059D01*
X129660352Y-50745000D01*
X128472979Y-50745000D01*
X128430000Y-50740767D01*
X128387021Y-50745000D01*
X128258470Y-50757661D01*
X128093532Y-50807695D01*
X127941524Y-50888944D01*
X127808288Y-50998288D01*
X127780888Y-51031675D01*
X124525000Y-54287564D01*
X124525000Y-51612436D01*
X128722437Y-47415000D01*
X129660352Y-47415000D01*
X129757199Y-47559941D01*
X129980059Y-47782801D01*
X130023750Y-47811994D01*
X129905554Y-47901929D01*
X129696753Y-48138081D01*
X129538035Y-48410431D01*
X129435500Y-48708512D01*
X129412428Y-48824503D01*
X129581506Y-49076000D01*
X130996000Y-49076000D01*
X130996000Y-49056000D01*
X131004000Y-49056000D01*
X131004000Y-49076000D01*
X132418494Y-49076000D01*
X132587572Y-48824503D01*
X132564500Y-48708512D01*
X132461965Y-48410431D01*
X132303247Y-48138081D01*
X132094446Y-47901929D01*
X131976250Y-47811994D01*
X132019941Y-47782801D01*
X132242801Y-47559941D01*
X132417902Y-47297884D01*
X132538513Y-47006703D01*
X132600000Y-46697586D01*
X132600000Y-46382414D01*
X132538513Y-46073297D01*
X132417902Y-45782116D01*
X132242801Y-45520059D01*
X132223511Y-45500769D01*
X132268693Y-45476619D01*
X132382895Y-45382895D01*
X132476619Y-45268693D01*
X132546261Y-45138401D01*
X132589147Y-44997026D01*
X132603628Y-44850000D01*
X132603628Y-43150000D01*
X132589147Y-43002974D01*
X132546261Y-42861599D01*
X132476619Y-42731307D01*
X132382895Y-42617105D01*
X132268693Y-42523381D01*
X132138401Y-42453739D01*
X131997026Y-42410853D01*
X131850000Y-42396372D01*
X130150000Y-42396372D01*
X130002974Y-42410853D01*
X129861599Y-42453739D01*
X129731307Y-42523381D01*
X129617105Y-42617105D01*
X129523381Y-42731307D01*
X129453739Y-42861599D01*
X129410853Y-43002974D01*
X129398834Y-43125000D01*
X128392979Y-43125000D01*
X128350000Y-43120767D01*
X128307021Y-43125000D01*
X128178470Y-43137661D01*
X128013532Y-43187695D01*
X127861524Y-43268944D01*
X127728288Y-43378288D01*
X127700888Y-43411675D01*
X122611676Y-48500888D01*
X122578289Y-48528288D01*
X122468945Y-48661524D01*
X122468528Y-48662305D01*
X122387695Y-48813533D01*
X122337661Y-48978471D01*
X122320767Y-49150000D01*
X122325001Y-49192989D01*
X122325000Y-64374999D01*
X122053069Y-64374999D01*
X122036093Y-64376671D01*
X121495599Y-64376671D01*
X121348573Y-64391152D01*
X121207198Y-64434038D01*
X121076906Y-64503680D01*
X120962704Y-64597404D01*
X120868980Y-64711606D01*
X120799338Y-64841898D01*
X120756452Y-64983273D01*
X120741971Y-65130299D01*
X120741971Y-65369699D01*
X120754805Y-65500000D01*
X120741971Y-65630300D01*
X120741971Y-65869700D01*
X120751899Y-65970502D01*
X120737599Y-66060499D01*
X103751154Y-66060499D01*
X103745195Y-65999999D01*
X103758029Y-65869700D01*
X103758029Y-65630300D01*
X103745195Y-65500001D01*
X103758029Y-65369701D01*
X103758029Y-65130301D01*
X103743548Y-64983275D01*
X103700662Y-64841900D01*
X103631020Y-64711608D01*
X103537296Y-64597406D01*
X103423094Y-64503682D01*
X103292802Y-64434040D01*
X103151427Y-64391154D01*
X103004401Y-64376673D01*
X102463907Y-64376673D01*
X102446931Y-64375001D01*
X100925000Y-64375001D01*
X100925000Y-47892978D01*
X100929233Y-47849999D01*
X100912339Y-47678469D01*
X100862305Y-47513532D01*
X100809639Y-47415000D01*
X100781056Y-47361524D01*
X100671712Y-47228288D01*
X100638325Y-47200888D01*
X96849117Y-43411681D01*
X96821712Y-43378288D01*
X96688476Y-43268944D01*
X96536468Y-43187695D01*
X96371530Y-43137661D01*
X96242979Y-43125000D01*
X96200000Y-43120767D01*
X96157021Y-43125000D01*
X95339648Y-43125000D01*
X95242801Y-42980059D01*
X95019941Y-42757199D01*
X94757884Y-42582098D01*
X94466703Y-42461487D01*
X94157586Y-42400000D01*
X93842414Y-42400000D01*
X93533297Y-42461487D01*
X93242116Y-42582098D01*
X92980059Y-42757199D01*
X92757199Y-42980059D01*
X92582098Y-43242116D01*
X92461487Y-43533297D01*
X92400000Y-43842414D01*
X92400000Y-44157586D01*
X92461487Y-44466703D01*
X92582098Y-44757884D01*
X92757199Y-45019941D01*
X92980059Y-45242801D01*
X93020765Y-45270000D01*
X92980059Y-45297199D01*
X92757199Y-45520059D01*
X92582098Y-45782116D01*
X92461487Y-46073297D01*
X92400000Y-46382414D01*
X92400000Y-46697586D01*
X92461487Y-47006703D01*
X92582098Y-47297884D01*
X92757199Y-47559941D01*
X92980059Y-47782801D01*
X93020765Y-47810000D01*
X92980059Y-47837199D01*
X92757199Y-48060059D01*
X92582098Y-48322116D01*
X92461487Y-48613297D01*
X92400000Y-48922414D01*
X92400000Y-49237586D01*
X92461487Y-49546703D01*
X92582098Y-49837884D01*
X92757199Y-50099941D01*
X92980059Y-50322801D01*
X93020765Y-50350000D01*
X92980059Y-50377199D01*
X92757199Y-50600059D01*
X92582098Y-50862116D01*
X92461487Y-51153297D01*
X92400000Y-51462414D01*
X92400000Y-51777586D01*
X92461487Y-52086703D01*
X92582098Y-52377884D01*
X92757199Y-52639941D01*
X92980059Y-52862801D01*
X93020765Y-52890000D01*
X92980059Y-52917199D01*
X92757199Y-53140059D01*
X92582098Y-53402116D01*
X92461487Y-53693297D01*
X92400000Y-54002414D01*
X92400000Y-54317586D01*
X92461487Y-54626703D01*
X92582098Y-54917884D01*
X92757199Y-55179941D01*
X92980059Y-55402801D01*
X93020765Y-55430000D01*
X92980059Y-55457199D01*
X92757199Y-55680059D01*
X92582098Y-55942116D01*
X92461487Y-56233297D01*
X92400000Y-56542414D01*
X92400000Y-56857586D01*
X92461487Y-57166703D01*
X92582098Y-57457884D01*
X92757199Y-57719941D01*
X92980059Y-57942801D01*
X93020765Y-57970000D01*
X92980059Y-57997199D01*
X92757199Y-58220059D01*
X92582098Y-58482116D01*
X92461487Y-58773297D01*
X92400000Y-59082414D01*
X92400000Y-59397586D01*
X92461487Y-59706703D01*
X92582098Y-59997884D01*
X92757199Y-60259941D01*
X92980059Y-60482801D01*
X93020765Y-60510000D01*
X92980059Y-60537199D01*
X92757199Y-60760059D01*
X92582098Y-61022116D01*
X92461487Y-61313297D01*
X92400000Y-61622414D01*
X92400000Y-61937586D01*
X92461487Y-62246703D01*
X92582098Y-62537884D01*
X92757199Y-62799941D01*
X92980059Y-63022801D01*
X93020765Y-63050000D01*
X92980059Y-63077199D01*
X92757199Y-63300059D01*
X92582098Y-63562116D01*
X92461487Y-63853297D01*
X92400000Y-64162414D01*
X92400000Y-64477586D01*
X92461487Y-64786703D01*
X92582098Y-65077884D01*
X92757199Y-65339941D01*
X92980059Y-65562801D01*
X93020765Y-65590000D01*
X92980059Y-65617199D01*
X92757199Y-65840059D01*
X92582098Y-66102116D01*
X92461487Y-66393297D01*
X92400000Y-66702414D01*
X92400000Y-67017586D01*
X92461487Y-67326703D01*
X92582098Y-67617884D01*
X92757199Y-67879941D01*
X92980059Y-68102801D01*
X93020765Y-68130000D01*
X92980059Y-68157199D01*
X92757199Y-68380059D01*
X92582098Y-68642116D01*
X92461487Y-68933297D01*
X92400000Y-69242414D01*
X92400000Y-69557586D01*
X92461487Y-69866703D01*
X92582098Y-70157884D01*
X92757199Y-70419941D01*
X92980059Y-70642801D01*
X93020765Y-70670000D01*
X92980059Y-70697199D01*
X92757199Y-70920059D01*
X92582098Y-71182116D01*
X92461487Y-71473297D01*
X92400000Y-71782414D01*
X92400000Y-72097586D01*
X92461487Y-72406703D01*
X92582098Y-72697884D01*
X92757199Y-72959941D01*
X92980059Y-73182801D01*
X93020765Y-73210000D01*
X92980059Y-73237199D01*
X92757199Y-73460059D01*
X92582098Y-73722116D01*
X92461487Y-74013297D01*
X92400000Y-74322414D01*
X92400000Y-74637586D01*
X92461487Y-74946703D01*
X92582098Y-75237884D01*
X92757199Y-75499941D01*
X92980059Y-75722801D01*
X93020765Y-75750000D01*
X92980059Y-75777199D01*
X92757199Y-76000059D01*
X92582098Y-76262116D01*
X92461487Y-76553297D01*
X92400000Y-76862414D01*
X92400000Y-77177586D01*
X92461487Y-77486703D01*
X92582098Y-77777884D01*
X92757199Y-78039941D01*
X92980059Y-78262801D01*
X93020765Y-78290000D01*
X92980059Y-78317199D01*
X92757199Y-78540059D01*
X92582098Y-78802116D01*
X92461487Y-79093297D01*
X92400000Y-79402414D01*
X92400000Y-79717586D01*
X92461487Y-80026703D01*
X92582098Y-80317884D01*
X92757199Y-80579941D01*
X92980059Y-80802801D01*
X93020765Y-80830000D01*
X92980059Y-80857199D01*
X92757199Y-81080059D01*
X92582098Y-81342116D01*
X92461487Y-81633297D01*
X92400000Y-81942414D01*
X92400000Y-82257586D01*
X92461487Y-82566703D01*
X92582098Y-82857884D01*
X92757199Y-83119941D01*
X92980059Y-83342801D01*
X93020765Y-83370000D01*
X92980059Y-83397199D01*
X92757199Y-83620059D01*
X92582098Y-83882116D01*
X92461487Y-84173297D01*
X92400000Y-84482414D01*
X92400000Y-84797586D01*
X92461487Y-85106703D01*
X92582098Y-85397884D01*
X92757199Y-85659941D01*
X92980059Y-85882801D01*
X93020765Y-85910000D01*
X92980059Y-85937199D01*
X92757199Y-86160059D01*
X92582098Y-86422116D01*
X92461487Y-86713297D01*
X92400000Y-87022414D01*
X92400000Y-87337586D01*
X92461487Y-87646703D01*
X92582098Y-87937884D01*
X92757199Y-88199941D01*
X92980059Y-88422801D01*
X93020765Y-88450000D01*
X92980059Y-88477199D01*
X92757199Y-88700059D01*
X92582098Y-88962116D01*
X92461487Y-89253297D01*
X92400000Y-89562414D01*
X92400000Y-89877586D01*
X92461487Y-90186703D01*
X92582098Y-90477884D01*
X92757199Y-90739941D01*
X92980059Y-90962801D01*
X93020765Y-90990000D01*
X92980059Y-91017199D01*
X92757199Y-91240059D01*
X92582098Y-91502116D01*
X92461487Y-91793297D01*
X92400000Y-92102414D01*
X92400000Y-92417586D01*
X92461487Y-92726703D01*
X92582098Y-93017884D01*
X92757199Y-93279941D01*
X92980059Y-93502801D01*
X93020765Y-93530000D01*
X92980059Y-93557199D01*
X92757199Y-93780059D01*
X92582098Y-94042116D01*
X92461487Y-94333297D01*
X92400000Y-94642414D01*
X92400000Y-94957586D01*
X92461487Y-95266703D01*
X92582098Y-95557884D01*
X92757199Y-95819941D01*
X92980059Y-96042801D01*
X93020765Y-96070000D01*
X92980059Y-96097199D01*
X92757199Y-96320059D01*
X92582098Y-96582116D01*
X92461487Y-96873297D01*
X92400000Y-97182414D01*
X92400000Y-97497586D01*
X92461487Y-97806703D01*
X92582098Y-98097884D01*
X92757199Y-98359941D01*
X92980059Y-98582801D01*
X93020765Y-98610000D01*
X92980059Y-98637199D01*
X92757199Y-98860059D01*
X92582098Y-99122116D01*
X92461487Y-99413297D01*
X92400000Y-99722414D01*
X92400000Y-100037586D01*
X92461487Y-100346703D01*
X92582098Y-100637884D01*
X92757199Y-100899941D01*
X92776489Y-100919231D01*
X92731307Y-100943381D01*
X92617105Y-101037105D01*
X92523381Y-101151307D01*
X92453739Y-101281599D01*
X92410853Y-101422974D01*
X92396372Y-101570000D01*
X90775000Y-101570000D01*
X90775000Y-42037902D01*
X90801975Y-41762787D01*
X90870868Y-41534603D01*
X90982768Y-41324152D01*
X91133414Y-41139442D01*
X91317066Y-40987510D01*
X91526732Y-40874145D01*
X91754429Y-40803661D01*
X92027115Y-40775000D01*
X132962098Y-40775000D01*
X133237213Y-40801975D01*
M02*
