G04 #@! TF.GenerationSoftware,KiCad,Pcbnew,(5.1.5)-3*
G04 #@! TF.CreationDate,2020-03-18T19:06:41-04:00*
G04 #@! TF.ProjectId,SRAM CY62128EV30LL-45ZXI,5352414d-2043-4593-9632-313238455633,rev?*
G04 #@! TF.SameCoordinates,Original*
G04 #@! TF.FileFunction,Copper,L2,Bot*
G04 #@! TF.FilePolarity,Positive*
%FSLAX46Y46*%
G04 Gerber Fmt 4.6, Leading zero omitted, Abs format (unit mm)*
G04 Created by KiCad (PCBNEW (5.1.5)-3) date 2020-03-18 19:06:41*
%MOMM*%
%LPD*%
G04 APERTURE LIST*
%ADD10O,1.700000X1.700000*%
%ADD11R,1.700000X1.700000*%
%ADD12C,0.254000*%
G04 APERTURE END LIST*
D10*
X130000000Y-83100000D03*
X130000000Y-80560000D03*
X130000000Y-78020000D03*
X130000000Y-75480000D03*
X130000000Y-72940000D03*
X130000000Y-70400000D03*
X130000000Y-67860000D03*
X130000000Y-65320000D03*
X130000000Y-62780000D03*
X130000000Y-60240000D03*
X130000000Y-57700000D03*
X130000000Y-55160000D03*
X130000000Y-52620000D03*
X130000000Y-50080000D03*
X130000000Y-47540000D03*
D11*
X130000000Y-45000000D03*
D10*
X95000000Y-45000000D03*
X95000000Y-47540000D03*
X95000000Y-50080000D03*
X95000000Y-52620000D03*
X95000000Y-55160000D03*
X95000000Y-57700000D03*
X95000000Y-60240000D03*
X95000000Y-62780000D03*
X95000000Y-65320000D03*
X95000000Y-67860000D03*
X95000000Y-70400000D03*
X95000000Y-72940000D03*
X95000000Y-75480000D03*
X95000000Y-78020000D03*
X95000000Y-80560000D03*
D11*
X95000000Y-83100000D03*
D12*
G36*
X133259659Y-40688625D02*
G01*
X133509429Y-40764035D01*
X133739792Y-40886522D01*
X133941980Y-41051422D01*
X134108286Y-41252450D01*
X134232378Y-41481954D01*
X134309531Y-41731195D01*
X134340000Y-42021088D01*
X134340001Y-87967711D01*
X134311375Y-88259660D01*
X134235965Y-88509429D01*
X134113477Y-88739794D01*
X133948579Y-88941979D01*
X133747546Y-89108288D01*
X133518046Y-89232378D01*
X133268805Y-89309531D01*
X132978911Y-89340000D01*
X92032279Y-89340000D01*
X91740340Y-89311375D01*
X91490571Y-89235965D01*
X91260206Y-89113477D01*
X91058021Y-88948579D01*
X90891712Y-88747546D01*
X90767622Y-88518046D01*
X90690469Y-88268805D01*
X90660000Y-87978911D01*
X90660000Y-82250000D01*
X93511928Y-82250000D01*
X93511928Y-83950000D01*
X93524188Y-84074482D01*
X93560498Y-84194180D01*
X93619463Y-84304494D01*
X93698815Y-84401185D01*
X93795506Y-84480537D01*
X93905820Y-84539502D01*
X94025518Y-84575812D01*
X94150000Y-84588072D01*
X95850000Y-84588072D01*
X95974482Y-84575812D01*
X96094180Y-84539502D01*
X96204494Y-84480537D01*
X96301185Y-84401185D01*
X96380537Y-84304494D01*
X96439502Y-84194180D01*
X96475812Y-84074482D01*
X96488072Y-83950000D01*
X96488072Y-82250000D01*
X96475812Y-82125518D01*
X96439502Y-82005820D01*
X96380537Y-81895506D01*
X96301185Y-81798815D01*
X96204494Y-81719463D01*
X96094180Y-81660498D01*
X96021620Y-81638487D01*
X96153475Y-81506632D01*
X96315990Y-81263411D01*
X96427932Y-80993158D01*
X96485000Y-80706260D01*
X96485000Y-80413740D01*
X96427932Y-80126842D01*
X96315990Y-79856589D01*
X96153475Y-79613368D01*
X95946632Y-79406525D01*
X95772240Y-79290000D01*
X95946632Y-79173475D01*
X96153475Y-78966632D01*
X96315990Y-78723411D01*
X96427932Y-78453158D01*
X96485000Y-78166260D01*
X96485000Y-77873740D01*
X96427932Y-77586842D01*
X96315990Y-77316589D01*
X96153475Y-77073368D01*
X95946632Y-76866525D01*
X95772240Y-76750000D01*
X95946632Y-76633475D01*
X96153475Y-76426632D01*
X96315990Y-76183411D01*
X96427932Y-75913158D01*
X96485000Y-75626260D01*
X96485000Y-75333740D01*
X96427932Y-75046842D01*
X96315990Y-74776589D01*
X96153475Y-74533368D01*
X95946632Y-74326525D01*
X95772240Y-74210000D01*
X95946632Y-74093475D01*
X96153475Y-73886632D01*
X96315990Y-73643411D01*
X96427932Y-73373158D01*
X96485000Y-73086260D01*
X96485000Y-72793740D01*
X96427932Y-72506842D01*
X96315990Y-72236589D01*
X96153475Y-71993368D01*
X95946632Y-71786525D01*
X95772240Y-71670000D01*
X95946632Y-71553475D01*
X96153475Y-71346632D01*
X96315990Y-71103411D01*
X96427932Y-70833158D01*
X96485000Y-70546260D01*
X96485000Y-70253740D01*
X96427932Y-69966842D01*
X96315990Y-69696589D01*
X96153475Y-69453368D01*
X95946632Y-69246525D01*
X95772240Y-69130000D01*
X95946632Y-69013475D01*
X96153475Y-68806632D01*
X96315990Y-68563411D01*
X96427932Y-68293158D01*
X96485000Y-68006260D01*
X96485000Y-67713740D01*
X128515000Y-67713740D01*
X128515000Y-68006260D01*
X128572068Y-68293158D01*
X128684010Y-68563411D01*
X128846525Y-68806632D01*
X129053368Y-69013475D01*
X129227760Y-69130000D01*
X129053368Y-69246525D01*
X128846525Y-69453368D01*
X128684010Y-69696589D01*
X128572068Y-69966842D01*
X128515000Y-70253740D01*
X128515000Y-70546260D01*
X128572068Y-70833158D01*
X128684010Y-71103411D01*
X128846525Y-71346632D01*
X129053368Y-71553475D01*
X129227760Y-71670000D01*
X129053368Y-71786525D01*
X128846525Y-71993368D01*
X128684010Y-72236589D01*
X128572068Y-72506842D01*
X128515000Y-72793740D01*
X128515000Y-73086260D01*
X128572068Y-73373158D01*
X128684010Y-73643411D01*
X128846525Y-73886632D01*
X129053368Y-74093475D01*
X129227760Y-74210000D01*
X129053368Y-74326525D01*
X128846525Y-74533368D01*
X128684010Y-74776589D01*
X128572068Y-75046842D01*
X128515000Y-75333740D01*
X128515000Y-75626260D01*
X128572068Y-75913158D01*
X128684010Y-76183411D01*
X128846525Y-76426632D01*
X129053368Y-76633475D01*
X129227760Y-76750000D01*
X129053368Y-76866525D01*
X128846525Y-77073368D01*
X128684010Y-77316589D01*
X128572068Y-77586842D01*
X128515000Y-77873740D01*
X128515000Y-78166260D01*
X128572068Y-78453158D01*
X128684010Y-78723411D01*
X128846525Y-78966632D01*
X129053368Y-79173475D01*
X129227760Y-79290000D01*
X129053368Y-79406525D01*
X128846525Y-79613368D01*
X128684010Y-79856589D01*
X128572068Y-80126842D01*
X128515000Y-80413740D01*
X128515000Y-80706260D01*
X128572068Y-80993158D01*
X128684010Y-81263411D01*
X128846525Y-81506632D01*
X129053368Y-81713475D01*
X129227760Y-81830000D01*
X129053368Y-81946525D01*
X128846525Y-82153368D01*
X128684010Y-82396589D01*
X128572068Y-82666842D01*
X128515000Y-82953740D01*
X128515000Y-83246260D01*
X128572068Y-83533158D01*
X128684010Y-83803411D01*
X128846525Y-84046632D01*
X129053368Y-84253475D01*
X129296589Y-84415990D01*
X129566842Y-84527932D01*
X129853740Y-84585000D01*
X130146260Y-84585000D01*
X130433158Y-84527932D01*
X130703411Y-84415990D01*
X130946632Y-84253475D01*
X131153475Y-84046632D01*
X131315990Y-83803411D01*
X131427932Y-83533158D01*
X131485000Y-83246260D01*
X131485000Y-82953740D01*
X131427932Y-82666842D01*
X131315990Y-82396589D01*
X131153475Y-82153368D01*
X130946632Y-81946525D01*
X130772240Y-81830000D01*
X130946632Y-81713475D01*
X131153475Y-81506632D01*
X131315990Y-81263411D01*
X131427932Y-80993158D01*
X131485000Y-80706260D01*
X131485000Y-80413740D01*
X131427932Y-80126842D01*
X131315990Y-79856589D01*
X131153475Y-79613368D01*
X130946632Y-79406525D01*
X130772240Y-79290000D01*
X130946632Y-79173475D01*
X131153475Y-78966632D01*
X131315990Y-78723411D01*
X131427932Y-78453158D01*
X131485000Y-78166260D01*
X131485000Y-77873740D01*
X131427932Y-77586842D01*
X131315990Y-77316589D01*
X131153475Y-77073368D01*
X130946632Y-76866525D01*
X130772240Y-76750000D01*
X130946632Y-76633475D01*
X131153475Y-76426632D01*
X131315990Y-76183411D01*
X131427932Y-75913158D01*
X131485000Y-75626260D01*
X131485000Y-75333740D01*
X131427932Y-75046842D01*
X131315990Y-74776589D01*
X131153475Y-74533368D01*
X130946632Y-74326525D01*
X130772240Y-74210000D01*
X130946632Y-74093475D01*
X131153475Y-73886632D01*
X131315990Y-73643411D01*
X131427932Y-73373158D01*
X131485000Y-73086260D01*
X131485000Y-72793740D01*
X131427932Y-72506842D01*
X131315990Y-72236589D01*
X131153475Y-71993368D01*
X130946632Y-71786525D01*
X130772240Y-71670000D01*
X130946632Y-71553475D01*
X131153475Y-71346632D01*
X131315990Y-71103411D01*
X131427932Y-70833158D01*
X131485000Y-70546260D01*
X131485000Y-70253740D01*
X131427932Y-69966842D01*
X131315990Y-69696589D01*
X131153475Y-69453368D01*
X130946632Y-69246525D01*
X130772240Y-69130000D01*
X130946632Y-69013475D01*
X131153475Y-68806632D01*
X131315990Y-68563411D01*
X131427932Y-68293158D01*
X131485000Y-68006260D01*
X131485000Y-67713740D01*
X131427932Y-67426842D01*
X131315990Y-67156589D01*
X131153475Y-66913368D01*
X130946632Y-66706525D01*
X130764466Y-66584805D01*
X130881355Y-66515178D01*
X131097588Y-66320269D01*
X131271641Y-66086920D01*
X131396825Y-65824099D01*
X131441476Y-65676890D01*
X131320155Y-65447000D01*
X130127000Y-65447000D01*
X130127000Y-65467000D01*
X129873000Y-65467000D01*
X129873000Y-65447000D01*
X128679845Y-65447000D01*
X128558524Y-65676890D01*
X128603175Y-65824099D01*
X128728359Y-66086920D01*
X128902412Y-66320269D01*
X129118645Y-66515178D01*
X129235534Y-66584805D01*
X129053368Y-66706525D01*
X128846525Y-66913368D01*
X128684010Y-67156589D01*
X128572068Y-67426842D01*
X128515000Y-67713740D01*
X96485000Y-67713740D01*
X96427932Y-67426842D01*
X96315990Y-67156589D01*
X96153475Y-66913368D01*
X95946632Y-66706525D01*
X95772240Y-66590000D01*
X95946632Y-66473475D01*
X96153475Y-66266632D01*
X96315990Y-66023411D01*
X96427932Y-65753158D01*
X96485000Y-65466260D01*
X96485000Y-65173740D01*
X96427932Y-64886842D01*
X96315990Y-64616589D01*
X96153475Y-64373368D01*
X95946632Y-64166525D01*
X95772240Y-64050000D01*
X95946632Y-63933475D01*
X96153475Y-63726632D01*
X96315990Y-63483411D01*
X96427932Y-63213158D01*
X96485000Y-62926260D01*
X96485000Y-62633740D01*
X96427932Y-62346842D01*
X96315990Y-62076589D01*
X96153475Y-61833368D01*
X95946632Y-61626525D01*
X95772240Y-61510000D01*
X95946632Y-61393475D01*
X96153475Y-61186632D01*
X96315990Y-60943411D01*
X96427932Y-60673158D01*
X96485000Y-60386260D01*
X96485000Y-60093740D01*
X96427932Y-59806842D01*
X96315990Y-59536589D01*
X96153475Y-59293368D01*
X95946632Y-59086525D01*
X95772240Y-58970000D01*
X95946632Y-58853475D01*
X96153475Y-58646632D01*
X96315990Y-58403411D01*
X96427932Y-58133158D01*
X96485000Y-57846260D01*
X96485000Y-57553740D01*
X96427932Y-57266842D01*
X96315990Y-56996589D01*
X96153475Y-56753368D01*
X95946632Y-56546525D01*
X95772240Y-56430000D01*
X95946632Y-56313475D01*
X96153475Y-56106632D01*
X96315990Y-55863411D01*
X96427932Y-55593158D01*
X96485000Y-55306260D01*
X96485000Y-55013740D01*
X96427932Y-54726842D01*
X96315990Y-54456589D01*
X96153475Y-54213368D01*
X95946632Y-54006525D01*
X95772240Y-53890000D01*
X95946632Y-53773475D01*
X96153475Y-53566632D01*
X96315990Y-53323411D01*
X96427932Y-53053158D01*
X96485000Y-52766260D01*
X96485000Y-52473740D01*
X96427932Y-52186842D01*
X96315990Y-51916589D01*
X96153475Y-51673368D01*
X95946632Y-51466525D01*
X95772240Y-51350000D01*
X95946632Y-51233475D01*
X96153475Y-51026632D01*
X96315990Y-50783411D01*
X96427932Y-50513158D01*
X96485000Y-50226260D01*
X96485000Y-49933740D01*
X96427932Y-49646842D01*
X96315990Y-49376589D01*
X96153475Y-49133368D01*
X95946632Y-48926525D01*
X95772240Y-48810000D01*
X95946632Y-48693475D01*
X96153475Y-48486632D01*
X96315990Y-48243411D01*
X96427932Y-47973158D01*
X96485000Y-47686260D01*
X96485000Y-47393740D01*
X96427932Y-47106842D01*
X96315990Y-46836589D01*
X96153475Y-46593368D01*
X95946632Y-46386525D01*
X95772240Y-46270000D01*
X95946632Y-46153475D01*
X96153475Y-45946632D01*
X96315990Y-45703411D01*
X96427932Y-45433158D01*
X96485000Y-45146260D01*
X96485000Y-44853740D01*
X96427932Y-44566842D01*
X96315990Y-44296589D01*
X96218043Y-44150000D01*
X128511928Y-44150000D01*
X128511928Y-45850000D01*
X128524188Y-45974482D01*
X128560498Y-46094180D01*
X128619463Y-46204494D01*
X128698815Y-46301185D01*
X128795506Y-46380537D01*
X128905820Y-46439502D01*
X128978380Y-46461513D01*
X128846525Y-46593368D01*
X128684010Y-46836589D01*
X128572068Y-47106842D01*
X128515000Y-47393740D01*
X128515000Y-47686260D01*
X128572068Y-47973158D01*
X128684010Y-48243411D01*
X128846525Y-48486632D01*
X129053368Y-48693475D01*
X129227760Y-48810000D01*
X129053368Y-48926525D01*
X128846525Y-49133368D01*
X128684010Y-49376589D01*
X128572068Y-49646842D01*
X128515000Y-49933740D01*
X128515000Y-50226260D01*
X128572068Y-50513158D01*
X128684010Y-50783411D01*
X128846525Y-51026632D01*
X129053368Y-51233475D01*
X129227760Y-51350000D01*
X129053368Y-51466525D01*
X128846525Y-51673368D01*
X128684010Y-51916589D01*
X128572068Y-52186842D01*
X128515000Y-52473740D01*
X128515000Y-52766260D01*
X128572068Y-53053158D01*
X128684010Y-53323411D01*
X128846525Y-53566632D01*
X129053368Y-53773475D01*
X129227760Y-53890000D01*
X129053368Y-54006525D01*
X128846525Y-54213368D01*
X128684010Y-54456589D01*
X128572068Y-54726842D01*
X128515000Y-55013740D01*
X128515000Y-55306260D01*
X128572068Y-55593158D01*
X128684010Y-55863411D01*
X128846525Y-56106632D01*
X129053368Y-56313475D01*
X129227760Y-56430000D01*
X129053368Y-56546525D01*
X128846525Y-56753368D01*
X128684010Y-56996589D01*
X128572068Y-57266842D01*
X128515000Y-57553740D01*
X128515000Y-57846260D01*
X128572068Y-58133158D01*
X128684010Y-58403411D01*
X128846525Y-58646632D01*
X129053368Y-58853475D01*
X129227760Y-58970000D01*
X129053368Y-59086525D01*
X128846525Y-59293368D01*
X128684010Y-59536589D01*
X128572068Y-59806842D01*
X128515000Y-60093740D01*
X128515000Y-60386260D01*
X128572068Y-60673158D01*
X128684010Y-60943411D01*
X128846525Y-61186632D01*
X129053368Y-61393475D01*
X129227760Y-61510000D01*
X129053368Y-61626525D01*
X128846525Y-61833368D01*
X128684010Y-62076589D01*
X128572068Y-62346842D01*
X128515000Y-62633740D01*
X128515000Y-62926260D01*
X128572068Y-63213158D01*
X128684010Y-63483411D01*
X128846525Y-63726632D01*
X129053368Y-63933475D01*
X129235534Y-64055195D01*
X129118645Y-64124822D01*
X128902412Y-64319731D01*
X128728359Y-64553080D01*
X128603175Y-64815901D01*
X128558524Y-64963110D01*
X128679845Y-65193000D01*
X129873000Y-65193000D01*
X129873000Y-65173000D01*
X130127000Y-65173000D01*
X130127000Y-65193000D01*
X131320155Y-65193000D01*
X131441476Y-64963110D01*
X131396825Y-64815901D01*
X131271641Y-64553080D01*
X131097588Y-64319731D01*
X130881355Y-64124822D01*
X130764466Y-64055195D01*
X130946632Y-63933475D01*
X131153475Y-63726632D01*
X131315990Y-63483411D01*
X131427932Y-63213158D01*
X131485000Y-62926260D01*
X131485000Y-62633740D01*
X131427932Y-62346842D01*
X131315990Y-62076589D01*
X131153475Y-61833368D01*
X130946632Y-61626525D01*
X130772240Y-61510000D01*
X130946632Y-61393475D01*
X131153475Y-61186632D01*
X131315990Y-60943411D01*
X131427932Y-60673158D01*
X131485000Y-60386260D01*
X131485000Y-60093740D01*
X131427932Y-59806842D01*
X131315990Y-59536589D01*
X131153475Y-59293368D01*
X130946632Y-59086525D01*
X130772240Y-58970000D01*
X130946632Y-58853475D01*
X131153475Y-58646632D01*
X131315990Y-58403411D01*
X131427932Y-58133158D01*
X131485000Y-57846260D01*
X131485000Y-57553740D01*
X131427932Y-57266842D01*
X131315990Y-56996589D01*
X131153475Y-56753368D01*
X130946632Y-56546525D01*
X130772240Y-56430000D01*
X130946632Y-56313475D01*
X131153475Y-56106632D01*
X131315990Y-55863411D01*
X131427932Y-55593158D01*
X131485000Y-55306260D01*
X131485000Y-55013740D01*
X131427932Y-54726842D01*
X131315990Y-54456589D01*
X131153475Y-54213368D01*
X130946632Y-54006525D01*
X130772240Y-53890000D01*
X130946632Y-53773475D01*
X131153475Y-53566632D01*
X131315990Y-53323411D01*
X131427932Y-53053158D01*
X131485000Y-52766260D01*
X131485000Y-52473740D01*
X131427932Y-52186842D01*
X131315990Y-51916589D01*
X131153475Y-51673368D01*
X130946632Y-51466525D01*
X130772240Y-51350000D01*
X130946632Y-51233475D01*
X131153475Y-51026632D01*
X131315990Y-50783411D01*
X131427932Y-50513158D01*
X131485000Y-50226260D01*
X131485000Y-49933740D01*
X131427932Y-49646842D01*
X131315990Y-49376589D01*
X131153475Y-49133368D01*
X130946632Y-48926525D01*
X130772240Y-48810000D01*
X130946632Y-48693475D01*
X131153475Y-48486632D01*
X131315990Y-48243411D01*
X131427932Y-47973158D01*
X131485000Y-47686260D01*
X131485000Y-47393740D01*
X131427932Y-47106842D01*
X131315990Y-46836589D01*
X131153475Y-46593368D01*
X131021620Y-46461513D01*
X131094180Y-46439502D01*
X131204494Y-46380537D01*
X131301185Y-46301185D01*
X131380537Y-46204494D01*
X131439502Y-46094180D01*
X131475812Y-45974482D01*
X131488072Y-45850000D01*
X131488072Y-44150000D01*
X131475812Y-44025518D01*
X131439502Y-43905820D01*
X131380537Y-43795506D01*
X131301185Y-43698815D01*
X131204494Y-43619463D01*
X131094180Y-43560498D01*
X130974482Y-43524188D01*
X130850000Y-43511928D01*
X129150000Y-43511928D01*
X129025518Y-43524188D01*
X128905820Y-43560498D01*
X128795506Y-43619463D01*
X128698815Y-43698815D01*
X128619463Y-43795506D01*
X128560498Y-43905820D01*
X128524188Y-44025518D01*
X128511928Y-44150000D01*
X96218043Y-44150000D01*
X96153475Y-44053368D01*
X95946632Y-43846525D01*
X95703411Y-43684010D01*
X95433158Y-43572068D01*
X95146260Y-43515000D01*
X94853740Y-43515000D01*
X94566842Y-43572068D01*
X94296589Y-43684010D01*
X94053368Y-43846525D01*
X93846525Y-44053368D01*
X93684010Y-44296589D01*
X93572068Y-44566842D01*
X93515000Y-44853740D01*
X93515000Y-45146260D01*
X93572068Y-45433158D01*
X93684010Y-45703411D01*
X93846525Y-45946632D01*
X94053368Y-46153475D01*
X94227760Y-46270000D01*
X94053368Y-46386525D01*
X93846525Y-46593368D01*
X93684010Y-46836589D01*
X93572068Y-47106842D01*
X93515000Y-47393740D01*
X93515000Y-47686260D01*
X93572068Y-47973158D01*
X93684010Y-48243411D01*
X93846525Y-48486632D01*
X94053368Y-48693475D01*
X94227760Y-48810000D01*
X94053368Y-48926525D01*
X93846525Y-49133368D01*
X93684010Y-49376589D01*
X93572068Y-49646842D01*
X93515000Y-49933740D01*
X93515000Y-50226260D01*
X93572068Y-50513158D01*
X93684010Y-50783411D01*
X93846525Y-51026632D01*
X94053368Y-51233475D01*
X94227760Y-51350000D01*
X94053368Y-51466525D01*
X93846525Y-51673368D01*
X93684010Y-51916589D01*
X93572068Y-52186842D01*
X93515000Y-52473740D01*
X93515000Y-52766260D01*
X93572068Y-53053158D01*
X93684010Y-53323411D01*
X93846525Y-53566632D01*
X94053368Y-53773475D01*
X94227760Y-53890000D01*
X94053368Y-54006525D01*
X93846525Y-54213368D01*
X93684010Y-54456589D01*
X93572068Y-54726842D01*
X93515000Y-55013740D01*
X93515000Y-55306260D01*
X93572068Y-55593158D01*
X93684010Y-55863411D01*
X93846525Y-56106632D01*
X94053368Y-56313475D01*
X94227760Y-56430000D01*
X94053368Y-56546525D01*
X93846525Y-56753368D01*
X93684010Y-56996589D01*
X93572068Y-57266842D01*
X93515000Y-57553740D01*
X93515000Y-57846260D01*
X93572068Y-58133158D01*
X93684010Y-58403411D01*
X93846525Y-58646632D01*
X94053368Y-58853475D01*
X94227760Y-58970000D01*
X94053368Y-59086525D01*
X93846525Y-59293368D01*
X93684010Y-59536589D01*
X93572068Y-59806842D01*
X93515000Y-60093740D01*
X93515000Y-60386260D01*
X93572068Y-60673158D01*
X93684010Y-60943411D01*
X93846525Y-61186632D01*
X94053368Y-61393475D01*
X94227760Y-61510000D01*
X94053368Y-61626525D01*
X93846525Y-61833368D01*
X93684010Y-62076589D01*
X93572068Y-62346842D01*
X93515000Y-62633740D01*
X93515000Y-62926260D01*
X93572068Y-63213158D01*
X93684010Y-63483411D01*
X93846525Y-63726632D01*
X94053368Y-63933475D01*
X94227760Y-64050000D01*
X94053368Y-64166525D01*
X93846525Y-64373368D01*
X93684010Y-64616589D01*
X93572068Y-64886842D01*
X93515000Y-65173740D01*
X93515000Y-65466260D01*
X93572068Y-65753158D01*
X93684010Y-66023411D01*
X93846525Y-66266632D01*
X94053368Y-66473475D01*
X94227760Y-66590000D01*
X94053368Y-66706525D01*
X93846525Y-66913368D01*
X93684010Y-67156589D01*
X93572068Y-67426842D01*
X93515000Y-67713740D01*
X93515000Y-68006260D01*
X93572068Y-68293158D01*
X93684010Y-68563411D01*
X93846525Y-68806632D01*
X94053368Y-69013475D01*
X94227760Y-69130000D01*
X94053368Y-69246525D01*
X93846525Y-69453368D01*
X93684010Y-69696589D01*
X93572068Y-69966842D01*
X93515000Y-70253740D01*
X93515000Y-70546260D01*
X93572068Y-70833158D01*
X93684010Y-71103411D01*
X93846525Y-71346632D01*
X94053368Y-71553475D01*
X94227760Y-71670000D01*
X94053368Y-71786525D01*
X93846525Y-71993368D01*
X93684010Y-72236589D01*
X93572068Y-72506842D01*
X93515000Y-72793740D01*
X93515000Y-73086260D01*
X93572068Y-73373158D01*
X93684010Y-73643411D01*
X93846525Y-73886632D01*
X94053368Y-74093475D01*
X94227760Y-74210000D01*
X94053368Y-74326525D01*
X93846525Y-74533368D01*
X93684010Y-74776589D01*
X93572068Y-75046842D01*
X93515000Y-75333740D01*
X93515000Y-75626260D01*
X93572068Y-75913158D01*
X93684010Y-76183411D01*
X93846525Y-76426632D01*
X94053368Y-76633475D01*
X94227760Y-76750000D01*
X94053368Y-76866525D01*
X93846525Y-77073368D01*
X93684010Y-77316589D01*
X93572068Y-77586842D01*
X93515000Y-77873740D01*
X93515000Y-78166260D01*
X93572068Y-78453158D01*
X93684010Y-78723411D01*
X93846525Y-78966632D01*
X94053368Y-79173475D01*
X94227760Y-79290000D01*
X94053368Y-79406525D01*
X93846525Y-79613368D01*
X93684010Y-79856589D01*
X93572068Y-80126842D01*
X93515000Y-80413740D01*
X93515000Y-80706260D01*
X93572068Y-80993158D01*
X93684010Y-81263411D01*
X93846525Y-81506632D01*
X93978380Y-81638487D01*
X93905820Y-81660498D01*
X93795506Y-81719463D01*
X93698815Y-81798815D01*
X93619463Y-81895506D01*
X93560498Y-82005820D01*
X93524188Y-82125518D01*
X93511928Y-82250000D01*
X90660000Y-82250000D01*
X90660000Y-42032279D01*
X90688625Y-41740341D01*
X90764035Y-41490571D01*
X90886522Y-41260208D01*
X91051422Y-41058020D01*
X91252450Y-40891714D01*
X91481954Y-40767622D01*
X91731195Y-40690469D01*
X92021088Y-40660000D01*
X132967721Y-40660000D01*
X133259659Y-40688625D01*
G37*
X133259659Y-40688625D02*
X133509429Y-40764035D01*
X133739792Y-40886522D01*
X133941980Y-41051422D01*
X134108286Y-41252450D01*
X134232378Y-41481954D01*
X134309531Y-41731195D01*
X134340000Y-42021088D01*
X134340001Y-87967711D01*
X134311375Y-88259660D01*
X134235965Y-88509429D01*
X134113477Y-88739794D01*
X133948579Y-88941979D01*
X133747546Y-89108288D01*
X133518046Y-89232378D01*
X133268805Y-89309531D01*
X132978911Y-89340000D01*
X92032279Y-89340000D01*
X91740340Y-89311375D01*
X91490571Y-89235965D01*
X91260206Y-89113477D01*
X91058021Y-88948579D01*
X90891712Y-88747546D01*
X90767622Y-88518046D01*
X90690469Y-88268805D01*
X90660000Y-87978911D01*
X90660000Y-82250000D01*
X93511928Y-82250000D01*
X93511928Y-83950000D01*
X93524188Y-84074482D01*
X93560498Y-84194180D01*
X93619463Y-84304494D01*
X93698815Y-84401185D01*
X93795506Y-84480537D01*
X93905820Y-84539502D01*
X94025518Y-84575812D01*
X94150000Y-84588072D01*
X95850000Y-84588072D01*
X95974482Y-84575812D01*
X96094180Y-84539502D01*
X96204494Y-84480537D01*
X96301185Y-84401185D01*
X96380537Y-84304494D01*
X96439502Y-84194180D01*
X96475812Y-84074482D01*
X96488072Y-83950000D01*
X96488072Y-82250000D01*
X96475812Y-82125518D01*
X96439502Y-82005820D01*
X96380537Y-81895506D01*
X96301185Y-81798815D01*
X96204494Y-81719463D01*
X96094180Y-81660498D01*
X96021620Y-81638487D01*
X96153475Y-81506632D01*
X96315990Y-81263411D01*
X96427932Y-80993158D01*
X96485000Y-80706260D01*
X96485000Y-80413740D01*
X96427932Y-80126842D01*
X96315990Y-79856589D01*
X96153475Y-79613368D01*
X95946632Y-79406525D01*
X95772240Y-79290000D01*
X95946632Y-79173475D01*
X96153475Y-78966632D01*
X96315990Y-78723411D01*
X96427932Y-78453158D01*
X96485000Y-78166260D01*
X96485000Y-77873740D01*
X96427932Y-77586842D01*
X96315990Y-77316589D01*
X96153475Y-77073368D01*
X95946632Y-76866525D01*
X95772240Y-76750000D01*
X95946632Y-76633475D01*
X96153475Y-76426632D01*
X96315990Y-76183411D01*
X96427932Y-75913158D01*
X96485000Y-75626260D01*
X96485000Y-75333740D01*
X96427932Y-75046842D01*
X96315990Y-74776589D01*
X96153475Y-74533368D01*
X95946632Y-74326525D01*
X95772240Y-74210000D01*
X95946632Y-74093475D01*
X96153475Y-73886632D01*
X96315990Y-73643411D01*
X96427932Y-73373158D01*
X96485000Y-73086260D01*
X96485000Y-72793740D01*
X96427932Y-72506842D01*
X96315990Y-72236589D01*
X96153475Y-71993368D01*
X95946632Y-71786525D01*
X95772240Y-71670000D01*
X95946632Y-71553475D01*
X96153475Y-71346632D01*
X96315990Y-71103411D01*
X96427932Y-70833158D01*
X96485000Y-70546260D01*
X96485000Y-70253740D01*
X96427932Y-69966842D01*
X96315990Y-69696589D01*
X96153475Y-69453368D01*
X95946632Y-69246525D01*
X95772240Y-69130000D01*
X95946632Y-69013475D01*
X96153475Y-68806632D01*
X96315990Y-68563411D01*
X96427932Y-68293158D01*
X96485000Y-68006260D01*
X96485000Y-67713740D01*
X128515000Y-67713740D01*
X128515000Y-68006260D01*
X128572068Y-68293158D01*
X128684010Y-68563411D01*
X128846525Y-68806632D01*
X129053368Y-69013475D01*
X129227760Y-69130000D01*
X129053368Y-69246525D01*
X128846525Y-69453368D01*
X128684010Y-69696589D01*
X128572068Y-69966842D01*
X128515000Y-70253740D01*
X128515000Y-70546260D01*
X128572068Y-70833158D01*
X128684010Y-71103411D01*
X128846525Y-71346632D01*
X129053368Y-71553475D01*
X129227760Y-71670000D01*
X129053368Y-71786525D01*
X128846525Y-71993368D01*
X128684010Y-72236589D01*
X128572068Y-72506842D01*
X128515000Y-72793740D01*
X128515000Y-73086260D01*
X128572068Y-73373158D01*
X128684010Y-73643411D01*
X128846525Y-73886632D01*
X129053368Y-74093475D01*
X129227760Y-74210000D01*
X129053368Y-74326525D01*
X128846525Y-74533368D01*
X128684010Y-74776589D01*
X128572068Y-75046842D01*
X128515000Y-75333740D01*
X128515000Y-75626260D01*
X128572068Y-75913158D01*
X128684010Y-76183411D01*
X128846525Y-76426632D01*
X129053368Y-76633475D01*
X129227760Y-76750000D01*
X129053368Y-76866525D01*
X128846525Y-77073368D01*
X128684010Y-77316589D01*
X128572068Y-77586842D01*
X128515000Y-77873740D01*
X128515000Y-78166260D01*
X128572068Y-78453158D01*
X128684010Y-78723411D01*
X128846525Y-78966632D01*
X129053368Y-79173475D01*
X129227760Y-79290000D01*
X129053368Y-79406525D01*
X128846525Y-79613368D01*
X128684010Y-79856589D01*
X128572068Y-80126842D01*
X128515000Y-80413740D01*
X128515000Y-80706260D01*
X128572068Y-80993158D01*
X128684010Y-81263411D01*
X128846525Y-81506632D01*
X129053368Y-81713475D01*
X129227760Y-81830000D01*
X129053368Y-81946525D01*
X128846525Y-82153368D01*
X128684010Y-82396589D01*
X128572068Y-82666842D01*
X128515000Y-82953740D01*
X128515000Y-83246260D01*
X128572068Y-83533158D01*
X128684010Y-83803411D01*
X128846525Y-84046632D01*
X129053368Y-84253475D01*
X129296589Y-84415990D01*
X129566842Y-84527932D01*
X129853740Y-84585000D01*
X130146260Y-84585000D01*
X130433158Y-84527932D01*
X130703411Y-84415990D01*
X130946632Y-84253475D01*
X131153475Y-84046632D01*
X131315990Y-83803411D01*
X131427932Y-83533158D01*
X131485000Y-83246260D01*
X131485000Y-82953740D01*
X131427932Y-82666842D01*
X131315990Y-82396589D01*
X131153475Y-82153368D01*
X130946632Y-81946525D01*
X130772240Y-81830000D01*
X130946632Y-81713475D01*
X131153475Y-81506632D01*
X131315990Y-81263411D01*
X131427932Y-80993158D01*
X131485000Y-80706260D01*
X131485000Y-80413740D01*
X131427932Y-80126842D01*
X131315990Y-79856589D01*
X131153475Y-79613368D01*
X130946632Y-79406525D01*
X130772240Y-79290000D01*
X130946632Y-79173475D01*
X131153475Y-78966632D01*
X131315990Y-78723411D01*
X131427932Y-78453158D01*
X131485000Y-78166260D01*
X131485000Y-77873740D01*
X131427932Y-77586842D01*
X131315990Y-77316589D01*
X131153475Y-77073368D01*
X130946632Y-76866525D01*
X130772240Y-76750000D01*
X130946632Y-76633475D01*
X131153475Y-76426632D01*
X131315990Y-76183411D01*
X131427932Y-75913158D01*
X131485000Y-75626260D01*
X131485000Y-75333740D01*
X131427932Y-75046842D01*
X131315990Y-74776589D01*
X131153475Y-74533368D01*
X130946632Y-74326525D01*
X130772240Y-74210000D01*
X130946632Y-74093475D01*
X131153475Y-73886632D01*
X131315990Y-73643411D01*
X131427932Y-73373158D01*
X131485000Y-73086260D01*
X131485000Y-72793740D01*
X131427932Y-72506842D01*
X131315990Y-72236589D01*
X131153475Y-71993368D01*
X130946632Y-71786525D01*
X130772240Y-71670000D01*
X130946632Y-71553475D01*
X131153475Y-71346632D01*
X131315990Y-71103411D01*
X131427932Y-70833158D01*
X131485000Y-70546260D01*
X131485000Y-70253740D01*
X131427932Y-69966842D01*
X131315990Y-69696589D01*
X131153475Y-69453368D01*
X130946632Y-69246525D01*
X130772240Y-69130000D01*
X130946632Y-69013475D01*
X131153475Y-68806632D01*
X131315990Y-68563411D01*
X131427932Y-68293158D01*
X131485000Y-68006260D01*
X131485000Y-67713740D01*
X131427932Y-67426842D01*
X131315990Y-67156589D01*
X131153475Y-66913368D01*
X130946632Y-66706525D01*
X130764466Y-66584805D01*
X130881355Y-66515178D01*
X131097588Y-66320269D01*
X131271641Y-66086920D01*
X131396825Y-65824099D01*
X131441476Y-65676890D01*
X131320155Y-65447000D01*
X130127000Y-65447000D01*
X130127000Y-65467000D01*
X129873000Y-65467000D01*
X129873000Y-65447000D01*
X128679845Y-65447000D01*
X128558524Y-65676890D01*
X128603175Y-65824099D01*
X128728359Y-66086920D01*
X128902412Y-66320269D01*
X129118645Y-66515178D01*
X129235534Y-66584805D01*
X129053368Y-66706525D01*
X128846525Y-66913368D01*
X128684010Y-67156589D01*
X128572068Y-67426842D01*
X128515000Y-67713740D01*
X96485000Y-67713740D01*
X96427932Y-67426842D01*
X96315990Y-67156589D01*
X96153475Y-66913368D01*
X95946632Y-66706525D01*
X95772240Y-66590000D01*
X95946632Y-66473475D01*
X96153475Y-66266632D01*
X96315990Y-66023411D01*
X96427932Y-65753158D01*
X96485000Y-65466260D01*
X96485000Y-65173740D01*
X96427932Y-64886842D01*
X96315990Y-64616589D01*
X96153475Y-64373368D01*
X95946632Y-64166525D01*
X95772240Y-64050000D01*
X95946632Y-63933475D01*
X96153475Y-63726632D01*
X96315990Y-63483411D01*
X96427932Y-63213158D01*
X96485000Y-62926260D01*
X96485000Y-62633740D01*
X96427932Y-62346842D01*
X96315990Y-62076589D01*
X96153475Y-61833368D01*
X95946632Y-61626525D01*
X95772240Y-61510000D01*
X95946632Y-61393475D01*
X96153475Y-61186632D01*
X96315990Y-60943411D01*
X96427932Y-60673158D01*
X96485000Y-60386260D01*
X96485000Y-60093740D01*
X96427932Y-59806842D01*
X96315990Y-59536589D01*
X96153475Y-59293368D01*
X95946632Y-59086525D01*
X95772240Y-58970000D01*
X95946632Y-58853475D01*
X96153475Y-58646632D01*
X96315990Y-58403411D01*
X96427932Y-58133158D01*
X96485000Y-57846260D01*
X96485000Y-57553740D01*
X96427932Y-57266842D01*
X96315990Y-56996589D01*
X96153475Y-56753368D01*
X95946632Y-56546525D01*
X95772240Y-56430000D01*
X95946632Y-56313475D01*
X96153475Y-56106632D01*
X96315990Y-55863411D01*
X96427932Y-55593158D01*
X96485000Y-55306260D01*
X96485000Y-55013740D01*
X96427932Y-54726842D01*
X96315990Y-54456589D01*
X96153475Y-54213368D01*
X95946632Y-54006525D01*
X95772240Y-53890000D01*
X95946632Y-53773475D01*
X96153475Y-53566632D01*
X96315990Y-53323411D01*
X96427932Y-53053158D01*
X96485000Y-52766260D01*
X96485000Y-52473740D01*
X96427932Y-52186842D01*
X96315990Y-51916589D01*
X96153475Y-51673368D01*
X95946632Y-51466525D01*
X95772240Y-51350000D01*
X95946632Y-51233475D01*
X96153475Y-51026632D01*
X96315990Y-50783411D01*
X96427932Y-50513158D01*
X96485000Y-50226260D01*
X96485000Y-49933740D01*
X96427932Y-49646842D01*
X96315990Y-49376589D01*
X96153475Y-49133368D01*
X95946632Y-48926525D01*
X95772240Y-48810000D01*
X95946632Y-48693475D01*
X96153475Y-48486632D01*
X96315990Y-48243411D01*
X96427932Y-47973158D01*
X96485000Y-47686260D01*
X96485000Y-47393740D01*
X96427932Y-47106842D01*
X96315990Y-46836589D01*
X96153475Y-46593368D01*
X95946632Y-46386525D01*
X95772240Y-46270000D01*
X95946632Y-46153475D01*
X96153475Y-45946632D01*
X96315990Y-45703411D01*
X96427932Y-45433158D01*
X96485000Y-45146260D01*
X96485000Y-44853740D01*
X96427932Y-44566842D01*
X96315990Y-44296589D01*
X96218043Y-44150000D01*
X128511928Y-44150000D01*
X128511928Y-45850000D01*
X128524188Y-45974482D01*
X128560498Y-46094180D01*
X128619463Y-46204494D01*
X128698815Y-46301185D01*
X128795506Y-46380537D01*
X128905820Y-46439502D01*
X128978380Y-46461513D01*
X128846525Y-46593368D01*
X128684010Y-46836589D01*
X128572068Y-47106842D01*
X128515000Y-47393740D01*
X128515000Y-47686260D01*
X128572068Y-47973158D01*
X128684010Y-48243411D01*
X128846525Y-48486632D01*
X129053368Y-48693475D01*
X129227760Y-48810000D01*
X129053368Y-48926525D01*
X128846525Y-49133368D01*
X128684010Y-49376589D01*
X128572068Y-49646842D01*
X128515000Y-49933740D01*
X128515000Y-50226260D01*
X128572068Y-50513158D01*
X128684010Y-50783411D01*
X128846525Y-51026632D01*
X129053368Y-51233475D01*
X129227760Y-51350000D01*
X129053368Y-51466525D01*
X128846525Y-51673368D01*
X128684010Y-51916589D01*
X128572068Y-52186842D01*
X128515000Y-52473740D01*
X128515000Y-52766260D01*
X128572068Y-53053158D01*
X128684010Y-53323411D01*
X128846525Y-53566632D01*
X129053368Y-53773475D01*
X129227760Y-53890000D01*
X129053368Y-54006525D01*
X128846525Y-54213368D01*
X128684010Y-54456589D01*
X128572068Y-54726842D01*
X128515000Y-55013740D01*
X128515000Y-55306260D01*
X128572068Y-55593158D01*
X128684010Y-55863411D01*
X128846525Y-56106632D01*
X129053368Y-56313475D01*
X129227760Y-56430000D01*
X129053368Y-56546525D01*
X128846525Y-56753368D01*
X128684010Y-56996589D01*
X128572068Y-57266842D01*
X128515000Y-57553740D01*
X128515000Y-57846260D01*
X128572068Y-58133158D01*
X128684010Y-58403411D01*
X128846525Y-58646632D01*
X129053368Y-58853475D01*
X129227760Y-58970000D01*
X129053368Y-59086525D01*
X128846525Y-59293368D01*
X128684010Y-59536589D01*
X128572068Y-59806842D01*
X128515000Y-60093740D01*
X128515000Y-60386260D01*
X128572068Y-60673158D01*
X128684010Y-60943411D01*
X128846525Y-61186632D01*
X129053368Y-61393475D01*
X129227760Y-61510000D01*
X129053368Y-61626525D01*
X128846525Y-61833368D01*
X128684010Y-62076589D01*
X128572068Y-62346842D01*
X128515000Y-62633740D01*
X128515000Y-62926260D01*
X128572068Y-63213158D01*
X128684010Y-63483411D01*
X128846525Y-63726632D01*
X129053368Y-63933475D01*
X129235534Y-64055195D01*
X129118645Y-64124822D01*
X128902412Y-64319731D01*
X128728359Y-64553080D01*
X128603175Y-64815901D01*
X128558524Y-64963110D01*
X128679845Y-65193000D01*
X129873000Y-65193000D01*
X129873000Y-65173000D01*
X130127000Y-65173000D01*
X130127000Y-65193000D01*
X131320155Y-65193000D01*
X131441476Y-64963110D01*
X131396825Y-64815901D01*
X131271641Y-64553080D01*
X131097588Y-64319731D01*
X130881355Y-64124822D01*
X130764466Y-64055195D01*
X130946632Y-63933475D01*
X131153475Y-63726632D01*
X131315990Y-63483411D01*
X131427932Y-63213158D01*
X131485000Y-62926260D01*
X131485000Y-62633740D01*
X131427932Y-62346842D01*
X131315990Y-62076589D01*
X131153475Y-61833368D01*
X130946632Y-61626525D01*
X130772240Y-61510000D01*
X130946632Y-61393475D01*
X131153475Y-61186632D01*
X131315990Y-60943411D01*
X131427932Y-60673158D01*
X131485000Y-60386260D01*
X131485000Y-60093740D01*
X131427932Y-59806842D01*
X131315990Y-59536589D01*
X131153475Y-59293368D01*
X130946632Y-59086525D01*
X130772240Y-58970000D01*
X130946632Y-58853475D01*
X131153475Y-58646632D01*
X131315990Y-58403411D01*
X131427932Y-58133158D01*
X131485000Y-57846260D01*
X131485000Y-57553740D01*
X131427932Y-57266842D01*
X131315990Y-56996589D01*
X131153475Y-56753368D01*
X130946632Y-56546525D01*
X130772240Y-56430000D01*
X130946632Y-56313475D01*
X131153475Y-56106632D01*
X131315990Y-55863411D01*
X131427932Y-55593158D01*
X131485000Y-55306260D01*
X131485000Y-55013740D01*
X131427932Y-54726842D01*
X131315990Y-54456589D01*
X131153475Y-54213368D01*
X130946632Y-54006525D01*
X130772240Y-53890000D01*
X130946632Y-53773475D01*
X131153475Y-53566632D01*
X131315990Y-53323411D01*
X131427932Y-53053158D01*
X131485000Y-52766260D01*
X131485000Y-52473740D01*
X131427932Y-52186842D01*
X131315990Y-51916589D01*
X131153475Y-51673368D01*
X130946632Y-51466525D01*
X130772240Y-51350000D01*
X130946632Y-51233475D01*
X131153475Y-51026632D01*
X131315990Y-50783411D01*
X131427932Y-50513158D01*
X131485000Y-50226260D01*
X131485000Y-49933740D01*
X131427932Y-49646842D01*
X131315990Y-49376589D01*
X131153475Y-49133368D01*
X130946632Y-48926525D01*
X130772240Y-48810000D01*
X130946632Y-48693475D01*
X131153475Y-48486632D01*
X131315990Y-48243411D01*
X131427932Y-47973158D01*
X131485000Y-47686260D01*
X131485000Y-47393740D01*
X131427932Y-47106842D01*
X131315990Y-46836589D01*
X131153475Y-46593368D01*
X131021620Y-46461513D01*
X131094180Y-46439502D01*
X131204494Y-46380537D01*
X131301185Y-46301185D01*
X131380537Y-46204494D01*
X131439502Y-46094180D01*
X131475812Y-45974482D01*
X131488072Y-45850000D01*
X131488072Y-44150000D01*
X131475812Y-44025518D01*
X131439502Y-43905820D01*
X131380537Y-43795506D01*
X131301185Y-43698815D01*
X131204494Y-43619463D01*
X131094180Y-43560498D01*
X130974482Y-43524188D01*
X130850000Y-43511928D01*
X129150000Y-43511928D01*
X129025518Y-43524188D01*
X128905820Y-43560498D01*
X128795506Y-43619463D01*
X128698815Y-43698815D01*
X128619463Y-43795506D01*
X128560498Y-43905820D01*
X128524188Y-44025518D01*
X128511928Y-44150000D01*
X96218043Y-44150000D01*
X96153475Y-44053368D01*
X95946632Y-43846525D01*
X95703411Y-43684010D01*
X95433158Y-43572068D01*
X95146260Y-43515000D01*
X94853740Y-43515000D01*
X94566842Y-43572068D01*
X94296589Y-43684010D01*
X94053368Y-43846525D01*
X93846525Y-44053368D01*
X93684010Y-44296589D01*
X93572068Y-44566842D01*
X93515000Y-44853740D01*
X93515000Y-45146260D01*
X93572068Y-45433158D01*
X93684010Y-45703411D01*
X93846525Y-45946632D01*
X94053368Y-46153475D01*
X94227760Y-46270000D01*
X94053368Y-46386525D01*
X93846525Y-46593368D01*
X93684010Y-46836589D01*
X93572068Y-47106842D01*
X93515000Y-47393740D01*
X93515000Y-47686260D01*
X93572068Y-47973158D01*
X93684010Y-48243411D01*
X93846525Y-48486632D01*
X94053368Y-48693475D01*
X94227760Y-48810000D01*
X94053368Y-48926525D01*
X93846525Y-49133368D01*
X93684010Y-49376589D01*
X93572068Y-49646842D01*
X93515000Y-49933740D01*
X93515000Y-50226260D01*
X93572068Y-50513158D01*
X93684010Y-50783411D01*
X93846525Y-51026632D01*
X94053368Y-51233475D01*
X94227760Y-51350000D01*
X94053368Y-51466525D01*
X93846525Y-51673368D01*
X93684010Y-51916589D01*
X93572068Y-52186842D01*
X93515000Y-52473740D01*
X93515000Y-52766260D01*
X93572068Y-53053158D01*
X93684010Y-53323411D01*
X93846525Y-53566632D01*
X94053368Y-53773475D01*
X94227760Y-53890000D01*
X94053368Y-54006525D01*
X93846525Y-54213368D01*
X93684010Y-54456589D01*
X93572068Y-54726842D01*
X93515000Y-55013740D01*
X93515000Y-55306260D01*
X93572068Y-55593158D01*
X93684010Y-55863411D01*
X93846525Y-56106632D01*
X94053368Y-56313475D01*
X94227760Y-56430000D01*
X94053368Y-56546525D01*
X93846525Y-56753368D01*
X93684010Y-56996589D01*
X93572068Y-57266842D01*
X93515000Y-57553740D01*
X93515000Y-57846260D01*
X93572068Y-58133158D01*
X93684010Y-58403411D01*
X93846525Y-58646632D01*
X94053368Y-58853475D01*
X94227760Y-58970000D01*
X94053368Y-59086525D01*
X93846525Y-59293368D01*
X93684010Y-59536589D01*
X93572068Y-59806842D01*
X93515000Y-60093740D01*
X93515000Y-60386260D01*
X93572068Y-60673158D01*
X93684010Y-60943411D01*
X93846525Y-61186632D01*
X94053368Y-61393475D01*
X94227760Y-61510000D01*
X94053368Y-61626525D01*
X93846525Y-61833368D01*
X93684010Y-62076589D01*
X93572068Y-62346842D01*
X93515000Y-62633740D01*
X93515000Y-62926260D01*
X93572068Y-63213158D01*
X93684010Y-63483411D01*
X93846525Y-63726632D01*
X94053368Y-63933475D01*
X94227760Y-64050000D01*
X94053368Y-64166525D01*
X93846525Y-64373368D01*
X93684010Y-64616589D01*
X93572068Y-64886842D01*
X93515000Y-65173740D01*
X93515000Y-65466260D01*
X93572068Y-65753158D01*
X93684010Y-66023411D01*
X93846525Y-66266632D01*
X94053368Y-66473475D01*
X94227760Y-66590000D01*
X94053368Y-66706525D01*
X93846525Y-66913368D01*
X93684010Y-67156589D01*
X93572068Y-67426842D01*
X93515000Y-67713740D01*
X93515000Y-68006260D01*
X93572068Y-68293158D01*
X93684010Y-68563411D01*
X93846525Y-68806632D01*
X94053368Y-69013475D01*
X94227760Y-69130000D01*
X94053368Y-69246525D01*
X93846525Y-69453368D01*
X93684010Y-69696589D01*
X93572068Y-69966842D01*
X93515000Y-70253740D01*
X93515000Y-70546260D01*
X93572068Y-70833158D01*
X93684010Y-71103411D01*
X93846525Y-71346632D01*
X94053368Y-71553475D01*
X94227760Y-71670000D01*
X94053368Y-71786525D01*
X93846525Y-71993368D01*
X93684010Y-72236589D01*
X93572068Y-72506842D01*
X93515000Y-72793740D01*
X93515000Y-73086260D01*
X93572068Y-73373158D01*
X93684010Y-73643411D01*
X93846525Y-73886632D01*
X94053368Y-74093475D01*
X94227760Y-74210000D01*
X94053368Y-74326525D01*
X93846525Y-74533368D01*
X93684010Y-74776589D01*
X93572068Y-75046842D01*
X93515000Y-75333740D01*
X93515000Y-75626260D01*
X93572068Y-75913158D01*
X93684010Y-76183411D01*
X93846525Y-76426632D01*
X94053368Y-76633475D01*
X94227760Y-76750000D01*
X94053368Y-76866525D01*
X93846525Y-77073368D01*
X93684010Y-77316589D01*
X93572068Y-77586842D01*
X93515000Y-77873740D01*
X93515000Y-78166260D01*
X93572068Y-78453158D01*
X93684010Y-78723411D01*
X93846525Y-78966632D01*
X94053368Y-79173475D01*
X94227760Y-79290000D01*
X94053368Y-79406525D01*
X93846525Y-79613368D01*
X93684010Y-79856589D01*
X93572068Y-80126842D01*
X93515000Y-80413740D01*
X93515000Y-80706260D01*
X93572068Y-80993158D01*
X93684010Y-81263411D01*
X93846525Y-81506632D01*
X93978380Y-81638487D01*
X93905820Y-81660498D01*
X93795506Y-81719463D01*
X93698815Y-81798815D01*
X93619463Y-81895506D01*
X93560498Y-82005820D01*
X93524188Y-82125518D01*
X93511928Y-82250000D01*
X90660000Y-82250000D01*
X90660000Y-42032279D01*
X90688625Y-41740341D01*
X90764035Y-41490571D01*
X90886522Y-41260208D01*
X91051422Y-41058020D01*
X91252450Y-40891714D01*
X91481954Y-40767622D01*
X91731195Y-40690469D01*
X92021088Y-40660000D01*
X132967721Y-40660000D01*
X133259659Y-40688625D01*
M02*
