G04 #@! TF.GenerationSoftware,KiCad,Pcbnew,(5.1.5)-3*
G04 #@! TF.CreationDate,2020-03-18T19:06:41-04:00*
G04 #@! TF.ProjectId,SRAM CY62128EV30LL-45ZXI,5352414d-2043-4593-9632-313238455633,rev?*
G04 #@! TF.SameCoordinates,Original*
G04 #@! TF.FileFunction,Legend,Top*
G04 #@! TF.FilePolarity,Positive*
%FSLAX46Y46*%
G04 Gerber Fmt 4.6, Leading zero omitted, Abs format (unit mm)*
G04 Created by KiCad (PCBNEW (5.1.5)-3) date 2020-03-18 19:06:41*
%MOMM*%
%LPD*%
G04 APERTURE LIST*
%ADD10C,0.150000*%
%ADD11C,0.100000*%
%ADD12C,0.120000*%
%ADD13C,0.010000*%
G04 APERTURE END LIST*
D10*
X104095238Y-51757142D02*
X104047619Y-51804761D01*
X103904761Y-51852380D01*
X103809523Y-51852380D01*
X103666666Y-51804761D01*
X103571428Y-51709523D01*
X103523809Y-51614285D01*
X103476190Y-51423809D01*
X103476190Y-51280952D01*
X103523809Y-51090476D01*
X103571428Y-50995238D01*
X103666666Y-50900000D01*
X103809523Y-50852380D01*
X103904761Y-50852380D01*
X104047619Y-50900000D01*
X104095238Y-50947619D01*
X104714285Y-51376190D02*
X104714285Y-51852380D01*
X104380952Y-50852380D02*
X104714285Y-51376190D01*
X105047619Y-50852380D01*
X105809523Y-50852380D02*
X105619047Y-50852380D01*
X105523809Y-50900000D01*
X105476190Y-50947619D01*
X105380952Y-51090476D01*
X105333333Y-51280952D01*
X105333333Y-51661904D01*
X105380952Y-51757142D01*
X105428571Y-51804761D01*
X105523809Y-51852380D01*
X105714285Y-51852380D01*
X105809523Y-51804761D01*
X105857142Y-51757142D01*
X105904761Y-51661904D01*
X105904761Y-51423809D01*
X105857142Y-51328571D01*
X105809523Y-51280952D01*
X105714285Y-51233333D01*
X105523809Y-51233333D01*
X105428571Y-51280952D01*
X105380952Y-51328571D01*
X105333333Y-51423809D01*
X106285714Y-50947619D02*
X106333333Y-50900000D01*
X106428571Y-50852380D01*
X106666666Y-50852380D01*
X106761904Y-50900000D01*
X106809523Y-50947619D01*
X106857142Y-51042857D01*
X106857142Y-51138095D01*
X106809523Y-51280952D01*
X106238095Y-51852380D01*
X106857142Y-51852380D01*
X107809523Y-51852380D02*
X107238095Y-51852380D01*
X107523809Y-51852380D02*
X107523809Y-50852380D01*
X107428571Y-50995238D01*
X107333333Y-51090476D01*
X107238095Y-51138095D01*
X108190476Y-50947619D02*
X108238095Y-50900000D01*
X108333333Y-50852380D01*
X108571428Y-50852380D01*
X108666666Y-50900000D01*
X108714285Y-50947619D01*
X108761904Y-51042857D01*
X108761904Y-51138095D01*
X108714285Y-51280952D01*
X108142857Y-51852380D01*
X108761904Y-51852380D01*
X109333333Y-51280952D02*
X109238095Y-51233333D01*
X109190476Y-51185714D01*
X109142857Y-51090476D01*
X109142857Y-51042857D01*
X109190476Y-50947619D01*
X109238095Y-50900000D01*
X109333333Y-50852380D01*
X109523809Y-50852380D01*
X109619047Y-50900000D01*
X109666666Y-50947619D01*
X109714285Y-51042857D01*
X109714285Y-51090476D01*
X109666666Y-51185714D01*
X109619047Y-51233333D01*
X109523809Y-51280952D01*
X109333333Y-51280952D01*
X109238095Y-51328571D01*
X109190476Y-51376190D01*
X109142857Y-51471428D01*
X109142857Y-51661904D01*
X109190476Y-51757142D01*
X109238095Y-51804761D01*
X109333333Y-51852380D01*
X109523809Y-51852380D01*
X109619047Y-51804761D01*
X109666666Y-51757142D01*
X109714285Y-51661904D01*
X109714285Y-51471428D01*
X109666666Y-51376190D01*
X109619047Y-51328571D01*
X109523809Y-51280952D01*
X110142857Y-51328571D02*
X110476190Y-51328571D01*
X110619047Y-51852380D02*
X110142857Y-51852380D01*
X110142857Y-50852380D01*
X110619047Y-50852380D01*
X110904761Y-50852380D02*
X111238095Y-51852380D01*
X111571428Y-50852380D01*
X111809523Y-50852380D02*
X112428571Y-50852380D01*
X112095238Y-51233333D01*
X112238095Y-51233333D01*
X112333333Y-51280952D01*
X112380952Y-51328571D01*
X112428571Y-51423809D01*
X112428571Y-51661904D01*
X112380952Y-51757142D01*
X112333333Y-51804761D01*
X112238095Y-51852380D01*
X111952380Y-51852380D01*
X111857142Y-51804761D01*
X111809523Y-51757142D01*
X113047619Y-50852380D02*
X113142857Y-50852380D01*
X113238095Y-50900000D01*
X113285714Y-50947619D01*
X113333333Y-51042857D01*
X113380952Y-51233333D01*
X113380952Y-51471428D01*
X113333333Y-51661904D01*
X113285714Y-51757142D01*
X113238095Y-51804761D01*
X113142857Y-51852380D01*
X113047619Y-51852380D01*
X112952380Y-51804761D01*
X112904761Y-51757142D01*
X112857142Y-51661904D01*
X112809523Y-51471428D01*
X112809523Y-51233333D01*
X112857142Y-51042857D01*
X112904761Y-50947619D01*
X112952380Y-50900000D01*
X113047619Y-50852380D01*
X114285714Y-51852380D02*
X113809523Y-51852380D01*
X113809523Y-50852380D01*
X115095238Y-51852380D02*
X114619047Y-51852380D01*
X114619047Y-50852380D01*
X115428571Y-51471428D02*
X116190476Y-51471428D01*
X117095238Y-51185714D02*
X117095238Y-51852380D01*
X116857142Y-50804761D02*
X116619047Y-51519047D01*
X117238095Y-51519047D01*
X118095238Y-50852380D02*
X117619047Y-50852380D01*
X117571428Y-51328571D01*
X117619047Y-51280952D01*
X117714285Y-51233333D01*
X117952380Y-51233333D01*
X118047619Y-51280952D01*
X118095238Y-51328571D01*
X118142857Y-51423809D01*
X118142857Y-51661904D01*
X118095238Y-51757142D01*
X118047619Y-51804761D01*
X117952380Y-51852380D01*
X117714285Y-51852380D01*
X117619047Y-51804761D01*
X117571428Y-51757142D01*
X118476190Y-50852380D02*
X119142857Y-50852380D01*
X118476190Y-51852380D01*
X119142857Y-51852380D01*
X119428571Y-50852380D02*
X120095238Y-51852380D01*
X120095238Y-50852380D02*
X119428571Y-51852380D01*
X120476190Y-51852380D02*
X120476190Y-50852380D01*
D11*
X121200000Y-52436500D02*
X101800000Y-52436500D01*
D12*
X102800000Y-60676500D02*
X121200000Y-60676500D01*
D13*
G36*
X112220878Y-70076166D02*
G01*
X112251876Y-70126538D01*
X112299634Y-70206341D01*
X112362194Y-70312180D01*
X112437597Y-70440659D01*
X112523885Y-70588384D01*
X112619101Y-70751958D01*
X112721285Y-70927987D01*
X112828481Y-71113075D01*
X112938729Y-71303827D01*
X113050071Y-71496847D01*
X113160550Y-71688741D01*
X113268207Y-71876111D01*
X113371084Y-72055565D01*
X113467223Y-72223705D01*
X113554665Y-72377137D01*
X113631453Y-72512465D01*
X113695628Y-72626294D01*
X113745233Y-72715229D01*
X113778309Y-72775874D01*
X113792897Y-72804833D01*
X113793431Y-72806644D01*
X113775321Y-72831217D01*
X113724980Y-72868807D01*
X113648395Y-72915722D01*
X113551552Y-72968274D01*
X113450167Y-73018213D01*
X113312215Y-73078769D01*
X113167142Y-73133179D01*
X113009950Y-73182651D01*
X112835643Y-73228395D01*
X112639222Y-73271620D01*
X112415689Y-73313534D01*
X112160048Y-73355347D01*
X111895606Y-73394284D01*
X111665852Y-73428828D01*
X111472917Y-73463026D01*
X111311964Y-73498577D01*
X111178155Y-73537182D01*
X111066650Y-73580539D01*
X110972614Y-73630348D01*
X110891206Y-73688309D01*
X110817590Y-73756120D01*
X110793851Y-73781312D01*
X110742397Y-73839958D01*
X110704334Y-73887815D01*
X110686677Y-73915958D01*
X110686206Y-73918265D01*
X110680028Y-73932416D01*
X110658590Y-73932575D01*
X110617533Y-73916861D01*
X110552501Y-73883391D01*
X110459137Y-73830281D01*
X110394252Y-73792088D01*
X110297501Y-73732385D01*
X110222312Y-73681263D01*
X110173739Y-73642399D01*
X110156835Y-73619472D01*
X110156845Y-73619305D01*
X110167328Y-73597456D01*
X110196931Y-73542739D01*
X110243938Y-73458136D01*
X110306629Y-73346629D01*
X110383286Y-73211201D01*
X110472191Y-73054833D01*
X110571626Y-72880507D01*
X110679872Y-72691206D01*
X110795211Y-72489911D01*
X110915924Y-72279605D01*
X111040294Y-72063271D01*
X111166601Y-71843889D01*
X111293127Y-71624442D01*
X111418155Y-71407912D01*
X111539965Y-71197281D01*
X111656839Y-70995532D01*
X111767060Y-70805647D01*
X111868908Y-70630606D01*
X111960665Y-70473394D01*
X112040613Y-70336991D01*
X112107034Y-70224380D01*
X112158209Y-70138543D01*
X112192420Y-70082462D01*
X112207948Y-70059119D01*
X112208598Y-70058621D01*
X112220878Y-70076166D01*
G37*
X112220878Y-70076166D02*
X112251876Y-70126538D01*
X112299634Y-70206341D01*
X112362194Y-70312180D01*
X112437597Y-70440659D01*
X112523885Y-70588384D01*
X112619101Y-70751958D01*
X112721285Y-70927987D01*
X112828481Y-71113075D01*
X112938729Y-71303827D01*
X113050071Y-71496847D01*
X113160550Y-71688741D01*
X113268207Y-71876111D01*
X113371084Y-72055565D01*
X113467223Y-72223705D01*
X113554665Y-72377137D01*
X113631453Y-72512465D01*
X113695628Y-72626294D01*
X113745233Y-72715229D01*
X113778309Y-72775874D01*
X113792897Y-72804833D01*
X113793431Y-72806644D01*
X113775321Y-72831217D01*
X113724980Y-72868807D01*
X113648395Y-72915722D01*
X113551552Y-72968274D01*
X113450167Y-73018213D01*
X113312215Y-73078769D01*
X113167142Y-73133179D01*
X113009950Y-73182651D01*
X112835643Y-73228395D01*
X112639222Y-73271620D01*
X112415689Y-73313534D01*
X112160048Y-73355347D01*
X111895606Y-73394284D01*
X111665852Y-73428828D01*
X111472917Y-73463026D01*
X111311964Y-73498577D01*
X111178155Y-73537182D01*
X111066650Y-73580539D01*
X110972614Y-73630348D01*
X110891206Y-73688309D01*
X110817590Y-73756120D01*
X110793851Y-73781312D01*
X110742397Y-73839958D01*
X110704334Y-73887815D01*
X110686677Y-73915958D01*
X110686206Y-73918265D01*
X110680028Y-73932416D01*
X110658590Y-73932575D01*
X110617533Y-73916861D01*
X110552501Y-73883391D01*
X110459137Y-73830281D01*
X110394252Y-73792088D01*
X110297501Y-73732385D01*
X110222312Y-73681263D01*
X110173739Y-73642399D01*
X110156835Y-73619472D01*
X110156845Y-73619305D01*
X110167328Y-73597456D01*
X110196931Y-73542739D01*
X110243938Y-73458136D01*
X110306629Y-73346629D01*
X110383286Y-73211201D01*
X110472191Y-73054833D01*
X110571626Y-72880507D01*
X110679872Y-72691206D01*
X110795211Y-72489911D01*
X110915924Y-72279605D01*
X111040294Y-72063271D01*
X111166601Y-71843889D01*
X111293127Y-71624442D01*
X111418155Y-71407912D01*
X111539965Y-71197281D01*
X111656839Y-70995532D01*
X111767060Y-70805647D01*
X111868908Y-70630606D01*
X111960665Y-70473394D01*
X112040613Y-70336991D01*
X112107034Y-70224380D01*
X112158209Y-70138543D01*
X112192420Y-70082462D01*
X112207948Y-70059119D01*
X112208598Y-70058621D01*
X112220878Y-70076166D01*
G36*
X114676146Y-74315908D02*
G01*
X114691469Y-74341590D01*
X114725911Y-74400469D01*
X114777769Y-74489602D01*
X114845340Y-74606049D01*
X114926921Y-74746867D01*
X115020809Y-74909114D01*
X115125299Y-75089849D01*
X115238690Y-75286130D01*
X115359278Y-75495016D01*
X115483313Y-75710017D01*
X115609987Y-75929649D01*
X115731608Y-76140495D01*
X115846412Y-76339499D01*
X115952638Y-76523607D01*
X116048523Y-76689765D01*
X116132302Y-76834917D01*
X116202214Y-76956009D01*
X116256496Y-77049988D01*
X116293385Y-77113797D01*
X116310731Y-77143719D01*
X116339007Y-77194271D01*
X116354382Y-77225914D01*
X116355224Y-77231420D01*
X116336488Y-77221082D01*
X116284386Y-77191407D01*
X116201640Y-77143968D01*
X116090975Y-77080333D01*
X115955114Y-77002074D01*
X115796781Y-76910759D01*
X115618698Y-76807960D01*
X115423590Y-76695247D01*
X115214180Y-76574189D01*
X114993191Y-76446357D01*
X114909113Y-76397702D01*
X114684170Y-76267567D01*
X114469524Y-76143497D01*
X114267932Y-76027077D01*
X114082148Y-75919893D01*
X113914928Y-75823531D01*
X113769027Y-75739578D01*
X113647201Y-75669620D01*
X113552204Y-75615243D01*
X113486792Y-75578034D01*
X113453720Y-75559578D01*
X113450262Y-75557830D01*
X113460339Y-75542005D01*
X113495407Y-75499692D01*
X113551885Y-75434790D01*
X113626193Y-75351196D01*
X113714752Y-75252809D01*
X113813980Y-75143525D01*
X113920298Y-75027244D01*
X114030125Y-74907862D01*
X114139882Y-74789277D01*
X114245988Y-74675388D01*
X114344862Y-74570092D01*
X114432926Y-74477287D01*
X114506599Y-74400870D01*
X114562300Y-74344740D01*
X114581403Y-74326335D01*
X114644708Y-74266872D01*
X114676146Y-74315908D01*
G37*
X114676146Y-74315908D02*
X114691469Y-74341590D01*
X114725911Y-74400469D01*
X114777769Y-74489602D01*
X114845340Y-74606049D01*
X114926921Y-74746867D01*
X115020809Y-74909114D01*
X115125299Y-75089849D01*
X115238690Y-75286130D01*
X115359278Y-75495016D01*
X115483313Y-75710017D01*
X115609987Y-75929649D01*
X115731608Y-76140495D01*
X115846412Y-76339499D01*
X115952638Y-76523607D01*
X116048523Y-76689765D01*
X116132302Y-76834917D01*
X116202214Y-76956009D01*
X116256496Y-77049988D01*
X116293385Y-77113797D01*
X116310731Y-77143719D01*
X116339007Y-77194271D01*
X116354382Y-77225914D01*
X116355224Y-77231420D01*
X116336488Y-77221082D01*
X116284386Y-77191407D01*
X116201640Y-77143968D01*
X116090975Y-77080333D01*
X115955114Y-77002074D01*
X115796781Y-76910759D01*
X115618698Y-76807960D01*
X115423590Y-76695247D01*
X115214180Y-76574189D01*
X114993191Y-76446357D01*
X114909113Y-76397702D01*
X114684170Y-76267567D01*
X114469524Y-76143497D01*
X114267932Y-76027077D01*
X114082148Y-75919893D01*
X113914928Y-75823531D01*
X113769027Y-75739578D01*
X113647201Y-75669620D01*
X113552204Y-75615243D01*
X113486792Y-75578034D01*
X113453720Y-75559578D01*
X113450262Y-75557830D01*
X113460339Y-75542005D01*
X113495407Y-75499692D01*
X113551885Y-75434790D01*
X113626193Y-75351196D01*
X113714752Y-75252809D01*
X113813980Y-75143525D01*
X113920298Y-75027244D01*
X114030125Y-74907862D01*
X114139882Y-74789277D01*
X114245988Y-74675388D01*
X114344862Y-74570092D01*
X114432926Y-74477287D01*
X114506599Y-74400870D01*
X114562300Y-74344740D01*
X114581403Y-74326335D01*
X114644708Y-74266872D01*
X114676146Y-74315908D01*
G36*
X109740749Y-74392036D02*
G01*
X109784544Y-74408972D01*
X109851293Y-74442601D01*
X109947137Y-74495334D01*
X109954599Y-74499525D01*
X110042871Y-74550001D01*
X110117363Y-74594223D01*
X110170760Y-74627731D01*
X110195746Y-74646064D01*
X110196445Y-74646962D01*
X110190409Y-74672414D01*
X110162723Y-74729255D01*
X110115188Y-74814389D01*
X110049611Y-74924717D01*
X109967797Y-75057144D01*
X109871548Y-75208571D01*
X109847594Y-75245707D01*
X109785183Y-75348757D01*
X109739737Y-75437432D01*
X109715246Y-75503714D01*
X109712733Y-75516807D01*
X109713848Y-75574443D01*
X109726343Y-75665865D01*
X109748660Y-75785208D01*
X109779240Y-75926609D01*
X109816528Y-76084203D01*
X109858965Y-76252126D01*
X109904994Y-76424514D01*
X109953057Y-76595501D01*
X110001597Y-76759224D01*
X110049057Y-76909818D01*
X110093878Y-77041420D01*
X110134503Y-77148163D01*
X110162823Y-77211494D01*
X110196183Y-77278957D01*
X110227682Y-77343511D01*
X110229387Y-77347045D01*
X110281498Y-77412250D01*
X110357554Y-77456156D01*
X110446092Y-77477197D01*
X110535648Y-77473807D01*
X110614758Y-77444423D01*
X110659264Y-77405736D01*
X110723356Y-77299636D01*
X110770322Y-77167405D01*
X110796090Y-77022527D01*
X110799741Y-76940394D01*
X110785039Y-76787105D01*
X110741890Y-76660166D01*
X110667972Y-76553418D01*
X110644921Y-76529657D01*
X110576325Y-76463009D01*
X110571614Y-75991916D01*
X110566903Y-75520822D01*
X110686946Y-75339106D01*
X110743277Y-75256856D01*
X110797528Y-75182865D01*
X110841959Y-75127448D01*
X110861056Y-75107056D01*
X110915124Y-75056723D01*
X110988350Y-75096158D01*
X111034633Y-75124415D01*
X111059957Y-75146354D01*
X111061576Y-75150299D01*
X111078884Y-75167023D01*
X111108497Y-75179476D01*
X111137114Y-75190700D01*
X111180934Y-75212024D01*
X111243718Y-75245529D01*
X111329228Y-75293296D01*
X111441226Y-75357407D01*
X111583473Y-75439944D01*
X111660773Y-75485065D01*
X111751702Y-75539111D01*
X111811339Y-75577604D01*
X111844961Y-75605044D01*
X111857844Y-75625934D01*
X111855265Y-75644775D01*
X111853115Y-75649152D01*
X111832197Y-75676714D01*
X111787440Y-75728416D01*
X111724057Y-75798475D01*
X111647262Y-75881107D01*
X111580844Y-75951156D01*
X111427790Y-76117414D01*
X111308056Y-76261519D01*
X111220573Y-76384921D01*
X111164274Y-76489068D01*
X111145284Y-76541954D01*
X111137440Y-76588250D01*
X111129338Y-76667221D01*
X111121691Y-76769846D01*
X111115212Y-76887103D01*
X111112163Y-76961248D01*
X111107908Y-77089427D01*
X111106036Y-77183138D01*
X111107099Y-77249583D01*
X111111646Y-77295961D01*
X111120227Y-77329474D01*
X111133394Y-77357321D01*
X111143735Y-77374324D01*
X111203456Y-77439862D01*
X111280411Y-77485532D01*
X111361380Y-77505450D01*
X111422058Y-77498244D01*
X111476999Y-77467066D01*
X111545867Y-77411230D01*
X111619005Y-77340474D01*
X111686752Y-77264537D01*
X111739450Y-77193159D01*
X111758853Y-77158668D01*
X111787919Y-77111441D01*
X111840783Y-77039506D01*
X111912616Y-76948485D01*
X111998588Y-76844000D01*
X112093868Y-76731675D01*
X112193627Y-76617130D01*
X112293034Y-76505990D01*
X112387259Y-76403875D01*
X112471473Y-76316408D01*
X112537591Y-76252198D01*
X112610999Y-76188057D01*
X112672753Y-76140763D01*
X112716066Y-76115235D01*
X112730445Y-76112429D01*
X112752479Y-76123752D01*
X112807438Y-76154144D01*
X112892152Y-76201780D01*
X113003448Y-76264835D01*
X113138156Y-76341485D01*
X113293103Y-76429905D01*
X113465119Y-76528270D01*
X113651032Y-76634756D01*
X113847670Y-76747537D01*
X114051863Y-76864789D01*
X114260439Y-76984687D01*
X114470225Y-77105407D01*
X114678052Y-77225123D01*
X114880747Y-77342011D01*
X115075140Y-77454246D01*
X115258058Y-77560004D01*
X115426330Y-77657460D01*
X115576785Y-77744788D01*
X115706251Y-77820165D01*
X115811557Y-77881765D01*
X115889532Y-77927764D01*
X115937004Y-77956337D01*
X115950763Y-77965304D01*
X115932231Y-77967076D01*
X115873933Y-77968799D01*
X115777809Y-77970464D01*
X115645799Y-77972063D01*
X115479846Y-77973587D01*
X115281889Y-77975029D01*
X115053870Y-77976380D01*
X114797729Y-77977632D01*
X114515408Y-77978776D01*
X114208847Y-77979804D01*
X113879987Y-77980708D01*
X113530769Y-77981479D01*
X113163135Y-77982109D01*
X112779024Y-77982590D01*
X112380377Y-77982914D01*
X111969137Y-77983072D01*
X111796580Y-77983087D01*
X107622586Y-77983087D01*
X107920268Y-77466954D01*
X107983286Y-77357665D01*
X108064406Y-77216940D01*
X108160916Y-77049486D01*
X108270103Y-76860012D01*
X108389255Y-76653223D01*
X108515660Y-76433828D01*
X108646605Y-76206533D01*
X108779379Y-75976046D01*
X108911269Y-75747073D01*
X108944624Y-75689163D01*
X109066247Y-75478232D01*
X109182228Y-75277535D01*
X109290825Y-75090059D01*
X109390294Y-74918792D01*
X109478892Y-74766723D01*
X109554878Y-74636838D01*
X109616507Y-74532125D01*
X109662037Y-74455573D01*
X109689725Y-74410169D01*
X109697472Y-74398609D01*
X109713772Y-74389385D01*
X109740749Y-74392036D01*
G37*
X109740749Y-74392036D02*
X109784544Y-74408972D01*
X109851293Y-74442601D01*
X109947137Y-74495334D01*
X109954599Y-74499525D01*
X110042871Y-74550001D01*
X110117363Y-74594223D01*
X110170760Y-74627731D01*
X110195746Y-74646064D01*
X110196445Y-74646962D01*
X110190409Y-74672414D01*
X110162723Y-74729255D01*
X110115188Y-74814389D01*
X110049611Y-74924717D01*
X109967797Y-75057144D01*
X109871548Y-75208571D01*
X109847594Y-75245707D01*
X109785183Y-75348757D01*
X109739737Y-75437432D01*
X109715246Y-75503714D01*
X109712733Y-75516807D01*
X109713848Y-75574443D01*
X109726343Y-75665865D01*
X109748660Y-75785208D01*
X109779240Y-75926609D01*
X109816528Y-76084203D01*
X109858965Y-76252126D01*
X109904994Y-76424514D01*
X109953057Y-76595501D01*
X110001597Y-76759224D01*
X110049057Y-76909818D01*
X110093878Y-77041420D01*
X110134503Y-77148163D01*
X110162823Y-77211494D01*
X110196183Y-77278957D01*
X110227682Y-77343511D01*
X110229387Y-77347045D01*
X110281498Y-77412250D01*
X110357554Y-77456156D01*
X110446092Y-77477197D01*
X110535648Y-77473807D01*
X110614758Y-77444423D01*
X110659264Y-77405736D01*
X110723356Y-77299636D01*
X110770322Y-77167405D01*
X110796090Y-77022527D01*
X110799741Y-76940394D01*
X110785039Y-76787105D01*
X110741890Y-76660166D01*
X110667972Y-76553418D01*
X110644921Y-76529657D01*
X110576325Y-76463009D01*
X110571614Y-75991916D01*
X110566903Y-75520822D01*
X110686946Y-75339106D01*
X110743277Y-75256856D01*
X110797528Y-75182865D01*
X110841959Y-75127448D01*
X110861056Y-75107056D01*
X110915124Y-75056723D01*
X110988350Y-75096158D01*
X111034633Y-75124415D01*
X111059957Y-75146354D01*
X111061576Y-75150299D01*
X111078884Y-75167023D01*
X111108497Y-75179476D01*
X111137114Y-75190700D01*
X111180934Y-75212024D01*
X111243718Y-75245529D01*
X111329228Y-75293296D01*
X111441226Y-75357407D01*
X111583473Y-75439944D01*
X111660773Y-75485065D01*
X111751702Y-75539111D01*
X111811339Y-75577604D01*
X111844961Y-75605044D01*
X111857844Y-75625934D01*
X111855265Y-75644775D01*
X111853115Y-75649152D01*
X111832197Y-75676714D01*
X111787440Y-75728416D01*
X111724057Y-75798475D01*
X111647262Y-75881107D01*
X111580844Y-75951156D01*
X111427790Y-76117414D01*
X111308056Y-76261519D01*
X111220573Y-76384921D01*
X111164274Y-76489068D01*
X111145284Y-76541954D01*
X111137440Y-76588250D01*
X111129338Y-76667221D01*
X111121691Y-76769846D01*
X111115212Y-76887103D01*
X111112163Y-76961248D01*
X111107908Y-77089427D01*
X111106036Y-77183138D01*
X111107099Y-77249583D01*
X111111646Y-77295961D01*
X111120227Y-77329474D01*
X111133394Y-77357321D01*
X111143735Y-77374324D01*
X111203456Y-77439862D01*
X111280411Y-77485532D01*
X111361380Y-77505450D01*
X111422058Y-77498244D01*
X111476999Y-77467066D01*
X111545867Y-77411230D01*
X111619005Y-77340474D01*
X111686752Y-77264537D01*
X111739450Y-77193159D01*
X111758853Y-77158668D01*
X111787919Y-77111441D01*
X111840783Y-77039506D01*
X111912616Y-76948485D01*
X111998588Y-76844000D01*
X112093868Y-76731675D01*
X112193627Y-76617130D01*
X112293034Y-76505990D01*
X112387259Y-76403875D01*
X112471473Y-76316408D01*
X112537591Y-76252198D01*
X112610999Y-76188057D01*
X112672753Y-76140763D01*
X112716066Y-76115235D01*
X112730445Y-76112429D01*
X112752479Y-76123752D01*
X112807438Y-76154144D01*
X112892152Y-76201780D01*
X113003448Y-76264835D01*
X113138156Y-76341485D01*
X113293103Y-76429905D01*
X113465119Y-76528270D01*
X113651032Y-76634756D01*
X113847670Y-76747537D01*
X114051863Y-76864789D01*
X114260439Y-76984687D01*
X114470225Y-77105407D01*
X114678052Y-77225123D01*
X114880747Y-77342011D01*
X115075140Y-77454246D01*
X115258058Y-77560004D01*
X115426330Y-77657460D01*
X115576785Y-77744788D01*
X115706251Y-77820165D01*
X115811557Y-77881765D01*
X115889532Y-77927764D01*
X115937004Y-77956337D01*
X115950763Y-77965304D01*
X115932231Y-77967076D01*
X115873933Y-77968799D01*
X115777809Y-77970464D01*
X115645799Y-77972063D01*
X115479846Y-77973587D01*
X115281889Y-77975029D01*
X115053870Y-77976380D01*
X114797729Y-77977632D01*
X114515408Y-77978776D01*
X114208847Y-77979804D01*
X113879987Y-77980708D01*
X113530769Y-77981479D01*
X113163135Y-77982109D01*
X112779024Y-77982590D01*
X112380377Y-77982914D01*
X111969137Y-77983072D01*
X111796580Y-77983087D01*
X107622586Y-77983087D01*
X107920268Y-77466954D01*
X107983286Y-77357665D01*
X108064406Y-77216940D01*
X108160916Y-77049486D01*
X108270103Y-76860012D01*
X108389255Y-76653223D01*
X108515660Y-76433828D01*
X108646605Y-76206533D01*
X108779379Y-75976046D01*
X108911269Y-75747073D01*
X108944624Y-75689163D01*
X109066247Y-75478232D01*
X109182228Y-75277535D01*
X109290825Y-75090059D01*
X109390294Y-74918792D01*
X109478892Y-74766723D01*
X109554878Y-74636838D01*
X109616507Y-74532125D01*
X109662037Y-74455573D01*
X109689725Y-74410169D01*
X109697472Y-74398609D01*
X109713772Y-74389385D01*
X109740749Y-74392036D01*
D12*
X128670000Y-43670000D02*
X130000000Y-43670000D01*
X128670000Y-45000000D02*
X128670000Y-43670000D01*
X128670000Y-46270000D02*
X131330000Y-46270000D01*
X131330000Y-46270000D02*
X131330000Y-84430000D01*
X128670000Y-46270000D02*
X128670000Y-84430000D01*
X128670000Y-84430000D02*
X131330000Y-84430000D01*
X96330000Y-84430000D02*
X95000000Y-84430000D01*
X96330000Y-83100000D02*
X96330000Y-84430000D01*
X96330000Y-81830000D02*
X93670000Y-81830000D01*
X93670000Y-81830000D02*
X93670000Y-43670000D01*
X96330000Y-81830000D02*
X96330000Y-43670000D01*
X96330000Y-43670000D02*
X93670000Y-43670000D01*
D13*
G36*
X112103910Y-80442348D02*
G01*
X112182454Y-80442778D01*
X112239298Y-80443942D01*
X112278105Y-80446207D01*
X112302538Y-80449940D01*
X112316262Y-80455506D01*
X112322940Y-80463273D01*
X112326236Y-80473605D01*
X112326556Y-80474943D01*
X112331562Y-80499079D01*
X112340829Y-80546701D01*
X112353392Y-80612741D01*
X112368287Y-80692128D01*
X112384551Y-80779796D01*
X112385119Y-80782875D01*
X112401410Y-80868789D01*
X112416652Y-80944696D01*
X112429861Y-81006045D01*
X112440054Y-81048282D01*
X112446248Y-81066855D01*
X112446543Y-81067184D01*
X112464788Y-81076253D01*
X112502405Y-81091367D01*
X112551271Y-81109262D01*
X112551543Y-81109358D01*
X112613093Y-81132493D01*
X112685657Y-81161965D01*
X112754057Y-81191597D01*
X112757294Y-81193062D01*
X112868702Y-81243626D01*
X113115399Y-81075160D01*
X113191077Y-81023803D01*
X113259631Y-80977889D01*
X113317088Y-80940030D01*
X113359476Y-80912837D01*
X113382825Y-80898921D01*
X113385042Y-80897889D01*
X113402010Y-80902484D01*
X113433701Y-80924655D01*
X113481352Y-80965447D01*
X113546198Y-81025905D01*
X113612397Y-81090227D01*
X113676214Y-81153612D01*
X113733329Y-81211451D01*
X113780305Y-81260175D01*
X113813703Y-81296210D01*
X113830085Y-81315984D01*
X113830694Y-81317002D01*
X113832505Y-81330572D01*
X113825683Y-81352733D01*
X113808540Y-81386478D01*
X113779393Y-81434800D01*
X113736555Y-81500692D01*
X113679448Y-81585517D01*
X113628766Y-81660177D01*
X113583461Y-81727140D01*
X113546150Y-81782516D01*
X113519452Y-81822420D01*
X113505985Y-81842962D01*
X113505137Y-81844356D01*
X113506781Y-81864038D01*
X113519245Y-81902293D01*
X113540048Y-81951889D01*
X113547462Y-81967728D01*
X113579814Y-82038290D01*
X113614328Y-82118353D01*
X113642365Y-82187629D01*
X113662568Y-82239045D01*
X113678615Y-82278119D01*
X113687888Y-82298541D01*
X113689041Y-82300114D01*
X113706096Y-82302721D01*
X113746298Y-82309863D01*
X113804302Y-82320523D01*
X113874763Y-82333685D01*
X113952335Y-82348333D01*
X114031672Y-82363449D01*
X114107431Y-82378018D01*
X114174264Y-82391022D01*
X114226828Y-82401445D01*
X114259776Y-82408270D01*
X114267857Y-82410199D01*
X114276205Y-82414962D01*
X114282506Y-82425718D01*
X114287045Y-82446098D01*
X114290104Y-82479734D01*
X114291967Y-82530255D01*
X114292918Y-82601292D01*
X114293240Y-82696476D01*
X114293257Y-82735492D01*
X114293257Y-83052799D01*
X114217057Y-83067839D01*
X114174663Y-83075995D01*
X114111400Y-83087899D01*
X114034962Y-83102116D01*
X113953043Y-83117210D01*
X113930400Y-83121355D01*
X113854806Y-83136053D01*
X113788953Y-83150505D01*
X113738366Y-83163375D01*
X113708574Y-83173322D01*
X113703612Y-83176287D01*
X113691426Y-83197283D01*
X113673953Y-83237967D01*
X113654577Y-83290322D01*
X113650734Y-83301600D01*
X113625339Y-83371523D01*
X113593817Y-83450418D01*
X113562969Y-83521266D01*
X113562817Y-83521595D01*
X113511447Y-83632733D01*
X113680399Y-83881253D01*
X113849352Y-84129772D01*
X113632429Y-84347058D01*
X113566819Y-84411726D01*
X113506979Y-84468733D01*
X113456267Y-84515033D01*
X113418046Y-84547584D01*
X113395675Y-84563343D01*
X113392466Y-84564343D01*
X113373626Y-84556469D01*
X113335180Y-84534578D01*
X113281330Y-84501267D01*
X113216276Y-84459131D01*
X113145940Y-84411943D01*
X113074555Y-84363810D01*
X113010908Y-84321928D01*
X112959041Y-84288871D01*
X112922995Y-84267218D01*
X112906867Y-84259543D01*
X112887189Y-84266037D01*
X112849875Y-84283150D01*
X112802621Y-84307326D01*
X112797612Y-84310013D01*
X112733977Y-84341927D01*
X112690341Y-84357579D01*
X112663202Y-84357745D01*
X112649057Y-84343204D01*
X112648975Y-84343000D01*
X112641905Y-84325779D01*
X112625042Y-84284899D01*
X112599695Y-84223525D01*
X112567171Y-84144819D01*
X112528778Y-84051947D01*
X112485822Y-83948072D01*
X112444222Y-83847502D01*
X112398504Y-83736516D01*
X112356526Y-83633703D01*
X112319548Y-83542215D01*
X112288827Y-83465201D01*
X112265622Y-83405815D01*
X112251190Y-83367209D01*
X112246743Y-83352800D01*
X112257896Y-83336272D01*
X112287069Y-83309930D01*
X112325971Y-83280887D01*
X112436757Y-83189039D01*
X112523351Y-83083759D01*
X112584716Y-82967266D01*
X112619815Y-82841776D01*
X112627608Y-82709507D01*
X112621943Y-82648457D01*
X112591078Y-82521795D01*
X112537920Y-82409941D01*
X112465767Y-82314001D01*
X112377917Y-82235076D01*
X112277665Y-82174270D01*
X112168310Y-82132687D01*
X112053147Y-82111428D01*
X111935475Y-82111599D01*
X111818590Y-82134301D01*
X111705789Y-82180638D01*
X111600369Y-82251713D01*
X111556368Y-82291911D01*
X111471979Y-82395129D01*
X111413222Y-82507925D01*
X111379704Y-82627010D01*
X111371035Y-82749095D01*
X111386823Y-82870893D01*
X111426678Y-82989116D01*
X111490207Y-83100475D01*
X111577021Y-83201684D01*
X111674029Y-83280887D01*
X111714437Y-83311162D01*
X111742982Y-83337219D01*
X111753257Y-83352825D01*
X111747877Y-83369843D01*
X111732575Y-83410500D01*
X111708612Y-83471642D01*
X111677244Y-83550119D01*
X111639732Y-83642780D01*
X111597333Y-83746472D01*
X111555663Y-83847526D01*
X111509690Y-83958607D01*
X111467107Y-84061541D01*
X111429221Y-84153165D01*
X111397340Y-84230316D01*
X111372771Y-84289831D01*
X111356820Y-84328544D01*
X111350910Y-84343000D01*
X111336948Y-84357685D01*
X111309940Y-84357642D01*
X111266413Y-84342099D01*
X111202890Y-84310284D01*
X111202388Y-84310013D01*
X111154560Y-84285323D01*
X111115897Y-84267338D01*
X111094095Y-84259614D01*
X111093133Y-84259543D01*
X111076721Y-84267378D01*
X111040487Y-84289165D01*
X110988474Y-84322328D01*
X110924725Y-84364291D01*
X110854060Y-84411943D01*
X110782116Y-84460191D01*
X110717274Y-84502151D01*
X110663735Y-84535227D01*
X110625697Y-84556821D01*
X110607533Y-84564343D01*
X110590808Y-84554457D01*
X110557180Y-84526826D01*
X110510010Y-84484495D01*
X110452658Y-84430505D01*
X110388484Y-84367899D01*
X110367497Y-84346983D01*
X110150499Y-84129623D01*
X110315668Y-83887220D01*
X110365864Y-83812781D01*
X110409919Y-83745972D01*
X110445362Y-83690665D01*
X110469719Y-83650729D01*
X110480522Y-83630036D01*
X110480838Y-83628563D01*
X110475143Y-83609058D01*
X110459826Y-83569822D01*
X110437537Y-83517430D01*
X110421893Y-83482355D01*
X110392641Y-83415201D01*
X110365094Y-83347358D01*
X110343737Y-83290034D01*
X110337935Y-83272572D01*
X110321452Y-83225938D01*
X110305340Y-83189905D01*
X110296490Y-83176287D01*
X110276960Y-83167952D01*
X110234334Y-83156137D01*
X110174145Y-83142181D01*
X110101922Y-83127422D01*
X110069600Y-83121355D01*
X109987522Y-83106273D01*
X109908795Y-83091669D01*
X109841109Y-83078980D01*
X109792160Y-83069642D01*
X109782943Y-83067839D01*
X109706743Y-83052799D01*
X109706743Y-82735492D01*
X109706914Y-82631154D01*
X109707616Y-82552213D01*
X109709134Y-82495038D01*
X109711749Y-82455999D01*
X109715746Y-82431465D01*
X109721409Y-82417805D01*
X109729020Y-82411389D01*
X109732143Y-82410199D01*
X109750978Y-82405980D01*
X109792588Y-82397562D01*
X109851630Y-82385961D01*
X109922757Y-82372195D01*
X110000625Y-82357280D01*
X110079887Y-82342232D01*
X110155198Y-82328069D01*
X110221213Y-82315806D01*
X110272587Y-82306461D01*
X110303975Y-82301050D01*
X110310959Y-82300114D01*
X110317285Y-82287596D01*
X110331290Y-82254246D01*
X110350355Y-82206377D01*
X110357634Y-82187629D01*
X110386996Y-82115195D01*
X110421571Y-82035170D01*
X110452537Y-81967728D01*
X110475323Y-81916159D01*
X110490482Y-81873785D01*
X110495542Y-81847834D01*
X110494736Y-81844356D01*
X110484041Y-81827936D01*
X110459620Y-81791417D01*
X110424095Y-81738687D01*
X110380087Y-81673635D01*
X110330217Y-81600151D01*
X110320356Y-81585645D01*
X110262492Y-81499704D01*
X110219956Y-81434261D01*
X110191054Y-81386304D01*
X110174090Y-81352820D01*
X110167367Y-81330795D01*
X110169190Y-81317217D01*
X110169236Y-81317131D01*
X110183586Y-81299297D01*
X110215323Y-81264817D01*
X110261010Y-81217268D01*
X110317204Y-81160222D01*
X110380468Y-81097255D01*
X110387602Y-81090227D01*
X110467330Y-81013020D01*
X110528857Y-80956330D01*
X110573421Y-80919110D01*
X110602257Y-80900315D01*
X110614958Y-80897889D01*
X110633494Y-80908471D01*
X110671961Y-80932916D01*
X110726386Y-80968612D01*
X110792798Y-81012947D01*
X110867225Y-81063311D01*
X110884601Y-81075160D01*
X111131297Y-81243626D01*
X111242706Y-81193062D01*
X111310457Y-81163595D01*
X111383183Y-81133959D01*
X111445703Y-81110330D01*
X111448457Y-81109358D01*
X111497360Y-81091457D01*
X111535057Y-81076320D01*
X111553425Y-81067210D01*
X111553456Y-81067184D01*
X111559285Y-81050717D01*
X111569192Y-81010219D01*
X111582195Y-80950242D01*
X111597309Y-80875340D01*
X111613552Y-80790064D01*
X111614881Y-80782875D01*
X111631175Y-80695014D01*
X111646133Y-80615260D01*
X111658791Y-80548681D01*
X111668186Y-80500347D01*
X111673354Y-80475325D01*
X111673444Y-80474943D01*
X111676589Y-80464299D01*
X111682704Y-80456262D01*
X111695453Y-80450467D01*
X111718500Y-80446547D01*
X111755509Y-80444135D01*
X111810144Y-80442865D01*
X111886067Y-80442371D01*
X111986944Y-80442286D01*
X112000000Y-80442286D01*
X112103910Y-80442348D01*
G37*
X112103910Y-80442348D02*
X112182454Y-80442778D01*
X112239298Y-80443942D01*
X112278105Y-80446207D01*
X112302538Y-80449940D01*
X112316262Y-80455506D01*
X112322940Y-80463273D01*
X112326236Y-80473605D01*
X112326556Y-80474943D01*
X112331562Y-80499079D01*
X112340829Y-80546701D01*
X112353392Y-80612741D01*
X112368287Y-80692128D01*
X112384551Y-80779796D01*
X112385119Y-80782875D01*
X112401410Y-80868789D01*
X112416652Y-80944696D01*
X112429861Y-81006045D01*
X112440054Y-81048282D01*
X112446248Y-81066855D01*
X112446543Y-81067184D01*
X112464788Y-81076253D01*
X112502405Y-81091367D01*
X112551271Y-81109262D01*
X112551543Y-81109358D01*
X112613093Y-81132493D01*
X112685657Y-81161965D01*
X112754057Y-81191597D01*
X112757294Y-81193062D01*
X112868702Y-81243626D01*
X113115399Y-81075160D01*
X113191077Y-81023803D01*
X113259631Y-80977889D01*
X113317088Y-80940030D01*
X113359476Y-80912837D01*
X113382825Y-80898921D01*
X113385042Y-80897889D01*
X113402010Y-80902484D01*
X113433701Y-80924655D01*
X113481352Y-80965447D01*
X113546198Y-81025905D01*
X113612397Y-81090227D01*
X113676214Y-81153612D01*
X113733329Y-81211451D01*
X113780305Y-81260175D01*
X113813703Y-81296210D01*
X113830085Y-81315984D01*
X113830694Y-81317002D01*
X113832505Y-81330572D01*
X113825683Y-81352733D01*
X113808540Y-81386478D01*
X113779393Y-81434800D01*
X113736555Y-81500692D01*
X113679448Y-81585517D01*
X113628766Y-81660177D01*
X113583461Y-81727140D01*
X113546150Y-81782516D01*
X113519452Y-81822420D01*
X113505985Y-81842962D01*
X113505137Y-81844356D01*
X113506781Y-81864038D01*
X113519245Y-81902293D01*
X113540048Y-81951889D01*
X113547462Y-81967728D01*
X113579814Y-82038290D01*
X113614328Y-82118353D01*
X113642365Y-82187629D01*
X113662568Y-82239045D01*
X113678615Y-82278119D01*
X113687888Y-82298541D01*
X113689041Y-82300114D01*
X113706096Y-82302721D01*
X113746298Y-82309863D01*
X113804302Y-82320523D01*
X113874763Y-82333685D01*
X113952335Y-82348333D01*
X114031672Y-82363449D01*
X114107431Y-82378018D01*
X114174264Y-82391022D01*
X114226828Y-82401445D01*
X114259776Y-82408270D01*
X114267857Y-82410199D01*
X114276205Y-82414962D01*
X114282506Y-82425718D01*
X114287045Y-82446098D01*
X114290104Y-82479734D01*
X114291967Y-82530255D01*
X114292918Y-82601292D01*
X114293240Y-82696476D01*
X114293257Y-82735492D01*
X114293257Y-83052799D01*
X114217057Y-83067839D01*
X114174663Y-83075995D01*
X114111400Y-83087899D01*
X114034962Y-83102116D01*
X113953043Y-83117210D01*
X113930400Y-83121355D01*
X113854806Y-83136053D01*
X113788953Y-83150505D01*
X113738366Y-83163375D01*
X113708574Y-83173322D01*
X113703612Y-83176287D01*
X113691426Y-83197283D01*
X113673953Y-83237967D01*
X113654577Y-83290322D01*
X113650734Y-83301600D01*
X113625339Y-83371523D01*
X113593817Y-83450418D01*
X113562969Y-83521266D01*
X113562817Y-83521595D01*
X113511447Y-83632733D01*
X113680399Y-83881253D01*
X113849352Y-84129772D01*
X113632429Y-84347058D01*
X113566819Y-84411726D01*
X113506979Y-84468733D01*
X113456267Y-84515033D01*
X113418046Y-84547584D01*
X113395675Y-84563343D01*
X113392466Y-84564343D01*
X113373626Y-84556469D01*
X113335180Y-84534578D01*
X113281330Y-84501267D01*
X113216276Y-84459131D01*
X113145940Y-84411943D01*
X113074555Y-84363810D01*
X113010908Y-84321928D01*
X112959041Y-84288871D01*
X112922995Y-84267218D01*
X112906867Y-84259543D01*
X112887189Y-84266037D01*
X112849875Y-84283150D01*
X112802621Y-84307326D01*
X112797612Y-84310013D01*
X112733977Y-84341927D01*
X112690341Y-84357579D01*
X112663202Y-84357745D01*
X112649057Y-84343204D01*
X112648975Y-84343000D01*
X112641905Y-84325779D01*
X112625042Y-84284899D01*
X112599695Y-84223525D01*
X112567171Y-84144819D01*
X112528778Y-84051947D01*
X112485822Y-83948072D01*
X112444222Y-83847502D01*
X112398504Y-83736516D01*
X112356526Y-83633703D01*
X112319548Y-83542215D01*
X112288827Y-83465201D01*
X112265622Y-83405815D01*
X112251190Y-83367209D01*
X112246743Y-83352800D01*
X112257896Y-83336272D01*
X112287069Y-83309930D01*
X112325971Y-83280887D01*
X112436757Y-83189039D01*
X112523351Y-83083759D01*
X112584716Y-82967266D01*
X112619815Y-82841776D01*
X112627608Y-82709507D01*
X112621943Y-82648457D01*
X112591078Y-82521795D01*
X112537920Y-82409941D01*
X112465767Y-82314001D01*
X112377917Y-82235076D01*
X112277665Y-82174270D01*
X112168310Y-82132687D01*
X112053147Y-82111428D01*
X111935475Y-82111599D01*
X111818590Y-82134301D01*
X111705789Y-82180638D01*
X111600369Y-82251713D01*
X111556368Y-82291911D01*
X111471979Y-82395129D01*
X111413222Y-82507925D01*
X111379704Y-82627010D01*
X111371035Y-82749095D01*
X111386823Y-82870893D01*
X111426678Y-82989116D01*
X111490207Y-83100475D01*
X111577021Y-83201684D01*
X111674029Y-83280887D01*
X111714437Y-83311162D01*
X111742982Y-83337219D01*
X111753257Y-83352825D01*
X111747877Y-83369843D01*
X111732575Y-83410500D01*
X111708612Y-83471642D01*
X111677244Y-83550119D01*
X111639732Y-83642780D01*
X111597333Y-83746472D01*
X111555663Y-83847526D01*
X111509690Y-83958607D01*
X111467107Y-84061541D01*
X111429221Y-84153165D01*
X111397340Y-84230316D01*
X111372771Y-84289831D01*
X111356820Y-84328544D01*
X111350910Y-84343000D01*
X111336948Y-84357685D01*
X111309940Y-84357642D01*
X111266413Y-84342099D01*
X111202890Y-84310284D01*
X111202388Y-84310013D01*
X111154560Y-84285323D01*
X111115897Y-84267338D01*
X111094095Y-84259614D01*
X111093133Y-84259543D01*
X111076721Y-84267378D01*
X111040487Y-84289165D01*
X110988474Y-84322328D01*
X110924725Y-84364291D01*
X110854060Y-84411943D01*
X110782116Y-84460191D01*
X110717274Y-84502151D01*
X110663735Y-84535227D01*
X110625697Y-84556821D01*
X110607533Y-84564343D01*
X110590808Y-84554457D01*
X110557180Y-84526826D01*
X110510010Y-84484495D01*
X110452658Y-84430505D01*
X110388484Y-84367899D01*
X110367497Y-84346983D01*
X110150499Y-84129623D01*
X110315668Y-83887220D01*
X110365864Y-83812781D01*
X110409919Y-83745972D01*
X110445362Y-83690665D01*
X110469719Y-83650729D01*
X110480522Y-83630036D01*
X110480838Y-83628563D01*
X110475143Y-83609058D01*
X110459826Y-83569822D01*
X110437537Y-83517430D01*
X110421893Y-83482355D01*
X110392641Y-83415201D01*
X110365094Y-83347358D01*
X110343737Y-83290034D01*
X110337935Y-83272572D01*
X110321452Y-83225938D01*
X110305340Y-83189905D01*
X110296490Y-83176287D01*
X110276960Y-83167952D01*
X110234334Y-83156137D01*
X110174145Y-83142181D01*
X110101922Y-83127422D01*
X110069600Y-83121355D01*
X109987522Y-83106273D01*
X109908795Y-83091669D01*
X109841109Y-83078980D01*
X109792160Y-83069642D01*
X109782943Y-83067839D01*
X109706743Y-83052799D01*
X109706743Y-82735492D01*
X109706914Y-82631154D01*
X109707616Y-82552213D01*
X109709134Y-82495038D01*
X109711749Y-82455999D01*
X109715746Y-82431465D01*
X109721409Y-82417805D01*
X109729020Y-82411389D01*
X109732143Y-82410199D01*
X109750978Y-82405980D01*
X109792588Y-82397562D01*
X109851630Y-82385961D01*
X109922757Y-82372195D01*
X110000625Y-82357280D01*
X110079887Y-82342232D01*
X110155198Y-82328069D01*
X110221213Y-82315806D01*
X110272587Y-82306461D01*
X110303975Y-82301050D01*
X110310959Y-82300114D01*
X110317285Y-82287596D01*
X110331290Y-82254246D01*
X110350355Y-82206377D01*
X110357634Y-82187629D01*
X110386996Y-82115195D01*
X110421571Y-82035170D01*
X110452537Y-81967728D01*
X110475323Y-81916159D01*
X110490482Y-81873785D01*
X110495542Y-81847834D01*
X110494736Y-81844356D01*
X110484041Y-81827936D01*
X110459620Y-81791417D01*
X110424095Y-81738687D01*
X110380087Y-81673635D01*
X110330217Y-81600151D01*
X110320356Y-81585645D01*
X110262492Y-81499704D01*
X110219956Y-81434261D01*
X110191054Y-81386304D01*
X110174090Y-81352820D01*
X110167367Y-81330795D01*
X110169190Y-81317217D01*
X110169236Y-81317131D01*
X110183586Y-81299297D01*
X110215323Y-81264817D01*
X110261010Y-81217268D01*
X110317204Y-81160222D01*
X110380468Y-81097255D01*
X110387602Y-81090227D01*
X110467330Y-81013020D01*
X110528857Y-80956330D01*
X110573421Y-80919110D01*
X110602257Y-80900315D01*
X110614958Y-80897889D01*
X110633494Y-80908471D01*
X110671961Y-80932916D01*
X110726386Y-80968612D01*
X110792798Y-81012947D01*
X110867225Y-81063311D01*
X110884601Y-81075160D01*
X111131297Y-81243626D01*
X111242706Y-81193062D01*
X111310457Y-81163595D01*
X111383183Y-81133959D01*
X111445703Y-81110330D01*
X111448457Y-81109358D01*
X111497360Y-81091457D01*
X111535057Y-81076320D01*
X111553425Y-81067210D01*
X111553456Y-81067184D01*
X111559285Y-81050717D01*
X111569192Y-81010219D01*
X111582195Y-80950242D01*
X111597309Y-80875340D01*
X111613552Y-80790064D01*
X111614881Y-80782875D01*
X111631175Y-80695014D01*
X111646133Y-80615260D01*
X111658791Y-80548681D01*
X111668186Y-80500347D01*
X111673354Y-80475325D01*
X111673444Y-80474943D01*
X111676589Y-80464299D01*
X111682704Y-80456262D01*
X111695453Y-80450467D01*
X111718500Y-80446547D01*
X111755509Y-80444135D01*
X111810144Y-80442865D01*
X111886067Y-80442371D01*
X111986944Y-80442286D01*
X112000000Y-80442286D01*
X112103910Y-80442348D01*
G36*
X115153595Y-85166966D02*
G01*
X115211021Y-85204497D01*
X115238719Y-85238096D01*
X115260662Y-85299064D01*
X115262405Y-85347308D01*
X115258457Y-85411816D01*
X115109686Y-85476934D01*
X115037349Y-85510202D01*
X114990084Y-85536964D01*
X114965507Y-85560144D01*
X114961237Y-85582667D01*
X114974889Y-85607455D01*
X114989943Y-85623886D01*
X115033746Y-85650235D01*
X115081389Y-85652081D01*
X115125145Y-85631546D01*
X115157289Y-85590752D01*
X115163038Y-85576347D01*
X115190576Y-85531356D01*
X115222258Y-85512182D01*
X115265714Y-85495779D01*
X115265714Y-85557966D01*
X115261872Y-85600283D01*
X115246823Y-85635969D01*
X115215280Y-85676943D01*
X115210592Y-85682267D01*
X115175506Y-85718720D01*
X115145347Y-85738283D01*
X115107615Y-85747283D01*
X115076335Y-85750230D01*
X115020385Y-85750965D01*
X114980555Y-85741660D01*
X114955708Y-85727846D01*
X114916656Y-85697467D01*
X114889625Y-85664613D01*
X114872517Y-85623294D01*
X114863238Y-85567521D01*
X114859693Y-85491305D01*
X114859410Y-85452622D01*
X114860372Y-85406247D01*
X114948007Y-85406247D01*
X114949023Y-85431126D01*
X114951556Y-85435200D01*
X114968274Y-85429665D01*
X115004249Y-85415017D01*
X115052331Y-85394190D01*
X115062386Y-85389714D01*
X115123152Y-85358814D01*
X115156632Y-85331657D01*
X115163990Y-85306220D01*
X115146391Y-85280481D01*
X115131856Y-85269109D01*
X115079410Y-85246364D01*
X115030322Y-85250122D01*
X114989227Y-85277884D01*
X114960758Y-85327152D01*
X114951631Y-85366257D01*
X114948007Y-85406247D01*
X114860372Y-85406247D01*
X114861285Y-85362249D01*
X114868196Y-85295384D01*
X114881884Y-85246695D01*
X114904096Y-85210849D01*
X114936574Y-85182513D01*
X114950733Y-85173355D01*
X115015053Y-85149507D01*
X115085473Y-85148006D01*
X115153595Y-85166966D01*
G37*
X115153595Y-85166966D02*
X115211021Y-85204497D01*
X115238719Y-85238096D01*
X115260662Y-85299064D01*
X115262405Y-85347308D01*
X115258457Y-85411816D01*
X115109686Y-85476934D01*
X115037349Y-85510202D01*
X114990084Y-85536964D01*
X114965507Y-85560144D01*
X114961237Y-85582667D01*
X114974889Y-85607455D01*
X114989943Y-85623886D01*
X115033746Y-85650235D01*
X115081389Y-85652081D01*
X115125145Y-85631546D01*
X115157289Y-85590752D01*
X115163038Y-85576347D01*
X115190576Y-85531356D01*
X115222258Y-85512182D01*
X115265714Y-85495779D01*
X115265714Y-85557966D01*
X115261872Y-85600283D01*
X115246823Y-85635969D01*
X115215280Y-85676943D01*
X115210592Y-85682267D01*
X115175506Y-85718720D01*
X115145347Y-85738283D01*
X115107615Y-85747283D01*
X115076335Y-85750230D01*
X115020385Y-85750965D01*
X114980555Y-85741660D01*
X114955708Y-85727846D01*
X114916656Y-85697467D01*
X114889625Y-85664613D01*
X114872517Y-85623294D01*
X114863238Y-85567521D01*
X114859693Y-85491305D01*
X114859410Y-85452622D01*
X114860372Y-85406247D01*
X114948007Y-85406247D01*
X114949023Y-85431126D01*
X114951556Y-85435200D01*
X114968274Y-85429665D01*
X115004249Y-85415017D01*
X115052331Y-85394190D01*
X115062386Y-85389714D01*
X115123152Y-85358814D01*
X115156632Y-85331657D01*
X115163990Y-85306220D01*
X115146391Y-85280481D01*
X115131856Y-85269109D01*
X115079410Y-85246364D01*
X115030322Y-85250122D01*
X114989227Y-85277884D01*
X114960758Y-85327152D01*
X114951631Y-85366257D01*
X114948007Y-85406247D01*
X114860372Y-85406247D01*
X114861285Y-85362249D01*
X114868196Y-85295384D01*
X114881884Y-85246695D01*
X114904096Y-85210849D01*
X114936574Y-85182513D01*
X114950733Y-85173355D01*
X115015053Y-85149507D01*
X115085473Y-85148006D01*
X115153595Y-85166966D01*
G36*
X114652600Y-85158752D02*
G01*
X114669948Y-85166334D01*
X114711356Y-85199128D01*
X114746765Y-85246547D01*
X114768664Y-85297151D01*
X114772229Y-85322098D01*
X114760279Y-85356927D01*
X114734067Y-85375357D01*
X114705964Y-85386516D01*
X114693095Y-85388572D01*
X114686829Y-85373649D01*
X114674456Y-85341175D01*
X114669028Y-85326502D01*
X114638590Y-85275744D01*
X114594520Y-85250427D01*
X114538010Y-85251206D01*
X114533825Y-85252203D01*
X114503655Y-85266507D01*
X114481476Y-85294393D01*
X114466327Y-85339287D01*
X114457250Y-85404615D01*
X114453286Y-85493804D01*
X114452914Y-85541261D01*
X114452730Y-85616071D01*
X114451522Y-85667069D01*
X114448309Y-85699471D01*
X114442109Y-85718495D01*
X114431940Y-85729356D01*
X114416819Y-85737272D01*
X114415946Y-85737670D01*
X114386828Y-85749981D01*
X114372403Y-85754514D01*
X114370186Y-85740809D01*
X114368289Y-85702925D01*
X114366847Y-85645715D01*
X114365998Y-85574027D01*
X114365829Y-85521565D01*
X114366692Y-85420047D01*
X114370070Y-85343032D01*
X114377142Y-85286023D01*
X114389088Y-85244526D01*
X114407090Y-85214043D01*
X114432327Y-85190080D01*
X114457247Y-85173355D01*
X114517171Y-85151097D01*
X114586911Y-85146076D01*
X114652600Y-85158752D01*
G37*
X114652600Y-85158752D02*
X114669948Y-85166334D01*
X114711356Y-85199128D01*
X114746765Y-85246547D01*
X114768664Y-85297151D01*
X114772229Y-85322098D01*
X114760279Y-85356927D01*
X114734067Y-85375357D01*
X114705964Y-85386516D01*
X114693095Y-85388572D01*
X114686829Y-85373649D01*
X114674456Y-85341175D01*
X114669028Y-85326502D01*
X114638590Y-85275744D01*
X114594520Y-85250427D01*
X114538010Y-85251206D01*
X114533825Y-85252203D01*
X114503655Y-85266507D01*
X114481476Y-85294393D01*
X114466327Y-85339287D01*
X114457250Y-85404615D01*
X114453286Y-85493804D01*
X114452914Y-85541261D01*
X114452730Y-85616071D01*
X114451522Y-85667069D01*
X114448309Y-85699471D01*
X114442109Y-85718495D01*
X114431940Y-85729356D01*
X114416819Y-85737272D01*
X114415946Y-85737670D01*
X114386828Y-85749981D01*
X114372403Y-85754514D01*
X114370186Y-85740809D01*
X114368289Y-85702925D01*
X114366847Y-85645715D01*
X114365998Y-85574027D01*
X114365829Y-85521565D01*
X114366692Y-85420047D01*
X114370070Y-85343032D01*
X114377142Y-85286023D01*
X114389088Y-85244526D01*
X114407090Y-85214043D01*
X114432327Y-85190080D01*
X114457247Y-85173355D01*
X114517171Y-85151097D01*
X114586911Y-85146076D01*
X114652600Y-85158752D01*
G36*
X114144876Y-85156335D02*
G01*
X114186667Y-85175344D01*
X114219469Y-85198378D01*
X114243503Y-85224133D01*
X114260097Y-85257358D01*
X114270577Y-85302800D01*
X114276271Y-85365207D01*
X114278507Y-85449327D01*
X114278743Y-85504721D01*
X114278743Y-85720826D01*
X114241774Y-85737670D01*
X114212656Y-85749981D01*
X114198231Y-85754514D01*
X114195472Y-85741025D01*
X114193282Y-85704653D01*
X114191942Y-85651542D01*
X114191657Y-85609372D01*
X114190434Y-85548447D01*
X114187136Y-85500115D01*
X114182321Y-85470518D01*
X114178496Y-85464229D01*
X114152783Y-85470652D01*
X114112418Y-85487125D01*
X114065679Y-85509458D01*
X114020845Y-85533457D01*
X113986193Y-85554930D01*
X113970002Y-85569685D01*
X113969938Y-85569845D01*
X113971330Y-85597152D01*
X113983818Y-85623219D01*
X114005743Y-85644392D01*
X114037743Y-85651474D01*
X114065092Y-85650649D01*
X114103826Y-85650042D01*
X114124158Y-85659116D01*
X114136369Y-85683092D01*
X114137909Y-85687613D01*
X114143203Y-85721806D01*
X114129047Y-85742568D01*
X114092148Y-85752462D01*
X114052289Y-85754292D01*
X113980562Y-85740727D01*
X113943432Y-85721355D01*
X113897576Y-85675845D01*
X113873256Y-85619983D01*
X113871073Y-85560957D01*
X113891629Y-85505953D01*
X113922549Y-85471486D01*
X113953420Y-85452189D01*
X114001942Y-85427759D01*
X114058485Y-85402985D01*
X114067910Y-85399199D01*
X114130019Y-85371791D01*
X114165822Y-85347634D01*
X114177337Y-85323619D01*
X114166580Y-85296635D01*
X114148114Y-85275543D01*
X114104469Y-85249572D01*
X114056446Y-85247624D01*
X114012406Y-85267637D01*
X113980709Y-85307551D01*
X113976549Y-85317848D01*
X113952327Y-85355724D01*
X113916965Y-85383842D01*
X113872343Y-85406917D01*
X113872343Y-85341485D01*
X113874969Y-85301506D01*
X113886230Y-85269997D01*
X113911199Y-85236378D01*
X113935169Y-85210484D01*
X113972441Y-85173817D01*
X114001401Y-85154121D01*
X114032505Y-85146220D01*
X114067713Y-85144914D01*
X114144876Y-85156335D01*
G37*
X114144876Y-85156335D02*
X114186667Y-85175344D01*
X114219469Y-85198378D01*
X114243503Y-85224133D01*
X114260097Y-85257358D01*
X114270577Y-85302800D01*
X114276271Y-85365207D01*
X114278507Y-85449327D01*
X114278743Y-85504721D01*
X114278743Y-85720826D01*
X114241774Y-85737670D01*
X114212656Y-85749981D01*
X114198231Y-85754514D01*
X114195472Y-85741025D01*
X114193282Y-85704653D01*
X114191942Y-85651542D01*
X114191657Y-85609372D01*
X114190434Y-85548447D01*
X114187136Y-85500115D01*
X114182321Y-85470518D01*
X114178496Y-85464229D01*
X114152783Y-85470652D01*
X114112418Y-85487125D01*
X114065679Y-85509458D01*
X114020845Y-85533457D01*
X113986193Y-85554930D01*
X113970002Y-85569685D01*
X113969938Y-85569845D01*
X113971330Y-85597152D01*
X113983818Y-85623219D01*
X114005743Y-85644392D01*
X114037743Y-85651474D01*
X114065092Y-85650649D01*
X114103826Y-85650042D01*
X114124158Y-85659116D01*
X114136369Y-85683092D01*
X114137909Y-85687613D01*
X114143203Y-85721806D01*
X114129047Y-85742568D01*
X114092148Y-85752462D01*
X114052289Y-85754292D01*
X113980562Y-85740727D01*
X113943432Y-85721355D01*
X113897576Y-85675845D01*
X113873256Y-85619983D01*
X113871073Y-85560957D01*
X113891629Y-85505953D01*
X113922549Y-85471486D01*
X113953420Y-85452189D01*
X114001942Y-85427759D01*
X114058485Y-85402985D01*
X114067910Y-85399199D01*
X114130019Y-85371791D01*
X114165822Y-85347634D01*
X114177337Y-85323619D01*
X114166580Y-85296635D01*
X114148114Y-85275543D01*
X114104469Y-85249572D01*
X114056446Y-85247624D01*
X114012406Y-85267637D01*
X113980709Y-85307551D01*
X113976549Y-85317848D01*
X113952327Y-85355724D01*
X113916965Y-85383842D01*
X113872343Y-85406917D01*
X113872343Y-85341485D01*
X113874969Y-85301506D01*
X113886230Y-85269997D01*
X113911199Y-85236378D01*
X113935169Y-85210484D01*
X113972441Y-85173817D01*
X114001401Y-85154121D01*
X114032505Y-85146220D01*
X114067713Y-85144914D01*
X114144876Y-85156335D01*
G36*
X113779833Y-85158663D02*
G01*
X113782048Y-85196850D01*
X113783784Y-85254886D01*
X113784899Y-85328180D01*
X113785257Y-85405055D01*
X113785257Y-85665196D01*
X113739326Y-85711127D01*
X113707675Y-85739429D01*
X113679890Y-85750893D01*
X113641915Y-85750168D01*
X113626840Y-85748321D01*
X113579726Y-85742948D01*
X113540756Y-85739869D01*
X113531257Y-85739585D01*
X113499233Y-85741445D01*
X113453432Y-85746114D01*
X113435674Y-85748321D01*
X113392057Y-85751735D01*
X113362745Y-85744320D01*
X113333680Y-85721427D01*
X113323188Y-85711127D01*
X113277257Y-85665196D01*
X113277257Y-85178602D01*
X113314226Y-85161758D01*
X113346059Y-85149282D01*
X113364683Y-85144914D01*
X113369458Y-85158718D01*
X113373921Y-85197286D01*
X113377775Y-85256356D01*
X113380722Y-85331663D01*
X113382143Y-85395286D01*
X113386114Y-85645657D01*
X113420759Y-85650556D01*
X113452268Y-85647131D01*
X113467708Y-85636041D01*
X113472023Y-85615308D01*
X113475708Y-85571145D01*
X113478469Y-85509146D01*
X113480012Y-85434909D01*
X113480235Y-85396706D01*
X113480457Y-85176783D01*
X113526166Y-85160849D01*
X113558518Y-85150015D01*
X113576115Y-85144962D01*
X113576623Y-85144914D01*
X113578388Y-85158648D01*
X113580329Y-85196730D01*
X113582282Y-85254482D01*
X113584084Y-85327227D01*
X113585343Y-85395286D01*
X113589314Y-85645657D01*
X113676400Y-85645657D01*
X113680396Y-85417240D01*
X113684392Y-85188822D01*
X113726847Y-85166868D01*
X113758192Y-85151793D01*
X113776744Y-85144951D01*
X113777279Y-85144914D01*
X113779833Y-85158663D01*
G37*
X113779833Y-85158663D02*
X113782048Y-85196850D01*
X113783784Y-85254886D01*
X113784899Y-85328180D01*
X113785257Y-85405055D01*
X113785257Y-85665196D01*
X113739326Y-85711127D01*
X113707675Y-85739429D01*
X113679890Y-85750893D01*
X113641915Y-85750168D01*
X113626840Y-85748321D01*
X113579726Y-85742948D01*
X113540756Y-85739869D01*
X113531257Y-85739585D01*
X113499233Y-85741445D01*
X113453432Y-85746114D01*
X113435674Y-85748321D01*
X113392057Y-85751735D01*
X113362745Y-85744320D01*
X113333680Y-85721427D01*
X113323188Y-85711127D01*
X113277257Y-85665196D01*
X113277257Y-85178602D01*
X113314226Y-85161758D01*
X113346059Y-85149282D01*
X113364683Y-85144914D01*
X113369458Y-85158718D01*
X113373921Y-85197286D01*
X113377775Y-85256356D01*
X113380722Y-85331663D01*
X113382143Y-85395286D01*
X113386114Y-85645657D01*
X113420759Y-85650556D01*
X113452268Y-85647131D01*
X113467708Y-85636041D01*
X113472023Y-85615308D01*
X113475708Y-85571145D01*
X113478469Y-85509146D01*
X113480012Y-85434909D01*
X113480235Y-85396706D01*
X113480457Y-85176783D01*
X113526166Y-85160849D01*
X113558518Y-85150015D01*
X113576115Y-85144962D01*
X113576623Y-85144914D01*
X113578388Y-85158648D01*
X113580329Y-85196730D01*
X113582282Y-85254482D01*
X113584084Y-85327227D01*
X113585343Y-85395286D01*
X113589314Y-85645657D01*
X113676400Y-85645657D01*
X113680396Y-85417240D01*
X113684392Y-85188822D01*
X113726847Y-85166868D01*
X113758192Y-85151793D01*
X113776744Y-85144951D01*
X113777279Y-85144914D01*
X113779833Y-85158663D01*
G36*
X113190117Y-85265358D02*
G01*
X113189933Y-85373837D01*
X113189219Y-85457287D01*
X113187675Y-85519704D01*
X113185001Y-85565085D01*
X113180894Y-85597429D01*
X113175055Y-85620733D01*
X113167182Y-85638995D01*
X113161221Y-85649418D01*
X113111855Y-85705945D01*
X113049264Y-85741377D01*
X112980013Y-85754090D01*
X112910668Y-85742463D01*
X112869375Y-85721568D01*
X112826025Y-85685422D01*
X112796481Y-85641276D01*
X112778655Y-85583462D01*
X112770463Y-85506313D01*
X112769302Y-85449714D01*
X112769458Y-85445647D01*
X112870857Y-85445647D01*
X112871476Y-85510550D01*
X112874314Y-85553514D01*
X112880840Y-85581622D01*
X112892523Y-85601953D01*
X112906483Y-85617288D01*
X112953365Y-85646890D01*
X113003701Y-85649419D01*
X113051276Y-85624705D01*
X113054979Y-85621356D01*
X113070783Y-85603935D01*
X113080693Y-85583209D01*
X113086058Y-85552362D01*
X113088228Y-85504577D01*
X113088571Y-85451748D01*
X113087827Y-85385381D01*
X113084748Y-85341106D01*
X113078061Y-85312009D01*
X113066496Y-85291173D01*
X113057013Y-85280107D01*
X113012960Y-85252198D01*
X112962224Y-85248843D01*
X112913796Y-85270159D01*
X112904450Y-85278073D01*
X112888540Y-85295647D01*
X112878610Y-85316587D01*
X112873278Y-85347782D01*
X112871163Y-85396122D01*
X112870857Y-85445647D01*
X112769458Y-85445647D01*
X112772810Y-85358568D01*
X112784726Y-85290086D01*
X112807135Y-85238600D01*
X112842124Y-85198443D01*
X112869375Y-85177861D01*
X112918907Y-85155625D01*
X112976316Y-85145304D01*
X113029682Y-85148067D01*
X113059543Y-85159212D01*
X113071261Y-85162383D01*
X113079037Y-85150557D01*
X113084465Y-85118866D01*
X113088571Y-85070593D01*
X113093067Y-85016829D01*
X113099313Y-84984482D01*
X113110676Y-84965985D01*
X113130528Y-84953770D01*
X113143000Y-84948362D01*
X113190171Y-84928601D01*
X113190117Y-85265358D01*
G37*
X113190117Y-85265358D02*
X113189933Y-85373837D01*
X113189219Y-85457287D01*
X113187675Y-85519704D01*
X113185001Y-85565085D01*
X113180894Y-85597429D01*
X113175055Y-85620733D01*
X113167182Y-85638995D01*
X113161221Y-85649418D01*
X113111855Y-85705945D01*
X113049264Y-85741377D01*
X112980013Y-85754090D01*
X112910668Y-85742463D01*
X112869375Y-85721568D01*
X112826025Y-85685422D01*
X112796481Y-85641276D01*
X112778655Y-85583462D01*
X112770463Y-85506313D01*
X112769302Y-85449714D01*
X112769458Y-85445647D01*
X112870857Y-85445647D01*
X112871476Y-85510550D01*
X112874314Y-85553514D01*
X112880840Y-85581622D01*
X112892523Y-85601953D01*
X112906483Y-85617288D01*
X112953365Y-85646890D01*
X113003701Y-85649419D01*
X113051276Y-85624705D01*
X113054979Y-85621356D01*
X113070783Y-85603935D01*
X113080693Y-85583209D01*
X113086058Y-85552362D01*
X113088228Y-85504577D01*
X113088571Y-85451748D01*
X113087827Y-85385381D01*
X113084748Y-85341106D01*
X113078061Y-85312009D01*
X113066496Y-85291173D01*
X113057013Y-85280107D01*
X113012960Y-85252198D01*
X112962224Y-85248843D01*
X112913796Y-85270159D01*
X112904450Y-85278073D01*
X112888540Y-85295647D01*
X112878610Y-85316587D01*
X112873278Y-85347782D01*
X112871163Y-85396122D01*
X112870857Y-85445647D01*
X112769458Y-85445647D01*
X112772810Y-85358568D01*
X112784726Y-85290086D01*
X112807135Y-85238600D01*
X112842124Y-85198443D01*
X112869375Y-85177861D01*
X112918907Y-85155625D01*
X112976316Y-85145304D01*
X113029682Y-85148067D01*
X113059543Y-85159212D01*
X113071261Y-85162383D01*
X113079037Y-85150557D01*
X113084465Y-85118866D01*
X113088571Y-85070593D01*
X113093067Y-85016829D01*
X113099313Y-84984482D01*
X113110676Y-84965985D01*
X113130528Y-84953770D01*
X113143000Y-84948362D01*
X113190171Y-84928601D01*
X113190117Y-85265358D01*
G36*
X112529926Y-85149755D02*
G01*
X112595858Y-85174084D01*
X112649273Y-85217117D01*
X112670164Y-85247409D01*
X112692939Y-85302994D01*
X112692466Y-85343186D01*
X112668562Y-85370217D01*
X112659717Y-85374813D01*
X112621530Y-85389144D01*
X112602028Y-85385472D01*
X112595422Y-85361407D01*
X112595086Y-85348114D01*
X112582992Y-85299210D01*
X112551471Y-85264999D01*
X112507659Y-85248476D01*
X112458695Y-85252634D01*
X112418894Y-85274227D01*
X112405450Y-85286544D01*
X112395921Y-85301487D01*
X112389485Y-85324075D01*
X112385317Y-85359328D01*
X112382597Y-85412266D01*
X112380502Y-85487907D01*
X112379960Y-85511857D01*
X112377981Y-85593790D01*
X112375731Y-85651455D01*
X112372357Y-85689608D01*
X112367006Y-85713004D01*
X112358824Y-85726398D01*
X112346959Y-85734545D01*
X112339362Y-85738144D01*
X112307102Y-85750452D01*
X112288111Y-85754514D01*
X112281836Y-85740948D01*
X112278006Y-85699934D01*
X112276600Y-85630999D01*
X112277598Y-85533669D01*
X112277908Y-85518657D01*
X112280101Y-85429859D01*
X112282693Y-85365019D01*
X112286382Y-85319067D01*
X112291864Y-85286935D01*
X112299835Y-85263553D01*
X112310993Y-85243852D01*
X112316830Y-85235410D01*
X112350296Y-85198057D01*
X112387727Y-85169003D01*
X112392309Y-85166467D01*
X112459426Y-85146443D01*
X112529926Y-85149755D01*
G37*
X112529926Y-85149755D02*
X112595858Y-85174084D01*
X112649273Y-85217117D01*
X112670164Y-85247409D01*
X112692939Y-85302994D01*
X112692466Y-85343186D01*
X112668562Y-85370217D01*
X112659717Y-85374813D01*
X112621530Y-85389144D01*
X112602028Y-85385472D01*
X112595422Y-85361407D01*
X112595086Y-85348114D01*
X112582992Y-85299210D01*
X112551471Y-85264999D01*
X112507659Y-85248476D01*
X112458695Y-85252634D01*
X112418894Y-85274227D01*
X112405450Y-85286544D01*
X112395921Y-85301487D01*
X112389485Y-85324075D01*
X112385317Y-85359328D01*
X112382597Y-85412266D01*
X112380502Y-85487907D01*
X112379960Y-85511857D01*
X112377981Y-85593790D01*
X112375731Y-85651455D01*
X112372357Y-85689608D01*
X112367006Y-85713004D01*
X112358824Y-85726398D01*
X112346959Y-85734545D01*
X112339362Y-85738144D01*
X112307102Y-85750452D01*
X112288111Y-85754514D01*
X112281836Y-85740948D01*
X112278006Y-85699934D01*
X112276600Y-85630999D01*
X112277598Y-85533669D01*
X112277908Y-85518657D01*
X112280101Y-85429859D01*
X112282693Y-85365019D01*
X112286382Y-85319067D01*
X112291864Y-85286935D01*
X112299835Y-85263553D01*
X112310993Y-85243852D01*
X112316830Y-85235410D01*
X112350296Y-85198057D01*
X112387727Y-85169003D01*
X112392309Y-85166467D01*
X112459426Y-85146443D01*
X112529926Y-85149755D01*
G36*
X112039744Y-85150968D02*
G01*
X112096616Y-85172087D01*
X112097267Y-85172493D01*
X112132440Y-85198380D01*
X112158407Y-85228633D01*
X112176670Y-85268058D01*
X112188732Y-85321462D01*
X112196096Y-85393651D01*
X112200264Y-85489432D01*
X112200629Y-85503078D01*
X112205876Y-85708842D01*
X112161716Y-85731678D01*
X112129763Y-85747110D01*
X112110470Y-85754423D01*
X112109578Y-85754514D01*
X112106239Y-85741022D01*
X112103587Y-85704626D01*
X112101956Y-85651452D01*
X112101600Y-85608393D01*
X112101592Y-85538641D01*
X112098403Y-85494837D01*
X112087288Y-85473944D01*
X112063501Y-85472925D01*
X112022296Y-85488741D01*
X111960086Y-85517815D01*
X111914341Y-85541963D01*
X111890813Y-85562913D01*
X111883896Y-85585747D01*
X111883886Y-85586877D01*
X111895299Y-85626212D01*
X111929092Y-85647462D01*
X111980809Y-85650539D01*
X112018061Y-85650006D01*
X112037703Y-85660735D01*
X112049952Y-85686505D01*
X112057002Y-85719337D01*
X112046842Y-85737966D01*
X112043017Y-85740632D01*
X112007001Y-85751340D01*
X111956566Y-85752856D01*
X111904626Y-85745759D01*
X111867822Y-85732788D01*
X111816938Y-85689585D01*
X111788014Y-85629446D01*
X111782286Y-85582462D01*
X111786657Y-85540082D01*
X111802475Y-85505488D01*
X111833797Y-85474763D01*
X111884678Y-85443990D01*
X111959176Y-85409252D01*
X111963714Y-85407288D01*
X112030821Y-85376287D01*
X112072232Y-85350862D01*
X112089981Y-85328014D01*
X112086107Y-85304745D01*
X112062643Y-85278056D01*
X112055627Y-85271914D01*
X112008630Y-85248100D01*
X111959933Y-85249103D01*
X111917522Y-85272451D01*
X111889384Y-85315675D01*
X111886769Y-85324160D01*
X111861308Y-85365308D01*
X111829001Y-85385128D01*
X111782286Y-85404770D01*
X111782286Y-85353950D01*
X111796496Y-85280082D01*
X111838675Y-85212327D01*
X111860624Y-85189661D01*
X111910517Y-85160569D01*
X111973967Y-85147400D01*
X112039744Y-85150968D01*
G37*
X112039744Y-85150968D02*
X112096616Y-85172087D01*
X112097267Y-85172493D01*
X112132440Y-85198380D01*
X112158407Y-85228633D01*
X112176670Y-85268058D01*
X112188732Y-85321462D01*
X112196096Y-85393651D01*
X112200264Y-85489432D01*
X112200629Y-85503078D01*
X112205876Y-85708842D01*
X112161716Y-85731678D01*
X112129763Y-85747110D01*
X112110470Y-85754423D01*
X112109578Y-85754514D01*
X112106239Y-85741022D01*
X112103587Y-85704626D01*
X112101956Y-85651452D01*
X112101600Y-85608393D01*
X112101592Y-85538641D01*
X112098403Y-85494837D01*
X112087288Y-85473944D01*
X112063501Y-85472925D01*
X112022296Y-85488741D01*
X111960086Y-85517815D01*
X111914341Y-85541963D01*
X111890813Y-85562913D01*
X111883896Y-85585747D01*
X111883886Y-85586877D01*
X111895299Y-85626212D01*
X111929092Y-85647462D01*
X111980809Y-85650539D01*
X112018061Y-85650006D01*
X112037703Y-85660735D01*
X112049952Y-85686505D01*
X112057002Y-85719337D01*
X112046842Y-85737966D01*
X112043017Y-85740632D01*
X112007001Y-85751340D01*
X111956566Y-85752856D01*
X111904626Y-85745759D01*
X111867822Y-85732788D01*
X111816938Y-85689585D01*
X111788014Y-85629446D01*
X111782286Y-85582462D01*
X111786657Y-85540082D01*
X111802475Y-85505488D01*
X111833797Y-85474763D01*
X111884678Y-85443990D01*
X111959176Y-85409252D01*
X111963714Y-85407288D01*
X112030821Y-85376287D01*
X112072232Y-85350862D01*
X112089981Y-85328014D01*
X112086107Y-85304745D01*
X112062643Y-85278056D01*
X112055627Y-85271914D01*
X112008630Y-85248100D01*
X111959933Y-85249103D01*
X111917522Y-85272451D01*
X111889384Y-85315675D01*
X111886769Y-85324160D01*
X111861308Y-85365308D01*
X111829001Y-85385128D01*
X111782286Y-85404770D01*
X111782286Y-85353950D01*
X111796496Y-85280082D01*
X111838675Y-85212327D01*
X111860624Y-85189661D01*
X111910517Y-85160569D01*
X111973967Y-85147400D01*
X112039744Y-85150968D01*
G36*
X111375886Y-85051289D02*
G01*
X111380139Y-85110613D01*
X111385025Y-85145572D01*
X111391795Y-85160820D01*
X111401702Y-85161015D01*
X111404914Y-85159195D01*
X111447644Y-85146015D01*
X111503227Y-85146785D01*
X111559737Y-85160333D01*
X111595082Y-85177861D01*
X111631321Y-85205861D01*
X111657813Y-85237549D01*
X111675999Y-85277813D01*
X111687322Y-85331543D01*
X111693222Y-85403626D01*
X111695143Y-85498951D01*
X111695177Y-85517237D01*
X111695200Y-85722646D01*
X111649491Y-85738580D01*
X111617027Y-85749420D01*
X111599215Y-85754468D01*
X111598691Y-85754514D01*
X111596937Y-85740828D01*
X111595444Y-85703076D01*
X111594326Y-85646224D01*
X111593697Y-85575234D01*
X111593600Y-85532073D01*
X111593398Y-85446973D01*
X111592358Y-85385981D01*
X111589831Y-85344177D01*
X111585164Y-85316642D01*
X111577707Y-85298456D01*
X111566811Y-85284698D01*
X111560007Y-85278073D01*
X111513272Y-85251375D01*
X111462272Y-85249375D01*
X111416001Y-85271955D01*
X111407444Y-85280107D01*
X111394893Y-85295436D01*
X111386188Y-85313618D01*
X111380631Y-85339909D01*
X111377526Y-85379562D01*
X111376176Y-85437832D01*
X111375886Y-85518173D01*
X111375886Y-85722646D01*
X111330177Y-85738580D01*
X111297713Y-85749420D01*
X111279901Y-85754468D01*
X111279377Y-85754514D01*
X111278037Y-85740623D01*
X111276828Y-85701439D01*
X111275801Y-85640700D01*
X111275002Y-85562141D01*
X111274481Y-85469498D01*
X111274286Y-85366509D01*
X111274286Y-84969342D01*
X111321457Y-84949444D01*
X111368629Y-84929547D01*
X111375886Y-85051289D01*
G37*
X111375886Y-85051289D02*
X111380139Y-85110613D01*
X111385025Y-85145572D01*
X111391795Y-85160820D01*
X111401702Y-85161015D01*
X111404914Y-85159195D01*
X111447644Y-85146015D01*
X111503227Y-85146785D01*
X111559737Y-85160333D01*
X111595082Y-85177861D01*
X111631321Y-85205861D01*
X111657813Y-85237549D01*
X111675999Y-85277813D01*
X111687322Y-85331543D01*
X111693222Y-85403626D01*
X111695143Y-85498951D01*
X111695177Y-85517237D01*
X111695200Y-85722646D01*
X111649491Y-85738580D01*
X111617027Y-85749420D01*
X111599215Y-85754468D01*
X111598691Y-85754514D01*
X111596937Y-85740828D01*
X111595444Y-85703076D01*
X111594326Y-85646224D01*
X111593697Y-85575234D01*
X111593600Y-85532073D01*
X111593398Y-85446973D01*
X111592358Y-85385981D01*
X111589831Y-85344177D01*
X111585164Y-85316642D01*
X111577707Y-85298456D01*
X111566811Y-85284698D01*
X111560007Y-85278073D01*
X111513272Y-85251375D01*
X111462272Y-85249375D01*
X111416001Y-85271955D01*
X111407444Y-85280107D01*
X111394893Y-85295436D01*
X111386188Y-85313618D01*
X111380631Y-85339909D01*
X111377526Y-85379562D01*
X111376176Y-85437832D01*
X111375886Y-85518173D01*
X111375886Y-85722646D01*
X111330177Y-85738580D01*
X111297713Y-85749420D01*
X111279901Y-85754468D01*
X111279377Y-85754514D01*
X111278037Y-85740623D01*
X111276828Y-85701439D01*
X111275801Y-85640700D01*
X111275002Y-85562141D01*
X111274481Y-85469498D01*
X111274286Y-85366509D01*
X111274286Y-84969342D01*
X111321457Y-84949444D01*
X111368629Y-84929547D01*
X111375886Y-85051289D01*
G36*
X110168303Y-85131239D02*
G01*
X110225527Y-85169735D01*
X110269749Y-85225335D01*
X110296167Y-85296086D01*
X110301510Y-85348162D01*
X110300903Y-85369893D01*
X110295822Y-85386531D01*
X110281855Y-85401437D01*
X110254589Y-85417973D01*
X110209612Y-85439498D01*
X110142511Y-85469374D01*
X110142171Y-85469524D01*
X110080407Y-85497813D01*
X110029759Y-85522933D01*
X109995404Y-85542179D01*
X109982518Y-85552848D01*
X109982514Y-85552934D01*
X109993872Y-85576166D01*
X110020431Y-85601774D01*
X110050923Y-85620221D01*
X110066370Y-85623886D01*
X110108515Y-85611212D01*
X110144808Y-85579471D01*
X110162517Y-85544572D01*
X110179552Y-85518845D01*
X110212922Y-85489546D01*
X110252149Y-85464235D01*
X110286756Y-85450471D01*
X110293993Y-85449714D01*
X110302139Y-85462160D01*
X110302630Y-85493972D01*
X110296643Y-85536866D01*
X110285357Y-85582558D01*
X110269950Y-85622761D01*
X110269171Y-85624322D01*
X110222804Y-85689062D01*
X110162711Y-85733097D01*
X110094465Y-85754711D01*
X110023638Y-85752185D01*
X109955804Y-85723804D01*
X109952788Y-85721808D01*
X109899427Y-85673448D01*
X109864340Y-85610352D01*
X109844922Y-85527387D01*
X109842316Y-85504078D01*
X109837701Y-85394055D01*
X109843233Y-85342748D01*
X109982514Y-85342748D01*
X109984324Y-85374753D01*
X109994222Y-85384093D01*
X110018898Y-85377105D01*
X110057795Y-85360587D01*
X110101275Y-85339881D01*
X110102356Y-85339333D01*
X110139209Y-85319949D01*
X110154000Y-85307013D01*
X110150353Y-85293451D01*
X110134995Y-85275632D01*
X110095923Y-85249845D01*
X110053846Y-85247950D01*
X110016103Y-85266717D01*
X109990034Y-85302915D01*
X109982514Y-85342748D01*
X109843233Y-85342748D01*
X109847194Y-85306027D01*
X109871550Y-85236212D01*
X109905456Y-85187302D01*
X109966653Y-85137878D01*
X110034063Y-85113359D01*
X110102880Y-85111797D01*
X110168303Y-85131239D01*
G37*
X110168303Y-85131239D02*
X110225527Y-85169735D01*
X110269749Y-85225335D01*
X110296167Y-85296086D01*
X110301510Y-85348162D01*
X110300903Y-85369893D01*
X110295822Y-85386531D01*
X110281855Y-85401437D01*
X110254589Y-85417973D01*
X110209612Y-85439498D01*
X110142511Y-85469374D01*
X110142171Y-85469524D01*
X110080407Y-85497813D01*
X110029759Y-85522933D01*
X109995404Y-85542179D01*
X109982518Y-85552848D01*
X109982514Y-85552934D01*
X109993872Y-85576166D01*
X110020431Y-85601774D01*
X110050923Y-85620221D01*
X110066370Y-85623886D01*
X110108515Y-85611212D01*
X110144808Y-85579471D01*
X110162517Y-85544572D01*
X110179552Y-85518845D01*
X110212922Y-85489546D01*
X110252149Y-85464235D01*
X110286756Y-85450471D01*
X110293993Y-85449714D01*
X110302139Y-85462160D01*
X110302630Y-85493972D01*
X110296643Y-85536866D01*
X110285357Y-85582558D01*
X110269950Y-85622761D01*
X110269171Y-85624322D01*
X110222804Y-85689062D01*
X110162711Y-85733097D01*
X110094465Y-85754711D01*
X110023638Y-85752185D01*
X109955804Y-85723804D01*
X109952788Y-85721808D01*
X109899427Y-85673448D01*
X109864340Y-85610352D01*
X109844922Y-85527387D01*
X109842316Y-85504078D01*
X109837701Y-85394055D01*
X109843233Y-85342748D01*
X109982514Y-85342748D01*
X109984324Y-85374753D01*
X109994222Y-85384093D01*
X110018898Y-85377105D01*
X110057795Y-85360587D01*
X110101275Y-85339881D01*
X110102356Y-85339333D01*
X110139209Y-85319949D01*
X110154000Y-85307013D01*
X110150353Y-85293451D01*
X110134995Y-85275632D01*
X110095923Y-85249845D01*
X110053846Y-85247950D01*
X110016103Y-85266717D01*
X109990034Y-85302915D01*
X109982514Y-85342748D01*
X109843233Y-85342748D01*
X109847194Y-85306027D01*
X109871550Y-85236212D01*
X109905456Y-85187302D01*
X109966653Y-85137878D01*
X110034063Y-85113359D01*
X110102880Y-85111797D01*
X110168303Y-85131239D01*
G36*
X109041115Y-85121962D02*
G01*
X109109145Y-85157733D01*
X109159351Y-85215301D01*
X109177185Y-85252312D01*
X109191063Y-85307882D01*
X109198167Y-85378096D01*
X109198840Y-85454727D01*
X109193427Y-85529552D01*
X109182270Y-85594342D01*
X109165714Y-85640873D01*
X109160626Y-85648887D01*
X109100355Y-85708707D01*
X109028769Y-85744535D01*
X108951092Y-85755020D01*
X108872548Y-85738810D01*
X108850689Y-85729092D01*
X108808122Y-85699143D01*
X108770763Y-85659433D01*
X108767232Y-85654397D01*
X108752881Y-85630124D01*
X108743394Y-85604178D01*
X108737790Y-85570022D01*
X108735086Y-85521119D01*
X108734299Y-85450935D01*
X108734286Y-85435200D01*
X108734322Y-85430192D01*
X108879429Y-85430192D01*
X108880273Y-85496430D01*
X108883596Y-85540386D01*
X108890583Y-85568779D01*
X108902416Y-85588325D01*
X108908457Y-85594857D01*
X108943186Y-85619680D01*
X108976903Y-85618548D01*
X109010995Y-85597016D01*
X109031329Y-85574029D01*
X109043371Y-85540478D01*
X109050134Y-85487569D01*
X109050598Y-85481399D01*
X109051752Y-85385513D01*
X109039688Y-85314299D01*
X109014570Y-85268194D01*
X108976560Y-85247635D01*
X108962992Y-85246514D01*
X108927364Y-85252152D01*
X108902994Y-85271686D01*
X108888093Y-85309042D01*
X108880875Y-85368150D01*
X108879429Y-85430192D01*
X108734322Y-85430192D01*
X108734826Y-85360413D01*
X108737096Y-85308159D01*
X108742068Y-85271949D01*
X108750713Y-85245299D01*
X108764005Y-85221722D01*
X108766943Y-85217338D01*
X108816313Y-85158249D01*
X108870109Y-85123947D01*
X108935602Y-85110331D01*
X108957842Y-85109665D01*
X109041115Y-85121962D01*
G37*
X109041115Y-85121962D02*
X109109145Y-85157733D01*
X109159351Y-85215301D01*
X109177185Y-85252312D01*
X109191063Y-85307882D01*
X109198167Y-85378096D01*
X109198840Y-85454727D01*
X109193427Y-85529552D01*
X109182270Y-85594342D01*
X109165714Y-85640873D01*
X109160626Y-85648887D01*
X109100355Y-85708707D01*
X109028769Y-85744535D01*
X108951092Y-85755020D01*
X108872548Y-85738810D01*
X108850689Y-85729092D01*
X108808122Y-85699143D01*
X108770763Y-85659433D01*
X108767232Y-85654397D01*
X108752881Y-85630124D01*
X108743394Y-85604178D01*
X108737790Y-85570022D01*
X108735086Y-85521119D01*
X108734299Y-85450935D01*
X108734286Y-85435200D01*
X108734322Y-85430192D01*
X108879429Y-85430192D01*
X108880273Y-85496430D01*
X108883596Y-85540386D01*
X108890583Y-85568779D01*
X108902416Y-85588325D01*
X108908457Y-85594857D01*
X108943186Y-85619680D01*
X108976903Y-85618548D01*
X109010995Y-85597016D01*
X109031329Y-85574029D01*
X109043371Y-85540478D01*
X109050134Y-85487569D01*
X109050598Y-85481399D01*
X109051752Y-85385513D01*
X109039688Y-85314299D01*
X109014570Y-85268194D01*
X108976560Y-85247635D01*
X108962992Y-85246514D01*
X108927364Y-85252152D01*
X108902994Y-85271686D01*
X108888093Y-85309042D01*
X108880875Y-85368150D01*
X108879429Y-85430192D01*
X108734322Y-85430192D01*
X108734826Y-85360413D01*
X108737096Y-85308159D01*
X108742068Y-85271949D01*
X108750713Y-85245299D01*
X108764005Y-85221722D01*
X108766943Y-85217338D01*
X108816313Y-85158249D01*
X108870109Y-85123947D01*
X108935602Y-85110331D01*
X108957842Y-85109665D01*
X109041115Y-85121962D01*
G36*
X110716093Y-85127780D02*
G01*
X110762672Y-85154723D01*
X110795057Y-85181466D01*
X110818742Y-85209484D01*
X110835059Y-85243748D01*
X110845339Y-85289227D01*
X110850914Y-85350892D01*
X110853116Y-85433711D01*
X110853371Y-85493246D01*
X110853371Y-85712391D01*
X110791686Y-85740044D01*
X110730000Y-85767697D01*
X110722743Y-85527670D01*
X110719744Y-85438028D01*
X110716598Y-85372962D01*
X110712701Y-85328026D01*
X110707447Y-85298770D01*
X110700231Y-85280748D01*
X110690450Y-85269511D01*
X110687312Y-85267079D01*
X110639761Y-85248083D01*
X110591697Y-85255600D01*
X110563086Y-85275543D01*
X110551447Y-85289675D01*
X110543391Y-85308220D01*
X110538271Y-85336334D01*
X110535441Y-85379173D01*
X110534256Y-85441895D01*
X110534057Y-85507261D01*
X110534018Y-85589268D01*
X110532614Y-85647316D01*
X110527914Y-85686465D01*
X110517987Y-85711780D01*
X110500903Y-85728323D01*
X110474732Y-85741156D01*
X110439775Y-85754491D01*
X110401596Y-85769007D01*
X110406141Y-85511389D01*
X110407971Y-85418519D01*
X110410112Y-85349889D01*
X110413181Y-85300711D01*
X110417794Y-85266198D01*
X110424568Y-85241562D01*
X110434119Y-85222016D01*
X110445634Y-85204770D01*
X110501190Y-85149680D01*
X110568980Y-85117822D01*
X110642713Y-85110191D01*
X110716093Y-85127780D01*
G37*
X110716093Y-85127780D02*
X110762672Y-85154723D01*
X110795057Y-85181466D01*
X110818742Y-85209484D01*
X110835059Y-85243748D01*
X110845339Y-85289227D01*
X110850914Y-85350892D01*
X110853116Y-85433711D01*
X110853371Y-85493246D01*
X110853371Y-85712391D01*
X110791686Y-85740044D01*
X110730000Y-85767697D01*
X110722743Y-85527670D01*
X110719744Y-85438028D01*
X110716598Y-85372962D01*
X110712701Y-85328026D01*
X110707447Y-85298770D01*
X110700231Y-85280748D01*
X110690450Y-85269511D01*
X110687312Y-85267079D01*
X110639761Y-85248083D01*
X110591697Y-85255600D01*
X110563086Y-85275543D01*
X110551447Y-85289675D01*
X110543391Y-85308220D01*
X110538271Y-85336334D01*
X110535441Y-85379173D01*
X110534256Y-85441895D01*
X110534057Y-85507261D01*
X110534018Y-85589268D01*
X110532614Y-85647316D01*
X110527914Y-85686465D01*
X110517987Y-85711780D01*
X110500903Y-85728323D01*
X110474732Y-85741156D01*
X110439775Y-85754491D01*
X110401596Y-85769007D01*
X110406141Y-85511389D01*
X110407971Y-85418519D01*
X110410112Y-85349889D01*
X110413181Y-85300711D01*
X110417794Y-85266198D01*
X110424568Y-85241562D01*
X110434119Y-85222016D01*
X110445634Y-85204770D01*
X110501190Y-85149680D01*
X110568980Y-85117822D01*
X110642713Y-85110191D01*
X110716093Y-85127780D01*
G36*
X109599744Y-85119918D02*
G01*
X109655201Y-85147568D01*
X109704148Y-85198480D01*
X109717629Y-85217338D01*
X109732314Y-85242015D01*
X109741842Y-85268816D01*
X109747293Y-85304587D01*
X109749747Y-85356169D01*
X109750286Y-85424267D01*
X109747852Y-85517588D01*
X109739394Y-85587657D01*
X109723174Y-85639931D01*
X109697454Y-85679869D01*
X109660497Y-85712929D01*
X109657782Y-85714886D01*
X109621360Y-85734908D01*
X109577502Y-85744815D01*
X109521724Y-85747257D01*
X109431048Y-85747257D01*
X109431010Y-85835283D01*
X109430166Y-85884308D01*
X109425024Y-85913065D01*
X109411587Y-85930311D01*
X109385858Y-85944808D01*
X109379679Y-85947769D01*
X109350764Y-85961648D01*
X109328376Y-85970414D01*
X109311729Y-85971171D01*
X109300036Y-85961023D01*
X109292510Y-85937073D01*
X109288366Y-85896426D01*
X109286815Y-85836186D01*
X109287071Y-85753455D01*
X109288349Y-85645339D01*
X109288748Y-85613000D01*
X109290185Y-85501524D01*
X109291472Y-85428603D01*
X109430971Y-85428603D01*
X109431755Y-85490499D01*
X109435240Y-85530997D01*
X109443124Y-85557708D01*
X109457105Y-85578244D01*
X109466597Y-85588260D01*
X109505404Y-85617567D01*
X109539763Y-85619952D01*
X109575216Y-85595750D01*
X109576114Y-85594857D01*
X109590539Y-85576153D01*
X109599313Y-85550732D01*
X109603739Y-85511584D01*
X109605118Y-85451697D01*
X109605143Y-85438430D01*
X109601812Y-85355901D01*
X109590969Y-85298691D01*
X109571340Y-85263766D01*
X109541650Y-85248094D01*
X109524491Y-85246514D01*
X109483766Y-85253926D01*
X109455832Y-85278330D01*
X109439017Y-85322980D01*
X109431650Y-85391130D01*
X109430971Y-85428603D01*
X109291472Y-85428603D01*
X109291708Y-85415245D01*
X109293677Y-85350333D01*
X109296450Y-85302958D01*
X109300388Y-85269290D01*
X109305849Y-85245498D01*
X109313192Y-85227753D01*
X109322777Y-85212224D01*
X109326887Y-85206381D01*
X109381405Y-85151185D01*
X109450336Y-85119890D01*
X109530072Y-85111165D01*
X109599744Y-85119918D01*
G37*
X109599744Y-85119918D02*
X109655201Y-85147568D01*
X109704148Y-85198480D01*
X109717629Y-85217338D01*
X109732314Y-85242015D01*
X109741842Y-85268816D01*
X109747293Y-85304587D01*
X109749747Y-85356169D01*
X109750286Y-85424267D01*
X109747852Y-85517588D01*
X109739394Y-85587657D01*
X109723174Y-85639931D01*
X109697454Y-85679869D01*
X109660497Y-85712929D01*
X109657782Y-85714886D01*
X109621360Y-85734908D01*
X109577502Y-85744815D01*
X109521724Y-85747257D01*
X109431048Y-85747257D01*
X109431010Y-85835283D01*
X109430166Y-85884308D01*
X109425024Y-85913065D01*
X109411587Y-85930311D01*
X109385858Y-85944808D01*
X109379679Y-85947769D01*
X109350764Y-85961648D01*
X109328376Y-85970414D01*
X109311729Y-85971171D01*
X109300036Y-85961023D01*
X109292510Y-85937073D01*
X109288366Y-85896426D01*
X109286815Y-85836186D01*
X109287071Y-85753455D01*
X109288349Y-85645339D01*
X109288748Y-85613000D01*
X109290185Y-85501524D01*
X109291472Y-85428603D01*
X109430971Y-85428603D01*
X109431755Y-85490499D01*
X109435240Y-85530997D01*
X109443124Y-85557708D01*
X109457105Y-85578244D01*
X109466597Y-85588260D01*
X109505404Y-85617567D01*
X109539763Y-85619952D01*
X109575216Y-85595750D01*
X109576114Y-85594857D01*
X109590539Y-85576153D01*
X109599313Y-85550732D01*
X109603739Y-85511584D01*
X109605118Y-85451697D01*
X109605143Y-85438430D01*
X109601812Y-85355901D01*
X109590969Y-85298691D01*
X109571340Y-85263766D01*
X109541650Y-85248094D01*
X109524491Y-85246514D01*
X109483766Y-85253926D01*
X109455832Y-85278330D01*
X109439017Y-85322980D01*
X109431650Y-85391130D01*
X109430971Y-85428603D01*
X109291472Y-85428603D01*
X109291708Y-85415245D01*
X109293677Y-85350333D01*
X109296450Y-85302958D01*
X109300388Y-85269290D01*
X109305849Y-85245498D01*
X109313192Y-85227753D01*
X109322777Y-85212224D01*
X109326887Y-85206381D01*
X109381405Y-85151185D01*
X109450336Y-85119890D01*
X109530072Y-85111165D01*
X109599744Y-85119918D01*
D10*
X111238095Y-49452380D02*
X111238095Y-50261904D01*
X111285714Y-50357142D01*
X111333333Y-50404761D01*
X111428571Y-50452380D01*
X111619047Y-50452380D01*
X111714285Y-50404761D01*
X111761904Y-50357142D01*
X111809523Y-50261904D01*
X111809523Y-49452380D01*
X112809523Y-50452380D02*
X112238095Y-50452380D01*
X112523809Y-50452380D02*
X112523809Y-49452380D01*
X112428571Y-49595238D01*
X112333333Y-49690476D01*
X112238095Y-49738095D01*
X129666666Y-42122380D02*
X129666666Y-42836666D01*
X129619047Y-42979523D01*
X129523809Y-43074761D01*
X129380952Y-43122380D01*
X129285714Y-43122380D01*
X130095238Y-42217619D02*
X130142857Y-42170000D01*
X130238095Y-42122380D01*
X130476190Y-42122380D01*
X130571428Y-42170000D01*
X130619047Y-42217619D01*
X130666666Y-42312857D01*
X130666666Y-42408095D01*
X130619047Y-42550952D01*
X130047619Y-43122380D01*
X130666666Y-43122380D01*
X94666666Y-42052380D02*
X94666666Y-42766666D01*
X94619047Y-42909523D01*
X94523809Y-43004761D01*
X94380952Y-43052380D01*
X94285714Y-43052380D01*
X95666666Y-43052380D02*
X95095238Y-43052380D01*
X95380952Y-43052380D02*
X95380952Y-42052380D01*
X95285714Y-42195238D01*
X95190476Y-42290476D01*
X95095238Y-42338095D01*
M02*
