G04 #@! TF.GenerationSoftware,KiCad,Pcbnew,(5.1.5)-3*
G04 #@! TF.CreationDate,2020-07-08T16:59:20-04:00*
G04 #@! TF.ProjectId,VFD Level Translator,56464420-4c65-4766-956c-205472616e73,rev?*
G04 #@! TF.SameCoordinates,Original*
G04 #@! TF.FileFunction,Copper,L1,Top*
G04 #@! TF.FilePolarity,Positive*
%FSLAX46Y46*%
G04 Gerber Fmt 4.6, Leading zero omitted, Abs format (unit mm)*
G04 Created by KiCad (PCBNEW (5.1.5)-3) date 2020-07-08 16:59:20*
%MOMM*%
%LPD*%
G04 APERTURE LIST*
%ADD10R,1.676400X0.279400*%
%ADD11C,0.100000*%
%ADD12O,1.700000X1.700000*%
%ADD13R,1.700000X1.700000*%
%ADD14C,0.508000*%
%ADD15C,0.254000*%
G04 APERTURE END LIST*
D10*
X135750300Y-60289999D03*
X135750300Y-60790000D03*
X135750300Y-61289999D03*
X135750300Y-61790001D03*
X135750300Y-62290000D03*
X135750300Y-62789999D03*
X135750300Y-63290000D03*
X135750300Y-63789999D03*
X135750300Y-64290001D03*
X135750300Y-64790000D03*
X135750300Y-65289999D03*
X135750300Y-65790000D03*
X135750300Y-66290000D03*
X135750300Y-66789998D03*
X135750300Y-67290000D03*
X135750300Y-67789999D03*
X135750300Y-68290001D03*
X135750300Y-68790000D03*
X135750300Y-69289999D03*
X135750300Y-69790000D03*
X135750300Y-70289999D03*
X135750300Y-70790001D03*
X135750300Y-71290000D03*
X135750300Y-71789999D03*
X128409700Y-71790001D03*
X128409700Y-71290000D03*
X128409700Y-70790001D03*
X128409700Y-70289999D03*
X128409700Y-69790000D03*
X128409700Y-69290001D03*
X128409700Y-68790000D03*
X128409700Y-68290001D03*
X128409700Y-67789999D03*
X128409700Y-67290000D03*
X128409700Y-66790001D03*
X128409700Y-66290000D03*
X128409700Y-65790000D03*
X128409700Y-65289999D03*
X128409700Y-64790000D03*
X128409700Y-64290001D03*
X128409700Y-63789999D03*
X128409700Y-63290000D03*
X128409700Y-62789999D03*
X128409700Y-62290000D03*
X128409700Y-61790001D03*
X128409700Y-61289999D03*
X128409700Y-60790000D03*
X128409700Y-60290001D03*
G04 #@! TA.AperFunction,SMDPad,CuDef*
D11*
G36*
X139287505Y-95821204D02*
G01*
X139311773Y-95824804D01*
X139335572Y-95830765D01*
X139358671Y-95839030D01*
X139380850Y-95849520D01*
X139401893Y-95862132D01*
X139421599Y-95876747D01*
X139439777Y-95893223D01*
X139456253Y-95911401D01*
X139470868Y-95931107D01*
X139483480Y-95952150D01*
X139493970Y-95974329D01*
X139502235Y-95997428D01*
X139508196Y-96021227D01*
X139511796Y-96045495D01*
X139513000Y-96069999D01*
X139513000Y-96970001D01*
X139511796Y-96994505D01*
X139508196Y-97018773D01*
X139502235Y-97042572D01*
X139493970Y-97065671D01*
X139483480Y-97087850D01*
X139470868Y-97108893D01*
X139456253Y-97128599D01*
X139439777Y-97146777D01*
X139421599Y-97163253D01*
X139401893Y-97177868D01*
X139380850Y-97190480D01*
X139358671Y-97200970D01*
X139335572Y-97209235D01*
X139311773Y-97215196D01*
X139287505Y-97218796D01*
X139263001Y-97220000D01*
X138612999Y-97220000D01*
X138588495Y-97218796D01*
X138564227Y-97215196D01*
X138540428Y-97209235D01*
X138517329Y-97200970D01*
X138495150Y-97190480D01*
X138474107Y-97177868D01*
X138454401Y-97163253D01*
X138436223Y-97146777D01*
X138419747Y-97128599D01*
X138405132Y-97108893D01*
X138392520Y-97087850D01*
X138382030Y-97065671D01*
X138373765Y-97042572D01*
X138367804Y-97018773D01*
X138364204Y-96994505D01*
X138363000Y-96970001D01*
X138363000Y-96069999D01*
X138364204Y-96045495D01*
X138367804Y-96021227D01*
X138373765Y-95997428D01*
X138382030Y-95974329D01*
X138392520Y-95952150D01*
X138405132Y-95931107D01*
X138419747Y-95911401D01*
X138436223Y-95893223D01*
X138454401Y-95876747D01*
X138474107Y-95862132D01*
X138495150Y-95849520D01*
X138517329Y-95839030D01*
X138540428Y-95830765D01*
X138564227Y-95824804D01*
X138588495Y-95821204D01*
X138612999Y-95820000D01*
X139263001Y-95820000D01*
X139287505Y-95821204D01*
G37*
G04 #@! TD.AperFunction*
G04 #@! TA.AperFunction,SMDPad,CuDef*
G36*
X137237505Y-95821204D02*
G01*
X137261773Y-95824804D01*
X137285572Y-95830765D01*
X137308671Y-95839030D01*
X137330850Y-95849520D01*
X137351893Y-95862132D01*
X137371599Y-95876747D01*
X137389777Y-95893223D01*
X137406253Y-95911401D01*
X137420868Y-95931107D01*
X137433480Y-95952150D01*
X137443970Y-95974329D01*
X137452235Y-95997428D01*
X137458196Y-96021227D01*
X137461796Y-96045495D01*
X137463000Y-96069999D01*
X137463000Y-96970001D01*
X137461796Y-96994505D01*
X137458196Y-97018773D01*
X137452235Y-97042572D01*
X137443970Y-97065671D01*
X137433480Y-97087850D01*
X137420868Y-97108893D01*
X137406253Y-97128599D01*
X137389777Y-97146777D01*
X137371599Y-97163253D01*
X137351893Y-97177868D01*
X137330850Y-97190480D01*
X137308671Y-97200970D01*
X137285572Y-97209235D01*
X137261773Y-97215196D01*
X137237505Y-97218796D01*
X137213001Y-97220000D01*
X136562999Y-97220000D01*
X136538495Y-97218796D01*
X136514227Y-97215196D01*
X136490428Y-97209235D01*
X136467329Y-97200970D01*
X136445150Y-97190480D01*
X136424107Y-97177868D01*
X136404401Y-97163253D01*
X136386223Y-97146777D01*
X136369747Y-97128599D01*
X136355132Y-97108893D01*
X136342520Y-97087850D01*
X136332030Y-97065671D01*
X136323765Y-97042572D01*
X136317804Y-97018773D01*
X136314204Y-96994505D01*
X136313000Y-96970001D01*
X136313000Y-96069999D01*
X136314204Y-96045495D01*
X136317804Y-96021227D01*
X136323765Y-95997428D01*
X136332030Y-95974329D01*
X136342520Y-95952150D01*
X136355132Y-95931107D01*
X136369747Y-95911401D01*
X136386223Y-95893223D01*
X136404401Y-95876747D01*
X136424107Y-95862132D01*
X136445150Y-95849520D01*
X136467329Y-95839030D01*
X136490428Y-95830765D01*
X136514227Y-95824804D01*
X136538495Y-95821204D01*
X136562999Y-95820000D01*
X137213001Y-95820000D01*
X137237505Y-95821204D01*
G37*
G04 #@! TD.AperFunction*
G04 #@! TA.AperFunction,SMDPad,CuDef*
G36*
X137509505Y-37401204D02*
G01*
X137533773Y-37404804D01*
X137557572Y-37410765D01*
X137580671Y-37419030D01*
X137602850Y-37429520D01*
X137623893Y-37442132D01*
X137643599Y-37456747D01*
X137661777Y-37473223D01*
X137678253Y-37491401D01*
X137692868Y-37511107D01*
X137705480Y-37532150D01*
X137715970Y-37554329D01*
X137724235Y-37577428D01*
X137730196Y-37601227D01*
X137733796Y-37625495D01*
X137735000Y-37649999D01*
X137735000Y-38550001D01*
X137733796Y-38574505D01*
X137730196Y-38598773D01*
X137724235Y-38622572D01*
X137715970Y-38645671D01*
X137705480Y-38667850D01*
X137692868Y-38688893D01*
X137678253Y-38708599D01*
X137661777Y-38726777D01*
X137643599Y-38743253D01*
X137623893Y-38757868D01*
X137602850Y-38770480D01*
X137580671Y-38780970D01*
X137557572Y-38789235D01*
X137533773Y-38795196D01*
X137509505Y-38798796D01*
X137485001Y-38800000D01*
X136834999Y-38800000D01*
X136810495Y-38798796D01*
X136786227Y-38795196D01*
X136762428Y-38789235D01*
X136739329Y-38780970D01*
X136717150Y-38770480D01*
X136696107Y-38757868D01*
X136676401Y-38743253D01*
X136658223Y-38726777D01*
X136641747Y-38708599D01*
X136627132Y-38688893D01*
X136614520Y-38667850D01*
X136604030Y-38645671D01*
X136595765Y-38622572D01*
X136589804Y-38598773D01*
X136586204Y-38574505D01*
X136585000Y-38550001D01*
X136585000Y-37649999D01*
X136586204Y-37625495D01*
X136589804Y-37601227D01*
X136595765Y-37577428D01*
X136604030Y-37554329D01*
X136614520Y-37532150D01*
X136627132Y-37511107D01*
X136641747Y-37491401D01*
X136658223Y-37473223D01*
X136676401Y-37456747D01*
X136696107Y-37442132D01*
X136717150Y-37429520D01*
X136739329Y-37419030D01*
X136762428Y-37410765D01*
X136786227Y-37404804D01*
X136810495Y-37401204D01*
X136834999Y-37400000D01*
X137485001Y-37400000D01*
X137509505Y-37401204D01*
G37*
G04 #@! TD.AperFunction*
G04 #@! TA.AperFunction,SMDPad,CuDef*
G36*
X135459505Y-37401204D02*
G01*
X135483773Y-37404804D01*
X135507572Y-37410765D01*
X135530671Y-37419030D01*
X135552850Y-37429520D01*
X135573893Y-37442132D01*
X135593599Y-37456747D01*
X135611777Y-37473223D01*
X135628253Y-37491401D01*
X135642868Y-37511107D01*
X135655480Y-37532150D01*
X135665970Y-37554329D01*
X135674235Y-37577428D01*
X135680196Y-37601227D01*
X135683796Y-37625495D01*
X135685000Y-37649999D01*
X135685000Y-38550001D01*
X135683796Y-38574505D01*
X135680196Y-38598773D01*
X135674235Y-38622572D01*
X135665970Y-38645671D01*
X135655480Y-38667850D01*
X135642868Y-38688893D01*
X135628253Y-38708599D01*
X135611777Y-38726777D01*
X135593599Y-38743253D01*
X135573893Y-38757868D01*
X135552850Y-38770480D01*
X135530671Y-38780970D01*
X135507572Y-38789235D01*
X135483773Y-38795196D01*
X135459505Y-38798796D01*
X135435001Y-38800000D01*
X134784999Y-38800000D01*
X134760495Y-38798796D01*
X134736227Y-38795196D01*
X134712428Y-38789235D01*
X134689329Y-38780970D01*
X134667150Y-38770480D01*
X134646107Y-38757868D01*
X134626401Y-38743253D01*
X134608223Y-38726777D01*
X134591747Y-38708599D01*
X134577132Y-38688893D01*
X134564520Y-38667850D01*
X134554030Y-38645671D01*
X134545765Y-38622572D01*
X134539804Y-38598773D01*
X134536204Y-38574505D01*
X134535000Y-38550001D01*
X134535000Y-37649999D01*
X134536204Y-37625495D01*
X134539804Y-37601227D01*
X134545765Y-37577428D01*
X134554030Y-37554329D01*
X134564520Y-37532150D01*
X134577132Y-37511107D01*
X134591747Y-37491401D01*
X134608223Y-37473223D01*
X134626401Y-37456747D01*
X134646107Y-37442132D01*
X134667150Y-37429520D01*
X134689329Y-37419030D01*
X134712428Y-37410765D01*
X134736227Y-37404804D01*
X134760495Y-37401204D01*
X134784999Y-37400000D01*
X135435001Y-37400000D01*
X135459505Y-37401204D01*
G37*
G04 #@! TD.AperFunction*
D12*
X144780000Y-96520000D03*
X144780000Y-93980000D03*
X144780000Y-91440000D03*
X144780000Y-88900000D03*
X144780000Y-86360000D03*
X144780000Y-83820000D03*
X144780000Y-81280000D03*
X144780000Y-78740000D03*
X144780000Y-76200000D03*
X144780000Y-73660000D03*
X144780000Y-71120000D03*
X144780000Y-68580000D03*
X144780000Y-66040000D03*
X144780000Y-63500000D03*
X144780000Y-60960000D03*
X144780000Y-58420000D03*
X144780000Y-55880000D03*
X144780000Y-53340000D03*
X144780000Y-50800000D03*
X144780000Y-48260000D03*
X144780000Y-45720000D03*
X144780000Y-43180000D03*
X144780000Y-40640000D03*
D13*
X144780000Y-38100000D03*
D12*
X119380000Y-96520000D03*
X119380000Y-93980000D03*
X119380000Y-91440000D03*
X119380000Y-88900000D03*
X119380000Y-86360000D03*
X119380000Y-83820000D03*
X119380000Y-81280000D03*
X119380000Y-78740000D03*
X119380000Y-76200000D03*
X119380000Y-73660000D03*
X119380000Y-71120000D03*
X119380000Y-68580000D03*
X119380000Y-66040000D03*
X119380000Y-63500000D03*
X119380000Y-60960000D03*
X119380000Y-58420000D03*
X119380000Y-55880000D03*
X119380000Y-53340000D03*
X119380000Y-50800000D03*
X119380000Y-48260000D03*
X119380000Y-45720000D03*
X119380000Y-43180000D03*
X119380000Y-40640000D03*
D13*
X119380000Y-38100000D03*
G04 #@! TA.AperFunction,SMDPad,CuDef*
D11*
G36*
X134383305Y-75390204D02*
G01*
X134407573Y-75393804D01*
X134431372Y-75399765D01*
X134454471Y-75408030D01*
X134476650Y-75418520D01*
X134497693Y-75431132D01*
X134517399Y-75445747D01*
X134535577Y-75462223D01*
X134552053Y-75480401D01*
X134566668Y-75500107D01*
X134579280Y-75521150D01*
X134589770Y-75543329D01*
X134598035Y-75566428D01*
X134603996Y-75590227D01*
X134607596Y-75614495D01*
X134608800Y-75638999D01*
X134608800Y-76289001D01*
X134607596Y-76313505D01*
X134603996Y-76337773D01*
X134598035Y-76361572D01*
X134589770Y-76384671D01*
X134579280Y-76406850D01*
X134566668Y-76427893D01*
X134552053Y-76447599D01*
X134535577Y-76465777D01*
X134517399Y-76482253D01*
X134497693Y-76496868D01*
X134476650Y-76509480D01*
X134454471Y-76519970D01*
X134431372Y-76528235D01*
X134407573Y-76534196D01*
X134383305Y-76537796D01*
X134358801Y-76539000D01*
X133458799Y-76539000D01*
X133434295Y-76537796D01*
X133410027Y-76534196D01*
X133386228Y-76528235D01*
X133363129Y-76519970D01*
X133340950Y-76509480D01*
X133319907Y-76496868D01*
X133300201Y-76482253D01*
X133282023Y-76465777D01*
X133265547Y-76447599D01*
X133250932Y-76427893D01*
X133238320Y-76406850D01*
X133227830Y-76384671D01*
X133219565Y-76361572D01*
X133213604Y-76337773D01*
X133210004Y-76313505D01*
X133208800Y-76289001D01*
X133208800Y-75638999D01*
X133210004Y-75614495D01*
X133213604Y-75590227D01*
X133219565Y-75566428D01*
X133227830Y-75543329D01*
X133238320Y-75521150D01*
X133250932Y-75500107D01*
X133265547Y-75480401D01*
X133282023Y-75462223D01*
X133300201Y-75445747D01*
X133319907Y-75431132D01*
X133340950Y-75418520D01*
X133363129Y-75408030D01*
X133386228Y-75399765D01*
X133410027Y-75393804D01*
X133434295Y-75390204D01*
X133458799Y-75389000D01*
X134358801Y-75389000D01*
X134383305Y-75390204D01*
G37*
G04 #@! TD.AperFunction*
G04 #@! TA.AperFunction,SMDPad,CuDef*
G36*
X134383305Y-73340204D02*
G01*
X134407573Y-73343804D01*
X134431372Y-73349765D01*
X134454471Y-73358030D01*
X134476650Y-73368520D01*
X134497693Y-73381132D01*
X134517399Y-73395747D01*
X134535577Y-73412223D01*
X134552053Y-73430401D01*
X134566668Y-73450107D01*
X134579280Y-73471150D01*
X134589770Y-73493329D01*
X134598035Y-73516428D01*
X134603996Y-73540227D01*
X134607596Y-73564495D01*
X134608800Y-73588999D01*
X134608800Y-74239001D01*
X134607596Y-74263505D01*
X134603996Y-74287773D01*
X134598035Y-74311572D01*
X134589770Y-74334671D01*
X134579280Y-74356850D01*
X134566668Y-74377893D01*
X134552053Y-74397599D01*
X134535577Y-74415777D01*
X134517399Y-74432253D01*
X134497693Y-74446868D01*
X134476650Y-74459480D01*
X134454471Y-74469970D01*
X134431372Y-74478235D01*
X134407573Y-74484196D01*
X134383305Y-74487796D01*
X134358801Y-74489000D01*
X133458799Y-74489000D01*
X133434295Y-74487796D01*
X133410027Y-74484196D01*
X133386228Y-74478235D01*
X133363129Y-74469970D01*
X133340950Y-74459480D01*
X133319907Y-74446868D01*
X133300201Y-74432253D01*
X133282023Y-74415777D01*
X133265547Y-74397599D01*
X133250932Y-74377893D01*
X133238320Y-74356850D01*
X133227830Y-74334671D01*
X133219565Y-74311572D01*
X133213604Y-74287773D01*
X133210004Y-74263505D01*
X133208800Y-74239001D01*
X133208800Y-73588999D01*
X133210004Y-73564495D01*
X133213604Y-73540227D01*
X133219565Y-73516428D01*
X133227830Y-73493329D01*
X133238320Y-73471150D01*
X133250932Y-73450107D01*
X133265547Y-73430401D01*
X133282023Y-73412223D01*
X133300201Y-73395747D01*
X133319907Y-73381132D01*
X133340950Y-73368520D01*
X133363129Y-73358030D01*
X133386228Y-73349765D01*
X133410027Y-73343804D01*
X133434295Y-73340204D01*
X133458799Y-73339000D01*
X134358801Y-73339000D01*
X134383305Y-73340204D01*
G37*
G04 #@! TD.AperFunction*
G04 #@! TA.AperFunction,SMDPad,CuDef*
G36*
X130776505Y-55542204D02*
G01*
X130800773Y-55545804D01*
X130824572Y-55551765D01*
X130847671Y-55560030D01*
X130869850Y-55570520D01*
X130890893Y-55583132D01*
X130910599Y-55597747D01*
X130928777Y-55614223D01*
X130945253Y-55632401D01*
X130959868Y-55652107D01*
X130972480Y-55673150D01*
X130982970Y-55695329D01*
X130991235Y-55718428D01*
X130997196Y-55742227D01*
X131000796Y-55766495D01*
X131002000Y-55790999D01*
X131002000Y-56441001D01*
X131000796Y-56465505D01*
X130997196Y-56489773D01*
X130991235Y-56513572D01*
X130982970Y-56536671D01*
X130972480Y-56558850D01*
X130959868Y-56579893D01*
X130945253Y-56599599D01*
X130928777Y-56617777D01*
X130910599Y-56634253D01*
X130890893Y-56648868D01*
X130869850Y-56661480D01*
X130847671Y-56671970D01*
X130824572Y-56680235D01*
X130800773Y-56686196D01*
X130776505Y-56689796D01*
X130752001Y-56691000D01*
X129851999Y-56691000D01*
X129827495Y-56689796D01*
X129803227Y-56686196D01*
X129779428Y-56680235D01*
X129756329Y-56671970D01*
X129734150Y-56661480D01*
X129713107Y-56648868D01*
X129693401Y-56634253D01*
X129675223Y-56617777D01*
X129658747Y-56599599D01*
X129644132Y-56579893D01*
X129631520Y-56558850D01*
X129621030Y-56536671D01*
X129612765Y-56513572D01*
X129606804Y-56489773D01*
X129603204Y-56465505D01*
X129602000Y-56441001D01*
X129602000Y-55790999D01*
X129603204Y-55766495D01*
X129606804Y-55742227D01*
X129612765Y-55718428D01*
X129621030Y-55695329D01*
X129631520Y-55673150D01*
X129644132Y-55652107D01*
X129658747Y-55632401D01*
X129675223Y-55614223D01*
X129693401Y-55597747D01*
X129713107Y-55583132D01*
X129734150Y-55570520D01*
X129756329Y-55560030D01*
X129779428Y-55551765D01*
X129803227Y-55545804D01*
X129827495Y-55542204D01*
X129851999Y-55541000D01*
X130752001Y-55541000D01*
X130776505Y-55542204D01*
G37*
G04 #@! TD.AperFunction*
G04 #@! TA.AperFunction,SMDPad,CuDef*
G36*
X130776505Y-57592204D02*
G01*
X130800773Y-57595804D01*
X130824572Y-57601765D01*
X130847671Y-57610030D01*
X130869850Y-57620520D01*
X130890893Y-57633132D01*
X130910599Y-57647747D01*
X130928777Y-57664223D01*
X130945253Y-57682401D01*
X130959868Y-57702107D01*
X130972480Y-57723150D01*
X130982970Y-57745329D01*
X130991235Y-57768428D01*
X130997196Y-57792227D01*
X131000796Y-57816495D01*
X131002000Y-57840999D01*
X131002000Y-58491001D01*
X131000796Y-58515505D01*
X130997196Y-58539773D01*
X130991235Y-58563572D01*
X130982970Y-58586671D01*
X130972480Y-58608850D01*
X130959868Y-58629893D01*
X130945253Y-58649599D01*
X130928777Y-58667777D01*
X130910599Y-58684253D01*
X130890893Y-58698868D01*
X130869850Y-58711480D01*
X130847671Y-58721970D01*
X130824572Y-58730235D01*
X130800773Y-58736196D01*
X130776505Y-58739796D01*
X130752001Y-58741000D01*
X129851999Y-58741000D01*
X129827495Y-58739796D01*
X129803227Y-58736196D01*
X129779428Y-58730235D01*
X129756329Y-58721970D01*
X129734150Y-58711480D01*
X129713107Y-58698868D01*
X129693401Y-58684253D01*
X129675223Y-58667777D01*
X129658747Y-58649599D01*
X129644132Y-58629893D01*
X129631520Y-58608850D01*
X129621030Y-58586671D01*
X129612765Y-58563572D01*
X129606804Y-58539773D01*
X129603204Y-58515505D01*
X129602000Y-58491001D01*
X129602000Y-57840999D01*
X129603204Y-57816495D01*
X129606804Y-57792227D01*
X129612765Y-57768428D01*
X129621030Y-57745329D01*
X129631520Y-57723150D01*
X129644132Y-57702107D01*
X129658747Y-57682401D01*
X129675223Y-57664223D01*
X129693401Y-57647747D01*
X129713107Y-57633132D01*
X129734150Y-57620520D01*
X129756329Y-57610030D01*
X129779428Y-57601765D01*
X129803227Y-57595804D01*
X129827495Y-57592204D01*
X129851999Y-57591000D01*
X130752001Y-57591000D01*
X130776505Y-57592204D01*
G37*
G04 #@! TD.AperFunction*
G04 #@! TA.AperFunction,SMDPad,CuDef*
G36*
X134307105Y-55542204D02*
G01*
X134331373Y-55545804D01*
X134355172Y-55551765D01*
X134378271Y-55560030D01*
X134400450Y-55570520D01*
X134421493Y-55583132D01*
X134441199Y-55597747D01*
X134459377Y-55614223D01*
X134475853Y-55632401D01*
X134490468Y-55652107D01*
X134503080Y-55673150D01*
X134513570Y-55695329D01*
X134521835Y-55718428D01*
X134527796Y-55742227D01*
X134531396Y-55766495D01*
X134532600Y-55790999D01*
X134532600Y-56441001D01*
X134531396Y-56465505D01*
X134527796Y-56489773D01*
X134521835Y-56513572D01*
X134513570Y-56536671D01*
X134503080Y-56558850D01*
X134490468Y-56579893D01*
X134475853Y-56599599D01*
X134459377Y-56617777D01*
X134441199Y-56634253D01*
X134421493Y-56648868D01*
X134400450Y-56661480D01*
X134378271Y-56671970D01*
X134355172Y-56680235D01*
X134331373Y-56686196D01*
X134307105Y-56689796D01*
X134282601Y-56691000D01*
X133382599Y-56691000D01*
X133358095Y-56689796D01*
X133333827Y-56686196D01*
X133310028Y-56680235D01*
X133286929Y-56671970D01*
X133264750Y-56661480D01*
X133243707Y-56648868D01*
X133224001Y-56634253D01*
X133205823Y-56617777D01*
X133189347Y-56599599D01*
X133174732Y-56579893D01*
X133162120Y-56558850D01*
X133151630Y-56536671D01*
X133143365Y-56513572D01*
X133137404Y-56489773D01*
X133133804Y-56465505D01*
X133132600Y-56441001D01*
X133132600Y-55790999D01*
X133133804Y-55766495D01*
X133137404Y-55742227D01*
X133143365Y-55718428D01*
X133151630Y-55695329D01*
X133162120Y-55673150D01*
X133174732Y-55652107D01*
X133189347Y-55632401D01*
X133205823Y-55614223D01*
X133224001Y-55597747D01*
X133243707Y-55583132D01*
X133264750Y-55570520D01*
X133286929Y-55560030D01*
X133310028Y-55551765D01*
X133333827Y-55545804D01*
X133358095Y-55542204D01*
X133382599Y-55541000D01*
X134282601Y-55541000D01*
X134307105Y-55542204D01*
G37*
G04 #@! TD.AperFunction*
G04 #@! TA.AperFunction,SMDPad,CuDef*
G36*
X134307105Y-57592204D02*
G01*
X134331373Y-57595804D01*
X134355172Y-57601765D01*
X134378271Y-57610030D01*
X134400450Y-57620520D01*
X134421493Y-57633132D01*
X134441199Y-57647747D01*
X134459377Y-57664223D01*
X134475853Y-57682401D01*
X134490468Y-57702107D01*
X134503080Y-57723150D01*
X134513570Y-57745329D01*
X134521835Y-57768428D01*
X134527796Y-57792227D01*
X134531396Y-57816495D01*
X134532600Y-57840999D01*
X134532600Y-58491001D01*
X134531396Y-58515505D01*
X134527796Y-58539773D01*
X134521835Y-58563572D01*
X134513570Y-58586671D01*
X134503080Y-58608850D01*
X134490468Y-58629893D01*
X134475853Y-58649599D01*
X134459377Y-58667777D01*
X134441199Y-58684253D01*
X134421493Y-58698868D01*
X134400450Y-58711480D01*
X134378271Y-58721970D01*
X134355172Y-58730235D01*
X134331373Y-58736196D01*
X134307105Y-58739796D01*
X134282601Y-58741000D01*
X133382599Y-58741000D01*
X133358095Y-58739796D01*
X133333827Y-58736196D01*
X133310028Y-58730235D01*
X133286929Y-58721970D01*
X133264750Y-58711480D01*
X133243707Y-58698868D01*
X133224001Y-58684253D01*
X133205823Y-58667777D01*
X133189347Y-58649599D01*
X133174732Y-58629893D01*
X133162120Y-58608850D01*
X133151630Y-58586671D01*
X133143365Y-58563572D01*
X133137404Y-58539773D01*
X133133804Y-58515505D01*
X133132600Y-58491001D01*
X133132600Y-57840999D01*
X133133804Y-57816495D01*
X133137404Y-57792227D01*
X133143365Y-57768428D01*
X133151630Y-57745329D01*
X133162120Y-57723150D01*
X133174732Y-57702107D01*
X133189347Y-57682401D01*
X133205823Y-57664223D01*
X133224001Y-57647747D01*
X133243707Y-57633132D01*
X133264750Y-57620520D01*
X133286929Y-57610030D01*
X133310028Y-57601765D01*
X133333827Y-57595804D01*
X133358095Y-57592204D01*
X133382599Y-57591000D01*
X134282601Y-57591000D01*
X134307105Y-57592204D01*
G37*
G04 #@! TD.AperFunction*
G04 #@! TA.AperFunction,SMDPad,CuDef*
G36*
X130776505Y-75390204D02*
G01*
X130800773Y-75393804D01*
X130824572Y-75399765D01*
X130847671Y-75408030D01*
X130869850Y-75418520D01*
X130890893Y-75431132D01*
X130910599Y-75445747D01*
X130928777Y-75462223D01*
X130945253Y-75480401D01*
X130959868Y-75500107D01*
X130972480Y-75521150D01*
X130982970Y-75543329D01*
X130991235Y-75566428D01*
X130997196Y-75590227D01*
X131000796Y-75614495D01*
X131002000Y-75638999D01*
X131002000Y-76289001D01*
X131000796Y-76313505D01*
X130997196Y-76337773D01*
X130991235Y-76361572D01*
X130982970Y-76384671D01*
X130972480Y-76406850D01*
X130959868Y-76427893D01*
X130945253Y-76447599D01*
X130928777Y-76465777D01*
X130910599Y-76482253D01*
X130890893Y-76496868D01*
X130869850Y-76509480D01*
X130847671Y-76519970D01*
X130824572Y-76528235D01*
X130800773Y-76534196D01*
X130776505Y-76537796D01*
X130752001Y-76539000D01*
X129851999Y-76539000D01*
X129827495Y-76537796D01*
X129803227Y-76534196D01*
X129779428Y-76528235D01*
X129756329Y-76519970D01*
X129734150Y-76509480D01*
X129713107Y-76496868D01*
X129693401Y-76482253D01*
X129675223Y-76465777D01*
X129658747Y-76447599D01*
X129644132Y-76427893D01*
X129631520Y-76406850D01*
X129621030Y-76384671D01*
X129612765Y-76361572D01*
X129606804Y-76337773D01*
X129603204Y-76313505D01*
X129602000Y-76289001D01*
X129602000Y-75638999D01*
X129603204Y-75614495D01*
X129606804Y-75590227D01*
X129612765Y-75566428D01*
X129621030Y-75543329D01*
X129631520Y-75521150D01*
X129644132Y-75500107D01*
X129658747Y-75480401D01*
X129675223Y-75462223D01*
X129693401Y-75445747D01*
X129713107Y-75431132D01*
X129734150Y-75418520D01*
X129756329Y-75408030D01*
X129779428Y-75399765D01*
X129803227Y-75393804D01*
X129827495Y-75390204D01*
X129851999Y-75389000D01*
X130752001Y-75389000D01*
X130776505Y-75390204D01*
G37*
G04 #@! TD.AperFunction*
G04 #@! TA.AperFunction,SMDPad,CuDef*
G36*
X130776505Y-73340204D02*
G01*
X130800773Y-73343804D01*
X130824572Y-73349765D01*
X130847671Y-73358030D01*
X130869850Y-73368520D01*
X130890893Y-73381132D01*
X130910599Y-73395747D01*
X130928777Y-73412223D01*
X130945253Y-73430401D01*
X130959868Y-73450107D01*
X130972480Y-73471150D01*
X130982970Y-73493329D01*
X130991235Y-73516428D01*
X130997196Y-73540227D01*
X131000796Y-73564495D01*
X131002000Y-73588999D01*
X131002000Y-74239001D01*
X131000796Y-74263505D01*
X130997196Y-74287773D01*
X130991235Y-74311572D01*
X130982970Y-74334671D01*
X130972480Y-74356850D01*
X130959868Y-74377893D01*
X130945253Y-74397599D01*
X130928777Y-74415777D01*
X130910599Y-74432253D01*
X130890893Y-74446868D01*
X130869850Y-74459480D01*
X130847671Y-74469970D01*
X130824572Y-74478235D01*
X130800773Y-74484196D01*
X130776505Y-74487796D01*
X130752001Y-74489000D01*
X129851999Y-74489000D01*
X129827495Y-74487796D01*
X129803227Y-74484196D01*
X129779428Y-74478235D01*
X129756329Y-74469970D01*
X129734150Y-74459480D01*
X129713107Y-74446868D01*
X129693401Y-74432253D01*
X129675223Y-74415777D01*
X129658747Y-74397599D01*
X129644132Y-74377893D01*
X129631520Y-74356850D01*
X129621030Y-74334671D01*
X129612765Y-74311572D01*
X129606804Y-74287773D01*
X129603204Y-74263505D01*
X129602000Y-74239001D01*
X129602000Y-73588999D01*
X129603204Y-73564495D01*
X129606804Y-73540227D01*
X129612765Y-73516428D01*
X129621030Y-73493329D01*
X129631520Y-73471150D01*
X129644132Y-73450107D01*
X129658747Y-73430401D01*
X129675223Y-73412223D01*
X129693401Y-73395747D01*
X129713107Y-73381132D01*
X129734150Y-73368520D01*
X129756329Y-73358030D01*
X129779428Y-73349765D01*
X129803227Y-73343804D01*
X129827495Y-73340204D01*
X129851999Y-73339000D01*
X130752001Y-73339000D01*
X130776505Y-73340204D01*
G37*
G04 #@! TD.AperFunction*
D14*
X129032000Y-56108600D03*
X130302000Y-53594000D03*
X132080000Y-56134000D03*
X135382000Y-56134000D03*
X133832600Y-53594000D03*
X135128000Y-36576000D03*
X133731000Y-38100000D03*
X135128000Y-39624000D03*
X132080000Y-75946000D03*
X128778000Y-75946000D03*
X130302000Y-78359000D03*
X133908800Y-78359000D03*
X135382000Y-75946000D03*
X134366000Y-61785500D03*
X129794000Y-70294500D03*
X129794000Y-67310000D03*
X134442210Y-70272489D03*
X134442200Y-67310000D03*
X134454900Y-64795400D03*
X129730500Y-61785500D03*
X129794000Y-64770000D03*
D15*
X135750300Y-61790001D02*
X134370501Y-61790001D01*
X134370501Y-61790001D02*
X134366000Y-61785500D01*
X128409700Y-70289999D02*
X129789499Y-70289999D01*
X129789499Y-70289999D02*
X129794000Y-70294500D01*
X128409700Y-67290000D02*
X129774000Y-67290000D01*
X129774000Y-67290000D02*
X129794000Y-67310000D01*
X134459720Y-70289999D02*
X134442210Y-70272489D01*
X135750300Y-70289999D02*
X134459720Y-70289999D01*
X135750300Y-67290000D02*
X134462200Y-67290000D01*
X134462200Y-67290000D02*
X134442200Y-67310000D01*
X135750300Y-64790000D02*
X134460300Y-64790000D01*
X134460300Y-64790000D02*
X134454900Y-64795400D01*
X128409700Y-61790001D02*
X129725999Y-61790001D01*
X129725999Y-61790001D02*
X129730500Y-61785500D01*
X128409700Y-64790000D02*
X125737300Y-64790000D01*
X125737300Y-64790000D02*
X125361700Y-64414400D01*
X129774000Y-64790000D02*
X129794000Y-64770000D01*
X128409700Y-64790000D02*
X129774000Y-64790000D01*
X125095000Y-61950600D02*
X125095000Y-53975000D01*
X128409700Y-63290000D02*
X126434400Y-63290000D01*
X125095000Y-53975000D02*
X124460000Y-53340000D01*
X126434400Y-63290000D02*
X125095000Y-61950600D01*
X122224800Y-53340000D02*
X122021600Y-53340000D01*
X122021600Y-53340000D02*
X119380000Y-53340000D01*
X124460000Y-53340000D02*
X122402600Y-53340000D01*
X122402600Y-53340000D02*
X122224800Y-53340000D01*
X127317500Y-68790000D02*
X127310700Y-68783200D01*
X128409700Y-68790000D02*
X127317500Y-68790000D01*
X127310700Y-68783200D02*
X124993400Y-68783200D01*
X124993400Y-68783200D02*
X123596400Y-70180200D01*
X123596400Y-70180200D02*
X123596400Y-79603600D01*
X121920000Y-81280000D02*
X119380000Y-81280000D01*
X123596400Y-79603600D02*
X121920000Y-81280000D01*
X130302000Y-73914000D02*
X130302000Y-69088000D01*
X130004000Y-68790000D02*
X128409700Y-68790000D01*
X130302000Y-69088000D02*
X130004000Y-68790000D01*
X130004000Y-63290000D02*
X128409700Y-63290000D01*
X130302000Y-58166000D02*
X130302000Y-62992000D01*
X130302000Y-62992000D02*
X130004000Y-63290000D01*
X131191000Y-73914000D02*
X130302000Y-73914000D01*
X131508500Y-73596500D02*
X131191000Y-73914000D01*
X131508500Y-58672500D02*
X131508500Y-73596500D01*
X130302000Y-58166000D02*
X131002000Y-58166000D01*
X131002000Y-58166000D02*
X131508500Y-58672500D01*
X136842500Y-63290000D02*
X136849300Y-63296800D01*
X135750300Y-63290000D02*
X136842500Y-63290000D01*
X136849300Y-63296800D02*
X136956800Y-63296800D01*
X136956800Y-63296800D02*
X139141200Y-61112400D01*
X139141200Y-61112400D02*
X139141200Y-53924200D01*
X139725400Y-53340000D02*
X144780000Y-53340000D01*
X139141200Y-53924200D02*
X139725400Y-53340000D01*
X136842500Y-68790000D02*
X136849300Y-68783200D01*
X135750300Y-68790000D02*
X136842500Y-68790000D01*
X136849300Y-68783200D02*
X140792200Y-68783200D01*
X140792200Y-68783200D02*
X141833600Y-69824600D01*
X141833600Y-69824600D02*
X141833600Y-80137000D01*
X142976600Y-81280000D02*
X144780000Y-81280000D01*
X141833600Y-80137000D02*
X142976600Y-81280000D01*
X134130600Y-63290000D02*
X135750300Y-63290000D01*
X133832600Y-58166000D02*
X133832600Y-62992000D01*
X133832600Y-62992000D02*
X134130600Y-63290000D01*
X134206800Y-68790000D02*
X135750300Y-68790000D01*
X133908800Y-73850500D02*
X133908800Y-69088000D01*
X133908800Y-69088000D02*
X134206800Y-68790000D01*
X133132600Y-58166000D02*
X132715000Y-58583600D01*
X132715000Y-58583600D02*
X132715000Y-73634600D01*
X132994400Y-73914000D02*
X133908800Y-73914000D01*
X133832600Y-58166000D02*
X133132600Y-58166000D01*
X132715000Y-73634600D02*
X132994400Y-73914000D01*
X128409700Y-71790001D02*
X125847399Y-71790001D01*
X125847399Y-71790001D02*
X125501400Y-72136000D01*
X125501400Y-72136000D02*
X125501400Y-92938600D01*
X121920000Y-96520000D02*
X119380000Y-96520000D01*
X125501400Y-92938600D02*
X121920000Y-96520000D01*
X123336971Y-66040000D02*
X119380000Y-66040000D01*
X128409700Y-65790000D02*
X128303401Y-65896299D01*
X127355608Y-65908990D02*
X123467981Y-65908990D01*
X128303401Y-65896299D02*
X127368299Y-65896299D01*
X127368299Y-65896299D02*
X127355608Y-65908990D01*
X123467981Y-65908990D02*
X123336971Y-66040000D01*
X124726700Y-65290700D02*
X122936000Y-63500000D01*
X127316799Y-65290700D02*
X124726700Y-65290700D01*
X128409700Y-65289999D02*
X127317500Y-65289999D01*
X122936000Y-63500000D02*
X119380000Y-63500000D01*
X127317500Y-65289999D02*
X127316799Y-65290700D01*
X127317500Y-64290001D02*
X127314899Y-64287400D01*
X128409700Y-64290001D02*
X127317500Y-64290001D01*
X127314899Y-64287400D02*
X126314200Y-64287400D01*
X126314200Y-64287400D02*
X124333000Y-62306200D01*
X124333000Y-62306200D02*
X124333000Y-58801000D01*
X123952000Y-58420000D02*
X119380000Y-58420000D01*
X124333000Y-58801000D02*
X123952000Y-58420000D01*
X128409700Y-63789999D02*
X126375599Y-63789999D01*
X126375599Y-63789999D02*
X124714000Y-62128400D01*
X124714000Y-62128400D02*
X124714000Y-56388000D01*
X124206000Y-55880000D02*
X119380000Y-55880000D01*
X124714000Y-56388000D02*
X124206000Y-55880000D01*
X127317500Y-68290001D02*
X127306901Y-68300600D01*
X128409700Y-68290001D02*
X127317500Y-68290001D01*
X127306901Y-68300600D02*
X124917200Y-68300600D01*
X124917200Y-68300600D02*
X123215400Y-70002400D01*
X123215400Y-70002400D02*
X123215400Y-77444600D01*
X121920000Y-78740000D02*
X119380000Y-78740000D01*
X123215400Y-77444600D02*
X121920000Y-78740000D01*
X121945400Y-76200000D02*
X119380000Y-76200000D01*
X122809000Y-75336400D02*
X121945400Y-76200000D01*
X127317500Y-67789999D02*
X127314899Y-67792600D01*
X128409700Y-67789999D02*
X127317500Y-67789999D01*
X127314899Y-67792600D02*
X124866400Y-67792600D01*
X124866400Y-67792600D02*
X122809000Y-69850000D01*
X122809000Y-69850000D02*
X122809000Y-75336400D01*
X127317500Y-66790001D02*
X127316799Y-66789300D01*
X128409700Y-66790001D02*
X127317500Y-66790001D01*
X127316799Y-66789300D02*
X123685300Y-66789300D01*
X123685300Y-66789300D02*
X121920000Y-68554600D01*
X121920000Y-68554600D02*
X121920000Y-70358000D01*
X121158000Y-71120000D02*
X119380000Y-71120000D01*
X121920000Y-70358000D02*
X121158000Y-71120000D01*
X121335800Y-68580000D02*
X119380000Y-68580000D01*
X128409700Y-66290000D02*
X123625800Y-66290000D01*
X123625800Y-66290000D02*
X121335800Y-68580000D01*
X127317500Y-62789999D02*
X127316301Y-62788800D01*
X128409700Y-62789999D02*
X127317500Y-62789999D01*
X125476000Y-61772800D02*
X125476000Y-51308000D01*
X125476000Y-51308000D02*
X124968000Y-50800000D01*
X127316301Y-62788800D02*
X126492000Y-62788800D01*
X124968000Y-50800000D02*
X119380000Y-50800000D01*
X126492000Y-62788800D02*
X125476000Y-61772800D01*
X125145800Y-48260000D02*
X119380000Y-48260000D01*
X125857000Y-48971200D02*
X125145800Y-48260000D01*
X127317500Y-62290000D02*
X127308300Y-62280800D01*
X126542800Y-62280800D02*
X125857000Y-61595000D01*
X125857000Y-61595000D02*
X125857000Y-48971200D01*
X128409700Y-62290000D02*
X127317500Y-62290000D01*
X127308300Y-62280800D02*
X126542800Y-62280800D01*
X127317500Y-61289999D02*
X127317299Y-61290200D01*
X128409700Y-61289999D02*
X127317500Y-61289999D01*
X127317299Y-61290200D02*
X127101600Y-61290200D01*
X127101600Y-61290200D02*
X126238000Y-60426600D01*
X126238000Y-60426600D02*
X126238000Y-43637200D01*
X125780800Y-43180000D02*
X119380000Y-43180000D01*
X126238000Y-43637200D02*
X125780800Y-43180000D01*
X126619000Y-42087800D02*
X125171200Y-40640000D01*
X125171200Y-40640000D02*
X119380000Y-40640000D01*
X126619000Y-60248800D02*
X126619000Y-42087800D01*
X127152400Y-60782200D02*
X126619000Y-60248800D01*
X127160200Y-60790000D02*
X127152400Y-60782200D01*
X128409700Y-60790000D02*
X127160200Y-60790000D01*
X126085600Y-38100000D02*
X119380000Y-38100000D01*
X127000000Y-60071000D02*
X127000000Y-39014400D01*
X128409700Y-60290001D02*
X127219001Y-60290001D01*
X127000000Y-39014400D02*
X126085600Y-38100000D01*
X127219001Y-60290001D02*
X127000000Y-60071000D01*
X138938000Y-96520000D02*
X144780000Y-96520000D01*
X138938000Y-72297999D02*
X138938000Y-96520000D01*
X135750300Y-71789999D02*
X138430000Y-71789999D01*
X138430000Y-71789999D02*
X138938000Y-72297999D01*
X143535400Y-93980000D02*
X144780000Y-93980000D01*
X142976600Y-91998800D02*
X142976600Y-93421200D01*
X142976600Y-93421200D02*
X143535400Y-93980000D01*
X140309600Y-89331800D02*
X142976600Y-91998800D01*
X136842500Y-71290000D02*
X136847400Y-71285100D01*
X135750300Y-71290000D02*
X136842500Y-71290000D01*
X136847400Y-71285100D02*
X140093700Y-71285100D01*
X140093700Y-71285100D02*
X140309600Y-71501000D01*
X140309600Y-71501000D02*
X140309600Y-89331800D01*
X135750300Y-70790001D02*
X140208201Y-70790001D01*
X140208201Y-70790001D02*
X140690600Y-71272400D01*
X140690600Y-71272400D02*
X140690600Y-89154000D01*
X142976600Y-91440000D02*
X144780000Y-91440000D01*
X140690600Y-89154000D02*
X142976600Y-91440000D01*
X135750300Y-69790000D02*
X140656000Y-69790000D01*
X140656000Y-69790000D02*
X141071600Y-70205600D01*
X141071600Y-70205600D02*
X141071600Y-84455000D01*
X142976600Y-86360000D02*
X144780000Y-86360000D01*
X141071600Y-84455000D02*
X142976600Y-86360000D01*
X135750300Y-69289999D02*
X140714799Y-69289999D01*
X140714799Y-69289999D02*
X141452600Y-70027800D01*
X141452600Y-70027800D02*
X141452600Y-82296000D01*
X142976600Y-83820000D02*
X144780000Y-83820000D01*
X141452600Y-82296000D02*
X142976600Y-83820000D01*
X135750300Y-68290001D02*
X140857801Y-68290001D01*
X140857801Y-68290001D02*
X142214600Y-69646800D01*
X142214600Y-69646800D02*
X142214600Y-77978000D01*
X142976600Y-78740000D02*
X144780000Y-78740000D01*
X142214600Y-77978000D02*
X142976600Y-78740000D01*
X135750300Y-67789999D02*
X140916599Y-67789999D01*
X140916599Y-67789999D02*
X142595600Y-69469000D01*
X142595600Y-69469000D02*
X142595600Y-75819000D01*
X142976600Y-76200000D02*
X144780000Y-76200000D01*
X142595600Y-75819000D02*
X142976600Y-76200000D01*
X135750300Y-66789998D02*
X140475398Y-66789998D01*
X140475398Y-66789998D02*
X142976600Y-69291200D01*
X142976600Y-69291200D02*
X142976600Y-70713600D01*
X143383000Y-71120000D02*
X144780000Y-71120000D01*
X142976600Y-70713600D02*
X143383000Y-71120000D01*
X142824200Y-68580000D02*
X144780000Y-68580000D01*
X135750300Y-66290000D02*
X140534200Y-66290000D01*
X140534200Y-66290000D02*
X142824200Y-68580000D01*
X140569029Y-65786000D02*
X140823029Y-66040000D01*
X135750300Y-65790000D02*
X135754300Y-65786000D01*
X140823029Y-66040000D02*
X144780000Y-66040000D01*
X135754300Y-65786000D02*
X140569029Y-65786000D01*
X136842500Y-65289999D02*
X138632499Y-63500000D01*
X135750300Y-65289999D02*
X136842500Y-65289999D01*
X138632499Y-63500000D02*
X144780000Y-63500000D01*
X135750300Y-64290001D02*
X137081199Y-64290001D01*
X137081199Y-64290001D02*
X139903200Y-61468000D01*
X139903200Y-61468000D02*
X139903200Y-59461400D01*
X139903200Y-59461400D02*
X140944600Y-58420000D01*
X140944600Y-58420000D02*
X144780000Y-58420000D01*
X136842500Y-63789999D02*
X136844601Y-63792100D01*
X135750300Y-63789999D02*
X136842500Y-63789999D01*
X136844601Y-63792100D02*
X137020300Y-63792100D01*
X137020300Y-63792100D02*
X139522200Y-61290200D01*
X139522200Y-61290200D02*
X139522200Y-57277000D01*
X140919200Y-55880000D02*
X144780000Y-55880000D01*
X139522200Y-57277000D02*
X140919200Y-55880000D01*
X136842500Y-62789999D02*
X136843699Y-62788800D01*
X135750300Y-62789999D02*
X136842500Y-62789999D01*
X136843699Y-62788800D02*
X136906000Y-62788800D01*
X136906000Y-62788800D02*
X138734800Y-60960000D01*
X138734800Y-60960000D02*
X138734800Y-51765200D01*
X139700000Y-50800000D02*
X144780000Y-50800000D01*
X138734800Y-51765200D02*
X139700000Y-50800000D01*
X136842500Y-62290000D02*
X138328400Y-60804100D01*
X135750300Y-62290000D02*
X136842500Y-62290000D01*
X138328400Y-60804100D02*
X138328400Y-49606200D01*
X139674600Y-48260000D02*
X144780000Y-48260000D01*
X138328400Y-49606200D02*
X139674600Y-48260000D01*
X135750300Y-61289999D02*
X136957001Y-61289999D01*
X136957001Y-61289999D02*
X137947400Y-60299600D01*
X137947400Y-60299600D02*
X137947400Y-44907200D01*
X139674600Y-43180000D02*
X144780000Y-43180000D01*
X137947400Y-44907200D02*
X139674600Y-43180000D01*
X136842500Y-60790000D02*
X136850300Y-60782200D01*
X135750300Y-60790000D02*
X136842500Y-60790000D01*
X136850300Y-60782200D02*
X136906000Y-60782200D01*
X136906000Y-60782200D02*
X137541000Y-60147200D01*
X137541000Y-60147200D02*
X137541000Y-42773600D01*
X137541000Y-42773600D02*
X139674600Y-40640000D01*
X139674600Y-40640000D02*
X144780000Y-40640000D01*
X136842500Y-60289999D02*
X137160000Y-59972499D01*
X135750300Y-60289999D02*
X136842500Y-60289999D01*
X137160000Y-59972499D02*
X137160000Y-40640000D01*
X137160000Y-40640000D02*
X137160000Y-38100000D01*
X137160000Y-38100000D02*
X144780000Y-38100000D01*
X128409700Y-71290000D02*
X125534600Y-71290000D01*
X125534600Y-71290000D02*
X125120400Y-71704200D01*
X125120400Y-71704200D02*
X125120400Y-90779600D01*
X121920000Y-93980000D02*
X119380000Y-93980000D01*
X125120400Y-90779600D02*
X121920000Y-93980000D01*
X125476000Y-70789800D02*
X124739400Y-71526400D01*
X121920000Y-91440000D02*
X119380000Y-91440000D01*
X127317299Y-70789800D02*
X125476000Y-70789800D01*
X124739400Y-71526400D02*
X124739400Y-88620600D01*
X128409700Y-70790001D02*
X127317500Y-70790001D01*
X127317500Y-70790001D02*
X127317299Y-70789800D01*
X124739400Y-88620600D02*
X121920000Y-91440000D01*
X127317500Y-69790000D02*
X127301300Y-69773800D01*
X128409700Y-69790000D02*
X127317500Y-69790000D01*
X127301300Y-69773800D02*
X125120400Y-69773800D01*
X125120400Y-69773800D02*
X124358400Y-70535800D01*
X124358400Y-70535800D02*
X124358400Y-83921600D01*
X121920000Y-86360000D02*
X119380000Y-86360000D01*
X124358400Y-83921600D02*
X121920000Y-86360000D01*
X127317500Y-69290001D02*
X127316301Y-69291200D01*
X128409700Y-69290001D02*
X127317500Y-69290001D01*
X127316301Y-69291200D02*
X125044200Y-69291200D01*
X125044200Y-69291200D02*
X123977400Y-70358000D01*
X123977400Y-70358000D02*
X123977400Y-81788000D01*
X121945400Y-83820000D02*
X119380000Y-83820000D01*
X123977400Y-81788000D02*
X121945400Y-83820000D01*
G36*
X146406001Y-98146000D02*
G01*
X117754000Y-98146000D01*
X117754000Y-45363110D01*
X117938524Y-45363110D01*
X118059845Y-45593000D01*
X119253000Y-45593000D01*
X119253000Y-45573000D01*
X119507000Y-45573000D01*
X119507000Y-45593000D01*
X120700155Y-45593000D01*
X120821476Y-45363110D01*
X120776825Y-45215901D01*
X120651641Y-44953080D01*
X120477588Y-44719731D01*
X120261355Y-44524822D01*
X120011252Y-44375843D01*
X119848832Y-44318228D01*
X119963097Y-44270898D01*
X120164717Y-44136180D01*
X120336180Y-43964717D01*
X120470898Y-43763097D01*
X120502004Y-43688000D01*
X125570380Y-43688000D01*
X125730001Y-43847622D01*
X125730001Y-48125781D01*
X125522655Y-47918435D01*
X125506748Y-47899052D01*
X125429395Y-47835571D01*
X125341143Y-47788399D01*
X125245385Y-47759351D01*
X125170747Y-47752000D01*
X125170744Y-47752000D01*
X125145800Y-47749543D01*
X125120856Y-47752000D01*
X120502004Y-47752000D01*
X120470898Y-47676903D01*
X120336180Y-47475283D01*
X120164717Y-47303820D01*
X119963097Y-47169102D01*
X119848832Y-47121772D01*
X120011252Y-47064157D01*
X120261355Y-46915178D01*
X120477588Y-46720269D01*
X120651641Y-46486920D01*
X120776825Y-46224099D01*
X120821476Y-46076890D01*
X120700155Y-45847000D01*
X119507000Y-45847000D01*
X119507000Y-45867000D01*
X119253000Y-45867000D01*
X119253000Y-45847000D01*
X118059845Y-45847000D01*
X117938524Y-46076890D01*
X117983175Y-46224099D01*
X118108359Y-46486920D01*
X118282412Y-46720269D01*
X118498645Y-46915178D01*
X118748748Y-47064157D01*
X118911168Y-47121772D01*
X118796903Y-47169102D01*
X118595283Y-47303820D01*
X118423820Y-47475283D01*
X118289102Y-47676903D01*
X118196307Y-47900931D01*
X118149000Y-48138757D01*
X118149000Y-48381243D01*
X118196307Y-48619069D01*
X118289102Y-48843097D01*
X118423820Y-49044717D01*
X118595283Y-49216180D01*
X118796903Y-49350898D01*
X119020931Y-49443693D01*
X119258757Y-49491000D01*
X119501243Y-49491000D01*
X119739069Y-49443693D01*
X119963097Y-49350898D01*
X120164717Y-49216180D01*
X120336180Y-49044717D01*
X120470898Y-48843097D01*
X120502004Y-48768000D01*
X124935380Y-48768000D01*
X125349001Y-49181621D01*
X125349001Y-50462581D01*
X125344855Y-50458434D01*
X125328948Y-50439052D01*
X125251595Y-50375571D01*
X125163343Y-50328399D01*
X125067585Y-50299351D01*
X124992947Y-50292000D01*
X124992944Y-50292000D01*
X124968000Y-50289543D01*
X124943056Y-50292000D01*
X120502004Y-50292000D01*
X120470898Y-50216903D01*
X120336180Y-50015283D01*
X120164717Y-49843820D01*
X119963097Y-49709102D01*
X119739069Y-49616307D01*
X119501243Y-49569000D01*
X119258757Y-49569000D01*
X119020931Y-49616307D01*
X118796903Y-49709102D01*
X118595283Y-49843820D01*
X118423820Y-50015283D01*
X118289102Y-50216903D01*
X118196307Y-50440931D01*
X118149000Y-50678757D01*
X118149000Y-50921243D01*
X118196307Y-51159069D01*
X118289102Y-51383097D01*
X118423820Y-51584717D01*
X118595283Y-51756180D01*
X118796903Y-51890898D01*
X119020931Y-51983693D01*
X119258757Y-52031000D01*
X119501243Y-52031000D01*
X119739069Y-51983693D01*
X119963097Y-51890898D01*
X120164717Y-51756180D01*
X120336180Y-51584717D01*
X120470898Y-51383097D01*
X120502004Y-51308000D01*
X124757580Y-51308000D01*
X124968001Y-51518422D01*
X124968001Y-53129581D01*
X124836855Y-52998435D01*
X124820948Y-52979052D01*
X124743595Y-52915571D01*
X124655343Y-52868399D01*
X124559585Y-52839351D01*
X124484947Y-52832000D01*
X124484944Y-52832000D01*
X124460000Y-52829543D01*
X124435056Y-52832000D01*
X120502004Y-52832000D01*
X120470898Y-52756903D01*
X120336180Y-52555283D01*
X120164717Y-52383820D01*
X119963097Y-52249102D01*
X119739069Y-52156307D01*
X119501243Y-52109000D01*
X119258757Y-52109000D01*
X119020931Y-52156307D01*
X118796903Y-52249102D01*
X118595283Y-52383820D01*
X118423820Y-52555283D01*
X118289102Y-52756903D01*
X118196307Y-52980931D01*
X118149000Y-53218757D01*
X118149000Y-53461243D01*
X118196307Y-53699069D01*
X118289102Y-53923097D01*
X118423820Y-54124717D01*
X118595283Y-54296180D01*
X118796903Y-54430898D01*
X119020931Y-54523693D01*
X119258757Y-54571000D01*
X119501243Y-54571000D01*
X119739069Y-54523693D01*
X119963097Y-54430898D01*
X120164717Y-54296180D01*
X120336180Y-54124717D01*
X120470898Y-53923097D01*
X120502004Y-53848000D01*
X124249580Y-53848000D01*
X124587001Y-54185421D01*
X124587001Y-55542581D01*
X124582855Y-55538434D01*
X124566948Y-55519052D01*
X124489595Y-55455571D01*
X124401343Y-55408399D01*
X124305585Y-55379351D01*
X124230947Y-55372000D01*
X124230944Y-55372000D01*
X124206000Y-55369543D01*
X124181056Y-55372000D01*
X120502004Y-55372000D01*
X120470898Y-55296903D01*
X120336180Y-55095283D01*
X120164717Y-54923820D01*
X119963097Y-54789102D01*
X119739069Y-54696307D01*
X119501243Y-54649000D01*
X119258757Y-54649000D01*
X119020931Y-54696307D01*
X118796903Y-54789102D01*
X118595283Y-54923820D01*
X118423820Y-55095283D01*
X118289102Y-55296903D01*
X118196307Y-55520931D01*
X118149000Y-55758757D01*
X118149000Y-56001243D01*
X118196307Y-56239069D01*
X118289102Y-56463097D01*
X118423820Y-56664717D01*
X118595283Y-56836180D01*
X118796903Y-56970898D01*
X119020931Y-57063693D01*
X119258757Y-57111000D01*
X119501243Y-57111000D01*
X119739069Y-57063693D01*
X119963097Y-56970898D01*
X120164717Y-56836180D01*
X120336180Y-56664717D01*
X120470898Y-56463097D01*
X120502004Y-56388000D01*
X123995580Y-56388000D01*
X124206001Y-56598422D01*
X124206001Y-57979752D01*
X124147343Y-57948399D01*
X124051585Y-57919351D01*
X123976947Y-57912000D01*
X123976944Y-57912000D01*
X123952000Y-57909543D01*
X123927056Y-57912000D01*
X120502004Y-57912000D01*
X120470898Y-57836903D01*
X120336180Y-57635283D01*
X120164717Y-57463820D01*
X119963097Y-57329102D01*
X119739069Y-57236307D01*
X119501243Y-57189000D01*
X119258757Y-57189000D01*
X119020931Y-57236307D01*
X118796903Y-57329102D01*
X118595283Y-57463820D01*
X118423820Y-57635283D01*
X118289102Y-57836903D01*
X118196307Y-58060931D01*
X118149000Y-58298757D01*
X118149000Y-58541243D01*
X118196307Y-58779069D01*
X118289102Y-59003097D01*
X118423820Y-59204717D01*
X118595283Y-59376180D01*
X118796903Y-59510898D01*
X118911168Y-59558228D01*
X118748748Y-59615843D01*
X118498645Y-59764822D01*
X118282412Y-59959731D01*
X118108359Y-60193080D01*
X117983175Y-60455901D01*
X117938524Y-60603110D01*
X118059845Y-60833000D01*
X119253000Y-60833000D01*
X119253000Y-60813000D01*
X119507000Y-60813000D01*
X119507000Y-60833000D01*
X120700155Y-60833000D01*
X120821476Y-60603110D01*
X120776825Y-60455901D01*
X120651641Y-60193080D01*
X120477588Y-59959731D01*
X120261355Y-59764822D01*
X120011252Y-59615843D01*
X119848832Y-59558228D01*
X119963097Y-59510898D01*
X120164717Y-59376180D01*
X120336180Y-59204717D01*
X120470898Y-59003097D01*
X120502004Y-58928000D01*
X123741580Y-58928000D01*
X123825001Y-59011422D01*
X123825000Y-62281256D01*
X123822543Y-62306200D01*
X123825000Y-62331144D01*
X123825000Y-62331146D01*
X123832351Y-62405784D01*
X123861399Y-62501542D01*
X123908571Y-62589795D01*
X123972052Y-62667148D01*
X123991435Y-62683055D01*
X125937345Y-64628965D01*
X125953252Y-64648348D01*
X125996321Y-64683693D01*
X126030604Y-64711829D01*
X126066471Y-64731000D01*
X126118857Y-64759001D01*
X126196982Y-64782700D01*
X124937121Y-64782700D01*
X123312855Y-63158435D01*
X123296948Y-63139052D01*
X123219595Y-63075571D01*
X123131343Y-63028399D01*
X123035585Y-62999351D01*
X122960947Y-62992000D01*
X122960944Y-62992000D01*
X122936000Y-62989543D01*
X122911056Y-62992000D01*
X120502004Y-62992000D01*
X120470898Y-62916903D01*
X120336180Y-62715283D01*
X120164717Y-62543820D01*
X119963097Y-62409102D01*
X119848832Y-62361772D01*
X120011252Y-62304157D01*
X120261355Y-62155178D01*
X120477588Y-61960269D01*
X120651641Y-61726920D01*
X120776825Y-61464099D01*
X120821476Y-61316890D01*
X120700155Y-61087000D01*
X119507000Y-61087000D01*
X119507000Y-61107000D01*
X119253000Y-61107000D01*
X119253000Y-61087000D01*
X118059845Y-61087000D01*
X117938524Y-61316890D01*
X117983175Y-61464099D01*
X118108359Y-61726920D01*
X118282412Y-61960269D01*
X118498645Y-62155178D01*
X118748748Y-62304157D01*
X118911168Y-62361772D01*
X118796903Y-62409102D01*
X118595283Y-62543820D01*
X118423820Y-62715283D01*
X118289102Y-62916903D01*
X118196307Y-63140931D01*
X118149000Y-63378757D01*
X118149000Y-63621243D01*
X118196307Y-63859069D01*
X118289102Y-64083097D01*
X118423820Y-64284717D01*
X118595283Y-64456180D01*
X118796903Y-64590898D01*
X119020931Y-64683693D01*
X119258757Y-64731000D01*
X119501243Y-64731000D01*
X119739069Y-64683693D01*
X119963097Y-64590898D01*
X120164717Y-64456180D01*
X120336180Y-64284717D01*
X120470898Y-64083097D01*
X120502004Y-64008000D01*
X122725580Y-64008000D01*
X124118569Y-65400990D01*
X123492924Y-65400990D01*
X123467980Y-65398533D01*
X123443036Y-65400990D01*
X123443034Y-65400990D01*
X123368396Y-65408341D01*
X123272638Y-65437389D01*
X123184386Y-65484561D01*
X123126581Y-65532000D01*
X120502004Y-65532000D01*
X120470898Y-65456903D01*
X120336180Y-65255283D01*
X120164717Y-65083820D01*
X119963097Y-64949102D01*
X119739069Y-64856307D01*
X119501243Y-64809000D01*
X119258757Y-64809000D01*
X119020931Y-64856307D01*
X118796903Y-64949102D01*
X118595283Y-65083820D01*
X118423820Y-65255283D01*
X118289102Y-65456903D01*
X118196307Y-65680931D01*
X118149000Y-65918757D01*
X118149000Y-66161243D01*
X118196307Y-66399069D01*
X118289102Y-66623097D01*
X118423820Y-66824717D01*
X118595283Y-66996180D01*
X118796903Y-67130898D01*
X119020931Y-67223693D01*
X119258757Y-67271000D01*
X119501243Y-67271000D01*
X119739069Y-67223693D01*
X119963097Y-67130898D01*
X120164717Y-66996180D01*
X120336180Y-66824717D01*
X120470898Y-66623097D01*
X120502004Y-66548000D01*
X122649379Y-66548000D01*
X121125380Y-68072000D01*
X120502004Y-68072000D01*
X120470898Y-67996903D01*
X120336180Y-67795283D01*
X120164717Y-67623820D01*
X119963097Y-67489102D01*
X119739069Y-67396307D01*
X119501243Y-67349000D01*
X119258757Y-67349000D01*
X119020931Y-67396307D01*
X118796903Y-67489102D01*
X118595283Y-67623820D01*
X118423820Y-67795283D01*
X118289102Y-67996903D01*
X118196307Y-68220931D01*
X118149000Y-68458757D01*
X118149000Y-68701243D01*
X118196307Y-68939069D01*
X118289102Y-69163097D01*
X118423820Y-69364717D01*
X118595283Y-69536180D01*
X118796903Y-69670898D01*
X119020931Y-69763693D01*
X119258757Y-69811000D01*
X119501243Y-69811000D01*
X119739069Y-69763693D01*
X119963097Y-69670898D01*
X120164717Y-69536180D01*
X120336180Y-69364717D01*
X120470898Y-69163097D01*
X120502004Y-69088000D01*
X121310856Y-69088000D01*
X121335800Y-69090457D01*
X121360744Y-69088000D01*
X121360747Y-69088000D01*
X121412000Y-69082952D01*
X121412001Y-70147579D01*
X120947580Y-70612000D01*
X120502004Y-70612000D01*
X120470898Y-70536903D01*
X120336180Y-70335283D01*
X120164717Y-70163820D01*
X119963097Y-70029102D01*
X119739069Y-69936307D01*
X119501243Y-69889000D01*
X119258757Y-69889000D01*
X119020931Y-69936307D01*
X118796903Y-70029102D01*
X118595283Y-70163820D01*
X118423820Y-70335283D01*
X118289102Y-70536903D01*
X118196307Y-70760931D01*
X118149000Y-70998757D01*
X118149000Y-71241243D01*
X118196307Y-71479069D01*
X118289102Y-71703097D01*
X118423820Y-71904717D01*
X118595283Y-72076180D01*
X118796903Y-72210898D01*
X118911168Y-72258228D01*
X118748748Y-72315843D01*
X118498645Y-72464822D01*
X118282412Y-72659731D01*
X118108359Y-72893080D01*
X117983175Y-73155901D01*
X117938524Y-73303110D01*
X118059845Y-73533000D01*
X119253000Y-73533000D01*
X119253000Y-73513000D01*
X119507000Y-73513000D01*
X119507000Y-73533000D01*
X120700155Y-73533000D01*
X120821476Y-73303110D01*
X120776825Y-73155901D01*
X120651641Y-72893080D01*
X120477588Y-72659731D01*
X120261355Y-72464822D01*
X120011252Y-72315843D01*
X119848832Y-72258228D01*
X119963097Y-72210898D01*
X120164717Y-72076180D01*
X120336180Y-71904717D01*
X120470898Y-71703097D01*
X120502004Y-71628000D01*
X121133056Y-71628000D01*
X121158000Y-71630457D01*
X121182944Y-71628000D01*
X121182947Y-71628000D01*
X121257585Y-71620649D01*
X121353343Y-71591601D01*
X121441595Y-71544429D01*
X121518948Y-71480948D01*
X121534855Y-71461565D01*
X122261565Y-70734855D01*
X122280948Y-70718948D01*
X122301000Y-70694514D01*
X122301001Y-75125979D01*
X121734980Y-75692000D01*
X120502004Y-75692000D01*
X120470898Y-75616903D01*
X120336180Y-75415283D01*
X120164717Y-75243820D01*
X119963097Y-75109102D01*
X119848832Y-75061772D01*
X120011252Y-75004157D01*
X120261355Y-74855178D01*
X120477588Y-74660269D01*
X120651641Y-74426920D01*
X120776825Y-74164099D01*
X120821476Y-74016890D01*
X120700155Y-73787000D01*
X119507000Y-73787000D01*
X119507000Y-73807000D01*
X119253000Y-73807000D01*
X119253000Y-73787000D01*
X118059845Y-73787000D01*
X117938524Y-74016890D01*
X117983175Y-74164099D01*
X118108359Y-74426920D01*
X118282412Y-74660269D01*
X118498645Y-74855178D01*
X118748748Y-75004157D01*
X118911168Y-75061772D01*
X118796903Y-75109102D01*
X118595283Y-75243820D01*
X118423820Y-75415283D01*
X118289102Y-75616903D01*
X118196307Y-75840931D01*
X118149000Y-76078757D01*
X118149000Y-76321243D01*
X118196307Y-76559069D01*
X118289102Y-76783097D01*
X118423820Y-76984717D01*
X118595283Y-77156180D01*
X118796903Y-77290898D01*
X119020931Y-77383693D01*
X119258757Y-77431000D01*
X119501243Y-77431000D01*
X119739069Y-77383693D01*
X119963097Y-77290898D01*
X120164717Y-77156180D01*
X120336180Y-76984717D01*
X120470898Y-76783097D01*
X120502004Y-76708000D01*
X121920456Y-76708000D01*
X121945400Y-76710457D01*
X121970344Y-76708000D01*
X121970347Y-76708000D01*
X122044985Y-76700649D01*
X122140743Y-76671601D01*
X122228995Y-76624429D01*
X122306348Y-76560948D01*
X122322255Y-76541565D01*
X122707401Y-76156419D01*
X122707401Y-77234178D01*
X121709580Y-78232000D01*
X120502004Y-78232000D01*
X120470898Y-78156903D01*
X120336180Y-77955283D01*
X120164717Y-77783820D01*
X119963097Y-77649102D01*
X119739069Y-77556307D01*
X119501243Y-77509000D01*
X119258757Y-77509000D01*
X119020931Y-77556307D01*
X118796903Y-77649102D01*
X118595283Y-77783820D01*
X118423820Y-77955283D01*
X118289102Y-78156903D01*
X118196307Y-78380931D01*
X118149000Y-78618757D01*
X118149000Y-78861243D01*
X118196307Y-79099069D01*
X118289102Y-79323097D01*
X118423820Y-79524717D01*
X118595283Y-79696180D01*
X118796903Y-79830898D01*
X119020931Y-79923693D01*
X119258757Y-79971000D01*
X119501243Y-79971000D01*
X119739069Y-79923693D01*
X119963097Y-79830898D01*
X120164717Y-79696180D01*
X120336180Y-79524717D01*
X120470898Y-79323097D01*
X120502004Y-79248000D01*
X121895056Y-79248000D01*
X121920000Y-79250457D01*
X121944944Y-79248000D01*
X121944947Y-79248000D01*
X122019585Y-79240649D01*
X122115343Y-79211601D01*
X122203595Y-79164429D01*
X122280948Y-79100948D01*
X122296855Y-79081565D01*
X123088401Y-78290020D01*
X123088401Y-79393179D01*
X121709580Y-80772000D01*
X120502004Y-80772000D01*
X120470898Y-80696903D01*
X120336180Y-80495283D01*
X120164717Y-80323820D01*
X119963097Y-80189102D01*
X119739069Y-80096307D01*
X119501243Y-80049000D01*
X119258757Y-80049000D01*
X119020931Y-80096307D01*
X118796903Y-80189102D01*
X118595283Y-80323820D01*
X118423820Y-80495283D01*
X118289102Y-80696903D01*
X118196307Y-80920931D01*
X118149000Y-81158757D01*
X118149000Y-81401243D01*
X118196307Y-81639069D01*
X118289102Y-81863097D01*
X118423820Y-82064717D01*
X118595283Y-82236180D01*
X118796903Y-82370898D01*
X119020931Y-82463693D01*
X119258757Y-82511000D01*
X119501243Y-82511000D01*
X119739069Y-82463693D01*
X119963097Y-82370898D01*
X120164717Y-82236180D01*
X120336180Y-82064717D01*
X120470898Y-81863097D01*
X120502004Y-81788000D01*
X121895056Y-81788000D01*
X121920000Y-81790457D01*
X121944944Y-81788000D01*
X121944947Y-81788000D01*
X122019585Y-81780649D01*
X122115343Y-81751601D01*
X122203595Y-81704429D01*
X122280948Y-81640948D01*
X122296855Y-81621565D01*
X123469401Y-80449019D01*
X123469401Y-81577578D01*
X121734980Y-83312000D01*
X120502004Y-83312000D01*
X120470898Y-83236903D01*
X120336180Y-83035283D01*
X120164717Y-82863820D01*
X119963097Y-82729102D01*
X119739069Y-82636307D01*
X119501243Y-82589000D01*
X119258757Y-82589000D01*
X119020931Y-82636307D01*
X118796903Y-82729102D01*
X118595283Y-82863820D01*
X118423820Y-83035283D01*
X118289102Y-83236903D01*
X118196307Y-83460931D01*
X118149000Y-83698757D01*
X118149000Y-83941243D01*
X118196307Y-84179069D01*
X118289102Y-84403097D01*
X118423820Y-84604717D01*
X118595283Y-84776180D01*
X118796903Y-84910898D01*
X119020931Y-85003693D01*
X119258757Y-85051000D01*
X119501243Y-85051000D01*
X119739069Y-85003693D01*
X119963097Y-84910898D01*
X120164717Y-84776180D01*
X120336180Y-84604717D01*
X120470898Y-84403097D01*
X120502004Y-84328000D01*
X121920456Y-84328000D01*
X121945400Y-84330457D01*
X121970344Y-84328000D01*
X121970347Y-84328000D01*
X122044985Y-84320649D01*
X122140743Y-84291601D01*
X122228995Y-84244429D01*
X122306348Y-84180948D01*
X122322255Y-84161565D01*
X123850401Y-82633420D01*
X123850401Y-83711178D01*
X121709580Y-85852000D01*
X120502004Y-85852000D01*
X120470898Y-85776903D01*
X120336180Y-85575283D01*
X120164717Y-85403820D01*
X119963097Y-85269102D01*
X119739069Y-85176307D01*
X119501243Y-85129000D01*
X119258757Y-85129000D01*
X119020931Y-85176307D01*
X118796903Y-85269102D01*
X118595283Y-85403820D01*
X118423820Y-85575283D01*
X118289102Y-85776903D01*
X118196307Y-86000931D01*
X118149000Y-86238757D01*
X118149000Y-86481243D01*
X118196307Y-86719069D01*
X118289102Y-86943097D01*
X118423820Y-87144717D01*
X118595283Y-87316180D01*
X118796903Y-87450898D01*
X118911168Y-87498228D01*
X118748748Y-87555843D01*
X118498645Y-87704822D01*
X118282412Y-87899731D01*
X118108359Y-88133080D01*
X117983175Y-88395901D01*
X117938524Y-88543110D01*
X118059845Y-88773000D01*
X119253000Y-88773000D01*
X119253000Y-88753000D01*
X119507000Y-88753000D01*
X119507000Y-88773000D01*
X120700155Y-88773000D01*
X120821476Y-88543110D01*
X120776825Y-88395901D01*
X120651641Y-88133080D01*
X120477588Y-87899731D01*
X120261355Y-87704822D01*
X120011252Y-87555843D01*
X119848832Y-87498228D01*
X119963097Y-87450898D01*
X120164717Y-87316180D01*
X120336180Y-87144717D01*
X120470898Y-86943097D01*
X120502004Y-86868000D01*
X121895056Y-86868000D01*
X121920000Y-86870457D01*
X121944944Y-86868000D01*
X121944947Y-86868000D01*
X122019585Y-86860649D01*
X122115343Y-86831601D01*
X122203595Y-86784429D01*
X122280948Y-86720948D01*
X122296855Y-86701565D01*
X124231401Y-84767020D01*
X124231401Y-88410179D01*
X121709580Y-90932000D01*
X120502004Y-90932000D01*
X120470898Y-90856903D01*
X120336180Y-90655283D01*
X120164717Y-90483820D01*
X119963097Y-90349102D01*
X119848832Y-90301772D01*
X120011252Y-90244157D01*
X120261355Y-90095178D01*
X120477588Y-89900269D01*
X120651641Y-89666920D01*
X120776825Y-89404099D01*
X120821476Y-89256890D01*
X120700155Y-89027000D01*
X119507000Y-89027000D01*
X119507000Y-89047000D01*
X119253000Y-89047000D01*
X119253000Y-89027000D01*
X118059845Y-89027000D01*
X117938524Y-89256890D01*
X117983175Y-89404099D01*
X118108359Y-89666920D01*
X118282412Y-89900269D01*
X118498645Y-90095178D01*
X118748748Y-90244157D01*
X118911168Y-90301772D01*
X118796903Y-90349102D01*
X118595283Y-90483820D01*
X118423820Y-90655283D01*
X118289102Y-90856903D01*
X118196307Y-91080931D01*
X118149000Y-91318757D01*
X118149000Y-91561243D01*
X118196307Y-91799069D01*
X118289102Y-92023097D01*
X118423820Y-92224717D01*
X118595283Y-92396180D01*
X118796903Y-92530898D01*
X119020931Y-92623693D01*
X119258757Y-92671000D01*
X119501243Y-92671000D01*
X119739069Y-92623693D01*
X119963097Y-92530898D01*
X120164717Y-92396180D01*
X120336180Y-92224717D01*
X120470898Y-92023097D01*
X120502004Y-91948000D01*
X121895056Y-91948000D01*
X121920000Y-91950457D01*
X121944944Y-91948000D01*
X121944947Y-91948000D01*
X122019585Y-91940649D01*
X122115343Y-91911601D01*
X122203595Y-91864429D01*
X122280948Y-91800948D01*
X122296855Y-91781565D01*
X124612401Y-89466019D01*
X124612401Y-90569178D01*
X121709580Y-93472000D01*
X120502004Y-93472000D01*
X120470898Y-93396903D01*
X120336180Y-93195283D01*
X120164717Y-93023820D01*
X119963097Y-92889102D01*
X119739069Y-92796307D01*
X119501243Y-92749000D01*
X119258757Y-92749000D01*
X119020931Y-92796307D01*
X118796903Y-92889102D01*
X118595283Y-93023820D01*
X118423820Y-93195283D01*
X118289102Y-93396903D01*
X118196307Y-93620931D01*
X118149000Y-93858757D01*
X118149000Y-94101243D01*
X118196307Y-94339069D01*
X118289102Y-94563097D01*
X118423820Y-94764717D01*
X118595283Y-94936180D01*
X118796903Y-95070898D01*
X119020931Y-95163693D01*
X119258757Y-95211000D01*
X119501243Y-95211000D01*
X119739069Y-95163693D01*
X119963097Y-95070898D01*
X120164717Y-94936180D01*
X120336180Y-94764717D01*
X120470898Y-94563097D01*
X120502004Y-94488000D01*
X121895056Y-94488000D01*
X121920000Y-94490457D01*
X121944944Y-94488000D01*
X121944947Y-94488000D01*
X122019585Y-94480649D01*
X122115343Y-94451601D01*
X122203595Y-94404429D01*
X122280948Y-94340948D01*
X122296855Y-94321565D01*
X124993401Y-91625020D01*
X124993401Y-92728178D01*
X121709580Y-96012000D01*
X120502004Y-96012000D01*
X120470898Y-95936903D01*
X120336180Y-95735283D01*
X120164717Y-95563820D01*
X119963097Y-95429102D01*
X119739069Y-95336307D01*
X119501243Y-95289000D01*
X119258757Y-95289000D01*
X119020931Y-95336307D01*
X118796903Y-95429102D01*
X118595283Y-95563820D01*
X118423820Y-95735283D01*
X118289102Y-95936903D01*
X118196307Y-96160931D01*
X118149000Y-96398757D01*
X118149000Y-96641243D01*
X118196307Y-96879069D01*
X118289102Y-97103097D01*
X118423820Y-97304717D01*
X118595283Y-97476180D01*
X118796903Y-97610898D01*
X119020931Y-97703693D01*
X119258757Y-97751000D01*
X119501243Y-97751000D01*
X119739069Y-97703693D01*
X119963097Y-97610898D01*
X120164717Y-97476180D01*
X120336180Y-97304717D01*
X120392786Y-97220000D01*
X135674928Y-97220000D01*
X135687188Y-97344482D01*
X135723498Y-97464180D01*
X135782463Y-97574494D01*
X135861815Y-97671185D01*
X135958506Y-97750537D01*
X136068820Y-97809502D01*
X136188518Y-97845812D01*
X136313000Y-97858072D01*
X136602250Y-97855000D01*
X136761000Y-97696250D01*
X136761000Y-96647000D01*
X135836750Y-96647000D01*
X135678000Y-96805750D01*
X135674928Y-97220000D01*
X120392786Y-97220000D01*
X120470898Y-97103097D01*
X120502004Y-97028000D01*
X121895056Y-97028000D01*
X121920000Y-97030457D01*
X121944944Y-97028000D01*
X121944947Y-97028000D01*
X122019585Y-97020649D01*
X122115343Y-96991601D01*
X122203595Y-96944429D01*
X122280948Y-96880948D01*
X122296855Y-96861565D01*
X123338420Y-95820000D01*
X135674928Y-95820000D01*
X135678000Y-96234250D01*
X135836750Y-96393000D01*
X136761000Y-96393000D01*
X136761000Y-95343750D01*
X136602250Y-95185000D01*
X136313000Y-95181928D01*
X136188518Y-95194188D01*
X136068820Y-95230498D01*
X135958506Y-95289463D01*
X135861815Y-95368815D01*
X135782463Y-95465506D01*
X135723498Y-95575820D01*
X135687188Y-95695518D01*
X135674928Y-95820000D01*
X123338420Y-95820000D01*
X125842971Y-93315450D01*
X125862348Y-93299548D01*
X125922824Y-93225857D01*
X125925829Y-93222196D01*
X125973000Y-93133945D01*
X125973001Y-93133943D01*
X126002049Y-93038185D01*
X126009400Y-92963547D01*
X126009400Y-92963545D01*
X126011857Y-92938601D01*
X126009400Y-92913657D01*
X126009400Y-76539000D01*
X128963928Y-76539000D01*
X128976188Y-76663482D01*
X129012498Y-76783180D01*
X129071463Y-76893494D01*
X129150815Y-76990185D01*
X129247506Y-77069537D01*
X129357820Y-77128502D01*
X129477518Y-77164812D01*
X129602000Y-77177072D01*
X130016250Y-77174000D01*
X130175000Y-77015250D01*
X130175000Y-76091000D01*
X130429000Y-76091000D01*
X130429000Y-77015250D01*
X130587750Y-77174000D01*
X131002000Y-77177072D01*
X131126482Y-77164812D01*
X131246180Y-77128502D01*
X131356494Y-77069537D01*
X131453185Y-76990185D01*
X131532537Y-76893494D01*
X131591502Y-76783180D01*
X131627812Y-76663482D01*
X131640072Y-76539000D01*
X132570728Y-76539000D01*
X132582988Y-76663482D01*
X132619298Y-76783180D01*
X132678263Y-76893494D01*
X132757615Y-76990185D01*
X132854306Y-77069537D01*
X132964620Y-77128502D01*
X133084318Y-77164812D01*
X133208800Y-77177072D01*
X133623050Y-77174000D01*
X133781800Y-77015250D01*
X133781800Y-76091000D01*
X134035800Y-76091000D01*
X134035800Y-77015250D01*
X134194550Y-77174000D01*
X134608800Y-77177072D01*
X134733282Y-77164812D01*
X134852980Y-77128502D01*
X134963294Y-77069537D01*
X135059985Y-76990185D01*
X135139337Y-76893494D01*
X135198302Y-76783180D01*
X135234612Y-76663482D01*
X135246872Y-76539000D01*
X135243800Y-76249750D01*
X135085050Y-76091000D01*
X134035800Y-76091000D01*
X133781800Y-76091000D01*
X132732550Y-76091000D01*
X132573800Y-76249750D01*
X132570728Y-76539000D01*
X131640072Y-76539000D01*
X131637000Y-76249750D01*
X131478250Y-76091000D01*
X130429000Y-76091000D01*
X130175000Y-76091000D01*
X129125750Y-76091000D01*
X128967000Y-76249750D01*
X128963928Y-76539000D01*
X126009400Y-76539000D01*
X126009400Y-72346420D01*
X126057820Y-72298001D01*
X127473119Y-72298001D01*
X127496811Y-72305188D01*
X127571500Y-72312544D01*
X129247900Y-72312544D01*
X129322589Y-72305188D01*
X129394408Y-72283402D01*
X129460596Y-72248023D01*
X129518611Y-72200412D01*
X129566222Y-72142397D01*
X129601601Y-72076209D01*
X129623387Y-72004390D01*
X129630743Y-71929701D01*
X129630743Y-71650301D01*
X129623387Y-71575612D01*
X129612584Y-71540000D01*
X129623387Y-71504389D01*
X129630743Y-71429700D01*
X129630743Y-71150300D01*
X129623387Y-71075611D01*
X129612585Y-71040001D01*
X129623387Y-71004390D01*
X129630006Y-70937180D01*
X129692845Y-70887038D01*
X129773518Y-70791446D01*
X129794001Y-70754360D01*
X129794000Y-72961869D01*
X129728538Y-72968317D01*
X129609821Y-73004329D01*
X129500411Y-73062810D01*
X129404512Y-73141512D01*
X129325810Y-73237411D01*
X129267329Y-73346821D01*
X129231317Y-73465538D01*
X129219157Y-73588999D01*
X129219157Y-74239001D01*
X129231317Y-74362462D01*
X129267329Y-74481179D01*
X129325810Y-74590589D01*
X129404512Y-74686488D01*
X129495780Y-74761389D01*
X129477518Y-74763188D01*
X129357820Y-74799498D01*
X129247506Y-74858463D01*
X129150815Y-74937815D01*
X129071463Y-75034506D01*
X129012498Y-75144820D01*
X128976188Y-75264518D01*
X128963928Y-75389000D01*
X128967000Y-75678250D01*
X129125750Y-75837000D01*
X130175000Y-75837000D01*
X130175000Y-75817000D01*
X130429000Y-75817000D01*
X130429000Y-75837000D01*
X131478250Y-75837000D01*
X131637000Y-75678250D01*
X131640072Y-75389000D01*
X131627812Y-75264518D01*
X131591502Y-75144820D01*
X131532537Y-75034506D01*
X131453185Y-74937815D01*
X131356494Y-74858463D01*
X131246180Y-74799498D01*
X131126482Y-74763188D01*
X131108220Y-74761389D01*
X131199488Y-74686488D01*
X131278190Y-74590589D01*
X131336671Y-74481179D01*
X131363568Y-74392510D01*
X131386343Y-74385601D01*
X131474595Y-74338429D01*
X131551948Y-74274948D01*
X131567855Y-74255565D01*
X131850060Y-73973359D01*
X131869448Y-73957448D01*
X131932929Y-73880095D01*
X131980101Y-73791843D01*
X132009149Y-73696085D01*
X132016500Y-73621447D01*
X132016500Y-73621444D01*
X132018957Y-73596500D01*
X132016500Y-73571556D01*
X132016500Y-58697443D01*
X132018957Y-58672499D01*
X132015520Y-58637601D01*
X132010202Y-58583600D01*
X132204543Y-58583600D01*
X132207000Y-58608544D01*
X132207001Y-73609646D01*
X132204543Y-73634600D01*
X132212822Y-73718655D01*
X132214352Y-73734185D01*
X132231843Y-73791844D01*
X132243400Y-73829943D01*
X132290571Y-73918195D01*
X132338150Y-73976170D01*
X132354053Y-73995548D01*
X132373430Y-74011450D01*
X132617545Y-74255565D01*
X132633452Y-74274948D01*
X132710805Y-74338429D01*
X132799057Y-74385601D01*
X132849806Y-74400996D01*
X132874129Y-74481179D01*
X132932610Y-74590589D01*
X133011312Y-74686488D01*
X133102580Y-74761389D01*
X133084318Y-74763188D01*
X132964620Y-74799498D01*
X132854306Y-74858463D01*
X132757615Y-74937815D01*
X132678263Y-75034506D01*
X132619298Y-75144820D01*
X132582988Y-75264518D01*
X132570728Y-75389000D01*
X132573800Y-75678250D01*
X132732550Y-75837000D01*
X133781800Y-75837000D01*
X133781800Y-75817000D01*
X134035800Y-75817000D01*
X134035800Y-75837000D01*
X135085050Y-75837000D01*
X135243800Y-75678250D01*
X135246872Y-75389000D01*
X135234612Y-75264518D01*
X135198302Y-75144820D01*
X135139337Y-75034506D01*
X135059985Y-74937815D01*
X134963294Y-74858463D01*
X134852980Y-74799498D01*
X134733282Y-74763188D01*
X134715020Y-74761389D01*
X134806288Y-74686488D01*
X134884990Y-74590589D01*
X134943471Y-74481179D01*
X134979483Y-74362462D01*
X134991643Y-74239001D01*
X134991643Y-73588999D01*
X134979483Y-73465538D01*
X134943471Y-73346821D01*
X134884990Y-73237411D01*
X134806288Y-73141512D01*
X134710389Y-73062810D01*
X134600979Y-73004329D01*
X134482262Y-72968317D01*
X134416800Y-72961869D01*
X134416800Y-70827371D01*
X134467155Y-70887038D01*
X134529994Y-70937180D01*
X134536613Y-71004390D01*
X134547415Y-71040001D01*
X134536613Y-71075611D01*
X134529257Y-71150300D01*
X134529257Y-71429700D01*
X134536613Y-71504389D01*
X134547415Y-71540000D01*
X134536613Y-71575610D01*
X134529257Y-71650299D01*
X134529257Y-71929699D01*
X134536613Y-72004388D01*
X134558399Y-72076207D01*
X134593778Y-72142395D01*
X134641389Y-72200410D01*
X134699404Y-72248021D01*
X134765592Y-72283400D01*
X134837411Y-72305186D01*
X134912100Y-72312542D01*
X136588500Y-72312542D01*
X136663189Y-72305186D01*
X136686881Y-72297999D01*
X138219580Y-72297999D01*
X138430000Y-72508420D01*
X138430001Y-95467377D01*
X138370821Y-95485329D01*
X138261411Y-95543810D01*
X138165512Y-95622512D01*
X138090611Y-95713780D01*
X138088812Y-95695518D01*
X138052502Y-95575820D01*
X137993537Y-95465506D01*
X137914185Y-95368815D01*
X137817494Y-95289463D01*
X137707180Y-95230498D01*
X137587482Y-95194188D01*
X137463000Y-95181928D01*
X137173750Y-95185000D01*
X137015000Y-95343750D01*
X137015000Y-96393000D01*
X137035000Y-96393000D01*
X137035000Y-96647000D01*
X137015000Y-96647000D01*
X137015000Y-97696250D01*
X137173750Y-97855000D01*
X137463000Y-97858072D01*
X137587482Y-97845812D01*
X137707180Y-97809502D01*
X137817494Y-97750537D01*
X137914185Y-97671185D01*
X137993537Y-97574494D01*
X138052502Y-97464180D01*
X138088812Y-97344482D01*
X138090611Y-97326220D01*
X138165512Y-97417488D01*
X138261411Y-97496190D01*
X138370821Y-97554671D01*
X138489538Y-97590683D01*
X138612999Y-97602843D01*
X139263001Y-97602843D01*
X139386462Y-97590683D01*
X139505179Y-97554671D01*
X139614589Y-97496190D01*
X139710488Y-97417488D01*
X139789190Y-97321589D01*
X139847671Y-97212179D01*
X139883683Y-97093462D01*
X139890131Y-97028000D01*
X143657996Y-97028000D01*
X143689102Y-97103097D01*
X143823820Y-97304717D01*
X143995283Y-97476180D01*
X144196903Y-97610898D01*
X144420931Y-97703693D01*
X144658757Y-97751000D01*
X144901243Y-97751000D01*
X145139069Y-97703693D01*
X145363097Y-97610898D01*
X145564717Y-97476180D01*
X145736180Y-97304717D01*
X145870898Y-97103097D01*
X145963693Y-96879069D01*
X146011000Y-96641243D01*
X146011000Y-96398757D01*
X145963693Y-96160931D01*
X145870898Y-95936903D01*
X145736180Y-95735283D01*
X145564717Y-95563820D01*
X145363097Y-95429102D01*
X145139069Y-95336307D01*
X144901243Y-95289000D01*
X144658757Y-95289000D01*
X144420931Y-95336307D01*
X144196903Y-95429102D01*
X143995283Y-95563820D01*
X143823820Y-95735283D01*
X143689102Y-95936903D01*
X143657996Y-96012000D01*
X139890131Y-96012000D01*
X139883683Y-95946538D01*
X139847671Y-95827821D01*
X139789190Y-95718411D01*
X139710488Y-95622512D01*
X139614589Y-95543810D01*
X139505179Y-95485329D01*
X139446000Y-95467377D01*
X139446000Y-72322942D01*
X139448457Y-72297998D01*
X139443535Y-72248023D01*
X139438649Y-72198414D01*
X139409601Y-72102656D01*
X139389552Y-72065147D01*
X139362429Y-72014403D01*
X139314850Y-71956428D01*
X139298948Y-71937051D01*
X139279570Y-71921148D01*
X139151522Y-71793100D01*
X139801600Y-71793100D01*
X139801601Y-89306846D01*
X139799143Y-89331800D01*
X139808952Y-89431384D01*
X139838000Y-89527143D01*
X139885171Y-89615395D01*
X139927457Y-89666920D01*
X139948653Y-89692748D01*
X139968030Y-89708650D01*
X142468600Y-92209220D01*
X142468601Y-93396246D01*
X142466143Y-93421200D01*
X142475952Y-93520784D01*
X142505000Y-93616543D01*
X142552171Y-93704795D01*
X142599750Y-93762770D01*
X142615653Y-93782148D01*
X142635030Y-93798050D01*
X143158545Y-94321565D01*
X143174452Y-94340948D01*
X143251805Y-94404429D01*
X143340057Y-94451601D01*
X143435815Y-94480649D01*
X143510453Y-94488000D01*
X143510456Y-94488000D01*
X143535400Y-94490457D01*
X143560344Y-94488000D01*
X143657996Y-94488000D01*
X143689102Y-94563097D01*
X143823820Y-94764717D01*
X143995283Y-94936180D01*
X144196903Y-95070898D01*
X144420931Y-95163693D01*
X144658757Y-95211000D01*
X144901243Y-95211000D01*
X145139069Y-95163693D01*
X145363097Y-95070898D01*
X145564717Y-94936180D01*
X145736180Y-94764717D01*
X145870898Y-94563097D01*
X145963693Y-94339069D01*
X146011000Y-94101243D01*
X146011000Y-93858757D01*
X145963693Y-93620931D01*
X145870898Y-93396903D01*
X145736180Y-93195283D01*
X145564717Y-93023820D01*
X145363097Y-92889102D01*
X145139069Y-92796307D01*
X144901243Y-92749000D01*
X144658757Y-92749000D01*
X144420931Y-92796307D01*
X144196903Y-92889102D01*
X143995283Y-93023820D01*
X143823820Y-93195283D01*
X143689102Y-93396903D01*
X143683719Y-93409899D01*
X143484600Y-93210780D01*
X143484600Y-92023744D01*
X143487057Y-91998800D01*
X143484600Y-91973853D01*
X143482054Y-91948000D01*
X143657996Y-91948000D01*
X143689102Y-92023097D01*
X143823820Y-92224717D01*
X143995283Y-92396180D01*
X144196903Y-92530898D01*
X144420931Y-92623693D01*
X144658757Y-92671000D01*
X144901243Y-92671000D01*
X145139069Y-92623693D01*
X145363097Y-92530898D01*
X145564717Y-92396180D01*
X145736180Y-92224717D01*
X145870898Y-92023097D01*
X145963693Y-91799069D01*
X146011000Y-91561243D01*
X146011000Y-91318757D01*
X145963693Y-91080931D01*
X145870898Y-90856903D01*
X145736180Y-90655283D01*
X145564717Y-90483820D01*
X145363097Y-90349102D01*
X145248832Y-90301772D01*
X145411252Y-90244157D01*
X145661355Y-90095178D01*
X145877588Y-89900269D01*
X146051641Y-89666920D01*
X146176825Y-89404099D01*
X146221476Y-89256890D01*
X146100155Y-89027000D01*
X144907000Y-89027000D01*
X144907000Y-89047000D01*
X144653000Y-89047000D01*
X144653000Y-89027000D01*
X143459845Y-89027000D01*
X143338524Y-89256890D01*
X143383175Y-89404099D01*
X143508359Y-89666920D01*
X143682412Y-89900269D01*
X143898645Y-90095178D01*
X144148748Y-90244157D01*
X144311168Y-90301772D01*
X144196903Y-90349102D01*
X143995283Y-90483820D01*
X143823820Y-90655283D01*
X143689102Y-90856903D01*
X143657996Y-90932000D01*
X143187021Y-90932000D01*
X141198600Y-88943580D01*
X141198600Y-85300420D01*
X142599745Y-86701565D01*
X142615652Y-86720948D01*
X142693005Y-86784429D01*
X142781257Y-86831601D01*
X142877015Y-86860649D01*
X142951653Y-86868000D01*
X142951656Y-86868000D01*
X142976600Y-86870457D01*
X143001544Y-86868000D01*
X143657996Y-86868000D01*
X143689102Y-86943097D01*
X143823820Y-87144717D01*
X143995283Y-87316180D01*
X144196903Y-87450898D01*
X144311168Y-87498228D01*
X144148748Y-87555843D01*
X143898645Y-87704822D01*
X143682412Y-87899731D01*
X143508359Y-88133080D01*
X143383175Y-88395901D01*
X143338524Y-88543110D01*
X143459845Y-88773000D01*
X144653000Y-88773000D01*
X144653000Y-88753000D01*
X144907000Y-88753000D01*
X144907000Y-88773000D01*
X146100155Y-88773000D01*
X146221476Y-88543110D01*
X146176825Y-88395901D01*
X146051641Y-88133080D01*
X145877588Y-87899731D01*
X145661355Y-87704822D01*
X145411252Y-87555843D01*
X145248832Y-87498228D01*
X145363097Y-87450898D01*
X145564717Y-87316180D01*
X145736180Y-87144717D01*
X145870898Y-86943097D01*
X145963693Y-86719069D01*
X146011000Y-86481243D01*
X146011000Y-86238757D01*
X145963693Y-86000931D01*
X145870898Y-85776903D01*
X145736180Y-85575283D01*
X145564717Y-85403820D01*
X145363097Y-85269102D01*
X145139069Y-85176307D01*
X144901243Y-85129000D01*
X144658757Y-85129000D01*
X144420931Y-85176307D01*
X144196903Y-85269102D01*
X143995283Y-85403820D01*
X143823820Y-85575283D01*
X143689102Y-85776903D01*
X143657996Y-85852000D01*
X143187020Y-85852000D01*
X141579600Y-84244580D01*
X141579600Y-83141420D01*
X142599750Y-84161571D01*
X142615652Y-84180948D01*
X142635029Y-84196850D01*
X142693004Y-84244429D01*
X142764320Y-84282548D01*
X142781257Y-84291601D01*
X142877015Y-84320649D01*
X142951653Y-84328000D01*
X142951655Y-84328000D01*
X142976599Y-84330457D01*
X143001543Y-84328000D01*
X143657996Y-84328000D01*
X143689102Y-84403097D01*
X143823820Y-84604717D01*
X143995283Y-84776180D01*
X144196903Y-84910898D01*
X144420931Y-85003693D01*
X144658757Y-85051000D01*
X144901243Y-85051000D01*
X145139069Y-85003693D01*
X145363097Y-84910898D01*
X145564717Y-84776180D01*
X145736180Y-84604717D01*
X145870898Y-84403097D01*
X145963693Y-84179069D01*
X146011000Y-83941243D01*
X146011000Y-83698757D01*
X145963693Y-83460931D01*
X145870898Y-83236903D01*
X145736180Y-83035283D01*
X145564717Y-82863820D01*
X145363097Y-82729102D01*
X145139069Y-82636307D01*
X144901243Y-82589000D01*
X144658757Y-82589000D01*
X144420931Y-82636307D01*
X144196903Y-82729102D01*
X143995283Y-82863820D01*
X143823820Y-83035283D01*
X143689102Y-83236903D01*
X143657996Y-83312000D01*
X143187021Y-83312000D01*
X141960600Y-82085580D01*
X141960600Y-80982420D01*
X142599750Y-81621571D01*
X142615652Y-81640948D01*
X142635029Y-81656850D01*
X142693004Y-81704429D01*
X142740176Y-81729643D01*
X142781257Y-81751601D01*
X142877015Y-81780649D01*
X142951653Y-81788000D01*
X142951655Y-81788000D01*
X142976599Y-81790457D01*
X143001543Y-81788000D01*
X143657996Y-81788000D01*
X143689102Y-81863097D01*
X143823820Y-82064717D01*
X143995283Y-82236180D01*
X144196903Y-82370898D01*
X144420931Y-82463693D01*
X144658757Y-82511000D01*
X144901243Y-82511000D01*
X145139069Y-82463693D01*
X145363097Y-82370898D01*
X145564717Y-82236180D01*
X145736180Y-82064717D01*
X145870898Y-81863097D01*
X145963693Y-81639069D01*
X146011000Y-81401243D01*
X146011000Y-81158757D01*
X145963693Y-80920931D01*
X145870898Y-80696903D01*
X145736180Y-80495283D01*
X145564717Y-80323820D01*
X145363097Y-80189102D01*
X145139069Y-80096307D01*
X144901243Y-80049000D01*
X144658757Y-80049000D01*
X144420931Y-80096307D01*
X144196903Y-80189102D01*
X143995283Y-80323820D01*
X143823820Y-80495283D01*
X143689102Y-80696903D01*
X143657996Y-80772000D01*
X143187021Y-80772000D01*
X142341600Y-79926580D01*
X142341600Y-78823420D01*
X142599745Y-79081565D01*
X142615652Y-79100948D01*
X142693005Y-79164429D01*
X142781257Y-79211601D01*
X142877015Y-79240649D01*
X142951653Y-79248000D01*
X142951656Y-79248000D01*
X142976600Y-79250457D01*
X143001544Y-79248000D01*
X143657996Y-79248000D01*
X143689102Y-79323097D01*
X143823820Y-79524717D01*
X143995283Y-79696180D01*
X144196903Y-79830898D01*
X144420931Y-79923693D01*
X144658757Y-79971000D01*
X144901243Y-79971000D01*
X145139069Y-79923693D01*
X145363097Y-79830898D01*
X145564717Y-79696180D01*
X145736180Y-79524717D01*
X145870898Y-79323097D01*
X145963693Y-79099069D01*
X146011000Y-78861243D01*
X146011000Y-78618757D01*
X145963693Y-78380931D01*
X145870898Y-78156903D01*
X145736180Y-77955283D01*
X145564717Y-77783820D01*
X145363097Y-77649102D01*
X145139069Y-77556307D01*
X144901243Y-77509000D01*
X144658757Y-77509000D01*
X144420931Y-77556307D01*
X144196903Y-77649102D01*
X143995283Y-77783820D01*
X143823820Y-77955283D01*
X143689102Y-78156903D01*
X143657996Y-78232000D01*
X143187020Y-78232000D01*
X142722600Y-77767580D01*
X142722600Y-76640248D01*
X142781255Y-76671600D01*
X142781257Y-76671601D01*
X142877015Y-76700649D01*
X142951653Y-76708000D01*
X142951655Y-76708000D01*
X142976599Y-76710457D01*
X143001543Y-76708000D01*
X143657996Y-76708000D01*
X143689102Y-76783097D01*
X143823820Y-76984717D01*
X143995283Y-77156180D01*
X144196903Y-77290898D01*
X144420931Y-77383693D01*
X144658757Y-77431000D01*
X144901243Y-77431000D01*
X145139069Y-77383693D01*
X145363097Y-77290898D01*
X145564717Y-77156180D01*
X145736180Y-76984717D01*
X145870898Y-76783097D01*
X145963693Y-76559069D01*
X146011000Y-76321243D01*
X146011000Y-76078757D01*
X145963693Y-75840931D01*
X145870898Y-75616903D01*
X145736180Y-75415283D01*
X145564717Y-75243820D01*
X145363097Y-75109102D01*
X145248832Y-75061772D01*
X145411252Y-75004157D01*
X145661355Y-74855178D01*
X145877588Y-74660269D01*
X146051641Y-74426920D01*
X146176825Y-74164099D01*
X146221476Y-74016890D01*
X146100155Y-73787000D01*
X144907000Y-73787000D01*
X144907000Y-73807000D01*
X144653000Y-73807000D01*
X144653000Y-73787000D01*
X143459845Y-73787000D01*
X143338524Y-74016890D01*
X143383175Y-74164099D01*
X143508359Y-74426920D01*
X143682412Y-74660269D01*
X143898645Y-74855178D01*
X144148748Y-75004157D01*
X144311168Y-75061772D01*
X144196903Y-75109102D01*
X143995283Y-75243820D01*
X143823820Y-75415283D01*
X143689102Y-75616903D01*
X143657996Y-75692000D01*
X143187021Y-75692000D01*
X143103600Y-75608580D01*
X143103600Y-71546672D01*
X143158859Y-71576208D01*
X143187657Y-71591601D01*
X143283415Y-71620649D01*
X143358053Y-71628000D01*
X143358055Y-71628000D01*
X143382999Y-71630457D01*
X143407943Y-71628000D01*
X143657996Y-71628000D01*
X143689102Y-71703097D01*
X143823820Y-71904717D01*
X143995283Y-72076180D01*
X144196903Y-72210898D01*
X144311168Y-72258228D01*
X144148748Y-72315843D01*
X143898645Y-72464822D01*
X143682412Y-72659731D01*
X143508359Y-72893080D01*
X143383175Y-73155901D01*
X143338524Y-73303110D01*
X143459845Y-73533000D01*
X144653000Y-73533000D01*
X144653000Y-73513000D01*
X144907000Y-73513000D01*
X144907000Y-73533000D01*
X146100155Y-73533000D01*
X146221476Y-73303110D01*
X146176825Y-73155901D01*
X146051641Y-72893080D01*
X145877588Y-72659731D01*
X145661355Y-72464822D01*
X145411252Y-72315843D01*
X145248832Y-72258228D01*
X145363097Y-72210898D01*
X145564717Y-72076180D01*
X145736180Y-71904717D01*
X145870898Y-71703097D01*
X145963693Y-71479069D01*
X146011000Y-71241243D01*
X146011000Y-70998757D01*
X145963693Y-70760931D01*
X145870898Y-70536903D01*
X145736180Y-70335283D01*
X145564717Y-70163820D01*
X145363097Y-70029102D01*
X145139069Y-69936307D01*
X144901243Y-69889000D01*
X144658757Y-69889000D01*
X144420931Y-69936307D01*
X144196903Y-70029102D01*
X143995283Y-70163820D01*
X143823820Y-70335283D01*
X143689102Y-70536903D01*
X143657996Y-70612000D01*
X143593421Y-70612000D01*
X143484600Y-70503180D01*
X143484600Y-69316144D01*
X143487057Y-69291200D01*
X143484142Y-69261601D01*
X143477249Y-69191615D01*
X143448201Y-69095857D01*
X143444001Y-69088000D01*
X143657996Y-69088000D01*
X143689102Y-69163097D01*
X143823820Y-69364717D01*
X143995283Y-69536180D01*
X144196903Y-69670898D01*
X144420931Y-69763693D01*
X144658757Y-69811000D01*
X144901243Y-69811000D01*
X145139069Y-69763693D01*
X145363097Y-69670898D01*
X145564717Y-69536180D01*
X145736180Y-69364717D01*
X145870898Y-69163097D01*
X145963693Y-68939069D01*
X146011000Y-68701243D01*
X146011000Y-68458757D01*
X145963693Y-68220931D01*
X145870898Y-67996903D01*
X145736180Y-67795283D01*
X145564717Y-67623820D01*
X145363097Y-67489102D01*
X145139069Y-67396307D01*
X144901243Y-67349000D01*
X144658757Y-67349000D01*
X144420931Y-67396307D01*
X144196903Y-67489102D01*
X143995283Y-67623820D01*
X143823820Y-67795283D01*
X143689102Y-67996903D01*
X143657996Y-68072000D01*
X143034621Y-68072000D01*
X141510620Y-66548000D01*
X143657996Y-66548000D01*
X143689102Y-66623097D01*
X143823820Y-66824717D01*
X143995283Y-66996180D01*
X144196903Y-67130898D01*
X144420931Y-67223693D01*
X144658757Y-67271000D01*
X144901243Y-67271000D01*
X145139069Y-67223693D01*
X145363097Y-67130898D01*
X145564717Y-66996180D01*
X145736180Y-66824717D01*
X145870898Y-66623097D01*
X145963693Y-66399069D01*
X146011000Y-66161243D01*
X146011000Y-65918757D01*
X145963693Y-65680931D01*
X145870898Y-65456903D01*
X145736180Y-65255283D01*
X145564717Y-65083820D01*
X145363097Y-64949102D01*
X145139069Y-64856307D01*
X144901243Y-64809000D01*
X144658757Y-64809000D01*
X144420931Y-64856307D01*
X144196903Y-64949102D01*
X143995283Y-65083820D01*
X143823820Y-65255283D01*
X143689102Y-65456903D01*
X143657996Y-65532000D01*
X141033449Y-65532000D01*
X140945884Y-65444435D01*
X140929977Y-65425052D01*
X140852624Y-65361571D01*
X140764372Y-65314399D01*
X140668614Y-65285351D01*
X140593976Y-65278000D01*
X140593973Y-65278000D01*
X140569029Y-65275543D01*
X140544085Y-65278000D01*
X137572919Y-65278000D01*
X138842919Y-64008000D01*
X143657996Y-64008000D01*
X143689102Y-64083097D01*
X143823820Y-64284717D01*
X143995283Y-64456180D01*
X144196903Y-64590898D01*
X144420931Y-64683693D01*
X144658757Y-64731000D01*
X144901243Y-64731000D01*
X145139069Y-64683693D01*
X145363097Y-64590898D01*
X145564717Y-64456180D01*
X145736180Y-64284717D01*
X145870898Y-64083097D01*
X145963693Y-63859069D01*
X146011000Y-63621243D01*
X146011000Y-63378757D01*
X145963693Y-63140931D01*
X145870898Y-62916903D01*
X145736180Y-62715283D01*
X145564717Y-62543820D01*
X145363097Y-62409102D01*
X145248832Y-62361772D01*
X145411252Y-62304157D01*
X145661355Y-62155178D01*
X145877588Y-61960269D01*
X146051641Y-61726920D01*
X146176825Y-61464099D01*
X146221476Y-61316890D01*
X146100155Y-61087000D01*
X144907000Y-61087000D01*
X144907000Y-61107000D01*
X144653000Y-61107000D01*
X144653000Y-61087000D01*
X143459845Y-61087000D01*
X143338524Y-61316890D01*
X143383175Y-61464099D01*
X143508359Y-61726920D01*
X143682412Y-61960269D01*
X143898645Y-62155178D01*
X144148748Y-62304157D01*
X144311168Y-62361772D01*
X144196903Y-62409102D01*
X143995283Y-62543820D01*
X143823820Y-62715283D01*
X143689102Y-62916903D01*
X143657996Y-62992000D01*
X139097621Y-62992000D01*
X140244771Y-61844850D01*
X140264148Y-61828948D01*
X140285688Y-61802701D01*
X140327629Y-61751596D01*
X140358102Y-61694584D01*
X140374801Y-61663343D01*
X140403849Y-61567585D01*
X140411200Y-61492947D01*
X140411200Y-61492945D01*
X140413657Y-61468001D01*
X140411200Y-61443057D01*
X140411200Y-59671820D01*
X141155021Y-58928000D01*
X143657996Y-58928000D01*
X143689102Y-59003097D01*
X143823820Y-59204717D01*
X143995283Y-59376180D01*
X144196903Y-59510898D01*
X144311168Y-59558228D01*
X144148748Y-59615843D01*
X143898645Y-59764822D01*
X143682412Y-59959731D01*
X143508359Y-60193080D01*
X143383175Y-60455901D01*
X143338524Y-60603110D01*
X143459845Y-60833000D01*
X144653000Y-60833000D01*
X144653000Y-60813000D01*
X144907000Y-60813000D01*
X144907000Y-60833000D01*
X146100155Y-60833000D01*
X146221476Y-60603110D01*
X146176825Y-60455901D01*
X146051641Y-60193080D01*
X145877588Y-59959731D01*
X145661355Y-59764822D01*
X145411252Y-59615843D01*
X145248832Y-59558228D01*
X145363097Y-59510898D01*
X145564717Y-59376180D01*
X145736180Y-59204717D01*
X145870898Y-59003097D01*
X145963693Y-58779069D01*
X146011000Y-58541243D01*
X146011000Y-58298757D01*
X145963693Y-58060931D01*
X145870898Y-57836903D01*
X145736180Y-57635283D01*
X145564717Y-57463820D01*
X145363097Y-57329102D01*
X145139069Y-57236307D01*
X144901243Y-57189000D01*
X144658757Y-57189000D01*
X144420931Y-57236307D01*
X144196903Y-57329102D01*
X143995283Y-57463820D01*
X143823820Y-57635283D01*
X143689102Y-57836903D01*
X143657996Y-57912000D01*
X140969543Y-57912000D01*
X140944599Y-57909543D01*
X140919655Y-57912000D01*
X140919653Y-57912000D01*
X140845015Y-57919351D01*
X140749257Y-57948399D01*
X140708176Y-57970357D01*
X140661004Y-57995571D01*
X140606410Y-58040376D01*
X140583652Y-58059052D01*
X140567750Y-58078429D01*
X140030200Y-58615980D01*
X140030200Y-57487420D01*
X141129621Y-56388000D01*
X143657996Y-56388000D01*
X143689102Y-56463097D01*
X143823820Y-56664717D01*
X143995283Y-56836180D01*
X144196903Y-56970898D01*
X144420931Y-57063693D01*
X144658757Y-57111000D01*
X144901243Y-57111000D01*
X145139069Y-57063693D01*
X145363097Y-56970898D01*
X145564717Y-56836180D01*
X145736180Y-56664717D01*
X145870898Y-56463097D01*
X145963693Y-56239069D01*
X146011000Y-56001243D01*
X146011000Y-55758757D01*
X145963693Y-55520931D01*
X145870898Y-55296903D01*
X145736180Y-55095283D01*
X145564717Y-54923820D01*
X145363097Y-54789102D01*
X145139069Y-54696307D01*
X144901243Y-54649000D01*
X144658757Y-54649000D01*
X144420931Y-54696307D01*
X144196903Y-54789102D01*
X143995283Y-54923820D01*
X143823820Y-55095283D01*
X143689102Y-55296903D01*
X143657996Y-55372000D01*
X140944143Y-55372000D01*
X140919199Y-55369543D01*
X140894255Y-55372000D01*
X140894253Y-55372000D01*
X140819615Y-55379351D01*
X140723857Y-55408399D01*
X140723855Y-55408400D01*
X140635604Y-55455571D01*
X140581010Y-55500376D01*
X140558252Y-55519052D01*
X140542350Y-55538429D01*
X139649200Y-56431580D01*
X139649200Y-54134620D01*
X139935820Y-53848000D01*
X143657996Y-53848000D01*
X143689102Y-53923097D01*
X143823820Y-54124717D01*
X143995283Y-54296180D01*
X144196903Y-54430898D01*
X144420931Y-54523693D01*
X144658757Y-54571000D01*
X144901243Y-54571000D01*
X145139069Y-54523693D01*
X145363097Y-54430898D01*
X145564717Y-54296180D01*
X145736180Y-54124717D01*
X145870898Y-53923097D01*
X145963693Y-53699069D01*
X146011000Y-53461243D01*
X146011000Y-53218757D01*
X145963693Y-52980931D01*
X145870898Y-52756903D01*
X145736180Y-52555283D01*
X145564717Y-52383820D01*
X145363097Y-52249102D01*
X145139069Y-52156307D01*
X144901243Y-52109000D01*
X144658757Y-52109000D01*
X144420931Y-52156307D01*
X144196903Y-52249102D01*
X143995283Y-52383820D01*
X143823820Y-52555283D01*
X143689102Y-52756903D01*
X143657996Y-52832000D01*
X139750344Y-52832000D01*
X139725400Y-52829543D01*
X139700456Y-52832000D01*
X139700453Y-52832000D01*
X139625815Y-52839351D01*
X139530057Y-52868399D01*
X139441805Y-52915571D01*
X139364452Y-52979052D01*
X139348545Y-52998435D01*
X139242800Y-53104180D01*
X139242800Y-51975620D01*
X139910421Y-51308000D01*
X143657996Y-51308000D01*
X143689102Y-51383097D01*
X143823820Y-51584717D01*
X143995283Y-51756180D01*
X144196903Y-51890898D01*
X144420931Y-51983693D01*
X144658757Y-52031000D01*
X144901243Y-52031000D01*
X145139069Y-51983693D01*
X145363097Y-51890898D01*
X145564717Y-51756180D01*
X145736180Y-51584717D01*
X145870898Y-51383097D01*
X145963693Y-51159069D01*
X146011000Y-50921243D01*
X146011000Y-50678757D01*
X145963693Y-50440931D01*
X145870898Y-50216903D01*
X145736180Y-50015283D01*
X145564717Y-49843820D01*
X145363097Y-49709102D01*
X145139069Y-49616307D01*
X144901243Y-49569000D01*
X144658757Y-49569000D01*
X144420931Y-49616307D01*
X144196903Y-49709102D01*
X143995283Y-49843820D01*
X143823820Y-50015283D01*
X143689102Y-50216903D01*
X143657996Y-50292000D01*
X139724944Y-50292000D01*
X139700000Y-50289543D01*
X139675056Y-50292000D01*
X139675053Y-50292000D01*
X139600415Y-50299351D01*
X139504657Y-50328399D01*
X139463576Y-50350357D01*
X139416404Y-50375571D01*
X139361810Y-50420376D01*
X139339052Y-50439052D01*
X139323150Y-50458429D01*
X138836400Y-50945180D01*
X138836400Y-49816620D01*
X139885021Y-48768000D01*
X143657996Y-48768000D01*
X143689102Y-48843097D01*
X143823820Y-49044717D01*
X143995283Y-49216180D01*
X144196903Y-49350898D01*
X144420931Y-49443693D01*
X144658757Y-49491000D01*
X144901243Y-49491000D01*
X145139069Y-49443693D01*
X145363097Y-49350898D01*
X145564717Y-49216180D01*
X145736180Y-49044717D01*
X145870898Y-48843097D01*
X145963693Y-48619069D01*
X146011000Y-48381243D01*
X146011000Y-48138757D01*
X145963693Y-47900931D01*
X145870898Y-47676903D01*
X145736180Y-47475283D01*
X145564717Y-47303820D01*
X145363097Y-47169102D01*
X145248832Y-47121772D01*
X145411252Y-47064157D01*
X145661355Y-46915178D01*
X145877588Y-46720269D01*
X146051641Y-46486920D01*
X146176825Y-46224099D01*
X146221476Y-46076890D01*
X146100155Y-45847000D01*
X144907000Y-45847000D01*
X144907000Y-45867000D01*
X144653000Y-45867000D01*
X144653000Y-45847000D01*
X143459845Y-45847000D01*
X143338524Y-46076890D01*
X143383175Y-46224099D01*
X143508359Y-46486920D01*
X143682412Y-46720269D01*
X143898645Y-46915178D01*
X144148748Y-47064157D01*
X144311168Y-47121772D01*
X144196903Y-47169102D01*
X143995283Y-47303820D01*
X143823820Y-47475283D01*
X143689102Y-47676903D01*
X143657996Y-47752000D01*
X139699543Y-47752000D01*
X139674599Y-47749543D01*
X139649655Y-47752000D01*
X139649653Y-47752000D01*
X139575015Y-47759351D01*
X139479257Y-47788399D01*
X139479255Y-47788400D01*
X139391004Y-47835571D01*
X139336410Y-47880376D01*
X139313652Y-47899052D01*
X139297750Y-47918429D01*
X138455400Y-48760780D01*
X138455400Y-45117620D01*
X139885020Y-43688000D01*
X143657996Y-43688000D01*
X143689102Y-43763097D01*
X143823820Y-43964717D01*
X143995283Y-44136180D01*
X144196903Y-44270898D01*
X144311168Y-44318228D01*
X144148748Y-44375843D01*
X143898645Y-44524822D01*
X143682412Y-44719731D01*
X143508359Y-44953080D01*
X143383175Y-45215901D01*
X143338524Y-45363110D01*
X143459845Y-45593000D01*
X144653000Y-45593000D01*
X144653000Y-45573000D01*
X144907000Y-45573000D01*
X144907000Y-45593000D01*
X146100155Y-45593000D01*
X146221476Y-45363110D01*
X146176825Y-45215901D01*
X146051641Y-44953080D01*
X145877588Y-44719731D01*
X145661355Y-44524822D01*
X145411252Y-44375843D01*
X145248832Y-44318228D01*
X145363097Y-44270898D01*
X145564717Y-44136180D01*
X145736180Y-43964717D01*
X145870898Y-43763097D01*
X145963693Y-43539069D01*
X146011000Y-43301243D01*
X146011000Y-43058757D01*
X145963693Y-42820931D01*
X145870898Y-42596903D01*
X145736180Y-42395283D01*
X145564717Y-42223820D01*
X145363097Y-42089102D01*
X145139069Y-41996307D01*
X144901243Y-41949000D01*
X144658757Y-41949000D01*
X144420931Y-41996307D01*
X144196903Y-42089102D01*
X143995283Y-42223820D01*
X143823820Y-42395283D01*
X143689102Y-42596903D01*
X143657996Y-42672000D01*
X139699544Y-42672000D01*
X139674600Y-42669543D01*
X139649656Y-42672000D01*
X139649653Y-42672000D01*
X139575015Y-42679351D01*
X139479257Y-42708399D01*
X139391005Y-42755571D01*
X139313652Y-42819052D01*
X139297745Y-42838435D01*
X138049000Y-44087180D01*
X138049000Y-42984020D01*
X139885021Y-41148000D01*
X143657996Y-41148000D01*
X143689102Y-41223097D01*
X143823820Y-41424717D01*
X143995283Y-41596180D01*
X144196903Y-41730898D01*
X144420931Y-41823693D01*
X144658757Y-41871000D01*
X144901243Y-41871000D01*
X145139069Y-41823693D01*
X145363097Y-41730898D01*
X145564717Y-41596180D01*
X145736180Y-41424717D01*
X145870898Y-41223097D01*
X145963693Y-40999069D01*
X146011000Y-40761243D01*
X146011000Y-40518757D01*
X145963693Y-40280931D01*
X145870898Y-40056903D01*
X145736180Y-39855283D01*
X145564717Y-39683820D01*
X145363097Y-39549102D01*
X145139069Y-39456307D01*
X144901243Y-39409000D01*
X144658757Y-39409000D01*
X144420931Y-39456307D01*
X144196903Y-39549102D01*
X143995283Y-39683820D01*
X143823820Y-39855283D01*
X143689102Y-40056903D01*
X143657996Y-40132000D01*
X139699543Y-40132000D01*
X139674599Y-40129543D01*
X139649655Y-40132000D01*
X139649653Y-40132000D01*
X139575015Y-40139351D01*
X139479257Y-40168399D01*
X139438176Y-40190357D01*
X139391004Y-40215571D01*
X139336410Y-40260376D01*
X139313652Y-40279052D01*
X139297750Y-40298429D01*
X137668000Y-41928180D01*
X137668000Y-39152623D01*
X137727179Y-39134671D01*
X137836589Y-39076190D01*
X137932488Y-38997488D01*
X138011190Y-38901589D01*
X138069671Y-38792179D01*
X138105683Y-38673462D01*
X138112131Y-38608000D01*
X143547157Y-38608000D01*
X143547157Y-38950000D01*
X143554513Y-39024689D01*
X143576299Y-39096508D01*
X143611678Y-39162696D01*
X143659289Y-39220711D01*
X143717304Y-39268322D01*
X143783492Y-39303701D01*
X143855311Y-39325487D01*
X143930000Y-39332843D01*
X145630000Y-39332843D01*
X145704689Y-39325487D01*
X145776508Y-39303701D01*
X145842696Y-39268322D01*
X145900711Y-39220711D01*
X145948322Y-39162696D01*
X145983701Y-39096508D01*
X146005487Y-39024689D01*
X146012843Y-38950000D01*
X146012843Y-37250000D01*
X146005487Y-37175311D01*
X145983701Y-37103492D01*
X145948322Y-37037304D01*
X145900711Y-36979289D01*
X145842696Y-36931678D01*
X145776508Y-36896299D01*
X145704689Y-36874513D01*
X145630000Y-36867157D01*
X143930000Y-36867157D01*
X143855311Y-36874513D01*
X143783492Y-36896299D01*
X143717304Y-36931678D01*
X143659289Y-36979289D01*
X143611678Y-37037304D01*
X143576299Y-37103492D01*
X143554513Y-37175311D01*
X143547157Y-37250000D01*
X143547157Y-37592000D01*
X138112131Y-37592000D01*
X138105683Y-37526538D01*
X138069671Y-37407821D01*
X138011190Y-37298411D01*
X137932488Y-37202512D01*
X137836589Y-37123810D01*
X137727179Y-37065329D01*
X137608462Y-37029317D01*
X137485001Y-37017157D01*
X136834999Y-37017157D01*
X136711538Y-37029317D01*
X136592821Y-37065329D01*
X136483411Y-37123810D01*
X136387512Y-37202512D01*
X136312611Y-37293780D01*
X136310812Y-37275518D01*
X136274502Y-37155820D01*
X136215537Y-37045506D01*
X136136185Y-36948815D01*
X136039494Y-36869463D01*
X135929180Y-36810498D01*
X135809482Y-36774188D01*
X135685000Y-36761928D01*
X135395750Y-36765000D01*
X135237000Y-36923750D01*
X135237000Y-37973000D01*
X135257000Y-37973000D01*
X135257000Y-38227000D01*
X135237000Y-38227000D01*
X135237000Y-39276250D01*
X135395750Y-39435000D01*
X135685000Y-39438072D01*
X135809482Y-39425812D01*
X135929180Y-39389502D01*
X136039494Y-39330537D01*
X136136185Y-39251185D01*
X136215537Y-39154494D01*
X136274502Y-39044180D01*
X136310812Y-38924482D01*
X136312611Y-38906220D01*
X136387512Y-38997488D01*
X136483411Y-39076190D01*
X136592821Y-39134671D01*
X136652001Y-39152623D01*
X136652000Y-40664946D01*
X136652001Y-40664956D01*
X136652000Y-59762080D01*
X136641412Y-59772667D01*
X136588500Y-59767456D01*
X134912100Y-59767456D01*
X134837411Y-59774812D01*
X134765592Y-59796598D01*
X134699404Y-59831977D01*
X134641389Y-59879588D01*
X134593778Y-59937603D01*
X134558399Y-60003791D01*
X134536613Y-60075610D01*
X134529257Y-60150299D01*
X134529257Y-60429699D01*
X134536613Y-60504388D01*
X134547416Y-60539999D01*
X134536613Y-60575611D01*
X134529257Y-60650300D01*
X134529257Y-60929700D01*
X134536613Y-61004389D01*
X134547415Y-61040000D01*
X134536613Y-61075610D01*
X134529994Y-61142820D01*
X134467155Y-61192962D01*
X134386482Y-61288554D01*
X134340600Y-61371628D01*
X134340600Y-59118131D01*
X134406062Y-59111683D01*
X134524779Y-59075671D01*
X134634189Y-59017190D01*
X134730088Y-58938488D01*
X134808790Y-58842589D01*
X134867271Y-58733179D01*
X134903283Y-58614462D01*
X134915443Y-58491001D01*
X134915443Y-57840999D01*
X134903283Y-57717538D01*
X134867271Y-57598821D01*
X134808790Y-57489411D01*
X134730088Y-57393512D01*
X134638820Y-57318611D01*
X134657082Y-57316812D01*
X134776780Y-57280502D01*
X134887094Y-57221537D01*
X134983785Y-57142185D01*
X135063137Y-57045494D01*
X135122102Y-56935180D01*
X135158412Y-56815482D01*
X135170672Y-56691000D01*
X135167600Y-56401750D01*
X135008850Y-56243000D01*
X133959600Y-56243000D01*
X133959600Y-56263000D01*
X133705600Y-56263000D01*
X133705600Y-56243000D01*
X132656350Y-56243000D01*
X132497600Y-56401750D01*
X132494528Y-56691000D01*
X132506788Y-56815482D01*
X132543098Y-56935180D01*
X132602063Y-57045494D01*
X132681415Y-57142185D01*
X132778106Y-57221537D01*
X132888420Y-57280502D01*
X133008118Y-57316812D01*
X133026380Y-57318611D01*
X132935112Y-57393512D01*
X132856410Y-57489411D01*
X132797929Y-57598821D01*
X132761917Y-57717538D01*
X132750912Y-57829268D01*
X132373435Y-58206745D01*
X132354052Y-58222652D01*
X132290571Y-58300005D01*
X132243399Y-58388258D01*
X132214351Y-58484016D01*
X132210848Y-58519585D01*
X132204543Y-58583600D01*
X132010202Y-58583600D01*
X132009149Y-58572915D01*
X131980101Y-58477157D01*
X131960268Y-58440052D01*
X131932929Y-58388904D01*
X131885350Y-58330929D01*
X131869448Y-58311552D01*
X131850070Y-58295649D01*
X131383688Y-57829267D01*
X131372683Y-57717538D01*
X131336671Y-57598821D01*
X131278190Y-57489411D01*
X131199488Y-57393512D01*
X131108220Y-57318611D01*
X131126482Y-57316812D01*
X131246180Y-57280502D01*
X131356494Y-57221537D01*
X131453185Y-57142185D01*
X131532537Y-57045494D01*
X131591502Y-56935180D01*
X131627812Y-56815482D01*
X131640072Y-56691000D01*
X131637000Y-56401750D01*
X131478250Y-56243000D01*
X130429000Y-56243000D01*
X130429000Y-56263000D01*
X130175000Y-56263000D01*
X130175000Y-56243000D01*
X129125750Y-56243000D01*
X128967000Y-56401750D01*
X128963928Y-56691000D01*
X128976188Y-56815482D01*
X129012498Y-56935180D01*
X129071463Y-57045494D01*
X129150815Y-57142185D01*
X129247506Y-57221537D01*
X129357820Y-57280502D01*
X129477518Y-57316812D01*
X129495780Y-57318611D01*
X129404512Y-57393512D01*
X129325810Y-57489411D01*
X129267329Y-57598821D01*
X129231317Y-57717538D01*
X129219157Y-57840999D01*
X129219157Y-58491001D01*
X129231317Y-58614462D01*
X129267329Y-58733179D01*
X129325810Y-58842589D01*
X129404512Y-58938488D01*
X129500411Y-59017190D01*
X129609821Y-59075671D01*
X129728538Y-59111683D01*
X129794000Y-59118131D01*
X129794001Y-61325640D01*
X129773518Y-61288554D01*
X129692845Y-61192962D01*
X129630006Y-61142820D01*
X129623387Y-61075610D01*
X129612585Y-61040000D01*
X129623387Y-61004389D01*
X129630743Y-60929700D01*
X129630743Y-60650300D01*
X129623387Y-60575611D01*
X129612585Y-60540001D01*
X129623387Y-60504390D01*
X129630743Y-60429701D01*
X129630743Y-60150301D01*
X129623387Y-60075612D01*
X129601601Y-60003793D01*
X129566222Y-59937605D01*
X129518611Y-59879590D01*
X129460596Y-59831979D01*
X129394408Y-59796600D01*
X129322589Y-59774814D01*
X129247900Y-59767458D01*
X127571500Y-59767458D01*
X127508000Y-59773712D01*
X127508000Y-55541000D01*
X128963928Y-55541000D01*
X128967000Y-55830250D01*
X129125750Y-55989000D01*
X130175000Y-55989000D01*
X130175000Y-55064750D01*
X130429000Y-55064750D01*
X130429000Y-55989000D01*
X131478250Y-55989000D01*
X131637000Y-55830250D01*
X131640072Y-55541000D01*
X132494528Y-55541000D01*
X132497600Y-55830250D01*
X132656350Y-55989000D01*
X133705600Y-55989000D01*
X133705600Y-55064750D01*
X133959600Y-55064750D01*
X133959600Y-55989000D01*
X135008850Y-55989000D01*
X135167600Y-55830250D01*
X135170672Y-55541000D01*
X135158412Y-55416518D01*
X135122102Y-55296820D01*
X135063137Y-55186506D01*
X134983785Y-55089815D01*
X134887094Y-55010463D01*
X134776780Y-54951498D01*
X134657082Y-54915188D01*
X134532600Y-54902928D01*
X134118350Y-54906000D01*
X133959600Y-55064750D01*
X133705600Y-55064750D01*
X133546850Y-54906000D01*
X133132600Y-54902928D01*
X133008118Y-54915188D01*
X132888420Y-54951498D01*
X132778106Y-55010463D01*
X132681415Y-55089815D01*
X132602063Y-55186506D01*
X132543098Y-55296820D01*
X132506788Y-55416518D01*
X132494528Y-55541000D01*
X131640072Y-55541000D01*
X131627812Y-55416518D01*
X131591502Y-55296820D01*
X131532537Y-55186506D01*
X131453185Y-55089815D01*
X131356494Y-55010463D01*
X131246180Y-54951498D01*
X131126482Y-54915188D01*
X131002000Y-54902928D01*
X130587750Y-54906000D01*
X130429000Y-55064750D01*
X130175000Y-55064750D01*
X130016250Y-54906000D01*
X129602000Y-54902928D01*
X129477518Y-54915188D01*
X129357820Y-54951498D01*
X129247506Y-55010463D01*
X129150815Y-55089815D01*
X129071463Y-55186506D01*
X129012498Y-55296820D01*
X128976188Y-55416518D01*
X128963928Y-55541000D01*
X127508000Y-55541000D01*
X127508000Y-39039344D01*
X127510457Y-39014400D01*
X127504114Y-38950000D01*
X127500649Y-38914815D01*
X127471601Y-38819057D01*
X127461415Y-38800000D01*
X133896928Y-38800000D01*
X133909188Y-38924482D01*
X133945498Y-39044180D01*
X134004463Y-39154494D01*
X134083815Y-39251185D01*
X134180506Y-39330537D01*
X134290820Y-39389502D01*
X134410518Y-39425812D01*
X134535000Y-39438072D01*
X134824250Y-39435000D01*
X134983000Y-39276250D01*
X134983000Y-38227000D01*
X134058750Y-38227000D01*
X133900000Y-38385750D01*
X133896928Y-38800000D01*
X127461415Y-38800000D01*
X127424429Y-38730805D01*
X127360948Y-38653452D01*
X127341565Y-38637545D01*
X126462455Y-37758435D01*
X126446548Y-37739052D01*
X126369195Y-37675571D01*
X126280943Y-37628399D01*
X126185185Y-37599351D01*
X126110547Y-37592000D01*
X126110544Y-37592000D01*
X126085600Y-37589543D01*
X126060656Y-37592000D01*
X120612843Y-37592000D01*
X120612843Y-37400000D01*
X133896928Y-37400000D01*
X133900000Y-37814250D01*
X134058750Y-37973000D01*
X134983000Y-37973000D01*
X134983000Y-36923750D01*
X134824250Y-36765000D01*
X134535000Y-36761928D01*
X134410518Y-36774188D01*
X134290820Y-36810498D01*
X134180506Y-36869463D01*
X134083815Y-36948815D01*
X134004463Y-37045506D01*
X133945498Y-37155820D01*
X133909188Y-37275518D01*
X133896928Y-37400000D01*
X120612843Y-37400000D01*
X120612843Y-37250000D01*
X120605487Y-37175311D01*
X120583701Y-37103492D01*
X120548322Y-37037304D01*
X120500711Y-36979289D01*
X120442696Y-36931678D01*
X120376508Y-36896299D01*
X120304689Y-36874513D01*
X120230000Y-36867157D01*
X118530000Y-36867157D01*
X118455311Y-36874513D01*
X118383492Y-36896299D01*
X118317304Y-36931678D01*
X118259289Y-36979289D01*
X118211678Y-37037304D01*
X118176299Y-37103492D01*
X118154513Y-37175311D01*
X118147157Y-37250000D01*
X118147157Y-38950000D01*
X118154513Y-39024689D01*
X118176299Y-39096508D01*
X118211678Y-39162696D01*
X118259289Y-39220711D01*
X118317304Y-39268322D01*
X118383492Y-39303701D01*
X118455311Y-39325487D01*
X118530000Y-39332843D01*
X120230000Y-39332843D01*
X120304689Y-39325487D01*
X120376508Y-39303701D01*
X120442696Y-39268322D01*
X120500711Y-39220711D01*
X120548322Y-39162696D01*
X120583701Y-39096508D01*
X120605487Y-39024689D01*
X120612843Y-38950000D01*
X120612843Y-38608000D01*
X125875180Y-38608000D01*
X126492001Y-39224821D01*
X126492001Y-41242380D01*
X125548055Y-40298435D01*
X125532148Y-40279052D01*
X125454795Y-40215571D01*
X125366543Y-40168399D01*
X125270785Y-40139351D01*
X125196147Y-40132000D01*
X125196144Y-40132000D01*
X125171200Y-40129543D01*
X125146256Y-40132000D01*
X120502004Y-40132000D01*
X120470898Y-40056903D01*
X120336180Y-39855283D01*
X120164717Y-39683820D01*
X119963097Y-39549102D01*
X119739069Y-39456307D01*
X119501243Y-39409000D01*
X119258757Y-39409000D01*
X119020931Y-39456307D01*
X118796903Y-39549102D01*
X118595283Y-39683820D01*
X118423820Y-39855283D01*
X118289102Y-40056903D01*
X118196307Y-40280931D01*
X118149000Y-40518757D01*
X118149000Y-40761243D01*
X118196307Y-40999069D01*
X118289102Y-41223097D01*
X118423820Y-41424717D01*
X118595283Y-41596180D01*
X118796903Y-41730898D01*
X119020931Y-41823693D01*
X119258757Y-41871000D01*
X119501243Y-41871000D01*
X119739069Y-41823693D01*
X119963097Y-41730898D01*
X120164717Y-41596180D01*
X120336180Y-41424717D01*
X120470898Y-41223097D01*
X120502004Y-41148000D01*
X124960780Y-41148000D01*
X126111001Y-42298222D01*
X126111001Y-42793819D01*
X126064395Y-42755571D01*
X125976143Y-42708399D01*
X125880385Y-42679351D01*
X125805747Y-42672000D01*
X125805744Y-42672000D01*
X125780800Y-42669543D01*
X125755856Y-42672000D01*
X120502004Y-42672000D01*
X120470898Y-42596903D01*
X120336180Y-42395283D01*
X120164717Y-42223820D01*
X119963097Y-42089102D01*
X119739069Y-41996307D01*
X119501243Y-41949000D01*
X119258757Y-41949000D01*
X119020931Y-41996307D01*
X118796903Y-42089102D01*
X118595283Y-42223820D01*
X118423820Y-42395283D01*
X118289102Y-42596903D01*
X118196307Y-42820931D01*
X118149000Y-43058757D01*
X118149000Y-43301243D01*
X118196307Y-43539069D01*
X118289102Y-43763097D01*
X118423820Y-43964717D01*
X118595283Y-44136180D01*
X118796903Y-44270898D01*
X118911168Y-44318228D01*
X118748748Y-44375843D01*
X118498645Y-44524822D01*
X118282412Y-44719731D01*
X118108359Y-44953080D01*
X117983175Y-45215901D01*
X117938524Y-45363110D01*
X117754000Y-45363110D01*
X117754000Y-35458000D01*
X146406000Y-35458000D01*
X146406001Y-98146000D01*
G37*
X146406001Y-98146000D02*
X117754000Y-98146000D01*
X117754000Y-45363110D01*
X117938524Y-45363110D01*
X118059845Y-45593000D01*
X119253000Y-45593000D01*
X119253000Y-45573000D01*
X119507000Y-45573000D01*
X119507000Y-45593000D01*
X120700155Y-45593000D01*
X120821476Y-45363110D01*
X120776825Y-45215901D01*
X120651641Y-44953080D01*
X120477588Y-44719731D01*
X120261355Y-44524822D01*
X120011252Y-44375843D01*
X119848832Y-44318228D01*
X119963097Y-44270898D01*
X120164717Y-44136180D01*
X120336180Y-43964717D01*
X120470898Y-43763097D01*
X120502004Y-43688000D01*
X125570380Y-43688000D01*
X125730001Y-43847622D01*
X125730001Y-48125781D01*
X125522655Y-47918435D01*
X125506748Y-47899052D01*
X125429395Y-47835571D01*
X125341143Y-47788399D01*
X125245385Y-47759351D01*
X125170747Y-47752000D01*
X125170744Y-47752000D01*
X125145800Y-47749543D01*
X125120856Y-47752000D01*
X120502004Y-47752000D01*
X120470898Y-47676903D01*
X120336180Y-47475283D01*
X120164717Y-47303820D01*
X119963097Y-47169102D01*
X119848832Y-47121772D01*
X120011252Y-47064157D01*
X120261355Y-46915178D01*
X120477588Y-46720269D01*
X120651641Y-46486920D01*
X120776825Y-46224099D01*
X120821476Y-46076890D01*
X120700155Y-45847000D01*
X119507000Y-45847000D01*
X119507000Y-45867000D01*
X119253000Y-45867000D01*
X119253000Y-45847000D01*
X118059845Y-45847000D01*
X117938524Y-46076890D01*
X117983175Y-46224099D01*
X118108359Y-46486920D01*
X118282412Y-46720269D01*
X118498645Y-46915178D01*
X118748748Y-47064157D01*
X118911168Y-47121772D01*
X118796903Y-47169102D01*
X118595283Y-47303820D01*
X118423820Y-47475283D01*
X118289102Y-47676903D01*
X118196307Y-47900931D01*
X118149000Y-48138757D01*
X118149000Y-48381243D01*
X118196307Y-48619069D01*
X118289102Y-48843097D01*
X118423820Y-49044717D01*
X118595283Y-49216180D01*
X118796903Y-49350898D01*
X119020931Y-49443693D01*
X119258757Y-49491000D01*
X119501243Y-49491000D01*
X119739069Y-49443693D01*
X119963097Y-49350898D01*
X120164717Y-49216180D01*
X120336180Y-49044717D01*
X120470898Y-48843097D01*
X120502004Y-48768000D01*
X124935380Y-48768000D01*
X125349001Y-49181621D01*
X125349001Y-50462581D01*
X125344855Y-50458434D01*
X125328948Y-50439052D01*
X125251595Y-50375571D01*
X125163343Y-50328399D01*
X125067585Y-50299351D01*
X124992947Y-50292000D01*
X124992944Y-50292000D01*
X124968000Y-50289543D01*
X124943056Y-50292000D01*
X120502004Y-50292000D01*
X120470898Y-50216903D01*
X120336180Y-50015283D01*
X120164717Y-49843820D01*
X119963097Y-49709102D01*
X119739069Y-49616307D01*
X119501243Y-49569000D01*
X119258757Y-49569000D01*
X119020931Y-49616307D01*
X118796903Y-49709102D01*
X118595283Y-49843820D01*
X118423820Y-50015283D01*
X118289102Y-50216903D01*
X118196307Y-50440931D01*
X118149000Y-50678757D01*
X118149000Y-50921243D01*
X118196307Y-51159069D01*
X118289102Y-51383097D01*
X118423820Y-51584717D01*
X118595283Y-51756180D01*
X118796903Y-51890898D01*
X119020931Y-51983693D01*
X119258757Y-52031000D01*
X119501243Y-52031000D01*
X119739069Y-51983693D01*
X119963097Y-51890898D01*
X120164717Y-51756180D01*
X120336180Y-51584717D01*
X120470898Y-51383097D01*
X120502004Y-51308000D01*
X124757580Y-51308000D01*
X124968001Y-51518422D01*
X124968001Y-53129581D01*
X124836855Y-52998435D01*
X124820948Y-52979052D01*
X124743595Y-52915571D01*
X124655343Y-52868399D01*
X124559585Y-52839351D01*
X124484947Y-52832000D01*
X124484944Y-52832000D01*
X124460000Y-52829543D01*
X124435056Y-52832000D01*
X120502004Y-52832000D01*
X120470898Y-52756903D01*
X120336180Y-52555283D01*
X120164717Y-52383820D01*
X119963097Y-52249102D01*
X119739069Y-52156307D01*
X119501243Y-52109000D01*
X119258757Y-52109000D01*
X119020931Y-52156307D01*
X118796903Y-52249102D01*
X118595283Y-52383820D01*
X118423820Y-52555283D01*
X118289102Y-52756903D01*
X118196307Y-52980931D01*
X118149000Y-53218757D01*
X118149000Y-53461243D01*
X118196307Y-53699069D01*
X118289102Y-53923097D01*
X118423820Y-54124717D01*
X118595283Y-54296180D01*
X118796903Y-54430898D01*
X119020931Y-54523693D01*
X119258757Y-54571000D01*
X119501243Y-54571000D01*
X119739069Y-54523693D01*
X119963097Y-54430898D01*
X120164717Y-54296180D01*
X120336180Y-54124717D01*
X120470898Y-53923097D01*
X120502004Y-53848000D01*
X124249580Y-53848000D01*
X124587001Y-54185421D01*
X124587001Y-55542581D01*
X124582855Y-55538434D01*
X124566948Y-55519052D01*
X124489595Y-55455571D01*
X124401343Y-55408399D01*
X124305585Y-55379351D01*
X124230947Y-55372000D01*
X124230944Y-55372000D01*
X124206000Y-55369543D01*
X124181056Y-55372000D01*
X120502004Y-55372000D01*
X120470898Y-55296903D01*
X120336180Y-55095283D01*
X120164717Y-54923820D01*
X119963097Y-54789102D01*
X119739069Y-54696307D01*
X119501243Y-54649000D01*
X119258757Y-54649000D01*
X119020931Y-54696307D01*
X118796903Y-54789102D01*
X118595283Y-54923820D01*
X118423820Y-55095283D01*
X118289102Y-55296903D01*
X118196307Y-55520931D01*
X118149000Y-55758757D01*
X118149000Y-56001243D01*
X118196307Y-56239069D01*
X118289102Y-56463097D01*
X118423820Y-56664717D01*
X118595283Y-56836180D01*
X118796903Y-56970898D01*
X119020931Y-57063693D01*
X119258757Y-57111000D01*
X119501243Y-57111000D01*
X119739069Y-57063693D01*
X119963097Y-56970898D01*
X120164717Y-56836180D01*
X120336180Y-56664717D01*
X120470898Y-56463097D01*
X120502004Y-56388000D01*
X123995580Y-56388000D01*
X124206001Y-56598422D01*
X124206001Y-57979752D01*
X124147343Y-57948399D01*
X124051585Y-57919351D01*
X123976947Y-57912000D01*
X123976944Y-57912000D01*
X123952000Y-57909543D01*
X123927056Y-57912000D01*
X120502004Y-57912000D01*
X120470898Y-57836903D01*
X120336180Y-57635283D01*
X120164717Y-57463820D01*
X119963097Y-57329102D01*
X119739069Y-57236307D01*
X119501243Y-57189000D01*
X119258757Y-57189000D01*
X119020931Y-57236307D01*
X118796903Y-57329102D01*
X118595283Y-57463820D01*
X118423820Y-57635283D01*
X118289102Y-57836903D01*
X118196307Y-58060931D01*
X118149000Y-58298757D01*
X118149000Y-58541243D01*
X118196307Y-58779069D01*
X118289102Y-59003097D01*
X118423820Y-59204717D01*
X118595283Y-59376180D01*
X118796903Y-59510898D01*
X118911168Y-59558228D01*
X118748748Y-59615843D01*
X118498645Y-59764822D01*
X118282412Y-59959731D01*
X118108359Y-60193080D01*
X117983175Y-60455901D01*
X117938524Y-60603110D01*
X118059845Y-60833000D01*
X119253000Y-60833000D01*
X119253000Y-60813000D01*
X119507000Y-60813000D01*
X119507000Y-60833000D01*
X120700155Y-60833000D01*
X120821476Y-60603110D01*
X120776825Y-60455901D01*
X120651641Y-60193080D01*
X120477588Y-59959731D01*
X120261355Y-59764822D01*
X120011252Y-59615843D01*
X119848832Y-59558228D01*
X119963097Y-59510898D01*
X120164717Y-59376180D01*
X120336180Y-59204717D01*
X120470898Y-59003097D01*
X120502004Y-58928000D01*
X123741580Y-58928000D01*
X123825001Y-59011422D01*
X123825000Y-62281256D01*
X123822543Y-62306200D01*
X123825000Y-62331144D01*
X123825000Y-62331146D01*
X123832351Y-62405784D01*
X123861399Y-62501542D01*
X123908571Y-62589795D01*
X123972052Y-62667148D01*
X123991435Y-62683055D01*
X125937345Y-64628965D01*
X125953252Y-64648348D01*
X125996321Y-64683693D01*
X126030604Y-64711829D01*
X126066471Y-64731000D01*
X126118857Y-64759001D01*
X126196982Y-64782700D01*
X124937121Y-64782700D01*
X123312855Y-63158435D01*
X123296948Y-63139052D01*
X123219595Y-63075571D01*
X123131343Y-63028399D01*
X123035585Y-62999351D01*
X122960947Y-62992000D01*
X122960944Y-62992000D01*
X122936000Y-62989543D01*
X122911056Y-62992000D01*
X120502004Y-62992000D01*
X120470898Y-62916903D01*
X120336180Y-62715283D01*
X120164717Y-62543820D01*
X119963097Y-62409102D01*
X119848832Y-62361772D01*
X120011252Y-62304157D01*
X120261355Y-62155178D01*
X120477588Y-61960269D01*
X120651641Y-61726920D01*
X120776825Y-61464099D01*
X120821476Y-61316890D01*
X120700155Y-61087000D01*
X119507000Y-61087000D01*
X119507000Y-61107000D01*
X119253000Y-61107000D01*
X119253000Y-61087000D01*
X118059845Y-61087000D01*
X117938524Y-61316890D01*
X117983175Y-61464099D01*
X118108359Y-61726920D01*
X118282412Y-61960269D01*
X118498645Y-62155178D01*
X118748748Y-62304157D01*
X118911168Y-62361772D01*
X118796903Y-62409102D01*
X118595283Y-62543820D01*
X118423820Y-62715283D01*
X118289102Y-62916903D01*
X118196307Y-63140931D01*
X118149000Y-63378757D01*
X118149000Y-63621243D01*
X118196307Y-63859069D01*
X118289102Y-64083097D01*
X118423820Y-64284717D01*
X118595283Y-64456180D01*
X118796903Y-64590898D01*
X119020931Y-64683693D01*
X119258757Y-64731000D01*
X119501243Y-64731000D01*
X119739069Y-64683693D01*
X119963097Y-64590898D01*
X120164717Y-64456180D01*
X120336180Y-64284717D01*
X120470898Y-64083097D01*
X120502004Y-64008000D01*
X122725580Y-64008000D01*
X124118569Y-65400990D01*
X123492924Y-65400990D01*
X123467980Y-65398533D01*
X123443036Y-65400990D01*
X123443034Y-65400990D01*
X123368396Y-65408341D01*
X123272638Y-65437389D01*
X123184386Y-65484561D01*
X123126581Y-65532000D01*
X120502004Y-65532000D01*
X120470898Y-65456903D01*
X120336180Y-65255283D01*
X120164717Y-65083820D01*
X119963097Y-64949102D01*
X119739069Y-64856307D01*
X119501243Y-64809000D01*
X119258757Y-64809000D01*
X119020931Y-64856307D01*
X118796903Y-64949102D01*
X118595283Y-65083820D01*
X118423820Y-65255283D01*
X118289102Y-65456903D01*
X118196307Y-65680931D01*
X118149000Y-65918757D01*
X118149000Y-66161243D01*
X118196307Y-66399069D01*
X118289102Y-66623097D01*
X118423820Y-66824717D01*
X118595283Y-66996180D01*
X118796903Y-67130898D01*
X119020931Y-67223693D01*
X119258757Y-67271000D01*
X119501243Y-67271000D01*
X119739069Y-67223693D01*
X119963097Y-67130898D01*
X120164717Y-66996180D01*
X120336180Y-66824717D01*
X120470898Y-66623097D01*
X120502004Y-66548000D01*
X122649379Y-66548000D01*
X121125380Y-68072000D01*
X120502004Y-68072000D01*
X120470898Y-67996903D01*
X120336180Y-67795283D01*
X120164717Y-67623820D01*
X119963097Y-67489102D01*
X119739069Y-67396307D01*
X119501243Y-67349000D01*
X119258757Y-67349000D01*
X119020931Y-67396307D01*
X118796903Y-67489102D01*
X118595283Y-67623820D01*
X118423820Y-67795283D01*
X118289102Y-67996903D01*
X118196307Y-68220931D01*
X118149000Y-68458757D01*
X118149000Y-68701243D01*
X118196307Y-68939069D01*
X118289102Y-69163097D01*
X118423820Y-69364717D01*
X118595283Y-69536180D01*
X118796903Y-69670898D01*
X119020931Y-69763693D01*
X119258757Y-69811000D01*
X119501243Y-69811000D01*
X119739069Y-69763693D01*
X119963097Y-69670898D01*
X120164717Y-69536180D01*
X120336180Y-69364717D01*
X120470898Y-69163097D01*
X120502004Y-69088000D01*
X121310856Y-69088000D01*
X121335800Y-69090457D01*
X121360744Y-69088000D01*
X121360747Y-69088000D01*
X121412000Y-69082952D01*
X121412001Y-70147579D01*
X120947580Y-70612000D01*
X120502004Y-70612000D01*
X120470898Y-70536903D01*
X120336180Y-70335283D01*
X120164717Y-70163820D01*
X119963097Y-70029102D01*
X119739069Y-69936307D01*
X119501243Y-69889000D01*
X119258757Y-69889000D01*
X119020931Y-69936307D01*
X118796903Y-70029102D01*
X118595283Y-70163820D01*
X118423820Y-70335283D01*
X118289102Y-70536903D01*
X118196307Y-70760931D01*
X118149000Y-70998757D01*
X118149000Y-71241243D01*
X118196307Y-71479069D01*
X118289102Y-71703097D01*
X118423820Y-71904717D01*
X118595283Y-72076180D01*
X118796903Y-72210898D01*
X118911168Y-72258228D01*
X118748748Y-72315843D01*
X118498645Y-72464822D01*
X118282412Y-72659731D01*
X118108359Y-72893080D01*
X117983175Y-73155901D01*
X117938524Y-73303110D01*
X118059845Y-73533000D01*
X119253000Y-73533000D01*
X119253000Y-73513000D01*
X119507000Y-73513000D01*
X119507000Y-73533000D01*
X120700155Y-73533000D01*
X120821476Y-73303110D01*
X120776825Y-73155901D01*
X120651641Y-72893080D01*
X120477588Y-72659731D01*
X120261355Y-72464822D01*
X120011252Y-72315843D01*
X119848832Y-72258228D01*
X119963097Y-72210898D01*
X120164717Y-72076180D01*
X120336180Y-71904717D01*
X120470898Y-71703097D01*
X120502004Y-71628000D01*
X121133056Y-71628000D01*
X121158000Y-71630457D01*
X121182944Y-71628000D01*
X121182947Y-71628000D01*
X121257585Y-71620649D01*
X121353343Y-71591601D01*
X121441595Y-71544429D01*
X121518948Y-71480948D01*
X121534855Y-71461565D01*
X122261565Y-70734855D01*
X122280948Y-70718948D01*
X122301000Y-70694514D01*
X122301001Y-75125979D01*
X121734980Y-75692000D01*
X120502004Y-75692000D01*
X120470898Y-75616903D01*
X120336180Y-75415283D01*
X120164717Y-75243820D01*
X119963097Y-75109102D01*
X119848832Y-75061772D01*
X120011252Y-75004157D01*
X120261355Y-74855178D01*
X120477588Y-74660269D01*
X120651641Y-74426920D01*
X120776825Y-74164099D01*
X120821476Y-74016890D01*
X120700155Y-73787000D01*
X119507000Y-73787000D01*
X119507000Y-73807000D01*
X119253000Y-73807000D01*
X119253000Y-73787000D01*
X118059845Y-73787000D01*
X117938524Y-74016890D01*
X117983175Y-74164099D01*
X118108359Y-74426920D01*
X118282412Y-74660269D01*
X118498645Y-74855178D01*
X118748748Y-75004157D01*
X118911168Y-75061772D01*
X118796903Y-75109102D01*
X118595283Y-75243820D01*
X118423820Y-75415283D01*
X118289102Y-75616903D01*
X118196307Y-75840931D01*
X118149000Y-76078757D01*
X118149000Y-76321243D01*
X118196307Y-76559069D01*
X118289102Y-76783097D01*
X118423820Y-76984717D01*
X118595283Y-77156180D01*
X118796903Y-77290898D01*
X119020931Y-77383693D01*
X119258757Y-77431000D01*
X119501243Y-77431000D01*
X119739069Y-77383693D01*
X119963097Y-77290898D01*
X120164717Y-77156180D01*
X120336180Y-76984717D01*
X120470898Y-76783097D01*
X120502004Y-76708000D01*
X121920456Y-76708000D01*
X121945400Y-76710457D01*
X121970344Y-76708000D01*
X121970347Y-76708000D01*
X122044985Y-76700649D01*
X122140743Y-76671601D01*
X122228995Y-76624429D01*
X122306348Y-76560948D01*
X122322255Y-76541565D01*
X122707401Y-76156419D01*
X122707401Y-77234178D01*
X121709580Y-78232000D01*
X120502004Y-78232000D01*
X120470898Y-78156903D01*
X120336180Y-77955283D01*
X120164717Y-77783820D01*
X119963097Y-77649102D01*
X119739069Y-77556307D01*
X119501243Y-77509000D01*
X119258757Y-77509000D01*
X119020931Y-77556307D01*
X118796903Y-77649102D01*
X118595283Y-77783820D01*
X118423820Y-77955283D01*
X118289102Y-78156903D01*
X118196307Y-78380931D01*
X118149000Y-78618757D01*
X118149000Y-78861243D01*
X118196307Y-79099069D01*
X118289102Y-79323097D01*
X118423820Y-79524717D01*
X118595283Y-79696180D01*
X118796903Y-79830898D01*
X119020931Y-79923693D01*
X119258757Y-79971000D01*
X119501243Y-79971000D01*
X119739069Y-79923693D01*
X119963097Y-79830898D01*
X120164717Y-79696180D01*
X120336180Y-79524717D01*
X120470898Y-79323097D01*
X120502004Y-79248000D01*
X121895056Y-79248000D01*
X121920000Y-79250457D01*
X121944944Y-79248000D01*
X121944947Y-79248000D01*
X122019585Y-79240649D01*
X122115343Y-79211601D01*
X122203595Y-79164429D01*
X122280948Y-79100948D01*
X122296855Y-79081565D01*
X123088401Y-78290020D01*
X123088401Y-79393179D01*
X121709580Y-80772000D01*
X120502004Y-80772000D01*
X120470898Y-80696903D01*
X120336180Y-80495283D01*
X120164717Y-80323820D01*
X119963097Y-80189102D01*
X119739069Y-80096307D01*
X119501243Y-80049000D01*
X119258757Y-80049000D01*
X119020931Y-80096307D01*
X118796903Y-80189102D01*
X118595283Y-80323820D01*
X118423820Y-80495283D01*
X118289102Y-80696903D01*
X118196307Y-80920931D01*
X118149000Y-81158757D01*
X118149000Y-81401243D01*
X118196307Y-81639069D01*
X118289102Y-81863097D01*
X118423820Y-82064717D01*
X118595283Y-82236180D01*
X118796903Y-82370898D01*
X119020931Y-82463693D01*
X119258757Y-82511000D01*
X119501243Y-82511000D01*
X119739069Y-82463693D01*
X119963097Y-82370898D01*
X120164717Y-82236180D01*
X120336180Y-82064717D01*
X120470898Y-81863097D01*
X120502004Y-81788000D01*
X121895056Y-81788000D01*
X121920000Y-81790457D01*
X121944944Y-81788000D01*
X121944947Y-81788000D01*
X122019585Y-81780649D01*
X122115343Y-81751601D01*
X122203595Y-81704429D01*
X122280948Y-81640948D01*
X122296855Y-81621565D01*
X123469401Y-80449019D01*
X123469401Y-81577578D01*
X121734980Y-83312000D01*
X120502004Y-83312000D01*
X120470898Y-83236903D01*
X120336180Y-83035283D01*
X120164717Y-82863820D01*
X119963097Y-82729102D01*
X119739069Y-82636307D01*
X119501243Y-82589000D01*
X119258757Y-82589000D01*
X119020931Y-82636307D01*
X118796903Y-82729102D01*
X118595283Y-82863820D01*
X118423820Y-83035283D01*
X118289102Y-83236903D01*
X118196307Y-83460931D01*
X118149000Y-83698757D01*
X118149000Y-83941243D01*
X118196307Y-84179069D01*
X118289102Y-84403097D01*
X118423820Y-84604717D01*
X118595283Y-84776180D01*
X118796903Y-84910898D01*
X119020931Y-85003693D01*
X119258757Y-85051000D01*
X119501243Y-85051000D01*
X119739069Y-85003693D01*
X119963097Y-84910898D01*
X120164717Y-84776180D01*
X120336180Y-84604717D01*
X120470898Y-84403097D01*
X120502004Y-84328000D01*
X121920456Y-84328000D01*
X121945400Y-84330457D01*
X121970344Y-84328000D01*
X121970347Y-84328000D01*
X122044985Y-84320649D01*
X122140743Y-84291601D01*
X122228995Y-84244429D01*
X122306348Y-84180948D01*
X122322255Y-84161565D01*
X123850401Y-82633420D01*
X123850401Y-83711178D01*
X121709580Y-85852000D01*
X120502004Y-85852000D01*
X120470898Y-85776903D01*
X120336180Y-85575283D01*
X120164717Y-85403820D01*
X119963097Y-85269102D01*
X119739069Y-85176307D01*
X119501243Y-85129000D01*
X119258757Y-85129000D01*
X119020931Y-85176307D01*
X118796903Y-85269102D01*
X118595283Y-85403820D01*
X118423820Y-85575283D01*
X118289102Y-85776903D01*
X118196307Y-86000931D01*
X118149000Y-86238757D01*
X118149000Y-86481243D01*
X118196307Y-86719069D01*
X118289102Y-86943097D01*
X118423820Y-87144717D01*
X118595283Y-87316180D01*
X118796903Y-87450898D01*
X118911168Y-87498228D01*
X118748748Y-87555843D01*
X118498645Y-87704822D01*
X118282412Y-87899731D01*
X118108359Y-88133080D01*
X117983175Y-88395901D01*
X117938524Y-88543110D01*
X118059845Y-88773000D01*
X119253000Y-88773000D01*
X119253000Y-88753000D01*
X119507000Y-88753000D01*
X119507000Y-88773000D01*
X120700155Y-88773000D01*
X120821476Y-88543110D01*
X120776825Y-88395901D01*
X120651641Y-88133080D01*
X120477588Y-87899731D01*
X120261355Y-87704822D01*
X120011252Y-87555843D01*
X119848832Y-87498228D01*
X119963097Y-87450898D01*
X120164717Y-87316180D01*
X120336180Y-87144717D01*
X120470898Y-86943097D01*
X120502004Y-86868000D01*
X121895056Y-86868000D01*
X121920000Y-86870457D01*
X121944944Y-86868000D01*
X121944947Y-86868000D01*
X122019585Y-86860649D01*
X122115343Y-86831601D01*
X122203595Y-86784429D01*
X122280948Y-86720948D01*
X122296855Y-86701565D01*
X124231401Y-84767020D01*
X124231401Y-88410179D01*
X121709580Y-90932000D01*
X120502004Y-90932000D01*
X120470898Y-90856903D01*
X120336180Y-90655283D01*
X120164717Y-90483820D01*
X119963097Y-90349102D01*
X119848832Y-90301772D01*
X120011252Y-90244157D01*
X120261355Y-90095178D01*
X120477588Y-89900269D01*
X120651641Y-89666920D01*
X120776825Y-89404099D01*
X120821476Y-89256890D01*
X120700155Y-89027000D01*
X119507000Y-89027000D01*
X119507000Y-89047000D01*
X119253000Y-89047000D01*
X119253000Y-89027000D01*
X118059845Y-89027000D01*
X117938524Y-89256890D01*
X117983175Y-89404099D01*
X118108359Y-89666920D01*
X118282412Y-89900269D01*
X118498645Y-90095178D01*
X118748748Y-90244157D01*
X118911168Y-90301772D01*
X118796903Y-90349102D01*
X118595283Y-90483820D01*
X118423820Y-90655283D01*
X118289102Y-90856903D01*
X118196307Y-91080931D01*
X118149000Y-91318757D01*
X118149000Y-91561243D01*
X118196307Y-91799069D01*
X118289102Y-92023097D01*
X118423820Y-92224717D01*
X118595283Y-92396180D01*
X118796903Y-92530898D01*
X119020931Y-92623693D01*
X119258757Y-92671000D01*
X119501243Y-92671000D01*
X119739069Y-92623693D01*
X119963097Y-92530898D01*
X120164717Y-92396180D01*
X120336180Y-92224717D01*
X120470898Y-92023097D01*
X120502004Y-91948000D01*
X121895056Y-91948000D01*
X121920000Y-91950457D01*
X121944944Y-91948000D01*
X121944947Y-91948000D01*
X122019585Y-91940649D01*
X122115343Y-91911601D01*
X122203595Y-91864429D01*
X122280948Y-91800948D01*
X122296855Y-91781565D01*
X124612401Y-89466019D01*
X124612401Y-90569178D01*
X121709580Y-93472000D01*
X120502004Y-93472000D01*
X120470898Y-93396903D01*
X120336180Y-93195283D01*
X120164717Y-93023820D01*
X119963097Y-92889102D01*
X119739069Y-92796307D01*
X119501243Y-92749000D01*
X119258757Y-92749000D01*
X119020931Y-92796307D01*
X118796903Y-92889102D01*
X118595283Y-93023820D01*
X118423820Y-93195283D01*
X118289102Y-93396903D01*
X118196307Y-93620931D01*
X118149000Y-93858757D01*
X118149000Y-94101243D01*
X118196307Y-94339069D01*
X118289102Y-94563097D01*
X118423820Y-94764717D01*
X118595283Y-94936180D01*
X118796903Y-95070898D01*
X119020931Y-95163693D01*
X119258757Y-95211000D01*
X119501243Y-95211000D01*
X119739069Y-95163693D01*
X119963097Y-95070898D01*
X120164717Y-94936180D01*
X120336180Y-94764717D01*
X120470898Y-94563097D01*
X120502004Y-94488000D01*
X121895056Y-94488000D01*
X121920000Y-94490457D01*
X121944944Y-94488000D01*
X121944947Y-94488000D01*
X122019585Y-94480649D01*
X122115343Y-94451601D01*
X122203595Y-94404429D01*
X122280948Y-94340948D01*
X122296855Y-94321565D01*
X124993401Y-91625020D01*
X124993401Y-92728178D01*
X121709580Y-96012000D01*
X120502004Y-96012000D01*
X120470898Y-95936903D01*
X120336180Y-95735283D01*
X120164717Y-95563820D01*
X119963097Y-95429102D01*
X119739069Y-95336307D01*
X119501243Y-95289000D01*
X119258757Y-95289000D01*
X119020931Y-95336307D01*
X118796903Y-95429102D01*
X118595283Y-95563820D01*
X118423820Y-95735283D01*
X118289102Y-95936903D01*
X118196307Y-96160931D01*
X118149000Y-96398757D01*
X118149000Y-96641243D01*
X118196307Y-96879069D01*
X118289102Y-97103097D01*
X118423820Y-97304717D01*
X118595283Y-97476180D01*
X118796903Y-97610898D01*
X119020931Y-97703693D01*
X119258757Y-97751000D01*
X119501243Y-97751000D01*
X119739069Y-97703693D01*
X119963097Y-97610898D01*
X120164717Y-97476180D01*
X120336180Y-97304717D01*
X120392786Y-97220000D01*
X135674928Y-97220000D01*
X135687188Y-97344482D01*
X135723498Y-97464180D01*
X135782463Y-97574494D01*
X135861815Y-97671185D01*
X135958506Y-97750537D01*
X136068820Y-97809502D01*
X136188518Y-97845812D01*
X136313000Y-97858072D01*
X136602250Y-97855000D01*
X136761000Y-97696250D01*
X136761000Y-96647000D01*
X135836750Y-96647000D01*
X135678000Y-96805750D01*
X135674928Y-97220000D01*
X120392786Y-97220000D01*
X120470898Y-97103097D01*
X120502004Y-97028000D01*
X121895056Y-97028000D01*
X121920000Y-97030457D01*
X121944944Y-97028000D01*
X121944947Y-97028000D01*
X122019585Y-97020649D01*
X122115343Y-96991601D01*
X122203595Y-96944429D01*
X122280948Y-96880948D01*
X122296855Y-96861565D01*
X123338420Y-95820000D01*
X135674928Y-95820000D01*
X135678000Y-96234250D01*
X135836750Y-96393000D01*
X136761000Y-96393000D01*
X136761000Y-95343750D01*
X136602250Y-95185000D01*
X136313000Y-95181928D01*
X136188518Y-95194188D01*
X136068820Y-95230498D01*
X135958506Y-95289463D01*
X135861815Y-95368815D01*
X135782463Y-95465506D01*
X135723498Y-95575820D01*
X135687188Y-95695518D01*
X135674928Y-95820000D01*
X123338420Y-95820000D01*
X125842971Y-93315450D01*
X125862348Y-93299548D01*
X125922824Y-93225857D01*
X125925829Y-93222196D01*
X125973000Y-93133945D01*
X125973001Y-93133943D01*
X126002049Y-93038185D01*
X126009400Y-92963547D01*
X126009400Y-92963545D01*
X126011857Y-92938601D01*
X126009400Y-92913657D01*
X126009400Y-76539000D01*
X128963928Y-76539000D01*
X128976188Y-76663482D01*
X129012498Y-76783180D01*
X129071463Y-76893494D01*
X129150815Y-76990185D01*
X129247506Y-77069537D01*
X129357820Y-77128502D01*
X129477518Y-77164812D01*
X129602000Y-77177072D01*
X130016250Y-77174000D01*
X130175000Y-77015250D01*
X130175000Y-76091000D01*
X130429000Y-76091000D01*
X130429000Y-77015250D01*
X130587750Y-77174000D01*
X131002000Y-77177072D01*
X131126482Y-77164812D01*
X131246180Y-77128502D01*
X131356494Y-77069537D01*
X131453185Y-76990185D01*
X131532537Y-76893494D01*
X131591502Y-76783180D01*
X131627812Y-76663482D01*
X131640072Y-76539000D01*
X132570728Y-76539000D01*
X132582988Y-76663482D01*
X132619298Y-76783180D01*
X132678263Y-76893494D01*
X132757615Y-76990185D01*
X132854306Y-77069537D01*
X132964620Y-77128502D01*
X133084318Y-77164812D01*
X133208800Y-77177072D01*
X133623050Y-77174000D01*
X133781800Y-77015250D01*
X133781800Y-76091000D01*
X134035800Y-76091000D01*
X134035800Y-77015250D01*
X134194550Y-77174000D01*
X134608800Y-77177072D01*
X134733282Y-77164812D01*
X134852980Y-77128502D01*
X134963294Y-77069537D01*
X135059985Y-76990185D01*
X135139337Y-76893494D01*
X135198302Y-76783180D01*
X135234612Y-76663482D01*
X135246872Y-76539000D01*
X135243800Y-76249750D01*
X135085050Y-76091000D01*
X134035800Y-76091000D01*
X133781800Y-76091000D01*
X132732550Y-76091000D01*
X132573800Y-76249750D01*
X132570728Y-76539000D01*
X131640072Y-76539000D01*
X131637000Y-76249750D01*
X131478250Y-76091000D01*
X130429000Y-76091000D01*
X130175000Y-76091000D01*
X129125750Y-76091000D01*
X128967000Y-76249750D01*
X128963928Y-76539000D01*
X126009400Y-76539000D01*
X126009400Y-72346420D01*
X126057820Y-72298001D01*
X127473119Y-72298001D01*
X127496811Y-72305188D01*
X127571500Y-72312544D01*
X129247900Y-72312544D01*
X129322589Y-72305188D01*
X129394408Y-72283402D01*
X129460596Y-72248023D01*
X129518611Y-72200412D01*
X129566222Y-72142397D01*
X129601601Y-72076209D01*
X129623387Y-72004390D01*
X129630743Y-71929701D01*
X129630743Y-71650301D01*
X129623387Y-71575612D01*
X129612584Y-71540000D01*
X129623387Y-71504389D01*
X129630743Y-71429700D01*
X129630743Y-71150300D01*
X129623387Y-71075611D01*
X129612585Y-71040001D01*
X129623387Y-71004390D01*
X129630006Y-70937180D01*
X129692845Y-70887038D01*
X129773518Y-70791446D01*
X129794001Y-70754360D01*
X129794000Y-72961869D01*
X129728538Y-72968317D01*
X129609821Y-73004329D01*
X129500411Y-73062810D01*
X129404512Y-73141512D01*
X129325810Y-73237411D01*
X129267329Y-73346821D01*
X129231317Y-73465538D01*
X129219157Y-73588999D01*
X129219157Y-74239001D01*
X129231317Y-74362462D01*
X129267329Y-74481179D01*
X129325810Y-74590589D01*
X129404512Y-74686488D01*
X129495780Y-74761389D01*
X129477518Y-74763188D01*
X129357820Y-74799498D01*
X129247506Y-74858463D01*
X129150815Y-74937815D01*
X129071463Y-75034506D01*
X129012498Y-75144820D01*
X128976188Y-75264518D01*
X128963928Y-75389000D01*
X128967000Y-75678250D01*
X129125750Y-75837000D01*
X130175000Y-75837000D01*
X130175000Y-75817000D01*
X130429000Y-75817000D01*
X130429000Y-75837000D01*
X131478250Y-75837000D01*
X131637000Y-75678250D01*
X131640072Y-75389000D01*
X131627812Y-75264518D01*
X131591502Y-75144820D01*
X131532537Y-75034506D01*
X131453185Y-74937815D01*
X131356494Y-74858463D01*
X131246180Y-74799498D01*
X131126482Y-74763188D01*
X131108220Y-74761389D01*
X131199488Y-74686488D01*
X131278190Y-74590589D01*
X131336671Y-74481179D01*
X131363568Y-74392510D01*
X131386343Y-74385601D01*
X131474595Y-74338429D01*
X131551948Y-74274948D01*
X131567855Y-74255565D01*
X131850060Y-73973359D01*
X131869448Y-73957448D01*
X131932929Y-73880095D01*
X131980101Y-73791843D01*
X132009149Y-73696085D01*
X132016500Y-73621447D01*
X132016500Y-73621444D01*
X132018957Y-73596500D01*
X132016500Y-73571556D01*
X132016500Y-58697443D01*
X132018957Y-58672499D01*
X132015520Y-58637601D01*
X132010202Y-58583600D01*
X132204543Y-58583600D01*
X132207000Y-58608544D01*
X132207001Y-73609646D01*
X132204543Y-73634600D01*
X132212822Y-73718655D01*
X132214352Y-73734185D01*
X132231843Y-73791844D01*
X132243400Y-73829943D01*
X132290571Y-73918195D01*
X132338150Y-73976170D01*
X132354053Y-73995548D01*
X132373430Y-74011450D01*
X132617545Y-74255565D01*
X132633452Y-74274948D01*
X132710805Y-74338429D01*
X132799057Y-74385601D01*
X132849806Y-74400996D01*
X132874129Y-74481179D01*
X132932610Y-74590589D01*
X133011312Y-74686488D01*
X133102580Y-74761389D01*
X133084318Y-74763188D01*
X132964620Y-74799498D01*
X132854306Y-74858463D01*
X132757615Y-74937815D01*
X132678263Y-75034506D01*
X132619298Y-75144820D01*
X132582988Y-75264518D01*
X132570728Y-75389000D01*
X132573800Y-75678250D01*
X132732550Y-75837000D01*
X133781800Y-75837000D01*
X133781800Y-75817000D01*
X134035800Y-75817000D01*
X134035800Y-75837000D01*
X135085050Y-75837000D01*
X135243800Y-75678250D01*
X135246872Y-75389000D01*
X135234612Y-75264518D01*
X135198302Y-75144820D01*
X135139337Y-75034506D01*
X135059985Y-74937815D01*
X134963294Y-74858463D01*
X134852980Y-74799498D01*
X134733282Y-74763188D01*
X134715020Y-74761389D01*
X134806288Y-74686488D01*
X134884990Y-74590589D01*
X134943471Y-74481179D01*
X134979483Y-74362462D01*
X134991643Y-74239001D01*
X134991643Y-73588999D01*
X134979483Y-73465538D01*
X134943471Y-73346821D01*
X134884990Y-73237411D01*
X134806288Y-73141512D01*
X134710389Y-73062810D01*
X134600979Y-73004329D01*
X134482262Y-72968317D01*
X134416800Y-72961869D01*
X134416800Y-70827371D01*
X134467155Y-70887038D01*
X134529994Y-70937180D01*
X134536613Y-71004390D01*
X134547415Y-71040001D01*
X134536613Y-71075611D01*
X134529257Y-71150300D01*
X134529257Y-71429700D01*
X134536613Y-71504389D01*
X134547415Y-71540000D01*
X134536613Y-71575610D01*
X134529257Y-71650299D01*
X134529257Y-71929699D01*
X134536613Y-72004388D01*
X134558399Y-72076207D01*
X134593778Y-72142395D01*
X134641389Y-72200410D01*
X134699404Y-72248021D01*
X134765592Y-72283400D01*
X134837411Y-72305186D01*
X134912100Y-72312542D01*
X136588500Y-72312542D01*
X136663189Y-72305186D01*
X136686881Y-72297999D01*
X138219580Y-72297999D01*
X138430000Y-72508420D01*
X138430001Y-95467377D01*
X138370821Y-95485329D01*
X138261411Y-95543810D01*
X138165512Y-95622512D01*
X138090611Y-95713780D01*
X138088812Y-95695518D01*
X138052502Y-95575820D01*
X137993537Y-95465506D01*
X137914185Y-95368815D01*
X137817494Y-95289463D01*
X137707180Y-95230498D01*
X137587482Y-95194188D01*
X137463000Y-95181928D01*
X137173750Y-95185000D01*
X137015000Y-95343750D01*
X137015000Y-96393000D01*
X137035000Y-96393000D01*
X137035000Y-96647000D01*
X137015000Y-96647000D01*
X137015000Y-97696250D01*
X137173750Y-97855000D01*
X137463000Y-97858072D01*
X137587482Y-97845812D01*
X137707180Y-97809502D01*
X137817494Y-97750537D01*
X137914185Y-97671185D01*
X137993537Y-97574494D01*
X138052502Y-97464180D01*
X138088812Y-97344482D01*
X138090611Y-97326220D01*
X138165512Y-97417488D01*
X138261411Y-97496190D01*
X138370821Y-97554671D01*
X138489538Y-97590683D01*
X138612999Y-97602843D01*
X139263001Y-97602843D01*
X139386462Y-97590683D01*
X139505179Y-97554671D01*
X139614589Y-97496190D01*
X139710488Y-97417488D01*
X139789190Y-97321589D01*
X139847671Y-97212179D01*
X139883683Y-97093462D01*
X139890131Y-97028000D01*
X143657996Y-97028000D01*
X143689102Y-97103097D01*
X143823820Y-97304717D01*
X143995283Y-97476180D01*
X144196903Y-97610898D01*
X144420931Y-97703693D01*
X144658757Y-97751000D01*
X144901243Y-97751000D01*
X145139069Y-97703693D01*
X145363097Y-97610898D01*
X145564717Y-97476180D01*
X145736180Y-97304717D01*
X145870898Y-97103097D01*
X145963693Y-96879069D01*
X146011000Y-96641243D01*
X146011000Y-96398757D01*
X145963693Y-96160931D01*
X145870898Y-95936903D01*
X145736180Y-95735283D01*
X145564717Y-95563820D01*
X145363097Y-95429102D01*
X145139069Y-95336307D01*
X144901243Y-95289000D01*
X144658757Y-95289000D01*
X144420931Y-95336307D01*
X144196903Y-95429102D01*
X143995283Y-95563820D01*
X143823820Y-95735283D01*
X143689102Y-95936903D01*
X143657996Y-96012000D01*
X139890131Y-96012000D01*
X139883683Y-95946538D01*
X139847671Y-95827821D01*
X139789190Y-95718411D01*
X139710488Y-95622512D01*
X139614589Y-95543810D01*
X139505179Y-95485329D01*
X139446000Y-95467377D01*
X139446000Y-72322942D01*
X139448457Y-72297998D01*
X139443535Y-72248023D01*
X139438649Y-72198414D01*
X139409601Y-72102656D01*
X139389552Y-72065147D01*
X139362429Y-72014403D01*
X139314850Y-71956428D01*
X139298948Y-71937051D01*
X139279570Y-71921148D01*
X139151522Y-71793100D01*
X139801600Y-71793100D01*
X139801601Y-89306846D01*
X139799143Y-89331800D01*
X139808952Y-89431384D01*
X139838000Y-89527143D01*
X139885171Y-89615395D01*
X139927457Y-89666920D01*
X139948653Y-89692748D01*
X139968030Y-89708650D01*
X142468600Y-92209220D01*
X142468601Y-93396246D01*
X142466143Y-93421200D01*
X142475952Y-93520784D01*
X142505000Y-93616543D01*
X142552171Y-93704795D01*
X142599750Y-93762770D01*
X142615653Y-93782148D01*
X142635030Y-93798050D01*
X143158545Y-94321565D01*
X143174452Y-94340948D01*
X143251805Y-94404429D01*
X143340057Y-94451601D01*
X143435815Y-94480649D01*
X143510453Y-94488000D01*
X143510456Y-94488000D01*
X143535400Y-94490457D01*
X143560344Y-94488000D01*
X143657996Y-94488000D01*
X143689102Y-94563097D01*
X143823820Y-94764717D01*
X143995283Y-94936180D01*
X144196903Y-95070898D01*
X144420931Y-95163693D01*
X144658757Y-95211000D01*
X144901243Y-95211000D01*
X145139069Y-95163693D01*
X145363097Y-95070898D01*
X145564717Y-94936180D01*
X145736180Y-94764717D01*
X145870898Y-94563097D01*
X145963693Y-94339069D01*
X146011000Y-94101243D01*
X146011000Y-93858757D01*
X145963693Y-93620931D01*
X145870898Y-93396903D01*
X145736180Y-93195283D01*
X145564717Y-93023820D01*
X145363097Y-92889102D01*
X145139069Y-92796307D01*
X144901243Y-92749000D01*
X144658757Y-92749000D01*
X144420931Y-92796307D01*
X144196903Y-92889102D01*
X143995283Y-93023820D01*
X143823820Y-93195283D01*
X143689102Y-93396903D01*
X143683719Y-93409899D01*
X143484600Y-93210780D01*
X143484600Y-92023744D01*
X143487057Y-91998800D01*
X143484600Y-91973853D01*
X143482054Y-91948000D01*
X143657996Y-91948000D01*
X143689102Y-92023097D01*
X143823820Y-92224717D01*
X143995283Y-92396180D01*
X144196903Y-92530898D01*
X144420931Y-92623693D01*
X144658757Y-92671000D01*
X144901243Y-92671000D01*
X145139069Y-92623693D01*
X145363097Y-92530898D01*
X145564717Y-92396180D01*
X145736180Y-92224717D01*
X145870898Y-92023097D01*
X145963693Y-91799069D01*
X146011000Y-91561243D01*
X146011000Y-91318757D01*
X145963693Y-91080931D01*
X145870898Y-90856903D01*
X145736180Y-90655283D01*
X145564717Y-90483820D01*
X145363097Y-90349102D01*
X145248832Y-90301772D01*
X145411252Y-90244157D01*
X145661355Y-90095178D01*
X145877588Y-89900269D01*
X146051641Y-89666920D01*
X146176825Y-89404099D01*
X146221476Y-89256890D01*
X146100155Y-89027000D01*
X144907000Y-89027000D01*
X144907000Y-89047000D01*
X144653000Y-89047000D01*
X144653000Y-89027000D01*
X143459845Y-89027000D01*
X143338524Y-89256890D01*
X143383175Y-89404099D01*
X143508359Y-89666920D01*
X143682412Y-89900269D01*
X143898645Y-90095178D01*
X144148748Y-90244157D01*
X144311168Y-90301772D01*
X144196903Y-90349102D01*
X143995283Y-90483820D01*
X143823820Y-90655283D01*
X143689102Y-90856903D01*
X143657996Y-90932000D01*
X143187021Y-90932000D01*
X141198600Y-88943580D01*
X141198600Y-85300420D01*
X142599745Y-86701565D01*
X142615652Y-86720948D01*
X142693005Y-86784429D01*
X142781257Y-86831601D01*
X142877015Y-86860649D01*
X142951653Y-86868000D01*
X142951656Y-86868000D01*
X142976600Y-86870457D01*
X143001544Y-86868000D01*
X143657996Y-86868000D01*
X143689102Y-86943097D01*
X143823820Y-87144717D01*
X143995283Y-87316180D01*
X144196903Y-87450898D01*
X144311168Y-87498228D01*
X144148748Y-87555843D01*
X143898645Y-87704822D01*
X143682412Y-87899731D01*
X143508359Y-88133080D01*
X143383175Y-88395901D01*
X143338524Y-88543110D01*
X143459845Y-88773000D01*
X144653000Y-88773000D01*
X144653000Y-88753000D01*
X144907000Y-88753000D01*
X144907000Y-88773000D01*
X146100155Y-88773000D01*
X146221476Y-88543110D01*
X146176825Y-88395901D01*
X146051641Y-88133080D01*
X145877588Y-87899731D01*
X145661355Y-87704822D01*
X145411252Y-87555843D01*
X145248832Y-87498228D01*
X145363097Y-87450898D01*
X145564717Y-87316180D01*
X145736180Y-87144717D01*
X145870898Y-86943097D01*
X145963693Y-86719069D01*
X146011000Y-86481243D01*
X146011000Y-86238757D01*
X145963693Y-86000931D01*
X145870898Y-85776903D01*
X145736180Y-85575283D01*
X145564717Y-85403820D01*
X145363097Y-85269102D01*
X145139069Y-85176307D01*
X144901243Y-85129000D01*
X144658757Y-85129000D01*
X144420931Y-85176307D01*
X144196903Y-85269102D01*
X143995283Y-85403820D01*
X143823820Y-85575283D01*
X143689102Y-85776903D01*
X143657996Y-85852000D01*
X143187020Y-85852000D01*
X141579600Y-84244580D01*
X141579600Y-83141420D01*
X142599750Y-84161571D01*
X142615652Y-84180948D01*
X142635029Y-84196850D01*
X142693004Y-84244429D01*
X142764320Y-84282548D01*
X142781257Y-84291601D01*
X142877015Y-84320649D01*
X142951653Y-84328000D01*
X142951655Y-84328000D01*
X142976599Y-84330457D01*
X143001543Y-84328000D01*
X143657996Y-84328000D01*
X143689102Y-84403097D01*
X143823820Y-84604717D01*
X143995283Y-84776180D01*
X144196903Y-84910898D01*
X144420931Y-85003693D01*
X144658757Y-85051000D01*
X144901243Y-85051000D01*
X145139069Y-85003693D01*
X145363097Y-84910898D01*
X145564717Y-84776180D01*
X145736180Y-84604717D01*
X145870898Y-84403097D01*
X145963693Y-84179069D01*
X146011000Y-83941243D01*
X146011000Y-83698757D01*
X145963693Y-83460931D01*
X145870898Y-83236903D01*
X145736180Y-83035283D01*
X145564717Y-82863820D01*
X145363097Y-82729102D01*
X145139069Y-82636307D01*
X144901243Y-82589000D01*
X144658757Y-82589000D01*
X144420931Y-82636307D01*
X144196903Y-82729102D01*
X143995283Y-82863820D01*
X143823820Y-83035283D01*
X143689102Y-83236903D01*
X143657996Y-83312000D01*
X143187021Y-83312000D01*
X141960600Y-82085580D01*
X141960600Y-80982420D01*
X142599750Y-81621571D01*
X142615652Y-81640948D01*
X142635029Y-81656850D01*
X142693004Y-81704429D01*
X142740176Y-81729643D01*
X142781257Y-81751601D01*
X142877015Y-81780649D01*
X142951653Y-81788000D01*
X142951655Y-81788000D01*
X142976599Y-81790457D01*
X143001543Y-81788000D01*
X143657996Y-81788000D01*
X143689102Y-81863097D01*
X143823820Y-82064717D01*
X143995283Y-82236180D01*
X144196903Y-82370898D01*
X144420931Y-82463693D01*
X144658757Y-82511000D01*
X144901243Y-82511000D01*
X145139069Y-82463693D01*
X145363097Y-82370898D01*
X145564717Y-82236180D01*
X145736180Y-82064717D01*
X145870898Y-81863097D01*
X145963693Y-81639069D01*
X146011000Y-81401243D01*
X146011000Y-81158757D01*
X145963693Y-80920931D01*
X145870898Y-80696903D01*
X145736180Y-80495283D01*
X145564717Y-80323820D01*
X145363097Y-80189102D01*
X145139069Y-80096307D01*
X144901243Y-80049000D01*
X144658757Y-80049000D01*
X144420931Y-80096307D01*
X144196903Y-80189102D01*
X143995283Y-80323820D01*
X143823820Y-80495283D01*
X143689102Y-80696903D01*
X143657996Y-80772000D01*
X143187021Y-80772000D01*
X142341600Y-79926580D01*
X142341600Y-78823420D01*
X142599745Y-79081565D01*
X142615652Y-79100948D01*
X142693005Y-79164429D01*
X142781257Y-79211601D01*
X142877015Y-79240649D01*
X142951653Y-79248000D01*
X142951656Y-79248000D01*
X142976600Y-79250457D01*
X143001544Y-79248000D01*
X143657996Y-79248000D01*
X143689102Y-79323097D01*
X143823820Y-79524717D01*
X143995283Y-79696180D01*
X144196903Y-79830898D01*
X144420931Y-79923693D01*
X144658757Y-79971000D01*
X144901243Y-79971000D01*
X145139069Y-79923693D01*
X145363097Y-79830898D01*
X145564717Y-79696180D01*
X145736180Y-79524717D01*
X145870898Y-79323097D01*
X145963693Y-79099069D01*
X146011000Y-78861243D01*
X146011000Y-78618757D01*
X145963693Y-78380931D01*
X145870898Y-78156903D01*
X145736180Y-77955283D01*
X145564717Y-77783820D01*
X145363097Y-77649102D01*
X145139069Y-77556307D01*
X144901243Y-77509000D01*
X144658757Y-77509000D01*
X144420931Y-77556307D01*
X144196903Y-77649102D01*
X143995283Y-77783820D01*
X143823820Y-77955283D01*
X143689102Y-78156903D01*
X143657996Y-78232000D01*
X143187020Y-78232000D01*
X142722600Y-77767580D01*
X142722600Y-76640248D01*
X142781255Y-76671600D01*
X142781257Y-76671601D01*
X142877015Y-76700649D01*
X142951653Y-76708000D01*
X142951655Y-76708000D01*
X142976599Y-76710457D01*
X143001543Y-76708000D01*
X143657996Y-76708000D01*
X143689102Y-76783097D01*
X143823820Y-76984717D01*
X143995283Y-77156180D01*
X144196903Y-77290898D01*
X144420931Y-77383693D01*
X144658757Y-77431000D01*
X144901243Y-77431000D01*
X145139069Y-77383693D01*
X145363097Y-77290898D01*
X145564717Y-77156180D01*
X145736180Y-76984717D01*
X145870898Y-76783097D01*
X145963693Y-76559069D01*
X146011000Y-76321243D01*
X146011000Y-76078757D01*
X145963693Y-75840931D01*
X145870898Y-75616903D01*
X145736180Y-75415283D01*
X145564717Y-75243820D01*
X145363097Y-75109102D01*
X145248832Y-75061772D01*
X145411252Y-75004157D01*
X145661355Y-74855178D01*
X145877588Y-74660269D01*
X146051641Y-74426920D01*
X146176825Y-74164099D01*
X146221476Y-74016890D01*
X146100155Y-73787000D01*
X144907000Y-73787000D01*
X144907000Y-73807000D01*
X144653000Y-73807000D01*
X144653000Y-73787000D01*
X143459845Y-73787000D01*
X143338524Y-74016890D01*
X143383175Y-74164099D01*
X143508359Y-74426920D01*
X143682412Y-74660269D01*
X143898645Y-74855178D01*
X144148748Y-75004157D01*
X144311168Y-75061772D01*
X144196903Y-75109102D01*
X143995283Y-75243820D01*
X143823820Y-75415283D01*
X143689102Y-75616903D01*
X143657996Y-75692000D01*
X143187021Y-75692000D01*
X143103600Y-75608580D01*
X143103600Y-71546672D01*
X143158859Y-71576208D01*
X143187657Y-71591601D01*
X143283415Y-71620649D01*
X143358053Y-71628000D01*
X143358055Y-71628000D01*
X143382999Y-71630457D01*
X143407943Y-71628000D01*
X143657996Y-71628000D01*
X143689102Y-71703097D01*
X143823820Y-71904717D01*
X143995283Y-72076180D01*
X144196903Y-72210898D01*
X144311168Y-72258228D01*
X144148748Y-72315843D01*
X143898645Y-72464822D01*
X143682412Y-72659731D01*
X143508359Y-72893080D01*
X143383175Y-73155901D01*
X143338524Y-73303110D01*
X143459845Y-73533000D01*
X144653000Y-73533000D01*
X144653000Y-73513000D01*
X144907000Y-73513000D01*
X144907000Y-73533000D01*
X146100155Y-73533000D01*
X146221476Y-73303110D01*
X146176825Y-73155901D01*
X146051641Y-72893080D01*
X145877588Y-72659731D01*
X145661355Y-72464822D01*
X145411252Y-72315843D01*
X145248832Y-72258228D01*
X145363097Y-72210898D01*
X145564717Y-72076180D01*
X145736180Y-71904717D01*
X145870898Y-71703097D01*
X145963693Y-71479069D01*
X146011000Y-71241243D01*
X146011000Y-70998757D01*
X145963693Y-70760931D01*
X145870898Y-70536903D01*
X145736180Y-70335283D01*
X145564717Y-70163820D01*
X145363097Y-70029102D01*
X145139069Y-69936307D01*
X144901243Y-69889000D01*
X144658757Y-69889000D01*
X144420931Y-69936307D01*
X144196903Y-70029102D01*
X143995283Y-70163820D01*
X143823820Y-70335283D01*
X143689102Y-70536903D01*
X143657996Y-70612000D01*
X143593421Y-70612000D01*
X143484600Y-70503180D01*
X143484600Y-69316144D01*
X143487057Y-69291200D01*
X143484142Y-69261601D01*
X143477249Y-69191615D01*
X143448201Y-69095857D01*
X143444001Y-69088000D01*
X143657996Y-69088000D01*
X143689102Y-69163097D01*
X143823820Y-69364717D01*
X143995283Y-69536180D01*
X144196903Y-69670898D01*
X144420931Y-69763693D01*
X144658757Y-69811000D01*
X144901243Y-69811000D01*
X145139069Y-69763693D01*
X145363097Y-69670898D01*
X145564717Y-69536180D01*
X145736180Y-69364717D01*
X145870898Y-69163097D01*
X145963693Y-68939069D01*
X146011000Y-68701243D01*
X146011000Y-68458757D01*
X145963693Y-68220931D01*
X145870898Y-67996903D01*
X145736180Y-67795283D01*
X145564717Y-67623820D01*
X145363097Y-67489102D01*
X145139069Y-67396307D01*
X144901243Y-67349000D01*
X144658757Y-67349000D01*
X144420931Y-67396307D01*
X144196903Y-67489102D01*
X143995283Y-67623820D01*
X143823820Y-67795283D01*
X143689102Y-67996903D01*
X143657996Y-68072000D01*
X143034621Y-68072000D01*
X141510620Y-66548000D01*
X143657996Y-66548000D01*
X143689102Y-66623097D01*
X143823820Y-66824717D01*
X143995283Y-66996180D01*
X144196903Y-67130898D01*
X144420931Y-67223693D01*
X144658757Y-67271000D01*
X144901243Y-67271000D01*
X145139069Y-67223693D01*
X145363097Y-67130898D01*
X145564717Y-66996180D01*
X145736180Y-66824717D01*
X145870898Y-66623097D01*
X145963693Y-66399069D01*
X146011000Y-66161243D01*
X146011000Y-65918757D01*
X145963693Y-65680931D01*
X145870898Y-65456903D01*
X145736180Y-65255283D01*
X145564717Y-65083820D01*
X145363097Y-64949102D01*
X145139069Y-64856307D01*
X144901243Y-64809000D01*
X144658757Y-64809000D01*
X144420931Y-64856307D01*
X144196903Y-64949102D01*
X143995283Y-65083820D01*
X143823820Y-65255283D01*
X143689102Y-65456903D01*
X143657996Y-65532000D01*
X141033449Y-65532000D01*
X140945884Y-65444435D01*
X140929977Y-65425052D01*
X140852624Y-65361571D01*
X140764372Y-65314399D01*
X140668614Y-65285351D01*
X140593976Y-65278000D01*
X140593973Y-65278000D01*
X140569029Y-65275543D01*
X140544085Y-65278000D01*
X137572919Y-65278000D01*
X138842919Y-64008000D01*
X143657996Y-64008000D01*
X143689102Y-64083097D01*
X143823820Y-64284717D01*
X143995283Y-64456180D01*
X144196903Y-64590898D01*
X144420931Y-64683693D01*
X144658757Y-64731000D01*
X144901243Y-64731000D01*
X145139069Y-64683693D01*
X145363097Y-64590898D01*
X145564717Y-64456180D01*
X145736180Y-64284717D01*
X145870898Y-64083097D01*
X145963693Y-63859069D01*
X146011000Y-63621243D01*
X146011000Y-63378757D01*
X145963693Y-63140931D01*
X145870898Y-62916903D01*
X145736180Y-62715283D01*
X145564717Y-62543820D01*
X145363097Y-62409102D01*
X145248832Y-62361772D01*
X145411252Y-62304157D01*
X145661355Y-62155178D01*
X145877588Y-61960269D01*
X146051641Y-61726920D01*
X146176825Y-61464099D01*
X146221476Y-61316890D01*
X146100155Y-61087000D01*
X144907000Y-61087000D01*
X144907000Y-61107000D01*
X144653000Y-61107000D01*
X144653000Y-61087000D01*
X143459845Y-61087000D01*
X143338524Y-61316890D01*
X143383175Y-61464099D01*
X143508359Y-61726920D01*
X143682412Y-61960269D01*
X143898645Y-62155178D01*
X144148748Y-62304157D01*
X144311168Y-62361772D01*
X144196903Y-62409102D01*
X143995283Y-62543820D01*
X143823820Y-62715283D01*
X143689102Y-62916903D01*
X143657996Y-62992000D01*
X139097621Y-62992000D01*
X140244771Y-61844850D01*
X140264148Y-61828948D01*
X140285688Y-61802701D01*
X140327629Y-61751596D01*
X140358102Y-61694584D01*
X140374801Y-61663343D01*
X140403849Y-61567585D01*
X140411200Y-61492947D01*
X140411200Y-61492945D01*
X140413657Y-61468001D01*
X140411200Y-61443057D01*
X140411200Y-59671820D01*
X141155021Y-58928000D01*
X143657996Y-58928000D01*
X143689102Y-59003097D01*
X143823820Y-59204717D01*
X143995283Y-59376180D01*
X144196903Y-59510898D01*
X144311168Y-59558228D01*
X144148748Y-59615843D01*
X143898645Y-59764822D01*
X143682412Y-59959731D01*
X143508359Y-60193080D01*
X143383175Y-60455901D01*
X143338524Y-60603110D01*
X143459845Y-60833000D01*
X144653000Y-60833000D01*
X144653000Y-60813000D01*
X144907000Y-60813000D01*
X144907000Y-60833000D01*
X146100155Y-60833000D01*
X146221476Y-60603110D01*
X146176825Y-60455901D01*
X146051641Y-60193080D01*
X145877588Y-59959731D01*
X145661355Y-59764822D01*
X145411252Y-59615843D01*
X145248832Y-59558228D01*
X145363097Y-59510898D01*
X145564717Y-59376180D01*
X145736180Y-59204717D01*
X145870898Y-59003097D01*
X145963693Y-58779069D01*
X146011000Y-58541243D01*
X146011000Y-58298757D01*
X145963693Y-58060931D01*
X145870898Y-57836903D01*
X145736180Y-57635283D01*
X145564717Y-57463820D01*
X145363097Y-57329102D01*
X145139069Y-57236307D01*
X144901243Y-57189000D01*
X144658757Y-57189000D01*
X144420931Y-57236307D01*
X144196903Y-57329102D01*
X143995283Y-57463820D01*
X143823820Y-57635283D01*
X143689102Y-57836903D01*
X143657996Y-57912000D01*
X140969543Y-57912000D01*
X140944599Y-57909543D01*
X140919655Y-57912000D01*
X140919653Y-57912000D01*
X140845015Y-57919351D01*
X140749257Y-57948399D01*
X140708176Y-57970357D01*
X140661004Y-57995571D01*
X140606410Y-58040376D01*
X140583652Y-58059052D01*
X140567750Y-58078429D01*
X140030200Y-58615980D01*
X140030200Y-57487420D01*
X141129621Y-56388000D01*
X143657996Y-56388000D01*
X143689102Y-56463097D01*
X143823820Y-56664717D01*
X143995283Y-56836180D01*
X144196903Y-56970898D01*
X144420931Y-57063693D01*
X144658757Y-57111000D01*
X144901243Y-57111000D01*
X145139069Y-57063693D01*
X145363097Y-56970898D01*
X145564717Y-56836180D01*
X145736180Y-56664717D01*
X145870898Y-56463097D01*
X145963693Y-56239069D01*
X146011000Y-56001243D01*
X146011000Y-55758757D01*
X145963693Y-55520931D01*
X145870898Y-55296903D01*
X145736180Y-55095283D01*
X145564717Y-54923820D01*
X145363097Y-54789102D01*
X145139069Y-54696307D01*
X144901243Y-54649000D01*
X144658757Y-54649000D01*
X144420931Y-54696307D01*
X144196903Y-54789102D01*
X143995283Y-54923820D01*
X143823820Y-55095283D01*
X143689102Y-55296903D01*
X143657996Y-55372000D01*
X140944143Y-55372000D01*
X140919199Y-55369543D01*
X140894255Y-55372000D01*
X140894253Y-55372000D01*
X140819615Y-55379351D01*
X140723857Y-55408399D01*
X140723855Y-55408400D01*
X140635604Y-55455571D01*
X140581010Y-55500376D01*
X140558252Y-55519052D01*
X140542350Y-55538429D01*
X139649200Y-56431580D01*
X139649200Y-54134620D01*
X139935820Y-53848000D01*
X143657996Y-53848000D01*
X143689102Y-53923097D01*
X143823820Y-54124717D01*
X143995283Y-54296180D01*
X144196903Y-54430898D01*
X144420931Y-54523693D01*
X144658757Y-54571000D01*
X144901243Y-54571000D01*
X145139069Y-54523693D01*
X145363097Y-54430898D01*
X145564717Y-54296180D01*
X145736180Y-54124717D01*
X145870898Y-53923097D01*
X145963693Y-53699069D01*
X146011000Y-53461243D01*
X146011000Y-53218757D01*
X145963693Y-52980931D01*
X145870898Y-52756903D01*
X145736180Y-52555283D01*
X145564717Y-52383820D01*
X145363097Y-52249102D01*
X145139069Y-52156307D01*
X144901243Y-52109000D01*
X144658757Y-52109000D01*
X144420931Y-52156307D01*
X144196903Y-52249102D01*
X143995283Y-52383820D01*
X143823820Y-52555283D01*
X143689102Y-52756903D01*
X143657996Y-52832000D01*
X139750344Y-52832000D01*
X139725400Y-52829543D01*
X139700456Y-52832000D01*
X139700453Y-52832000D01*
X139625815Y-52839351D01*
X139530057Y-52868399D01*
X139441805Y-52915571D01*
X139364452Y-52979052D01*
X139348545Y-52998435D01*
X139242800Y-53104180D01*
X139242800Y-51975620D01*
X139910421Y-51308000D01*
X143657996Y-51308000D01*
X143689102Y-51383097D01*
X143823820Y-51584717D01*
X143995283Y-51756180D01*
X144196903Y-51890898D01*
X144420931Y-51983693D01*
X144658757Y-52031000D01*
X144901243Y-52031000D01*
X145139069Y-51983693D01*
X145363097Y-51890898D01*
X145564717Y-51756180D01*
X145736180Y-51584717D01*
X145870898Y-51383097D01*
X145963693Y-51159069D01*
X146011000Y-50921243D01*
X146011000Y-50678757D01*
X145963693Y-50440931D01*
X145870898Y-50216903D01*
X145736180Y-50015283D01*
X145564717Y-49843820D01*
X145363097Y-49709102D01*
X145139069Y-49616307D01*
X144901243Y-49569000D01*
X144658757Y-49569000D01*
X144420931Y-49616307D01*
X144196903Y-49709102D01*
X143995283Y-49843820D01*
X143823820Y-50015283D01*
X143689102Y-50216903D01*
X143657996Y-50292000D01*
X139724944Y-50292000D01*
X139700000Y-50289543D01*
X139675056Y-50292000D01*
X139675053Y-50292000D01*
X139600415Y-50299351D01*
X139504657Y-50328399D01*
X139463576Y-50350357D01*
X139416404Y-50375571D01*
X139361810Y-50420376D01*
X139339052Y-50439052D01*
X139323150Y-50458429D01*
X138836400Y-50945180D01*
X138836400Y-49816620D01*
X139885021Y-48768000D01*
X143657996Y-48768000D01*
X143689102Y-48843097D01*
X143823820Y-49044717D01*
X143995283Y-49216180D01*
X144196903Y-49350898D01*
X144420931Y-49443693D01*
X144658757Y-49491000D01*
X144901243Y-49491000D01*
X145139069Y-49443693D01*
X145363097Y-49350898D01*
X145564717Y-49216180D01*
X145736180Y-49044717D01*
X145870898Y-48843097D01*
X145963693Y-48619069D01*
X146011000Y-48381243D01*
X146011000Y-48138757D01*
X145963693Y-47900931D01*
X145870898Y-47676903D01*
X145736180Y-47475283D01*
X145564717Y-47303820D01*
X145363097Y-47169102D01*
X145248832Y-47121772D01*
X145411252Y-47064157D01*
X145661355Y-46915178D01*
X145877588Y-46720269D01*
X146051641Y-46486920D01*
X146176825Y-46224099D01*
X146221476Y-46076890D01*
X146100155Y-45847000D01*
X144907000Y-45847000D01*
X144907000Y-45867000D01*
X144653000Y-45867000D01*
X144653000Y-45847000D01*
X143459845Y-45847000D01*
X143338524Y-46076890D01*
X143383175Y-46224099D01*
X143508359Y-46486920D01*
X143682412Y-46720269D01*
X143898645Y-46915178D01*
X144148748Y-47064157D01*
X144311168Y-47121772D01*
X144196903Y-47169102D01*
X143995283Y-47303820D01*
X143823820Y-47475283D01*
X143689102Y-47676903D01*
X143657996Y-47752000D01*
X139699543Y-47752000D01*
X139674599Y-47749543D01*
X139649655Y-47752000D01*
X139649653Y-47752000D01*
X139575015Y-47759351D01*
X139479257Y-47788399D01*
X139479255Y-47788400D01*
X139391004Y-47835571D01*
X139336410Y-47880376D01*
X139313652Y-47899052D01*
X139297750Y-47918429D01*
X138455400Y-48760780D01*
X138455400Y-45117620D01*
X139885020Y-43688000D01*
X143657996Y-43688000D01*
X143689102Y-43763097D01*
X143823820Y-43964717D01*
X143995283Y-44136180D01*
X144196903Y-44270898D01*
X144311168Y-44318228D01*
X144148748Y-44375843D01*
X143898645Y-44524822D01*
X143682412Y-44719731D01*
X143508359Y-44953080D01*
X143383175Y-45215901D01*
X143338524Y-45363110D01*
X143459845Y-45593000D01*
X144653000Y-45593000D01*
X144653000Y-45573000D01*
X144907000Y-45573000D01*
X144907000Y-45593000D01*
X146100155Y-45593000D01*
X146221476Y-45363110D01*
X146176825Y-45215901D01*
X146051641Y-44953080D01*
X145877588Y-44719731D01*
X145661355Y-44524822D01*
X145411252Y-44375843D01*
X145248832Y-44318228D01*
X145363097Y-44270898D01*
X145564717Y-44136180D01*
X145736180Y-43964717D01*
X145870898Y-43763097D01*
X145963693Y-43539069D01*
X146011000Y-43301243D01*
X146011000Y-43058757D01*
X145963693Y-42820931D01*
X145870898Y-42596903D01*
X145736180Y-42395283D01*
X145564717Y-42223820D01*
X145363097Y-42089102D01*
X145139069Y-41996307D01*
X144901243Y-41949000D01*
X144658757Y-41949000D01*
X144420931Y-41996307D01*
X144196903Y-42089102D01*
X143995283Y-42223820D01*
X143823820Y-42395283D01*
X143689102Y-42596903D01*
X143657996Y-42672000D01*
X139699544Y-42672000D01*
X139674600Y-42669543D01*
X139649656Y-42672000D01*
X139649653Y-42672000D01*
X139575015Y-42679351D01*
X139479257Y-42708399D01*
X139391005Y-42755571D01*
X139313652Y-42819052D01*
X139297745Y-42838435D01*
X138049000Y-44087180D01*
X138049000Y-42984020D01*
X139885021Y-41148000D01*
X143657996Y-41148000D01*
X143689102Y-41223097D01*
X143823820Y-41424717D01*
X143995283Y-41596180D01*
X144196903Y-41730898D01*
X144420931Y-41823693D01*
X144658757Y-41871000D01*
X144901243Y-41871000D01*
X145139069Y-41823693D01*
X145363097Y-41730898D01*
X145564717Y-41596180D01*
X145736180Y-41424717D01*
X145870898Y-41223097D01*
X145963693Y-40999069D01*
X146011000Y-40761243D01*
X146011000Y-40518757D01*
X145963693Y-40280931D01*
X145870898Y-40056903D01*
X145736180Y-39855283D01*
X145564717Y-39683820D01*
X145363097Y-39549102D01*
X145139069Y-39456307D01*
X144901243Y-39409000D01*
X144658757Y-39409000D01*
X144420931Y-39456307D01*
X144196903Y-39549102D01*
X143995283Y-39683820D01*
X143823820Y-39855283D01*
X143689102Y-40056903D01*
X143657996Y-40132000D01*
X139699543Y-40132000D01*
X139674599Y-40129543D01*
X139649655Y-40132000D01*
X139649653Y-40132000D01*
X139575015Y-40139351D01*
X139479257Y-40168399D01*
X139438176Y-40190357D01*
X139391004Y-40215571D01*
X139336410Y-40260376D01*
X139313652Y-40279052D01*
X139297750Y-40298429D01*
X137668000Y-41928180D01*
X137668000Y-39152623D01*
X137727179Y-39134671D01*
X137836589Y-39076190D01*
X137932488Y-38997488D01*
X138011190Y-38901589D01*
X138069671Y-38792179D01*
X138105683Y-38673462D01*
X138112131Y-38608000D01*
X143547157Y-38608000D01*
X143547157Y-38950000D01*
X143554513Y-39024689D01*
X143576299Y-39096508D01*
X143611678Y-39162696D01*
X143659289Y-39220711D01*
X143717304Y-39268322D01*
X143783492Y-39303701D01*
X143855311Y-39325487D01*
X143930000Y-39332843D01*
X145630000Y-39332843D01*
X145704689Y-39325487D01*
X145776508Y-39303701D01*
X145842696Y-39268322D01*
X145900711Y-39220711D01*
X145948322Y-39162696D01*
X145983701Y-39096508D01*
X146005487Y-39024689D01*
X146012843Y-38950000D01*
X146012843Y-37250000D01*
X146005487Y-37175311D01*
X145983701Y-37103492D01*
X145948322Y-37037304D01*
X145900711Y-36979289D01*
X145842696Y-36931678D01*
X145776508Y-36896299D01*
X145704689Y-36874513D01*
X145630000Y-36867157D01*
X143930000Y-36867157D01*
X143855311Y-36874513D01*
X143783492Y-36896299D01*
X143717304Y-36931678D01*
X143659289Y-36979289D01*
X143611678Y-37037304D01*
X143576299Y-37103492D01*
X143554513Y-37175311D01*
X143547157Y-37250000D01*
X143547157Y-37592000D01*
X138112131Y-37592000D01*
X138105683Y-37526538D01*
X138069671Y-37407821D01*
X138011190Y-37298411D01*
X137932488Y-37202512D01*
X137836589Y-37123810D01*
X137727179Y-37065329D01*
X137608462Y-37029317D01*
X137485001Y-37017157D01*
X136834999Y-37017157D01*
X136711538Y-37029317D01*
X136592821Y-37065329D01*
X136483411Y-37123810D01*
X136387512Y-37202512D01*
X136312611Y-37293780D01*
X136310812Y-37275518D01*
X136274502Y-37155820D01*
X136215537Y-37045506D01*
X136136185Y-36948815D01*
X136039494Y-36869463D01*
X135929180Y-36810498D01*
X135809482Y-36774188D01*
X135685000Y-36761928D01*
X135395750Y-36765000D01*
X135237000Y-36923750D01*
X135237000Y-37973000D01*
X135257000Y-37973000D01*
X135257000Y-38227000D01*
X135237000Y-38227000D01*
X135237000Y-39276250D01*
X135395750Y-39435000D01*
X135685000Y-39438072D01*
X135809482Y-39425812D01*
X135929180Y-39389502D01*
X136039494Y-39330537D01*
X136136185Y-39251185D01*
X136215537Y-39154494D01*
X136274502Y-39044180D01*
X136310812Y-38924482D01*
X136312611Y-38906220D01*
X136387512Y-38997488D01*
X136483411Y-39076190D01*
X136592821Y-39134671D01*
X136652001Y-39152623D01*
X136652000Y-40664946D01*
X136652001Y-40664956D01*
X136652000Y-59762080D01*
X136641412Y-59772667D01*
X136588500Y-59767456D01*
X134912100Y-59767456D01*
X134837411Y-59774812D01*
X134765592Y-59796598D01*
X134699404Y-59831977D01*
X134641389Y-59879588D01*
X134593778Y-59937603D01*
X134558399Y-60003791D01*
X134536613Y-60075610D01*
X134529257Y-60150299D01*
X134529257Y-60429699D01*
X134536613Y-60504388D01*
X134547416Y-60539999D01*
X134536613Y-60575611D01*
X134529257Y-60650300D01*
X134529257Y-60929700D01*
X134536613Y-61004389D01*
X134547415Y-61040000D01*
X134536613Y-61075610D01*
X134529994Y-61142820D01*
X134467155Y-61192962D01*
X134386482Y-61288554D01*
X134340600Y-61371628D01*
X134340600Y-59118131D01*
X134406062Y-59111683D01*
X134524779Y-59075671D01*
X134634189Y-59017190D01*
X134730088Y-58938488D01*
X134808790Y-58842589D01*
X134867271Y-58733179D01*
X134903283Y-58614462D01*
X134915443Y-58491001D01*
X134915443Y-57840999D01*
X134903283Y-57717538D01*
X134867271Y-57598821D01*
X134808790Y-57489411D01*
X134730088Y-57393512D01*
X134638820Y-57318611D01*
X134657082Y-57316812D01*
X134776780Y-57280502D01*
X134887094Y-57221537D01*
X134983785Y-57142185D01*
X135063137Y-57045494D01*
X135122102Y-56935180D01*
X135158412Y-56815482D01*
X135170672Y-56691000D01*
X135167600Y-56401750D01*
X135008850Y-56243000D01*
X133959600Y-56243000D01*
X133959600Y-56263000D01*
X133705600Y-56263000D01*
X133705600Y-56243000D01*
X132656350Y-56243000D01*
X132497600Y-56401750D01*
X132494528Y-56691000D01*
X132506788Y-56815482D01*
X132543098Y-56935180D01*
X132602063Y-57045494D01*
X132681415Y-57142185D01*
X132778106Y-57221537D01*
X132888420Y-57280502D01*
X133008118Y-57316812D01*
X133026380Y-57318611D01*
X132935112Y-57393512D01*
X132856410Y-57489411D01*
X132797929Y-57598821D01*
X132761917Y-57717538D01*
X132750912Y-57829268D01*
X132373435Y-58206745D01*
X132354052Y-58222652D01*
X132290571Y-58300005D01*
X132243399Y-58388258D01*
X132214351Y-58484016D01*
X132210848Y-58519585D01*
X132204543Y-58583600D01*
X132010202Y-58583600D01*
X132009149Y-58572915D01*
X131980101Y-58477157D01*
X131960268Y-58440052D01*
X131932929Y-58388904D01*
X131885350Y-58330929D01*
X131869448Y-58311552D01*
X131850070Y-58295649D01*
X131383688Y-57829267D01*
X131372683Y-57717538D01*
X131336671Y-57598821D01*
X131278190Y-57489411D01*
X131199488Y-57393512D01*
X131108220Y-57318611D01*
X131126482Y-57316812D01*
X131246180Y-57280502D01*
X131356494Y-57221537D01*
X131453185Y-57142185D01*
X131532537Y-57045494D01*
X131591502Y-56935180D01*
X131627812Y-56815482D01*
X131640072Y-56691000D01*
X131637000Y-56401750D01*
X131478250Y-56243000D01*
X130429000Y-56243000D01*
X130429000Y-56263000D01*
X130175000Y-56263000D01*
X130175000Y-56243000D01*
X129125750Y-56243000D01*
X128967000Y-56401750D01*
X128963928Y-56691000D01*
X128976188Y-56815482D01*
X129012498Y-56935180D01*
X129071463Y-57045494D01*
X129150815Y-57142185D01*
X129247506Y-57221537D01*
X129357820Y-57280502D01*
X129477518Y-57316812D01*
X129495780Y-57318611D01*
X129404512Y-57393512D01*
X129325810Y-57489411D01*
X129267329Y-57598821D01*
X129231317Y-57717538D01*
X129219157Y-57840999D01*
X129219157Y-58491001D01*
X129231317Y-58614462D01*
X129267329Y-58733179D01*
X129325810Y-58842589D01*
X129404512Y-58938488D01*
X129500411Y-59017190D01*
X129609821Y-59075671D01*
X129728538Y-59111683D01*
X129794000Y-59118131D01*
X129794001Y-61325640D01*
X129773518Y-61288554D01*
X129692845Y-61192962D01*
X129630006Y-61142820D01*
X129623387Y-61075610D01*
X129612585Y-61040000D01*
X129623387Y-61004389D01*
X129630743Y-60929700D01*
X129630743Y-60650300D01*
X129623387Y-60575611D01*
X129612585Y-60540001D01*
X129623387Y-60504390D01*
X129630743Y-60429701D01*
X129630743Y-60150301D01*
X129623387Y-60075612D01*
X129601601Y-60003793D01*
X129566222Y-59937605D01*
X129518611Y-59879590D01*
X129460596Y-59831979D01*
X129394408Y-59796600D01*
X129322589Y-59774814D01*
X129247900Y-59767458D01*
X127571500Y-59767458D01*
X127508000Y-59773712D01*
X127508000Y-55541000D01*
X128963928Y-55541000D01*
X128967000Y-55830250D01*
X129125750Y-55989000D01*
X130175000Y-55989000D01*
X130175000Y-55064750D01*
X130429000Y-55064750D01*
X130429000Y-55989000D01*
X131478250Y-55989000D01*
X131637000Y-55830250D01*
X131640072Y-55541000D01*
X132494528Y-55541000D01*
X132497600Y-55830250D01*
X132656350Y-55989000D01*
X133705600Y-55989000D01*
X133705600Y-55064750D01*
X133959600Y-55064750D01*
X133959600Y-55989000D01*
X135008850Y-55989000D01*
X135167600Y-55830250D01*
X135170672Y-55541000D01*
X135158412Y-55416518D01*
X135122102Y-55296820D01*
X135063137Y-55186506D01*
X134983785Y-55089815D01*
X134887094Y-55010463D01*
X134776780Y-54951498D01*
X134657082Y-54915188D01*
X134532600Y-54902928D01*
X134118350Y-54906000D01*
X133959600Y-55064750D01*
X133705600Y-55064750D01*
X133546850Y-54906000D01*
X133132600Y-54902928D01*
X133008118Y-54915188D01*
X132888420Y-54951498D01*
X132778106Y-55010463D01*
X132681415Y-55089815D01*
X132602063Y-55186506D01*
X132543098Y-55296820D01*
X132506788Y-55416518D01*
X132494528Y-55541000D01*
X131640072Y-55541000D01*
X131627812Y-55416518D01*
X131591502Y-55296820D01*
X131532537Y-55186506D01*
X131453185Y-55089815D01*
X131356494Y-55010463D01*
X131246180Y-54951498D01*
X131126482Y-54915188D01*
X131002000Y-54902928D01*
X130587750Y-54906000D01*
X130429000Y-55064750D01*
X130175000Y-55064750D01*
X130016250Y-54906000D01*
X129602000Y-54902928D01*
X129477518Y-54915188D01*
X129357820Y-54951498D01*
X129247506Y-55010463D01*
X129150815Y-55089815D01*
X129071463Y-55186506D01*
X129012498Y-55296820D01*
X128976188Y-55416518D01*
X128963928Y-55541000D01*
X127508000Y-55541000D01*
X127508000Y-39039344D01*
X127510457Y-39014400D01*
X127504114Y-38950000D01*
X127500649Y-38914815D01*
X127471601Y-38819057D01*
X127461415Y-38800000D01*
X133896928Y-38800000D01*
X133909188Y-38924482D01*
X133945498Y-39044180D01*
X134004463Y-39154494D01*
X134083815Y-39251185D01*
X134180506Y-39330537D01*
X134290820Y-39389502D01*
X134410518Y-39425812D01*
X134535000Y-39438072D01*
X134824250Y-39435000D01*
X134983000Y-39276250D01*
X134983000Y-38227000D01*
X134058750Y-38227000D01*
X133900000Y-38385750D01*
X133896928Y-38800000D01*
X127461415Y-38800000D01*
X127424429Y-38730805D01*
X127360948Y-38653452D01*
X127341565Y-38637545D01*
X126462455Y-37758435D01*
X126446548Y-37739052D01*
X126369195Y-37675571D01*
X126280943Y-37628399D01*
X126185185Y-37599351D01*
X126110547Y-37592000D01*
X126110544Y-37592000D01*
X126085600Y-37589543D01*
X126060656Y-37592000D01*
X120612843Y-37592000D01*
X120612843Y-37400000D01*
X133896928Y-37400000D01*
X133900000Y-37814250D01*
X134058750Y-37973000D01*
X134983000Y-37973000D01*
X134983000Y-36923750D01*
X134824250Y-36765000D01*
X134535000Y-36761928D01*
X134410518Y-36774188D01*
X134290820Y-36810498D01*
X134180506Y-36869463D01*
X134083815Y-36948815D01*
X134004463Y-37045506D01*
X133945498Y-37155820D01*
X133909188Y-37275518D01*
X133896928Y-37400000D01*
X120612843Y-37400000D01*
X120612843Y-37250000D01*
X120605487Y-37175311D01*
X120583701Y-37103492D01*
X120548322Y-37037304D01*
X120500711Y-36979289D01*
X120442696Y-36931678D01*
X120376508Y-36896299D01*
X120304689Y-36874513D01*
X120230000Y-36867157D01*
X118530000Y-36867157D01*
X118455311Y-36874513D01*
X118383492Y-36896299D01*
X118317304Y-36931678D01*
X118259289Y-36979289D01*
X118211678Y-37037304D01*
X118176299Y-37103492D01*
X118154513Y-37175311D01*
X118147157Y-37250000D01*
X118147157Y-38950000D01*
X118154513Y-39024689D01*
X118176299Y-39096508D01*
X118211678Y-39162696D01*
X118259289Y-39220711D01*
X118317304Y-39268322D01*
X118383492Y-39303701D01*
X118455311Y-39325487D01*
X118530000Y-39332843D01*
X120230000Y-39332843D01*
X120304689Y-39325487D01*
X120376508Y-39303701D01*
X120442696Y-39268322D01*
X120500711Y-39220711D01*
X120548322Y-39162696D01*
X120583701Y-39096508D01*
X120605487Y-39024689D01*
X120612843Y-38950000D01*
X120612843Y-38608000D01*
X125875180Y-38608000D01*
X126492001Y-39224821D01*
X126492001Y-41242380D01*
X125548055Y-40298435D01*
X125532148Y-40279052D01*
X125454795Y-40215571D01*
X125366543Y-40168399D01*
X125270785Y-40139351D01*
X125196147Y-40132000D01*
X125196144Y-40132000D01*
X125171200Y-40129543D01*
X125146256Y-40132000D01*
X120502004Y-40132000D01*
X120470898Y-40056903D01*
X120336180Y-39855283D01*
X120164717Y-39683820D01*
X119963097Y-39549102D01*
X119739069Y-39456307D01*
X119501243Y-39409000D01*
X119258757Y-39409000D01*
X119020931Y-39456307D01*
X118796903Y-39549102D01*
X118595283Y-39683820D01*
X118423820Y-39855283D01*
X118289102Y-40056903D01*
X118196307Y-40280931D01*
X118149000Y-40518757D01*
X118149000Y-40761243D01*
X118196307Y-40999069D01*
X118289102Y-41223097D01*
X118423820Y-41424717D01*
X118595283Y-41596180D01*
X118796903Y-41730898D01*
X119020931Y-41823693D01*
X119258757Y-41871000D01*
X119501243Y-41871000D01*
X119739069Y-41823693D01*
X119963097Y-41730898D01*
X120164717Y-41596180D01*
X120336180Y-41424717D01*
X120470898Y-41223097D01*
X120502004Y-41148000D01*
X124960780Y-41148000D01*
X126111001Y-42298222D01*
X126111001Y-42793819D01*
X126064395Y-42755571D01*
X125976143Y-42708399D01*
X125880385Y-42679351D01*
X125805747Y-42672000D01*
X125805744Y-42672000D01*
X125780800Y-42669543D01*
X125755856Y-42672000D01*
X120502004Y-42672000D01*
X120470898Y-42596903D01*
X120336180Y-42395283D01*
X120164717Y-42223820D01*
X119963097Y-42089102D01*
X119739069Y-41996307D01*
X119501243Y-41949000D01*
X119258757Y-41949000D01*
X119020931Y-41996307D01*
X118796903Y-42089102D01*
X118595283Y-42223820D01*
X118423820Y-42395283D01*
X118289102Y-42596903D01*
X118196307Y-42820931D01*
X118149000Y-43058757D01*
X118149000Y-43301243D01*
X118196307Y-43539069D01*
X118289102Y-43763097D01*
X118423820Y-43964717D01*
X118595283Y-44136180D01*
X118796903Y-44270898D01*
X118911168Y-44318228D01*
X118748748Y-44375843D01*
X118498645Y-44524822D01*
X118282412Y-44719731D01*
X118108359Y-44953080D01*
X117983175Y-45215901D01*
X117938524Y-45363110D01*
X117754000Y-45363110D01*
X117754000Y-35458000D01*
X146406000Y-35458000D01*
X146406001Y-98146000D01*
G36*
X133259138Y-59111683D02*
G01*
X133324600Y-59118131D01*
X133324601Y-62967046D01*
X133322143Y-62992000D01*
X133330062Y-63072394D01*
X133331952Y-63091585D01*
X133354783Y-63166849D01*
X133361000Y-63187343D01*
X133408171Y-63275595D01*
X133445023Y-63320499D01*
X133471653Y-63352948D01*
X133491031Y-63368851D01*
X133753741Y-63631560D01*
X133769652Y-63650948D01*
X133847005Y-63714429D01*
X133935257Y-63761601D01*
X134031015Y-63790649D01*
X134105653Y-63798000D01*
X134105656Y-63798000D01*
X134130600Y-63800457D01*
X134155544Y-63798000D01*
X134529257Y-63798000D01*
X134529257Y-63929699D01*
X134536613Y-64004388D01*
X134547416Y-64040000D01*
X134536613Y-64075612D01*
X134529994Y-64142819D01*
X134467155Y-64192961D01*
X134386482Y-64288553D01*
X134326008Y-64398047D01*
X134288057Y-64517235D01*
X134277100Y-64618550D01*
X134435850Y-64777300D01*
X134754176Y-64777300D01*
X134765592Y-64783402D01*
X134787343Y-64790000D01*
X134765592Y-64796598D01*
X134754176Y-64802700D01*
X134435850Y-64802700D01*
X134277100Y-64961450D01*
X134288057Y-65062765D01*
X134326008Y-65181953D01*
X134386482Y-65291447D01*
X134467155Y-65387039D01*
X134529994Y-65437181D01*
X134536613Y-65504388D01*
X134547416Y-65539999D01*
X134536613Y-65575611D01*
X134529257Y-65650300D01*
X134529257Y-65929700D01*
X134536613Y-66004389D01*
X134547415Y-66040000D01*
X134536613Y-66075611D01*
X134529257Y-66150300D01*
X134529257Y-66429700D01*
X134536613Y-66504389D01*
X134547415Y-66539999D01*
X134536613Y-66575609D01*
X134529994Y-66642819D01*
X134467155Y-66692961D01*
X134386482Y-66788553D01*
X134326008Y-66898047D01*
X134288057Y-67017235D01*
X134277100Y-67118550D01*
X134435850Y-67277300D01*
X134754182Y-67277300D01*
X134765592Y-67283399D01*
X134787348Y-67289999D01*
X134765592Y-67296598D01*
X134754176Y-67302700D01*
X134435850Y-67302700D01*
X134277100Y-67461450D01*
X134288057Y-67562765D01*
X134326008Y-67681953D01*
X134386482Y-67791447D01*
X134467155Y-67887039D01*
X134529994Y-67937181D01*
X134536613Y-68004388D01*
X134547416Y-68040000D01*
X134536613Y-68075612D01*
X134529257Y-68150301D01*
X134529257Y-68282000D01*
X134231744Y-68282000D01*
X134206800Y-68279543D01*
X134181856Y-68282000D01*
X134181853Y-68282000D01*
X134107215Y-68289351D01*
X134011457Y-68318399D01*
X133923205Y-68365571D01*
X133845852Y-68429052D01*
X133829941Y-68448440D01*
X133567231Y-68711149D01*
X133547853Y-68727052D01*
X133531951Y-68746429D01*
X133531950Y-68746430D01*
X133484371Y-68804405D01*
X133442477Y-68882784D01*
X133437200Y-68892657D01*
X133414239Y-68968351D01*
X133408152Y-68988416D01*
X133398343Y-69088000D01*
X133400801Y-69112954D01*
X133400800Y-72961869D01*
X133335338Y-72968317D01*
X133223000Y-73002394D01*
X133223000Y-59100721D01*
X133259138Y-59111683D01*
G37*
X133259138Y-59111683D02*
X133324600Y-59118131D01*
X133324601Y-62967046D01*
X133322143Y-62992000D01*
X133330062Y-63072394D01*
X133331952Y-63091585D01*
X133354783Y-63166849D01*
X133361000Y-63187343D01*
X133408171Y-63275595D01*
X133445023Y-63320499D01*
X133471653Y-63352948D01*
X133491031Y-63368851D01*
X133753741Y-63631560D01*
X133769652Y-63650948D01*
X133847005Y-63714429D01*
X133935257Y-63761601D01*
X134031015Y-63790649D01*
X134105653Y-63798000D01*
X134105656Y-63798000D01*
X134130600Y-63800457D01*
X134155544Y-63798000D01*
X134529257Y-63798000D01*
X134529257Y-63929699D01*
X134536613Y-64004388D01*
X134547416Y-64040000D01*
X134536613Y-64075612D01*
X134529994Y-64142819D01*
X134467155Y-64192961D01*
X134386482Y-64288553D01*
X134326008Y-64398047D01*
X134288057Y-64517235D01*
X134277100Y-64618550D01*
X134435850Y-64777300D01*
X134754176Y-64777300D01*
X134765592Y-64783402D01*
X134787343Y-64790000D01*
X134765592Y-64796598D01*
X134754176Y-64802700D01*
X134435850Y-64802700D01*
X134277100Y-64961450D01*
X134288057Y-65062765D01*
X134326008Y-65181953D01*
X134386482Y-65291447D01*
X134467155Y-65387039D01*
X134529994Y-65437181D01*
X134536613Y-65504388D01*
X134547416Y-65539999D01*
X134536613Y-65575611D01*
X134529257Y-65650300D01*
X134529257Y-65929700D01*
X134536613Y-66004389D01*
X134547415Y-66040000D01*
X134536613Y-66075611D01*
X134529257Y-66150300D01*
X134529257Y-66429700D01*
X134536613Y-66504389D01*
X134547415Y-66539999D01*
X134536613Y-66575609D01*
X134529994Y-66642819D01*
X134467155Y-66692961D01*
X134386482Y-66788553D01*
X134326008Y-66898047D01*
X134288057Y-67017235D01*
X134277100Y-67118550D01*
X134435850Y-67277300D01*
X134754182Y-67277300D01*
X134765592Y-67283399D01*
X134787348Y-67289999D01*
X134765592Y-67296598D01*
X134754176Y-67302700D01*
X134435850Y-67302700D01*
X134277100Y-67461450D01*
X134288057Y-67562765D01*
X134326008Y-67681953D01*
X134386482Y-67791447D01*
X134467155Y-67887039D01*
X134529994Y-67937181D01*
X134536613Y-68004388D01*
X134547416Y-68040000D01*
X134536613Y-68075612D01*
X134529257Y-68150301D01*
X134529257Y-68282000D01*
X134231744Y-68282000D01*
X134206800Y-68279543D01*
X134181856Y-68282000D01*
X134181853Y-68282000D01*
X134107215Y-68289351D01*
X134011457Y-68318399D01*
X133923205Y-68365571D01*
X133845852Y-68429052D01*
X133829941Y-68448440D01*
X133567231Y-68711149D01*
X133547853Y-68727052D01*
X133531951Y-68746429D01*
X133531950Y-68746430D01*
X133484371Y-68804405D01*
X133442477Y-68882784D01*
X133437200Y-68892657D01*
X133414239Y-68968351D01*
X133408152Y-68988416D01*
X133398343Y-69088000D01*
X133400801Y-69112954D01*
X133400800Y-72961869D01*
X133335338Y-72968317D01*
X133223000Y-73002394D01*
X133223000Y-59100721D01*
X133259138Y-59111683D01*
G36*
X131000501Y-73007708D02*
G01*
X130994179Y-73004329D01*
X130875462Y-72968317D01*
X130810000Y-72961869D01*
X130810000Y-69112944D01*
X130812457Y-69088000D01*
X130808872Y-69051600D01*
X130802649Y-68988415D01*
X130773601Y-68892657D01*
X130726429Y-68804405D01*
X130662948Y-68727052D01*
X130643560Y-68711141D01*
X130380855Y-68448435D01*
X130364948Y-68429052D01*
X130287595Y-68365571D01*
X130199343Y-68318399D01*
X130103585Y-68289351D01*
X130028947Y-68282000D01*
X130028944Y-68282000D01*
X130004000Y-68279543D01*
X129979056Y-68282000D01*
X129630743Y-68282000D01*
X129630743Y-68150301D01*
X129623387Y-68075612D01*
X129612584Y-68040000D01*
X129623387Y-68004388D01*
X129630006Y-67937181D01*
X129692845Y-67887039D01*
X129773518Y-67791447D01*
X129833992Y-67681953D01*
X129871943Y-67562765D01*
X129882900Y-67461450D01*
X129724150Y-67302700D01*
X129405824Y-67302700D01*
X129394408Y-67296598D01*
X129372657Y-67290000D01*
X129394408Y-67283402D01*
X129405824Y-67277300D01*
X129724150Y-67277300D01*
X129882900Y-67118550D01*
X129871943Y-67017235D01*
X129833992Y-66898047D01*
X129773518Y-66788553D01*
X129692845Y-66692961D01*
X129630006Y-66642819D01*
X129623387Y-66575612D01*
X129612584Y-66540000D01*
X129623387Y-66504389D01*
X129630743Y-66429700D01*
X129630743Y-66150300D01*
X129623387Y-66075611D01*
X129612585Y-66040000D01*
X129623387Y-66004389D01*
X129630743Y-65929700D01*
X129630743Y-65650300D01*
X129623387Y-65575611D01*
X129612584Y-65539999D01*
X129623387Y-65504388D01*
X129630006Y-65437181D01*
X129692845Y-65387039D01*
X129773518Y-65291447D01*
X129833992Y-65181953D01*
X129871943Y-65062765D01*
X129882900Y-64961450D01*
X129724150Y-64802700D01*
X129405824Y-64802700D01*
X129394408Y-64796598D01*
X129372657Y-64790000D01*
X129394408Y-64783402D01*
X129405824Y-64777300D01*
X129724150Y-64777300D01*
X129882900Y-64618550D01*
X129871943Y-64517235D01*
X129833992Y-64398047D01*
X129773518Y-64288553D01*
X129692845Y-64192961D01*
X129630006Y-64142819D01*
X129623387Y-64075612D01*
X129612584Y-64040000D01*
X129623387Y-64004388D01*
X129630743Y-63929699D01*
X129630743Y-63798000D01*
X129979056Y-63798000D01*
X130004000Y-63800457D01*
X130028944Y-63798000D01*
X130028947Y-63798000D01*
X130103585Y-63790649D01*
X130199343Y-63761601D01*
X130287595Y-63714429D01*
X130364948Y-63650948D01*
X130380855Y-63631565D01*
X130643560Y-63368859D01*
X130662948Y-63352948D01*
X130726429Y-63275595D01*
X130773601Y-63187343D01*
X130802649Y-63091585D01*
X130810000Y-63016947D01*
X130810000Y-63016944D01*
X130812457Y-62992000D01*
X130810000Y-62967056D01*
X130810000Y-59118131D01*
X130875462Y-59111683D01*
X130994179Y-59075671D01*
X131000500Y-59072292D01*
X131000501Y-73007708D01*
G37*
X131000501Y-73007708D02*
X130994179Y-73004329D01*
X130875462Y-72968317D01*
X130810000Y-72961869D01*
X130810000Y-69112944D01*
X130812457Y-69088000D01*
X130808872Y-69051600D01*
X130802649Y-68988415D01*
X130773601Y-68892657D01*
X130726429Y-68804405D01*
X130662948Y-68727052D01*
X130643560Y-68711141D01*
X130380855Y-68448435D01*
X130364948Y-68429052D01*
X130287595Y-68365571D01*
X130199343Y-68318399D01*
X130103585Y-68289351D01*
X130028947Y-68282000D01*
X130028944Y-68282000D01*
X130004000Y-68279543D01*
X129979056Y-68282000D01*
X129630743Y-68282000D01*
X129630743Y-68150301D01*
X129623387Y-68075612D01*
X129612584Y-68040000D01*
X129623387Y-68004388D01*
X129630006Y-67937181D01*
X129692845Y-67887039D01*
X129773518Y-67791447D01*
X129833992Y-67681953D01*
X129871943Y-67562765D01*
X129882900Y-67461450D01*
X129724150Y-67302700D01*
X129405824Y-67302700D01*
X129394408Y-67296598D01*
X129372657Y-67290000D01*
X129394408Y-67283402D01*
X129405824Y-67277300D01*
X129724150Y-67277300D01*
X129882900Y-67118550D01*
X129871943Y-67017235D01*
X129833992Y-66898047D01*
X129773518Y-66788553D01*
X129692845Y-66692961D01*
X129630006Y-66642819D01*
X129623387Y-66575612D01*
X129612584Y-66540000D01*
X129623387Y-66504389D01*
X129630743Y-66429700D01*
X129630743Y-66150300D01*
X129623387Y-66075611D01*
X129612585Y-66040000D01*
X129623387Y-66004389D01*
X129630743Y-65929700D01*
X129630743Y-65650300D01*
X129623387Y-65575611D01*
X129612584Y-65539999D01*
X129623387Y-65504388D01*
X129630006Y-65437181D01*
X129692845Y-65387039D01*
X129773518Y-65291447D01*
X129833992Y-65181953D01*
X129871943Y-65062765D01*
X129882900Y-64961450D01*
X129724150Y-64802700D01*
X129405824Y-64802700D01*
X129394408Y-64796598D01*
X129372657Y-64790000D01*
X129394408Y-64783402D01*
X129405824Y-64777300D01*
X129724150Y-64777300D01*
X129882900Y-64618550D01*
X129871943Y-64517235D01*
X129833992Y-64398047D01*
X129773518Y-64288553D01*
X129692845Y-64192961D01*
X129630006Y-64142819D01*
X129623387Y-64075612D01*
X129612584Y-64040000D01*
X129623387Y-64004388D01*
X129630743Y-63929699D01*
X129630743Y-63798000D01*
X129979056Y-63798000D01*
X130004000Y-63800457D01*
X130028944Y-63798000D01*
X130028947Y-63798000D01*
X130103585Y-63790649D01*
X130199343Y-63761601D01*
X130287595Y-63714429D01*
X130364948Y-63650948D01*
X130380855Y-63631565D01*
X130643560Y-63368859D01*
X130662948Y-63352948D01*
X130726429Y-63275595D01*
X130773601Y-63187343D01*
X130802649Y-63091585D01*
X130810000Y-63016947D01*
X130810000Y-63016944D01*
X130812457Y-62992000D01*
X130810000Y-62967056D01*
X130810000Y-59118131D01*
X130875462Y-59111683D01*
X130994179Y-59075671D01*
X131000500Y-59072292D01*
X131000501Y-73007708D01*
M02*
