G04 #@! TF.GenerationSoftware,KiCad,Pcbnew,(5.1.5)-3*
G04 #@! TF.CreationDate,2020-07-08T16:59:20-04:00*
G04 #@! TF.ProjectId,VFD Level Translator,56464420-4c65-4766-956c-205472616e73,rev?*
G04 #@! TF.SameCoordinates,Original*
G04 #@! TF.FileFunction,Soldermask,Bot*
G04 #@! TF.FilePolarity,Negative*
%FSLAX46Y46*%
G04 Gerber Fmt 4.6, Leading zero omitted, Abs format (unit mm)*
G04 Created by KiCad (PCBNEW (5.1.5)-3) date 2020-07-08 16:59:20*
%MOMM*%
%LPD*%
G04 APERTURE LIST*
%ADD10C,0.100000*%
G04 APERTURE END LIST*
D10*
G36*
X144893512Y-95623927D02*
G01*
X145042812Y-95653624D01*
X145206784Y-95721544D01*
X145354354Y-95820147D01*
X145479853Y-95945646D01*
X145578456Y-96093216D01*
X145646376Y-96257188D01*
X145681000Y-96431259D01*
X145681000Y-96608741D01*
X145646376Y-96782812D01*
X145578456Y-96946784D01*
X145479853Y-97094354D01*
X145354354Y-97219853D01*
X145206784Y-97318456D01*
X145042812Y-97386376D01*
X144893512Y-97416073D01*
X144868742Y-97421000D01*
X144691258Y-97421000D01*
X144666488Y-97416073D01*
X144517188Y-97386376D01*
X144353216Y-97318456D01*
X144205646Y-97219853D01*
X144080147Y-97094354D01*
X143981544Y-96946784D01*
X143913624Y-96782812D01*
X143879000Y-96608741D01*
X143879000Y-96431259D01*
X143913624Y-96257188D01*
X143981544Y-96093216D01*
X144080147Y-95945646D01*
X144205646Y-95820147D01*
X144353216Y-95721544D01*
X144517188Y-95653624D01*
X144666488Y-95623927D01*
X144691258Y-95619000D01*
X144868742Y-95619000D01*
X144893512Y-95623927D01*
G37*
G36*
X119493512Y-95623927D02*
G01*
X119642812Y-95653624D01*
X119806784Y-95721544D01*
X119954354Y-95820147D01*
X120079853Y-95945646D01*
X120178456Y-96093216D01*
X120246376Y-96257188D01*
X120281000Y-96431259D01*
X120281000Y-96608741D01*
X120246376Y-96782812D01*
X120178456Y-96946784D01*
X120079853Y-97094354D01*
X119954354Y-97219853D01*
X119806784Y-97318456D01*
X119642812Y-97386376D01*
X119493512Y-97416073D01*
X119468742Y-97421000D01*
X119291258Y-97421000D01*
X119266488Y-97416073D01*
X119117188Y-97386376D01*
X118953216Y-97318456D01*
X118805646Y-97219853D01*
X118680147Y-97094354D01*
X118581544Y-96946784D01*
X118513624Y-96782812D01*
X118479000Y-96608741D01*
X118479000Y-96431259D01*
X118513624Y-96257188D01*
X118581544Y-96093216D01*
X118680147Y-95945646D01*
X118805646Y-95820147D01*
X118953216Y-95721544D01*
X119117188Y-95653624D01*
X119266488Y-95623927D01*
X119291258Y-95619000D01*
X119468742Y-95619000D01*
X119493512Y-95623927D01*
G37*
G36*
X144893512Y-93083927D02*
G01*
X145042812Y-93113624D01*
X145206784Y-93181544D01*
X145354354Y-93280147D01*
X145479853Y-93405646D01*
X145578456Y-93553216D01*
X145646376Y-93717188D01*
X145681000Y-93891259D01*
X145681000Y-94068741D01*
X145646376Y-94242812D01*
X145578456Y-94406784D01*
X145479853Y-94554354D01*
X145354354Y-94679853D01*
X145206784Y-94778456D01*
X145042812Y-94846376D01*
X144893512Y-94876073D01*
X144868742Y-94881000D01*
X144691258Y-94881000D01*
X144666488Y-94876073D01*
X144517188Y-94846376D01*
X144353216Y-94778456D01*
X144205646Y-94679853D01*
X144080147Y-94554354D01*
X143981544Y-94406784D01*
X143913624Y-94242812D01*
X143879000Y-94068741D01*
X143879000Y-93891259D01*
X143913624Y-93717188D01*
X143981544Y-93553216D01*
X144080147Y-93405646D01*
X144205646Y-93280147D01*
X144353216Y-93181544D01*
X144517188Y-93113624D01*
X144666488Y-93083927D01*
X144691258Y-93079000D01*
X144868742Y-93079000D01*
X144893512Y-93083927D01*
G37*
G36*
X119493512Y-93083927D02*
G01*
X119642812Y-93113624D01*
X119806784Y-93181544D01*
X119954354Y-93280147D01*
X120079853Y-93405646D01*
X120178456Y-93553216D01*
X120246376Y-93717188D01*
X120281000Y-93891259D01*
X120281000Y-94068741D01*
X120246376Y-94242812D01*
X120178456Y-94406784D01*
X120079853Y-94554354D01*
X119954354Y-94679853D01*
X119806784Y-94778456D01*
X119642812Y-94846376D01*
X119493512Y-94876073D01*
X119468742Y-94881000D01*
X119291258Y-94881000D01*
X119266488Y-94876073D01*
X119117188Y-94846376D01*
X118953216Y-94778456D01*
X118805646Y-94679853D01*
X118680147Y-94554354D01*
X118581544Y-94406784D01*
X118513624Y-94242812D01*
X118479000Y-94068741D01*
X118479000Y-93891259D01*
X118513624Y-93717188D01*
X118581544Y-93553216D01*
X118680147Y-93405646D01*
X118805646Y-93280147D01*
X118953216Y-93181544D01*
X119117188Y-93113624D01*
X119266488Y-93083927D01*
X119291258Y-93079000D01*
X119468742Y-93079000D01*
X119493512Y-93083927D01*
G37*
G36*
X144893512Y-90543927D02*
G01*
X145042812Y-90573624D01*
X145206784Y-90641544D01*
X145354354Y-90740147D01*
X145479853Y-90865646D01*
X145578456Y-91013216D01*
X145646376Y-91177188D01*
X145681000Y-91351259D01*
X145681000Y-91528741D01*
X145646376Y-91702812D01*
X145578456Y-91866784D01*
X145479853Y-92014354D01*
X145354354Y-92139853D01*
X145206784Y-92238456D01*
X145042812Y-92306376D01*
X144893512Y-92336073D01*
X144868742Y-92341000D01*
X144691258Y-92341000D01*
X144666488Y-92336073D01*
X144517188Y-92306376D01*
X144353216Y-92238456D01*
X144205646Y-92139853D01*
X144080147Y-92014354D01*
X143981544Y-91866784D01*
X143913624Y-91702812D01*
X143879000Y-91528741D01*
X143879000Y-91351259D01*
X143913624Y-91177188D01*
X143981544Y-91013216D01*
X144080147Y-90865646D01*
X144205646Y-90740147D01*
X144353216Y-90641544D01*
X144517188Y-90573624D01*
X144666488Y-90543927D01*
X144691258Y-90539000D01*
X144868742Y-90539000D01*
X144893512Y-90543927D01*
G37*
G36*
X119493512Y-90543927D02*
G01*
X119642812Y-90573624D01*
X119806784Y-90641544D01*
X119954354Y-90740147D01*
X120079853Y-90865646D01*
X120178456Y-91013216D01*
X120246376Y-91177188D01*
X120281000Y-91351259D01*
X120281000Y-91528741D01*
X120246376Y-91702812D01*
X120178456Y-91866784D01*
X120079853Y-92014354D01*
X119954354Y-92139853D01*
X119806784Y-92238456D01*
X119642812Y-92306376D01*
X119493512Y-92336073D01*
X119468742Y-92341000D01*
X119291258Y-92341000D01*
X119266488Y-92336073D01*
X119117188Y-92306376D01*
X118953216Y-92238456D01*
X118805646Y-92139853D01*
X118680147Y-92014354D01*
X118581544Y-91866784D01*
X118513624Y-91702812D01*
X118479000Y-91528741D01*
X118479000Y-91351259D01*
X118513624Y-91177188D01*
X118581544Y-91013216D01*
X118680147Y-90865646D01*
X118805646Y-90740147D01*
X118953216Y-90641544D01*
X119117188Y-90573624D01*
X119266488Y-90543927D01*
X119291258Y-90539000D01*
X119468742Y-90539000D01*
X119493512Y-90543927D01*
G37*
G36*
X119493512Y-88003927D02*
G01*
X119642812Y-88033624D01*
X119806784Y-88101544D01*
X119954354Y-88200147D01*
X120079853Y-88325646D01*
X120178456Y-88473216D01*
X120246376Y-88637188D01*
X120281000Y-88811259D01*
X120281000Y-88988741D01*
X120246376Y-89162812D01*
X120178456Y-89326784D01*
X120079853Y-89474354D01*
X119954354Y-89599853D01*
X119806784Y-89698456D01*
X119642812Y-89766376D01*
X119493512Y-89796073D01*
X119468742Y-89801000D01*
X119291258Y-89801000D01*
X119266488Y-89796073D01*
X119117188Y-89766376D01*
X118953216Y-89698456D01*
X118805646Y-89599853D01*
X118680147Y-89474354D01*
X118581544Y-89326784D01*
X118513624Y-89162812D01*
X118479000Y-88988741D01*
X118479000Y-88811259D01*
X118513624Y-88637188D01*
X118581544Y-88473216D01*
X118680147Y-88325646D01*
X118805646Y-88200147D01*
X118953216Y-88101544D01*
X119117188Y-88033624D01*
X119266488Y-88003927D01*
X119291258Y-87999000D01*
X119468742Y-87999000D01*
X119493512Y-88003927D01*
G37*
G36*
X144893512Y-88003927D02*
G01*
X145042812Y-88033624D01*
X145206784Y-88101544D01*
X145354354Y-88200147D01*
X145479853Y-88325646D01*
X145578456Y-88473216D01*
X145646376Y-88637188D01*
X145681000Y-88811259D01*
X145681000Y-88988741D01*
X145646376Y-89162812D01*
X145578456Y-89326784D01*
X145479853Y-89474354D01*
X145354354Y-89599853D01*
X145206784Y-89698456D01*
X145042812Y-89766376D01*
X144893512Y-89796073D01*
X144868742Y-89801000D01*
X144691258Y-89801000D01*
X144666488Y-89796073D01*
X144517188Y-89766376D01*
X144353216Y-89698456D01*
X144205646Y-89599853D01*
X144080147Y-89474354D01*
X143981544Y-89326784D01*
X143913624Y-89162812D01*
X143879000Y-88988741D01*
X143879000Y-88811259D01*
X143913624Y-88637188D01*
X143981544Y-88473216D01*
X144080147Y-88325646D01*
X144205646Y-88200147D01*
X144353216Y-88101544D01*
X144517188Y-88033624D01*
X144666488Y-88003927D01*
X144691258Y-87999000D01*
X144868742Y-87999000D01*
X144893512Y-88003927D01*
G37*
G36*
X119493512Y-85463927D02*
G01*
X119642812Y-85493624D01*
X119806784Y-85561544D01*
X119954354Y-85660147D01*
X120079853Y-85785646D01*
X120178456Y-85933216D01*
X120246376Y-86097188D01*
X120281000Y-86271259D01*
X120281000Y-86448741D01*
X120246376Y-86622812D01*
X120178456Y-86786784D01*
X120079853Y-86934354D01*
X119954354Y-87059853D01*
X119806784Y-87158456D01*
X119642812Y-87226376D01*
X119493512Y-87256073D01*
X119468742Y-87261000D01*
X119291258Y-87261000D01*
X119266488Y-87256073D01*
X119117188Y-87226376D01*
X118953216Y-87158456D01*
X118805646Y-87059853D01*
X118680147Y-86934354D01*
X118581544Y-86786784D01*
X118513624Y-86622812D01*
X118479000Y-86448741D01*
X118479000Y-86271259D01*
X118513624Y-86097188D01*
X118581544Y-85933216D01*
X118680147Y-85785646D01*
X118805646Y-85660147D01*
X118953216Y-85561544D01*
X119117188Y-85493624D01*
X119266488Y-85463927D01*
X119291258Y-85459000D01*
X119468742Y-85459000D01*
X119493512Y-85463927D01*
G37*
G36*
X144893512Y-85463927D02*
G01*
X145042812Y-85493624D01*
X145206784Y-85561544D01*
X145354354Y-85660147D01*
X145479853Y-85785646D01*
X145578456Y-85933216D01*
X145646376Y-86097188D01*
X145681000Y-86271259D01*
X145681000Y-86448741D01*
X145646376Y-86622812D01*
X145578456Y-86786784D01*
X145479853Y-86934354D01*
X145354354Y-87059853D01*
X145206784Y-87158456D01*
X145042812Y-87226376D01*
X144893512Y-87256073D01*
X144868742Y-87261000D01*
X144691258Y-87261000D01*
X144666488Y-87256073D01*
X144517188Y-87226376D01*
X144353216Y-87158456D01*
X144205646Y-87059853D01*
X144080147Y-86934354D01*
X143981544Y-86786784D01*
X143913624Y-86622812D01*
X143879000Y-86448741D01*
X143879000Y-86271259D01*
X143913624Y-86097188D01*
X143981544Y-85933216D01*
X144080147Y-85785646D01*
X144205646Y-85660147D01*
X144353216Y-85561544D01*
X144517188Y-85493624D01*
X144666488Y-85463927D01*
X144691258Y-85459000D01*
X144868742Y-85459000D01*
X144893512Y-85463927D01*
G37*
G36*
X119493512Y-82923927D02*
G01*
X119642812Y-82953624D01*
X119806784Y-83021544D01*
X119954354Y-83120147D01*
X120079853Y-83245646D01*
X120178456Y-83393216D01*
X120246376Y-83557188D01*
X120281000Y-83731259D01*
X120281000Y-83908741D01*
X120246376Y-84082812D01*
X120178456Y-84246784D01*
X120079853Y-84394354D01*
X119954354Y-84519853D01*
X119806784Y-84618456D01*
X119642812Y-84686376D01*
X119493512Y-84716073D01*
X119468742Y-84721000D01*
X119291258Y-84721000D01*
X119266488Y-84716073D01*
X119117188Y-84686376D01*
X118953216Y-84618456D01*
X118805646Y-84519853D01*
X118680147Y-84394354D01*
X118581544Y-84246784D01*
X118513624Y-84082812D01*
X118479000Y-83908741D01*
X118479000Y-83731259D01*
X118513624Y-83557188D01*
X118581544Y-83393216D01*
X118680147Y-83245646D01*
X118805646Y-83120147D01*
X118953216Y-83021544D01*
X119117188Y-82953624D01*
X119266488Y-82923927D01*
X119291258Y-82919000D01*
X119468742Y-82919000D01*
X119493512Y-82923927D01*
G37*
G36*
X144893512Y-82923927D02*
G01*
X145042812Y-82953624D01*
X145206784Y-83021544D01*
X145354354Y-83120147D01*
X145479853Y-83245646D01*
X145578456Y-83393216D01*
X145646376Y-83557188D01*
X145681000Y-83731259D01*
X145681000Y-83908741D01*
X145646376Y-84082812D01*
X145578456Y-84246784D01*
X145479853Y-84394354D01*
X145354354Y-84519853D01*
X145206784Y-84618456D01*
X145042812Y-84686376D01*
X144893512Y-84716073D01*
X144868742Y-84721000D01*
X144691258Y-84721000D01*
X144666488Y-84716073D01*
X144517188Y-84686376D01*
X144353216Y-84618456D01*
X144205646Y-84519853D01*
X144080147Y-84394354D01*
X143981544Y-84246784D01*
X143913624Y-84082812D01*
X143879000Y-83908741D01*
X143879000Y-83731259D01*
X143913624Y-83557188D01*
X143981544Y-83393216D01*
X144080147Y-83245646D01*
X144205646Y-83120147D01*
X144353216Y-83021544D01*
X144517188Y-82953624D01*
X144666488Y-82923927D01*
X144691258Y-82919000D01*
X144868742Y-82919000D01*
X144893512Y-82923927D01*
G37*
G36*
X119493512Y-80383927D02*
G01*
X119642812Y-80413624D01*
X119806784Y-80481544D01*
X119954354Y-80580147D01*
X120079853Y-80705646D01*
X120178456Y-80853216D01*
X120246376Y-81017188D01*
X120281000Y-81191259D01*
X120281000Y-81368741D01*
X120246376Y-81542812D01*
X120178456Y-81706784D01*
X120079853Y-81854354D01*
X119954354Y-81979853D01*
X119806784Y-82078456D01*
X119642812Y-82146376D01*
X119493512Y-82176073D01*
X119468742Y-82181000D01*
X119291258Y-82181000D01*
X119266488Y-82176073D01*
X119117188Y-82146376D01*
X118953216Y-82078456D01*
X118805646Y-81979853D01*
X118680147Y-81854354D01*
X118581544Y-81706784D01*
X118513624Y-81542812D01*
X118479000Y-81368741D01*
X118479000Y-81191259D01*
X118513624Y-81017188D01*
X118581544Y-80853216D01*
X118680147Y-80705646D01*
X118805646Y-80580147D01*
X118953216Y-80481544D01*
X119117188Y-80413624D01*
X119266488Y-80383927D01*
X119291258Y-80379000D01*
X119468742Y-80379000D01*
X119493512Y-80383927D01*
G37*
G36*
X144893512Y-80383927D02*
G01*
X145042812Y-80413624D01*
X145206784Y-80481544D01*
X145354354Y-80580147D01*
X145479853Y-80705646D01*
X145578456Y-80853216D01*
X145646376Y-81017188D01*
X145681000Y-81191259D01*
X145681000Y-81368741D01*
X145646376Y-81542812D01*
X145578456Y-81706784D01*
X145479853Y-81854354D01*
X145354354Y-81979853D01*
X145206784Y-82078456D01*
X145042812Y-82146376D01*
X144893512Y-82176073D01*
X144868742Y-82181000D01*
X144691258Y-82181000D01*
X144666488Y-82176073D01*
X144517188Y-82146376D01*
X144353216Y-82078456D01*
X144205646Y-81979853D01*
X144080147Y-81854354D01*
X143981544Y-81706784D01*
X143913624Y-81542812D01*
X143879000Y-81368741D01*
X143879000Y-81191259D01*
X143913624Y-81017188D01*
X143981544Y-80853216D01*
X144080147Y-80705646D01*
X144205646Y-80580147D01*
X144353216Y-80481544D01*
X144517188Y-80413624D01*
X144666488Y-80383927D01*
X144691258Y-80379000D01*
X144868742Y-80379000D01*
X144893512Y-80383927D01*
G37*
G36*
X144893512Y-77843927D02*
G01*
X145042812Y-77873624D01*
X145206784Y-77941544D01*
X145354354Y-78040147D01*
X145479853Y-78165646D01*
X145578456Y-78313216D01*
X145646376Y-78477188D01*
X145681000Y-78651259D01*
X145681000Y-78828741D01*
X145646376Y-79002812D01*
X145578456Y-79166784D01*
X145479853Y-79314354D01*
X145354354Y-79439853D01*
X145206784Y-79538456D01*
X145042812Y-79606376D01*
X144893512Y-79636073D01*
X144868742Y-79641000D01*
X144691258Y-79641000D01*
X144666488Y-79636073D01*
X144517188Y-79606376D01*
X144353216Y-79538456D01*
X144205646Y-79439853D01*
X144080147Y-79314354D01*
X143981544Y-79166784D01*
X143913624Y-79002812D01*
X143879000Y-78828741D01*
X143879000Y-78651259D01*
X143913624Y-78477188D01*
X143981544Y-78313216D01*
X144080147Y-78165646D01*
X144205646Y-78040147D01*
X144353216Y-77941544D01*
X144517188Y-77873624D01*
X144666488Y-77843927D01*
X144691258Y-77839000D01*
X144868742Y-77839000D01*
X144893512Y-77843927D01*
G37*
G36*
X119493512Y-77843927D02*
G01*
X119642812Y-77873624D01*
X119806784Y-77941544D01*
X119954354Y-78040147D01*
X120079853Y-78165646D01*
X120178456Y-78313216D01*
X120246376Y-78477188D01*
X120281000Y-78651259D01*
X120281000Y-78828741D01*
X120246376Y-79002812D01*
X120178456Y-79166784D01*
X120079853Y-79314354D01*
X119954354Y-79439853D01*
X119806784Y-79538456D01*
X119642812Y-79606376D01*
X119493512Y-79636073D01*
X119468742Y-79641000D01*
X119291258Y-79641000D01*
X119266488Y-79636073D01*
X119117188Y-79606376D01*
X118953216Y-79538456D01*
X118805646Y-79439853D01*
X118680147Y-79314354D01*
X118581544Y-79166784D01*
X118513624Y-79002812D01*
X118479000Y-78828741D01*
X118479000Y-78651259D01*
X118513624Y-78477188D01*
X118581544Y-78313216D01*
X118680147Y-78165646D01*
X118805646Y-78040147D01*
X118953216Y-77941544D01*
X119117188Y-77873624D01*
X119266488Y-77843927D01*
X119291258Y-77839000D01*
X119468742Y-77839000D01*
X119493512Y-77843927D01*
G37*
G36*
X144893512Y-75303927D02*
G01*
X145042812Y-75333624D01*
X145206784Y-75401544D01*
X145354354Y-75500147D01*
X145479853Y-75625646D01*
X145578456Y-75773216D01*
X145646376Y-75937188D01*
X145681000Y-76111259D01*
X145681000Y-76288741D01*
X145646376Y-76462812D01*
X145578456Y-76626784D01*
X145479853Y-76774354D01*
X145354354Y-76899853D01*
X145206784Y-76998456D01*
X145042812Y-77066376D01*
X144893512Y-77096073D01*
X144868742Y-77101000D01*
X144691258Y-77101000D01*
X144666488Y-77096073D01*
X144517188Y-77066376D01*
X144353216Y-76998456D01*
X144205646Y-76899853D01*
X144080147Y-76774354D01*
X143981544Y-76626784D01*
X143913624Y-76462812D01*
X143879000Y-76288741D01*
X143879000Y-76111259D01*
X143913624Y-75937188D01*
X143981544Y-75773216D01*
X144080147Y-75625646D01*
X144205646Y-75500147D01*
X144353216Y-75401544D01*
X144517188Y-75333624D01*
X144666488Y-75303927D01*
X144691258Y-75299000D01*
X144868742Y-75299000D01*
X144893512Y-75303927D01*
G37*
G36*
X119493512Y-75303927D02*
G01*
X119642812Y-75333624D01*
X119806784Y-75401544D01*
X119954354Y-75500147D01*
X120079853Y-75625646D01*
X120178456Y-75773216D01*
X120246376Y-75937188D01*
X120281000Y-76111259D01*
X120281000Y-76288741D01*
X120246376Y-76462812D01*
X120178456Y-76626784D01*
X120079853Y-76774354D01*
X119954354Y-76899853D01*
X119806784Y-76998456D01*
X119642812Y-77066376D01*
X119493512Y-77096073D01*
X119468742Y-77101000D01*
X119291258Y-77101000D01*
X119266488Y-77096073D01*
X119117188Y-77066376D01*
X118953216Y-76998456D01*
X118805646Y-76899853D01*
X118680147Y-76774354D01*
X118581544Y-76626784D01*
X118513624Y-76462812D01*
X118479000Y-76288741D01*
X118479000Y-76111259D01*
X118513624Y-75937188D01*
X118581544Y-75773216D01*
X118680147Y-75625646D01*
X118805646Y-75500147D01*
X118953216Y-75401544D01*
X119117188Y-75333624D01*
X119266488Y-75303927D01*
X119291258Y-75299000D01*
X119468742Y-75299000D01*
X119493512Y-75303927D01*
G37*
G36*
X144893512Y-72763927D02*
G01*
X145042812Y-72793624D01*
X145206784Y-72861544D01*
X145354354Y-72960147D01*
X145479853Y-73085646D01*
X145578456Y-73233216D01*
X145646376Y-73397188D01*
X145681000Y-73571259D01*
X145681000Y-73748741D01*
X145646376Y-73922812D01*
X145578456Y-74086784D01*
X145479853Y-74234354D01*
X145354354Y-74359853D01*
X145206784Y-74458456D01*
X145042812Y-74526376D01*
X144893512Y-74556073D01*
X144868742Y-74561000D01*
X144691258Y-74561000D01*
X144666488Y-74556073D01*
X144517188Y-74526376D01*
X144353216Y-74458456D01*
X144205646Y-74359853D01*
X144080147Y-74234354D01*
X143981544Y-74086784D01*
X143913624Y-73922812D01*
X143879000Y-73748741D01*
X143879000Y-73571259D01*
X143913624Y-73397188D01*
X143981544Y-73233216D01*
X144080147Y-73085646D01*
X144205646Y-72960147D01*
X144353216Y-72861544D01*
X144517188Y-72793624D01*
X144666488Y-72763927D01*
X144691258Y-72759000D01*
X144868742Y-72759000D01*
X144893512Y-72763927D01*
G37*
G36*
X119493512Y-72763927D02*
G01*
X119642812Y-72793624D01*
X119806784Y-72861544D01*
X119954354Y-72960147D01*
X120079853Y-73085646D01*
X120178456Y-73233216D01*
X120246376Y-73397188D01*
X120281000Y-73571259D01*
X120281000Y-73748741D01*
X120246376Y-73922812D01*
X120178456Y-74086784D01*
X120079853Y-74234354D01*
X119954354Y-74359853D01*
X119806784Y-74458456D01*
X119642812Y-74526376D01*
X119493512Y-74556073D01*
X119468742Y-74561000D01*
X119291258Y-74561000D01*
X119266488Y-74556073D01*
X119117188Y-74526376D01*
X118953216Y-74458456D01*
X118805646Y-74359853D01*
X118680147Y-74234354D01*
X118581544Y-74086784D01*
X118513624Y-73922812D01*
X118479000Y-73748741D01*
X118479000Y-73571259D01*
X118513624Y-73397188D01*
X118581544Y-73233216D01*
X118680147Y-73085646D01*
X118805646Y-72960147D01*
X118953216Y-72861544D01*
X119117188Y-72793624D01*
X119266488Y-72763927D01*
X119291258Y-72759000D01*
X119468742Y-72759000D01*
X119493512Y-72763927D01*
G37*
G36*
X144893512Y-70223927D02*
G01*
X145042812Y-70253624D01*
X145206784Y-70321544D01*
X145354354Y-70420147D01*
X145479853Y-70545646D01*
X145578456Y-70693216D01*
X145646376Y-70857188D01*
X145681000Y-71031259D01*
X145681000Y-71208741D01*
X145646376Y-71382812D01*
X145578456Y-71546784D01*
X145479853Y-71694354D01*
X145354354Y-71819853D01*
X145206784Y-71918456D01*
X145042812Y-71986376D01*
X144893512Y-72016073D01*
X144868742Y-72021000D01*
X144691258Y-72021000D01*
X144666488Y-72016073D01*
X144517188Y-71986376D01*
X144353216Y-71918456D01*
X144205646Y-71819853D01*
X144080147Y-71694354D01*
X143981544Y-71546784D01*
X143913624Y-71382812D01*
X143879000Y-71208741D01*
X143879000Y-71031259D01*
X143913624Y-70857188D01*
X143981544Y-70693216D01*
X144080147Y-70545646D01*
X144205646Y-70420147D01*
X144353216Y-70321544D01*
X144517188Y-70253624D01*
X144666488Y-70223927D01*
X144691258Y-70219000D01*
X144868742Y-70219000D01*
X144893512Y-70223927D01*
G37*
G36*
X119493512Y-70223927D02*
G01*
X119642812Y-70253624D01*
X119806784Y-70321544D01*
X119954354Y-70420147D01*
X120079853Y-70545646D01*
X120178456Y-70693216D01*
X120246376Y-70857188D01*
X120281000Y-71031259D01*
X120281000Y-71208741D01*
X120246376Y-71382812D01*
X120178456Y-71546784D01*
X120079853Y-71694354D01*
X119954354Y-71819853D01*
X119806784Y-71918456D01*
X119642812Y-71986376D01*
X119493512Y-72016073D01*
X119468742Y-72021000D01*
X119291258Y-72021000D01*
X119266488Y-72016073D01*
X119117188Y-71986376D01*
X118953216Y-71918456D01*
X118805646Y-71819853D01*
X118680147Y-71694354D01*
X118581544Y-71546784D01*
X118513624Y-71382812D01*
X118479000Y-71208741D01*
X118479000Y-71031259D01*
X118513624Y-70857188D01*
X118581544Y-70693216D01*
X118680147Y-70545646D01*
X118805646Y-70420147D01*
X118953216Y-70321544D01*
X119117188Y-70253624D01*
X119266488Y-70223927D01*
X119291258Y-70219000D01*
X119468742Y-70219000D01*
X119493512Y-70223927D01*
G37*
G36*
X144893512Y-67683927D02*
G01*
X145042812Y-67713624D01*
X145206784Y-67781544D01*
X145354354Y-67880147D01*
X145479853Y-68005646D01*
X145578456Y-68153216D01*
X145646376Y-68317188D01*
X145681000Y-68491259D01*
X145681000Y-68668741D01*
X145646376Y-68842812D01*
X145578456Y-69006784D01*
X145479853Y-69154354D01*
X145354354Y-69279853D01*
X145206784Y-69378456D01*
X145042812Y-69446376D01*
X144893512Y-69476073D01*
X144868742Y-69481000D01*
X144691258Y-69481000D01*
X144666488Y-69476073D01*
X144517188Y-69446376D01*
X144353216Y-69378456D01*
X144205646Y-69279853D01*
X144080147Y-69154354D01*
X143981544Y-69006784D01*
X143913624Y-68842812D01*
X143879000Y-68668741D01*
X143879000Y-68491259D01*
X143913624Y-68317188D01*
X143981544Y-68153216D01*
X144080147Y-68005646D01*
X144205646Y-67880147D01*
X144353216Y-67781544D01*
X144517188Y-67713624D01*
X144666488Y-67683927D01*
X144691258Y-67679000D01*
X144868742Y-67679000D01*
X144893512Y-67683927D01*
G37*
G36*
X119493512Y-67683927D02*
G01*
X119642812Y-67713624D01*
X119806784Y-67781544D01*
X119954354Y-67880147D01*
X120079853Y-68005646D01*
X120178456Y-68153216D01*
X120246376Y-68317188D01*
X120281000Y-68491259D01*
X120281000Y-68668741D01*
X120246376Y-68842812D01*
X120178456Y-69006784D01*
X120079853Y-69154354D01*
X119954354Y-69279853D01*
X119806784Y-69378456D01*
X119642812Y-69446376D01*
X119493512Y-69476073D01*
X119468742Y-69481000D01*
X119291258Y-69481000D01*
X119266488Y-69476073D01*
X119117188Y-69446376D01*
X118953216Y-69378456D01*
X118805646Y-69279853D01*
X118680147Y-69154354D01*
X118581544Y-69006784D01*
X118513624Y-68842812D01*
X118479000Y-68668741D01*
X118479000Y-68491259D01*
X118513624Y-68317188D01*
X118581544Y-68153216D01*
X118680147Y-68005646D01*
X118805646Y-67880147D01*
X118953216Y-67781544D01*
X119117188Y-67713624D01*
X119266488Y-67683927D01*
X119291258Y-67679000D01*
X119468742Y-67679000D01*
X119493512Y-67683927D01*
G37*
G36*
X144893512Y-65143927D02*
G01*
X145042812Y-65173624D01*
X145206784Y-65241544D01*
X145354354Y-65340147D01*
X145479853Y-65465646D01*
X145578456Y-65613216D01*
X145646376Y-65777188D01*
X145681000Y-65951259D01*
X145681000Y-66128741D01*
X145646376Y-66302812D01*
X145578456Y-66466784D01*
X145479853Y-66614354D01*
X145354354Y-66739853D01*
X145206784Y-66838456D01*
X145042812Y-66906376D01*
X144893512Y-66936073D01*
X144868742Y-66941000D01*
X144691258Y-66941000D01*
X144666488Y-66936073D01*
X144517188Y-66906376D01*
X144353216Y-66838456D01*
X144205646Y-66739853D01*
X144080147Y-66614354D01*
X143981544Y-66466784D01*
X143913624Y-66302812D01*
X143879000Y-66128741D01*
X143879000Y-65951259D01*
X143913624Y-65777188D01*
X143981544Y-65613216D01*
X144080147Y-65465646D01*
X144205646Y-65340147D01*
X144353216Y-65241544D01*
X144517188Y-65173624D01*
X144666488Y-65143927D01*
X144691258Y-65139000D01*
X144868742Y-65139000D01*
X144893512Y-65143927D01*
G37*
G36*
X119493512Y-65143927D02*
G01*
X119642812Y-65173624D01*
X119806784Y-65241544D01*
X119954354Y-65340147D01*
X120079853Y-65465646D01*
X120178456Y-65613216D01*
X120246376Y-65777188D01*
X120281000Y-65951259D01*
X120281000Y-66128741D01*
X120246376Y-66302812D01*
X120178456Y-66466784D01*
X120079853Y-66614354D01*
X119954354Y-66739853D01*
X119806784Y-66838456D01*
X119642812Y-66906376D01*
X119493512Y-66936073D01*
X119468742Y-66941000D01*
X119291258Y-66941000D01*
X119266488Y-66936073D01*
X119117188Y-66906376D01*
X118953216Y-66838456D01*
X118805646Y-66739853D01*
X118680147Y-66614354D01*
X118581544Y-66466784D01*
X118513624Y-66302812D01*
X118479000Y-66128741D01*
X118479000Y-65951259D01*
X118513624Y-65777188D01*
X118581544Y-65613216D01*
X118680147Y-65465646D01*
X118805646Y-65340147D01*
X118953216Y-65241544D01*
X119117188Y-65173624D01*
X119266488Y-65143927D01*
X119291258Y-65139000D01*
X119468742Y-65139000D01*
X119493512Y-65143927D01*
G37*
G36*
X144893512Y-62603927D02*
G01*
X145042812Y-62633624D01*
X145206784Y-62701544D01*
X145354354Y-62800147D01*
X145479853Y-62925646D01*
X145578456Y-63073216D01*
X145646376Y-63237188D01*
X145681000Y-63411259D01*
X145681000Y-63588741D01*
X145646376Y-63762812D01*
X145578456Y-63926784D01*
X145479853Y-64074354D01*
X145354354Y-64199853D01*
X145206784Y-64298456D01*
X145042812Y-64366376D01*
X144893512Y-64396073D01*
X144868742Y-64401000D01*
X144691258Y-64401000D01*
X144666488Y-64396073D01*
X144517188Y-64366376D01*
X144353216Y-64298456D01*
X144205646Y-64199853D01*
X144080147Y-64074354D01*
X143981544Y-63926784D01*
X143913624Y-63762812D01*
X143879000Y-63588741D01*
X143879000Y-63411259D01*
X143913624Y-63237188D01*
X143981544Y-63073216D01*
X144080147Y-62925646D01*
X144205646Y-62800147D01*
X144353216Y-62701544D01*
X144517188Y-62633624D01*
X144666488Y-62603927D01*
X144691258Y-62599000D01*
X144868742Y-62599000D01*
X144893512Y-62603927D01*
G37*
G36*
X119493512Y-62603927D02*
G01*
X119642812Y-62633624D01*
X119806784Y-62701544D01*
X119954354Y-62800147D01*
X120079853Y-62925646D01*
X120178456Y-63073216D01*
X120246376Y-63237188D01*
X120281000Y-63411259D01*
X120281000Y-63588741D01*
X120246376Y-63762812D01*
X120178456Y-63926784D01*
X120079853Y-64074354D01*
X119954354Y-64199853D01*
X119806784Y-64298456D01*
X119642812Y-64366376D01*
X119493512Y-64396073D01*
X119468742Y-64401000D01*
X119291258Y-64401000D01*
X119266488Y-64396073D01*
X119117188Y-64366376D01*
X118953216Y-64298456D01*
X118805646Y-64199853D01*
X118680147Y-64074354D01*
X118581544Y-63926784D01*
X118513624Y-63762812D01*
X118479000Y-63588741D01*
X118479000Y-63411259D01*
X118513624Y-63237188D01*
X118581544Y-63073216D01*
X118680147Y-62925646D01*
X118805646Y-62800147D01*
X118953216Y-62701544D01*
X119117188Y-62633624D01*
X119266488Y-62603927D01*
X119291258Y-62599000D01*
X119468742Y-62599000D01*
X119493512Y-62603927D01*
G37*
G36*
X144893512Y-60063927D02*
G01*
X145042812Y-60093624D01*
X145206784Y-60161544D01*
X145354354Y-60260147D01*
X145479853Y-60385646D01*
X145578456Y-60533216D01*
X145646376Y-60697188D01*
X145681000Y-60871259D01*
X145681000Y-61048741D01*
X145646376Y-61222812D01*
X145578456Y-61386784D01*
X145479853Y-61534354D01*
X145354354Y-61659853D01*
X145206784Y-61758456D01*
X145042812Y-61826376D01*
X144893512Y-61856073D01*
X144868742Y-61861000D01*
X144691258Y-61861000D01*
X144666488Y-61856073D01*
X144517188Y-61826376D01*
X144353216Y-61758456D01*
X144205646Y-61659853D01*
X144080147Y-61534354D01*
X143981544Y-61386784D01*
X143913624Y-61222812D01*
X143879000Y-61048741D01*
X143879000Y-60871259D01*
X143913624Y-60697188D01*
X143981544Y-60533216D01*
X144080147Y-60385646D01*
X144205646Y-60260147D01*
X144353216Y-60161544D01*
X144517188Y-60093624D01*
X144666488Y-60063927D01*
X144691258Y-60059000D01*
X144868742Y-60059000D01*
X144893512Y-60063927D01*
G37*
G36*
X119493512Y-60063927D02*
G01*
X119642812Y-60093624D01*
X119806784Y-60161544D01*
X119954354Y-60260147D01*
X120079853Y-60385646D01*
X120178456Y-60533216D01*
X120246376Y-60697188D01*
X120281000Y-60871259D01*
X120281000Y-61048741D01*
X120246376Y-61222812D01*
X120178456Y-61386784D01*
X120079853Y-61534354D01*
X119954354Y-61659853D01*
X119806784Y-61758456D01*
X119642812Y-61826376D01*
X119493512Y-61856073D01*
X119468742Y-61861000D01*
X119291258Y-61861000D01*
X119266488Y-61856073D01*
X119117188Y-61826376D01*
X118953216Y-61758456D01*
X118805646Y-61659853D01*
X118680147Y-61534354D01*
X118581544Y-61386784D01*
X118513624Y-61222812D01*
X118479000Y-61048741D01*
X118479000Y-60871259D01*
X118513624Y-60697188D01*
X118581544Y-60533216D01*
X118680147Y-60385646D01*
X118805646Y-60260147D01*
X118953216Y-60161544D01*
X119117188Y-60093624D01*
X119266488Y-60063927D01*
X119291258Y-60059000D01*
X119468742Y-60059000D01*
X119493512Y-60063927D01*
G37*
G36*
X119493512Y-57523927D02*
G01*
X119642812Y-57553624D01*
X119806784Y-57621544D01*
X119954354Y-57720147D01*
X120079853Y-57845646D01*
X120178456Y-57993216D01*
X120246376Y-58157188D01*
X120281000Y-58331259D01*
X120281000Y-58508741D01*
X120246376Y-58682812D01*
X120178456Y-58846784D01*
X120079853Y-58994354D01*
X119954354Y-59119853D01*
X119806784Y-59218456D01*
X119642812Y-59286376D01*
X119493512Y-59316073D01*
X119468742Y-59321000D01*
X119291258Y-59321000D01*
X119266488Y-59316073D01*
X119117188Y-59286376D01*
X118953216Y-59218456D01*
X118805646Y-59119853D01*
X118680147Y-58994354D01*
X118581544Y-58846784D01*
X118513624Y-58682812D01*
X118479000Y-58508741D01*
X118479000Y-58331259D01*
X118513624Y-58157188D01*
X118581544Y-57993216D01*
X118680147Y-57845646D01*
X118805646Y-57720147D01*
X118953216Y-57621544D01*
X119117188Y-57553624D01*
X119266488Y-57523927D01*
X119291258Y-57519000D01*
X119468742Y-57519000D01*
X119493512Y-57523927D01*
G37*
G36*
X144893512Y-57523927D02*
G01*
X145042812Y-57553624D01*
X145206784Y-57621544D01*
X145354354Y-57720147D01*
X145479853Y-57845646D01*
X145578456Y-57993216D01*
X145646376Y-58157188D01*
X145681000Y-58331259D01*
X145681000Y-58508741D01*
X145646376Y-58682812D01*
X145578456Y-58846784D01*
X145479853Y-58994354D01*
X145354354Y-59119853D01*
X145206784Y-59218456D01*
X145042812Y-59286376D01*
X144893512Y-59316073D01*
X144868742Y-59321000D01*
X144691258Y-59321000D01*
X144666488Y-59316073D01*
X144517188Y-59286376D01*
X144353216Y-59218456D01*
X144205646Y-59119853D01*
X144080147Y-58994354D01*
X143981544Y-58846784D01*
X143913624Y-58682812D01*
X143879000Y-58508741D01*
X143879000Y-58331259D01*
X143913624Y-58157188D01*
X143981544Y-57993216D01*
X144080147Y-57845646D01*
X144205646Y-57720147D01*
X144353216Y-57621544D01*
X144517188Y-57553624D01*
X144666488Y-57523927D01*
X144691258Y-57519000D01*
X144868742Y-57519000D01*
X144893512Y-57523927D01*
G37*
G36*
X144893512Y-54983927D02*
G01*
X145042812Y-55013624D01*
X145206784Y-55081544D01*
X145354354Y-55180147D01*
X145479853Y-55305646D01*
X145578456Y-55453216D01*
X145646376Y-55617188D01*
X145681000Y-55791259D01*
X145681000Y-55968741D01*
X145646376Y-56142812D01*
X145578456Y-56306784D01*
X145479853Y-56454354D01*
X145354354Y-56579853D01*
X145206784Y-56678456D01*
X145042812Y-56746376D01*
X144893512Y-56776073D01*
X144868742Y-56781000D01*
X144691258Y-56781000D01*
X144666488Y-56776073D01*
X144517188Y-56746376D01*
X144353216Y-56678456D01*
X144205646Y-56579853D01*
X144080147Y-56454354D01*
X143981544Y-56306784D01*
X143913624Y-56142812D01*
X143879000Y-55968741D01*
X143879000Y-55791259D01*
X143913624Y-55617188D01*
X143981544Y-55453216D01*
X144080147Y-55305646D01*
X144205646Y-55180147D01*
X144353216Y-55081544D01*
X144517188Y-55013624D01*
X144666488Y-54983927D01*
X144691258Y-54979000D01*
X144868742Y-54979000D01*
X144893512Y-54983927D01*
G37*
G36*
X119493512Y-54983927D02*
G01*
X119642812Y-55013624D01*
X119806784Y-55081544D01*
X119954354Y-55180147D01*
X120079853Y-55305646D01*
X120178456Y-55453216D01*
X120246376Y-55617188D01*
X120281000Y-55791259D01*
X120281000Y-55968741D01*
X120246376Y-56142812D01*
X120178456Y-56306784D01*
X120079853Y-56454354D01*
X119954354Y-56579853D01*
X119806784Y-56678456D01*
X119642812Y-56746376D01*
X119493512Y-56776073D01*
X119468742Y-56781000D01*
X119291258Y-56781000D01*
X119266488Y-56776073D01*
X119117188Y-56746376D01*
X118953216Y-56678456D01*
X118805646Y-56579853D01*
X118680147Y-56454354D01*
X118581544Y-56306784D01*
X118513624Y-56142812D01*
X118479000Y-55968741D01*
X118479000Y-55791259D01*
X118513624Y-55617188D01*
X118581544Y-55453216D01*
X118680147Y-55305646D01*
X118805646Y-55180147D01*
X118953216Y-55081544D01*
X119117188Y-55013624D01*
X119266488Y-54983927D01*
X119291258Y-54979000D01*
X119468742Y-54979000D01*
X119493512Y-54983927D01*
G37*
G36*
X119493512Y-52443927D02*
G01*
X119642812Y-52473624D01*
X119806784Y-52541544D01*
X119954354Y-52640147D01*
X120079853Y-52765646D01*
X120178456Y-52913216D01*
X120246376Y-53077188D01*
X120281000Y-53251259D01*
X120281000Y-53428741D01*
X120246376Y-53602812D01*
X120178456Y-53766784D01*
X120079853Y-53914354D01*
X119954354Y-54039853D01*
X119806784Y-54138456D01*
X119642812Y-54206376D01*
X119493512Y-54236073D01*
X119468742Y-54241000D01*
X119291258Y-54241000D01*
X119266488Y-54236073D01*
X119117188Y-54206376D01*
X118953216Y-54138456D01*
X118805646Y-54039853D01*
X118680147Y-53914354D01*
X118581544Y-53766784D01*
X118513624Y-53602812D01*
X118479000Y-53428741D01*
X118479000Y-53251259D01*
X118513624Y-53077188D01*
X118581544Y-52913216D01*
X118680147Y-52765646D01*
X118805646Y-52640147D01*
X118953216Y-52541544D01*
X119117188Y-52473624D01*
X119266488Y-52443927D01*
X119291258Y-52439000D01*
X119468742Y-52439000D01*
X119493512Y-52443927D01*
G37*
G36*
X144893512Y-52443927D02*
G01*
X145042812Y-52473624D01*
X145206784Y-52541544D01*
X145354354Y-52640147D01*
X145479853Y-52765646D01*
X145578456Y-52913216D01*
X145646376Y-53077188D01*
X145681000Y-53251259D01*
X145681000Y-53428741D01*
X145646376Y-53602812D01*
X145578456Y-53766784D01*
X145479853Y-53914354D01*
X145354354Y-54039853D01*
X145206784Y-54138456D01*
X145042812Y-54206376D01*
X144893512Y-54236073D01*
X144868742Y-54241000D01*
X144691258Y-54241000D01*
X144666488Y-54236073D01*
X144517188Y-54206376D01*
X144353216Y-54138456D01*
X144205646Y-54039853D01*
X144080147Y-53914354D01*
X143981544Y-53766784D01*
X143913624Y-53602812D01*
X143879000Y-53428741D01*
X143879000Y-53251259D01*
X143913624Y-53077188D01*
X143981544Y-52913216D01*
X144080147Y-52765646D01*
X144205646Y-52640147D01*
X144353216Y-52541544D01*
X144517188Y-52473624D01*
X144666488Y-52443927D01*
X144691258Y-52439000D01*
X144868742Y-52439000D01*
X144893512Y-52443927D01*
G37*
G36*
X119493512Y-49903927D02*
G01*
X119642812Y-49933624D01*
X119806784Y-50001544D01*
X119954354Y-50100147D01*
X120079853Y-50225646D01*
X120178456Y-50373216D01*
X120246376Y-50537188D01*
X120281000Y-50711259D01*
X120281000Y-50888741D01*
X120246376Y-51062812D01*
X120178456Y-51226784D01*
X120079853Y-51374354D01*
X119954354Y-51499853D01*
X119806784Y-51598456D01*
X119642812Y-51666376D01*
X119493512Y-51696073D01*
X119468742Y-51701000D01*
X119291258Y-51701000D01*
X119266488Y-51696073D01*
X119117188Y-51666376D01*
X118953216Y-51598456D01*
X118805646Y-51499853D01*
X118680147Y-51374354D01*
X118581544Y-51226784D01*
X118513624Y-51062812D01*
X118479000Y-50888741D01*
X118479000Y-50711259D01*
X118513624Y-50537188D01*
X118581544Y-50373216D01*
X118680147Y-50225646D01*
X118805646Y-50100147D01*
X118953216Y-50001544D01*
X119117188Y-49933624D01*
X119266488Y-49903927D01*
X119291258Y-49899000D01*
X119468742Y-49899000D01*
X119493512Y-49903927D01*
G37*
G36*
X144893512Y-49903927D02*
G01*
X145042812Y-49933624D01*
X145206784Y-50001544D01*
X145354354Y-50100147D01*
X145479853Y-50225646D01*
X145578456Y-50373216D01*
X145646376Y-50537188D01*
X145681000Y-50711259D01*
X145681000Y-50888741D01*
X145646376Y-51062812D01*
X145578456Y-51226784D01*
X145479853Y-51374354D01*
X145354354Y-51499853D01*
X145206784Y-51598456D01*
X145042812Y-51666376D01*
X144893512Y-51696073D01*
X144868742Y-51701000D01*
X144691258Y-51701000D01*
X144666488Y-51696073D01*
X144517188Y-51666376D01*
X144353216Y-51598456D01*
X144205646Y-51499853D01*
X144080147Y-51374354D01*
X143981544Y-51226784D01*
X143913624Y-51062812D01*
X143879000Y-50888741D01*
X143879000Y-50711259D01*
X143913624Y-50537188D01*
X143981544Y-50373216D01*
X144080147Y-50225646D01*
X144205646Y-50100147D01*
X144353216Y-50001544D01*
X144517188Y-49933624D01*
X144666488Y-49903927D01*
X144691258Y-49899000D01*
X144868742Y-49899000D01*
X144893512Y-49903927D01*
G37*
G36*
X119493512Y-47363927D02*
G01*
X119642812Y-47393624D01*
X119806784Y-47461544D01*
X119954354Y-47560147D01*
X120079853Y-47685646D01*
X120178456Y-47833216D01*
X120246376Y-47997188D01*
X120281000Y-48171259D01*
X120281000Y-48348741D01*
X120246376Y-48522812D01*
X120178456Y-48686784D01*
X120079853Y-48834354D01*
X119954354Y-48959853D01*
X119806784Y-49058456D01*
X119642812Y-49126376D01*
X119493512Y-49156073D01*
X119468742Y-49161000D01*
X119291258Y-49161000D01*
X119266488Y-49156073D01*
X119117188Y-49126376D01*
X118953216Y-49058456D01*
X118805646Y-48959853D01*
X118680147Y-48834354D01*
X118581544Y-48686784D01*
X118513624Y-48522812D01*
X118479000Y-48348741D01*
X118479000Y-48171259D01*
X118513624Y-47997188D01*
X118581544Y-47833216D01*
X118680147Y-47685646D01*
X118805646Y-47560147D01*
X118953216Y-47461544D01*
X119117188Y-47393624D01*
X119266488Y-47363927D01*
X119291258Y-47359000D01*
X119468742Y-47359000D01*
X119493512Y-47363927D01*
G37*
G36*
X144893512Y-47363927D02*
G01*
X145042812Y-47393624D01*
X145206784Y-47461544D01*
X145354354Y-47560147D01*
X145479853Y-47685646D01*
X145578456Y-47833216D01*
X145646376Y-47997188D01*
X145681000Y-48171259D01*
X145681000Y-48348741D01*
X145646376Y-48522812D01*
X145578456Y-48686784D01*
X145479853Y-48834354D01*
X145354354Y-48959853D01*
X145206784Y-49058456D01*
X145042812Y-49126376D01*
X144893512Y-49156073D01*
X144868742Y-49161000D01*
X144691258Y-49161000D01*
X144666488Y-49156073D01*
X144517188Y-49126376D01*
X144353216Y-49058456D01*
X144205646Y-48959853D01*
X144080147Y-48834354D01*
X143981544Y-48686784D01*
X143913624Y-48522812D01*
X143879000Y-48348741D01*
X143879000Y-48171259D01*
X143913624Y-47997188D01*
X143981544Y-47833216D01*
X144080147Y-47685646D01*
X144205646Y-47560147D01*
X144353216Y-47461544D01*
X144517188Y-47393624D01*
X144666488Y-47363927D01*
X144691258Y-47359000D01*
X144868742Y-47359000D01*
X144893512Y-47363927D01*
G37*
G36*
X119493512Y-44823927D02*
G01*
X119642812Y-44853624D01*
X119806784Y-44921544D01*
X119954354Y-45020147D01*
X120079853Y-45145646D01*
X120178456Y-45293216D01*
X120246376Y-45457188D01*
X120281000Y-45631259D01*
X120281000Y-45808741D01*
X120246376Y-45982812D01*
X120178456Y-46146784D01*
X120079853Y-46294354D01*
X119954354Y-46419853D01*
X119806784Y-46518456D01*
X119642812Y-46586376D01*
X119493512Y-46616073D01*
X119468742Y-46621000D01*
X119291258Y-46621000D01*
X119266488Y-46616073D01*
X119117188Y-46586376D01*
X118953216Y-46518456D01*
X118805646Y-46419853D01*
X118680147Y-46294354D01*
X118581544Y-46146784D01*
X118513624Y-45982812D01*
X118479000Y-45808741D01*
X118479000Y-45631259D01*
X118513624Y-45457188D01*
X118581544Y-45293216D01*
X118680147Y-45145646D01*
X118805646Y-45020147D01*
X118953216Y-44921544D01*
X119117188Y-44853624D01*
X119266488Y-44823927D01*
X119291258Y-44819000D01*
X119468742Y-44819000D01*
X119493512Y-44823927D01*
G37*
G36*
X144893512Y-44823927D02*
G01*
X145042812Y-44853624D01*
X145206784Y-44921544D01*
X145354354Y-45020147D01*
X145479853Y-45145646D01*
X145578456Y-45293216D01*
X145646376Y-45457188D01*
X145681000Y-45631259D01*
X145681000Y-45808741D01*
X145646376Y-45982812D01*
X145578456Y-46146784D01*
X145479853Y-46294354D01*
X145354354Y-46419853D01*
X145206784Y-46518456D01*
X145042812Y-46586376D01*
X144893512Y-46616073D01*
X144868742Y-46621000D01*
X144691258Y-46621000D01*
X144666488Y-46616073D01*
X144517188Y-46586376D01*
X144353216Y-46518456D01*
X144205646Y-46419853D01*
X144080147Y-46294354D01*
X143981544Y-46146784D01*
X143913624Y-45982812D01*
X143879000Y-45808741D01*
X143879000Y-45631259D01*
X143913624Y-45457188D01*
X143981544Y-45293216D01*
X144080147Y-45145646D01*
X144205646Y-45020147D01*
X144353216Y-44921544D01*
X144517188Y-44853624D01*
X144666488Y-44823927D01*
X144691258Y-44819000D01*
X144868742Y-44819000D01*
X144893512Y-44823927D01*
G37*
G36*
X119493512Y-42283927D02*
G01*
X119642812Y-42313624D01*
X119806784Y-42381544D01*
X119954354Y-42480147D01*
X120079853Y-42605646D01*
X120178456Y-42753216D01*
X120246376Y-42917188D01*
X120281000Y-43091259D01*
X120281000Y-43268741D01*
X120246376Y-43442812D01*
X120178456Y-43606784D01*
X120079853Y-43754354D01*
X119954354Y-43879853D01*
X119806784Y-43978456D01*
X119642812Y-44046376D01*
X119493512Y-44076073D01*
X119468742Y-44081000D01*
X119291258Y-44081000D01*
X119266488Y-44076073D01*
X119117188Y-44046376D01*
X118953216Y-43978456D01*
X118805646Y-43879853D01*
X118680147Y-43754354D01*
X118581544Y-43606784D01*
X118513624Y-43442812D01*
X118479000Y-43268741D01*
X118479000Y-43091259D01*
X118513624Y-42917188D01*
X118581544Y-42753216D01*
X118680147Y-42605646D01*
X118805646Y-42480147D01*
X118953216Y-42381544D01*
X119117188Y-42313624D01*
X119266488Y-42283927D01*
X119291258Y-42279000D01*
X119468742Y-42279000D01*
X119493512Y-42283927D01*
G37*
G36*
X144893512Y-42283927D02*
G01*
X145042812Y-42313624D01*
X145206784Y-42381544D01*
X145354354Y-42480147D01*
X145479853Y-42605646D01*
X145578456Y-42753216D01*
X145646376Y-42917188D01*
X145681000Y-43091259D01*
X145681000Y-43268741D01*
X145646376Y-43442812D01*
X145578456Y-43606784D01*
X145479853Y-43754354D01*
X145354354Y-43879853D01*
X145206784Y-43978456D01*
X145042812Y-44046376D01*
X144893512Y-44076073D01*
X144868742Y-44081000D01*
X144691258Y-44081000D01*
X144666488Y-44076073D01*
X144517188Y-44046376D01*
X144353216Y-43978456D01*
X144205646Y-43879853D01*
X144080147Y-43754354D01*
X143981544Y-43606784D01*
X143913624Y-43442812D01*
X143879000Y-43268741D01*
X143879000Y-43091259D01*
X143913624Y-42917188D01*
X143981544Y-42753216D01*
X144080147Y-42605646D01*
X144205646Y-42480147D01*
X144353216Y-42381544D01*
X144517188Y-42313624D01*
X144666488Y-42283927D01*
X144691258Y-42279000D01*
X144868742Y-42279000D01*
X144893512Y-42283927D01*
G37*
G36*
X119493512Y-39743927D02*
G01*
X119642812Y-39773624D01*
X119806784Y-39841544D01*
X119954354Y-39940147D01*
X120079853Y-40065646D01*
X120178456Y-40213216D01*
X120246376Y-40377188D01*
X120281000Y-40551259D01*
X120281000Y-40728741D01*
X120246376Y-40902812D01*
X120178456Y-41066784D01*
X120079853Y-41214354D01*
X119954354Y-41339853D01*
X119806784Y-41438456D01*
X119642812Y-41506376D01*
X119493512Y-41536073D01*
X119468742Y-41541000D01*
X119291258Y-41541000D01*
X119266488Y-41536073D01*
X119117188Y-41506376D01*
X118953216Y-41438456D01*
X118805646Y-41339853D01*
X118680147Y-41214354D01*
X118581544Y-41066784D01*
X118513624Y-40902812D01*
X118479000Y-40728741D01*
X118479000Y-40551259D01*
X118513624Y-40377188D01*
X118581544Y-40213216D01*
X118680147Y-40065646D01*
X118805646Y-39940147D01*
X118953216Y-39841544D01*
X119117188Y-39773624D01*
X119266488Y-39743927D01*
X119291258Y-39739000D01*
X119468742Y-39739000D01*
X119493512Y-39743927D01*
G37*
G36*
X144893512Y-39743927D02*
G01*
X145042812Y-39773624D01*
X145206784Y-39841544D01*
X145354354Y-39940147D01*
X145479853Y-40065646D01*
X145578456Y-40213216D01*
X145646376Y-40377188D01*
X145681000Y-40551259D01*
X145681000Y-40728741D01*
X145646376Y-40902812D01*
X145578456Y-41066784D01*
X145479853Y-41214354D01*
X145354354Y-41339853D01*
X145206784Y-41438456D01*
X145042812Y-41506376D01*
X144893512Y-41536073D01*
X144868742Y-41541000D01*
X144691258Y-41541000D01*
X144666488Y-41536073D01*
X144517188Y-41506376D01*
X144353216Y-41438456D01*
X144205646Y-41339853D01*
X144080147Y-41214354D01*
X143981544Y-41066784D01*
X143913624Y-40902812D01*
X143879000Y-40728741D01*
X143879000Y-40551259D01*
X143913624Y-40377188D01*
X143981544Y-40213216D01*
X144080147Y-40065646D01*
X144205646Y-39940147D01*
X144353216Y-39841544D01*
X144517188Y-39773624D01*
X144666488Y-39743927D01*
X144691258Y-39739000D01*
X144868742Y-39739000D01*
X144893512Y-39743927D01*
G37*
G36*
X120281000Y-39001000D02*
G01*
X118479000Y-39001000D01*
X118479000Y-37199000D01*
X120281000Y-37199000D01*
X120281000Y-39001000D01*
G37*
G36*
X145681000Y-39001000D02*
G01*
X143879000Y-39001000D01*
X143879000Y-37199000D01*
X145681000Y-37199000D01*
X145681000Y-39001000D01*
G37*
M02*
