G04 #@! TF.GenerationSoftware,KiCad,Pcbnew,(5.1.5)-3*
G04 #@! TF.CreationDate,2020-07-08T16:59:20-04:00*
G04 #@! TF.ProjectId,VFD Level Translator,56464420-4c65-4766-956c-205472616e73,rev?*
G04 #@! TF.SameCoordinates,Original*
G04 #@! TF.FileFunction,Copper,L2,Bot*
G04 #@! TF.FilePolarity,Positive*
%FSLAX46Y46*%
G04 Gerber Fmt 4.6, Leading zero omitted, Abs format (unit mm)*
G04 Created by KiCad (PCBNEW (5.1.5)-3) date 2020-07-08 16:59:20*
%MOMM*%
%LPD*%
G04 APERTURE LIST*
%ADD10O,1.700000X1.700000*%
%ADD11R,1.700000X1.700000*%
%ADD12C,0.508000*%
%ADD13C,0.254000*%
G04 APERTURE END LIST*
D10*
X144780000Y-96520000D03*
X144780000Y-93980000D03*
X144780000Y-91440000D03*
X144780000Y-88900000D03*
X144780000Y-86360000D03*
X144780000Y-83820000D03*
X144780000Y-81280000D03*
X144780000Y-78740000D03*
X144780000Y-76200000D03*
X144780000Y-73660000D03*
X144780000Y-71120000D03*
X144780000Y-68580000D03*
X144780000Y-66040000D03*
X144780000Y-63500000D03*
X144780000Y-60960000D03*
X144780000Y-58420000D03*
X144780000Y-55880000D03*
X144780000Y-53340000D03*
X144780000Y-50800000D03*
X144780000Y-48260000D03*
X144780000Y-45720000D03*
X144780000Y-43180000D03*
X144780000Y-40640000D03*
D11*
X144780000Y-38100000D03*
D10*
X119380000Y-96520000D03*
X119380000Y-93980000D03*
X119380000Y-91440000D03*
X119380000Y-88900000D03*
X119380000Y-86360000D03*
X119380000Y-83820000D03*
X119380000Y-81280000D03*
X119380000Y-78740000D03*
X119380000Y-76200000D03*
X119380000Y-73660000D03*
X119380000Y-71120000D03*
X119380000Y-68580000D03*
X119380000Y-66040000D03*
X119380000Y-63500000D03*
X119380000Y-60960000D03*
X119380000Y-58420000D03*
X119380000Y-55880000D03*
X119380000Y-53340000D03*
X119380000Y-50800000D03*
X119380000Y-48260000D03*
X119380000Y-45720000D03*
X119380000Y-43180000D03*
X119380000Y-40640000D03*
D11*
X119380000Y-38100000D03*
D12*
X129032000Y-56108600D03*
X130302000Y-53594000D03*
X132080000Y-56134000D03*
X135382000Y-56134000D03*
X133832600Y-53594000D03*
X135128000Y-36576000D03*
X133731000Y-38100000D03*
X135128000Y-39624000D03*
X132080000Y-75946000D03*
X128778000Y-75946000D03*
X130302000Y-78359000D03*
X133908800Y-78359000D03*
X135382000Y-75946000D03*
X134366000Y-61785500D03*
X129794000Y-70294500D03*
X129794000Y-67310000D03*
X134442210Y-70272489D03*
X134442200Y-67310000D03*
X134454900Y-64795400D03*
X129730500Y-61785500D03*
X129794000Y-64770000D03*
D13*
G36*
X146406001Y-98146000D02*
G01*
X117754000Y-98146000D01*
X117754000Y-96398757D01*
X118149000Y-96398757D01*
X118149000Y-96641243D01*
X118196307Y-96879069D01*
X118289102Y-97103097D01*
X118423820Y-97304717D01*
X118595283Y-97476180D01*
X118796903Y-97610898D01*
X119020931Y-97703693D01*
X119258757Y-97751000D01*
X119501243Y-97751000D01*
X119739069Y-97703693D01*
X119963097Y-97610898D01*
X120164717Y-97476180D01*
X120336180Y-97304717D01*
X120470898Y-97103097D01*
X120563693Y-96879069D01*
X120611000Y-96641243D01*
X120611000Y-96398757D01*
X143549000Y-96398757D01*
X143549000Y-96641243D01*
X143596307Y-96879069D01*
X143689102Y-97103097D01*
X143823820Y-97304717D01*
X143995283Y-97476180D01*
X144196903Y-97610898D01*
X144420931Y-97703693D01*
X144658757Y-97751000D01*
X144901243Y-97751000D01*
X145139069Y-97703693D01*
X145363097Y-97610898D01*
X145564717Y-97476180D01*
X145736180Y-97304717D01*
X145870898Y-97103097D01*
X145963693Y-96879069D01*
X146011000Y-96641243D01*
X146011000Y-96398757D01*
X145963693Y-96160931D01*
X145870898Y-95936903D01*
X145736180Y-95735283D01*
X145564717Y-95563820D01*
X145363097Y-95429102D01*
X145139069Y-95336307D01*
X144901243Y-95289000D01*
X144658757Y-95289000D01*
X144420931Y-95336307D01*
X144196903Y-95429102D01*
X143995283Y-95563820D01*
X143823820Y-95735283D01*
X143689102Y-95936903D01*
X143596307Y-96160931D01*
X143549000Y-96398757D01*
X120611000Y-96398757D01*
X120563693Y-96160931D01*
X120470898Y-95936903D01*
X120336180Y-95735283D01*
X120164717Y-95563820D01*
X119963097Y-95429102D01*
X119739069Y-95336307D01*
X119501243Y-95289000D01*
X119258757Y-95289000D01*
X119020931Y-95336307D01*
X118796903Y-95429102D01*
X118595283Y-95563820D01*
X118423820Y-95735283D01*
X118289102Y-95936903D01*
X118196307Y-96160931D01*
X118149000Y-96398757D01*
X117754000Y-96398757D01*
X117754000Y-93858757D01*
X118149000Y-93858757D01*
X118149000Y-94101243D01*
X118196307Y-94339069D01*
X118289102Y-94563097D01*
X118423820Y-94764717D01*
X118595283Y-94936180D01*
X118796903Y-95070898D01*
X119020931Y-95163693D01*
X119258757Y-95211000D01*
X119501243Y-95211000D01*
X119739069Y-95163693D01*
X119963097Y-95070898D01*
X120164717Y-94936180D01*
X120336180Y-94764717D01*
X120470898Y-94563097D01*
X120563693Y-94339069D01*
X120611000Y-94101243D01*
X120611000Y-93858757D01*
X143549000Y-93858757D01*
X143549000Y-94101243D01*
X143596307Y-94339069D01*
X143689102Y-94563097D01*
X143823820Y-94764717D01*
X143995283Y-94936180D01*
X144196903Y-95070898D01*
X144420931Y-95163693D01*
X144658757Y-95211000D01*
X144901243Y-95211000D01*
X145139069Y-95163693D01*
X145363097Y-95070898D01*
X145564717Y-94936180D01*
X145736180Y-94764717D01*
X145870898Y-94563097D01*
X145963693Y-94339069D01*
X146011000Y-94101243D01*
X146011000Y-93858757D01*
X145963693Y-93620931D01*
X145870898Y-93396903D01*
X145736180Y-93195283D01*
X145564717Y-93023820D01*
X145363097Y-92889102D01*
X145139069Y-92796307D01*
X144901243Y-92749000D01*
X144658757Y-92749000D01*
X144420931Y-92796307D01*
X144196903Y-92889102D01*
X143995283Y-93023820D01*
X143823820Y-93195283D01*
X143689102Y-93396903D01*
X143596307Y-93620931D01*
X143549000Y-93858757D01*
X120611000Y-93858757D01*
X120563693Y-93620931D01*
X120470898Y-93396903D01*
X120336180Y-93195283D01*
X120164717Y-93023820D01*
X119963097Y-92889102D01*
X119739069Y-92796307D01*
X119501243Y-92749000D01*
X119258757Y-92749000D01*
X119020931Y-92796307D01*
X118796903Y-92889102D01*
X118595283Y-93023820D01*
X118423820Y-93195283D01*
X118289102Y-93396903D01*
X118196307Y-93620931D01*
X118149000Y-93858757D01*
X117754000Y-93858757D01*
X117754000Y-89256890D01*
X117938524Y-89256890D01*
X117983175Y-89404099D01*
X118108359Y-89666920D01*
X118282412Y-89900269D01*
X118498645Y-90095178D01*
X118748748Y-90244157D01*
X118911168Y-90301772D01*
X118796903Y-90349102D01*
X118595283Y-90483820D01*
X118423820Y-90655283D01*
X118289102Y-90856903D01*
X118196307Y-91080931D01*
X118149000Y-91318757D01*
X118149000Y-91561243D01*
X118196307Y-91799069D01*
X118289102Y-92023097D01*
X118423820Y-92224717D01*
X118595283Y-92396180D01*
X118796903Y-92530898D01*
X119020931Y-92623693D01*
X119258757Y-92671000D01*
X119501243Y-92671000D01*
X119739069Y-92623693D01*
X119963097Y-92530898D01*
X120164717Y-92396180D01*
X120336180Y-92224717D01*
X120470898Y-92023097D01*
X120563693Y-91799069D01*
X120611000Y-91561243D01*
X120611000Y-91318757D01*
X120563693Y-91080931D01*
X120470898Y-90856903D01*
X120336180Y-90655283D01*
X120164717Y-90483820D01*
X119963097Y-90349102D01*
X119848832Y-90301772D01*
X120011252Y-90244157D01*
X120261355Y-90095178D01*
X120477588Y-89900269D01*
X120651641Y-89666920D01*
X120776825Y-89404099D01*
X120821476Y-89256890D01*
X143338524Y-89256890D01*
X143383175Y-89404099D01*
X143508359Y-89666920D01*
X143682412Y-89900269D01*
X143898645Y-90095178D01*
X144148748Y-90244157D01*
X144311168Y-90301772D01*
X144196903Y-90349102D01*
X143995283Y-90483820D01*
X143823820Y-90655283D01*
X143689102Y-90856903D01*
X143596307Y-91080931D01*
X143549000Y-91318757D01*
X143549000Y-91561243D01*
X143596307Y-91799069D01*
X143689102Y-92023097D01*
X143823820Y-92224717D01*
X143995283Y-92396180D01*
X144196903Y-92530898D01*
X144420931Y-92623693D01*
X144658757Y-92671000D01*
X144901243Y-92671000D01*
X145139069Y-92623693D01*
X145363097Y-92530898D01*
X145564717Y-92396180D01*
X145736180Y-92224717D01*
X145870898Y-92023097D01*
X145963693Y-91799069D01*
X146011000Y-91561243D01*
X146011000Y-91318757D01*
X145963693Y-91080931D01*
X145870898Y-90856903D01*
X145736180Y-90655283D01*
X145564717Y-90483820D01*
X145363097Y-90349102D01*
X145248832Y-90301772D01*
X145411252Y-90244157D01*
X145661355Y-90095178D01*
X145877588Y-89900269D01*
X146051641Y-89666920D01*
X146176825Y-89404099D01*
X146221476Y-89256890D01*
X146100155Y-89027000D01*
X144907000Y-89027000D01*
X144907000Y-89047000D01*
X144653000Y-89047000D01*
X144653000Y-89027000D01*
X143459845Y-89027000D01*
X143338524Y-89256890D01*
X120821476Y-89256890D01*
X120700155Y-89027000D01*
X119507000Y-89027000D01*
X119507000Y-89047000D01*
X119253000Y-89047000D01*
X119253000Y-89027000D01*
X118059845Y-89027000D01*
X117938524Y-89256890D01*
X117754000Y-89256890D01*
X117754000Y-88543110D01*
X117938524Y-88543110D01*
X118059845Y-88773000D01*
X119253000Y-88773000D01*
X119253000Y-88753000D01*
X119507000Y-88753000D01*
X119507000Y-88773000D01*
X120700155Y-88773000D01*
X120821476Y-88543110D01*
X143338524Y-88543110D01*
X143459845Y-88773000D01*
X144653000Y-88773000D01*
X144653000Y-88753000D01*
X144907000Y-88753000D01*
X144907000Y-88773000D01*
X146100155Y-88773000D01*
X146221476Y-88543110D01*
X146176825Y-88395901D01*
X146051641Y-88133080D01*
X145877588Y-87899731D01*
X145661355Y-87704822D01*
X145411252Y-87555843D01*
X145248832Y-87498228D01*
X145363097Y-87450898D01*
X145564717Y-87316180D01*
X145736180Y-87144717D01*
X145870898Y-86943097D01*
X145963693Y-86719069D01*
X146011000Y-86481243D01*
X146011000Y-86238757D01*
X145963693Y-86000931D01*
X145870898Y-85776903D01*
X145736180Y-85575283D01*
X145564717Y-85403820D01*
X145363097Y-85269102D01*
X145139069Y-85176307D01*
X144901243Y-85129000D01*
X144658757Y-85129000D01*
X144420931Y-85176307D01*
X144196903Y-85269102D01*
X143995283Y-85403820D01*
X143823820Y-85575283D01*
X143689102Y-85776903D01*
X143596307Y-86000931D01*
X143549000Y-86238757D01*
X143549000Y-86481243D01*
X143596307Y-86719069D01*
X143689102Y-86943097D01*
X143823820Y-87144717D01*
X143995283Y-87316180D01*
X144196903Y-87450898D01*
X144311168Y-87498228D01*
X144148748Y-87555843D01*
X143898645Y-87704822D01*
X143682412Y-87899731D01*
X143508359Y-88133080D01*
X143383175Y-88395901D01*
X143338524Y-88543110D01*
X120821476Y-88543110D01*
X120776825Y-88395901D01*
X120651641Y-88133080D01*
X120477588Y-87899731D01*
X120261355Y-87704822D01*
X120011252Y-87555843D01*
X119848832Y-87498228D01*
X119963097Y-87450898D01*
X120164717Y-87316180D01*
X120336180Y-87144717D01*
X120470898Y-86943097D01*
X120563693Y-86719069D01*
X120611000Y-86481243D01*
X120611000Y-86238757D01*
X120563693Y-86000931D01*
X120470898Y-85776903D01*
X120336180Y-85575283D01*
X120164717Y-85403820D01*
X119963097Y-85269102D01*
X119739069Y-85176307D01*
X119501243Y-85129000D01*
X119258757Y-85129000D01*
X119020931Y-85176307D01*
X118796903Y-85269102D01*
X118595283Y-85403820D01*
X118423820Y-85575283D01*
X118289102Y-85776903D01*
X118196307Y-86000931D01*
X118149000Y-86238757D01*
X118149000Y-86481243D01*
X118196307Y-86719069D01*
X118289102Y-86943097D01*
X118423820Y-87144717D01*
X118595283Y-87316180D01*
X118796903Y-87450898D01*
X118911168Y-87498228D01*
X118748748Y-87555843D01*
X118498645Y-87704822D01*
X118282412Y-87899731D01*
X118108359Y-88133080D01*
X117983175Y-88395901D01*
X117938524Y-88543110D01*
X117754000Y-88543110D01*
X117754000Y-83698757D01*
X118149000Y-83698757D01*
X118149000Y-83941243D01*
X118196307Y-84179069D01*
X118289102Y-84403097D01*
X118423820Y-84604717D01*
X118595283Y-84776180D01*
X118796903Y-84910898D01*
X119020931Y-85003693D01*
X119258757Y-85051000D01*
X119501243Y-85051000D01*
X119739069Y-85003693D01*
X119963097Y-84910898D01*
X120164717Y-84776180D01*
X120336180Y-84604717D01*
X120470898Y-84403097D01*
X120563693Y-84179069D01*
X120611000Y-83941243D01*
X120611000Y-83698757D01*
X143549000Y-83698757D01*
X143549000Y-83941243D01*
X143596307Y-84179069D01*
X143689102Y-84403097D01*
X143823820Y-84604717D01*
X143995283Y-84776180D01*
X144196903Y-84910898D01*
X144420931Y-85003693D01*
X144658757Y-85051000D01*
X144901243Y-85051000D01*
X145139069Y-85003693D01*
X145363097Y-84910898D01*
X145564717Y-84776180D01*
X145736180Y-84604717D01*
X145870898Y-84403097D01*
X145963693Y-84179069D01*
X146011000Y-83941243D01*
X146011000Y-83698757D01*
X145963693Y-83460931D01*
X145870898Y-83236903D01*
X145736180Y-83035283D01*
X145564717Y-82863820D01*
X145363097Y-82729102D01*
X145139069Y-82636307D01*
X144901243Y-82589000D01*
X144658757Y-82589000D01*
X144420931Y-82636307D01*
X144196903Y-82729102D01*
X143995283Y-82863820D01*
X143823820Y-83035283D01*
X143689102Y-83236903D01*
X143596307Y-83460931D01*
X143549000Y-83698757D01*
X120611000Y-83698757D01*
X120563693Y-83460931D01*
X120470898Y-83236903D01*
X120336180Y-83035283D01*
X120164717Y-82863820D01*
X119963097Y-82729102D01*
X119739069Y-82636307D01*
X119501243Y-82589000D01*
X119258757Y-82589000D01*
X119020931Y-82636307D01*
X118796903Y-82729102D01*
X118595283Y-82863820D01*
X118423820Y-83035283D01*
X118289102Y-83236903D01*
X118196307Y-83460931D01*
X118149000Y-83698757D01*
X117754000Y-83698757D01*
X117754000Y-81158757D01*
X118149000Y-81158757D01*
X118149000Y-81401243D01*
X118196307Y-81639069D01*
X118289102Y-81863097D01*
X118423820Y-82064717D01*
X118595283Y-82236180D01*
X118796903Y-82370898D01*
X119020931Y-82463693D01*
X119258757Y-82511000D01*
X119501243Y-82511000D01*
X119739069Y-82463693D01*
X119963097Y-82370898D01*
X120164717Y-82236180D01*
X120336180Y-82064717D01*
X120470898Y-81863097D01*
X120563693Y-81639069D01*
X120611000Y-81401243D01*
X120611000Y-81158757D01*
X143549000Y-81158757D01*
X143549000Y-81401243D01*
X143596307Y-81639069D01*
X143689102Y-81863097D01*
X143823820Y-82064717D01*
X143995283Y-82236180D01*
X144196903Y-82370898D01*
X144420931Y-82463693D01*
X144658757Y-82511000D01*
X144901243Y-82511000D01*
X145139069Y-82463693D01*
X145363097Y-82370898D01*
X145564717Y-82236180D01*
X145736180Y-82064717D01*
X145870898Y-81863097D01*
X145963693Y-81639069D01*
X146011000Y-81401243D01*
X146011000Y-81158757D01*
X145963693Y-80920931D01*
X145870898Y-80696903D01*
X145736180Y-80495283D01*
X145564717Y-80323820D01*
X145363097Y-80189102D01*
X145139069Y-80096307D01*
X144901243Y-80049000D01*
X144658757Y-80049000D01*
X144420931Y-80096307D01*
X144196903Y-80189102D01*
X143995283Y-80323820D01*
X143823820Y-80495283D01*
X143689102Y-80696903D01*
X143596307Y-80920931D01*
X143549000Y-81158757D01*
X120611000Y-81158757D01*
X120563693Y-80920931D01*
X120470898Y-80696903D01*
X120336180Y-80495283D01*
X120164717Y-80323820D01*
X119963097Y-80189102D01*
X119739069Y-80096307D01*
X119501243Y-80049000D01*
X119258757Y-80049000D01*
X119020931Y-80096307D01*
X118796903Y-80189102D01*
X118595283Y-80323820D01*
X118423820Y-80495283D01*
X118289102Y-80696903D01*
X118196307Y-80920931D01*
X118149000Y-81158757D01*
X117754000Y-81158757D01*
X117754000Y-78618757D01*
X118149000Y-78618757D01*
X118149000Y-78861243D01*
X118196307Y-79099069D01*
X118289102Y-79323097D01*
X118423820Y-79524717D01*
X118595283Y-79696180D01*
X118796903Y-79830898D01*
X119020931Y-79923693D01*
X119258757Y-79971000D01*
X119501243Y-79971000D01*
X119739069Y-79923693D01*
X119963097Y-79830898D01*
X120164717Y-79696180D01*
X120336180Y-79524717D01*
X120470898Y-79323097D01*
X120563693Y-79099069D01*
X120611000Y-78861243D01*
X120611000Y-78618757D01*
X143549000Y-78618757D01*
X143549000Y-78861243D01*
X143596307Y-79099069D01*
X143689102Y-79323097D01*
X143823820Y-79524717D01*
X143995283Y-79696180D01*
X144196903Y-79830898D01*
X144420931Y-79923693D01*
X144658757Y-79971000D01*
X144901243Y-79971000D01*
X145139069Y-79923693D01*
X145363097Y-79830898D01*
X145564717Y-79696180D01*
X145736180Y-79524717D01*
X145870898Y-79323097D01*
X145963693Y-79099069D01*
X146011000Y-78861243D01*
X146011000Y-78618757D01*
X145963693Y-78380931D01*
X145870898Y-78156903D01*
X145736180Y-77955283D01*
X145564717Y-77783820D01*
X145363097Y-77649102D01*
X145139069Y-77556307D01*
X144901243Y-77509000D01*
X144658757Y-77509000D01*
X144420931Y-77556307D01*
X144196903Y-77649102D01*
X143995283Y-77783820D01*
X143823820Y-77955283D01*
X143689102Y-78156903D01*
X143596307Y-78380931D01*
X143549000Y-78618757D01*
X120611000Y-78618757D01*
X120563693Y-78380931D01*
X120470898Y-78156903D01*
X120336180Y-77955283D01*
X120164717Y-77783820D01*
X119963097Y-77649102D01*
X119739069Y-77556307D01*
X119501243Y-77509000D01*
X119258757Y-77509000D01*
X119020931Y-77556307D01*
X118796903Y-77649102D01*
X118595283Y-77783820D01*
X118423820Y-77955283D01*
X118289102Y-78156903D01*
X118196307Y-78380931D01*
X118149000Y-78618757D01*
X117754000Y-78618757D01*
X117754000Y-74016890D01*
X117938524Y-74016890D01*
X117983175Y-74164099D01*
X118108359Y-74426920D01*
X118282412Y-74660269D01*
X118498645Y-74855178D01*
X118748748Y-75004157D01*
X118911168Y-75061772D01*
X118796903Y-75109102D01*
X118595283Y-75243820D01*
X118423820Y-75415283D01*
X118289102Y-75616903D01*
X118196307Y-75840931D01*
X118149000Y-76078757D01*
X118149000Y-76321243D01*
X118196307Y-76559069D01*
X118289102Y-76783097D01*
X118423820Y-76984717D01*
X118595283Y-77156180D01*
X118796903Y-77290898D01*
X119020931Y-77383693D01*
X119258757Y-77431000D01*
X119501243Y-77431000D01*
X119739069Y-77383693D01*
X119963097Y-77290898D01*
X120164717Y-77156180D01*
X120336180Y-76984717D01*
X120470898Y-76783097D01*
X120563693Y-76559069D01*
X120611000Y-76321243D01*
X120611000Y-76078757D01*
X120563693Y-75840931D01*
X120470898Y-75616903D01*
X120336180Y-75415283D01*
X120164717Y-75243820D01*
X119963097Y-75109102D01*
X119848832Y-75061772D01*
X120011252Y-75004157D01*
X120261355Y-74855178D01*
X120477588Y-74660269D01*
X120651641Y-74426920D01*
X120776825Y-74164099D01*
X120821476Y-74016890D01*
X143338524Y-74016890D01*
X143383175Y-74164099D01*
X143508359Y-74426920D01*
X143682412Y-74660269D01*
X143898645Y-74855178D01*
X144148748Y-75004157D01*
X144311168Y-75061772D01*
X144196903Y-75109102D01*
X143995283Y-75243820D01*
X143823820Y-75415283D01*
X143689102Y-75616903D01*
X143596307Y-75840931D01*
X143549000Y-76078757D01*
X143549000Y-76321243D01*
X143596307Y-76559069D01*
X143689102Y-76783097D01*
X143823820Y-76984717D01*
X143995283Y-77156180D01*
X144196903Y-77290898D01*
X144420931Y-77383693D01*
X144658757Y-77431000D01*
X144901243Y-77431000D01*
X145139069Y-77383693D01*
X145363097Y-77290898D01*
X145564717Y-77156180D01*
X145736180Y-76984717D01*
X145870898Y-76783097D01*
X145963693Y-76559069D01*
X146011000Y-76321243D01*
X146011000Y-76078757D01*
X145963693Y-75840931D01*
X145870898Y-75616903D01*
X145736180Y-75415283D01*
X145564717Y-75243820D01*
X145363097Y-75109102D01*
X145248832Y-75061772D01*
X145411252Y-75004157D01*
X145661355Y-74855178D01*
X145877588Y-74660269D01*
X146051641Y-74426920D01*
X146176825Y-74164099D01*
X146221476Y-74016890D01*
X146100155Y-73787000D01*
X144907000Y-73787000D01*
X144907000Y-73807000D01*
X144653000Y-73807000D01*
X144653000Y-73787000D01*
X143459845Y-73787000D01*
X143338524Y-74016890D01*
X120821476Y-74016890D01*
X120700155Y-73787000D01*
X119507000Y-73787000D01*
X119507000Y-73807000D01*
X119253000Y-73807000D01*
X119253000Y-73787000D01*
X118059845Y-73787000D01*
X117938524Y-74016890D01*
X117754000Y-74016890D01*
X117754000Y-73303110D01*
X117938524Y-73303110D01*
X118059845Y-73533000D01*
X119253000Y-73533000D01*
X119253000Y-73513000D01*
X119507000Y-73513000D01*
X119507000Y-73533000D01*
X120700155Y-73533000D01*
X120821476Y-73303110D01*
X143338524Y-73303110D01*
X143459845Y-73533000D01*
X144653000Y-73533000D01*
X144653000Y-73513000D01*
X144907000Y-73513000D01*
X144907000Y-73533000D01*
X146100155Y-73533000D01*
X146221476Y-73303110D01*
X146176825Y-73155901D01*
X146051641Y-72893080D01*
X145877588Y-72659731D01*
X145661355Y-72464822D01*
X145411252Y-72315843D01*
X145248832Y-72258228D01*
X145363097Y-72210898D01*
X145564717Y-72076180D01*
X145736180Y-71904717D01*
X145870898Y-71703097D01*
X145963693Y-71479069D01*
X146011000Y-71241243D01*
X146011000Y-70998757D01*
X145963693Y-70760931D01*
X145870898Y-70536903D01*
X145736180Y-70335283D01*
X145564717Y-70163820D01*
X145363097Y-70029102D01*
X145139069Y-69936307D01*
X144901243Y-69889000D01*
X144658757Y-69889000D01*
X144420931Y-69936307D01*
X144196903Y-70029102D01*
X143995283Y-70163820D01*
X143823820Y-70335283D01*
X143689102Y-70536903D01*
X143596307Y-70760931D01*
X143549000Y-70998757D01*
X143549000Y-71241243D01*
X143596307Y-71479069D01*
X143689102Y-71703097D01*
X143823820Y-71904717D01*
X143995283Y-72076180D01*
X144196903Y-72210898D01*
X144311168Y-72258228D01*
X144148748Y-72315843D01*
X143898645Y-72464822D01*
X143682412Y-72659731D01*
X143508359Y-72893080D01*
X143383175Y-73155901D01*
X143338524Y-73303110D01*
X120821476Y-73303110D01*
X120776825Y-73155901D01*
X120651641Y-72893080D01*
X120477588Y-72659731D01*
X120261355Y-72464822D01*
X120011252Y-72315843D01*
X119848832Y-72258228D01*
X119963097Y-72210898D01*
X120164717Y-72076180D01*
X120336180Y-71904717D01*
X120470898Y-71703097D01*
X120563693Y-71479069D01*
X120611000Y-71241243D01*
X120611000Y-70998757D01*
X120563693Y-70760931D01*
X120470898Y-70536903D01*
X120336180Y-70335283D01*
X120164717Y-70163820D01*
X119963097Y-70029102D01*
X119739069Y-69936307D01*
X119501243Y-69889000D01*
X119258757Y-69889000D01*
X119020931Y-69936307D01*
X118796903Y-70029102D01*
X118595283Y-70163820D01*
X118423820Y-70335283D01*
X118289102Y-70536903D01*
X118196307Y-70760931D01*
X118149000Y-70998757D01*
X118149000Y-71241243D01*
X118196307Y-71479069D01*
X118289102Y-71703097D01*
X118423820Y-71904717D01*
X118595283Y-72076180D01*
X118796903Y-72210898D01*
X118911168Y-72258228D01*
X118748748Y-72315843D01*
X118498645Y-72464822D01*
X118282412Y-72659731D01*
X118108359Y-72893080D01*
X117983175Y-73155901D01*
X117938524Y-73303110D01*
X117754000Y-73303110D01*
X117754000Y-68458757D01*
X118149000Y-68458757D01*
X118149000Y-68701243D01*
X118196307Y-68939069D01*
X118289102Y-69163097D01*
X118423820Y-69364717D01*
X118595283Y-69536180D01*
X118796903Y-69670898D01*
X119020931Y-69763693D01*
X119258757Y-69811000D01*
X119501243Y-69811000D01*
X119739069Y-69763693D01*
X119963097Y-69670898D01*
X120164717Y-69536180D01*
X120336180Y-69364717D01*
X120470898Y-69163097D01*
X120563693Y-68939069D01*
X120611000Y-68701243D01*
X120611000Y-68458757D01*
X143549000Y-68458757D01*
X143549000Y-68701243D01*
X143596307Y-68939069D01*
X143689102Y-69163097D01*
X143823820Y-69364717D01*
X143995283Y-69536180D01*
X144196903Y-69670898D01*
X144420931Y-69763693D01*
X144658757Y-69811000D01*
X144901243Y-69811000D01*
X145139069Y-69763693D01*
X145363097Y-69670898D01*
X145564717Y-69536180D01*
X145736180Y-69364717D01*
X145870898Y-69163097D01*
X145963693Y-68939069D01*
X146011000Y-68701243D01*
X146011000Y-68458757D01*
X145963693Y-68220931D01*
X145870898Y-67996903D01*
X145736180Y-67795283D01*
X145564717Y-67623820D01*
X145363097Y-67489102D01*
X145139069Y-67396307D01*
X144901243Y-67349000D01*
X144658757Y-67349000D01*
X144420931Y-67396307D01*
X144196903Y-67489102D01*
X143995283Y-67623820D01*
X143823820Y-67795283D01*
X143689102Y-67996903D01*
X143596307Y-68220931D01*
X143549000Y-68458757D01*
X120611000Y-68458757D01*
X120563693Y-68220931D01*
X120470898Y-67996903D01*
X120336180Y-67795283D01*
X120164717Y-67623820D01*
X119963097Y-67489102D01*
X119739069Y-67396307D01*
X119501243Y-67349000D01*
X119258757Y-67349000D01*
X119020931Y-67396307D01*
X118796903Y-67489102D01*
X118595283Y-67623820D01*
X118423820Y-67795283D01*
X118289102Y-67996903D01*
X118196307Y-68220931D01*
X118149000Y-68458757D01*
X117754000Y-68458757D01*
X117754000Y-65918757D01*
X118149000Y-65918757D01*
X118149000Y-66161243D01*
X118196307Y-66399069D01*
X118289102Y-66623097D01*
X118423820Y-66824717D01*
X118595283Y-66996180D01*
X118796903Y-67130898D01*
X119020931Y-67223693D01*
X119258757Y-67271000D01*
X119501243Y-67271000D01*
X119739069Y-67223693D01*
X119963097Y-67130898D01*
X120164717Y-66996180D01*
X120336180Y-66824717D01*
X120470898Y-66623097D01*
X120563693Y-66399069D01*
X120611000Y-66161243D01*
X120611000Y-65918757D01*
X143549000Y-65918757D01*
X143549000Y-66161243D01*
X143596307Y-66399069D01*
X143689102Y-66623097D01*
X143823820Y-66824717D01*
X143995283Y-66996180D01*
X144196903Y-67130898D01*
X144420931Y-67223693D01*
X144658757Y-67271000D01*
X144901243Y-67271000D01*
X145139069Y-67223693D01*
X145363097Y-67130898D01*
X145564717Y-66996180D01*
X145736180Y-66824717D01*
X145870898Y-66623097D01*
X145963693Y-66399069D01*
X146011000Y-66161243D01*
X146011000Y-65918757D01*
X145963693Y-65680931D01*
X145870898Y-65456903D01*
X145736180Y-65255283D01*
X145564717Y-65083820D01*
X145363097Y-64949102D01*
X145139069Y-64856307D01*
X144901243Y-64809000D01*
X144658757Y-64809000D01*
X144420931Y-64856307D01*
X144196903Y-64949102D01*
X143995283Y-65083820D01*
X143823820Y-65255283D01*
X143689102Y-65456903D01*
X143596307Y-65680931D01*
X143549000Y-65918757D01*
X120611000Y-65918757D01*
X120563693Y-65680931D01*
X120470898Y-65456903D01*
X120336180Y-65255283D01*
X120164717Y-65083820D01*
X119963097Y-64949102D01*
X119739069Y-64856307D01*
X119501243Y-64809000D01*
X119258757Y-64809000D01*
X119020931Y-64856307D01*
X118796903Y-64949102D01*
X118595283Y-65083820D01*
X118423820Y-65255283D01*
X118289102Y-65456903D01*
X118196307Y-65680931D01*
X118149000Y-65918757D01*
X117754000Y-65918757D01*
X117754000Y-61316890D01*
X117938524Y-61316890D01*
X117983175Y-61464099D01*
X118108359Y-61726920D01*
X118282412Y-61960269D01*
X118498645Y-62155178D01*
X118748748Y-62304157D01*
X118911168Y-62361772D01*
X118796903Y-62409102D01*
X118595283Y-62543820D01*
X118423820Y-62715283D01*
X118289102Y-62916903D01*
X118196307Y-63140931D01*
X118149000Y-63378757D01*
X118149000Y-63621243D01*
X118196307Y-63859069D01*
X118289102Y-64083097D01*
X118423820Y-64284717D01*
X118595283Y-64456180D01*
X118796903Y-64590898D01*
X119020931Y-64683693D01*
X119258757Y-64731000D01*
X119501243Y-64731000D01*
X119739069Y-64683693D01*
X119963097Y-64590898D01*
X120164717Y-64456180D01*
X120336180Y-64284717D01*
X120470898Y-64083097D01*
X120563693Y-63859069D01*
X120611000Y-63621243D01*
X120611000Y-63378757D01*
X120563693Y-63140931D01*
X120470898Y-62916903D01*
X120336180Y-62715283D01*
X120164717Y-62543820D01*
X119963097Y-62409102D01*
X119848832Y-62361772D01*
X120011252Y-62304157D01*
X120261355Y-62155178D01*
X120477588Y-61960269D01*
X120651641Y-61726920D01*
X120776825Y-61464099D01*
X120821476Y-61316890D01*
X143338524Y-61316890D01*
X143383175Y-61464099D01*
X143508359Y-61726920D01*
X143682412Y-61960269D01*
X143898645Y-62155178D01*
X144148748Y-62304157D01*
X144311168Y-62361772D01*
X144196903Y-62409102D01*
X143995283Y-62543820D01*
X143823820Y-62715283D01*
X143689102Y-62916903D01*
X143596307Y-63140931D01*
X143549000Y-63378757D01*
X143549000Y-63621243D01*
X143596307Y-63859069D01*
X143689102Y-64083097D01*
X143823820Y-64284717D01*
X143995283Y-64456180D01*
X144196903Y-64590898D01*
X144420931Y-64683693D01*
X144658757Y-64731000D01*
X144901243Y-64731000D01*
X145139069Y-64683693D01*
X145363097Y-64590898D01*
X145564717Y-64456180D01*
X145736180Y-64284717D01*
X145870898Y-64083097D01*
X145963693Y-63859069D01*
X146011000Y-63621243D01*
X146011000Y-63378757D01*
X145963693Y-63140931D01*
X145870898Y-62916903D01*
X145736180Y-62715283D01*
X145564717Y-62543820D01*
X145363097Y-62409102D01*
X145248832Y-62361772D01*
X145411252Y-62304157D01*
X145661355Y-62155178D01*
X145877588Y-61960269D01*
X146051641Y-61726920D01*
X146176825Y-61464099D01*
X146221476Y-61316890D01*
X146100155Y-61087000D01*
X144907000Y-61087000D01*
X144907000Y-61107000D01*
X144653000Y-61107000D01*
X144653000Y-61087000D01*
X143459845Y-61087000D01*
X143338524Y-61316890D01*
X120821476Y-61316890D01*
X120700155Y-61087000D01*
X119507000Y-61087000D01*
X119507000Y-61107000D01*
X119253000Y-61107000D01*
X119253000Y-61087000D01*
X118059845Y-61087000D01*
X117938524Y-61316890D01*
X117754000Y-61316890D01*
X117754000Y-60603110D01*
X117938524Y-60603110D01*
X118059845Y-60833000D01*
X119253000Y-60833000D01*
X119253000Y-60813000D01*
X119507000Y-60813000D01*
X119507000Y-60833000D01*
X120700155Y-60833000D01*
X120821476Y-60603110D01*
X143338524Y-60603110D01*
X143459845Y-60833000D01*
X144653000Y-60833000D01*
X144653000Y-60813000D01*
X144907000Y-60813000D01*
X144907000Y-60833000D01*
X146100155Y-60833000D01*
X146221476Y-60603110D01*
X146176825Y-60455901D01*
X146051641Y-60193080D01*
X145877588Y-59959731D01*
X145661355Y-59764822D01*
X145411252Y-59615843D01*
X145248832Y-59558228D01*
X145363097Y-59510898D01*
X145564717Y-59376180D01*
X145736180Y-59204717D01*
X145870898Y-59003097D01*
X145963693Y-58779069D01*
X146011000Y-58541243D01*
X146011000Y-58298757D01*
X145963693Y-58060931D01*
X145870898Y-57836903D01*
X145736180Y-57635283D01*
X145564717Y-57463820D01*
X145363097Y-57329102D01*
X145139069Y-57236307D01*
X144901243Y-57189000D01*
X144658757Y-57189000D01*
X144420931Y-57236307D01*
X144196903Y-57329102D01*
X143995283Y-57463820D01*
X143823820Y-57635283D01*
X143689102Y-57836903D01*
X143596307Y-58060931D01*
X143549000Y-58298757D01*
X143549000Y-58541243D01*
X143596307Y-58779069D01*
X143689102Y-59003097D01*
X143823820Y-59204717D01*
X143995283Y-59376180D01*
X144196903Y-59510898D01*
X144311168Y-59558228D01*
X144148748Y-59615843D01*
X143898645Y-59764822D01*
X143682412Y-59959731D01*
X143508359Y-60193080D01*
X143383175Y-60455901D01*
X143338524Y-60603110D01*
X120821476Y-60603110D01*
X120776825Y-60455901D01*
X120651641Y-60193080D01*
X120477588Y-59959731D01*
X120261355Y-59764822D01*
X120011252Y-59615843D01*
X119848832Y-59558228D01*
X119963097Y-59510898D01*
X120164717Y-59376180D01*
X120336180Y-59204717D01*
X120470898Y-59003097D01*
X120563693Y-58779069D01*
X120611000Y-58541243D01*
X120611000Y-58298757D01*
X120563693Y-58060931D01*
X120470898Y-57836903D01*
X120336180Y-57635283D01*
X120164717Y-57463820D01*
X119963097Y-57329102D01*
X119739069Y-57236307D01*
X119501243Y-57189000D01*
X119258757Y-57189000D01*
X119020931Y-57236307D01*
X118796903Y-57329102D01*
X118595283Y-57463820D01*
X118423820Y-57635283D01*
X118289102Y-57836903D01*
X118196307Y-58060931D01*
X118149000Y-58298757D01*
X118149000Y-58541243D01*
X118196307Y-58779069D01*
X118289102Y-59003097D01*
X118423820Y-59204717D01*
X118595283Y-59376180D01*
X118796903Y-59510898D01*
X118911168Y-59558228D01*
X118748748Y-59615843D01*
X118498645Y-59764822D01*
X118282412Y-59959731D01*
X118108359Y-60193080D01*
X117983175Y-60455901D01*
X117938524Y-60603110D01*
X117754000Y-60603110D01*
X117754000Y-55758757D01*
X118149000Y-55758757D01*
X118149000Y-56001243D01*
X118196307Y-56239069D01*
X118289102Y-56463097D01*
X118423820Y-56664717D01*
X118595283Y-56836180D01*
X118796903Y-56970898D01*
X119020931Y-57063693D01*
X119258757Y-57111000D01*
X119501243Y-57111000D01*
X119739069Y-57063693D01*
X119963097Y-56970898D01*
X120164717Y-56836180D01*
X120336180Y-56664717D01*
X120470898Y-56463097D01*
X120563693Y-56239069D01*
X120611000Y-56001243D01*
X120611000Y-55758757D01*
X143549000Y-55758757D01*
X143549000Y-56001243D01*
X143596307Y-56239069D01*
X143689102Y-56463097D01*
X143823820Y-56664717D01*
X143995283Y-56836180D01*
X144196903Y-56970898D01*
X144420931Y-57063693D01*
X144658757Y-57111000D01*
X144901243Y-57111000D01*
X145139069Y-57063693D01*
X145363097Y-56970898D01*
X145564717Y-56836180D01*
X145736180Y-56664717D01*
X145870898Y-56463097D01*
X145963693Y-56239069D01*
X146011000Y-56001243D01*
X146011000Y-55758757D01*
X145963693Y-55520931D01*
X145870898Y-55296903D01*
X145736180Y-55095283D01*
X145564717Y-54923820D01*
X145363097Y-54789102D01*
X145139069Y-54696307D01*
X144901243Y-54649000D01*
X144658757Y-54649000D01*
X144420931Y-54696307D01*
X144196903Y-54789102D01*
X143995283Y-54923820D01*
X143823820Y-55095283D01*
X143689102Y-55296903D01*
X143596307Y-55520931D01*
X143549000Y-55758757D01*
X120611000Y-55758757D01*
X120563693Y-55520931D01*
X120470898Y-55296903D01*
X120336180Y-55095283D01*
X120164717Y-54923820D01*
X119963097Y-54789102D01*
X119739069Y-54696307D01*
X119501243Y-54649000D01*
X119258757Y-54649000D01*
X119020931Y-54696307D01*
X118796903Y-54789102D01*
X118595283Y-54923820D01*
X118423820Y-55095283D01*
X118289102Y-55296903D01*
X118196307Y-55520931D01*
X118149000Y-55758757D01*
X117754000Y-55758757D01*
X117754000Y-53218757D01*
X118149000Y-53218757D01*
X118149000Y-53461243D01*
X118196307Y-53699069D01*
X118289102Y-53923097D01*
X118423820Y-54124717D01*
X118595283Y-54296180D01*
X118796903Y-54430898D01*
X119020931Y-54523693D01*
X119258757Y-54571000D01*
X119501243Y-54571000D01*
X119739069Y-54523693D01*
X119963097Y-54430898D01*
X120164717Y-54296180D01*
X120336180Y-54124717D01*
X120470898Y-53923097D01*
X120563693Y-53699069D01*
X120611000Y-53461243D01*
X120611000Y-53218757D01*
X143549000Y-53218757D01*
X143549000Y-53461243D01*
X143596307Y-53699069D01*
X143689102Y-53923097D01*
X143823820Y-54124717D01*
X143995283Y-54296180D01*
X144196903Y-54430898D01*
X144420931Y-54523693D01*
X144658757Y-54571000D01*
X144901243Y-54571000D01*
X145139069Y-54523693D01*
X145363097Y-54430898D01*
X145564717Y-54296180D01*
X145736180Y-54124717D01*
X145870898Y-53923097D01*
X145963693Y-53699069D01*
X146011000Y-53461243D01*
X146011000Y-53218757D01*
X145963693Y-52980931D01*
X145870898Y-52756903D01*
X145736180Y-52555283D01*
X145564717Y-52383820D01*
X145363097Y-52249102D01*
X145139069Y-52156307D01*
X144901243Y-52109000D01*
X144658757Y-52109000D01*
X144420931Y-52156307D01*
X144196903Y-52249102D01*
X143995283Y-52383820D01*
X143823820Y-52555283D01*
X143689102Y-52756903D01*
X143596307Y-52980931D01*
X143549000Y-53218757D01*
X120611000Y-53218757D01*
X120563693Y-52980931D01*
X120470898Y-52756903D01*
X120336180Y-52555283D01*
X120164717Y-52383820D01*
X119963097Y-52249102D01*
X119739069Y-52156307D01*
X119501243Y-52109000D01*
X119258757Y-52109000D01*
X119020931Y-52156307D01*
X118796903Y-52249102D01*
X118595283Y-52383820D01*
X118423820Y-52555283D01*
X118289102Y-52756903D01*
X118196307Y-52980931D01*
X118149000Y-53218757D01*
X117754000Y-53218757D01*
X117754000Y-50678757D01*
X118149000Y-50678757D01*
X118149000Y-50921243D01*
X118196307Y-51159069D01*
X118289102Y-51383097D01*
X118423820Y-51584717D01*
X118595283Y-51756180D01*
X118796903Y-51890898D01*
X119020931Y-51983693D01*
X119258757Y-52031000D01*
X119501243Y-52031000D01*
X119739069Y-51983693D01*
X119963097Y-51890898D01*
X120164717Y-51756180D01*
X120336180Y-51584717D01*
X120470898Y-51383097D01*
X120563693Y-51159069D01*
X120611000Y-50921243D01*
X120611000Y-50678757D01*
X143549000Y-50678757D01*
X143549000Y-50921243D01*
X143596307Y-51159069D01*
X143689102Y-51383097D01*
X143823820Y-51584717D01*
X143995283Y-51756180D01*
X144196903Y-51890898D01*
X144420931Y-51983693D01*
X144658757Y-52031000D01*
X144901243Y-52031000D01*
X145139069Y-51983693D01*
X145363097Y-51890898D01*
X145564717Y-51756180D01*
X145736180Y-51584717D01*
X145870898Y-51383097D01*
X145963693Y-51159069D01*
X146011000Y-50921243D01*
X146011000Y-50678757D01*
X145963693Y-50440931D01*
X145870898Y-50216903D01*
X145736180Y-50015283D01*
X145564717Y-49843820D01*
X145363097Y-49709102D01*
X145139069Y-49616307D01*
X144901243Y-49569000D01*
X144658757Y-49569000D01*
X144420931Y-49616307D01*
X144196903Y-49709102D01*
X143995283Y-49843820D01*
X143823820Y-50015283D01*
X143689102Y-50216903D01*
X143596307Y-50440931D01*
X143549000Y-50678757D01*
X120611000Y-50678757D01*
X120563693Y-50440931D01*
X120470898Y-50216903D01*
X120336180Y-50015283D01*
X120164717Y-49843820D01*
X119963097Y-49709102D01*
X119739069Y-49616307D01*
X119501243Y-49569000D01*
X119258757Y-49569000D01*
X119020931Y-49616307D01*
X118796903Y-49709102D01*
X118595283Y-49843820D01*
X118423820Y-50015283D01*
X118289102Y-50216903D01*
X118196307Y-50440931D01*
X118149000Y-50678757D01*
X117754000Y-50678757D01*
X117754000Y-46076890D01*
X117938524Y-46076890D01*
X117983175Y-46224099D01*
X118108359Y-46486920D01*
X118282412Y-46720269D01*
X118498645Y-46915178D01*
X118748748Y-47064157D01*
X118911168Y-47121772D01*
X118796903Y-47169102D01*
X118595283Y-47303820D01*
X118423820Y-47475283D01*
X118289102Y-47676903D01*
X118196307Y-47900931D01*
X118149000Y-48138757D01*
X118149000Y-48381243D01*
X118196307Y-48619069D01*
X118289102Y-48843097D01*
X118423820Y-49044717D01*
X118595283Y-49216180D01*
X118796903Y-49350898D01*
X119020931Y-49443693D01*
X119258757Y-49491000D01*
X119501243Y-49491000D01*
X119739069Y-49443693D01*
X119963097Y-49350898D01*
X120164717Y-49216180D01*
X120336180Y-49044717D01*
X120470898Y-48843097D01*
X120563693Y-48619069D01*
X120611000Y-48381243D01*
X120611000Y-48138757D01*
X120563693Y-47900931D01*
X120470898Y-47676903D01*
X120336180Y-47475283D01*
X120164717Y-47303820D01*
X119963097Y-47169102D01*
X119848832Y-47121772D01*
X120011252Y-47064157D01*
X120261355Y-46915178D01*
X120477588Y-46720269D01*
X120651641Y-46486920D01*
X120776825Y-46224099D01*
X120821476Y-46076890D01*
X143338524Y-46076890D01*
X143383175Y-46224099D01*
X143508359Y-46486920D01*
X143682412Y-46720269D01*
X143898645Y-46915178D01*
X144148748Y-47064157D01*
X144311168Y-47121772D01*
X144196903Y-47169102D01*
X143995283Y-47303820D01*
X143823820Y-47475283D01*
X143689102Y-47676903D01*
X143596307Y-47900931D01*
X143549000Y-48138757D01*
X143549000Y-48381243D01*
X143596307Y-48619069D01*
X143689102Y-48843097D01*
X143823820Y-49044717D01*
X143995283Y-49216180D01*
X144196903Y-49350898D01*
X144420931Y-49443693D01*
X144658757Y-49491000D01*
X144901243Y-49491000D01*
X145139069Y-49443693D01*
X145363097Y-49350898D01*
X145564717Y-49216180D01*
X145736180Y-49044717D01*
X145870898Y-48843097D01*
X145963693Y-48619069D01*
X146011000Y-48381243D01*
X146011000Y-48138757D01*
X145963693Y-47900931D01*
X145870898Y-47676903D01*
X145736180Y-47475283D01*
X145564717Y-47303820D01*
X145363097Y-47169102D01*
X145248832Y-47121772D01*
X145411252Y-47064157D01*
X145661355Y-46915178D01*
X145877588Y-46720269D01*
X146051641Y-46486920D01*
X146176825Y-46224099D01*
X146221476Y-46076890D01*
X146100155Y-45847000D01*
X144907000Y-45847000D01*
X144907000Y-45867000D01*
X144653000Y-45867000D01*
X144653000Y-45847000D01*
X143459845Y-45847000D01*
X143338524Y-46076890D01*
X120821476Y-46076890D01*
X120700155Y-45847000D01*
X119507000Y-45847000D01*
X119507000Y-45867000D01*
X119253000Y-45867000D01*
X119253000Y-45847000D01*
X118059845Y-45847000D01*
X117938524Y-46076890D01*
X117754000Y-46076890D01*
X117754000Y-45363110D01*
X117938524Y-45363110D01*
X118059845Y-45593000D01*
X119253000Y-45593000D01*
X119253000Y-45573000D01*
X119507000Y-45573000D01*
X119507000Y-45593000D01*
X120700155Y-45593000D01*
X120821476Y-45363110D01*
X143338524Y-45363110D01*
X143459845Y-45593000D01*
X144653000Y-45593000D01*
X144653000Y-45573000D01*
X144907000Y-45573000D01*
X144907000Y-45593000D01*
X146100155Y-45593000D01*
X146221476Y-45363110D01*
X146176825Y-45215901D01*
X146051641Y-44953080D01*
X145877588Y-44719731D01*
X145661355Y-44524822D01*
X145411252Y-44375843D01*
X145248832Y-44318228D01*
X145363097Y-44270898D01*
X145564717Y-44136180D01*
X145736180Y-43964717D01*
X145870898Y-43763097D01*
X145963693Y-43539069D01*
X146011000Y-43301243D01*
X146011000Y-43058757D01*
X145963693Y-42820931D01*
X145870898Y-42596903D01*
X145736180Y-42395283D01*
X145564717Y-42223820D01*
X145363097Y-42089102D01*
X145139069Y-41996307D01*
X144901243Y-41949000D01*
X144658757Y-41949000D01*
X144420931Y-41996307D01*
X144196903Y-42089102D01*
X143995283Y-42223820D01*
X143823820Y-42395283D01*
X143689102Y-42596903D01*
X143596307Y-42820931D01*
X143549000Y-43058757D01*
X143549000Y-43301243D01*
X143596307Y-43539069D01*
X143689102Y-43763097D01*
X143823820Y-43964717D01*
X143995283Y-44136180D01*
X144196903Y-44270898D01*
X144311168Y-44318228D01*
X144148748Y-44375843D01*
X143898645Y-44524822D01*
X143682412Y-44719731D01*
X143508359Y-44953080D01*
X143383175Y-45215901D01*
X143338524Y-45363110D01*
X120821476Y-45363110D01*
X120776825Y-45215901D01*
X120651641Y-44953080D01*
X120477588Y-44719731D01*
X120261355Y-44524822D01*
X120011252Y-44375843D01*
X119848832Y-44318228D01*
X119963097Y-44270898D01*
X120164717Y-44136180D01*
X120336180Y-43964717D01*
X120470898Y-43763097D01*
X120563693Y-43539069D01*
X120611000Y-43301243D01*
X120611000Y-43058757D01*
X120563693Y-42820931D01*
X120470898Y-42596903D01*
X120336180Y-42395283D01*
X120164717Y-42223820D01*
X119963097Y-42089102D01*
X119739069Y-41996307D01*
X119501243Y-41949000D01*
X119258757Y-41949000D01*
X119020931Y-41996307D01*
X118796903Y-42089102D01*
X118595283Y-42223820D01*
X118423820Y-42395283D01*
X118289102Y-42596903D01*
X118196307Y-42820931D01*
X118149000Y-43058757D01*
X118149000Y-43301243D01*
X118196307Y-43539069D01*
X118289102Y-43763097D01*
X118423820Y-43964717D01*
X118595283Y-44136180D01*
X118796903Y-44270898D01*
X118911168Y-44318228D01*
X118748748Y-44375843D01*
X118498645Y-44524822D01*
X118282412Y-44719731D01*
X118108359Y-44953080D01*
X117983175Y-45215901D01*
X117938524Y-45363110D01*
X117754000Y-45363110D01*
X117754000Y-40518757D01*
X118149000Y-40518757D01*
X118149000Y-40761243D01*
X118196307Y-40999069D01*
X118289102Y-41223097D01*
X118423820Y-41424717D01*
X118595283Y-41596180D01*
X118796903Y-41730898D01*
X119020931Y-41823693D01*
X119258757Y-41871000D01*
X119501243Y-41871000D01*
X119739069Y-41823693D01*
X119963097Y-41730898D01*
X120164717Y-41596180D01*
X120336180Y-41424717D01*
X120470898Y-41223097D01*
X120563693Y-40999069D01*
X120611000Y-40761243D01*
X120611000Y-40518757D01*
X143549000Y-40518757D01*
X143549000Y-40761243D01*
X143596307Y-40999069D01*
X143689102Y-41223097D01*
X143823820Y-41424717D01*
X143995283Y-41596180D01*
X144196903Y-41730898D01*
X144420931Y-41823693D01*
X144658757Y-41871000D01*
X144901243Y-41871000D01*
X145139069Y-41823693D01*
X145363097Y-41730898D01*
X145564717Y-41596180D01*
X145736180Y-41424717D01*
X145870898Y-41223097D01*
X145963693Y-40999069D01*
X146011000Y-40761243D01*
X146011000Y-40518757D01*
X145963693Y-40280931D01*
X145870898Y-40056903D01*
X145736180Y-39855283D01*
X145564717Y-39683820D01*
X145363097Y-39549102D01*
X145139069Y-39456307D01*
X144901243Y-39409000D01*
X144658757Y-39409000D01*
X144420931Y-39456307D01*
X144196903Y-39549102D01*
X143995283Y-39683820D01*
X143823820Y-39855283D01*
X143689102Y-40056903D01*
X143596307Y-40280931D01*
X143549000Y-40518757D01*
X120611000Y-40518757D01*
X120563693Y-40280931D01*
X120470898Y-40056903D01*
X120336180Y-39855283D01*
X120164717Y-39683820D01*
X119963097Y-39549102D01*
X119739069Y-39456307D01*
X119501243Y-39409000D01*
X119258757Y-39409000D01*
X119020931Y-39456307D01*
X118796903Y-39549102D01*
X118595283Y-39683820D01*
X118423820Y-39855283D01*
X118289102Y-40056903D01*
X118196307Y-40280931D01*
X118149000Y-40518757D01*
X117754000Y-40518757D01*
X117754000Y-37250000D01*
X118147157Y-37250000D01*
X118147157Y-38950000D01*
X118154513Y-39024689D01*
X118176299Y-39096508D01*
X118211678Y-39162696D01*
X118259289Y-39220711D01*
X118317304Y-39268322D01*
X118383492Y-39303701D01*
X118455311Y-39325487D01*
X118530000Y-39332843D01*
X120230000Y-39332843D01*
X120304689Y-39325487D01*
X120376508Y-39303701D01*
X120442696Y-39268322D01*
X120500711Y-39220711D01*
X120548322Y-39162696D01*
X120583701Y-39096508D01*
X120605487Y-39024689D01*
X120612843Y-38950000D01*
X120612843Y-37250000D01*
X143547157Y-37250000D01*
X143547157Y-38950000D01*
X143554513Y-39024689D01*
X143576299Y-39096508D01*
X143611678Y-39162696D01*
X143659289Y-39220711D01*
X143717304Y-39268322D01*
X143783492Y-39303701D01*
X143855311Y-39325487D01*
X143930000Y-39332843D01*
X145630000Y-39332843D01*
X145704689Y-39325487D01*
X145776508Y-39303701D01*
X145842696Y-39268322D01*
X145900711Y-39220711D01*
X145948322Y-39162696D01*
X145983701Y-39096508D01*
X146005487Y-39024689D01*
X146012843Y-38950000D01*
X146012843Y-37250000D01*
X146005487Y-37175311D01*
X145983701Y-37103492D01*
X145948322Y-37037304D01*
X145900711Y-36979289D01*
X145842696Y-36931678D01*
X145776508Y-36896299D01*
X145704689Y-36874513D01*
X145630000Y-36867157D01*
X143930000Y-36867157D01*
X143855311Y-36874513D01*
X143783492Y-36896299D01*
X143717304Y-36931678D01*
X143659289Y-36979289D01*
X143611678Y-37037304D01*
X143576299Y-37103492D01*
X143554513Y-37175311D01*
X143547157Y-37250000D01*
X120612843Y-37250000D01*
X120605487Y-37175311D01*
X120583701Y-37103492D01*
X120548322Y-37037304D01*
X120500711Y-36979289D01*
X120442696Y-36931678D01*
X120376508Y-36896299D01*
X120304689Y-36874513D01*
X120230000Y-36867157D01*
X118530000Y-36867157D01*
X118455311Y-36874513D01*
X118383492Y-36896299D01*
X118317304Y-36931678D01*
X118259289Y-36979289D01*
X118211678Y-37037304D01*
X118176299Y-37103492D01*
X118154513Y-37175311D01*
X118147157Y-37250000D01*
X117754000Y-37250000D01*
X117754000Y-35458000D01*
X146406000Y-35458000D01*
X146406001Y-98146000D01*
G37*
X146406001Y-98146000D02*
X117754000Y-98146000D01*
X117754000Y-96398757D01*
X118149000Y-96398757D01*
X118149000Y-96641243D01*
X118196307Y-96879069D01*
X118289102Y-97103097D01*
X118423820Y-97304717D01*
X118595283Y-97476180D01*
X118796903Y-97610898D01*
X119020931Y-97703693D01*
X119258757Y-97751000D01*
X119501243Y-97751000D01*
X119739069Y-97703693D01*
X119963097Y-97610898D01*
X120164717Y-97476180D01*
X120336180Y-97304717D01*
X120470898Y-97103097D01*
X120563693Y-96879069D01*
X120611000Y-96641243D01*
X120611000Y-96398757D01*
X143549000Y-96398757D01*
X143549000Y-96641243D01*
X143596307Y-96879069D01*
X143689102Y-97103097D01*
X143823820Y-97304717D01*
X143995283Y-97476180D01*
X144196903Y-97610898D01*
X144420931Y-97703693D01*
X144658757Y-97751000D01*
X144901243Y-97751000D01*
X145139069Y-97703693D01*
X145363097Y-97610898D01*
X145564717Y-97476180D01*
X145736180Y-97304717D01*
X145870898Y-97103097D01*
X145963693Y-96879069D01*
X146011000Y-96641243D01*
X146011000Y-96398757D01*
X145963693Y-96160931D01*
X145870898Y-95936903D01*
X145736180Y-95735283D01*
X145564717Y-95563820D01*
X145363097Y-95429102D01*
X145139069Y-95336307D01*
X144901243Y-95289000D01*
X144658757Y-95289000D01*
X144420931Y-95336307D01*
X144196903Y-95429102D01*
X143995283Y-95563820D01*
X143823820Y-95735283D01*
X143689102Y-95936903D01*
X143596307Y-96160931D01*
X143549000Y-96398757D01*
X120611000Y-96398757D01*
X120563693Y-96160931D01*
X120470898Y-95936903D01*
X120336180Y-95735283D01*
X120164717Y-95563820D01*
X119963097Y-95429102D01*
X119739069Y-95336307D01*
X119501243Y-95289000D01*
X119258757Y-95289000D01*
X119020931Y-95336307D01*
X118796903Y-95429102D01*
X118595283Y-95563820D01*
X118423820Y-95735283D01*
X118289102Y-95936903D01*
X118196307Y-96160931D01*
X118149000Y-96398757D01*
X117754000Y-96398757D01*
X117754000Y-93858757D01*
X118149000Y-93858757D01*
X118149000Y-94101243D01*
X118196307Y-94339069D01*
X118289102Y-94563097D01*
X118423820Y-94764717D01*
X118595283Y-94936180D01*
X118796903Y-95070898D01*
X119020931Y-95163693D01*
X119258757Y-95211000D01*
X119501243Y-95211000D01*
X119739069Y-95163693D01*
X119963097Y-95070898D01*
X120164717Y-94936180D01*
X120336180Y-94764717D01*
X120470898Y-94563097D01*
X120563693Y-94339069D01*
X120611000Y-94101243D01*
X120611000Y-93858757D01*
X143549000Y-93858757D01*
X143549000Y-94101243D01*
X143596307Y-94339069D01*
X143689102Y-94563097D01*
X143823820Y-94764717D01*
X143995283Y-94936180D01*
X144196903Y-95070898D01*
X144420931Y-95163693D01*
X144658757Y-95211000D01*
X144901243Y-95211000D01*
X145139069Y-95163693D01*
X145363097Y-95070898D01*
X145564717Y-94936180D01*
X145736180Y-94764717D01*
X145870898Y-94563097D01*
X145963693Y-94339069D01*
X146011000Y-94101243D01*
X146011000Y-93858757D01*
X145963693Y-93620931D01*
X145870898Y-93396903D01*
X145736180Y-93195283D01*
X145564717Y-93023820D01*
X145363097Y-92889102D01*
X145139069Y-92796307D01*
X144901243Y-92749000D01*
X144658757Y-92749000D01*
X144420931Y-92796307D01*
X144196903Y-92889102D01*
X143995283Y-93023820D01*
X143823820Y-93195283D01*
X143689102Y-93396903D01*
X143596307Y-93620931D01*
X143549000Y-93858757D01*
X120611000Y-93858757D01*
X120563693Y-93620931D01*
X120470898Y-93396903D01*
X120336180Y-93195283D01*
X120164717Y-93023820D01*
X119963097Y-92889102D01*
X119739069Y-92796307D01*
X119501243Y-92749000D01*
X119258757Y-92749000D01*
X119020931Y-92796307D01*
X118796903Y-92889102D01*
X118595283Y-93023820D01*
X118423820Y-93195283D01*
X118289102Y-93396903D01*
X118196307Y-93620931D01*
X118149000Y-93858757D01*
X117754000Y-93858757D01*
X117754000Y-89256890D01*
X117938524Y-89256890D01*
X117983175Y-89404099D01*
X118108359Y-89666920D01*
X118282412Y-89900269D01*
X118498645Y-90095178D01*
X118748748Y-90244157D01*
X118911168Y-90301772D01*
X118796903Y-90349102D01*
X118595283Y-90483820D01*
X118423820Y-90655283D01*
X118289102Y-90856903D01*
X118196307Y-91080931D01*
X118149000Y-91318757D01*
X118149000Y-91561243D01*
X118196307Y-91799069D01*
X118289102Y-92023097D01*
X118423820Y-92224717D01*
X118595283Y-92396180D01*
X118796903Y-92530898D01*
X119020931Y-92623693D01*
X119258757Y-92671000D01*
X119501243Y-92671000D01*
X119739069Y-92623693D01*
X119963097Y-92530898D01*
X120164717Y-92396180D01*
X120336180Y-92224717D01*
X120470898Y-92023097D01*
X120563693Y-91799069D01*
X120611000Y-91561243D01*
X120611000Y-91318757D01*
X120563693Y-91080931D01*
X120470898Y-90856903D01*
X120336180Y-90655283D01*
X120164717Y-90483820D01*
X119963097Y-90349102D01*
X119848832Y-90301772D01*
X120011252Y-90244157D01*
X120261355Y-90095178D01*
X120477588Y-89900269D01*
X120651641Y-89666920D01*
X120776825Y-89404099D01*
X120821476Y-89256890D01*
X143338524Y-89256890D01*
X143383175Y-89404099D01*
X143508359Y-89666920D01*
X143682412Y-89900269D01*
X143898645Y-90095178D01*
X144148748Y-90244157D01*
X144311168Y-90301772D01*
X144196903Y-90349102D01*
X143995283Y-90483820D01*
X143823820Y-90655283D01*
X143689102Y-90856903D01*
X143596307Y-91080931D01*
X143549000Y-91318757D01*
X143549000Y-91561243D01*
X143596307Y-91799069D01*
X143689102Y-92023097D01*
X143823820Y-92224717D01*
X143995283Y-92396180D01*
X144196903Y-92530898D01*
X144420931Y-92623693D01*
X144658757Y-92671000D01*
X144901243Y-92671000D01*
X145139069Y-92623693D01*
X145363097Y-92530898D01*
X145564717Y-92396180D01*
X145736180Y-92224717D01*
X145870898Y-92023097D01*
X145963693Y-91799069D01*
X146011000Y-91561243D01*
X146011000Y-91318757D01*
X145963693Y-91080931D01*
X145870898Y-90856903D01*
X145736180Y-90655283D01*
X145564717Y-90483820D01*
X145363097Y-90349102D01*
X145248832Y-90301772D01*
X145411252Y-90244157D01*
X145661355Y-90095178D01*
X145877588Y-89900269D01*
X146051641Y-89666920D01*
X146176825Y-89404099D01*
X146221476Y-89256890D01*
X146100155Y-89027000D01*
X144907000Y-89027000D01*
X144907000Y-89047000D01*
X144653000Y-89047000D01*
X144653000Y-89027000D01*
X143459845Y-89027000D01*
X143338524Y-89256890D01*
X120821476Y-89256890D01*
X120700155Y-89027000D01*
X119507000Y-89027000D01*
X119507000Y-89047000D01*
X119253000Y-89047000D01*
X119253000Y-89027000D01*
X118059845Y-89027000D01*
X117938524Y-89256890D01*
X117754000Y-89256890D01*
X117754000Y-88543110D01*
X117938524Y-88543110D01*
X118059845Y-88773000D01*
X119253000Y-88773000D01*
X119253000Y-88753000D01*
X119507000Y-88753000D01*
X119507000Y-88773000D01*
X120700155Y-88773000D01*
X120821476Y-88543110D01*
X143338524Y-88543110D01*
X143459845Y-88773000D01*
X144653000Y-88773000D01*
X144653000Y-88753000D01*
X144907000Y-88753000D01*
X144907000Y-88773000D01*
X146100155Y-88773000D01*
X146221476Y-88543110D01*
X146176825Y-88395901D01*
X146051641Y-88133080D01*
X145877588Y-87899731D01*
X145661355Y-87704822D01*
X145411252Y-87555843D01*
X145248832Y-87498228D01*
X145363097Y-87450898D01*
X145564717Y-87316180D01*
X145736180Y-87144717D01*
X145870898Y-86943097D01*
X145963693Y-86719069D01*
X146011000Y-86481243D01*
X146011000Y-86238757D01*
X145963693Y-86000931D01*
X145870898Y-85776903D01*
X145736180Y-85575283D01*
X145564717Y-85403820D01*
X145363097Y-85269102D01*
X145139069Y-85176307D01*
X144901243Y-85129000D01*
X144658757Y-85129000D01*
X144420931Y-85176307D01*
X144196903Y-85269102D01*
X143995283Y-85403820D01*
X143823820Y-85575283D01*
X143689102Y-85776903D01*
X143596307Y-86000931D01*
X143549000Y-86238757D01*
X143549000Y-86481243D01*
X143596307Y-86719069D01*
X143689102Y-86943097D01*
X143823820Y-87144717D01*
X143995283Y-87316180D01*
X144196903Y-87450898D01*
X144311168Y-87498228D01*
X144148748Y-87555843D01*
X143898645Y-87704822D01*
X143682412Y-87899731D01*
X143508359Y-88133080D01*
X143383175Y-88395901D01*
X143338524Y-88543110D01*
X120821476Y-88543110D01*
X120776825Y-88395901D01*
X120651641Y-88133080D01*
X120477588Y-87899731D01*
X120261355Y-87704822D01*
X120011252Y-87555843D01*
X119848832Y-87498228D01*
X119963097Y-87450898D01*
X120164717Y-87316180D01*
X120336180Y-87144717D01*
X120470898Y-86943097D01*
X120563693Y-86719069D01*
X120611000Y-86481243D01*
X120611000Y-86238757D01*
X120563693Y-86000931D01*
X120470898Y-85776903D01*
X120336180Y-85575283D01*
X120164717Y-85403820D01*
X119963097Y-85269102D01*
X119739069Y-85176307D01*
X119501243Y-85129000D01*
X119258757Y-85129000D01*
X119020931Y-85176307D01*
X118796903Y-85269102D01*
X118595283Y-85403820D01*
X118423820Y-85575283D01*
X118289102Y-85776903D01*
X118196307Y-86000931D01*
X118149000Y-86238757D01*
X118149000Y-86481243D01*
X118196307Y-86719069D01*
X118289102Y-86943097D01*
X118423820Y-87144717D01*
X118595283Y-87316180D01*
X118796903Y-87450898D01*
X118911168Y-87498228D01*
X118748748Y-87555843D01*
X118498645Y-87704822D01*
X118282412Y-87899731D01*
X118108359Y-88133080D01*
X117983175Y-88395901D01*
X117938524Y-88543110D01*
X117754000Y-88543110D01*
X117754000Y-83698757D01*
X118149000Y-83698757D01*
X118149000Y-83941243D01*
X118196307Y-84179069D01*
X118289102Y-84403097D01*
X118423820Y-84604717D01*
X118595283Y-84776180D01*
X118796903Y-84910898D01*
X119020931Y-85003693D01*
X119258757Y-85051000D01*
X119501243Y-85051000D01*
X119739069Y-85003693D01*
X119963097Y-84910898D01*
X120164717Y-84776180D01*
X120336180Y-84604717D01*
X120470898Y-84403097D01*
X120563693Y-84179069D01*
X120611000Y-83941243D01*
X120611000Y-83698757D01*
X143549000Y-83698757D01*
X143549000Y-83941243D01*
X143596307Y-84179069D01*
X143689102Y-84403097D01*
X143823820Y-84604717D01*
X143995283Y-84776180D01*
X144196903Y-84910898D01*
X144420931Y-85003693D01*
X144658757Y-85051000D01*
X144901243Y-85051000D01*
X145139069Y-85003693D01*
X145363097Y-84910898D01*
X145564717Y-84776180D01*
X145736180Y-84604717D01*
X145870898Y-84403097D01*
X145963693Y-84179069D01*
X146011000Y-83941243D01*
X146011000Y-83698757D01*
X145963693Y-83460931D01*
X145870898Y-83236903D01*
X145736180Y-83035283D01*
X145564717Y-82863820D01*
X145363097Y-82729102D01*
X145139069Y-82636307D01*
X144901243Y-82589000D01*
X144658757Y-82589000D01*
X144420931Y-82636307D01*
X144196903Y-82729102D01*
X143995283Y-82863820D01*
X143823820Y-83035283D01*
X143689102Y-83236903D01*
X143596307Y-83460931D01*
X143549000Y-83698757D01*
X120611000Y-83698757D01*
X120563693Y-83460931D01*
X120470898Y-83236903D01*
X120336180Y-83035283D01*
X120164717Y-82863820D01*
X119963097Y-82729102D01*
X119739069Y-82636307D01*
X119501243Y-82589000D01*
X119258757Y-82589000D01*
X119020931Y-82636307D01*
X118796903Y-82729102D01*
X118595283Y-82863820D01*
X118423820Y-83035283D01*
X118289102Y-83236903D01*
X118196307Y-83460931D01*
X118149000Y-83698757D01*
X117754000Y-83698757D01*
X117754000Y-81158757D01*
X118149000Y-81158757D01*
X118149000Y-81401243D01*
X118196307Y-81639069D01*
X118289102Y-81863097D01*
X118423820Y-82064717D01*
X118595283Y-82236180D01*
X118796903Y-82370898D01*
X119020931Y-82463693D01*
X119258757Y-82511000D01*
X119501243Y-82511000D01*
X119739069Y-82463693D01*
X119963097Y-82370898D01*
X120164717Y-82236180D01*
X120336180Y-82064717D01*
X120470898Y-81863097D01*
X120563693Y-81639069D01*
X120611000Y-81401243D01*
X120611000Y-81158757D01*
X143549000Y-81158757D01*
X143549000Y-81401243D01*
X143596307Y-81639069D01*
X143689102Y-81863097D01*
X143823820Y-82064717D01*
X143995283Y-82236180D01*
X144196903Y-82370898D01*
X144420931Y-82463693D01*
X144658757Y-82511000D01*
X144901243Y-82511000D01*
X145139069Y-82463693D01*
X145363097Y-82370898D01*
X145564717Y-82236180D01*
X145736180Y-82064717D01*
X145870898Y-81863097D01*
X145963693Y-81639069D01*
X146011000Y-81401243D01*
X146011000Y-81158757D01*
X145963693Y-80920931D01*
X145870898Y-80696903D01*
X145736180Y-80495283D01*
X145564717Y-80323820D01*
X145363097Y-80189102D01*
X145139069Y-80096307D01*
X144901243Y-80049000D01*
X144658757Y-80049000D01*
X144420931Y-80096307D01*
X144196903Y-80189102D01*
X143995283Y-80323820D01*
X143823820Y-80495283D01*
X143689102Y-80696903D01*
X143596307Y-80920931D01*
X143549000Y-81158757D01*
X120611000Y-81158757D01*
X120563693Y-80920931D01*
X120470898Y-80696903D01*
X120336180Y-80495283D01*
X120164717Y-80323820D01*
X119963097Y-80189102D01*
X119739069Y-80096307D01*
X119501243Y-80049000D01*
X119258757Y-80049000D01*
X119020931Y-80096307D01*
X118796903Y-80189102D01*
X118595283Y-80323820D01*
X118423820Y-80495283D01*
X118289102Y-80696903D01*
X118196307Y-80920931D01*
X118149000Y-81158757D01*
X117754000Y-81158757D01*
X117754000Y-78618757D01*
X118149000Y-78618757D01*
X118149000Y-78861243D01*
X118196307Y-79099069D01*
X118289102Y-79323097D01*
X118423820Y-79524717D01*
X118595283Y-79696180D01*
X118796903Y-79830898D01*
X119020931Y-79923693D01*
X119258757Y-79971000D01*
X119501243Y-79971000D01*
X119739069Y-79923693D01*
X119963097Y-79830898D01*
X120164717Y-79696180D01*
X120336180Y-79524717D01*
X120470898Y-79323097D01*
X120563693Y-79099069D01*
X120611000Y-78861243D01*
X120611000Y-78618757D01*
X143549000Y-78618757D01*
X143549000Y-78861243D01*
X143596307Y-79099069D01*
X143689102Y-79323097D01*
X143823820Y-79524717D01*
X143995283Y-79696180D01*
X144196903Y-79830898D01*
X144420931Y-79923693D01*
X144658757Y-79971000D01*
X144901243Y-79971000D01*
X145139069Y-79923693D01*
X145363097Y-79830898D01*
X145564717Y-79696180D01*
X145736180Y-79524717D01*
X145870898Y-79323097D01*
X145963693Y-79099069D01*
X146011000Y-78861243D01*
X146011000Y-78618757D01*
X145963693Y-78380931D01*
X145870898Y-78156903D01*
X145736180Y-77955283D01*
X145564717Y-77783820D01*
X145363097Y-77649102D01*
X145139069Y-77556307D01*
X144901243Y-77509000D01*
X144658757Y-77509000D01*
X144420931Y-77556307D01*
X144196903Y-77649102D01*
X143995283Y-77783820D01*
X143823820Y-77955283D01*
X143689102Y-78156903D01*
X143596307Y-78380931D01*
X143549000Y-78618757D01*
X120611000Y-78618757D01*
X120563693Y-78380931D01*
X120470898Y-78156903D01*
X120336180Y-77955283D01*
X120164717Y-77783820D01*
X119963097Y-77649102D01*
X119739069Y-77556307D01*
X119501243Y-77509000D01*
X119258757Y-77509000D01*
X119020931Y-77556307D01*
X118796903Y-77649102D01*
X118595283Y-77783820D01*
X118423820Y-77955283D01*
X118289102Y-78156903D01*
X118196307Y-78380931D01*
X118149000Y-78618757D01*
X117754000Y-78618757D01*
X117754000Y-74016890D01*
X117938524Y-74016890D01*
X117983175Y-74164099D01*
X118108359Y-74426920D01*
X118282412Y-74660269D01*
X118498645Y-74855178D01*
X118748748Y-75004157D01*
X118911168Y-75061772D01*
X118796903Y-75109102D01*
X118595283Y-75243820D01*
X118423820Y-75415283D01*
X118289102Y-75616903D01*
X118196307Y-75840931D01*
X118149000Y-76078757D01*
X118149000Y-76321243D01*
X118196307Y-76559069D01*
X118289102Y-76783097D01*
X118423820Y-76984717D01*
X118595283Y-77156180D01*
X118796903Y-77290898D01*
X119020931Y-77383693D01*
X119258757Y-77431000D01*
X119501243Y-77431000D01*
X119739069Y-77383693D01*
X119963097Y-77290898D01*
X120164717Y-77156180D01*
X120336180Y-76984717D01*
X120470898Y-76783097D01*
X120563693Y-76559069D01*
X120611000Y-76321243D01*
X120611000Y-76078757D01*
X120563693Y-75840931D01*
X120470898Y-75616903D01*
X120336180Y-75415283D01*
X120164717Y-75243820D01*
X119963097Y-75109102D01*
X119848832Y-75061772D01*
X120011252Y-75004157D01*
X120261355Y-74855178D01*
X120477588Y-74660269D01*
X120651641Y-74426920D01*
X120776825Y-74164099D01*
X120821476Y-74016890D01*
X143338524Y-74016890D01*
X143383175Y-74164099D01*
X143508359Y-74426920D01*
X143682412Y-74660269D01*
X143898645Y-74855178D01*
X144148748Y-75004157D01*
X144311168Y-75061772D01*
X144196903Y-75109102D01*
X143995283Y-75243820D01*
X143823820Y-75415283D01*
X143689102Y-75616903D01*
X143596307Y-75840931D01*
X143549000Y-76078757D01*
X143549000Y-76321243D01*
X143596307Y-76559069D01*
X143689102Y-76783097D01*
X143823820Y-76984717D01*
X143995283Y-77156180D01*
X144196903Y-77290898D01*
X144420931Y-77383693D01*
X144658757Y-77431000D01*
X144901243Y-77431000D01*
X145139069Y-77383693D01*
X145363097Y-77290898D01*
X145564717Y-77156180D01*
X145736180Y-76984717D01*
X145870898Y-76783097D01*
X145963693Y-76559069D01*
X146011000Y-76321243D01*
X146011000Y-76078757D01*
X145963693Y-75840931D01*
X145870898Y-75616903D01*
X145736180Y-75415283D01*
X145564717Y-75243820D01*
X145363097Y-75109102D01*
X145248832Y-75061772D01*
X145411252Y-75004157D01*
X145661355Y-74855178D01*
X145877588Y-74660269D01*
X146051641Y-74426920D01*
X146176825Y-74164099D01*
X146221476Y-74016890D01*
X146100155Y-73787000D01*
X144907000Y-73787000D01*
X144907000Y-73807000D01*
X144653000Y-73807000D01*
X144653000Y-73787000D01*
X143459845Y-73787000D01*
X143338524Y-74016890D01*
X120821476Y-74016890D01*
X120700155Y-73787000D01*
X119507000Y-73787000D01*
X119507000Y-73807000D01*
X119253000Y-73807000D01*
X119253000Y-73787000D01*
X118059845Y-73787000D01*
X117938524Y-74016890D01*
X117754000Y-74016890D01*
X117754000Y-73303110D01*
X117938524Y-73303110D01*
X118059845Y-73533000D01*
X119253000Y-73533000D01*
X119253000Y-73513000D01*
X119507000Y-73513000D01*
X119507000Y-73533000D01*
X120700155Y-73533000D01*
X120821476Y-73303110D01*
X143338524Y-73303110D01*
X143459845Y-73533000D01*
X144653000Y-73533000D01*
X144653000Y-73513000D01*
X144907000Y-73513000D01*
X144907000Y-73533000D01*
X146100155Y-73533000D01*
X146221476Y-73303110D01*
X146176825Y-73155901D01*
X146051641Y-72893080D01*
X145877588Y-72659731D01*
X145661355Y-72464822D01*
X145411252Y-72315843D01*
X145248832Y-72258228D01*
X145363097Y-72210898D01*
X145564717Y-72076180D01*
X145736180Y-71904717D01*
X145870898Y-71703097D01*
X145963693Y-71479069D01*
X146011000Y-71241243D01*
X146011000Y-70998757D01*
X145963693Y-70760931D01*
X145870898Y-70536903D01*
X145736180Y-70335283D01*
X145564717Y-70163820D01*
X145363097Y-70029102D01*
X145139069Y-69936307D01*
X144901243Y-69889000D01*
X144658757Y-69889000D01*
X144420931Y-69936307D01*
X144196903Y-70029102D01*
X143995283Y-70163820D01*
X143823820Y-70335283D01*
X143689102Y-70536903D01*
X143596307Y-70760931D01*
X143549000Y-70998757D01*
X143549000Y-71241243D01*
X143596307Y-71479069D01*
X143689102Y-71703097D01*
X143823820Y-71904717D01*
X143995283Y-72076180D01*
X144196903Y-72210898D01*
X144311168Y-72258228D01*
X144148748Y-72315843D01*
X143898645Y-72464822D01*
X143682412Y-72659731D01*
X143508359Y-72893080D01*
X143383175Y-73155901D01*
X143338524Y-73303110D01*
X120821476Y-73303110D01*
X120776825Y-73155901D01*
X120651641Y-72893080D01*
X120477588Y-72659731D01*
X120261355Y-72464822D01*
X120011252Y-72315843D01*
X119848832Y-72258228D01*
X119963097Y-72210898D01*
X120164717Y-72076180D01*
X120336180Y-71904717D01*
X120470898Y-71703097D01*
X120563693Y-71479069D01*
X120611000Y-71241243D01*
X120611000Y-70998757D01*
X120563693Y-70760931D01*
X120470898Y-70536903D01*
X120336180Y-70335283D01*
X120164717Y-70163820D01*
X119963097Y-70029102D01*
X119739069Y-69936307D01*
X119501243Y-69889000D01*
X119258757Y-69889000D01*
X119020931Y-69936307D01*
X118796903Y-70029102D01*
X118595283Y-70163820D01*
X118423820Y-70335283D01*
X118289102Y-70536903D01*
X118196307Y-70760931D01*
X118149000Y-70998757D01*
X118149000Y-71241243D01*
X118196307Y-71479069D01*
X118289102Y-71703097D01*
X118423820Y-71904717D01*
X118595283Y-72076180D01*
X118796903Y-72210898D01*
X118911168Y-72258228D01*
X118748748Y-72315843D01*
X118498645Y-72464822D01*
X118282412Y-72659731D01*
X118108359Y-72893080D01*
X117983175Y-73155901D01*
X117938524Y-73303110D01*
X117754000Y-73303110D01*
X117754000Y-68458757D01*
X118149000Y-68458757D01*
X118149000Y-68701243D01*
X118196307Y-68939069D01*
X118289102Y-69163097D01*
X118423820Y-69364717D01*
X118595283Y-69536180D01*
X118796903Y-69670898D01*
X119020931Y-69763693D01*
X119258757Y-69811000D01*
X119501243Y-69811000D01*
X119739069Y-69763693D01*
X119963097Y-69670898D01*
X120164717Y-69536180D01*
X120336180Y-69364717D01*
X120470898Y-69163097D01*
X120563693Y-68939069D01*
X120611000Y-68701243D01*
X120611000Y-68458757D01*
X143549000Y-68458757D01*
X143549000Y-68701243D01*
X143596307Y-68939069D01*
X143689102Y-69163097D01*
X143823820Y-69364717D01*
X143995283Y-69536180D01*
X144196903Y-69670898D01*
X144420931Y-69763693D01*
X144658757Y-69811000D01*
X144901243Y-69811000D01*
X145139069Y-69763693D01*
X145363097Y-69670898D01*
X145564717Y-69536180D01*
X145736180Y-69364717D01*
X145870898Y-69163097D01*
X145963693Y-68939069D01*
X146011000Y-68701243D01*
X146011000Y-68458757D01*
X145963693Y-68220931D01*
X145870898Y-67996903D01*
X145736180Y-67795283D01*
X145564717Y-67623820D01*
X145363097Y-67489102D01*
X145139069Y-67396307D01*
X144901243Y-67349000D01*
X144658757Y-67349000D01*
X144420931Y-67396307D01*
X144196903Y-67489102D01*
X143995283Y-67623820D01*
X143823820Y-67795283D01*
X143689102Y-67996903D01*
X143596307Y-68220931D01*
X143549000Y-68458757D01*
X120611000Y-68458757D01*
X120563693Y-68220931D01*
X120470898Y-67996903D01*
X120336180Y-67795283D01*
X120164717Y-67623820D01*
X119963097Y-67489102D01*
X119739069Y-67396307D01*
X119501243Y-67349000D01*
X119258757Y-67349000D01*
X119020931Y-67396307D01*
X118796903Y-67489102D01*
X118595283Y-67623820D01*
X118423820Y-67795283D01*
X118289102Y-67996903D01*
X118196307Y-68220931D01*
X118149000Y-68458757D01*
X117754000Y-68458757D01*
X117754000Y-65918757D01*
X118149000Y-65918757D01*
X118149000Y-66161243D01*
X118196307Y-66399069D01*
X118289102Y-66623097D01*
X118423820Y-66824717D01*
X118595283Y-66996180D01*
X118796903Y-67130898D01*
X119020931Y-67223693D01*
X119258757Y-67271000D01*
X119501243Y-67271000D01*
X119739069Y-67223693D01*
X119963097Y-67130898D01*
X120164717Y-66996180D01*
X120336180Y-66824717D01*
X120470898Y-66623097D01*
X120563693Y-66399069D01*
X120611000Y-66161243D01*
X120611000Y-65918757D01*
X143549000Y-65918757D01*
X143549000Y-66161243D01*
X143596307Y-66399069D01*
X143689102Y-66623097D01*
X143823820Y-66824717D01*
X143995283Y-66996180D01*
X144196903Y-67130898D01*
X144420931Y-67223693D01*
X144658757Y-67271000D01*
X144901243Y-67271000D01*
X145139069Y-67223693D01*
X145363097Y-67130898D01*
X145564717Y-66996180D01*
X145736180Y-66824717D01*
X145870898Y-66623097D01*
X145963693Y-66399069D01*
X146011000Y-66161243D01*
X146011000Y-65918757D01*
X145963693Y-65680931D01*
X145870898Y-65456903D01*
X145736180Y-65255283D01*
X145564717Y-65083820D01*
X145363097Y-64949102D01*
X145139069Y-64856307D01*
X144901243Y-64809000D01*
X144658757Y-64809000D01*
X144420931Y-64856307D01*
X144196903Y-64949102D01*
X143995283Y-65083820D01*
X143823820Y-65255283D01*
X143689102Y-65456903D01*
X143596307Y-65680931D01*
X143549000Y-65918757D01*
X120611000Y-65918757D01*
X120563693Y-65680931D01*
X120470898Y-65456903D01*
X120336180Y-65255283D01*
X120164717Y-65083820D01*
X119963097Y-64949102D01*
X119739069Y-64856307D01*
X119501243Y-64809000D01*
X119258757Y-64809000D01*
X119020931Y-64856307D01*
X118796903Y-64949102D01*
X118595283Y-65083820D01*
X118423820Y-65255283D01*
X118289102Y-65456903D01*
X118196307Y-65680931D01*
X118149000Y-65918757D01*
X117754000Y-65918757D01*
X117754000Y-61316890D01*
X117938524Y-61316890D01*
X117983175Y-61464099D01*
X118108359Y-61726920D01*
X118282412Y-61960269D01*
X118498645Y-62155178D01*
X118748748Y-62304157D01*
X118911168Y-62361772D01*
X118796903Y-62409102D01*
X118595283Y-62543820D01*
X118423820Y-62715283D01*
X118289102Y-62916903D01*
X118196307Y-63140931D01*
X118149000Y-63378757D01*
X118149000Y-63621243D01*
X118196307Y-63859069D01*
X118289102Y-64083097D01*
X118423820Y-64284717D01*
X118595283Y-64456180D01*
X118796903Y-64590898D01*
X119020931Y-64683693D01*
X119258757Y-64731000D01*
X119501243Y-64731000D01*
X119739069Y-64683693D01*
X119963097Y-64590898D01*
X120164717Y-64456180D01*
X120336180Y-64284717D01*
X120470898Y-64083097D01*
X120563693Y-63859069D01*
X120611000Y-63621243D01*
X120611000Y-63378757D01*
X120563693Y-63140931D01*
X120470898Y-62916903D01*
X120336180Y-62715283D01*
X120164717Y-62543820D01*
X119963097Y-62409102D01*
X119848832Y-62361772D01*
X120011252Y-62304157D01*
X120261355Y-62155178D01*
X120477588Y-61960269D01*
X120651641Y-61726920D01*
X120776825Y-61464099D01*
X120821476Y-61316890D01*
X143338524Y-61316890D01*
X143383175Y-61464099D01*
X143508359Y-61726920D01*
X143682412Y-61960269D01*
X143898645Y-62155178D01*
X144148748Y-62304157D01*
X144311168Y-62361772D01*
X144196903Y-62409102D01*
X143995283Y-62543820D01*
X143823820Y-62715283D01*
X143689102Y-62916903D01*
X143596307Y-63140931D01*
X143549000Y-63378757D01*
X143549000Y-63621243D01*
X143596307Y-63859069D01*
X143689102Y-64083097D01*
X143823820Y-64284717D01*
X143995283Y-64456180D01*
X144196903Y-64590898D01*
X144420931Y-64683693D01*
X144658757Y-64731000D01*
X144901243Y-64731000D01*
X145139069Y-64683693D01*
X145363097Y-64590898D01*
X145564717Y-64456180D01*
X145736180Y-64284717D01*
X145870898Y-64083097D01*
X145963693Y-63859069D01*
X146011000Y-63621243D01*
X146011000Y-63378757D01*
X145963693Y-63140931D01*
X145870898Y-62916903D01*
X145736180Y-62715283D01*
X145564717Y-62543820D01*
X145363097Y-62409102D01*
X145248832Y-62361772D01*
X145411252Y-62304157D01*
X145661355Y-62155178D01*
X145877588Y-61960269D01*
X146051641Y-61726920D01*
X146176825Y-61464099D01*
X146221476Y-61316890D01*
X146100155Y-61087000D01*
X144907000Y-61087000D01*
X144907000Y-61107000D01*
X144653000Y-61107000D01*
X144653000Y-61087000D01*
X143459845Y-61087000D01*
X143338524Y-61316890D01*
X120821476Y-61316890D01*
X120700155Y-61087000D01*
X119507000Y-61087000D01*
X119507000Y-61107000D01*
X119253000Y-61107000D01*
X119253000Y-61087000D01*
X118059845Y-61087000D01*
X117938524Y-61316890D01*
X117754000Y-61316890D01*
X117754000Y-60603110D01*
X117938524Y-60603110D01*
X118059845Y-60833000D01*
X119253000Y-60833000D01*
X119253000Y-60813000D01*
X119507000Y-60813000D01*
X119507000Y-60833000D01*
X120700155Y-60833000D01*
X120821476Y-60603110D01*
X143338524Y-60603110D01*
X143459845Y-60833000D01*
X144653000Y-60833000D01*
X144653000Y-60813000D01*
X144907000Y-60813000D01*
X144907000Y-60833000D01*
X146100155Y-60833000D01*
X146221476Y-60603110D01*
X146176825Y-60455901D01*
X146051641Y-60193080D01*
X145877588Y-59959731D01*
X145661355Y-59764822D01*
X145411252Y-59615843D01*
X145248832Y-59558228D01*
X145363097Y-59510898D01*
X145564717Y-59376180D01*
X145736180Y-59204717D01*
X145870898Y-59003097D01*
X145963693Y-58779069D01*
X146011000Y-58541243D01*
X146011000Y-58298757D01*
X145963693Y-58060931D01*
X145870898Y-57836903D01*
X145736180Y-57635283D01*
X145564717Y-57463820D01*
X145363097Y-57329102D01*
X145139069Y-57236307D01*
X144901243Y-57189000D01*
X144658757Y-57189000D01*
X144420931Y-57236307D01*
X144196903Y-57329102D01*
X143995283Y-57463820D01*
X143823820Y-57635283D01*
X143689102Y-57836903D01*
X143596307Y-58060931D01*
X143549000Y-58298757D01*
X143549000Y-58541243D01*
X143596307Y-58779069D01*
X143689102Y-59003097D01*
X143823820Y-59204717D01*
X143995283Y-59376180D01*
X144196903Y-59510898D01*
X144311168Y-59558228D01*
X144148748Y-59615843D01*
X143898645Y-59764822D01*
X143682412Y-59959731D01*
X143508359Y-60193080D01*
X143383175Y-60455901D01*
X143338524Y-60603110D01*
X120821476Y-60603110D01*
X120776825Y-60455901D01*
X120651641Y-60193080D01*
X120477588Y-59959731D01*
X120261355Y-59764822D01*
X120011252Y-59615843D01*
X119848832Y-59558228D01*
X119963097Y-59510898D01*
X120164717Y-59376180D01*
X120336180Y-59204717D01*
X120470898Y-59003097D01*
X120563693Y-58779069D01*
X120611000Y-58541243D01*
X120611000Y-58298757D01*
X120563693Y-58060931D01*
X120470898Y-57836903D01*
X120336180Y-57635283D01*
X120164717Y-57463820D01*
X119963097Y-57329102D01*
X119739069Y-57236307D01*
X119501243Y-57189000D01*
X119258757Y-57189000D01*
X119020931Y-57236307D01*
X118796903Y-57329102D01*
X118595283Y-57463820D01*
X118423820Y-57635283D01*
X118289102Y-57836903D01*
X118196307Y-58060931D01*
X118149000Y-58298757D01*
X118149000Y-58541243D01*
X118196307Y-58779069D01*
X118289102Y-59003097D01*
X118423820Y-59204717D01*
X118595283Y-59376180D01*
X118796903Y-59510898D01*
X118911168Y-59558228D01*
X118748748Y-59615843D01*
X118498645Y-59764822D01*
X118282412Y-59959731D01*
X118108359Y-60193080D01*
X117983175Y-60455901D01*
X117938524Y-60603110D01*
X117754000Y-60603110D01*
X117754000Y-55758757D01*
X118149000Y-55758757D01*
X118149000Y-56001243D01*
X118196307Y-56239069D01*
X118289102Y-56463097D01*
X118423820Y-56664717D01*
X118595283Y-56836180D01*
X118796903Y-56970898D01*
X119020931Y-57063693D01*
X119258757Y-57111000D01*
X119501243Y-57111000D01*
X119739069Y-57063693D01*
X119963097Y-56970898D01*
X120164717Y-56836180D01*
X120336180Y-56664717D01*
X120470898Y-56463097D01*
X120563693Y-56239069D01*
X120611000Y-56001243D01*
X120611000Y-55758757D01*
X143549000Y-55758757D01*
X143549000Y-56001243D01*
X143596307Y-56239069D01*
X143689102Y-56463097D01*
X143823820Y-56664717D01*
X143995283Y-56836180D01*
X144196903Y-56970898D01*
X144420931Y-57063693D01*
X144658757Y-57111000D01*
X144901243Y-57111000D01*
X145139069Y-57063693D01*
X145363097Y-56970898D01*
X145564717Y-56836180D01*
X145736180Y-56664717D01*
X145870898Y-56463097D01*
X145963693Y-56239069D01*
X146011000Y-56001243D01*
X146011000Y-55758757D01*
X145963693Y-55520931D01*
X145870898Y-55296903D01*
X145736180Y-55095283D01*
X145564717Y-54923820D01*
X145363097Y-54789102D01*
X145139069Y-54696307D01*
X144901243Y-54649000D01*
X144658757Y-54649000D01*
X144420931Y-54696307D01*
X144196903Y-54789102D01*
X143995283Y-54923820D01*
X143823820Y-55095283D01*
X143689102Y-55296903D01*
X143596307Y-55520931D01*
X143549000Y-55758757D01*
X120611000Y-55758757D01*
X120563693Y-55520931D01*
X120470898Y-55296903D01*
X120336180Y-55095283D01*
X120164717Y-54923820D01*
X119963097Y-54789102D01*
X119739069Y-54696307D01*
X119501243Y-54649000D01*
X119258757Y-54649000D01*
X119020931Y-54696307D01*
X118796903Y-54789102D01*
X118595283Y-54923820D01*
X118423820Y-55095283D01*
X118289102Y-55296903D01*
X118196307Y-55520931D01*
X118149000Y-55758757D01*
X117754000Y-55758757D01*
X117754000Y-53218757D01*
X118149000Y-53218757D01*
X118149000Y-53461243D01*
X118196307Y-53699069D01*
X118289102Y-53923097D01*
X118423820Y-54124717D01*
X118595283Y-54296180D01*
X118796903Y-54430898D01*
X119020931Y-54523693D01*
X119258757Y-54571000D01*
X119501243Y-54571000D01*
X119739069Y-54523693D01*
X119963097Y-54430898D01*
X120164717Y-54296180D01*
X120336180Y-54124717D01*
X120470898Y-53923097D01*
X120563693Y-53699069D01*
X120611000Y-53461243D01*
X120611000Y-53218757D01*
X143549000Y-53218757D01*
X143549000Y-53461243D01*
X143596307Y-53699069D01*
X143689102Y-53923097D01*
X143823820Y-54124717D01*
X143995283Y-54296180D01*
X144196903Y-54430898D01*
X144420931Y-54523693D01*
X144658757Y-54571000D01*
X144901243Y-54571000D01*
X145139069Y-54523693D01*
X145363097Y-54430898D01*
X145564717Y-54296180D01*
X145736180Y-54124717D01*
X145870898Y-53923097D01*
X145963693Y-53699069D01*
X146011000Y-53461243D01*
X146011000Y-53218757D01*
X145963693Y-52980931D01*
X145870898Y-52756903D01*
X145736180Y-52555283D01*
X145564717Y-52383820D01*
X145363097Y-52249102D01*
X145139069Y-52156307D01*
X144901243Y-52109000D01*
X144658757Y-52109000D01*
X144420931Y-52156307D01*
X144196903Y-52249102D01*
X143995283Y-52383820D01*
X143823820Y-52555283D01*
X143689102Y-52756903D01*
X143596307Y-52980931D01*
X143549000Y-53218757D01*
X120611000Y-53218757D01*
X120563693Y-52980931D01*
X120470898Y-52756903D01*
X120336180Y-52555283D01*
X120164717Y-52383820D01*
X119963097Y-52249102D01*
X119739069Y-52156307D01*
X119501243Y-52109000D01*
X119258757Y-52109000D01*
X119020931Y-52156307D01*
X118796903Y-52249102D01*
X118595283Y-52383820D01*
X118423820Y-52555283D01*
X118289102Y-52756903D01*
X118196307Y-52980931D01*
X118149000Y-53218757D01*
X117754000Y-53218757D01*
X117754000Y-50678757D01*
X118149000Y-50678757D01*
X118149000Y-50921243D01*
X118196307Y-51159069D01*
X118289102Y-51383097D01*
X118423820Y-51584717D01*
X118595283Y-51756180D01*
X118796903Y-51890898D01*
X119020931Y-51983693D01*
X119258757Y-52031000D01*
X119501243Y-52031000D01*
X119739069Y-51983693D01*
X119963097Y-51890898D01*
X120164717Y-51756180D01*
X120336180Y-51584717D01*
X120470898Y-51383097D01*
X120563693Y-51159069D01*
X120611000Y-50921243D01*
X120611000Y-50678757D01*
X143549000Y-50678757D01*
X143549000Y-50921243D01*
X143596307Y-51159069D01*
X143689102Y-51383097D01*
X143823820Y-51584717D01*
X143995283Y-51756180D01*
X144196903Y-51890898D01*
X144420931Y-51983693D01*
X144658757Y-52031000D01*
X144901243Y-52031000D01*
X145139069Y-51983693D01*
X145363097Y-51890898D01*
X145564717Y-51756180D01*
X145736180Y-51584717D01*
X145870898Y-51383097D01*
X145963693Y-51159069D01*
X146011000Y-50921243D01*
X146011000Y-50678757D01*
X145963693Y-50440931D01*
X145870898Y-50216903D01*
X145736180Y-50015283D01*
X145564717Y-49843820D01*
X145363097Y-49709102D01*
X145139069Y-49616307D01*
X144901243Y-49569000D01*
X144658757Y-49569000D01*
X144420931Y-49616307D01*
X144196903Y-49709102D01*
X143995283Y-49843820D01*
X143823820Y-50015283D01*
X143689102Y-50216903D01*
X143596307Y-50440931D01*
X143549000Y-50678757D01*
X120611000Y-50678757D01*
X120563693Y-50440931D01*
X120470898Y-50216903D01*
X120336180Y-50015283D01*
X120164717Y-49843820D01*
X119963097Y-49709102D01*
X119739069Y-49616307D01*
X119501243Y-49569000D01*
X119258757Y-49569000D01*
X119020931Y-49616307D01*
X118796903Y-49709102D01*
X118595283Y-49843820D01*
X118423820Y-50015283D01*
X118289102Y-50216903D01*
X118196307Y-50440931D01*
X118149000Y-50678757D01*
X117754000Y-50678757D01*
X117754000Y-46076890D01*
X117938524Y-46076890D01*
X117983175Y-46224099D01*
X118108359Y-46486920D01*
X118282412Y-46720269D01*
X118498645Y-46915178D01*
X118748748Y-47064157D01*
X118911168Y-47121772D01*
X118796903Y-47169102D01*
X118595283Y-47303820D01*
X118423820Y-47475283D01*
X118289102Y-47676903D01*
X118196307Y-47900931D01*
X118149000Y-48138757D01*
X118149000Y-48381243D01*
X118196307Y-48619069D01*
X118289102Y-48843097D01*
X118423820Y-49044717D01*
X118595283Y-49216180D01*
X118796903Y-49350898D01*
X119020931Y-49443693D01*
X119258757Y-49491000D01*
X119501243Y-49491000D01*
X119739069Y-49443693D01*
X119963097Y-49350898D01*
X120164717Y-49216180D01*
X120336180Y-49044717D01*
X120470898Y-48843097D01*
X120563693Y-48619069D01*
X120611000Y-48381243D01*
X120611000Y-48138757D01*
X120563693Y-47900931D01*
X120470898Y-47676903D01*
X120336180Y-47475283D01*
X120164717Y-47303820D01*
X119963097Y-47169102D01*
X119848832Y-47121772D01*
X120011252Y-47064157D01*
X120261355Y-46915178D01*
X120477588Y-46720269D01*
X120651641Y-46486920D01*
X120776825Y-46224099D01*
X120821476Y-46076890D01*
X143338524Y-46076890D01*
X143383175Y-46224099D01*
X143508359Y-46486920D01*
X143682412Y-46720269D01*
X143898645Y-46915178D01*
X144148748Y-47064157D01*
X144311168Y-47121772D01*
X144196903Y-47169102D01*
X143995283Y-47303820D01*
X143823820Y-47475283D01*
X143689102Y-47676903D01*
X143596307Y-47900931D01*
X143549000Y-48138757D01*
X143549000Y-48381243D01*
X143596307Y-48619069D01*
X143689102Y-48843097D01*
X143823820Y-49044717D01*
X143995283Y-49216180D01*
X144196903Y-49350898D01*
X144420931Y-49443693D01*
X144658757Y-49491000D01*
X144901243Y-49491000D01*
X145139069Y-49443693D01*
X145363097Y-49350898D01*
X145564717Y-49216180D01*
X145736180Y-49044717D01*
X145870898Y-48843097D01*
X145963693Y-48619069D01*
X146011000Y-48381243D01*
X146011000Y-48138757D01*
X145963693Y-47900931D01*
X145870898Y-47676903D01*
X145736180Y-47475283D01*
X145564717Y-47303820D01*
X145363097Y-47169102D01*
X145248832Y-47121772D01*
X145411252Y-47064157D01*
X145661355Y-46915178D01*
X145877588Y-46720269D01*
X146051641Y-46486920D01*
X146176825Y-46224099D01*
X146221476Y-46076890D01*
X146100155Y-45847000D01*
X144907000Y-45847000D01*
X144907000Y-45867000D01*
X144653000Y-45867000D01*
X144653000Y-45847000D01*
X143459845Y-45847000D01*
X143338524Y-46076890D01*
X120821476Y-46076890D01*
X120700155Y-45847000D01*
X119507000Y-45847000D01*
X119507000Y-45867000D01*
X119253000Y-45867000D01*
X119253000Y-45847000D01*
X118059845Y-45847000D01*
X117938524Y-46076890D01*
X117754000Y-46076890D01*
X117754000Y-45363110D01*
X117938524Y-45363110D01*
X118059845Y-45593000D01*
X119253000Y-45593000D01*
X119253000Y-45573000D01*
X119507000Y-45573000D01*
X119507000Y-45593000D01*
X120700155Y-45593000D01*
X120821476Y-45363110D01*
X143338524Y-45363110D01*
X143459845Y-45593000D01*
X144653000Y-45593000D01*
X144653000Y-45573000D01*
X144907000Y-45573000D01*
X144907000Y-45593000D01*
X146100155Y-45593000D01*
X146221476Y-45363110D01*
X146176825Y-45215901D01*
X146051641Y-44953080D01*
X145877588Y-44719731D01*
X145661355Y-44524822D01*
X145411252Y-44375843D01*
X145248832Y-44318228D01*
X145363097Y-44270898D01*
X145564717Y-44136180D01*
X145736180Y-43964717D01*
X145870898Y-43763097D01*
X145963693Y-43539069D01*
X146011000Y-43301243D01*
X146011000Y-43058757D01*
X145963693Y-42820931D01*
X145870898Y-42596903D01*
X145736180Y-42395283D01*
X145564717Y-42223820D01*
X145363097Y-42089102D01*
X145139069Y-41996307D01*
X144901243Y-41949000D01*
X144658757Y-41949000D01*
X144420931Y-41996307D01*
X144196903Y-42089102D01*
X143995283Y-42223820D01*
X143823820Y-42395283D01*
X143689102Y-42596903D01*
X143596307Y-42820931D01*
X143549000Y-43058757D01*
X143549000Y-43301243D01*
X143596307Y-43539069D01*
X143689102Y-43763097D01*
X143823820Y-43964717D01*
X143995283Y-44136180D01*
X144196903Y-44270898D01*
X144311168Y-44318228D01*
X144148748Y-44375843D01*
X143898645Y-44524822D01*
X143682412Y-44719731D01*
X143508359Y-44953080D01*
X143383175Y-45215901D01*
X143338524Y-45363110D01*
X120821476Y-45363110D01*
X120776825Y-45215901D01*
X120651641Y-44953080D01*
X120477588Y-44719731D01*
X120261355Y-44524822D01*
X120011252Y-44375843D01*
X119848832Y-44318228D01*
X119963097Y-44270898D01*
X120164717Y-44136180D01*
X120336180Y-43964717D01*
X120470898Y-43763097D01*
X120563693Y-43539069D01*
X120611000Y-43301243D01*
X120611000Y-43058757D01*
X120563693Y-42820931D01*
X120470898Y-42596903D01*
X120336180Y-42395283D01*
X120164717Y-42223820D01*
X119963097Y-42089102D01*
X119739069Y-41996307D01*
X119501243Y-41949000D01*
X119258757Y-41949000D01*
X119020931Y-41996307D01*
X118796903Y-42089102D01*
X118595283Y-42223820D01*
X118423820Y-42395283D01*
X118289102Y-42596903D01*
X118196307Y-42820931D01*
X118149000Y-43058757D01*
X118149000Y-43301243D01*
X118196307Y-43539069D01*
X118289102Y-43763097D01*
X118423820Y-43964717D01*
X118595283Y-44136180D01*
X118796903Y-44270898D01*
X118911168Y-44318228D01*
X118748748Y-44375843D01*
X118498645Y-44524822D01*
X118282412Y-44719731D01*
X118108359Y-44953080D01*
X117983175Y-45215901D01*
X117938524Y-45363110D01*
X117754000Y-45363110D01*
X117754000Y-40518757D01*
X118149000Y-40518757D01*
X118149000Y-40761243D01*
X118196307Y-40999069D01*
X118289102Y-41223097D01*
X118423820Y-41424717D01*
X118595283Y-41596180D01*
X118796903Y-41730898D01*
X119020931Y-41823693D01*
X119258757Y-41871000D01*
X119501243Y-41871000D01*
X119739069Y-41823693D01*
X119963097Y-41730898D01*
X120164717Y-41596180D01*
X120336180Y-41424717D01*
X120470898Y-41223097D01*
X120563693Y-40999069D01*
X120611000Y-40761243D01*
X120611000Y-40518757D01*
X143549000Y-40518757D01*
X143549000Y-40761243D01*
X143596307Y-40999069D01*
X143689102Y-41223097D01*
X143823820Y-41424717D01*
X143995283Y-41596180D01*
X144196903Y-41730898D01*
X144420931Y-41823693D01*
X144658757Y-41871000D01*
X144901243Y-41871000D01*
X145139069Y-41823693D01*
X145363097Y-41730898D01*
X145564717Y-41596180D01*
X145736180Y-41424717D01*
X145870898Y-41223097D01*
X145963693Y-40999069D01*
X146011000Y-40761243D01*
X146011000Y-40518757D01*
X145963693Y-40280931D01*
X145870898Y-40056903D01*
X145736180Y-39855283D01*
X145564717Y-39683820D01*
X145363097Y-39549102D01*
X145139069Y-39456307D01*
X144901243Y-39409000D01*
X144658757Y-39409000D01*
X144420931Y-39456307D01*
X144196903Y-39549102D01*
X143995283Y-39683820D01*
X143823820Y-39855283D01*
X143689102Y-40056903D01*
X143596307Y-40280931D01*
X143549000Y-40518757D01*
X120611000Y-40518757D01*
X120563693Y-40280931D01*
X120470898Y-40056903D01*
X120336180Y-39855283D01*
X120164717Y-39683820D01*
X119963097Y-39549102D01*
X119739069Y-39456307D01*
X119501243Y-39409000D01*
X119258757Y-39409000D01*
X119020931Y-39456307D01*
X118796903Y-39549102D01*
X118595283Y-39683820D01*
X118423820Y-39855283D01*
X118289102Y-40056903D01*
X118196307Y-40280931D01*
X118149000Y-40518757D01*
X117754000Y-40518757D01*
X117754000Y-37250000D01*
X118147157Y-37250000D01*
X118147157Y-38950000D01*
X118154513Y-39024689D01*
X118176299Y-39096508D01*
X118211678Y-39162696D01*
X118259289Y-39220711D01*
X118317304Y-39268322D01*
X118383492Y-39303701D01*
X118455311Y-39325487D01*
X118530000Y-39332843D01*
X120230000Y-39332843D01*
X120304689Y-39325487D01*
X120376508Y-39303701D01*
X120442696Y-39268322D01*
X120500711Y-39220711D01*
X120548322Y-39162696D01*
X120583701Y-39096508D01*
X120605487Y-39024689D01*
X120612843Y-38950000D01*
X120612843Y-37250000D01*
X143547157Y-37250000D01*
X143547157Y-38950000D01*
X143554513Y-39024689D01*
X143576299Y-39096508D01*
X143611678Y-39162696D01*
X143659289Y-39220711D01*
X143717304Y-39268322D01*
X143783492Y-39303701D01*
X143855311Y-39325487D01*
X143930000Y-39332843D01*
X145630000Y-39332843D01*
X145704689Y-39325487D01*
X145776508Y-39303701D01*
X145842696Y-39268322D01*
X145900711Y-39220711D01*
X145948322Y-39162696D01*
X145983701Y-39096508D01*
X146005487Y-39024689D01*
X146012843Y-38950000D01*
X146012843Y-37250000D01*
X146005487Y-37175311D01*
X145983701Y-37103492D01*
X145948322Y-37037304D01*
X145900711Y-36979289D01*
X145842696Y-36931678D01*
X145776508Y-36896299D01*
X145704689Y-36874513D01*
X145630000Y-36867157D01*
X143930000Y-36867157D01*
X143855311Y-36874513D01*
X143783492Y-36896299D01*
X143717304Y-36931678D01*
X143659289Y-36979289D01*
X143611678Y-37037304D01*
X143576299Y-37103492D01*
X143554513Y-37175311D01*
X143547157Y-37250000D01*
X120612843Y-37250000D01*
X120605487Y-37175311D01*
X120583701Y-37103492D01*
X120548322Y-37037304D01*
X120500711Y-36979289D01*
X120442696Y-36931678D01*
X120376508Y-36896299D01*
X120304689Y-36874513D01*
X120230000Y-36867157D01*
X118530000Y-36867157D01*
X118455311Y-36874513D01*
X118383492Y-36896299D01*
X118317304Y-36931678D01*
X118259289Y-36979289D01*
X118211678Y-37037304D01*
X118176299Y-37103492D01*
X118154513Y-37175311D01*
X118147157Y-37250000D01*
X117754000Y-37250000D01*
X117754000Y-35458000D01*
X146406000Y-35458000D01*
X146406001Y-98146000D01*
M02*
