G04 #@! TF.GenerationSoftware,KiCad,Pcbnew,(5.1.5)-3*
G04 #@! TF.CreationDate,2020-07-08T16:59:20-04:00*
G04 #@! TF.ProjectId,VFD Level Translator,56464420-4c65-4766-956c-205472616e73,rev?*
G04 #@! TF.SameCoordinates,Original*
G04 #@! TF.FileFunction,Legend,Top*
G04 #@! TF.FilePolarity,Positive*
%FSLAX46Y46*%
G04 Gerber Fmt 4.6, Leading zero omitted, Abs format (unit mm)*
G04 Created by KiCad (PCBNEW (5.1.5)-3) date 2020-07-08 16:59:20*
%MOMM*%
%LPD*%
G04 APERTURE LIST*
%ADD10C,0.150000*%
%ADD11C,0.152400*%
%ADD12C,0.120000*%
G04 APERTURE END LIST*
D10*
X140025619Y-95605000D02*
X140978000Y-95605000D01*
X140216095Y-96067619D02*
X140263714Y-96020000D01*
X140358952Y-95972380D01*
X140597047Y-95972380D01*
X140692285Y-96020000D01*
X140739904Y-96067619D01*
X140787523Y-96162857D01*
X140787523Y-96258095D01*
X140739904Y-96400952D01*
X140168476Y-96972380D01*
X140787523Y-96972380D01*
X140978000Y-95605000D02*
X142025619Y-95605000D01*
X141406571Y-95972380D02*
X141597047Y-95972380D01*
X141692285Y-96020000D01*
X141787523Y-96115238D01*
X141835142Y-96305714D01*
X141835142Y-96639047D01*
X141787523Y-96829523D01*
X141692285Y-96924761D01*
X141597047Y-96972380D01*
X141406571Y-96972380D01*
X141311333Y-96924761D01*
X141216095Y-96829523D01*
X141168476Y-96639047D01*
X141168476Y-96305714D01*
X141216095Y-96115238D01*
X141311333Y-96020000D01*
X141406571Y-95972380D01*
X142025619Y-95605000D02*
X142930380Y-95605000D01*
X142263714Y-96448571D02*
X142597047Y-96448571D01*
X142739904Y-96972380D02*
X142263714Y-96972380D01*
X142263714Y-95972380D01*
X142739904Y-95972380D01*
X140541523Y-93527619D02*
X140589142Y-93480000D01*
X140684380Y-93432380D01*
X140922476Y-93432380D01*
X141017714Y-93480000D01*
X141065333Y-93527619D01*
X141112952Y-93622857D01*
X141112952Y-93718095D01*
X141065333Y-93860952D01*
X140493904Y-94432380D01*
X141112952Y-94432380D01*
X141493904Y-94146666D02*
X141970095Y-94146666D01*
X141398666Y-94432380D02*
X141732000Y-93432380D01*
X142065333Y-94432380D01*
X142541523Y-93860952D02*
X142446285Y-93813333D01*
X142398666Y-93765714D01*
X142351047Y-93670476D01*
X142351047Y-93622857D01*
X142398666Y-93527619D01*
X142446285Y-93480000D01*
X142541523Y-93432380D01*
X142732000Y-93432380D01*
X142827238Y-93480000D01*
X142874857Y-93527619D01*
X142922476Y-93622857D01*
X142922476Y-93670476D01*
X142874857Y-93765714D01*
X142827238Y-93813333D01*
X142732000Y-93860952D01*
X142541523Y-93860952D01*
X142446285Y-93908571D01*
X142398666Y-93956190D01*
X142351047Y-94051428D01*
X142351047Y-94241904D01*
X142398666Y-94337142D01*
X142446285Y-94384761D01*
X142541523Y-94432380D01*
X142732000Y-94432380D01*
X142827238Y-94384761D01*
X142874857Y-94337142D01*
X142922476Y-94241904D01*
X142922476Y-94051428D01*
X142874857Y-93956190D01*
X142827238Y-93908571D01*
X142732000Y-93860952D01*
X140541523Y-90987619D02*
X140589142Y-90940000D01*
X140684380Y-90892380D01*
X140922476Y-90892380D01*
X141017714Y-90940000D01*
X141065333Y-90987619D01*
X141112952Y-91082857D01*
X141112952Y-91178095D01*
X141065333Y-91320952D01*
X140493904Y-91892380D01*
X141112952Y-91892380D01*
X141493904Y-91606666D02*
X141970095Y-91606666D01*
X141398666Y-91892380D02*
X141732000Y-90892380D01*
X142065333Y-91892380D01*
X142303428Y-90892380D02*
X142970095Y-90892380D01*
X142541523Y-91892380D01*
X140970095Y-88400000D02*
X140874857Y-88352380D01*
X140732000Y-88352380D01*
X140589142Y-88400000D01*
X140493904Y-88495238D01*
X140446285Y-88590476D01*
X140398666Y-88780952D01*
X140398666Y-88923809D01*
X140446285Y-89114285D01*
X140493904Y-89209523D01*
X140589142Y-89304761D01*
X140732000Y-89352380D01*
X140827238Y-89352380D01*
X140970095Y-89304761D01*
X141017714Y-89257142D01*
X141017714Y-88923809D01*
X140827238Y-88923809D01*
X141446285Y-89352380D02*
X141446285Y-88352380D01*
X142017714Y-89352380D01*
X142017714Y-88352380D01*
X142493904Y-89352380D02*
X142493904Y-88352380D01*
X142732000Y-88352380D01*
X142874857Y-88400000D01*
X142970095Y-88495238D01*
X143017714Y-88590476D01*
X143065333Y-88780952D01*
X143065333Y-88923809D01*
X143017714Y-89114285D01*
X142970095Y-89209523D01*
X142874857Y-89304761D01*
X142732000Y-89352380D01*
X142493904Y-89352380D01*
X140541523Y-85907619D02*
X140589142Y-85860000D01*
X140684380Y-85812380D01*
X140922476Y-85812380D01*
X141017714Y-85860000D01*
X141065333Y-85907619D01*
X141112952Y-86002857D01*
X141112952Y-86098095D01*
X141065333Y-86240952D01*
X140493904Y-86812380D01*
X141112952Y-86812380D01*
X141493904Y-86526666D02*
X141970095Y-86526666D01*
X141398666Y-86812380D02*
X141732000Y-85812380D01*
X142065333Y-86812380D01*
X142827238Y-85812380D02*
X142636761Y-85812380D01*
X142541523Y-85860000D01*
X142493904Y-85907619D01*
X142398666Y-86050476D01*
X142351047Y-86240952D01*
X142351047Y-86621904D01*
X142398666Y-86717142D01*
X142446285Y-86764761D01*
X142541523Y-86812380D01*
X142732000Y-86812380D01*
X142827238Y-86764761D01*
X142874857Y-86717142D01*
X142922476Y-86621904D01*
X142922476Y-86383809D01*
X142874857Y-86288571D01*
X142827238Y-86240952D01*
X142732000Y-86193333D01*
X142541523Y-86193333D01*
X142446285Y-86240952D01*
X142398666Y-86288571D01*
X142351047Y-86383809D01*
X140541523Y-83367619D02*
X140589142Y-83320000D01*
X140684380Y-83272380D01*
X140922476Y-83272380D01*
X141017714Y-83320000D01*
X141065333Y-83367619D01*
X141112952Y-83462857D01*
X141112952Y-83558095D01*
X141065333Y-83700952D01*
X140493904Y-84272380D01*
X141112952Y-84272380D01*
X141493904Y-83986666D02*
X141970095Y-83986666D01*
X141398666Y-84272380D02*
X141732000Y-83272380D01*
X142065333Y-84272380D01*
X142874857Y-83272380D02*
X142398666Y-83272380D01*
X142351047Y-83748571D01*
X142398666Y-83700952D01*
X142493904Y-83653333D01*
X142732000Y-83653333D01*
X142827238Y-83700952D01*
X142874857Y-83748571D01*
X142922476Y-83843809D01*
X142922476Y-84081904D01*
X142874857Y-84177142D01*
X142827238Y-84224761D01*
X142732000Y-84272380D01*
X142493904Y-84272380D01*
X142398666Y-84224761D01*
X142351047Y-84177142D01*
X141541523Y-80732380D02*
X141065333Y-80732380D01*
X141017714Y-81208571D01*
X141065333Y-81160952D01*
X141160571Y-81113333D01*
X141398666Y-81113333D01*
X141493904Y-81160952D01*
X141541523Y-81208571D01*
X141589142Y-81303809D01*
X141589142Y-81541904D01*
X141541523Y-81637142D01*
X141493904Y-81684761D01*
X141398666Y-81732380D01*
X141160571Y-81732380D01*
X141065333Y-81684761D01*
X141017714Y-81637142D01*
X141874857Y-80732380D02*
X142208190Y-81732380D01*
X142541523Y-80732380D01*
X140541523Y-78287619D02*
X140589142Y-78240000D01*
X140684380Y-78192380D01*
X140922476Y-78192380D01*
X141017714Y-78240000D01*
X141065333Y-78287619D01*
X141112952Y-78382857D01*
X141112952Y-78478095D01*
X141065333Y-78620952D01*
X140493904Y-79192380D01*
X141112952Y-79192380D01*
X141493904Y-78906666D02*
X141970095Y-78906666D01*
X141398666Y-79192380D02*
X141732000Y-78192380D01*
X142065333Y-79192380D01*
X142827238Y-78525714D02*
X142827238Y-79192380D01*
X142589142Y-78144761D02*
X142351047Y-78859047D01*
X142970095Y-78859047D01*
X140541523Y-75747619D02*
X140589142Y-75700000D01*
X140684380Y-75652380D01*
X140922476Y-75652380D01*
X141017714Y-75700000D01*
X141065333Y-75747619D01*
X141112952Y-75842857D01*
X141112952Y-75938095D01*
X141065333Y-76080952D01*
X140493904Y-76652380D01*
X141112952Y-76652380D01*
X141493904Y-76366666D02*
X141970095Y-76366666D01*
X141398666Y-76652380D02*
X141732000Y-75652380D01*
X142065333Y-76652380D01*
X142303428Y-75652380D02*
X142922476Y-75652380D01*
X142589142Y-76033333D01*
X142732000Y-76033333D01*
X142827238Y-76080952D01*
X142874857Y-76128571D01*
X142922476Y-76223809D01*
X142922476Y-76461904D01*
X142874857Y-76557142D01*
X142827238Y-76604761D01*
X142732000Y-76652380D01*
X142446285Y-76652380D01*
X142351047Y-76604761D01*
X142303428Y-76557142D01*
X140970095Y-73160000D02*
X140874857Y-73112380D01*
X140732000Y-73112380D01*
X140589142Y-73160000D01*
X140493904Y-73255238D01*
X140446285Y-73350476D01*
X140398666Y-73540952D01*
X140398666Y-73683809D01*
X140446285Y-73874285D01*
X140493904Y-73969523D01*
X140589142Y-74064761D01*
X140732000Y-74112380D01*
X140827238Y-74112380D01*
X140970095Y-74064761D01*
X141017714Y-74017142D01*
X141017714Y-73683809D01*
X140827238Y-73683809D01*
X141446285Y-74112380D02*
X141446285Y-73112380D01*
X142017714Y-74112380D01*
X142017714Y-73112380D01*
X142493904Y-74112380D02*
X142493904Y-73112380D01*
X142732000Y-73112380D01*
X142874857Y-73160000D01*
X142970095Y-73255238D01*
X143017714Y-73350476D01*
X143065333Y-73540952D01*
X143065333Y-73683809D01*
X143017714Y-73874285D01*
X142970095Y-73969523D01*
X142874857Y-74064761D01*
X142732000Y-74112380D01*
X142493904Y-74112380D01*
X140541523Y-70667619D02*
X140589142Y-70620000D01*
X140684380Y-70572380D01*
X140922476Y-70572380D01*
X141017714Y-70620000D01*
X141065333Y-70667619D01*
X141112952Y-70762857D01*
X141112952Y-70858095D01*
X141065333Y-71000952D01*
X140493904Y-71572380D01*
X141112952Y-71572380D01*
X141493904Y-71286666D02*
X141970095Y-71286666D01*
X141398666Y-71572380D02*
X141732000Y-70572380D01*
X142065333Y-71572380D01*
X142351047Y-70667619D02*
X142398666Y-70620000D01*
X142493904Y-70572380D01*
X142732000Y-70572380D01*
X142827238Y-70620000D01*
X142874857Y-70667619D01*
X142922476Y-70762857D01*
X142922476Y-70858095D01*
X142874857Y-71000952D01*
X142303428Y-71572380D01*
X142922476Y-71572380D01*
X140541523Y-68127619D02*
X140589142Y-68080000D01*
X140684380Y-68032380D01*
X140922476Y-68032380D01*
X141017714Y-68080000D01*
X141065333Y-68127619D01*
X141112952Y-68222857D01*
X141112952Y-68318095D01*
X141065333Y-68460952D01*
X140493904Y-69032380D01*
X141112952Y-69032380D01*
X141493904Y-68746666D02*
X141970095Y-68746666D01*
X141398666Y-69032380D02*
X141732000Y-68032380D01*
X142065333Y-69032380D01*
X142922476Y-69032380D02*
X142351047Y-69032380D01*
X142636761Y-69032380D02*
X142636761Y-68032380D01*
X142541523Y-68175238D01*
X142446285Y-68270476D01*
X142351047Y-68318095D01*
X141112952Y-66492380D02*
X140541523Y-66492380D01*
X140827238Y-66492380D02*
X140827238Y-65492380D01*
X140732000Y-65635238D01*
X140636761Y-65730476D01*
X140541523Y-65778095D01*
X141493904Y-66206666D02*
X141970095Y-66206666D01*
X141398666Y-66492380D02*
X141732000Y-65492380D01*
X142065333Y-66492380D01*
X142541523Y-65920952D02*
X142446285Y-65873333D01*
X142398666Y-65825714D01*
X142351047Y-65730476D01*
X142351047Y-65682857D01*
X142398666Y-65587619D01*
X142446285Y-65540000D01*
X142541523Y-65492380D01*
X142732000Y-65492380D01*
X142827238Y-65540000D01*
X142874857Y-65587619D01*
X142922476Y-65682857D01*
X142922476Y-65730476D01*
X142874857Y-65825714D01*
X142827238Y-65873333D01*
X142732000Y-65920952D01*
X142541523Y-65920952D01*
X142446285Y-65968571D01*
X142398666Y-66016190D01*
X142351047Y-66111428D01*
X142351047Y-66301904D01*
X142398666Y-66397142D01*
X142446285Y-66444761D01*
X142541523Y-66492380D01*
X142732000Y-66492380D01*
X142827238Y-66444761D01*
X142874857Y-66397142D01*
X142922476Y-66301904D01*
X142922476Y-66111428D01*
X142874857Y-66016190D01*
X142827238Y-65968571D01*
X142732000Y-65920952D01*
X141112952Y-63952380D02*
X140541523Y-63952380D01*
X140827238Y-63952380D02*
X140827238Y-62952380D01*
X140732000Y-63095238D01*
X140636761Y-63190476D01*
X140541523Y-63238095D01*
X141493904Y-63666666D02*
X141970095Y-63666666D01*
X141398666Y-63952380D02*
X141732000Y-62952380D01*
X142065333Y-63952380D01*
X142303428Y-62952380D02*
X142970095Y-62952380D01*
X142541523Y-63952380D01*
X140716095Y-60460000D02*
X140620857Y-60412380D01*
X140478000Y-60412380D01*
X140335142Y-60460000D01*
X140239904Y-60555238D01*
X140192285Y-60650476D01*
X140144666Y-60840952D01*
X140144666Y-60983809D01*
X140192285Y-61174285D01*
X140239904Y-61269523D01*
X140335142Y-61364761D01*
X140478000Y-61412380D01*
X140573238Y-61412380D01*
X140716095Y-61364761D01*
X140763714Y-61317142D01*
X140763714Y-60983809D01*
X140573238Y-60983809D01*
X141192285Y-61412380D02*
X141192285Y-60412380D01*
X141763714Y-61412380D01*
X141763714Y-60412380D01*
X142239904Y-61412380D02*
X142239904Y-60412380D01*
X142478000Y-60412380D01*
X142620857Y-60460000D01*
X142716095Y-60555238D01*
X142763714Y-60650476D01*
X142811333Y-60840952D01*
X142811333Y-60983809D01*
X142763714Y-61174285D01*
X142716095Y-61269523D01*
X142620857Y-61364761D01*
X142478000Y-61412380D01*
X142239904Y-61412380D01*
X141112952Y-58872380D02*
X140541523Y-58872380D01*
X140827238Y-58872380D02*
X140827238Y-57872380D01*
X140732000Y-58015238D01*
X140636761Y-58110476D01*
X140541523Y-58158095D01*
X141493904Y-58586666D02*
X141970095Y-58586666D01*
X141398666Y-58872380D02*
X141732000Y-57872380D01*
X142065333Y-58872380D01*
X142827238Y-57872380D02*
X142636761Y-57872380D01*
X142541523Y-57920000D01*
X142493904Y-57967619D01*
X142398666Y-58110476D01*
X142351047Y-58300952D01*
X142351047Y-58681904D01*
X142398666Y-58777142D01*
X142446285Y-58824761D01*
X142541523Y-58872380D01*
X142732000Y-58872380D01*
X142827238Y-58824761D01*
X142874857Y-58777142D01*
X142922476Y-58681904D01*
X142922476Y-58443809D01*
X142874857Y-58348571D01*
X142827238Y-58300952D01*
X142732000Y-58253333D01*
X142541523Y-58253333D01*
X142446285Y-58300952D01*
X142398666Y-58348571D01*
X142351047Y-58443809D01*
X141112952Y-56332380D02*
X140541523Y-56332380D01*
X140827238Y-56332380D02*
X140827238Y-55332380D01*
X140732000Y-55475238D01*
X140636761Y-55570476D01*
X140541523Y-55618095D01*
X141493904Y-56046666D02*
X141970095Y-56046666D01*
X141398666Y-56332380D02*
X141732000Y-55332380D01*
X142065333Y-56332380D01*
X142874857Y-55332380D02*
X142398666Y-55332380D01*
X142351047Y-55808571D01*
X142398666Y-55760952D01*
X142493904Y-55713333D01*
X142732000Y-55713333D01*
X142827238Y-55760952D01*
X142874857Y-55808571D01*
X142922476Y-55903809D01*
X142922476Y-56141904D01*
X142874857Y-56237142D01*
X142827238Y-56284761D01*
X142732000Y-56332380D01*
X142493904Y-56332380D01*
X142398666Y-56284761D01*
X142351047Y-56237142D01*
X139438285Y-52792380D02*
X139771619Y-53792380D01*
X140104952Y-52792380D01*
X141009714Y-53697142D02*
X140962095Y-53744761D01*
X140819238Y-53792380D01*
X140724000Y-53792380D01*
X140581142Y-53744761D01*
X140485904Y-53649523D01*
X140438285Y-53554285D01*
X140390666Y-53363809D01*
X140390666Y-53220952D01*
X140438285Y-53030476D01*
X140485904Y-52935238D01*
X140581142Y-52840000D01*
X140724000Y-52792380D01*
X140819238Y-52792380D01*
X140962095Y-52840000D01*
X141009714Y-52887619D01*
X142009714Y-53697142D02*
X141962095Y-53744761D01*
X141819238Y-53792380D01*
X141724000Y-53792380D01*
X141581142Y-53744761D01*
X141485904Y-53649523D01*
X141438285Y-53554285D01*
X141390666Y-53363809D01*
X141390666Y-53220952D01*
X141438285Y-53030476D01*
X141485904Y-52935238D01*
X141581142Y-52840000D01*
X141724000Y-52792380D01*
X141819238Y-52792380D01*
X141962095Y-52840000D01*
X142009714Y-52887619D01*
X142866857Y-53792380D02*
X142866857Y-53268571D01*
X142819238Y-53173333D01*
X142724000Y-53125714D01*
X142533523Y-53125714D01*
X142438285Y-53173333D01*
X142866857Y-53744761D02*
X142771619Y-53792380D01*
X142533523Y-53792380D01*
X142438285Y-53744761D01*
X142390666Y-53649523D01*
X142390666Y-53554285D01*
X142438285Y-53459047D01*
X142533523Y-53411428D01*
X142771619Y-53411428D01*
X142866857Y-53363809D01*
X141112952Y-51252380D02*
X140541523Y-51252380D01*
X140827238Y-51252380D02*
X140827238Y-50252380D01*
X140732000Y-50395238D01*
X140636761Y-50490476D01*
X140541523Y-50538095D01*
X141493904Y-50966666D02*
X141970095Y-50966666D01*
X141398666Y-51252380D02*
X141732000Y-50252380D01*
X142065333Y-51252380D01*
X142827238Y-50585714D02*
X142827238Y-51252380D01*
X142589142Y-50204761D02*
X142351047Y-50919047D01*
X142970095Y-50919047D01*
X140985952Y-48712380D02*
X140414523Y-48712380D01*
X140700238Y-48712380D02*
X140700238Y-47712380D01*
X140605000Y-47855238D01*
X140509761Y-47950476D01*
X140414523Y-47998095D01*
X141366904Y-48426666D02*
X141843095Y-48426666D01*
X141271666Y-48712380D02*
X141605000Y-47712380D01*
X141938333Y-48712380D01*
X142176428Y-47712380D02*
X142795476Y-47712380D01*
X142462142Y-48093333D01*
X142605000Y-48093333D01*
X142700238Y-48140952D01*
X142747857Y-48188571D01*
X142795476Y-48283809D01*
X142795476Y-48521904D01*
X142747857Y-48617142D01*
X142700238Y-48664761D01*
X142605000Y-48712380D01*
X142319285Y-48712380D01*
X142224047Y-48664761D01*
X142176428Y-48617142D01*
X140716095Y-45220000D02*
X140620857Y-45172380D01*
X140478000Y-45172380D01*
X140335142Y-45220000D01*
X140239904Y-45315238D01*
X140192285Y-45410476D01*
X140144666Y-45600952D01*
X140144666Y-45743809D01*
X140192285Y-45934285D01*
X140239904Y-46029523D01*
X140335142Y-46124761D01*
X140478000Y-46172380D01*
X140573238Y-46172380D01*
X140716095Y-46124761D01*
X140763714Y-46077142D01*
X140763714Y-45743809D01*
X140573238Y-45743809D01*
X141192285Y-46172380D02*
X141192285Y-45172380D01*
X141763714Y-46172380D01*
X141763714Y-45172380D01*
X142239904Y-46172380D02*
X142239904Y-45172380D01*
X142478000Y-45172380D01*
X142620857Y-45220000D01*
X142716095Y-45315238D01*
X142763714Y-45410476D01*
X142811333Y-45600952D01*
X142811333Y-45743809D01*
X142763714Y-45934285D01*
X142716095Y-46029523D01*
X142620857Y-46124761D01*
X142478000Y-46172380D01*
X142239904Y-46172380D01*
X140985952Y-43632380D02*
X140414523Y-43632380D01*
X140700238Y-43632380D02*
X140700238Y-42632380D01*
X140605000Y-42775238D01*
X140509761Y-42870476D01*
X140414523Y-42918095D01*
X141366904Y-43346666D02*
X141843095Y-43346666D01*
X141271666Y-43632380D02*
X141605000Y-42632380D01*
X141938333Y-43632380D01*
X142224047Y-42727619D02*
X142271666Y-42680000D01*
X142366904Y-42632380D01*
X142605000Y-42632380D01*
X142700238Y-42680000D01*
X142747857Y-42727619D01*
X142795476Y-42822857D01*
X142795476Y-42918095D01*
X142747857Y-43060952D01*
X142176428Y-43632380D01*
X142795476Y-43632380D01*
X140985952Y-41092380D02*
X140414523Y-41092380D01*
X140700238Y-41092380D02*
X140700238Y-40092380D01*
X140605000Y-40235238D01*
X140509761Y-40330476D01*
X140414523Y-40378095D01*
X141366904Y-40806666D02*
X141843095Y-40806666D01*
X141271666Y-41092380D02*
X141605000Y-40092380D01*
X141938333Y-41092380D01*
X142795476Y-41092380D02*
X142224047Y-41092380D01*
X142509761Y-41092380D02*
X142509761Y-40092380D01*
X142414523Y-40235238D01*
X142319285Y-40330476D01*
X142224047Y-40378095D01*
X139898619Y-37185000D02*
X140851000Y-37185000D01*
X140660523Y-38552380D02*
X140089095Y-38552380D01*
X140374809Y-38552380D02*
X140374809Y-37552380D01*
X140279571Y-37695238D01*
X140184333Y-37790476D01*
X140089095Y-37838095D01*
X140851000Y-37185000D02*
X141898619Y-37185000D01*
X141279571Y-37552380D02*
X141470047Y-37552380D01*
X141565285Y-37600000D01*
X141660523Y-37695238D01*
X141708142Y-37885714D01*
X141708142Y-38219047D01*
X141660523Y-38409523D01*
X141565285Y-38504761D01*
X141470047Y-38552380D01*
X141279571Y-38552380D01*
X141184333Y-38504761D01*
X141089095Y-38409523D01*
X141041476Y-38219047D01*
X141041476Y-37885714D01*
X141089095Y-37695238D01*
X141184333Y-37600000D01*
X141279571Y-37552380D01*
X141898619Y-37185000D02*
X142803380Y-37185000D01*
X142136714Y-38028571D02*
X142470047Y-38028571D01*
X142612904Y-38552380D02*
X142136714Y-38552380D01*
X142136714Y-37552380D01*
X142612904Y-37552380D01*
X121412190Y-96067619D02*
X121459809Y-96020000D01*
X121555047Y-95972380D01*
X121793142Y-95972380D01*
X121888380Y-96020000D01*
X121936000Y-96067619D01*
X121983619Y-96162857D01*
X121983619Y-96258095D01*
X121936000Y-96400952D01*
X121364571Y-96972380D01*
X121983619Y-96972380D01*
X122412190Y-96972380D02*
X122412190Y-95972380D01*
X122650285Y-95972380D01*
X122793142Y-96020000D01*
X122888380Y-96115238D01*
X122936000Y-96210476D01*
X122983619Y-96400952D01*
X122983619Y-96543809D01*
X122936000Y-96734285D01*
X122888380Y-96829523D01*
X122793142Y-96924761D01*
X122650285Y-96972380D01*
X122412190Y-96972380D01*
X123412190Y-96972380D02*
X123412190Y-95972380D01*
X124459809Y-96972380D02*
X124126476Y-96496190D01*
X123888380Y-96972380D02*
X123888380Y-95972380D01*
X124269333Y-95972380D01*
X124364571Y-96020000D01*
X124412190Y-96067619D01*
X124459809Y-96162857D01*
X124459809Y-96305714D01*
X124412190Y-96400952D01*
X124364571Y-96448571D01*
X124269333Y-96496190D01*
X123888380Y-96496190D01*
X121420095Y-93527619D02*
X121467714Y-93480000D01*
X121562952Y-93432380D01*
X121801047Y-93432380D01*
X121896285Y-93480000D01*
X121943904Y-93527619D01*
X121991523Y-93622857D01*
X121991523Y-93718095D01*
X121943904Y-93860952D01*
X121372476Y-94432380D01*
X121991523Y-94432380D01*
X122753428Y-93908571D02*
X122896285Y-93956190D01*
X122943904Y-94003809D01*
X122991523Y-94099047D01*
X122991523Y-94241904D01*
X122943904Y-94337142D01*
X122896285Y-94384761D01*
X122801047Y-94432380D01*
X122420095Y-94432380D01*
X122420095Y-93432380D01*
X122753428Y-93432380D01*
X122848666Y-93480000D01*
X122896285Y-93527619D01*
X122943904Y-93622857D01*
X122943904Y-93718095D01*
X122896285Y-93813333D01*
X122848666Y-93860952D01*
X122753428Y-93908571D01*
X122420095Y-93908571D01*
X123562952Y-93860952D02*
X123467714Y-93813333D01*
X123420095Y-93765714D01*
X123372476Y-93670476D01*
X123372476Y-93622857D01*
X123420095Y-93527619D01*
X123467714Y-93480000D01*
X123562952Y-93432380D01*
X123753428Y-93432380D01*
X123848666Y-93480000D01*
X123896285Y-93527619D01*
X123943904Y-93622857D01*
X123943904Y-93670476D01*
X123896285Y-93765714D01*
X123848666Y-93813333D01*
X123753428Y-93860952D01*
X123562952Y-93860952D01*
X123467714Y-93908571D01*
X123420095Y-93956190D01*
X123372476Y-94051428D01*
X123372476Y-94241904D01*
X123420095Y-94337142D01*
X123467714Y-94384761D01*
X123562952Y-94432380D01*
X123753428Y-94432380D01*
X123848666Y-94384761D01*
X123896285Y-94337142D01*
X123943904Y-94241904D01*
X123943904Y-94051428D01*
X123896285Y-93956190D01*
X123848666Y-93908571D01*
X123753428Y-93860952D01*
X121420095Y-90987619D02*
X121467714Y-90940000D01*
X121562952Y-90892380D01*
X121801047Y-90892380D01*
X121896285Y-90940000D01*
X121943904Y-90987619D01*
X121991523Y-91082857D01*
X121991523Y-91178095D01*
X121943904Y-91320952D01*
X121372476Y-91892380D01*
X121991523Y-91892380D01*
X122753428Y-91368571D02*
X122896285Y-91416190D01*
X122943904Y-91463809D01*
X122991523Y-91559047D01*
X122991523Y-91701904D01*
X122943904Y-91797142D01*
X122896285Y-91844761D01*
X122801047Y-91892380D01*
X122420095Y-91892380D01*
X122420095Y-90892380D01*
X122753428Y-90892380D01*
X122848666Y-90940000D01*
X122896285Y-90987619D01*
X122943904Y-91082857D01*
X122943904Y-91178095D01*
X122896285Y-91273333D01*
X122848666Y-91320952D01*
X122753428Y-91368571D01*
X122420095Y-91368571D01*
X123324857Y-90892380D02*
X123991523Y-90892380D01*
X123562952Y-91892380D01*
X121920095Y-88400000D02*
X121824857Y-88352380D01*
X121682000Y-88352380D01*
X121539142Y-88400000D01*
X121443904Y-88495238D01*
X121396285Y-88590476D01*
X121348666Y-88780952D01*
X121348666Y-88923809D01*
X121396285Y-89114285D01*
X121443904Y-89209523D01*
X121539142Y-89304761D01*
X121682000Y-89352380D01*
X121777238Y-89352380D01*
X121920095Y-89304761D01*
X121967714Y-89257142D01*
X121967714Y-88923809D01*
X121777238Y-88923809D01*
X122396285Y-89352380D02*
X122396285Y-88352380D01*
X122967714Y-89352380D01*
X122967714Y-88352380D01*
X123443904Y-89352380D02*
X123443904Y-88352380D01*
X123682000Y-88352380D01*
X123824857Y-88400000D01*
X123920095Y-88495238D01*
X123967714Y-88590476D01*
X124015333Y-88780952D01*
X124015333Y-88923809D01*
X123967714Y-89114285D01*
X123920095Y-89209523D01*
X123824857Y-89304761D01*
X123682000Y-89352380D01*
X123443904Y-89352380D01*
X121420095Y-85907619D02*
X121467714Y-85860000D01*
X121562952Y-85812380D01*
X121801047Y-85812380D01*
X121896285Y-85860000D01*
X121943904Y-85907619D01*
X121991523Y-86002857D01*
X121991523Y-86098095D01*
X121943904Y-86240952D01*
X121372476Y-86812380D01*
X121991523Y-86812380D01*
X122753428Y-86288571D02*
X122896285Y-86336190D01*
X122943904Y-86383809D01*
X122991523Y-86479047D01*
X122991523Y-86621904D01*
X122943904Y-86717142D01*
X122896285Y-86764761D01*
X122801047Y-86812380D01*
X122420095Y-86812380D01*
X122420095Y-85812380D01*
X122753428Y-85812380D01*
X122848666Y-85860000D01*
X122896285Y-85907619D01*
X122943904Y-86002857D01*
X122943904Y-86098095D01*
X122896285Y-86193333D01*
X122848666Y-86240952D01*
X122753428Y-86288571D01*
X122420095Y-86288571D01*
X123848666Y-85812380D02*
X123658190Y-85812380D01*
X123562952Y-85860000D01*
X123515333Y-85907619D01*
X123420095Y-86050476D01*
X123372476Y-86240952D01*
X123372476Y-86621904D01*
X123420095Y-86717142D01*
X123467714Y-86764761D01*
X123562952Y-86812380D01*
X123753428Y-86812380D01*
X123848666Y-86764761D01*
X123896285Y-86717142D01*
X123943904Y-86621904D01*
X123943904Y-86383809D01*
X123896285Y-86288571D01*
X123848666Y-86240952D01*
X123753428Y-86193333D01*
X123562952Y-86193333D01*
X123467714Y-86240952D01*
X123420095Y-86288571D01*
X123372476Y-86383809D01*
X121420095Y-83367619D02*
X121467714Y-83320000D01*
X121562952Y-83272380D01*
X121801047Y-83272380D01*
X121896285Y-83320000D01*
X121943904Y-83367619D01*
X121991523Y-83462857D01*
X121991523Y-83558095D01*
X121943904Y-83700952D01*
X121372476Y-84272380D01*
X121991523Y-84272380D01*
X122753428Y-83748571D02*
X122896285Y-83796190D01*
X122943904Y-83843809D01*
X122991523Y-83939047D01*
X122991523Y-84081904D01*
X122943904Y-84177142D01*
X122896285Y-84224761D01*
X122801047Y-84272380D01*
X122420095Y-84272380D01*
X122420095Y-83272380D01*
X122753428Y-83272380D01*
X122848666Y-83320000D01*
X122896285Y-83367619D01*
X122943904Y-83462857D01*
X122943904Y-83558095D01*
X122896285Y-83653333D01*
X122848666Y-83700952D01*
X122753428Y-83748571D01*
X122420095Y-83748571D01*
X123896285Y-83272380D02*
X123420095Y-83272380D01*
X123372476Y-83748571D01*
X123420095Y-83700952D01*
X123515333Y-83653333D01*
X123753428Y-83653333D01*
X123848666Y-83700952D01*
X123896285Y-83748571D01*
X123943904Y-83843809D01*
X123943904Y-84081904D01*
X123896285Y-84177142D01*
X123848666Y-84224761D01*
X123753428Y-84272380D01*
X123515333Y-84272380D01*
X123420095Y-84224761D01*
X123372476Y-84177142D01*
X121404285Y-80732380D02*
X121737619Y-81732380D01*
X122070952Y-80732380D01*
X122975714Y-81637142D02*
X122928095Y-81684761D01*
X122785238Y-81732380D01*
X122690000Y-81732380D01*
X122547142Y-81684761D01*
X122451904Y-81589523D01*
X122404285Y-81494285D01*
X122356666Y-81303809D01*
X122356666Y-81160952D01*
X122404285Y-80970476D01*
X122451904Y-80875238D01*
X122547142Y-80780000D01*
X122690000Y-80732380D01*
X122785238Y-80732380D01*
X122928095Y-80780000D01*
X122975714Y-80827619D01*
X123975714Y-81637142D02*
X123928095Y-81684761D01*
X123785238Y-81732380D01*
X123690000Y-81732380D01*
X123547142Y-81684761D01*
X123451904Y-81589523D01*
X123404285Y-81494285D01*
X123356666Y-81303809D01*
X123356666Y-81160952D01*
X123404285Y-80970476D01*
X123451904Y-80875238D01*
X123547142Y-80780000D01*
X123690000Y-80732380D01*
X123785238Y-80732380D01*
X123928095Y-80780000D01*
X123975714Y-80827619D01*
X124404285Y-81732380D02*
X124404285Y-80732380D01*
X124404285Y-81113333D02*
X124499523Y-81065714D01*
X124690000Y-81065714D01*
X124785238Y-81113333D01*
X124832857Y-81160952D01*
X124880476Y-81256190D01*
X124880476Y-81541904D01*
X124832857Y-81637142D01*
X124785238Y-81684761D01*
X124690000Y-81732380D01*
X124499523Y-81732380D01*
X124404285Y-81684761D01*
X121420095Y-78287619D02*
X121467714Y-78240000D01*
X121562952Y-78192380D01*
X121801047Y-78192380D01*
X121896285Y-78240000D01*
X121943904Y-78287619D01*
X121991523Y-78382857D01*
X121991523Y-78478095D01*
X121943904Y-78620952D01*
X121372476Y-79192380D01*
X121991523Y-79192380D01*
X122753428Y-78668571D02*
X122896285Y-78716190D01*
X122943904Y-78763809D01*
X122991523Y-78859047D01*
X122991523Y-79001904D01*
X122943904Y-79097142D01*
X122896285Y-79144761D01*
X122801047Y-79192380D01*
X122420095Y-79192380D01*
X122420095Y-78192380D01*
X122753428Y-78192380D01*
X122848666Y-78240000D01*
X122896285Y-78287619D01*
X122943904Y-78382857D01*
X122943904Y-78478095D01*
X122896285Y-78573333D01*
X122848666Y-78620952D01*
X122753428Y-78668571D01*
X122420095Y-78668571D01*
X123848666Y-78525714D02*
X123848666Y-79192380D01*
X123610571Y-78144761D02*
X123372476Y-78859047D01*
X123991523Y-78859047D01*
X121920095Y-73160000D02*
X121824857Y-73112380D01*
X121682000Y-73112380D01*
X121539142Y-73160000D01*
X121443904Y-73255238D01*
X121396285Y-73350476D01*
X121348666Y-73540952D01*
X121348666Y-73683809D01*
X121396285Y-73874285D01*
X121443904Y-73969523D01*
X121539142Y-74064761D01*
X121682000Y-74112380D01*
X121777238Y-74112380D01*
X121920095Y-74064761D01*
X121967714Y-74017142D01*
X121967714Y-73683809D01*
X121777238Y-73683809D01*
X122396285Y-74112380D02*
X122396285Y-73112380D01*
X122967714Y-74112380D01*
X122967714Y-73112380D01*
X123443904Y-74112380D02*
X123443904Y-73112380D01*
X123682000Y-73112380D01*
X123824857Y-73160000D01*
X123920095Y-73255238D01*
X123967714Y-73350476D01*
X124015333Y-73540952D01*
X124015333Y-73683809D01*
X123967714Y-73874285D01*
X123920095Y-73969523D01*
X123824857Y-74064761D01*
X123682000Y-74112380D01*
X123443904Y-74112380D01*
X121420095Y-75747619D02*
X121467714Y-75700000D01*
X121562952Y-75652380D01*
X121801047Y-75652380D01*
X121896285Y-75700000D01*
X121943904Y-75747619D01*
X121991523Y-75842857D01*
X121991523Y-75938095D01*
X121943904Y-76080952D01*
X121372476Y-76652380D01*
X121991523Y-76652380D01*
X122753428Y-76128571D02*
X122896285Y-76176190D01*
X122943904Y-76223809D01*
X122991523Y-76319047D01*
X122991523Y-76461904D01*
X122943904Y-76557142D01*
X122896285Y-76604761D01*
X122801047Y-76652380D01*
X122420095Y-76652380D01*
X122420095Y-75652380D01*
X122753428Y-75652380D01*
X122848666Y-75700000D01*
X122896285Y-75747619D01*
X122943904Y-75842857D01*
X122943904Y-75938095D01*
X122896285Y-76033333D01*
X122848666Y-76080952D01*
X122753428Y-76128571D01*
X122420095Y-76128571D01*
X123324857Y-75652380D02*
X123943904Y-75652380D01*
X123610571Y-76033333D01*
X123753428Y-76033333D01*
X123848666Y-76080952D01*
X123896285Y-76128571D01*
X123943904Y-76223809D01*
X123943904Y-76461904D01*
X123896285Y-76557142D01*
X123848666Y-76604761D01*
X123753428Y-76652380D01*
X123467714Y-76652380D01*
X123372476Y-76604761D01*
X123324857Y-76557142D01*
X121420095Y-70667619D02*
X121467714Y-70620000D01*
X121562952Y-70572380D01*
X121801047Y-70572380D01*
X121896285Y-70620000D01*
X121943904Y-70667619D01*
X121991523Y-70762857D01*
X121991523Y-70858095D01*
X121943904Y-71000952D01*
X121372476Y-71572380D01*
X121991523Y-71572380D01*
X122753428Y-71048571D02*
X122896285Y-71096190D01*
X122943904Y-71143809D01*
X122991523Y-71239047D01*
X122991523Y-71381904D01*
X122943904Y-71477142D01*
X122896285Y-71524761D01*
X122801047Y-71572380D01*
X122420095Y-71572380D01*
X122420095Y-70572380D01*
X122753428Y-70572380D01*
X122848666Y-70620000D01*
X122896285Y-70667619D01*
X122943904Y-70762857D01*
X122943904Y-70858095D01*
X122896285Y-70953333D01*
X122848666Y-71000952D01*
X122753428Y-71048571D01*
X122420095Y-71048571D01*
X123372476Y-70667619D02*
X123420095Y-70620000D01*
X123515333Y-70572380D01*
X123753428Y-70572380D01*
X123848666Y-70620000D01*
X123896285Y-70667619D01*
X123943904Y-70762857D01*
X123943904Y-70858095D01*
X123896285Y-71000952D01*
X123324857Y-71572380D01*
X123943904Y-71572380D01*
X121547095Y-68127619D02*
X121594714Y-68080000D01*
X121689952Y-68032380D01*
X121928047Y-68032380D01*
X122023285Y-68080000D01*
X122070904Y-68127619D01*
X122118523Y-68222857D01*
X122118523Y-68318095D01*
X122070904Y-68460952D01*
X121499476Y-69032380D01*
X122118523Y-69032380D01*
X122880428Y-68508571D02*
X123023285Y-68556190D01*
X123070904Y-68603809D01*
X123118523Y-68699047D01*
X123118523Y-68841904D01*
X123070904Y-68937142D01*
X123023285Y-68984761D01*
X122928047Y-69032380D01*
X122547095Y-69032380D01*
X122547095Y-68032380D01*
X122880428Y-68032380D01*
X122975666Y-68080000D01*
X123023285Y-68127619D01*
X123070904Y-68222857D01*
X123070904Y-68318095D01*
X123023285Y-68413333D01*
X122975666Y-68460952D01*
X122880428Y-68508571D01*
X122547095Y-68508571D01*
X124070904Y-69032380D02*
X123499476Y-69032380D01*
X123785190Y-69032380D02*
X123785190Y-68032380D01*
X123689952Y-68175238D01*
X123594714Y-68270476D01*
X123499476Y-68318095D01*
X122118523Y-66492380D02*
X121547095Y-66492380D01*
X121832809Y-66492380D02*
X121832809Y-65492380D01*
X121737571Y-65635238D01*
X121642333Y-65730476D01*
X121547095Y-65778095D01*
X122880428Y-65968571D02*
X123023285Y-66016190D01*
X123070904Y-66063809D01*
X123118523Y-66159047D01*
X123118523Y-66301904D01*
X123070904Y-66397142D01*
X123023285Y-66444761D01*
X122928047Y-66492380D01*
X122547095Y-66492380D01*
X122547095Y-65492380D01*
X122880428Y-65492380D01*
X122975666Y-65540000D01*
X123023285Y-65587619D01*
X123070904Y-65682857D01*
X123070904Y-65778095D01*
X123023285Y-65873333D01*
X122975666Y-65920952D01*
X122880428Y-65968571D01*
X122547095Y-65968571D01*
X123689952Y-65920952D02*
X123594714Y-65873333D01*
X123547095Y-65825714D01*
X123499476Y-65730476D01*
X123499476Y-65682857D01*
X123547095Y-65587619D01*
X123594714Y-65540000D01*
X123689952Y-65492380D01*
X123880428Y-65492380D01*
X123975666Y-65540000D01*
X124023285Y-65587619D01*
X124070904Y-65682857D01*
X124070904Y-65730476D01*
X124023285Y-65825714D01*
X123975666Y-65873333D01*
X123880428Y-65920952D01*
X123689952Y-65920952D01*
X123594714Y-65968571D01*
X123547095Y-66016190D01*
X123499476Y-66111428D01*
X123499476Y-66301904D01*
X123547095Y-66397142D01*
X123594714Y-66444761D01*
X123689952Y-66492380D01*
X123880428Y-66492380D01*
X123975666Y-66444761D01*
X124023285Y-66397142D01*
X124070904Y-66301904D01*
X124070904Y-66111428D01*
X124023285Y-66016190D01*
X123975666Y-65968571D01*
X123880428Y-65920952D01*
X122118523Y-63952380D02*
X121547095Y-63952380D01*
X121832809Y-63952380D02*
X121832809Y-62952380D01*
X121737571Y-63095238D01*
X121642333Y-63190476D01*
X121547095Y-63238095D01*
X122880428Y-63428571D02*
X123023285Y-63476190D01*
X123070904Y-63523809D01*
X123118523Y-63619047D01*
X123118523Y-63761904D01*
X123070904Y-63857142D01*
X123023285Y-63904761D01*
X122928047Y-63952380D01*
X122547095Y-63952380D01*
X122547095Y-62952380D01*
X122880428Y-62952380D01*
X122975666Y-63000000D01*
X123023285Y-63047619D01*
X123070904Y-63142857D01*
X123070904Y-63238095D01*
X123023285Y-63333333D01*
X122975666Y-63380952D01*
X122880428Y-63428571D01*
X122547095Y-63428571D01*
X123451857Y-62952380D02*
X124118523Y-62952380D01*
X123689952Y-63952380D01*
X122047095Y-60460000D02*
X121951857Y-60412380D01*
X121809000Y-60412380D01*
X121666142Y-60460000D01*
X121570904Y-60555238D01*
X121523285Y-60650476D01*
X121475666Y-60840952D01*
X121475666Y-60983809D01*
X121523285Y-61174285D01*
X121570904Y-61269523D01*
X121666142Y-61364761D01*
X121809000Y-61412380D01*
X121904238Y-61412380D01*
X122047095Y-61364761D01*
X122094714Y-61317142D01*
X122094714Y-60983809D01*
X121904238Y-60983809D01*
X122523285Y-61412380D02*
X122523285Y-60412380D01*
X123094714Y-61412380D01*
X123094714Y-60412380D01*
X123570904Y-61412380D02*
X123570904Y-60412380D01*
X123809000Y-60412380D01*
X123951857Y-60460000D01*
X124047095Y-60555238D01*
X124094714Y-60650476D01*
X124142333Y-60840952D01*
X124142333Y-60983809D01*
X124094714Y-61174285D01*
X124047095Y-61269523D01*
X123951857Y-61364761D01*
X123809000Y-61412380D01*
X123570904Y-61412380D01*
X122118523Y-58872380D02*
X121547095Y-58872380D01*
X121832809Y-58872380D02*
X121832809Y-57872380D01*
X121737571Y-58015238D01*
X121642333Y-58110476D01*
X121547095Y-58158095D01*
X122880428Y-58348571D02*
X123023285Y-58396190D01*
X123070904Y-58443809D01*
X123118523Y-58539047D01*
X123118523Y-58681904D01*
X123070904Y-58777142D01*
X123023285Y-58824761D01*
X122928047Y-58872380D01*
X122547095Y-58872380D01*
X122547095Y-57872380D01*
X122880428Y-57872380D01*
X122975666Y-57920000D01*
X123023285Y-57967619D01*
X123070904Y-58062857D01*
X123070904Y-58158095D01*
X123023285Y-58253333D01*
X122975666Y-58300952D01*
X122880428Y-58348571D01*
X122547095Y-58348571D01*
X123975666Y-57872380D02*
X123785190Y-57872380D01*
X123689952Y-57920000D01*
X123642333Y-57967619D01*
X123547095Y-58110476D01*
X123499476Y-58300952D01*
X123499476Y-58681904D01*
X123547095Y-58777142D01*
X123594714Y-58824761D01*
X123689952Y-58872380D01*
X123880428Y-58872380D01*
X123975666Y-58824761D01*
X124023285Y-58777142D01*
X124070904Y-58681904D01*
X124070904Y-58443809D01*
X124023285Y-58348571D01*
X123975666Y-58300952D01*
X123880428Y-58253333D01*
X123689952Y-58253333D01*
X123594714Y-58300952D01*
X123547095Y-58348571D01*
X123499476Y-58443809D01*
X122118523Y-56332380D02*
X121547095Y-56332380D01*
X121832809Y-56332380D02*
X121832809Y-55332380D01*
X121737571Y-55475238D01*
X121642333Y-55570476D01*
X121547095Y-55618095D01*
X122880428Y-55808571D02*
X123023285Y-55856190D01*
X123070904Y-55903809D01*
X123118523Y-55999047D01*
X123118523Y-56141904D01*
X123070904Y-56237142D01*
X123023285Y-56284761D01*
X122928047Y-56332380D01*
X122547095Y-56332380D01*
X122547095Y-55332380D01*
X122880428Y-55332380D01*
X122975666Y-55380000D01*
X123023285Y-55427619D01*
X123070904Y-55522857D01*
X123070904Y-55618095D01*
X123023285Y-55713333D01*
X122975666Y-55760952D01*
X122880428Y-55808571D01*
X122547095Y-55808571D01*
X124023285Y-55332380D02*
X123547095Y-55332380D01*
X123499476Y-55808571D01*
X123547095Y-55760952D01*
X123642333Y-55713333D01*
X123880428Y-55713333D01*
X123975666Y-55760952D01*
X124023285Y-55808571D01*
X124070904Y-55903809D01*
X124070904Y-56141904D01*
X124023285Y-56237142D01*
X123975666Y-56284761D01*
X123880428Y-56332380D01*
X123642333Y-56332380D01*
X123547095Y-56284761D01*
X123499476Y-56237142D01*
X121404285Y-52792380D02*
X121737619Y-53792380D01*
X122070952Y-52792380D01*
X122975714Y-53697142D02*
X122928095Y-53744761D01*
X122785238Y-53792380D01*
X122690000Y-53792380D01*
X122547142Y-53744761D01*
X122451904Y-53649523D01*
X122404285Y-53554285D01*
X122356666Y-53363809D01*
X122356666Y-53220952D01*
X122404285Y-53030476D01*
X122451904Y-52935238D01*
X122547142Y-52840000D01*
X122690000Y-52792380D01*
X122785238Y-52792380D01*
X122928095Y-52840000D01*
X122975714Y-52887619D01*
X123975714Y-53697142D02*
X123928095Y-53744761D01*
X123785238Y-53792380D01*
X123690000Y-53792380D01*
X123547142Y-53744761D01*
X123451904Y-53649523D01*
X123404285Y-53554285D01*
X123356666Y-53363809D01*
X123356666Y-53220952D01*
X123404285Y-53030476D01*
X123451904Y-52935238D01*
X123547142Y-52840000D01*
X123690000Y-52792380D01*
X123785238Y-52792380D01*
X123928095Y-52840000D01*
X123975714Y-52887619D01*
X124404285Y-53792380D02*
X124404285Y-52792380D01*
X124404285Y-53173333D02*
X124499523Y-53125714D01*
X124690000Y-53125714D01*
X124785238Y-53173333D01*
X124832857Y-53220952D01*
X124880476Y-53316190D01*
X124880476Y-53601904D01*
X124832857Y-53697142D01*
X124785238Y-53744761D01*
X124690000Y-53792380D01*
X124499523Y-53792380D01*
X124404285Y-53744761D01*
X122118523Y-51252380D02*
X121547095Y-51252380D01*
X121832809Y-51252380D02*
X121832809Y-50252380D01*
X121737571Y-50395238D01*
X121642333Y-50490476D01*
X121547095Y-50538095D01*
X122880428Y-50728571D02*
X123023285Y-50776190D01*
X123070904Y-50823809D01*
X123118523Y-50919047D01*
X123118523Y-51061904D01*
X123070904Y-51157142D01*
X123023285Y-51204761D01*
X122928047Y-51252380D01*
X122547095Y-51252380D01*
X122547095Y-50252380D01*
X122880428Y-50252380D01*
X122975666Y-50300000D01*
X123023285Y-50347619D01*
X123070904Y-50442857D01*
X123070904Y-50538095D01*
X123023285Y-50633333D01*
X122975666Y-50680952D01*
X122880428Y-50728571D01*
X122547095Y-50728571D01*
X123975666Y-50585714D02*
X123975666Y-51252380D01*
X123737571Y-50204761D02*
X123499476Y-50919047D01*
X124118523Y-50919047D01*
X122118523Y-48712380D02*
X121547095Y-48712380D01*
X121832809Y-48712380D02*
X121832809Y-47712380D01*
X121737571Y-47855238D01*
X121642333Y-47950476D01*
X121547095Y-47998095D01*
X122880428Y-48188571D02*
X123023285Y-48236190D01*
X123070904Y-48283809D01*
X123118523Y-48379047D01*
X123118523Y-48521904D01*
X123070904Y-48617142D01*
X123023285Y-48664761D01*
X122928047Y-48712380D01*
X122547095Y-48712380D01*
X122547095Y-47712380D01*
X122880428Y-47712380D01*
X122975666Y-47760000D01*
X123023285Y-47807619D01*
X123070904Y-47902857D01*
X123070904Y-47998095D01*
X123023285Y-48093333D01*
X122975666Y-48140952D01*
X122880428Y-48188571D01*
X122547095Y-48188571D01*
X123451857Y-47712380D02*
X124070904Y-47712380D01*
X123737571Y-48093333D01*
X123880428Y-48093333D01*
X123975666Y-48140952D01*
X124023285Y-48188571D01*
X124070904Y-48283809D01*
X124070904Y-48521904D01*
X124023285Y-48617142D01*
X123975666Y-48664761D01*
X123880428Y-48712380D01*
X123594714Y-48712380D01*
X123499476Y-48664761D01*
X123451857Y-48617142D01*
X122047095Y-45220000D02*
X121951857Y-45172380D01*
X121809000Y-45172380D01*
X121666142Y-45220000D01*
X121570904Y-45315238D01*
X121523285Y-45410476D01*
X121475666Y-45600952D01*
X121475666Y-45743809D01*
X121523285Y-45934285D01*
X121570904Y-46029523D01*
X121666142Y-46124761D01*
X121809000Y-46172380D01*
X121904238Y-46172380D01*
X122047095Y-46124761D01*
X122094714Y-46077142D01*
X122094714Y-45743809D01*
X121904238Y-45743809D01*
X122523285Y-46172380D02*
X122523285Y-45172380D01*
X123094714Y-46172380D01*
X123094714Y-45172380D01*
X123570904Y-46172380D02*
X123570904Y-45172380D01*
X123809000Y-45172380D01*
X123951857Y-45220000D01*
X124047095Y-45315238D01*
X124094714Y-45410476D01*
X124142333Y-45600952D01*
X124142333Y-45743809D01*
X124094714Y-45934285D01*
X124047095Y-46029523D01*
X123951857Y-46124761D01*
X123809000Y-46172380D01*
X123570904Y-46172380D01*
X122118523Y-43632380D02*
X121547095Y-43632380D01*
X121832809Y-43632380D02*
X121832809Y-42632380D01*
X121737571Y-42775238D01*
X121642333Y-42870476D01*
X121547095Y-42918095D01*
X122880428Y-43108571D02*
X123023285Y-43156190D01*
X123070904Y-43203809D01*
X123118523Y-43299047D01*
X123118523Y-43441904D01*
X123070904Y-43537142D01*
X123023285Y-43584761D01*
X122928047Y-43632380D01*
X122547095Y-43632380D01*
X122547095Y-42632380D01*
X122880428Y-42632380D01*
X122975666Y-42680000D01*
X123023285Y-42727619D01*
X123070904Y-42822857D01*
X123070904Y-42918095D01*
X123023285Y-43013333D01*
X122975666Y-43060952D01*
X122880428Y-43108571D01*
X122547095Y-43108571D01*
X123499476Y-42727619D02*
X123547095Y-42680000D01*
X123642333Y-42632380D01*
X123880428Y-42632380D01*
X123975666Y-42680000D01*
X124023285Y-42727619D01*
X124070904Y-42822857D01*
X124070904Y-42918095D01*
X124023285Y-43060952D01*
X123451857Y-43632380D01*
X124070904Y-43632380D01*
X122118523Y-41092380D02*
X121547095Y-41092380D01*
X121832809Y-41092380D02*
X121832809Y-40092380D01*
X121737571Y-40235238D01*
X121642333Y-40330476D01*
X121547095Y-40378095D01*
X122880428Y-40568571D02*
X123023285Y-40616190D01*
X123070904Y-40663809D01*
X123118523Y-40759047D01*
X123118523Y-40901904D01*
X123070904Y-40997142D01*
X123023285Y-41044761D01*
X122928047Y-41092380D01*
X122547095Y-41092380D01*
X122547095Y-40092380D01*
X122880428Y-40092380D01*
X122975666Y-40140000D01*
X123023285Y-40187619D01*
X123070904Y-40282857D01*
X123070904Y-40378095D01*
X123023285Y-40473333D01*
X122975666Y-40520952D01*
X122880428Y-40568571D01*
X122547095Y-40568571D01*
X124070904Y-41092380D02*
X123499476Y-41092380D01*
X123785190Y-41092380D02*
X123785190Y-40092380D01*
X123689952Y-40235238D01*
X123594714Y-40330476D01*
X123499476Y-40378095D01*
X121920119Y-38552380D02*
X121348690Y-38552380D01*
X121634404Y-38552380D02*
X121634404Y-37552380D01*
X121539166Y-37695238D01*
X121443928Y-37790476D01*
X121348690Y-37838095D01*
X122348690Y-38552380D02*
X122348690Y-37552380D01*
X122586785Y-37552380D01*
X122729642Y-37600000D01*
X122824880Y-37695238D01*
X122872500Y-37790476D01*
X122920119Y-37980952D01*
X122920119Y-38123809D01*
X122872500Y-38314285D01*
X122824880Y-38409523D01*
X122729642Y-38504761D01*
X122586785Y-38552380D01*
X122348690Y-38552380D01*
X123348690Y-38552380D02*
X123348690Y-37552380D01*
X124396309Y-38552380D02*
X124062976Y-38076190D01*
X123824880Y-38552380D02*
X123824880Y-37552380D01*
X124205833Y-37552380D01*
X124301071Y-37600000D01*
X124348690Y-37647619D01*
X124396309Y-37742857D01*
X124396309Y-37885714D01*
X124348690Y-37980952D01*
X124301071Y-38028571D01*
X124205833Y-38076190D01*
X123824880Y-38076190D01*
D11*
X136842500Y-64099498D02*
X137096500Y-64099498D01*
X136842500Y-64480498D02*
X136842500Y-64099498D01*
X137096500Y-64480498D02*
X136842500Y-64480498D01*
X137096500Y-64099498D02*
X137096500Y-64480498D01*
X136842500Y-69099501D02*
X137096500Y-69099501D01*
X136842500Y-69480501D02*
X136842500Y-69099501D01*
X137096500Y-69480501D02*
X136842500Y-69480501D01*
X137096500Y-69099501D02*
X137096500Y-69480501D01*
X127317500Y-69599500D02*
X127063500Y-69599500D01*
X127317500Y-69980500D02*
X127317500Y-69599500D01*
X127063500Y-69980500D02*
X127317500Y-69980500D01*
X127063500Y-69599500D02*
X127063500Y-69980500D01*
X127317500Y-64599500D02*
X127063500Y-64599500D01*
X127317500Y-64980500D02*
X127317500Y-64599500D01*
X127063500Y-64980500D02*
X127317500Y-64980500D01*
X127063500Y-64599500D02*
X127063500Y-64980500D01*
X135305800Y-59613800D02*
X128854200Y-59613800D01*
X128854200Y-72466200D02*
X135305800Y-72466200D01*
D12*
X137651748Y-97230000D02*
X138174252Y-97230000D01*
X137651748Y-95810000D02*
X138174252Y-95810000D01*
X135873748Y-38810000D02*
X136396252Y-38810000D01*
X135873748Y-37390000D02*
X136396252Y-37390000D01*
X143450000Y-36770000D02*
X144780000Y-36770000D01*
X143450000Y-38100000D02*
X143450000Y-36770000D01*
X143450000Y-39370000D02*
X146110000Y-39370000D01*
X146110000Y-39370000D02*
X146110000Y-97850000D01*
X143450000Y-39370000D02*
X143450000Y-97850000D01*
X143450000Y-97850000D02*
X146110000Y-97850000D01*
X118050000Y-36770000D02*
X119380000Y-36770000D01*
X118050000Y-38100000D02*
X118050000Y-36770000D01*
X118050000Y-39370000D02*
X120710000Y-39370000D01*
X120710000Y-39370000D02*
X120710000Y-97850000D01*
X118050000Y-39370000D02*
X118050000Y-97850000D01*
X118050000Y-97850000D02*
X120710000Y-97850000D01*
X133198800Y-74677748D02*
X133198800Y-75200252D01*
X134618800Y-74677748D02*
X134618800Y-75200252D01*
X131012000Y-57402252D02*
X131012000Y-56879748D01*
X129592000Y-57402252D02*
X129592000Y-56879748D01*
X134542600Y-57402252D02*
X134542600Y-56879748D01*
X133122600Y-57402252D02*
X133122600Y-56879748D01*
X129592000Y-74677748D02*
X129592000Y-75200252D01*
X131012000Y-74677748D02*
X131012000Y-75200252D01*
D10*
X135255095Y-58126380D02*
X135255095Y-58935904D01*
X135302714Y-59031142D01*
X135350333Y-59078761D01*
X135445571Y-59126380D01*
X135636047Y-59126380D01*
X135731285Y-59078761D01*
X135778904Y-59031142D01*
X135826523Y-58935904D01*
X135826523Y-58126380D01*
X136826523Y-59126380D02*
X136255095Y-59126380D01*
X136540809Y-59126380D02*
X136540809Y-58126380D01*
X136445571Y-58269238D01*
X136350333Y-58364476D01*
X136255095Y-58412095D01*
X137771238Y-55881047D02*
X137723619Y-56023904D01*
X137723619Y-56262000D01*
X137771238Y-56357238D01*
X137818857Y-56404857D01*
X137914095Y-56452476D01*
X138009333Y-56452476D01*
X138104571Y-56404857D01*
X138152190Y-56357238D01*
X138199809Y-56262000D01*
X138247428Y-56071523D01*
X138295047Y-55976285D01*
X138342666Y-55928666D01*
X138437904Y-55881047D01*
X138533142Y-55881047D01*
X138628380Y-55928666D01*
X138676000Y-55976285D01*
X138723619Y-56071523D01*
X138723619Y-56309619D01*
X138676000Y-56452476D01*
X137723619Y-56881047D02*
X138723619Y-56881047D01*
X137723619Y-57452476D01*
X138723619Y-57452476D01*
X138723619Y-57833428D02*
X138723619Y-58500095D01*
X137723619Y-58071523D01*
X138390285Y-59309619D02*
X137723619Y-59309619D01*
X138771238Y-59071523D02*
X138056952Y-58833428D01*
X138056952Y-59452476D01*
X137723619Y-60309619D02*
X137723619Y-59833428D01*
X138723619Y-59833428D01*
X138723619Y-60500095D02*
X137723619Y-60833428D01*
X138723619Y-61166761D01*
X137818857Y-62071523D02*
X137771238Y-62023904D01*
X137723619Y-61881047D01*
X137723619Y-61785809D01*
X137771238Y-61642952D01*
X137866476Y-61547714D01*
X137961714Y-61500095D01*
X138152190Y-61452476D01*
X138295047Y-61452476D01*
X138485523Y-61500095D01*
X138580761Y-61547714D01*
X138676000Y-61642952D01*
X138723619Y-61785809D01*
X138723619Y-61881047D01*
X138676000Y-62023904D01*
X138628380Y-62071523D01*
X137723619Y-62500095D02*
X138723619Y-62500095D01*
X138247428Y-62500095D02*
X138247428Y-63071523D01*
X137723619Y-63071523D02*
X138723619Y-63071523D01*
X137723619Y-64071523D02*
X137723619Y-63500095D01*
X137723619Y-63785809D02*
X138723619Y-63785809D01*
X138580761Y-63690571D01*
X138485523Y-63595333D01*
X138437904Y-63500095D01*
X138723619Y-64928666D02*
X138723619Y-64738190D01*
X138676000Y-64642952D01*
X138628380Y-64595333D01*
X138485523Y-64500095D01*
X138295047Y-64452476D01*
X137914095Y-64452476D01*
X137818857Y-64500095D01*
X137771238Y-64547714D01*
X137723619Y-64642952D01*
X137723619Y-64833428D01*
X137771238Y-64928666D01*
X137818857Y-64976285D01*
X137914095Y-65023904D01*
X138152190Y-65023904D01*
X138247428Y-64976285D01*
X138295047Y-64928666D01*
X138342666Y-64833428D01*
X138342666Y-64642952D01*
X138295047Y-64547714D01*
X138247428Y-64500095D01*
X138152190Y-64452476D01*
X138723619Y-65309619D02*
X138723619Y-65881047D01*
X137723619Y-65595333D02*
X138723619Y-65595333D01*
X138628380Y-66166761D02*
X138676000Y-66214380D01*
X138723619Y-66309619D01*
X138723619Y-66547714D01*
X138676000Y-66642952D01*
X138628380Y-66690571D01*
X138533142Y-66738190D01*
X138437904Y-66738190D01*
X138295047Y-66690571D01*
X137723619Y-66119142D01*
X137723619Y-66738190D01*
X138390285Y-67595333D02*
X137723619Y-67595333D01*
X138771238Y-67357238D02*
X138056952Y-67119142D01*
X138056952Y-67738190D01*
X138723619Y-68595333D02*
X138723619Y-68119142D01*
X138247428Y-68071523D01*
X138295047Y-68119142D01*
X138342666Y-68214380D01*
X138342666Y-68452476D01*
X138295047Y-68547714D01*
X138247428Y-68595333D01*
X138152190Y-68642952D01*
X137914095Y-68642952D01*
X137818857Y-68595333D01*
X137771238Y-68547714D01*
X137723619Y-68452476D01*
X137723619Y-68214380D01*
X137771238Y-68119142D01*
X137818857Y-68071523D01*
X137723619Y-69071523D02*
X138723619Y-69071523D01*
X138723619Y-69309619D01*
X138676000Y-69452476D01*
X138580761Y-69547714D01*
X138485523Y-69595333D01*
X138295047Y-69642952D01*
X138152190Y-69642952D01*
X137961714Y-69595333D01*
X137866476Y-69547714D01*
X137771238Y-69452476D01*
X137723619Y-69309619D01*
X137723619Y-69071523D01*
X138676000Y-70595333D02*
X138723619Y-70500095D01*
X138723619Y-70357238D01*
X138676000Y-70214380D01*
X138580761Y-70119142D01*
X138485523Y-70071523D01*
X138295047Y-70023904D01*
X138152190Y-70023904D01*
X137961714Y-70071523D01*
X137866476Y-70119142D01*
X137771238Y-70214380D01*
X137723619Y-70357238D01*
X137723619Y-70452476D01*
X137771238Y-70595333D01*
X137818857Y-70642952D01*
X138152190Y-70642952D01*
X138152190Y-70452476D01*
X138676000Y-71595333D02*
X138723619Y-71500095D01*
X138723619Y-71357238D01*
X138676000Y-71214380D01*
X138580761Y-71119142D01*
X138485523Y-71071523D01*
X138295047Y-71023904D01*
X138152190Y-71023904D01*
X137961714Y-71071523D01*
X137866476Y-71119142D01*
X137771238Y-71214380D01*
X137723619Y-71357238D01*
X137723619Y-71452476D01*
X137771238Y-71595333D01*
X137818857Y-71642952D01*
X138152190Y-71642952D01*
X138152190Y-71452476D01*
X137723619Y-72642952D02*
X138199809Y-72309619D01*
X137723619Y-72071523D02*
X138723619Y-72071523D01*
X138723619Y-72452476D01*
X138676000Y-72547714D01*
X138628380Y-72595333D01*
X138533142Y-72642952D01*
X138390285Y-72642952D01*
X138295047Y-72595333D01*
X138247428Y-72547714D01*
X138199809Y-72452476D01*
X138199809Y-72071523D01*
X129362200Y-59269380D02*
X129362200Y-59507476D01*
X129124104Y-59412238D02*
X129362200Y-59507476D01*
X129600295Y-59412238D01*
X129219342Y-59697952D02*
X129362200Y-59507476D01*
X129505057Y-59697952D01*
X129362200Y-59269380D02*
X129362200Y-59507476D01*
X129124104Y-59412238D02*
X129362200Y-59507476D01*
X129600295Y-59412238D01*
X129219342Y-59697952D02*
X129362200Y-59507476D01*
X129505057Y-59697952D01*
X137746333Y-95322380D02*
X137413000Y-94846190D01*
X137174904Y-95322380D02*
X137174904Y-94322380D01*
X137555857Y-94322380D01*
X137651095Y-94370000D01*
X137698714Y-94417619D01*
X137746333Y-94512857D01*
X137746333Y-94655714D01*
X137698714Y-94750952D01*
X137651095Y-94798571D01*
X137555857Y-94846190D01*
X137174904Y-94846190D01*
X138127285Y-94417619D02*
X138174904Y-94370000D01*
X138270142Y-94322380D01*
X138508238Y-94322380D01*
X138603476Y-94370000D01*
X138651095Y-94417619D01*
X138698714Y-94512857D01*
X138698714Y-94608095D01*
X138651095Y-94750952D01*
X138079666Y-95322380D01*
X138698714Y-95322380D01*
X136993333Y-37028380D02*
X136660000Y-36552190D01*
X136421904Y-37028380D02*
X136421904Y-36028380D01*
X136802857Y-36028380D01*
X136898095Y-36076000D01*
X136945714Y-36123619D01*
X136993333Y-36218857D01*
X136993333Y-36361714D01*
X136945714Y-36456952D01*
X136898095Y-36504571D01*
X136802857Y-36552190D01*
X136421904Y-36552190D01*
X137945714Y-37028380D02*
X137374285Y-37028380D01*
X137660000Y-37028380D02*
X137660000Y-36028380D01*
X137564761Y-36171238D01*
X137469523Y-36266476D01*
X137374285Y-36314095D01*
X144446666Y-35520380D02*
X144446666Y-36234666D01*
X144399047Y-36377523D01*
X144303809Y-36472761D01*
X144160952Y-36520380D01*
X144065714Y-36520380D01*
X144875238Y-35615619D02*
X144922857Y-35568000D01*
X145018095Y-35520380D01*
X145256190Y-35520380D01*
X145351428Y-35568000D01*
X145399047Y-35615619D01*
X145446666Y-35710857D01*
X145446666Y-35806095D01*
X145399047Y-35948952D01*
X144827619Y-36520380D01*
X145446666Y-36520380D01*
X119046666Y-35520380D02*
X119046666Y-36234666D01*
X118999047Y-36377523D01*
X118903809Y-36472761D01*
X118760952Y-36520380D01*
X118665714Y-36520380D01*
X120046666Y-36520380D02*
X119475238Y-36520380D01*
X119760952Y-36520380D02*
X119760952Y-35520380D01*
X119665714Y-35663238D01*
X119570476Y-35758476D01*
X119475238Y-35806095D01*
X133742133Y-77827142D02*
X133694514Y-77874761D01*
X133551657Y-77922380D01*
X133456419Y-77922380D01*
X133313561Y-77874761D01*
X133218323Y-77779523D01*
X133170704Y-77684285D01*
X133123085Y-77493809D01*
X133123085Y-77350952D01*
X133170704Y-77160476D01*
X133218323Y-77065238D01*
X133313561Y-76970000D01*
X133456419Y-76922380D01*
X133551657Y-76922380D01*
X133694514Y-76970000D01*
X133742133Y-77017619D01*
X134599276Y-77255714D02*
X134599276Y-77922380D01*
X134361180Y-76874761D02*
X134123085Y-77589047D01*
X134742133Y-77589047D01*
X130135333Y-54967142D02*
X130087714Y-55014761D01*
X129944857Y-55062380D01*
X129849619Y-55062380D01*
X129706761Y-55014761D01*
X129611523Y-54919523D01*
X129563904Y-54824285D01*
X129516285Y-54633809D01*
X129516285Y-54490952D01*
X129563904Y-54300476D01*
X129611523Y-54205238D01*
X129706761Y-54110000D01*
X129849619Y-54062380D01*
X129944857Y-54062380D01*
X130087714Y-54110000D01*
X130135333Y-54157619D01*
X130468666Y-54062380D02*
X131087714Y-54062380D01*
X130754380Y-54443333D01*
X130897238Y-54443333D01*
X130992476Y-54490952D01*
X131040095Y-54538571D01*
X131087714Y-54633809D01*
X131087714Y-54871904D01*
X131040095Y-54967142D01*
X130992476Y-55014761D01*
X130897238Y-55062380D01*
X130611523Y-55062380D01*
X130516285Y-55014761D01*
X130468666Y-54967142D01*
X133665933Y-55076142D02*
X133618314Y-55123761D01*
X133475457Y-55171380D01*
X133380219Y-55171380D01*
X133237361Y-55123761D01*
X133142123Y-55028523D01*
X133094504Y-54933285D01*
X133046885Y-54742809D01*
X133046885Y-54599952D01*
X133094504Y-54409476D01*
X133142123Y-54314238D01*
X133237361Y-54219000D01*
X133380219Y-54171380D01*
X133475457Y-54171380D01*
X133618314Y-54219000D01*
X133665933Y-54266619D01*
X134046885Y-54266619D02*
X134094504Y-54219000D01*
X134189742Y-54171380D01*
X134427838Y-54171380D01*
X134523076Y-54219000D01*
X134570695Y-54266619D01*
X134618314Y-54361857D01*
X134618314Y-54457095D01*
X134570695Y-54599952D01*
X133999266Y-55171380D01*
X134618314Y-55171380D01*
X130135333Y-77827142D02*
X130087714Y-77874761D01*
X129944857Y-77922380D01*
X129849619Y-77922380D01*
X129706761Y-77874761D01*
X129611523Y-77779523D01*
X129563904Y-77684285D01*
X129516285Y-77493809D01*
X129516285Y-77350952D01*
X129563904Y-77160476D01*
X129611523Y-77065238D01*
X129706761Y-76970000D01*
X129849619Y-76922380D01*
X129944857Y-76922380D01*
X130087714Y-76970000D01*
X130135333Y-77017619D01*
X131087714Y-77922380D02*
X130516285Y-77922380D01*
X130802000Y-77922380D02*
X130802000Y-76922380D01*
X130706761Y-77065238D01*
X130611523Y-77160476D01*
X130516285Y-77208095D01*
M02*
