M48
; DRILL file {KiCad (5.1.5)-3} date 5/6/2020 8:42:23 PM
; FORMAT={-:-/ absolute / inch / decimal}
; #@! TF.CreationDate,2020-05-06T20:42:23-04:00
; #@! TF.GenerationSoftware,Kicad,Pcbnew,(5.1.5)-3
FMAT,2
INCH
T1C0.0295
T2C0.0300
T3C0.0315
T4C0.0394
T5C0.0394
T6C0.0571
T7C0.1350
%
G90
G05
T1
X6.1705Y-3.3177
X6.2205Y-3.2677
X6.2705Y-3.3177
X5.9146Y-2.8791
X5.9646Y-2.9291
X6.0146Y-2.8791
T2
X5.128Y-3.061
X5.128Y-3.1988
X4.9508Y-3.3563
X5.0886Y-3.3563
X4.9508Y-3.061
X4.9508Y-3.1988
T3
X5.6457Y-3.4843
X5.7441Y-3.4843
X5.2323Y-2.878
X5.3307Y-2.878
X6.8701Y-2.874
X6.9685Y-2.874
X5.335Y-3.2972
X5.935Y-3.2972
X6.7618Y-3.1299
X6.7618Y-3.3299
X6.8618Y-3.2299
X5.9843Y-3.4843
X6.5843Y-3.4843
X6.9882Y-3.2283
X7.0866Y-3.2283
X5.8268Y-3.6614
X5.9252Y-3.6614
X6.4469Y-3.8583
X7.0469Y-3.8583
X5.1874Y-3.8583
X5.7874Y-3.8583
X4.9331Y-3.689
X5.5331Y-3.689
X4.9331Y-3.5394
X5.5331Y-3.5394
X6.1417Y-2.8346
X6.7417Y-2.8346
X5.3307Y-3.124
X5.9307Y-3.124
X6.2402Y-3.0709
X6.3402Y-2.9709
X6.4402Y-3.0709
T4
X6.3386Y-3.6614
X6.3386Y-3.8583
X6.2008Y-3.6614
X6.2008Y-3.8583
X6.063Y-3.6614
X6.063Y-3.8583
X5.7598Y-2.878
T5
X5.565Y-2.878
X7.3622Y-3.2283
T6
X7.3622Y-3.4803
T7
X7.4902Y-2.8839
X4.9311Y-3.8681
X4.9311Y-2.8839
X7.4902Y-3.8681
T0
M30
