G04 #@! TF.GenerationSoftware,KiCad,Pcbnew,(5.1.5)-3*
G04 #@! TF.CreationDate,2020-05-06T20:42:18-04:00*
G04 #@! TF.ProjectId,2ToneSineGenSSB,32546f6e-6553-4696-9e65-47656e535342,rev?*
G04 #@! TF.SameCoordinates,Original*
G04 #@! TF.FileFunction,Legend,Top*
G04 #@! TF.FilePolarity,Positive*
%FSLAX46Y46*%
G04 Gerber Fmt 4.6, Leading zero omitted, Abs format (unit mm)*
G04 Created by KiCad (PCBNEW (5.1.5)-3) date 2020-05-06 20:42:18*
%MOMM*%
%LPD*%
G04 APERTURE LIST*
%ADD10C,0.150000*%
%ADD11C,0.120000*%
%ADD12C,0.152400*%
G04 APERTURE END LIST*
D10*
X168453571Y-93308928D02*
X168560714Y-93344642D01*
X168596428Y-93380357D01*
X168632142Y-93451785D01*
X168632142Y-93558928D01*
X168596428Y-93630357D01*
X168560714Y-93666071D01*
X168489285Y-93701785D01*
X168203571Y-93701785D01*
X168203571Y-92951785D01*
X168453571Y-92951785D01*
X168525000Y-92987500D01*
X168560714Y-93023214D01*
X168596428Y-93094642D01*
X168596428Y-93166071D01*
X168560714Y-93237500D01*
X168525000Y-93273214D01*
X168453571Y-93308928D01*
X168203571Y-93308928D01*
X169096428Y-92951785D02*
X169239285Y-92951785D01*
X169310714Y-92987500D01*
X169382142Y-93058928D01*
X169417857Y-93201785D01*
X169417857Y-93451785D01*
X169382142Y-93594642D01*
X169310714Y-93666071D01*
X169239285Y-93701785D01*
X169096428Y-93701785D01*
X169025000Y-93666071D01*
X168953571Y-93594642D01*
X168917857Y-93451785D01*
X168917857Y-93201785D01*
X168953571Y-93058928D01*
X169025000Y-92987500D01*
X169096428Y-92951785D01*
X169703571Y-93487500D02*
X170060714Y-93487500D01*
X169632142Y-93701785D02*
X169882142Y-92951785D01*
X170132142Y-93701785D01*
X170810714Y-93701785D02*
X170560714Y-93344642D01*
X170382142Y-93701785D02*
X170382142Y-92951785D01*
X170667857Y-92951785D01*
X170739285Y-92987500D01*
X170775000Y-93023214D01*
X170810714Y-93094642D01*
X170810714Y-93201785D01*
X170775000Y-93273214D01*
X170739285Y-93308928D01*
X170667857Y-93344642D01*
X170382142Y-93344642D01*
X171132142Y-93701785D02*
X171132142Y-92951785D01*
X171310714Y-92951785D01*
X171417857Y-92987500D01*
X171489285Y-93058928D01*
X171525000Y-93130357D01*
X171560714Y-93273214D01*
X171560714Y-93380357D01*
X171525000Y-93523214D01*
X171489285Y-93594642D01*
X171417857Y-93666071D01*
X171310714Y-93701785D01*
X171132142Y-93701785D01*
X172453571Y-93701785D02*
X172453571Y-92951785D01*
X172632142Y-92951785D01*
X172739285Y-92987500D01*
X172810714Y-93058928D01*
X172846428Y-93130357D01*
X172882142Y-93273214D01*
X172882142Y-93380357D01*
X172846428Y-93523214D01*
X172810714Y-93594642D01*
X172739285Y-93666071D01*
X172632142Y-93701785D01*
X172453571Y-93701785D01*
X173203571Y-93308928D02*
X173453571Y-93308928D01*
X173560714Y-93701785D02*
X173203571Y-93701785D01*
X173203571Y-92951785D01*
X173560714Y-92951785D01*
X173846428Y-93666071D02*
X173953571Y-93701785D01*
X174132142Y-93701785D01*
X174203571Y-93666071D01*
X174239285Y-93630357D01*
X174275000Y-93558928D01*
X174275000Y-93487500D01*
X174239285Y-93416071D01*
X174203571Y-93380357D01*
X174132142Y-93344642D01*
X173989285Y-93308928D01*
X173917857Y-93273214D01*
X173882142Y-93237500D01*
X173846428Y-93166071D01*
X173846428Y-93094642D01*
X173882142Y-93023214D01*
X173917857Y-92987500D01*
X173989285Y-92951785D01*
X174167857Y-92951785D01*
X174275000Y-92987500D01*
X174596428Y-93701785D02*
X174596428Y-92951785D01*
X175346428Y-92987500D02*
X175275000Y-92951785D01*
X175167857Y-92951785D01*
X175060714Y-92987500D01*
X174989285Y-93058928D01*
X174953571Y-93130357D01*
X174917857Y-93273214D01*
X174917857Y-93380357D01*
X174953571Y-93523214D01*
X174989285Y-93594642D01*
X175060714Y-93666071D01*
X175167857Y-93701785D01*
X175239285Y-93701785D01*
X175346428Y-93666071D01*
X175382142Y-93630357D01*
X175382142Y-93380357D01*
X175239285Y-93380357D01*
X175703571Y-93701785D02*
X175703571Y-92951785D01*
X176132142Y-93701785D01*
X176132142Y-92951785D01*
X177310714Y-93308928D02*
X177417857Y-93344642D01*
X177453571Y-93380357D01*
X177489285Y-93451785D01*
X177489285Y-93558928D01*
X177453571Y-93630357D01*
X177417857Y-93666071D01*
X177346428Y-93701785D01*
X177060714Y-93701785D01*
X177060714Y-92951785D01*
X177310714Y-92951785D01*
X177382142Y-92987500D01*
X177417857Y-93023214D01*
X177453571Y-93094642D01*
X177453571Y-93166071D01*
X177417857Y-93237500D01*
X177382142Y-93273214D01*
X177310714Y-93308928D01*
X177060714Y-93308928D01*
X177953571Y-93344642D02*
X177953571Y-93701785D01*
X177703571Y-92951785D02*
X177953571Y-93344642D01*
X178203571Y-92951785D01*
X178989285Y-93666071D02*
X179096428Y-93701785D01*
X179275000Y-93701785D01*
X179346428Y-93666071D01*
X179382142Y-93630357D01*
X179417857Y-93558928D01*
X179417857Y-93487500D01*
X179382142Y-93416071D01*
X179346428Y-93380357D01*
X179275000Y-93344642D01*
X179132142Y-93308928D01*
X179060714Y-93273214D01*
X179025000Y-93237500D01*
X178989285Y-93166071D01*
X178989285Y-93094642D01*
X179025000Y-93023214D01*
X179060714Y-92987500D01*
X179132142Y-92951785D01*
X179310714Y-92951785D01*
X179417857Y-92987500D01*
X179739285Y-93701785D02*
X179739285Y-92951785D01*
X180167857Y-93701785D02*
X179846428Y-93273214D01*
X180167857Y-92951785D02*
X179739285Y-93380357D01*
X180632142Y-93344642D02*
X180632142Y-93701785D01*
X180382142Y-92951785D02*
X180632142Y-93344642D01*
X180882142Y-92951785D01*
X181132142Y-93308928D02*
X181382142Y-93308928D01*
X181489285Y-93701785D02*
X181132142Y-93701785D01*
X181132142Y-92951785D01*
X181489285Y-92951785D01*
X182382142Y-93308928D02*
X182632142Y-93308928D01*
X182739285Y-93701785D02*
X182382142Y-93701785D01*
X182382142Y-92951785D01*
X182739285Y-92951785D01*
X183489285Y-93701785D02*
X183239285Y-93344642D01*
X183060714Y-93701785D02*
X183060714Y-92951785D01*
X183346428Y-92951785D01*
X183417857Y-92987500D01*
X183453571Y-93023214D01*
X183489285Y-93094642D01*
X183489285Y-93201785D01*
X183453571Y-93273214D01*
X183417857Y-93308928D01*
X183346428Y-93344642D01*
X183060714Y-93344642D01*
X183810714Y-93701785D02*
X183810714Y-92951785D01*
X184239285Y-93701785D01*
X184239285Y-92951785D01*
X184560714Y-93666071D02*
X184667857Y-93701785D01*
X184846428Y-93701785D01*
X184917857Y-93666071D01*
X184953571Y-93630357D01*
X184989285Y-93558928D01*
X184989285Y-93487500D01*
X184953571Y-93416071D01*
X184917857Y-93380357D01*
X184846428Y-93344642D01*
X184703571Y-93308928D01*
X184632142Y-93273214D01*
X184596428Y-93237500D01*
X184560714Y-93166071D01*
X184560714Y-93094642D01*
X184596428Y-93023214D01*
X184632142Y-92987500D01*
X184703571Y-92951785D01*
X184882142Y-92951785D01*
X184989285Y-92987500D01*
X185203571Y-92951785D02*
X185632142Y-92951785D01*
X185417857Y-93701785D02*
X185417857Y-92951785D01*
X169292857Y-94405357D02*
X169221428Y-94369642D01*
X169078571Y-94369642D01*
X169007142Y-94405357D01*
X168935714Y-94476785D01*
X168900000Y-94548214D01*
X168900000Y-94691071D01*
X168935714Y-94762500D01*
X169007142Y-94833928D01*
X169078571Y-94869642D01*
X169221428Y-94869642D01*
X169292857Y-94833928D01*
X169150000Y-94119642D02*
X168971428Y-94155357D01*
X168792857Y-94262500D01*
X168685714Y-94441071D01*
X168650000Y-94619642D01*
X168685714Y-94798214D01*
X168792857Y-94976785D01*
X168971428Y-95083928D01*
X169150000Y-95119642D01*
X169328571Y-95083928D01*
X169507142Y-94976785D01*
X169614285Y-94798214D01*
X169650000Y-94619642D01*
X169614285Y-94441071D01*
X169507142Y-94262500D01*
X169328571Y-94155357D01*
X169150000Y-94119642D01*
X169935714Y-94298214D02*
X169971428Y-94262500D01*
X170042857Y-94226785D01*
X170221428Y-94226785D01*
X170292857Y-94262500D01*
X170328571Y-94298214D01*
X170364285Y-94369642D01*
X170364285Y-94441071D01*
X170328571Y-94548214D01*
X169900000Y-94976785D01*
X170364285Y-94976785D01*
X170828571Y-94226785D02*
X170900000Y-94226785D01*
X170971428Y-94262500D01*
X171007142Y-94298214D01*
X171042857Y-94369642D01*
X171078571Y-94512500D01*
X171078571Y-94691071D01*
X171042857Y-94833928D01*
X171007142Y-94905357D01*
X170971428Y-94941071D01*
X170900000Y-94976785D01*
X170828571Y-94976785D01*
X170757142Y-94941071D01*
X170721428Y-94905357D01*
X170685714Y-94833928D01*
X170650000Y-94691071D01*
X170650000Y-94512500D01*
X170685714Y-94369642D01*
X170721428Y-94298214D01*
X170757142Y-94262500D01*
X170828571Y-94226785D01*
X171364285Y-94298214D02*
X171400000Y-94262500D01*
X171471428Y-94226785D01*
X171650000Y-94226785D01*
X171721428Y-94262500D01*
X171757142Y-94298214D01*
X171792857Y-94369642D01*
X171792857Y-94441071D01*
X171757142Y-94548214D01*
X171328571Y-94976785D01*
X171792857Y-94976785D01*
X172257142Y-94226785D02*
X172328571Y-94226785D01*
X172400000Y-94262500D01*
X172435714Y-94298214D01*
X172471428Y-94369642D01*
X172507142Y-94512500D01*
X172507142Y-94691071D01*
X172471428Y-94833928D01*
X172435714Y-94905357D01*
X172400000Y-94941071D01*
X172328571Y-94976785D01*
X172257142Y-94976785D01*
X172185714Y-94941071D01*
X172150000Y-94905357D01*
X172114285Y-94833928D01*
X172078571Y-94691071D01*
X172078571Y-94512500D01*
X172114285Y-94369642D01*
X172150000Y-94298214D01*
X172185714Y-94262500D01*
X172257142Y-94226785D01*
X173364285Y-94762500D02*
X173721428Y-94762500D01*
X173292857Y-94976785D02*
X173542857Y-94226785D01*
X173792857Y-94976785D01*
X174400000Y-94976785D02*
X174042857Y-94976785D01*
X174042857Y-94226785D01*
X175007142Y-94976785D02*
X174650000Y-94976785D01*
X174650000Y-94226785D01*
X176257142Y-94976785D02*
X176007142Y-94619642D01*
X175828571Y-94976785D02*
X175828571Y-94226785D01*
X176114285Y-94226785D01*
X176185714Y-94262500D01*
X176221428Y-94298214D01*
X176257142Y-94369642D01*
X176257142Y-94476785D01*
X176221428Y-94548214D01*
X176185714Y-94583928D01*
X176114285Y-94619642D01*
X175828571Y-94619642D01*
X176578571Y-94976785D02*
X176578571Y-94226785D01*
X177328571Y-94262500D02*
X177257142Y-94226785D01*
X177150000Y-94226785D01*
X177042857Y-94262500D01*
X176971428Y-94333928D01*
X176935714Y-94405357D01*
X176900000Y-94548214D01*
X176900000Y-94655357D01*
X176935714Y-94798214D01*
X176971428Y-94869642D01*
X177042857Y-94941071D01*
X177150000Y-94976785D01*
X177221428Y-94976785D01*
X177328571Y-94941071D01*
X177364285Y-94905357D01*
X177364285Y-94655357D01*
X177221428Y-94655357D01*
X177685714Y-94976785D02*
X177685714Y-94226785D01*
X177685714Y-94583928D02*
X178114285Y-94583928D01*
X178114285Y-94976785D02*
X178114285Y-94226785D01*
X178364285Y-94226785D02*
X178792857Y-94226785D01*
X178578571Y-94976785D02*
X178578571Y-94226785D01*
X179007142Y-94941071D02*
X179114285Y-94976785D01*
X179292857Y-94976785D01*
X179364285Y-94941071D01*
X179400000Y-94905357D01*
X179435714Y-94833928D01*
X179435714Y-94762500D01*
X179400000Y-94691071D01*
X179364285Y-94655357D01*
X179292857Y-94619642D01*
X179150000Y-94583928D01*
X179078571Y-94548214D01*
X179042857Y-94512500D01*
X179007142Y-94441071D01*
X179007142Y-94369642D01*
X179042857Y-94298214D01*
X179078571Y-94262500D01*
X179150000Y-94226785D01*
X179328571Y-94226785D01*
X179435714Y-94262500D01*
X180757142Y-94976785D02*
X180507142Y-94619642D01*
X180328571Y-94976785D02*
X180328571Y-94226785D01*
X180614285Y-94226785D01*
X180685714Y-94262500D01*
X180721428Y-94298214D01*
X180757142Y-94369642D01*
X180757142Y-94476785D01*
X180721428Y-94548214D01*
X180685714Y-94583928D01*
X180614285Y-94619642D01*
X180328571Y-94619642D01*
X181078571Y-94583928D02*
X181328571Y-94583928D01*
X181435714Y-94976785D02*
X181078571Y-94976785D01*
X181078571Y-94226785D01*
X181435714Y-94226785D01*
X181721428Y-94941071D02*
X181828571Y-94976785D01*
X182007142Y-94976785D01*
X182078571Y-94941071D01*
X182114285Y-94905357D01*
X182150000Y-94833928D01*
X182150000Y-94762500D01*
X182114285Y-94691071D01*
X182078571Y-94655357D01*
X182007142Y-94619642D01*
X181864285Y-94583928D01*
X181792857Y-94548214D01*
X181757142Y-94512500D01*
X181721428Y-94441071D01*
X181721428Y-94369642D01*
X181757142Y-94298214D01*
X181792857Y-94262500D01*
X181864285Y-94226785D01*
X182042857Y-94226785D01*
X182150000Y-94262500D01*
X182471428Y-94583928D02*
X182721428Y-94583928D01*
X182828571Y-94976785D02*
X182471428Y-94976785D01*
X182471428Y-94226785D01*
X182828571Y-94226785D01*
X183578571Y-94976785D02*
X183328571Y-94619642D01*
X183150000Y-94976785D02*
X183150000Y-94226785D01*
X183435714Y-94226785D01*
X183507142Y-94262500D01*
X183542857Y-94298214D01*
X183578571Y-94369642D01*
X183578571Y-94476785D01*
X183542857Y-94548214D01*
X183507142Y-94583928D01*
X183435714Y-94619642D01*
X183150000Y-94619642D01*
X183792857Y-94226785D02*
X184042857Y-94976785D01*
X184292857Y-94226785D01*
X184542857Y-94583928D02*
X184792857Y-94583928D01*
X184900000Y-94976785D02*
X184542857Y-94976785D01*
X184542857Y-94226785D01*
X184900000Y-94226785D01*
X185221428Y-94976785D02*
X185221428Y-94226785D01*
X185400000Y-94226785D01*
X185507142Y-94262500D01*
X185578571Y-94333928D01*
X185614285Y-94405357D01*
X185650000Y-94548214D01*
X185650000Y-94655357D01*
X185614285Y-94798214D01*
X185578571Y-94869642D01*
X185507142Y-94941071D01*
X185400000Y-94976785D01*
X185221428Y-94976785D01*
X172185714Y-91030357D02*
X172150000Y-91066071D01*
X172042857Y-91101785D01*
X171971428Y-91101785D01*
X171864285Y-91066071D01*
X171792857Y-90994642D01*
X171757142Y-90923214D01*
X171721428Y-90780357D01*
X171721428Y-90673214D01*
X171757142Y-90530357D01*
X171792857Y-90458928D01*
X171864285Y-90387500D01*
X171971428Y-90351785D01*
X172042857Y-90351785D01*
X172150000Y-90387500D01*
X172185714Y-90423214D01*
X172507142Y-91101785D02*
X172507142Y-90351785D01*
X173292857Y-91101785D02*
X173042857Y-90744642D01*
X172864285Y-91101785D02*
X172864285Y-90351785D01*
X173150000Y-90351785D01*
X173221428Y-90387500D01*
X173257142Y-90423214D01*
X173292857Y-90494642D01*
X173292857Y-90601785D01*
X173257142Y-90673214D01*
X173221428Y-90708928D01*
X173150000Y-90744642D01*
X172864285Y-90744642D01*
X174042857Y-91030357D02*
X174007142Y-91066071D01*
X173900000Y-91101785D01*
X173828571Y-91101785D01*
X173721428Y-91066071D01*
X173650000Y-90994642D01*
X173614285Y-90923214D01*
X173578571Y-90780357D01*
X173578571Y-90673214D01*
X173614285Y-90530357D01*
X173650000Y-90458928D01*
X173721428Y-90387500D01*
X173828571Y-90351785D01*
X173900000Y-90351785D01*
X174007142Y-90387500D01*
X174042857Y-90423214D01*
X174364285Y-90351785D02*
X174364285Y-90958928D01*
X174400000Y-91030357D01*
X174435714Y-91066071D01*
X174507142Y-91101785D01*
X174650000Y-91101785D01*
X174721428Y-91066071D01*
X174757142Y-91030357D01*
X174792857Y-90958928D01*
X174792857Y-90351785D01*
X175150000Y-91101785D02*
X175150000Y-90351785D01*
X175400000Y-90351785D02*
X175828571Y-90351785D01*
X175614285Y-91101785D02*
X175614285Y-90351785D01*
X176900000Y-90708928D02*
X177007142Y-90744642D01*
X177042857Y-90780357D01*
X177078571Y-90851785D01*
X177078571Y-90958928D01*
X177042857Y-91030357D01*
X177007142Y-91066071D01*
X176935714Y-91101785D01*
X176650000Y-91101785D01*
X176650000Y-90351785D01*
X176900000Y-90351785D01*
X176971428Y-90387500D01*
X177007142Y-90423214D01*
X177042857Y-90494642D01*
X177042857Y-90566071D01*
X177007142Y-90637500D01*
X176971428Y-90673214D01*
X176900000Y-90708928D01*
X176650000Y-90708928D01*
X177542857Y-90744642D02*
X177542857Y-91101785D01*
X177292857Y-90351785D02*
X177542857Y-90744642D01*
X177792857Y-90351785D01*
X178614285Y-91101785D02*
X178614285Y-90351785D01*
X178792857Y-90351785D01*
X178900000Y-90387500D01*
X178971428Y-90458928D01*
X179007142Y-90530357D01*
X179042857Y-90673214D01*
X179042857Y-90780357D01*
X179007142Y-90923214D01*
X178971428Y-90994642D01*
X178900000Y-91066071D01*
X178792857Y-91101785D01*
X178614285Y-91101785D01*
X179364285Y-91101785D02*
X179364285Y-90351785D01*
X179792857Y-91101785D02*
X179471428Y-90673214D01*
X179792857Y-90351785D02*
X179364285Y-90780357D01*
X180042857Y-90351785D02*
X180542857Y-90351785D01*
X180221428Y-91101785D01*
X180828571Y-91101785D02*
X180828571Y-90351785D01*
X181185714Y-91101785D02*
X181185714Y-90351785D01*
X181185714Y-90708928D02*
X181614285Y-90708928D01*
X181614285Y-91101785D02*
X181614285Y-90351785D01*
X182007142Y-91066071D02*
X182007142Y-91101785D01*
X181971428Y-91173214D01*
X181935714Y-91208928D01*
X170864285Y-92376785D02*
X170864285Y-91626785D01*
X171150000Y-91626785D01*
X171221428Y-91662500D01*
X171257142Y-91698214D01*
X171292857Y-91769642D01*
X171292857Y-91876785D01*
X171257142Y-91948214D01*
X171221428Y-91983928D01*
X171150000Y-92019642D01*
X170864285Y-92019642D01*
X171614285Y-91983928D02*
X171864285Y-91983928D01*
X171971428Y-92376785D02*
X171614285Y-92376785D01*
X171614285Y-91626785D01*
X171971428Y-91626785D01*
X172185714Y-91626785D02*
X172614285Y-91626785D01*
X172400000Y-92376785D02*
X172400000Y-91626785D01*
X172864285Y-91983928D02*
X173114285Y-91983928D01*
X173221428Y-92376785D02*
X172864285Y-92376785D01*
X172864285Y-91626785D01*
X173221428Y-91626785D01*
X173971428Y-92376785D02*
X173721428Y-92019642D01*
X173542857Y-92376785D02*
X173542857Y-91626785D01*
X173828571Y-91626785D01*
X173900000Y-91662500D01*
X173935714Y-91698214D01*
X173971428Y-91769642D01*
X173971428Y-91876785D01*
X173935714Y-91948214D01*
X173900000Y-91983928D01*
X173828571Y-92019642D01*
X173542857Y-92019642D01*
X175292857Y-92376785D02*
X175042857Y-92019642D01*
X174864285Y-92376785D02*
X174864285Y-91626785D01*
X175150000Y-91626785D01*
X175221428Y-91662500D01*
X175257142Y-91698214D01*
X175292857Y-91769642D01*
X175292857Y-91876785D01*
X175257142Y-91948214D01*
X175221428Y-91983928D01*
X175150000Y-92019642D01*
X174864285Y-92019642D01*
X175578571Y-92162500D02*
X175935714Y-92162500D01*
X175507142Y-92376785D02*
X175757142Y-91626785D01*
X176007142Y-92376785D01*
X176685714Y-92305357D02*
X176650000Y-92341071D01*
X176542857Y-92376785D01*
X176471428Y-92376785D01*
X176364285Y-92341071D01*
X176292857Y-92269642D01*
X176257142Y-92198214D01*
X176221428Y-92055357D01*
X176221428Y-91948214D01*
X176257142Y-91805357D01*
X176292857Y-91733928D01*
X176364285Y-91662500D01*
X176471428Y-91626785D01*
X176542857Y-91626785D01*
X176650000Y-91662500D01*
X176685714Y-91698214D01*
X177007142Y-92376785D02*
X177007142Y-91626785D01*
X177007142Y-91983928D02*
X177435714Y-91983928D01*
X177435714Y-92376785D02*
X177435714Y-91626785D01*
X177935714Y-91626785D02*
X178078571Y-91626785D01*
X178150000Y-91662500D01*
X178221428Y-91733928D01*
X178257142Y-91876785D01*
X178257142Y-92126785D01*
X178221428Y-92269642D01*
X178150000Y-92341071D01*
X178078571Y-92376785D01*
X177935714Y-92376785D01*
X177864285Y-92341071D01*
X177792857Y-92269642D01*
X177757142Y-92126785D01*
X177757142Y-91876785D01*
X177792857Y-91733928D01*
X177864285Y-91662500D01*
X177935714Y-91626785D01*
X178507142Y-91626785D02*
X178685714Y-92376785D01*
X178828571Y-91841071D01*
X178971428Y-92376785D01*
X179150000Y-91626785D01*
X180007142Y-92091071D02*
X180578571Y-92091071D01*
X180900000Y-91698214D02*
X180935714Y-91662500D01*
X181007142Y-91626785D01*
X181185714Y-91626785D01*
X181257142Y-91662500D01*
X181292857Y-91698214D01*
X181328571Y-91769642D01*
X181328571Y-91841071D01*
X181292857Y-91948214D01*
X180864285Y-92376785D01*
X181328571Y-92376785D01*
X181792857Y-91626785D02*
X181864285Y-91626785D01*
X181935714Y-91662500D01*
X181971428Y-91698214D01*
X182007142Y-91769642D01*
X182042857Y-91912500D01*
X182042857Y-92091071D01*
X182007142Y-92233928D01*
X181971428Y-92305357D01*
X181935714Y-92341071D01*
X181864285Y-92376785D01*
X181792857Y-92376785D01*
X181721428Y-92341071D01*
X181685714Y-92305357D01*
X181650000Y-92233928D01*
X181614285Y-92091071D01*
X181614285Y-91912500D01*
X181650000Y-91769642D01*
X181685714Y-91698214D01*
X181721428Y-91662500D01*
X181792857Y-91626785D01*
X182757142Y-92376785D02*
X182328571Y-92376785D01*
X182542857Y-92376785D02*
X182542857Y-91626785D01*
X182471428Y-91733928D01*
X182400000Y-91805357D01*
X182328571Y-91841071D01*
X183435714Y-91626785D02*
X183078571Y-91626785D01*
X183042857Y-91983928D01*
X183078571Y-91948214D01*
X183150000Y-91912500D01*
X183328571Y-91912500D01*
X183400000Y-91948214D01*
X183435714Y-91983928D01*
X183471428Y-92055357D01*
X183471428Y-92233928D01*
X183435714Y-92305357D01*
X183400000Y-92341071D01*
X183328571Y-92376785D01*
X183150000Y-92376785D01*
X183078571Y-92341071D01*
X183042857Y-92305357D01*
X144547619Y-70052380D02*
X144880952Y-71052380D01*
X145214285Y-70052380D01*
X145547619Y-70671428D02*
X146309523Y-70671428D01*
X184416666Y-86066666D02*
X184892857Y-86066666D01*
X184321428Y-86352380D02*
X184654761Y-85352380D01*
X184988095Y-86352380D01*
X185750000Y-85685714D02*
X185750000Y-86352380D01*
X185321428Y-85685714D02*
X185321428Y-86209523D01*
X185369047Y-86304761D01*
X185464285Y-86352380D01*
X185607142Y-86352380D01*
X185702380Y-86304761D01*
X185750000Y-86257142D01*
X186654761Y-86352380D02*
X186654761Y-85352380D01*
X186654761Y-86304761D02*
X186559523Y-86352380D01*
X186369047Y-86352380D01*
X186273809Y-86304761D01*
X186226190Y-86257142D01*
X186178571Y-86161904D01*
X186178571Y-85876190D01*
X186226190Y-85780952D01*
X186273809Y-85733333D01*
X186369047Y-85685714D01*
X186559523Y-85685714D01*
X186654761Y-85733333D01*
X187130952Y-86352380D02*
X187130952Y-85685714D01*
X187130952Y-85352380D02*
X187083333Y-85400000D01*
X187130952Y-85447619D01*
X187178571Y-85400000D01*
X187130952Y-85352380D01*
X187130952Y-85447619D01*
X187750000Y-86352380D02*
X187654761Y-86304761D01*
X187607142Y-86257142D01*
X187559523Y-86161904D01*
X187559523Y-85876190D01*
X187607142Y-85780952D01*
X187654761Y-85733333D01*
X187750000Y-85685714D01*
X187892857Y-85685714D01*
X187988095Y-85733333D01*
X188035714Y-85780952D01*
X188083333Y-85876190D01*
X188083333Y-86161904D01*
X188035714Y-86257142D01*
X187988095Y-86304761D01*
X187892857Y-86352380D01*
X187750000Y-86352380D01*
X189273809Y-85971428D02*
X190035714Y-85971428D01*
X184666666Y-79666666D02*
X185142857Y-79666666D01*
X184571428Y-79952380D02*
X184904761Y-78952380D01*
X185238095Y-79952380D01*
X186000000Y-79285714D02*
X186000000Y-79952380D01*
X185571428Y-79285714D02*
X185571428Y-79809523D01*
X185619047Y-79904761D01*
X185714285Y-79952380D01*
X185857142Y-79952380D01*
X185952380Y-79904761D01*
X186000000Y-79857142D01*
X186904761Y-79952380D02*
X186904761Y-78952380D01*
X186904761Y-79904761D02*
X186809523Y-79952380D01*
X186619047Y-79952380D01*
X186523809Y-79904761D01*
X186476190Y-79857142D01*
X186428571Y-79761904D01*
X186428571Y-79476190D01*
X186476190Y-79380952D01*
X186523809Y-79333333D01*
X186619047Y-79285714D01*
X186809523Y-79285714D01*
X186904761Y-79333333D01*
X187380952Y-79952380D02*
X187380952Y-79285714D01*
X187380952Y-78952380D02*
X187333333Y-79000000D01*
X187380952Y-79047619D01*
X187428571Y-79000000D01*
X187380952Y-78952380D01*
X187380952Y-79047619D01*
X188000000Y-79952380D02*
X187904761Y-79904761D01*
X187857142Y-79857142D01*
X187809523Y-79761904D01*
X187809523Y-79476190D01*
X187857142Y-79380952D01*
X187904761Y-79333333D01*
X188000000Y-79285714D01*
X188142857Y-79285714D01*
X188238095Y-79333333D01*
X188285714Y-79380952D01*
X188333333Y-79476190D01*
X188333333Y-79761904D01*
X188285714Y-79857142D01*
X188238095Y-79904761D01*
X188142857Y-79952380D01*
X188000000Y-79952380D01*
X189523809Y-79571428D02*
X190285714Y-79571428D01*
X189904761Y-79952380D02*
X189904761Y-79190476D01*
X168833333Y-76952380D02*
X169166666Y-77952380D01*
X169500000Y-76952380D01*
X169976190Y-77952380D02*
X169880952Y-77904761D01*
X169833333Y-77857142D01*
X169785714Y-77761904D01*
X169785714Y-77476190D01*
X169833333Y-77380952D01*
X169880952Y-77333333D01*
X169976190Y-77285714D01*
X170119047Y-77285714D01*
X170214285Y-77333333D01*
X170261904Y-77380952D01*
X170309523Y-77476190D01*
X170309523Y-77761904D01*
X170261904Y-77857142D01*
X170214285Y-77904761D01*
X170119047Y-77952380D01*
X169976190Y-77952380D01*
X170880952Y-77952380D02*
X170785714Y-77904761D01*
X170738095Y-77809523D01*
X170738095Y-76952380D01*
X171690476Y-77285714D02*
X171690476Y-77952380D01*
X171261904Y-77285714D02*
X171261904Y-77809523D01*
X171309523Y-77904761D01*
X171404761Y-77952380D01*
X171547619Y-77952380D01*
X171642857Y-77904761D01*
X171690476Y-77857142D01*
X172166666Y-77952380D02*
X172166666Y-77285714D01*
X172166666Y-77380952D02*
X172214285Y-77333333D01*
X172309523Y-77285714D01*
X172452380Y-77285714D01*
X172547619Y-77333333D01*
X172595238Y-77428571D01*
X172595238Y-77952380D01*
X172595238Y-77428571D02*
X172642857Y-77333333D01*
X172738095Y-77285714D01*
X172880952Y-77285714D01*
X172976190Y-77333333D01*
X173023809Y-77428571D01*
X173023809Y-77952380D01*
X173880952Y-77904761D02*
X173785714Y-77952380D01*
X173595238Y-77952380D01*
X173500000Y-77904761D01*
X173452380Y-77809523D01*
X173452380Y-77428571D01*
X173500000Y-77333333D01*
X173595238Y-77285714D01*
X173785714Y-77285714D01*
X173880952Y-77333333D01*
X173928571Y-77428571D01*
X173928571Y-77523809D01*
X173452380Y-77619047D01*
X175119047Y-77285714D02*
X175119047Y-78285714D01*
X175119047Y-77333333D02*
X175214285Y-77285714D01*
X175404761Y-77285714D01*
X175500000Y-77333333D01*
X175547619Y-77380952D01*
X175595238Y-77476190D01*
X175595238Y-77761904D01*
X175547619Y-77857142D01*
X175500000Y-77904761D01*
X175404761Y-77952380D01*
X175214285Y-77952380D01*
X175119047Y-77904761D01*
X176166666Y-77952380D02*
X176071428Y-77904761D01*
X176023809Y-77857142D01*
X175976190Y-77761904D01*
X175976190Y-77476190D01*
X176023809Y-77380952D01*
X176071428Y-77333333D01*
X176166666Y-77285714D01*
X176309523Y-77285714D01*
X176404761Y-77333333D01*
X176452380Y-77380952D01*
X176500000Y-77476190D01*
X176500000Y-77761904D01*
X176452380Y-77857142D01*
X176404761Y-77904761D01*
X176309523Y-77952380D01*
X176166666Y-77952380D01*
X176785714Y-77285714D02*
X177166666Y-77285714D01*
X176928571Y-76952380D02*
X176928571Y-77809523D01*
X176976190Y-77904761D01*
X177071428Y-77952380D01*
X177166666Y-77952380D01*
X165168928Y-75103571D02*
X165311785Y-75151190D01*
X165359404Y-75198809D01*
X165407023Y-75294047D01*
X165407023Y-75436904D01*
X165359404Y-75532142D01*
X165311785Y-75579761D01*
X165216547Y-75627380D01*
X164835595Y-75627380D01*
X164835595Y-74627380D01*
X165168928Y-74627380D01*
X165264166Y-74675000D01*
X165311785Y-74722619D01*
X165359404Y-74817857D01*
X165359404Y-74913095D01*
X165311785Y-75008333D01*
X165264166Y-75055952D01*
X165168928Y-75103571D01*
X164835595Y-75103571D01*
X166264166Y-75627380D02*
X166264166Y-75103571D01*
X166216547Y-75008333D01*
X166121309Y-74960714D01*
X165930833Y-74960714D01*
X165835595Y-75008333D01*
X166264166Y-75579761D02*
X166168928Y-75627380D01*
X165930833Y-75627380D01*
X165835595Y-75579761D01*
X165787976Y-75484523D01*
X165787976Y-75389285D01*
X165835595Y-75294047D01*
X165930833Y-75246428D01*
X166168928Y-75246428D01*
X166264166Y-75198809D01*
X166883214Y-75627380D02*
X166787976Y-75579761D01*
X166740357Y-75484523D01*
X166740357Y-74627380D01*
X167692738Y-75627380D02*
X167692738Y-75103571D01*
X167645119Y-75008333D01*
X167549880Y-74960714D01*
X167359404Y-74960714D01*
X167264166Y-75008333D01*
X167692738Y-75579761D02*
X167597500Y-75627380D01*
X167359404Y-75627380D01*
X167264166Y-75579761D01*
X167216547Y-75484523D01*
X167216547Y-75389285D01*
X167264166Y-75294047D01*
X167359404Y-75246428D01*
X167597500Y-75246428D01*
X167692738Y-75198809D01*
X168168928Y-74960714D02*
X168168928Y-75627380D01*
X168168928Y-75055952D02*
X168216547Y-75008333D01*
X168311785Y-74960714D01*
X168454642Y-74960714D01*
X168549880Y-75008333D01*
X168597500Y-75103571D01*
X168597500Y-75627380D01*
X169502261Y-75579761D02*
X169407023Y-75627380D01*
X169216547Y-75627380D01*
X169121309Y-75579761D01*
X169073690Y-75532142D01*
X169026071Y-75436904D01*
X169026071Y-75151190D01*
X169073690Y-75055952D01*
X169121309Y-75008333D01*
X169216547Y-74960714D01*
X169407023Y-74960714D01*
X169502261Y-75008333D01*
X170311785Y-75579761D02*
X170216547Y-75627380D01*
X170026071Y-75627380D01*
X169930833Y-75579761D01*
X169883214Y-75484523D01*
X169883214Y-75103571D01*
X169930833Y-75008333D01*
X170026071Y-74960714D01*
X170216547Y-74960714D01*
X170311785Y-75008333D01*
X170359404Y-75103571D01*
X170359404Y-75198809D01*
X169883214Y-75294047D01*
X164835595Y-76610714D02*
X164835595Y-77610714D01*
X164835595Y-76658333D02*
X164930833Y-76610714D01*
X165121309Y-76610714D01*
X165216547Y-76658333D01*
X165264166Y-76705952D01*
X165311785Y-76801190D01*
X165311785Y-77086904D01*
X165264166Y-77182142D01*
X165216547Y-77229761D01*
X165121309Y-77277380D01*
X164930833Y-77277380D01*
X164835595Y-77229761D01*
X165883214Y-77277380D02*
X165787976Y-77229761D01*
X165740357Y-77182142D01*
X165692738Y-77086904D01*
X165692738Y-76801190D01*
X165740357Y-76705952D01*
X165787976Y-76658333D01*
X165883214Y-76610714D01*
X166026071Y-76610714D01*
X166121309Y-76658333D01*
X166168928Y-76705952D01*
X166216547Y-76801190D01*
X166216547Y-77086904D01*
X166168928Y-77182142D01*
X166121309Y-77229761D01*
X166026071Y-77277380D01*
X165883214Y-77277380D01*
X166502261Y-76610714D02*
X166883214Y-76610714D01*
X166645119Y-76277380D02*
X166645119Y-77134523D01*
X166692738Y-77229761D01*
X166787976Y-77277380D01*
X166883214Y-77277380D01*
X138826190Y-76102380D02*
X139016666Y-76102380D01*
X139111904Y-76054761D01*
X139159523Y-76007142D01*
X139254761Y-75864285D01*
X139302380Y-75673809D01*
X139302380Y-75292857D01*
X139254761Y-75197619D01*
X139207142Y-75150000D01*
X139111904Y-75102380D01*
X138921428Y-75102380D01*
X138826190Y-75150000D01*
X138778571Y-75197619D01*
X138730952Y-75292857D01*
X138730952Y-75530952D01*
X138778571Y-75626190D01*
X138826190Y-75673809D01*
X138921428Y-75721428D01*
X139111904Y-75721428D01*
X139207142Y-75673809D01*
X139254761Y-75626190D01*
X139302380Y-75530952D01*
X139635714Y-75435714D02*
X139873809Y-76102380D01*
X140111904Y-75435714D01*
X140492857Y-75721428D02*
X141254761Y-75721428D01*
X142254761Y-76102380D02*
X141683333Y-76102380D01*
X141969047Y-76102380D02*
X141969047Y-75102380D01*
X141873809Y-75245238D01*
X141778571Y-75340476D01*
X141683333Y-75388095D01*
X142635714Y-75197619D02*
X142683333Y-75150000D01*
X142778571Y-75102380D01*
X143016666Y-75102380D01*
X143111904Y-75150000D01*
X143159523Y-75197619D01*
X143207142Y-75292857D01*
X143207142Y-75388095D01*
X143159523Y-75530952D01*
X142588095Y-76102380D01*
X143207142Y-76102380D01*
X143540476Y-75435714D02*
X143778571Y-76102380D01*
X144016666Y-75435714D01*
X139347619Y-70152380D02*
X139680952Y-71152380D01*
X140014285Y-70152380D01*
X140347619Y-70771428D02*
X141109523Y-70771428D01*
X140728571Y-71152380D02*
X140728571Y-70390476D01*
D11*
X159630000Y-91630000D02*
X162370000Y-91630000D01*
X159630000Y-99370000D02*
X162370000Y-99370000D01*
X162370000Y-99370000D02*
X162370000Y-91630000D01*
X159630000Y-99370000D02*
X159630000Y-91630000D01*
X158870000Y-99370000D02*
X156130000Y-99370000D01*
X158870000Y-91630000D02*
X156130000Y-91630000D01*
X156130000Y-91630000D02*
X156130000Y-99370000D01*
X158870000Y-91630000D02*
X158870000Y-99370000D01*
X152630000Y-91630000D02*
X155370000Y-91630000D01*
X152630000Y-99370000D02*
X155370000Y-99370000D01*
X155370000Y-99370000D02*
X155370000Y-91630000D01*
X152630000Y-99370000D02*
X152630000Y-91630000D01*
X172245000Y-78565000D02*
X175350000Y-78565000D01*
X170610000Y-78565000D02*
X171255000Y-78565000D01*
X172245000Y-85515000D02*
X175350000Y-85515000D01*
X170610000Y-85515000D02*
X171255000Y-85515000D01*
X175350000Y-85515000D02*
X175350000Y-78565000D01*
X170610000Y-85515000D02*
X170610000Y-78565000D01*
X157565000Y-77505000D02*
X157565000Y-74400000D01*
X157565000Y-79140000D02*
X157565000Y-78495000D01*
X164515000Y-77505000D02*
X164515000Y-74400000D01*
X164515000Y-79140000D02*
X164515000Y-78495000D01*
X164515000Y-74400000D02*
X157565000Y-74400000D01*
X164515000Y-79140000D02*
X157565000Y-79140000D01*
X149600000Y-79350000D02*
X147640000Y-79350000D01*
X136440000Y-79350000D02*
X138400000Y-79350000D01*
X147640000Y-77630000D02*
X138400000Y-77630000D01*
X147640000Y-81070000D02*
X147640000Y-77630000D01*
X138400000Y-81070000D02*
X147640000Y-81070000D01*
X138400000Y-77630000D02*
X138400000Y-81070000D01*
X170200000Y-72000000D02*
X168240000Y-72000000D01*
X157040000Y-72000000D02*
X159000000Y-72000000D01*
X168240000Y-70280000D02*
X159000000Y-70280000D01*
X168240000Y-73720000D02*
X168240000Y-70280000D01*
X159000000Y-73720000D02*
X168240000Y-73720000D01*
X159000000Y-70280000D02*
X159000000Y-73720000D01*
X164790000Y-98000000D02*
X166750000Y-98000000D01*
X177950000Y-98000000D02*
X175990000Y-98000000D01*
X166750000Y-99720000D02*
X175990000Y-99720000D01*
X166750000Y-96280000D02*
X166750000Y-99720000D01*
X175990000Y-96280000D02*
X166750000Y-96280000D01*
X175990000Y-99720000D02*
X175990000Y-96280000D01*
X136550000Y-83750000D02*
X138510000Y-83750000D01*
X149710000Y-83750000D02*
X147750000Y-83750000D01*
X138510000Y-85470000D02*
X147750000Y-85470000D01*
X138510000Y-82030000D02*
X138510000Y-85470000D01*
X147750000Y-82030000D02*
X138510000Y-82030000D01*
X147750000Y-85470000D02*
X147750000Y-82030000D01*
X166200000Y-88500000D02*
X164240000Y-88500000D01*
X153040000Y-88500000D02*
X155000000Y-88500000D01*
X164240000Y-86780000D02*
X155000000Y-86780000D01*
X164240000Y-90220000D02*
X164240000Y-86780000D01*
X155000000Y-90220000D02*
X164240000Y-90220000D01*
X155000000Y-86780000D02*
X155000000Y-90220000D01*
X139500000Y-89900000D02*
X137540000Y-89900000D01*
X126340000Y-89900000D02*
X128300000Y-89900000D01*
X137540000Y-88180000D02*
X128300000Y-88180000D01*
X137540000Y-91620000D02*
X137540000Y-88180000D01*
X128300000Y-91620000D02*
X137540000Y-91620000D01*
X128300000Y-88180000D02*
X128300000Y-91620000D01*
X132800000Y-98000000D02*
X134760000Y-98000000D01*
X145960000Y-98000000D02*
X144000000Y-98000000D01*
X134760000Y-99720000D02*
X144000000Y-99720000D01*
X134760000Y-96280000D02*
X134760000Y-99720000D01*
X144000000Y-96280000D02*
X134760000Y-96280000D01*
X144000000Y-99720000D02*
X144000000Y-96280000D01*
X139500000Y-93700000D02*
X137540000Y-93700000D01*
X126340000Y-93700000D02*
X128300000Y-93700000D01*
X137540000Y-91980000D02*
X128300000Y-91980000D01*
X137540000Y-95420000D02*
X137540000Y-91980000D01*
X128300000Y-95420000D02*
X137540000Y-95420000D01*
X128300000Y-91980000D02*
X128300000Y-95420000D01*
X149661522Y-71291522D02*
G75*
G03X151500000Y-75730000I1838478J-1838478D01*
G01*
X153338478Y-71291522D02*
G75*
G02X151500000Y-75730000I-1838478J-1838478D01*
G01*
X153300000Y-71280000D02*
X149700000Y-71280000D01*
X159838478Y-86108478D02*
G75*
G03X158000000Y-81670000I-1838478J1838478D01*
G01*
X156161522Y-86108478D02*
G75*
G02X158000000Y-81670000I1838478J1838478D01*
G01*
X156200000Y-86120000D02*
X159800000Y-86120000D01*
X181370000Y-82000000D02*
G75*
G03X181370000Y-82000000I-2620000J0D01*
G01*
X178750000Y-79420000D02*
X178750000Y-84580000D01*
X178790000Y-79420000D02*
X178790000Y-84580000D01*
X178830000Y-79421000D02*
X178830000Y-84579000D01*
X178870000Y-79422000D02*
X178870000Y-84578000D01*
X178910000Y-79424000D02*
X178910000Y-84576000D01*
X178950000Y-79427000D02*
X178950000Y-84573000D01*
X178990000Y-79431000D02*
X178990000Y-80960000D01*
X178990000Y-83040000D02*
X178990000Y-84569000D01*
X179030000Y-79435000D02*
X179030000Y-80960000D01*
X179030000Y-83040000D02*
X179030000Y-84565000D01*
X179070000Y-79439000D02*
X179070000Y-80960000D01*
X179070000Y-83040000D02*
X179070000Y-84561000D01*
X179110000Y-79444000D02*
X179110000Y-80960000D01*
X179110000Y-83040000D02*
X179110000Y-84556000D01*
X179150000Y-79450000D02*
X179150000Y-80960000D01*
X179150000Y-83040000D02*
X179150000Y-84550000D01*
X179190000Y-79457000D02*
X179190000Y-80960000D01*
X179190000Y-83040000D02*
X179190000Y-84543000D01*
X179230000Y-79464000D02*
X179230000Y-80960000D01*
X179230000Y-83040000D02*
X179230000Y-84536000D01*
X179270000Y-79472000D02*
X179270000Y-80960000D01*
X179270000Y-83040000D02*
X179270000Y-84528000D01*
X179310000Y-79480000D02*
X179310000Y-80960000D01*
X179310000Y-83040000D02*
X179310000Y-84520000D01*
X179350000Y-79489000D02*
X179350000Y-80960000D01*
X179350000Y-83040000D02*
X179350000Y-84511000D01*
X179390000Y-79499000D02*
X179390000Y-80960000D01*
X179390000Y-83040000D02*
X179390000Y-84501000D01*
X179430000Y-79509000D02*
X179430000Y-80960000D01*
X179430000Y-83040000D02*
X179430000Y-84491000D01*
X179471000Y-79520000D02*
X179471000Y-80960000D01*
X179471000Y-83040000D02*
X179471000Y-84480000D01*
X179511000Y-79532000D02*
X179511000Y-80960000D01*
X179511000Y-83040000D02*
X179511000Y-84468000D01*
X179551000Y-79545000D02*
X179551000Y-80960000D01*
X179551000Y-83040000D02*
X179551000Y-84455000D01*
X179591000Y-79558000D02*
X179591000Y-80960000D01*
X179591000Y-83040000D02*
X179591000Y-84442000D01*
X179631000Y-79572000D02*
X179631000Y-80960000D01*
X179631000Y-83040000D02*
X179631000Y-84428000D01*
X179671000Y-79586000D02*
X179671000Y-80960000D01*
X179671000Y-83040000D02*
X179671000Y-84414000D01*
X179711000Y-79602000D02*
X179711000Y-80960000D01*
X179711000Y-83040000D02*
X179711000Y-84398000D01*
X179751000Y-79618000D02*
X179751000Y-80960000D01*
X179751000Y-83040000D02*
X179751000Y-84382000D01*
X179791000Y-79635000D02*
X179791000Y-80960000D01*
X179791000Y-83040000D02*
X179791000Y-84365000D01*
X179831000Y-79652000D02*
X179831000Y-80960000D01*
X179831000Y-83040000D02*
X179831000Y-84348000D01*
X179871000Y-79671000D02*
X179871000Y-80960000D01*
X179871000Y-83040000D02*
X179871000Y-84329000D01*
X179911000Y-79690000D02*
X179911000Y-80960000D01*
X179911000Y-83040000D02*
X179911000Y-84310000D01*
X179951000Y-79710000D02*
X179951000Y-80960000D01*
X179951000Y-83040000D02*
X179951000Y-84290000D01*
X179991000Y-79732000D02*
X179991000Y-80960000D01*
X179991000Y-83040000D02*
X179991000Y-84268000D01*
X180031000Y-79753000D02*
X180031000Y-80960000D01*
X180031000Y-83040000D02*
X180031000Y-84247000D01*
X180071000Y-79776000D02*
X180071000Y-80960000D01*
X180071000Y-83040000D02*
X180071000Y-84224000D01*
X180111000Y-79800000D02*
X180111000Y-80960000D01*
X180111000Y-83040000D02*
X180111000Y-84200000D01*
X180151000Y-79825000D02*
X180151000Y-80960000D01*
X180151000Y-83040000D02*
X180151000Y-84175000D01*
X180191000Y-79851000D02*
X180191000Y-80960000D01*
X180191000Y-83040000D02*
X180191000Y-84149000D01*
X180231000Y-79878000D02*
X180231000Y-80960000D01*
X180231000Y-83040000D02*
X180231000Y-84122000D01*
X180271000Y-79905000D02*
X180271000Y-80960000D01*
X180271000Y-83040000D02*
X180271000Y-84095000D01*
X180311000Y-79935000D02*
X180311000Y-80960000D01*
X180311000Y-83040000D02*
X180311000Y-84065000D01*
X180351000Y-79965000D02*
X180351000Y-80960000D01*
X180351000Y-83040000D02*
X180351000Y-84035000D01*
X180391000Y-79996000D02*
X180391000Y-80960000D01*
X180391000Y-83040000D02*
X180391000Y-84004000D01*
X180431000Y-80029000D02*
X180431000Y-80960000D01*
X180431000Y-83040000D02*
X180431000Y-83971000D01*
X180471000Y-80063000D02*
X180471000Y-80960000D01*
X180471000Y-83040000D02*
X180471000Y-83937000D01*
X180511000Y-80099000D02*
X180511000Y-80960000D01*
X180511000Y-83040000D02*
X180511000Y-83901000D01*
X180551000Y-80136000D02*
X180551000Y-80960000D01*
X180551000Y-83040000D02*
X180551000Y-83864000D01*
X180591000Y-80174000D02*
X180591000Y-80960000D01*
X180591000Y-83040000D02*
X180591000Y-83826000D01*
X180631000Y-80215000D02*
X180631000Y-80960000D01*
X180631000Y-83040000D02*
X180631000Y-83785000D01*
X180671000Y-80257000D02*
X180671000Y-80960000D01*
X180671000Y-83040000D02*
X180671000Y-83743000D01*
X180711000Y-80301000D02*
X180711000Y-80960000D01*
X180711000Y-83040000D02*
X180711000Y-83699000D01*
X180751000Y-80347000D02*
X180751000Y-80960000D01*
X180751000Y-83040000D02*
X180751000Y-83653000D01*
X180791000Y-80395000D02*
X180791000Y-80960000D01*
X180791000Y-83040000D02*
X180791000Y-83605000D01*
X180831000Y-80446000D02*
X180831000Y-80960000D01*
X180831000Y-83040000D02*
X180831000Y-83554000D01*
X180871000Y-80500000D02*
X180871000Y-80960000D01*
X180871000Y-83040000D02*
X180871000Y-83500000D01*
X180911000Y-80557000D02*
X180911000Y-80960000D01*
X180911000Y-83040000D02*
X180911000Y-83443000D01*
X180951000Y-80617000D02*
X180951000Y-80960000D01*
X180951000Y-83040000D02*
X180951000Y-83383000D01*
X180991000Y-80681000D02*
X180991000Y-80960000D01*
X180991000Y-83040000D02*
X180991000Y-83319000D01*
X181031000Y-80749000D02*
X181031000Y-80960000D01*
X181031000Y-83040000D02*
X181031000Y-83251000D01*
X181071000Y-80822000D02*
X181071000Y-83178000D01*
X181111000Y-80902000D02*
X181111000Y-83098000D01*
X181151000Y-80989000D02*
X181151000Y-83011000D01*
X181191000Y-81085000D02*
X181191000Y-82915000D01*
X181231000Y-81195000D02*
X181231000Y-82805000D01*
X181271000Y-81323000D02*
X181271000Y-82677000D01*
X181311000Y-81482000D02*
X181311000Y-82518000D01*
X181351000Y-81716000D02*
X181351000Y-82284000D01*
X175945225Y-80525000D02*
X176445225Y-80525000D01*
X176195225Y-80275000D02*
X176195225Y-80775000D01*
X173195225Y-71275000D02*
X173195225Y-71775000D01*
X172945225Y-71525000D02*
X173445225Y-71525000D01*
X178351000Y-72716000D02*
X178351000Y-73284000D01*
X178311000Y-72482000D02*
X178311000Y-73518000D01*
X178271000Y-72323000D02*
X178271000Y-73677000D01*
X178231000Y-72195000D02*
X178231000Y-73805000D01*
X178191000Y-72085000D02*
X178191000Y-73915000D01*
X178151000Y-71989000D02*
X178151000Y-74011000D01*
X178111000Y-71902000D02*
X178111000Y-74098000D01*
X178071000Y-71822000D02*
X178071000Y-74178000D01*
X178031000Y-74040000D02*
X178031000Y-74251000D01*
X178031000Y-71749000D02*
X178031000Y-71960000D01*
X177991000Y-74040000D02*
X177991000Y-74319000D01*
X177991000Y-71681000D02*
X177991000Y-71960000D01*
X177951000Y-74040000D02*
X177951000Y-74383000D01*
X177951000Y-71617000D02*
X177951000Y-71960000D01*
X177911000Y-74040000D02*
X177911000Y-74443000D01*
X177911000Y-71557000D02*
X177911000Y-71960000D01*
X177871000Y-74040000D02*
X177871000Y-74500000D01*
X177871000Y-71500000D02*
X177871000Y-71960000D01*
X177831000Y-74040000D02*
X177831000Y-74554000D01*
X177831000Y-71446000D02*
X177831000Y-71960000D01*
X177791000Y-74040000D02*
X177791000Y-74605000D01*
X177791000Y-71395000D02*
X177791000Y-71960000D01*
X177751000Y-74040000D02*
X177751000Y-74653000D01*
X177751000Y-71347000D02*
X177751000Y-71960000D01*
X177711000Y-74040000D02*
X177711000Y-74699000D01*
X177711000Y-71301000D02*
X177711000Y-71960000D01*
X177671000Y-74040000D02*
X177671000Y-74743000D01*
X177671000Y-71257000D02*
X177671000Y-71960000D01*
X177631000Y-74040000D02*
X177631000Y-74785000D01*
X177631000Y-71215000D02*
X177631000Y-71960000D01*
X177591000Y-74040000D02*
X177591000Y-74826000D01*
X177591000Y-71174000D02*
X177591000Y-71960000D01*
X177551000Y-74040000D02*
X177551000Y-74864000D01*
X177551000Y-71136000D02*
X177551000Y-71960000D01*
X177511000Y-74040000D02*
X177511000Y-74901000D01*
X177511000Y-71099000D02*
X177511000Y-71960000D01*
X177471000Y-74040000D02*
X177471000Y-74937000D01*
X177471000Y-71063000D02*
X177471000Y-71960000D01*
X177431000Y-74040000D02*
X177431000Y-74971000D01*
X177431000Y-71029000D02*
X177431000Y-71960000D01*
X177391000Y-74040000D02*
X177391000Y-75004000D01*
X177391000Y-70996000D02*
X177391000Y-71960000D01*
X177351000Y-74040000D02*
X177351000Y-75035000D01*
X177351000Y-70965000D02*
X177351000Y-71960000D01*
X177311000Y-74040000D02*
X177311000Y-75065000D01*
X177311000Y-70935000D02*
X177311000Y-71960000D01*
X177271000Y-74040000D02*
X177271000Y-75095000D01*
X177271000Y-70905000D02*
X177271000Y-71960000D01*
X177231000Y-74040000D02*
X177231000Y-75122000D01*
X177231000Y-70878000D02*
X177231000Y-71960000D01*
X177191000Y-74040000D02*
X177191000Y-75149000D01*
X177191000Y-70851000D02*
X177191000Y-71960000D01*
X177151000Y-74040000D02*
X177151000Y-75175000D01*
X177151000Y-70825000D02*
X177151000Y-71960000D01*
X177111000Y-74040000D02*
X177111000Y-75200000D01*
X177111000Y-70800000D02*
X177111000Y-71960000D01*
X177071000Y-74040000D02*
X177071000Y-75224000D01*
X177071000Y-70776000D02*
X177071000Y-71960000D01*
X177031000Y-74040000D02*
X177031000Y-75247000D01*
X177031000Y-70753000D02*
X177031000Y-71960000D01*
X176991000Y-74040000D02*
X176991000Y-75268000D01*
X176991000Y-70732000D02*
X176991000Y-71960000D01*
X176951000Y-74040000D02*
X176951000Y-75290000D01*
X176951000Y-70710000D02*
X176951000Y-71960000D01*
X176911000Y-74040000D02*
X176911000Y-75310000D01*
X176911000Y-70690000D02*
X176911000Y-71960000D01*
X176871000Y-74040000D02*
X176871000Y-75329000D01*
X176871000Y-70671000D02*
X176871000Y-71960000D01*
X176831000Y-74040000D02*
X176831000Y-75348000D01*
X176831000Y-70652000D02*
X176831000Y-71960000D01*
X176791000Y-74040000D02*
X176791000Y-75365000D01*
X176791000Y-70635000D02*
X176791000Y-71960000D01*
X176751000Y-74040000D02*
X176751000Y-75382000D01*
X176751000Y-70618000D02*
X176751000Y-71960000D01*
X176711000Y-74040000D02*
X176711000Y-75398000D01*
X176711000Y-70602000D02*
X176711000Y-71960000D01*
X176671000Y-74040000D02*
X176671000Y-75414000D01*
X176671000Y-70586000D02*
X176671000Y-71960000D01*
X176631000Y-74040000D02*
X176631000Y-75428000D01*
X176631000Y-70572000D02*
X176631000Y-71960000D01*
X176591000Y-74040000D02*
X176591000Y-75442000D01*
X176591000Y-70558000D02*
X176591000Y-71960000D01*
X176551000Y-74040000D02*
X176551000Y-75455000D01*
X176551000Y-70545000D02*
X176551000Y-71960000D01*
X176511000Y-74040000D02*
X176511000Y-75468000D01*
X176511000Y-70532000D02*
X176511000Y-71960000D01*
X176471000Y-74040000D02*
X176471000Y-75480000D01*
X176471000Y-70520000D02*
X176471000Y-71960000D01*
X176430000Y-74040000D02*
X176430000Y-75491000D01*
X176430000Y-70509000D02*
X176430000Y-71960000D01*
X176390000Y-74040000D02*
X176390000Y-75501000D01*
X176390000Y-70499000D02*
X176390000Y-71960000D01*
X176350000Y-74040000D02*
X176350000Y-75511000D01*
X176350000Y-70489000D02*
X176350000Y-71960000D01*
X176310000Y-74040000D02*
X176310000Y-75520000D01*
X176310000Y-70480000D02*
X176310000Y-71960000D01*
X176270000Y-74040000D02*
X176270000Y-75528000D01*
X176270000Y-70472000D02*
X176270000Y-71960000D01*
X176230000Y-74040000D02*
X176230000Y-75536000D01*
X176230000Y-70464000D02*
X176230000Y-71960000D01*
X176190000Y-74040000D02*
X176190000Y-75543000D01*
X176190000Y-70457000D02*
X176190000Y-71960000D01*
X176150000Y-74040000D02*
X176150000Y-75550000D01*
X176150000Y-70450000D02*
X176150000Y-71960000D01*
X176110000Y-74040000D02*
X176110000Y-75556000D01*
X176110000Y-70444000D02*
X176110000Y-71960000D01*
X176070000Y-74040000D02*
X176070000Y-75561000D01*
X176070000Y-70439000D02*
X176070000Y-71960000D01*
X176030000Y-74040000D02*
X176030000Y-75565000D01*
X176030000Y-70435000D02*
X176030000Y-71960000D01*
X175990000Y-74040000D02*
X175990000Y-75569000D01*
X175990000Y-70431000D02*
X175990000Y-71960000D01*
X175950000Y-70427000D02*
X175950000Y-75573000D01*
X175910000Y-70424000D02*
X175910000Y-75576000D01*
X175870000Y-70422000D02*
X175870000Y-75578000D01*
X175830000Y-70421000D02*
X175830000Y-75579000D01*
X175790000Y-70420000D02*
X175790000Y-75580000D01*
X175750000Y-70420000D02*
X175750000Y-75580000D01*
X178370000Y-73000000D02*
G75*
G03X178370000Y-73000000I-2620000J0D01*
G01*
X147204775Y-90225000D02*
X147204775Y-89725000D01*
X147454775Y-89975000D02*
X146954775Y-89975000D01*
X142049000Y-88784000D02*
X142049000Y-88216000D01*
X142089000Y-89018000D02*
X142089000Y-87982000D01*
X142129000Y-89177000D02*
X142129000Y-87823000D01*
X142169000Y-89305000D02*
X142169000Y-87695000D01*
X142209000Y-89415000D02*
X142209000Y-87585000D01*
X142249000Y-89511000D02*
X142249000Y-87489000D01*
X142289000Y-89598000D02*
X142289000Y-87402000D01*
X142329000Y-89678000D02*
X142329000Y-87322000D01*
X142369000Y-87460000D02*
X142369000Y-87249000D01*
X142369000Y-89751000D02*
X142369000Y-89540000D01*
X142409000Y-87460000D02*
X142409000Y-87181000D01*
X142409000Y-89819000D02*
X142409000Y-89540000D01*
X142449000Y-87460000D02*
X142449000Y-87117000D01*
X142449000Y-89883000D02*
X142449000Y-89540000D01*
X142489000Y-87460000D02*
X142489000Y-87057000D01*
X142489000Y-89943000D02*
X142489000Y-89540000D01*
X142529000Y-87460000D02*
X142529000Y-87000000D01*
X142529000Y-90000000D02*
X142529000Y-89540000D01*
X142569000Y-87460000D02*
X142569000Y-86946000D01*
X142569000Y-90054000D02*
X142569000Y-89540000D01*
X142609000Y-87460000D02*
X142609000Y-86895000D01*
X142609000Y-90105000D02*
X142609000Y-89540000D01*
X142649000Y-87460000D02*
X142649000Y-86847000D01*
X142649000Y-90153000D02*
X142649000Y-89540000D01*
X142689000Y-87460000D02*
X142689000Y-86801000D01*
X142689000Y-90199000D02*
X142689000Y-89540000D01*
X142729000Y-87460000D02*
X142729000Y-86757000D01*
X142729000Y-90243000D02*
X142729000Y-89540000D01*
X142769000Y-87460000D02*
X142769000Y-86715000D01*
X142769000Y-90285000D02*
X142769000Y-89540000D01*
X142809000Y-87460000D02*
X142809000Y-86674000D01*
X142809000Y-90326000D02*
X142809000Y-89540000D01*
X142849000Y-87460000D02*
X142849000Y-86636000D01*
X142849000Y-90364000D02*
X142849000Y-89540000D01*
X142889000Y-87460000D02*
X142889000Y-86599000D01*
X142889000Y-90401000D02*
X142889000Y-89540000D01*
X142929000Y-87460000D02*
X142929000Y-86563000D01*
X142929000Y-90437000D02*
X142929000Y-89540000D01*
X142969000Y-87460000D02*
X142969000Y-86529000D01*
X142969000Y-90471000D02*
X142969000Y-89540000D01*
X143009000Y-87460000D02*
X143009000Y-86496000D01*
X143009000Y-90504000D02*
X143009000Y-89540000D01*
X143049000Y-87460000D02*
X143049000Y-86465000D01*
X143049000Y-90535000D02*
X143049000Y-89540000D01*
X143089000Y-87460000D02*
X143089000Y-86435000D01*
X143089000Y-90565000D02*
X143089000Y-89540000D01*
X143129000Y-87460000D02*
X143129000Y-86405000D01*
X143129000Y-90595000D02*
X143129000Y-89540000D01*
X143169000Y-87460000D02*
X143169000Y-86378000D01*
X143169000Y-90622000D02*
X143169000Y-89540000D01*
X143209000Y-87460000D02*
X143209000Y-86351000D01*
X143209000Y-90649000D02*
X143209000Y-89540000D01*
X143249000Y-87460000D02*
X143249000Y-86325000D01*
X143249000Y-90675000D02*
X143249000Y-89540000D01*
X143289000Y-87460000D02*
X143289000Y-86300000D01*
X143289000Y-90700000D02*
X143289000Y-89540000D01*
X143329000Y-87460000D02*
X143329000Y-86276000D01*
X143329000Y-90724000D02*
X143329000Y-89540000D01*
X143369000Y-87460000D02*
X143369000Y-86253000D01*
X143369000Y-90747000D02*
X143369000Y-89540000D01*
X143409000Y-87460000D02*
X143409000Y-86232000D01*
X143409000Y-90768000D02*
X143409000Y-89540000D01*
X143449000Y-87460000D02*
X143449000Y-86210000D01*
X143449000Y-90790000D02*
X143449000Y-89540000D01*
X143489000Y-87460000D02*
X143489000Y-86190000D01*
X143489000Y-90810000D02*
X143489000Y-89540000D01*
X143529000Y-87460000D02*
X143529000Y-86171000D01*
X143529000Y-90829000D02*
X143529000Y-89540000D01*
X143569000Y-87460000D02*
X143569000Y-86152000D01*
X143569000Y-90848000D02*
X143569000Y-89540000D01*
X143609000Y-87460000D02*
X143609000Y-86135000D01*
X143609000Y-90865000D02*
X143609000Y-89540000D01*
X143649000Y-87460000D02*
X143649000Y-86118000D01*
X143649000Y-90882000D02*
X143649000Y-89540000D01*
X143689000Y-87460000D02*
X143689000Y-86102000D01*
X143689000Y-90898000D02*
X143689000Y-89540000D01*
X143729000Y-87460000D02*
X143729000Y-86086000D01*
X143729000Y-90914000D02*
X143729000Y-89540000D01*
X143769000Y-87460000D02*
X143769000Y-86072000D01*
X143769000Y-90928000D02*
X143769000Y-89540000D01*
X143809000Y-87460000D02*
X143809000Y-86058000D01*
X143809000Y-90942000D02*
X143809000Y-89540000D01*
X143849000Y-87460000D02*
X143849000Y-86045000D01*
X143849000Y-90955000D02*
X143849000Y-89540000D01*
X143889000Y-87460000D02*
X143889000Y-86032000D01*
X143889000Y-90968000D02*
X143889000Y-89540000D01*
X143929000Y-87460000D02*
X143929000Y-86020000D01*
X143929000Y-90980000D02*
X143929000Y-89540000D01*
X143970000Y-87460000D02*
X143970000Y-86009000D01*
X143970000Y-90991000D02*
X143970000Y-89540000D01*
X144010000Y-87460000D02*
X144010000Y-85999000D01*
X144010000Y-91001000D02*
X144010000Y-89540000D01*
X144050000Y-87460000D02*
X144050000Y-85989000D01*
X144050000Y-91011000D02*
X144050000Y-89540000D01*
X144090000Y-87460000D02*
X144090000Y-85980000D01*
X144090000Y-91020000D02*
X144090000Y-89540000D01*
X144130000Y-87460000D02*
X144130000Y-85972000D01*
X144130000Y-91028000D02*
X144130000Y-89540000D01*
X144170000Y-87460000D02*
X144170000Y-85964000D01*
X144170000Y-91036000D02*
X144170000Y-89540000D01*
X144210000Y-87460000D02*
X144210000Y-85957000D01*
X144210000Y-91043000D02*
X144210000Y-89540000D01*
X144250000Y-87460000D02*
X144250000Y-85950000D01*
X144250000Y-91050000D02*
X144250000Y-89540000D01*
X144290000Y-87460000D02*
X144290000Y-85944000D01*
X144290000Y-91056000D02*
X144290000Y-89540000D01*
X144330000Y-87460000D02*
X144330000Y-85939000D01*
X144330000Y-91061000D02*
X144330000Y-89540000D01*
X144370000Y-87460000D02*
X144370000Y-85935000D01*
X144370000Y-91065000D02*
X144370000Y-89540000D01*
X144410000Y-87460000D02*
X144410000Y-85931000D01*
X144410000Y-91069000D02*
X144410000Y-89540000D01*
X144450000Y-91073000D02*
X144450000Y-85927000D01*
X144490000Y-91076000D02*
X144490000Y-85924000D01*
X144530000Y-91078000D02*
X144530000Y-85922000D01*
X144570000Y-91079000D02*
X144570000Y-85921000D01*
X144610000Y-91080000D02*
X144610000Y-85920000D01*
X144650000Y-91080000D02*
X144650000Y-85920000D01*
X147270000Y-88500000D02*
G75*
G03X147270000Y-88500000I-2620000J0D01*
G01*
D12*
X130624201Y-87129600D02*
X130624201Y-83370400D01*
X124375801Y-87129600D02*
X124375801Y-83370400D01*
X124375801Y-83370400D02*
X130624201Y-83370400D01*
X124375801Y-87129600D02*
X130624201Y-87129600D01*
D11*
X151804775Y-94725000D02*
X151804775Y-94225000D01*
X152054775Y-94475000D02*
X151554775Y-94475000D01*
X146649000Y-93284000D02*
X146649000Y-92716000D01*
X146689000Y-93518000D02*
X146689000Y-92482000D01*
X146729000Y-93677000D02*
X146729000Y-92323000D01*
X146769000Y-93805000D02*
X146769000Y-92195000D01*
X146809000Y-93915000D02*
X146809000Y-92085000D01*
X146849000Y-94011000D02*
X146849000Y-91989000D01*
X146889000Y-94098000D02*
X146889000Y-91902000D01*
X146929000Y-94178000D02*
X146929000Y-91822000D01*
X146969000Y-91960000D02*
X146969000Y-91749000D01*
X146969000Y-94251000D02*
X146969000Y-94040000D01*
X147009000Y-91960000D02*
X147009000Y-91681000D01*
X147009000Y-94319000D02*
X147009000Y-94040000D01*
X147049000Y-91960000D02*
X147049000Y-91617000D01*
X147049000Y-94383000D02*
X147049000Y-94040000D01*
X147089000Y-91960000D02*
X147089000Y-91557000D01*
X147089000Y-94443000D02*
X147089000Y-94040000D01*
X147129000Y-91960000D02*
X147129000Y-91500000D01*
X147129000Y-94500000D02*
X147129000Y-94040000D01*
X147169000Y-91960000D02*
X147169000Y-91446000D01*
X147169000Y-94554000D02*
X147169000Y-94040000D01*
X147209000Y-91960000D02*
X147209000Y-91395000D01*
X147209000Y-94605000D02*
X147209000Y-94040000D01*
X147249000Y-91960000D02*
X147249000Y-91347000D01*
X147249000Y-94653000D02*
X147249000Y-94040000D01*
X147289000Y-91960000D02*
X147289000Y-91301000D01*
X147289000Y-94699000D02*
X147289000Y-94040000D01*
X147329000Y-91960000D02*
X147329000Y-91257000D01*
X147329000Y-94743000D02*
X147329000Y-94040000D01*
X147369000Y-91960000D02*
X147369000Y-91215000D01*
X147369000Y-94785000D02*
X147369000Y-94040000D01*
X147409000Y-91960000D02*
X147409000Y-91174000D01*
X147409000Y-94826000D02*
X147409000Y-94040000D01*
X147449000Y-91960000D02*
X147449000Y-91136000D01*
X147449000Y-94864000D02*
X147449000Y-94040000D01*
X147489000Y-91960000D02*
X147489000Y-91099000D01*
X147489000Y-94901000D02*
X147489000Y-94040000D01*
X147529000Y-91960000D02*
X147529000Y-91063000D01*
X147529000Y-94937000D02*
X147529000Y-94040000D01*
X147569000Y-91960000D02*
X147569000Y-91029000D01*
X147569000Y-94971000D02*
X147569000Y-94040000D01*
X147609000Y-91960000D02*
X147609000Y-90996000D01*
X147609000Y-95004000D02*
X147609000Y-94040000D01*
X147649000Y-91960000D02*
X147649000Y-90965000D01*
X147649000Y-95035000D02*
X147649000Y-94040000D01*
X147689000Y-91960000D02*
X147689000Y-90935000D01*
X147689000Y-95065000D02*
X147689000Y-94040000D01*
X147729000Y-91960000D02*
X147729000Y-90905000D01*
X147729000Y-95095000D02*
X147729000Y-94040000D01*
X147769000Y-91960000D02*
X147769000Y-90878000D01*
X147769000Y-95122000D02*
X147769000Y-94040000D01*
X147809000Y-91960000D02*
X147809000Y-90851000D01*
X147809000Y-95149000D02*
X147809000Y-94040000D01*
X147849000Y-91960000D02*
X147849000Y-90825000D01*
X147849000Y-95175000D02*
X147849000Y-94040000D01*
X147889000Y-91960000D02*
X147889000Y-90800000D01*
X147889000Y-95200000D02*
X147889000Y-94040000D01*
X147929000Y-91960000D02*
X147929000Y-90776000D01*
X147929000Y-95224000D02*
X147929000Y-94040000D01*
X147969000Y-91960000D02*
X147969000Y-90753000D01*
X147969000Y-95247000D02*
X147969000Y-94040000D01*
X148009000Y-91960000D02*
X148009000Y-90732000D01*
X148009000Y-95268000D02*
X148009000Y-94040000D01*
X148049000Y-91960000D02*
X148049000Y-90710000D01*
X148049000Y-95290000D02*
X148049000Y-94040000D01*
X148089000Y-91960000D02*
X148089000Y-90690000D01*
X148089000Y-95310000D02*
X148089000Y-94040000D01*
X148129000Y-91960000D02*
X148129000Y-90671000D01*
X148129000Y-95329000D02*
X148129000Y-94040000D01*
X148169000Y-91960000D02*
X148169000Y-90652000D01*
X148169000Y-95348000D02*
X148169000Y-94040000D01*
X148209000Y-91960000D02*
X148209000Y-90635000D01*
X148209000Y-95365000D02*
X148209000Y-94040000D01*
X148249000Y-91960000D02*
X148249000Y-90618000D01*
X148249000Y-95382000D02*
X148249000Y-94040000D01*
X148289000Y-91960000D02*
X148289000Y-90602000D01*
X148289000Y-95398000D02*
X148289000Y-94040000D01*
X148329000Y-91960000D02*
X148329000Y-90586000D01*
X148329000Y-95414000D02*
X148329000Y-94040000D01*
X148369000Y-91960000D02*
X148369000Y-90572000D01*
X148369000Y-95428000D02*
X148369000Y-94040000D01*
X148409000Y-91960000D02*
X148409000Y-90558000D01*
X148409000Y-95442000D02*
X148409000Y-94040000D01*
X148449000Y-91960000D02*
X148449000Y-90545000D01*
X148449000Y-95455000D02*
X148449000Y-94040000D01*
X148489000Y-91960000D02*
X148489000Y-90532000D01*
X148489000Y-95468000D02*
X148489000Y-94040000D01*
X148529000Y-91960000D02*
X148529000Y-90520000D01*
X148529000Y-95480000D02*
X148529000Y-94040000D01*
X148570000Y-91960000D02*
X148570000Y-90509000D01*
X148570000Y-95491000D02*
X148570000Y-94040000D01*
X148610000Y-91960000D02*
X148610000Y-90499000D01*
X148610000Y-95501000D02*
X148610000Y-94040000D01*
X148650000Y-91960000D02*
X148650000Y-90489000D01*
X148650000Y-95511000D02*
X148650000Y-94040000D01*
X148690000Y-91960000D02*
X148690000Y-90480000D01*
X148690000Y-95520000D02*
X148690000Y-94040000D01*
X148730000Y-91960000D02*
X148730000Y-90472000D01*
X148730000Y-95528000D02*
X148730000Y-94040000D01*
X148770000Y-91960000D02*
X148770000Y-90464000D01*
X148770000Y-95536000D02*
X148770000Y-94040000D01*
X148810000Y-91960000D02*
X148810000Y-90457000D01*
X148810000Y-95543000D02*
X148810000Y-94040000D01*
X148850000Y-91960000D02*
X148850000Y-90450000D01*
X148850000Y-95550000D02*
X148850000Y-94040000D01*
X148890000Y-91960000D02*
X148890000Y-90444000D01*
X148890000Y-95556000D02*
X148890000Y-94040000D01*
X148930000Y-91960000D02*
X148930000Y-90439000D01*
X148930000Y-95561000D02*
X148930000Y-94040000D01*
X148970000Y-91960000D02*
X148970000Y-90435000D01*
X148970000Y-95565000D02*
X148970000Y-94040000D01*
X149010000Y-91960000D02*
X149010000Y-90431000D01*
X149010000Y-95569000D02*
X149010000Y-94040000D01*
X149050000Y-95573000D02*
X149050000Y-90427000D01*
X149090000Y-95576000D02*
X149090000Y-90424000D01*
X149130000Y-95578000D02*
X149130000Y-90422000D01*
X149170000Y-95579000D02*
X149170000Y-90421000D01*
X149210000Y-95580000D02*
X149210000Y-90420000D01*
X149250000Y-95580000D02*
X149250000Y-90420000D01*
X151870000Y-93000000D02*
G75*
G03X151870000Y-93000000I-2620000J0D01*
G01*
X136704775Y-74825000D02*
X136704775Y-74325000D01*
X136954775Y-74575000D02*
X136454775Y-74575000D01*
X131549000Y-73384000D02*
X131549000Y-72816000D01*
X131589000Y-73618000D02*
X131589000Y-72582000D01*
X131629000Y-73777000D02*
X131629000Y-72423000D01*
X131669000Y-73905000D02*
X131669000Y-72295000D01*
X131709000Y-74015000D02*
X131709000Y-72185000D01*
X131749000Y-74111000D02*
X131749000Y-72089000D01*
X131789000Y-74198000D02*
X131789000Y-72002000D01*
X131829000Y-74278000D02*
X131829000Y-71922000D01*
X131869000Y-72060000D02*
X131869000Y-71849000D01*
X131869000Y-74351000D02*
X131869000Y-74140000D01*
X131909000Y-72060000D02*
X131909000Y-71781000D01*
X131909000Y-74419000D02*
X131909000Y-74140000D01*
X131949000Y-72060000D02*
X131949000Y-71717000D01*
X131949000Y-74483000D02*
X131949000Y-74140000D01*
X131989000Y-72060000D02*
X131989000Y-71657000D01*
X131989000Y-74543000D02*
X131989000Y-74140000D01*
X132029000Y-72060000D02*
X132029000Y-71600000D01*
X132029000Y-74600000D02*
X132029000Y-74140000D01*
X132069000Y-72060000D02*
X132069000Y-71546000D01*
X132069000Y-74654000D02*
X132069000Y-74140000D01*
X132109000Y-72060000D02*
X132109000Y-71495000D01*
X132109000Y-74705000D02*
X132109000Y-74140000D01*
X132149000Y-72060000D02*
X132149000Y-71447000D01*
X132149000Y-74753000D02*
X132149000Y-74140000D01*
X132189000Y-72060000D02*
X132189000Y-71401000D01*
X132189000Y-74799000D02*
X132189000Y-74140000D01*
X132229000Y-72060000D02*
X132229000Y-71357000D01*
X132229000Y-74843000D02*
X132229000Y-74140000D01*
X132269000Y-72060000D02*
X132269000Y-71315000D01*
X132269000Y-74885000D02*
X132269000Y-74140000D01*
X132309000Y-72060000D02*
X132309000Y-71274000D01*
X132309000Y-74926000D02*
X132309000Y-74140000D01*
X132349000Y-72060000D02*
X132349000Y-71236000D01*
X132349000Y-74964000D02*
X132349000Y-74140000D01*
X132389000Y-72060000D02*
X132389000Y-71199000D01*
X132389000Y-75001000D02*
X132389000Y-74140000D01*
X132429000Y-72060000D02*
X132429000Y-71163000D01*
X132429000Y-75037000D02*
X132429000Y-74140000D01*
X132469000Y-72060000D02*
X132469000Y-71129000D01*
X132469000Y-75071000D02*
X132469000Y-74140000D01*
X132509000Y-72060000D02*
X132509000Y-71096000D01*
X132509000Y-75104000D02*
X132509000Y-74140000D01*
X132549000Y-72060000D02*
X132549000Y-71065000D01*
X132549000Y-75135000D02*
X132549000Y-74140000D01*
X132589000Y-72060000D02*
X132589000Y-71035000D01*
X132589000Y-75165000D02*
X132589000Y-74140000D01*
X132629000Y-72060000D02*
X132629000Y-71005000D01*
X132629000Y-75195000D02*
X132629000Y-74140000D01*
X132669000Y-72060000D02*
X132669000Y-70978000D01*
X132669000Y-75222000D02*
X132669000Y-74140000D01*
X132709000Y-72060000D02*
X132709000Y-70951000D01*
X132709000Y-75249000D02*
X132709000Y-74140000D01*
X132749000Y-72060000D02*
X132749000Y-70925000D01*
X132749000Y-75275000D02*
X132749000Y-74140000D01*
X132789000Y-72060000D02*
X132789000Y-70900000D01*
X132789000Y-75300000D02*
X132789000Y-74140000D01*
X132829000Y-72060000D02*
X132829000Y-70876000D01*
X132829000Y-75324000D02*
X132829000Y-74140000D01*
X132869000Y-72060000D02*
X132869000Y-70853000D01*
X132869000Y-75347000D02*
X132869000Y-74140000D01*
X132909000Y-72060000D02*
X132909000Y-70832000D01*
X132909000Y-75368000D02*
X132909000Y-74140000D01*
X132949000Y-72060000D02*
X132949000Y-70810000D01*
X132949000Y-75390000D02*
X132949000Y-74140000D01*
X132989000Y-72060000D02*
X132989000Y-70790000D01*
X132989000Y-75410000D02*
X132989000Y-74140000D01*
X133029000Y-72060000D02*
X133029000Y-70771000D01*
X133029000Y-75429000D02*
X133029000Y-74140000D01*
X133069000Y-72060000D02*
X133069000Y-70752000D01*
X133069000Y-75448000D02*
X133069000Y-74140000D01*
X133109000Y-72060000D02*
X133109000Y-70735000D01*
X133109000Y-75465000D02*
X133109000Y-74140000D01*
X133149000Y-72060000D02*
X133149000Y-70718000D01*
X133149000Y-75482000D02*
X133149000Y-74140000D01*
X133189000Y-72060000D02*
X133189000Y-70702000D01*
X133189000Y-75498000D02*
X133189000Y-74140000D01*
X133229000Y-72060000D02*
X133229000Y-70686000D01*
X133229000Y-75514000D02*
X133229000Y-74140000D01*
X133269000Y-72060000D02*
X133269000Y-70672000D01*
X133269000Y-75528000D02*
X133269000Y-74140000D01*
X133309000Y-72060000D02*
X133309000Y-70658000D01*
X133309000Y-75542000D02*
X133309000Y-74140000D01*
X133349000Y-72060000D02*
X133349000Y-70645000D01*
X133349000Y-75555000D02*
X133349000Y-74140000D01*
X133389000Y-72060000D02*
X133389000Y-70632000D01*
X133389000Y-75568000D02*
X133389000Y-74140000D01*
X133429000Y-72060000D02*
X133429000Y-70620000D01*
X133429000Y-75580000D02*
X133429000Y-74140000D01*
X133470000Y-72060000D02*
X133470000Y-70609000D01*
X133470000Y-75591000D02*
X133470000Y-74140000D01*
X133510000Y-72060000D02*
X133510000Y-70599000D01*
X133510000Y-75601000D02*
X133510000Y-74140000D01*
X133550000Y-72060000D02*
X133550000Y-70589000D01*
X133550000Y-75611000D02*
X133550000Y-74140000D01*
X133590000Y-72060000D02*
X133590000Y-70580000D01*
X133590000Y-75620000D02*
X133590000Y-74140000D01*
X133630000Y-72060000D02*
X133630000Y-70572000D01*
X133630000Y-75628000D02*
X133630000Y-74140000D01*
X133670000Y-72060000D02*
X133670000Y-70564000D01*
X133670000Y-75636000D02*
X133670000Y-74140000D01*
X133710000Y-72060000D02*
X133710000Y-70557000D01*
X133710000Y-75643000D02*
X133710000Y-74140000D01*
X133750000Y-72060000D02*
X133750000Y-70550000D01*
X133750000Y-75650000D02*
X133750000Y-74140000D01*
X133790000Y-72060000D02*
X133790000Y-70544000D01*
X133790000Y-75656000D02*
X133790000Y-74140000D01*
X133830000Y-72060000D02*
X133830000Y-70539000D01*
X133830000Y-75661000D02*
X133830000Y-74140000D01*
X133870000Y-72060000D02*
X133870000Y-70535000D01*
X133870000Y-75665000D02*
X133870000Y-74140000D01*
X133910000Y-72060000D02*
X133910000Y-70531000D01*
X133910000Y-75669000D02*
X133910000Y-74140000D01*
X133950000Y-75673000D02*
X133950000Y-70527000D01*
X133990000Y-75676000D02*
X133990000Y-70524000D01*
X134030000Y-75678000D02*
X134030000Y-70522000D01*
X134070000Y-75679000D02*
X134070000Y-70521000D01*
X134110000Y-75680000D02*
X134110000Y-70520000D01*
X134150000Y-75680000D02*
X134150000Y-70520000D01*
X136770000Y-73100000D02*
G75*
G03X136770000Y-73100000I-2620000J0D01*
G01*
D12*
X123870400Y-82624200D02*
X127629600Y-82624200D01*
X123870400Y-76375800D02*
X127629600Y-76375800D01*
X127629600Y-76375800D02*
X127629600Y-82624200D01*
X123870400Y-76375800D02*
X123870400Y-82624200D01*
X128370400Y-82624201D02*
X132129600Y-82624201D01*
X128370400Y-76375801D02*
X132129600Y-76375801D01*
X132129600Y-76375801D02*
X132129600Y-82624201D01*
X128370400Y-76375801D02*
X128370400Y-82624201D01*
D10*
X186666666Y-84042380D02*
X186666666Y-84756666D01*
X186619047Y-84899523D01*
X186523809Y-84994761D01*
X186380952Y-85042380D01*
X186285714Y-85042380D01*
X187047619Y-84042380D02*
X187666666Y-84042380D01*
X187333333Y-84423333D01*
X187476190Y-84423333D01*
X187571428Y-84470952D01*
X187619047Y-84518571D01*
X187666666Y-84613809D01*
X187666666Y-84851904D01*
X187619047Y-84947142D01*
X187571428Y-84994761D01*
X187476190Y-85042380D01*
X187190476Y-85042380D01*
X187095238Y-84994761D01*
X187047619Y-84947142D01*
X185488095Y-98702380D02*
X185488095Y-97702380D01*
X185488095Y-98178571D02*
X186059523Y-98178571D01*
X186059523Y-98702380D02*
X186059523Y-97702380D01*
X186964285Y-98035714D02*
X186964285Y-98702380D01*
X186726190Y-97654761D02*
X186488095Y-98369047D01*
X187107142Y-98369047D01*
X128488095Y-98702380D02*
X128488095Y-97702380D01*
X128488095Y-98178571D02*
X129059523Y-98178571D01*
X129059523Y-98702380D02*
X129059523Y-97702380D01*
X129440476Y-97702380D02*
X130059523Y-97702380D01*
X129726190Y-98083333D01*
X129869047Y-98083333D01*
X129964285Y-98130952D01*
X130011904Y-98178571D01*
X130059523Y-98273809D01*
X130059523Y-98511904D01*
X130011904Y-98607142D01*
X129964285Y-98654761D01*
X129869047Y-98702380D01*
X129583333Y-98702380D01*
X129488095Y-98654761D01*
X129440476Y-98607142D01*
X185488095Y-73702380D02*
X185488095Y-72702380D01*
X185488095Y-73178571D02*
X186059523Y-73178571D01*
X186059523Y-73702380D02*
X186059523Y-72702380D01*
X186488095Y-72797619D02*
X186535714Y-72750000D01*
X186630952Y-72702380D01*
X186869047Y-72702380D01*
X186964285Y-72750000D01*
X187011904Y-72797619D01*
X187059523Y-72892857D01*
X187059523Y-72988095D01*
X187011904Y-73130952D01*
X186440476Y-73702380D01*
X187059523Y-73702380D01*
X128488095Y-73702380D02*
X128488095Y-72702380D01*
X128488095Y-73178571D02*
X129059523Y-73178571D01*
X129059523Y-73702380D02*
X129059523Y-72702380D01*
X130059523Y-73702380D02*
X129488095Y-73702380D01*
X129773809Y-73702380D02*
X129773809Y-72702380D01*
X129678571Y-72845238D01*
X129583333Y-72940476D01*
X129488095Y-72988095D01*
X146966666Y-70052380D02*
X146966666Y-70766666D01*
X146919047Y-70909523D01*
X146823809Y-71004761D01*
X146680952Y-71052380D01*
X146585714Y-71052380D01*
X147871428Y-70385714D02*
X147871428Y-71052380D01*
X147633333Y-70004761D02*
X147395238Y-70719047D01*
X148014285Y-70719047D01*
X160833333Y-100857142D02*
X160785714Y-100904761D01*
X160642857Y-100952380D01*
X160547619Y-100952380D01*
X160404761Y-100904761D01*
X160309523Y-100809523D01*
X160261904Y-100714285D01*
X160214285Y-100523809D01*
X160214285Y-100380952D01*
X160261904Y-100190476D01*
X160309523Y-100095238D01*
X160404761Y-100000000D01*
X160547619Y-99952380D01*
X160642857Y-99952380D01*
X160785714Y-100000000D01*
X160833333Y-100047619D01*
X161404761Y-100380952D02*
X161309523Y-100333333D01*
X161261904Y-100285714D01*
X161214285Y-100190476D01*
X161214285Y-100142857D01*
X161261904Y-100047619D01*
X161309523Y-100000000D01*
X161404761Y-99952380D01*
X161595238Y-99952380D01*
X161690476Y-100000000D01*
X161738095Y-100047619D01*
X161785714Y-100142857D01*
X161785714Y-100190476D01*
X161738095Y-100285714D01*
X161690476Y-100333333D01*
X161595238Y-100380952D01*
X161404761Y-100380952D01*
X161309523Y-100428571D01*
X161261904Y-100476190D01*
X161214285Y-100571428D01*
X161214285Y-100761904D01*
X161261904Y-100857142D01*
X161309523Y-100904761D01*
X161404761Y-100952380D01*
X161595238Y-100952380D01*
X161690476Y-100904761D01*
X161738095Y-100857142D01*
X161785714Y-100761904D01*
X161785714Y-100571428D01*
X161738095Y-100476190D01*
X161690476Y-100428571D01*
X161595238Y-100380952D01*
X157333333Y-100857142D02*
X157285714Y-100904761D01*
X157142857Y-100952380D01*
X157047619Y-100952380D01*
X156904761Y-100904761D01*
X156809523Y-100809523D01*
X156761904Y-100714285D01*
X156714285Y-100523809D01*
X156714285Y-100380952D01*
X156761904Y-100190476D01*
X156809523Y-100095238D01*
X156904761Y-100000000D01*
X157047619Y-99952380D01*
X157142857Y-99952380D01*
X157285714Y-100000000D01*
X157333333Y-100047619D01*
X158190476Y-100285714D02*
X158190476Y-100952380D01*
X157952380Y-99904761D02*
X157714285Y-100619047D01*
X158333333Y-100619047D01*
X153833333Y-100857142D02*
X153785714Y-100904761D01*
X153642857Y-100952380D01*
X153547619Y-100952380D01*
X153404761Y-100904761D01*
X153309523Y-100809523D01*
X153261904Y-100714285D01*
X153214285Y-100523809D01*
X153214285Y-100380952D01*
X153261904Y-100190476D01*
X153309523Y-100095238D01*
X153404761Y-100000000D01*
X153547619Y-99952380D01*
X153642857Y-99952380D01*
X153785714Y-100000000D01*
X153833333Y-100047619D01*
X154214285Y-100047619D02*
X154261904Y-100000000D01*
X154357142Y-99952380D01*
X154595238Y-99952380D01*
X154690476Y-100000000D01*
X154738095Y-100047619D01*
X154785714Y-100142857D01*
X154785714Y-100238095D01*
X154738095Y-100380952D01*
X154166666Y-100952380D01*
X154785714Y-100952380D01*
X172404761Y-76702380D02*
X172071428Y-76226190D01*
X171833333Y-76702380D02*
X171833333Y-75702380D01*
X172214285Y-75702380D01*
X172309523Y-75750000D01*
X172357142Y-75797619D01*
X172404761Y-75892857D01*
X172404761Y-76035714D01*
X172357142Y-76130952D01*
X172309523Y-76178571D01*
X172214285Y-76226190D01*
X171833333Y-76226190D01*
X172690476Y-75702380D02*
X173023809Y-76702380D01*
X173357142Y-75702380D01*
X173642857Y-75797619D02*
X173690476Y-75750000D01*
X173785714Y-75702380D01*
X174023809Y-75702380D01*
X174119047Y-75750000D01*
X174166666Y-75797619D01*
X174214285Y-75892857D01*
X174214285Y-75988095D01*
X174166666Y-76130952D01*
X173595238Y-76702380D01*
X174214285Y-76702380D01*
X162904761Y-80452380D02*
X162571428Y-79976190D01*
X162333333Y-80452380D02*
X162333333Y-79452380D01*
X162714285Y-79452380D01*
X162809523Y-79500000D01*
X162857142Y-79547619D01*
X162904761Y-79642857D01*
X162904761Y-79785714D01*
X162857142Y-79880952D01*
X162809523Y-79928571D01*
X162714285Y-79976190D01*
X162333333Y-79976190D01*
X163190476Y-79452380D02*
X163523809Y-80452380D01*
X163857142Y-79452380D01*
X164714285Y-80452380D02*
X164142857Y-80452380D01*
X164428571Y-80452380D02*
X164428571Y-79452380D01*
X164333333Y-79595238D01*
X164238095Y-79690476D01*
X164142857Y-79738095D01*
X152583333Y-79702380D02*
X152250000Y-79226190D01*
X152011904Y-79702380D02*
X152011904Y-78702380D01*
X152392857Y-78702380D01*
X152488095Y-78750000D01*
X152535714Y-78797619D01*
X152583333Y-78892857D01*
X152583333Y-79035714D01*
X152535714Y-79130952D01*
X152488095Y-79178571D01*
X152392857Y-79226190D01*
X152011904Y-79226190D01*
X153154761Y-79130952D02*
X153059523Y-79083333D01*
X153011904Y-79035714D01*
X152964285Y-78940476D01*
X152964285Y-78892857D01*
X153011904Y-78797619D01*
X153059523Y-78750000D01*
X153154761Y-78702380D01*
X153345238Y-78702380D01*
X153440476Y-78750000D01*
X153488095Y-78797619D01*
X153535714Y-78892857D01*
X153535714Y-78940476D01*
X153488095Y-79035714D01*
X153440476Y-79083333D01*
X153345238Y-79130952D01*
X153154761Y-79130952D01*
X153059523Y-79178571D01*
X153011904Y-79226190D01*
X152964285Y-79321428D01*
X152964285Y-79511904D01*
X153011904Y-79607142D01*
X153059523Y-79654761D01*
X153154761Y-79702380D01*
X153345238Y-79702380D01*
X153440476Y-79654761D01*
X153488095Y-79607142D01*
X153535714Y-79511904D01*
X153535714Y-79321428D01*
X153488095Y-79226190D01*
X153440476Y-79178571D01*
X153345238Y-79130952D01*
X155833333Y-75452380D02*
X155500000Y-74976190D01*
X155261904Y-75452380D02*
X155261904Y-74452380D01*
X155642857Y-74452380D01*
X155738095Y-74500000D01*
X155785714Y-74547619D01*
X155833333Y-74642857D01*
X155833333Y-74785714D01*
X155785714Y-74880952D01*
X155738095Y-74928571D01*
X155642857Y-74976190D01*
X155261904Y-74976190D01*
X156166666Y-74452380D02*
X156833333Y-74452380D01*
X156404761Y-75452380D01*
X163623333Y-101052380D02*
X163290000Y-100576190D01*
X163051904Y-101052380D02*
X163051904Y-100052380D01*
X163432857Y-100052380D01*
X163528095Y-100100000D01*
X163575714Y-100147619D01*
X163623333Y-100242857D01*
X163623333Y-100385714D01*
X163575714Y-100480952D01*
X163528095Y-100528571D01*
X163432857Y-100576190D01*
X163051904Y-100576190D01*
X164480476Y-100052380D02*
X164290000Y-100052380D01*
X164194761Y-100100000D01*
X164147142Y-100147619D01*
X164051904Y-100290476D01*
X164004285Y-100480952D01*
X164004285Y-100861904D01*
X164051904Y-100957142D01*
X164099523Y-101004761D01*
X164194761Y-101052380D01*
X164385238Y-101052380D01*
X164480476Y-101004761D01*
X164528095Y-100957142D01*
X164575714Y-100861904D01*
X164575714Y-100623809D01*
X164528095Y-100528571D01*
X164480476Y-100480952D01*
X164385238Y-100433333D01*
X164194761Y-100433333D01*
X164099523Y-100480952D01*
X164051904Y-100528571D01*
X164004285Y-100623809D01*
X152583333Y-84202380D02*
X152250000Y-83726190D01*
X152011904Y-84202380D02*
X152011904Y-83202380D01*
X152392857Y-83202380D01*
X152488095Y-83250000D01*
X152535714Y-83297619D01*
X152583333Y-83392857D01*
X152583333Y-83535714D01*
X152535714Y-83630952D01*
X152488095Y-83678571D01*
X152392857Y-83726190D01*
X152011904Y-83726190D01*
X153488095Y-83202380D02*
X153011904Y-83202380D01*
X152964285Y-83678571D01*
X153011904Y-83630952D01*
X153107142Y-83583333D01*
X153345238Y-83583333D01*
X153440476Y-83630952D01*
X153488095Y-83678571D01*
X153535714Y-83773809D01*
X153535714Y-84011904D01*
X153488095Y-84107142D01*
X153440476Y-84154761D01*
X153345238Y-84202380D01*
X153107142Y-84202380D01*
X153011904Y-84154761D01*
X152964285Y-84107142D01*
X149833333Y-88952380D02*
X149500000Y-88476190D01*
X149261904Y-88952380D02*
X149261904Y-87952380D01*
X149642857Y-87952380D01*
X149738095Y-88000000D01*
X149785714Y-88047619D01*
X149833333Y-88142857D01*
X149833333Y-88285714D01*
X149785714Y-88380952D01*
X149738095Y-88428571D01*
X149642857Y-88476190D01*
X149261904Y-88476190D01*
X150690476Y-88285714D02*
X150690476Y-88952380D01*
X150452380Y-87904761D02*
X150214285Y-88619047D01*
X150833333Y-88619047D01*
X122933333Y-90352380D02*
X122600000Y-89876190D01*
X122361904Y-90352380D02*
X122361904Y-89352380D01*
X122742857Y-89352380D01*
X122838095Y-89400000D01*
X122885714Y-89447619D01*
X122933333Y-89542857D01*
X122933333Y-89685714D01*
X122885714Y-89780952D01*
X122838095Y-89828571D01*
X122742857Y-89876190D01*
X122361904Y-89876190D01*
X123266666Y-89352380D02*
X123885714Y-89352380D01*
X123552380Y-89733333D01*
X123695238Y-89733333D01*
X123790476Y-89780952D01*
X123838095Y-89828571D01*
X123885714Y-89923809D01*
X123885714Y-90161904D01*
X123838095Y-90257142D01*
X123790476Y-90304761D01*
X123695238Y-90352380D01*
X123409523Y-90352380D01*
X123314285Y-90304761D01*
X123266666Y-90257142D01*
X139213333Y-101172380D02*
X138880000Y-100696190D01*
X138641904Y-101172380D02*
X138641904Y-100172380D01*
X139022857Y-100172380D01*
X139118095Y-100220000D01*
X139165714Y-100267619D01*
X139213333Y-100362857D01*
X139213333Y-100505714D01*
X139165714Y-100600952D01*
X139118095Y-100648571D01*
X139022857Y-100696190D01*
X138641904Y-100696190D01*
X139594285Y-100267619D02*
X139641904Y-100220000D01*
X139737142Y-100172380D01*
X139975238Y-100172380D01*
X140070476Y-100220000D01*
X140118095Y-100267619D01*
X140165714Y-100362857D01*
X140165714Y-100458095D01*
X140118095Y-100600952D01*
X139546666Y-101172380D01*
X140165714Y-101172380D01*
X123133333Y-94152380D02*
X122800000Y-93676190D01*
X122561904Y-94152380D02*
X122561904Y-93152380D01*
X122942857Y-93152380D01*
X123038095Y-93200000D01*
X123085714Y-93247619D01*
X123133333Y-93342857D01*
X123133333Y-93485714D01*
X123085714Y-93580952D01*
X123038095Y-93628571D01*
X122942857Y-93676190D01*
X122561904Y-93676190D01*
X124085714Y-94152380D02*
X123514285Y-94152380D01*
X123800000Y-94152380D02*
X123800000Y-93152380D01*
X123704761Y-93295238D01*
X123609523Y-93390476D01*
X123514285Y-93438095D01*
X151304761Y-77147619D02*
X151209523Y-77100000D01*
X151114285Y-77004761D01*
X150971428Y-76861904D01*
X150876190Y-76814285D01*
X150780952Y-76814285D01*
X150828571Y-77052380D02*
X150733333Y-77004761D01*
X150638095Y-76909523D01*
X150590476Y-76719047D01*
X150590476Y-76385714D01*
X150638095Y-76195238D01*
X150733333Y-76100000D01*
X150828571Y-76052380D01*
X151019047Y-76052380D01*
X151114285Y-76100000D01*
X151209523Y-76195238D01*
X151257142Y-76385714D01*
X151257142Y-76719047D01*
X151209523Y-76909523D01*
X151114285Y-77004761D01*
X151019047Y-77052380D01*
X150828571Y-77052380D01*
X151638095Y-76147619D02*
X151685714Y-76100000D01*
X151780952Y-76052380D01*
X152019047Y-76052380D01*
X152114285Y-76100000D01*
X152161904Y-76147619D01*
X152209523Y-76242857D01*
X152209523Y-76338095D01*
X152161904Y-76480952D01*
X151590476Y-77052380D01*
X152209523Y-77052380D01*
X157904761Y-81047619D02*
X157809523Y-81000000D01*
X157714285Y-80904761D01*
X157571428Y-80761904D01*
X157476190Y-80714285D01*
X157380952Y-80714285D01*
X157428571Y-80952380D02*
X157333333Y-80904761D01*
X157238095Y-80809523D01*
X157190476Y-80619047D01*
X157190476Y-80285714D01*
X157238095Y-80095238D01*
X157333333Y-80000000D01*
X157428571Y-79952380D01*
X157619047Y-79952380D01*
X157714285Y-80000000D01*
X157809523Y-80095238D01*
X157857142Y-80285714D01*
X157857142Y-80619047D01*
X157809523Y-80809523D01*
X157714285Y-80904761D01*
X157619047Y-80952380D01*
X157428571Y-80952380D01*
X158809523Y-80952380D02*
X158238095Y-80952380D01*
X158523809Y-80952380D02*
X158523809Y-79952380D01*
X158428571Y-80095238D01*
X158333333Y-80190476D01*
X158238095Y-80238095D01*
X186666666Y-77642380D02*
X186666666Y-78356666D01*
X186619047Y-78499523D01*
X186523809Y-78594761D01*
X186380952Y-78642380D01*
X186285714Y-78642380D01*
X187095238Y-77737619D02*
X187142857Y-77690000D01*
X187238095Y-77642380D01*
X187476190Y-77642380D01*
X187571428Y-77690000D01*
X187619047Y-77737619D01*
X187666666Y-77832857D01*
X187666666Y-77928095D01*
X187619047Y-78070952D01*
X187047619Y-78642380D01*
X187666666Y-78642380D01*
X142016666Y-70052380D02*
X142016666Y-70766666D01*
X141969047Y-70909523D01*
X141873809Y-71004761D01*
X141730952Y-71052380D01*
X141635714Y-71052380D01*
X143016666Y-71052380D02*
X142445238Y-71052380D01*
X142730952Y-71052380D02*
X142730952Y-70052380D01*
X142635714Y-70195238D01*
X142540476Y-70290476D01*
X142445238Y-70338095D01*
X178107142Y-85857142D02*
X178059523Y-85904761D01*
X177916666Y-85952380D01*
X177821428Y-85952380D01*
X177678571Y-85904761D01*
X177583333Y-85809523D01*
X177535714Y-85714285D01*
X177488095Y-85523809D01*
X177488095Y-85380952D01*
X177535714Y-85190476D01*
X177583333Y-85095238D01*
X177678571Y-85000000D01*
X177821428Y-84952380D01*
X177916666Y-84952380D01*
X178059523Y-85000000D01*
X178107142Y-85047619D01*
X179059523Y-85952380D02*
X178488095Y-85952380D01*
X178773809Y-85952380D02*
X178773809Y-84952380D01*
X178678571Y-85095238D01*
X178583333Y-85190476D01*
X178488095Y-85238095D01*
X180011904Y-85952380D02*
X179440476Y-85952380D01*
X179726190Y-85952380D02*
X179726190Y-84952380D01*
X179630952Y-85095238D01*
X179535714Y-85190476D01*
X179440476Y-85238095D01*
X179357142Y-73357142D02*
X179309523Y-73404761D01*
X179166666Y-73452380D01*
X179071428Y-73452380D01*
X178928571Y-73404761D01*
X178833333Y-73309523D01*
X178785714Y-73214285D01*
X178738095Y-73023809D01*
X178738095Y-72880952D01*
X178785714Y-72690476D01*
X178833333Y-72595238D01*
X178928571Y-72500000D01*
X179071428Y-72452380D01*
X179166666Y-72452380D01*
X179309523Y-72500000D01*
X179357142Y-72547619D01*
X180309523Y-73452380D02*
X179738095Y-73452380D01*
X180023809Y-73452380D02*
X180023809Y-72452380D01*
X179928571Y-72595238D01*
X179833333Y-72690476D01*
X179738095Y-72738095D01*
X180928571Y-72452380D02*
X181023809Y-72452380D01*
X181119047Y-72500000D01*
X181166666Y-72547619D01*
X181214285Y-72642857D01*
X181261904Y-72833333D01*
X181261904Y-73071428D01*
X181214285Y-73261904D01*
X181166666Y-73357142D01*
X181119047Y-73404761D01*
X181023809Y-73452380D01*
X180928571Y-73452380D01*
X180833333Y-73404761D01*
X180785714Y-73357142D01*
X180738095Y-73261904D01*
X180690476Y-73071428D01*
X180690476Y-72833333D01*
X180738095Y-72642857D01*
X180785714Y-72547619D01*
X180833333Y-72500000D01*
X180928571Y-72452380D01*
X140833333Y-87357142D02*
X140785714Y-87404761D01*
X140642857Y-87452380D01*
X140547619Y-87452380D01*
X140404761Y-87404761D01*
X140309523Y-87309523D01*
X140261904Y-87214285D01*
X140214285Y-87023809D01*
X140214285Y-86880952D01*
X140261904Y-86690476D01*
X140309523Y-86595238D01*
X140404761Y-86500000D01*
X140547619Y-86452380D01*
X140642857Y-86452380D01*
X140785714Y-86500000D01*
X140833333Y-86547619D01*
X141309523Y-87452380D02*
X141500000Y-87452380D01*
X141595238Y-87404761D01*
X141642857Y-87357142D01*
X141738095Y-87214285D01*
X141785714Y-87023809D01*
X141785714Y-86642857D01*
X141738095Y-86547619D01*
X141690476Y-86500000D01*
X141595238Y-86452380D01*
X141404761Y-86452380D01*
X141309523Y-86500000D01*
X141261904Y-86547619D01*
X141214285Y-86642857D01*
X141214285Y-86880952D01*
X141261904Y-86976190D01*
X141309523Y-87023809D01*
X141404761Y-87071428D01*
X141595238Y-87071428D01*
X141690476Y-87023809D01*
X141738095Y-86976190D01*
X141785714Y-86880952D01*
X123083333Y-86607142D02*
X123035714Y-86654761D01*
X122892857Y-86702380D01*
X122797619Y-86702380D01*
X122654761Y-86654761D01*
X122559523Y-86559523D01*
X122511904Y-86464285D01*
X122464285Y-86273809D01*
X122464285Y-86130952D01*
X122511904Y-85940476D01*
X122559523Y-85845238D01*
X122654761Y-85750000D01*
X122797619Y-85702380D01*
X122892857Y-85702380D01*
X123035714Y-85750000D01*
X123083333Y-85797619D01*
X123416666Y-85702380D02*
X124083333Y-85702380D01*
X123654761Y-86702380D01*
X129250001Y-85702380D02*
X129250001Y-85940476D01*
X129011905Y-85845238D02*
X129250001Y-85940476D01*
X129488096Y-85845238D01*
X129107143Y-86130952D02*
X129250001Y-85940476D01*
X129392858Y-86130952D01*
X149083333Y-97107142D02*
X149035714Y-97154761D01*
X148892857Y-97202380D01*
X148797619Y-97202380D01*
X148654761Y-97154761D01*
X148559523Y-97059523D01*
X148511904Y-96964285D01*
X148464285Y-96773809D01*
X148464285Y-96630952D01*
X148511904Y-96440476D01*
X148559523Y-96345238D01*
X148654761Y-96250000D01*
X148797619Y-96202380D01*
X148892857Y-96202380D01*
X149035714Y-96250000D01*
X149083333Y-96297619D01*
X149940476Y-96202380D02*
X149750000Y-96202380D01*
X149654761Y-96250000D01*
X149607142Y-96297619D01*
X149511904Y-96440476D01*
X149464285Y-96630952D01*
X149464285Y-97011904D01*
X149511904Y-97107142D01*
X149559523Y-97154761D01*
X149654761Y-97202380D01*
X149845238Y-97202380D01*
X149940476Y-97154761D01*
X149988095Y-97107142D01*
X150035714Y-97011904D01*
X150035714Y-96773809D01*
X149988095Y-96678571D01*
X149940476Y-96630952D01*
X149845238Y-96583333D01*
X149654761Y-96583333D01*
X149559523Y-96630952D01*
X149511904Y-96678571D01*
X149464285Y-96773809D01*
X130583333Y-71107142D02*
X130535714Y-71154761D01*
X130392857Y-71202380D01*
X130297619Y-71202380D01*
X130154761Y-71154761D01*
X130059523Y-71059523D01*
X130011904Y-70964285D01*
X129964285Y-70773809D01*
X129964285Y-70630952D01*
X130011904Y-70440476D01*
X130059523Y-70345238D01*
X130154761Y-70250000D01*
X130297619Y-70202380D01*
X130392857Y-70202380D01*
X130535714Y-70250000D01*
X130583333Y-70297619D01*
X131488095Y-70202380D02*
X131011904Y-70202380D01*
X130964285Y-70678571D01*
X131011904Y-70630952D01*
X131107142Y-70583333D01*
X131345238Y-70583333D01*
X131440476Y-70630952D01*
X131488095Y-70678571D01*
X131535714Y-70773809D01*
X131535714Y-71011904D01*
X131488095Y-71107142D01*
X131440476Y-71154761D01*
X131345238Y-71202380D01*
X131107142Y-71202380D01*
X131011904Y-71154761D01*
X130964285Y-71107142D01*
X122583333Y-82607142D02*
X122535714Y-82654761D01*
X122392857Y-82702380D01*
X122297619Y-82702380D01*
X122154761Y-82654761D01*
X122059523Y-82559523D01*
X122011904Y-82464285D01*
X121964285Y-82273809D01*
X121964285Y-82130952D01*
X122011904Y-81940476D01*
X122059523Y-81845238D01*
X122154761Y-81750000D01*
X122297619Y-81702380D01*
X122392857Y-81702380D01*
X122535714Y-81750000D01*
X122583333Y-81797619D01*
X122916666Y-81702380D02*
X123535714Y-81702380D01*
X123202380Y-82083333D01*
X123345238Y-82083333D01*
X123440476Y-82130952D01*
X123488095Y-82178571D01*
X123535714Y-82273809D01*
X123535714Y-82511904D01*
X123488095Y-82607142D01*
X123440476Y-82654761D01*
X123345238Y-82702380D01*
X123059523Y-82702380D01*
X122964285Y-82654761D01*
X122916666Y-82607142D01*
X124202380Y-81250000D02*
X124440476Y-81250000D01*
X124345238Y-81488095D02*
X124440476Y-81250000D01*
X124345238Y-81011904D01*
X124630952Y-81392857D02*
X124440476Y-81250000D01*
X124630952Y-81107142D01*
X133083333Y-82607142D02*
X133035714Y-82654761D01*
X132892857Y-82702380D01*
X132797619Y-82702380D01*
X132654761Y-82654761D01*
X132559523Y-82559523D01*
X132511904Y-82464285D01*
X132464285Y-82273809D01*
X132464285Y-82130952D01*
X132511904Y-81940476D01*
X132559523Y-81845238D01*
X132654761Y-81750000D01*
X132797619Y-81702380D01*
X132892857Y-81702380D01*
X133035714Y-81750000D01*
X133083333Y-81797619D01*
X134035714Y-82702380D02*
X133464285Y-82702380D01*
X133750000Y-82702380D02*
X133750000Y-81702380D01*
X133654761Y-81845238D01*
X133559523Y-81940476D01*
X133464285Y-81988095D01*
X128702380Y-81250001D02*
X128940476Y-81250001D01*
X128845238Y-81488096D02*
X128940476Y-81250001D01*
X128845238Y-81011905D01*
X129130952Y-81392858D02*
X128940476Y-81250001D01*
X129130952Y-81107143D01*
M02*
