G04 #@! TF.GenerationSoftware,KiCad,Pcbnew,(5.1.5)-3*
G04 #@! TF.CreationDate,2020-05-06T20:42:18-04:00*
G04 #@! TF.ProjectId,2ToneSineGenSSB,32546f6e-6553-4696-9e65-47656e535342,rev?*
G04 #@! TF.SameCoordinates,Original*
G04 #@! TF.FileFunction,Soldermask,Bot*
G04 #@! TF.FilePolarity,Negative*
%FSLAX46Y46*%
G04 Gerber Fmt 4.6, Leading zero omitted, Abs format (unit mm)*
G04 Created by KiCad (PCBNEW (5.1.5)-3) date 2020-05-06 20:42:18*
%MOMM*%
%LPD*%
G04 APERTURE LIST*
%ADD10C,0.100000*%
G04 APERTURE END LIST*
D10*
G36*
X190698903Y-95993213D02*
G01*
X190921177Y-96037426D01*
X191339932Y-96210880D01*
X191716802Y-96462696D01*
X192037304Y-96783198D01*
X192289120Y-97160068D01*
X192430821Y-97502165D01*
X192462574Y-97578824D01*
X192551000Y-98023370D01*
X192551000Y-98476630D01*
X192537901Y-98542481D01*
X192462574Y-98921177D01*
X192289120Y-99339932D01*
X192037304Y-99716802D01*
X191716802Y-100037304D01*
X191339932Y-100289120D01*
X190921177Y-100462574D01*
X190698903Y-100506787D01*
X190476630Y-100551000D01*
X190023370Y-100551000D01*
X189801097Y-100506787D01*
X189578823Y-100462574D01*
X189160068Y-100289120D01*
X188783198Y-100037304D01*
X188462696Y-99716802D01*
X188210880Y-99339932D01*
X188037426Y-98921177D01*
X187962099Y-98542481D01*
X187949000Y-98476630D01*
X187949000Y-98023370D01*
X188037426Y-97578824D01*
X188069179Y-97502165D01*
X188210880Y-97160068D01*
X188462696Y-96783198D01*
X188783198Y-96462696D01*
X189160068Y-96210880D01*
X189578823Y-96037426D01*
X189801097Y-95993213D01*
X190023370Y-95949000D01*
X190476630Y-95949000D01*
X190698903Y-95993213D01*
G37*
G36*
X125698903Y-95993213D02*
G01*
X125921177Y-96037426D01*
X126339932Y-96210880D01*
X126716802Y-96462696D01*
X127037304Y-96783198D01*
X127289120Y-97160068D01*
X127430821Y-97502165D01*
X127462574Y-97578824D01*
X127551000Y-98023370D01*
X127551000Y-98476630D01*
X127537901Y-98542481D01*
X127462574Y-98921177D01*
X127289120Y-99339932D01*
X127037304Y-99716802D01*
X126716802Y-100037304D01*
X126339932Y-100289120D01*
X125921177Y-100462574D01*
X125698903Y-100506787D01*
X125476630Y-100551000D01*
X125023370Y-100551000D01*
X124801097Y-100506787D01*
X124578823Y-100462574D01*
X124160068Y-100289120D01*
X123783198Y-100037304D01*
X123462696Y-99716802D01*
X123210880Y-99339932D01*
X123037426Y-98921177D01*
X122962099Y-98542481D01*
X122949000Y-98476630D01*
X122949000Y-98023370D01*
X123037426Y-97578824D01*
X123069179Y-97502165D01*
X123210880Y-97160068D01*
X123462696Y-96783198D01*
X123783198Y-96462696D01*
X124160068Y-96210880D01*
X124578823Y-96037426D01*
X124801097Y-95993213D01*
X125023370Y-95949000D01*
X125476630Y-95949000D01*
X125698903Y-95993213D01*
G37*
G36*
X157806564Y-96989389D02*
G01*
X157997833Y-97068615D01*
X157997835Y-97068616D01*
X158167082Y-97181703D01*
X158169973Y-97183635D01*
X158316365Y-97330027D01*
X158431385Y-97502167D01*
X158510611Y-97693436D01*
X158551000Y-97896484D01*
X158551000Y-98103516D01*
X158510611Y-98306564D01*
X158431385Y-98497833D01*
X158431384Y-98497835D01*
X158316365Y-98669973D01*
X158169973Y-98816365D01*
X157997835Y-98931384D01*
X157997834Y-98931385D01*
X157997833Y-98931385D01*
X157806564Y-99010611D01*
X157603516Y-99051000D01*
X157396484Y-99051000D01*
X157193436Y-99010611D01*
X157002167Y-98931385D01*
X157002166Y-98931385D01*
X157002165Y-98931384D01*
X156830027Y-98816365D01*
X156683635Y-98669973D01*
X156568616Y-98497835D01*
X156568615Y-98497833D01*
X156489389Y-98306564D01*
X156449000Y-98103516D01*
X156449000Y-97896484D01*
X156489389Y-97693436D01*
X156568615Y-97502167D01*
X156683635Y-97330027D01*
X156830027Y-97183635D01*
X156832918Y-97181703D01*
X157002165Y-97068616D01*
X157002167Y-97068615D01*
X157193436Y-96989389D01*
X157396484Y-96949000D01*
X157603516Y-96949000D01*
X157806564Y-96989389D01*
G37*
G36*
X154306564Y-96989389D02*
G01*
X154497833Y-97068615D01*
X154497835Y-97068616D01*
X154667082Y-97181703D01*
X154669973Y-97183635D01*
X154816365Y-97330027D01*
X154931385Y-97502167D01*
X155010611Y-97693436D01*
X155051000Y-97896484D01*
X155051000Y-98103516D01*
X155010611Y-98306564D01*
X154931385Y-98497833D01*
X154931384Y-98497835D01*
X154816365Y-98669973D01*
X154669973Y-98816365D01*
X154497835Y-98931384D01*
X154497834Y-98931385D01*
X154497833Y-98931385D01*
X154306564Y-99010611D01*
X154103516Y-99051000D01*
X153896484Y-99051000D01*
X153693436Y-99010611D01*
X153502167Y-98931385D01*
X153502166Y-98931385D01*
X153502165Y-98931384D01*
X153330027Y-98816365D01*
X153183635Y-98669973D01*
X153068616Y-98497835D01*
X153068615Y-98497833D01*
X152989389Y-98306564D01*
X152949000Y-98103516D01*
X152949000Y-97896484D01*
X152989389Y-97693436D01*
X153068615Y-97502167D01*
X153183635Y-97330027D01*
X153330027Y-97183635D01*
X153332918Y-97181703D01*
X153502165Y-97068616D01*
X153502167Y-97068615D01*
X153693436Y-96989389D01*
X153896484Y-96949000D01*
X154103516Y-96949000D01*
X154306564Y-96989389D01*
G37*
G36*
X161306564Y-96989389D02*
G01*
X161497833Y-97068615D01*
X161497835Y-97068616D01*
X161667082Y-97181703D01*
X161669973Y-97183635D01*
X161816365Y-97330027D01*
X161931385Y-97502167D01*
X162010611Y-97693436D01*
X162051000Y-97896484D01*
X162051000Y-98103516D01*
X162010611Y-98306564D01*
X161931385Y-98497833D01*
X161931384Y-98497835D01*
X161816365Y-98669973D01*
X161669973Y-98816365D01*
X161497835Y-98931384D01*
X161497834Y-98931385D01*
X161497833Y-98931385D01*
X161306564Y-99010611D01*
X161103516Y-99051000D01*
X160896484Y-99051000D01*
X160693436Y-99010611D01*
X160502167Y-98931385D01*
X160502166Y-98931385D01*
X160502165Y-98931384D01*
X160330027Y-98816365D01*
X160183635Y-98669973D01*
X160068616Y-98497835D01*
X160068615Y-98497833D01*
X159989389Y-98306564D01*
X159949000Y-98103516D01*
X159949000Y-97896484D01*
X159989389Y-97693436D01*
X160068615Y-97502167D01*
X160183635Y-97330027D01*
X160330027Y-97183635D01*
X160332918Y-97181703D01*
X160502165Y-97068616D01*
X160502167Y-97068615D01*
X160693436Y-96989389D01*
X160896484Y-96949000D01*
X161103516Y-96949000D01*
X161306564Y-96989389D01*
G37*
G36*
X179238228Y-97181703D02*
G01*
X179393100Y-97245853D01*
X179532481Y-97338985D01*
X179651015Y-97457519D01*
X179744147Y-97596900D01*
X179808297Y-97751772D01*
X179841000Y-97916184D01*
X179841000Y-98083816D01*
X179808297Y-98248228D01*
X179744147Y-98403100D01*
X179651015Y-98542481D01*
X179532481Y-98661015D01*
X179393100Y-98754147D01*
X179238228Y-98818297D01*
X179073816Y-98851000D01*
X178906184Y-98851000D01*
X178741772Y-98818297D01*
X178586900Y-98754147D01*
X178447519Y-98661015D01*
X178328985Y-98542481D01*
X178235853Y-98403100D01*
X178171703Y-98248228D01*
X178139000Y-98083816D01*
X178139000Y-97916184D01*
X178171703Y-97751772D01*
X178235853Y-97596900D01*
X178328985Y-97457519D01*
X178447519Y-97338985D01*
X178586900Y-97245853D01*
X178741772Y-97181703D01*
X178906184Y-97149000D01*
X179073816Y-97149000D01*
X179238228Y-97181703D01*
G37*
G36*
X163998228Y-97181703D02*
G01*
X164153100Y-97245853D01*
X164292481Y-97338985D01*
X164411015Y-97457519D01*
X164504147Y-97596900D01*
X164568297Y-97751772D01*
X164601000Y-97916184D01*
X164601000Y-98083816D01*
X164568297Y-98248228D01*
X164504147Y-98403100D01*
X164411015Y-98542481D01*
X164292481Y-98661015D01*
X164153100Y-98754147D01*
X163998228Y-98818297D01*
X163833816Y-98851000D01*
X163666184Y-98851000D01*
X163501772Y-98818297D01*
X163346900Y-98754147D01*
X163207519Y-98661015D01*
X163088985Y-98542481D01*
X162995853Y-98403100D01*
X162931703Y-98248228D01*
X162899000Y-98083816D01*
X162899000Y-97916184D01*
X162931703Y-97751772D01*
X162995853Y-97596900D01*
X163088985Y-97457519D01*
X163207519Y-97338985D01*
X163346900Y-97245853D01*
X163501772Y-97181703D01*
X163666184Y-97149000D01*
X163833816Y-97149000D01*
X163998228Y-97181703D01*
G37*
G36*
X147248228Y-97181703D02*
G01*
X147403100Y-97245853D01*
X147542481Y-97338985D01*
X147661015Y-97457519D01*
X147754147Y-97596900D01*
X147818297Y-97751772D01*
X147851000Y-97916184D01*
X147851000Y-98083816D01*
X147818297Y-98248228D01*
X147754147Y-98403100D01*
X147661015Y-98542481D01*
X147542481Y-98661015D01*
X147403100Y-98754147D01*
X147248228Y-98818297D01*
X147083816Y-98851000D01*
X146916184Y-98851000D01*
X146751772Y-98818297D01*
X146596900Y-98754147D01*
X146457519Y-98661015D01*
X146338985Y-98542481D01*
X146245853Y-98403100D01*
X146181703Y-98248228D01*
X146149000Y-98083816D01*
X146149000Y-97916184D01*
X146181703Y-97751772D01*
X146245853Y-97596900D01*
X146338985Y-97457519D01*
X146457519Y-97338985D01*
X146596900Y-97245853D01*
X146751772Y-97181703D01*
X146916184Y-97149000D01*
X147083816Y-97149000D01*
X147248228Y-97181703D01*
G37*
G36*
X132008228Y-97181703D02*
G01*
X132163100Y-97245853D01*
X132302481Y-97338985D01*
X132421015Y-97457519D01*
X132514147Y-97596900D01*
X132578297Y-97751772D01*
X132611000Y-97916184D01*
X132611000Y-98083816D01*
X132578297Y-98248228D01*
X132514147Y-98403100D01*
X132421015Y-98542481D01*
X132302481Y-98661015D01*
X132163100Y-98754147D01*
X132008228Y-98818297D01*
X131843816Y-98851000D01*
X131676184Y-98851000D01*
X131511772Y-98818297D01*
X131356900Y-98754147D01*
X131217519Y-98661015D01*
X131098985Y-98542481D01*
X131005853Y-98403100D01*
X130941703Y-98248228D01*
X130909000Y-98083816D01*
X130909000Y-97916184D01*
X130941703Y-97751772D01*
X131005853Y-97596900D01*
X131098985Y-97457519D01*
X131217519Y-97338985D01*
X131356900Y-97245853D01*
X131511772Y-97181703D01*
X131676184Y-97149000D01*
X131843816Y-97149000D01*
X132008228Y-97181703D01*
G37*
G36*
X125548228Y-92881703D02*
G01*
X125703100Y-92945853D01*
X125842481Y-93038985D01*
X125961015Y-93157519D01*
X126054147Y-93296900D01*
X126118297Y-93451772D01*
X126151000Y-93616184D01*
X126151000Y-93783816D01*
X126118297Y-93948228D01*
X126054147Y-94103100D01*
X125961015Y-94242481D01*
X125842481Y-94361015D01*
X125703100Y-94454147D01*
X125548228Y-94518297D01*
X125383816Y-94551000D01*
X125216184Y-94551000D01*
X125051772Y-94518297D01*
X124896900Y-94454147D01*
X124757519Y-94361015D01*
X124638985Y-94242481D01*
X124545853Y-94103100D01*
X124481703Y-93948228D01*
X124449000Y-93783816D01*
X124449000Y-93616184D01*
X124481703Y-93451772D01*
X124545853Y-93296900D01*
X124638985Y-93157519D01*
X124757519Y-93038985D01*
X124896900Y-92945853D01*
X125051772Y-92881703D01*
X125216184Y-92849000D01*
X125383816Y-92849000D01*
X125548228Y-92881703D01*
G37*
G36*
X140788228Y-92881703D02*
G01*
X140943100Y-92945853D01*
X141082481Y-93038985D01*
X141201015Y-93157519D01*
X141294147Y-93296900D01*
X141358297Y-93451772D01*
X141391000Y-93616184D01*
X141391000Y-93783816D01*
X141358297Y-93948228D01*
X141294147Y-94103100D01*
X141201015Y-94242481D01*
X141082481Y-94361015D01*
X140943100Y-94454147D01*
X140788228Y-94518297D01*
X140623816Y-94551000D01*
X140456184Y-94551000D01*
X140291772Y-94518297D01*
X140136900Y-94454147D01*
X139997519Y-94361015D01*
X139878985Y-94242481D01*
X139785853Y-94103100D01*
X139721703Y-93948228D01*
X139689000Y-93783816D01*
X139689000Y-93616184D01*
X139721703Y-93451772D01*
X139785853Y-93296900D01*
X139878985Y-93157519D01*
X139997519Y-93038985D01*
X140136900Y-92945853D01*
X140291772Y-92881703D01*
X140456184Y-92849000D01*
X140623816Y-92849000D01*
X140788228Y-92881703D01*
G37*
G36*
X161306564Y-91989389D02*
G01*
X161497833Y-92068615D01*
X161497835Y-92068616D01*
X161618138Y-92149000D01*
X161669973Y-92183635D01*
X161816365Y-92330027D01*
X161931385Y-92502167D01*
X162010611Y-92693436D01*
X162051000Y-92896484D01*
X162051000Y-93103516D01*
X162010611Y-93306564D01*
X161950464Y-93451771D01*
X161931384Y-93497835D01*
X161816365Y-93669973D01*
X161669973Y-93816365D01*
X161497835Y-93931384D01*
X161497834Y-93931385D01*
X161497833Y-93931385D01*
X161306564Y-94010611D01*
X161103516Y-94051000D01*
X160896484Y-94051000D01*
X160693436Y-94010611D01*
X160502167Y-93931385D01*
X160502166Y-93931385D01*
X160502165Y-93931384D01*
X160330027Y-93816365D01*
X160183635Y-93669973D01*
X160068616Y-93497835D01*
X160049536Y-93451771D01*
X159989389Y-93306564D01*
X159949000Y-93103516D01*
X159949000Y-92896484D01*
X159989389Y-92693436D01*
X160068615Y-92502167D01*
X160183635Y-92330027D01*
X160330027Y-92183635D01*
X160381862Y-92149000D01*
X160502165Y-92068616D01*
X160502167Y-92068615D01*
X160693436Y-91989389D01*
X160896484Y-91949000D01*
X161103516Y-91949000D01*
X161306564Y-91989389D01*
G37*
G36*
X157806564Y-91989389D02*
G01*
X157997833Y-92068615D01*
X157997835Y-92068616D01*
X158118138Y-92149000D01*
X158169973Y-92183635D01*
X158316365Y-92330027D01*
X158431385Y-92502167D01*
X158510611Y-92693436D01*
X158551000Y-92896484D01*
X158551000Y-93103516D01*
X158510611Y-93306564D01*
X158450464Y-93451771D01*
X158431384Y-93497835D01*
X158316365Y-93669973D01*
X158169973Y-93816365D01*
X157997835Y-93931384D01*
X157997834Y-93931385D01*
X157997833Y-93931385D01*
X157806564Y-94010611D01*
X157603516Y-94051000D01*
X157396484Y-94051000D01*
X157193436Y-94010611D01*
X157002167Y-93931385D01*
X157002166Y-93931385D01*
X157002165Y-93931384D01*
X156830027Y-93816365D01*
X156683635Y-93669973D01*
X156568616Y-93497835D01*
X156549536Y-93451771D01*
X156489389Y-93306564D01*
X156449000Y-93103516D01*
X156449000Y-92896484D01*
X156489389Y-92693436D01*
X156568615Y-92502167D01*
X156683635Y-92330027D01*
X156830027Y-92183635D01*
X156881862Y-92149000D01*
X157002165Y-92068616D01*
X157002167Y-92068615D01*
X157193436Y-91989389D01*
X157396484Y-91949000D01*
X157603516Y-91949000D01*
X157806564Y-91989389D01*
G37*
G36*
X154306564Y-91989389D02*
G01*
X154497833Y-92068615D01*
X154497835Y-92068616D01*
X154618138Y-92149000D01*
X154669973Y-92183635D01*
X154816365Y-92330027D01*
X154931385Y-92502167D01*
X155010611Y-92693436D01*
X155051000Y-92896484D01*
X155051000Y-93103516D01*
X155010611Y-93306564D01*
X154950464Y-93451771D01*
X154931384Y-93497835D01*
X154816365Y-93669973D01*
X154669973Y-93816365D01*
X154497835Y-93931384D01*
X154497834Y-93931385D01*
X154497833Y-93931385D01*
X154306564Y-94010611D01*
X154103516Y-94051000D01*
X153896484Y-94051000D01*
X153693436Y-94010611D01*
X153502167Y-93931385D01*
X153502166Y-93931385D01*
X153502165Y-93931384D01*
X153330027Y-93816365D01*
X153183635Y-93669973D01*
X153068616Y-93497835D01*
X153049536Y-93451771D01*
X152989389Y-93306564D01*
X152949000Y-93103516D01*
X152949000Y-92896484D01*
X152989389Y-92693436D01*
X153068615Y-92502167D01*
X153183635Y-92330027D01*
X153330027Y-92183635D01*
X153381862Y-92149000D01*
X153502165Y-92068616D01*
X153502167Y-92068615D01*
X153693436Y-91989389D01*
X153896484Y-91949000D01*
X154103516Y-91949000D01*
X154306564Y-91989389D01*
G37*
G36*
X151351000Y-93851000D02*
G01*
X149649000Y-93851000D01*
X149649000Y-92149000D01*
X151351000Y-92149000D01*
X151351000Y-93851000D01*
G37*
G36*
X148248228Y-92181703D02*
G01*
X148403100Y-92245853D01*
X148542481Y-92338985D01*
X148661015Y-92457519D01*
X148754147Y-92596900D01*
X148818297Y-92751772D01*
X148851000Y-92916184D01*
X148851000Y-93083816D01*
X148818297Y-93248228D01*
X148754147Y-93403100D01*
X148661015Y-93542481D01*
X148542481Y-93661015D01*
X148403100Y-93754147D01*
X148248228Y-93818297D01*
X148083816Y-93851000D01*
X147916184Y-93851000D01*
X147751772Y-93818297D01*
X147596900Y-93754147D01*
X147457519Y-93661015D01*
X147338985Y-93542481D01*
X147245853Y-93403100D01*
X147181703Y-93248228D01*
X147149000Y-93083816D01*
X147149000Y-92916184D01*
X147181703Y-92751772D01*
X147245853Y-92596900D01*
X147338985Y-92457519D01*
X147457519Y-92338985D01*
X147596900Y-92245853D01*
X147751772Y-92181703D01*
X147916184Y-92149000D01*
X148083816Y-92149000D01*
X148248228Y-92181703D01*
G37*
G36*
X140788228Y-89081703D02*
G01*
X140943100Y-89145853D01*
X141082481Y-89238985D01*
X141201015Y-89357519D01*
X141294147Y-89496900D01*
X141358297Y-89651772D01*
X141391000Y-89816184D01*
X141391000Y-89983816D01*
X141358297Y-90148228D01*
X141294147Y-90303100D01*
X141201015Y-90442481D01*
X141082481Y-90561015D01*
X140943100Y-90654147D01*
X140788228Y-90718297D01*
X140623816Y-90751000D01*
X140456184Y-90751000D01*
X140291772Y-90718297D01*
X140136900Y-90654147D01*
X139997519Y-90561015D01*
X139878985Y-90442481D01*
X139785853Y-90303100D01*
X139721703Y-90148228D01*
X139689000Y-89983816D01*
X139689000Y-89816184D01*
X139721703Y-89651772D01*
X139785853Y-89496900D01*
X139878985Y-89357519D01*
X139997519Y-89238985D01*
X140136900Y-89145853D01*
X140291772Y-89081703D01*
X140456184Y-89049000D01*
X140623816Y-89049000D01*
X140788228Y-89081703D01*
G37*
G36*
X125548228Y-89081703D02*
G01*
X125703100Y-89145853D01*
X125842481Y-89238985D01*
X125961015Y-89357519D01*
X126054147Y-89496900D01*
X126118297Y-89651772D01*
X126151000Y-89816184D01*
X126151000Y-89983816D01*
X126118297Y-90148228D01*
X126054147Y-90303100D01*
X125961015Y-90442481D01*
X125842481Y-90561015D01*
X125703100Y-90654147D01*
X125548228Y-90718297D01*
X125383816Y-90751000D01*
X125216184Y-90751000D01*
X125051772Y-90718297D01*
X124896900Y-90654147D01*
X124757519Y-90561015D01*
X124638985Y-90442481D01*
X124545853Y-90303100D01*
X124481703Y-90148228D01*
X124449000Y-89983816D01*
X124449000Y-89816184D01*
X124481703Y-89651772D01*
X124545853Y-89496900D01*
X124638985Y-89357519D01*
X124757519Y-89238985D01*
X124896900Y-89145853D01*
X125051772Y-89081703D01*
X125216184Y-89049000D01*
X125383816Y-89049000D01*
X125548228Y-89081703D01*
G37*
G36*
X187302585Y-86878802D02*
G01*
X187452410Y-86908604D01*
X187734674Y-87025521D01*
X187988705Y-87195259D01*
X188204741Y-87411295D01*
X188374479Y-87665326D01*
X188491396Y-87947590D01*
X188551000Y-88247240D01*
X188551000Y-88552760D01*
X188491396Y-88852410D01*
X188374479Y-89134674D01*
X188204741Y-89388705D01*
X187988705Y-89604741D01*
X187734674Y-89774479D01*
X187452410Y-89891396D01*
X187302585Y-89921198D01*
X187152761Y-89951000D01*
X186847239Y-89951000D01*
X186697415Y-89921198D01*
X186547590Y-89891396D01*
X186265326Y-89774479D01*
X186011295Y-89604741D01*
X185795259Y-89388705D01*
X185625521Y-89134674D01*
X185508604Y-88852410D01*
X185449000Y-88552760D01*
X185449000Y-88247240D01*
X185508604Y-87947590D01*
X185625521Y-87665326D01*
X185795259Y-87411295D01*
X186011295Y-87195259D01*
X186265326Y-87025521D01*
X186547590Y-86908604D01*
X186697415Y-86878802D01*
X186847239Y-86849000D01*
X187152761Y-86849000D01*
X187302585Y-86878802D01*
G37*
G36*
X167488228Y-87681703D02*
G01*
X167643100Y-87745853D01*
X167782481Y-87838985D01*
X167901015Y-87957519D01*
X167994147Y-88096900D01*
X168058297Y-88251772D01*
X168091000Y-88416184D01*
X168091000Y-88583816D01*
X168058297Y-88748228D01*
X167994147Y-88903100D01*
X167901015Y-89042481D01*
X167782481Y-89161015D01*
X167643100Y-89254147D01*
X167488228Y-89318297D01*
X167323816Y-89351000D01*
X167156184Y-89351000D01*
X166991772Y-89318297D01*
X166836900Y-89254147D01*
X166697519Y-89161015D01*
X166578985Y-89042481D01*
X166485853Y-88903100D01*
X166421703Y-88748228D01*
X166389000Y-88583816D01*
X166389000Y-88416184D01*
X166421703Y-88251772D01*
X166485853Y-88096900D01*
X166578985Y-87957519D01*
X166697519Y-87838985D01*
X166836900Y-87745853D01*
X166991772Y-87681703D01*
X167156184Y-87649000D01*
X167323816Y-87649000D01*
X167488228Y-87681703D01*
G37*
G36*
X152248228Y-87681703D02*
G01*
X152403100Y-87745853D01*
X152542481Y-87838985D01*
X152661015Y-87957519D01*
X152754147Y-88096900D01*
X152818297Y-88251772D01*
X152851000Y-88416184D01*
X152851000Y-88583816D01*
X152818297Y-88748228D01*
X152754147Y-88903100D01*
X152661015Y-89042481D01*
X152542481Y-89161015D01*
X152403100Y-89254147D01*
X152248228Y-89318297D01*
X152083816Y-89351000D01*
X151916184Y-89351000D01*
X151751772Y-89318297D01*
X151596900Y-89254147D01*
X151457519Y-89161015D01*
X151338985Y-89042481D01*
X151245853Y-88903100D01*
X151181703Y-88748228D01*
X151149000Y-88583816D01*
X151149000Y-88416184D01*
X151181703Y-88251772D01*
X151245853Y-88096900D01*
X151338985Y-87957519D01*
X151457519Y-87838985D01*
X151596900Y-87745853D01*
X151751772Y-87681703D01*
X151916184Y-87649000D01*
X152083816Y-87649000D01*
X152248228Y-87681703D01*
G37*
G36*
X146751000Y-89351000D02*
G01*
X145049000Y-89351000D01*
X145049000Y-87649000D01*
X146751000Y-87649000D01*
X146751000Y-89351000D01*
G37*
G36*
X143648228Y-87681703D02*
G01*
X143803100Y-87745853D01*
X143942481Y-87838985D01*
X144061015Y-87957519D01*
X144154147Y-88096900D01*
X144218297Y-88251772D01*
X144251000Y-88416184D01*
X144251000Y-88583816D01*
X144218297Y-88748228D01*
X144154147Y-88903100D01*
X144061015Y-89042481D01*
X143942481Y-89161015D01*
X143803100Y-89254147D01*
X143648228Y-89318297D01*
X143483816Y-89351000D01*
X143316184Y-89351000D01*
X143151772Y-89318297D01*
X142996900Y-89254147D01*
X142857519Y-89161015D01*
X142738985Y-89042481D01*
X142645853Y-88903100D01*
X142581703Y-88748228D01*
X142549000Y-88583816D01*
X142549000Y-88416184D01*
X142581703Y-88251772D01*
X142645853Y-88096900D01*
X142738985Y-87957519D01*
X142857519Y-87838985D01*
X142996900Y-87745853D01*
X143151772Y-87681703D01*
X143316184Y-87649000D01*
X143483816Y-87649000D01*
X143648228Y-87681703D01*
G37*
G36*
X129450099Y-84590362D02*
G01*
X129574942Y-84642074D01*
X129574944Y-84642075D01*
X129595690Y-84655937D01*
X129687300Y-84717149D01*
X129782852Y-84812701D01*
X129857927Y-84925059D01*
X129909639Y-85049902D01*
X129936001Y-85182434D01*
X129936001Y-85317566D01*
X129909639Y-85450098D01*
X129857927Y-85574941D01*
X129857926Y-85574943D01*
X129782852Y-85687299D01*
X129687300Y-85782851D01*
X129574944Y-85857925D01*
X129574943Y-85857926D01*
X129574942Y-85857926D01*
X129450099Y-85909638D01*
X129317567Y-85936000D01*
X129182435Y-85936000D01*
X129049903Y-85909638D01*
X128925060Y-85857926D01*
X128925059Y-85857926D01*
X128925058Y-85857925D01*
X128812702Y-85782851D01*
X128717150Y-85687299D01*
X128642076Y-85574943D01*
X128642075Y-85574941D01*
X128590363Y-85450098D01*
X128564001Y-85317566D01*
X128564001Y-85182434D01*
X128590363Y-85049902D01*
X128642075Y-84925059D01*
X128717150Y-84812701D01*
X128812702Y-84717149D01*
X128904312Y-84655937D01*
X128925058Y-84642075D01*
X128925060Y-84642074D01*
X129049903Y-84590362D01*
X129182435Y-84564000D01*
X129317567Y-84564000D01*
X129450099Y-84590362D01*
G37*
G36*
X125950098Y-84590362D02*
G01*
X126074941Y-84642074D01*
X126074943Y-84642075D01*
X126095689Y-84655937D01*
X126187299Y-84717149D01*
X126282851Y-84812701D01*
X126357926Y-84925059D01*
X126409638Y-85049902D01*
X126436000Y-85182434D01*
X126436000Y-85317566D01*
X126409638Y-85450098D01*
X126357926Y-85574941D01*
X126357925Y-85574943D01*
X126282851Y-85687299D01*
X126187299Y-85782851D01*
X126074943Y-85857925D01*
X126074942Y-85857926D01*
X126074941Y-85857926D01*
X125950098Y-85909638D01*
X125817566Y-85936000D01*
X125682434Y-85936000D01*
X125549902Y-85909638D01*
X125425059Y-85857926D01*
X125425058Y-85857926D01*
X125425057Y-85857925D01*
X125312701Y-85782851D01*
X125217149Y-85687299D01*
X125142075Y-85574943D01*
X125142074Y-85574941D01*
X125090362Y-85450098D01*
X125064000Y-85317566D01*
X125064000Y-85182434D01*
X125090362Y-85049902D01*
X125142074Y-84925059D01*
X125217149Y-84812701D01*
X125312701Y-84717149D01*
X125404311Y-84655937D01*
X125425057Y-84642075D01*
X125425059Y-84642074D01*
X125549902Y-84590362D01*
X125682434Y-84564000D01*
X125817566Y-84564000D01*
X125950098Y-84590362D01*
G37*
G36*
X171875589Y-83818876D02*
G01*
X171974893Y-83838629D01*
X172115206Y-83896748D01*
X172241484Y-83981125D01*
X172348875Y-84088516D01*
X172433252Y-84214794D01*
X172491371Y-84355107D01*
X172491371Y-84355109D01*
X172515115Y-84474474D01*
X172521000Y-84504063D01*
X172521000Y-84655937D01*
X172491371Y-84804893D01*
X172433252Y-84945206D01*
X172348875Y-85071484D01*
X172241484Y-85178875D01*
X172115206Y-85263252D01*
X171974893Y-85321371D01*
X171875589Y-85341124D01*
X171825938Y-85351000D01*
X171674062Y-85351000D01*
X171624411Y-85341124D01*
X171525107Y-85321371D01*
X171384794Y-85263252D01*
X171258516Y-85178875D01*
X171151125Y-85071484D01*
X171066748Y-84945206D01*
X171008629Y-84804893D01*
X170979000Y-84655937D01*
X170979000Y-84504063D01*
X170984886Y-84474474D01*
X171008629Y-84355109D01*
X171008629Y-84355107D01*
X171066748Y-84214794D01*
X171151125Y-84088516D01*
X171258516Y-83981125D01*
X171384794Y-83896748D01*
X171525107Y-83838629D01*
X171624411Y-83818876D01*
X171674062Y-83809000D01*
X171825938Y-83809000D01*
X171875589Y-83818876D01*
G37*
G36*
X159474473Y-83595938D02*
G01*
X159602049Y-83648782D01*
X159716859Y-83725495D01*
X159814505Y-83823141D01*
X159891218Y-83937951D01*
X159944062Y-84065527D01*
X159971000Y-84200956D01*
X159971000Y-84339044D01*
X159944062Y-84474473D01*
X159891218Y-84602049D01*
X159814505Y-84716859D01*
X159716859Y-84814505D01*
X159602049Y-84891218D01*
X159474473Y-84944062D01*
X159339044Y-84971000D01*
X159200956Y-84971000D01*
X159065527Y-84944062D01*
X158937951Y-84891218D01*
X158823141Y-84814505D01*
X158725495Y-84716859D01*
X158648782Y-84602049D01*
X158595938Y-84474473D01*
X158569000Y-84339044D01*
X158569000Y-84200956D01*
X158595938Y-84065527D01*
X158648782Y-83937951D01*
X158725495Y-83823141D01*
X158823141Y-83725495D01*
X158937951Y-83648782D01*
X159065527Y-83595938D01*
X159200956Y-83569000D01*
X159339044Y-83569000D01*
X159474473Y-83595938D01*
G37*
G36*
X158204473Y-82325938D02*
G01*
X158332049Y-82378782D01*
X158446859Y-82455495D01*
X158544505Y-82553141D01*
X158621218Y-82667951D01*
X158674062Y-82795527D01*
X158701000Y-82930956D01*
X158701000Y-83069044D01*
X158674062Y-83204473D01*
X158621218Y-83332049D01*
X158544505Y-83446859D01*
X158446859Y-83544505D01*
X158332049Y-83621218D01*
X158204473Y-83674062D01*
X158069044Y-83701000D01*
X157930956Y-83701000D01*
X157795527Y-83674062D01*
X157667951Y-83621218D01*
X157625444Y-83592816D01*
X157603833Y-83581265D01*
X157580384Y-83574152D01*
X157555998Y-83571750D01*
X157531612Y-83574152D01*
X157508163Y-83581265D01*
X157486553Y-83592817D01*
X157467611Y-83608362D01*
X157452066Y-83627304D01*
X157440515Y-83648915D01*
X157433402Y-83672364D01*
X157431000Y-83696749D01*
X157431000Y-84971000D01*
X156029000Y-84971000D01*
X156029000Y-83569000D01*
X157303251Y-83569000D01*
X157327637Y-83566598D01*
X157351086Y-83559485D01*
X157372697Y-83547934D01*
X157391639Y-83532389D01*
X157407184Y-83513447D01*
X157418735Y-83491836D01*
X157425848Y-83468387D01*
X157428250Y-83444001D01*
X157425848Y-83419615D01*
X157418735Y-83396166D01*
X157407184Y-83374556D01*
X157378782Y-83332049D01*
X157325938Y-83204473D01*
X157299000Y-83069044D01*
X157299000Y-82930956D01*
X157325938Y-82795527D01*
X157378782Y-82667951D01*
X157455495Y-82553141D01*
X157553141Y-82455495D01*
X157667951Y-82378782D01*
X157795527Y-82325938D01*
X157930956Y-82299000D01*
X158069044Y-82299000D01*
X158204473Y-82325938D01*
G37*
G36*
X150998228Y-82931703D02*
G01*
X151153100Y-82995853D01*
X151292481Y-83088985D01*
X151411015Y-83207519D01*
X151504147Y-83346900D01*
X151568297Y-83501772D01*
X151601000Y-83666184D01*
X151601000Y-83833816D01*
X151568297Y-83998228D01*
X151504147Y-84153100D01*
X151411015Y-84292481D01*
X151292481Y-84411015D01*
X151153100Y-84504147D01*
X150998228Y-84568297D01*
X150833816Y-84601000D01*
X150666184Y-84601000D01*
X150501772Y-84568297D01*
X150346900Y-84504147D01*
X150207519Y-84411015D01*
X150088985Y-84292481D01*
X149995853Y-84153100D01*
X149931703Y-83998228D01*
X149899000Y-83833816D01*
X149899000Y-83666184D01*
X149931703Y-83501772D01*
X149995853Y-83346900D01*
X150088985Y-83207519D01*
X150207519Y-83088985D01*
X150346900Y-82995853D01*
X150501772Y-82931703D01*
X150666184Y-82899000D01*
X150833816Y-82899000D01*
X150998228Y-82931703D01*
G37*
G36*
X135758228Y-82931703D02*
G01*
X135913100Y-82995853D01*
X136052481Y-83088985D01*
X136171015Y-83207519D01*
X136264147Y-83346900D01*
X136328297Y-83501772D01*
X136361000Y-83666184D01*
X136361000Y-83833816D01*
X136328297Y-83998228D01*
X136264147Y-84153100D01*
X136171015Y-84292481D01*
X136052481Y-84411015D01*
X135913100Y-84504147D01*
X135758228Y-84568297D01*
X135593816Y-84601000D01*
X135426184Y-84601000D01*
X135261772Y-84568297D01*
X135106900Y-84504147D01*
X134967519Y-84411015D01*
X134848985Y-84292481D01*
X134755853Y-84153100D01*
X134691703Y-83998228D01*
X134659000Y-83833816D01*
X134659000Y-83666184D01*
X134691703Y-83501772D01*
X134755853Y-83346900D01*
X134848985Y-83207519D01*
X134967519Y-83088985D01*
X135106900Y-82995853D01*
X135261772Y-82931703D01*
X135426184Y-82899000D01*
X135593816Y-82899000D01*
X135758228Y-82931703D01*
G37*
G36*
X187379393Y-80749304D02*
G01*
X187616101Y-80847352D01*
X187616103Y-80847353D01*
X187829135Y-80989696D01*
X188010304Y-81170865D01*
X188152647Y-81383897D01*
X188152648Y-81383899D01*
X188250696Y-81620607D01*
X188300680Y-81871893D01*
X188300680Y-82128107D01*
X188250696Y-82379393D01*
X188178728Y-82553138D01*
X188152647Y-82616103D01*
X188010304Y-82829135D01*
X187829135Y-83010304D01*
X187616103Y-83152647D01*
X187616102Y-83152648D01*
X187616101Y-83152648D01*
X187379393Y-83250696D01*
X187128107Y-83300680D01*
X186871893Y-83300680D01*
X186620607Y-83250696D01*
X186383899Y-83152648D01*
X186383898Y-83152648D01*
X186383897Y-83152647D01*
X186170865Y-83010304D01*
X185989696Y-82829135D01*
X185847353Y-82616103D01*
X185821272Y-82553138D01*
X185749304Y-82379393D01*
X185699320Y-82128107D01*
X185699320Y-81871893D01*
X185749304Y-81620607D01*
X185847352Y-81383899D01*
X185847353Y-81383897D01*
X185989696Y-81170865D01*
X186170865Y-80989696D01*
X186383897Y-80847353D01*
X186383899Y-80847352D01*
X186620607Y-80749304D01*
X186871893Y-80699320D01*
X187128107Y-80699320D01*
X187379393Y-80749304D01*
G37*
G36*
X178351000Y-82851000D02*
G01*
X176649000Y-82851000D01*
X176649000Y-81149000D01*
X178351000Y-81149000D01*
X178351000Y-82851000D01*
G37*
G36*
X180248228Y-81181703D02*
G01*
X180403100Y-81245853D01*
X180542481Y-81338985D01*
X180661015Y-81457519D01*
X180754147Y-81596900D01*
X180818297Y-81751772D01*
X180851000Y-81916184D01*
X180851000Y-82083816D01*
X180818297Y-82248228D01*
X180754147Y-82403100D01*
X180661015Y-82542481D01*
X180542481Y-82661015D01*
X180403100Y-82754147D01*
X180248228Y-82818297D01*
X180083816Y-82851000D01*
X179916184Y-82851000D01*
X179751772Y-82818297D01*
X179596900Y-82754147D01*
X179457519Y-82661015D01*
X179338985Y-82542481D01*
X179245853Y-82403100D01*
X179181703Y-82248228D01*
X179149000Y-82083816D01*
X179149000Y-81916184D01*
X179181703Y-81751772D01*
X179245853Y-81596900D01*
X179338985Y-81457519D01*
X179457519Y-81338985D01*
X179596900Y-81245853D01*
X179751772Y-81181703D01*
X179916184Y-81149000D01*
X180083816Y-81149000D01*
X180248228Y-81181703D01*
G37*
G36*
X174415589Y-81278876D02*
G01*
X174514893Y-81298629D01*
X174655206Y-81356748D01*
X174781484Y-81441125D01*
X174888875Y-81548516D01*
X174973252Y-81674794D01*
X175031371Y-81815107D01*
X175050174Y-81909637D01*
X175061000Y-81964062D01*
X175061000Y-82115938D01*
X175058579Y-82128107D01*
X175031371Y-82264893D01*
X174973252Y-82405206D01*
X174888875Y-82531484D01*
X174781484Y-82638875D01*
X174655206Y-82723252D01*
X174514893Y-82781371D01*
X174415589Y-82801124D01*
X174365938Y-82811000D01*
X174214062Y-82811000D01*
X174164411Y-82801124D01*
X174065107Y-82781371D01*
X173924794Y-82723252D01*
X173798516Y-82638875D01*
X173691125Y-82531484D01*
X173606748Y-82405206D01*
X173548629Y-82264893D01*
X173521421Y-82128107D01*
X173519000Y-82115938D01*
X173519000Y-81964062D01*
X173529826Y-81909637D01*
X173548629Y-81815107D01*
X173606748Y-81674794D01*
X173691125Y-81548516D01*
X173798516Y-81441125D01*
X173924794Y-81356748D01*
X174065107Y-81298629D01*
X174164411Y-81278876D01*
X174214062Y-81269000D01*
X174365938Y-81269000D01*
X174415589Y-81278876D01*
G37*
G36*
X130450098Y-80590363D02*
G01*
X130574941Y-80642075D01*
X130574943Y-80642076D01*
X130687298Y-80717149D01*
X130782851Y-80812702D01*
X130857926Y-80925060D01*
X130909638Y-81049903D01*
X130936000Y-81182435D01*
X130936000Y-81317567D01*
X130909638Y-81450099D01*
X130857926Y-81574941D01*
X130857925Y-81574944D01*
X130782851Y-81687300D01*
X130687299Y-81782852D01*
X130574943Y-81857926D01*
X130574942Y-81857927D01*
X130574941Y-81857927D01*
X130450098Y-81909639D01*
X130317566Y-81936001D01*
X130182434Y-81936001D01*
X130049902Y-81909639D01*
X129925059Y-81857927D01*
X129925058Y-81857927D01*
X129925057Y-81857926D01*
X129812701Y-81782852D01*
X129717149Y-81687300D01*
X129642075Y-81574944D01*
X129642074Y-81574941D01*
X129590362Y-81450099D01*
X129564000Y-81317567D01*
X129564000Y-81182435D01*
X129590362Y-81049903D01*
X129642074Y-80925060D01*
X129717149Y-80812702D01*
X129812702Y-80717149D01*
X129925057Y-80642076D01*
X129925059Y-80642075D01*
X130049902Y-80590363D01*
X130182434Y-80564001D01*
X130317566Y-80564001D01*
X130450098Y-80590363D01*
G37*
G36*
X125950098Y-80590362D02*
G01*
X126074941Y-80642074D01*
X126074943Y-80642075D01*
X126074944Y-80642076D01*
X126187299Y-80717149D01*
X126282851Y-80812701D01*
X126357926Y-80925059D01*
X126409638Y-81049902D01*
X126436000Y-81182434D01*
X126436000Y-81317566D01*
X126409638Y-81450098D01*
X126368871Y-81548517D01*
X126357925Y-81574943D01*
X126282851Y-81687299D01*
X126187299Y-81782851D01*
X126074943Y-81857925D01*
X126074942Y-81857926D01*
X126074941Y-81857926D01*
X125950098Y-81909638D01*
X125817566Y-81936000D01*
X125682434Y-81936000D01*
X125549902Y-81909638D01*
X125425059Y-81857926D01*
X125425058Y-81857926D01*
X125425057Y-81857925D01*
X125312701Y-81782851D01*
X125217149Y-81687299D01*
X125142075Y-81574943D01*
X125131129Y-81548517D01*
X125090362Y-81450098D01*
X125064000Y-81317566D01*
X125064000Y-81182434D01*
X125090362Y-81049902D01*
X125142074Y-80925059D01*
X125217149Y-80812701D01*
X125312701Y-80717149D01*
X125425056Y-80642076D01*
X125425057Y-80642075D01*
X125425059Y-80642074D01*
X125549902Y-80590362D01*
X125682434Y-80564000D01*
X125817566Y-80564000D01*
X125950098Y-80590362D01*
G37*
G36*
X171875589Y-78738876D02*
G01*
X171974893Y-78758629D01*
X172115206Y-78816748D01*
X172241484Y-78901125D01*
X172348875Y-79008516D01*
X172433252Y-79134794D01*
X172491371Y-79275107D01*
X172521000Y-79424063D01*
X172521000Y-79575937D01*
X172491371Y-79724893D01*
X172433252Y-79865206D01*
X172348875Y-79991484D01*
X172241484Y-80098875D01*
X172115206Y-80183252D01*
X171974893Y-80241371D01*
X171875589Y-80261124D01*
X171825938Y-80271000D01*
X171674062Y-80271000D01*
X171624411Y-80261124D01*
X171525107Y-80241371D01*
X171384794Y-80183252D01*
X171258516Y-80098875D01*
X171151125Y-79991484D01*
X171066748Y-79865206D01*
X171008629Y-79724893D01*
X170979000Y-79575937D01*
X170979000Y-79424063D01*
X171008629Y-79275107D01*
X171066748Y-79134794D01*
X171151125Y-79008516D01*
X171258516Y-78901125D01*
X171384794Y-78816748D01*
X171525107Y-78758629D01*
X171624411Y-78738876D01*
X171674062Y-78729000D01*
X171825938Y-78729000D01*
X171875589Y-78738876D01*
G37*
G36*
X150888228Y-78531703D02*
G01*
X151043100Y-78595853D01*
X151182481Y-78688985D01*
X151301015Y-78807519D01*
X151394147Y-78946900D01*
X151458297Y-79101772D01*
X151491000Y-79266184D01*
X151491000Y-79433816D01*
X151458297Y-79598228D01*
X151394147Y-79753100D01*
X151301015Y-79892481D01*
X151182481Y-80011015D01*
X151043100Y-80104147D01*
X150888228Y-80168297D01*
X150723816Y-80201000D01*
X150556184Y-80201000D01*
X150391772Y-80168297D01*
X150236900Y-80104147D01*
X150097519Y-80011015D01*
X149978985Y-79892481D01*
X149885853Y-79753100D01*
X149821703Y-79598228D01*
X149789000Y-79433816D01*
X149789000Y-79266184D01*
X149821703Y-79101772D01*
X149885853Y-78946900D01*
X149978985Y-78807519D01*
X150097519Y-78688985D01*
X150236900Y-78595853D01*
X150391772Y-78531703D01*
X150556184Y-78499000D01*
X150723816Y-78499000D01*
X150888228Y-78531703D01*
G37*
G36*
X135648228Y-78531703D02*
G01*
X135803100Y-78595853D01*
X135942481Y-78688985D01*
X136061015Y-78807519D01*
X136154147Y-78946900D01*
X136218297Y-79101772D01*
X136251000Y-79266184D01*
X136251000Y-79433816D01*
X136218297Y-79598228D01*
X136154147Y-79753100D01*
X136061015Y-79892481D01*
X135942481Y-80011015D01*
X135803100Y-80104147D01*
X135648228Y-80168297D01*
X135483816Y-80201000D01*
X135316184Y-80201000D01*
X135151772Y-80168297D01*
X134996900Y-80104147D01*
X134857519Y-80011015D01*
X134738985Y-79892481D01*
X134645853Y-79753100D01*
X134581703Y-79598228D01*
X134549000Y-79433816D01*
X134549000Y-79266184D01*
X134581703Y-79101772D01*
X134645853Y-78946900D01*
X134738985Y-78807519D01*
X134857519Y-78688985D01*
X134996900Y-78595853D01*
X135151772Y-78531703D01*
X135316184Y-78499000D01*
X135483816Y-78499000D01*
X135648228Y-78531703D01*
G37*
G36*
X163705589Y-77238876D02*
G01*
X163804893Y-77258629D01*
X163945206Y-77316748D01*
X164071484Y-77401125D01*
X164178875Y-77508516D01*
X164263252Y-77634794D01*
X164321371Y-77775107D01*
X164351000Y-77924063D01*
X164351000Y-78075937D01*
X164321371Y-78224893D01*
X164263252Y-78365206D01*
X164178875Y-78491484D01*
X164071484Y-78598875D01*
X163945206Y-78683252D01*
X163804893Y-78741371D01*
X163705589Y-78761124D01*
X163655938Y-78771000D01*
X163504062Y-78771000D01*
X163454411Y-78761124D01*
X163355107Y-78741371D01*
X163214794Y-78683252D01*
X163088516Y-78598875D01*
X162981125Y-78491484D01*
X162896748Y-78365206D01*
X162838629Y-78224893D01*
X162809000Y-78075937D01*
X162809000Y-77924063D01*
X162838629Y-77775107D01*
X162896748Y-77634794D01*
X162981125Y-77508516D01*
X163088516Y-77401125D01*
X163214794Y-77316748D01*
X163355107Y-77258629D01*
X163454411Y-77238876D01*
X163504062Y-77229000D01*
X163655938Y-77229000D01*
X163705589Y-77238876D01*
G37*
G36*
X158625589Y-77238876D02*
G01*
X158724893Y-77258629D01*
X158865206Y-77316748D01*
X158991484Y-77401125D01*
X159098875Y-77508516D01*
X159183252Y-77634794D01*
X159241371Y-77775107D01*
X159271000Y-77924063D01*
X159271000Y-78075937D01*
X159241371Y-78224893D01*
X159183252Y-78365206D01*
X159098875Y-78491484D01*
X158991484Y-78598875D01*
X158865206Y-78683252D01*
X158724893Y-78741371D01*
X158625589Y-78761124D01*
X158575938Y-78771000D01*
X158424062Y-78771000D01*
X158374411Y-78761124D01*
X158275107Y-78741371D01*
X158134794Y-78683252D01*
X158008516Y-78598875D01*
X157901125Y-78491484D01*
X157816748Y-78365206D01*
X157758629Y-78224893D01*
X157729000Y-78075937D01*
X157729000Y-77924063D01*
X157758629Y-77775107D01*
X157816748Y-77634794D01*
X157901125Y-77508516D01*
X158008516Y-77401125D01*
X158134794Y-77316748D01*
X158275107Y-77258629D01*
X158374411Y-77238876D01*
X158424062Y-77229000D01*
X158575938Y-77229000D01*
X158625589Y-77238876D01*
G37*
G36*
X130450098Y-77090362D02*
G01*
X130574941Y-77142074D01*
X130574943Y-77142075D01*
X130687298Y-77217148D01*
X130782851Y-77312701D01*
X130857926Y-77425059D01*
X130909638Y-77549902D01*
X130936000Y-77682434D01*
X130936000Y-77817566D01*
X130909638Y-77950098D01*
X130857926Y-78074940D01*
X130857925Y-78074943D01*
X130782851Y-78187299D01*
X130687299Y-78282851D01*
X130574943Y-78357925D01*
X130574942Y-78357926D01*
X130574941Y-78357926D01*
X130450098Y-78409638D01*
X130317566Y-78436000D01*
X130182434Y-78436000D01*
X130049902Y-78409638D01*
X129925059Y-78357926D01*
X129925058Y-78357926D01*
X129925057Y-78357925D01*
X129812701Y-78282851D01*
X129717149Y-78187299D01*
X129642075Y-78074943D01*
X129642074Y-78074940D01*
X129590362Y-77950098D01*
X129564000Y-77817566D01*
X129564000Y-77682434D01*
X129590362Y-77549902D01*
X129642074Y-77425059D01*
X129717149Y-77312701D01*
X129812702Y-77217148D01*
X129925057Y-77142075D01*
X129925059Y-77142074D01*
X130049902Y-77090362D01*
X130182434Y-77064000D01*
X130317566Y-77064000D01*
X130450098Y-77090362D01*
G37*
G36*
X125950098Y-77090361D02*
G01*
X126074941Y-77142073D01*
X126074943Y-77142074D01*
X126074944Y-77142075D01*
X126187299Y-77217148D01*
X126282851Y-77312700D01*
X126357926Y-77425058D01*
X126409638Y-77549901D01*
X126436000Y-77682433D01*
X126436000Y-77817565D01*
X126409638Y-77950097D01*
X126409637Y-77950099D01*
X126357925Y-78074942D01*
X126282851Y-78187298D01*
X126187299Y-78282850D01*
X126074943Y-78357924D01*
X126074942Y-78357925D01*
X126074941Y-78357925D01*
X125950098Y-78409637D01*
X125817566Y-78435999D01*
X125682434Y-78435999D01*
X125549902Y-78409637D01*
X125425059Y-78357925D01*
X125425058Y-78357925D01*
X125425057Y-78357924D01*
X125312701Y-78282850D01*
X125217149Y-78187298D01*
X125142075Y-78074942D01*
X125090363Y-77950099D01*
X125090362Y-77950097D01*
X125064000Y-77817565D01*
X125064000Y-77682433D01*
X125090362Y-77549901D01*
X125142074Y-77425058D01*
X125217149Y-77312700D01*
X125312701Y-77217148D01*
X125425056Y-77142075D01*
X125425057Y-77142074D01*
X125425059Y-77142073D01*
X125549902Y-77090361D01*
X125682434Y-77063999D01*
X125817566Y-77063999D01*
X125950098Y-77090361D01*
G37*
G36*
X161165589Y-74698876D02*
G01*
X161264893Y-74718629D01*
X161405206Y-74776748D01*
X161531484Y-74861125D01*
X161638875Y-74968516D01*
X161723252Y-75094794D01*
X161781371Y-75235107D01*
X161811000Y-75384063D01*
X161811000Y-75535937D01*
X161781371Y-75684893D01*
X161723252Y-75825206D01*
X161638875Y-75951484D01*
X161531484Y-76058875D01*
X161405206Y-76143252D01*
X161264893Y-76201371D01*
X161165589Y-76221124D01*
X161115938Y-76231000D01*
X160964062Y-76231000D01*
X160914411Y-76221124D01*
X160815107Y-76201371D01*
X160674794Y-76143252D01*
X160548516Y-76058875D01*
X160441125Y-75951484D01*
X160356748Y-75825206D01*
X160298629Y-75684893D01*
X160269000Y-75535937D01*
X160269000Y-75384063D01*
X160298629Y-75235107D01*
X160356748Y-75094794D01*
X160441125Y-74968516D01*
X160548516Y-74861125D01*
X160674794Y-74776748D01*
X160815107Y-74718629D01*
X160914411Y-74698876D01*
X160964062Y-74689000D01*
X161115938Y-74689000D01*
X161165589Y-74698876D01*
G37*
G36*
X125698903Y-70993213D02*
G01*
X125921177Y-71037426D01*
X126339932Y-71210880D01*
X126716802Y-71462696D01*
X127037304Y-71783198D01*
X127289120Y-72160068D01*
X127462574Y-72578823D01*
X127496975Y-72751771D01*
X127551000Y-73023370D01*
X127551000Y-73476630D01*
X127518010Y-73642480D01*
X127462574Y-73921177D01*
X127289120Y-74339932D01*
X127037304Y-74716802D01*
X126716802Y-75037304D01*
X126339932Y-75289120D01*
X125921177Y-75462574D01*
X125698903Y-75506787D01*
X125476630Y-75551000D01*
X125023370Y-75551000D01*
X124801097Y-75506787D01*
X124578823Y-75462574D01*
X124160068Y-75289120D01*
X123783198Y-75037304D01*
X123462696Y-74716802D01*
X123210880Y-74339932D01*
X123037426Y-73921177D01*
X122981990Y-73642480D01*
X122949000Y-73476630D01*
X122949000Y-73023370D01*
X123003025Y-72751771D01*
X123037426Y-72578823D01*
X123210880Y-72160068D01*
X123462696Y-71783198D01*
X123783198Y-71462696D01*
X124160068Y-71210880D01*
X124578823Y-71037426D01*
X124801097Y-70993213D01*
X125023370Y-70949000D01*
X125476630Y-70949000D01*
X125698903Y-70993213D01*
G37*
G36*
X190698903Y-70993213D02*
G01*
X190921177Y-71037426D01*
X191339932Y-71210880D01*
X191716802Y-71462696D01*
X192037304Y-71783198D01*
X192289120Y-72160068D01*
X192462574Y-72578823D01*
X192496975Y-72751771D01*
X192551000Y-73023370D01*
X192551000Y-73476630D01*
X192518010Y-73642480D01*
X192462574Y-73921177D01*
X192289120Y-74339932D01*
X192037304Y-74716802D01*
X191716802Y-75037304D01*
X191339932Y-75289120D01*
X190921177Y-75462574D01*
X190698903Y-75506787D01*
X190476630Y-75551000D01*
X190023370Y-75551000D01*
X189801097Y-75506787D01*
X189578823Y-75462574D01*
X189160068Y-75289120D01*
X188783198Y-75037304D01*
X188462696Y-74716802D01*
X188210880Y-74339932D01*
X188037426Y-73921177D01*
X187981990Y-73642480D01*
X187949000Y-73476630D01*
X187949000Y-73023370D01*
X188003025Y-72751771D01*
X188037426Y-72578823D01*
X188210880Y-72160068D01*
X188462696Y-71783198D01*
X188783198Y-71462696D01*
X189160068Y-71210880D01*
X189578823Y-71037426D01*
X189801097Y-70993213D01*
X190023370Y-70949000D01*
X190476630Y-70949000D01*
X190698903Y-70993213D01*
G37*
G36*
X153471000Y-73831000D02*
G01*
X152196749Y-73831000D01*
X152172363Y-73833402D01*
X152148914Y-73840515D01*
X152127303Y-73852066D01*
X152108361Y-73867611D01*
X152092816Y-73886553D01*
X152081265Y-73908164D01*
X152074152Y-73931613D01*
X152071750Y-73955999D01*
X152074152Y-73980385D01*
X152081265Y-74003834D01*
X152092816Y-74025444D01*
X152121218Y-74067951D01*
X152174062Y-74195527D01*
X152201000Y-74330956D01*
X152201000Y-74469044D01*
X152174062Y-74604473D01*
X152121218Y-74732049D01*
X152044505Y-74846859D01*
X151946859Y-74944505D01*
X151832049Y-75021218D01*
X151704473Y-75074062D01*
X151569044Y-75101000D01*
X151430956Y-75101000D01*
X151295527Y-75074062D01*
X151167951Y-75021218D01*
X151053141Y-74944505D01*
X150955495Y-74846859D01*
X150878782Y-74732049D01*
X150825938Y-74604473D01*
X150799000Y-74469044D01*
X150799000Y-74330956D01*
X150825938Y-74195527D01*
X150878782Y-74067951D01*
X150955495Y-73953141D01*
X151053141Y-73855495D01*
X151167951Y-73778782D01*
X151295527Y-73725938D01*
X151430956Y-73699000D01*
X151569044Y-73699000D01*
X151704473Y-73725938D01*
X151832049Y-73778782D01*
X151874556Y-73807184D01*
X151896167Y-73818735D01*
X151919616Y-73825848D01*
X151944002Y-73828250D01*
X151968388Y-73825848D01*
X151991837Y-73818735D01*
X152013447Y-73807183D01*
X152032389Y-73791638D01*
X152047934Y-73772696D01*
X152059485Y-73751085D01*
X152066598Y-73727636D01*
X152069000Y-73703251D01*
X152069000Y-72429000D01*
X153471000Y-72429000D01*
X153471000Y-73831000D01*
G37*
G36*
X146679487Y-71848996D02*
G01*
X146916253Y-71947068D01*
X146916255Y-71947069D01*
X147129339Y-72089447D01*
X147310553Y-72270661D01*
X147434352Y-72455939D01*
X147452932Y-72483747D01*
X147551004Y-72720513D01*
X147601000Y-72971861D01*
X147601000Y-73228139D01*
X147551004Y-73479487D01*
X147452995Y-73716101D01*
X147452931Y-73716255D01*
X147310553Y-73929339D01*
X147129339Y-74110553D01*
X146916255Y-74252931D01*
X146916254Y-74252932D01*
X146916253Y-74252932D01*
X146679487Y-74351004D01*
X146428139Y-74401000D01*
X146171861Y-74401000D01*
X145920513Y-74351004D01*
X145683747Y-74252932D01*
X145683746Y-74252932D01*
X145683745Y-74252931D01*
X145470661Y-74110553D01*
X145289447Y-73929339D01*
X145147069Y-73716255D01*
X145147005Y-73716101D01*
X145048996Y-73479487D01*
X144999000Y-73228139D01*
X144999000Y-72971861D01*
X145048996Y-72720513D01*
X145147068Y-72483747D01*
X145165649Y-72455939D01*
X145289447Y-72270661D01*
X145470661Y-72089447D01*
X145683745Y-71947069D01*
X145683747Y-71947068D01*
X145920513Y-71848996D01*
X146171861Y-71799000D01*
X146428139Y-71799000D01*
X146679487Y-71848996D01*
G37*
G36*
X141729393Y-71849304D02*
G01*
X141966101Y-71947352D01*
X141966103Y-71947353D01*
X142179135Y-72089696D01*
X142360304Y-72270865D01*
X142502647Y-72483897D01*
X142502648Y-72483899D01*
X142600696Y-72720607D01*
X142650680Y-72971893D01*
X142650680Y-73228107D01*
X142600696Y-73479393D01*
X142502648Y-73716101D01*
X142502647Y-73716103D01*
X142360304Y-73929135D01*
X142179135Y-74110304D01*
X141966103Y-74252647D01*
X141966102Y-74252648D01*
X141966101Y-74252648D01*
X141729393Y-74350696D01*
X141478107Y-74400680D01*
X141221893Y-74400680D01*
X140970607Y-74350696D01*
X140733899Y-74252648D01*
X140733898Y-74252648D01*
X140733897Y-74252647D01*
X140520865Y-74110304D01*
X140339696Y-73929135D01*
X140197353Y-73716103D01*
X140197352Y-73716101D01*
X140099304Y-73479393D01*
X140049320Y-73228107D01*
X140049320Y-72971893D01*
X140099304Y-72720607D01*
X140197352Y-72483899D01*
X140197353Y-72483897D01*
X140339696Y-72270865D01*
X140520865Y-72089696D01*
X140733897Y-71947353D01*
X140733899Y-71947352D01*
X140970607Y-71849304D01*
X141221893Y-71799320D01*
X141478107Y-71799320D01*
X141729393Y-71849304D01*
G37*
G36*
X136251000Y-73951000D02*
G01*
X134549000Y-73951000D01*
X134549000Y-72249000D01*
X136251000Y-72249000D01*
X136251000Y-73951000D01*
G37*
G36*
X133148228Y-72281703D02*
G01*
X133303100Y-72345853D01*
X133442481Y-72438985D01*
X133561015Y-72557519D01*
X133654147Y-72696900D01*
X133718297Y-72851772D01*
X133751000Y-73016184D01*
X133751000Y-73183816D01*
X133718297Y-73348228D01*
X133654147Y-73503100D01*
X133561015Y-73642481D01*
X133442481Y-73761015D01*
X133303100Y-73854147D01*
X133148228Y-73918297D01*
X132983816Y-73951000D01*
X132816184Y-73951000D01*
X132651772Y-73918297D01*
X132496900Y-73854147D01*
X132357519Y-73761015D01*
X132238985Y-73642481D01*
X132145853Y-73503100D01*
X132081703Y-73348228D01*
X132049000Y-73183816D01*
X132049000Y-73016184D01*
X132081703Y-72851772D01*
X132145853Y-72696900D01*
X132238985Y-72557519D01*
X132357519Y-72438985D01*
X132496900Y-72345853D01*
X132651772Y-72281703D01*
X132816184Y-72249000D01*
X132983816Y-72249000D01*
X133148228Y-72281703D01*
G37*
G36*
X177248228Y-72181703D02*
G01*
X177403100Y-72245853D01*
X177542481Y-72338985D01*
X177661015Y-72457519D01*
X177754147Y-72596900D01*
X177818297Y-72751772D01*
X177851000Y-72916184D01*
X177851000Y-73083816D01*
X177818297Y-73248228D01*
X177754147Y-73403100D01*
X177661015Y-73542481D01*
X177542481Y-73661015D01*
X177403100Y-73754147D01*
X177248228Y-73818297D01*
X177083816Y-73851000D01*
X176916184Y-73851000D01*
X176751772Y-73818297D01*
X176596900Y-73754147D01*
X176457519Y-73661015D01*
X176338985Y-73542481D01*
X176245853Y-73403100D01*
X176181703Y-73248228D01*
X176149000Y-73083816D01*
X176149000Y-72916184D01*
X176181703Y-72751772D01*
X176245853Y-72596900D01*
X176338985Y-72457519D01*
X176457519Y-72338985D01*
X176596900Y-72245853D01*
X176751772Y-72181703D01*
X176916184Y-72149000D01*
X177083816Y-72149000D01*
X177248228Y-72181703D01*
G37*
G36*
X175351000Y-73851000D02*
G01*
X173649000Y-73851000D01*
X173649000Y-72149000D01*
X175351000Y-72149000D01*
X175351000Y-73851000D01*
G37*
G36*
X150434473Y-72455938D02*
G01*
X150562049Y-72508782D01*
X150676859Y-72585495D01*
X150774505Y-72683141D01*
X150851218Y-72797951D01*
X150904062Y-72925527D01*
X150931000Y-73060956D01*
X150931000Y-73199044D01*
X150904062Y-73334473D01*
X150851218Y-73462049D01*
X150774505Y-73576859D01*
X150676859Y-73674505D01*
X150562049Y-73751218D01*
X150434473Y-73804062D01*
X150299044Y-73831000D01*
X150160956Y-73831000D01*
X150025527Y-73804062D01*
X149897951Y-73751218D01*
X149783141Y-73674505D01*
X149685495Y-73576859D01*
X149608782Y-73462049D01*
X149555938Y-73334473D01*
X149529000Y-73199044D01*
X149529000Y-73060956D01*
X149555938Y-72925527D01*
X149608782Y-72797951D01*
X149685495Y-72683141D01*
X149783141Y-72585495D01*
X149897951Y-72508782D01*
X150025527Y-72455938D01*
X150160956Y-72429000D01*
X150299044Y-72429000D01*
X150434473Y-72455938D01*
G37*
G36*
X171488228Y-71181703D02*
G01*
X171643100Y-71245853D01*
X171782481Y-71338985D01*
X171901015Y-71457519D01*
X171994147Y-71596900D01*
X172058297Y-71751772D01*
X172091000Y-71916184D01*
X172091000Y-72083816D01*
X172058297Y-72248228D01*
X171994147Y-72403100D01*
X171901015Y-72542481D01*
X171782481Y-72661015D01*
X171643100Y-72754147D01*
X171488228Y-72818297D01*
X171323816Y-72851000D01*
X171156184Y-72851000D01*
X170991772Y-72818297D01*
X170836900Y-72754147D01*
X170697519Y-72661015D01*
X170578985Y-72542481D01*
X170485853Y-72403100D01*
X170421703Y-72248228D01*
X170389000Y-72083816D01*
X170389000Y-71916184D01*
X170421703Y-71751772D01*
X170485853Y-71596900D01*
X170578985Y-71457519D01*
X170697519Y-71338985D01*
X170836900Y-71245853D01*
X170991772Y-71181703D01*
X171156184Y-71149000D01*
X171323816Y-71149000D01*
X171488228Y-71181703D01*
G37*
G36*
X156248228Y-71181703D02*
G01*
X156403100Y-71245853D01*
X156542481Y-71338985D01*
X156661015Y-71457519D01*
X156754147Y-71596900D01*
X156818297Y-71751772D01*
X156851000Y-71916184D01*
X156851000Y-72083816D01*
X156818297Y-72248228D01*
X156754147Y-72403100D01*
X156661015Y-72542481D01*
X156542481Y-72661015D01*
X156403100Y-72754147D01*
X156248228Y-72818297D01*
X156083816Y-72851000D01*
X155916184Y-72851000D01*
X155751772Y-72818297D01*
X155596900Y-72754147D01*
X155457519Y-72661015D01*
X155338985Y-72542481D01*
X155245853Y-72403100D01*
X155181703Y-72248228D01*
X155149000Y-72083816D01*
X155149000Y-71916184D01*
X155181703Y-71751772D01*
X155245853Y-71596900D01*
X155338985Y-71457519D01*
X155457519Y-71338985D01*
X155596900Y-71245853D01*
X155751772Y-71181703D01*
X155916184Y-71149000D01*
X156083816Y-71149000D01*
X156248228Y-71181703D01*
G37*
M02*
