G04 #@! TF.GenerationSoftware,KiCad,Pcbnew,(5.1.5)-3*
G04 #@! TF.CreationDate,2020-08-07T02:09:01-04:00*
G04 #@! TF.ProjectId,SOIC-16,534f4943-2d31-4362-9e6b-696361645f70,rev?*
G04 #@! TF.SameCoordinates,Original*
G04 #@! TF.FileFunction,Soldermask,Top*
G04 #@! TF.FilePolarity,Negative*
%FSLAX46Y46*%
G04 Gerber Fmt 4.6, Leading zero omitted, Abs format (unit mm)*
G04 Created by KiCad (PCBNEW (5.1.5)-3) date 2020-08-07 02:09:01*
%MOMM*%
%LPD*%
G04 APERTURE LIST*
%ADD10C,0.100000*%
G04 APERTURE END LIST*
D10*
G36*
X131413512Y-90583927D02*
G01*
X131562812Y-90613624D01*
X131726784Y-90681544D01*
X131874354Y-90780147D01*
X131999853Y-90905646D01*
X132098456Y-91053216D01*
X132166376Y-91217188D01*
X132201000Y-91391259D01*
X132201000Y-91568741D01*
X132166376Y-91742812D01*
X132098456Y-91906784D01*
X131999853Y-92054354D01*
X131874354Y-92179853D01*
X131726784Y-92278456D01*
X131562812Y-92346376D01*
X131413512Y-92376073D01*
X131388742Y-92381000D01*
X131211258Y-92381000D01*
X131186488Y-92376073D01*
X131037188Y-92346376D01*
X130873216Y-92278456D01*
X130725646Y-92179853D01*
X130600147Y-92054354D01*
X130501544Y-91906784D01*
X130433624Y-91742812D01*
X130399000Y-91568741D01*
X130399000Y-91391259D01*
X130433624Y-91217188D01*
X130501544Y-91053216D01*
X130600147Y-90905646D01*
X130725646Y-90780147D01*
X130873216Y-90681544D01*
X131037188Y-90613624D01*
X131186488Y-90583927D01*
X131211258Y-90579000D01*
X131388742Y-90579000D01*
X131413512Y-90583927D01*
G37*
G36*
X119413512Y-90583927D02*
G01*
X119562812Y-90613624D01*
X119726784Y-90681544D01*
X119874354Y-90780147D01*
X119999853Y-90905646D01*
X120098456Y-91053216D01*
X120166376Y-91217188D01*
X120201000Y-91391259D01*
X120201000Y-91568741D01*
X120166376Y-91742812D01*
X120098456Y-91906784D01*
X119999853Y-92054354D01*
X119874354Y-92179853D01*
X119726784Y-92278456D01*
X119562812Y-92346376D01*
X119413512Y-92376073D01*
X119388742Y-92381000D01*
X119211258Y-92381000D01*
X119186488Y-92376073D01*
X119037188Y-92346376D01*
X118873216Y-92278456D01*
X118725646Y-92179853D01*
X118600147Y-92054354D01*
X118501544Y-91906784D01*
X118433624Y-91742812D01*
X118399000Y-91568741D01*
X118399000Y-91391259D01*
X118433624Y-91217188D01*
X118501544Y-91053216D01*
X118600147Y-90905646D01*
X118725646Y-90780147D01*
X118873216Y-90681544D01*
X119037188Y-90613624D01*
X119186488Y-90583927D01*
X119211258Y-90579000D01*
X119388742Y-90579000D01*
X119413512Y-90583927D01*
G37*
G36*
X119413512Y-88043927D02*
G01*
X119562812Y-88073624D01*
X119726784Y-88141544D01*
X119874354Y-88240147D01*
X119999853Y-88365646D01*
X120098456Y-88513216D01*
X120166376Y-88677188D01*
X120201000Y-88851259D01*
X120201000Y-89028741D01*
X120166376Y-89202812D01*
X120098456Y-89366784D01*
X119999853Y-89514354D01*
X119874354Y-89639853D01*
X119726784Y-89738456D01*
X119562812Y-89806376D01*
X119413512Y-89836073D01*
X119388742Y-89841000D01*
X119211258Y-89841000D01*
X119186488Y-89836073D01*
X119037188Y-89806376D01*
X118873216Y-89738456D01*
X118725646Y-89639853D01*
X118600147Y-89514354D01*
X118501544Y-89366784D01*
X118433624Y-89202812D01*
X118399000Y-89028741D01*
X118399000Y-88851259D01*
X118433624Y-88677188D01*
X118501544Y-88513216D01*
X118600147Y-88365646D01*
X118725646Y-88240147D01*
X118873216Y-88141544D01*
X119037188Y-88073624D01*
X119186488Y-88043927D01*
X119211258Y-88039000D01*
X119388742Y-88039000D01*
X119413512Y-88043927D01*
G37*
G36*
X131413512Y-88043927D02*
G01*
X131562812Y-88073624D01*
X131726784Y-88141544D01*
X131874354Y-88240147D01*
X131999853Y-88365646D01*
X132098456Y-88513216D01*
X132166376Y-88677188D01*
X132201000Y-88851259D01*
X132201000Y-89028741D01*
X132166376Y-89202812D01*
X132098456Y-89366784D01*
X131999853Y-89514354D01*
X131874354Y-89639853D01*
X131726784Y-89738456D01*
X131562812Y-89806376D01*
X131413512Y-89836073D01*
X131388742Y-89841000D01*
X131211258Y-89841000D01*
X131186488Y-89836073D01*
X131037188Y-89806376D01*
X130873216Y-89738456D01*
X130725646Y-89639853D01*
X130600147Y-89514354D01*
X130501544Y-89366784D01*
X130433624Y-89202812D01*
X130399000Y-89028741D01*
X130399000Y-88851259D01*
X130433624Y-88677188D01*
X130501544Y-88513216D01*
X130600147Y-88365646D01*
X130725646Y-88240147D01*
X130873216Y-88141544D01*
X131037188Y-88073624D01*
X131186488Y-88043927D01*
X131211258Y-88039000D01*
X131388742Y-88039000D01*
X131413512Y-88043927D01*
G37*
G36*
X128709928Y-86796764D02*
G01*
X128731009Y-86803160D01*
X128750445Y-86813548D01*
X128767476Y-86827524D01*
X128781452Y-86844555D01*
X128791840Y-86863991D01*
X128798236Y-86885072D01*
X128801000Y-86913140D01*
X128801000Y-87376860D01*
X128798236Y-87404928D01*
X128791840Y-87426009D01*
X128781452Y-87445445D01*
X128767476Y-87462476D01*
X128750445Y-87476452D01*
X128731009Y-87486840D01*
X128709928Y-87493236D01*
X128681860Y-87496000D01*
X126868140Y-87496000D01*
X126840072Y-87493236D01*
X126818991Y-87486840D01*
X126799555Y-87476452D01*
X126782524Y-87462476D01*
X126768548Y-87445445D01*
X126758160Y-87426009D01*
X126751764Y-87404928D01*
X126749000Y-87376860D01*
X126749000Y-86913140D01*
X126751764Y-86885072D01*
X126758160Y-86863991D01*
X126768548Y-86844555D01*
X126782524Y-86827524D01*
X126799555Y-86813548D01*
X126818991Y-86803160D01*
X126840072Y-86796764D01*
X126868140Y-86794000D01*
X128681860Y-86794000D01*
X128709928Y-86796764D01*
G37*
G36*
X123759928Y-86796764D02*
G01*
X123781009Y-86803160D01*
X123800445Y-86813548D01*
X123817476Y-86827524D01*
X123831452Y-86844555D01*
X123841840Y-86863991D01*
X123848236Y-86885072D01*
X123851000Y-86913140D01*
X123851000Y-87376860D01*
X123848236Y-87404928D01*
X123841840Y-87426009D01*
X123831452Y-87445445D01*
X123817476Y-87462476D01*
X123800445Y-87476452D01*
X123781009Y-87486840D01*
X123759928Y-87493236D01*
X123731860Y-87496000D01*
X121918140Y-87496000D01*
X121890072Y-87493236D01*
X121868991Y-87486840D01*
X121849555Y-87476452D01*
X121832524Y-87462476D01*
X121818548Y-87445445D01*
X121808160Y-87426009D01*
X121801764Y-87404928D01*
X121799000Y-87376860D01*
X121799000Y-86913140D01*
X121801764Y-86885072D01*
X121808160Y-86863991D01*
X121818548Y-86844555D01*
X121832524Y-86827524D01*
X121849555Y-86813548D01*
X121868991Y-86803160D01*
X121890072Y-86796764D01*
X121918140Y-86794000D01*
X123731860Y-86794000D01*
X123759928Y-86796764D01*
G37*
G36*
X119413512Y-85503927D02*
G01*
X119562812Y-85533624D01*
X119726784Y-85601544D01*
X119874354Y-85700147D01*
X119999853Y-85825646D01*
X120098456Y-85973216D01*
X120166376Y-86137188D01*
X120201000Y-86311259D01*
X120201000Y-86488741D01*
X120166376Y-86662812D01*
X120098456Y-86826784D01*
X119999853Y-86974354D01*
X119874354Y-87099853D01*
X119726784Y-87198456D01*
X119562812Y-87266376D01*
X119413512Y-87296073D01*
X119388742Y-87301000D01*
X119211258Y-87301000D01*
X119186488Y-87296073D01*
X119037188Y-87266376D01*
X118873216Y-87198456D01*
X118725646Y-87099853D01*
X118600147Y-86974354D01*
X118501544Y-86826784D01*
X118433624Y-86662812D01*
X118399000Y-86488741D01*
X118399000Y-86311259D01*
X118433624Y-86137188D01*
X118501544Y-85973216D01*
X118600147Y-85825646D01*
X118725646Y-85700147D01*
X118873216Y-85601544D01*
X119037188Y-85533624D01*
X119186488Y-85503927D01*
X119211258Y-85499000D01*
X119388742Y-85499000D01*
X119413512Y-85503927D01*
G37*
G36*
X131413512Y-85503927D02*
G01*
X131562812Y-85533624D01*
X131726784Y-85601544D01*
X131874354Y-85700147D01*
X131999853Y-85825646D01*
X132098456Y-85973216D01*
X132166376Y-86137188D01*
X132201000Y-86311259D01*
X132201000Y-86488741D01*
X132166376Y-86662812D01*
X132098456Y-86826784D01*
X131999853Y-86974354D01*
X131874354Y-87099853D01*
X131726784Y-87198456D01*
X131562812Y-87266376D01*
X131413512Y-87296073D01*
X131388742Y-87301000D01*
X131211258Y-87301000D01*
X131186488Y-87296073D01*
X131037188Y-87266376D01*
X130873216Y-87198456D01*
X130725646Y-87099853D01*
X130600147Y-86974354D01*
X130501544Y-86826784D01*
X130433624Y-86662812D01*
X130399000Y-86488741D01*
X130399000Y-86311259D01*
X130433624Y-86137188D01*
X130501544Y-85973216D01*
X130600147Y-85825646D01*
X130725646Y-85700147D01*
X130873216Y-85601544D01*
X131037188Y-85533624D01*
X131186488Y-85503927D01*
X131211258Y-85499000D01*
X131388742Y-85499000D01*
X131413512Y-85503927D01*
G37*
G36*
X128709928Y-85526764D02*
G01*
X128731009Y-85533160D01*
X128750445Y-85543548D01*
X128767476Y-85557524D01*
X128781452Y-85574555D01*
X128791840Y-85593991D01*
X128798236Y-85615072D01*
X128801000Y-85643140D01*
X128801000Y-86106860D01*
X128798236Y-86134928D01*
X128791840Y-86156009D01*
X128781452Y-86175445D01*
X128767476Y-86192476D01*
X128750445Y-86206452D01*
X128731009Y-86216840D01*
X128709928Y-86223236D01*
X128681860Y-86226000D01*
X126868140Y-86226000D01*
X126840072Y-86223236D01*
X126818991Y-86216840D01*
X126799555Y-86206452D01*
X126782524Y-86192476D01*
X126768548Y-86175445D01*
X126758160Y-86156009D01*
X126751764Y-86134928D01*
X126749000Y-86106860D01*
X126749000Y-85643140D01*
X126751764Y-85615072D01*
X126758160Y-85593991D01*
X126768548Y-85574555D01*
X126782524Y-85557524D01*
X126799555Y-85543548D01*
X126818991Y-85533160D01*
X126840072Y-85526764D01*
X126868140Y-85524000D01*
X128681860Y-85524000D01*
X128709928Y-85526764D01*
G37*
G36*
X123759928Y-85526764D02*
G01*
X123781009Y-85533160D01*
X123800445Y-85543548D01*
X123817476Y-85557524D01*
X123831452Y-85574555D01*
X123841840Y-85593991D01*
X123848236Y-85615072D01*
X123851000Y-85643140D01*
X123851000Y-86106860D01*
X123848236Y-86134928D01*
X123841840Y-86156009D01*
X123831452Y-86175445D01*
X123817476Y-86192476D01*
X123800445Y-86206452D01*
X123781009Y-86216840D01*
X123759928Y-86223236D01*
X123731860Y-86226000D01*
X121918140Y-86226000D01*
X121890072Y-86223236D01*
X121868991Y-86216840D01*
X121849555Y-86206452D01*
X121832524Y-86192476D01*
X121818548Y-86175445D01*
X121808160Y-86156009D01*
X121801764Y-86134928D01*
X121799000Y-86106860D01*
X121799000Y-85643140D01*
X121801764Y-85615072D01*
X121808160Y-85593991D01*
X121818548Y-85574555D01*
X121832524Y-85557524D01*
X121849555Y-85543548D01*
X121868991Y-85533160D01*
X121890072Y-85526764D01*
X121918140Y-85524000D01*
X123731860Y-85524000D01*
X123759928Y-85526764D01*
G37*
G36*
X128709928Y-84256764D02*
G01*
X128731009Y-84263160D01*
X128750445Y-84273548D01*
X128767476Y-84287524D01*
X128781452Y-84304555D01*
X128791840Y-84323991D01*
X128798236Y-84345072D01*
X128801000Y-84373140D01*
X128801000Y-84836860D01*
X128798236Y-84864928D01*
X128791840Y-84886009D01*
X128781452Y-84905445D01*
X128767476Y-84922476D01*
X128750445Y-84936452D01*
X128731009Y-84946840D01*
X128709928Y-84953236D01*
X128681860Y-84956000D01*
X126868140Y-84956000D01*
X126840072Y-84953236D01*
X126818991Y-84946840D01*
X126799555Y-84936452D01*
X126782524Y-84922476D01*
X126768548Y-84905445D01*
X126758160Y-84886009D01*
X126751764Y-84864928D01*
X126749000Y-84836860D01*
X126749000Y-84373140D01*
X126751764Y-84345072D01*
X126758160Y-84323991D01*
X126768548Y-84304555D01*
X126782524Y-84287524D01*
X126799555Y-84273548D01*
X126818991Y-84263160D01*
X126840072Y-84256764D01*
X126868140Y-84254000D01*
X128681860Y-84254000D01*
X128709928Y-84256764D01*
G37*
G36*
X123759928Y-84256764D02*
G01*
X123781009Y-84263160D01*
X123800445Y-84273548D01*
X123817476Y-84287524D01*
X123831452Y-84304555D01*
X123841840Y-84323991D01*
X123848236Y-84345072D01*
X123851000Y-84373140D01*
X123851000Y-84836860D01*
X123848236Y-84864928D01*
X123841840Y-84886009D01*
X123831452Y-84905445D01*
X123817476Y-84922476D01*
X123800445Y-84936452D01*
X123781009Y-84946840D01*
X123759928Y-84953236D01*
X123731860Y-84956000D01*
X121918140Y-84956000D01*
X121890072Y-84953236D01*
X121868991Y-84946840D01*
X121849555Y-84936452D01*
X121832524Y-84922476D01*
X121818548Y-84905445D01*
X121808160Y-84886009D01*
X121801764Y-84864928D01*
X121799000Y-84836860D01*
X121799000Y-84373140D01*
X121801764Y-84345072D01*
X121808160Y-84323991D01*
X121818548Y-84304555D01*
X121832524Y-84287524D01*
X121849555Y-84273548D01*
X121868991Y-84263160D01*
X121890072Y-84256764D01*
X121918140Y-84254000D01*
X123731860Y-84254000D01*
X123759928Y-84256764D01*
G37*
G36*
X131413512Y-82963927D02*
G01*
X131562812Y-82993624D01*
X131726784Y-83061544D01*
X131874354Y-83160147D01*
X131999853Y-83285646D01*
X132098456Y-83433216D01*
X132166376Y-83597188D01*
X132201000Y-83771259D01*
X132201000Y-83948741D01*
X132166376Y-84122812D01*
X132098456Y-84286784D01*
X131999853Y-84434354D01*
X131874354Y-84559853D01*
X131726784Y-84658456D01*
X131562812Y-84726376D01*
X131413512Y-84756073D01*
X131388742Y-84761000D01*
X131211258Y-84761000D01*
X131186488Y-84756073D01*
X131037188Y-84726376D01*
X130873216Y-84658456D01*
X130725646Y-84559853D01*
X130600147Y-84434354D01*
X130501544Y-84286784D01*
X130433624Y-84122812D01*
X130399000Y-83948741D01*
X130399000Y-83771259D01*
X130433624Y-83597188D01*
X130501544Y-83433216D01*
X130600147Y-83285646D01*
X130725646Y-83160147D01*
X130873216Y-83061544D01*
X131037188Y-82993624D01*
X131186488Y-82963927D01*
X131211258Y-82959000D01*
X131388742Y-82959000D01*
X131413512Y-82963927D01*
G37*
G36*
X119413512Y-82963927D02*
G01*
X119562812Y-82993624D01*
X119726784Y-83061544D01*
X119874354Y-83160147D01*
X119999853Y-83285646D01*
X120098456Y-83433216D01*
X120166376Y-83597188D01*
X120201000Y-83771259D01*
X120201000Y-83948741D01*
X120166376Y-84122812D01*
X120098456Y-84286784D01*
X119999853Y-84434354D01*
X119874354Y-84559853D01*
X119726784Y-84658456D01*
X119562812Y-84726376D01*
X119413512Y-84756073D01*
X119388742Y-84761000D01*
X119211258Y-84761000D01*
X119186488Y-84756073D01*
X119037188Y-84726376D01*
X118873216Y-84658456D01*
X118725646Y-84559853D01*
X118600147Y-84434354D01*
X118501544Y-84286784D01*
X118433624Y-84122812D01*
X118399000Y-83948741D01*
X118399000Y-83771259D01*
X118433624Y-83597188D01*
X118501544Y-83433216D01*
X118600147Y-83285646D01*
X118725646Y-83160147D01*
X118873216Y-83061544D01*
X119037188Y-82993624D01*
X119186488Y-82963927D01*
X119211258Y-82959000D01*
X119388742Y-82959000D01*
X119413512Y-82963927D01*
G37*
G36*
X123759928Y-82986764D02*
G01*
X123781009Y-82993160D01*
X123800445Y-83003548D01*
X123817476Y-83017524D01*
X123831452Y-83034555D01*
X123841840Y-83053991D01*
X123848236Y-83075072D01*
X123851000Y-83103140D01*
X123851000Y-83566860D01*
X123848236Y-83594928D01*
X123841840Y-83616009D01*
X123831452Y-83635445D01*
X123817476Y-83652476D01*
X123800445Y-83666452D01*
X123781009Y-83676840D01*
X123759928Y-83683236D01*
X123731860Y-83686000D01*
X121918140Y-83686000D01*
X121890072Y-83683236D01*
X121868991Y-83676840D01*
X121849555Y-83666452D01*
X121832524Y-83652476D01*
X121818548Y-83635445D01*
X121808160Y-83616009D01*
X121801764Y-83594928D01*
X121799000Y-83566860D01*
X121799000Y-83103140D01*
X121801764Y-83075072D01*
X121808160Y-83053991D01*
X121818548Y-83034555D01*
X121832524Y-83017524D01*
X121849555Y-83003548D01*
X121868991Y-82993160D01*
X121890072Y-82986764D01*
X121918140Y-82984000D01*
X123731860Y-82984000D01*
X123759928Y-82986764D01*
G37*
G36*
X128709928Y-82986764D02*
G01*
X128731009Y-82993160D01*
X128750445Y-83003548D01*
X128767476Y-83017524D01*
X128781452Y-83034555D01*
X128791840Y-83053991D01*
X128798236Y-83075072D01*
X128801000Y-83103140D01*
X128801000Y-83566860D01*
X128798236Y-83594928D01*
X128791840Y-83616009D01*
X128781452Y-83635445D01*
X128767476Y-83652476D01*
X128750445Y-83666452D01*
X128731009Y-83676840D01*
X128709928Y-83683236D01*
X128681860Y-83686000D01*
X126868140Y-83686000D01*
X126840072Y-83683236D01*
X126818991Y-83676840D01*
X126799555Y-83666452D01*
X126782524Y-83652476D01*
X126768548Y-83635445D01*
X126758160Y-83616009D01*
X126751764Y-83594928D01*
X126749000Y-83566860D01*
X126749000Y-83103140D01*
X126751764Y-83075072D01*
X126758160Y-83053991D01*
X126768548Y-83034555D01*
X126782524Y-83017524D01*
X126799555Y-83003548D01*
X126818991Y-82993160D01*
X126840072Y-82986764D01*
X126868140Y-82984000D01*
X128681860Y-82984000D01*
X128709928Y-82986764D01*
G37*
G36*
X123759928Y-81716764D02*
G01*
X123781009Y-81723160D01*
X123800445Y-81733548D01*
X123817476Y-81747524D01*
X123831452Y-81764555D01*
X123841840Y-81783991D01*
X123848236Y-81805072D01*
X123851000Y-81833140D01*
X123851000Y-82296860D01*
X123848236Y-82324928D01*
X123841840Y-82346009D01*
X123831452Y-82365445D01*
X123817476Y-82382476D01*
X123800445Y-82396452D01*
X123781009Y-82406840D01*
X123759928Y-82413236D01*
X123731860Y-82416000D01*
X121918140Y-82416000D01*
X121890072Y-82413236D01*
X121868991Y-82406840D01*
X121849555Y-82396452D01*
X121832524Y-82382476D01*
X121818548Y-82365445D01*
X121808160Y-82346009D01*
X121801764Y-82324928D01*
X121799000Y-82296860D01*
X121799000Y-81833140D01*
X121801764Y-81805072D01*
X121808160Y-81783991D01*
X121818548Y-81764555D01*
X121832524Y-81747524D01*
X121849555Y-81733548D01*
X121868991Y-81723160D01*
X121890072Y-81716764D01*
X121918140Y-81714000D01*
X123731860Y-81714000D01*
X123759928Y-81716764D01*
G37*
G36*
X128709928Y-81716764D02*
G01*
X128731009Y-81723160D01*
X128750445Y-81733548D01*
X128767476Y-81747524D01*
X128781452Y-81764555D01*
X128791840Y-81783991D01*
X128798236Y-81805072D01*
X128801000Y-81833140D01*
X128801000Y-82296860D01*
X128798236Y-82324928D01*
X128791840Y-82346009D01*
X128781452Y-82365445D01*
X128767476Y-82382476D01*
X128750445Y-82396452D01*
X128731009Y-82406840D01*
X128709928Y-82413236D01*
X128681860Y-82416000D01*
X126868140Y-82416000D01*
X126840072Y-82413236D01*
X126818991Y-82406840D01*
X126799555Y-82396452D01*
X126782524Y-82382476D01*
X126768548Y-82365445D01*
X126758160Y-82346009D01*
X126751764Y-82324928D01*
X126749000Y-82296860D01*
X126749000Y-81833140D01*
X126751764Y-81805072D01*
X126758160Y-81783991D01*
X126768548Y-81764555D01*
X126782524Y-81747524D01*
X126799555Y-81733548D01*
X126818991Y-81723160D01*
X126840072Y-81716764D01*
X126868140Y-81714000D01*
X128681860Y-81714000D01*
X128709928Y-81716764D01*
G37*
G36*
X131413512Y-80423927D02*
G01*
X131562812Y-80453624D01*
X131726784Y-80521544D01*
X131874354Y-80620147D01*
X131999853Y-80745646D01*
X132098456Y-80893216D01*
X132166376Y-81057188D01*
X132201000Y-81231259D01*
X132201000Y-81408741D01*
X132166376Y-81582812D01*
X132098456Y-81746784D01*
X131999853Y-81894354D01*
X131874354Y-82019853D01*
X131726784Y-82118456D01*
X131562812Y-82186376D01*
X131413512Y-82216073D01*
X131388742Y-82221000D01*
X131211258Y-82221000D01*
X131186488Y-82216073D01*
X131037188Y-82186376D01*
X130873216Y-82118456D01*
X130725646Y-82019853D01*
X130600147Y-81894354D01*
X130501544Y-81746784D01*
X130433624Y-81582812D01*
X130399000Y-81408741D01*
X130399000Y-81231259D01*
X130433624Y-81057188D01*
X130501544Y-80893216D01*
X130600147Y-80745646D01*
X130725646Y-80620147D01*
X130873216Y-80521544D01*
X131037188Y-80453624D01*
X131186488Y-80423927D01*
X131211258Y-80419000D01*
X131388742Y-80419000D01*
X131413512Y-80423927D01*
G37*
G36*
X119413512Y-80423927D02*
G01*
X119562812Y-80453624D01*
X119726784Y-80521544D01*
X119874354Y-80620147D01*
X119999853Y-80745646D01*
X120098456Y-80893216D01*
X120166376Y-81057188D01*
X120201000Y-81231259D01*
X120201000Y-81408741D01*
X120166376Y-81582812D01*
X120098456Y-81746784D01*
X119999853Y-81894354D01*
X119874354Y-82019853D01*
X119726784Y-82118456D01*
X119562812Y-82186376D01*
X119413512Y-82216073D01*
X119388742Y-82221000D01*
X119211258Y-82221000D01*
X119186488Y-82216073D01*
X119037188Y-82186376D01*
X118873216Y-82118456D01*
X118725646Y-82019853D01*
X118600147Y-81894354D01*
X118501544Y-81746784D01*
X118433624Y-81582812D01*
X118399000Y-81408741D01*
X118399000Y-81231259D01*
X118433624Y-81057188D01*
X118501544Y-80893216D01*
X118600147Y-80745646D01*
X118725646Y-80620147D01*
X118873216Y-80521544D01*
X119037188Y-80453624D01*
X119186488Y-80423927D01*
X119211258Y-80419000D01*
X119388742Y-80419000D01*
X119413512Y-80423927D01*
G37*
G36*
X128709928Y-80446764D02*
G01*
X128731009Y-80453160D01*
X128750445Y-80463548D01*
X128767476Y-80477524D01*
X128781452Y-80494555D01*
X128791840Y-80513991D01*
X128798236Y-80535072D01*
X128801000Y-80563140D01*
X128801000Y-81026860D01*
X128798236Y-81054928D01*
X128791840Y-81076009D01*
X128781452Y-81095445D01*
X128767476Y-81112476D01*
X128750445Y-81126452D01*
X128731009Y-81136840D01*
X128709928Y-81143236D01*
X128681860Y-81146000D01*
X126868140Y-81146000D01*
X126840072Y-81143236D01*
X126818991Y-81136840D01*
X126799555Y-81126452D01*
X126782524Y-81112476D01*
X126768548Y-81095445D01*
X126758160Y-81076009D01*
X126751764Y-81054928D01*
X126749000Y-81026860D01*
X126749000Y-80563140D01*
X126751764Y-80535072D01*
X126758160Y-80513991D01*
X126768548Y-80494555D01*
X126782524Y-80477524D01*
X126799555Y-80463548D01*
X126818991Y-80453160D01*
X126840072Y-80446764D01*
X126868140Y-80444000D01*
X128681860Y-80444000D01*
X128709928Y-80446764D01*
G37*
G36*
X123759928Y-80446764D02*
G01*
X123781009Y-80453160D01*
X123800445Y-80463548D01*
X123817476Y-80477524D01*
X123831452Y-80494555D01*
X123841840Y-80513991D01*
X123848236Y-80535072D01*
X123851000Y-80563140D01*
X123851000Y-81026860D01*
X123848236Y-81054928D01*
X123841840Y-81076009D01*
X123831452Y-81095445D01*
X123817476Y-81112476D01*
X123800445Y-81126452D01*
X123781009Y-81136840D01*
X123759928Y-81143236D01*
X123731860Y-81146000D01*
X121918140Y-81146000D01*
X121890072Y-81143236D01*
X121868991Y-81136840D01*
X121849555Y-81126452D01*
X121832524Y-81112476D01*
X121818548Y-81095445D01*
X121808160Y-81076009D01*
X121801764Y-81054928D01*
X121799000Y-81026860D01*
X121799000Y-80563140D01*
X121801764Y-80535072D01*
X121808160Y-80513991D01*
X121818548Y-80494555D01*
X121832524Y-80477524D01*
X121849555Y-80463548D01*
X121868991Y-80453160D01*
X121890072Y-80446764D01*
X121918140Y-80444000D01*
X123731860Y-80444000D01*
X123759928Y-80446764D01*
G37*
G36*
X128709928Y-79176764D02*
G01*
X128731009Y-79183160D01*
X128750445Y-79193548D01*
X128767476Y-79207524D01*
X128781452Y-79224555D01*
X128791840Y-79243991D01*
X128798236Y-79265072D01*
X128801000Y-79293140D01*
X128801000Y-79756860D01*
X128798236Y-79784928D01*
X128791840Y-79806009D01*
X128781452Y-79825445D01*
X128767476Y-79842476D01*
X128750445Y-79856452D01*
X128731009Y-79866840D01*
X128709928Y-79873236D01*
X128681860Y-79876000D01*
X126868140Y-79876000D01*
X126840072Y-79873236D01*
X126818991Y-79866840D01*
X126799555Y-79856452D01*
X126782524Y-79842476D01*
X126768548Y-79825445D01*
X126758160Y-79806009D01*
X126751764Y-79784928D01*
X126749000Y-79756860D01*
X126749000Y-79293140D01*
X126751764Y-79265072D01*
X126758160Y-79243991D01*
X126768548Y-79224555D01*
X126782524Y-79207524D01*
X126799555Y-79193548D01*
X126818991Y-79183160D01*
X126840072Y-79176764D01*
X126868140Y-79174000D01*
X128681860Y-79174000D01*
X128709928Y-79176764D01*
G37*
G36*
X123759928Y-79176764D02*
G01*
X123781009Y-79183160D01*
X123800445Y-79193548D01*
X123817476Y-79207524D01*
X123831452Y-79224555D01*
X123841840Y-79243991D01*
X123848236Y-79265072D01*
X123851000Y-79293140D01*
X123851000Y-79756860D01*
X123848236Y-79784928D01*
X123841840Y-79806009D01*
X123831452Y-79825445D01*
X123817476Y-79842476D01*
X123800445Y-79856452D01*
X123781009Y-79866840D01*
X123759928Y-79873236D01*
X123731860Y-79876000D01*
X121918140Y-79876000D01*
X121890072Y-79873236D01*
X121868991Y-79866840D01*
X121849555Y-79856452D01*
X121832524Y-79842476D01*
X121818548Y-79825445D01*
X121808160Y-79806009D01*
X121801764Y-79784928D01*
X121799000Y-79756860D01*
X121799000Y-79293140D01*
X121801764Y-79265072D01*
X121808160Y-79243991D01*
X121818548Y-79224555D01*
X121832524Y-79207524D01*
X121849555Y-79193548D01*
X121868991Y-79183160D01*
X121890072Y-79176764D01*
X121918140Y-79174000D01*
X123731860Y-79174000D01*
X123759928Y-79176764D01*
G37*
G36*
X131413512Y-77883927D02*
G01*
X131562812Y-77913624D01*
X131726784Y-77981544D01*
X131874354Y-78080147D01*
X131999853Y-78205646D01*
X132098456Y-78353216D01*
X132166376Y-78517188D01*
X132201000Y-78691259D01*
X132201000Y-78868741D01*
X132166376Y-79042812D01*
X132098456Y-79206784D01*
X131999853Y-79354354D01*
X131874354Y-79479853D01*
X131726784Y-79578456D01*
X131562812Y-79646376D01*
X131413512Y-79676073D01*
X131388742Y-79681000D01*
X131211258Y-79681000D01*
X131186488Y-79676073D01*
X131037188Y-79646376D01*
X130873216Y-79578456D01*
X130725646Y-79479853D01*
X130600147Y-79354354D01*
X130501544Y-79206784D01*
X130433624Y-79042812D01*
X130399000Y-78868741D01*
X130399000Y-78691259D01*
X130433624Y-78517188D01*
X130501544Y-78353216D01*
X130600147Y-78205646D01*
X130725646Y-78080147D01*
X130873216Y-77981544D01*
X131037188Y-77913624D01*
X131186488Y-77883927D01*
X131211258Y-77879000D01*
X131388742Y-77879000D01*
X131413512Y-77883927D01*
G37*
G36*
X119413512Y-77883927D02*
G01*
X119562812Y-77913624D01*
X119726784Y-77981544D01*
X119874354Y-78080147D01*
X119999853Y-78205646D01*
X120098456Y-78353216D01*
X120166376Y-78517188D01*
X120201000Y-78691259D01*
X120201000Y-78868741D01*
X120166376Y-79042812D01*
X120098456Y-79206784D01*
X119999853Y-79354354D01*
X119874354Y-79479853D01*
X119726784Y-79578456D01*
X119562812Y-79646376D01*
X119413512Y-79676073D01*
X119388742Y-79681000D01*
X119211258Y-79681000D01*
X119186488Y-79676073D01*
X119037188Y-79646376D01*
X118873216Y-79578456D01*
X118725646Y-79479853D01*
X118600147Y-79354354D01*
X118501544Y-79206784D01*
X118433624Y-79042812D01*
X118399000Y-78868741D01*
X118399000Y-78691259D01*
X118433624Y-78517188D01*
X118501544Y-78353216D01*
X118600147Y-78205646D01*
X118725646Y-78080147D01*
X118873216Y-77981544D01*
X119037188Y-77913624D01*
X119186488Y-77883927D01*
X119211258Y-77879000D01*
X119388742Y-77879000D01*
X119413512Y-77883927D01*
G37*
G36*
X128709928Y-77906764D02*
G01*
X128731009Y-77913160D01*
X128750445Y-77923548D01*
X128767476Y-77937524D01*
X128781452Y-77954555D01*
X128791840Y-77973991D01*
X128798236Y-77995072D01*
X128801000Y-78023140D01*
X128801000Y-78486860D01*
X128798236Y-78514928D01*
X128791840Y-78536009D01*
X128781452Y-78555445D01*
X128767476Y-78572476D01*
X128750445Y-78586452D01*
X128731009Y-78596840D01*
X128709928Y-78603236D01*
X128681860Y-78606000D01*
X126868140Y-78606000D01*
X126840072Y-78603236D01*
X126818991Y-78596840D01*
X126799555Y-78586452D01*
X126782524Y-78572476D01*
X126768548Y-78555445D01*
X126758160Y-78536009D01*
X126751764Y-78514928D01*
X126749000Y-78486860D01*
X126749000Y-78023140D01*
X126751764Y-77995072D01*
X126758160Y-77973991D01*
X126768548Y-77954555D01*
X126782524Y-77937524D01*
X126799555Y-77923548D01*
X126818991Y-77913160D01*
X126840072Y-77906764D01*
X126868140Y-77904000D01*
X128681860Y-77904000D01*
X128709928Y-77906764D01*
G37*
G36*
X123759928Y-77906764D02*
G01*
X123781009Y-77913160D01*
X123800445Y-77923548D01*
X123817476Y-77937524D01*
X123831452Y-77954555D01*
X123841840Y-77973991D01*
X123848236Y-77995072D01*
X123851000Y-78023140D01*
X123851000Y-78486860D01*
X123848236Y-78514928D01*
X123841840Y-78536009D01*
X123831452Y-78555445D01*
X123817476Y-78572476D01*
X123800445Y-78586452D01*
X123781009Y-78596840D01*
X123759928Y-78603236D01*
X123731860Y-78606000D01*
X121918140Y-78606000D01*
X121890072Y-78603236D01*
X121868991Y-78596840D01*
X121849555Y-78586452D01*
X121832524Y-78572476D01*
X121818548Y-78555445D01*
X121808160Y-78536009D01*
X121801764Y-78514928D01*
X121799000Y-78486860D01*
X121799000Y-78023140D01*
X121801764Y-77995072D01*
X121808160Y-77973991D01*
X121818548Y-77954555D01*
X121832524Y-77937524D01*
X121849555Y-77923548D01*
X121868991Y-77913160D01*
X121890072Y-77906764D01*
X121918140Y-77904000D01*
X123731860Y-77904000D01*
X123759928Y-77906764D01*
G37*
G36*
X119413512Y-75343927D02*
G01*
X119562812Y-75373624D01*
X119726784Y-75441544D01*
X119874354Y-75540147D01*
X119999853Y-75665646D01*
X120098456Y-75813216D01*
X120166376Y-75977188D01*
X120201000Y-76151259D01*
X120201000Y-76328741D01*
X120166376Y-76502812D01*
X120098456Y-76666784D01*
X119999853Y-76814354D01*
X119874354Y-76939853D01*
X119726784Y-77038456D01*
X119562812Y-77106376D01*
X119413512Y-77136073D01*
X119388742Y-77141000D01*
X119211258Y-77141000D01*
X119186488Y-77136073D01*
X119037188Y-77106376D01*
X118873216Y-77038456D01*
X118725646Y-76939853D01*
X118600147Y-76814354D01*
X118501544Y-76666784D01*
X118433624Y-76502812D01*
X118399000Y-76328741D01*
X118399000Y-76151259D01*
X118433624Y-75977188D01*
X118501544Y-75813216D01*
X118600147Y-75665646D01*
X118725646Y-75540147D01*
X118873216Y-75441544D01*
X119037188Y-75373624D01*
X119186488Y-75343927D01*
X119211258Y-75339000D01*
X119388742Y-75339000D01*
X119413512Y-75343927D01*
G37*
G36*
X131413512Y-75343927D02*
G01*
X131562812Y-75373624D01*
X131726784Y-75441544D01*
X131874354Y-75540147D01*
X131999853Y-75665646D01*
X132098456Y-75813216D01*
X132166376Y-75977188D01*
X132201000Y-76151259D01*
X132201000Y-76328741D01*
X132166376Y-76502812D01*
X132098456Y-76666784D01*
X131999853Y-76814354D01*
X131874354Y-76939853D01*
X131726784Y-77038456D01*
X131562812Y-77106376D01*
X131413512Y-77136073D01*
X131388742Y-77141000D01*
X131211258Y-77141000D01*
X131186488Y-77136073D01*
X131037188Y-77106376D01*
X130873216Y-77038456D01*
X130725646Y-76939853D01*
X130600147Y-76814354D01*
X130501544Y-76666784D01*
X130433624Y-76502812D01*
X130399000Y-76328741D01*
X130399000Y-76151259D01*
X130433624Y-75977188D01*
X130501544Y-75813216D01*
X130600147Y-75665646D01*
X130725646Y-75540147D01*
X130873216Y-75441544D01*
X131037188Y-75373624D01*
X131186488Y-75343927D01*
X131211258Y-75339000D01*
X131388742Y-75339000D01*
X131413512Y-75343927D01*
G37*
G36*
X120201000Y-74601000D02*
G01*
X118399000Y-74601000D01*
X118399000Y-72799000D01*
X120201000Y-72799000D01*
X120201000Y-74601000D01*
G37*
G36*
X132201000Y-74601000D02*
G01*
X130399000Y-74601000D01*
X130399000Y-72799000D01*
X132201000Y-72799000D01*
X132201000Y-74601000D01*
G37*
M02*
