G04 #@! TF.GenerationSoftware,KiCad,Pcbnew,(5.1.5)-3*
G04 #@! TF.CreationDate,2020-08-07T02:09:01-04:00*
G04 #@! TF.ProjectId,SOIC-16,534f4943-2d31-4362-9e6b-696361645f70,rev?*
G04 #@! TF.SameCoordinates,Original*
G04 #@! TF.FileFunction,Legend,Top*
G04 #@! TF.FilePolarity,Positive*
%FSLAX46Y46*%
G04 Gerber Fmt 4.6, Leading zero omitted, Abs format (unit mm)*
G04 Created by KiCad (PCBNEW (5.1.5)-3) date 2020-08-07 02:09:01*
%MOMM*%
%LPD*%
G04 APERTURE LIST*
%ADD10C,0.150000*%
%ADD11C,0.120000*%
G04 APERTURE END LIST*
D10*
X122180952Y-91854761D02*
X122323809Y-91902380D01*
X122561904Y-91902380D01*
X122657142Y-91854761D01*
X122704761Y-91807142D01*
X122752380Y-91711904D01*
X122752380Y-91616666D01*
X122704761Y-91521428D01*
X122657142Y-91473809D01*
X122561904Y-91426190D01*
X122371428Y-91378571D01*
X122276190Y-91330952D01*
X122228571Y-91283333D01*
X122180952Y-91188095D01*
X122180952Y-91092857D01*
X122228571Y-90997619D01*
X122276190Y-90950000D01*
X122371428Y-90902380D01*
X122609523Y-90902380D01*
X122752380Y-90950000D01*
X123371428Y-90902380D02*
X123561904Y-90902380D01*
X123657142Y-90950000D01*
X123752380Y-91045238D01*
X123800000Y-91235714D01*
X123800000Y-91569047D01*
X123752380Y-91759523D01*
X123657142Y-91854761D01*
X123561904Y-91902380D01*
X123371428Y-91902380D01*
X123276190Y-91854761D01*
X123180952Y-91759523D01*
X123133333Y-91569047D01*
X123133333Y-91235714D01*
X123180952Y-91045238D01*
X123276190Y-90950000D01*
X123371428Y-90902380D01*
X124228571Y-91902380D02*
X124228571Y-90902380D01*
X125276190Y-91807142D02*
X125228571Y-91854761D01*
X125085714Y-91902380D01*
X124990476Y-91902380D01*
X124847619Y-91854761D01*
X124752380Y-91759523D01*
X124704761Y-91664285D01*
X124657142Y-91473809D01*
X124657142Y-91330952D01*
X124704761Y-91140476D01*
X124752380Y-91045238D01*
X124847619Y-90950000D01*
X124990476Y-90902380D01*
X125085714Y-90902380D01*
X125228571Y-90950000D01*
X125276190Y-90997619D01*
X125704761Y-91521428D02*
X126466666Y-91521428D01*
X127466666Y-91902380D02*
X126895238Y-91902380D01*
X127180952Y-91902380D02*
X127180952Y-90902380D01*
X127085714Y-91045238D01*
X126990476Y-91140476D01*
X126895238Y-91188095D01*
X128323809Y-90902380D02*
X128133333Y-90902380D01*
X128038095Y-90950000D01*
X127990476Y-90997619D01*
X127895238Y-91140476D01*
X127847619Y-91330952D01*
X127847619Y-91711904D01*
X127895238Y-91807142D01*
X127942857Y-91854761D01*
X128038095Y-91902380D01*
X128228571Y-91902380D01*
X128323809Y-91854761D01*
X128371428Y-91807142D01*
X128419047Y-91711904D01*
X128419047Y-91473809D01*
X128371428Y-91378571D01*
X128323809Y-91330952D01*
X128228571Y-91283333D01*
X128038095Y-91283333D01*
X127942857Y-91330952D01*
X127895238Y-91378571D01*
X127847619Y-91473809D01*
D11*
X129970000Y-72370000D02*
X131300000Y-72370000D01*
X129970000Y-73700000D02*
X129970000Y-72370000D01*
X129970000Y-74970000D02*
X132630000Y-74970000D01*
X132630000Y-74970000D02*
X132630000Y-92810000D01*
X129970000Y-74970000D02*
X129970000Y-92810000D01*
X129970000Y-92810000D02*
X132630000Y-92810000D01*
X117970000Y-72370000D02*
X119300000Y-72370000D01*
X117970000Y-73700000D02*
X117970000Y-72370000D01*
X117970000Y-74970000D02*
X120630000Y-74970000D01*
X120630000Y-74970000D02*
X120630000Y-92810000D01*
X117970000Y-74970000D02*
X117970000Y-92810000D01*
X117970000Y-92810000D02*
X120630000Y-92810000D01*
X125300000Y-77640000D02*
X121850000Y-77640000D01*
X125300000Y-77640000D02*
X127250000Y-77640000D01*
X125300000Y-87760000D02*
X123350000Y-87760000D01*
X125300000Y-87760000D02*
X127250000Y-87760000D01*
D10*
X127966666Y-73152380D02*
X127966666Y-73866666D01*
X127919047Y-74009523D01*
X127823809Y-74104761D01*
X127680952Y-74152380D01*
X127585714Y-74152380D01*
X128585714Y-73580952D02*
X128490476Y-73533333D01*
X128442857Y-73485714D01*
X128395238Y-73390476D01*
X128395238Y-73342857D01*
X128442857Y-73247619D01*
X128490476Y-73200000D01*
X128585714Y-73152380D01*
X128776190Y-73152380D01*
X128871428Y-73200000D01*
X128919047Y-73247619D01*
X128966666Y-73342857D01*
X128966666Y-73390476D01*
X128919047Y-73485714D01*
X128871428Y-73533333D01*
X128776190Y-73580952D01*
X128585714Y-73580952D01*
X128490476Y-73628571D01*
X128442857Y-73676190D01*
X128395238Y-73771428D01*
X128395238Y-73961904D01*
X128442857Y-74057142D01*
X128490476Y-74104761D01*
X128585714Y-74152380D01*
X128776190Y-74152380D01*
X128871428Y-74104761D01*
X128919047Y-74057142D01*
X128966666Y-73961904D01*
X128966666Y-73771428D01*
X128919047Y-73676190D01*
X128871428Y-73628571D01*
X128776190Y-73580952D01*
X121966666Y-73152380D02*
X121966666Y-73866666D01*
X121919047Y-74009523D01*
X121823809Y-74104761D01*
X121680952Y-74152380D01*
X121585714Y-74152380D01*
X122347619Y-73152380D02*
X123014285Y-73152380D01*
X122585714Y-74152380D01*
X124538095Y-76252380D02*
X124538095Y-77061904D01*
X124585714Y-77157142D01*
X124633333Y-77204761D01*
X124728571Y-77252380D01*
X124919047Y-77252380D01*
X125014285Y-77204761D01*
X125061904Y-77157142D01*
X125109523Y-77061904D01*
X125109523Y-76252380D01*
X126014285Y-76585714D02*
X126014285Y-77252380D01*
X125776190Y-76204761D02*
X125538095Y-76919047D01*
X126157142Y-76919047D01*
M02*
