G04 #@! TF.GenerationSoftware,KiCad,Pcbnew,(5.1.5)-3*
G04 #@! TF.CreationDate,2020-08-07T02:09:01-04:00*
G04 #@! TF.ProjectId,SOIC-16,534f4943-2d31-4362-9e6b-696361645f70,rev?*
G04 #@! TF.SameCoordinates,Original*
G04 #@! TF.FileFunction,Copper,L1,Top*
G04 #@! TF.FilePolarity,Positive*
%FSLAX46Y46*%
G04 Gerber Fmt 4.6, Leading zero omitted, Abs format (unit mm)*
G04 Created by KiCad (PCBNEW (5.1.5)-3) date 2020-08-07 02:09:01*
%MOMM*%
%LPD*%
G04 APERTURE LIST*
%ADD10O,1.700000X1.700000*%
%ADD11R,1.700000X1.700000*%
%ADD12C,0.100000*%
%ADD13C,0.152400*%
G04 APERTURE END LIST*
D10*
X131300000Y-91480000D03*
X131300000Y-88940000D03*
X131300000Y-86400000D03*
X131300000Y-83860000D03*
X131300000Y-81320000D03*
X131300000Y-78780000D03*
X131300000Y-76240000D03*
D11*
X131300000Y-73700000D03*
D10*
X119300000Y-91480000D03*
X119300000Y-88940000D03*
X119300000Y-86400000D03*
X119300000Y-83860000D03*
X119300000Y-81320000D03*
X119300000Y-78780000D03*
X119300000Y-76240000D03*
D11*
X119300000Y-73700000D03*
G04 #@! TA.AperFunction,SMDPad,CuDef*
D12*
G36*
X128614703Y-77955722D02*
G01*
X128629264Y-77957882D01*
X128643543Y-77961459D01*
X128657403Y-77966418D01*
X128670710Y-77972712D01*
X128683336Y-77980280D01*
X128695159Y-77989048D01*
X128706066Y-77998934D01*
X128715952Y-78009841D01*
X128724720Y-78021664D01*
X128732288Y-78034290D01*
X128738582Y-78047597D01*
X128743541Y-78061457D01*
X128747118Y-78075736D01*
X128749278Y-78090297D01*
X128750000Y-78105000D01*
X128750000Y-78405000D01*
X128749278Y-78419703D01*
X128747118Y-78434264D01*
X128743541Y-78448543D01*
X128738582Y-78462403D01*
X128732288Y-78475710D01*
X128724720Y-78488336D01*
X128715952Y-78500159D01*
X128706066Y-78511066D01*
X128695159Y-78520952D01*
X128683336Y-78529720D01*
X128670710Y-78537288D01*
X128657403Y-78543582D01*
X128643543Y-78548541D01*
X128629264Y-78552118D01*
X128614703Y-78554278D01*
X128600000Y-78555000D01*
X126950000Y-78555000D01*
X126935297Y-78554278D01*
X126920736Y-78552118D01*
X126906457Y-78548541D01*
X126892597Y-78543582D01*
X126879290Y-78537288D01*
X126866664Y-78529720D01*
X126854841Y-78520952D01*
X126843934Y-78511066D01*
X126834048Y-78500159D01*
X126825280Y-78488336D01*
X126817712Y-78475710D01*
X126811418Y-78462403D01*
X126806459Y-78448543D01*
X126802882Y-78434264D01*
X126800722Y-78419703D01*
X126800000Y-78405000D01*
X126800000Y-78105000D01*
X126800722Y-78090297D01*
X126802882Y-78075736D01*
X126806459Y-78061457D01*
X126811418Y-78047597D01*
X126817712Y-78034290D01*
X126825280Y-78021664D01*
X126834048Y-78009841D01*
X126843934Y-77998934D01*
X126854841Y-77989048D01*
X126866664Y-77980280D01*
X126879290Y-77972712D01*
X126892597Y-77966418D01*
X126906457Y-77961459D01*
X126920736Y-77957882D01*
X126935297Y-77955722D01*
X126950000Y-77955000D01*
X128600000Y-77955000D01*
X128614703Y-77955722D01*
G37*
G04 #@! TD.AperFunction*
G04 #@! TA.AperFunction,SMDPad,CuDef*
G36*
X128614703Y-79225722D02*
G01*
X128629264Y-79227882D01*
X128643543Y-79231459D01*
X128657403Y-79236418D01*
X128670710Y-79242712D01*
X128683336Y-79250280D01*
X128695159Y-79259048D01*
X128706066Y-79268934D01*
X128715952Y-79279841D01*
X128724720Y-79291664D01*
X128732288Y-79304290D01*
X128738582Y-79317597D01*
X128743541Y-79331457D01*
X128747118Y-79345736D01*
X128749278Y-79360297D01*
X128750000Y-79375000D01*
X128750000Y-79675000D01*
X128749278Y-79689703D01*
X128747118Y-79704264D01*
X128743541Y-79718543D01*
X128738582Y-79732403D01*
X128732288Y-79745710D01*
X128724720Y-79758336D01*
X128715952Y-79770159D01*
X128706066Y-79781066D01*
X128695159Y-79790952D01*
X128683336Y-79799720D01*
X128670710Y-79807288D01*
X128657403Y-79813582D01*
X128643543Y-79818541D01*
X128629264Y-79822118D01*
X128614703Y-79824278D01*
X128600000Y-79825000D01*
X126950000Y-79825000D01*
X126935297Y-79824278D01*
X126920736Y-79822118D01*
X126906457Y-79818541D01*
X126892597Y-79813582D01*
X126879290Y-79807288D01*
X126866664Y-79799720D01*
X126854841Y-79790952D01*
X126843934Y-79781066D01*
X126834048Y-79770159D01*
X126825280Y-79758336D01*
X126817712Y-79745710D01*
X126811418Y-79732403D01*
X126806459Y-79718543D01*
X126802882Y-79704264D01*
X126800722Y-79689703D01*
X126800000Y-79675000D01*
X126800000Y-79375000D01*
X126800722Y-79360297D01*
X126802882Y-79345736D01*
X126806459Y-79331457D01*
X126811418Y-79317597D01*
X126817712Y-79304290D01*
X126825280Y-79291664D01*
X126834048Y-79279841D01*
X126843934Y-79268934D01*
X126854841Y-79259048D01*
X126866664Y-79250280D01*
X126879290Y-79242712D01*
X126892597Y-79236418D01*
X126906457Y-79231459D01*
X126920736Y-79227882D01*
X126935297Y-79225722D01*
X126950000Y-79225000D01*
X128600000Y-79225000D01*
X128614703Y-79225722D01*
G37*
G04 #@! TD.AperFunction*
G04 #@! TA.AperFunction,SMDPad,CuDef*
G36*
X128614703Y-80495722D02*
G01*
X128629264Y-80497882D01*
X128643543Y-80501459D01*
X128657403Y-80506418D01*
X128670710Y-80512712D01*
X128683336Y-80520280D01*
X128695159Y-80529048D01*
X128706066Y-80538934D01*
X128715952Y-80549841D01*
X128724720Y-80561664D01*
X128732288Y-80574290D01*
X128738582Y-80587597D01*
X128743541Y-80601457D01*
X128747118Y-80615736D01*
X128749278Y-80630297D01*
X128750000Y-80645000D01*
X128750000Y-80945000D01*
X128749278Y-80959703D01*
X128747118Y-80974264D01*
X128743541Y-80988543D01*
X128738582Y-81002403D01*
X128732288Y-81015710D01*
X128724720Y-81028336D01*
X128715952Y-81040159D01*
X128706066Y-81051066D01*
X128695159Y-81060952D01*
X128683336Y-81069720D01*
X128670710Y-81077288D01*
X128657403Y-81083582D01*
X128643543Y-81088541D01*
X128629264Y-81092118D01*
X128614703Y-81094278D01*
X128600000Y-81095000D01*
X126950000Y-81095000D01*
X126935297Y-81094278D01*
X126920736Y-81092118D01*
X126906457Y-81088541D01*
X126892597Y-81083582D01*
X126879290Y-81077288D01*
X126866664Y-81069720D01*
X126854841Y-81060952D01*
X126843934Y-81051066D01*
X126834048Y-81040159D01*
X126825280Y-81028336D01*
X126817712Y-81015710D01*
X126811418Y-81002403D01*
X126806459Y-80988543D01*
X126802882Y-80974264D01*
X126800722Y-80959703D01*
X126800000Y-80945000D01*
X126800000Y-80645000D01*
X126800722Y-80630297D01*
X126802882Y-80615736D01*
X126806459Y-80601457D01*
X126811418Y-80587597D01*
X126817712Y-80574290D01*
X126825280Y-80561664D01*
X126834048Y-80549841D01*
X126843934Y-80538934D01*
X126854841Y-80529048D01*
X126866664Y-80520280D01*
X126879290Y-80512712D01*
X126892597Y-80506418D01*
X126906457Y-80501459D01*
X126920736Y-80497882D01*
X126935297Y-80495722D01*
X126950000Y-80495000D01*
X128600000Y-80495000D01*
X128614703Y-80495722D01*
G37*
G04 #@! TD.AperFunction*
G04 #@! TA.AperFunction,SMDPad,CuDef*
G36*
X128614703Y-81765722D02*
G01*
X128629264Y-81767882D01*
X128643543Y-81771459D01*
X128657403Y-81776418D01*
X128670710Y-81782712D01*
X128683336Y-81790280D01*
X128695159Y-81799048D01*
X128706066Y-81808934D01*
X128715952Y-81819841D01*
X128724720Y-81831664D01*
X128732288Y-81844290D01*
X128738582Y-81857597D01*
X128743541Y-81871457D01*
X128747118Y-81885736D01*
X128749278Y-81900297D01*
X128750000Y-81915000D01*
X128750000Y-82215000D01*
X128749278Y-82229703D01*
X128747118Y-82244264D01*
X128743541Y-82258543D01*
X128738582Y-82272403D01*
X128732288Y-82285710D01*
X128724720Y-82298336D01*
X128715952Y-82310159D01*
X128706066Y-82321066D01*
X128695159Y-82330952D01*
X128683336Y-82339720D01*
X128670710Y-82347288D01*
X128657403Y-82353582D01*
X128643543Y-82358541D01*
X128629264Y-82362118D01*
X128614703Y-82364278D01*
X128600000Y-82365000D01*
X126950000Y-82365000D01*
X126935297Y-82364278D01*
X126920736Y-82362118D01*
X126906457Y-82358541D01*
X126892597Y-82353582D01*
X126879290Y-82347288D01*
X126866664Y-82339720D01*
X126854841Y-82330952D01*
X126843934Y-82321066D01*
X126834048Y-82310159D01*
X126825280Y-82298336D01*
X126817712Y-82285710D01*
X126811418Y-82272403D01*
X126806459Y-82258543D01*
X126802882Y-82244264D01*
X126800722Y-82229703D01*
X126800000Y-82215000D01*
X126800000Y-81915000D01*
X126800722Y-81900297D01*
X126802882Y-81885736D01*
X126806459Y-81871457D01*
X126811418Y-81857597D01*
X126817712Y-81844290D01*
X126825280Y-81831664D01*
X126834048Y-81819841D01*
X126843934Y-81808934D01*
X126854841Y-81799048D01*
X126866664Y-81790280D01*
X126879290Y-81782712D01*
X126892597Y-81776418D01*
X126906457Y-81771459D01*
X126920736Y-81767882D01*
X126935297Y-81765722D01*
X126950000Y-81765000D01*
X128600000Y-81765000D01*
X128614703Y-81765722D01*
G37*
G04 #@! TD.AperFunction*
G04 #@! TA.AperFunction,SMDPad,CuDef*
G36*
X128614703Y-83035722D02*
G01*
X128629264Y-83037882D01*
X128643543Y-83041459D01*
X128657403Y-83046418D01*
X128670710Y-83052712D01*
X128683336Y-83060280D01*
X128695159Y-83069048D01*
X128706066Y-83078934D01*
X128715952Y-83089841D01*
X128724720Y-83101664D01*
X128732288Y-83114290D01*
X128738582Y-83127597D01*
X128743541Y-83141457D01*
X128747118Y-83155736D01*
X128749278Y-83170297D01*
X128750000Y-83185000D01*
X128750000Y-83485000D01*
X128749278Y-83499703D01*
X128747118Y-83514264D01*
X128743541Y-83528543D01*
X128738582Y-83542403D01*
X128732288Y-83555710D01*
X128724720Y-83568336D01*
X128715952Y-83580159D01*
X128706066Y-83591066D01*
X128695159Y-83600952D01*
X128683336Y-83609720D01*
X128670710Y-83617288D01*
X128657403Y-83623582D01*
X128643543Y-83628541D01*
X128629264Y-83632118D01*
X128614703Y-83634278D01*
X128600000Y-83635000D01*
X126950000Y-83635000D01*
X126935297Y-83634278D01*
X126920736Y-83632118D01*
X126906457Y-83628541D01*
X126892597Y-83623582D01*
X126879290Y-83617288D01*
X126866664Y-83609720D01*
X126854841Y-83600952D01*
X126843934Y-83591066D01*
X126834048Y-83580159D01*
X126825280Y-83568336D01*
X126817712Y-83555710D01*
X126811418Y-83542403D01*
X126806459Y-83528543D01*
X126802882Y-83514264D01*
X126800722Y-83499703D01*
X126800000Y-83485000D01*
X126800000Y-83185000D01*
X126800722Y-83170297D01*
X126802882Y-83155736D01*
X126806459Y-83141457D01*
X126811418Y-83127597D01*
X126817712Y-83114290D01*
X126825280Y-83101664D01*
X126834048Y-83089841D01*
X126843934Y-83078934D01*
X126854841Y-83069048D01*
X126866664Y-83060280D01*
X126879290Y-83052712D01*
X126892597Y-83046418D01*
X126906457Y-83041459D01*
X126920736Y-83037882D01*
X126935297Y-83035722D01*
X126950000Y-83035000D01*
X128600000Y-83035000D01*
X128614703Y-83035722D01*
G37*
G04 #@! TD.AperFunction*
G04 #@! TA.AperFunction,SMDPad,CuDef*
G36*
X128614703Y-84305722D02*
G01*
X128629264Y-84307882D01*
X128643543Y-84311459D01*
X128657403Y-84316418D01*
X128670710Y-84322712D01*
X128683336Y-84330280D01*
X128695159Y-84339048D01*
X128706066Y-84348934D01*
X128715952Y-84359841D01*
X128724720Y-84371664D01*
X128732288Y-84384290D01*
X128738582Y-84397597D01*
X128743541Y-84411457D01*
X128747118Y-84425736D01*
X128749278Y-84440297D01*
X128750000Y-84455000D01*
X128750000Y-84755000D01*
X128749278Y-84769703D01*
X128747118Y-84784264D01*
X128743541Y-84798543D01*
X128738582Y-84812403D01*
X128732288Y-84825710D01*
X128724720Y-84838336D01*
X128715952Y-84850159D01*
X128706066Y-84861066D01*
X128695159Y-84870952D01*
X128683336Y-84879720D01*
X128670710Y-84887288D01*
X128657403Y-84893582D01*
X128643543Y-84898541D01*
X128629264Y-84902118D01*
X128614703Y-84904278D01*
X128600000Y-84905000D01*
X126950000Y-84905000D01*
X126935297Y-84904278D01*
X126920736Y-84902118D01*
X126906457Y-84898541D01*
X126892597Y-84893582D01*
X126879290Y-84887288D01*
X126866664Y-84879720D01*
X126854841Y-84870952D01*
X126843934Y-84861066D01*
X126834048Y-84850159D01*
X126825280Y-84838336D01*
X126817712Y-84825710D01*
X126811418Y-84812403D01*
X126806459Y-84798543D01*
X126802882Y-84784264D01*
X126800722Y-84769703D01*
X126800000Y-84755000D01*
X126800000Y-84455000D01*
X126800722Y-84440297D01*
X126802882Y-84425736D01*
X126806459Y-84411457D01*
X126811418Y-84397597D01*
X126817712Y-84384290D01*
X126825280Y-84371664D01*
X126834048Y-84359841D01*
X126843934Y-84348934D01*
X126854841Y-84339048D01*
X126866664Y-84330280D01*
X126879290Y-84322712D01*
X126892597Y-84316418D01*
X126906457Y-84311459D01*
X126920736Y-84307882D01*
X126935297Y-84305722D01*
X126950000Y-84305000D01*
X128600000Y-84305000D01*
X128614703Y-84305722D01*
G37*
G04 #@! TD.AperFunction*
G04 #@! TA.AperFunction,SMDPad,CuDef*
G36*
X128614703Y-85575722D02*
G01*
X128629264Y-85577882D01*
X128643543Y-85581459D01*
X128657403Y-85586418D01*
X128670710Y-85592712D01*
X128683336Y-85600280D01*
X128695159Y-85609048D01*
X128706066Y-85618934D01*
X128715952Y-85629841D01*
X128724720Y-85641664D01*
X128732288Y-85654290D01*
X128738582Y-85667597D01*
X128743541Y-85681457D01*
X128747118Y-85695736D01*
X128749278Y-85710297D01*
X128750000Y-85725000D01*
X128750000Y-86025000D01*
X128749278Y-86039703D01*
X128747118Y-86054264D01*
X128743541Y-86068543D01*
X128738582Y-86082403D01*
X128732288Y-86095710D01*
X128724720Y-86108336D01*
X128715952Y-86120159D01*
X128706066Y-86131066D01*
X128695159Y-86140952D01*
X128683336Y-86149720D01*
X128670710Y-86157288D01*
X128657403Y-86163582D01*
X128643543Y-86168541D01*
X128629264Y-86172118D01*
X128614703Y-86174278D01*
X128600000Y-86175000D01*
X126950000Y-86175000D01*
X126935297Y-86174278D01*
X126920736Y-86172118D01*
X126906457Y-86168541D01*
X126892597Y-86163582D01*
X126879290Y-86157288D01*
X126866664Y-86149720D01*
X126854841Y-86140952D01*
X126843934Y-86131066D01*
X126834048Y-86120159D01*
X126825280Y-86108336D01*
X126817712Y-86095710D01*
X126811418Y-86082403D01*
X126806459Y-86068543D01*
X126802882Y-86054264D01*
X126800722Y-86039703D01*
X126800000Y-86025000D01*
X126800000Y-85725000D01*
X126800722Y-85710297D01*
X126802882Y-85695736D01*
X126806459Y-85681457D01*
X126811418Y-85667597D01*
X126817712Y-85654290D01*
X126825280Y-85641664D01*
X126834048Y-85629841D01*
X126843934Y-85618934D01*
X126854841Y-85609048D01*
X126866664Y-85600280D01*
X126879290Y-85592712D01*
X126892597Y-85586418D01*
X126906457Y-85581459D01*
X126920736Y-85577882D01*
X126935297Y-85575722D01*
X126950000Y-85575000D01*
X128600000Y-85575000D01*
X128614703Y-85575722D01*
G37*
G04 #@! TD.AperFunction*
G04 #@! TA.AperFunction,SMDPad,CuDef*
G36*
X128614703Y-86845722D02*
G01*
X128629264Y-86847882D01*
X128643543Y-86851459D01*
X128657403Y-86856418D01*
X128670710Y-86862712D01*
X128683336Y-86870280D01*
X128695159Y-86879048D01*
X128706066Y-86888934D01*
X128715952Y-86899841D01*
X128724720Y-86911664D01*
X128732288Y-86924290D01*
X128738582Y-86937597D01*
X128743541Y-86951457D01*
X128747118Y-86965736D01*
X128749278Y-86980297D01*
X128750000Y-86995000D01*
X128750000Y-87295000D01*
X128749278Y-87309703D01*
X128747118Y-87324264D01*
X128743541Y-87338543D01*
X128738582Y-87352403D01*
X128732288Y-87365710D01*
X128724720Y-87378336D01*
X128715952Y-87390159D01*
X128706066Y-87401066D01*
X128695159Y-87410952D01*
X128683336Y-87419720D01*
X128670710Y-87427288D01*
X128657403Y-87433582D01*
X128643543Y-87438541D01*
X128629264Y-87442118D01*
X128614703Y-87444278D01*
X128600000Y-87445000D01*
X126950000Y-87445000D01*
X126935297Y-87444278D01*
X126920736Y-87442118D01*
X126906457Y-87438541D01*
X126892597Y-87433582D01*
X126879290Y-87427288D01*
X126866664Y-87419720D01*
X126854841Y-87410952D01*
X126843934Y-87401066D01*
X126834048Y-87390159D01*
X126825280Y-87378336D01*
X126817712Y-87365710D01*
X126811418Y-87352403D01*
X126806459Y-87338543D01*
X126802882Y-87324264D01*
X126800722Y-87309703D01*
X126800000Y-87295000D01*
X126800000Y-86995000D01*
X126800722Y-86980297D01*
X126802882Y-86965736D01*
X126806459Y-86951457D01*
X126811418Y-86937597D01*
X126817712Y-86924290D01*
X126825280Y-86911664D01*
X126834048Y-86899841D01*
X126843934Y-86888934D01*
X126854841Y-86879048D01*
X126866664Y-86870280D01*
X126879290Y-86862712D01*
X126892597Y-86856418D01*
X126906457Y-86851459D01*
X126920736Y-86847882D01*
X126935297Y-86845722D01*
X126950000Y-86845000D01*
X128600000Y-86845000D01*
X128614703Y-86845722D01*
G37*
G04 #@! TD.AperFunction*
G04 #@! TA.AperFunction,SMDPad,CuDef*
G36*
X123664703Y-86845722D02*
G01*
X123679264Y-86847882D01*
X123693543Y-86851459D01*
X123707403Y-86856418D01*
X123720710Y-86862712D01*
X123733336Y-86870280D01*
X123745159Y-86879048D01*
X123756066Y-86888934D01*
X123765952Y-86899841D01*
X123774720Y-86911664D01*
X123782288Y-86924290D01*
X123788582Y-86937597D01*
X123793541Y-86951457D01*
X123797118Y-86965736D01*
X123799278Y-86980297D01*
X123800000Y-86995000D01*
X123800000Y-87295000D01*
X123799278Y-87309703D01*
X123797118Y-87324264D01*
X123793541Y-87338543D01*
X123788582Y-87352403D01*
X123782288Y-87365710D01*
X123774720Y-87378336D01*
X123765952Y-87390159D01*
X123756066Y-87401066D01*
X123745159Y-87410952D01*
X123733336Y-87419720D01*
X123720710Y-87427288D01*
X123707403Y-87433582D01*
X123693543Y-87438541D01*
X123679264Y-87442118D01*
X123664703Y-87444278D01*
X123650000Y-87445000D01*
X122000000Y-87445000D01*
X121985297Y-87444278D01*
X121970736Y-87442118D01*
X121956457Y-87438541D01*
X121942597Y-87433582D01*
X121929290Y-87427288D01*
X121916664Y-87419720D01*
X121904841Y-87410952D01*
X121893934Y-87401066D01*
X121884048Y-87390159D01*
X121875280Y-87378336D01*
X121867712Y-87365710D01*
X121861418Y-87352403D01*
X121856459Y-87338543D01*
X121852882Y-87324264D01*
X121850722Y-87309703D01*
X121850000Y-87295000D01*
X121850000Y-86995000D01*
X121850722Y-86980297D01*
X121852882Y-86965736D01*
X121856459Y-86951457D01*
X121861418Y-86937597D01*
X121867712Y-86924290D01*
X121875280Y-86911664D01*
X121884048Y-86899841D01*
X121893934Y-86888934D01*
X121904841Y-86879048D01*
X121916664Y-86870280D01*
X121929290Y-86862712D01*
X121942597Y-86856418D01*
X121956457Y-86851459D01*
X121970736Y-86847882D01*
X121985297Y-86845722D01*
X122000000Y-86845000D01*
X123650000Y-86845000D01*
X123664703Y-86845722D01*
G37*
G04 #@! TD.AperFunction*
G04 #@! TA.AperFunction,SMDPad,CuDef*
G36*
X123664703Y-85575722D02*
G01*
X123679264Y-85577882D01*
X123693543Y-85581459D01*
X123707403Y-85586418D01*
X123720710Y-85592712D01*
X123733336Y-85600280D01*
X123745159Y-85609048D01*
X123756066Y-85618934D01*
X123765952Y-85629841D01*
X123774720Y-85641664D01*
X123782288Y-85654290D01*
X123788582Y-85667597D01*
X123793541Y-85681457D01*
X123797118Y-85695736D01*
X123799278Y-85710297D01*
X123800000Y-85725000D01*
X123800000Y-86025000D01*
X123799278Y-86039703D01*
X123797118Y-86054264D01*
X123793541Y-86068543D01*
X123788582Y-86082403D01*
X123782288Y-86095710D01*
X123774720Y-86108336D01*
X123765952Y-86120159D01*
X123756066Y-86131066D01*
X123745159Y-86140952D01*
X123733336Y-86149720D01*
X123720710Y-86157288D01*
X123707403Y-86163582D01*
X123693543Y-86168541D01*
X123679264Y-86172118D01*
X123664703Y-86174278D01*
X123650000Y-86175000D01*
X122000000Y-86175000D01*
X121985297Y-86174278D01*
X121970736Y-86172118D01*
X121956457Y-86168541D01*
X121942597Y-86163582D01*
X121929290Y-86157288D01*
X121916664Y-86149720D01*
X121904841Y-86140952D01*
X121893934Y-86131066D01*
X121884048Y-86120159D01*
X121875280Y-86108336D01*
X121867712Y-86095710D01*
X121861418Y-86082403D01*
X121856459Y-86068543D01*
X121852882Y-86054264D01*
X121850722Y-86039703D01*
X121850000Y-86025000D01*
X121850000Y-85725000D01*
X121850722Y-85710297D01*
X121852882Y-85695736D01*
X121856459Y-85681457D01*
X121861418Y-85667597D01*
X121867712Y-85654290D01*
X121875280Y-85641664D01*
X121884048Y-85629841D01*
X121893934Y-85618934D01*
X121904841Y-85609048D01*
X121916664Y-85600280D01*
X121929290Y-85592712D01*
X121942597Y-85586418D01*
X121956457Y-85581459D01*
X121970736Y-85577882D01*
X121985297Y-85575722D01*
X122000000Y-85575000D01*
X123650000Y-85575000D01*
X123664703Y-85575722D01*
G37*
G04 #@! TD.AperFunction*
G04 #@! TA.AperFunction,SMDPad,CuDef*
G36*
X123664703Y-84305722D02*
G01*
X123679264Y-84307882D01*
X123693543Y-84311459D01*
X123707403Y-84316418D01*
X123720710Y-84322712D01*
X123733336Y-84330280D01*
X123745159Y-84339048D01*
X123756066Y-84348934D01*
X123765952Y-84359841D01*
X123774720Y-84371664D01*
X123782288Y-84384290D01*
X123788582Y-84397597D01*
X123793541Y-84411457D01*
X123797118Y-84425736D01*
X123799278Y-84440297D01*
X123800000Y-84455000D01*
X123800000Y-84755000D01*
X123799278Y-84769703D01*
X123797118Y-84784264D01*
X123793541Y-84798543D01*
X123788582Y-84812403D01*
X123782288Y-84825710D01*
X123774720Y-84838336D01*
X123765952Y-84850159D01*
X123756066Y-84861066D01*
X123745159Y-84870952D01*
X123733336Y-84879720D01*
X123720710Y-84887288D01*
X123707403Y-84893582D01*
X123693543Y-84898541D01*
X123679264Y-84902118D01*
X123664703Y-84904278D01*
X123650000Y-84905000D01*
X122000000Y-84905000D01*
X121985297Y-84904278D01*
X121970736Y-84902118D01*
X121956457Y-84898541D01*
X121942597Y-84893582D01*
X121929290Y-84887288D01*
X121916664Y-84879720D01*
X121904841Y-84870952D01*
X121893934Y-84861066D01*
X121884048Y-84850159D01*
X121875280Y-84838336D01*
X121867712Y-84825710D01*
X121861418Y-84812403D01*
X121856459Y-84798543D01*
X121852882Y-84784264D01*
X121850722Y-84769703D01*
X121850000Y-84755000D01*
X121850000Y-84455000D01*
X121850722Y-84440297D01*
X121852882Y-84425736D01*
X121856459Y-84411457D01*
X121861418Y-84397597D01*
X121867712Y-84384290D01*
X121875280Y-84371664D01*
X121884048Y-84359841D01*
X121893934Y-84348934D01*
X121904841Y-84339048D01*
X121916664Y-84330280D01*
X121929290Y-84322712D01*
X121942597Y-84316418D01*
X121956457Y-84311459D01*
X121970736Y-84307882D01*
X121985297Y-84305722D01*
X122000000Y-84305000D01*
X123650000Y-84305000D01*
X123664703Y-84305722D01*
G37*
G04 #@! TD.AperFunction*
G04 #@! TA.AperFunction,SMDPad,CuDef*
G36*
X123664703Y-83035722D02*
G01*
X123679264Y-83037882D01*
X123693543Y-83041459D01*
X123707403Y-83046418D01*
X123720710Y-83052712D01*
X123733336Y-83060280D01*
X123745159Y-83069048D01*
X123756066Y-83078934D01*
X123765952Y-83089841D01*
X123774720Y-83101664D01*
X123782288Y-83114290D01*
X123788582Y-83127597D01*
X123793541Y-83141457D01*
X123797118Y-83155736D01*
X123799278Y-83170297D01*
X123800000Y-83185000D01*
X123800000Y-83485000D01*
X123799278Y-83499703D01*
X123797118Y-83514264D01*
X123793541Y-83528543D01*
X123788582Y-83542403D01*
X123782288Y-83555710D01*
X123774720Y-83568336D01*
X123765952Y-83580159D01*
X123756066Y-83591066D01*
X123745159Y-83600952D01*
X123733336Y-83609720D01*
X123720710Y-83617288D01*
X123707403Y-83623582D01*
X123693543Y-83628541D01*
X123679264Y-83632118D01*
X123664703Y-83634278D01*
X123650000Y-83635000D01*
X122000000Y-83635000D01*
X121985297Y-83634278D01*
X121970736Y-83632118D01*
X121956457Y-83628541D01*
X121942597Y-83623582D01*
X121929290Y-83617288D01*
X121916664Y-83609720D01*
X121904841Y-83600952D01*
X121893934Y-83591066D01*
X121884048Y-83580159D01*
X121875280Y-83568336D01*
X121867712Y-83555710D01*
X121861418Y-83542403D01*
X121856459Y-83528543D01*
X121852882Y-83514264D01*
X121850722Y-83499703D01*
X121850000Y-83485000D01*
X121850000Y-83185000D01*
X121850722Y-83170297D01*
X121852882Y-83155736D01*
X121856459Y-83141457D01*
X121861418Y-83127597D01*
X121867712Y-83114290D01*
X121875280Y-83101664D01*
X121884048Y-83089841D01*
X121893934Y-83078934D01*
X121904841Y-83069048D01*
X121916664Y-83060280D01*
X121929290Y-83052712D01*
X121942597Y-83046418D01*
X121956457Y-83041459D01*
X121970736Y-83037882D01*
X121985297Y-83035722D01*
X122000000Y-83035000D01*
X123650000Y-83035000D01*
X123664703Y-83035722D01*
G37*
G04 #@! TD.AperFunction*
G04 #@! TA.AperFunction,SMDPad,CuDef*
G36*
X123664703Y-81765722D02*
G01*
X123679264Y-81767882D01*
X123693543Y-81771459D01*
X123707403Y-81776418D01*
X123720710Y-81782712D01*
X123733336Y-81790280D01*
X123745159Y-81799048D01*
X123756066Y-81808934D01*
X123765952Y-81819841D01*
X123774720Y-81831664D01*
X123782288Y-81844290D01*
X123788582Y-81857597D01*
X123793541Y-81871457D01*
X123797118Y-81885736D01*
X123799278Y-81900297D01*
X123800000Y-81915000D01*
X123800000Y-82215000D01*
X123799278Y-82229703D01*
X123797118Y-82244264D01*
X123793541Y-82258543D01*
X123788582Y-82272403D01*
X123782288Y-82285710D01*
X123774720Y-82298336D01*
X123765952Y-82310159D01*
X123756066Y-82321066D01*
X123745159Y-82330952D01*
X123733336Y-82339720D01*
X123720710Y-82347288D01*
X123707403Y-82353582D01*
X123693543Y-82358541D01*
X123679264Y-82362118D01*
X123664703Y-82364278D01*
X123650000Y-82365000D01*
X122000000Y-82365000D01*
X121985297Y-82364278D01*
X121970736Y-82362118D01*
X121956457Y-82358541D01*
X121942597Y-82353582D01*
X121929290Y-82347288D01*
X121916664Y-82339720D01*
X121904841Y-82330952D01*
X121893934Y-82321066D01*
X121884048Y-82310159D01*
X121875280Y-82298336D01*
X121867712Y-82285710D01*
X121861418Y-82272403D01*
X121856459Y-82258543D01*
X121852882Y-82244264D01*
X121850722Y-82229703D01*
X121850000Y-82215000D01*
X121850000Y-81915000D01*
X121850722Y-81900297D01*
X121852882Y-81885736D01*
X121856459Y-81871457D01*
X121861418Y-81857597D01*
X121867712Y-81844290D01*
X121875280Y-81831664D01*
X121884048Y-81819841D01*
X121893934Y-81808934D01*
X121904841Y-81799048D01*
X121916664Y-81790280D01*
X121929290Y-81782712D01*
X121942597Y-81776418D01*
X121956457Y-81771459D01*
X121970736Y-81767882D01*
X121985297Y-81765722D01*
X122000000Y-81765000D01*
X123650000Y-81765000D01*
X123664703Y-81765722D01*
G37*
G04 #@! TD.AperFunction*
G04 #@! TA.AperFunction,SMDPad,CuDef*
G36*
X123664703Y-80495722D02*
G01*
X123679264Y-80497882D01*
X123693543Y-80501459D01*
X123707403Y-80506418D01*
X123720710Y-80512712D01*
X123733336Y-80520280D01*
X123745159Y-80529048D01*
X123756066Y-80538934D01*
X123765952Y-80549841D01*
X123774720Y-80561664D01*
X123782288Y-80574290D01*
X123788582Y-80587597D01*
X123793541Y-80601457D01*
X123797118Y-80615736D01*
X123799278Y-80630297D01*
X123800000Y-80645000D01*
X123800000Y-80945000D01*
X123799278Y-80959703D01*
X123797118Y-80974264D01*
X123793541Y-80988543D01*
X123788582Y-81002403D01*
X123782288Y-81015710D01*
X123774720Y-81028336D01*
X123765952Y-81040159D01*
X123756066Y-81051066D01*
X123745159Y-81060952D01*
X123733336Y-81069720D01*
X123720710Y-81077288D01*
X123707403Y-81083582D01*
X123693543Y-81088541D01*
X123679264Y-81092118D01*
X123664703Y-81094278D01*
X123650000Y-81095000D01*
X122000000Y-81095000D01*
X121985297Y-81094278D01*
X121970736Y-81092118D01*
X121956457Y-81088541D01*
X121942597Y-81083582D01*
X121929290Y-81077288D01*
X121916664Y-81069720D01*
X121904841Y-81060952D01*
X121893934Y-81051066D01*
X121884048Y-81040159D01*
X121875280Y-81028336D01*
X121867712Y-81015710D01*
X121861418Y-81002403D01*
X121856459Y-80988543D01*
X121852882Y-80974264D01*
X121850722Y-80959703D01*
X121850000Y-80945000D01*
X121850000Y-80645000D01*
X121850722Y-80630297D01*
X121852882Y-80615736D01*
X121856459Y-80601457D01*
X121861418Y-80587597D01*
X121867712Y-80574290D01*
X121875280Y-80561664D01*
X121884048Y-80549841D01*
X121893934Y-80538934D01*
X121904841Y-80529048D01*
X121916664Y-80520280D01*
X121929290Y-80512712D01*
X121942597Y-80506418D01*
X121956457Y-80501459D01*
X121970736Y-80497882D01*
X121985297Y-80495722D01*
X122000000Y-80495000D01*
X123650000Y-80495000D01*
X123664703Y-80495722D01*
G37*
G04 #@! TD.AperFunction*
G04 #@! TA.AperFunction,SMDPad,CuDef*
G36*
X123664703Y-79225722D02*
G01*
X123679264Y-79227882D01*
X123693543Y-79231459D01*
X123707403Y-79236418D01*
X123720710Y-79242712D01*
X123733336Y-79250280D01*
X123745159Y-79259048D01*
X123756066Y-79268934D01*
X123765952Y-79279841D01*
X123774720Y-79291664D01*
X123782288Y-79304290D01*
X123788582Y-79317597D01*
X123793541Y-79331457D01*
X123797118Y-79345736D01*
X123799278Y-79360297D01*
X123800000Y-79375000D01*
X123800000Y-79675000D01*
X123799278Y-79689703D01*
X123797118Y-79704264D01*
X123793541Y-79718543D01*
X123788582Y-79732403D01*
X123782288Y-79745710D01*
X123774720Y-79758336D01*
X123765952Y-79770159D01*
X123756066Y-79781066D01*
X123745159Y-79790952D01*
X123733336Y-79799720D01*
X123720710Y-79807288D01*
X123707403Y-79813582D01*
X123693543Y-79818541D01*
X123679264Y-79822118D01*
X123664703Y-79824278D01*
X123650000Y-79825000D01*
X122000000Y-79825000D01*
X121985297Y-79824278D01*
X121970736Y-79822118D01*
X121956457Y-79818541D01*
X121942597Y-79813582D01*
X121929290Y-79807288D01*
X121916664Y-79799720D01*
X121904841Y-79790952D01*
X121893934Y-79781066D01*
X121884048Y-79770159D01*
X121875280Y-79758336D01*
X121867712Y-79745710D01*
X121861418Y-79732403D01*
X121856459Y-79718543D01*
X121852882Y-79704264D01*
X121850722Y-79689703D01*
X121850000Y-79675000D01*
X121850000Y-79375000D01*
X121850722Y-79360297D01*
X121852882Y-79345736D01*
X121856459Y-79331457D01*
X121861418Y-79317597D01*
X121867712Y-79304290D01*
X121875280Y-79291664D01*
X121884048Y-79279841D01*
X121893934Y-79268934D01*
X121904841Y-79259048D01*
X121916664Y-79250280D01*
X121929290Y-79242712D01*
X121942597Y-79236418D01*
X121956457Y-79231459D01*
X121970736Y-79227882D01*
X121985297Y-79225722D01*
X122000000Y-79225000D01*
X123650000Y-79225000D01*
X123664703Y-79225722D01*
G37*
G04 #@! TD.AperFunction*
G04 #@! TA.AperFunction,SMDPad,CuDef*
G36*
X123664703Y-77955722D02*
G01*
X123679264Y-77957882D01*
X123693543Y-77961459D01*
X123707403Y-77966418D01*
X123720710Y-77972712D01*
X123733336Y-77980280D01*
X123745159Y-77989048D01*
X123756066Y-77998934D01*
X123765952Y-78009841D01*
X123774720Y-78021664D01*
X123782288Y-78034290D01*
X123788582Y-78047597D01*
X123793541Y-78061457D01*
X123797118Y-78075736D01*
X123799278Y-78090297D01*
X123800000Y-78105000D01*
X123800000Y-78405000D01*
X123799278Y-78419703D01*
X123797118Y-78434264D01*
X123793541Y-78448543D01*
X123788582Y-78462403D01*
X123782288Y-78475710D01*
X123774720Y-78488336D01*
X123765952Y-78500159D01*
X123756066Y-78511066D01*
X123745159Y-78520952D01*
X123733336Y-78529720D01*
X123720710Y-78537288D01*
X123707403Y-78543582D01*
X123693543Y-78548541D01*
X123679264Y-78552118D01*
X123664703Y-78554278D01*
X123650000Y-78555000D01*
X122000000Y-78555000D01*
X121985297Y-78554278D01*
X121970736Y-78552118D01*
X121956457Y-78548541D01*
X121942597Y-78543582D01*
X121929290Y-78537288D01*
X121916664Y-78529720D01*
X121904841Y-78520952D01*
X121893934Y-78511066D01*
X121884048Y-78500159D01*
X121875280Y-78488336D01*
X121867712Y-78475710D01*
X121861418Y-78462403D01*
X121856459Y-78448543D01*
X121852882Y-78434264D01*
X121850722Y-78419703D01*
X121850000Y-78405000D01*
X121850000Y-78105000D01*
X121850722Y-78090297D01*
X121852882Y-78075736D01*
X121856459Y-78061457D01*
X121861418Y-78047597D01*
X121867712Y-78034290D01*
X121875280Y-78021664D01*
X121884048Y-78009841D01*
X121893934Y-77998934D01*
X121904841Y-77989048D01*
X121916664Y-77980280D01*
X121929290Y-77972712D01*
X121942597Y-77966418D01*
X121956457Y-77961459D01*
X121970736Y-77957882D01*
X121985297Y-77955722D01*
X122000000Y-77955000D01*
X123650000Y-77955000D01*
X123664703Y-77955722D01*
G37*
G04 #@! TD.AperFunction*
D13*
X122825000Y-87145000D02*
X121555000Y-87145000D01*
X121555000Y-87145000D02*
X121400000Y-87300000D01*
X121400000Y-87300000D02*
X121400000Y-90800000D01*
X120720000Y-91480000D02*
X119300000Y-91480000D01*
X121400000Y-90800000D02*
X120720000Y-91480000D01*
X122825000Y-85875000D02*
X121125000Y-85875000D01*
X121125000Y-85875000D02*
X121000000Y-86000000D01*
X121000000Y-86000000D02*
X121000000Y-88700000D01*
X120760000Y-88940000D02*
X119300000Y-88940000D01*
X121000000Y-88700000D02*
X120760000Y-88940000D01*
X120502081Y-86400000D02*
X119300000Y-86400000D01*
X120600000Y-86302081D02*
X120502081Y-86400000D01*
X120600000Y-85000000D02*
X120600000Y-86302081D01*
X122825000Y-84605000D02*
X120995000Y-84605000D01*
X120995000Y-84605000D02*
X120600000Y-85000000D01*
X122825000Y-83335000D02*
X121165000Y-83335000D01*
X120640000Y-83860000D02*
X119300000Y-83860000D01*
X121165000Y-83335000D02*
X120640000Y-83860000D01*
X120520000Y-81320000D02*
X119300000Y-81320000D01*
X122825000Y-82065000D02*
X121265000Y-82065000D01*
X121265000Y-82065000D02*
X120520000Y-81320000D01*
X120300000Y-78780000D02*
X119300000Y-78780000D01*
X120400000Y-78880000D02*
X120300000Y-78780000D01*
X120400000Y-80100000D02*
X120400000Y-78880000D01*
X122825000Y-80795000D02*
X121095000Y-80795000D01*
X121095000Y-80795000D02*
X120400000Y-80100000D01*
X120540000Y-76240000D02*
X119300000Y-76240000D01*
X120800000Y-76500000D02*
X120540000Y-76240000D01*
X120800000Y-79200000D02*
X120800000Y-76500000D01*
X122825000Y-79525000D02*
X121125000Y-79525000D01*
X121125000Y-79525000D02*
X120800000Y-79200000D01*
X122825000Y-78255000D02*
X121655000Y-78255000D01*
X121655000Y-78255000D02*
X121500000Y-78100000D01*
X121500000Y-78100000D02*
X121500000Y-74000000D01*
X121200000Y-73700000D02*
X119300000Y-73700000D01*
X121500000Y-74000000D02*
X121200000Y-73700000D01*
X128750000Y-87145000D02*
X128752400Y-87147400D01*
X127775000Y-87145000D02*
X128750000Y-87145000D01*
X128752400Y-87147400D02*
X129057400Y-87147400D01*
X129057400Y-87147400D02*
X129286000Y-87376000D01*
X129286000Y-87376000D02*
X129286000Y-91160600D01*
X129605400Y-91480000D02*
X131300000Y-91480000D01*
X129286000Y-91160600D02*
X129605400Y-91480000D01*
X127775000Y-85875000D02*
X129436000Y-85875000D01*
X129436000Y-85875000D02*
X129603500Y-86042500D01*
X129603500Y-86042500D02*
X129603500Y-88582500D01*
X129961000Y-88940000D02*
X131300000Y-88940000D01*
X129603500Y-88582500D02*
X129961000Y-88940000D01*
X130097919Y-86400000D02*
X131300000Y-86400000D01*
X129921000Y-86223081D02*
X130097919Y-86400000D01*
X129921000Y-84836000D02*
X129921000Y-86223081D01*
X129690000Y-84605000D02*
X129921000Y-84836000D01*
X127775000Y-84605000D02*
X129690000Y-84605000D01*
X130088000Y-83860000D02*
X131300000Y-83860000D01*
X127775000Y-83335000D02*
X129563000Y-83335000D01*
X129563000Y-83335000D02*
X130088000Y-83860000D01*
X129754000Y-81320000D02*
X131300000Y-81320000D01*
X127775000Y-82065000D02*
X129009000Y-82065000D01*
X129009000Y-82065000D02*
X129754000Y-81320000D01*
X127775000Y-80795000D02*
X129072500Y-80795000D01*
X129072500Y-80795000D02*
X129794000Y-80073500D01*
X129794000Y-80073500D02*
X129794000Y-78930500D01*
X129944500Y-78780000D02*
X131300000Y-78780000D01*
X129794000Y-78930500D02*
X129944500Y-78780000D01*
X127775000Y-79525000D02*
X129009000Y-79525000D01*
X129009000Y-79525000D02*
X129476500Y-79057500D01*
X129476500Y-79057500D02*
X129476500Y-76390500D01*
X129627000Y-76240000D02*
X131300000Y-76240000D01*
X129476500Y-76390500D02*
X129627000Y-76240000D01*
X128750000Y-78255000D02*
X128755000Y-78250000D01*
X127775000Y-78255000D02*
X128750000Y-78255000D01*
X128755000Y-78250000D02*
X128850000Y-78250000D01*
X128850000Y-78250000D02*
X129150000Y-77950000D01*
X129150000Y-77950000D02*
X129150000Y-74000000D01*
X129450000Y-73700000D02*
X131300000Y-73700000D01*
X129150000Y-74000000D02*
X129450000Y-73700000D01*
M02*
