G04 #@! TF.GenerationSoftware,KiCad,Pcbnew,(5.1.4)-1*
G04 #@! TF.CreationDate,2019-12-07T06:36:36-05:00*
G04 #@! TF.ProjectId,BBPSU_Dsch,42425053-555f-4447-9363-682e6b696361,rev?*
G04 #@! TF.SameCoordinates,Original*
G04 #@! TF.FileFunction,Legend,Top*
G04 #@! TF.FilePolarity,Positive*
%FSLAX46Y46*%
G04 Gerber Fmt 4.6, Leading zero omitted, Abs format (unit mm)*
G04 Created by KiCad (PCBNEW (5.1.4)-1) date 2019-12-07 06:36:36*
%MOMM*%
%LPD*%
G04 APERTURE LIST*
%ADD10C,0.125000*%
%ADD11C,0.150000*%
%ADD12C,0.120000*%
%ADD13C,0.100000*%
G04 APERTURE END LIST*
D10*
X49981428Y-29811428D02*
X50088571Y-29847142D01*
X50124285Y-29882857D01*
X50160000Y-29954285D01*
X50160000Y-30061428D01*
X50124285Y-30132857D01*
X50088571Y-30168571D01*
X50017142Y-30204285D01*
X49731428Y-30204285D01*
X49731428Y-29454285D01*
X49981428Y-29454285D01*
X50052857Y-29490000D01*
X50088571Y-29525714D01*
X50124285Y-29597142D01*
X50124285Y-29668571D01*
X50088571Y-29740000D01*
X50052857Y-29775714D01*
X49981428Y-29811428D01*
X49731428Y-29811428D01*
X50910000Y-30204285D02*
X50660000Y-29847142D01*
X50481428Y-30204285D02*
X50481428Y-29454285D01*
X50767142Y-29454285D01*
X50838571Y-29490000D01*
X50874285Y-29525714D01*
X50910000Y-29597142D01*
X50910000Y-29704285D01*
X50874285Y-29775714D01*
X50838571Y-29811428D01*
X50767142Y-29847142D01*
X50481428Y-29847142D01*
X51231428Y-29811428D02*
X51481428Y-29811428D01*
X51588571Y-30204285D02*
X51231428Y-30204285D01*
X51231428Y-29454285D01*
X51588571Y-29454285D01*
X51874285Y-29990000D02*
X52231428Y-29990000D01*
X51802857Y-30204285D02*
X52052857Y-29454285D01*
X52302857Y-30204285D01*
X52552857Y-30204285D02*
X52552857Y-29454285D01*
X52731428Y-29454285D01*
X52838571Y-29490000D01*
X52910000Y-29561428D01*
X52945714Y-29632857D01*
X52981428Y-29775714D01*
X52981428Y-29882857D01*
X52945714Y-30025714D01*
X52910000Y-30097142D01*
X52838571Y-30168571D01*
X52731428Y-30204285D01*
X52552857Y-30204285D01*
X53552857Y-29811428D02*
X53660000Y-29847142D01*
X53695714Y-29882857D01*
X53731428Y-29954285D01*
X53731428Y-30061428D01*
X53695714Y-30132857D01*
X53660000Y-30168571D01*
X53588571Y-30204285D01*
X53302857Y-30204285D01*
X53302857Y-29454285D01*
X53552857Y-29454285D01*
X53624285Y-29490000D01*
X53660000Y-29525714D01*
X53695714Y-29597142D01*
X53695714Y-29668571D01*
X53660000Y-29740000D01*
X53624285Y-29775714D01*
X53552857Y-29811428D01*
X53302857Y-29811428D01*
X54195714Y-29454285D02*
X54338571Y-29454285D01*
X54410000Y-29490000D01*
X54481428Y-29561428D01*
X54517142Y-29704285D01*
X54517142Y-29954285D01*
X54481428Y-30097142D01*
X54410000Y-30168571D01*
X54338571Y-30204285D01*
X54195714Y-30204285D01*
X54124285Y-30168571D01*
X54052857Y-30097142D01*
X54017142Y-29954285D01*
X54017142Y-29704285D01*
X54052857Y-29561428D01*
X54124285Y-29490000D01*
X54195714Y-29454285D01*
X54802857Y-29990000D02*
X55160000Y-29990000D01*
X54731428Y-30204285D02*
X54981428Y-29454285D01*
X55231428Y-30204285D01*
X55910000Y-30204285D02*
X55660000Y-29847142D01*
X55481428Y-30204285D02*
X55481428Y-29454285D01*
X55767142Y-29454285D01*
X55838571Y-29490000D01*
X55874285Y-29525714D01*
X55910000Y-29597142D01*
X55910000Y-29704285D01*
X55874285Y-29775714D01*
X55838571Y-29811428D01*
X55767142Y-29847142D01*
X55481428Y-29847142D01*
X56231428Y-30204285D02*
X56231428Y-29454285D01*
X56410000Y-29454285D01*
X56517142Y-29490000D01*
X56588571Y-29561428D01*
X56624285Y-29632857D01*
X56660000Y-29775714D01*
X56660000Y-29882857D01*
X56624285Y-30025714D01*
X56588571Y-30097142D01*
X56517142Y-30168571D01*
X56410000Y-30204285D01*
X56231428Y-30204285D01*
X57552857Y-30204285D02*
X57552857Y-29454285D01*
X57838571Y-29454285D01*
X57910000Y-29490000D01*
X57945714Y-29525714D01*
X57981428Y-29597142D01*
X57981428Y-29704285D01*
X57945714Y-29775714D01*
X57910000Y-29811428D01*
X57838571Y-29847142D01*
X57552857Y-29847142D01*
X58445714Y-29454285D02*
X58588571Y-29454285D01*
X58660000Y-29490000D01*
X58731428Y-29561428D01*
X58767142Y-29704285D01*
X58767142Y-29954285D01*
X58731428Y-30097142D01*
X58660000Y-30168571D01*
X58588571Y-30204285D01*
X58445714Y-30204285D01*
X58374285Y-30168571D01*
X58302857Y-30097142D01*
X58267142Y-29954285D01*
X58267142Y-29704285D01*
X58302857Y-29561428D01*
X58374285Y-29490000D01*
X58445714Y-29454285D01*
X59017142Y-29454285D02*
X59195714Y-30204285D01*
X59338571Y-29668571D01*
X59481428Y-30204285D01*
X59660000Y-29454285D01*
X59945714Y-29811428D02*
X60195714Y-29811428D01*
X60302857Y-30204285D02*
X59945714Y-30204285D01*
X59945714Y-29454285D01*
X60302857Y-29454285D01*
X61052857Y-30204285D02*
X60802857Y-29847142D01*
X60624285Y-30204285D02*
X60624285Y-29454285D01*
X60910000Y-29454285D01*
X60981428Y-29490000D01*
X61017142Y-29525714D01*
X61052857Y-29597142D01*
X61052857Y-29704285D01*
X61017142Y-29775714D01*
X60981428Y-29811428D01*
X60910000Y-29847142D01*
X60624285Y-29847142D01*
X61910000Y-30168571D02*
X62017142Y-30204285D01*
X62195714Y-30204285D01*
X62267142Y-30168571D01*
X62302857Y-30132857D01*
X62338571Y-30061428D01*
X62338571Y-29990000D01*
X62302857Y-29918571D01*
X62267142Y-29882857D01*
X62195714Y-29847142D01*
X62052857Y-29811428D01*
X61981428Y-29775714D01*
X61945714Y-29740000D01*
X61910000Y-29668571D01*
X61910000Y-29597142D01*
X61945714Y-29525714D01*
X61981428Y-29490000D01*
X62052857Y-29454285D01*
X62231428Y-29454285D01*
X62338571Y-29490000D01*
X62660000Y-29454285D02*
X62660000Y-30061428D01*
X62695714Y-30132857D01*
X62731428Y-30168571D01*
X62802857Y-30204285D01*
X62945714Y-30204285D01*
X63017142Y-30168571D01*
X63052857Y-30132857D01*
X63088571Y-30061428D01*
X63088571Y-29454285D01*
X63445714Y-30204285D02*
X63445714Y-29454285D01*
X63731428Y-29454285D01*
X63802857Y-29490000D01*
X63838571Y-29525714D01*
X63874285Y-29597142D01*
X63874285Y-29704285D01*
X63838571Y-29775714D01*
X63802857Y-29811428D01*
X63731428Y-29847142D01*
X63445714Y-29847142D01*
X64195714Y-30204285D02*
X64195714Y-29454285D01*
X64481428Y-29454285D01*
X64552857Y-29490000D01*
X64588571Y-29525714D01*
X64624285Y-29597142D01*
X64624285Y-29704285D01*
X64588571Y-29775714D01*
X64552857Y-29811428D01*
X64481428Y-29847142D01*
X64195714Y-29847142D01*
X65302857Y-30204285D02*
X64945714Y-30204285D01*
X64945714Y-29454285D01*
X65695714Y-29847142D02*
X65695714Y-30204285D01*
X65445714Y-29454285D02*
X65695714Y-29847142D01*
X65945714Y-29454285D01*
X56517142Y-31454285D02*
X56267142Y-31097142D01*
X56088571Y-31454285D02*
X56088571Y-30704285D01*
X56374285Y-30704285D01*
X56445714Y-30740000D01*
X56481428Y-30775714D01*
X56517142Y-30847142D01*
X56517142Y-30954285D01*
X56481428Y-31025714D01*
X56445714Y-31061428D01*
X56374285Y-31097142D01*
X56088571Y-31097142D01*
X56838571Y-31061428D02*
X57088571Y-31061428D01*
X57195714Y-31454285D02*
X56838571Y-31454285D01*
X56838571Y-30704285D01*
X57195714Y-30704285D01*
X57410000Y-30704285D02*
X57660000Y-31454285D01*
X57910000Y-30704285D01*
X58160000Y-31382857D02*
X58195714Y-31418571D01*
X58160000Y-31454285D01*
X58124285Y-31418571D01*
X58160000Y-31382857D01*
X58160000Y-31454285D01*
X58160000Y-30990000D02*
X58195714Y-31025714D01*
X58160000Y-31061428D01*
X58124285Y-31025714D01*
X58160000Y-30990000D01*
X58160000Y-31061428D01*
X59088571Y-31454285D02*
X59088571Y-30704285D01*
X59267142Y-30704285D01*
X59374285Y-30740000D01*
X59445714Y-30811428D01*
X59481428Y-30882857D01*
X59517142Y-31025714D01*
X59517142Y-31132857D01*
X59481428Y-31275714D01*
X59445714Y-31347142D01*
X59374285Y-31418571D01*
X59267142Y-31454285D01*
X59088571Y-31454285D01*
X51285000Y-32632857D02*
X51249285Y-32668571D01*
X51142142Y-32704285D01*
X51070714Y-32704285D01*
X50963571Y-32668571D01*
X50892142Y-32597142D01*
X50856428Y-32525714D01*
X50820714Y-32382857D01*
X50820714Y-32275714D01*
X50856428Y-32132857D01*
X50892142Y-32061428D01*
X50963571Y-31990000D01*
X51070714Y-31954285D01*
X51142142Y-31954285D01*
X51249285Y-31990000D01*
X51285000Y-32025714D01*
X52035000Y-32704285D02*
X51785000Y-32347142D01*
X51606428Y-32704285D02*
X51606428Y-31954285D01*
X51892142Y-31954285D01*
X51963571Y-31990000D01*
X51999285Y-32025714D01*
X52035000Y-32097142D01*
X52035000Y-32204285D01*
X51999285Y-32275714D01*
X51963571Y-32311428D01*
X51892142Y-32347142D01*
X51606428Y-32347142D01*
X52356428Y-32311428D02*
X52606428Y-32311428D01*
X52713571Y-32704285D02*
X52356428Y-32704285D01*
X52356428Y-31954285D01*
X52713571Y-31954285D01*
X52999285Y-32490000D02*
X53356428Y-32490000D01*
X52927857Y-32704285D02*
X53177857Y-31954285D01*
X53427857Y-32704285D01*
X53570714Y-31954285D02*
X53999285Y-31954285D01*
X53785000Y-32704285D02*
X53785000Y-31954285D01*
X54249285Y-32311428D02*
X54499285Y-32311428D01*
X54606428Y-32704285D02*
X54249285Y-32704285D01*
X54249285Y-31954285D01*
X54606428Y-31954285D01*
X54927857Y-32704285D02*
X54927857Y-31954285D01*
X55106428Y-31954285D01*
X55213571Y-31990000D01*
X55285000Y-32061428D01*
X55320714Y-32132857D01*
X55356428Y-32275714D01*
X55356428Y-32382857D01*
X55320714Y-32525714D01*
X55285000Y-32597142D01*
X55213571Y-32668571D01*
X55106428Y-32704285D01*
X54927857Y-32704285D01*
X56499285Y-32311428D02*
X56606428Y-32347142D01*
X56642142Y-32382857D01*
X56677857Y-32454285D01*
X56677857Y-32561428D01*
X56642142Y-32632857D01*
X56606428Y-32668571D01*
X56535000Y-32704285D01*
X56249285Y-32704285D01*
X56249285Y-31954285D01*
X56499285Y-31954285D01*
X56570714Y-31990000D01*
X56606428Y-32025714D01*
X56642142Y-32097142D01*
X56642142Y-32168571D01*
X56606428Y-32240000D01*
X56570714Y-32275714D01*
X56499285Y-32311428D01*
X56249285Y-32311428D01*
X57142142Y-32347142D02*
X57142142Y-32704285D01*
X56892142Y-31954285D02*
X57142142Y-32347142D01*
X57392142Y-31954285D01*
X58177857Y-32668571D02*
X58285000Y-32704285D01*
X58463571Y-32704285D01*
X58535000Y-32668571D01*
X58570714Y-32632857D01*
X58606428Y-32561428D01*
X58606428Y-32490000D01*
X58570714Y-32418571D01*
X58535000Y-32382857D01*
X58463571Y-32347142D01*
X58320714Y-32311428D01*
X58249285Y-32275714D01*
X58213571Y-32240000D01*
X58177857Y-32168571D01*
X58177857Y-32097142D01*
X58213571Y-32025714D01*
X58249285Y-31990000D01*
X58320714Y-31954285D01*
X58499285Y-31954285D01*
X58606428Y-31990000D01*
X58927857Y-32704285D02*
X58927857Y-31954285D01*
X59356428Y-32704285D02*
X59035000Y-32275714D01*
X59356428Y-31954285D02*
X58927857Y-32382857D01*
X59820714Y-32347142D02*
X59820714Y-32704285D01*
X59570714Y-31954285D02*
X59820714Y-32347142D01*
X60070714Y-31954285D01*
X60320714Y-32311428D02*
X60570714Y-32311428D01*
X60677857Y-32704285D02*
X60320714Y-32704285D01*
X60320714Y-31954285D01*
X60677857Y-31954285D01*
X61570714Y-32311428D02*
X61820714Y-32311428D01*
X61927857Y-32704285D02*
X61570714Y-32704285D01*
X61570714Y-31954285D01*
X61927857Y-31954285D01*
X62677857Y-32704285D02*
X62427857Y-32347142D01*
X62249285Y-32704285D02*
X62249285Y-31954285D01*
X62535000Y-31954285D01*
X62606428Y-31990000D01*
X62642142Y-32025714D01*
X62677857Y-32097142D01*
X62677857Y-32204285D01*
X62642142Y-32275714D01*
X62606428Y-32311428D01*
X62535000Y-32347142D01*
X62249285Y-32347142D01*
X62999285Y-32704285D02*
X62999285Y-31954285D01*
X63427857Y-32704285D01*
X63427857Y-31954285D01*
X63749285Y-32668571D02*
X63856428Y-32704285D01*
X64035000Y-32704285D01*
X64106428Y-32668571D01*
X64142142Y-32632857D01*
X64177857Y-32561428D01*
X64177857Y-32490000D01*
X64142142Y-32418571D01*
X64106428Y-32382857D01*
X64035000Y-32347142D01*
X63892142Y-32311428D01*
X63820714Y-32275714D01*
X63785000Y-32240000D01*
X63749285Y-32168571D01*
X63749285Y-32097142D01*
X63785000Y-32025714D01*
X63820714Y-31990000D01*
X63892142Y-31954285D01*
X64070714Y-31954285D01*
X64177857Y-31990000D01*
X64392142Y-31954285D02*
X64820714Y-31954285D01*
X64606428Y-32704285D02*
X64606428Y-31954285D01*
X66659285Y-52931190D02*
X66659285Y-52431190D01*
X66849761Y-52431190D01*
X66897380Y-52455000D01*
X66921190Y-52478809D01*
X66945000Y-52526428D01*
X66945000Y-52597857D01*
X66921190Y-52645476D01*
X66897380Y-52669285D01*
X66849761Y-52693095D01*
X66659285Y-52693095D01*
X67111666Y-52431190D02*
X67230714Y-52931190D01*
X67325952Y-52574047D01*
X67421190Y-52931190D01*
X67540238Y-52431190D01*
X68016428Y-52931190D02*
X67849761Y-52693095D01*
X67730714Y-52931190D02*
X67730714Y-52431190D01*
X67921190Y-52431190D01*
X67968809Y-52455000D01*
X67992619Y-52478809D01*
X68016428Y-52526428D01*
X68016428Y-52597857D01*
X67992619Y-52645476D01*
X67968809Y-52669285D01*
X67921190Y-52693095D01*
X67730714Y-52693095D01*
X68111666Y-52978809D02*
X68492619Y-52978809D01*
X68540238Y-52431190D02*
X68825952Y-52431190D01*
X68683095Y-52931190D02*
X68683095Y-52431190D01*
X68945000Y-52431190D02*
X69278333Y-52931190D01*
X69278333Y-52431190D02*
X68945000Y-52931190D01*
X62789761Y-52931190D02*
X62789761Y-52431190D01*
X62980238Y-52431190D01*
X63027857Y-52455000D01*
X63051666Y-52478809D01*
X63075476Y-52526428D01*
X63075476Y-52597857D01*
X63051666Y-52645476D01*
X63027857Y-52669285D01*
X62980238Y-52693095D01*
X62789761Y-52693095D01*
X63242142Y-52431190D02*
X63361190Y-52931190D01*
X63456428Y-52574047D01*
X63551666Y-52931190D01*
X63670714Y-52431190D01*
X64146904Y-52931190D02*
X63980238Y-52693095D01*
X63861190Y-52931190D02*
X63861190Y-52431190D01*
X64051666Y-52431190D01*
X64099285Y-52455000D01*
X64123095Y-52478809D01*
X64146904Y-52526428D01*
X64146904Y-52597857D01*
X64123095Y-52645476D01*
X64099285Y-52669285D01*
X64051666Y-52693095D01*
X63861190Y-52693095D01*
X64242142Y-52978809D02*
X64623095Y-52978809D01*
X65027857Y-52931190D02*
X64861190Y-52693095D01*
X64742142Y-52931190D02*
X64742142Y-52431190D01*
X64932619Y-52431190D01*
X64980238Y-52455000D01*
X65004047Y-52478809D01*
X65027857Y-52526428D01*
X65027857Y-52597857D01*
X65004047Y-52645476D01*
X64980238Y-52669285D01*
X64932619Y-52693095D01*
X64742142Y-52693095D01*
X65194523Y-52431190D02*
X65527857Y-52931190D01*
X65527857Y-52431190D02*
X65194523Y-52931190D01*
D11*
X86106095Y-39886000D02*
X86010857Y-39838380D01*
X85868000Y-39838380D01*
X85725142Y-39886000D01*
X85629904Y-39981238D01*
X85582285Y-40076476D01*
X85534666Y-40266952D01*
X85534666Y-40409809D01*
X85582285Y-40600285D01*
X85629904Y-40695523D01*
X85725142Y-40790761D01*
X85868000Y-40838380D01*
X85963238Y-40838380D01*
X86106095Y-40790761D01*
X86153714Y-40743142D01*
X86153714Y-40409809D01*
X85963238Y-40409809D01*
X86582285Y-40838380D02*
X86582285Y-39838380D01*
X87153714Y-40838380D01*
X87153714Y-39838380D01*
X87629904Y-40838380D02*
X87629904Y-39838380D01*
X87868000Y-39838380D01*
X88010857Y-39886000D01*
X88106095Y-39981238D01*
X88153714Y-40076476D01*
X88201333Y-40266952D01*
X88201333Y-40409809D01*
X88153714Y-40600285D01*
X88106095Y-40695523D01*
X88010857Y-40790761D01*
X87868000Y-40838380D01*
X87629904Y-40838380D01*
X84868000Y-32583428D02*
X85629904Y-32583428D01*
X85248952Y-32964380D02*
X85248952Y-32202476D01*
X86010857Y-31964380D02*
X86629904Y-31964380D01*
X86296571Y-32345333D01*
X86439428Y-32345333D01*
X86534666Y-32392952D01*
X86582285Y-32440571D01*
X86629904Y-32535809D01*
X86629904Y-32773904D01*
X86582285Y-32869142D01*
X86534666Y-32916761D01*
X86439428Y-32964380D01*
X86153714Y-32964380D01*
X86058476Y-32916761D01*
X86010857Y-32869142D01*
X87058476Y-32869142D02*
X87106095Y-32916761D01*
X87058476Y-32964380D01*
X87010857Y-32916761D01*
X87058476Y-32869142D01*
X87058476Y-32964380D01*
X87439428Y-31964380D02*
X88058476Y-31964380D01*
X87725142Y-32345333D01*
X87868000Y-32345333D01*
X87963238Y-32392952D01*
X88010857Y-32440571D01*
X88058476Y-32535809D01*
X88058476Y-32773904D01*
X88010857Y-32869142D01*
X87963238Y-32916761D01*
X87868000Y-32964380D01*
X87582285Y-32964380D01*
X87487047Y-32916761D01*
X87439428Y-32869142D01*
X88344190Y-31964380D02*
X88677523Y-32964380D01*
X89010857Y-31964380D01*
X90424095Y-59698000D02*
X90328857Y-59650380D01*
X90186000Y-59650380D01*
X90043142Y-59698000D01*
X89947904Y-59793238D01*
X89900285Y-59888476D01*
X89852666Y-60078952D01*
X89852666Y-60221809D01*
X89900285Y-60412285D01*
X89947904Y-60507523D01*
X90043142Y-60602761D01*
X90186000Y-60650380D01*
X90281238Y-60650380D01*
X90424095Y-60602761D01*
X90471714Y-60555142D01*
X90471714Y-60221809D01*
X90281238Y-60221809D01*
X90900285Y-60650380D02*
X90900285Y-59650380D01*
X91471714Y-60650380D01*
X91471714Y-59650380D01*
X91947904Y-60650380D02*
X91947904Y-59650380D01*
X92186000Y-59650380D01*
X92328857Y-59698000D01*
X92424095Y-59793238D01*
X92471714Y-59888476D01*
X92519333Y-60078952D01*
X92519333Y-60221809D01*
X92471714Y-60412285D01*
X92424095Y-60507523D01*
X92328857Y-60602761D01*
X92186000Y-60650380D01*
X91947904Y-60650380D01*
X89900285Y-52649428D02*
X90662190Y-52649428D01*
X90281238Y-53030380D02*
X90281238Y-52268476D01*
X91614571Y-52030380D02*
X91138380Y-52030380D01*
X91090761Y-52506571D01*
X91138380Y-52458952D01*
X91233619Y-52411333D01*
X91471714Y-52411333D01*
X91566952Y-52458952D01*
X91614571Y-52506571D01*
X91662190Y-52601809D01*
X91662190Y-52839904D01*
X91614571Y-52935142D01*
X91566952Y-52982761D01*
X91471714Y-53030380D01*
X91233619Y-53030380D01*
X91138380Y-52982761D01*
X91090761Y-52935142D01*
X91947904Y-52030380D02*
X92281238Y-53030380D01*
X92614571Y-52030380D01*
X77470095Y-59698000D02*
X77374857Y-59650380D01*
X77232000Y-59650380D01*
X77089142Y-59698000D01*
X76993904Y-59793238D01*
X76946285Y-59888476D01*
X76898666Y-60078952D01*
X76898666Y-60221809D01*
X76946285Y-60412285D01*
X76993904Y-60507523D01*
X77089142Y-60602761D01*
X77232000Y-60650380D01*
X77327238Y-60650380D01*
X77470095Y-60602761D01*
X77517714Y-60555142D01*
X77517714Y-60221809D01*
X77327238Y-60221809D01*
X77946285Y-60650380D02*
X77946285Y-59650380D01*
X78517714Y-60650380D01*
X78517714Y-59650380D01*
X78993904Y-60650380D02*
X78993904Y-59650380D01*
X79232000Y-59650380D01*
X79374857Y-59698000D01*
X79470095Y-59793238D01*
X79517714Y-59888476D01*
X79565333Y-60078952D01*
X79565333Y-60221809D01*
X79517714Y-60412285D01*
X79470095Y-60507523D01*
X79374857Y-60602761D01*
X79232000Y-60650380D01*
X78993904Y-60650380D01*
X76470095Y-52649428D02*
X77232000Y-52649428D01*
X76851047Y-53030380D02*
X76851047Y-52268476D01*
X78232000Y-53030380D02*
X77660571Y-53030380D01*
X77946285Y-53030380D02*
X77946285Y-52030380D01*
X77851047Y-52173238D01*
X77755809Y-52268476D01*
X77660571Y-52316095D01*
X78612952Y-52125619D02*
X78660571Y-52078000D01*
X78755809Y-52030380D01*
X78993904Y-52030380D01*
X79089142Y-52078000D01*
X79136761Y-52125619D01*
X79184380Y-52220857D01*
X79184380Y-52316095D01*
X79136761Y-52458952D01*
X78565333Y-53030380D01*
X79184380Y-53030380D01*
X79470095Y-52030380D02*
X79803428Y-53030380D01*
X80136761Y-52030380D01*
D12*
X82998000Y-38922000D02*
X82998000Y-36322000D01*
X82998000Y-38922000D02*
X88198000Y-38922000D01*
X88198000Y-38922000D02*
X88198000Y-33722000D01*
X85598000Y-33722000D02*
X88198000Y-33722000D01*
X85598000Y-36322000D02*
X85598000Y-33722000D01*
X82998000Y-36322000D02*
X85598000Y-36322000D01*
X82998000Y-33722000D02*
X84328000Y-33722000D01*
X82998000Y-35052000D02*
X82998000Y-33722000D01*
X100156000Y-48788000D02*
G75*
G03X100156000Y-48788000I-2620000J0D01*
G01*
X94956000Y-48788000D02*
X100116000Y-48788000D01*
X94956000Y-48748000D02*
X100116000Y-48748000D01*
X94957000Y-48708000D02*
X100115000Y-48708000D01*
X94958000Y-48668000D02*
X100114000Y-48668000D01*
X94960000Y-48628000D02*
X100112000Y-48628000D01*
X94963000Y-48588000D02*
X100109000Y-48588000D01*
X94967000Y-48548000D02*
X96496000Y-48548000D01*
X98576000Y-48548000D02*
X100105000Y-48548000D01*
X94971000Y-48508000D02*
X96496000Y-48508000D01*
X98576000Y-48508000D02*
X100101000Y-48508000D01*
X94975000Y-48468000D02*
X96496000Y-48468000D01*
X98576000Y-48468000D02*
X100097000Y-48468000D01*
X94980000Y-48428000D02*
X96496000Y-48428000D01*
X98576000Y-48428000D02*
X100092000Y-48428000D01*
X94986000Y-48388000D02*
X96496000Y-48388000D01*
X98576000Y-48388000D02*
X100086000Y-48388000D01*
X94993000Y-48348000D02*
X96496000Y-48348000D01*
X98576000Y-48348000D02*
X100079000Y-48348000D01*
X95000000Y-48308000D02*
X96496000Y-48308000D01*
X98576000Y-48308000D02*
X100072000Y-48308000D01*
X95008000Y-48268000D02*
X96496000Y-48268000D01*
X98576000Y-48268000D02*
X100064000Y-48268000D01*
X95016000Y-48228000D02*
X96496000Y-48228000D01*
X98576000Y-48228000D02*
X100056000Y-48228000D01*
X95025000Y-48188000D02*
X96496000Y-48188000D01*
X98576000Y-48188000D02*
X100047000Y-48188000D01*
X95035000Y-48148000D02*
X96496000Y-48148000D01*
X98576000Y-48148000D02*
X100037000Y-48148000D01*
X95045000Y-48108000D02*
X96496000Y-48108000D01*
X98576000Y-48108000D02*
X100027000Y-48108000D01*
X95056000Y-48067000D02*
X96496000Y-48067000D01*
X98576000Y-48067000D02*
X100016000Y-48067000D01*
X95068000Y-48027000D02*
X96496000Y-48027000D01*
X98576000Y-48027000D02*
X100004000Y-48027000D01*
X95081000Y-47987000D02*
X96496000Y-47987000D01*
X98576000Y-47987000D02*
X99991000Y-47987000D01*
X95094000Y-47947000D02*
X96496000Y-47947000D01*
X98576000Y-47947000D02*
X99978000Y-47947000D01*
X95108000Y-47907000D02*
X96496000Y-47907000D01*
X98576000Y-47907000D02*
X99964000Y-47907000D01*
X95122000Y-47867000D02*
X96496000Y-47867000D01*
X98576000Y-47867000D02*
X99950000Y-47867000D01*
X95138000Y-47827000D02*
X96496000Y-47827000D01*
X98576000Y-47827000D02*
X99934000Y-47827000D01*
X95154000Y-47787000D02*
X96496000Y-47787000D01*
X98576000Y-47787000D02*
X99918000Y-47787000D01*
X95171000Y-47747000D02*
X96496000Y-47747000D01*
X98576000Y-47747000D02*
X99901000Y-47747000D01*
X95188000Y-47707000D02*
X96496000Y-47707000D01*
X98576000Y-47707000D02*
X99884000Y-47707000D01*
X95207000Y-47667000D02*
X96496000Y-47667000D01*
X98576000Y-47667000D02*
X99865000Y-47667000D01*
X95226000Y-47627000D02*
X96496000Y-47627000D01*
X98576000Y-47627000D02*
X99846000Y-47627000D01*
X95246000Y-47587000D02*
X96496000Y-47587000D01*
X98576000Y-47587000D02*
X99826000Y-47587000D01*
X95268000Y-47547000D02*
X96496000Y-47547000D01*
X98576000Y-47547000D02*
X99804000Y-47547000D01*
X95289000Y-47507000D02*
X96496000Y-47507000D01*
X98576000Y-47507000D02*
X99783000Y-47507000D01*
X95312000Y-47467000D02*
X96496000Y-47467000D01*
X98576000Y-47467000D02*
X99760000Y-47467000D01*
X95336000Y-47427000D02*
X96496000Y-47427000D01*
X98576000Y-47427000D02*
X99736000Y-47427000D01*
X95361000Y-47387000D02*
X96496000Y-47387000D01*
X98576000Y-47387000D02*
X99711000Y-47387000D01*
X95387000Y-47347000D02*
X96496000Y-47347000D01*
X98576000Y-47347000D02*
X99685000Y-47347000D01*
X95414000Y-47307000D02*
X96496000Y-47307000D01*
X98576000Y-47307000D02*
X99658000Y-47307000D01*
X95441000Y-47267000D02*
X96496000Y-47267000D01*
X98576000Y-47267000D02*
X99631000Y-47267000D01*
X95471000Y-47227000D02*
X96496000Y-47227000D01*
X98576000Y-47227000D02*
X99601000Y-47227000D01*
X95501000Y-47187000D02*
X96496000Y-47187000D01*
X98576000Y-47187000D02*
X99571000Y-47187000D01*
X95532000Y-47147000D02*
X96496000Y-47147000D01*
X98576000Y-47147000D02*
X99540000Y-47147000D01*
X95565000Y-47107000D02*
X96496000Y-47107000D01*
X98576000Y-47107000D02*
X99507000Y-47107000D01*
X95599000Y-47067000D02*
X96496000Y-47067000D01*
X98576000Y-47067000D02*
X99473000Y-47067000D01*
X95635000Y-47027000D02*
X96496000Y-47027000D01*
X98576000Y-47027000D02*
X99437000Y-47027000D01*
X95672000Y-46987000D02*
X96496000Y-46987000D01*
X98576000Y-46987000D02*
X99400000Y-46987000D01*
X95710000Y-46947000D02*
X96496000Y-46947000D01*
X98576000Y-46947000D02*
X99362000Y-46947000D01*
X95751000Y-46907000D02*
X96496000Y-46907000D01*
X98576000Y-46907000D02*
X99321000Y-46907000D01*
X95793000Y-46867000D02*
X96496000Y-46867000D01*
X98576000Y-46867000D02*
X99279000Y-46867000D01*
X95837000Y-46827000D02*
X96496000Y-46827000D01*
X98576000Y-46827000D02*
X99235000Y-46827000D01*
X95883000Y-46787000D02*
X96496000Y-46787000D01*
X98576000Y-46787000D02*
X99189000Y-46787000D01*
X95931000Y-46747000D02*
X96496000Y-46747000D01*
X98576000Y-46747000D02*
X99141000Y-46747000D01*
X95982000Y-46707000D02*
X96496000Y-46707000D01*
X98576000Y-46707000D02*
X99090000Y-46707000D01*
X96036000Y-46667000D02*
X96496000Y-46667000D01*
X98576000Y-46667000D02*
X99036000Y-46667000D01*
X96093000Y-46627000D02*
X96496000Y-46627000D01*
X98576000Y-46627000D02*
X98979000Y-46627000D01*
X96153000Y-46587000D02*
X96496000Y-46587000D01*
X98576000Y-46587000D02*
X98919000Y-46587000D01*
X96217000Y-46547000D02*
X96496000Y-46547000D01*
X98576000Y-46547000D02*
X98855000Y-46547000D01*
X96285000Y-46507000D02*
X96496000Y-46507000D01*
X98576000Y-46507000D02*
X98787000Y-46507000D01*
X96358000Y-46467000D02*
X98714000Y-46467000D01*
X96438000Y-46427000D02*
X98634000Y-46427000D01*
X96525000Y-46387000D02*
X98547000Y-46387000D01*
X96621000Y-46347000D02*
X98451000Y-46347000D01*
X96731000Y-46307000D02*
X98341000Y-46307000D01*
X96859000Y-46267000D02*
X98213000Y-46267000D01*
X97018000Y-46227000D02*
X98054000Y-46227000D01*
X97252000Y-46187000D02*
X97820000Y-46187000D01*
X96061000Y-51592775D02*
X96061000Y-51092775D01*
X95811000Y-51342775D02*
X96311000Y-51342775D01*
X72494000Y-35052000D02*
G75*
G03X72494000Y-35052000I-2120000J0D01*
G01*
X70374000Y-37132000D02*
X70374000Y-32972000D01*
X70334000Y-37132000D02*
X70334000Y-32972000D01*
X70294000Y-37131000D02*
X70294000Y-32973000D01*
X70254000Y-37129000D02*
X70254000Y-32975000D01*
X70214000Y-37126000D02*
X70214000Y-32978000D01*
X70174000Y-37123000D02*
X70174000Y-35892000D01*
X70174000Y-34212000D02*
X70174000Y-32981000D01*
X70134000Y-37119000D02*
X70134000Y-35892000D01*
X70134000Y-34212000D02*
X70134000Y-32985000D01*
X70094000Y-37114000D02*
X70094000Y-35892000D01*
X70094000Y-34212000D02*
X70094000Y-32990000D01*
X70054000Y-37108000D02*
X70054000Y-35892000D01*
X70054000Y-34212000D02*
X70054000Y-32996000D01*
X70014000Y-37102000D02*
X70014000Y-35892000D01*
X70014000Y-34212000D02*
X70014000Y-33002000D01*
X69974000Y-37094000D02*
X69974000Y-35892000D01*
X69974000Y-34212000D02*
X69974000Y-33010000D01*
X69934000Y-37086000D02*
X69934000Y-35892000D01*
X69934000Y-34212000D02*
X69934000Y-33018000D01*
X69894000Y-37077000D02*
X69894000Y-35892000D01*
X69894000Y-34212000D02*
X69894000Y-33027000D01*
X69854000Y-37068000D02*
X69854000Y-35892000D01*
X69854000Y-34212000D02*
X69854000Y-33036000D01*
X69814000Y-37057000D02*
X69814000Y-35892000D01*
X69814000Y-34212000D02*
X69814000Y-33047000D01*
X69774000Y-37046000D02*
X69774000Y-35892000D01*
X69774000Y-34212000D02*
X69774000Y-33058000D01*
X69734000Y-37034000D02*
X69734000Y-35892000D01*
X69734000Y-34212000D02*
X69734000Y-33070000D01*
X69694000Y-37020000D02*
X69694000Y-35892000D01*
X69694000Y-34212000D02*
X69694000Y-33084000D01*
X69653000Y-37006000D02*
X69653000Y-35892000D01*
X69653000Y-34212000D02*
X69653000Y-33098000D01*
X69613000Y-36992000D02*
X69613000Y-35892000D01*
X69613000Y-34212000D02*
X69613000Y-33112000D01*
X69573000Y-36976000D02*
X69573000Y-35892000D01*
X69573000Y-34212000D02*
X69573000Y-33128000D01*
X69533000Y-36959000D02*
X69533000Y-35892000D01*
X69533000Y-34212000D02*
X69533000Y-33145000D01*
X69493000Y-36941000D02*
X69493000Y-35892000D01*
X69493000Y-34212000D02*
X69493000Y-33163000D01*
X69453000Y-36922000D02*
X69453000Y-35892000D01*
X69453000Y-34212000D02*
X69453000Y-33182000D01*
X69413000Y-36903000D02*
X69413000Y-35892000D01*
X69413000Y-34212000D02*
X69413000Y-33201000D01*
X69373000Y-36882000D02*
X69373000Y-35892000D01*
X69373000Y-34212000D02*
X69373000Y-33222000D01*
X69333000Y-36860000D02*
X69333000Y-35892000D01*
X69333000Y-34212000D02*
X69333000Y-33244000D01*
X69293000Y-36837000D02*
X69293000Y-35892000D01*
X69293000Y-34212000D02*
X69293000Y-33267000D01*
X69253000Y-36812000D02*
X69253000Y-35892000D01*
X69253000Y-34212000D02*
X69253000Y-33292000D01*
X69213000Y-36787000D02*
X69213000Y-35892000D01*
X69213000Y-34212000D02*
X69213000Y-33317000D01*
X69173000Y-36760000D02*
X69173000Y-35892000D01*
X69173000Y-34212000D02*
X69173000Y-33344000D01*
X69133000Y-36732000D02*
X69133000Y-35892000D01*
X69133000Y-34212000D02*
X69133000Y-33372000D01*
X69093000Y-36702000D02*
X69093000Y-35892000D01*
X69093000Y-34212000D02*
X69093000Y-33402000D01*
X69053000Y-36671000D02*
X69053000Y-35892000D01*
X69053000Y-34212000D02*
X69053000Y-33433000D01*
X69013000Y-36639000D02*
X69013000Y-35892000D01*
X69013000Y-34212000D02*
X69013000Y-33465000D01*
X68973000Y-36604000D02*
X68973000Y-35892000D01*
X68973000Y-34212000D02*
X68973000Y-33500000D01*
X68933000Y-36568000D02*
X68933000Y-35892000D01*
X68933000Y-34212000D02*
X68933000Y-33536000D01*
X68893000Y-36530000D02*
X68893000Y-35892000D01*
X68893000Y-34212000D02*
X68893000Y-33574000D01*
X68853000Y-36490000D02*
X68853000Y-35892000D01*
X68853000Y-34212000D02*
X68853000Y-33614000D01*
X68813000Y-36448000D02*
X68813000Y-35892000D01*
X68813000Y-34212000D02*
X68813000Y-33656000D01*
X68773000Y-36403000D02*
X68773000Y-35892000D01*
X68773000Y-34212000D02*
X68773000Y-33701000D01*
X68733000Y-36356000D02*
X68733000Y-35892000D01*
X68733000Y-34212000D02*
X68733000Y-33748000D01*
X68693000Y-36306000D02*
X68693000Y-35892000D01*
X68693000Y-34212000D02*
X68693000Y-33798000D01*
X68653000Y-36252000D02*
X68653000Y-35892000D01*
X68653000Y-34212000D02*
X68653000Y-33852000D01*
X68613000Y-36194000D02*
X68613000Y-35892000D01*
X68613000Y-34212000D02*
X68613000Y-33910000D01*
X68573000Y-36132000D02*
X68573000Y-35892000D01*
X68573000Y-34212000D02*
X68573000Y-33972000D01*
X68533000Y-36065000D02*
X68533000Y-34039000D01*
X68493000Y-35992000D02*
X68493000Y-34112000D01*
X68453000Y-35911000D02*
X68453000Y-34193000D01*
X68413000Y-35820000D02*
X68413000Y-34284000D01*
X68373000Y-35716000D02*
X68373000Y-34388000D01*
X68333000Y-35589000D02*
X68333000Y-34515000D01*
X68293000Y-35422000D02*
X68293000Y-34682000D01*
X72643801Y-36247000D02*
X72243801Y-36247000D01*
X72443801Y-36447000D02*
X72443801Y-36047000D01*
X74228000Y-64516000D02*
G75*
G03X74228000Y-64516000I-2620000J0D01*
G01*
X71608000Y-61936000D02*
X71608000Y-67096000D01*
X71648000Y-61936000D02*
X71648000Y-67096000D01*
X71688000Y-61937000D02*
X71688000Y-67095000D01*
X71728000Y-61938000D02*
X71728000Y-67094000D01*
X71768000Y-61940000D02*
X71768000Y-67092000D01*
X71808000Y-61943000D02*
X71808000Y-67089000D01*
X71848000Y-61947000D02*
X71848000Y-63476000D01*
X71848000Y-65556000D02*
X71848000Y-67085000D01*
X71888000Y-61951000D02*
X71888000Y-63476000D01*
X71888000Y-65556000D02*
X71888000Y-67081000D01*
X71928000Y-61955000D02*
X71928000Y-63476000D01*
X71928000Y-65556000D02*
X71928000Y-67077000D01*
X71968000Y-61960000D02*
X71968000Y-63476000D01*
X71968000Y-65556000D02*
X71968000Y-67072000D01*
X72008000Y-61966000D02*
X72008000Y-63476000D01*
X72008000Y-65556000D02*
X72008000Y-67066000D01*
X72048000Y-61973000D02*
X72048000Y-63476000D01*
X72048000Y-65556000D02*
X72048000Y-67059000D01*
X72088000Y-61980000D02*
X72088000Y-63476000D01*
X72088000Y-65556000D02*
X72088000Y-67052000D01*
X72128000Y-61988000D02*
X72128000Y-63476000D01*
X72128000Y-65556000D02*
X72128000Y-67044000D01*
X72168000Y-61996000D02*
X72168000Y-63476000D01*
X72168000Y-65556000D02*
X72168000Y-67036000D01*
X72208000Y-62005000D02*
X72208000Y-63476000D01*
X72208000Y-65556000D02*
X72208000Y-67027000D01*
X72248000Y-62015000D02*
X72248000Y-63476000D01*
X72248000Y-65556000D02*
X72248000Y-67017000D01*
X72288000Y-62025000D02*
X72288000Y-63476000D01*
X72288000Y-65556000D02*
X72288000Y-67007000D01*
X72329000Y-62036000D02*
X72329000Y-63476000D01*
X72329000Y-65556000D02*
X72329000Y-66996000D01*
X72369000Y-62048000D02*
X72369000Y-63476000D01*
X72369000Y-65556000D02*
X72369000Y-66984000D01*
X72409000Y-62061000D02*
X72409000Y-63476000D01*
X72409000Y-65556000D02*
X72409000Y-66971000D01*
X72449000Y-62074000D02*
X72449000Y-63476000D01*
X72449000Y-65556000D02*
X72449000Y-66958000D01*
X72489000Y-62088000D02*
X72489000Y-63476000D01*
X72489000Y-65556000D02*
X72489000Y-66944000D01*
X72529000Y-62102000D02*
X72529000Y-63476000D01*
X72529000Y-65556000D02*
X72529000Y-66930000D01*
X72569000Y-62118000D02*
X72569000Y-63476000D01*
X72569000Y-65556000D02*
X72569000Y-66914000D01*
X72609000Y-62134000D02*
X72609000Y-63476000D01*
X72609000Y-65556000D02*
X72609000Y-66898000D01*
X72649000Y-62151000D02*
X72649000Y-63476000D01*
X72649000Y-65556000D02*
X72649000Y-66881000D01*
X72689000Y-62168000D02*
X72689000Y-63476000D01*
X72689000Y-65556000D02*
X72689000Y-66864000D01*
X72729000Y-62187000D02*
X72729000Y-63476000D01*
X72729000Y-65556000D02*
X72729000Y-66845000D01*
X72769000Y-62206000D02*
X72769000Y-63476000D01*
X72769000Y-65556000D02*
X72769000Y-66826000D01*
X72809000Y-62226000D02*
X72809000Y-63476000D01*
X72809000Y-65556000D02*
X72809000Y-66806000D01*
X72849000Y-62248000D02*
X72849000Y-63476000D01*
X72849000Y-65556000D02*
X72849000Y-66784000D01*
X72889000Y-62269000D02*
X72889000Y-63476000D01*
X72889000Y-65556000D02*
X72889000Y-66763000D01*
X72929000Y-62292000D02*
X72929000Y-63476000D01*
X72929000Y-65556000D02*
X72929000Y-66740000D01*
X72969000Y-62316000D02*
X72969000Y-63476000D01*
X72969000Y-65556000D02*
X72969000Y-66716000D01*
X73009000Y-62341000D02*
X73009000Y-63476000D01*
X73009000Y-65556000D02*
X73009000Y-66691000D01*
X73049000Y-62367000D02*
X73049000Y-63476000D01*
X73049000Y-65556000D02*
X73049000Y-66665000D01*
X73089000Y-62394000D02*
X73089000Y-63476000D01*
X73089000Y-65556000D02*
X73089000Y-66638000D01*
X73129000Y-62421000D02*
X73129000Y-63476000D01*
X73129000Y-65556000D02*
X73129000Y-66611000D01*
X73169000Y-62451000D02*
X73169000Y-63476000D01*
X73169000Y-65556000D02*
X73169000Y-66581000D01*
X73209000Y-62481000D02*
X73209000Y-63476000D01*
X73209000Y-65556000D02*
X73209000Y-66551000D01*
X73249000Y-62512000D02*
X73249000Y-63476000D01*
X73249000Y-65556000D02*
X73249000Y-66520000D01*
X73289000Y-62545000D02*
X73289000Y-63476000D01*
X73289000Y-65556000D02*
X73289000Y-66487000D01*
X73329000Y-62579000D02*
X73329000Y-63476000D01*
X73329000Y-65556000D02*
X73329000Y-66453000D01*
X73369000Y-62615000D02*
X73369000Y-63476000D01*
X73369000Y-65556000D02*
X73369000Y-66417000D01*
X73409000Y-62652000D02*
X73409000Y-63476000D01*
X73409000Y-65556000D02*
X73409000Y-66380000D01*
X73449000Y-62690000D02*
X73449000Y-63476000D01*
X73449000Y-65556000D02*
X73449000Y-66342000D01*
X73489000Y-62731000D02*
X73489000Y-63476000D01*
X73489000Y-65556000D02*
X73489000Y-66301000D01*
X73529000Y-62773000D02*
X73529000Y-63476000D01*
X73529000Y-65556000D02*
X73529000Y-66259000D01*
X73569000Y-62817000D02*
X73569000Y-63476000D01*
X73569000Y-65556000D02*
X73569000Y-66215000D01*
X73609000Y-62863000D02*
X73609000Y-63476000D01*
X73609000Y-65556000D02*
X73609000Y-66169000D01*
X73649000Y-62911000D02*
X73649000Y-63476000D01*
X73649000Y-65556000D02*
X73649000Y-66121000D01*
X73689000Y-62962000D02*
X73689000Y-63476000D01*
X73689000Y-65556000D02*
X73689000Y-66070000D01*
X73729000Y-63016000D02*
X73729000Y-63476000D01*
X73729000Y-65556000D02*
X73729000Y-66016000D01*
X73769000Y-63073000D02*
X73769000Y-63476000D01*
X73769000Y-65556000D02*
X73769000Y-65959000D01*
X73809000Y-63133000D02*
X73809000Y-63476000D01*
X73809000Y-65556000D02*
X73809000Y-65899000D01*
X73849000Y-63197000D02*
X73849000Y-63476000D01*
X73849000Y-65556000D02*
X73849000Y-65835000D01*
X73889000Y-63265000D02*
X73889000Y-63476000D01*
X73889000Y-65556000D02*
X73889000Y-65767000D01*
X73929000Y-63338000D02*
X73929000Y-65694000D01*
X73969000Y-63418000D02*
X73969000Y-65614000D01*
X74009000Y-63505000D02*
X74009000Y-65527000D01*
X74049000Y-63601000D02*
X74049000Y-65431000D01*
X74089000Y-63711000D02*
X74089000Y-65321000D01*
X74129000Y-63839000D02*
X74129000Y-65193000D01*
X74169000Y-63998000D02*
X74169000Y-65034000D01*
X74209000Y-64232000D02*
X74209000Y-64800000D01*
X68803225Y-63041000D02*
X69303225Y-63041000D01*
X69053225Y-62791000D02*
X69053225Y-63291000D01*
X99656000Y-56118000D02*
G75*
G03X99656000Y-56118000I-2120000J0D01*
G01*
X99616000Y-56118000D02*
X95456000Y-56118000D01*
X99616000Y-56158000D02*
X95456000Y-56158000D01*
X99615000Y-56198000D02*
X95457000Y-56198000D01*
X99613000Y-56238000D02*
X95459000Y-56238000D01*
X99610000Y-56278000D02*
X95462000Y-56278000D01*
X99607000Y-56318000D02*
X98376000Y-56318000D01*
X96696000Y-56318000D02*
X95465000Y-56318000D01*
X99603000Y-56358000D02*
X98376000Y-56358000D01*
X96696000Y-56358000D02*
X95469000Y-56358000D01*
X99598000Y-56398000D02*
X98376000Y-56398000D01*
X96696000Y-56398000D02*
X95474000Y-56398000D01*
X99592000Y-56438000D02*
X98376000Y-56438000D01*
X96696000Y-56438000D02*
X95480000Y-56438000D01*
X99586000Y-56478000D02*
X98376000Y-56478000D01*
X96696000Y-56478000D02*
X95486000Y-56478000D01*
X99578000Y-56518000D02*
X98376000Y-56518000D01*
X96696000Y-56518000D02*
X95494000Y-56518000D01*
X99570000Y-56558000D02*
X98376000Y-56558000D01*
X96696000Y-56558000D02*
X95502000Y-56558000D01*
X99561000Y-56598000D02*
X98376000Y-56598000D01*
X96696000Y-56598000D02*
X95511000Y-56598000D01*
X99552000Y-56638000D02*
X98376000Y-56638000D01*
X96696000Y-56638000D02*
X95520000Y-56638000D01*
X99541000Y-56678000D02*
X98376000Y-56678000D01*
X96696000Y-56678000D02*
X95531000Y-56678000D01*
X99530000Y-56718000D02*
X98376000Y-56718000D01*
X96696000Y-56718000D02*
X95542000Y-56718000D01*
X99518000Y-56758000D02*
X98376000Y-56758000D01*
X96696000Y-56758000D02*
X95554000Y-56758000D01*
X99504000Y-56798000D02*
X98376000Y-56798000D01*
X96696000Y-56798000D02*
X95568000Y-56798000D01*
X99490000Y-56839000D02*
X98376000Y-56839000D01*
X96696000Y-56839000D02*
X95582000Y-56839000D01*
X99476000Y-56879000D02*
X98376000Y-56879000D01*
X96696000Y-56879000D02*
X95596000Y-56879000D01*
X99460000Y-56919000D02*
X98376000Y-56919000D01*
X96696000Y-56919000D02*
X95612000Y-56919000D01*
X99443000Y-56959000D02*
X98376000Y-56959000D01*
X96696000Y-56959000D02*
X95629000Y-56959000D01*
X99425000Y-56999000D02*
X98376000Y-56999000D01*
X96696000Y-56999000D02*
X95647000Y-56999000D01*
X99406000Y-57039000D02*
X98376000Y-57039000D01*
X96696000Y-57039000D02*
X95666000Y-57039000D01*
X99387000Y-57079000D02*
X98376000Y-57079000D01*
X96696000Y-57079000D02*
X95685000Y-57079000D01*
X99366000Y-57119000D02*
X98376000Y-57119000D01*
X96696000Y-57119000D02*
X95706000Y-57119000D01*
X99344000Y-57159000D02*
X98376000Y-57159000D01*
X96696000Y-57159000D02*
X95728000Y-57159000D01*
X99321000Y-57199000D02*
X98376000Y-57199000D01*
X96696000Y-57199000D02*
X95751000Y-57199000D01*
X99296000Y-57239000D02*
X98376000Y-57239000D01*
X96696000Y-57239000D02*
X95776000Y-57239000D01*
X99271000Y-57279000D02*
X98376000Y-57279000D01*
X96696000Y-57279000D02*
X95801000Y-57279000D01*
X99244000Y-57319000D02*
X98376000Y-57319000D01*
X96696000Y-57319000D02*
X95828000Y-57319000D01*
X99216000Y-57359000D02*
X98376000Y-57359000D01*
X96696000Y-57359000D02*
X95856000Y-57359000D01*
X99186000Y-57399000D02*
X98376000Y-57399000D01*
X96696000Y-57399000D02*
X95886000Y-57399000D01*
X99155000Y-57439000D02*
X98376000Y-57439000D01*
X96696000Y-57439000D02*
X95917000Y-57439000D01*
X99123000Y-57479000D02*
X98376000Y-57479000D01*
X96696000Y-57479000D02*
X95949000Y-57479000D01*
X99088000Y-57519000D02*
X98376000Y-57519000D01*
X96696000Y-57519000D02*
X95984000Y-57519000D01*
X99052000Y-57559000D02*
X98376000Y-57559000D01*
X96696000Y-57559000D02*
X96020000Y-57559000D01*
X99014000Y-57599000D02*
X98376000Y-57599000D01*
X96696000Y-57599000D02*
X96058000Y-57599000D01*
X98974000Y-57639000D02*
X98376000Y-57639000D01*
X96696000Y-57639000D02*
X96098000Y-57639000D01*
X98932000Y-57679000D02*
X98376000Y-57679000D01*
X96696000Y-57679000D02*
X96140000Y-57679000D01*
X98887000Y-57719000D02*
X98376000Y-57719000D01*
X96696000Y-57719000D02*
X96185000Y-57719000D01*
X98840000Y-57759000D02*
X98376000Y-57759000D01*
X96696000Y-57759000D02*
X96232000Y-57759000D01*
X98790000Y-57799000D02*
X98376000Y-57799000D01*
X96696000Y-57799000D02*
X96282000Y-57799000D01*
X98736000Y-57839000D02*
X98376000Y-57839000D01*
X96696000Y-57839000D02*
X96336000Y-57839000D01*
X98678000Y-57879000D02*
X98376000Y-57879000D01*
X96696000Y-57879000D02*
X96394000Y-57879000D01*
X98616000Y-57919000D02*
X98376000Y-57919000D01*
X96696000Y-57919000D02*
X96456000Y-57919000D01*
X98549000Y-57959000D02*
X96523000Y-57959000D01*
X98476000Y-57999000D02*
X96596000Y-57999000D01*
X98395000Y-58039000D02*
X96677000Y-58039000D01*
X98304000Y-58079000D02*
X96768000Y-58079000D01*
X98200000Y-58119000D02*
X96872000Y-58119000D01*
X98073000Y-58159000D02*
X96999000Y-58159000D01*
X97906000Y-58199000D02*
X97166000Y-58199000D01*
X98731000Y-53848199D02*
X98731000Y-54248199D01*
X98931000Y-54048199D02*
X98531000Y-54048199D01*
X66347801Y-65911000D02*
X66347801Y-65511000D01*
X66547801Y-65711000D02*
X66147801Y-65711000D01*
X62197000Y-64886000D02*
X62197000Y-64146000D01*
X62237000Y-65053000D02*
X62237000Y-63979000D01*
X62277000Y-65180000D02*
X62277000Y-63852000D01*
X62317000Y-65284000D02*
X62317000Y-63748000D01*
X62357000Y-65375000D02*
X62357000Y-63657000D01*
X62397000Y-65456000D02*
X62397000Y-63576000D01*
X62437000Y-65529000D02*
X62437000Y-63503000D01*
X62477000Y-63676000D02*
X62477000Y-63436000D01*
X62477000Y-65596000D02*
X62477000Y-65356000D01*
X62517000Y-63676000D02*
X62517000Y-63374000D01*
X62517000Y-65658000D02*
X62517000Y-65356000D01*
X62557000Y-63676000D02*
X62557000Y-63316000D01*
X62557000Y-65716000D02*
X62557000Y-65356000D01*
X62597000Y-63676000D02*
X62597000Y-63262000D01*
X62597000Y-65770000D02*
X62597000Y-65356000D01*
X62637000Y-63676000D02*
X62637000Y-63212000D01*
X62637000Y-65820000D02*
X62637000Y-65356000D01*
X62677000Y-63676000D02*
X62677000Y-63165000D01*
X62677000Y-65867000D02*
X62677000Y-65356000D01*
X62717000Y-63676000D02*
X62717000Y-63120000D01*
X62717000Y-65912000D02*
X62717000Y-65356000D01*
X62757000Y-63676000D02*
X62757000Y-63078000D01*
X62757000Y-65954000D02*
X62757000Y-65356000D01*
X62797000Y-63676000D02*
X62797000Y-63038000D01*
X62797000Y-65994000D02*
X62797000Y-65356000D01*
X62837000Y-63676000D02*
X62837000Y-63000000D01*
X62837000Y-66032000D02*
X62837000Y-65356000D01*
X62877000Y-63676000D02*
X62877000Y-62964000D01*
X62877000Y-66068000D02*
X62877000Y-65356000D01*
X62917000Y-63676000D02*
X62917000Y-62929000D01*
X62917000Y-66103000D02*
X62917000Y-65356000D01*
X62957000Y-63676000D02*
X62957000Y-62897000D01*
X62957000Y-66135000D02*
X62957000Y-65356000D01*
X62997000Y-63676000D02*
X62997000Y-62866000D01*
X62997000Y-66166000D02*
X62997000Y-65356000D01*
X63037000Y-63676000D02*
X63037000Y-62836000D01*
X63037000Y-66196000D02*
X63037000Y-65356000D01*
X63077000Y-63676000D02*
X63077000Y-62808000D01*
X63077000Y-66224000D02*
X63077000Y-65356000D01*
X63117000Y-63676000D02*
X63117000Y-62781000D01*
X63117000Y-66251000D02*
X63117000Y-65356000D01*
X63157000Y-63676000D02*
X63157000Y-62756000D01*
X63157000Y-66276000D02*
X63157000Y-65356000D01*
X63197000Y-63676000D02*
X63197000Y-62731000D01*
X63197000Y-66301000D02*
X63197000Y-65356000D01*
X63237000Y-63676000D02*
X63237000Y-62708000D01*
X63237000Y-66324000D02*
X63237000Y-65356000D01*
X63277000Y-63676000D02*
X63277000Y-62686000D01*
X63277000Y-66346000D02*
X63277000Y-65356000D01*
X63317000Y-63676000D02*
X63317000Y-62665000D01*
X63317000Y-66367000D02*
X63317000Y-65356000D01*
X63357000Y-63676000D02*
X63357000Y-62646000D01*
X63357000Y-66386000D02*
X63357000Y-65356000D01*
X63397000Y-63676000D02*
X63397000Y-62627000D01*
X63397000Y-66405000D02*
X63397000Y-65356000D01*
X63437000Y-63676000D02*
X63437000Y-62609000D01*
X63437000Y-66423000D02*
X63437000Y-65356000D01*
X63477000Y-63676000D02*
X63477000Y-62592000D01*
X63477000Y-66440000D02*
X63477000Y-65356000D01*
X63517000Y-63676000D02*
X63517000Y-62576000D01*
X63517000Y-66456000D02*
X63517000Y-65356000D01*
X63557000Y-63676000D02*
X63557000Y-62562000D01*
X63557000Y-66470000D02*
X63557000Y-65356000D01*
X63598000Y-63676000D02*
X63598000Y-62548000D01*
X63598000Y-66484000D02*
X63598000Y-65356000D01*
X63638000Y-63676000D02*
X63638000Y-62534000D01*
X63638000Y-66498000D02*
X63638000Y-65356000D01*
X63678000Y-63676000D02*
X63678000Y-62522000D01*
X63678000Y-66510000D02*
X63678000Y-65356000D01*
X63718000Y-63676000D02*
X63718000Y-62511000D01*
X63718000Y-66521000D02*
X63718000Y-65356000D01*
X63758000Y-63676000D02*
X63758000Y-62500000D01*
X63758000Y-66532000D02*
X63758000Y-65356000D01*
X63798000Y-63676000D02*
X63798000Y-62491000D01*
X63798000Y-66541000D02*
X63798000Y-65356000D01*
X63838000Y-63676000D02*
X63838000Y-62482000D01*
X63838000Y-66550000D02*
X63838000Y-65356000D01*
X63878000Y-63676000D02*
X63878000Y-62474000D01*
X63878000Y-66558000D02*
X63878000Y-65356000D01*
X63918000Y-63676000D02*
X63918000Y-62466000D01*
X63918000Y-66566000D02*
X63918000Y-65356000D01*
X63958000Y-63676000D02*
X63958000Y-62460000D01*
X63958000Y-66572000D02*
X63958000Y-65356000D01*
X63998000Y-63676000D02*
X63998000Y-62454000D01*
X63998000Y-66578000D02*
X63998000Y-65356000D01*
X64038000Y-63676000D02*
X64038000Y-62449000D01*
X64038000Y-66583000D02*
X64038000Y-65356000D01*
X64078000Y-63676000D02*
X64078000Y-62445000D01*
X64078000Y-66587000D02*
X64078000Y-65356000D01*
X64118000Y-66590000D02*
X64118000Y-62442000D01*
X64158000Y-66593000D02*
X64158000Y-62439000D01*
X64198000Y-66595000D02*
X64198000Y-62437000D01*
X64238000Y-66596000D02*
X64238000Y-62436000D01*
X64278000Y-66596000D02*
X64278000Y-62436000D01*
X66398000Y-64516000D02*
G75*
G03X66398000Y-64516000I-2120000J0D01*
G01*
X75149225Y-33327000D02*
X75149225Y-33827000D01*
X74899225Y-33577000D02*
X75399225Y-33577000D01*
X80305000Y-34768000D02*
X80305000Y-35336000D01*
X80265000Y-34534000D02*
X80265000Y-35570000D01*
X80225000Y-34375000D02*
X80225000Y-35729000D01*
X80185000Y-34247000D02*
X80185000Y-35857000D01*
X80145000Y-34137000D02*
X80145000Y-35967000D01*
X80105000Y-34041000D02*
X80105000Y-36063000D01*
X80065000Y-33954000D02*
X80065000Y-36150000D01*
X80025000Y-33874000D02*
X80025000Y-36230000D01*
X79985000Y-36092000D02*
X79985000Y-36303000D01*
X79985000Y-33801000D02*
X79985000Y-34012000D01*
X79945000Y-36092000D02*
X79945000Y-36371000D01*
X79945000Y-33733000D02*
X79945000Y-34012000D01*
X79905000Y-36092000D02*
X79905000Y-36435000D01*
X79905000Y-33669000D02*
X79905000Y-34012000D01*
X79865000Y-36092000D02*
X79865000Y-36495000D01*
X79865000Y-33609000D02*
X79865000Y-34012000D01*
X79825000Y-36092000D02*
X79825000Y-36552000D01*
X79825000Y-33552000D02*
X79825000Y-34012000D01*
X79785000Y-36092000D02*
X79785000Y-36606000D01*
X79785000Y-33498000D02*
X79785000Y-34012000D01*
X79745000Y-36092000D02*
X79745000Y-36657000D01*
X79745000Y-33447000D02*
X79745000Y-34012000D01*
X79705000Y-36092000D02*
X79705000Y-36705000D01*
X79705000Y-33399000D02*
X79705000Y-34012000D01*
X79665000Y-36092000D02*
X79665000Y-36751000D01*
X79665000Y-33353000D02*
X79665000Y-34012000D01*
X79625000Y-36092000D02*
X79625000Y-36795000D01*
X79625000Y-33309000D02*
X79625000Y-34012000D01*
X79585000Y-36092000D02*
X79585000Y-36837000D01*
X79585000Y-33267000D02*
X79585000Y-34012000D01*
X79545000Y-36092000D02*
X79545000Y-36878000D01*
X79545000Y-33226000D02*
X79545000Y-34012000D01*
X79505000Y-36092000D02*
X79505000Y-36916000D01*
X79505000Y-33188000D02*
X79505000Y-34012000D01*
X79465000Y-36092000D02*
X79465000Y-36953000D01*
X79465000Y-33151000D02*
X79465000Y-34012000D01*
X79425000Y-36092000D02*
X79425000Y-36989000D01*
X79425000Y-33115000D02*
X79425000Y-34012000D01*
X79385000Y-36092000D02*
X79385000Y-37023000D01*
X79385000Y-33081000D02*
X79385000Y-34012000D01*
X79345000Y-36092000D02*
X79345000Y-37056000D01*
X79345000Y-33048000D02*
X79345000Y-34012000D01*
X79305000Y-36092000D02*
X79305000Y-37087000D01*
X79305000Y-33017000D02*
X79305000Y-34012000D01*
X79265000Y-36092000D02*
X79265000Y-37117000D01*
X79265000Y-32987000D02*
X79265000Y-34012000D01*
X79225000Y-36092000D02*
X79225000Y-37147000D01*
X79225000Y-32957000D02*
X79225000Y-34012000D01*
X79185000Y-36092000D02*
X79185000Y-37174000D01*
X79185000Y-32930000D02*
X79185000Y-34012000D01*
X79145000Y-36092000D02*
X79145000Y-37201000D01*
X79145000Y-32903000D02*
X79145000Y-34012000D01*
X79105000Y-36092000D02*
X79105000Y-37227000D01*
X79105000Y-32877000D02*
X79105000Y-34012000D01*
X79065000Y-36092000D02*
X79065000Y-37252000D01*
X79065000Y-32852000D02*
X79065000Y-34012000D01*
X79025000Y-36092000D02*
X79025000Y-37276000D01*
X79025000Y-32828000D02*
X79025000Y-34012000D01*
X78985000Y-36092000D02*
X78985000Y-37299000D01*
X78985000Y-32805000D02*
X78985000Y-34012000D01*
X78945000Y-36092000D02*
X78945000Y-37320000D01*
X78945000Y-32784000D02*
X78945000Y-34012000D01*
X78905000Y-36092000D02*
X78905000Y-37342000D01*
X78905000Y-32762000D02*
X78905000Y-34012000D01*
X78865000Y-36092000D02*
X78865000Y-37362000D01*
X78865000Y-32742000D02*
X78865000Y-34012000D01*
X78825000Y-36092000D02*
X78825000Y-37381000D01*
X78825000Y-32723000D02*
X78825000Y-34012000D01*
X78785000Y-36092000D02*
X78785000Y-37400000D01*
X78785000Y-32704000D02*
X78785000Y-34012000D01*
X78745000Y-36092000D02*
X78745000Y-37417000D01*
X78745000Y-32687000D02*
X78745000Y-34012000D01*
X78705000Y-36092000D02*
X78705000Y-37434000D01*
X78705000Y-32670000D02*
X78705000Y-34012000D01*
X78665000Y-36092000D02*
X78665000Y-37450000D01*
X78665000Y-32654000D02*
X78665000Y-34012000D01*
X78625000Y-36092000D02*
X78625000Y-37466000D01*
X78625000Y-32638000D02*
X78625000Y-34012000D01*
X78585000Y-36092000D02*
X78585000Y-37480000D01*
X78585000Y-32624000D02*
X78585000Y-34012000D01*
X78545000Y-36092000D02*
X78545000Y-37494000D01*
X78545000Y-32610000D02*
X78545000Y-34012000D01*
X78505000Y-36092000D02*
X78505000Y-37507000D01*
X78505000Y-32597000D02*
X78505000Y-34012000D01*
X78465000Y-36092000D02*
X78465000Y-37520000D01*
X78465000Y-32584000D02*
X78465000Y-34012000D01*
X78425000Y-36092000D02*
X78425000Y-37532000D01*
X78425000Y-32572000D02*
X78425000Y-34012000D01*
X78384000Y-36092000D02*
X78384000Y-37543000D01*
X78384000Y-32561000D02*
X78384000Y-34012000D01*
X78344000Y-36092000D02*
X78344000Y-37553000D01*
X78344000Y-32551000D02*
X78344000Y-34012000D01*
X78304000Y-36092000D02*
X78304000Y-37563000D01*
X78304000Y-32541000D02*
X78304000Y-34012000D01*
X78264000Y-36092000D02*
X78264000Y-37572000D01*
X78264000Y-32532000D02*
X78264000Y-34012000D01*
X78224000Y-36092000D02*
X78224000Y-37580000D01*
X78224000Y-32524000D02*
X78224000Y-34012000D01*
X78184000Y-36092000D02*
X78184000Y-37588000D01*
X78184000Y-32516000D02*
X78184000Y-34012000D01*
X78144000Y-36092000D02*
X78144000Y-37595000D01*
X78144000Y-32509000D02*
X78144000Y-34012000D01*
X78104000Y-36092000D02*
X78104000Y-37602000D01*
X78104000Y-32502000D02*
X78104000Y-34012000D01*
X78064000Y-36092000D02*
X78064000Y-37608000D01*
X78064000Y-32496000D02*
X78064000Y-34012000D01*
X78024000Y-36092000D02*
X78024000Y-37613000D01*
X78024000Y-32491000D02*
X78024000Y-34012000D01*
X77984000Y-36092000D02*
X77984000Y-37617000D01*
X77984000Y-32487000D02*
X77984000Y-34012000D01*
X77944000Y-36092000D02*
X77944000Y-37621000D01*
X77944000Y-32483000D02*
X77944000Y-34012000D01*
X77904000Y-32479000D02*
X77904000Y-37625000D01*
X77864000Y-32476000D02*
X77864000Y-37628000D01*
X77824000Y-32474000D02*
X77824000Y-37630000D01*
X77784000Y-32473000D02*
X77784000Y-37631000D01*
X77744000Y-32472000D02*
X77744000Y-37632000D01*
X77704000Y-32472000D02*
X77704000Y-37632000D01*
X80324000Y-35052000D02*
G75*
G03X80324000Y-35052000I-2620000J0D01*
G01*
X66420108Y-58822335D02*
G75*
G03X66577016Y-55590000I-1078608J1672335D01*
G01*
X64262892Y-58822335D02*
G75*
G02X64105984Y-55590000I1078608J1672335D01*
G01*
X66421337Y-58191130D02*
G75*
G03X66421500Y-56109039I-1079837J1041130D01*
G01*
X64261663Y-58191130D02*
G75*
G02X64261500Y-56109039I1079837J1041130D01*
G01*
X66577500Y-55590000D02*
X66421500Y-55590000D01*
X64261500Y-55590000D02*
X64105500Y-55590000D01*
X72263500Y-58710000D02*
X72419500Y-58710000D01*
X69947500Y-58710000D02*
X70103500Y-58710000D01*
X72263337Y-56108870D02*
G75*
G02X72263500Y-58190961I-1079837J-1041130D01*
G01*
X70103663Y-56108870D02*
G75*
G03X70103500Y-58190961I1079837J-1041130D01*
G01*
X72262108Y-55477665D02*
G75*
G02X72419016Y-58710000I-1078608J-1672335D01*
G01*
X70104892Y-55477665D02*
G75*
G03X69947984Y-58710000I1078608J-1672335D01*
G01*
X50231500Y-45944000D02*
X56291500Y-45944000D01*
X56291500Y-45944000D02*
X56291500Y-48754000D01*
X56291500Y-53354000D02*
X56291500Y-56164000D01*
X56291500Y-56164000D02*
X50231500Y-56164000D01*
X46131500Y-56164000D02*
X43071500Y-56164000D01*
X43071500Y-56164000D02*
X43071500Y-45944000D01*
X43071500Y-45944000D02*
X46131500Y-45944000D01*
X56481500Y-50054000D02*
X56481500Y-52054000D01*
X87316000Y-55118000D02*
X87316000Y-53788000D01*
X87316000Y-53788000D02*
X88646000Y-53788000D01*
X87316000Y-56388000D02*
X89916000Y-56388000D01*
X89916000Y-56388000D02*
X89916000Y-53788000D01*
X89916000Y-53788000D02*
X92516000Y-53788000D01*
X92516000Y-58988000D02*
X92516000Y-53788000D01*
X87316000Y-58988000D02*
X92516000Y-58988000D01*
X87316000Y-58988000D02*
X87316000Y-56388000D01*
X74362000Y-58988000D02*
X74362000Y-56388000D01*
X74362000Y-58988000D02*
X79562000Y-58988000D01*
X79562000Y-58988000D02*
X79562000Y-53788000D01*
X76962000Y-53788000D02*
X79562000Y-53788000D01*
X76962000Y-56388000D02*
X76962000Y-53788000D01*
X74362000Y-56388000D02*
X76962000Y-56388000D01*
X74362000Y-53788000D02*
X75692000Y-53788000D01*
X74362000Y-55118000D02*
X74362000Y-53788000D01*
X60261500Y-52094000D02*
X60261500Y-52864000D01*
X60261500Y-60174000D02*
X60261500Y-59404000D01*
X58891500Y-52864000D02*
X58891500Y-59404000D01*
X61631500Y-52864000D02*
X58891500Y-52864000D01*
X61631500Y-59404000D02*
X61631500Y-52864000D01*
X58891500Y-59404000D02*
X61631500Y-59404000D01*
X45752000Y-36476000D02*
X45752000Y-39216000D01*
X45752000Y-39216000D02*
X52292000Y-39216000D01*
X52292000Y-39216000D02*
X52292000Y-36476000D01*
X52292000Y-36476000D02*
X45752000Y-36476000D01*
X44982000Y-37846000D02*
X45752000Y-37846000D01*
X53062000Y-37846000D02*
X52292000Y-37846000D01*
X69813500Y-51022000D02*
X72553500Y-51022000D01*
X72553500Y-51022000D02*
X72553500Y-44482000D01*
X72553500Y-44482000D02*
X69813500Y-44482000D01*
X69813500Y-44482000D02*
X69813500Y-51022000D01*
X71183500Y-51792000D02*
X71183500Y-51022000D01*
X71183500Y-43712000D02*
X71183500Y-44482000D01*
D13*
X60546500Y-48994000D02*
X60971500Y-48994000D01*
X60546500Y-48969000D02*
X60546500Y-48519000D01*
X60546500Y-36094000D02*
X60546500Y-36544000D01*
X60546500Y-36094000D02*
X60971500Y-36094000D01*
X67596500Y-36094000D02*
X67221500Y-36094000D01*
X67596500Y-36094000D02*
X67596500Y-36494000D01*
X67596500Y-48619000D02*
X67596500Y-48994000D01*
X67596500Y-48994000D02*
X67246500Y-48994000D01*
D12*
X68794000Y-26702000D02*
X79034000Y-26702000D01*
X68794000Y-31343000D02*
X79034000Y-31343000D01*
X68794000Y-26702000D02*
X68794000Y-31343000D01*
X79034000Y-26702000D02*
X79034000Y-31343000D01*
X68794000Y-28212000D02*
X79034000Y-28212000D01*
X72064000Y-26702000D02*
X72064000Y-28212000D01*
X75765000Y-26702000D02*
X75765000Y-28212000D01*
X105886000Y-54429000D02*
X104376000Y-54429000D01*
X105886000Y-50728000D02*
X104376000Y-50728000D01*
X104376000Y-47458000D02*
X104376000Y-57698000D01*
X105886000Y-57698000D02*
X101245000Y-57698000D01*
X105886000Y-47458000D02*
X101245000Y-47458000D01*
X101245000Y-47458000D02*
X101245000Y-57698000D01*
X105886000Y-47458000D02*
X105886000Y-57698000D01*
X72938000Y-72866000D02*
X62698000Y-72866000D01*
X72938000Y-68225000D02*
X62698000Y-68225000D01*
X72938000Y-72866000D02*
X72938000Y-68225000D01*
X62698000Y-72866000D02*
X62698000Y-68225000D01*
X72938000Y-71356000D02*
X62698000Y-71356000D01*
X69668000Y-72866000D02*
X69668000Y-71356000D01*
X65967000Y-72866000D02*
X65967000Y-71356000D01*
D11*
X82978666Y-31964380D02*
X82978666Y-32678666D01*
X82931047Y-32821523D01*
X82835809Y-32916761D01*
X82692952Y-32964380D01*
X82597714Y-32964380D01*
X83407238Y-32059619D02*
X83454857Y-32012000D01*
X83550095Y-31964380D01*
X83788190Y-31964380D01*
X83883428Y-32012000D01*
X83931047Y-32059619D01*
X83978666Y-32154857D01*
X83978666Y-32250095D01*
X83931047Y-32392952D01*
X83359619Y-32964380D01*
X83978666Y-32964380D01*
X97369333Y-45569142D02*
X97321714Y-45616761D01*
X97178857Y-45664380D01*
X97083619Y-45664380D01*
X96940761Y-45616761D01*
X96845523Y-45521523D01*
X96797904Y-45426285D01*
X96750285Y-45235809D01*
X96750285Y-45092952D01*
X96797904Y-44902476D01*
X96845523Y-44807238D01*
X96940761Y-44712000D01*
X97083619Y-44664380D01*
X97178857Y-44664380D01*
X97321714Y-44712000D01*
X97369333Y-44759619D01*
X98321714Y-45664380D02*
X97750285Y-45664380D01*
X98036000Y-45664380D02*
X98036000Y-44664380D01*
X97940761Y-44807238D01*
X97845523Y-44902476D01*
X97750285Y-44950095D01*
X67905333Y-32869142D02*
X67857714Y-32916761D01*
X67714857Y-32964380D01*
X67619619Y-32964380D01*
X67476761Y-32916761D01*
X67381523Y-32821523D01*
X67333904Y-32726285D01*
X67286285Y-32535809D01*
X67286285Y-32392952D01*
X67333904Y-32202476D01*
X67381523Y-32107238D01*
X67476761Y-32012000D01*
X67619619Y-31964380D01*
X67714857Y-31964380D01*
X67857714Y-32012000D01*
X67905333Y-32059619D01*
X68286285Y-32059619D02*
X68333904Y-32012000D01*
X68429142Y-31964380D01*
X68667238Y-31964380D01*
X68762476Y-32012000D01*
X68810095Y-32059619D01*
X68857714Y-32154857D01*
X68857714Y-32250095D01*
X68810095Y-32392952D01*
X68238666Y-32964380D01*
X68857714Y-32964380D01*
X71461333Y-61444142D02*
X71413714Y-61491761D01*
X71270857Y-61539380D01*
X71175619Y-61539380D01*
X71032761Y-61491761D01*
X70937523Y-61396523D01*
X70889904Y-61301285D01*
X70842285Y-61110809D01*
X70842285Y-60967952D01*
X70889904Y-60777476D01*
X70937523Y-60682238D01*
X71032761Y-60587000D01*
X71175619Y-60539380D01*
X71270857Y-60539380D01*
X71413714Y-60587000D01*
X71461333Y-60634619D01*
X71794666Y-60539380D02*
X72413714Y-60539380D01*
X72080380Y-60920333D01*
X72223238Y-60920333D01*
X72318476Y-60967952D01*
X72366095Y-61015571D01*
X72413714Y-61110809D01*
X72413714Y-61348904D01*
X72366095Y-61444142D01*
X72318476Y-61491761D01*
X72223238Y-61539380D01*
X71937523Y-61539380D01*
X71842285Y-61491761D01*
X71794666Y-61444142D01*
X97369333Y-53443142D02*
X97321714Y-53490761D01*
X97178857Y-53538380D01*
X97083619Y-53538380D01*
X96940761Y-53490761D01*
X96845523Y-53395523D01*
X96797904Y-53300285D01*
X96750285Y-53109809D01*
X96750285Y-52966952D01*
X96797904Y-52776476D01*
X96845523Y-52681238D01*
X96940761Y-52586000D01*
X97083619Y-52538380D01*
X97178857Y-52538380D01*
X97321714Y-52586000D01*
X97369333Y-52633619D01*
X98226476Y-52871714D02*
X98226476Y-53538380D01*
X97988380Y-52490761D02*
X97750285Y-53205047D01*
X98369333Y-53205047D01*
X64111333Y-61825142D02*
X64063714Y-61872761D01*
X63920857Y-61920380D01*
X63825619Y-61920380D01*
X63682761Y-61872761D01*
X63587523Y-61777523D01*
X63539904Y-61682285D01*
X63492285Y-61491809D01*
X63492285Y-61348952D01*
X63539904Y-61158476D01*
X63587523Y-61063238D01*
X63682761Y-60968000D01*
X63825619Y-60920380D01*
X63920857Y-60920380D01*
X64063714Y-60968000D01*
X64111333Y-61015619D01*
X65016095Y-60920380D02*
X64539904Y-60920380D01*
X64492285Y-61396571D01*
X64539904Y-61348952D01*
X64635142Y-61301333D01*
X64873238Y-61301333D01*
X64968476Y-61348952D01*
X65016095Y-61396571D01*
X65063714Y-61491809D01*
X65063714Y-61729904D01*
X65016095Y-61825142D01*
X64968476Y-61872761D01*
X64873238Y-61920380D01*
X64635142Y-61920380D01*
X64539904Y-61872761D01*
X64492285Y-61825142D01*
X79843333Y-32488142D02*
X79795714Y-32535761D01*
X79652857Y-32583380D01*
X79557619Y-32583380D01*
X79414761Y-32535761D01*
X79319523Y-32440523D01*
X79271904Y-32345285D01*
X79224285Y-32154809D01*
X79224285Y-32011952D01*
X79271904Y-31821476D01*
X79319523Y-31726238D01*
X79414761Y-31631000D01*
X79557619Y-31583380D01*
X79652857Y-31583380D01*
X79795714Y-31631000D01*
X79843333Y-31678619D01*
X80700476Y-31583380D02*
X80510000Y-31583380D01*
X80414761Y-31631000D01*
X80367142Y-31678619D01*
X80271904Y-31821476D01*
X80224285Y-32011952D01*
X80224285Y-32392904D01*
X80271904Y-32488142D01*
X80319523Y-32535761D01*
X80414761Y-32583380D01*
X80605238Y-32583380D01*
X80700476Y-32535761D01*
X80748095Y-32488142D01*
X80795714Y-32392904D01*
X80795714Y-32154809D01*
X80748095Y-32059571D01*
X80700476Y-32011952D01*
X80605238Y-31964333D01*
X80414761Y-31964333D01*
X80319523Y-32011952D01*
X80271904Y-32059571D01*
X80224285Y-32154809D01*
X63396904Y-54427380D02*
X63396904Y-53427380D01*
X63635000Y-53427380D01*
X63777857Y-53475000D01*
X63873095Y-53570238D01*
X63920714Y-53665476D01*
X63968333Y-53855952D01*
X63968333Y-53998809D01*
X63920714Y-54189285D01*
X63873095Y-54284523D01*
X63777857Y-54379761D01*
X63635000Y-54427380D01*
X63396904Y-54427380D01*
X64920714Y-54427380D02*
X64349285Y-54427380D01*
X64635000Y-54427380D02*
X64635000Y-53427380D01*
X64539761Y-53570238D01*
X64444523Y-53665476D01*
X64349285Y-53713095D01*
X67841904Y-54300380D02*
X67841904Y-53300380D01*
X68080000Y-53300380D01*
X68222857Y-53348000D01*
X68318095Y-53443238D01*
X68365714Y-53538476D01*
X68413333Y-53728952D01*
X68413333Y-53871809D01*
X68365714Y-54062285D01*
X68318095Y-54157523D01*
X68222857Y-54252761D01*
X68080000Y-54300380D01*
X67841904Y-54300380D01*
X68794285Y-53395619D02*
X68841904Y-53348000D01*
X68937142Y-53300380D01*
X69175238Y-53300380D01*
X69270476Y-53348000D01*
X69318095Y-53395619D01*
X69365714Y-53490857D01*
X69365714Y-53586095D01*
X69318095Y-53728952D01*
X68746666Y-54300380D01*
X69365714Y-54300380D01*
X43418166Y-42886380D02*
X43418166Y-43600666D01*
X43370547Y-43743523D01*
X43275309Y-43838761D01*
X43132452Y-43886380D01*
X43037214Y-43886380D01*
X44418166Y-43886380D02*
X43846738Y-43886380D01*
X44132452Y-43886380D02*
X44132452Y-42886380D01*
X44037214Y-43029238D01*
X43941976Y-43124476D01*
X43846738Y-43172095D01*
X87042666Y-52030380D02*
X87042666Y-52744666D01*
X86995047Y-52887523D01*
X86899809Y-52982761D01*
X86756952Y-53030380D01*
X86661714Y-53030380D01*
X87947428Y-52363714D02*
X87947428Y-53030380D01*
X87709333Y-51982761D02*
X87471238Y-52697047D01*
X88090285Y-52697047D01*
X74088666Y-52030380D02*
X74088666Y-52744666D01*
X74041047Y-52887523D01*
X73945809Y-52982761D01*
X73802952Y-53030380D01*
X73707714Y-53030380D01*
X74993428Y-52030380D02*
X74802952Y-52030380D01*
X74707714Y-52078000D01*
X74660095Y-52125619D01*
X74564857Y-52268476D01*
X74517238Y-52458952D01*
X74517238Y-52839904D01*
X74564857Y-52935142D01*
X74612476Y-52982761D01*
X74707714Y-53030380D01*
X74898190Y-53030380D01*
X74993428Y-52982761D01*
X75041047Y-52935142D01*
X75088666Y-52839904D01*
X75088666Y-52601809D01*
X75041047Y-52506571D01*
X74993428Y-52458952D01*
X74898190Y-52411333D01*
X74707714Y-52411333D01*
X74612476Y-52458952D01*
X74564857Y-52506571D01*
X74517238Y-52601809D01*
X57724833Y-56586380D02*
X57391500Y-56110190D01*
X57153404Y-56586380D02*
X57153404Y-55586380D01*
X57534357Y-55586380D01*
X57629595Y-55634000D01*
X57677214Y-55681619D01*
X57724833Y-55776857D01*
X57724833Y-55919714D01*
X57677214Y-56014952D01*
X57629595Y-56062571D01*
X57534357Y-56110190D01*
X57153404Y-56110190D01*
X58677214Y-56586380D02*
X58105785Y-56586380D01*
X58391500Y-56586380D02*
X58391500Y-55586380D01*
X58296261Y-55729238D01*
X58201023Y-55824476D01*
X58105785Y-55872095D01*
X48855333Y-35928380D02*
X48522000Y-35452190D01*
X48283904Y-35928380D02*
X48283904Y-34928380D01*
X48664857Y-34928380D01*
X48760095Y-34976000D01*
X48807714Y-35023619D01*
X48855333Y-35118857D01*
X48855333Y-35261714D01*
X48807714Y-35356952D01*
X48760095Y-35404571D01*
X48664857Y-35452190D01*
X48283904Y-35452190D01*
X49236285Y-35023619D02*
X49283904Y-34976000D01*
X49379142Y-34928380D01*
X49617238Y-34928380D01*
X49712476Y-34976000D01*
X49760095Y-35023619D01*
X49807714Y-35118857D01*
X49807714Y-35214095D01*
X49760095Y-35356952D01*
X49188666Y-35928380D01*
X49807714Y-35928380D01*
X71016833Y-41219380D02*
X70683500Y-40743190D01*
X70445404Y-41219380D02*
X70445404Y-40219380D01*
X70826357Y-40219380D01*
X70921595Y-40267000D01*
X70969214Y-40314619D01*
X71016833Y-40409857D01*
X71016833Y-40552714D01*
X70969214Y-40647952D01*
X70921595Y-40695571D01*
X70826357Y-40743190D01*
X70445404Y-40743190D01*
X71350166Y-40219380D02*
X71969214Y-40219380D01*
X71635880Y-40600333D01*
X71778738Y-40600333D01*
X71873976Y-40647952D01*
X71921595Y-40695571D01*
X71969214Y-40790809D01*
X71969214Y-41028904D01*
X71921595Y-41124142D01*
X71873976Y-41171761D01*
X71778738Y-41219380D01*
X71493023Y-41219380D01*
X71397785Y-41171761D01*
X71350166Y-41124142D01*
X63309595Y-34948761D02*
X63452452Y-34996380D01*
X63690547Y-34996380D01*
X63785785Y-34948761D01*
X63833404Y-34901142D01*
X63881023Y-34805904D01*
X63881023Y-34710666D01*
X63833404Y-34615428D01*
X63785785Y-34567809D01*
X63690547Y-34520190D01*
X63500071Y-34472571D01*
X63404833Y-34424952D01*
X63357214Y-34377333D01*
X63309595Y-34282095D01*
X63309595Y-34186857D01*
X63357214Y-34091619D01*
X63404833Y-34044000D01*
X63500071Y-33996380D01*
X63738166Y-33996380D01*
X63881023Y-34044000D01*
X64833404Y-34996380D02*
X64261976Y-34996380D01*
X64547690Y-34996380D02*
X64547690Y-33996380D01*
X64452452Y-34139238D01*
X64357214Y-34234476D01*
X64261976Y-34282095D01*
X72604476Y-25154380D02*
X72937809Y-26154380D01*
X73271142Y-25154380D01*
X74175904Y-26154380D02*
X73842571Y-25678190D01*
X73604476Y-26154380D02*
X73604476Y-25154380D01*
X73985428Y-25154380D01*
X74080666Y-25202000D01*
X74128285Y-25249619D01*
X74175904Y-25344857D01*
X74175904Y-25487714D01*
X74128285Y-25582952D01*
X74080666Y-25630571D01*
X73985428Y-25678190D01*
X73604476Y-25678190D01*
X75128285Y-26154380D02*
X74556857Y-26154380D01*
X74842571Y-26154380D02*
X74842571Y-25154380D01*
X74747333Y-25297238D01*
X74652095Y-25392476D01*
X74556857Y-25440095D01*
X106338380Y-53887523D02*
X107338380Y-53554190D01*
X106338380Y-53220857D01*
X107338380Y-52316095D02*
X106862190Y-52649428D01*
X107338380Y-52887523D02*
X106338380Y-52887523D01*
X106338380Y-52506571D01*
X106386000Y-52411333D01*
X106433619Y-52363714D01*
X106528857Y-52316095D01*
X106671714Y-52316095D01*
X106766952Y-52363714D01*
X106814571Y-52411333D01*
X106862190Y-52506571D01*
X106862190Y-52887523D01*
X106433619Y-51935142D02*
X106386000Y-51887523D01*
X106338380Y-51792285D01*
X106338380Y-51554190D01*
X106386000Y-51458952D01*
X106433619Y-51411333D01*
X106528857Y-51363714D01*
X106624095Y-51363714D01*
X106766952Y-51411333D01*
X107338380Y-51982761D01*
X107338380Y-51363714D01*
X66508476Y-73318380D02*
X66841809Y-74318380D01*
X67175142Y-73318380D01*
X68079904Y-74318380D02*
X67746571Y-73842190D01*
X67508476Y-74318380D02*
X67508476Y-73318380D01*
X67889428Y-73318380D01*
X67984666Y-73366000D01*
X68032285Y-73413619D01*
X68079904Y-73508857D01*
X68079904Y-73651714D01*
X68032285Y-73746952D01*
X67984666Y-73794571D01*
X67889428Y-73842190D01*
X67508476Y-73842190D01*
X68413238Y-73318380D02*
X69032285Y-73318380D01*
X68698952Y-73699333D01*
X68841809Y-73699333D01*
X68937047Y-73746952D01*
X68984666Y-73794571D01*
X69032285Y-73889809D01*
X69032285Y-74127904D01*
X68984666Y-74223142D01*
X68937047Y-74270761D01*
X68841809Y-74318380D01*
X68556095Y-74318380D01*
X68460857Y-74270761D01*
X68413238Y-74223142D01*
X48768095Y-27122380D02*
X48768095Y-26122380D01*
X48768095Y-26598571D02*
X49339523Y-26598571D01*
X49339523Y-27122380D02*
X49339523Y-26122380D01*
X50339523Y-27122380D02*
X49768095Y-27122380D01*
X50053809Y-27122380D02*
X50053809Y-26122380D01*
X49958571Y-26265238D01*
X49863333Y-26360476D01*
X49768095Y-26408095D01*
X100838095Y-27122380D02*
X100838095Y-26122380D01*
X100838095Y-26598571D02*
X101409523Y-26598571D01*
X101409523Y-27122380D02*
X101409523Y-26122380D01*
X101838095Y-26217619D02*
X101885714Y-26170000D01*
X101980952Y-26122380D01*
X102219047Y-26122380D01*
X102314285Y-26170000D01*
X102361904Y-26217619D01*
X102409523Y-26312857D01*
X102409523Y-26408095D01*
X102361904Y-26550952D01*
X101790476Y-27122380D01*
X102409523Y-27122380D01*
X48768095Y-70302380D02*
X48768095Y-69302380D01*
X48768095Y-69778571D02*
X49339523Y-69778571D01*
X49339523Y-70302380D02*
X49339523Y-69302380D01*
X49720476Y-69302380D02*
X50339523Y-69302380D01*
X50006190Y-69683333D01*
X50149047Y-69683333D01*
X50244285Y-69730952D01*
X50291904Y-69778571D01*
X50339523Y-69873809D01*
X50339523Y-70111904D01*
X50291904Y-70207142D01*
X50244285Y-70254761D01*
X50149047Y-70302380D01*
X49863333Y-70302380D01*
X49768095Y-70254761D01*
X49720476Y-70207142D01*
X100838095Y-70302380D02*
X100838095Y-69302380D01*
X100838095Y-69778571D02*
X101409523Y-69778571D01*
X101409523Y-70302380D02*
X101409523Y-69302380D01*
X102314285Y-69635714D02*
X102314285Y-70302380D01*
X102076190Y-69254761D02*
X101838095Y-69969047D01*
X102457142Y-69969047D01*
M02*
