G04 #@! TF.GenerationSoftware,KiCad,Pcbnew,(5.1.4)-1*
G04 #@! TF.CreationDate,2019-12-07T06:36:36-05:00*
G04 #@! TF.ProjectId,BBPSU_Dsch,42425053-555f-4447-9363-682e6b696361,rev?*
G04 #@! TF.SameCoordinates,Original*
G04 #@! TF.FileFunction,Copper,L2,Bot*
G04 #@! TF.FilePolarity,Positive*
%FSLAX46Y46*%
G04 Gerber Fmt 4.6, Leading zero omitted, Abs format (unit mm)*
G04 Created by KiCad (PCBNEW (5.1.4)-1) date 2019-12-07 06:36:36*
%MOMM*%
%LPD*%
G04 APERTURE LIST*
%ADD10R,1.700000X1.700000*%
%ADD11O,1.700000X1.700000*%
%ADD12R,1.600000X1.600000*%
%ADD13C,1.600000*%
%ADD14R,1.200000X1.200000*%
%ADD15C,1.200000*%
%ADD16R,1.800000X1.800000*%
%ADD17C,1.800000*%
%ADD18R,2.000000X4.000000*%
%ADD19O,2.000000X3.300000*%
%ADD20O,3.500000X2.000000*%
%ADD21O,1.600000X1.600000*%
%ADD22R,2.850000X2.850000*%
%ADD23C,2.850000*%
%ADD24R,1.905000X2.000000*%
%ADD25O,1.905000X2.000000*%
%ADD26O,2.000000X1.905000*%
%ADD27R,2.000000X1.905000*%
%ADD28C,4.400000*%
%ADD29C,1.000000*%
%ADD30C,0.254000*%
G04 APERTURE END LIST*
D10*
X84328000Y-35052000D03*
D11*
X84328000Y-37592000D03*
X86868000Y-35052000D03*
X86868000Y-37592000D03*
D12*
X97536000Y-50038000D03*
D13*
X97536000Y-47538000D03*
D14*
X71374000Y-35052000D03*
D15*
X69374000Y-35052000D03*
D12*
X70358000Y-64516000D03*
D13*
X72858000Y-64516000D03*
D14*
X97536000Y-55118000D03*
D15*
X97536000Y-57118000D03*
X63278000Y-64516000D03*
D14*
X65278000Y-64516000D03*
D13*
X78954000Y-35052000D03*
D12*
X76454000Y-35052000D03*
D16*
X65341500Y-55880000D03*
D17*
X65341500Y-58420000D03*
X71183500Y-55880000D03*
D16*
X71183500Y-58420000D03*
D18*
X55181500Y-51054000D03*
D19*
X49181500Y-51054000D03*
D20*
X48181500Y-46554000D03*
X48181500Y-55554000D03*
D11*
X91186000Y-57658000D03*
X91186000Y-55118000D03*
X88646000Y-57658000D03*
D10*
X88646000Y-55118000D03*
X75692000Y-55118000D03*
D11*
X75692000Y-57658000D03*
X78232000Y-55118000D03*
X78232000Y-57658000D03*
D21*
X60261500Y-51054000D03*
D13*
X60261500Y-61214000D03*
X43942000Y-37846000D03*
D21*
X54102000Y-37846000D03*
D13*
X71183500Y-52832000D03*
D21*
X71183500Y-42672000D03*
D22*
X64071500Y-37844000D03*
D23*
X64071500Y-42544000D03*
X64071500Y-47244000D03*
D24*
X71374000Y-29972000D03*
D25*
X73914000Y-29972000D03*
X76454000Y-29972000D03*
D26*
X102616000Y-55118000D03*
X102616000Y-52578000D03*
D27*
X102616000Y-50038000D03*
D24*
X70358000Y-69596000D03*
D25*
X67818000Y-69596000D03*
X65278000Y-69596000D03*
D28*
X45720000Y-27940000D03*
X105410000Y-27940000D03*
X45720000Y-71120000D03*
X105410000Y-71120000D03*
D29*
X73660000Y-35052000D03*
X73660000Y-37592000D03*
X73660000Y-32512000D03*
X67310000Y-34290000D03*
X69850000Y-38100000D03*
X81280000Y-33020000D03*
X95250000Y-29210000D03*
X96520000Y-26670000D03*
X100965000Y-35560000D03*
X104140000Y-34290000D03*
X107315000Y-48895000D03*
X95885000Y-67945000D03*
X97155000Y-71120000D03*
X81915000Y-61595000D03*
X81915000Y-54610000D03*
X75565000Y-62865000D03*
X75565000Y-66040000D03*
X60960000Y-66040000D03*
X60960000Y-63500000D03*
X94615000Y-45720000D03*
X100330000Y-45720000D03*
X99695000Y-52705000D03*
X94615000Y-52705000D03*
X94615000Y-59055000D03*
X99695000Y-59055000D03*
X105410000Y-59055000D03*
X107950000Y-60325000D03*
X75565000Y-71120000D03*
X60960000Y-71120000D03*
X58420000Y-47625000D03*
X44450000Y-40640000D03*
X44450000Y-34925000D03*
D30*
G36*
X107039668Y-24853551D02*
G01*
X107385634Y-24958004D01*
X107704724Y-25127667D01*
X107984781Y-25356076D01*
X108215141Y-25634534D01*
X108387027Y-25952430D01*
X108493893Y-26297658D01*
X108535000Y-26688753D01*
X108535001Y-72356485D01*
X108496449Y-72749667D01*
X108391996Y-73095635D01*
X108222333Y-73414724D01*
X107993924Y-73694781D01*
X107715466Y-73925141D01*
X107397570Y-74097027D01*
X107052340Y-74203894D01*
X106661238Y-74245000D01*
X44483505Y-74245000D01*
X44090333Y-74206449D01*
X43744365Y-74101996D01*
X43425276Y-73932333D01*
X43145219Y-73703924D01*
X42914859Y-73425466D01*
X42857316Y-73319041D01*
X43871684Y-73319041D01*
X44109125Y-73759101D01*
X44654941Y-74022658D01*
X45241686Y-74174667D01*
X45846813Y-74209287D01*
X46447066Y-74125188D01*
X47019379Y-73925600D01*
X47330875Y-73759101D01*
X47568316Y-73319041D01*
X103561684Y-73319041D01*
X103799125Y-73759101D01*
X104344941Y-74022658D01*
X104931686Y-74174667D01*
X105536813Y-74209287D01*
X106137066Y-74125188D01*
X106709379Y-73925600D01*
X107020875Y-73759101D01*
X107258316Y-73319041D01*
X105410000Y-71470725D01*
X103561684Y-73319041D01*
X47568316Y-73319041D01*
X45720000Y-71470725D01*
X43871684Y-73319041D01*
X42857316Y-73319041D01*
X42742973Y-73107570D01*
X42636106Y-72762340D01*
X42595000Y-72371238D01*
X42595000Y-71246813D01*
X42630713Y-71246813D01*
X42714812Y-71847066D01*
X42914400Y-72419379D01*
X43080899Y-72730875D01*
X43520959Y-72968316D01*
X45369275Y-71120000D01*
X46070725Y-71120000D01*
X47919041Y-72968316D01*
X48359101Y-72730875D01*
X48622658Y-72185059D01*
X48774667Y-71598314D01*
X48809287Y-70993187D01*
X48725188Y-70392934D01*
X48525600Y-69820621D01*
X48359101Y-69509125D01*
X48287542Y-69470514D01*
X63690500Y-69470514D01*
X63690500Y-69721485D01*
X63713470Y-69954703D01*
X63804245Y-70253948D01*
X63951655Y-70529734D01*
X64150037Y-70771463D01*
X64391765Y-70969845D01*
X64667551Y-71117255D01*
X64966796Y-71208030D01*
X65278000Y-71238681D01*
X65589203Y-71208030D01*
X65888448Y-71117255D01*
X66164234Y-70969845D01*
X66392623Y-70782411D01*
X66620668Y-71023343D01*
X66912868Y-71230418D01*
X67239852Y-71376508D01*
X67289498Y-71395001D01*
X67570000Y-71234538D01*
X67570000Y-69844000D01*
X67550000Y-69844000D01*
X67550000Y-69348000D01*
X67570000Y-69348000D01*
X67570000Y-67957462D01*
X68066000Y-67957462D01*
X68066000Y-69348000D01*
X68086000Y-69348000D01*
X68086000Y-69844000D01*
X68066000Y-69844000D01*
X68066000Y-71234538D01*
X68346502Y-71395001D01*
X68396148Y-71376508D01*
X68686436Y-71246813D01*
X102320713Y-71246813D01*
X102404812Y-71847066D01*
X102604400Y-72419379D01*
X102770899Y-72730875D01*
X103210959Y-72968316D01*
X105059275Y-71120000D01*
X105760725Y-71120000D01*
X107609041Y-72968316D01*
X108049101Y-72730875D01*
X108312658Y-72185059D01*
X108464667Y-71598314D01*
X108499287Y-70993187D01*
X108415188Y-70392934D01*
X108215600Y-69820621D01*
X108049101Y-69509125D01*
X107609041Y-69271684D01*
X105760725Y-71120000D01*
X105059275Y-71120000D01*
X103210959Y-69271684D01*
X102770899Y-69509125D01*
X102507342Y-70054941D01*
X102355333Y-70641686D01*
X102320713Y-71246813D01*
X68686436Y-71246813D01*
X68723132Y-71230418D01*
X68967000Y-71057595D01*
X69051006Y-71126537D01*
X69161320Y-71185502D01*
X69281018Y-71221812D01*
X69405500Y-71234072D01*
X71310500Y-71234072D01*
X71434982Y-71221812D01*
X71554680Y-71185502D01*
X71664994Y-71126537D01*
X71761685Y-71047185D01*
X71841037Y-70950494D01*
X71900002Y-70840180D01*
X71936312Y-70720482D01*
X71948572Y-70596000D01*
X71948572Y-68920959D01*
X103561684Y-68920959D01*
X105410000Y-70769275D01*
X107258316Y-68920959D01*
X107020875Y-68480899D01*
X106475059Y-68217342D01*
X105888314Y-68065333D01*
X105283187Y-68030713D01*
X104682934Y-68114812D01*
X104110621Y-68314400D01*
X103799125Y-68480899D01*
X103561684Y-68920959D01*
X71948572Y-68920959D01*
X71948572Y-68596000D01*
X71936312Y-68471518D01*
X71900002Y-68351820D01*
X71841037Y-68241506D01*
X71761685Y-68144815D01*
X71664994Y-68065463D01*
X71554680Y-68006498D01*
X71434982Y-67970188D01*
X71310500Y-67957928D01*
X69405500Y-67957928D01*
X69281018Y-67970188D01*
X69161320Y-68006498D01*
X69051006Y-68065463D01*
X68967000Y-68134405D01*
X68723132Y-67961582D01*
X68396148Y-67815492D01*
X68346502Y-67796999D01*
X68066000Y-67957462D01*
X67570000Y-67957462D01*
X67289498Y-67796999D01*
X67239852Y-67815492D01*
X66912868Y-67961582D01*
X66620668Y-68168657D01*
X66392623Y-68409589D01*
X66164235Y-68222155D01*
X65888449Y-68074745D01*
X65589204Y-67983970D01*
X65278000Y-67953319D01*
X64966797Y-67983970D01*
X64667552Y-68074745D01*
X64391766Y-68222155D01*
X64150037Y-68420537D01*
X63951655Y-68662265D01*
X63804245Y-68938051D01*
X63713470Y-69237296D01*
X63690500Y-69470514D01*
X48287542Y-69470514D01*
X47919041Y-69271684D01*
X46070725Y-71120000D01*
X45369275Y-71120000D01*
X43520959Y-69271684D01*
X43080899Y-69509125D01*
X42817342Y-70054941D01*
X42665333Y-70641686D01*
X42630713Y-71246813D01*
X42595000Y-71246813D01*
X42595000Y-68920959D01*
X43871684Y-68920959D01*
X45720000Y-70769275D01*
X47568316Y-68920959D01*
X47330875Y-68480899D01*
X46785059Y-68217342D01*
X46198314Y-68065333D01*
X45593187Y-68030713D01*
X44992934Y-68114812D01*
X44420621Y-68314400D01*
X44109125Y-68480899D01*
X43871684Y-68920959D01*
X42595000Y-68920959D01*
X42595000Y-64415552D01*
X61797255Y-64415552D01*
X61806111Y-64706361D01*
X61871531Y-64989855D01*
X61948411Y-65175458D01*
X62225580Y-65217695D01*
X62927275Y-64516000D01*
X62225580Y-63814305D01*
X61948411Y-63856542D01*
X61845304Y-64128603D01*
X61797255Y-64415552D01*
X42595000Y-64415552D01*
X42595000Y-63463580D01*
X62576305Y-63463580D01*
X63278000Y-64165275D01*
X63292143Y-64151133D01*
X63642868Y-64501858D01*
X63628725Y-64516000D01*
X63642868Y-64530143D01*
X63292143Y-64880868D01*
X63278000Y-64866725D01*
X62576305Y-65568420D01*
X62618542Y-65845589D01*
X62890603Y-65948696D01*
X63177552Y-65996745D01*
X63468361Y-65987889D01*
X63751855Y-65922469D01*
X63937458Y-65845589D01*
X63979695Y-65568422D01*
X64151652Y-65740379D01*
X64280658Y-65611373D01*
X64323506Y-65646537D01*
X64433820Y-65705502D01*
X64553518Y-65741812D01*
X64678000Y-65754072D01*
X65878000Y-65754072D01*
X66002482Y-65741812D01*
X66122180Y-65705502D01*
X66232494Y-65646537D01*
X66329185Y-65567185D01*
X66408537Y-65470494D01*
X66467502Y-65360180D01*
X66503812Y-65240482D01*
X66516072Y-65116000D01*
X66516072Y-63916000D01*
X66503812Y-63791518D01*
X66480904Y-63716000D01*
X68919928Y-63716000D01*
X68919928Y-65316000D01*
X68932188Y-65440482D01*
X68968498Y-65560180D01*
X69027463Y-65670494D01*
X69106815Y-65767185D01*
X69203506Y-65846537D01*
X69313820Y-65905502D01*
X69433518Y-65941812D01*
X69558000Y-65954072D01*
X71158000Y-65954072D01*
X71282482Y-65941812D01*
X71402180Y-65905502D01*
X71512494Y-65846537D01*
X71609185Y-65767185D01*
X71653700Y-65712943D01*
X72011782Y-65712943D01*
X72078936Y-66010212D01*
X72385412Y-66133489D01*
X72710049Y-66194607D01*
X73040371Y-66191217D01*
X73363686Y-66123449D01*
X73637064Y-66010212D01*
X73704218Y-65712943D01*
X72858000Y-64866725D01*
X72011782Y-65712943D01*
X71653700Y-65712943D01*
X71688537Y-65670494D01*
X71747502Y-65560180D01*
X71783812Y-65440482D01*
X71796072Y-65316000D01*
X71796072Y-65227203D01*
X72507275Y-64516000D01*
X73208725Y-64516000D01*
X74054943Y-65362218D01*
X74352212Y-65295064D01*
X74475489Y-64988588D01*
X74536607Y-64663951D01*
X74533217Y-64333629D01*
X74465449Y-64010314D01*
X74352212Y-63736936D01*
X74054943Y-63669782D01*
X73208725Y-64516000D01*
X72507275Y-64516000D01*
X71796072Y-63804797D01*
X71796072Y-63716000D01*
X71783812Y-63591518D01*
X71747502Y-63471820D01*
X71688537Y-63361506D01*
X71653701Y-63319057D01*
X72011782Y-63319057D01*
X72858000Y-64165275D01*
X73704218Y-63319057D01*
X73637064Y-63021788D01*
X73330588Y-62898511D01*
X73005951Y-62837393D01*
X72675629Y-62840783D01*
X72352314Y-62908551D01*
X72078936Y-63021788D01*
X72011782Y-63319057D01*
X71653701Y-63319057D01*
X71609185Y-63264815D01*
X71512494Y-63185463D01*
X71402180Y-63126498D01*
X71282482Y-63090188D01*
X71158000Y-63077928D01*
X69558000Y-63077928D01*
X69433518Y-63090188D01*
X69313820Y-63126498D01*
X69203506Y-63185463D01*
X69106815Y-63264815D01*
X69027463Y-63361506D01*
X68968498Y-63471820D01*
X68932188Y-63591518D01*
X68919928Y-63716000D01*
X66480904Y-63716000D01*
X66467502Y-63671820D01*
X66408537Y-63561506D01*
X66329185Y-63464815D01*
X66232494Y-63385463D01*
X66122180Y-63326498D01*
X66002482Y-63290188D01*
X65878000Y-63277928D01*
X64678000Y-63277928D01*
X64553518Y-63290188D01*
X64433820Y-63326498D01*
X64323506Y-63385463D01*
X64280658Y-63420627D01*
X64151652Y-63291621D01*
X63979695Y-63463578D01*
X63937458Y-63186411D01*
X63665397Y-63083304D01*
X63378448Y-63035255D01*
X63087639Y-63044111D01*
X62804145Y-63109531D01*
X62618542Y-63186411D01*
X62576305Y-63463580D01*
X42595000Y-63463580D01*
X42595000Y-61072665D01*
X58826500Y-61072665D01*
X58826500Y-61355335D01*
X58881647Y-61632574D01*
X58989820Y-61893727D01*
X59146863Y-62128759D01*
X59346741Y-62328637D01*
X59581773Y-62485680D01*
X59842926Y-62593853D01*
X60120165Y-62649000D01*
X60402835Y-62649000D01*
X60680074Y-62593853D01*
X60941227Y-62485680D01*
X61176259Y-62328637D01*
X61376137Y-62128759D01*
X61533180Y-61893727D01*
X61641353Y-61632574D01*
X61696500Y-61355335D01*
X61696500Y-61072665D01*
X61641353Y-60795426D01*
X61533180Y-60534273D01*
X61376137Y-60299241D01*
X61176259Y-60099363D01*
X60941227Y-59942320D01*
X60680074Y-59834147D01*
X60402835Y-59779000D01*
X60120165Y-59779000D01*
X59842926Y-59834147D01*
X59581773Y-59942320D01*
X59346741Y-60099363D01*
X59146863Y-60299241D01*
X58989820Y-60534273D01*
X58881647Y-60795426D01*
X58826500Y-61072665D01*
X42595000Y-61072665D01*
X42595000Y-55554000D01*
X45788589Y-55554000D01*
X45820157Y-55874516D01*
X45913648Y-56182715D01*
X46065469Y-56466752D01*
X46269786Y-56715714D01*
X46518748Y-56920031D01*
X46802785Y-57071852D01*
X47110984Y-57165343D01*
X47351178Y-57189000D01*
X49011822Y-57189000D01*
X49252016Y-57165343D01*
X49560215Y-57071852D01*
X49844252Y-56920031D01*
X50014880Y-56780000D01*
X63560257Y-56780000D01*
X63577190Y-56951922D01*
X63627338Y-57117237D01*
X63708773Y-57269592D01*
X63818367Y-57403133D01*
X63951908Y-57512727D01*
X64062201Y-57571680D01*
X63981201Y-57692905D01*
X63865489Y-57972257D01*
X63806500Y-58268816D01*
X63806500Y-58571184D01*
X63865489Y-58867743D01*
X63981201Y-59147095D01*
X64149188Y-59398505D01*
X64362995Y-59612312D01*
X64614405Y-59780299D01*
X64893757Y-59896011D01*
X65190316Y-59955000D01*
X65492684Y-59955000D01*
X65789243Y-59896011D01*
X66068595Y-59780299D01*
X66320005Y-59612312D01*
X66533812Y-59398505D01*
X66586267Y-59320000D01*
X69402257Y-59320000D01*
X69419190Y-59491922D01*
X69469338Y-59657237D01*
X69550773Y-59809592D01*
X69660367Y-59943133D01*
X69793908Y-60052727D01*
X69946263Y-60134162D01*
X70111578Y-60184310D01*
X70283500Y-60201243D01*
X70716250Y-60197000D01*
X70935500Y-59977750D01*
X70935500Y-58668000D01*
X71431500Y-58668000D01*
X71431500Y-59977750D01*
X71650750Y-60197000D01*
X72083500Y-60201243D01*
X72255422Y-60184310D01*
X72420737Y-60134162D01*
X72573092Y-60052727D01*
X72706633Y-59943133D01*
X72816227Y-59809592D01*
X72897662Y-59657237D01*
X72947810Y-59491922D01*
X72964743Y-59320000D01*
X72960500Y-58887250D01*
X72741250Y-58668000D01*
X71431500Y-58668000D01*
X70935500Y-58668000D01*
X69625750Y-58668000D01*
X69406500Y-58887250D01*
X69402257Y-59320000D01*
X66586267Y-59320000D01*
X66701799Y-59147095D01*
X66817511Y-58867743D01*
X66876500Y-58571184D01*
X66876500Y-58268816D01*
X66817511Y-57972257D01*
X66701799Y-57692905D01*
X66620799Y-57571680D01*
X66717485Y-57520000D01*
X69402257Y-57520000D01*
X69406500Y-57952750D01*
X69625750Y-58172000D01*
X70935500Y-58172000D01*
X70935500Y-58152000D01*
X71431500Y-58152000D01*
X71431500Y-58172000D01*
X72741250Y-58172000D01*
X72742940Y-58170310D01*
X74042729Y-58170310D01*
X74174366Y-58482223D01*
X74364325Y-58762461D01*
X74605306Y-59000256D01*
X74888048Y-59186468D01*
X75179691Y-59307263D01*
X75444000Y-59145214D01*
X75444000Y-57906000D01*
X75940000Y-57906000D01*
X75940000Y-59145214D01*
X76204309Y-59307263D01*
X76495952Y-59186468D01*
X76778694Y-59000256D01*
X76962000Y-58819373D01*
X77145306Y-59000256D01*
X77428048Y-59186468D01*
X77719691Y-59307263D01*
X77984000Y-59145214D01*
X77984000Y-57906000D01*
X78480000Y-57906000D01*
X78480000Y-59145214D01*
X78744309Y-59307263D01*
X79035952Y-59186468D01*
X79318694Y-59000256D01*
X79559675Y-58762461D01*
X79749634Y-58482223D01*
X79881271Y-58170310D01*
X86996729Y-58170310D01*
X87128366Y-58482223D01*
X87318325Y-58762461D01*
X87559306Y-59000256D01*
X87842048Y-59186468D01*
X88133691Y-59307263D01*
X88398000Y-59145214D01*
X88398000Y-57906000D01*
X88894000Y-57906000D01*
X88894000Y-59145214D01*
X89158309Y-59307263D01*
X89449952Y-59186468D01*
X89732694Y-59000256D01*
X89916000Y-58819373D01*
X90099306Y-59000256D01*
X90382048Y-59186468D01*
X90673691Y-59307263D01*
X90938000Y-59145214D01*
X90938000Y-57906000D01*
X91434000Y-57906000D01*
X91434000Y-59145214D01*
X91698309Y-59307263D01*
X91989952Y-59186468D01*
X92272694Y-59000256D01*
X92513675Y-58762461D01*
X92703634Y-58482223D01*
X92835224Y-58170420D01*
X96834305Y-58170420D01*
X96876542Y-58447589D01*
X97148603Y-58550696D01*
X97435552Y-58598745D01*
X97726361Y-58589889D01*
X98009855Y-58524469D01*
X98195458Y-58447589D01*
X98237695Y-58170420D01*
X97536000Y-57468725D01*
X96834305Y-58170420D01*
X92835224Y-58170420D01*
X92835271Y-58170310D01*
X92675859Y-57906000D01*
X91434000Y-57906000D01*
X90938000Y-57906000D01*
X88894000Y-57906000D01*
X88398000Y-57906000D01*
X87156141Y-57906000D01*
X86996729Y-58170310D01*
X79881271Y-58170310D01*
X79721859Y-57906000D01*
X78480000Y-57906000D01*
X77984000Y-57906000D01*
X75940000Y-57906000D01*
X75444000Y-57906000D01*
X74202141Y-57906000D01*
X74042729Y-58170310D01*
X72742940Y-58170310D01*
X72960500Y-57952750D01*
X72964743Y-57520000D01*
X72947810Y-57348078D01*
X72897662Y-57182763D01*
X72877847Y-57145690D01*
X74042729Y-57145690D01*
X74202141Y-57410000D01*
X75444000Y-57410000D01*
X75444000Y-57390000D01*
X75940000Y-57390000D01*
X75940000Y-57410000D01*
X77984000Y-57410000D01*
X77984000Y-57390000D01*
X78480000Y-57390000D01*
X78480000Y-57410000D01*
X79721859Y-57410000D01*
X79881271Y-57145690D01*
X86996729Y-57145690D01*
X87156141Y-57410000D01*
X88398000Y-57410000D01*
X88398000Y-57390000D01*
X88894000Y-57390000D01*
X88894000Y-57410000D01*
X90938000Y-57410000D01*
X90938000Y-57390000D01*
X91434000Y-57390000D01*
X91434000Y-57410000D01*
X92675859Y-57410000D01*
X92835271Y-57145690D01*
X92781193Y-57017552D01*
X96055255Y-57017552D01*
X96064111Y-57308361D01*
X96129531Y-57591855D01*
X96206411Y-57777458D01*
X96483580Y-57819695D01*
X97185275Y-57118000D01*
X97171133Y-57103858D01*
X97521858Y-56753133D01*
X97536000Y-56767275D01*
X97550143Y-56753133D01*
X97900868Y-57103858D01*
X97886725Y-57118000D01*
X98588420Y-57819695D01*
X98865589Y-57777458D01*
X98968696Y-57505397D01*
X99016745Y-57218448D01*
X99007889Y-56927639D01*
X98942469Y-56644145D01*
X98865589Y-56458542D01*
X98588422Y-56416305D01*
X98760379Y-56244348D01*
X98631373Y-56115342D01*
X98666537Y-56072494D01*
X98725502Y-55962180D01*
X98761812Y-55842482D01*
X98774072Y-55718000D01*
X98774072Y-54518000D01*
X98761812Y-54393518D01*
X98725502Y-54273820D01*
X98666537Y-54163506D01*
X98587185Y-54066815D01*
X98490494Y-53987463D01*
X98380180Y-53928498D01*
X98260482Y-53892188D01*
X98136000Y-53879928D01*
X96936000Y-53879928D01*
X96811518Y-53892188D01*
X96691820Y-53928498D01*
X96581506Y-53987463D01*
X96484815Y-54066815D01*
X96405463Y-54163506D01*
X96346498Y-54273820D01*
X96310188Y-54393518D01*
X96297928Y-54518000D01*
X96297928Y-55718000D01*
X96310188Y-55842482D01*
X96346498Y-55962180D01*
X96405463Y-56072494D01*
X96440627Y-56115342D01*
X96311621Y-56244348D01*
X96483578Y-56416305D01*
X96206411Y-56458542D01*
X96103304Y-56730603D01*
X96055255Y-57017552D01*
X92781193Y-57017552D01*
X92703634Y-56833777D01*
X92513675Y-56553539D01*
X92272694Y-56315744D01*
X92158779Y-56240721D01*
X92241134Y-56173134D01*
X92426706Y-55947014D01*
X92564599Y-55689034D01*
X92649513Y-55409111D01*
X92678185Y-55118000D01*
X92649513Y-54826889D01*
X92564599Y-54546966D01*
X92426706Y-54288986D01*
X92241134Y-54062866D01*
X92015014Y-53877294D01*
X91757034Y-53739401D01*
X91477111Y-53654487D01*
X91258950Y-53633000D01*
X91113050Y-53633000D01*
X90894889Y-53654487D01*
X90614966Y-53739401D01*
X90356986Y-53877294D01*
X90130866Y-54062866D01*
X90106393Y-54092687D01*
X90085502Y-54023820D01*
X90026537Y-53913506D01*
X89947185Y-53816815D01*
X89850494Y-53737463D01*
X89740180Y-53678498D01*
X89620482Y-53642188D01*
X89496000Y-53629928D01*
X87796000Y-53629928D01*
X87671518Y-53642188D01*
X87551820Y-53678498D01*
X87441506Y-53737463D01*
X87344815Y-53816815D01*
X87265463Y-53913506D01*
X87206498Y-54023820D01*
X87170188Y-54143518D01*
X87157928Y-54268000D01*
X87157928Y-55968000D01*
X87170188Y-56092482D01*
X87206498Y-56212180D01*
X87265463Y-56322494D01*
X87344815Y-56419185D01*
X87404686Y-56468320D01*
X87318325Y-56553539D01*
X87128366Y-56833777D01*
X86996729Y-57145690D01*
X79881271Y-57145690D01*
X79749634Y-56833777D01*
X79559675Y-56553539D01*
X79318694Y-56315744D01*
X79204779Y-56240721D01*
X79287134Y-56173134D01*
X79472706Y-55947014D01*
X79610599Y-55689034D01*
X79695513Y-55409111D01*
X79724185Y-55118000D01*
X79695513Y-54826889D01*
X79610599Y-54546966D01*
X79472706Y-54288986D01*
X79287134Y-54062866D01*
X79061014Y-53877294D01*
X78803034Y-53739401D01*
X78523111Y-53654487D01*
X78304950Y-53633000D01*
X78159050Y-53633000D01*
X77940889Y-53654487D01*
X77660966Y-53739401D01*
X77402986Y-53877294D01*
X77176866Y-54062866D01*
X77152393Y-54092687D01*
X77131502Y-54023820D01*
X77072537Y-53913506D01*
X76993185Y-53816815D01*
X76896494Y-53737463D01*
X76786180Y-53678498D01*
X76666482Y-53642188D01*
X76542000Y-53629928D01*
X74842000Y-53629928D01*
X74717518Y-53642188D01*
X74597820Y-53678498D01*
X74487506Y-53737463D01*
X74390815Y-53816815D01*
X74311463Y-53913506D01*
X74252498Y-54023820D01*
X74216188Y-54143518D01*
X74203928Y-54268000D01*
X74203928Y-55968000D01*
X74216188Y-56092482D01*
X74252498Y-56212180D01*
X74311463Y-56322494D01*
X74390815Y-56419185D01*
X74450686Y-56468320D01*
X74364325Y-56553539D01*
X74174366Y-56833777D01*
X74042729Y-57145690D01*
X72877847Y-57145690D01*
X72816227Y-57030408D01*
X72706633Y-56896867D01*
X72573092Y-56787273D01*
X72462799Y-56728320D01*
X72543799Y-56607095D01*
X72659511Y-56327743D01*
X72718500Y-56031184D01*
X72718500Y-55728816D01*
X72659511Y-55432257D01*
X72543799Y-55152905D01*
X72375812Y-54901495D01*
X72162005Y-54687688D01*
X71910595Y-54519701D01*
X71631243Y-54403989D01*
X71334684Y-54345000D01*
X71032316Y-54345000D01*
X70735757Y-54403989D01*
X70456405Y-54519701D01*
X70204995Y-54687688D01*
X69991188Y-54901495D01*
X69823201Y-55152905D01*
X69707489Y-55432257D01*
X69648500Y-55728816D01*
X69648500Y-56031184D01*
X69707489Y-56327743D01*
X69823201Y-56607095D01*
X69904201Y-56728320D01*
X69793908Y-56787273D01*
X69660367Y-56896867D01*
X69550773Y-57030408D01*
X69469338Y-57182763D01*
X69419190Y-57348078D01*
X69402257Y-57520000D01*
X66717485Y-57520000D01*
X66731092Y-57512727D01*
X66864633Y-57403133D01*
X66974227Y-57269592D01*
X67055662Y-57117237D01*
X67105810Y-56951922D01*
X67122743Y-56780000D01*
X67118500Y-56347250D01*
X66899250Y-56128000D01*
X65589500Y-56128000D01*
X65589500Y-56148000D01*
X65093500Y-56148000D01*
X65093500Y-56128000D01*
X63783750Y-56128000D01*
X63564500Y-56347250D01*
X63560257Y-56780000D01*
X50014880Y-56780000D01*
X50093214Y-56715714D01*
X50297531Y-56466752D01*
X50449352Y-56182715D01*
X50542843Y-55874516D01*
X50574411Y-55554000D01*
X50542843Y-55233484D01*
X50465950Y-54980000D01*
X63560257Y-54980000D01*
X63564500Y-55412750D01*
X63783750Y-55632000D01*
X65093500Y-55632000D01*
X65093500Y-54322250D01*
X65589500Y-54322250D01*
X65589500Y-55632000D01*
X66899250Y-55632000D01*
X67118500Y-55412750D01*
X67122743Y-54980000D01*
X67105810Y-54808078D01*
X67055662Y-54642763D01*
X66974227Y-54490408D01*
X66864633Y-54356867D01*
X66731092Y-54247273D01*
X66578737Y-54165838D01*
X66413422Y-54115690D01*
X66241500Y-54098757D01*
X65808750Y-54103000D01*
X65589500Y-54322250D01*
X65093500Y-54322250D01*
X64874250Y-54103000D01*
X64441500Y-54098757D01*
X64269578Y-54115690D01*
X64104263Y-54165838D01*
X63951908Y-54247273D01*
X63818367Y-54356867D01*
X63708773Y-54490408D01*
X63627338Y-54642763D01*
X63577190Y-54808078D01*
X63560257Y-54980000D01*
X50465950Y-54980000D01*
X50449352Y-54925285D01*
X50297531Y-54641248D01*
X50093214Y-54392286D01*
X49844252Y-54187969D01*
X49560215Y-54036148D01*
X49252016Y-53942657D01*
X49011822Y-53919000D01*
X47351178Y-53919000D01*
X47110984Y-53942657D01*
X46802785Y-54036148D01*
X46518748Y-54187969D01*
X46269786Y-54392286D01*
X46065469Y-54641248D01*
X45913648Y-54925285D01*
X45820157Y-55233484D01*
X45788589Y-55554000D01*
X42595000Y-55554000D01*
X42595000Y-50912665D01*
X44746500Y-50912665D01*
X44746500Y-51195335D01*
X44801647Y-51472574D01*
X44909820Y-51733727D01*
X45066863Y-51968759D01*
X45266741Y-52168637D01*
X45501773Y-52325680D01*
X45762926Y-52433853D01*
X46040165Y-52489000D01*
X46322835Y-52489000D01*
X46600074Y-52433853D01*
X46861227Y-52325680D01*
X47096259Y-52168637D01*
X47296137Y-51968759D01*
X47305235Y-51955144D01*
X47388948Y-52313419D01*
X47542283Y-52651419D01*
X47758612Y-52953010D01*
X48029622Y-53206602D01*
X48344898Y-53402450D01*
X48645500Y-53502842D01*
X48933500Y-53343095D01*
X48933500Y-51302000D01*
X49429500Y-51302000D01*
X49429500Y-53343095D01*
X49717500Y-53502842D01*
X50018102Y-53402450D01*
X50333378Y-53206602D01*
X50604388Y-52953010D01*
X50820717Y-52651419D01*
X50974052Y-52313419D01*
X51058500Y-51952000D01*
X51058500Y-51302000D01*
X49429500Y-51302000D01*
X48933500Y-51302000D01*
X48913500Y-51302000D01*
X48913500Y-50806000D01*
X48933500Y-50806000D01*
X48933500Y-48764905D01*
X49429500Y-48764905D01*
X49429500Y-50806000D01*
X51058500Y-50806000D01*
X51058500Y-50156000D01*
X50974052Y-49794581D01*
X50820717Y-49456581D01*
X50604388Y-49154990D01*
X50496462Y-49054000D01*
X53543428Y-49054000D01*
X53543428Y-53054000D01*
X53555688Y-53178482D01*
X53591998Y-53298180D01*
X53650963Y-53408494D01*
X53730315Y-53505185D01*
X53827006Y-53584537D01*
X53937320Y-53643502D01*
X54057018Y-53679812D01*
X54181500Y-53692072D01*
X56181500Y-53692072D01*
X56305982Y-53679812D01*
X56425680Y-53643502D01*
X56535994Y-53584537D01*
X56632685Y-53505185D01*
X56712037Y-53408494D01*
X56771002Y-53298180D01*
X56807312Y-53178482D01*
X56819572Y-53054000D01*
X56819572Y-52690665D01*
X69748500Y-52690665D01*
X69748500Y-52973335D01*
X69803647Y-53250574D01*
X69911820Y-53511727D01*
X70068863Y-53746759D01*
X70268741Y-53946637D01*
X70503773Y-54103680D01*
X70764926Y-54211853D01*
X71042165Y-54267000D01*
X71324835Y-54267000D01*
X71602074Y-54211853D01*
X71863227Y-54103680D01*
X72098259Y-53946637D01*
X72298137Y-53746759D01*
X72455180Y-53511727D01*
X72563353Y-53250574D01*
X72592011Y-53106502D01*
X100816999Y-53106502D01*
X100835492Y-53156148D01*
X100981582Y-53483132D01*
X101188657Y-53775332D01*
X101429589Y-54003377D01*
X101242155Y-54231765D01*
X101094745Y-54507551D01*
X101003970Y-54806796D01*
X100973319Y-55118000D01*
X101003970Y-55429204D01*
X101094745Y-55728449D01*
X101242155Y-56004235D01*
X101440537Y-56245963D01*
X101682265Y-56444345D01*
X101958051Y-56591755D01*
X102257296Y-56682530D01*
X102490514Y-56705500D01*
X102741486Y-56705500D01*
X102974704Y-56682530D01*
X103273949Y-56591755D01*
X103549735Y-56444345D01*
X103791463Y-56245963D01*
X103989845Y-56004235D01*
X104137255Y-55728449D01*
X104228030Y-55429204D01*
X104258681Y-55118000D01*
X104228030Y-54806796D01*
X104137255Y-54507551D01*
X103989845Y-54231765D01*
X103802411Y-54003377D01*
X104043343Y-53775332D01*
X104250418Y-53483132D01*
X104396508Y-53156148D01*
X104415001Y-53106502D01*
X104254538Y-52826000D01*
X102864000Y-52826000D01*
X102864000Y-52846000D01*
X102368000Y-52846000D01*
X102368000Y-52826000D01*
X100977462Y-52826000D01*
X100816999Y-53106502D01*
X72592011Y-53106502D01*
X72618500Y-52973335D01*
X72618500Y-52690665D01*
X72563353Y-52413426D01*
X72455180Y-52152273D01*
X72386509Y-52049498D01*
X100816999Y-52049498D01*
X100977462Y-52330000D01*
X102368000Y-52330000D01*
X102368000Y-52310000D01*
X102864000Y-52310000D01*
X102864000Y-52330000D01*
X104254538Y-52330000D01*
X104415001Y-52049498D01*
X104396508Y-51999852D01*
X104250418Y-51672868D01*
X104077595Y-51429000D01*
X104146537Y-51344994D01*
X104205502Y-51234680D01*
X104241812Y-51114982D01*
X104254072Y-50990500D01*
X104254072Y-49085500D01*
X104241812Y-48961018D01*
X104205502Y-48841320D01*
X104146537Y-48731006D01*
X104067185Y-48634315D01*
X103970494Y-48554963D01*
X103860180Y-48495998D01*
X103740482Y-48459688D01*
X103616000Y-48447428D01*
X101616000Y-48447428D01*
X101491518Y-48459688D01*
X101371820Y-48495998D01*
X101261506Y-48554963D01*
X101164815Y-48634315D01*
X101085463Y-48731006D01*
X101026498Y-48841320D01*
X100990188Y-48961018D01*
X100977928Y-49085500D01*
X100977928Y-50990500D01*
X100990188Y-51114982D01*
X101026498Y-51234680D01*
X101085463Y-51344994D01*
X101154405Y-51429000D01*
X100981582Y-51672868D01*
X100835492Y-51999852D01*
X100816999Y-52049498D01*
X72386509Y-52049498D01*
X72298137Y-51917241D01*
X72098259Y-51717363D01*
X71863227Y-51560320D01*
X71602074Y-51452147D01*
X71324835Y-51397000D01*
X71042165Y-51397000D01*
X70764926Y-51452147D01*
X70503773Y-51560320D01*
X70268741Y-51717363D01*
X70068863Y-51917241D01*
X69911820Y-52152273D01*
X69803647Y-52413426D01*
X69748500Y-52690665D01*
X56819572Y-52690665D01*
X56819572Y-51054000D01*
X58819557Y-51054000D01*
X58847264Y-51335309D01*
X58929318Y-51605808D01*
X59062568Y-51855101D01*
X59241892Y-52073608D01*
X59460399Y-52252932D01*
X59709692Y-52386182D01*
X59980191Y-52468236D01*
X60191008Y-52489000D01*
X60331992Y-52489000D01*
X60542809Y-52468236D01*
X60813308Y-52386182D01*
X61062601Y-52252932D01*
X61281108Y-52073608D01*
X61460432Y-51855101D01*
X61593682Y-51605808D01*
X61675736Y-51335309D01*
X61703443Y-51054000D01*
X61675736Y-50772691D01*
X61593682Y-50502192D01*
X61460432Y-50252899D01*
X61281108Y-50034392D01*
X61062601Y-49855068D01*
X60813308Y-49721818D01*
X60542809Y-49639764D01*
X60331992Y-49619000D01*
X60191008Y-49619000D01*
X59980191Y-49639764D01*
X59709692Y-49721818D01*
X59460399Y-49855068D01*
X59241892Y-50034392D01*
X59062568Y-50252899D01*
X58929318Y-50502192D01*
X58847264Y-50772691D01*
X58819557Y-51054000D01*
X56819572Y-51054000D01*
X56819572Y-49054000D01*
X56807312Y-48929518D01*
X56771002Y-48809820D01*
X56712037Y-48699506D01*
X56632685Y-48602815D01*
X56535994Y-48523463D01*
X56425680Y-48464498D01*
X56305982Y-48428188D01*
X56181500Y-48415928D01*
X54181500Y-48415928D01*
X54057018Y-48428188D01*
X53937320Y-48464498D01*
X53827006Y-48523463D01*
X53730315Y-48602815D01*
X53650963Y-48699506D01*
X53591998Y-48809820D01*
X53555688Y-48929518D01*
X53543428Y-49054000D01*
X50496462Y-49054000D01*
X50333378Y-48901398D01*
X50018102Y-48705550D01*
X49717500Y-48605158D01*
X49429500Y-48764905D01*
X48933500Y-48764905D01*
X48645500Y-48605158D01*
X48344898Y-48705550D01*
X48029622Y-48901398D01*
X47758612Y-49154990D01*
X47542283Y-49456581D01*
X47388948Y-49794581D01*
X47305235Y-50152856D01*
X47296137Y-50139241D01*
X47096259Y-49939363D01*
X46861227Y-49782320D01*
X46600074Y-49674147D01*
X46322835Y-49619000D01*
X46040165Y-49619000D01*
X45762926Y-49674147D01*
X45501773Y-49782320D01*
X45266741Y-49939363D01*
X45066863Y-50139241D01*
X44909820Y-50374273D01*
X44801647Y-50635426D01*
X44746500Y-50912665D01*
X42595000Y-50912665D01*
X42595000Y-46554000D01*
X45788589Y-46554000D01*
X45820157Y-46874516D01*
X45913648Y-47182715D01*
X46065469Y-47466752D01*
X46269786Y-47715714D01*
X46518748Y-47920031D01*
X46802785Y-48071852D01*
X47110984Y-48165343D01*
X47351178Y-48189000D01*
X49011822Y-48189000D01*
X49252016Y-48165343D01*
X49560215Y-48071852D01*
X49844252Y-47920031D01*
X50093214Y-47715714D01*
X50297531Y-47466752D01*
X50449352Y-47182715D01*
X50492307Y-47041108D01*
X62011500Y-47041108D01*
X62011500Y-47446892D01*
X62090665Y-47844880D01*
X62245952Y-48219776D01*
X62471394Y-48557173D01*
X62758327Y-48844106D01*
X63095724Y-49069548D01*
X63470620Y-49224835D01*
X63868608Y-49304000D01*
X64274392Y-49304000D01*
X64606195Y-49238000D01*
X96097928Y-49238000D01*
X96097928Y-50838000D01*
X96110188Y-50962482D01*
X96146498Y-51082180D01*
X96205463Y-51192494D01*
X96284815Y-51289185D01*
X96381506Y-51368537D01*
X96491820Y-51427502D01*
X96611518Y-51463812D01*
X96736000Y-51476072D01*
X98336000Y-51476072D01*
X98460482Y-51463812D01*
X98580180Y-51427502D01*
X98690494Y-51368537D01*
X98787185Y-51289185D01*
X98866537Y-51192494D01*
X98925502Y-51082180D01*
X98961812Y-50962482D01*
X98974072Y-50838000D01*
X98974072Y-49238000D01*
X98961812Y-49113518D01*
X98925502Y-48993820D01*
X98866537Y-48883506D01*
X98787185Y-48786815D01*
X98690494Y-48707463D01*
X98580180Y-48648498D01*
X98460482Y-48612188D01*
X98336000Y-48599928D01*
X98247203Y-48599928D01*
X97536000Y-47888725D01*
X96824797Y-48599928D01*
X96736000Y-48599928D01*
X96611518Y-48612188D01*
X96491820Y-48648498D01*
X96381506Y-48707463D01*
X96284815Y-48786815D01*
X96205463Y-48883506D01*
X96146498Y-48993820D01*
X96110188Y-49113518D01*
X96097928Y-49238000D01*
X64606195Y-49238000D01*
X64672380Y-49224835D01*
X65047276Y-49069548D01*
X65384673Y-48844106D01*
X65671606Y-48557173D01*
X65897048Y-48219776D01*
X66052335Y-47844880D01*
X66131500Y-47446892D01*
X66131500Y-47390049D01*
X95857393Y-47390049D01*
X95860783Y-47720371D01*
X95928551Y-48043686D01*
X96041788Y-48317064D01*
X96339057Y-48384218D01*
X97185275Y-47538000D01*
X97886725Y-47538000D01*
X98732943Y-48384218D01*
X99030212Y-48317064D01*
X99153489Y-48010588D01*
X99214607Y-47685951D01*
X99211217Y-47355629D01*
X99143449Y-47032314D01*
X99030212Y-46758936D01*
X98732943Y-46691782D01*
X97886725Y-47538000D01*
X97185275Y-47538000D01*
X96339057Y-46691782D01*
X96041788Y-46758936D01*
X95918511Y-47065412D01*
X95857393Y-47390049D01*
X66131500Y-47390049D01*
X66131500Y-47041108D01*
X66052335Y-46643120D01*
X65927217Y-46341057D01*
X96689782Y-46341057D01*
X97536000Y-47187275D01*
X98382218Y-46341057D01*
X98315064Y-46043788D01*
X98008588Y-45920511D01*
X97683951Y-45859393D01*
X97353629Y-45862783D01*
X97030314Y-45930551D01*
X96756936Y-46043788D01*
X96689782Y-46341057D01*
X65927217Y-46341057D01*
X65897048Y-46268224D01*
X65671606Y-45930827D01*
X65384673Y-45643894D01*
X65047276Y-45418452D01*
X64672380Y-45263165D01*
X64274392Y-45184000D01*
X63868608Y-45184000D01*
X63470620Y-45263165D01*
X63095724Y-45418452D01*
X62758327Y-45643894D01*
X62471394Y-45930827D01*
X62245952Y-46268224D01*
X62090665Y-46643120D01*
X62011500Y-47041108D01*
X50492307Y-47041108D01*
X50542843Y-46874516D01*
X50574411Y-46554000D01*
X50542843Y-46233484D01*
X50449352Y-45925285D01*
X50297531Y-45641248D01*
X50093214Y-45392286D01*
X49844252Y-45187969D01*
X49560215Y-45036148D01*
X49252016Y-44942657D01*
X49011822Y-44919000D01*
X47351178Y-44919000D01*
X47110984Y-44942657D01*
X46802785Y-45036148D01*
X46518748Y-45187969D01*
X46269786Y-45392286D01*
X46065469Y-45641248D01*
X45913648Y-45925285D01*
X45820157Y-46233484D01*
X45788589Y-46554000D01*
X42595000Y-46554000D01*
X42595000Y-42341108D01*
X62011500Y-42341108D01*
X62011500Y-42746892D01*
X62090665Y-43144880D01*
X62245952Y-43519776D01*
X62471394Y-43857173D01*
X62758327Y-44144106D01*
X63095724Y-44369548D01*
X63470620Y-44524835D01*
X63868608Y-44604000D01*
X64274392Y-44604000D01*
X64672380Y-44524835D01*
X65047276Y-44369548D01*
X65384673Y-44144106D01*
X65671606Y-43857173D01*
X65897048Y-43519776D01*
X66052335Y-43144880D01*
X66131500Y-42746892D01*
X66131500Y-42672000D01*
X69741557Y-42672000D01*
X69769264Y-42953309D01*
X69851318Y-43223808D01*
X69984568Y-43473101D01*
X70163892Y-43691608D01*
X70382399Y-43870932D01*
X70631692Y-44004182D01*
X70902191Y-44086236D01*
X71113008Y-44107000D01*
X71253992Y-44107000D01*
X71464809Y-44086236D01*
X71735308Y-44004182D01*
X71984601Y-43870932D01*
X72203108Y-43691608D01*
X72382432Y-43473101D01*
X72515682Y-43223808D01*
X72597736Y-42953309D01*
X72625443Y-42672000D01*
X72597736Y-42390691D01*
X72515682Y-42120192D01*
X72382432Y-41870899D01*
X72203108Y-41652392D01*
X71984601Y-41473068D01*
X71735308Y-41339818D01*
X71464809Y-41257764D01*
X71253992Y-41237000D01*
X71113008Y-41237000D01*
X70902191Y-41257764D01*
X70631692Y-41339818D01*
X70382399Y-41473068D01*
X70163892Y-41652392D01*
X69984568Y-41870899D01*
X69851318Y-42120192D01*
X69769264Y-42390691D01*
X69741557Y-42672000D01*
X66131500Y-42672000D01*
X66131500Y-42341108D01*
X66052335Y-41943120D01*
X65897048Y-41568224D01*
X65671606Y-41230827D01*
X65384673Y-40943894D01*
X65047276Y-40718452D01*
X64672380Y-40563165D01*
X64274392Y-40484000D01*
X63868608Y-40484000D01*
X63470620Y-40563165D01*
X63095724Y-40718452D01*
X62758327Y-40943894D01*
X62471394Y-41230827D01*
X62245952Y-41568224D01*
X62090665Y-41943120D01*
X62011500Y-42341108D01*
X42595000Y-42341108D01*
X42595000Y-39042943D01*
X43095782Y-39042943D01*
X43162936Y-39340212D01*
X43469412Y-39463489D01*
X43794049Y-39524607D01*
X44124371Y-39521217D01*
X44447686Y-39453449D01*
X44721064Y-39340212D01*
X44788218Y-39042943D01*
X43942000Y-38196725D01*
X43095782Y-39042943D01*
X42595000Y-39042943D01*
X42595000Y-38658320D01*
X42745057Y-38692218D01*
X43591275Y-37846000D01*
X44292725Y-37846000D01*
X45138943Y-38692218D01*
X45436212Y-38625064D01*
X45559489Y-38318588D01*
X45620607Y-37993951D01*
X45619089Y-37846000D01*
X52660057Y-37846000D01*
X52687764Y-38127309D01*
X52769818Y-38397808D01*
X52903068Y-38647101D01*
X53082392Y-38865608D01*
X53300899Y-39044932D01*
X53550192Y-39178182D01*
X53820691Y-39260236D01*
X54031508Y-39281000D01*
X54172492Y-39281000D01*
X54383309Y-39260236D01*
X54653808Y-39178182D01*
X54903101Y-39044932D01*
X55121608Y-38865608D01*
X55300932Y-38647101D01*
X55434182Y-38397808D01*
X55516236Y-38127309D01*
X55543943Y-37846000D01*
X55516236Y-37564691D01*
X55434182Y-37294192D01*
X55300932Y-37044899D01*
X55121608Y-36826392D01*
X54903101Y-36647068D01*
X54653808Y-36513818D01*
X54383309Y-36431764D01*
X54253717Y-36419000D01*
X62008428Y-36419000D01*
X62008428Y-39269000D01*
X62020688Y-39393482D01*
X62056998Y-39513180D01*
X62115963Y-39623494D01*
X62195315Y-39720185D01*
X62292006Y-39799537D01*
X62402320Y-39858502D01*
X62522018Y-39894812D01*
X62646500Y-39907072D01*
X65496500Y-39907072D01*
X65620982Y-39894812D01*
X65740680Y-39858502D01*
X65850994Y-39799537D01*
X65947685Y-39720185D01*
X66027037Y-39623494D01*
X66086002Y-39513180D01*
X66122312Y-39393482D01*
X66134572Y-39269000D01*
X66134572Y-38104310D01*
X82678729Y-38104310D01*
X82810366Y-38416223D01*
X83000325Y-38696461D01*
X83241306Y-38934256D01*
X83524048Y-39120468D01*
X83815691Y-39241263D01*
X84080000Y-39079214D01*
X84080000Y-37840000D01*
X84576000Y-37840000D01*
X84576000Y-39079214D01*
X84840309Y-39241263D01*
X85131952Y-39120468D01*
X85414694Y-38934256D01*
X85598000Y-38753373D01*
X85781306Y-38934256D01*
X86064048Y-39120468D01*
X86355691Y-39241263D01*
X86620000Y-39079214D01*
X86620000Y-37840000D01*
X87116000Y-37840000D01*
X87116000Y-39079214D01*
X87380309Y-39241263D01*
X87671952Y-39120468D01*
X87954694Y-38934256D01*
X88195675Y-38696461D01*
X88385634Y-38416223D01*
X88517271Y-38104310D01*
X88357859Y-37840000D01*
X87116000Y-37840000D01*
X86620000Y-37840000D01*
X84576000Y-37840000D01*
X84080000Y-37840000D01*
X82838141Y-37840000D01*
X82678729Y-38104310D01*
X66134572Y-38104310D01*
X66134572Y-37079690D01*
X82678729Y-37079690D01*
X82838141Y-37344000D01*
X84080000Y-37344000D01*
X84080000Y-37324000D01*
X84576000Y-37324000D01*
X84576000Y-37344000D01*
X86620000Y-37344000D01*
X86620000Y-37324000D01*
X87116000Y-37324000D01*
X87116000Y-37344000D01*
X88357859Y-37344000D01*
X88517271Y-37079690D01*
X88385634Y-36767777D01*
X88195675Y-36487539D01*
X87954694Y-36249744D01*
X87840779Y-36174721D01*
X87923134Y-36107134D01*
X88108706Y-35881014D01*
X88246599Y-35623034D01*
X88331513Y-35343111D01*
X88360185Y-35052000D01*
X88331513Y-34760889D01*
X88246599Y-34480966D01*
X88108706Y-34222986D01*
X87923134Y-33996866D01*
X87697014Y-33811294D01*
X87439034Y-33673401D01*
X87159111Y-33588487D01*
X86940950Y-33567000D01*
X86795050Y-33567000D01*
X86576889Y-33588487D01*
X86296966Y-33673401D01*
X86038986Y-33811294D01*
X85812866Y-33996866D01*
X85788393Y-34026687D01*
X85767502Y-33957820D01*
X85708537Y-33847506D01*
X85629185Y-33750815D01*
X85532494Y-33671463D01*
X85422180Y-33612498D01*
X85302482Y-33576188D01*
X85178000Y-33563928D01*
X83478000Y-33563928D01*
X83353518Y-33576188D01*
X83233820Y-33612498D01*
X83123506Y-33671463D01*
X83026815Y-33750815D01*
X82947463Y-33847506D01*
X82888498Y-33957820D01*
X82852188Y-34077518D01*
X82839928Y-34202000D01*
X82839928Y-35902000D01*
X82852188Y-36026482D01*
X82888498Y-36146180D01*
X82947463Y-36256494D01*
X83026815Y-36353185D01*
X83086686Y-36402320D01*
X83000325Y-36487539D01*
X82810366Y-36767777D01*
X82678729Y-37079690D01*
X66134572Y-37079690D01*
X66134572Y-36419000D01*
X66122312Y-36294518D01*
X66086002Y-36174820D01*
X66027037Y-36064506D01*
X65947685Y-35967815D01*
X65850994Y-35888463D01*
X65740680Y-35829498D01*
X65620982Y-35793188D01*
X65496500Y-35780928D01*
X62646500Y-35780928D01*
X62522018Y-35793188D01*
X62402320Y-35829498D01*
X62292006Y-35888463D01*
X62195315Y-35967815D01*
X62115963Y-36064506D01*
X62056998Y-36174820D01*
X62020688Y-36294518D01*
X62008428Y-36419000D01*
X54253717Y-36419000D01*
X54172492Y-36411000D01*
X54031508Y-36411000D01*
X53820691Y-36431764D01*
X53550192Y-36513818D01*
X53300899Y-36647068D01*
X53082392Y-36826392D01*
X52903068Y-37044899D01*
X52769818Y-37294192D01*
X52687764Y-37564691D01*
X52660057Y-37846000D01*
X45619089Y-37846000D01*
X45617217Y-37663629D01*
X45549449Y-37340314D01*
X45436212Y-37066936D01*
X45138943Y-36999782D01*
X44292725Y-37846000D01*
X43591275Y-37846000D01*
X42745057Y-36999782D01*
X42595000Y-37033680D01*
X42595000Y-36649057D01*
X43095782Y-36649057D01*
X43942000Y-37495275D01*
X44788218Y-36649057D01*
X44721064Y-36351788D01*
X44414588Y-36228511D01*
X44089951Y-36167393D01*
X43759629Y-36170783D01*
X43436314Y-36238551D01*
X43162936Y-36351788D01*
X43095782Y-36649057D01*
X42595000Y-36649057D01*
X42595000Y-34951552D01*
X67893255Y-34951552D01*
X67902111Y-35242361D01*
X67967531Y-35525855D01*
X68044411Y-35711458D01*
X68321580Y-35753695D01*
X69023275Y-35052000D01*
X68321580Y-34350305D01*
X68044411Y-34392542D01*
X67941304Y-34664603D01*
X67893255Y-34951552D01*
X42595000Y-34951552D01*
X42595000Y-33999580D01*
X68672305Y-33999580D01*
X69374000Y-34701275D01*
X69388143Y-34687133D01*
X69738868Y-35037858D01*
X69724725Y-35052000D01*
X69738868Y-35066143D01*
X69388143Y-35416868D01*
X69374000Y-35402725D01*
X68672305Y-36104420D01*
X68714542Y-36381589D01*
X68986603Y-36484696D01*
X69273552Y-36532745D01*
X69564361Y-36523889D01*
X69847855Y-36458469D01*
X70033458Y-36381589D01*
X70075695Y-36104422D01*
X70247652Y-36276379D01*
X70376658Y-36147373D01*
X70419506Y-36182537D01*
X70529820Y-36241502D01*
X70649518Y-36277812D01*
X70774000Y-36290072D01*
X71974000Y-36290072D01*
X72098482Y-36277812D01*
X72218180Y-36241502D01*
X72328494Y-36182537D01*
X72425185Y-36103185D01*
X72504537Y-36006494D01*
X72563502Y-35896180D01*
X72599812Y-35776482D01*
X72612072Y-35652000D01*
X72612072Y-34452000D01*
X72599812Y-34327518D01*
X72576904Y-34252000D01*
X75015928Y-34252000D01*
X75015928Y-35852000D01*
X75028188Y-35976482D01*
X75064498Y-36096180D01*
X75123463Y-36206494D01*
X75202815Y-36303185D01*
X75299506Y-36382537D01*
X75409820Y-36441502D01*
X75529518Y-36477812D01*
X75654000Y-36490072D01*
X77254000Y-36490072D01*
X77378482Y-36477812D01*
X77498180Y-36441502D01*
X77608494Y-36382537D01*
X77705185Y-36303185D01*
X77749700Y-36248943D01*
X78107782Y-36248943D01*
X78174936Y-36546212D01*
X78481412Y-36669489D01*
X78806049Y-36730607D01*
X79136371Y-36727217D01*
X79459686Y-36659449D01*
X79733064Y-36546212D01*
X79800218Y-36248943D01*
X78954000Y-35402725D01*
X78107782Y-36248943D01*
X77749700Y-36248943D01*
X77784537Y-36206494D01*
X77843502Y-36096180D01*
X77879812Y-35976482D01*
X77892072Y-35852000D01*
X77892072Y-35763203D01*
X78603275Y-35052000D01*
X79304725Y-35052000D01*
X80150943Y-35898218D01*
X80448212Y-35831064D01*
X80571489Y-35524588D01*
X80632607Y-35199951D01*
X80629217Y-34869629D01*
X80561449Y-34546314D01*
X80448212Y-34272936D01*
X80150943Y-34205782D01*
X79304725Y-35052000D01*
X78603275Y-35052000D01*
X77892072Y-34340797D01*
X77892072Y-34252000D01*
X77879812Y-34127518D01*
X77843502Y-34007820D01*
X77784537Y-33897506D01*
X77749701Y-33855057D01*
X78107782Y-33855057D01*
X78954000Y-34701275D01*
X79800218Y-33855057D01*
X79733064Y-33557788D01*
X79426588Y-33434511D01*
X79101951Y-33373393D01*
X78771629Y-33376783D01*
X78448314Y-33444551D01*
X78174936Y-33557788D01*
X78107782Y-33855057D01*
X77749701Y-33855057D01*
X77705185Y-33800815D01*
X77608494Y-33721463D01*
X77498180Y-33662498D01*
X77378482Y-33626188D01*
X77254000Y-33613928D01*
X75654000Y-33613928D01*
X75529518Y-33626188D01*
X75409820Y-33662498D01*
X75299506Y-33721463D01*
X75202815Y-33800815D01*
X75123463Y-33897506D01*
X75064498Y-34007820D01*
X75028188Y-34127518D01*
X75015928Y-34252000D01*
X72576904Y-34252000D01*
X72563502Y-34207820D01*
X72504537Y-34097506D01*
X72425185Y-34000815D01*
X72328494Y-33921463D01*
X72218180Y-33862498D01*
X72098482Y-33826188D01*
X71974000Y-33813928D01*
X70774000Y-33813928D01*
X70649518Y-33826188D01*
X70529820Y-33862498D01*
X70419506Y-33921463D01*
X70376658Y-33956627D01*
X70247652Y-33827621D01*
X70075695Y-33999578D01*
X70033458Y-33722411D01*
X69761397Y-33619304D01*
X69474448Y-33571255D01*
X69183639Y-33580111D01*
X68900145Y-33645531D01*
X68714542Y-33722411D01*
X68672305Y-33999580D01*
X42595000Y-33999580D01*
X42595000Y-30139041D01*
X43871684Y-30139041D01*
X44109125Y-30579101D01*
X44654941Y-30842658D01*
X45241686Y-30994667D01*
X45846813Y-31029287D01*
X46447066Y-30945188D01*
X47019379Y-30745600D01*
X47330875Y-30579101D01*
X47568316Y-30139041D01*
X45720000Y-28290725D01*
X43871684Y-30139041D01*
X42595000Y-30139041D01*
X42595000Y-28066813D01*
X42630713Y-28066813D01*
X42714812Y-28667066D01*
X42914400Y-29239379D01*
X43080899Y-29550875D01*
X43520959Y-29788316D01*
X45369275Y-27940000D01*
X46070725Y-27940000D01*
X47919041Y-29788316D01*
X48359101Y-29550875D01*
X48622658Y-29005059D01*
X48631222Y-28972000D01*
X69783428Y-28972000D01*
X69783428Y-30972000D01*
X69795688Y-31096482D01*
X69831998Y-31216180D01*
X69890963Y-31326494D01*
X69970315Y-31423185D01*
X70067006Y-31502537D01*
X70177320Y-31561502D01*
X70297018Y-31597812D01*
X70421500Y-31610072D01*
X72326500Y-31610072D01*
X72450982Y-31597812D01*
X72570680Y-31561502D01*
X72680994Y-31502537D01*
X72765000Y-31433595D01*
X73008868Y-31606418D01*
X73335852Y-31752508D01*
X73385498Y-31771001D01*
X73666000Y-31610538D01*
X73666000Y-30220000D01*
X73646000Y-30220000D01*
X73646000Y-29724000D01*
X73666000Y-29724000D01*
X73666000Y-28333462D01*
X74162000Y-28333462D01*
X74162000Y-29724000D01*
X74182000Y-29724000D01*
X74182000Y-30220000D01*
X74162000Y-30220000D01*
X74162000Y-31610538D01*
X74442502Y-31771001D01*
X74492148Y-31752508D01*
X74819132Y-31606418D01*
X75111332Y-31399343D01*
X75339377Y-31158411D01*
X75567766Y-31345845D01*
X75843552Y-31493255D01*
X76142797Y-31584030D01*
X76454000Y-31614681D01*
X76765204Y-31584030D01*
X77064449Y-31493255D01*
X77340235Y-31345845D01*
X77581963Y-31147463D01*
X77780345Y-30905734D01*
X77927755Y-30629948D01*
X78018530Y-30330703D01*
X78037407Y-30139041D01*
X103561684Y-30139041D01*
X103799125Y-30579101D01*
X104344941Y-30842658D01*
X104931686Y-30994667D01*
X105536813Y-31029287D01*
X106137066Y-30945188D01*
X106709379Y-30745600D01*
X107020875Y-30579101D01*
X107258316Y-30139041D01*
X105410000Y-28290725D01*
X103561684Y-30139041D01*
X78037407Y-30139041D01*
X78041500Y-30097485D01*
X78041500Y-29846514D01*
X78018530Y-29613296D01*
X77927755Y-29314051D01*
X77780345Y-29038265D01*
X77581963Y-28796537D01*
X77340234Y-28598155D01*
X77064448Y-28450745D01*
X76765203Y-28359970D01*
X76454000Y-28329319D01*
X76142796Y-28359970D01*
X75843551Y-28450745D01*
X75567765Y-28598155D01*
X75339377Y-28785589D01*
X75111332Y-28544657D01*
X74819132Y-28337582D01*
X74492148Y-28191492D01*
X74442502Y-28172999D01*
X74162000Y-28333462D01*
X73666000Y-28333462D01*
X73385498Y-28172999D01*
X73335852Y-28191492D01*
X73008868Y-28337582D01*
X72765000Y-28510405D01*
X72680994Y-28441463D01*
X72570680Y-28382498D01*
X72450982Y-28346188D01*
X72326500Y-28333928D01*
X70421500Y-28333928D01*
X70297018Y-28346188D01*
X70177320Y-28382498D01*
X70067006Y-28441463D01*
X69970315Y-28520815D01*
X69890963Y-28617506D01*
X69831998Y-28727820D01*
X69795688Y-28847518D01*
X69783428Y-28972000D01*
X48631222Y-28972000D01*
X48774667Y-28418314D01*
X48794776Y-28066813D01*
X102320713Y-28066813D01*
X102404812Y-28667066D01*
X102604400Y-29239379D01*
X102770899Y-29550875D01*
X103210959Y-29788316D01*
X105059275Y-27940000D01*
X105760725Y-27940000D01*
X107609041Y-29788316D01*
X108049101Y-29550875D01*
X108312658Y-29005059D01*
X108464667Y-28418314D01*
X108499287Y-27813187D01*
X108415188Y-27212934D01*
X108215600Y-26640621D01*
X108049101Y-26329125D01*
X107609041Y-26091684D01*
X105760725Y-27940000D01*
X105059275Y-27940000D01*
X103210959Y-26091684D01*
X102770899Y-26329125D01*
X102507342Y-26874941D01*
X102355333Y-27461686D01*
X102320713Y-28066813D01*
X48794776Y-28066813D01*
X48809287Y-27813187D01*
X48725188Y-27212934D01*
X48525600Y-26640621D01*
X48359101Y-26329125D01*
X47919041Y-26091684D01*
X46070725Y-27940000D01*
X45369275Y-27940000D01*
X43520959Y-26091684D01*
X43080899Y-26329125D01*
X42817342Y-26874941D01*
X42665333Y-27461686D01*
X42630713Y-28066813D01*
X42595000Y-28066813D01*
X42595000Y-26703504D01*
X42633551Y-26310332D01*
X42738004Y-25964366D01*
X42856791Y-25740959D01*
X43871684Y-25740959D01*
X45720000Y-27589275D01*
X47568316Y-25740959D01*
X103561684Y-25740959D01*
X105410000Y-27589275D01*
X107258316Y-25740959D01*
X107020875Y-25300899D01*
X106475059Y-25037342D01*
X105888314Y-24885333D01*
X105283187Y-24850713D01*
X104682934Y-24934812D01*
X104110621Y-25134400D01*
X103799125Y-25300899D01*
X103561684Y-25740959D01*
X47568316Y-25740959D01*
X47330875Y-25300899D01*
X46785059Y-25037342D01*
X46198314Y-24885333D01*
X45593187Y-24850713D01*
X44992934Y-24934812D01*
X44420621Y-25134400D01*
X44109125Y-25300899D01*
X43871684Y-25740959D01*
X42856791Y-25740959D01*
X42907667Y-25645276D01*
X43136076Y-25365219D01*
X43414534Y-25134859D01*
X43732430Y-24962973D01*
X44077658Y-24856107D01*
X44468753Y-24815000D01*
X106646496Y-24815000D01*
X107039668Y-24853551D01*
X107039668Y-24853551D01*
G37*
X107039668Y-24853551D02*
X107385634Y-24958004D01*
X107704724Y-25127667D01*
X107984781Y-25356076D01*
X108215141Y-25634534D01*
X108387027Y-25952430D01*
X108493893Y-26297658D01*
X108535000Y-26688753D01*
X108535001Y-72356485D01*
X108496449Y-72749667D01*
X108391996Y-73095635D01*
X108222333Y-73414724D01*
X107993924Y-73694781D01*
X107715466Y-73925141D01*
X107397570Y-74097027D01*
X107052340Y-74203894D01*
X106661238Y-74245000D01*
X44483505Y-74245000D01*
X44090333Y-74206449D01*
X43744365Y-74101996D01*
X43425276Y-73932333D01*
X43145219Y-73703924D01*
X42914859Y-73425466D01*
X42857316Y-73319041D01*
X43871684Y-73319041D01*
X44109125Y-73759101D01*
X44654941Y-74022658D01*
X45241686Y-74174667D01*
X45846813Y-74209287D01*
X46447066Y-74125188D01*
X47019379Y-73925600D01*
X47330875Y-73759101D01*
X47568316Y-73319041D01*
X103561684Y-73319041D01*
X103799125Y-73759101D01*
X104344941Y-74022658D01*
X104931686Y-74174667D01*
X105536813Y-74209287D01*
X106137066Y-74125188D01*
X106709379Y-73925600D01*
X107020875Y-73759101D01*
X107258316Y-73319041D01*
X105410000Y-71470725D01*
X103561684Y-73319041D01*
X47568316Y-73319041D01*
X45720000Y-71470725D01*
X43871684Y-73319041D01*
X42857316Y-73319041D01*
X42742973Y-73107570D01*
X42636106Y-72762340D01*
X42595000Y-72371238D01*
X42595000Y-71246813D01*
X42630713Y-71246813D01*
X42714812Y-71847066D01*
X42914400Y-72419379D01*
X43080899Y-72730875D01*
X43520959Y-72968316D01*
X45369275Y-71120000D01*
X46070725Y-71120000D01*
X47919041Y-72968316D01*
X48359101Y-72730875D01*
X48622658Y-72185059D01*
X48774667Y-71598314D01*
X48809287Y-70993187D01*
X48725188Y-70392934D01*
X48525600Y-69820621D01*
X48359101Y-69509125D01*
X48287542Y-69470514D01*
X63690500Y-69470514D01*
X63690500Y-69721485D01*
X63713470Y-69954703D01*
X63804245Y-70253948D01*
X63951655Y-70529734D01*
X64150037Y-70771463D01*
X64391765Y-70969845D01*
X64667551Y-71117255D01*
X64966796Y-71208030D01*
X65278000Y-71238681D01*
X65589203Y-71208030D01*
X65888448Y-71117255D01*
X66164234Y-70969845D01*
X66392623Y-70782411D01*
X66620668Y-71023343D01*
X66912868Y-71230418D01*
X67239852Y-71376508D01*
X67289498Y-71395001D01*
X67570000Y-71234538D01*
X67570000Y-69844000D01*
X67550000Y-69844000D01*
X67550000Y-69348000D01*
X67570000Y-69348000D01*
X67570000Y-67957462D01*
X68066000Y-67957462D01*
X68066000Y-69348000D01*
X68086000Y-69348000D01*
X68086000Y-69844000D01*
X68066000Y-69844000D01*
X68066000Y-71234538D01*
X68346502Y-71395001D01*
X68396148Y-71376508D01*
X68686436Y-71246813D01*
X102320713Y-71246813D01*
X102404812Y-71847066D01*
X102604400Y-72419379D01*
X102770899Y-72730875D01*
X103210959Y-72968316D01*
X105059275Y-71120000D01*
X105760725Y-71120000D01*
X107609041Y-72968316D01*
X108049101Y-72730875D01*
X108312658Y-72185059D01*
X108464667Y-71598314D01*
X108499287Y-70993187D01*
X108415188Y-70392934D01*
X108215600Y-69820621D01*
X108049101Y-69509125D01*
X107609041Y-69271684D01*
X105760725Y-71120000D01*
X105059275Y-71120000D01*
X103210959Y-69271684D01*
X102770899Y-69509125D01*
X102507342Y-70054941D01*
X102355333Y-70641686D01*
X102320713Y-71246813D01*
X68686436Y-71246813D01*
X68723132Y-71230418D01*
X68967000Y-71057595D01*
X69051006Y-71126537D01*
X69161320Y-71185502D01*
X69281018Y-71221812D01*
X69405500Y-71234072D01*
X71310500Y-71234072D01*
X71434982Y-71221812D01*
X71554680Y-71185502D01*
X71664994Y-71126537D01*
X71761685Y-71047185D01*
X71841037Y-70950494D01*
X71900002Y-70840180D01*
X71936312Y-70720482D01*
X71948572Y-70596000D01*
X71948572Y-68920959D01*
X103561684Y-68920959D01*
X105410000Y-70769275D01*
X107258316Y-68920959D01*
X107020875Y-68480899D01*
X106475059Y-68217342D01*
X105888314Y-68065333D01*
X105283187Y-68030713D01*
X104682934Y-68114812D01*
X104110621Y-68314400D01*
X103799125Y-68480899D01*
X103561684Y-68920959D01*
X71948572Y-68920959D01*
X71948572Y-68596000D01*
X71936312Y-68471518D01*
X71900002Y-68351820D01*
X71841037Y-68241506D01*
X71761685Y-68144815D01*
X71664994Y-68065463D01*
X71554680Y-68006498D01*
X71434982Y-67970188D01*
X71310500Y-67957928D01*
X69405500Y-67957928D01*
X69281018Y-67970188D01*
X69161320Y-68006498D01*
X69051006Y-68065463D01*
X68967000Y-68134405D01*
X68723132Y-67961582D01*
X68396148Y-67815492D01*
X68346502Y-67796999D01*
X68066000Y-67957462D01*
X67570000Y-67957462D01*
X67289498Y-67796999D01*
X67239852Y-67815492D01*
X66912868Y-67961582D01*
X66620668Y-68168657D01*
X66392623Y-68409589D01*
X66164235Y-68222155D01*
X65888449Y-68074745D01*
X65589204Y-67983970D01*
X65278000Y-67953319D01*
X64966797Y-67983970D01*
X64667552Y-68074745D01*
X64391766Y-68222155D01*
X64150037Y-68420537D01*
X63951655Y-68662265D01*
X63804245Y-68938051D01*
X63713470Y-69237296D01*
X63690500Y-69470514D01*
X48287542Y-69470514D01*
X47919041Y-69271684D01*
X46070725Y-71120000D01*
X45369275Y-71120000D01*
X43520959Y-69271684D01*
X43080899Y-69509125D01*
X42817342Y-70054941D01*
X42665333Y-70641686D01*
X42630713Y-71246813D01*
X42595000Y-71246813D01*
X42595000Y-68920959D01*
X43871684Y-68920959D01*
X45720000Y-70769275D01*
X47568316Y-68920959D01*
X47330875Y-68480899D01*
X46785059Y-68217342D01*
X46198314Y-68065333D01*
X45593187Y-68030713D01*
X44992934Y-68114812D01*
X44420621Y-68314400D01*
X44109125Y-68480899D01*
X43871684Y-68920959D01*
X42595000Y-68920959D01*
X42595000Y-64415552D01*
X61797255Y-64415552D01*
X61806111Y-64706361D01*
X61871531Y-64989855D01*
X61948411Y-65175458D01*
X62225580Y-65217695D01*
X62927275Y-64516000D01*
X62225580Y-63814305D01*
X61948411Y-63856542D01*
X61845304Y-64128603D01*
X61797255Y-64415552D01*
X42595000Y-64415552D01*
X42595000Y-63463580D01*
X62576305Y-63463580D01*
X63278000Y-64165275D01*
X63292143Y-64151133D01*
X63642868Y-64501858D01*
X63628725Y-64516000D01*
X63642868Y-64530143D01*
X63292143Y-64880868D01*
X63278000Y-64866725D01*
X62576305Y-65568420D01*
X62618542Y-65845589D01*
X62890603Y-65948696D01*
X63177552Y-65996745D01*
X63468361Y-65987889D01*
X63751855Y-65922469D01*
X63937458Y-65845589D01*
X63979695Y-65568422D01*
X64151652Y-65740379D01*
X64280658Y-65611373D01*
X64323506Y-65646537D01*
X64433820Y-65705502D01*
X64553518Y-65741812D01*
X64678000Y-65754072D01*
X65878000Y-65754072D01*
X66002482Y-65741812D01*
X66122180Y-65705502D01*
X66232494Y-65646537D01*
X66329185Y-65567185D01*
X66408537Y-65470494D01*
X66467502Y-65360180D01*
X66503812Y-65240482D01*
X66516072Y-65116000D01*
X66516072Y-63916000D01*
X66503812Y-63791518D01*
X66480904Y-63716000D01*
X68919928Y-63716000D01*
X68919928Y-65316000D01*
X68932188Y-65440482D01*
X68968498Y-65560180D01*
X69027463Y-65670494D01*
X69106815Y-65767185D01*
X69203506Y-65846537D01*
X69313820Y-65905502D01*
X69433518Y-65941812D01*
X69558000Y-65954072D01*
X71158000Y-65954072D01*
X71282482Y-65941812D01*
X71402180Y-65905502D01*
X71512494Y-65846537D01*
X71609185Y-65767185D01*
X71653700Y-65712943D01*
X72011782Y-65712943D01*
X72078936Y-66010212D01*
X72385412Y-66133489D01*
X72710049Y-66194607D01*
X73040371Y-66191217D01*
X73363686Y-66123449D01*
X73637064Y-66010212D01*
X73704218Y-65712943D01*
X72858000Y-64866725D01*
X72011782Y-65712943D01*
X71653700Y-65712943D01*
X71688537Y-65670494D01*
X71747502Y-65560180D01*
X71783812Y-65440482D01*
X71796072Y-65316000D01*
X71796072Y-65227203D01*
X72507275Y-64516000D01*
X73208725Y-64516000D01*
X74054943Y-65362218D01*
X74352212Y-65295064D01*
X74475489Y-64988588D01*
X74536607Y-64663951D01*
X74533217Y-64333629D01*
X74465449Y-64010314D01*
X74352212Y-63736936D01*
X74054943Y-63669782D01*
X73208725Y-64516000D01*
X72507275Y-64516000D01*
X71796072Y-63804797D01*
X71796072Y-63716000D01*
X71783812Y-63591518D01*
X71747502Y-63471820D01*
X71688537Y-63361506D01*
X71653701Y-63319057D01*
X72011782Y-63319057D01*
X72858000Y-64165275D01*
X73704218Y-63319057D01*
X73637064Y-63021788D01*
X73330588Y-62898511D01*
X73005951Y-62837393D01*
X72675629Y-62840783D01*
X72352314Y-62908551D01*
X72078936Y-63021788D01*
X72011782Y-63319057D01*
X71653701Y-63319057D01*
X71609185Y-63264815D01*
X71512494Y-63185463D01*
X71402180Y-63126498D01*
X71282482Y-63090188D01*
X71158000Y-63077928D01*
X69558000Y-63077928D01*
X69433518Y-63090188D01*
X69313820Y-63126498D01*
X69203506Y-63185463D01*
X69106815Y-63264815D01*
X69027463Y-63361506D01*
X68968498Y-63471820D01*
X68932188Y-63591518D01*
X68919928Y-63716000D01*
X66480904Y-63716000D01*
X66467502Y-63671820D01*
X66408537Y-63561506D01*
X66329185Y-63464815D01*
X66232494Y-63385463D01*
X66122180Y-63326498D01*
X66002482Y-63290188D01*
X65878000Y-63277928D01*
X64678000Y-63277928D01*
X64553518Y-63290188D01*
X64433820Y-63326498D01*
X64323506Y-63385463D01*
X64280658Y-63420627D01*
X64151652Y-63291621D01*
X63979695Y-63463578D01*
X63937458Y-63186411D01*
X63665397Y-63083304D01*
X63378448Y-63035255D01*
X63087639Y-63044111D01*
X62804145Y-63109531D01*
X62618542Y-63186411D01*
X62576305Y-63463580D01*
X42595000Y-63463580D01*
X42595000Y-61072665D01*
X58826500Y-61072665D01*
X58826500Y-61355335D01*
X58881647Y-61632574D01*
X58989820Y-61893727D01*
X59146863Y-62128759D01*
X59346741Y-62328637D01*
X59581773Y-62485680D01*
X59842926Y-62593853D01*
X60120165Y-62649000D01*
X60402835Y-62649000D01*
X60680074Y-62593853D01*
X60941227Y-62485680D01*
X61176259Y-62328637D01*
X61376137Y-62128759D01*
X61533180Y-61893727D01*
X61641353Y-61632574D01*
X61696500Y-61355335D01*
X61696500Y-61072665D01*
X61641353Y-60795426D01*
X61533180Y-60534273D01*
X61376137Y-60299241D01*
X61176259Y-60099363D01*
X60941227Y-59942320D01*
X60680074Y-59834147D01*
X60402835Y-59779000D01*
X60120165Y-59779000D01*
X59842926Y-59834147D01*
X59581773Y-59942320D01*
X59346741Y-60099363D01*
X59146863Y-60299241D01*
X58989820Y-60534273D01*
X58881647Y-60795426D01*
X58826500Y-61072665D01*
X42595000Y-61072665D01*
X42595000Y-55554000D01*
X45788589Y-55554000D01*
X45820157Y-55874516D01*
X45913648Y-56182715D01*
X46065469Y-56466752D01*
X46269786Y-56715714D01*
X46518748Y-56920031D01*
X46802785Y-57071852D01*
X47110984Y-57165343D01*
X47351178Y-57189000D01*
X49011822Y-57189000D01*
X49252016Y-57165343D01*
X49560215Y-57071852D01*
X49844252Y-56920031D01*
X50014880Y-56780000D01*
X63560257Y-56780000D01*
X63577190Y-56951922D01*
X63627338Y-57117237D01*
X63708773Y-57269592D01*
X63818367Y-57403133D01*
X63951908Y-57512727D01*
X64062201Y-57571680D01*
X63981201Y-57692905D01*
X63865489Y-57972257D01*
X63806500Y-58268816D01*
X63806500Y-58571184D01*
X63865489Y-58867743D01*
X63981201Y-59147095D01*
X64149188Y-59398505D01*
X64362995Y-59612312D01*
X64614405Y-59780299D01*
X64893757Y-59896011D01*
X65190316Y-59955000D01*
X65492684Y-59955000D01*
X65789243Y-59896011D01*
X66068595Y-59780299D01*
X66320005Y-59612312D01*
X66533812Y-59398505D01*
X66586267Y-59320000D01*
X69402257Y-59320000D01*
X69419190Y-59491922D01*
X69469338Y-59657237D01*
X69550773Y-59809592D01*
X69660367Y-59943133D01*
X69793908Y-60052727D01*
X69946263Y-60134162D01*
X70111578Y-60184310D01*
X70283500Y-60201243D01*
X70716250Y-60197000D01*
X70935500Y-59977750D01*
X70935500Y-58668000D01*
X71431500Y-58668000D01*
X71431500Y-59977750D01*
X71650750Y-60197000D01*
X72083500Y-60201243D01*
X72255422Y-60184310D01*
X72420737Y-60134162D01*
X72573092Y-60052727D01*
X72706633Y-59943133D01*
X72816227Y-59809592D01*
X72897662Y-59657237D01*
X72947810Y-59491922D01*
X72964743Y-59320000D01*
X72960500Y-58887250D01*
X72741250Y-58668000D01*
X71431500Y-58668000D01*
X70935500Y-58668000D01*
X69625750Y-58668000D01*
X69406500Y-58887250D01*
X69402257Y-59320000D01*
X66586267Y-59320000D01*
X66701799Y-59147095D01*
X66817511Y-58867743D01*
X66876500Y-58571184D01*
X66876500Y-58268816D01*
X66817511Y-57972257D01*
X66701799Y-57692905D01*
X66620799Y-57571680D01*
X66717485Y-57520000D01*
X69402257Y-57520000D01*
X69406500Y-57952750D01*
X69625750Y-58172000D01*
X70935500Y-58172000D01*
X70935500Y-58152000D01*
X71431500Y-58152000D01*
X71431500Y-58172000D01*
X72741250Y-58172000D01*
X72742940Y-58170310D01*
X74042729Y-58170310D01*
X74174366Y-58482223D01*
X74364325Y-58762461D01*
X74605306Y-59000256D01*
X74888048Y-59186468D01*
X75179691Y-59307263D01*
X75444000Y-59145214D01*
X75444000Y-57906000D01*
X75940000Y-57906000D01*
X75940000Y-59145214D01*
X76204309Y-59307263D01*
X76495952Y-59186468D01*
X76778694Y-59000256D01*
X76962000Y-58819373D01*
X77145306Y-59000256D01*
X77428048Y-59186468D01*
X77719691Y-59307263D01*
X77984000Y-59145214D01*
X77984000Y-57906000D01*
X78480000Y-57906000D01*
X78480000Y-59145214D01*
X78744309Y-59307263D01*
X79035952Y-59186468D01*
X79318694Y-59000256D01*
X79559675Y-58762461D01*
X79749634Y-58482223D01*
X79881271Y-58170310D01*
X86996729Y-58170310D01*
X87128366Y-58482223D01*
X87318325Y-58762461D01*
X87559306Y-59000256D01*
X87842048Y-59186468D01*
X88133691Y-59307263D01*
X88398000Y-59145214D01*
X88398000Y-57906000D01*
X88894000Y-57906000D01*
X88894000Y-59145214D01*
X89158309Y-59307263D01*
X89449952Y-59186468D01*
X89732694Y-59000256D01*
X89916000Y-58819373D01*
X90099306Y-59000256D01*
X90382048Y-59186468D01*
X90673691Y-59307263D01*
X90938000Y-59145214D01*
X90938000Y-57906000D01*
X91434000Y-57906000D01*
X91434000Y-59145214D01*
X91698309Y-59307263D01*
X91989952Y-59186468D01*
X92272694Y-59000256D01*
X92513675Y-58762461D01*
X92703634Y-58482223D01*
X92835224Y-58170420D01*
X96834305Y-58170420D01*
X96876542Y-58447589D01*
X97148603Y-58550696D01*
X97435552Y-58598745D01*
X97726361Y-58589889D01*
X98009855Y-58524469D01*
X98195458Y-58447589D01*
X98237695Y-58170420D01*
X97536000Y-57468725D01*
X96834305Y-58170420D01*
X92835224Y-58170420D01*
X92835271Y-58170310D01*
X92675859Y-57906000D01*
X91434000Y-57906000D01*
X90938000Y-57906000D01*
X88894000Y-57906000D01*
X88398000Y-57906000D01*
X87156141Y-57906000D01*
X86996729Y-58170310D01*
X79881271Y-58170310D01*
X79721859Y-57906000D01*
X78480000Y-57906000D01*
X77984000Y-57906000D01*
X75940000Y-57906000D01*
X75444000Y-57906000D01*
X74202141Y-57906000D01*
X74042729Y-58170310D01*
X72742940Y-58170310D01*
X72960500Y-57952750D01*
X72964743Y-57520000D01*
X72947810Y-57348078D01*
X72897662Y-57182763D01*
X72877847Y-57145690D01*
X74042729Y-57145690D01*
X74202141Y-57410000D01*
X75444000Y-57410000D01*
X75444000Y-57390000D01*
X75940000Y-57390000D01*
X75940000Y-57410000D01*
X77984000Y-57410000D01*
X77984000Y-57390000D01*
X78480000Y-57390000D01*
X78480000Y-57410000D01*
X79721859Y-57410000D01*
X79881271Y-57145690D01*
X86996729Y-57145690D01*
X87156141Y-57410000D01*
X88398000Y-57410000D01*
X88398000Y-57390000D01*
X88894000Y-57390000D01*
X88894000Y-57410000D01*
X90938000Y-57410000D01*
X90938000Y-57390000D01*
X91434000Y-57390000D01*
X91434000Y-57410000D01*
X92675859Y-57410000D01*
X92835271Y-57145690D01*
X92781193Y-57017552D01*
X96055255Y-57017552D01*
X96064111Y-57308361D01*
X96129531Y-57591855D01*
X96206411Y-57777458D01*
X96483580Y-57819695D01*
X97185275Y-57118000D01*
X97171133Y-57103858D01*
X97521858Y-56753133D01*
X97536000Y-56767275D01*
X97550143Y-56753133D01*
X97900868Y-57103858D01*
X97886725Y-57118000D01*
X98588420Y-57819695D01*
X98865589Y-57777458D01*
X98968696Y-57505397D01*
X99016745Y-57218448D01*
X99007889Y-56927639D01*
X98942469Y-56644145D01*
X98865589Y-56458542D01*
X98588422Y-56416305D01*
X98760379Y-56244348D01*
X98631373Y-56115342D01*
X98666537Y-56072494D01*
X98725502Y-55962180D01*
X98761812Y-55842482D01*
X98774072Y-55718000D01*
X98774072Y-54518000D01*
X98761812Y-54393518D01*
X98725502Y-54273820D01*
X98666537Y-54163506D01*
X98587185Y-54066815D01*
X98490494Y-53987463D01*
X98380180Y-53928498D01*
X98260482Y-53892188D01*
X98136000Y-53879928D01*
X96936000Y-53879928D01*
X96811518Y-53892188D01*
X96691820Y-53928498D01*
X96581506Y-53987463D01*
X96484815Y-54066815D01*
X96405463Y-54163506D01*
X96346498Y-54273820D01*
X96310188Y-54393518D01*
X96297928Y-54518000D01*
X96297928Y-55718000D01*
X96310188Y-55842482D01*
X96346498Y-55962180D01*
X96405463Y-56072494D01*
X96440627Y-56115342D01*
X96311621Y-56244348D01*
X96483578Y-56416305D01*
X96206411Y-56458542D01*
X96103304Y-56730603D01*
X96055255Y-57017552D01*
X92781193Y-57017552D01*
X92703634Y-56833777D01*
X92513675Y-56553539D01*
X92272694Y-56315744D01*
X92158779Y-56240721D01*
X92241134Y-56173134D01*
X92426706Y-55947014D01*
X92564599Y-55689034D01*
X92649513Y-55409111D01*
X92678185Y-55118000D01*
X92649513Y-54826889D01*
X92564599Y-54546966D01*
X92426706Y-54288986D01*
X92241134Y-54062866D01*
X92015014Y-53877294D01*
X91757034Y-53739401D01*
X91477111Y-53654487D01*
X91258950Y-53633000D01*
X91113050Y-53633000D01*
X90894889Y-53654487D01*
X90614966Y-53739401D01*
X90356986Y-53877294D01*
X90130866Y-54062866D01*
X90106393Y-54092687D01*
X90085502Y-54023820D01*
X90026537Y-53913506D01*
X89947185Y-53816815D01*
X89850494Y-53737463D01*
X89740180Y-53678498D01*
X89620482Y-53642188D01*
X89496000Y-53629928D01*
X87796000Y-53629928D01*
X87671518Y-53642188D01*
X87551820Y-53678498D01*
X87441506Y-53737463D01*
X87344815Y-53816815D01*
X87265463Y-53913506D01*
X87206498Y-54023820D01*
X87170188Y-54143518D01*
X87157928Y-54268000D01*
X87157928Y-55968000D01*
X87170188Y-56092482D01*
X87206498Y-56212180D01*
X87265463Y-56322494D01*
X87344815Y-56419185D01*
X87404686Y-56468320D01*
X87318325Y-56553539D01*
X87128366Y-56833777D01*
X86996729Y-57145690D01*
X79881271Y-57145690D01*
X79749634Y-56833777D01*
X79559675Y-56553539D01*
X79318694Y-56315744D01*
X79204779Y-56240721D01*
X79287134Y-56173134D01*
X79472706Y-55947014D01*
X79610599Y-55689034D01*
X79695513Y-55409111D01*
X79724185Y-55118000D01*
X79695513Y-54826889D01*
X79610599Y-54546966D01*
X79472706Y-54288986D01*
X79287134Y-54062866D01*
X79061014Y-53877294D01*
X78803034Y-53739401D01*
X78523111Y-53654487D01*
X78304950Y-53633000D01*
X78159050Y-53633000D01*
X77940889Y-53654487D01*
X77660966Y-53739401D01*
X77402986Y-53877294D01*
X77176866Y-54062866D01*
X77152393Y-54092687D01*
X77131502Y-54023820D01*
X77072537Y-53913506D01*
X76993185Y-53816815D01*
X76896494Y-53737463D01*
X76786180Y-53678498D01*
X76666482Y-53642188D01*
X76542000Y-53629928D01*
X74842000Y-53629928D01*
X74717518Y-53642188D01*
X74597820Y-53678498D01*
X74487506Y-53737463D01*
X74390815Y-53816815D01*
X74311463Y-53913506D01*
X74252498Y-54023820D01*
X74216188Y-54143518D01*
X74203928Y-54268000D01*
X74203928Y-55968000D01*
X74216188Y-56092482D01*
X74252498Y-56212180D01*
X74311463Y-56322494D01*
X74390815Y-56419185D01*
X74450686Y-56468320D01*
X74364325Y-56553539D01*
X74174366Y-56833777D01*
X74042729Y-57145690D01*
X72877847Y-57145690D01*
X72816227Y-57030408D01*
X72706633Y-56896867D01*
X72573092Y-56787273D01*
X72462799Y-56728320D01*
X72543799Y-56607095D01*
X72659511Y-56327743D01*
X72718500Y-56031184D01*
X72718500Y-55728816D01*
X72659511Y-55432257D01*
X72543799Y-55152905D01*
X72375812Y-54901495D01*
X72162005Y-54687688D01*
X71910595Y-54519701D01*
X71631243Y-54403989D01*
X71334684Y-54345000D01*
X71032316Y-54345000D01*
X70735757Y-54403989D01*
X70456405Y-54519701D01*
X70204995Y-54687688D01*
X69991188Y-54901495D01*
X69823201Y-55152905D01*
X69707489Y-55432257D01*
X69648500Y-55728816D01*
X69648500Y-56031184D01*
X69707489Y-56327743D01*
X69823201Y-56607095D01*
X69904201Y-56728320D01*
X69793908Y-56787273D01*
X69660367Y-56896867D01*
X69550773Y-57030408D01*
X69469338Y-57182763D01*
X69419190Y-57348078D01*
X69402257Y-57520000D01*
X66717485Y-57520000D01*
X66731092Y-57512727D01*
X66864633Y-57403133D01*
X66974227Y-57269592D01*
X67055662Y-57117237D01*
X67105810Y-56951922D01*
X67122743Y-56780000D01*
X67118500Y-56347250D01*
X66899250Y-56128000D01*
X65589500Y-56128000D01*
X65589500Y-56148000D01*
X65093500Y-56148000D01*
X65093500Y-56128000D01*
X63783750Y-56128000D01*
X63564500Y-56347250D01*
X63560257Y-56780000D01*
X50014880Y-56780000D01*
X50093214Y-56715714D01*
X50297531Y-56466752D01*
X50449352Y-56182715D01*
X50542843Y-55874516D01*
X50574411Y-55554000D01*
X50542843Y-55233484D01*
X50465950Y-54980000D01*
X63560257Y-54980000D01*
X63564500Y-55412750D01*
X63783750Y-55632000D01*
X65093500Y-55632000D01*
X65093500Y-54322250D01*
X65589500Y-54322250D01*
X65589500Y-55632000D01*
X66899250Y-55632000D01*
X67118500Y-55412750D01*
X67122743Y-54980000D01*
X67105810Y-54808078D01*
X67055662Y-54642763D01*
X66974227Y-54490408D01*
X66864633Y-54356867D01*
X66731092Y-54247273D01*
X66578737Y-54165838D01*
X66413422Y-54115690D01*
X66241500Y-54098757D01*
X65808750Y-54103000D01*
X65589500Y-54322250D01*
X65093500Y-54322250D01*
X64874250Y-54103000D01*
X64441500Y-54098757D01*
X64269578Y-54115690D01*
X64104263Y-54165838D01*
X63951908Y-54247273D01*
X63818367Y-54356867D01*
X63708773Y-54490408D01*
X63627338Y-54642763D01*
X63577190Y-54808078D01*
X63560257Y-54980000D01*
X50465950Y-54980000D01*
X50449352Y-54925285D01*
X50297531Y-54641248D01*
X50093214Y-54392286D01*
X49844252Y-54187969D01*
X49560215Y-54036148D01*
X49252016Y-53942657D01*
X49011822Y-53919000D01*
X47351178Y-53919000D01*
X47110984Y-53942657D01*
X46802785Y-54036148D01*
X46518748Y-54187969D01*
X46269786Y-54392286D01*
X46065469Y-54641248D01*
X45913648Y-54925285D01*
X45820157Y-55233484D01*
X45788589Y-55554000D01*
X42595000Y-55554000D01*
X42595000Y-50912665D01*
X44746500Y-50912665D01*
X44746500Y-51195335D01*
X44801647Y-51472574D01*
X44909820Y-51733727D01*
X45066863Y-51968759D01*
X45266741Y-52168637D01*
X45501773Y-52325680D01*
X45762926Y-52433853D01*
X46040165Y-52489000D01*
X46322835Y-52489000D01*
X46600074Y-52433853D01*
X46861227Y-52325680D01*
X47096259Y-52168637D01*
X47296137Y-51968759D01*
X47305235Y-51955144D01*
X47388948Y-52313419D01*
X47542283Y-52651419D01*
X47758612Y-52953010D01*
X48029622Y-53206602D01*
X48344898Y-53402450D01*
X48645500Y-53502842D01*
X48933500Y-53343095D01*
X48933500Y-51302000D01*
X49429500Y-51302000D01*
X49429500Y-53343095D01*
X49717500Y-53502842D01*
X50018102Y-53402450D01*
X50333378Y-53206602D01*
X50604388Y-52953010D01*
X50820717Y-52651419D01*
X50974052Y-52313419D01*
X51058500Y-51952000D01*
X51058500Y-51302000D01*
X49429500Y-51302000D01*
X48933500Y-51302000D01*
X48913500Y-51302000D01*
X48913500Y-50806000D01*
X48933500Y-50806000D01*
X48933500Y-48764905D01*
X49429500Y-48764905D01*
X49429500Y-50806000D01*
X51058500Y-50806000D01*
X51058500Y-50156000D01*
X50974052Y-49794581D01*
X50820717Y-49456581D01*
X50604388Y-49154990D01*
X50496462Y-49054000D01*
X53543428Y-49054000D01*
X53543428Y-53054000D01*
X53555688Y-53178482D01*
X53591998Y-53298180D01*
X53650963Y-53408494D01*
X53730315Y-53505185D01*
X53827006Y-53584537D01*
X53937320Y-53643502D01*
X54057018Y-53679812D01*
X54181500Y-53692072D01*
X56181500Y-53692072D01*
X56305982Y-53679812D01*
X56425680Y-53643502D01*
X56535994Y-53584537D01*
X56632685Y-53505185D01*
X56712037Y-53408494D01*
X56771002Y-53298180D01*
X56807312Y-53178482D01*
X56819572Y-53054000D01*
X56819572Y-52690665D01*
X69748500Y-52690665D01*
X69748500Y-52973335D01*
X69803647Y-53250574D01*
X69911820Y-53511727D01*
X70068863Y-53746759D01*
X70268741Y-53946637D01*
X70503773Y-54103680D01*
X70764926Y-54211853D01*
X71042165Y-54267000D01*
X71324835Y-54267000D01*
X71602074Y-54211853D01*
X71863227Y-54103680D01*
X72098259Y-53946637D01*
X72298137Y-53746759D01*
X72455180Y-53511727D01*
X72563353Y-53250574D01*
X72592011Y-53106502D01*
X100816999Y-53106502D01*
X100835492Y-53156148D01*
X100981582Y-53483132D01*
X101188657Y-53775332D01*
X101429589Y-54003377D01*
X101242155Y-54231765D01*
X101094745Y-54507551D01*
X101003970Y-54806796D01*
X100973319Y-55118000D01*
X101003970Y-55429204D01*
X101094745Y-55728449D01*
X101242155Y-56004235D01*
X101440537Y-56245963D01*
X101682265Y-56444345D01*
X101958051Y-56591755D01*
X102257296Y-56682530D01*
X102490514Y-56705500D01*
X102741486Y-56705500D01*
X102974704Y-56682530D01*
X103273949Y-56591755D01*
X103549735Y-56444345D01*
X103791463Y-56245963D01*
X103989845Y-56004235D01*
X104137255Y-55728449D01*
X104228030Y-55429204D01*
X104258681Y-55118000D01*
X104228030Y-54806796D01*
X104137255Y-54507551D01*
X103989845Y-54231765D01*
X103802411Y-54003377D01*
X104043343Y-53775332D01*
X104250418Y-53483132D01*
X104396508Y-53156148D01*
X104415001Y-53106502D01*
X104254538Y-52826000D01*
X102864000Y-52826000D01*
X102864000Y-52846000D01*
X102368000Y-52846000D01*
X102368000Y-52826000D01*
X100977462Y-52826000D01*
X100816999Y-53106502D01*
X72592011Y-53106502D01*
X72618500Y-52973335D01*
X72618500Y-52690665D01*
X72563353Y-52413426D01*
X72455180Y-52152273D01*
X72386509Y-52049498D01*
X100816999Y-52049498D01*
X100977462Y-52330000D01*
X102368000Y-52330000D01*
X102368000Y-52310000D01*
X102864000Y-52310000D01*
X102864000Y-52330000D01*
X104254538Y-52330000D01*
X104415001Y-52049498D01*
X104396508Y-51999852D01*
X104250418Y-51672868D01*
X104077595Y-51429000D01*
X104146537Y-51344994D01*
X104205502Y-51234680D01*
X104241812Y-51114982D01*
X104254072Y-50990500D01*
X104254072Y-49085500D01*
X104241812Y-48961018D01*
X104205502Y-48841320D01*
X104146537Y-48731006D01*
X104067185Y-48634315D01*
X103970494Y-48554963D01*
X103860180Y-48495998D01*
X103740482Y-48459688D01*
X103616000Y-48447428D01*
X101616000Y-48447428D01*
X101491518Y-48459688D01*
X101371820Y-48495998D01*
X101261506Y-48554963D01*
X101164815Y-48634315D01*
X101085463Y-48731006D01*
X101026498Y-48841320D01*
X100990188Y-48961018D01*
X100977928Y-49085500D01*
X100977928Y-50990500D01*
X100990188Y-51114982D01*
X101026498Y-51234680D01*
X101085463Y-51344994D01*
X101154405Y-51429000D01*
X100981582Y-51672868D01*
X100835492Y-51999852D01*
X100816999Y-52049498D01*
X72386509Y-52049498D01*
X72298137Y-51917241D01*
X72098259Y-51717363D01*
X71863227Y-51560320D01*
X71602074Y-51452147D01*
X71324835Y-51397000D01*
X71042165Y-51397000D01*
X70764926Y-51452147D01*
X70503773Y-51560320D01*
X70268741Y-51717363D01*
X70068863Y-51917241D01*
X69911820Y-52152273D01*
X69803647Y-52413426D01*
X69748500Y-52690665D01*
X56819572Y-52690665D01*
X56819572Y-51054000D01*
X58819557Y-51054000D01*
X58847264Y-51335309D01*
X58929318Y-51605808D01*
X59062568Y-51855101D01*
X59241892Y-52073608D01*
X59460399Y-52252932D01*
X59709692Y-52386182D01*
X59980191Y-52468236D01*
X60191008Y-52489000D01*
X60331992Y-52489000D01*
X60542809Y-52468236D01*
X60813308Y-52386182D01*
X61062601Y-52252932D01*
X61281108Y-52073608D01*
X61460432Y-51855101D01*
X61593682Y-51605808D01*
X61675736Y-51335309D01*
X61703443Y-51054000D01*
X61675736Y-50772691D01*
X61593682Y-50502192D01*
X61460432Y-50252899D01*
X61281108Y-50034392D01*
X61062601Y-49855068D01*
X60813308Y-49721818D01*
X60542809Y-49639764D01*
X60331992Y-49619000D01*
X60191008Y-49619000D01*
X59980191Y-49639764D01*
X59709692Y-49721818D01*
X59460399Y-49855068D01*
X59241892Y-50034392D01*
X59062568Y-50252899D01*
X58929318Y-50502192D01*
X58847264Y-50772691D01*
X58819557Y-51054000D01*
X56819572Y-51054000D01*
X56819572Y-49054000D01*
X56807312Y-48929518D01*
X56771002Y-48809820D01*
X56712037Y-48699506D01*
X56632685Y-48602815D01*
X56535994Y-48523463D01*
X56425680Y-48464498D01*
X56305982Y-48428188D01*
X56181500Y-48415928D01*
X54181500Y-48415928D01*
X54057018Y-48428188D01*
X53937320Y-48464498D01*
X53827006Y-48523463D01*
X53730315Y-48602815D01*
X53650963Y-48699506D01*
X53591998Y-48809820D01*
X53555688Y-48929518D01*
X53543428Y-49054000D01*
X50496462Y-49054000D01*
X50333378Y-48901398D01*
X50018102Y-48705550D01*
X49717500Y-48605158D01*
X49429500Y-48764905D01*
X48933500Y-48764905D01*
X48645500Y-48605158D01*
X48344898Y-48705550D01*
X48029622Y-48901398D01*
X47758612Y-49154990D01*
X47542283Y-49456581D01*
X47388948Y-49794581D01*
X47305235Y-50152856D01*
X47296137Y-50139241D01*
X47096259Y-49939363D01*
X46861227Y-49782320D01*
X46600074Y-49674147D01*
X46322835Y-49619000D01*
X46040165Y-49619000D01*
X45762926Y-49674147D01*
X45501773Y-49782320D01*
X45266741Y-49939363D01*
X45066863Y-50139241D01*
X44909820Y-50374273D01*
X44801647Y-50635426D01*
X44746500Y-50912665D01*
X42595000Y-50912665D01*
X42595000Y-46554000D01*
X45788589Y-46554000D01*
X45820157Y-46874516D01*
X45913648Y-47182715D01*
X46065469Y-47466752D01*
X46269786Y-47715714D01*
X46518748Y-47920031D01*
X46802785Y-48071852D01*
X47110984Y-48165343D01*
X47351178Y-48189000D01*
X49011822Y-48189000D01*
X49252016Y-48165343D01*
X49560215Y-48071852D01*
X49844252Y-47920031D01*
X50093214Y-47715714D01*
X50297531Y-47466752D01*
X50449352Y-47182715D01*
X50492307Y-47041108D01*
X62011500Y-47041108D01*
X62011500Y-47446892D01*
X62090665Y-47844880D01*
X62245952Y-48219776D01*
X62471394Y-48557173D01*
X62758327Y-48844106D01*
X63095724Y-49069548D01*
X63470620Y-49224835D01*
X63868608Y-49304000D01*
X64274392Y-49304000D01*
X64606195Y-49238000D01*
X96097928Y-49238000D01*
X96097928Y-50838000D01*
X96110188Y-50962482D01*
X96146498Y-51082180D01*
X96205463Y-51192494D01*
X96284815Y-51289185D01*
X96381506Y-51368537D01*
X96491820Y-51427502D01*
X96611518Y-51463812D01*
X96736000Y-51476072D01*
X98336000Y-51476072D01*
X98460482Y-51463812D01*
X98580180Y-51427502D01*
X98690494Y-51368537D01*
X98787185Y-51289185D01*
X98866537Y-51192494D01*
X98925502Y-51082180D01*
X98961812Y-50962482D01*
X98974072Y-50838000D01*
X98974072Y-49238000D01*
X98961812Y-49113518D01*
X98925502Y-48993820D01*
X98866537Y-48883506D01*
X98787185Y-48786815D01*
X98690494Y-48707463D01*
X98580180Y-48648498D01*
X98460482Y-48612188D01*
X98336000Y-48599928D01*
X98247203Y-48599928D01*
X97536000Y-47888725D01*
X96824797Y-48599928D01*
X96736000Y-48599928D01*
X96611518Y-48612188D01*
X96491820Y-48648498D01*
X96381506Y-48707463D01*
X96284815Y-48786815D01*
X96205463Y-48883506D01*
X96146498Y-48993820D01*
X96110188Y-49113518D01*
X96097928Y-49238000D01*
X64606195Y-49238000D01*
X64672380Y-49224835D01*
X65047276Y-49069548D01*
X65384673Y-48844106D01*
X65671606Y-48557173D01*
X65897048Y-48219776D01*
X66052335Y-47844880D01*
X66131500Y-47446892D01*
X66131500Y-47390049D01*
X95857393Y-47390049D01*
X95860783Y-47720371D01*
X95928551Y-48043686D01*
X96041788Y-48317064D01*
X96339057Y-48384218D01*
X97185275Y-47538000D01*
X97886725Y-47538000D01*
X98732943Y-48384218D01*
X99030212Y-48317064D01*
X99153489Y-48010588D01*
X99214607Y-47685951D01*
X99211217Y-47355629D01*
X99143449Y-47032314D01*
X99030212Y-46758936D01*
X98732943Y-46691782D01*
X97886725Y-47538000D01*
X97185275Y-47538000D01*
X96339057Y-46691782D01*
X96041788Y-46758936D01*
X95918511Y-47065412D01*
X95857393Y-47390049D01*
X66131500Y-47390049D01*
X66131500Y-47041108D01*
X66052335Y-46643120D01*
X65927217Y-46341057D01*
X96689782Y-46341057D01*
X97536000Y-47187275D01*
X98382218Y-46341057D01*
X98315064Y-46043788D01*
X98008588Y-45920511D01*
X97683951Y-45859393D01*
X97353629Y-45862783D01*
X97030314Y-45930551D01*
X96756936Y-46043788D01*
X96689782Y-46341057D01*
X65927217Y-46341057D01*
X65897048Y-46268224D01*
X65671606Y-45930827D01*
X65384673Y-45643894D01*
X65047276Y-45418452D01*
X64672380Y-45263165D01*
X64274392Y-45184000D01*
X63868608Y-45184000D01*
X63470620Y-45263165D01*
X63095724Y-45418452D01*
X62758327Y-45643894D01*
X62471394Y-45930827D01*
X62245952Y-46268224D01*
X62090665Y-46643120D01*
X62011500Y-47041108D01*
X50492307Y-47041108D01*
X50542843Y-46874516D01*
X50574411Y-46554000D01*
X50542843Y-46233484D01*
X50449352Y-45925285D01*
X50297531Y-45641248D01*
X50093214Y-45392286D01*
X49844252Y-45187969D01*
X49560215Y-45036148D01*
X49252016Y-44942657D01*
X49011822Y-44919000D01*
X47351178Y-44919000D01*
X47110984Y-44942657D01*
X46802785Y-45036148D01*
X46518748Y-45187969D01*
X46269786Y-45392286D01*
X46065469Y-45641248D01*
X45913648Y-45925285D01*
X45820157Y-46233484D01*
X45788589Y-46554000D01*
X42595000Y-46554000D01*
X42595000Y-42341108D01*
X62011500Y-42341108D01*
X62011500Y-42746892D01*
X62090665Y-43144880D01*
X62245952Y-43519776D01*
X62471394Y-43857173D01*
X62758327Y-44144106D01*
X63095724Y-44369548D01*
X63470620Y-44524835D01*
X63868608Y-44604000D01*
X64274392Y-44604000D01*
X64672380Y-44524835D01*
X65047276Y-44369548D01*
X65384673Y-44144106D01*
X65671606Y-43857173D01*
X65897048Y-43519776D01*
X66052335Y-43144880D01*
X66131500Y-42746892D01*
X66131500Y-42672000D01*
X69741557Y-42672000D01*
X69769264Y-42953309D01*
X69851318Y-43223808D01*
X69984568Y-43473101D01*
X70163892Y-43691608D01*
X70382399Y-43870932D01*
X70631692Y-44004182D01*
X70902191Y-44086236D01*
X71113008Y-44107000D01*
X71253992Y-44107000D01*
X71464809Y-44086236D01*
X71735308Y-44004182D01*
X71984601Y-43870932D01*
X72203108Y-43691608D01*
X72382432Y-43473101D01*
X72515682Y-43223808D01*
X72597736Y-42953309D01*
X72625443Y-42672000D01*
X72597736Y-42390691D01*
X72515682Y-42120192D01*
X72382432Y-41870899D01*
X72203108Y-41652392D01*
X71984601Y-41473068D01*
X71735308Y-41339818D01*
X71464809Y-41257764D01*
X71253992Y-41237000D01*
X71113008Y-41237000D01*
X70902191Y-41257764D01*
X70631692Y-41339818D01*
X70382399Y-41473068D01*
X70163892Y-41652392D01*
X69984568Y-41870899D01*
X69851318Y-42120192D01*
X69769264Y-42390691D01*
X69741557Y-42672000D01*
X66131500Y-42672000D01*
X66131500Y-42341108D01*
X66052335Y-41943120D01*
X65897048Y-41568224D01*
X65671606Y-41230827D01*
X65384673Y-40943894D01*
X65047276Y-40718452D01*
X64672380Y-40563165D01*
X64274392Y-40484000D01*
X63868608Y-40484000D01*
X63470620Y-40563165D01*
X63095724Y-40718452D01*
X62758327Y-40943894D01*
X62471394Y-41230827D01*
X62245952Y-41568224D01*
X62090665Y-41943120D01*
X62011500Y-42341108D01*
X42595000Y-42341108D01*
X42595000Y-39042943D01*
X43095782Y-39042943D01*
X43162936Y-39340212D01*
X43469412Y-39463489D01*
X43794049Y-39524607D01*
X44124371Y-39521217D01*
X44447686Y-39453449D01*
X44721064Y-39340212D01*
X44788218Y-39042943D01*
X43942000Y-38196725D01*
X43095782Y-39042943D01*
X42595000Y-39042943D01*
X42595000Y-38658320D01*
X42745057Y-38692218D01*
X43591275Y-37846000D01*
X44292725Y-37846000D01*
X45138943Y-38692218D01*
X45436212Y-38625064D01*
X45559489Y-38318588D01*
X45620607Y-37993951D01*
X45619089Y-37846000D01*
X52660057Y-37846000D01*
X52687764Y-38127309D01*
X52769818Y-38397808D01*
X52903068Y-38647101D01*
X53082392Y-38865608D01*
X53300899Y-39044932D01*
X53550192Y-39178182D01*
X53820691Y-39260236D01*
X54031508Y-39281000D01*
X54172492Y-39281000D01*
X54383309Y-39260236D01*
X54653808Y-39178182D01*
X54903101Y-39044932D01*
X55121608Y-38865608D01*
X55300932Y-38647101D01*
X55434182Y-38397808D01*
X55516236Y-38127309D01*
X55543943Y-37846000D01*
X55516236Y-37564691D01*
X55434182Y-37294192D01*
X55300932Y-37044899D01*
X55121608Y-36826392D01*
X54903101Y-36647068D01*
X54653808Y-36513818D01*
X54383309Y-36431764D01*
X54253717Y-36419000D01*
X62008428Y-36419000D01*
X62008428Y-39269000D01*
X62020688Y-39393482D01*
X62056998Y-39513180D01*
X62115963Y-39623494D01*
X62195315Y-39720185D01*
X62292006Y-39799537D01*
X62402320Y-39858502D01*
X62522018Y-39894812D01*
X62646500Y-39907072D01*
X65496500Y-39907072D01*
X65620982Y-39894812D01*
X65740680Y-39858502D01*
X65850994Y-39799537D01*
X65947685Y-39720185D01*
X66027037Y-39623494D01*
X66086002Y-39513180D01*
X66122312Y-39393482D01*
X66134572Y-39269000D01*
X66134572Y-38104310D01*
X82678729Y-38104310D01*
X82810366Y-38416223D01*
X83000325Y-38696461D01*
X83241306Y-38934256D01*
X83524048Y-39120468D01*
X83815691Y-39241263D01*
X84080000Y-39079214D01*
X84080000Y-37840000D01*
X84576000Y-37840000D01*
X84576000Y-39079214D01*
X84840309Y-39241263D01*
X85131952Y-39120468D01*
X85414694Y-38934256D01*
X85598000Y-38753373D01*
X85781306Y-38934256D01*
X86064048Y-39120468D01*
X86355691Y-39241263D01*
X86620000Y-39079214D01*
X86620000Y-37840000D01*
X87116000Y-37840000D01*
X87116000Y-39079214D01*
X87380309Y-39241263D01*
X87671952Y-39120468D01*
X87954694Y-38934256D01*
X88195675Y-38696461D01*
X88385634Y-38416223D01*
X88517271Y-38104310D01*
X88357859Y-37840000D01*
X87116000Y-37840000D01*
X86620000Y-37840000D01*
X84576000Y-37840000D01*
X84080000Y-37840000D01*
X82838141Y-37840000D01*
X82678729Y-38104310D01*
X66134572Y-38104310D01*
X66134572Y-37079690D01*
X82678729Y-37079690D01*
X82838141Y-37344000D01*
X84080000Y-37344000D01*
X84080000Y-37324000D01*
X84576000Y-37324000D01*
X84576000Y-37344000D01*
X86620000Y-37344000D01*
X86620000Y-37324000D01*
X87116000Y-37324000D01*
X87116000Y-37344000D01*
X88357859Y-37344000D01*
X88517271Y-37079690D01*
X88385634Y-36767777D01*
X88195675Y-36487539D01*
X87954694Y-36249744D01*
X87840779Y-36174721D01*
X87923134Y-36107134D01*
X88108706Y-35881014D01*
X88246599Y-35623034D01*
X88331513Y-35343111D01*
X88360185Y-35052000D01*
X88331513Y-34760889D01*
X88246599Y-34480966D01*
X88108706Y-34222986D01*
X87923134Y-33996866D01*
X87697014Y-33811294D01*
X87439034Y-33673401D01*
X87159111Y-33588487D01*
X86940950Y-33567000D01*
X86795050Y-33567000D01*
X86576889Y-33588487D01*
X86296966Y-33673401D01*
X86038986Y-33811294D01*
X85812866Y-33996866D01*
X85788393Y-34026687D01*
X85767502Y-33957820D01*
X85708537Y-33847506D01*
X85629185Y-33750815D01*
X85532494Y-33671463D01*
X85422180Y-33612498D01*
X85302482Y-33576188D01*
X85178000Y-33563928D01*
X83478000Y-33563928D01*
X83353518Y-33576188D01*
X83233820Y-33612498D01*
X83123506Y-33671463D01*
X83026815Y-33750815D01*
X82947463Y-33847506D01*
X82888498Y-33957820D01*
X82852188Y-34077518D01*
X82839928Y-34202000D01*
X82839928Y-35902000D01*
X82852188Y-36026482D01*
X82888498Y-36146180D01*
X82947463Y-36256494D01*
X83026815Y-36353185D01*
X83086686Y-36402320D01*
X83000325Y-36487539D01*
X82810366Y-36767777D01*
X82678729Y-37079690D01*
X66134572Y-37079690D01*
X66134572Y-36419000D01*
X66122312Y-36294518D01*
X66086002Y-36174820D01*
X66027037Y-36064506D01*
X65947685Y-35967815D01*
X65850994Y-35888463D01*
X65740680Y-35829498D01*
X65620982Y-35793188D01*
X65496500Y-35780928D01*
X62646500Y-35780928D01*
X62522018Y-35793188D01*
X62402320Y-35829498D01*
X62292006Y-35888463D01*
X62195315Y-35967815D01*
X62115963Y-36064506D01*
X62056998Y-36174820D01*
X62020688Y-36294518D01*
X62008428Y-36419000D01*
X54253717Y-36419000D01*
X54172492Y-36411000D01*
X54031508Y-36411000D01*
X53820691Y-36431764D01*
X53550192Y-36513818D01*
X53300899Y-36647068D01*
X53082392Y-36826392D01*
X52903068Y-37044899D01*
X52769818Y-37294192D01*
X52687764Y-37564691D01*
X52660057Y-37846000D01*
X45619089Y-37846000D01*
X45617217Y-37663629D01*
X45549449Y-37340314D01*
X45436212Y-37066936D01*
X45138943Y-36999782D01*
X44292725Y-37846000D01*
X43591275Y-37846000D01*
X42745057Y-36999782D01*
X42595000Y-37033680D01*
X42595000Y-36649057D01*
X43095782Y-36649057D01*
X43942000Y-37495275D01*
X44788218Y-36649057D01*
X44721064Y-36351788D01*
X44414588Y-36228511D01*
X44089951Y-36167393D01*
X43759629Y-36170783D01*
X43436314Y-36238551D01*
X43162936Y-36351788D01*
X43095782Y-36649057D01*
X42595000Y-36649057D01*
X42595000Y-34951552D01*
X67893255Y-34951552D01*
X67902111Y-35242361D01*
X67967531Y-35525855D01*
X68044411Y-35711458D01*
X68321580Y-35753695D01*
X69023275Y-35052000D01*
X68321580Y-34350305D01*
X68044411Y-34392542D01*
X67941304Y-34664603D01*
X67893255Y-34951552D01*
X42595000Y-34951552D01*
X42595000Y-33999580D01*
X68672305Y-33999580D01*
X69374000Y-34701275D01*
X69388143Y-34687133D01*
X69738868Y-35037858D01*
X69724725Y-35052000D01*
X69738868Y-35066143D01*
X69388143Y-35416868D01*
X69374000Y-35402725D01*
X68672305Y-36104420D01*
X68714542Y-36381589D01*
X68986603Y-36484696D01*
X69273552Y-36532745D01*
X69564361Y-36523889D01*
X69847855Y-36458469D01*
X70033458Y-36381589D01*
X70075695Y-36104422D01*
X70247652Y-36276379D01*
X70376658Y-36147373D01*
X70419506Y-36182537D01*
X70529820Y-36241502D01*
X70649518Y-36277812D01*
X70774000Y-36290072D01*
X71974000Y-36290072D01*
X72098482Y-36277812D01*
X72218180Y-36241502D01*
X72328494Y-36182537D01*
X72425185Y-36103185D01*
X72504537Y-36006494D01*
X72563502Y-35896180D01*
X72599812Y-35776482D01*
X72612072Y-35652000D01*
X72612072Y-34452000D01*
X72599812Y-34327518D01*
X72576904Y-34252000D01*
X75015928Y-34252000D01*
X75015928Y-35852000D01*
X75028188Y-35976482D01*
X75064498Y-36096180D01*
X75123463Y-36206494D01*
X75202815Y-36303185D01*
X75299506Y-36382537D01*
X75409820Y-36441502D01*
X75529518Y-36477812D01*
X75654000Y-36490072D01*
X77254000Y-36490072D01*
X77378482Y-36477812D01*
X77498180Y-36441502D01*
X77608494Y-36382537D01*
X77705185Y-36303185D01*
X77749700Y-36248943D01*
X78107782Y-36248943D01*
X78174936Y-36546212D01*
X78481412Y-36669489D01*
X78806049Y-36730607D01*
X79136371Y-36727217D01*
X79459686Y-36659449D01*
X79733064Y-36546212D01*
X79800218Y-36248943D01*
X78954000Y-35402725D01*
X78107782Y-36248943D01*
X77749700Y-36248943D01*
X77784537Y-36206494D01*
X77843502Y-36096180D01*
X77879812Y-35976482D01*
X77892072Y-35852000D01*
X77892072Y-35763203D01*
X78603275Y-35052000D01*
X79304725Y-35052000D01*
X80150943Y-35898218D01*
X80448212Y-35831064D01*
X80571489Y-35524588D01*
X80632607Y-35199951D01*
X80629217Y-34869629D01*
X80561449Y-34546314D01*
X80448212Y-34272936D01*
X80150943Y-34205782D01*
X79304725Y-35052000D01*
X78603275Y-35052000D01*
X77892072Y-34340797D01*
X77892072Y-34252000D01*
X77879812Y-34127518D01*
X77843502Y-34007820D01*
X77784537Y-33897506D01*
X77749701Y-33855057D01*
X78107782Y-33855057D01*
X78954000Y-34701275D01*
X79800218Y-33855057D01*
X79733064Y-33557788D01*
X79426588Y-33434511D01*
X79101951Y-33373393D01*
X78771629Y-33376783D01*
X78448314Y-33444551D01*
X78174936Y-33557788D01*
X78107782Y-33855057D01*
X77749701Y-33855057D01*
X77705185Y-33800815D01*
X77608494Y-33721463D01*
X77498180Y-33662498D01*
X77378482Y-33626188D01*
X77254000Y-33613928D01*
X75654000Y-33613928D01*
X75529518Y-33626188D01*
X75409820Y-33662498D01*
X75299506Y-33721463D01*
X75202815Y-33800815D01*
X75123463Y-33897506D01*
X75064498Y-34007820D01*
X75028188Y-34127518D01*
X75015928Y-34252000D01*
X72576904Y-34252000D01*
X72563502Y-34207820D01*
X72504537Y-34097506D01*
X72425185Y-34000815D01*
X72328494Y-33921463D01*
X72218180Y-33862498D01*
X72098482Y-33826188D01*
X71974000Y-33813928D01*
X70774000Y-33813928D01*
X70649518Y-33826188D01*
X70529820Y-33862498D01*
X70419506Y-33921463D01*
X70376658Y-33956627D01*
X70247652Y-33827621D01*
X70075695Y-33999578D01*
X70033458Y-33722411D01*
X69761397Y-33619304D01*
X69474448Y-33571255D01*
X69183639Y-33580111D01*
X68900145Y-33645531D01*
X68714542Y-33722411D01*
X68672305Y-33999580D01*
X42595000Y-33999580D01*
X42595000Y-30139041D01*
X43871684Y-30139041D01*
X44109125Y-30579101D01*
X44654941Y-30842658D01*
X45241686Y-30994667D01*
X45846813Y-31029287D01*
X46447066Y-30945188D01*
X47019379Y-30745600D01*
X47330875Y-30579101D01*
X47568316Y-30139041D01*
X45720000Y-28290725D01*
X43871684Y-30139041D01*
X42595000Y-30139041D01*
X42595000Y-28066813D01*
X42630713Y-28066813D01*
X42714812Y-28667066D01*
X42914400Y-29239379D01*
X43080899Y-29550875D01*
X43520959Y-29788316D01*
X45369275Y-27940000D01*
X46070725Y-27940000D01*
X47919041Y-29788316D01*
X48359101Y-29550875D01*
X48622658Y-29005059D01*
X48631222Y-28972000D01*
X69783428Y-28972000D01*
X69783428Y-30972000D01*
X69795688Y-31096482D01*
X69831998Y-31216180D01*
X69890963Y-31326494D01*
X69970315Y-31423185D01*
X70067006Y-31502537D01*
X70177320Y-31561502D01*
X70297018Y-31597812D01*
X70421500Y-31610072D01*
X72326500Y-31610072D01*
X72450982Y-31597812D01*
X72570680Y-31561502D01*
X72680994Y-31502537D01*
X72765000Y-31433595D01*
X73008868Y-31606418D01*
X73335852Y-31752508D01*
X73385498Y-31771001D01*
X73666000Y-31610538D01*
X73666000Y-30220000D01*
X73646000Y-30220000D01*
X73646000Y-29724000D01*
X73666000Y-29724000D01*
X73666000Y-28333462D01*
X74162000Y-28333462D01*
X74162000Y-29724000D01*
X74182000Y-29724000D01*
X74182000Y-30220000D01*
X74162000Y-30220000D01*
X74162000Y-31610538D01*
X74442502Y-31771001D01*
X74492148Y-31752508D01*
X74819132Y-31606418D01*
X75111332Y-31399343D01*
X75339377Y-31158411D01*
X75567766Y-31345845D01*
X75843552Y-31493255D01*
X76142797Y-31584030D01*
X76454000Y-31614681D01*
X76765204Y-31584030D01*
X77064449Y-31493255D01*
X77340235Y-31345845D01*
X77581963Y-31147463D01*
X77780345Y-30905734D01*
X77927755Y-30629948D01*
X78018530Y-30330703D01*
X78037407Y-30139041D01*
X103561684Y-30139041D01*
X103799125Y-30579101D01*
X104344941Y-30842658D01*
X104931686Y-30994667D01*
X105536813Y-31029287D01*
X106137066Y-30945188D01*
X106709379Y-30745600D01*
X107020875Y-30579101D01*
X107258316Y-30139041D01*
X105410000Y-28290725D01*
X103561684Y-30139041D01*
X78037407Y-30139041D01*
X78041500Y-30097485D01*
X78041500Y-29846514D01*
X78018530Y-29613296D01*
X77927755Y-29314051D01*
X77780345Y-29038265D01*
X77581963Y-28796537D01*
X77340234Y-28598155D01*
X77064448Y-28450745D01*
X76765203Y-28359970D01*
X76454000Y-28329319D01*
X76142796Y-28359970D01*
X75843551Y-28450745D01*
X75567765Y-28598155D01*
X75339377Y-28785589D01*
X75111332Y-28544657D01*
X74819132Y-28337582D01*
X74492148Y-28191492D01*
X74442502Y-28172999D01*
X74162000Y-28333462D01*
X73666000Y-28333462D01*
X73385498Y-28172999D01*
X73335852Y-28191492D01*
X73008868Y-28337582D01*
X72765000Y-28510405D01*
X72680994Y-28441463D01*
X72570680Y-28382498D01*
X72450982Y-28346188D01*
X72326500Y-28333928D01*
X70421500Y-28333928D01*
X70297018Y-28346188D01*
X70177320Y-28382498D01*
X70067006Y-28441463D01*
X69970315Y-28520815D01*
X69890963Y-28617506D01*
X69831998Y-28727820D01*
X69795688Y-28847518D01*
X69783428Y-28972000D01*
X48631222Y-28972000D01*
X48774667Y-28418314D01*
X48794776Y-28066813D01*
X102320713Y-28066813D01*
X102404812Y-28667066D01*
X102604400Y-29239379D01*
X102770899Y-29550875D01*
X103210959Y-29788316D01*
X105059275Y-27940000D01*
X105760725Y-27940000D01*
X107609041Y-29788316D01*
X108049101Y-29550875D01*
X108312658Y-29005059D01*
X108464667Y-28418314D01*
X108499287Y-27813187D01*
X108415188Y-27212934D01*
X108215600Y-26640621D01*
X108049101Y-26329125D01*
X107609041Y-26091684D01*
X105760725Y-27940000D01*
X105059275Y-27940000D01*
X103210959Y-26091684D01*
X102770899Y-26329125D01*
X102507342Y-26874941D01*
X102355333Y-27461686D01*
X102320713Y-28066813D01*
X48794776Y-28066813D01*
X48809287Y-27813187D01*
X48725188Y-27212934D01*
X48525600Y-26640621D01*
X48359101Y-26329125D01*
X47919041Y-26091684D01*
X46070725Y-27940000D01*
X45369275Y-27940000D01*
X43520959Y-26091684D01*
X43080899Y-26329125D01*
X42817342Y-26874941D01*
X42665333Y-27461686D01*
X42630713Y-28066813D01*
X42595000Y-28066813D01*
X42595000Y-26703504D01*
X42633551Y-26310332D01*
X42738004Y-25964366D01*
X42856791Y-25740959D01*
X43871684Y-25740959D01*
X45720000Y-27589275D01*
X47568316Y-25740959D01*
X103561684Y-25740959D01*
X105410000Y-27589275D01*
X107258316Y-25740959D01*
X107020875Y-25300899D01*
X106475059Y-25037342D01*
X105888314Y-24885333D01*
X105283187Y-24850713D01*
X104682934Y-24934812D01*
X104110621Y-25134400D01*
X103799125Y-25300899D01*
X103561684Y-25740959D01*
X47568316Y-25740959D01*
X47330875Y-25300899D01*
X46785059Y-25037342D01*
X46198314Y-24885333D01*
X45593187Y-24850713D01*
X44992934Y-24934812D01*
X44420621Y-25134400D01*
X44109125Y-25300899D01*
X43871684Y-25740959D01*
X42856791Y-25740959D01*
X42907667Y-25645276D01*
X43136076Y-25365219D01*
X43414534Y-25134859D01*
X43732430Y-24962973D01*
X44077658Y-24856107D01*
X44468753Y-24815000D01*
X106646496Y-24815000D01*
X107039668Y-24853551D01*
M02*
