G04 #@! TF.GenerationSoftware,KiCad,Pcbnew,(5.1.4)-1*
G04 #@! TF.CreationDate,2019-12-07T06:36:36-05:00*
G04 #@! TF.ProjectId,BBPSU_Dsch,42425053-555f-4447-9363-682e6b696361,rev?*
G04 #@! TF.SameCoordinates,Original*
G04 #@! TF.FileFunction,Legend,Bot*
G04 #@! TF.FilePolarity,Positive*
%FSLAX46Y46*%
G04 Gerber Fmt 4.6, Leading zero omitted, Abs format (unit mm)*
G04 Created by KiCad (PCBNEW (5.1.4)-1) date 2019-12-07 06:36:36*
%MOMM*%
%LPD*%
G04 APERTURE LIST*
%ADD10C,0.010000*%
G04 APERTURE END LIST*
D10*
G36*
X90127248Y-48053782D02*
G01*
X91334377Y-48053782D01*
X91334377Y-47450218D01*
X90127248Y-47450218D01*
X90127248Y-46243089D01*
X89523684Y-46243089D01*
X89523684Y-47450218D01*
X88316555Y-47450218D01*
X88316555Y-48053538D01*
X88916976Y-48056804D01*
X89517396Y-48060069D01*
X89520662Y-48660490D01*
X89523927Y-49260911D01*
X90127248Y-49260911D01*
X90127248Y-48053782D01*
X90127248Y-48053782D01*
G37*
X90127248Y-48053782D02*
X91334377Y-48053782D01*
X91334377Y-47450218D01*
X90127248Y-47450218D01*
X90127248Y-46243089D01*
X89523684Y-46243089D01*
X89523684Y-47450218D01*
X88316555Y-47450218D01*
X88316555Y-48053538D01*
X88916976Y-48056804D01*
X89517396Y-48060069D01*
X89520662Y-48660490D01*
X89523927Y-49260911D01*
X90127248Y-49260911D01*
X90127248Y-48053782D01*
G36*
X73240020Y-47450218D02*
G01*
X70222198Y-47450218D01*
X70222198Y-48053782D01*
X73240020Y-48053782D01*
X73240020Y-47450218D01*
X73240020Y-47450218D01*
G37*
X73240020Y-47450218D02*
X70222198Y-47450218D01*
X70222198Y-48053782D01*
X73240020Y-48053782D01*
X73240020Y-47450218D01*
G36*
X89946857Y-50766648D02*
G01*
X90056024Y-50762439D01*
X90109281Y-50758461D01*
X90377462Y-50721918D01*
X90640658Y-50662608D01*
X90896621Y-50581446D01*
X91143103Y-50479346D01*
X91377855Y-50357224D01*
X91598630Y-50215993D01*
X91774476Y-50080892D01*
X91973601Y-49898350D01*
X92154043Y-49699388D01*
X92315021Y-49485246D01*
X92455755Y-49257162D01*
X92575468Y-49016377D01*
X92673380Y-48764131D01*
X92736636Y-48550451D01*
X92790398Y-48295687D01*
X92823602Y-48033875D01*
X92836157Y-47769474D01*
X92827970Y-47506943D01*
X92798950Y-47250743D01*
X92766887Y-47080689D01*
X92695092Y-46811938D01*
X92601676Y-46554827D01*
X92487269Y-46310290D01*
X92352501Y-46079265D01*
X92198002Y-45862689D01*
X92024403Y-45661499D01*
X91832332Y-45476630D01*
X91622420Y-45309020D01*
X91533866Y-45247196D01*
X91302064Y-45106329D01*
X91060075Y-44988213D01*
X90807374Y-44892645D01*
X90543434Y-44819426D01*
X90287107Y-44771166D01*
X90222666Y-44763257D01*
X90143077Y-44755997D01*
X90053678Y-44749627D01*
X89959807Y-44744386D01*
X89866804Y-44740516D01*
X89780007Y-44738255D01*
X89704755Y-44737845D01*
X89646386Y-44739526D01*
X89624278Y-44741330D01*
X89593066Y-44744767D01*
X89544553Y-44749981D01*
X89486451Y-44756146D01*
X89448238Y-44760163D01*
X89199765Y-44798211D01*
X88950947Y-44859603D01*
X88705372Y-44942846D01*
X88466629Y-45046445D01*
X88238304Y-45168904D01*
X88023985Y-45308731D01*
X87895317Y-45407059D01*
X87813263Y-45477646D01*
X87723395Y-45561415D01*
X87632509Y-45651592D01*
X87547407Y-45741405D01*
X87474885Y-45824079D01*
X87466346Y-45834425D01*
X87319547Y-46032822D01*
X87188636Y-46248745D01*
X87074872Y-46479265D01*
X86979511Y-46721453D01*
X86903813Y-46972380D01*
X86849036Y-47229118D01*
X86838417Y-47296183D01*
X86815778Y-47450218D01*
X84485079Y-47450218D01*
X84190557Y-47450187D01*
X83920274Y-47450092D01*
X83673320Y-47449925D01*
X83448786Y-47449682D01*
X83245762Y-47449355D01*
X83063339Y-47448939D01*
X82900606Y-47448427D01*
X82756655Y-47447814D01*
X82630576Y-47447093D01*
X82521459Y-47446258D01*
X82428394Y-47445303D01*
X82350473Y-47444222D01*
X82286785Y-47443008D01*
X82236421Y-47441657D01*
X82198471Y-47440160D01*
X82172026Y-47438514D01*
X82156176Y-47436710D01*
X82150011Y-47434744D01*
X82149880Y-47434500D01*
X82099173Y-47275579D01*
X82043105Y-47137122D01*
X81979193Y-47014609D01*
X81904957Y-46903522D01*
X81817915Y-46799340D01*
X81778547Y-46758175D01*
X81643272Y-46638732D01*
X81495836Y-46539785D01*
X81338533Y-46461339D01*
X81173658Y-46403396D01*
X81003506Y-46365960D01*
X80830372Y-46349034D01*
X80656550Y-46352621D01*
X80484336Y-46376725D01*
X80316023Y-46421350D01*
X80153907Y-46486497D01*
X80000283Y-46572171D01*
X79857445Y-46678375D01*
X79774553Y-46755295D01*
X79652539Y-46893739D01*
X79553725Y-47039708D01*
X79476733Y-47195393D01*
X79445386Y-47279364D01*
X79396798Y-47460927D01*
X79371573Y-47643842D01*
X79370155Y-47747656D01*
X87474080Y-47747656D01*
X87484761Y-47504410D01*
X87517199Y-47272098D01*
X87571980Y-47048077D01*
X87649694Y-46829703D01*
X87706728Y-46702049D01*
X87820116Y-46494465D01*
X87952742Y-46302222D01*
X88103277Y-46126186D01*
X88270393Y-45967225D01*
X88452761Y-45826206D01*
X88649053Y-45703998D01*
X88857940Y-45601467D01*
X89078093Y-45519480D01*
X89308185Y-45458906D01*
X89546885Y-45420612D01*
X89687149Y-45409038D01*
X89732493Y-45406474D01*
X89772104Y-45404080D01*
X89787743Y-45403050D01*
X89811636Y-45403115D01*
X89854896Y-45404853D01*
X89911817Y-45407979D01*
X89976695Y-45412208D01*
X89991086Y-45413231D01*
X90237942Y-45442903D01*
X90474815Y-45495053D01*
X90700679Y-45568791D01*
X90914509Y-45663228D01*
X91115278Y-45777472D01*
X91301962Y-45910634D01*
X91473534Y-46061824D01*
X91628970Y-46230151D01*
X91767243Y-46414726D01*
X91887328Y-46614658D01*
X91988199Y-46829058D01*
X92068831Y-47057035D01*
X92120853Y-47261604D01*
X92136778Y-47355977D01*
X92149338Y-47468304D01*
X92158253Y-47591582D01*
X92163244Y-47718805D01*
X92164031Y-47842970D01*
X92160335Y-47957073D01*
X92152336Y-48050428D01*
X92110179Y-48296573D01*
X92045850Y-48531343D01*
X91959746Y-48754085D01*
X91852266Y-48964147D01*
X91723808Y-49160874D01*
X91574769Y-49343613D01*
X91405549Y-49511712D01*
X91216545Y-49664517D01*
X91133188Y-49722754D01*
X90940870Y-49836639D01*
X90735132Y-49930815D01*
X90518574Y-50004959D01*
X90293795Y-50058745D01*
X90063396Y-50091851D01*
X89829977Y-50103952D01*
X89596137Y-50094726D01*
X89364478Y-50063847D01*
X89137598Y-50010993D01*
X89045862Y-49982663D01*
X88822440Y-49895625D01*
X88612598Y-49788014D01*
X88417283Y-49661004D01*
X88237446Y-49515769D01*
X88074034Y-49353483D01*
X87927996Y-49175319D01*
X87800281Y-48982451D01*
X87691836Y-48776053D01*
X87603612Y-48557299D01*
X87536556Y-48327363D01*
X87491617Y-48087418D01*
X87487270Y-48054112D01*
X87482532Y-48002426D01*
X87478549Y-47933414D01*
X87475657Y-47854894D01*
X87474192Y-47774684D01*
X87474080Y-47747656D01*
X79370155Y-47747656D01*
X79369085Y-47825943D01*
X79388705Y-48005064D01*
X79429804Y-48179039D01*
X79491756Y-48345704D01*
X79573932Y-48502892D01*
X79675705Y-48648437D01*
X79796445Y-48780174D01*
X79908211Y-48875647D01*
X80059282Y-48975451D01*
X80221182Y-49053889D01*
X80391377Y-49110897D01*
X80567329Y-49146412D01*
X80746502Y-49160370D01*
X80926362Y-49152708D01*
X81104372Y-49123363D01*
X81277996Y-49072272D01*
X81444698Y-48999369D01*
X81583040Y-48917539D01*
X81624564Y-48886713D01*
X81675937Y-48844358D01*
X81729473Y-48796970D01*
X81762135Y-48766209D01*
X81870871Y-48648630D01*
X81962296Y-48522545D01*
X82038541Y-48384132D01*
X82101734Y-48229568D01*
X82150259Y-48069500D01*
X82155286Y-48067514D01*
X82169888Y-48065692D01*
X82194974Y-48064027D01*
X82231453Y-48062514D01*
X82280236Y-48061146D01*
X82342231Y-48059916D01*
X82418348Y-48058820D01*
X82509496Y-48057850D01*
X82616585Y-48057002D01*
X82740524Y-48056267D01*
X82882222Y-48055641D01*
X83042588Y-48055118D01*
X83222533Y-48054690D01*
X83422965Y-48054353D01*
X83644794Y-48054100D01*
X83888930Y-48053924D01*
X84156281Y-48053821D01*
X84447757Y-48053782D01*
X86817749Y-48053782D01*
X86826377Y-48132371D01*
X86849423Y-48290056D01*
X86884328Y-48459353D01*
X86928755Y-48631114D01*
X86980371Y-48796190D01*
X87029000Y-48926493D01*
X87143297Y-49174295D01*
X87277546Y-49407440D01*
X87430707Y-49625121D01*
X87601739Y-49826532D01*
X87789603Y-50010866D01*
X87993259Y-50177314D01*
X88211665Y-50325070D01*
X88443783Y-50453326D01*
X88688573Y-50561276D01*
X88944993Y-50648112D01*
X89212005Y-50713027D01*
X89364836Y-50739365D01*
X89461124Y-50750626D01*
X89574953Y-50759176D01*
X89698840Y-50764825D01*
X89825302Y-50767380D01*
X89946857Y-50766648D01*
X89946857Y-50766648D01*
G37*
X89946857Y-50766648D02*
X90056024Y-50762439D01*
X90109281Y-50758461D01*
X90377462Y-50721918D01*
X90640658Y-50662608D01*
X90896621Y-50581446D01*
X91143103Y-50479346D01*
X91377855Y-50357224D01*
X91598630Y-50215993D01*
X91774476Y-50080892D01*
X91973601Y-49898350D01*
X92154043Y-49699388D01*
X92315021Y-49485246D01*
X92455755Y-49257162D01*
X92575468Y-49016377D01*
X92673380Y-48764131D01*
X92736636Y-48550451D01*
X92790398Y-48295687D01*
X92823602Y-48033875D01*
X92836157Y-47769474D01*
X92827970Y-47506943D01*
X92798950Y-47250743D01*
X92766887Y-47080689D01*
X92695092Y-46811938D01*
X92601676Y-46554827D01*
X92487269Y-46310290D01*
X92352501Y-46079265D01*
X92198002Y-45862689D01*
X92024403Y-45661499D01*
X91832332Y-45476630D01*
X91622420Y-45309020D01*
X91533866Y-45247196D01*
X91302064Y-45106329D01*
X91060075Y-44988213D01*
X90807374Y-44892645D01*
X90543434Y-44819426D01*
X90287107Y-44771166D01*
X90222666Y-44763257D01*
X90143077Y-44755997D01*
X90053678Y-44749627D01*
X89959807Y-44744386D01*
X89866804Y-44740516D01*
X89780007Y-44738255D01*
X89704755Y-44737845D01*
X89646386Y-44739526D01*
X89624278Y-44741330D01*
X89593066Y-44744767D01*
X89544553Y-44749981D01*
X89486451Y-44756146D01*
X89448238Y-44760163D01*
X89199765Y-44798211D01*
X88950947Y-44859603D01*
X88705372Y-44942846D01*
X88466629Y-45046445D01*
X88238304Y-45168904D01*
X88023985Y-45308731D01*
X87895317Y-45407059D01*
X87813263Y-45477646D01*
X87723395Y-45561415D01*
X87632509Y-45651592D01*
X87547407Y-45741405D01*
X87474885Y-45824079D01*
X87466346Y-45834425D01*
X87319547Y-46032822D01*
X87188636Y-46248745D01*
X87074872Y-46479265D01*
X86979511Y-46721453D01*
X86903813Y-46972380D01*
X86849036Y-47229118D01*
X86838417Y-47296183D01*
X86815778Y-47450218D01*
X84485079Y-47450218D01*
X84190557Y-47450187D01*
X83920274Y-47450092D01*
X83673320Y-47449925D01*
X83448786Y-47449682D01*
X83245762Y-47449355D01*
X83063339Y-47448939D01*
X82900606Y-47448427D01*
X82756655Y-47447814D01*
X82630576Y-47447093D01*
X82521459Y-47446258D01*
X82428394Y-47445303D01*
X82350473Y-47444222D01*
X82286785Y-47443008D01*
X82236421Y-47441657D01*
X82198471Y-47440160D01*
X82172026Y-47438514D01*
X82156176Y-47436710D01*
X82150011Y-47434744D01*
X82149880Y-47434500D01*
X82099173Y-47275579D01*
X82043105Y-47137122D01*
X81979193Y-47014609D01*
X81904957Y-46903522D01*
X81817915Y-46799340D01*
X81778547Y-46758175D01*
X81643272Y-46638732D01*
X81495836Y-46539785D01*
X81338533Y-46461339D01*
X81173658Y-46403396D01*
X81003506Y-46365960D01*
X80830372Y-46349034D01*
X80656550Y-46352621D01*
X80484336Y-46376725D01*
X80316023Y-46421350D01*
X80153907Y-46486497D01*
X80000283Y-46572171D01*
X79857445Y-46678375D01*
X79774553Y-46755295D01*
X79652539Y-46893739D01*
X79553725Y-47039708D01*
X79476733Y-47195393D01*
X79445386Y-47279364D01*
X79396798Y-47460927D01*
X79371573Y-47643842D01*
X79370155Y-47747656D01*
X87474080Y-47747656D01*
X87484761Y-47504410D01*
X87517199Y-47272098D01*
X87571980Y-47048077D01*
X87649694Y-46829703D01*
X87706728Y-46702049D01*
X87820116Y-46494465D01*
X87952742Y-46302222D01*
X88103277Y-46126186D01*
X88270393Y-45967225D01*
X88452761Y-45826206D01*
X88649053Y-45703998D01*
X88857940Y-45601467D01*
X89078093Y-45519480D01*
X89308185Y-45458906D01*
X89546885Y-45420612D01*
X89687149Y-45409038D01*
X89732493Y-45406474D01*
X89772104Y-45404080D01*
X89787743Y-45403050D01*
X89811636Y-45403115D01*
X89854896Y-45404853D01*
X89911817Y-45407979D01*
X89976695Y-45412208D01*
X89991086Y-45413231D01*
X90237942Y-45442903D01*
X90474815Y-45495053D01*
X90700679Y-45568791D01*
X90914509Y-45663228D01*
X91115278Y-45777472D01*
X91301962Y-45910634D01*
X91473534Y-46061824D01*
X91628970Y-46230151D01*
X91767243Y-46414726D01*
X91887328Y-46614658D01*
X91988199Y-46829058D01*
X92068831Y-47057035D01*
X92120853Y-47261604D01*
X92136778Y-47355977D01*
X92149338Y-47468304D01*
X92158253Y-47591582D01*
X92163244Y-47718805D01*
X92164031Y-47842970D01*
X92160335Y-47957073D01*
X92152336Y-48050428D01*
X92110179Y-48296573D01*
X92045850Y-48531343D01*
X91959746Y-48754085D01*
X91852266Y-48964147D01*
X91723808Y-49160874D01*
X91574769Y-49343613D01*
X91405549Y-49511712D01*
X91216545Y-49664517D01*
X91133188Y-49722754D01*
X90940870Y-49836639D01*
X90735132Y-49930815D01*
X90518574Y-50004959D01*
X90293795Y-50058745D01*
X90063396Y-50091851D01*
X89829977Y-50103952D01*
X89596137Y-50094726D01*
X89364478Y-50063847D01*
X89137598Y-50010993D01*
X89045862Y-49982663D01*
X88822440Y-49895625D01*
X88612598Y-49788014D01*
X88417283Y-49661004D01*
X88237446Y-49515769D01*
X88074034Y-49353483D01*
X87927996Y-49175319D01*
X87800281Y-48982451D01*
X87691836Y-48776053D01*
X87603612Y-48557299D01*
X87536556Y-48327363D01*
X87491617Y-48087418D01*
X87487270Y-48054112D01*
X87482532Y-48002426D01*
X87478549Y-47933414D01*
X87475657Y-47854894D01*
X87474192Y-47774684D01*
X87474080Y-47747656D01*
X79370155Y-47747656D01*
X79369085Y-47825943D01*
X79388705Y-48005064D01*
X79429804Y-48179039D01*
X79491756Y-48345704D01*
X79573932Y-48502892D01*
X79675705Y-48648437D01*
X79796445Y-48780174D01*
X79908211Y-48875647D01*
X80059282Y-48975451D01*
X80221182Y-49053889D01*
X80391377Y-49110897D01*
X80567329Y-49146412D01*
X80746502Y-49160370D01*
X80926362Y-49152708D01*
X81104372Y-49123363D01*
X81277996Y-49072272D01*
X81444698Y-48999369D01*
X81583040Y-48917539D01*
X81624564Y-48886713D01*
X81675937Y-48844358D01*
X81729473Y-48796970D01*
X81762135Y-48766209D01*
X81870871Y-48648630D01*
X81962296Y-48522545D01*
X82038541Y-48384132D01*
X82101734Y-48229568D01*
X82150259Y-48069500D01*
X82155286Y-48067514D01*
X82169888Y-48065692D01*
X82194974Y-48064027D01*
X82231453Y-48062514D01*
X82280236Y-48061146D01*
X82342231Y-48059916D01*
X82418348Y-48058820D01*
X82509496Y-48057850D01*
X82616585Y-48057002D01*
X82740524Y-48056267D01*
X82882222Y-48055641D01*
X83042588Y-48055118D01*
X83222533Y-48054690D01*
X83422965Y-48054353D01*
X83644794Y-48054100D01*
X83888930Y-48053924D01*
X84156281Y-48053821D01*
X84447757Y-48053782D01*
X86817749Y-48053782D01*
X86826377Y-48132371D01*
X86849423Y-48290056D01*
X86884328Y-48459353D01*
X86928755Y-48631114D01*
X86980371Y-48796190D01*
X87029000Y-48926493D01*
X87143297Y-49174295D01*
X87277546Y-49407440D01*
X87430707Y-49625121D01*
X87601739Y-49826532D01*
X87789603Y-50010866D01*
X87993259Y-50177314D01*
X88211665Y-50325070D01*
X88443783Y-50453326D01*
X88688573Y-50561276D01*
X88944993Y-50648112D01*
X89212005Y-50713027D01*
X89364836Y-50739365D01*
X89461124Y-50750626D01*
X89574953Y-50759176D01*
X89698840Y-50764825D01*
X89825302Y-50767380D01*
X89946857Y-50766648D01*
G36*
X81056256Y-50753128D02*
G01*
X81319425Y-50717017D01*
X81579122Y-50657090D01*
X81784228Y-50591465D01*
X82040147Y-50485675D01*
X82284420Y-50357906D01*
X82515838Y-50209061D01*
X82733189Y-50040042D01*
X82935266Y-49851751D01*
X83120858Y-49645091D01*
X83215478Y-49523912D01*
X83248932Y-49478844D01*
X82988524Y-49297576D01*
X82916808Y-49248046D01*
X82851485Y-49203675D01*
X82795498Y-49166402D01*
X82751790Y-49138167D01*
X82723304Y-49120908D01*
X82713402Y-49116307D01*
X82698901Y-49125699D01*
X82675123Y-49150303D01*
X82647675Y-49184200D01*
X82504794Y-49354184D01*
X82342246Y-49511421D01*
X82163036Y-49654042D01*
X81970171Y-49780182D01*
X81766655Y-49887971D01*
X81555496Y-49975543D01*
X81339698Y-50041030D01*
X81229703Y-50065156D01*
X80989037Y-50098637D01*
X80748998Y-50107783D01*
X80511295Y-50093111D01*
X80277637Y-50055139D01*
X80049730Y-49994382D01*
X79829283Y-49911358D01*
X79618006Y-49806584D01*
X79417605Y-49680576D01*
X79229789Y-49533852D01*
X79112063Y-49424432D01*
X78946294Y-49242376D01*
X78802605Y-49048329D01*
X78680951Y-48842198D01*
X78581286Y-48623892D01*
X78503562Y-48393320D01*
X78447734Y-48150390D01*
X78437787Y-48091501D01*
X78426441Y-47994621D01*
X78419514Y-47881217D01*
X78417009Y-47759364D01*
X78418930Y-47637138D01*
X78425278Y-47522616D01*
X78436057Y-47423874D01*
X78437531Y-47414211D01*
X78487905Y-47171507D01*
X78560441Y-46938693D01*
X78654333Y-46717044D01*
X78768776Y-46507836D01*
X78902965Y-46312342D01*
X79056095Y-46131839D01*
X79227362Y-45967601D01*
X79415959Y-45820904D01*
X79464278Y-45788074D01*
X79674025Y-45663975D01*
X79892446Y-45562734D01*
X80117849Y-45484583D01*
X80348540Y-45429753D01*
X80582829Y-45398477D01*
X80819023Y-45390985D01*
X81055431Y-45407510D01*
X81290361Y-45448283D01*
X81506803Y-45508419D01*
X81734539Y-45596612D01*
X81950452Y-45706554D01*
X82153155Y-45837283D01*
X82341263Y-45987839D01*
X82513389Y-46157259D01*
X82616939Y-46278164D01*
X82710340Y-46394971D01*
X82769116Y-46352942D01*
X82798126Y-46332425D01*
X82843390Y-46300692D01*
X82900479Y-46260834D01*
X82964965Y-46215942D01*
X83032223Y-46169246D01*
X83094780Y-46125499D01*
X83149595Y-46086448D01*
X83193541Y-46054382D01*
X83223487Y-46031590D01*
X83236303Y-46020360D01*
X83236555Y-46019798D01*
X83228524Y-46002743D01*
X83206321Y-45970584D01*
X83172782Y-45926741D01*
X83130744Y-45874636D01*
X83083043Y-45817689D01*
X83032514Y-45759323D01*
X82981995Y-45702957D01*
X82934320Y-45652012D01*
X82916448Y-45633681D01*
X82712602Y-45444979D01*
X82496123Y-45277767D01*
X82267976Y-45132450D01*
X82029126Y-45009430D01*
X81780539Y-44909111D01*
X81523181Y-44831899D01*
X81258016Y-44778196D01*
X80986011Y-44748406D01*
X80784575Y-44741991D01*
X80528301Y-44750877D01*
X80285847Y-44778075D01*
X80052746Y-44824634D01*
X79824532Y-44891599D01*
X79596741Y-44980017D01*
X79423466Y-45061051D01*
X79184927Y-45194212D01*
X78960752Y-45347622D01*
X78752096Y-45520133D01*
X78560117Y-45710597D01*
X78385973Y-45917867D01*
X78230820Y-46140794D01*
X78095865Y-46378132D01*
X77982773Y-46625051D01*
X77893795Y-46875606D01*
X77827904Y-47132933D01*
X77801707Y-47274893D01*
X77773508Y-47450318D01*
X74730070Y-47443930D01*
X74720568Y-47355911D01*
X74687654Y-47142809D01*
X74635173Y-46922958D01*
X74565244Y-46702343D01*
X74479986Y-46486951D01*
X74381518Y-46282766D01*
X74277760Y-46104772D01*
X74180049Y-45963480D01*
X74068191Y-45820631D01*
X73947212Y-45681845D01*
X73822139Y-45552742D01*
X73697999Y-45438944D01*
X73638768Y-45390263D01*
X73413429Y-45228230D01*
X73178336Y-45089374D01*
X72933535Y-44973711D01*
X72679071Y-44881256D01*
X72414990Y-44812027D01*
X72141336Y-44766039D01*
X71858156Y-44743308D01*
X71800268Y-44741551D01*
X71723453Y-44740185D01*
X71651867Y-44739535D01*
X71590741Y-44739602D01*
X71545301Y-44740385D01*
X71523634Y-44741541D01*
X71353162Y-44760687D01*
X71201485Y-44782680D01*
X71062303Y-44808773D01*
X70929313Y-44840217D01*
X70796213Y-44878264D01*
X70731456Y-44898905D01*
X70480997Y-44994078D01*
X70242723Y-45110659D01*
X70017680Y-45247509D01*
X69806913Y-45403488D01*
X69611467Y-45577459D01*
X69432388Y-45768282D01*
X69270723Y-45974817D01*
X69127515Y-46195927D01*
X69003812Y-46430471D01*
X68900658Y-46677311D01*
X68819099Y-46935308D01*
X68802499Y-47000217D01*
X68776604Y-47111421D01*
X68756524Y-47211223D01*
X68741592Y-47305705D01*
X68731140Y-47400948D01*
X68724501Y-47503034D01*
X68721007Y-47618042D01*
X68719992Y-47752000D01*
X68720039Y-47758287D01*
X69379723Y-47758287D01*
X69391411Y-47508504D01*
X69426253Y-47266430D01*
X69483912Y-47033101D01*
X69564055Y-46809556D01*
X69666347Y-46596829D01*
X69790451Y-46395960D01*
X69843438Y-46322719D01*
X69995584Y-46141651D01*
X70164704Y-45978359D01*
X70349128Y-45833739D01*
X70547188Y-45708687D01*
X70757217Y-45604099D01*
X70977545Y-45520871D01*
X71206505Y-45459898D01*
X71442429Y-45422076D01*
X71536208Y-45413777D01*
X71595007Y-45409752D01*
X71646391Y-45406231D01*
X71684000Y-45403652D01*
X71699674Y-45402573D01*
X71721019Y-45402816D01*
X71762051Y-45404689D01*
X71817383Y-45407901D01*
X71881626Y-45412159D01*
X71900159Y-45413476D01*
X72144620Y-45442984D01*
X72379392Y-45494914D01*
X72603430Y-45568217D01*
X72815686Y-45661848D01*
X73015114Y-45774759D01*
X73200668Y-45905904D01*
X73371300Y-46054235D01*
X73525965Y-46218706D01*
X73663616Y-46398270D01*
X73783206Y-46591880D01*
X73883689Y-46798489D01*
X73964019Y-47017051D01*
X74023149Y-47246518D01*
X74060031Y-47485843D01*
X74068201Y-47582247D01*
X74072871Y-47831280D01*
X74054383Y-48074066D01*
X74013429Y-48309360D01*
X73950700Y-48535916D01*
X73866887Y-48752488D01*
X73762682Y-48957831D01*
X73638776Y-49150700D01*
X73495860Y-49329848D01*
X73334626Y-49494031D01*
X73155764Y-49642004D01*
X72959967Y-49772519D01*
X72805946Y-49856451D01*
X72587083Y-49951453D01*
X72359714Y-50023733D01*
X72126145Y-50073274D01*
X71888677Y-50100062D01*
X71649615Y-50104081D01*
X71411264Y-50085315D01*
X71175926Y-50043748D01*
X70945905Y-49979366D01*
X70723506Y-49892152D01*
X70677729Y-49870812D01*
X70468117Y-49756752D01*
X70274531Y-49623949D01*
X70097739Y-49473652D01*
X69938505Y-49307108D01*
X69797598Y-49125564D01*
X69675784Y-48930269D01*
X69573829Y-48722470D01*
X69492499Y-48503413D01*
X69432562Y-48274348D01*
X69394784Y-48036521D01*
X69379930Y-47791179D01*
X69379723Y-47758287D01*
X68720039Y-47758287D01*
X68721009Y-47885835D01*
X68724491Y-48000714D01*
X68731081Y-48102763D01*
X68741421Y-48198106D01*
X68756155Y-48292869D01*
X68775925Y-48393180D01*
X68797221Y-48487594D01*
X68871349Y-48749490D01*
X68967416Y-49000129D01*
X69084385Y-49238489D01*
X69221223Y-49463548D01*
X69376895Y-49674281D01*
X69550368Y-49869667D01*
X69740605Y-50048684D01*
X69946575Y-50210307D01*
X70167240Y-50353516D01*
X70401568Y-50477287D01*
X70648524Y-50580597D01*
X70907074Y-50662424D01*
X71026951Y-50691970D01*
X71130272Y-50714304D01*
X71221719Y-50731590D01*
X71307249Y-50744425D01*
X71392820Y-50753407D01*
X71484392Y-50759132D01*
X71587922Y-50762200D01*
X71709368Y-50763206D01*
X71737396Y-50763212D01*
X71872086Y-50761991D01*
X71987973Y-50758137D01*
X72091327Y-50750985D01*
X72188415Y-50739876D01*
X72285507Y-50724148D01*
X72388871Y-50703138D01*
X72459655Y-50686981D01*
X72705177Y-50617442D01*
X72946965Y-50526094D01*
X73180594Y-50415026D01*
X73401638Y-50286331D01*
X73593993Y-50151149D01*
X73685494Y-50076214D01*
X73783970Y-49987914D01*
X73882902Y-49892592D01*
X73975767Y-49796595D01*
X74056044Y-49706270D01*
X74075953Y-49682148D01*
X74227077Y-49476736D01*
X74361391Y-49256129D01*
X74477369Y-49023846D01*
X74573484Y-48783408D01*
X74648211Y-48538335D01*
X74700024Y-48292146D01*
X74711051Y-48217247D01*
X74718249Y-48164554D01*
X74724950Y-48118637D01*
X74729988Y-48087397D01*
X74731000Y-48082074D01*
X74736836Y-48053782D01*
X77779327Y-48053782D01*
X77779327Y-48083589D01*
X77781972Y-48116060D01*
X77789217Y-48167455D01*
X77800024Y-48232187D01*
X77813359Y-48304671D01*
X77828185Y-48379322D01*
X77843466Y-48450553D01*
X77858165Y-48512779D01*
X77860990Y-48523829D01*
X77938313Y-48772275D01*
X78038987Y-49014697D01*
X78161515Y-49248942D01*
X78304399Y-49472861D01*
X78466143Y-49684303D01*
X78645248Y-49881117D01*
X78840219Y-50061152D01*
X79037451Y-50213753D01*
X79264935Y-50359438D01*
X79503049Y-50483248D01*
X79750030Y-50584938D01*
X80004117Y-50664268D01*
X80263545Y-50720994D01*
X80526553Y-50754875D01*
X80791378Y-50765667D01*
X81056256Y-50753128D01*
X81056256Y-50753128D01*
G37*
X81056256Y-50753128D02*
X81319425Y-50717017D01*
X81579122Y-50657090D01*
X81784228Y-50591465D01*
X82040147Y-50485675D01*
X82284420Y-50357906D01*
X82515838Y-50209061D01*
X82733189Y-50040042D01*
X82935266Y-49851751D01*
X83120858Y-49645091D01*
X83215478Y-49523912D01*
X83248932Y-49478844D01*
X82988524Y-49297576D01*
X82916808Y-49248046D01*
X82851485Y-49203675D01*
X82795498Y-49166402D01*
X82751790Y-49138167D01*
X82723304Y-49120908D01*
X82713402Y-49116307D01*
X82698901Y-49125699D01*
X82675123Y-49150303D01*
X82647675Y-49184200D01*
X82504794Y-49354184D01*
X82342246Y-49511421D01*
X82163036Y-49654042D01*
X81970171Y-49780182D01*
X81766655Y-49887971D01*
X81555496Y-49975543D01*
X81339698Y-50041030D01*
X81229703Y-50065156D01*
X80989037Y-50098637D01*
X80748998Y-50107783D01*
X80511295Y-50093111D01*
X80277637Y-50055139D01*
X80049730Y-49994382D01*
X79829283Y-49911358D01*
X79618006Y-49806584D01*
X79417605Y-49680576D01*
X79229789Y-49533852D01*
X79112063Y-49424432D01*
X78946294Y-49242376D01*
X78802605Y-49048329D01*
X78680951Y-48842198D01*
X78581286Y-48623892D01*
X78503562Y-48393320D01*
X78447734Y-48150390D01*
X78437787Y-48091501D01*
X78426441Y-47994621D01*
X78419514Y-47881217D01*
X78417009Y-47759364D01*
X78418930Y-47637138D01*
X78425278Y-47522616D01*
X78436057Y-47423874D01*
X78437531Y-47414211D01*
X78487905Y-47171507D01*
X78560441Y-46938693D01*
X78654333Y-46717044D01*
X78768776Y-46507836D01*
X78902965Y-46312342D01*
X79056095Y-46131839D01*
X79227362Y-45967601D01*
X79415959Y-45820904D01*
X79464278Y-45788074D01*
X79674025Y-45663975D01*
X79892446Y-45562734D01*
X80117849Y-45484583D01*
X80348540Y-45429753D01*
X80582829Y-45398477D01*
X80819023Y-45390985D01*
X81055431Y-45407510D01*
X81290361Y-45448283D01*
X81506803Y-45508419D01*
X81734539Y-45596612D01*
X81950452Y-45706554D01*
X82153155Y-45837283D01*
X82341263Y-45987839D01*
X82513389Y-46157259D01*
X82616939Y-46278164D01*
X82710340Y-46394971D01*
X82769116Y-46352942D01*
X82798126Y-46332425D01*
X82843390Y-46300692D01*
X82900479Y-46260834D01*
X82964965Y-46215942D01*
X83032223Y-46169246D01*
X83094780Y-46125499D01*
X83149595Y-46086448D01*
X83193541Y-46054382D01*
X83223487Y-46031590D01*
X83236303Y-46020360D01*
X83236555Y-46019798D01*
X83228524Y-46002743D01*
X83206321Y-45970584D01*
X83172782Y-45926741D01*
X83130744Y-45874636D01*
X83083043Y-45817689D01*
X83032514Y-45759323D01*
X82981995Y-45702957D01*
X82934320Y-45652012D01*
X82916448Y-45633681D01*
X82712602Y-45444979D01*
X82496123Y-45277767D01*
X82267976Y-45132450D01*
X82029126Y-45009430D01*
X81780539Y-44909111D01*
X81523181Y-44831899D01*
X81258016Y-44778196D01*
X80986011Y-44748406D01*
X80784575Y-44741991D01*
X80528301Y-44750877D01*
X80285847Y-44778075D01*
X80052746Y-44824634D01*
X79824532Y-44891599D01*
X79596741Y-44980017D01*
X79423466Y-45061051D01*
X79184927Y-45194212D01*
X78960752Y-45347622D01*
X78752096Y-45520133D01*
X78560117Y-45710597D01*
X78385973Y-45917867D01*
X78230820Y-46140794D01*
X78095865Y-46378132D01*
X77982773Y-46625051D01*
X77893795Y-46875606D01*
X77827904Y-47132933D01*
X77801707Y-47274893D01*
X77773508Y-47450318D01*
X74730070Y-47443930D01*
X74720568Y-47355911D01*
X74687654Y-47142809D01*
X74635173Y-46922958D01*
X74565244Y-46702343D01*
X74479986Y-46486951D01*
X74381518Y-46282766D01*
X74277760Y-46104772D01*
X74180049Y-45963480D01*
X74068191Y-45820631D01*
X73947212Y-45681845D01*
X73822139Y-45552742D01*
X73697999Y-45438944D01*
X73638768Y-45390263D01*
X73413429Y-45228230D01*
X73178336Y-45089374D01*
X72933535Y-44973711D01*
X72679071Y-44881256D01*
X72414990Y-44812027D01*
X72141336Y-44766039D01*
X71858156Y-44743308D01*
X71800268Y-44741551D01*
X71723453Y-44740185D01*
X71651867Y-44739535D01*
X71590741Y-44739602D01*
X71545301Y-44740385D01*
X71523634Y-44741541D01*
X71353162Y-44760687D01*
X71201485Y-44782680D01*
X71062303Y-44808773D01*
X70929313Y-44840217D01*
X70796213Y-44878264D01*
X70731456Y-44898905D01*
X70480997Y-44994078D01*
X70242723Y-45110659D01*
X70017680Y-45247509D01*
X69806913Y-45403488D01*
X69611467Y-45577459D01*
X69432388Y-45768282D01*
X69270723Y-45974817D01*
X69127515Y-46195927D01*
X69003812Y-46430471D01*
X68900658Y-46677311D01*
X68819099Y-46935308D01*
X68802499Y-47000217D01*
X68776604Y-47111421D01*
X68756524Y-47211223D01*
X68741592Y-47305705D01*
X68731140Y-47400948D01*
X68724501Y-47503034D01*
X68721007Y-47618042D01*
X68719992Y-47752000D01*
X68720039Y-47758287D01*
X69379723Y-47758287D01*
X69391411Y-47508504D01*
X69426253Y-47266430D01*
X69483912Y-47033101D01*
X69564055Y-46809556D01*
X69666347Y-46596829D01*
X69790451Y-46395960D01*
X69843438Y-46322719D01*
X69995584Y-46141651D01*
X70164704Y-45978359D01*
X70349128Y-45833739D01*
X70547188Y-45708687D01*
X70757217Y-45604099D01*
X70977545Y-45520871D01*
X71206505Y-45459898D01*
X71442429Y-45422076D01*
X71536208Y-45413777D01*
X71595007Y-45409752D01*
X71646391Y-45406231D01*
X71684000Y-45403652D01*
X71699674Y-45402573D01*
X71721019Y-45402816D01*
X71762051Y-45404689D01*
X71817383Y-45407901D01*
X71881626Y-45412159D01*
X71900159Y-45413476D01*
X72144620Y-45442984D01*
X72379392Y-45494914D01*
X72603430Y-45568217D01*
X72815686Y-45661848D01*
X73015114Y-45774759D01*
X73200668Y-45905904D01*
X73371300Y-46054235D01*
X73525965Y-46218706D01*
X73663616Y-46398270D01*
X73783206Y-46591880D01*
X73883689Y-46798489D01*
X73964019Y-47017051D01*
X74023149Y-47246518D01*
X74060031Y-47485843D01*
X74068201Y-47582247D01*
X74072871Y-47831280D01*
X74054383Y-48074066D01*
X74013429Y-48309360D01*
X73950700Y-48535916D01*
X73866887Y-48752488D01*
X73762682Y-48957831D01*
X73638776Y-49150700D01*
X73495860Y-49329848D01*
X73334626Y-49494031D01*
X73155764Y-49642004D01*
X72959967Y-49772519D01*
X72805946Y-49856451D01*
X72587083Y-49951453D01*
X72359714Y-50023733D01*
X72126145Y-50073274D01*
X71888677Y-50100062D01*
X71649615Y-50104081D01*
X71411264Y-50085315D01*
X71175926Y-50043748D01*
X70945905Y-49979366D01*
X70723506Y-49892152D01*
X70677729Y-49870812D01*
X70468117Y-49756752D01*
X70274531Y-49623949D01*
X70097739Y-49473652D01*
X69938505Y-49307108D01*
X69797598Y-49125564D01*
X69675784Y-48930269D01*
X69573829Y-48722470D01*
X69492499Y-48503413D01*
X69432562Y-48274348D01*
X69394784Y-48036521D01*
X69379930Y-47791179D01*
X69379723Y-47758287D01*
X68720039Y-47758287D01*
X68721009Y-47885835D01*
X68724491Y-48000714D01*
X68731081Y-48102763D01*
X68741421Y-48198106D01*
X68756155Y-48292869D01*
X68775925Y-48393180D01*
X68797221Y-48487594D01*
X68871349Y-48749490D01*
X68967416Y-49000129D01*
X69084385Y-49238489D01*
X69221223Y-49463548D01*
X69376895Y-49674281D01*
X69550368Y-49869667D01*
X69740605Y-50048684D01*
X69946575Y-50210307D01*
X70167240Y-50353516D01*
X70401568Y-50477287D01*
X70648524Y-50580597D01*
X70907074Y-50662424D01*
X71026951Y-50691970D01*
X71130272Y-50714304D01*
X71221719Y-50731590D01*
X71307249Y-50744425D01*
X71392820Y-50753407D01*
X71484392Y-50759132D01*
X71587922Y-50762200D01*
X71709368Y-50763206D01*
X71737396Y-50763212D01*
X71872086Y-50761991D01*
X71987973Y-50758137D01*
X72091327Y-50750985D01*
X72188415Y-50739876D01*
X72285507Y-50724148D01*
X72388871Y-50703138D01*
X72459655Y-50686981D01*
X72705177Y-50617442D01*
X72946965Y-50526094D01*
X73180594Y-50415026D01*
X73401638Y-50286331D01*
X73593993Y-50151149D01*
X73685494Y-50076214D01*
X73783970Y-49987914D01*
X73882902Y-49892592D01*
X73975767Y-49796595D01*
X74056044Y-49706270D01*
X74075953Y-49682148D01*
X74227077Y-49476736D01*
X74361391Y-49256129D01*
X74477369Y-49023846D01*
X74573484Y-48783408D01*
X74648211Y-48538335D01*
X74700024Y-48292146D01*
X74711051Y-48217247D01*
X74718249Y-48164554D01*
X74724950Y-48118637D01*
X74729988Y-48087397D01*
X74731000Y-48082074D01*
X74736836Y-48053782D01*
X77779327Y-48053782D01*
X77779327Y-48083589D01*
X77781972Y-48116060D01*
X77789217Y-48167455D01*
X77800024Y-48232187D01*
X77813359Y-48304671D01*
X77828185Y-48379322D01*
X77843466Y-48450553D01*
X77858165Y-48512779D01*
X77860990Y-48523829D01*
X77938313Y-48772275D01*
X78038987Y-49014697D01*
X78161515Y-49248942D01*
X78304399Y-49472861D01*
X78466143Y-49684303D01*
X78645248Y-49881117D01*
X78840219Y-50061152D01*
X79037451Y-50213753D01*
X79264935Y-50359438D01*
X79503049Y-50483248D01*
X79750030Y-50584938D01*
X80004117Y-50664268D01*
X80263545Y-50720994D01*
X80526553Y-50754875D01*
X80791378Y-50765667D01*
X81056256Y-50753128D01*
M02*
