G04 #@! TF.GenerationSoftware,KiCad,Pcbnew,(5.1.5)-3*
G04 #@! TF.CreationDate,2020-03-21T22:09:17-04:00*
G04 #@! TF.ProjectId,GP PSU Filter,47502050-5355-4204-9669-6c7465722e6b,rev?*
G04 #@! TF.SameCoordinates,Original*
G04 #@! TF.FileFunction,Copper,L2,Bot*
G04 #@! TF.FilePolarity,Positive*
%FSLAX46Y46*%
G04 Gerber Fmt 4.6, Leading zero omitted, Abs format (unit mm)*
G04 Created by KiCad (PCBNEW (5.1.5)-3) date 2020-03-21 22:09:17*
%MOMM*%
%LPD*%
G04 APERTURE LIST*
%ADD10C,1.524000*%
%ADD11C,2.082800*%
%ADD12O,1.700000X1.700000*%
%ADD13R,1.700000X1.700000*%
%ADD14C,2.000000*%
%ADD15C,2.000000*%
%ADD16C,0.500000*%
G04 APERTURE END LIST*
D10*
X112000000Y-100000000D03*
X120382000Y-100000000D03*
X112000000Y-75000000D03*
X120382000Y-75000000D03*
X100618000Y-100000000D03*
X109000000Y-100000000D03*
X100618000Y-75000000D03*
X109000000Y-75000000D03*
D11*
X146000000Y-70080000D03*
X146000000Y-65000000D03*
X140000000Y-64920000D03*
X140000000Y-70000000D03*
D12*
X153500000Y-79000000D03*
D13*
X153500000Y-76460000D03*
D14*
X127000000Y-82000000D03*
X127000000Y-77000000D03*
X127000000Y-73500000D03*
X146000000Y-73500000D03*
X149000000Y-76500000D03*
X127000000Y-93000000D03*
X135500000Y-93000000D03*
X139000000Y-109500000D03*
X158500000Y-76500000D03*
X153500000Y-70000000D03*
X102500000Y-112500000D03*
X115000000Y-112500000D03*
X125000000Y-62500000D03*
X132500000Y-62500000D03*
X155000000Y-62500000D03*
X160000000Y-67500000D03*
X122500000Y-87000000D03*
D15*
X109000000Y-103000000D02*
X109000000Y-100000000D01*
X110000000Y-104000000D02*
X109000000Y-103000000D01*
X120382000Y-100000000D02*
X116382000Y-104000000D01*
X116382000Y-104000000D02*
X110000000Y-104000000D01*
X109000000Y-76000000D02*
X109000000Y-75000000D01*
X117382000Y-72000000D02*
X120382000Y-75000000D01*
X111000000Y-72000000D02*
X117382000Y-72000000D01*
X109000000Y-75000000D02*
X109000000Y-74000000D01*
X109000000Y-74000000D02*
X111000000Y-72000000D01*
X109000000Y-85000000D02*
X111000000Y-87000000D01*
X109000000Y-87000000D02*
X111000000Y-87000000D01*
X109000000Y-87000000D02*
X109000000Y-85000000D01*
X109000000Y-85000000D02*
X109000000Y-76000000D01*
X109000000Y-89000000D02*
X111000000Y-87000000D01*
X109000000Y-100000000D02*
X109000000Y-89000000D01*
X109000000Y-89000000D02*
X109000000Y-87000000D01*
X111000000Y-87000000D02*
X122500000Y-87000000D01*
D16*
G36*
X161725000Y-63528122D02*
G01*
X161725001Y-112471877D01*
X159471879Y-114725000D01*
X100528122Y-114725000D01*
X98275000Y-112471879D01*
X98275000Y-99801835D01*
X98606000Y-99801835D01*
X98606000Y-100198165D01*
X98683320Y-100586879D01*
X98834989Y-100953039D01*
X99055178Y-101282575D01*
X99335425Y-101562822D01*
X99664961Y-101783011D01*
X100031121Y-101934680D01*
X100419835Y-102012000D01*
X100816165Y-102012000D01*
X101204879Y-101934680D01*
X101571039Y-101783011D01*
X101900575Y-101562822D01*
X102180822Y-101282575D01*
X102401011Y-100953039D01*
X102552680Y-100586879D01*
X102630000Y-100198165D01*
X102630000Y-99801835D01*
X102552680Y-99413121D01*
X102401011Y-99046961D01*
X102180822Y-98717425D01*
X101900575Y-98437178D01*
X101571039Y-98216989D01*
X101204879Y-98065320D01*
X100816165Y-97988000D01*
X100419835Y-97988000D01*
X100031121Y-98065320D01*
X99664961Y-98216989D01*
X99335425Y-98437178D01*
X99055178Y-98717425D01*
X98834989Y-99046961D01*
X98683320Y-99413121D01*
X98606000Y-99801835D01*
X98275000Y-99801835D01*
X98275000Y-74801835D01*
X98606000Y-74801835D01*
X98606000Y-75198165D01*
X98683320Y-75586879D01*
X98834989Y-75953039D01*
X99055178Y-76282575D01*
X99335425Y-76562822D01*
X99664961Y-76783011D01*
X100031121Y-76934680D01*
X100419835Y-77012000D01*
X100816165Y-77012000D01*
X101204879Y-76934680D01*
X101571039Y-76783011D01*
X101900575Y-76562822D01*
X102180822Y-76282575D01*
X102401011Y-75953039D01*
X102552680Y-75586879D01*
X102630000Y-75198165D01*
X102630000Y-74801835D01*
X102552680Y-74413121D01*
X102401011Y-74046961D01*
X102369633Y-74000000D01*
X106739114Y-74000000D01*
X106750000Y-74110525D01*
X106750000Y-76110527D01*
X106750001Y-76110537D01*
X106750000Y-84889472D01*
X106739114Y-85000000D01*
X106750000Y-85110525D01*
X106750000Y-86889472D01*
X106739114Y-87000000D01*
X106750000Y-87110527D01*
X106750000Y-88889472D01*
X106739114Y-89000000D01*
X106750000Y-89110525D01*
X106750000Y-89110527D01*
X106750001Y-89110537D01*
X106750000Y-99889472D01*
X106750000Y-102889475D01*
X106739114Y-103000000D01*
X106750000Y-103110525D01*
X106750000Y-103110527D01*
X106782556Y-103441076D01*
X106911214Y-103865203D01*
X107120142Y-104256081D01*
X107401312Y-104598688D01*
X107487169Y-104669149D01*
X108330847Y-105512826D01*
X108401312Y-105598688D01*
X108743919Y-105879858D01*
X109134796Y-106088786D01*
X109558920Y-106217443D01*
X109558923Y-106217444D01*
X110000000Y-106260886D01*
X110110528Y-106250000D01*
X116271475Y-106250000D01*
X116382000Y-106260886D01*
X116492525Y-106250000D01*
X116492528Y-106250000D01*
X116823077Y-106217444D01*
X117247204Y-106088786D01*
X117638081Y-105879858D01*
X117980688Y-105598688D01*
X118051149Y-105512832D01*
X122051145Y-101512836D01*
X122261858Y-101256082D01*
X122470786Y-100865204D01*
X122599443Y-100441078D01*
X122642886Y-100000001D01*
X122599443Y-99558924D01*
X122470786Y-99134798D01*
X122261858Y-98743920D01*
X121980687Y-98401313D01*
X121638080Y-98120142D01*
X121247202Y-97911214D01*
X120823076Y-97782557D01*
X120381999Y-97739114D01*
X119940922Y-97782557D01*
X119516796Y-97911214D01*
X119125918Y-98120142D01*
X118869164Y-98330855D01*
X115450020Y-101750000D01*
X113002443Y-101750000D01*
X113282575Y-101562822D01*
X113562822Y-101282575D01*
X113783011Y-100953039D01*
X113934680Y-100586879D01*
X114012000Y-100198165D01*
X114012000Y-99801835D01*
X113934680Y-99413121D01*
X113783011Y-99046961D01*
X113562822Y-98717425D01*
X113282575Y-98437178D01*
X112953039Y-98216989D01*
X112586879Y-98065320D01*
X112198165Y-97988000D01*
X111801835Y-97988000D01*
X111413121Y-98065320D01*
X111250000Y-98132887D01*
X111250000Y-89931980D01*
X111931981Y-89250000D01*
X122721606Y-89250000D01*
X122830549Y-89228330D01*
X122941077Y-89217444D01*
X123047356Y-89185204D01*
X123156301Y-89163534D01*
X123258926Y-89121025D01*
X123365204Y-89088786D01*
X123463150Y-89036433D01*
X123565775Y-88993924D01*
X123658134Y-88932212D01*
X123756081Y-88879858D01*
X123841932Y-88809402D01*
X123934292Y-88747689D01*
X124012837Y-88669144D01*
X124098688Y-88598688D01*
X124169145Y-88512836D01*
X124247689Y-88434292D01*
X124309402Y-88341932D01*
X124379858Y-88256081D01*
X124432212Y-88158134D01*
X124493924Y-88065775D01*
X124536433Y-87963150D01*
X124588786Y-87865204D01*
X124621025Y-87758926D01*
X124663534Y-87656301D01*
X124685204Y-87547356D01*
X124717444Y-87441077D01*
X124728330Y-87330549D01*
X124750000Y-87221606D01*
X124750000Y-87110527D01*
X124760886Y-87000000D01*
X124750000Y-86889472D01*
X124750000Y-86778394D01*
X124728330Y-86669451D01*
X124717444Y-86558923D01*
X124685204Y-86452644D01*
X124663534Y-86343699D01*
X124621025Y-86241074D01*
X124588786Y-86134796D01*
X124536433Y-86036850D01*
X124493924Y-85934225D01*
X124432212Y-85841866D01*
X124379858Y-85743919D01*
X124309402Y-85658068D01*
X124247689Y-85565708D01*
X124169144Y-85487163D01*
X124098688Y-85401312D01*
X124012836Y-85330855D01*
X123934292Y-85252311D01*
X123841932Y-85190598D01*
X123756081Y-85120142D01*
X123658134Y-85067788D01*
X123565775Y-85006076D01*
X123463150Y-84963567D01*
X123365204Y-84911214D01*
X123258926Y-84878975D01*
X123156301Y-84836466D01*
X123047356Y-84814796D01*
X122941077Y-84782556D01*
X122830549Y-84771670D01*
X122721606Y-84750000D01*
X111931981Y-84750000D01*
X111250000Y-84068020D01*
X111250000Y-78793168D01*
X151400000Y-78793168D01*
X151400000Y-79206832D01*
X151480702Y-79612547D01*
X151639004Y-79994723D01*
X151868823Y-80338672D01*
X152161328Y-80631177D01*
X152505277Y-80860996D01*
X152887453Y-81019298D01*
X153293168Y-81100000D01*
X153706832Y-81100000D01*
X154112547Y-81019298D01*
X154494723Y-80860996D01*
X154838672Y-80631177D01*
X155131177Y-80338672D01*
X155360996Y-79994723D01*
X155519298Y-79612547D01*
X155600000Y-79206832D01*
X155600000Y-78793168D01*
X155519298Y-78387453D01*
X155360996Y-78005277D01*
X155222803Y-77798456D01*
X155278350Y-77694535D01*
X155335531Y-77506034D01*
X155354839Y-77310000D01*
X155350000Y-76835000D01*
X155100000Y-76585000D01*
X153625000Y-76585000D01*
X153625000Y-76605000D01*
X153375000Y-76605000D01*
X153375000Y-76585000D01*
X151900000Y-76585000D01*
X151650000Y-76835000D01*
X151645161Y-77310000D01*
X151664469Y-77506034D01*
X151721650Y-77694535D01*
X151777197Y-77798456D01*
X151639004Y-78005277D01*
X151480702Y-78387453D01*
X151400000Y-78793168D01*
X111250000Y-78793168D01*
X111250000Y-76867113D01*
X111413121Y-76934680D01*
X111801835Y-77012000D01*
X112198165Y-77012000D01*
X112586879Y-76934680D01*
X112953039Y-76783011D01*
X113282575Y-76562822D01*
X113562822Y-76282575D01*
X113783011Y-75953039D01*
X113934680Y-75586879D01*
X114012000Y-75198165D01*
X114012000Y-74801835D01*
X113934680Y-74413121D01*
X113867113Y-74250000D01*
X116450020Y-74250000D01*
X118869165Y-76669145D01*
X119125919Y-76879858D01*
X119516797Y-77088786D01*
X119940923Y-77217443D01*
X120382000Y-77260886D01*
X120823077Y-77217443D01*
X121247203Y-77088786D01*
X121638081Y-76879858D01*
X121980688Y-76598688D01*
X122261858Y-76256081D01*
X122470786Y-75865203D01*
X122548200Y-75610000D01*
X151645161Y-75610000D01*
X151650000Y-76085000D01*
X151900000Y-76335000D01*
X153375000Y-76335000D01*
X153375000Y-74860000D01*
X153625000Y-74860000D01*
X153625000Y-76335000D01*
X155100000Y-76335000D01*
X155350000Y-76085000D01*
X155354839Y-75610000D01*
X155335531Y-75413966D01*
X155278350Y-75225465D01*
X155185493Y-75051741D01*
X155060528Y-74899472D01*
X154908259Y-74774507D01*
X154734535Y-74681650D01*
X154546034Y-74624469D01*
X154350000Y-74605161D01*
X153875000Y-74610000D01*
X153625000Y-74860000D01*
X153375000Y-74860000D01*
X153125000Y-74610000D01*
X152650000Y-74605161D01*
X152453966Y-74624469D01*
X152265465Y-74681650D01*
X152091741Y-74774507D01*
X151939472Y-74899472D01*
X151814507Y-75051741D01*
X151721650Y-75225465D01*
X151664469Y-75413966D01*
X151645161Y-75610000D01*
X122548200Y-75610000D01*
X122599443Y-75441077D01*
X122642886Y-75000000D01*
X122599443Y-74558923D01*
X122470786Y-74134797D01*
X122261858Y-73743919D01*
X122051145Y-73487165D01*
X119051149Y-70487169D01*
X118980688Y-70401312D01*
X118638081Y-70120142D01*
X118247204Y-69911214D01*
X117823077Y-69782556D01*
X117739425Y-69774317D01*
X137708600Y-69774317D01*
X137708600Y-70225683D01*
X137796657Y-70668377D01*
X137969388Y-71085385D01*
X138220153Y-71460682D01*
X138539318Y-71779847D01*
X138914615Y-72030612D01*
X139331623Y-72203343D01*
X139774317Y-72291400D01*
X140225683Y-72291400D01*
X140668377Y-72203343D01*
X141085385Y-72030612D01*
X141460682Y-71779847D01*
X141779847Y-71460682D01*
X141794325Y-71439013D01*
X144817763Y-71439013D01*
X144897657Y-71809907D01*
X145256327Y-71991723D01*
X145643575Y-72100073D01*
X146044520Y-72130793D01*
X146443755Y-72082702D01*
X146825936Y-71957649D01*
X147102343Y-71809907D01*
X147182237Y-71439013D01*
X146000000Y-70256777D01*
X144817763Y-71439013D01*
X141794325Y-71439013D01*
X142030612Y-71085385D01*
X142203343Y-70668377D01*
X142291400Y-70225683D01*
X142291400Y-70124520D01*
X143949207Y-70124520D01*
X143997298Y-70523755D01*
X144122351Y-70905936D01*
X144270093Y-71182343D01*
X144640987Y-71262237D01*
X145823223Y-70080000D01*
X146176777Y-70080000D01*
X147359013Y-71262237D01*
X147729907Y-71182343D01*
X147911723Y-70823673D01*
X148020073Y-70436425D01*
X148050793Y-70035480D01*
X148002702Y-69636245D01*
X147877649Y-69254064D01*
X147729907Y-68977657D01*
X147359013Y-68897763D01*
X146176777Y-70080000D01*
X145823223Y-70080000D01*
X144640987Y-68897763D01*
X144270093Y-68977657D01*
X144088277Y-69336327D01*
X143979927Y-69723575D01*
X143949207Y-70124520D01*
X142291400Y-70124520D01*
X142291400Y-69774317D01*
X142203343Y-69331623D01*
X142030612Y-68914615D01*
X141901235Y-68720987D01*
X144817763Y-68720987D01*
X146000000Y-69903223D01*
X147182237Y-68720987D01*
X147102343Y-68350093D01*
X146743673Y-68168277D01*
X146356425Y-68059927D01*
X145955480Y-68029207D01*
X145556245Y-68077298D01*
X145174064Y-68202351D01*
X144897657Y-68350093D01*
X144817763Y-68720987D01*
X141901235Y-68720987D01*
X141779847Y-68539318D01*
X141460682Y-68220153D01*
X141085385Y-67969388D01*
X140668377Y-67796657D01*
X140225683Y-67708600D01*
X139774317Y-67708600D01*
X139331623Y-67796657D01*
X138914615Y-67969388D01*
X138539318Y-68220153D01*
X138220153Y-68539318D01*
X137969388Y-68914615D01*
X137796657Y-69331623D01*
X137708600Y-69774317D01*
X117739425Y-69774317D01*
X117492528Y-69750000D01*
X117492525Y-69750000D01*
X117382000Y-69739114D01*
X117271475Y-69750000D01*
X111110525Y-69750000D01*
X110999999Y-69739114D01*
X110889473Y-69750000D01*
X110889472Y-69750000D01*
X110558923Y-69782556D01*
X110161139Y-69903223D01*
X110134796Y-69911214D01*
X109743918Y-70120142D01*
X109487164Y-70330855D01*
X109401312Y-70401312D01*
X109330856Y-70487164D01*
X107487164Y-72330856D01*
X107401313Y-72401312D01*
X107330857Y-72487163D01*
X107330855Y-72487165D01*
X107120142Y-72743919D01*
X106989678Y-72988000D01*
X106911214Y-73134796D01*
X106782556Y-73558923D01*
X106750947Y-73879858D01*
X106739114Y-74000000D01*
X102369633Y-74000000D01*
X102180822Y-73717425D01*
X101900575Y-73437178D01*
X101571039Y-73216989D01*
X101204879Y-73065320D01*
X100816165Y-72988000D01*
X100419835Y-72988000D01*
X100031121Y-73065320D01*
X99664961Y-73216989D01*
X99335425Y-73437178D01*
X99055178Y-73717425D01*
X98834989Y-74046961D01*
X98683320Y-74413121D01*
X98606000Y-74801835D01*
X98275000Y-74801835D01*
X98275000Y-64694317D01*
X137708600Y-64694317D01*
X137708600Y-65145683D01*
X137796657Y-65588377D01*
X137969388Y-66005385D01*
X138220153Y-66380682D01*
X138539318Y-66699847D01*
X138914615Y-66950612D01*
X139331623Y-67123343D01*
X139774317Y-67211400D01*
X140225683Y-67211400D01*
X140668377Y-67123343D01*
X141085385Y-66950612D01*
X141460682Y-66699847D01*
X141779847Y-66380682D01*
X141794325Y-66359013D01*
X144817763Y-66359013D01*
X144897657Y-66729907D01*
X145256327Y-66911723D01*
X145643575Y-67020073D01*
X146044520Y-67050793D01*
X146443755Y-67002702D01*
X146825936Y-66877649D01*
X147102343Y-66729907D01*
X147182237Y-66359013D01*
X146000000Y-65176777D01*
X144817763Y-66359013D01*
X141794325Y-66359013D01*
X142030612Y-66005385D01*
X142203343Y-65588377D01*
X142291400Y-65145683D01*
X142291400Y-65044520D01*
X143949207Y-65044520D01*
X143997298Y-65443755D01*
X144122351Y-65825936D01*
X144270093Y-66102343D01*
X144640987Y-66182237D01*
X145823223Y-65000000D01*
X146176777Y-65000000D01*
X147359013Y-66182237D01*
X147729907Y-66102343D01*
X147911723Y-65743673D01*
X148020073Y-65356425D01*
X148050793Y-64955480D01*
X148002702Y-64556245D01*
X147877649Y-64174064D01*
X147729907Y-63897657D01*
X147359013Y-63817763D01*
X146176777Y-65000000D01*
X145823223Y-65000000D01*
X144640987Y-63817763D01*
X144270093Y-63897657D01*
X144088277Y-64256327D01*
X143979927Y-64643575D01*
X143949207Y-65044520D01*
X142291400Y-65044520D01*
X142291400Y-64694317D01*
X142203343Y-64251623D01*
X142030612Y-63834615D01*
X141901235Y-63640987D01*
X144817763Y-63640987D01*
X146000000Y-64823223D01*
X147182237Y-63640987D01*
X147102343Y-63270093D01*
X146743673Y-63088277D01*
X146356425Y-62979927D01*
X145955480Y-62949207D01*
X145556245Y-62997298D01*
X145174064Y-63122351D01*
X144897657Y-63270093D01*
X144817763Y-63640987D01*
X141901235Y-63640987D01*
X141779847Y-63459318D01*
X141460682Y-63140153D01*
X141085385Y-62889388D01*
X140668377Y-62716657D01*
X140225683Y-62628600D01*
X139774317Y-62628600D01*
X139331623Y-62716657D01*
X138914615Y-62889388D01*
X138539318Y-63140153D01*
X138220153Y-63459318D01*
X137969388Y-63834615D01*
X137796657Y-64251623D01*
X137708600Y-64694317D01*
X98275000Y-64694317D01*
X98275000Y-63528121D01*
X100528122Y-61275000D01*
X159471879Y-61275000D01*
X161725000Y-63528122D01*
G37*
X161725000Y-63528122D02*
X161725001Y-112471877D01*
X159471879Y-114725000D01*
X100528122Y-114725000D01*
X98275000Y-112471879D01*
X98275000Y-99801835D01*
X98606000Y-99801835D01*
X98606000Y-100198165D01*
X98683320Y-100586879D01*
X98834989Y-100953039D01*
X99055178Y-101282575D01*
X99335425Y-101562822D01*
X99664961Y-101783011D01*
X100031121Y-101934680D01*
X100419835Y-102012000D01*
X100816165Y-102012000D01*
X101204879Y-101934680D01*
X101571039Y-101783011D01*
X101900575Y-101562822D01*
X102180822Y-101282575D01*
X102401011Y-100953039D01*
X102552680Y-100586879D01*
X102630000Y-100198165D01*
X102630000Y-99801835D01*
X102552680Y-99413121D01*
X102401011Y-99046961D01*
X102180822Y-98717425D01*
X101900575Y-98437178D01*
X101571039Y-98216989D01*
X101204879Y-98065320D01*
X100816165Y-97988000D01*
X100419835Y-97988000D01*
X100031121Y-98065320D01*
X99664961Y-98216989D01*
X99335425Y-98437178D01*
X99055178Y-98717425D01*
X98834989Y-99046961D01*
X98683320Y-99413121D01*
X98606000Y-99801835D01*
X98275000Y-99801835D01*
X98275000Y-74801835D01*
X98606000Y-74801835D01*
X98606000Y-75198165D01*
X98683320Y-75586879D01*
X98834989Y-75953039D01*
X99055178Y-76282575D01*
X99335425Y-76562822D01*
X99664961Y-76783011D01*
X100031121Y-76934680D01*
X100419835Y-77012000D01*
X100816165Y-77012000D01*
X101204879Y-76934680D01*
X101571039Y-76783011D01*
X101900575Y-76562822D01*
X102180822Y-76282575D01*
X102401011Y-75953039D01*
X102552680Y-75586879D01*
X102630000Y-75198165D01*
X102630000Y-74801835D01*
X102552680Y-74413121D01*
X102401011Y-74046961D01*
X102369633Y-74000000D01*
X106739114Y-74000000D01*
X106750000Y-74110525D01*
X106750000Y-76110527D01*
X106750001Y-76110537D01*
X106750000Y-84889472D01*
X106739114Y-85000000D01*
X106750000Y-85110525D01*
X106750000Y-86889472D01*
X106739114Y-87000000D01*
X106750000Y-87110527D01*
X106750000Y-88889472D01*
X106739114Y-89000000D01*
X106750000Y-89110525D01*
X106750000Y-89110527D01*
X106750001Y-89110537D01*
X106750000Y-99889472D01*
X106750000Y-102889475D01*
X106739114Y-103000000D01*
X106750000Y-103110525D01*
X106750000Y-103110527D01*
X106782556Y-103441076D01*
X106911214Y-103865203D01*
X107120142Y-104256081D01*
X107401312Y-104598688D01*
X107487169Y-104669149D01*
X108330847Y-105512826D01*
X108401312Y-105598688D01*
X108743919Y-105879858D01*
X109134796Y-106088786D01*
X109558920Y-106217443D01*
X109558923Y-106217444D01*
X110000000Y-106260886D01*
X110110528Y-106250000D01*
X116271475Y-106250000D01*
X116382000Y-106260886D01*
X116492525Y-106250000D01*
X116492528Y-106250000D01*
X116823077Y-106217444D01*
X117247204Y-106088786D01*
X117638081Y-105879858D01*
X117980688Y-105598688D01*
X118051149Y-105512832D01*
X122051145Y-101512836D01*
X122261858Y-101256082D01*
X122470786Y-100865204D01*
X122599443Y-100441078D01*
X122642886Y-100000001D01*
X122599443Y-99558924D01*
X122470786Y-99134798D01*
X122261858Y-98743920D01*
X121980687Y-98401313D01*
X121638080Y-98120142D01*
X121247202Y-97911214D01*
X120823076Y-97782557D01*
X120381999Y-97739114D01*
X119940922Y-97782557D01*
X119516796Y-97911214D01*
X119125918Y-98120142D01*
X118869164Y-98330855D01*
X115450020Y-101750000D01*
X113002443Y-101750000D01*
X113282575Y-101562822D01*
X113562822Y-101282575D01*
X113783011Y-100953039D01*
X113934680Y-100586879D01*
X114012000Y-100198165D01*
X114012000Y-99801835D01*
X113934680Y-99413121D01*
X113783011Y-99046961D01*
X113562822Y-98717425D01*
X113282575Y-98437178D01*
X112953039Y-98216989D01*
X112586879Y-98065320D01*
X112198165Y-97988000D01*
X111801835Y-97988000D01*
X111413121Y-98065320D01*
X111250000Y-98132887D01*
X111250000Y-89931980D01*
X111931981Y-89250000D01*
X122721606Y-89250000D01*
X122830549Y-89228330D01*
X122941077Y-89217444D01*
X123047356Y-89185204D01*
X123156301Y-89163534D01*
X123258926Y-89121025D01*
X123365204Y-89088786D01*
X123463150Y-89036433D01*
X123565775Y-88993924D01*
X123658134Y-88932212D01*
X123756081Y-88879858D01*
X123841932Y-88809402D01*
X123934292Y-88747689D01*
X124012837Y-88669144D01*
X124098688Y-88598688D01*
X124169145Y-88512836D01*
X124247689Y-88434292D01*
X124309402Y-88341932D01*
X124379858Y-88256081D01*
X124432212Y-88158134D01*
X124493924Y-88065775D01*
X124536433Y-87963150D01*
X124588786Y-87865204D01*
X124621025Y-87758926D01*
X124663534Y-87656301D01*
X124685204Y-87547356D01*
X124717444Y-87441077D01*
X124728330Y-87330549D01*
X124750000Y-87221606D01*
X124750000Y-87110527D01*
X124760886Y-87000000D01*
X124750000Y-86889472D01*
X124750000Y-86778394D01*
X124728330Y-86669451D01*
X124717444Y-86558923D01*
X124685204Y-86452644D01*
X124663534Y-86343699D01*
X124621025Y-86241074D01*
X124588786Y-86134796D01*
X124536433Y-86036850D01*
X124493924Y-85934225D01*
X124432212Y-85841866D01*
X124379858Y-85743919D01*
X124309402Y-85658068D01*
X124247689Y-85565708D01*
X124169144Y-85487163D01*
X124098688Y-85401312D01*
X124012836Y-85330855D01*
X123934292Y-85252311D01*
X123841932Y-85190598D01*
X123756081Y-85120142D01*
X123658134Y-85067788D01*
X123565775Y-85006076D01*
X123463150Y-84963567D01*
X123365204Y-84911214D01*
X123258926Y-84878975D01*
X123156301Y-84836466D01*
X123047356Y-84814796D01*
X122941077Y-84782556D01*
X122830549Y-84771670D01*
X122721606Y-84750000D01*
X111931981Y-84750000D01*
X111250000Y-84068020D01*
X111250000Y-78793168D01*
X151400000Y-78793168D01*
X151400000Y-79206832D01*
X151480702Y-79612547D01*
X151639004Y-79994723D01*
X151868823Y-80338672D01*
X152161328Y-80631177D01*
X152505277Y-80860996D01*
X152887453Y-81019298D01*
X153293168Y-81100000D01*
X153706832Y-81100000D01*
X154112547Y-81019298D01*
X154494723Y-80860996D01*
X154838672Y-80631177D01*
X155131177Y-80338672D01*
X155360996Y-79994723D01*
X155519298Y-79612547D01*
X155600000Y-79206832D01*
X155600000Y-78793168D01*
X155519298Y-78387453D01*
X155360996Y-78005277D01*
X155222803Y-77798456D01*
X155278350Y-77694535D01*
X155335531Y-77506034D01*
X155354839Y-77310000D01*
X155350000Y-76835000D01*
X155100000Y-76585000D01*
X153625000Y-76585000D01*
X153625000Y-76605000D01*
X153375000Y-76605000D01*
X153375000Y-76585000D01*
X151900000Y-76585000D01*
X151650000Y-76835000D01*
X151645161Y-77310000D01*
X151664469Y-77506034D01*
X151721650Y-77694535D01*
X151777197Y-77798456D01*
X151639004Y-78005277D01*
X151480702Y-78387453D01*
X151400000Y-78793168D01*
X111250000Y-78793168D01*
X111250000Y-76867113D01*
X111413121Y-76934680D01*
X111801835Y-77012000D01*
X112198165Y-77012000D01*
X112586879Y-76934680D01*
X112953039Y-76783011D01*
X113282575Y-76562822D01*
X113562822Y-76282575D01*
X113783011Y-75953039D01*
X113934680Y-75586879D01*
X114012000Y-75198165D01*
X114012000Y-74801835D01*
X113934680Y-74413121D01*
X113867113Y-74250000D01*
X116450020Y-74250000D01*
X118869165Y-76669145D01*
X119125919Y-76879858D01*
X119516797Y-77088786D01*
X119940923Y-77217443D01*
X120382000Y-77260886D01*
X120823077Y-77217443D01*
X121247203Y-77088786D01*
X121638081Y-76879858D01*
X121980688Y-76598688D01*
X122261858Y-76256081D01*
X122470786Y-75865203D01*
X122548200Y-75610000D01*
X151645161Y-75610000D01*
X151650000Y-76085000D01*
X151900000Y-76335000D01*
X153375000Y-76335000D01*
X153375000Y-74860000D01*
X153625000Y-74860000D01*
X153625000Y-76335000D01*
X155100000Y-76335000D01*
X155350000Y-76085000D01*
X155354839Y-75610000D01*
X155335531Y-75413966D01*
X155278350Y-75225465D01*
X155185493Y-75051741D01*
X155060528Y-74899472D01*
X154908259Y-74774507D01*
X154734535Y-74681650D01*
X154546034Y-74624469D01*
X154350000Y-74605161D01*
X153875000Y-74610000D01*
X153625000Y-74860000D01*
X153375000Y-74860000D01*
X153125000Y-74610000D01*
X152650000Y-74605161D01*
X152453966Y-74624469D01*
X152265465Y-74681650D01*
X152091741Y-74774507D01*
X151939472Y-74899472D01*
X151814507Y-75051741D01*
X151721650Y-75225465D01*
X151664469Y-75413966D01*
X151645161Y-75610000D01*
X122548200Y-75610000D01*
X122599443Y-75441077D01*
X122642886Y-75000000D01*
X122599443Y-74558923D01*
X122470786Y-74134797D01*
X122261858Y-73743919D01*
X122051145Y-73487165D01*
X119051149Y-70487169D01*
X118980688Y-70401312D01*
X118638081Y-70120142D01*
X118247204Y-69911214D01*
X117823077Y-69782556D01*
X117739425Y-69774317D01*
X137708600Y-69774317D01*
X137708600Y-70225683D01*
X137796657Y-70668377D01*
X137969388Y-71085385D01*
X138220153Y-71460682D01*
X138539318Y-71779847D01*
X138914615Y-72030612D01*
X139331623Y-72203343D01*
X139774317Y-72291400D01*
X140225683Y-72291400D01*
X140668377Y-72203343D01*
X141085385Y-72030612D01*
X141460682Y-71779847D01*
X141779847Y-71460682D01*
X141794325Y-71439013D01*
X144817763Y-71439013D01*
X144897657Y-71809907D01*
X145256327Y-71991723D01*
X145643575Y-72100073D01*
X146044520Y-72130793D01*
X146443755Y-72082702D01*
X146825936Y-71957649D01*
X147102343Y-71809907D01*
X147182237Y-71439013D01*
X146000000Y-70256777D01*
X144817763Y-71439013D01*
X141794325Y-71439013D01*
X142030612Y-71085385D01*
X142203343Y-70668377D01*
X142291400Y-70225683D01*
X142291400Y-70124520D01*
X143949207Y-70124520D01*
X143997298Y-70523755D01*
X144122351Y-70905936D01*
X144270093Y-71182343D01*
X144640987Y-71262237D01*
X145823223Y-70080000D01*
X146176777Y-70080000D01*
X147359013Y-71262237D01*
X147729907Y-71182343D01*
X147911723Y-70823673D01*
X148020073Y-70436425D01*
X148050793Y-70035480D01*
X148002702Y-69636245D01*
X147877649Y-69254064D01*
X147729907Y-68977657D01*
X147359013Y-68897763D01*
X146176777Y-70080000D01*
X145823223Y-70080000D01*
X144640987Y-68897763D01*
X144270093Y-68977657D01*
X144088277Y-69336327D01*
X143979927Y-69723575D01*
X143949207Y-70124520D01*
X142291400Y-70124520D01*
X142291400Y-69774317D01*
X142203343Y-69331623D01*
X142030612Y-68914615D01*
X141901235Y-68720987D01*
X144817763Y-68720987D01*
X146000000Y-69903223D01*
X147182237Y-68720987D01*
X147102343Y-68350093D01*
X146743673Y-68168277D01*
X146356425Y-68059927D01*
X145955480Y-68029207D01*
X145556245Y-68077298D01*
X145174064Y-68202351D01*
X144897657Y-68350093D01*
X144817763Y-68720987D01*
X141901235Y-68720987D01*
X141779847Y-68539318D01*
X141460682Y-68220153D01*
X141085385Y-67969388D01*
X140668377Y-67796657D01*
X140225683Y-67708600D01*
X139774317Y-67708600D01*
X139331623Y-67796657D01*
X138914615Y-67969388D01*
X138539318Y-68220153D01*
X138220153Y-68539318D01*
X137969388Y-68914615D01*
X137796657Y-69331623D01*
X137708600Y-69774317D01*
X117739425Y-69774317D01*
X117492528Y-69750000D01*
X117492525Y-69750000D01*
X117382000Y-69739114D01*
X117271475Y-69750000D01*
X111110525Y-69750000D01*
X110999999Y-69739114D01*
X110889473Y-69750000D01*
X110889472Y-69750000D01*
X110558923Y-69782556D01*
X110161139Y-69903223D01*
X110134796Y-69911214D01*
X109743918Y-70120142D01*
X109487164Y-70330855D01*
X109401312Y-70401312D01*
X109330856Y-70487164D01*
X107487164Y-72330856D01*
X107401313Y-72401312D01*
X107330857Y-72487163D01*
X107330855Y-72487165D01*
X107120142Y-72743919D01*
X106989678Y-72988000D01*
X106911214Y-73134796D01*
X106782556Y-73558923D01*
X106750947Y-73879858D01*
X106739114Y-74000000D01*
X102369633Y-74000000D01*
X102180822Y-73717425D01*
X101900575Y-73437178D01*
X101571039Y-73216989D01*
X101204879Y-73065320D01*
X100816165Y-72988000D01*
X100419835Y-72988000D01*
X100031121Y-73065320D01*
X99664961Y-73216989D01*
X99335425Y-73437178D01*
X99055178Y-73717425D01*
X98834989Y-74046961D01*
X98683320Y-74413121D01*
X98606000Y-74801835D01*
X98275000Y-74801835D01*
X98275000Y-64694317D01*
X137708600Y-64694317D01*
X137708600Y-65145683D01*
X137796657Y-65588377D01*
X137969388Y-66005385D01*
X138220153Y-66380682D01*
X138539318Y-66699847D01*
X138914615Y-66950612D01*
X139331623Y-67123343D01*
X139774317Y-67211400D01*
X140225683Y-67211400D01*
X140668377Y-67123343D01*
X141085385Y-66950612D01*
X141460682Y-66699847D01*
X141779847Y-66380682D01*
X141794325Y-66359013D01*
X144817763Y-66359013D01*
X144897657Y-66729907D01*
X145256327Y-66911723D01*
X145643575Y-67020073D01*
X146044520Y-67050793D01*
X146443755Y-67002702D01*
X146825936Y-66877649D01*
X147102343Y-66729907D01*
X147182237Y-66359013D01*
X146000000Y-65176777D01*
X144817763Y-66359013D01*
X141794325Y-66359013D01*
X142030612Y-66005385D01*
X142203343Y-65588377D01*
X142291400Y-65145683D01*
X142291400Y-65044520D01*
X143949207Y-65044520D01*
X143997298Y-65443755D01*
X144122351Y-65825936D01*
X144270093Y-66102343D01*
X144640987Y-66182237D01*
X145823223Y-65000000D01*
X146176777Y-65000000D01*
X147359013Y-66182237D01*
X147729907Y-66102343D01*
X147911723Y-65743673D01*
X148020073Y-65356425D01*
X148050793Y-64955480D01*
X148002702Y-64556245D01*
X147877649Y-64174064D01*
X147729907Y-63897657D01*
X147359013Y-63817763D01*
X146176777Y-65000000D01*
X145823223Y-65000000D01*
X144640987Y-63817763D01*
X144270093Y-63897657D01*
X144088277Y-64256327D01*
X143979927Y-64643575D01*
X143949207Y-65044520D01*
X142291400Y-65044520D01*
X142291400Y-64694317D01*
X142203343Y-64251623D01*
X142030612Y-63834615D01*
X141901235Y-63640987D01*
X144817763Y-63640987D01*
X146000000Y-64823223D01*
X147182237Y-63640987D01*
X147102343Y-63270093D01*
X146743673Y-63088277D01*
X146356425Y-62979927D01*
X145955480Y-62949207D01*
X145556245Y-62997298D01*
X145174064Y-63122351D01*
X144897657Y-63270093D01*
X144817763Y-63640987D01*
X141901235Y-63640987D01*
X141779847Y-63459318D01*
X141460682Y-63140153D01*
X141085385Y-62889388D01*
X140668377Y-62716657D01*
X140225683Y-62628600D01*
X139774317Y-62628600D01*
X139331623Y-62716657D01*
X138914615Y-62889388D01*
X138539318Y-63140153D01*
X138220153Y-63459318D01*
X137969388Y-63834615D01*
X137796657Y-64251623D01*
X137708600Y-64694317D01*
X98275000Y-64694317D01*
X98275000Y-63528121D01*
X100528122Y-61275000D01*
X159471879Y-61275000D01*
X161725000Y-63528122D01*
M02*
