G04 #@! TF.GenerationSoftware,KiCad,Pcbnew,(5.1.5)-3*
G04 #@! TF.CreationDate,2020-03-21T22:09:17-04:00*
G04 #@! TF.ProjectId,GP PSU Filter,47502050-5355-4204-9669-6c7465722e6b,rev?*
G04 #@! TF.SameCoordinates,Original*
G04 #@! TF.FileFunction,Soldermask,Top*
G04 #@! TF.FilePolarity,Negative*
%FSLAX46Y46*%
G04 Gerber Fmt 4.6, Leading zero omitted, Abs format (unit mm)*
G04 Created by KiCad (PCBNEW (5.1.5)-3) date 2020-03-21 22:09:17*
%MOMM*%
%LPD*%
G04 APERTURE LIST*
%ADD10C,0.100000*%
G04 APERTURE END LIST*
D10*
G36*
X153741188Y-101552211D02*
G01*
X153766642Y-101559933D01*
X153790097Y-101572469D01*
X153810657Y-101589343D01*
X153827531Y-101609903D01*
X153840067Y-101633358D01*
X153847789Y-101658812D01*
X153851000Y-101691418D01*
X153851000Y-109308582D01*
X153847789Y-109341188D01*
X153840067Y-109366642D01*
X153827531Y-109390097D01*
X153810657Y-109410657D01*
X153790097Y-109427531D01*
X153766642Y-109440067D01*
X153741188Y-109447789D01*
X153708582Y-109451000D01*
X144291418Y-109451000D01*
X144258812Y-109447789D01*
X144233358Y-109440067D01*
X144209903Y-109427531D01*
X144189343Y-109410657D01*
X144172469Y-109390097D01*
X144159933Y-109366642D01*
X144152211Y-109341188D01*
X144149000Y-109308582D01*
X144149000Y-101691418D01*
X144152211Y-101658812D01*
X144159933Y-101633358D01*
X144172469Y-101609903D01*
X144189343Y-101589343D01*
X144209903Y-101572469D01*
X144233358Y-101559933D01*
X144258812Y-101552211D01*
X144291418Y-101549000D01*
X153708582Y-101549000D01*
X153741188Y-101552211D01*
G37*
G36*
X137521934Y-103702671D02*
G01*
X137551877Y-103711754D01*
X137579465Y-103726500D01*
X137603651Y-103746349D01*
X137623500Y-103770535D01*
X137638246Y-103798123D01*
X137647329Y-103828066D01*
X137651000Y-103865340D01*
X137651000Y-106134660D01*
X137647329Y-106171934D01*
X137638246Y-106201877D01*
X137623500Y-106229465D01*
X137603651Y-106253651D01*
X137579465Y-106273500D01*
X137551877Y-106288246D01*
X137521934Y-106297329D01*
X137484660Y-106301000D01*
X133315340Y-106301000D01*
X133278066Y-106297329D01*
X133248123Y-106288246D01*
X133220535Y-106273500D01*
X133196349Y-106253651D01*
X133176500Y-106229465D01*
X133161754Y-106201877D01*
X133152671Y-106171934D01*
X133149000Y-106134660D01*
X133149000Y-103865340D01*
X133152671Y-103828066D01*
X133161754Y-103798123D01*
X133176500Y-103770535D01*
X133196349Y-103746349D01*
X133220535Y-103726500D01*
X133248123Y-103711754D01*
X133278066Y-103702671D01*
X133315340Y-103699000D01*
X137484660Y-103699000D01*
X137521934Y-103702671D01*
G37*
G36*
X129121934Y-103702671D02*
G01*
X129151877Y-103711754D01*
X129179465Y-103726500D01*
X129203651Y-103746349D01*
X129223500Y-103770535D01*
X129238246Y-103798123D01*
X129247329Y-103828066D01*
X129251000Y-103865340D01*
X129251000Y-106134660D01*
X129247329Y-106171934D01*
X129238246Y-106201877D01*
X129223500Y-106229465D01*
X129203651Y-106253651D01*
X129179465Y-106273500D01*
X129151877Y-106288246D01*
X129121934Y-106297329D01*
X129084660Y-106301000D01*
X124915340Y-106301000D01*
X124878066Y-106297329D01*
X124848123Y-106288246D01*
X124820535Y-106273500D01*
X124796349Y-106253651D01*
X124776500Y-106229465D01*
X124761754Y-106201877D01*
X124752671Y-106171934D01*
X124749000Y-106134660D01*
X124749000Y-103865340D01*
X124752671Y-103828066D01*
X124761754Y-103798123D01*
X124776500Y-103770535D01*
X124796349Y-103746349D01*
X124820535Y-103726500D01*
X124848123Y-103711754D01*
X124878066Y-103702671D01*
X124915340Y-103699000D01*
X129084660Y-103699000D01*
X129121934Y-103702671D01*
G37*
G36*
X100855142Y-99218242D02*
G01*
X101003101Y-99279529D01*
X101136255Y-99368499D01*
X101249501Y-99481745D01*
X101338471Y-99614899D01*
X101399758Y-99762858D01*
X101431000Y-99919925D01*
X101431000Y-100080075D01*
X101399758Y-100237142D01*
X101338471Y-100385101D01*
X101249501Y-100518255D01*
X101136255Y-100631501D01*
X101003101Y-100720471D01*
X100855142Y-100781758D01*
X100698075Y-100813000D01*
X100537925Y-100813000D01*
X100380858Y-100781758D01*
X100232899Y-100720471D01*
X100099745Y-100631501D01*
X99986499Y-100518255D01*
X99897529Y-100385101D01*
X99836242Y-100237142D01*
X99805000Y-100080075D01*
X99805000Y-99919925D01*
X99836242Y-99762858D01*
X99897529Y-99614899D01*
X99986499Y-99481745D01*
X100099745Y-99368499D01*
X100232899Y-99279529D01*
X100380858Y-99218242D01*
X100537925Y-99187000D01*
X100698075Y-99187000D01*
X100855142Y-99218242D01*
G37*
G36*
X120619142Y-99218242D02*
G01*
X120767101Y-99279529D01*
X120900255Y-99368499D01*
X121013501Y-99481745D01*
X121102471Y-99614899D01*
X121163758Y-99762858D01*
X121195000Y-99919925D01*
X121195000Y-100080075D01*
X121163758Y-100237142D01*
X121102471Y-100385101D01*
X121013501Y-100518255D01*
X120900255Y-100631501D01*
X120767101Y-100720471D01*
X120619142Y-100781758D01*
X120462075Y-100813000D01*
X120301925Y-100813000D01*
X120144858Y-100781758D01*
X119996899Y-100720471D01*
X119863745Y-100631501D01*
X119750499Y-100518255D01*
X119661529Y-100385101D01*
X119600242Y-100237142D01*
X119569000Y-100080075D01*
X119569000Y-99919925D01*
X119600242Y-99762858D01*
X119661529Y-99614899D01*
X119750499Y-99481745D01*
X119863745Y-99368499D01*
X119996899Y-99279529D01*
X120144858Y-99218242D01*
X120301925Y-99187000D01*
X120462075Y-99187000D01*
X120619142Y-99218242D01*
G37*
G36*
X112237142Y-99218242D02*
G01*
X112385101Y-99279529D01*
X112518255Y-99368499D01*
X112631501Y-99481745D01*
X112720471Y-99614899D01*
X112781758Y-99762858D01*
X112813000Y-99919925D01*
X112813000Y-100080075D01*
X112781758Y-100237142D01*
X112720471Y-100385101D01*
X112631501Y-100518255D01*
X112518255Y-100631501D01*
X112385101Y-100720471D01*
X112237142Y-100781758D01*
X112080075Y-100813000D01*
X111919925Y-100813000D01*
X111762858Y-100781758D01*
X111614899Y-100720471D01*
X111481745Y-100631501D01*
X111368499Y-100518255D01*
X111279529Y-100385101D01*
X111218242Y-100237142D01*
X111187000Y-100080075D01*
X111187000Y-99919925D01*
X111218242Y-99762858D01*
X111279529Y-99614899D01*
X111368499Y-99481745D01*
X111481745Y-99368499D01*
X111614899Y-99279529D01*
X111762858Y-99218242D01*
X111919925Y-99187000D01*
X112080075Y-99187000D01*
X112237142Y-99218242D01*
G37*
G36*
X109237142Y-99218242D02*
G01*
X109385101Y-99279529D01*
X109518255Y-99368499D01*
X109631501Y-99481745D01*
X109720471Y-99614899D01*
X109781758Y-99762858D01*
X109813000Y-99919925D01*
X109813000Y-100080075D01*
X109781758Y-100237142D01*
X109720471Y-100385101D01*
X109631501Y-100518255D01*
X109518255Y-100631501D01*
X109385101Y-100720471D01*
X109237142Y-100781758D01*
X109080075Y-100813000D01*
X108919925Y-100813000D01*
X108762858Y-100781758D01*
X108614899Y-100720471D01*
X108481745Y-100631501D01*
X108368499Y-100518255D01*
X108279529Y-100385101D01*
X108218242Y-100237142D01*
X108187000Y-100080075D01*
X108187000Y-99919925D01*
X108218242Y-99762858D01*
X108279529Y-99614899D01*
X108368499Y-99481745D01*
X108481745Y-99368499D01*
X108614899Y-99279529D01*
X108762858Y-99218242D01*
X108919925Y-99187000D01*
X109080075Y-99187000D01*
X109237142Y-99218242D01*
G37*
G36*
X153741188Y-89052211D02*
G01*
X153766642Y-89059933D01*
X153790097Y-89072469D01*
X153810657Y-89089343D01*
X153827531Y-89109903D01*
X153840067Y-89133358D01*
X153847789Y-89158812D01*
X153851000Y-89191418D01*
X153851000Y-96808582D01*
X153847789Y-96841188D01*
X153840067Y-96866642D01*
X153827531Y-96890097D01*
X153810657Y-96910657D01*
X153790097Y-96927531D01*
X153766642Y-96940067D01*
X153741188Y-96947789D01*
X153708582Y-96951000D01*
X144291418Y-96951000D01*
X144258812Y-96947789D01*
X144233358Y-96940067D01*
X144209903Y-96927531D01*
X144189343Y-96910657D01*
X144172469Y-96890097D01*
X144159933Y-96866642D01*
X144152211Y-96841188D01*
X144149000Y-96808582D01*
X144149000Y-89191418D01*
X144152211Y-89158812D01*
X144159933Y-89133358D01*
X144172469Y-89109903D01*
X144189343Y-89089343D01*
X144209903Y-89072469D01*
X144233358Y-89059933D01*
X144258812Y-89052211D01*
X144291418Y-89049000D01*
X153708582Y-89049000D01*
X153741188Y-89052211D01*
G37*
G36*
X133605997Y-81153051D02*
G01*
X133639652Y-81163261D01*
X133670665Y-81179838D01*
X133697851Y-81202149D01*
X133720162Y-81229335D01*
X133736739Y-81260348D01*
X133746949Y-81294003D01*
X133751000Y-81335138D01*
X133751000Y-82664862D01*
X133746949Y-82705997D01*
X133736739Y-82739652D01*
X133720162Y-82770665D01*
X133697851Y-82797851D01*
X133670665Y-82820162D01*
X133639652Y-82836739D01*
X133605997Y-82846949D01*
X133564862Y-82851000D01*
X131235138Y-82851000D01*
X131194003Y-82846949D01*
X131160348Y-82836739D01*
X131129335Y-82820162D01*
X131102149Y-82797851D01*
X131079838Y-82770665D01*
X131063261Y-82739652D01*
X131053051Y-82705997D01*
X131049000Y-82664862D01*
X131049000Y-81335138D01*
X131053051Y-81294003D01*
X131063261Y-81260348D01*
X131079838Y-81229335D01*
X131102149Y-81202149D01*
X131129335Y-81179838D01*
X131160348Y-81163261D01*
X131194003Y-81153051D01*
X131235138Y-81149000D01*
X133564862Y-81149000D01*
X133605997Y-81153051D01*
G37*
G36*
X137205997Y-81153051D02*
G01*
X137239652Y-81163261D01*
X137270665Y-81179838D01*
X137297851Y-81202149D01*
X137320162Y-81229335D01*
X137336739Y-81260348D01*
X137346949Y-81294003D01*
X137351000Y-81335138D01*
X137351000Y-82664862D01*
X137346949Y-82705997D01*
X137336739Y-82739652D01*
X137320162Y-82770665D01*
X137297851Y-82797851D01*
X137270665Y-82820162D01*
X137239652Y-82836739D01*
X137205997Y-82846949D01*
X137164862Y-82851000D01*
X134835138Y-82851000D01*
X134794003Y-82846949D01*
X134760348Y-82836739D01*
X134729335Y-82820162D01*
X134702149Y-82797851D01*
X134679838Y-82770665D01*
X134663261Y-82739652D01*
X134653051Y-82705997D01*
X134649000Y-82664862D01*
X134649000Y-81335138D01*
X134653051Y-81294003D01*
X134663261Y-81260348D01*
X134679838Y-81229335D01*
X134702149Y-81202149D01*
X134729335Y-81179838D01*
X134760348Y-81163261D01*
X134794003Y-81153051D01*
X134835138Y-81149000D01*
X137164862Y-81149000D01*
X137205997Y-81153051D01*
G37*
G36*
X153613512Y-78103927D02*
G01*
X153762812Y-78133624D01*
X153926784Y-78201544D01*
X154074354Y-78300147D01*
X154199853Y-78425646D01*
X154298456Y-78573216D01*
X154366376Y-78737188D01*
X154401000Y-78911259D01*
X154401000Y-79088741D01*
X154366376Y-79262812D01*
X154298456Y-79426784D01*
X154199853Y-79574354D01*
X154074354Y-79699853D01*
X153926784Y-79798456D01*
X153762812Y-79866376D01*
X153613512Y-79896073D01*
X153588742Y-79901000D01*
X153411258Y-79901000D01*
X153386488Y-79896073D01*
X153237188Y-79866376D01*
X153073216Y-79798456D01*
X152925646Y-79699853D01*
X152800147Y-79574354D01*
X152701544Y-79426784D01*
X152633624Y-79262812D01*
X152599000Y-79088741D01*
X152599000Y-78911259D01*
X152633624Y-78737188D01*
X152701544Y-78573216D01*
X152800147Y-78425646D01*
X152925646Y-78300147D01*
X153073216Y-78201544D01*
X153237188Y-78133624D01*
X153386488Y-78103927D01*
X153411258Y-78099000D01*
X153588742Y-78099000D01*
X153613512Y-78103927D01*
G37*
G36*
X135963674Y-76253465D02*
G01*
X136001367Y-76264899D01*
X136036103Y-76283466D01*
X136066548Y-76308452D01*
X136091534Y-76338897D01*
X136110101Y-76373633D01*
X136121535Y-76411326D01*
X136126000Y-76456661D01*
X136126000Y-77543339D01*
X136121535Y-77588674D01*
X136110101Y-77626367D01*
X136091534Y-77661103D01*
X136066548Y-77691548D01*
X136036103Y-77716534D01*
X136001367Y-77735101D01*
X135963674Y-77746535D01*
X135918339Y-77751000D01*
X135081661Y-77751000D01*
X135036326Y-77746535D01*
X134998633Y-77735101D01*
X134963897Y-77716534D01*
X134933452Y-77691548D01*
X134908466Y-77661103D01*
X134889899Y-77626367D01*
X134878465Y-77588674D01*
X134874000Y-77543339D01*
X134874000Y-76456661D01*
X134878465Y-76411326D01*
X134889899Y-76373633D01*
X134908466Y-76338897D01*
X134933452Y-76308452D01*
X134963897Y-76283466D01*
X134998633Y-76264899D01*
X135036326Y-76253465D01*
X135081661Y-76249000D01*
X135918339Y-76249000D01*
X135963674Y-76253465D01*
G37*
G36*
X133913674Y-76253465D02*
G01*
X133951367Y-76264899D01*
X133986103Y-76283466D01*
X134016548Y-76308452D01*
X134041534Y-76338897D01*
X134060101Y-76373633D01*
X134071535Y-76411326D01*
X134076000Y-76456661D01*
X134076000Y-77543339D01*
X134071535Y-77588674D01*
X134060101Y-77626367D01*
X134041534Y-77661103D01*
X134016548Y-77691548D01*
X133986103Y-77716534D01*
X133951367Y-77735101D01*
X133913674Y-77746535D01*
X133868339Y-77751000D01*
X133031661Y-77751000D01*
X132986326Y-77746535D01*
X132948633Y-77735101D01*
X132913897Y-77716534D01*
X132883452Y-77691548D01*
X132858466Y-77661103D01*
X132839899Y-77626367D01*
X132828465Y-77588674D01*
X132824000Y-77543339D01*
X132824000Y-76456661D01*
X132828465Y-76411326D01*
X132839899Y-76373633D01*
X132858466Y-76338897D01*
X132883452Y-76308452D01*
X132913897Y-76283466D01*
X132948633Y-76264899D01*
X132986326Y-76253465D01*
X133031661Y-76249000D01*
X133868339Y-76249000D01*
X133913674Y-76253465D01*
G37*
G36*
X154401000Y-77361000D02*
G01*
X152599000Y-77361000D01*
X152599000Y-75559000D01*
X154401000Y-75559000D01*
X154401000Y-77361000D01*
G37*
G36*
X109237142Y-74218242D02*
G01*
X109385101Y-74279529D01*
X109518255Y-74368499D01*
X109631501Y-74481745D01*
X109720471Y-74614899D01*
X109781758Y-74762858D01*
X109813000Y-74919925D01*
X109813000Y-75080075D01*
X109781758Y-75237142D01*
X109720471Y-75385101D01*
X109631501Y-75518255D01*
X109518255Y-75631501D01*
X109385101Y-75720471D01*
X109237142Y-75781758D01*
X109080075Y-75813000D01*
X108919925Y-75813000D01*
X108762858Y-75781758D01*
X108614899Y-75720471D01*
X108481745Y-75631501D01*
X108368499Y-75518255D01*
X108279529Y-75385101D01*
X108218242Y-75237142D01*
X108187000Y-75080075D01*
X108187000Y-74919925D01*
X108218242Y-74762858D01*
X108279529Y-74614899D01*
X108368499Y-74481745D01*
X108481745Y-74368499D01*
X108614899Y-74279529D01*
X108762858Y-74218242D01*
X108919925Y-74187000D01*
X109080075Y-74187000D01*
X109237142Y-74218242D01*
G37*
G36*
X100855142Y-74218242D02*
G01*
X101003101Y-74279529D01*
X101136255Y-74368499D01*
X101249501Y-74481745D01*
X101338471Y-74614899D01*
X101399758Y-74762858D01*
X101431000Y-74919925D01*
X101431000Y-75080075D01*
X101399758Y-75237142D01*
X101338471Y-75385101D01*
X101249501Y-75518255D01*
X101136255Y-75631501D01*
X101003101Y-75720471D01*
X100855142Y-75781758D01*
X100698075Y-75813000D01*
X100537925Y-75813000D01*
X100380858Y-75781758D01*
X100232899Y-75720471D01*
X100099745Y-75631501D01*
X99986499Y-75518255D01*
X99897529Y-75385101D01*
X99836242Y-75237142D01*
X99805000Y-75080075D01*
X99805000Y-74919925D01*
X99836242Y-74762858D01*
X99897529Y-74614899D01*
X99986499Y-74481745D01*
X100099745Y-74368499D01*
X100232899Y-74279529D01*
X100380858Y-74218242D01*
X100537925Y-74187000D01*
X100698075Y-74187000D01*
X100855142Y-74218242D01*
G37*
G36*
X112237142Y-74218242D02*
G01*
X112385101Y-74279529D01*
X112518255Y-74368499D01*
X112631501Y-74481745D01*
X112720471Y-74614899D01*
X112781758Y-74762858D01*
X112813000Y-74919925D01*
X112813000Y-75080075D01*
X112781758Y-75237142D01*
X112720471Y-75385101D01*
X112631501Y-75518255D01*
X112518255Y-75631501D01*
X112385101Y-75720471D01*
X112237142Y-75781758D01*
X112080075Y-75813000D01*
X111919925Y-75813000D01*
X111762858Y-75781758D01*
X111614899Y-75720471D01*
X111481745Y-75631501D01*
X111368499Y-75518255D01*
X111279529Y-75385101D01*
X111218242Y-75237142D01*
X111187000Y-75080075D01*
X111187000Y-74919925D01*
X111218242Y-74762858D01*
X111279529Y-74614899D01*
X111368499Y-74481745D01*
X111481745Y-74368499D01*
X111614899Y-74279529D01*
X111762858Y-74218242D01*
X111919925Y-74187000D01*
X112080075Y-74187000D01*
X112237142Y-74218242D01*
G37*
G36*
X120619142Y-74218242D02*
G01*
X120767101Y-74279529D01*
X120900255Y-74368499D01*
X121013501Y-74481745D01*
X121102471Y-74614899D01*
X121163758Y-74762858D01*
X121195000Y-74919925D01*
X121195000Y-75080075D01*
X121163758Y-75237142D01*
X121102471Y-75385101D01*
X121013501Y-75518255D01*
X120900255Y-75631501D01*
X120767101Y-75720471D01*
X120619142Y-75781758D01*
X120462075Y-75813000D01*
X120301925Y-75813000D01*
X120144858Y-75781758D01*
X119996899Y-75720471D01*
X119863745Y-75631501D01*
X119750499Y-75518255D01*
X119661529Y-75385101D01*
X119600242Y-75237142D01*
X119569000Y-75080075D01*
X119569000Y-74919925D01*
X119600242Y-74762858D01*
X119661529Y-74614899D01*
X119750499Y-74481745D01*
X119863745Y-74368499D01*
X119996899Y-74279529D01*
X120144858Y-74218242D01*
X120301925Y-74187000D01*
X120462075Y-74187000D01*
X120619142Y-74218242D01*
G37*
G36*
X133913674Y-72753465D02*
G01*
X133951367Y-72764899D01*
X133986103Y-72783466D01*
X134016548Y-72808452D01*
X134041534Y-72838897D01*
X134060101Y-72873633D01*
X134071535Y-72911326D01*
X134076000Y-72956661D01*
X134076000Y-74043339D01*
X134071535Y-74088674D01*
X134060101Y-74126367D01*
X134041534Y-74161103D01*
X134016548Y-74191548D01*
X133986103Y-74216534D01*
X133951367Y-74235101D01*
X133913674Y-74246535D01*
X133868339Y-74251000D01*
X133031661Y-74251000D01*
X132986326Y-74246535D01*
X132948633Y-74235101D01*
X132913897Y-74216534D01*
X132883452Y-74191548D01*
X132858466Y-74161103D01*
X132839899Y-74126367D01*
X132828465Y-74088674D01*
X132824000Y-74043339D01*
X132824000Y-72956661D01*
X132828465Y-72911326D01*
X132839899Y-72873633D01*
X132858466Y-72838897D01*
X132883452Y-72808452D01*
X132913897Y-72783466D01*
X132948633Y-72764899D01*
X132986326Y-72753465D01*
X133031661Y-72749000D01*
X133868339Y-72749000D01*
X133913674Y-72753465D01*
G37*
G36*
X135963674Y-72753465D02*
G01*
X136001367Y-72764899D01*
X136036103Y-72783466D01*
X136066548Y-72808452D01*
X136091534Y-72838897D01*
X136110101Y-72873633D01*
X136121535Y-72911326D01*
X136126000Y-72956661D01*
X136126000Y-74043339D01*
X136121535Y-74088674D01*
X136110101Y-74126367D01*
X136091534Y-74161103D01*
X136066548Y-74191548D01*
X136036103Y-74216534D01*
X136001367Y-74235101D01*
X135963674Y-74246535D01*
X135918339Y-74251000D01*
X135081661Y-74251000D01*
X135036326Y-74246535D01*
X134998633Y-74235101D01*
X134963897Y-74216534D01*
X134933452Y-74191548D01*
X134908466Y-74161103D01*
X134889899Y-74126367D01*
X134878465Y-74088674D01*
X134874000Y-74043339D01*
X134874000Y-72956661D01*
X134878465Y-72911326D01*
X134889899Y-72873633D01*
X134908466Y-72838897D01*
X134933452Y-72808452D01*
X134963897Y-72783466D01*
X134998633Y-72764899D01*
X135036326Y-72753465D01*
X135081661Y-72749000D01*
X135918339Y-72749000D01*
X135963674Y-72753465D01*
G37*
G36*
X146318641Y-69029580D02*
G01*
X146517446Y-69111927D01*
X146696365Y-69231477D01*
X146848523Y-69383635D01*
X146968073Y-69562554D01*
X147050420Y-69761359D01*
X147092400Y-69972408D01*
X147092400Y-70187592D01*
X147050420Y-70398641D01*
X146968073Y-70597446D01*
X146848523Y-70776365D01*
X146696365Y-70928523D01*
X146517446Y-71048073D01*
X146318641Y-71130420D01*
X146213116Y-71151410D01*
X146107593Y-71172400D01*
X145892407Y-71172400D01*
X145786884Y-71151410D01*
X145681359Y-71130420D01*
X145482554Y-71048073D01*
X145303635Y-70928523D01*
X145151477Y-70776365D01*
X145031927Y-70597446D01*
X144949580Y-70398641D01*
X144907600Y-70187592D01*
X144907600Y-69972408D01*
X144949580Y-69761359D01*
X145031927Y-69562554D01*
X145151477Y-69383635D01*
X145303635Y-69231477D01*
X145482554Y-69111927D01*
X145681359Y-69029580D01*
X145892407Y-68987600D01*
X146107593Y-68987600D01*
X146318641Y-69029580D01*
G37*
G36*
X140318641Y-68949580D02*
G01*
X140517446Y-69031927D01*
X140696365Y-69151477D01*
X140848523Y-69303635D01*
X140968073Y-69482554D01*
X141050420Y-69681359D01*
X141092400Y-69892408D01*
X141092400Y-70107592D01*
X141050420Y-70318641D01*
X140968073Y-70517446D01*
X140848523Y-70696365D01*
X140696365Y-70848523D01*
X140517446Y-70968073D01*
X140318641Y-71050420D01*
X140107593Y-71092400D01*
X139892407Y-71092400D01*
X139681359Y-71050420D01*
X139482554Y-70968073D01*
X139303635Y-70848523D01*
X139151477Y-70696365D01*
X139031927Y-70517446D01*
X138949580Y-70318641D01*
X138907600Y-70107592D01*
X138907600Y-69892408D01*
X138949580Y-69681359D01*
X139031927Y-69482554D01*
X139151477Y-69303635D01*
X139303635Y-69151477D01*
X139482554Y-69031927D01*
X139681359Y-68949580D01*
X139892407Y-68907600D01*
X140107593Y-68907600D01*
X140318641Y-68949580D01*
G37*
G36*
X146213116Y-63928590D02*
G01*
X146318641Y-63949580D01*
X146517446Y-64031927D01*
X146696365Y-64151477D01*
X146848523Y-64303635D01*
X146968073Y-64482554D01*
X147050420Y-64681359D01*
X147092400Y-64892408D01*
X147092400Y-65107592D01*
X147050420Y-65318641D01*
X146968073Y-65517446D01*
X146848523Y-65696365D01*
X146696365Y-65848523D01*
X146517446Y-65968073D01*
X146318641Y-66050420D01*
X146107593Y-66092400D01*
X145892407Y-66092400D01*
X145681359Y-66050420D01*
X145482554Y-65968073D01*
X145303635Y-65848523D01*
X145151477Y-65696365D01*
X145031927Y-65517446D01*
X144949580Y-65318641D01*
X144907600Y-65107592D01*
X144907600Y-64892408D01*
X144949580Y-64681359D01*
X145031927Y-64482554D01*
X145151477Y-64303635D01*
X145303635Y-64151477D01*
X145482554Y-64031927D01*
X145681359Y-63949580D01*
X145786884Y-63928590D01*
X145892407Y-63907600D01*
X146107593Y-63907600D01*
X146213116Y-63928590D01*
G37*
G36*
X140213116Y-63848590D02*
G01*
X140318641Y-63869580D01*
X140517446Y-63951927D01*
X140696365Y-64071477D01*
X140848523Y-64223635D01*
X140968073Y-64402554D01*
X141050420Y-64601359D01*
X141092400Y-64812408D01*
X141092400Y-65027592D01*
X141050420Y-65238641D01*
X140968073Y-65437446D01*
X140848523Y-65616365D01*
X140696365Y-65768523D01*
X140517446Y-65888073D01*
X140318641Y-65970420D01*
X140107593Y-66012400D01*
X139892407Y-66012400D01*
X139681359Y-65970420D01*
X139482554Y-65888073D01*
X139303635Y-65768523D01*
X139151477Y-65616365D01*
X139031927Y-65437446D01*
X138949580Y-65238641D01*
X138907600Y-65027592D01*
X138907600Y-64812408D01*
X138949580Y-64601359D01*
X139031927Y-64402554D01*
X139151477Y-64223635D01*
X139303635Y-64071477D01*
X139482554Y-63951927D01*
X139681359Y-63869580D01*
X139786884Y-63848590D01*
X139892407Y-63827600D01*
X140107593Y-63827600D01*
X140213116Y-63848590D01*
G37*
M02*
