G04 #@! TF.GenerationSoftware,KiCad,Pcbnew,(5.1.5)-3*
G04 #@! TF.CreationDate,2020-03-21T22:09:17-04:00*
G04 #@! TF.ProjectId,GP PSU Filter,47502050-5355-4204-9669-6c7465722e6b,rev?*
G04 #@! TF.SameCoordinates,Original*
G04 #@! TF.FileFunction,Legend,Top*
G04 #@! TF.FilePolarity,Positive*
%FSLAX46Y46*%
G04 Gerber Fmt 4.6, Leading zero omitted, Abs format (unit mm)*
G04 Created by KiCad (PCBNEW (5.1.5)-3) date 2020-03-21 22:09:17*
%MOMM*%
%LPD*%
G04 APERTURE LIST*
%ADD10C,0.120000*%
%ADD11C,0.100000*%
%ADD12C,0.150000*%
G04 APERTURE END LIST*
D10*
X110920500Y-110350500D02*
X110920500Y-88125500D01*
X121461500Y-110350500D02*
X110920500Y-110350500D01*
X121461500Y-88125500D02*
X121461500Y-110350500D01*
X110920500Y-88125500D02*
X121461500Y-88125500D01*
X110920500Y-85350500D02*
X110920500Y-63125500D01*
X121461500Y-85350500D02*
X110920500Y-85350500D01*
X121461500Y-63125500D02*
X121461500Y-85350500D01*
X110920500Y-63125500D02*
X121461500Y-63125500D01*
X99538500Y-110350500D02*
X99538500Y-88125500D01*
X110079500Y-110350500D02*
X99538500Y-110350500D01*
X110079500Y-88125500D02*
X110079500Y-110350500D01*
X99538500Y-88125500D02*
X110079500Y-88125500D01*
X99538500Y-85350500D02*
X99538500Y-63125500D01*
X110079500Y-85350500D02*
X99538500Y-85350500D01*
X110079500Y-63125500D02*
X110079500Y-85350500D01*
X99538500Y-63125500D02*
X110079500Y-63125500D01*
D11*
X148000000Y-70240000D02*
X148000000Y-69740000D01*
X148000000Y-70240000D02*
X147500000Y-70240000D01*
X148000000Y-64840000D02*
X148000000Y-65340000D01*
X148000000Y-64840000D02*
X147500000Y-64840000D01*
X144000000Y-64840000D02*
X144000000Y-65340000D01*
X144000000Y-64840000D02*
X144500000Y-64840000D01*
X144000000Y-70240000D02*
X144500000Y-70240000D01*
X144000000Y-70240000D02*
X144000000Y-69740000D01*
X138000000Y-64760000D02*
X138000000Y-65260000D01*
X138000000Y-64760000D02*
X138500000Y-64760000D01*
X138000000Y-70160000D02*
X138000000Y-69660000D01*
X138000000Y-70160000D02*
X138500000Y-70160000D01*
X142000000Y-70160000D02*
X142000000Y-69660000D01*
X142000000Y-70160000D02*
X141500000Y-70160000D01*
X142000000Y-64760000D02*
X141500000Y-64760000D01*
X142000000Y-64760000D02*
X142000000Y-65260000D01*
D10*
X152170000Y-75130000D02*
X153500000Y-75130000D01*
X152170000Y-76460000D02*
X152170000Y-75130000D01*
X152170000Y-77730000D02*
X154830000Y-77730000D01*
X154830000Y-77730000D02*
X154830000Y-80330000D01*
X152170000Y-77730000D02*
X152170000Y-80330000D01*
X152170000Y-80330000D02*
X154830000Y-80330000D01*
X157060000Y-89600000D02*
X155060000Y-89600000D01*
X156060000Y-88600000D02*
X156060000Y-90600000D01*
X141654437Y-90840000D02*
X140590000Y-91904437D01*
X156345563Y-90840000D02*
X157410000Y-91904437D01*
X156345563Y-90840000D02*
X154060000Y-90840000D01*
X141654437Y-90840000D02*
X143940000Y-90840000D01*
X140590000Y-91904437D02*
X140590000Y-107660000D01*
X157410000Y-91904437D02*
X157410000Y-107660000D01*
X157410000Y-107660000D02*
X154060000Y-107660000D01*
X140590000Y-107660000D02*
X143940000Y-107660000D01*
X136950000Y-83810000D02*
X136950000Y-83310000D01*
X137200000Y-83560000D02*
X136700000Y-83560000D01*
X136460000Y-80804437D02*
X135395563Y-79740000D01*
X136460000Y-83195563D02*
X135395563Y-84260000D01*
X136460000Y-83195563D02*
X136460000Y-83060000D01*
X136460000Y-80804437D02*
X136460000Y-80940000D01*
X135395563Y-79740000D02*
X131940000Y-79740000D01*
X135395563Y-84260000D02*
X131940000Y-84260000D01*
X131940000Y-84260000D02*
X131940000Y-83060000D01*
X131940000Y-79740000D02*
X131940000Y-80940000D01*
X134736252Y-72790000D02*
X134213748Y-72790000D01*
X134736252Y-74210000D02*
X134213748Y-74210000D01*
X134736252Y-76290000D02*
X134213748Y-76290000D01*
X134736252Y-77710000D02*
X134213748Y-77710000D01*
X124975000Y-101615000D02*
X124975000Y-102865000D01*
X124350000Y-102240000D02*
X125600000Y-102240000D01*
X125840000Y-109295563D02*
X126904437Y-110360000D01*
X125840000Y-100704437D02*
X126904437Y-99640000D01*
X125840000Y-100704437D02*
X125840000Y-103490000D01*
X125840000Y-109295563D02*
X125840000Y-106510000D01*
X126904437Y-110360000D02*
X136560000Y-110360000D01*
X126904437Y-99640000D02*
X136560000Y-99640000D01*
X136560000Y-99640000D02*
X136560000Y-103490000D01*
X136560000Y-110360000D02*
X136560000Y-106510000D01*
D12*
X116024333Y-87452380D02*
X115548142Y-87452380D01*
X115548142Y-86452380D01*
X116786238Y-86785714D02*
X116786238Y-87452380D01*
X116548142Y-86404761D02*
X116310047Y-87119047D01*
X116929095Y-87119047D01*
X116024333Y-62452380D02*
X115548142Y-62452380D01*
X115548142Y-61452380D01*
X116262428Y-61452380D02*
X116881476Y-61452380D01*
X116548142Y-61833333D01*
X116691000Y-61833333D01*
X116786238Y-61880952D01*
X116833857Y-61928571D01*
X116881476Y-62023809D01*
X116881476Y-62261904D01*
X116833857Y-62357142D01*
X116786238Y-62404761D01*
X116691000Y-62452380D01*
X116405285Y-62452380D01*
X116310047Y-62404761D01*
X116262428Y-62357142D01*
X104642333Y-87452380D02*
X104166142Y-87452380D01*
X104166142Y-86452380D01*
X104928047Y-86547619D02*
X104975666Y-86500000D01*
X105070904Y-86452380D01*
X105309000Y-86452380D01*
X105404238Y-86500000D01*
X105451857Y-86547619D01*
X105499476Y-86642857D01*
X105499476Y-86738095D01*
X105451857Y-86880952D01*
X104880428Y-87452380D01*
X105499476Y-87452380D01*
X104642333Y-62452380D02*
X104166142Y-62452380D01*
X104166142Y-61452380D01*
X105499476Y-62452380D02*
X104928047Y-62452380D01*
X105213761Y-62452380D02*
X105213761Y-61452380D01*
X105118523Y-61595238D01*
X105023285Y-61690476D01*
X104928047Y-61738095D01*
X148796666Y-66992380D02*
X148796666Y-67706666D01*
X148749047Y-67849523D01*
X148653809Y-67944761D01*
X148510952Y-67992380D01*
X148415714Y-67992380D01*
X149177619Y-66992380D02*
X149796666Y-66992380D01*
X149463333Y-67373333D01*
X149606190Y-67373333D01*
X149701428Y-67420952D01*
X149749047Y-67468571D01*
X149796666Y-67563809D01*
X149796666Y-67801904D01*
X149749047Y-67897142D01*
X149701428Y-67944761D01*
X149606190Y-67992380D01*
X149320476Y-67992380D01*
X149225238Y-67944761D01*
X149177619Y-67897142D01*
X136536666Y-66912380D02*
X136536666Y-67626666D01*
X136489047Y-67769523D01*
X136393809Y-67864761D01*
X136250952Y-67912380D01*
X136155714Y-67912380D01*
X136965238Y-67007619D02*
X137012857Y-66960000D01*
X137108095Y-66912380D01*
X137346190Y-66912380D01*
X137441428Y-66960000D01*
X137489047Y-67007619D01*
X137536666Y-67102857D01*
X137536666Y-67198095D01*
X137489047Y-67340952D01*
X136917619Y-67912380D01*
X137536666Y-67912380D01*
X153166666Y-72912380D02*
X153166666Y-73626666D01*
X153119047Y-73769523D01*
X153023809Y-73864761D01*
X152880952Y-73912380D01*
X152785714Y-73912380D01*
X154166666Y-73912380D02*
X153595238Y-73912380D01*
X153880952Y-73912380D02*
X153880952Y-72912380D01*
X153785714Y-73055238D01*
X153690476Y-73150476D01*
X153595238Y-73198095D01*
X138833333Y-93857142D02*
X138785714Y-93904761D01*
X138642857Y-93952380D01*
X138547619Y-93952380D01*
X138404761Y-93904761D01*
X138309523Y-93809523D01*
X138261904Y-93714285D01*
X138214285Y-93523809D01*
X138214285Y-93380952D01*
X138261904Y-93190476D01*
X138309523Y-93095238D01*
X138404761Y-93000000D01*
X138547619Y-92952380D01*
X138642857Y-92952380D01*
X138785714Y-93000000D01*
X138833333Y-93047619D01*
X139738095Y-92952380D02*
X139261904Y-92952380D01*
X139214285Y-93428571D01*
X139261904Y-93380952D01*
X139357142Y-93333333D01*
X139595238Y-93333333D01*
X139690476Y-93380952D01*
X139738095Y-93428571D01*
X139785714Y-93523809D01*
X139785714Y-93761904D01*
X139738095Y-93857142D01*
X139690476Y-93904761D01*
X139595238Y-93952380D01*
X139357142Y-93952380D01*
X139261904Y-93904761D01*
X139214285Y-93857142D01*
X129333333Y-82357142D02*
X129285714Y-82404761D01*
X129142857Y-82452380D01*
X129047619Y-82452380D01*
X128904761Y-82404761D01*
X128809523Y-82309523D01*
X128761904Y-82214285D01*
X128714285Y-82023809D01*
X128714285Y-81880952D01*
X128761904Y-81690476D01*
X128809523Y-81595238D01*
X128904761Y-81500000D01*
X129047619Y-81452380D01*
X129142857Y-81452380D01*
X129285714Y-81500000D01*
X129333333Y-81547619D01*
X130190476Y-81785714D02*
X130190476Y-82452380D01*
X129952380Y-81404761D02*
X129714285Y-82119047D01*
X130333333Y-82119047D01*
X131333333Y-73857142D02*
X131285714Y-73904761D01*
X131142857Y-73952380D01*
X131047619Y-73952380D01*
X130904761Y-73904761D01*
X130809523Y-73809523D01*
X130761904Y-73714285D01*
X130714285Y-73523809D01*
X130714285Y-73380952D01*
X130761904Y-73190476D01*
X130809523Y-73095238D01*
X130904761Y-73000000D01*
X131047619Y-72952380D01*
X131142857Y-72952380D01*
X131285714Y-73000000D01*
X131333333Y-73047619D01*
X131666666Y-72952380D02*
X132285714Y-72952380D01*
X131952380Y-73333333D01*
X132095238Y-73333333D01*
X132190476Y-73380952D01*
X132238095Y-73428571D01*
X132285714Y-73523809D01*
X132285714Y-73761904D01*
X132238095Y-73857142D01*
X132190476Y-73904761D01*
X132095238Y-73952380D01*
X131809523Y-73952380D01*
X131714285Y-73904761D01*
X131666666Y-73857142D01*
X131333333Y-77357142D02*
X131285714Y-77404761D01*
X131142857Y-77452380D01*
X131047619Y-77452380D01*
X130904761Y-77404761D01*
X130809523Y-77309523D01*
X130761904Y-77214285D01*
X130714285Y-77023809D01*
X130714285Y-76880952D01*
X130761904Y-76690476D01*
X130809523Y-76595238D01*
X130904761Y-76500000D01*
X131047619Y-76452380D01*
X131142857Y-76452380D01*
X131285714Y-76500000D01*
X131333333Y-76547619D01*
X131714285Y-76547619D02*
X131761904Y-76500000D01*
X131857142Y-76452380D01*
X132095238Y-76452380D01*
X132190476Y-76500000D01*
X132238095Y-76547619D01*
X132285714Y-76642857D01*
X132285714Y-76738095D01*
X132238095Y-76880952D01*
X131666666Y-77452380D01*
X132285714Y-77452380D01*
X131033333Y-99057142D02*
X130985714Y-99104761D01*
X130842857Y-99152380D01*
X130747619Y-99152380D01*
X130604761Y-99104761D01*
X130509523Y-99009523D01*
X130461904Y-98914285D01*
X130414285Y-98723809D01*
X130414285Y-98580952D01*
X130461904Y-98390476D01*
X130509523Y-98295238D01*
X130604761Y-98200000D01*
X130747619Y-98152380D01*
X130842857Y-98152380D01*
X130985714Y-98200000D01*
X131033333Y-98247619D01*
X131985714Y-99152380D02*
X131414285Y-99152380D01*
X131700000Y-99152380D02*
X131700000Y-98152380D01*
X131604761Y-98295238D01*
X131509523Y-98390476D01*
X131414285Y-98438095D01*
M02*
