G04 #@! TF.GenerationSoftware,KiCad,Pcbnew,(5.1.5)-3*
G04 #@! TF.CreationDate,2020-04-16T22:58:05-04:00*
G04 #@! TF.ProjectId,SOIC-8-HighPower,534f4943-2d38-42d4-9869-6768506f7765,rev?*
G04 #@! TF.SameCoordinates,Original*
G04 #@! TF.FileFunction,Soldermask,Bot*
G04 #@! TF.FilePolarity,Negative*
%FSLAX46Y46*%
G04 Gerber Fmt 4.6, Leading zero omitted, Abs format (unit mm)*
G04 Created by KiCad (PCBNEW (5.1.5)-3) date 2020-04-16 22:58:05*
%MOMM*%
%LPD*%
G04 APERTURE LIST*
%ADD10C,0.100000*%
G04 APERTURE END LIST*
D10*
G36*
X120813512Y-64573927D02*
G01*
X120962812Y-64603624D01*
X121126784Y-64671544D01*
X121274354Y-64770147D01*
X121399853Y-64895646D01*
X121498456Y-65043216D01*
X121566376Y-65207188D01*
X121601000Y-65381259D01*
X121601000Y-65558741D01*
X121566376Y-65732812D01*
X121498456Y-65896784D01*
X121399853Y-66044354D01*
X121274354Y-66169853D01*
X121126784Y-66268456D01*
X120962812Y-66336376D01*
X120813512Y-66366073D01*
X120788742Y-66371000D01*
X120611258Y-66371000D01*
X120586488Y-66366073D01*
X120437188Y-66336376D01*
X120273216Y-66268456D01*
X120125646Y-66169853D01*
X120000147Y-66044354D01*
X119901544Y-65896784D01*
X119833624Y-65732812D01*
X119799000Y-65558741D01*
X119799000Y-65381259D01*
X119833624Y-65207188D01*
X119901544Y-65043216D01*
X120000147Y-64895646D01*
X120125646Y-64770147D01*
X120273216Y-64671544D01*
X120437188Y-64603624D01*
X120586488Y-64573927D01*
X120611258Y-64569000D01*
X120788742Y-64569000D01*
X120813512Y-64573927D01*
G37*
G36*
X133601000Y-66351000D02*
G01*
X131799000Y-66351000D01*
X131799000Y-64549000D01*
X133601000Y-64549000D01*
X133601000Y-66351000D01*
G37*
G36*
X170013512Y-64533927D02*
G01*
X170162812Y-64563624D01*
X170326784Y-64631544D01*
X170474354Y-64730147D01*
X170599853Y-64855646D01*
X170698456Y-65003216D01*
X170766376Y-65167188D01*
X170801000Y-65341259D01*
X170801000Y-65518741D01*
X170766376Y-65692812D01*
X170698456Y-65856784D01*
X170599853Y-66004354D01*
X170474354Y-66129853D01*
X170326784Y-66228456D01*
X170162812Y-66296376D01*
X170013512Y-66326073D01*
X169988742Y-66331000D01*
X169811258Y-66331000D01*
X169786488Y-66326073D01*
X169637188Y-66296376D01*
X169473216Y-66228456D01*
X169325646Y-66129853D01*
X169200147Y-66004354D01*
X169101544Y-65856784D01*
X169033624Y-65692812D01*
X168999000Y-65518741D01*
X168999000Y-65341259D01*
X169033624Y-65167188D01*
X169101544Y-65003216D01*
X169200147Y-64855646D01*
X169325646Y-64730147D01*
X169473216Y-64631544D01*
X169637188Y-64563624D01*
X169786488Y-64533927D01*
X169811258Y-64529000D01*
X169988742Y-64529000D01*
X170013512Y-64533927D01*
G37*
G36*
X145313512Y-64523927D02*
G01*
X145462812Y-64553624D01*
X145626784Y-64621544D01*
X145774354Y-64720147D01*
X145899853Y-64845646D01*
X145998456Y-64993216D01*
X146066376Y-65157188D01*
X146101000Y-65331259D01*
X146101000Y-65508741D01*
X146066376Y-65682812D01*
X145998456Y-65846784D01*
X145899853Y-65994354D01*
X145774354Y-66119853D01*
X145626784Y-66218456D01*
X145462812Y-66286376D01*
X145313512Y-66316073D01*
X145288742Y-66321000D01*
X145111258Y-66321000D01*
X145086488Y-66316073D01*
X144937188Y-66286376D01*
X144773216Y-66218456D01*
X144625646Y-66119853D01*
X144500147Y-65994354D01*
X144401544Y-65846784D01*
X144333624Y-65682812D01*
X144299000Y-65508741D01*
X144299000Y-65331259D01*
X144333624Y-65157188D01*
X144401544Y-64993216D01*
X144500147Y-64845646D01*
X144625646Y-64720147D01*
X144773216Y-64621544D01*
X144937188Y-64553624D01*
X145086488Y-64523927D01*
X145111258Y-64519000D01*
X145288742Y-64519000D01*
X145313512Y-64523927D01*
G37*
G36*
X158101000Y-66301000D02*
G01*
X156299000Y-66301000D01*
X156299000Y-64499000D01*
X158101000Y-64499000D01*
X158101000Y-66301000D01*
G37*
G36*
X186701000Y-66171000D02*
G01*
X184899000Y-66171000D01*
X184899000Y-64369000D01*
X186701000Y-64369000D01*
X186701000Y-66171000D01*
G37*
G36*
X120794508Y-62030147D02*
G01*
X120962812Y-62063624D01*
X121126784Y-62131544D01*
X121274354Y-62230147D01*
X121399853Y-62355646D01*
X121498456Y-62503216D01*
X121566376Y-62667188D01*
X121601000Y-62841259D01*
X121601000Y-63018741D01*
X121566376Y-63192812D01*
X121498456Y-63356784D01*
X121399853Y-63504354D01*
X121274354Y-63629853D01*
X121126784Y-63728456D01*
X120962812Y-63796376D01*
X120813512Y-63826073D01*
X120788742Y-63831000D01*
X120611258Y-63831000D01*
X120586488Y-63826073D01*
X120437188Y-63796376D01*
X120273216Y-63728456D01*
X120125646Y-63629853D01*
X120000147Y-63504354D01*
X119901544Y-63356784D01*
X119833624Y-63192812D01*
X119799000Y-63018741D01*
X119799000Y-62841259D01*
X119833624Y-62667188D01*
X119901544Y-62503216D01*
X120000147Y-62355646D01*
X120125646Y-62230147D01*
X120273216Y-62131544D01*
X120437188Y-62063624D01*
X120605492Y-62030147D01*
X120611258Y-62029000D01*
X120788742Y-62029000D01*
X120794508Y-62030147D01*
G37*
G36*
X132811988Y-62013624D02*
G01*
X132962812Y-62043624D01*
X133126784Y-62111544D01*
X133274354Y-62210147D01*
X133399853Y-62335646D01*
X133498456Y-62483216D01*
X133566376Y-62647188D01*
X133595033Y-62791258D01*
X133600500Y-62818742D01*
X133601000Y-62821259D01*
X133601000Y-62998741D01*
X133566376Y-63172812D01*
X133498456Y-63336784D01*
X133399853Y-63484354D01*
X133274354Y-63609853D01*
X133126784Y-63708456D01*
X132962812Y-63776376D01*
X132813512Y-63806073D01*
X132788742Y-63811000D01*
X132611258Y-63811000D01*
X132586488Y-63806073D01*
X132437188Y-63776376D01*
X132273216Y-63708456D01*
X132125646Y-63609853D01*
X132000147Y-63484354D01*
X131901544Y-63336784D01*
X131833624Y-63172812D01*
X131799000Y-62998741D01*
X131799000Y-62821259D01*
X131799501Y-62818742D01*
X131804967Y-62791258D01*
X131833624Y-62647188D01*
X131901544Y-62483216D01*
X132000147Y-62335646D01*
X132125646Y-62210147D01*
X132273216Y-62111544D01*
X132437188Y-62043624D01*
X132588012Y-62013624D01*
X132611258Y-62009000D01*
X132788742Y-62009000D01*
X132811988Y-62013624D01*
G37*
G36*
X170011988Y-61993624D02*
G01*
X170162812Y-62023624D01*
X170326784Y-62091544D01*
X170474354Y-62190147D01*
X170599853Y-62315646D01*
X170698456Y-62463216D01*
X170766376Y-62627188D01*
X170801000Y-62801259D01*
X170801000Y-62978741D01*
X170766376Y-63152812D01*
X170698456Y-63316784D01*
X170599853Y-63464354D01*
X170474354Y-63589853D01*
X170326784Y-63688456D01*
X170162812Y-63756376D01*
X170013512Y-63786073D01*
X169988742Y-63791000D01*
X169811258Y-63791000D01*
X169786488Y-63786073D01*
X169637188Y-63756376D01*
X169473216Y-63688456D01*
X169325646Y-63589853D01*
X169200147Y-63464354D01*
X169101544Y-63316784D01*
X169033624Y-63152812D01*
X168999000Y-62978741D01*
X168999000Y-62801259D01*
X169033624Y-62627188D01*
X169101544Y-62463216D01*
X169200147Y-62315646D01*
X169325646Y-62190147D01*
X169473216Y-62091544D01*
X169637188Y-62023624D01*
X169788012Y-61993624D01*
X169811258Y-61989000D01*
X169988742Y-61989000D01*
X170011988Y-61993624D01*
G37*
G36*
X145313512Y-61983927D02*
G01*
X145462812Y-62013624D01*
X145626784Y-62081544D01*
X145774354Y-62180147D01*
X145899853Y-62305646D01*
X145998456Y-62453216D01*
X146066376Y-62617188D01*
X146101000Y-62791259D01*
X146101000Y-62968741D01*
X146066376Y-63142812D01*
X145998456Y-63306784D01*
X145899853Y-63454354D01*
X145774354Y-63579853D01*
X145626784Y-63678456D01*
X145462812Y-63746376D01*
X145313512Y-63776073D01*
X145288742Y-63781000D01*
X145111258Y-63781000D01*
X145086488Y-63776073D01*
X144937188Y-63746376D01*
X144773216Y-63678456D01*
X144625646Y-63579853D01*
X144500147Y-63454354D01*
X144401544Y-63306784D01*
X144333624Y-63142812D01*
X144299000Y-62968741D01*
X144299000Y-62791259D01*
X144333624Y-62617188D01*
X144401544Y-62453216D01*
X144500147Y-62305646D01*
X144625646Y-62180147D01*
X144773216Y-62081544D01*
X144937188Y-62013624D01*
X145086488Y-61983927D01*
X145111258Y-61979000D01*
X145288742Y-61979000D01*
X145313512Y-61983927D01*
G37*
G36*
X157313512Y-61963927D02*
G01*
X157462812Y-61993624D01*
X157626784Y-62061544D01*
X157774354Y-62160147D01*
X157899853Y-62285646D01*
X157998456Y-62433216D01*
X158066376Y-62597188D01*
X158101000Y-62771259D01*
X158101000Y-62948741D01*
X158066376Y-63122812D01*
X157998456Y-63286784D01*
X157899853Y-63434354D01*
X157774354Y-63559853D01*
X157626784Y-63658456D01*
X157462812Y-63726376D01*
X157313512Y-63756073D01*
X157288742Y-63761000D01*
X157111258Y-63761000D01*
X157086488Y-63756073D01*
X156937188Y-63726376D01*
X156773216Y-63658456D01*
X156625646Y-63559853D01*
X156500147Y-63434354D01*
X156401544Y-63286784D01*
X156333624Y-63122812D01*
X156299000Y-62948741D01*
X156299000Y-62771259D01*
X156333624Y-62597188D01*
X156401544Y-62433216D01*
X156500147Y-62285646D01*
X156625646Y-62160147D01*
X156773216Y-62061544D01*
X156937188Y-61993624D01*
X157086488Y-61963927D01*
X157111258Y-61959000D01*
X157288742Y-61959000D01*
X157313512Y-61963927D01*
G37*
G36*
X185913512Y-61833927D02*
G01*
X186062812Y-61863624D01*
X186226784Y-61931544D01*
X186374354Y-62030147D01*
X186499853Y-62155646D01*
X186598456Y-62303216D01*
X186666376Y-62467188D01*
X186692234Y-62597188D01*
X186701000Y-62641258D01*
X186701000Y-62818742D01*
X186700499Y-62821259D01*
X186666376Y-62992812D01*
X186598456Y-63156784D01*
X186499853Y-63304354D01*
X186374354Y-63429853D01*
X186226784Y-63528456D01*
X186062812Y-63596376D01*
X185913512Y-63626073D01*
X185888742Y-63631000D01*
X185711258Y-63631000D01*
X185686488Y-63626073D01*
X185537188Y-63596376D01*
X185373216Y-63528456D01*
X185225646Y-63429853D01*
X185100147Y-63304354D01*
X185001544Y-63156784D01*
X184933624Y-62992812D01*
X184899501Y-62821259D01*
X184899000Y-62818742D01*
X184899000Y-62641258D01*
X184907766Y-62597188D01*
X184933624Y-62467188D01*
X185001544Y-62303216D01*
X185100147Y-62155646D01*
X185225646Y-62030147D01*
X185373216Y-61931544D01*
X185537188Y-61863624D01*
X185686488Y-61833927D01*
X185711258Y-61829000D01*
X185888742Y-61829000D01*
X185913512Y-61833927D01*
G37*
G36*
X120794508Y-59490147D02*
G01*
X120962812Y-59523624D01*
X121126784Y-59591544D01*
X121274354Y-59690147D01*
X121399853Y-59815646D01*
X121498456Y-59963216D01*
X121566376Y-60127188D01*
X121601000Y-60301259D01*
X121601000Y-60478741D01*
X121566376Y-60652812D01*
X121498456Y-60816784D01*
X121399853Y-60964354D01*
X121274354Y-61089853D01*
X121126784Y-61188456D01*
X120962812Y-61256376D01*
X120813512Y-61286073D01*
X120788742Y-61291000D01*
X120611258Y-61291000D01*
X120586488Y-61286073D01*
X120437188Y-61256376D01*
X120273216Y-61188456D01*
X120125646Y-61089853D01*
X120000147Y-60964354D01*
X119901544Y-60816784D01*
X119833624Y-60652812D01*
X119799000Y-60478741D01*
X119799000Y-60301259D01*
X119833624Y-60127188D01*
X119901544Y-59963216D01*
X120000147Y-59815646D01*
X120125646Y-59690147D01*
X120273216Y-59591544D01*
X120437188Y-59523624D01*
X120605492Y-59490147D01*
X120611258Y-59489000D01*
X120788742Y-59489000D01*
X120794508Y-59490147D01*
G37*
G36*
X132811988Y-59473624D02*
G01*
X132962812Y-59503624D01*
X133126784Y-59571544D01*
X133274354Y-59670147D01*
X133399853Y-59795646D01*
X133498456Y-59943216D01*
X133566376Y-60107188D01*
X133595033Y-60251258D01*
X133600500Y-60278742D01*
X133601000Y-60281259D01*
X133601000Y-60458741D01*
X133566376Y-60632812D01*
X133498456Y-60796784D01*
X133399853Y-60944354D01*
X133274354Y-61069853D01*
X133126784Y-61168456D01*
X132962812Y-61236376D01*
X132813512Y-61266073D01*
X132788742Y-61271000D01*
X132611258Y-61271000D01*
X132586488Y-61266073D01*
X132437188Y-61236376D01*
X132273216Y-61168456D01*
X132125646Y-61069853D01*
X132000147Y-60944354D01*
X131901544Y-60796784D01*
X131833624Y-60632812D01*
X131799000Y-60458741D01*
X131799000Y-60281259D01*
X131799501Y-60278742D01*
X131804967Y-60251258D01*
X131833624Y-60107188D01*
X131901544Y-59943216D01*
X132000147Y-59795646D01*
X132125646Y-59670147D01*
X132273216Y-59571544D01*
X132437188Y-59503624D01*
X132588012Y-59473624D01*
X132611258Y-59469000D01*
X132788742Y-59469000D01*
X132811988Y-59473624D01*
G37*
G36*
X170011988Y-59453624D02*
G01*
X170162812Y-59483624D01*
X170326784Y-59551544D01*
X170474354Y-59650147D01*
X170599853Y-59775646D01*
X170698456Y-59923216D01*
X170766376Y-60087188D01*
X170801000Y-60261259D01*
X170801000Y-60438741D01*
X170766376Y-60612812D01*
X170698456Y-60776784D01*
X170599853Y-60924354D01*
X170474354Y-61049853D01*
X170326784Y-61148456D01*
X170162812Y-61216376D01*
X170013512Y-61246073D01*
X169988742Y-61251000D01*
X169811258Y-61251000D01*
X169786488Y-61246073D01*
X169637188Y-61216376D01*
X169473216Y-61148456D01*
X169325646Y-61049853D01*
X169200147Y-60924354D01*
X169101544Y-60776784D01*
X169033624Y-60612812D01*
X168999000Y-60438741D01*
X168999000Y-60261259D01*
X169033624Y-60087188D01*
X169101544Y-59923216D01*
X169200147Y-59775646D01*
X169325646Y-59650147D01*
X169473216Y-59551544D01*
X169637188Y-59483624D01*
X169788012Y-59453624D01*
X169811258Y-59449000D01*
X169988742Y-59449000D01*
X170011988Y-59453624D01*
G37*
G36*
X145313512Y-59443927D02*
G01*
X145462812Y-59473624D01*
X145626784Y-59541544D01*
X145774354Y-59640147D01*
X145899853Y-59765646D01*
X145998456Y-59913216D01*
X146066376Y-60077188D01*
X146101000Y-60251259D01*
X146101000Y-60428741D01*
X146066376Y-60602812D01*
X145998456Y-60766784D01*
X145899853Y-60914354D01*
X145774354Y-61039853D01*
X145626784Y-61138456D01*
X145462812Y-61206376D01*
X145313512Y-61236073D01*
X145288742Y-61241000D01*
X145111258Y-61241000D01*
X145086488Y-61236073D01*
X144937188Y-61206376D01*
X144773216Y-61138456D01*
X144625646Y-61039853D01*
X144500147Y-60914354D01*
X144401544Y-60766784D01*
X144333624Y-60602812D01*
X144299000Y-60428741D01*
X144299000Y-60251259D01*
X144333624Y-60077188D01*
X144401544Y-59913216D01*
X144500147Y-59765646D01*
X144625646Y-59640147D01*
X144773216Y-59541544D01*
X144937188Y-59473624D01*
X145086488Y-59443927D01*
X145111258Y-59439000D01*
X145288742Y-59439000D01*
X145313512Y-59443927D01*
G37*
G36*
X157313512Y-59423927D02*
G01*
X157462812Y-59453624D01*
X157626784Y-59521544D01*
X157774354Y-59620147D01*
X157899853Y-59745646D01*
X157998456Y-59893216D01*
X158066376Y-60057188D01*
X158101000Y-60231259D01*
X158101000Y-60408741D01*
X158066376Y-60582812D01*
X157998456Y-60746784D01*
X157899853Y-60894354D01*
X157774354Y-61019853D01*
X157626784Y-61118456D01*
X157462812Y-61186376D01*
X157313512Y-61216073D01*
X157288742Y-61221000D01*
X157111258Y-61221000D01*
X157086488Y-61216073D01*
X156937188Y-61186376D01*
X156773216Y-61118456D01*
X156625646Y-61019853D01*
X156500147Y-60894354D01*
X156401544Y-60746784D01*
X156333624Y-60582812D01*
X156299000Y-60408741D01*
X156299000Y-60231259D01*
X156333624Y-60057188D01*
X156401544Y-59893216D01*
X156500147Y-59745646D01*
X156625646Y-59620147D01*
X156773216Y-59521544D01*
X156937188Y-59453624D01*
X157086488Y-59423927D01*
X157111258Y-59419000D01*
X157288742Y-59419000D01*
X157313512Y-59423927D01*
G37*
G36*
X185913512Y-59293927D02*
G01*
X186062812Y-59323624D01*
X186226784Y-59391544D01*
X186374354Y-59490147D01*
X186499853Y-59615646D01*
X186598456Y-59763216D01*
X186666376Y-59927188D01*
X186692234Y-60057188D01*
X186701000Y-60101258D01*
X186701000Y-60278742D01*
X186700499Y-60281259D01*
X186666376Y-60452812D01*
X186598456Y-60616784D01*
X186499853Y-60764354D01*
X186374354Y-60889853D01*
X186226784Y-60988456D01*
X186062812Y-61056376D01*
X185913512Y-61086073D01*
X185888742Y-61091000D01*
X185711258Y-61091000D01*
X185686488Y-61086073D01*
X185537188Y-61056376D01*
X185373216Y-60988456D01*
X185225646Y-60889853D01*
X185100147Y-60764354D01*
X185001544Y-60616784D01*
X184933624Y-60452812D01*
X184899501Y-60281259D01*
X184899000Y-60278742D01*
X184899000Y-60101258D01*
X184907766Y-60057188D01*
X184933624Y-59927188D01*
X185001544Y-59763216D01*
X185100147Y-59615646D01*
X185225646Y-59490147D01*
X185373216Y-59391544D01*
X185537188Y-59323624D01*
X185686488Y-59293927D01*
X185711258Y-59289000D01*
X185888742Y-59289000D01*
X185913512Y-59293927D01*
G37*
G36*
X121601000Y-58751000D02*
G01*
X119799000Y-58751000D01*
X119799000Y-56949000D01*
X121601000Y-56949000D01*
X121601000Y-58751000D01*
G37*
G36*
X132813512Y-56933927D02*
G01*
X132962812Y-56963624D01*
X133126784Y-57031544D01*
X133274354Y-57130147D01*
X133399853Y-57255646D01*
X133498456Y-57403216D01*
X133566376Y-57567188D01*
X133596073Y-57716488D01*
X133600500Y-57738742D01*
X133601000Y-57741259D01*
X133601000Y-57918741D01*
X133566376Y-58092812D01*
X133498456Y-58256784D01*
X133399853Y-58404354D01*
X133274354Y-58529853D01*
X133126784Y-58628456D01*
X132962812Y-58696376D01*
X132813512Y-58726073D01*
X132788742Y-58731000D01*
X132611258Y-58731000D01*
X132586488Y-58726073D01*
X132437188Y-58696376D01*
X132273216Y-58628456D01*
X132125646Y-58529853D01*
X132000147Y-58404354D01*
X131901544Y-58256784D01*
X131833624Y-58092812D01*
X131799000Y-57918741D01*
X131799000Y-57741259D01*
X131799501Y-57738742D01*
X131803927Y-57716488D01*
X131833624Y-57567188D01*
X131901544Y-57403216D01*
X132000147Y-57255646D01*
X132125646Y-57130147D01*
X132273216Y-57031544D01*
X132437188Y-56963624D01*
X132586488Y-56933927D01*
X132611258Y-56929000D01*
X132788742Y-56929000D01*
X132813512Y-56933927D01*
G37*
G36*
X170801000Y-58711000D02*
G01*
X168999000Y-58711000D01*
X168999000Y-56909000D01*
X170801000Y-56909000D01*
X170801000Y-58711000D01*
G37*
G36*
X146101000Y-58701000D02*
G01*
X144299000Y-58701000D01*
X144299000Y-56899000D01*
X146101000Y-56899000D01*
X146101000Y-58701000D01*
G37*
G36*
X157313512Y-56883927D02*
G01*
X157462812Y-56913624D01*
X157626784Y-56981544D01*
X157774354Y-57080147D01*
X157899853Y-57205646D01*
X157998456Y-57353216D01*
X158066376Y-57517188D01*
X158101000Y-57691259D01*
X158101000Y-57868741D01*
X158066376Y-58042812D01*
X157998456Y-58206784D01*
X157899853Y-58354354D01*
X157774354Y-58479853D01*
X157626784Y-58578456D01*
X157462812Y-58646376D01*
X157313512Y-58676073D01*
X157288742Y-58681000D01*
X157111258Y-58681000D01*
X157086488Y-58676073D01*
X156937188Y-58646376D01*
X156773216Y-58578456D01*
X156625646Y-58479853D01*
X156500147Y-58354354D01*
X156401544Y-58206784D01*
X156333624Y-58042812D01*
X156299000Y-57868741D01*
X156299000Y-57691259D01*
X156333624Y-57517188D01*
X156401544Y-57353216D01*
X156500147Y-57205646D01*
X156625646Y-57080147D01*
X156773216Y-56981544D01*
X156937188Y-56913624D01*
X157086488Y-56883927D01*
X157111258Y-56879000D01*
X157288742Y-56879000D01*
X157313512Y-56883927D01*
G37*
G36*
X185913512Y-56753927D02*
G01*
X186062812Y-56783624D01*
X186226784Y-56851544D01*
X186374354Y-56950147D01*
X186499853Y-57075646D01*
X186598456Y-57223216D01*
X186666376Y-57387188D01*
X186692234Y-57517188D01*
X186701000Y-57561258D01*
X186701000Y-57738742D01*
X186700499Y-57741259D01*
X186666376Y-57912812D01*
X186598456Y-58076784D01*
X186499853Y-58224354D01*
X186374354Y-58349853D01*
X186226784Y-58448456D01*
X186062812Y-58516376D01*
X185913512Y-58546073D01*
X185888742Y-58551000D01*
X185711258Y-58551000D01*
X185686488Y-58546073D01*
X185537188Y-58516376D01*
X185373216Y-58448456D01*
X185225646Y-58349853D01*
X185100147Y-58224354D01*
X185001544Y-58076784D01*
X184933624Y-57912812D01*
X184899501Y-57741259D01*
X184899000Y-57738742D01*
X184899000Y-57561258D01*
X184907766Y-57517188D01*
X184933624Y-57387188D01*
X185001544Y-57223216D01*
X185100147Y-57075646D01*
X185225646Y-56950147D01*
X185373216Y-56851544D01*
X185537188Y-56783624D01*
X185686488Y-56753927D01*
X185711258Y-56749000D01*
X185888742Y-56749000D01*
X185913512Y-56753927D01*
G37*
M02*
