G04 #@! TF.GenerationSoftware,KiCad,Pcbnew,(5.1.5)-3*
G04 #@! TF.CreationDate,2020-04-16T22:58:05-04:00*
G04 #@! TF.ProjectId,SOIC-8-HighPower,534f4943-2d38-42d4-9869-6768506f7765,rev?*
G04 #@! TF.SameCoordinates,Original*
G04 #@! TF.FileFunction,Soldermask,Top*
G04 #@! TF.FilePolarity,Negative*
%FSLAX46Y46*%
G04 Gerber Fmt 4.6, Leading zero omitted, Abs format (unit mm)*
G04 Created by KiCad (PCBNEW (5.1.5)-3) date 2020-04-16 22:58:05*
%MOMM*%
%LPD*%
G04 APERTURE LIST*
%ADD10C,0.100000*%
G04 APERTURE END LIST*
D10*
G36*
X120813512Y-64573927D02*
G01*
X120962812Y-64603624D01*
X121126784Y-64671544D01*
X121274354Y-64770147D01*
X121399853Y-64895646D01*
X121498456Y-65043216D01*
X121566376Y-65207188D01*
X121601000Y-65381259D01*
X121601000Y-65558741D01*
X121566376Y-65732812D01*
X121498456Y-65896784D01*
X121399853Y-66044354D01*
X121274354Y-66169853D01*
X121126784Y-66268456D01*
X120962812Y-66336376D01*
X120813512Y-66366073D01*
X120788742Y-66371000D01*
X120611258Y-66371000D01*
X120586488Y-66366073D01*
X120437188Y-66336376D01*
X120273216Y-66268456D01*
X120125646Y-66169853D01*
X120000147Y-66044354D01*
X119901544Y-65896784D01*
X119833624Y-65732812D01*
X119799000Y-65558741D01*
X119799000Y-65381259D01*
X119833624Y-65207188D01*
X119901544Y-65043216D01*
X120000147Y-64895646D01*
X120125646Y-64770147D01*
X120273216Y-64671544D01*
X120437188Y-64603624D01*
X120586488Y-64573927D01*
X120611258Y-64569000D01*
X120788742Y-64569000D01*
X120813512Y-64573927D01*
G37*
G36*
X133601000Y-66351000D02*
G01*
X131799000Y-66351000D01*
X131799000Y-64549000D01*
X133601000Y-64549000D01*
X133601000Y-66351000D01*
G37*
G36*
X170013512Y-64533927D02*
G01*
X170162812Y-64563624D01*
X170326784Y-64631544D01*
X170474354Y-64730147D01*
X170599853Y-64855646D01*
X170698456Y-65003216D01*
X170766376Y-65167188D01*
X170801000Y-65341259D01*
X170801000Y-65518741D01*
X170766376Y-65692812D01*
X170698456Y-65856784D01*
X170599853Y-66004354D01*
X170474354Y-66129853D01*
X170326784Y-66228456D01*
X170162812Y-66296376D01*
X170013512Y-66326073D01*
X169988742Y-66331000D01*
X169811258Y-66331000D01*
X169786488Y-66326073D01*
X169637188Y-66296376D01*
X169473216Y-66228456D01*
X169325646Y-66129853D01*
X169200147Y-66004354D01*
X169101544Y-65856784D01*
X169033624Y-65692812D01*
X168999000Y-65518741D01*
X168999000Y-65341259D01*
X169033624Y-65167188D01*
X169101544Y-65003216D01*
X169200147Y-64855646D01*
X169325646Y-64730147D01*
X169473216Y-64631544D01*
X169637188Y-64563624D01*
X169786488Y-64533927D01*
X169811258Y-64529000D01*
X169988742Y-64529000D01*
X170013512Y-64533927D01*
G37*
G36*
X145313512Y-64523927D02*
G01*
X145462812Y-64553624D01*
X145626784Y-64621544D01*
X145774354Y-64720147D01*
X145899853Y-64845646D01*
X145998456Y-64993216D01*
X146066376Y-65157188D01*
X146101000Y-65331259D01*
X146101000Y-65508741D01*
X146066376Y-65682812D01*
X145998456Y-65846784D01*
X145899853Y-65994354D01*
X145774354Y-66119853D01*
X145626784Y-66218456D01*
X145462812Y-66286376D01*
X145313512Y-66316073D01*
X145288742Y-66321000D01*
X145111258Y-66321000D01*
X145086488Y-66316073D01*
X144937188Y-66286376D01*
X144773216Y-66218456D01*
X144625646Y-66119853D01*
X144500147Y-65994354D01*
X144401544Y-65846784D01*
X144333624Y-65682812D01*
X144299000Y-65508741D01*
X144299000Y-65331259D01*
X144333624Y-65157188D01*
X144401544Y-64993216D01*
X144500147Y-64845646D01*
X144625646Y-64720147D01*
X144773216Y-64621544D01*
X144937188Y-64553624D01*
X145086488Y-64523927D01*
X145111258Y-64519000D01*
X145288742Y-64519000D01*
X145313512Y-64523927D01*
G37*
G36*
X158101000Y-66301000D02*
G01*
X156299000Y-66301000D01*
X156299000Y-64499000D01*
X158101000Y-64499000D01*
X158101000Y-66301000D01*
G37*
G36*
X186701000Y-66171000D02*
G01*
X184899000Y-66171000D01*
X184899000Y-64369000D01*
X186701000Y-64369000D01*
X186701000Y-66171000D01*
G37*
G36*
X120794508Y-62030147D02*
G01*
X120962812Y-62063624D01*
X121126784Y-62131544D01*
X121274354Y-62230147D01*
X121399853Y-62355646D01*
X121498456Y-62503216D01*
X121566376Y-62667188D01*
X121601000Y-62841259D01*
X121601000Y-63018741D01*
X121566376Y-63192812D01*
X121498456Y-63356784D01*
X121399853Y-63504354D01*
X121274354Y-63629853D01*
X121126784Y-63728456D01*
X120962812Y-63796376D01*
X120813512Y-63826073D01*
X120788742Y-63831000D01*
X120611258Y-63831000D01*
X120586488Y-63826073D01*
X120437188Y-63796376D01*
X120273216Y-63728456D01*
X120125646Y-63629853D01*
X120000147Y-63504354D01*
X119901544Y-63356784D01*
X119833624Y-63192812D01*
X119799000Y-63018741D01*
X119799000Y-62841259D01*
X119833624Y-62667188D01*
X119901544Y-62503216D01*
X120000147Y-62355646D01*
X120125646Y-62230147D01*
X120273216Y-62131544D01*
X120437188Y-62063624D01*
X120605492Y-62030147D01*
X120611258Y-62029000D01*
X120788742Y-62029000D01*
X120794508Y-62030147D01*
G37*
G36*
X132811988Y-62013624D02*
G01*
X132962812Y-62043624D01*
X133126784Y-62111544D01*
X133274354Y-62210147D01*
X133399853Y-62335646D01*
X133498456Y-62483216D01*
X133566376Y-62647188D01*
X133593190Y-62781997D01*
X133600500Y-62818742D01*
X133601000Y-62821259D01*
X133601000Y-62998741D01*
X133566376Y-63172812D01*
X133498456Y-63336784D01*
X133399853Y-63484354D01*
X133274354Y-63609853D01*
X133126784Y-63708456D01*
X132962812Y-63776376D01*
X132813512Y-63806073D01*
X132788742Y-63811000D01*
X132611258Y-63811000D01*
X132586488Y-63806073D01*
X132437188Y-63776376D01*
X132273216Y-63708456D01*
X132125646Y-63609853D01*
X132000147Y-63484354D01*
X131901544Y-63336784D01*
X131833624Y-63172812D01*
X131799000Y-62998741D01*
X131799000Y-62821259D01*
X131799501Y-62818742D01*
X131806810Y-62781997D01*
X131833624Y-62647188D01*
X131901544Y-62483216D01*
X132000147Y-62335646D01*
X132125646Y-62210147D01*
X132273216Y-62111544D01*
X132437188Y-62043624D01*
X132588012Y-62013624D01*
X132611258Y-62009000D01*
X132788742Y-62009000D01*
X132811988Y-62013624D01*
G37*
G36*
X170011988Y-61993624D02*
G01*
X170162812Y-62023624D01*
X170326784Y-62091544D01*
X170474354Y-62190147D01*
X170599853Y-62315646D01*
X170698456Y-62463216D01*
X170766376Y-62627188D01*
X170788532Y-62738577D01*
X170799770Y-62795072D01*
X170801000Y-62801259D01*
X170801000Y-62978741D01*
X170766376Y-63152812D01*
X170698456Y-63316784D01*
X170599853Y-63464354D01*
X170474354Y-63589853D01*
X170326784Y-63688456D01*
X170162812Y-63756376D01*
X170013512Y-63786073D01*
X169988742Y-63791000D01*
X169811258Y-63791000D01*
X169786488Y-63786073D01*
X169637188Y-63756376D01*
X169473216Y-63688456D01*
X169325646Y-63589853D01*
X169200147Y-63464354D01*
X169101544Y-63316784D01*
X169033624Y-63152812D01*
X168999000Y-62978741D01*
X168999000Y-62801259D01*
X169000231Y-62795072D01*
X169011468Y-62738577D01*
X169033624Y-62627188D01*
X169101544Y-62463216D01*
X169200147Y-62315646D01*
X169325646Y-62190147D01*
X169473216Y-62091544D01*
X169637188Y-62023624D01*
X169788012Y-61993624D01*
X169811258Y-61989000D01*
X169988742Y-61989000D01*
X170011988Y-61993624D01*
G37*
G36*
X145303019Y-61981840D02*
G01*
X145462812Y-62013624D01*
X145626784Y-62081544D01*
X145774354Y-62180147D01*
X145899853Y-62305646D01*
X145998456Y-62453216D01*
X146066376Y-62617188D01*
X146101000Y-62791259D01*
X146101000Y-62968741D01*
X146066376Y-63142812D01*
X145998456Y-63306784D01*
X145899853Y-63454354D01*
X145774354Y-63579853D01*
X145626784Y-63678456D01*
X145462812Y-63746376D01*
X145313512Y-63776073D01*
X145288742Y-63781000D01*
X145111258Y-63781000D01*
X145086488Y-63776073D01*
X144937188Y-63746376D01*
X144773216Y-63678456D01*
X144625646Y-63579853D01*
X144500147Y-63454354D01*
X144401544Y-63306784D01*
X144333624Y-63142812D01*
X144299000Y-62968741D01*
X144299000Y-62791259D01*
X144333624Y-62617188D01*
X144401544Y-62453216D01*
X144500147Y-62305646D01*
X144625646Y-62180147D01*
X144773216Y-62081544D01*
X144937188Y-62013624D01*
X145096981Y-61981840D01*
X145111258Y-61979000D01*
X145288742Y-61979000D01*
X145303019Y-61981840D01*
G37*
G36*
X157300923Y-61961423D02*
G01*
X157462812Y-61993624D01*
X157626784Y-62061544D01*
X157774354Y-62160147D01*
X157899853Y-62285646D01*
X157998456Y-62433216D01*
X158066376Y-62597188D01*
X158090279Y-62717359D01*
X158097678Y-62754555D01*
X158101000Y-62771259D01*
X158101000Y-62948741D01*
X158066376Y-63122812D01*
X157998456Y-63286784D01*
X157899853Y-63434354D01*
X157774354Y-63559853D01*
X157626784Y-63658456D01*
X157462812Y-63726376D01*
X157313512Y-63756073D01*
X157288742Y-63761000D01*
X157111258Y-63761000D01*
X157086488Y-63756073D01*
X156937188Y-63726376D01*
X156773216Y-63658456D01*
X156625646Y-63559853D01*
X156500147Y-63434354D01*
X156401544Y-63286784D01*
X156333624Y-63122812D01*
X156299000Y-62948741D01*
X156299000Y-62771259D01*
X156302323Y-62754555D01*
X156309721Y-62717359D01*
X156333624Y-62597188D01*
X156401544Y-62433216D01*
X156500147Y-62285646D01*
X156625646Y-62160147D01*
X156773216Y-62061544D01*
X156937188Y-61993624D01*
X157099077Y-61961423D01*
X157111258Y-61959000D01*
X157288742Y-61959000D01*
X157300923Y-61961423D01*
G37*
G36*
X185913512Y-61833927D02*
G01*
X186062812Y-61863624D01*
X186226784Y-61931544D01*
X186374354Y-62030147D01*
X186499853Y-62155646D01*
X186598456Y-62303216D01*
X186666376Y-62467188D01*
X186696073Y-62616488D01*
X186701000Y-62641258D01*
X186701000Y-62818742D01*
X186696521Y-62841258D01*
X186666376Y-62992812D01*
X186598456Y-63156784D01*
X186499853Y-63304354D01*
X186374354Y-63429853D01*
X186226784Y-63528456D01*
X186062812Y-63596376D01*
X185913512Y-63626073D01*
X185888742Y-63631000D01*
X185711258Y-63631000D01*
X185686488Y-63626073D01*
X185537188Y-63596376D01*
X185373216Y-63528456D01*
X185225646Y-63429853D01*
X185100147Y-63304354D01*
X185001544Y-63156784D01*
X184933624Y-62992812D01*
X184903479Y-62841258D01*
X184899000Y-62818742D01*
X184899000Y-62641258D01*
X184903927Y-62616488D01*
X184933624Y-62467188D01*
X185001544Y-62303216D01*
X185100147Y-62155646D01*
X185225646Y-62030147D01*
X185373216Y-61931544D01*
X185537188Y-61863624D01*
X185686488Y-61833927D01*
X185711258Y-61829000D01*
X185888742Y-61829000D01*
X185913512Y-61833927D01*
G37*
G36*
X154784928Y-62711764D02*
G01*
X154806009Y-62718160D01*
X154825445Y-62728548D01*
X154842476Y-62742524D01*
X154856452Y-62759555D01*
X154866840Y-62778991D01*
X154873236Y-62800072D01*
X154876000Y-62828140D01*
X154876000Y-63291860D01*
X154873236Y-63319928D01*
X154866840Y-63341009D01*
X154856452Y-63360445D01*
X154842476Y-63377476D01*
X154825445Y-63391452D01*
X154806009Y-63401840D01*
X154784928Y-63408236D01*
X154756860Y-63411000D01*
X152943140Y-63411000D01*
X152915072Y-63408236D01*
X152893991Y-63401840D01*
X152874555Y-63391452D01*
X152857524Y-63377476D01*
X152843548Y-63360445D01*
X152833160Y-63341009D01*
X152826764Y-63319928D01*
X152824000Y-63291860D01*
X152824000Y-62828140D01*
X152826764Y-62800072D01*
X152833160Y-62778991D01*
X152843548Y-62759555D01*
X152857524Y-62742524D01*
X152874555Y-62728548D01*
X152893991Y-62718160D01*
X152915072Y-62711764D01*
X152943140Y-62709000D01*
X154756860Y-62709000D01*
X154784928Y-62711764D01*
G37*
G36*
X149834928Y-62711764D02*
G01*
X149856009Y-62718160D01*
X149875445Y-62728548D01*
X149892476Y-62742524D01*
X149906452Y-62759555D01*
X149916840Y-62778991D01*
X149923236Y-62800072D01*
X149926000Y-62828140D01*
X149926000Y-63291860D01*
X149923236Y-63319928D01*
X149916840Y-63341009D01*
X149906452Y-63360445D01*
X149892476Y-63377476D01*
X149875445Y-63391452D01*
X149856009Y-63401840D01*
X149834928Y-63408236D01*
X149806860Y-63411000D01*
X147993140Y-63411000D01*
X147965072Y-63408236D01*
X147943991Y-63401840D01*
X147924555Y-63391452D01*
X147907524Y-63377476D01*
X147893548Y-63360445D01*
X147883160Y-63341009D01*
X147876764Y-63319928D01*
X147874000Y-63291860D01*
X147874000Y-62828140D01*
X147876764Y-62800072D01*
X147883160Y-62778991D01*
X147893548Y-62759555D01*
X147907524Y-62742524D01*
X147924555Y-62728548D01*
X147943991Y-62718160D01*
X147965072Y-62711764D01*
X147993140Y-62709000D01*
X149806860Y-62709000D01*
X149834928Y-62711764D01*
G37*
G36*
X125359928Y-62706764D02*
G01*
X125381009Y-62713160D01*
X125400445Y-62723548D01*
X125417476Y-62737524D01*
X125431452Y-62754555D01*
X125441840Y-62773991D01*
X125448236Y-62795072D01*
X125451000Y-62823140D01*
X125451000Y-63286860D01*
X125448236Y-63314928D01*
X125441840Y-63336009D01*
X125431452Y-63355445D01*
X125417476Y-63372476D01*
X125400445Y-63386452D01*
X125381009Y-63396840D01*
X125359928Y-63403236D01*
X125331860Y-63406000D01*
X123518140Y-63406000D01*
X123490072Y-63403236D01*
X123468991Y-63396840D01*
X123449555Y-63386452D01*
X123432524Y-63372476D01*
X123418548Y-63355445D01*
X123408160Y-63336009D01*
X123401764Y-63314928D01*
X123399000Y-63286860D01*
X123399000Y-62823140D01*
X123401764Y-62795072D01*
X123408160Y-62773991D01*
X123418548Y-62754555D01*
X123432524Y-62737524D01*
X123449555Y-62723548D01*
X123468991Y-62713160D01*
X123490072Y-62706764D01*
X123518140Y-62704000D01*
X125331860Y-62704000D01*
X125359928Y-62706764D01*
G37*
G36*
X130309928Y-62706764D02*
G01*
X130331009Y-62713160D01*
X130350445Y-62723548D01*
X130367476Y-62737524D01*
X130381452Y-62754555D01*
X130391840Y-62773991D01*
X130398236Y-62795072D01*
X130401000Y-62823140D01*
X130401000Y-63286860D01*
X130398236Y-63314928D01*
X130391840Y-63336009D01*
X130381452Y-63355445D01*
X130367476Y-63372476D01*
X130350445Y-63386452D01*
X130331009Y-63396840D01*
X130309928Y-63403236D01*
X130281860Y-63406000D01*
X128468140Y-63406000D01*
X128440072Y-63403236D01*
X128418991Y-63396840D01*
X128399555Y-63386452D01*
X128382524Y-63372476D01*
X128368548Y-63355445D01*
X128358160Y-63336009D01*
X128351764Y-63314928D01*
X128349000Y-63286860D01*
X128349000Y-62823140D01*
X128351764Y-62795072D01*
X128358160Y-62773991D01*
X128368548Y-62754555D01*
X128382524Y-62737524D01*
X128399555Y-62723548D01*
X128418991Y-62713160D01*
X128440072Y-62706764D01*
X128468140Y-62704000D01*
X130281860Y-62704000D01*
X130309928Y-62706764D01*
G37*
G36*
X176284928Y-62561764D02*
G01*
X176306009Y-62568160D01*
X176325445Y-62578548D01*
X176342476Y-62592524D01*
X176356452Y-62609555D01*
X176366840Y-62628991D01*
X176373236Y-62650072D01*
X176376000Y-62678140D01*
X176376000Y-63141860D01*
X176373236Y-63169928D01*
X176366840Y-63191009D01*
X176356452Y-63210445D01*
X176342476Y-63227476D01*
X176325445Y-63241452D01*
X176306009Y-63251840D01*
X176284928Y-63258236D01*
X176256860Y-63261000D01*
X174443140Y-63261000D01*
X174415072Y-63258236D01*
X174393991Y-63251840D01*
X174374555Y-63241452D01*
X174357524Y-63227476D01*
X174343548Y-63210445D01*
X174333160Y-63191009D01*
X174326764Y-63169928D01*
X174324000Y-63141860D01*
X174324000Y-62678140D01*
X174326764Y-62650072D01*
X174333160Y-62628991D01*
X174343548Y-62609555D01*
X174357524Y-62592524D01*
X174374555Y-62578548D01*
X174393991Y-62568160D01*
X174415072Y-62561764D01*
X174443140Y-62559000D01*
X176256860Y-62559000D01*
X176284928Y-62561764D01*
G37*
G36*
X181234928Y-62561764D02*
G01*
X181256009Y-62568160D01*
X181275445Y-62578548D01*
X181292476Y-62592524D01*
X181306452Y-62609555D01*
X181316840Y-62628991D01*
X181323236Y-62650072D01*
X181326000Y-62678140D01*
X181326000Y-63141860D01*
X181323236Y-63169928D01*
X181316840Y-63191009D01*
X181306452Y-63210445D01*
X181292476Y-63227476D01*
X181275445Y-63241452D01*
X181256009Y-63251840D01*
X181234928Y-63258236D01*
X181206860Y-63261000D01*
X179393140Y-63261000D01*
X179365072Y-63258236D01*
X179343991Y-63251840D01*
X179324555Y-63241452D01*
X179307524Y-63227476D01*
X179293548Y-63210445D01*
X179283160Y-63191009D01*
X179276764Y-63169928D01*
X179274000Y-63141860D01*
X179274000Y-62678140D01*
X179276764Y-62650072D01*
X179283160Y-62628991D01*
X179293548Y-62609555D01*
X179307524Y-62592524D01*
X179324555Y-62578548D01*
X179343991Y-62568160D01*
X179365072Y-62561764D01*
X179393140Y-62559000D01*
X181206860Y-62559000D01*
X181234928Y-62561764D01*
G37*
G36*
X149834928Y-61441764D02*
G01*
X149856009Y-61448160D01*
X149875445Y-61458548D01*
X149892476Y-61472524D01*
X149906452Y-61489555D01*
X149916840Y-61508991D01*
X149923236Y-61530072D01*
X149926000Y-61558140D01*
X149926000Y-62021860D01*
X149923236Y-62049928D01*
X149916840Y-62071009D01*
X149906452Y-62090445D01*
X149892476Y-62107476D01*
X149875445Y-62121452D01*
X149856009Y-62131840D01*
X149834928Y-62138236D01*
X149806860Y-62141000D01*
X147993140Y-62141000D01*
X147965072Y-62138236D01*
X147943991Y-62131840D01*
X147924555Y-62121452D01*
X147907524Y-62107476D01*
X147893548Y-62090445D01*
X147883160Y-62071009D01*
X147876764Y-62049928D01*
X147874000Y-62021860D01*
X147874000Y-61558140D01*
X147876764Y-61530072D01*
X147883160Y-61508991D01*
X147893548Y-61489555D01*
X147907524Y-61472524D01*
X147924555Y-61458548D01*
X147943991Y-61448160D01*
X147965072Y-61441764D01*
X147993140Y-61439000D01*
X149806860Y-61439000D01*
X149834928Y-61441764D01*
G37*
G36*
X154784928Y-61441764D02*
G01*
X154806009Y-61448160D01*
X154825445Y-61458548D01*
X154842476Y-61472524D01*
X154856452Y-61489555D01*
X154866840Y-61508991D01*
X154873236Y-61530072D01*
X154876000Y-61558140D01*
X154876000Y-62021860D01*
X154873236Y-62049928D01*
X154866840Y-62071009D01*
X154856452Y-62090445D01*
X154842476Y-62107476D01*
X154825445Y-62121452D01*
X154806009Y-62131840D01*
X154784928Y-62138236D01*
X154756860Y-62141000D01*
X152943140Y-62141000D01*
X152915072Y-62138236D01*
X152893991Y-62131840D01*
X152874555Y-62121452D01*
X152857524Y-62107476D01*
X152843548Y-62090445D01*
X152833160Y-62071009D01*
X152826764Y-62049928D01*
X152824000Y-62021860D01*
X152824000Y-61558140D01*
X152826764Y-61530072D01*
X152833160Y-61508991D01*
X152843548Y-61489555D01*
X152857524Y-61472524D01*
X152874555Y-61458548D01*
X152893991Y-61448160D01*
X152915072Y-61441764D01*
X152943140Y-61439000D01*
X154756860Y-61439000D01*
X154784928Y-61441764D01*
G37*
G36*
X125359928Y-61436764D02*
G01*
X125381009Y-61443160D01*
X125400445Y-61453548D01*
X125417476Y-61467524D01*
X125431452Y-61484555D01*
X125441840Y-61503991D01*
X125448236Y-61525072D01*
X125451000Y-61553140D01*
X125451000Y-62016860D01*
X125448236Y-62044928D01*
X125441840Y-62066009D01*
X125431452Y-62085445D01*
X125417476Y-62102476D01*
X125400445Y-62116452D01*
X125381009Y-62126840D01*
X125359928Y-62133236D01*
X125331860Y-62136000D01*
X123518140Y-62136000D01*
X123490072Y-62133236D01*
X123468991Y-62126840D01*
X123449555Y-62116452D01*
X123432524Y-62102476D01*
X123418548Y-62085445D01*
X123408160Y-62066009D01*
X123401764Y-62044928D01*
X123399000Y-62016860D01*
X123399000Y-61553140D01*
X123401764Y-61525072D01*
X123408160Y-61503991D01*
X123418548Y-61484555D01*
X123432524Y-61467524D01*
X123449555Y-61453548D01*
X123468991Y-61443160D01*
X123490072Y-61436764D01*
X123518140Y-61434000D01*
X125331860Y-61434000D01*
X125359928Y-61436764D01*
G37*
G36*
X130309928Y-61436764D02*
G01*
X130331009Y-61443160D01*
X130350445Y-61453548D01*
X130367476Y-61467524D01*
X130381452Y-61484555D01*
X130391840Y-61503991D01*
X130398236Y-61525072D01*
X130401000Y-61553140D01*
X130401000Y-62016860D01*
X130398236Y-62044928D01*
X130391840Y-62066009D01*
X130381452Y-62085445D01*
X130367476Y-62102476D01*
X130350445Y-62116452D01*
X130331009Y-62126840D01*
X130309928Y-62133236D01*
X130281860Y-62136000D01*
X128468140Y-62136000D01*
X128440072Y-62133236D01*
X128418991Y-62126840D01*
X128399555Y-62116452D01*
X128382524Y-62102476D01*
X128368548Y-62085445D01*
X128358160Y-62066009D01*
X128351764Y-62044928D01*
X128349000Y-62016860D01*
X128349000Y-61553140D01*
X128351764Y-61525072D01*
X128358160Y-61503991D01*
X128368548Y-61484555D01*
X128382524Y-61467524D01*
X128399555Y-61453548D01*
X128418991Y-61443160D01*
X128440072Y-61436764D01*
X128468140Y-61434000D01*
X130281860Y-61434000D01*
X130309928Y-61436764D01*
G37*
G36*
X176284928Y-61291764D02*
G01*
X176306009Y-61298160D01*
X176325445Y-61308548D01*
X176342476Y-61322524D01*
X176356452Y-61339555D01*
X176366840Y-61358991D01*
X176373236Y-61380072D01*
X176376000Y-61408140D01*
X176376000Y-61871860D01*
X176373236Y-61899928D01*
X176366840Y-61921009D01*
X176356452Y-61940445D01*
X176342476Y-61957476D01*
X176325445Y-61971452D01*
X176306009Y-61981840D01*
X176284928Y-61988236D01*
X176256860Y-61991000D01*
X174443140Y-61991000D01*
X174415072Y-61988236D01*
X174393991Y-61981840D01*
X174374555Y-61971452D01*
X174357524Y-61957476D01*
X174343548Y-61940445D01*
X174333160Y-61921009D01*
X174326764Y-61899928D01*
X174324000Y-61871860D01*
X174324000Y-61408140D01*
X174326764Y-61380072D01*
X174333160Y-61358991D01*
X174343548Y-61339555D01*
X174357524Y-61322524D01*
X174374555Y-61308548D01*
X174393991Y-61298160D01*
X174415072Y-61291764D01*
X174443140Y-61289000D01*
X176256860Y-61289000D01*
X176284928Y-61291764D01*
G37*
G36*
X181234928Y-61291764D02*
G01*
X181256009Y-61298160D01*
X181275445Y-61308548D01*
X181292476Y-61322524D01*
X181306452Y-61339555D01*
X181316840Y-61358991D01*
X181323236Y-61380072D01*
X181326000Y-61408140D01*
X181326000Y-61871860D01*
X181323236Y-61899928D01*
X181316840Y-61921009D01*
X181306452Y-61940445D01*
X181292476Y-61957476D01*
X181275445Y-61971452D01*
X181256009Y-61981840D01*
X181234928Y-61988236D01*
X181206860Y-61991000D01*
X179393140Y-61991000D01*
X179365072Y-61988236D01*
X179343991Y-61981840D01*
X179324555Y-61971452D01*
X179307524Y-61957476D01*
X179293548Y-61940445D01*
X179283160Y-61921009D01*
X179276764Y-61899928D01*
X179274000Y-61871860D01*
X179274000Y-61408140D01*
X179276764Y-61380072D01*
X179283160Y-61358991D01*
X179293548Y-61339555D01*
X179307524Y-61322524D01*
X179324555Y-61308548D01*
X179343991Y-61298160D01*
X179365072Y-61291764D01*
X179393140Y-61289000D01*
X181206860Y-61289000D01*
X181234928Y-61291764D01*
G37*
G36*
X120794508Y-59490147D02*
G01*
X120962812Y-59523624D01*
X121126784Y-59591544D01*
X121274354Y-59690147D01*
X121399853Y-59815646D01*
X121498456Y-59963216D01*
X121566376Y-60127188D01*
X121601000Y-60301259D01*
X121601000Y-60478741D01*
X121566376Y-60652812D01*
X121498456Y-60816784D01*
X121399853Y-60964354D01*
X121274354Y-61089853D01*
X121126784Y-61188456D01*
X120962812Y-61256376D01*
X120813512Y-61286073D01*
X120788742Y-61291000D01*
X120611258Y-61291000D01*
X120586488Y-61286073D01*
X120437188Y-61256376D01*
X120273216Y-61188456D01*
X120125646Y-61089853D01*
X120000147Y-60964354D01*
X119901544Y-60816784D01*
X119833624Y-60652812D01*
X119799000Y-60478741D01*
X119799000Y-60301259D01*
X119833624Y-60127188D01*
X119901544Y-59963216D01*
X120000147Y-59815646D01*
X120125646Y-59690147D01*
X120273216Y-59591544D01*
X120437188Y-59523624D01*
X120605492Y-59490147D01*
X120611258Y-59489000D01*
X120788742Y-59489000D01*
X120794508Y-59490147D01*
G37*
G36*
X132811988Y-59473624D02*
G01*
X132962812Y-59503624D01*
X133126784Y-59571544D01*
X133274354Y-59670147D01*
X133399853Y-59795646D01*
X133498456Y-59943216D01*
X133566376Y-60107188D01*
X133593190Y-60241997D01*
X133600500Y-60278742D01*
X133601000Y-60281259D01*
X133601000Y-60458741D01*
X133566376Y-60632812D01*
X133498456Y-60796784D01*
X133399853Y-60944354D01*
X133274354Y-61069853D01*
X133126784Y-61168456D01*
X132962812Y-61236376D01*
X132813512Y-61266073D01*
X132788742Y-61271000D01*
X132611258Y-61271000D01*
X132586488Y-61266073D01*
X132437188Y-61236376D01*
X132273216Y-61168456D01*
X132125646Y-61069853D01*
X132000147Y-60944354D01*
X131901544Y-60796784D01*
X131833624Y-60632812D01*
X131799000Y-60458741D01*
X131799000Y-60281259D01*
X131799501Y-60278742D01*
X131806810Y-60241997D01*
X131833624Y-60107188D01*
X131901544Y-59943216D01*
X132000147Y-59795646D01*
X132125646Y-59670147D01*
X132273216Y-59571544D01*
X132437188Y-59503624D01*
X132588012Y-59473624D01*
X132611258Y-59469000D01*
X132788742Y-59469000D01*
X132811988Y-59473624D01*
G37*
G36*
X170011988Y-59453624D02*
G01*
X170162812Y-59483624D01*
X170326784Y-59551544D01*
X170474354Y-59650147D01*
X170599853Y-59775646D01*
X170698456Y-59923216D01*
X170766376Y-60087188D01*
X170788532Y-60198577D01*
X170799770Y-60255072D01*
X170801000Y-60261259D01*
X170801000Y-60438741D01*
X170766376Y-60612812D01*
X170698456Y-60776784D01*
X170599853Y-60924354D01*
X170474354Y-61049853D01*
X170326784Y-61148456D01*
X170162812Y-61216376D01*
X170013512Y-61246073D01*
X169988742Y-61251000D01*
X169811258Y-61251000D01*
X169786488Y-61246073D01*
X169637188Y-61216376D01*
X169473216Y-61148456D01*
X169325646Y-61049853D01*
X169200147Y-60924354D01*
X169101544Y-60776784D01*
X169033624Y-60612812D01*
X168999000Y-60438741D01*
X168999000Y-60261259D01*
X169000231Y-60255072D01*
X169011468Y-60198577D01*
X169033624Y-60087188D01*
X169101544Y-59923216D01*
X169200147Y-59775646D01*
X169325646Y-59650147D01*
X169473216Y-59551544D01*
X169637188Y-59483624D01*
X169788012Y-59453624D01*
X169811258Y-59449000D01*
X169988742Y-59449000D01*
X170011988Y-59453624D01*
G37*
G36*
X145303019Y-59441840D02*
G01*
X145462812Y-59473624D01*
X145626784Y-59541544D01*
X145774354Y-59640147D01*
X145899853Y-59765646D01*
X145998456Y-59913216D01*
X146066376Y-60077188D01*
X146101000Y-60251259D01*
X146101000Y-60428741D01*
X146066376Y-60602812D01*
X145998456Y-60766784D01*
X145899853Y-60914354D01*
X145774354Y-61039853D01*
X145626784Y-61138456D01*
X145462812Y-61206376D01*
X145313512Y-61236073D01*
X145288742Y-61241000D01*
X145111258Y-61241000D01*
X145086488Y-61236073D01*
X144937188Y-61206376D01*
X144773216Y-61138456D01*
X144625646Y-61039853D01*
X144500147Y-60914354D01*
X144401544Y-60766784D01*
X144333624Y-60602812D01*
X144299000Y-60428741D01*
X144299000Y-60251259D01*
X144333624Y-60077188D01*
X144401544Y-59913216D01*
X144500147Y-59765646D01*
X144625646Y-59640147D01*
X144773216Y-59541544D01*
X144937188Y-59473624D01*
X145096981Y-59441840D01*
X145111258Y-59439000D01*
X145288742Y-59439000D01*
X145303019Y-59441840D01*
G37*
G36*
X157300923Y-59421423D02*
G01*
X157462812Y-59453624D01*
X157626784Y-59521544D01*
X157774354Y-59620147D01*
X157899853Y-59745646D01*
X157998456Y-59893216D01*
X158066376Y-60057188D01*
X158090279Y-60177359D01*
X158097678Y-60214555D01*
X158101000Y-60231259D01*
X158101000Y-60408741D01*
X158066376Y-60582812D01*
X157998456Y-60746784D01*
X157899853Y-60894354D01*
X157774354Y-61019853D01*
X157626784Y-61118456D01*
X157462812Y-61186376D01*
X157313512Y-61216073D01*
X157288742Y-61221000D01*
X157111258Y-61221000D01*
X157086488Y-61216073D01*
X156937188Y-61186376D01*
X156773216Y-61118456D01*
X156625646Y-61019853D01*
X156500147Y-60894354D01*
X156401544Y-60746784D01*
X156333624Y-60582812D01*
X156299000Y-60408741D01*
X156299000Y-60231259D01*
X156302323Y-60214555D01*
X156309721Y-60177359D01*
X156333624Y-60057188D01*
X156401544Y-59893216D01*
X156500147Y-59745646D01*
X156625646Y-59620147D01*
X156773216Y-59521544D01*
X156937188Y-59453624D01*
X157099077Y-59421423D01*
X157111258Y-59419000D01*
X157288742Y-59419000D01*
X157300923Y-59421423D01*
G37*
G36*
X185913512Y-59293927D02*
G01*
X186062812Y-59323624D01*
X186226784Y-59391544D01*
X186374354Y-59490147D01*
X186499853Y-59615646D01*
X186598456Y-59763216D01*
X186666376Y-59927188D01*
X186696073Y-60076488D01*
X186701000Y-60101258D01*
X186701000Y-60278742D01*
X186696521Y-60301258D01*
X186666376Y-60452812D01*
X186598456Y-60616784D01*
X186499853Y-60764354D01*
X186374354Y-60889853D01*
X186226784Y-60988456D01*
X186062812Y-61056376D01*
X185913512Y-61086073D01*
X185888742Y-61091000D01*
X185711258Y-61091000D01*
X185686488Y-61086073D01*
X185537188Y-61056376D01*
X185373216Y-60988456D01*
X185225646Y-60889853D01*
X185100147Y-60764354D01*
X185001544Y-60616784D01*
X184933624Y-60452812D01*
X184903479Y-60301258D01*
X184899000Y-60278742D01*
X184899000Y-60101258D01*
X184903927Y-60076488D01*
X184933624Y-59927188D01*
X185001544Y-59763216D01*
X185100147Y-59615646D01*
X185225646Y-59490147D01*
X185373216Y-59391544D01*
X185537188Y-59323624D01*
X185686488Y-59293927D01*
X185711258Y-59289000D01*
X185888742Y-59289000D01*
X185913512Y-59293927D01*
G37*
G36*
X154784928Y-60171764D02*
G01*
X154806009Y-60178160D01*
X154825445Y-60188548D01*
X154842476Y-60202524D01*
X154856452Y-60219555D01*
X154866840Y-60238991D01*
X154873236Y-60260072D01*
X154876000Y-60288140D01*
X154876000Y-60751860D01*
X154873236Y-60779928D01*
X154866840Y-60801009D01*
X154856452Y-60820445D01*
X154842476Y-60837476D01*
X154825445Y-60851452D01*
X154806009Y-60861840D01*
X154784928Y-60868236D01*
X154756860Y-60871000D01*
X152943140Y-60871000D01*
X152915072Y-60868236D01*
X152893991Y-60861840D01*
X152874555Y-60851452D01*
X152857524Y-60837476D01*
X152843548Y-60820445D01*
X152833160Y-60801009D01*
X152826764Y-60779928D01*
X152824000Y-60751860D01*
X152824000Y-60288140D01*
X152826764Y-60260072D01*
X152833160Y-60238991D01*
X152843548Y-60219555D01*
X152857524Y-60202524D01*
X152874555Y-60188548D01*
X152893991Y-60178160D01*
X152915072Y-60171764D01*
X152943140Y-60169000D01*
X154756860Y-60169000D01*
X154784928Y-60171764D01*
G37*
G36*
X149834928Y-60171764D02*
G01*
X149856009Y-60178160D01*
X149875445Y-60188548D01*
X149892476Y-60202524D01*
X149906452Y-60219555D01*
X149916840Y-60238991D01*
X149923236Y-60260072D01*
X149926000Y-60288140D01*
X149926000Y-60751860D01*
X149923236Y-60779928D01*
X149916840Y-60801009D01*
X149906452Y-60820445D01*
X149892476Y-60837476D01*
X149875445Y-60851452D01*
X149856009Y-60861840D01*
X149834928Y-60868236D01*
X149806860Y-60871000D01*
X147993140Y-60871000D01*
X147965072Y-60868236D01*
X147943991Y-60861840D01*
X147924555Y-60851452D01*
X147907524Y-60837476D01*
X147893548Y-60820445D01*
X147883160Y-60801009D01*
X147876764Y-60779928D01*
X147874000Y-60751860D01*
X147874000Y-60288140D01*
X147876764Y-60260072D01*
X147883160Y-60238991D01*
X147893548Y-60219555D01*
X147907524Y-60202524D01*
X147924555Y-60188548D01*
X147943991Y-60178160D01*
X147965072Y-60171764D01*
X147993140Y-60169000D01*
X149806860Y-60169000D01*
X149834928Y-60171764D01*
G37*
G36*
X125359928Y-60166764D02*
G01*
X125381009Y-60173160D01*
X125400445Y-60183548D01*
X125417476Y-60197524D01*
X125431452Y-60214555D01*
X125441840Y-60233991D01*
X125448236Y-60255072D01*
X125451000Y-60283140D01*
X125451000Y-60746860D01*
X125448236Y-60774928D01*
X125441840Y-60796009D01*
X125431452Y-60815445D01*
X125417476Y-60832476D01*
X125400445Y-60846452D01*
X125381009Y-60856840D01*
X125359928Y-60863236D01*
X125331860Y-60866000D01*
X123518140Y-60866000D01*
X123490072Y-60863236D01*
X123468991Y-60856840D01*
X123449555Y-60846452D01*
X123432524Y-60832476D01*
X123418548Y-60815445D01*
X123408160Y-60796009D01*
X123401764Y-60774928D01*
X123399000Y-60746860D01*
X123399000Y-60283140D01*
X123401764Y-60255072D01*
X123408160Y-60233991D01*
X123418548Y-60214555D01*
X123432524Y-60197524D01*
X123449555Y-60183548D01*
X123468991Y-60173160D01*
X123490072Y-60166764D01*
X123518140Y-60164000D01*
X125331860Y-60164000D01*
X125359928Y-60166764D01*
G37*
G36*
X130309928Y-60166764D02*
G01*
X130331009Y-60173160D01*
X130350445Y-60183548D01*
X130367476Y-60197524D01*
X130381452Y-60214555D01*
X130391840Y-60233991D01*
X130398236Y-60255072D01*
X130401000Y-60283140D01*
X130401000Y-60746860D01*
X130398236Y-60774928D01*
X130391840Y-60796009D01*
X130381452Y-60815445D01*
X130367476Y-60832476D01*
X130350445Y-60846452D01*
X130331009Y-60856840D01*
X130309928Y-60863236D01*
X130281860Y-60866000D01*
X128468140Y-60866000D01*
X128440072Y-60863236D01*
X128418991Y-60856840D01*
X128399555Y-60846452D01*
X128382524Y-60832476D01*
X128368548Y-60815445D01*
X128358160Y-60796009D01*
X128351764Y-60774928D01*
X128349000Y-60746860D01*
X128349000Y-60283140D01*
X128351764Y-60255072D01*
X128358160Y-60233991D01*
X128368548Y-60214555D01*
X128382524Y-60197524D01*
X128399555Y-60183548D01*
X128418991Y-60173160D01*
X128440072Y-60166764D01*
X128468140Y-60164000D01*
X130281860Y-60164000D01*
X130309928Y-60166764D01*
G37*
G36*
X181234928Y-60021764D02*
G01*
X181256009Y-60028160D01*
X181275445Y-60038548D01*
X181292476Y-60052524D01*
X181306452Y-60069555D01*
X181316840Y-60088991D01*
X181323236Y-60110072D01*
X181326000Y-60138140D01*
X181326000Y-60601860D01*
X181323236Y-60629928D01*
X181316840Y-60651009D01*
X181306452Y-60670445D01*
X181292476Y-60687476D01*
X181275445Y-60701452D01*
X181256009Y-60711840D01*
X181234928Y-60718236D01*
X181206860Y-60721000D01*
X179393140Y-60721000D01*
X179365072Y-60718236D01*
X179343991Y-60711840D01*
X179324555Y-60701452D01*
X179307524Y-60687476D01*
X179293548Y-60670445D01*
X179283160Y-60651009D01*
X179276764Y-60629928D01*
X179274000Y-60601860D01*
X179274000Y-60138140D01*
X179276764Y-60110072D01*
X179283160Y-60088991D01*
X179293548Y-60069555D01*
X179307524Y-60052524D01*
X179324555Y-60038548D01*
X179343991Y-60028160D01*
X179365072Y-60021764D01*
X179393140Y-60019000D01*
X181206860Y-60019000D01*
X181234928Y-60021764D01*
G37*
G36*
X176284928Y-60021764D02*
G01*
X176306009Y-60028160D01*
X176325445Y-60038548D01*
X176342476Y-60052524D01*
X176356452Y-60069555D01*
X176366840Y-60088991D01*
X176373236Y-60110072D01*
X176376000Y-60138140D01*
X176376000Y-60601860D01*
X176373236Y-60629928D01*
X176366840Y-60651009D01*
X176356452Y-60670445D01*
X176342476Y-60687476D01*
X176325445Y-60701452D01*
X176306009Y-60711840D01*
X176284928Y-60718236D01*
X176256860Y-60721000D01*
X174443140Y-60721000D01*
X174415072Y-60718236D01*
X174393991Y-60711840D01*
X174374555Y-60701452D01*
X174357524Y-60687476D01*
X174343548Y-60670445D01*
X174333160Y-60651009D01*
X174326764Y-60629928D01*
X174324000Y-60601860D01*
X174324000Y-60138140D01*
X174326764Y-60110072D01*
X174333160Y-60088991D01*
X174343548Y-60069555D01*
X174357524Y-60052524D01*
X174374555Y-60038548D01*
X174393991Y-60028160D01*
X174415072Y-60021764D01*
X174443140Y-60019000D01*
X176256860Y-60019000D01*
X176284928Y-60021764D01*
G37*
G36*
X149834928Y-58901764D02*
G01*
X149856009Y-58908160D01*
X149875445Y-58918548D01*
X149892476Y-58932524D01*
X149906452Y-58949555D01*
X149916840Y-58968991D01*
X149923236Y-58990072D01*
X149926000Y-59018140D01*
X149926000Y-59481860D01*
X149923236Y-59509928D01*
X149916840Y-59531009D01*
X149906452Y-59550445D01*
X149892476Y-59567476D01*
X149875445Y-59581452D01*
X149856009Y-59591840D01*
X149834928Y-59598236D01*
X149806860Y-59601000D01*
X147993140Y-59601000D01*
X147965072Y-59598236D01*
X147943991Y-59591840D01*
X147924555Y-59581452D01*
X147907524Y-59567476D01*
X147893548Y-59550445D01*
X147883160Y-59531009D01*
X147876764Y-59509928D01*
X147874000Y-59481860D01*
X147874000Y-59018140D01*
X147876764Y-58990072D01*
X147883160Y-58968991D01*
X147893548Y-58949555D01*
X147907524Y-58932524D01*
X147924555Y-58918548D01*
X147943991Y-58908160D01*
X147965072Y-58901764D01*
X147993140Y-58899000D01*
X149806860Y-58899000D01*
X149834928Y-58901764D01*
G37*
G36*
X154784928Y-58901764D02*
G01*
X154806009Y-58908160D01*
X154825445Y-58918548D01*
X154842476Y-58932524D01*
X154856452Y-58949555D01*
X154866840Y-58968991D01*
X154873236Y-58990072D01*
X154876000Y-59018140D01*
X154876000Y-59481860D01*
X154873236Y-59509928D01*
X154866840Y-59531009D01*
X154856452Y-59550445D01*
X154842476Y-59567476D01*
X154825445Y-59581452D01*
X154806009Y-59591840D01*
X154784928Y-59598236D01*
X154756860Y-59601000D01*
X152943140Y-59601000D01*
X152915072Y-59598236D01*
X152893991Y-59591840D01*
X152874555Y-59581452D01*
X152857524Y-59567476D01*
X152843548Y-59550445D01*
X152833160Y-59531009D01*
X152826764Y-59509928D01*
X152824000Y-59481860D01*
X152824000Y-59018140D01*
X152826764Y-58990072D01*
X152833160Y-58968991D01*
X152843548Y-58949555D01*
X152857524Y-58932524D01*
X152874555Y-58918548D01*
X152893991Y-58908160D01*
X152915072Y-58901764D01*
X152943140Y-58899000D01*
X154756860Y-58899000D01*
X154784928Y-58901764D01*
G37*
G36*
X130309928Y-58896764D02*
G01*
X130331009Y-58903160D01*
X130350445Y-58913548D01*
X130367476Y-58927524D01*
X130381452Y-58944555D01*
X130391840Y-58963991D01*
X130398236Y-58985072D01*
X130401000Y-59013140D01*
X130401000Y-59476860D01*
X130398236Y-59504928D01*
X130391840Y-59526009D01*
X130381452Y-59545445D01*
X130367476Y-59562476D01*
X130350445Y-59576452D01*
X130331009Y-59586840D01*
X130309928Y-59593236D01*
X130281860Y-59596000D01*
X128468140Y-59596000D01*
X128440072Y-59593236D01*
X128418991Y-59586840D01*
X128399555Y-59576452D01*
X128382524Y-59562476D01*
X128368548Y-59545445D01*
X128358160Y-59526009D01*
X128351764Y-59504928D01*
X128349000Y-59476860D01*
X128349000Y-59013140D01*
X128351764Y-58985072D01*
X128358160Y-58963991D01*
X128368548Y-58944555D01*
X128382524Y-58927524D01*
X128399555Y-58913548D01*
X128418991Y-58903160D01*
X128440072Y-58896764D01*
X128468140Y-58894000D01*
X130281860Y-58894000D01*
X130309928Y-58896764D01*
G37*
G36*
X125359928Y-58896764D02*
G01*
X125381009Y-58903160D01*
X125400445Y-58913548D01*
X125417476Y-58927524D01*
X125431452Y-58944555D01*
X125441840Y-58963991D01*
X125448236Y-58985072D01*
X125451000Y-59013140D01*
X125451000Y-59476860D01*
X125448236Y-59504928D01*
X125441840Y-59526009D01*
X125431452Y-59545445D01*
X125417476Y-59562476D01*
X125400445Y-59576452D01*
X125381009Y-59586840D01*
X125359928Y-59593236D01*
X125331860Y-59596000D01*
X123518140Y-59596000D01*
X123490072Y-59593236D01*
X123468991Y-59586840D01*
X123449555Y-59576452D01*
X123432524Y-59562476D01*
X123418548Y-59545445D01*
X123408160Y-59526009D01*
X123401764Y-59504928D01*
X123399000Y-59476860D01*
X123399000Y-59013140D01*
X123401764Y-58985072D01*
X123408160Y-58963991D01*
X123418548Y-58944555D01*
X123432524Y-58927524D01*
X123449555Y-58913548D01*
X123468991Y-58903160D01*
X123490072Y-58896764D01*
X123518140Y-58894000D01*
X125331860Y-58894000D01*
X125359928Y-58896764D01*
G37*
G36*
X181234928Y-58751764D02*
G01*
X181256009Y-58758160D01*
X181275445Y-58768548D01*
X181292476Y-58782524D01*
X181306452Y-58799555D01*
X181316840Y-58818991D01*
X181323236Y-58840072D01*
X181326000Y-58868140D01*
X181326000Y-59331860D01*
X181323236Y-59359928D01*
X181316840Y-59381009D01*
X181306452Y-59400445D01*
X181292476Y-59417476D01*
X181275445Y-59431452D01*
X181256009Y-59441840D01*
X181234928Y-59448236D01*
X181206860Y-59451000D01*
X179393140Y-59451000D01*
X179365072Y-59448236D01*
X179343991Y-59441840D01*
X179324555Y-59431452D01*
X179307524Y-59417476D01*
X179293548Y-59400445D01*
X179283160Y-59381009D01*
X179276764Y-59359928D01*
X179274000Y-59331860D01*
X179274000Y-58868140D01*
X179276764Y-58840072D01*
X179283160Y-58818991D01*
X179293548Y-58799555D01*
X179307524Y-58782524D01*
X179324555Y-58768548D01*
X179343991Y-58758160D01*
X179365072Y-58751764D01*
X179393140Y-58749000D01*
X181206860Y-58749000D01*
X181234928Y-58751764D01*
G37*
G36*
X176284928Y-58751764D02*
G01*
X176306009Y-58758160D01*
X176325445Y-58768548D01*
X176342476Y-58782524D01*
X176356452Y-58799555D01*
X176366840Y-58818991D01*
X176373236Y-58840072D01*
X176376000Y-58868140D01*
X176376000Y-59331860D01*
X176373236Y-59359928D01*
X176366840Y-59381009D01*
X176356452Y-59400445D01*
X176342476Y-59417476D01*
X176325445Y-59431452D01*
X176306009Y-59441840D01*
X176284928Y-59448236D01*
X176256860Y-59451000D01*
X174443140Y-59451000D01*
X174415072Y-59448236D01*
X174393991Y-59441840D01*
X174374555Y-59431452D01*
X174357524Y-59417476D01*
X174343548Y-59400445D01*
X174333160Y-59381009D01*
X174326764Y-59359928D01*
X174324000Y-59331860D01*
X174324000Y-58868140D01*
X174326764Y-58840072D01*
X174333160Y-58818991D01*
X174343548Y-58799555D01*
X174357524Y-58782524D01*
X174374555Y-58768548D01*
X174393991Y-58758160D01*
X174415072Y-58751764D01*
X174443140Y-58749000D01*
X176256860Y-58749000D01*
X176284928Y-58751764D01*
G37*
G36*
X121601000Y-58751000D02*
G01*
X119799000Y-58751000D01*
X119799000Y-56949000D01*
X121601000Y-56949000D01*
X121601000Y-58751000D01*
G37*
G36*
X132813512Y-56933927D02*
G01*
X132962812Y-56963624D01*
X133126784Y-57031544D01*
X133274354Y-57130147D01*
X133399853Y-57255646D01*
X133498456Y-57403216D01*
X133566376Y-57567188D01*
X133596073Y-57716488D01*
X133600500Y-57738742D01*
X133601000Y-57741259D01*
X133601000Y-57918741D01*
X133566376Y-58092812D01*
X133498456Y-58256784D01*
X133399853Y-58404354D01*
X133274354Y-58529853D01*
X133126784Y-58628456D01*
X132962812Y-58696376D01*
X132813512Y-58726073D01*
X132788742Y-58731000D01*
X132611258Y-58731000D01*
X132586488Y-58726073D01*
X132437188Y-58696376D01*
X132273216Y-58628456D01*
X132125646Y-58529853D01*
X132000147Y-58404354D01*
X131901544Y-58256784D01*
X131833624Y-58092812D01*
X131799000Y-57918741D01*
X131799000Y-57741259D01*
X131799501Y-57738742D01*
X131803927Y-57716488D01*
X131833624Y-57567188D01*
X131901544Y-57403216D01*
X132000147Y-57255646D01*
X132125646Y-57130147D01*
X132273216Y-57031544D01*
X132437188Y-56963624D01*
X132586488Y-56933927D01*
X132611258Y-56929000D01*
X132788742Y-56929000D01*
X132813512Y-56933927D01*
G37*
G36*
X170801000Y-58711000D02*
G01*
X168999000Y-58711000D01*
X168999000Y-56909000D01*
X170801000Y-56909000D01*
X170801000Y-58711000D01*
G37*
G36*
X146101000Y-58701000D02*
G01*
X144299000Y-58701000D01*
X144299000Y-56899000D01*
X146101000Y-56899000D01*
X146101000Y-58701000D01*
G37*
G36*
X157313512Y-56883927D02*
G01*
X157462812Y-56913624D01*
X157626784Y-56981544D01*
X157774354Y-57080147D01*
X157899853Y-57205646D01*
X157998456Y-57353216D01*
X158066376Y-57517188D01*
X158101000Y-57691259D01*
X158101000Y-57868741D01*
X158066376Y-58042812D01*
X157998456Y-58206784D01*
X157899853Y-58354354D01*
X157774354Y-58479853D01*
X157626784Y-58578456D01*
X157462812Y-58646376D01*
X157313512Y-58676073D01*
X157288742Y-58681000D01*
X157111258Y-58681000D01*
X157086488Y-58676073D01*
X156937188Y-58646376D01*
X156773216Y-58578456D01*
X156625646Y-58479853D01*
X156500147Y-58354354D01*
X156401544Y-58206784D01*
X156333624Y-58042812D01*
X156299000Y-57868741D01*
X156299000Y-57691259D01*
X156333624Y-57517188D01*
X156401544Y-57353216D01*
X156500147Y-57205646D01*
X156625646Y-57080147D01*
X156773216Y-56981544D01*
X156937188Y-56913624D01*
X157086488Y-56883927D01*
X157111258Y-56879000D01*
X157288742Y-56879000D01*
X157313512Y-56883927D01*
G37*
G36*
X185913512Y-56753927D02*
G01*
X186062812Y-56783624D01*
X186226784Y-56851544D01*
X186374354Y-56950147D01*
X186499853Y-57075646D01*
X186598456Y-57223216D01*
X186666376Y-57387188D01*
X186692234Y-57517188D01*
X186701000Y-57561258D01*
X186701000Y-57738742D01*
X186700499Y-57741259D01*
X186666376Y-57912812D01*
X186598456Y-58076784D01*
X186499853Y-58224354D01*
X186374354Y-58349853D01*
X186226784Y-58448456D01*
X186062812Y-58516376D01*
X185913512Y-58546073D01*
X185888742Y-58551000D01*
X185711258Y-58551000D01*
X185686488Y-58546073D01*
X185537188Y-58516376D01*
X185373216Y-58448456D01*
X185225646Y-58349853D01*
X185100147Y-58224354D01*
X185001544Y-58076784D01*
X184933624Y-57912812D01*
X184899501Y-57741259D01*
X184899000Y-57738742D01*
X184899000Y-57561258D01*
X184907766Y-57517188D01*
X184933624Y-57387188D01*
X185001544Y-57223216D01*
X185100147Y-57075646D01*
X185225646Y-56950147D01*
X185373216Y-56851544D01*
X185537188Y-56783624D01*
X185686488Y-56753927D01*
X185711258Y-56749000D01*
X185888742Y-56749000D01*
X185913512Y-56753927D01*
G37*
M02*
