G04 #@! TF.GenerationSoftware,KiCad,Pcbnew,(5.1.5)-3*
G04 #@! TF.CreationDate,2020-08-08T04:04:00-04:00*
G04 #@! TF.ProjectId,LT3081-ARDUINO-HEADERS,4c543330-3831-42d4-9152-4455494e4f2d,rev?*
G04 #@! TF.SameCoordinates,Original*
G04 #@! TF.FileFunction,Legend,Top*
G04 #@! TF.FilePolarity,Positive*
%FSLAX46Y46*%
G04 Gerber Fmt 4.6, Leading zero omitted, Abs format (unit mm)*
G04 Created by KiCad (PCBNEW (5.1.5)-3) date 2020-08-08 04:04:00*
%MOMM*%
%LPD*%
G04 APERTURE LIST*
%ADD10C,0.150000*%
%ADD11C,0.120000*%
%ADD12C,0.100000*%
G04 APERTURE END LIST*
D10*
X169738095Y-62000000D02*
X169642857Y-61952380D01*
X169500000Y-61952380D01*
X169357142Y-62000000D01*
X169261904Y-62095238D01*
X169214285Y-62190476D01*
X169166666Y-62380952D01*
X169166666Y-62523809D01*
X169214285Y-62714285D01*
X169261904Y-62809523D01*
X169357142Y-62904761D01*
X169500000Y-62952380D01*
X169595238Y-62952380D01*
X169738095Y-62904761D01*
X169785714Y-62857142D01*
X169785714Y-62523809D01*
X169595238Y-62523809D01*
X170214285Y-62952380D02*
X170214285Y-61952380D01*
X170785714Y-62952380D01*
X170785714Y-61952380D01*
X171261904Y-62952380D02*
X171261904Y-61952380D01*
X171500000Y-61952380D01*
X171642857Y-62000000D01*
X171738095Y-62095238D01*
X171785714Y-62190476D01*
X171833333Y-62380952D01*
X171833333Y-62523809D01*
X171785714Y-62714285D01*
X171738095Y-62809523D01*
X171642857Y-62904761D01*
X171500000Y-62952380D01*
X171261904Y-62952380D01*
X169547619Y-64452380D02*
X169880952Y-65452380D01*
X170214285Y-64452380D01*
X170547619Y-65071428D02*
X171309523Y-65071428D01*
X170928571Y-65452380D02*
X170928571Y-64690476D01*
X110750000Y-128988095D02*
X110797619Y-128892857D01*
X110797619Y-128750000D01*
X110750000Y-128607142D01*
X110654761Y-128511904D01*
X110559523Y-128464285D01*
X110369047Y-128416666D01*
X110226190Y-128416666D01*
X110035714Y-128464285D01*
X109940476Y-128511904D01*
X109845238Y-128607142D01*
X109797619Y-128750000D01*
X109797619Y-128845238D01*
X109845238Y-128988095D01*
X109892857Y-129035714D01*
X110226190Y-129035714D01*
X110226190Y-128845238D01*
X109797619Y-129464285D02*
X110797619Y-129464285D01*
X109797619Y-130035714D01*
X110797619Y-130035714D01*
X109797619Y-130511904D02*
X110797619Y-130511904D01*
X110797619Y-130750000D01*
X110750000Y-130892857D01*
X110654761Y-130988095D01*
X110559523Y-131035714D01*
X110369047Y-131083333D01*
X110226190Y-131083333D01*
X110035714Y-131035714D01*
X109940476Y-130988095D01*
X109845238Y-130892857D01*
X109797619Y-130750000D01*
X109797619Y-130511904D01*
X116297619Y-126702380D02*
X116630952Y-127702380D01*
X116964285Y-126702380D01*
X117297619Y-127321428D02*
X118059523Y-127321428D01*
X117678571Y-127702380D02*
X117678571Y-126940476D01*
X131770380Y-116300285D02*
X131770380Y-116871714D01*
X131770380Y-116586000D02*
X130770380Y-116586000D01*
X130913238Y-116681238D01*
X131008476Y-116776476D01*
X131056095Y-116871714D01*
X202800000Y-115580000D02*
X204350000Y-115580000D01*
X205620000Y-112760000D02*
X203080000Y-112760000D01*
X205620000Y-115300000D02*
X205620000Y-112760000D01*
X202800000Y-114030000D02*
X202800000Y-115580000D01*
X208160000Y-115300000D02*
X205620000Y-115300000D01*
X208160000Y-69580000D02*
X203080000Y-69580000D01*
X203080000Y-69580000D02*
X203080000Y-112760000D01*
X208160000Y-115300000D02*
X208160000Y-69580000D01*
D11*
X181540000Y-90670000D02*
X182870000Y-90670000D01*
X182870000Y-90670000D02*
X182870000Y-92000000D01*
X180270000Y-90670000D02*
X180270000Y-93270000D01*
X180270000Y-93270000D02*
X182870000Y-93270000D01*
X182870000Y-93270000D02*
X182870000Y-116190000D01*
X177670000Y-116190000D02*
X182870000Y-116190000D01*
X177670000Y-90670000D02*
X177670000Y-116190000D01*
X177670000Y-90670000D02*
X180270000Y-90670000D01*
X167510000Y-90675000D02*
X167510000Y-91775000D01*
X168200000Y-90675000D02*
X167510000Y-90675000D01*
X168200000Y-89175000D02*
X168200000Y-90675000D01*
X158490000Y-90675000D02*
X158490000Y-95800000D01*
X157800000Y-90675000D02*
X158490000Y-90675000D01*
X157800000Y-89175000D02*
X157800000Y-90675000D01*
X155510000Y-90675000D02*
X155510000Y-91775000D01*
X156200000Y-90675000D02*
X155510000Y-90675000D01*
X156200000Y-89175000D02*
X156200000Y-90675000D01*
X146490000Y-90675000D02*
X146490000Y-95800000D01*
X145800000Y-90675000D02*
X146490000Y-90675000D01*
X145800000Y-89175000D02*
X145800000Y-90675000D01*
X143510000Y-90675000D02*
X143510000Y-91775000D01*
X144200000Y-90675000D02*
X143510000Y-90675000D01*
X144200000Y-89175000D02*
X144200000Y-90675000D01*
X134490000Y-90675000D02*
X134490000Y-95800000D01*
X133800000Y-90675000D02*
X134490000Y-90675000D01*
X133800000Y-89175000D02*
X133800000Y-90675000D01*
X131510000Y-90675000D02*
X131510000Y-91775000D01*
X132200000Y-90675000D02*
X131510000Y-90675000D01*
X132200000Y-89175000D02*
X132200000Y-90675000D01*
X122490000Y-90675000D02*
X122490000Y-95800000D01*
X121800000Y-90675000D02*
X122490000Y-90675000D01*
X121800000Y-89175000D02*
X121800000Y-90675000D01*
X147249000Y-131270000D02*
X147249000Y-129760000D01*
X150950000Y-131270000D02*
X150950000Y-129760000D01*
X154220000Y-129760000D02*
X143980000Y-129760000D01*
X143980000Y-131270000D02*
X143980000Y-126629000D01*
X154220000Y-131270000D02*
X154220000Y-126629000D01*
X154220000Y-126629000D02*
X143980000Y-126629000D01*
X154220000Y-131270000D02*
X143980000Y-131270000D01*
X145500000Y-62940000D02*
X142050000Y-62940000D01*
X145500000Y-62940000D02*
X147450000Y-62940000D01*
X145500000Y-68060000D02*
X143550000Y-68060000D01*
X145500000Y-68060000D02*
X147450000Y-68060000D01*
X137500000Y-62940000D02*
X134050000Y-62940000D01*
X137500000Y-62940000D02*
X139450000Y-62940000D01*
X137500000Y-68060000D02*
X135550000Y-68060000D01*
X137500000Y-68060000D02*
X139450000Y-68060000D01*
X129500000Y-62940000D02*
X126050000Y-62940000D01*
X129500000Y-62940000D02*
X131450000Y-62940000D01*
X129500000Y-68060000D02*
X127550000Y-68060000D01*
X129500000Y-68060000D02*
X131450000Y-68060000D01*
X121500000Y-62940000D02*
X118050000Y-62940000D01*
X121500000Y-62940000D02*
X123450000Y-62940000D01*
X121500000Y-68060000D02*
X119550000Y-68060000D01*
X121500000Y-68060000D02*
X123450000Y-68060000D01*
X113500000Y-62940000D02*
X110050000Y-62940000D01*
X113500000Y-62940000D02*
X115450000Y-62940000D01*
X113500000Y-68060000D02*
X111550000Y-68060000D01*
X113500000Y-68060000D02*
X115450000Y-68060000D01*
X152400000Y-63500000D02*
X160500000Y-63500000D01*
X160500000Y-66500000D02*
X152400000Y-66500000D01*
X152400000Y-63500000D02*
X152400000Y-66500000D01*
X160500000Y-66500000D02*
X160500000Y-63500000D01*
D12*
X116300000Y-125775000D02*
X116300000Y-125425000D01*
X116675000Y-125775000D02*
X116300000Y-125775000D01*
X129200000Y-125775000D02*
X128800000Y-125775000D01*
X129200000Y-125775000D02*
X129200000Y-125400000D01*
X129200000Y-118725000D02*
X129200000Y-119150000D01*
X129200000Y-118725000D02*
X128750000Y-118725000D01*
X116325000Y-118725000D02*
X116775000Y-118725000D01*
X116300000Y-118725000D02*
X116300000Y-119150000D01*
D11*
X157345000Y-98220000D02*
X157345000Y-104560000D01*
X147575000Y-98220000D02*
X147575000Y-104560000D01*
X147575000Y-104560000D02*
X157345000Y-104560000D01*
X147575000Y-98220000D02*
X157345000Y-98220000D01*
X164885000Y-124970000D02*
X164885000Y-131310000D01*
X155115000Y-124970000D02*
X155115000Y-131310000D01*
X155115000Y-131310000D02*
X164885000Y-131310000D01*
X155115000Y-124970000D02*
X164885000Y-124970000D01*
X175385000Y-124970000D02*
X175385000Y-131310000D01*
X165615000Y-124970000D02*
X165615000Y-131310000D01*
X165615000Y-131310000D02*
X175385000Y-131310000D01*
X165615000Y-124970000D02*
X175385000Y-124970000D01*
X170130000Y-113771078D02*
X170130000Y-113253922D01*
X168710000Y-113771078D02*
X168710000Y-113253922D01*
X172670000Y-113771078D02*
X172670000Y-113253922D01*
X171250000Y-113771078D02*
X171250000Y-113253922D01*
X165060000Y-113771078D02*
X165060000Y-113253922D01*
X163640000Y-113771078D02*
X163640000Y-113253922D01*
X167600000Y-113771078D02*
X167600000Y-113253922D01*
X166180000Y-113771078D02*
X166180000Y-113253922D01*
X159960000Y-113771078D02*
X159960000Y-113253922D01*
X158540000Y-113771078D02*
X158540000Y-113253922D01*
X162510000Y-113771078D02*
X162510000Y-113253922D01*
X161090000Y-113771078D02*
X161090000Y-113253922D01*
X154910000Y-113771078D02*
X154910000Y-113253922D01*
X153490000Y-113771078D02*
X153490000Y-113253922D01*
X157410000Y-113771078D02*
X157410000Y-113253922D01*
X155990000Y-113771078D02*
X155990000Y-113253922D01*
X142321078Y-60990000D02*
X141803922Y-60990000D01*
X142321078Y-62410000D02*
X141803922Y-62410000D01*
X134346078Y-60990000D02*
X133828922Y-60990000D01*
X134346078Y-62410000D02*
X133828922Y-62410000D01*
X126346078Y-61040000D02*
X125828922Y-61040000D01*
X126346078Y-62460000D02*
X125828922Y-62460000D01*
X118346078Y-61040000D02*
X117828922Y-61040000D01*
X118346078Y-62460000D02*
X117828922Y-62460000D01*
X111703922Y-62460000D02*
X112221078Y-62460000D01*
X111703922Y-61040000D02*
X112221078Y-61040000D01*
X165600000Y-104000000D02*
X164200000Y-104000000D01*
X163500000Y-103300000D02*
X163500000Y-102700000D01*
X164200000Y-102000000D02*
X165600000Y-102000000D01*
X166300000Y-102700000D02*
X166300000Y-103300000D01*
X166300000Y-103300000D02*
G75*
G02X165600000Y-104000000I-700000J0D01*
G01*
X165600000Y-102000000D02*
G75*
G02X166300000Y-102700000I0J-700000D01*
G01*
X163500000Y-102700000D02*
G75*
G02X164200000Y-102000000I700000J0D01*
G01*
X164200000Y-104000000D02*
G75*
G02X163500000Y-103300000I0J700000D01*
G01*
X158950000Y-98000000D02*
X160350000Y-98000000D01*
X161050000Y-98700000D02*
X161050000Y-99300000D01*
X160350000Y-100000000D02*
X158950000Y-100000000D01*
X158250000Y-99300000D02*
X158250000Y-98700000D01*
X158250000Y-98700000D02*
G75*
G02X158950000Y-98000000I700000J0D01*
G01*
X158950000Y-100000000D02*
G75*
G02X158250000Y-99300000I0J700000D01*
G01*
X161050000Y-99300000D02*
G75*
G02X160350000Y-100000000I-700000J0D01*
G01*
X160350000Y-98000000D02*
G75*
G02X161050000Y-98700000I0J-700000D01*
G01*
X143100000Y-102400000D02*
X144500000Y-102400000D01*
X145200000Y-103100000D02*
X145200000Y-103700000D01*
X144500000Y-104400000D02*
X143100000Y-104400000D01*
X142400000Y-103700000D02*
X142400000Y-103100000D01*
X142400000Y-103100000D02*
G75*
G02X143100000Y-102400000I700000J0D01*
G01*
X143100000Y-104400000D02*
G75*
G02X142400000Y-103700000I0J700000D01*
G01*
X145200000Y-103700000D02*
G75*
G02X144500000Y-104400000I-700000J0D01*
G01*
X144500000Y-102400000D02*
G75*
G02X145200000Y-103100000I0J-700000D01*
G01*
X141700000Y-100400000D02*
X141700000Y-101800000D01*
X141000000Y-102500000D02*
X140400000Y-102500000D01*
X139700000Y-101800000D02*
X139700000Y-100400000D01*
X140400000Y-99700000D02*
X141000000Y-99700000D01*
X141000000Y-99700000D02*
G75*
G02X141700000Y-100400000I0J-700000D01*
G01*
X139700000Y-100400000D02*
G75*
G02X140400000Y-99700000I700000J0D01*
G01*
X140400000Y-102500000D02*
G75*
G02X139700000Y-101800000I0J700000D01*
G01*
X141700000Y-101800000D02*
G75*
G02X141000000Y-102500000I-700000J0D01*
G01*
X158000000Y-102800000D02*
X158000000Y-101400000D01*
X158700000Y-100700000D02*
X159300000Y-100700000D01*
X160000000Y-101400000D02*
X160000000Y-102800000D01*
X159300000Y-103500000D02*
X158700000Y-103500000D01*
X158700000Y-103500000D02*
G75*
G02X158000000Y-102800000I0J700000D01*
G01*
X160000000Y-102800000D02*
G75*
G02X159300000Y-103500000I-700000J0D01*
G01*
X159300000Y-100700000D02*
G75*
G02X160000000Y-101400000I0J-700000D01*
G01*
X158000000Y-101400000D02*
G75*
G02X158700000Y-100700000I700000J0D01*
G01*
X163450000Y-121500000D02*
X164850000Y-121500000D01*
X165550000Y-122200000D02*
X165550000Y-122800000D01*
X164850000Y-123500000D02*
X163450000Y-123500000D01*
X162750000Y-122800000D02*
X162750000Y-122200000D01*
X162750000Y-122200000D02*
G75*
G02X163450000Y-121500000I700000J0D01*
G01*
X163450000Y-123500000D02*
G75*
G02X162750000Y-122800000I0J700000D01*
G01*
X165550000Y-122800000D02*
G75*
G02X164850000Y-123500000I-700000J0D01*
G01*
X164850000Y-121500000D02*
G75*
G02X165550000Y-122200000I0J-700000D01*
G01*
X151600000Y-122900000D02*
X153000000Y-122900000D01*
X153700000Y-123600000D02*
X153700000Y-124200000D01*
X153000000Y-124900000D02*
X151600000Y-124900000D01*
X150900000Y-124200000D02*
X150900000Y-123600000D01*
X150900000Y-123600000D02*
G75*
G02X151600000Y-122900000I700000J0D01*
G01*
X151600000Y-124900000D02*
G75*
G02X150900000Y-124200000I0J700000D01*
G01*
X153700000Y-124200000D02*
G75*
G02X153000000Y-124900000I-700000J0D01*
G01*
X153000000Y-122900000D02*
G75*
G02X153700000Y-123600000I0J-700000D01*
G01*
X176700000Y-129050000D02*
G75*
G02X176000000Y-128350000I0J700000D01*
G01*
X178000000Y-128350000D02*
G75*
G02X177300000Y-129050000I-700000J0D01*
G01*
X177300000Y-124950000D02*
G75*
G02X178000000Y-125650000I0J-700000D01*
G01*
X176000000Y-125650000D02*
G75*
G02X176700000Y-124950000I700000J0D01*
G01*
X176000000Y-128400000D02*
X176000000Y-125600000D01*
X176700000Y-124950000D02*
X177300000Y-124950000D01*
X178000000Y-125600000D02*
X178000000Y-128400000D01*
X177300000Y-129050000D02*
X176700000Y-129050000D01*
X168330000Y-66330000D02*
X167000000Y-66330000D01*
X168330000Y-65000000D02*
X168330000Y-66330000D01*
X168330000Y-63730000D02*
X165670000Y-63730000D01*
X165670000Y-63730000D02*
X165670000Y-61130000D01*
X168330000Y-63730000D02*
X168330000Y-61130000D01*
X168330000Y-61130000D02*
X165670000Y-61130000D01*
X131170000Y-104330000D02*
X131170000Y-103000000D01*
X132500000Y-104330000D02*
X131170000Y-104330000D01*
X131170000Y-101730000D02*
X131170000Y-99130000D01*
X133770000Y-101730000D02*
X131170000Y-101730000D01*
X133770000Y-104330000D02*
X133770000Y-101730000D01*
X131170000Y-99130000D02*
X138910000Y-99130000D01*
X133770000Y-104330000D02*
X138910000Y-104330000D01*
X138910000Y-104330000D02*
X138910000Y-99130000D01*
X124420000Y-99130000D02*
X125750000Y-99130000D01*
X124420000Y-100460000D02*
X124420000Y-99130000D01*
X124420000Y-101730000D02*
X127080000Y-101730000D01*
X127080000Y-101730000D02*
X127080000Y-104330000D01*
X124420000Y-101730000D02*
X124420000Y-104330000D01*
X124420000Y-104330000D02*
X127080000Y-104330000D01*
X111630000Y-131040000D02*
X111630000Y-129710000D01*
X112960000Y-131040000D02*
X111630000Y-131040000D01*
X114230000Y-131040000D02*
X114230000Y-128380000D01*
X114230000Y-128380000D02*
X116830000Y-128380000D01*
X114230000Y-131040000D02*
X116830000Y-131040000D01*
X116830000Y-131040000D02*
X116830000Y-128380000D01*
X120670000Y-130330000D02*
X120670000Y-129000000D01*
X122000000Y-130330000D02*
X120670000Y-130330000D01*
X123270000Y-130330000D02*
X123270000Y-127670000D01*
X123270000Y-127670000D02*
X133490000Y-127670000D01*
X123270000Y-130330000D02*
X133490000Y-130330000D01*
X133490000Y-130330000D02*
X133490000Y-127670000D01*
X123050000Y-111250000D02*
X123050000Y-113250000D01*
X109640000Y-107140000D02*
X112700000Y-107140000D01*
X109640000Y-117360000D02*
X109640000Y-107140000D01*
X112700000Y-117360000D02*
X109640000Y-117360000D01*
X122860000Y-117360000D02*
X116800000Y-117360000D01*
X122860000Y-114550000D02*
X122860000Y-117360000D01*
X122860000Y-107140000D02*
X122860000Y-109950000D01*
X116800000Y-107140000D02*
X122860000Y-107140000D01*
X182340000Y-121330000D02*
X182340000Y-124270000D01*
X182580000Y-121330000D02*
X182580000Y-124270000D01*
X182460000Y-121330000D02*
X182460000Y-124270000D01*
X188020000Y-122800000D02*
X187000000Y-122800000D01*
X180540000Y-122800000D02*
X181560000Y-122800000D01*
X187000000Y-121330000D02*
X181560000Y-121330000D01*
X187000000Y-124270000D02*
X187000000Y-121330000D01*
X181560000Y-124270000D02*
X187000000Y-124270000D01*
X181560000Y-121330000D02*
X181560000Y-124270000D01*
X142080000Y-113930000D02*
X142080000Y-116870000D01*
X142320000Y-113930000D02*
X142320000Y-116870000D01*
X142200000Y-113930000D02*
X142200000Y-116870000D01*
X147760000Y-115400000D02*
X146740000Y-115400000D01*
X140280000Y-115400000D02*
X141300000Y-115400000D01*
X146740000Y-113930000D02*
X141300000Y-113930000D01*
X146740000Y-116870000D02*
X146740000Y-113930000D01*
X141300000Y-116870000D02*
X146740000Y-116870000D01*
X141300000Y-113930000D02*
X141300000Y-116870000D01*
X163910000Y-64114564D02*
X163910000Y-62910436D01*
X162090000Y-64114564D02*
X162090000Y-62910436D01*
X121445000Y-101370000D02*
X121380000Y-101370000D01*
X123620000Y-101370000D02*
X123555000Y-101370000D01*
X121445000Y-98130000D02*
X121380000Y-98130000D01*
X123620000Y-98130000D02*
X123555000Y-98130000D01*
X121380000Y-98130000D02*
X121380000Y-101370000D01*
X123620000Y-98130000D02*
X123620000Y-101370000D01*
X183385436Y-129910000D02*
X184589564Y-129910000D01*
X183385436Y-128090000D02*
X184589564Y-128090000D01*
X110252500Y-125812500D02*
X110877500Y-125812500D01*
X110565000Y-126125000D02*
X110565000Y-125500000D01*
X113945563Y-125260000D02*
X115010000Y-124195563D01*
X110554437Y-125260000D02*
X109490000Y-124195563D01*
X110554437Y-125260000D02*
X111190000Y-125260000D01*
X113945563Y-125260000D02*
X113310000Y-125260000D01*
X115010000Y-124195563D02*
X115010000Y-119740000D01*
X109490000Y-124195563D02*
X109490000Y-119740000D01*
X109490000Y-119740000D02*
X111190000Y-119740000D01*
X115010000Y-119740000D02*
X113310000Y-119740000D01*
X147700000Y-125310000D02*
X147700000Y-124810000D01*
X147950000Y-125060000D02*
X147450000Y-125060000D01*
X147210000Y-122304437D02*
X146145563Y-121240000D01*
X147210000Y-124695563D02*
X146145563Y-125760000D01*
X147210000Y-124695563D02*
X147210000Y-124560000D01*
X147210000Y-122304437D02*
X147210000Y-122440000D01*
X146145563Y-121240000D02*
X142690000Y-121240000D01*
X146145563Y-125760000D02*
X142690000Y-125760000D01*
X142690000Y-125760000D02*
X142690000Y-124560000D01*
X142690000Y-121240000D02*
X142690000Y-122440000D01*
X141810000Y-125750000D02*
X141310000Y-125750000D01*
X141560000Y-125500000D02*
X141560000Y-126000000D01*
X138804437Y-126240000D02*
X137740000Y-127304437D01*
X141195563Y-126240000D02*
X142260000Y-127304437D01*
X141195563Y-126240000D02*
X141060000Y-126240000D01*
X138804437Y-126240000D02*
X138940000Y-126240000D01*
X137740000Y-127304437D02*
X137740000Y-130760000D01*
X142260000Y-127304437D02*
X142260000Y-130760000D01*
X142260000Y-130760000D02*
X141060000Y-130760000D01*
X137740000Y-130760000D02*
X138940000Y-130760000D01*
D10*
X201168000Y-115316000D02*
X201168000Y-69596000D01*
X196088000Y-69596000D02*
X196088000Y-112776000D01*
X201168000Y-69596000D02*
X196088000Y-69596000D01*
X201168000Y-115316000D02*
X198628000Y-115316000D01*
X195808000Y-114046000D02*
X195808000Y-115596000D01*
X198628000Y-115316000D02*
X198628000Y-112776000D01*
X198628000Y-112776000D02*
X196088000Y-112776000D01*
X195808000Y-115596000D02*
X197358000Y-115596000D01*
X132588000Y-120396000D02*
X150368000Y-120396000D01*
X150368000Y-120396000D02*
X150368000Y-117856000D01*
X150368000Y-117856000D02*
X132588000Y-117856000D01*
X129768000Y-120676000D02*
X131318000Y-120676000D01*
X132588000Y-120396000D02*
X132588000Y-117856000D01*
X131318000Y-117576000D02*
X129768000Y-117576000D01*
X129768000Y-117576000D02*
X129768000Y-120676000D01*
X155448000Y-120396000D02*
X173228000Y-120396000D01*
X173228000Y-120396000D02*
X173228000Y-117856000D01*
X173228000Y-117856000D02*
X155448000Y-117856000D01*
X152628000Y-120676000D02*
X154178000Y-120676000D01*
X155448000Y-120396000D02*
X155448000Y-117856000D01*
X154178000Y-117576000D02*
X152628000Y-117576000D01*
X152628000Y-117576000D02*
X152628000Y-120676000D01*
X178308000Y-120396000D02*
X196088000Y-120396000D01*
X196088000Y-120396000D02*
X196088000Y-117856000D01*
X196088000Y-117856000D02*
X178308000Y-117856000D01*
X175488000Y-120676000D02*
X177038000Y-120676000D01*
X178308000Y-120396000D02*
X178308000Y-117856000D01*
X177038000Y-117576000D02*
X175488000Y-117576000D01*
X175488000Y-117576000D02*
X175488000Y-120676000D01*
X123444000Y-72136000D02*
X146304000Y-72136000D01*
X146304000Y-72136000D02*
X146304000Y-69596000D01*
X146304000Y-69596000D02*
X123444000Y-69596000D01*
X120624000Y-72416000D02*
X122174000Y-72416000D01*
X123444000Y-72136000D02*
X123444000Y-69596000D01*
X122174000Y-69316000D02*
X120624000Y-69316000D01*
X120624000Y-69316000D02*
X120624000Y-72416000D01*
X150368000Y-72136000D02*
X168148000Y-72136000D01*
X168148000Y-72136000D02*
X168148000Y-69596000D01*
X168148000Y-69596000D02*
X150368000Y-69596000D01*
X147548000Y-72416000D02*
X149098000Y-72416000D01*
X150368000Y-72136000D02*
X150368000Y-69596000D01*
X149098000Y-69316000D02*
X147548000Y-69316000D01*
X147548000Y-69316000D02*
X147548000Y-72416000D01*
X173228000Y-72136000D02*
X191008000Y-72136000D01*
X191008000Y-72136000D02*
X191008000Y-69596000D01*
X191008000Y-69596000D02*
X173228000Y-69596000D01*
X170408000Y-72416000D02*
X171958000Y-72416000D01*
X173228000Y-72136000D02*
X173228000Y-69596000D01*
X171958000Y-69316000D02*
X170408000Y-69316000D01*
X170408000Y-69316000D02*
X170408000Y-72416000D01*
X204261904Y-68952380D02*
X204261904Y-67952380D01*
X204642857Y-67952380D01*
X204738095Y-68000000D01*
X204785714Y-68047619D01*
X204833333Y-68142857D01*
X204833333Y-68285714D01*
X204785714Y-68380952D01*
X204738095Y-68428571D01*
X204642857Y-68476190D01*
X204261904Y-68476190D01*
X205785714Y-68952380D02*
X205214285Y-68952380D01*
X205500000Y-68952380D02*
X205500000Y-67952380D01*
X205404761Y-68095238D01*
X205309523Y-68190476D01*
X205214285Y-68238095D01*
X179936666Y-88682380D02*
X179936666Y-89396666D01*
X179889047Y-89539523D01*
X179793809Y-89634761D01*
X179650952Y-89682380D01*
X179555714Y-89682380D01*
X180841428Y-88682380D02*
X180650952Y-88682380D01*
X180555714Y-88730000D01*
X180508095Y-88777619D01*
X180412857Y-88920476D01*
X180365238Y-89110952D01*
X180365238Y-89491904D01*
X180412857Y-89587142D01*
X180460476Y-89634761D01*
X180555714Y-89682380D01*
X180746190Y-89682380D01*
X180841428Y-89634761D01*
X180889047Y-89587142D01*
X180936666Y-89491904D01*
X180936666Y-89253809D01*
X180889047Y-89158571D01*
X180841428Y-89110952D01*
X180746190Y-89063333D01*
X180555714Y-89063333D01*
X180460476Y-89110952D01*
X180412857Y-89158571D01*
X180365238Y-89253809D01*
X157690476Y-77952380D02*
X158023809Y-78952380D01*
X158357142Y-77952380D01*
X159261904Y-78952380D02*
X158928571Y-78476190D01*
X158690476Y-78952380D02*
X158690476Y-77952380D01*
X159071428Y-77952380D01*
X159166666Y-78000000D01*
X159214285Y-78047619D01*
X159261904Y-78142857D01*
X159261904Y-78285714D01*
X159214285Y-78380952D01*
X159166666Y-78428571D01*
X159071428Y-78476190D01*
X158690476Y-78476190D01*
X160119047Y-78285714D02*
X160119047Y-78952380D01*
X159880952Y-77904761D02*
X159642857Y-78619047D01*
X160261904Y-78619047D01*
X145690476Y-77952380D02*
X146023809Y-78952380D01*
X146357142Y-77952380D01*
X147261904Y-78952380D02*
X146928571Y-78476190D01*
X146690476Y-78952380D02*
X146690476Y-77952380D01*
X147071428Y-77952380D01*
X147166666Y-78000000D01*
X147214285Y-78047619D01*
X147261904Y-78142857D01*
X147261904Y-78285714D01*
X147214285Y-78380952D01*
X147166666Y-78428571D01*
X147071428Y-78476190D01*
X146690476Y-78476190D01*
X147595238Y-77952380D02*
X148214285Y-77952380D01*
X147880952Y-78333333D01*
X148023809Y-78333333D01*
X148119047Y-78380952D01*
X148166666Y-78428571D01*
X148214285Y-78523809D01*
X148214285Y-78761904D01*
X148166666Y-78857142D01*
X148119047Y-78904761D01*
X148023809Y-78952380D01*
X147738095Y-78952380D01*
X147642857Y-78904761D01*
X147595238Y-78857142D01*
X133690476Y-77952380D02*
X134023809Y-78952380D01*
X134357142Y-77952380D01*
X135261904Y-78952380D02*
X134928571Y-78476190D01*
X134690476Y-78952380D02*
X134690476Y-77952380D01*
X135071428Y-77952380D01*
X135166666Y-78000000D01*
X135214285Y-78047619D01*
X135261904Y-78142857D01*
X135261904Y-78285714D01*
X135214285Y-78380952D01*
X135166666Y-78428571D01*
X135071428Y-78476190D01*
X134690476Y-78476190D01*
X135642857Y-78047619D02*
X135690476Y-78000000D01*
X135785714Y-77952380D01*
X136023809Y-77952380D01*
X136119047Y-78000000D01*
X136166666Y-78047619D01*
X136214285Y-78142857D01*
X136214285Y-78238095D01*
X136166666Y-78380952D01*
X135595238Y-78952380D01*
X136214285Y-78952380D01*
X121690476Y-77952380D02*
X122023809Y-78952380D01*
X122357142Y-77952380D01*
X123261904Y-78952380D02*
X122928571Y-78476190D01*
X122690476Y-78952380D02*
X122690476Y-77952380D01*
X123071428Y-77952380D01*
X123166666Y-78000000D01*
X123214285Y-78047619D01*
X123261904Y-78142857D01*
X123261904Y-78285714D01*
X123214285Y-78380952D01*
X123166666Y-78428571D01*
X123071428Y-78476190D01*
X122690476Y-78476190D01*
X124214285Y-78952380D02*
X123642857Y-78952380D01*
X123928571Y-78952380D02*
X123928571Y-77952380D01*
X123833333Y-78095238D01*
X123738095Y-78190476D01*
X123642857Y-78238095D01*
X151590476Y-125352380D02*
X151923809Y-126352380D01*
X152257142Y-125352380D01*
X153161904Y-126352380D02*
X152828571Y-125876190D01*
X152590476Y-126352380D02*
X152590476Y-125352380D01*
X152971428Y-125352380D01*
X153066666Y-125400000D01*
X153114285Y-125447619D01*
X153161904Y-125542857D01*
X153161904Y-125685714D01*
X153114285Y-125780952D01*
X153066666Y-125828571D01*
X152971428Y-125876190D01*
X152590476Y-125876190D01*
X154019047Y-125352380D02*
X153828571Y-125352380D01*
X153733333Y-125400000D01*
X153685714Y-125447619D01*
X153590476Y-125590476D01*
X153542857Y-125780952D01*
X153542857Y-126161904D01*
X153590476Y-126257142D01*
X153638095Y-126304761D01*
X153733333Y-126352380D01*
X153923809Y-126352380D01*
X154019047Y-126304761D01*
X154066666Y-126257142D01*
X154114285Y-126161904D01*
X154114285Y-125923809D01*
X154066666Y-125828571D01*
X154019047Y-125780952D01*
X153923809Y-125733333D01*
X153733333Y-125733333D01*
X153638095Y-125780952D01*
X153590476Y-125828571D01*
X153542857Y-125923809D01*
X144738095Y-61552380D02*
X144738095Y-62361904D01*
X144785714Y-62457142D01*
X144833333Y-62504761D01*
X144928571Y-62552380D01*
X145119047Y-62552380D01*
X145214285Y-62504761D01*
X145261904Y-62457142D01*
X145309523Y-62361904D01*
X145309523Y-61552380D01*
X146261904Y-61552380D02*
X145785714Y-61552380D01*
X145738095Y-62028571D01*
X145785714Y-61980952D01*
X145880952Y-61933333D01*
X146119047Y-61933333D01*
X146214285Y-61980952D01*
X146261904Y-62028571D01*
X146309523Y-62123809D01*
X146309523Y-62361904D01*
X146261904Y-62457142D01*
X146214285Y-62504761D01*
X146119047Y-62552380D01*
X145880952Y-62552380D01*
X145785714Y-62504761D01*
X145738095Y-62457142D01*
X136738095Y-61552380D02*
X136738095Y-62361904D01*
X136785714Y-62457142D01*
X136833333Y-62504761D01*
X136928571Y-62552380D01*
X137119047Y-62552380D01*
X137214285Y-62504761D01*
X137261904Y-62457142D01*
X137309523Y-62361904D01*
X137309523Y-61552380D01*
X138214285Y-61885714D02*
X138214285Y-62552380D01*
X137976190Y-61504761D02*
X137738095Y-62219047D01*
X138357142Y-62219047D01*
X128738095Y-61652380D02*
X128738095Y-62461904D01*
X128785714Y-62557142D01*
X128833333Y-62604761D01*
X128928571Y-62652380D01*
X129119047Y-62652380D01*
X129214285Y-62604761D01*
X129261904Y-62557142D01*
X129309523Y-62461904D01*
X129309523Y-61652380D01*
X129690476Y-61652380D02*
X130309523Y-61652380D01*
X129976190Y-62033333D01*
X130119047Y-62033333D01*
X130214285Y-62080952D01*
X130261904Y-62128571D01*
X130309523Y-62223809D01*
X130309523Y-62461904D01*
X130261904Y-62557142D01*
X130214285Y-62604761D01*
X130119047Y-62652380D01*
X129833333Y-62652380D01*
X129738095Y-62604761D01*
X129690476Y-62557142D01*
X120738095Y-63202380D02*
X120738095Y-64011904D01*
X120785714Y-64107142D01*
X120833333Y-64154761D01*
X120928571Y-64202380D01*
X121119047Y-64202380D01*
X121214285Y-64154761D01*
X121261904Y-64107142D01*
X121309523Y-64011904D01*
X121309523Y-63202380D01*
X121738095Y-63297619D02*
X121785714Y-63250000D01*
X121880952Y-63202380D01*
X122119047Y-63202380D01*
X122214285Y-63250000D01*
X122261904Y-63297619D01*
X122309523Y-63392857D01*
X122309523Y-63488095D01*
X122261904Y-63630952D01*
X121690476Y-64202380D01*
X122309523Y-64202380D01*
X112738095Y-68452380D02*
X112738095Y-69261904D01*
X112785714Y-69357142D01*
X112833333Y-69404761D01*
X112928571Y-69452380D01*
X113119047Y-69452380D01*
X113214285Y-69404761D01*
X113261904Y-69357142D01*
X113309523Y-69261904D01*
X113309523Y-68452380D01*
X114309523Y-69452380D02*
X113738095Y-69452380D01*
X114023809Y-69452380D02*
X114023809Y-68452380D01*
X113928571Y-68595238D01*
X113833333Y-68690476D01*
X113738095Y-68738095D01*
X155238095Y-61952380D02*
X155809523Y-61952380D01*
X155523809Y-62952380D02*
X155523809Y-61952380D01*
X156142857Y-62952380D02*
X156142857Y-61952380D01*
X156523809Y-61952380D01*
X156619047Y-62000000D01*
X156666666Y-62047619D01*
X156714285Y-62142857D01*
X156714285Y-62285714D01*
X156666666Y-62380952D01*
X156619047Y-62428571D01*
X156523809Y-62476190D01*
X156142857Y-62476190D01*
X157666666Y-62952380D02*
X157095238Y-62952380D01*
X157380952Y-62952380D02*
X157380952Y-61952380D01*
X157285714Y-62095238D01*
X157190476Y-62190476D01*
X157095238Y-62238095D01*
X123738095Y-118404761D02*
X123880952Y-118452380D01*
X124119047Y-118452380D01*
X124214285Y-118404761D01*
X124261904Y-118357142D01*
X124309523Y-118261904D01*
X124309523Y-118166666D01*
X124261904Y-118071428D01*
X124214285Y-118023809D01*
X124119047Y-117976190D01*
X123928571Y-117928571D01*
X123833333Y-117880952D01*
X123785714Y-117833333D01*
X123738095Y-117738095D01*
X123738095Y-117642857D01*
X123785714Y-117547619D01*
X123833333Y-117500000D01*
X123928571Y-117452380D01*
X124166666Y-117452380D01*
X124309523Y-117500000D01*
X125261904Y-118452380D02*
X124690476Y-118452380D01*
X124976190Y-118452380D02*
X124976190Y-117452380D01*
X124880952Y-117595238D01*
X124785714Y-117690476D01*
X124690476Y-117738095D01*
X145404761Y-99952380D02*
X145071428Y-99476190D01*
X144833333Y-99952380D02*
X144833333Y-98952380D01*
X145214285Y-98952380D01*
X145309523Y-99000000D01*
X145357142Y-99047619D01*
X145404761Y-99142857D01*
X145404761Y-99285714D01*
X145357142Y-99380952D01*
X145309523Y-99428571D01*
X145214285Y-99476190D01*
X144833333Y-99476190D01*
X145690476Y-98952380D02*
X146023809Y-99952380D01*
X146357142Y-98952380D01*
X146595238Y-98952380D02*
X147214285Y-98952380D01*
X146880952Y-99333333D01*
X147023809Y-99333333D01*
X147119047Y-99380952D01*
X147166666Y-99428571D01*
X147214285Y-99523809D01*
X147214285Y-99761904D01*
X147166666Y-99857142D01*
X147119047Y-99904761D01*
X147023809Y-99952380D01*
X146738095Y-99952380D01*
X146642857Y-99904761D01*
X146595238Y-99857142D01*
X159404761Y-124292380D02*
X159071428Y-123816190D01*
X158833333Y-124292380D02*
X158833333Y-123292380D01*
X159214285Y-123292380D01*
X159309523Y-123340000D01*
X159357142Y-123387619D01*
X159404761Y-123482857D01*
X159404761Y-123625714D01*
X159357142Y-123720952D01*
X159309523Y-123768571D01*
X159214285Y-123816190D01*
X158833333Y-123816190D01*
X159690476Y-123292380D02*
X160023809Y-124292380D01*
X160357142Y-123292380D01*
X160642857Y-123387619D02*
X160690476Y-123340000D01*
X160785714Y-123292380D01*
X161023809Y-123292380D01*
X161119047Y-123340000D01*
X161166666Y-123387619D01*
X161214285Y-123482857D01*
X161214285Y-123578095D01*
X161166666Y-123720952D01*
X160595238Y-124292380D01*
X161214285Y-124292380D01*
X169904761Y-124292380D02*
X169571428Y-123816190D01*
X169333333Y-124292380D02*
X169333333Y-123292380D01*
X169714285Y-123292380D01*
X169809523Y-123340000D01*
X169857142Y-123387619D01*
X169904761Y-123482857D01*
X169904761Y-123625714D01*
X169857142Y-123720952D01*
X169809523Y-123768571D01*
X169714285Y-123816190D01*
X169333333Y-123816190D01*
X170190476Y-123292380D02*
X170523809Y-124292380D01*
X170857142Y-123292380D01*
X171714285Y-124292380D02*
X171142857Y-124292380D01*
X171428571Y-124292380D02*
X171428571Y-123292380D01*
X171333333Y-123435238D01*
X171238095Y-123530476D01*
X171142857Y-123578095D01*
X168878571Y-111634523D02*
X168595238Y-111229761D01*
X168392857Y-111634523D02*
X168392857Y-110784523D01*
X168716666Y-110784523D01*
X168797619Y-110825000D01*
X168838095Y-110865476D01*
X168878571Y-110946428D01*
X168878571Y-111067857D01*
X168838095Y-111148809D01*
X168797619Y-111189285D01*
X168716666Y-111229761D01*
X168392857Y-111229761D01*
X169688095Y-111634523D02*
X169202380Y-111634523D01*
X169445238Y-111634523D02*
X169445238Y-110784523D01*
X169364285Y-110905952D01*
X169283333Y-110986904D01*
X169202380Y-111027380D01*
X169971428Y-110784523D02*
X170497619Y-110784523D01*
X170214285Y-111108333D01*
X170335714Y-111108333D01*
X170416666Y-111148809D01*
X170457142Y-111189285D01*
X170497619Y-111270238D01*
X170497619Y-111472619D01*
X170457142Y-111553571D01*
X170416666Y-111594047D01*
X170335714Y-111634523D01*
X170092857Y-111634523D01*
X170011904Y-111594047D01*
X169971428Y-111553571D01*
X171403571Y-111584523D02*
X171120238Y-111179761D01*
X170917857Y-111584523D02*
X170917857Y-110734523D01*
X171241666Y-110734523D01*
X171322619Y-110775000D01*
X171363095Y-110815476D01*
X171403571Y-110896428D01*
X171403571Y-111017857D01*
X171363095Y-111098809D01*
X171322619Y-111139285D01*
X171241666Y-111179761D01*
X170917857Y-111179761D01*
X172213095Y-111584523D02*
X171727380Y-111584523D01*
X171970238Y-111584523D02*
X171970238Y-110734523D01*
X171889285Y-110855952D01*
X171808333Y-110936904D01*
X171727380Y-110977380D01*
X172536904Y-110815476D02*
X172577380Y-110775000D01*
X172658333Y-110734523D01*
X172860714Y-110734523D01*
X172941666Y-110775000D01*
X172982142Y-110815476D01*
X173022619Y-110896428D01*
X173022619Y-110977380D01*
X172982142Y-111098809D01*
X172496428Y-111584523D01*
X173022619Y-111584523D01*
X163803571Y-111634523D02*
X163520238Y-111229761D01*
X163317857Y-111634523D02*
X163317857Y-110784523D01*
X163641666Y-110784523D01*
X163722619Y-110825000D01*
X163763095Y-110865476D01*
X163803571Y-110946428D01*
X163803571Y-111067857D01*
X163763095Y-111148809D01*
X163722619Y-111189285D01*
X163641666Y-111229761D01*
X163317857Y-111229761D01*
X164613095Y-111634523D02*
X164127380Y-111634523D01*
X164370238Y-111634523D02*
X164370238Y-110784523D01*
X164289285Y-110905952D01*
X164208333Y-110986904D01*
X164127380Y-111027380D01*
X165422619Y-111634523D02*
X164936904Y-111634523D01*
X165179761Y-111634523D02*
X165179761Y-110784523D01*
X165098809Y-110905952D01*
X165017857Y-110986904D01*
X164936904Y-111027380D01*
X166343571Y-111654523D02*
X166060238Y-111249761D01*
X165857857Y-111654523D02*
X165857857Y-110804523D01*
X166181666Y-110804523D01*
X166262619Y-110845000D01*
X166303095Y-110885476D01*
X166343571Y-110966428D01*
X166343571Y-111087857D01*
X166303095Y-111168809D01*
X166262619Y-111209285D01*
X166181666Y-111249761D01*
X165857857Y-111249761D01*
X167153095Y-111654523D02*
X166667380Y-111654523D01*
X166910238Y-111654523D02*
X166910238Y-110804523D01*
X166829285Y-110925952D01*
X166748333Y-111006904D01*
X166667380Y-111047380D01*
X167679285Y-110804523D02*
X167760238Y-110804523D01*
X167841190Y-110845000D01*
X167881666Y-110885476D01*
X167922142Y-110966428D01*
X167962619Y-111128333D01*
X167962619Y-111330714D01*
X167922142Y-111492619D01*
X167881666Y-111573571D01*
X167841190Y-111614047D01*
X167760238Y-111654523D01*
X167679285Y-111654523D01*
X167598333Y-111614047D01*
X167557857Y-111573571D01*
X167517380Y-111492619D01*
X167476904Y-111330714D01*
X167476904Y-111128333D01*
X167517380Y-110966428D01*
X167557857Y-110885476D01*
X167598333Y-110845000D01*
X167679285Y-110804523D01*
X159023333Y-111702380D02*
X158690000Y-111226190D01*
X158451904Y-111702380D02*
X158451904Y-110702380D01*
X158832857Y-110702380D01*
X158928095Y-110750000D01*
X158975714Y-110797619D01*
X159023333Y-110892857D01*
X159023333Y-111035714D01*
X158975714Y-111130952D01*
X158928095Y-111178571D01*
X158832857Y-111226190D01*
X158451904Y-111226190D01*
X159499523Y-111702380D02*
X159690000Y-111702380D01*
X159785238Y-111654761D01*
X159832857Y-111607142D01*
X159928095Y-111464285D01*
X159975714Y-111273809D01*
X159975714Y-110892857D01*
X159928095Y-110797619D01*
X159880476Y-110750000D01*
X159785238Y-110702380D01*
X159594761Y-110702380D01*
X159499523Y-110750000D01*
X159451904Y-110797619D01*
X159404285Y-110892857D01*
X159404285Y-111130952D01*
X159451904Y-111226190D01*
X159499523Y-111273809D01*
X159594761Y-111321428D01*
X159785238Y-111321428D01*
X159880476Y-111273809D01*
X159928095Y-111226190D01*
X159975714Y-111130952D01*
X161633333Y-111702380D02*
X161300000Y-111226190D01*
X161061904Y-111702380D02*
X161061904Y-110702380D01*
X161442857Y-110702380D01*
X161538095Y-110750000D01*
X161585714Y-110797619D01*
X161633333Y-110892857D01*
X161633333Y-111035714D01*
X161585714Y-111130952D01*
X161538095Y-111178571D01*
X161442857Y-111226190D01*
X161061904Y-111226190D01*
X162204761Y-111130952D02*
X162109523Y-111083333D01*
X162061904Y-111035714D01*
X162014285Y-110940476D01*
X162014285Y-110892857D01*
X162061904Y-110797619D01*
X162109523Y-110750000D01*
X162204761Y-110702380D01*
X162395238Y-110702380D01*
X162490476Y-110750000D01*
X162538095Y-110797619D01*
X162585714Y-110892857D01*
X162585714Y-110940476D01*
X162538095Y-111035714D01*
X162490476Y-111083333D01*
X162395238Y-111130952D01*
X162204761Y-111130952D01*
X162109523Y-111178571D01*
X162061904Y-111226190D01*
X162014285Y-111321428D01*
X162014285Y-111511904D01*
X162061904Y-111607142D01*
X162109523Y-111654761D01*
X162204761Y-111702380D01*
X162395238Y-111702380D01*
X162490476Y-111654761D01*
X162538095Y-111607142D01*
X162585714Y-111511904D01*
X162585714Y-111321428D01*
X162538095Y-111226190D01*
X162490476Y-111178571D01*
X162395238Y-111130952D01*
X154033333Y-111702380D02*
X153700000Y-111226190D01*
X153461904Y-111702380D02*
X153461904Y-110702380D01*
X153842857Y-110702380D01*
X153938095Y-110750000D01*
X153985714Y-110797619D01*
X154033333Y-110892857D01*
X154033333Y-111035714D01*
X153985714Y-111130952D01*
X153938095Y-111178571D01*
X153842857Y-111226190D01*
X153461904Y-111226190D01*
X154366666Y-110702380D02*
X155033333Y-110702380D01*
X154604761Y-111702380D01*
X156583333Y-111702380D02*
X156250000Y-111226190D01*
X156011904Y-111702380D02*
X156011904Y-110702380D01*
X156392857Y-110702380D01*
X156488095Y-110750000D01*
X156535714Y-110797619D01*
X156583333Y-110892857D01*
X156583333Y-111035714D01*
X156535714Y-111130952D01*
X156488095Y-111178571D01*
X156392857Y-111226190D01*
X156011904Y-111226190D01*
X157440476Y-110702380D02*
X157250000Y-110702380D01*
X157154761Y-110750000D01*
X157107142Y-110797619D01*
X157011904Y-110940476D01*
X156964285Y-111130952D01*
X156964285Y-111511904D01*
X157011904Y-111607142D01*
X157059523Y-111654761D01*
X157154761Y-111702380D01*
X157345238Y-111702380D01*
X157440476Y-111654761D01*
X157488095Y-111607142D01*
X157535714Y-111511904D01*
X157535714Y-111273809D01*
X157488095Y-111178571D01*
X157440476Y-111130952D01*
X157345238Y-111083333D01*
X157154761Y-111083333D01*
X157059523Y-111130952D01*
X157011904Y-111178571D01*
X156964285Y-111273809D01*
X139303333Y-61402380D02*
X138970000Y-60926190D01*
X138731904Y-61402380D02*
X138731904Y-60402380D01*
X139112857Y-60402380D01*
X139208095Y-60450000D01*
X139255714Y-60497619D01*
X139303333Y-60592857D01*
X139303333Y-60735714D01*
X139255714Y-60830952D01*
X139208095Y-60878571D01*
X139112857Y-60926190D01*
X138731904Y-60926190D01*
X140208095Y-60402380D02*
X139731904Y-60402380D01*
X139684285Y-60878571D01*
X139731904Y-60830952D01*
X139827142Y-60783333D01*
X140065238Y-60783333D01*
X140160476Y-60830952D01*
X140208095Y-60878571D01*
X140255714Y-60973809D01*
X140255714Y-61211904D01*
X140208095Y-61307142D01*
X140160476Y-61354761D01*
X140065238Y-61402380D01*
X139827142Y-61402380D01*
X139731904Y-61354761D01*
X139684285Y-61307142D01*
X131333333Y-61552380D02*
X131000000Y-61076190D01*
X130761904Y-61552380D02*
X130761904Y-60552380D01*
X131142857Y-60552380D01*
X131238095Y-60600000D01*
X131285714Y-60647619D01*
X131333333Y-60742857D01*
X131333333Y-60885714D01*
X131285714Y-60980952D01*
X131238095Y-61028571D01*
X131142857Y-61076190D01*
X130761904Y-61076190D01*
X132190476Y-60885714D02*
X132190476Y-61552380D01*
X131952380Y-60504761D02*
X131714285Y-61219047D01*
X132333333Y-61219047D01*
X123333333Y-62202380D02*
X123000000Y-61726190D01*
X122761904Y-62202380D02*
X122761904Y-61202380D01*
X123142857Y-61202380D01*
X123238095Y-61250000D01*
X123285714Y-61297619D01*
X123333333Y-61392857D01*
X123333333Y-61535714D01*
X123285714Y-61630952D01*
X123238095Y-61678571D01*
X123142857Y-61726190D01*
X122761904Y-61726190D01*
X123666666Y-61202380D02*
X124285714Y-61202380D01*
X123952380Y-61583333D01*
X124095238Y-61583333D01*
X124190476Y-61630952D01*
X124238095Y-61678571D01*
X124285714Y-61773809D01*
X124285714Y-62011904D01*
X124238095Y-62107142D01*
X124190476Y-62154761D01*
X124095238Y-62202380D01*
X123809523Y-62202380D01*
X123714285Y-62154761D01*
X123666666Y-62107142D01*
X120583333Y-62202380D02*
X120250000Y-61726190D01*
X120011904Y-62202380D02*
X120011904Y-61202380D01*
X120392857Y-61202380D01*
X120488095Y-61250000D01*
X120535714Y-61297619D01*
X120583333Y-61392857D01*
X120583333Y-61535714D01*
X120535714Y-61630952D01*
X120488095Y-61678571D01*
X120392857Y-61726190D01*
X120011904Y-61726190D01*
X120964285Y-61297619D02*
X121011904Y-61250000D01*
X121107142Y-61202380D01*
X121345238Y-61202380D01*
X121440476Y-61250000D01*
X121488095Y-61297619D01*
X121535714Y-61392857D01*
X121535714Y-61488095D01*
X121488095Y-61630952D01*
X120916666Y-62202380D01*
X121535714Y-62202380D01*
X114333333Y-62202380D02*
X114000000Y-61726190D01*
X113761904Y-62202380D02*
X113761904Y-61202380D01*
X114142857Y-61202380D01*
X114238095Y-61250000D01*
X114285714Y-61297619D01*
X114333333Y-61392857D01*
X114333333Y-61535714D01*
X114285714Y-61630952D01*
X114238095Y-61678571D01*
X114142857Y-61726190D01*
X113761904Y-61726190D01*
X115285714Y-62202380D02*
X114714285Y-62202380D01*
X115000000Y-62202380D02*
X115000000Y-61202380D01*
X114904761Y-61345238D01*
X114809523Y-61440476D01*
X114714285Y-61488095D01*
X167166666Y-102452380D02*
X167166666Y-103166666D01*
X167119047Y-103309523D01*
X167023809Y-103404761D01*
X166880952Y-103452380D01*
X166785714Y-103452380D01*
X167642857Y-103452380D02*
X167642857Y-102452380D01*
X168023809Y-102452380D01*
X168119047Y-102500000D01*
X168166666Y-102547619D01*
X168214285Y-102642857D01*
X168214285Y-102785714D01*
X168166666Y-102880952D01*
X168119047Y-102928571D01*
X168023809Y-102976190D01*
X167642857Y-102976190D01*
X168785714Y-102880952D02*
X168690476Y-102833333D01*
X168642857Y-102785714D01*
X168595238Y-102690476D01*
X168595238Y-102642857D01*
X168642857Y-102547619D01*
X168690476Y-102500000D01*
X168785714Y-102452380D01*
X168976190Y-102452380D01*
X169071428Y-102500000D01*
X169119047Y-102547619D01*
X169166666Y-102642857D01*
X169166666Y-102690476D01*
X169119047Y-102785714D01*
X169071428Y-102833333D01*
X168976190Y-102880952D01*
X168785714Y-102880952D01*
X168690476Y-102928571D01*
X168642857Y-102976190D01*
X168595238Y-103071428D01*
X168595238Y-103261904D01*
X168642857Y-103357142D01*
X168690476Y-103404761D01*
X168785714Y-103452380D01*
X168976190Y-103452380D01*
X169071428Y-103404761D01*
X169119047Y-103357142D01*
X169166666Y-103261904D01*
X169166666Y-103071428D01*
X169119047Y-102976190D01*
X169071428Y-102928571D01*
X168976190Y-102880952D01*
X162166666Y-98452380D02*
X162166666Y-99166666D01*
X162119047Y-99309523D01*
X162023809Y-99404761D01*
X161880952Y-99452380D01*
X161785714Y-99452380D01*
X162642857Y-99452380D02*
X162642857Y-98452380D01*
X163023809Y-98452380D01*
X163119047Y-98500000D01*
X163166666Y-98547619D01*
X163214285Y-98642857D01*
X163214285Y-98785714D01*
X163166666Y-98880952D01*
X163119047Y-98928571D01*
X163023809Y-98976190D01*
X162642857Y-98976190D01*
X163547619Y-98452380D02*
X164214285Y-98452380D01*
X163785714Y-99452380D01*
X143916666Y-100952380D02*
X143916666Y-101666666D01*
X143869047Y-101809523D01*
X143773809Y-101904761D01*
X143630952Y-101952380D01*
X143535714Y-101952380D01*
X144392857Y-101952380D02*
X144392857Y-100952380D01*
X144773809Y-100952380D01*
X144869047Y-101000000D01*
X144916666Y-101047619D01*
X144964285Y-101142857D01*
X144964285Y-101285714D01*
X144916666Y-101380952D01*
X144869047Y-101428571D01*
X144773809Y-101476190D01*
X144392857Y-101476190D01*
X145821428Y-100952380D02*
X145630952Y-100952380D01*
X145535714Y-101000000D01*
X145488095Y-101047619D01*
X145392857Y-101190476D01*
X145345238Y-101380952D01*
X145345238Y-101761904D01*
X145392857Y-101857142D01*
X145440476Y-101904761D01*
X145535714Y-101952380D01*
X145726190Y-101952380D01*
X145821428Y-101904761D01*
X145869047Y-101857142D01*
X145916666Y-101761904D01*
X145916666Y-101523809D01*
X145869047Y-101428571D01*
X145821428Y-101380952D01*
X145726190Y-101333333D01*
X145535714Y-101333333D01*
X145440476Y-101380952D01*
X145392857Y-101428571D01*
X145345238Y-101523809D01*
X139916666Y-98202380D02*
X139916666Y-98916666D01*
X139869047Y-99059523D01*
X139773809Y-99154761D01*
X139630952Y-99202380D01*
X139535714Y-99202380D01*
X140392857Y-99202380D02*
X140392857Y-98202380D01*
X140773809Y-98202380D01*
X140869047Y-98250000D01*
X140916666Y-98297619D01*
X140964285Y-98392857D01*
X140964285Y-98535714D01*
X140916666Y-98630952D01*
X140869047Y-98678571D01*
X140773809Y-98726190D01*
X140392857Y-98726190D01*
X141869047Y-98202380D02*
X141392857Y-98202380D01*
X141345238Y-98678571D01*
X141392857Y-98630952D01*
X141488095Y-98583333D01*
X141726190Y-98583333D01*
X141821428Y-98630952D01*
X141869047Y-98678571D01*
X141916666Y-98773809D01*
X141916666Y-99011904D01*
X141869047Y-99107142D01*
X141821428Y-99154761D01*
X141726190Y-99202380D01*
X141488095Y-99202380D01*
X141392857Y-99154761D01*
X141345238Y-99107142D01*
X160916666Y-101452380D02*
X160916666Y-102166666D01*
X160869047Y-102309523D01*
X160773809Y-102404761D01*
X160630952Y-102452380D01*
X160535714Y-102452380D01*
X161392857Y-102452380D02*
X161392857Y-101452380D01*
X161773809Y-101452380D01*
X161869047Y-101500000D01*
X161916666Y-101547619D01*
X161964285Y-101642857D01*
X161964285Y-101785714D01*
X161916666Y-101880952D01*
X161869047Y-101928571D01*
X161773809Y-101976190D01*
X161392857Y-101976190D01*
X162821428Y-101785714D02*
X162821428Y-102452380D01*
X162583333Y-101404761D02*
X162345238Y-102119047D01*
X162964285Y-102119047D01*
X166666666Y-121952380D02*
X166666666Y-122666666D01*
X166619047Y-122809523D01*
X166523809Y-122904761D01*
X166380952Y-122952380D01*
X166285714Y-122952380D01*
X167142857Y-122952380D02*
X167142857Y-121952380D01*
X167523809Y-121952380D01*
X167619047Y-122000000D01*
X167666666Y-122047619D01*
X167714285Y-122142857D01*
X167714285Y-122285714D01*
X167666666Y-122380952D01*
X167619047Y-122428571D01*
X167523809Y-122476190D01*
X167142857Y-122476190D01*
X168047619Y-121952380D02*
X168666666Y-121952380D01*
X168333333Y-122333333D01*
X168476190Y-122333333D01*
X168571428Y-122380952D01*
X168619047Y-122428571D01*
X168666666Y-122523809D01*
X168666666Y-122761904D01*
X168619047Y-122857142D01*
X168571428Y-122904761D01*
X168476190Y-122952380D01*
X168190476Y-122952380D01*
X168095238Y-122904761D01*
X168047619Y-122857142D01*
X151466666Y-121552380D02*
X151466666Y-122266666D01*
X151419047Y-122409523D01*
X151323809Y-122504761D01*
X151180952Y-122552380D01*
X151085714Y-122552380D01*
X151942857Y-122552380D02*
X151942857Y-121552380D01*
X152323809Y-121552380D01*
X152419047Y-121600000D01*
X152466666Y-121647619D01*
X152514285Y-121742857D01*
X152514285Y-121885714D01*
X152466666Y-121980952D01*
X152419047Y-122028571D01*
X152323809Y-122076190D01*
X151942857Y-122076190D01*
X152895238Y-121647619D02*
X152942857Y-121600000D01*
X153038095Y-121552380D01*
X153276190Y-121552380D01*
X153371428Y-121600000D01*
X153419047Y-121647619D01*
X153466666Y-121742857D01*
X153466666Y-121838095D01*
X153419047Y-121980952D01*
X152847619Y-122552380D01*
X153466666Y-122552380D01*
X178916666Y-126452380D02*
X178916666Y-127166666D01*
X178869047Y-127309523D01*
X178773809Y-127404761D01*
X178630952Y-127452380D01*
X178535714Y-127452380D01*
X179392857Y-127452380D02*
X179392857Y-126452380D01*
X179773809Y-126452380D01*
X179869047Y-126500000D01*
X179916666Y-126547619D01*
X179964285Y-126642857D01*
X179964285Y-126785714D01*
X179916666Y-126880952D01*
X179869047Y-126928571D01*
X179773809Y-126976190D01*
X179392857Y-126976190D01*
X180916666Y-127452380D02*
X180345238Y-127452380D01*
X180630952Y-127452380D02*
X180630952Y-126452380D01*
X180535714Y-126595238D01*
X180440476Y-126690476D01*
X180345238Y-126738095D01*
X177452380Y-129314285D02*
X177452380Y-129885714D01*
X177452380Y-129600000D02*
X176452380Y-129600000D01*
X176595238Y-129695238D01*
X176690476Y-129790476D01*
X176738095Y-129885714D01*
X176452380Y-124733333D02*
X176452380Y-124114285D01*
X176833333Y-124447619D01*
X176833333Y-124304761D01*
X176880952Y-124209523D01*
X176928571Y-124161904D01*
X177023809Y-124114285D01*
X177261904Y-124114285D01*
X177357142Y-124161904D01*
X177404761Y-124209523D01*
X177452380Y-124304761D01*
X177452380Y-124590476D01*
X177404761Y-124685714D01*
X177357142Y-124733333D01*
X166666666Y-66952380D02*
X166666666Y-67666666D01*
X166619047Y-67809523D01*
X166523809Y-67904761D01*
X166380952Y-67952380D01*
X166285714Y-67952380D01*
X167047619Y-66952380D02*
X167714285Y-66952380D01*
X167285714Y-67952380D01*
X132166666Y-97452380D02*
X132166666Y-98166666D01*
X132119047Y-98309523D01*
X132023809Y-98404761D01*
X131880952Y-98452380D01*
X131785714Y-98452380D01*
X133119047Y-97452380D02*
X132642857Y-97452380D01*
X132595238Y-97928571D01*
X132642857Y-97880952D01*
X132738095Y-97833333D01*
X132976190Y-97833333D01*
X133071428Y-97880952D01*
X133119047Y-97928571D01*
X133166666Y-98023809D01*
X133166666Y-98261904D01*
X133119047Y-98357142D01*
X133071428Y-98404761D01*
X132976190Y-98452380D01*
X132738095Y-98452380D01*
X132642857Y-98404761D01*
X132595238Y-98357142D01*
X122666666Y-102702380D02*
X122666666Y-103416666D01*
X122619047Y-103559523D01*
X122523809Y-103654761D01*
X122380952Y-103702380D01*
X122285714Y-103702380D01*
X123571428Y-103035714D02*
X123571428Y-103702380D01*
X123333333Y-102654761D02*
X123095238Y-103369047D01*
X123714285Y-103369047D01*
X114166666Y-126702380D02*
X114166666Y-127416666D01*
X114119047Y-127559523D01*
X114023809Y-127654761D01*
X113880952Y-127702380D01*
X113785714Y-127702380D01*
X114547619Y-126702380D02*
X115166666Y-126702380D01*
X114833333Y-127083333D01*
X114976190Y-127083333D01*
X115071428Y-127130952D01*
X115119047Y-127178571D01*
X115166666Y-127273809D01*
X115166666Y-127511904D01*
X115119047Y-127607142D01*
X115071428Y-127654761D01*
X114976190Y-127702380D01*
X114690476Y-127702380D01*
X114595238Y-127654761D01*
X114547619Y-127607142D01*
X119066666Y-128452380D02*
X119066666Y-129166666D01*
X119019047Y-129309523D01*
X118923809Y-129404761D01*
X118780952Y-129452380D01*
X118685714Y-129452380D01*
X119495238Y-128547619D02*
X119542857Y-128500000D01*
X119638095Y-128452380D01*
X119876190Y-128452380D01*
X119971428Y-128500000D01*
X120019047Y-128547619D01*
X120066666Y-128642857D01*
X120066666Y-128738095D01*
X120019047Y-128880952D01*
X119447619Y-129452380D01*
X120066666Y-129452380D01*
X114416666Y-104952380D02*
X114416666Y-105666666D01*
X114369047Y-105809523D01*
X114273809Y-105904761D01*
X114130952Y-105952380D01*
X114035714Y-105952380D01*
X115416666Y-105952380D02*
X114845238Y-105952380D01*
X115130952Y-105952380D02*
X115130952Y-104952380D01*
X115035714Y-105095238D01*
X114940476Y-105190476D01*
X114845238Y-105238095D01*
X183541904Y-125552380D02*
X183541904Y-124552380D01*
X183780000Y-124552380D01*
X183922857Y-124600000D01*
X184018095Y-124695238D01*
X184065714Y-124790476D01*
X184113333Y-124980952D01*
X184113333Y-125123809D01*
X184065714Y-125314285D01*
X184018095Y-125409523D01*
X183922857Y-125504761D01*
X183780000Y-125552380D01*
X183541904Y-125552380D01*
X184494285Y-124647619D02*
X184541904Y-124600000D01*
X184637142Y-124552380D01*
X184875238Y-124552380D01*
X184970476Y-124600000D01*
X185018095Y-124647619D01*
X185065714Y-124742857D01*
X185065714Y-124838095D01*
X185018095Y-124980952D01*
X184446666Y-125552380D01*
X185065714Y-125552380D01*
X177038095Y-123252380D02*
X177038095Y-122252380D01*
X177609523Y-123252380D02*
X177180952Y-122680952D01*
X177609523Y-122252380D02*
X177038095Y-122823809D01*
X143281904Y-113382380D02*
X143281904Y-112382380D01*
X143520000Y-112382380D01*
X143662857Y-112430000D01*
X143758095Y-112525238D01*
X143805714Y-112620476D01*
X143853333Y-112810952D01*
X143853333Y-112953809D01*
X143805714Y-113144285D01*
X143758095Y-113239523D01*
X143662857Y-113334761D01*
X143520000Y-113382380D01*
X143281904Y-113382380D01*
X144805714Y-113382380D02*
X144234285Y-113382380D01*
X144520000Y-113382380D02*
X144520000Y-112382380D01*
X144424761Y-112525238D01*
X144329523Y-112620476D01*
X144234285Y-112668095D01*
X138678095Y-113752380D02*
X138678095Y-112752380D01*
X139249523Y-113752380D02*
X138820952Y-113180952D01*
X139249523Y-112752380D02*
X138678095Y-113323809D01*
X162833333Y-67357142D02*
X162785714Y-67404761D01*
X162642857Y-67452380D01*
X162547619Y-67452380D01*
X162404761Y-67404761D01*
X162309523Y-67309523D01*
X162261904Y-67214285D01*
X162214285Y-67023809D01*
X162214285Y-66880952D01*
X162261904Y-66690476D01*
X162309523Y-66595238D01*
X162404761Y-66500000D01*
X162547619Y-66452380D01*
X162642857Y-66452380D01*
X162785714Y-66500000D01*
X162833333Y-66547619D01*
X163690476Y-66452380D02*
X163500000Y-66452380D01*
X163404761Y-66500000D01*
X163357142Y-66547619D01*
X163261904Y-66690476D01*
X163214285Y-66880952D01*
X163214285Y-67261904D01*
X163261904Y-67357142D01*
X163309523Y-67404761D01*
X163404761Y-67452380D01*
X163595238Y-67452380D01*
X163690476Y-67404761D01*
X163738095Y-67357142D01*
X163785714Y-67261904D01*
X163785714Y-67023809D01*
X163738095Y-66928571D01*
X163690476Y-66880952D01*
X163595238Y-66833333D01*
X163404761Y-66833333D01*
X163309523Y-66880952D01*
X163261904Y-66928571D01*
X163214285Y-67023809D01*
X122333333Y-97107142D02*
X122285714Y-97154761D01*
X122142857Y-97202380D01*
X122047619Y-97202380D01*
X121904761Y-97154761D01*
X121809523Y-97059523D01*
X121761904Y-96964285D01*
X121714285Y-96773809D01*
X121714285Y-96630952D01*
X121761904Y-96440476D01*
X121809523Y-96345238D01*
X121904761Y-96250000D01*
X122047619Y-96202380D01*
X122142857Y-96202380D01*
X122285714Y-96250000D01*
X122333333Y-96297619D01*
X123238095Y-96202380D02*
X122761904Y-96202380D01*
X122714285Y-96678571D01*
X122761904Y-96630952D01*
X122857142Y-96583333D01*
X123095238Y-96583333D01*
X123190476Y-96630952D01*
X123238095Y-96678571D01*
X123285714Y-96773809D01*
X123285714Y-97011904D01*
X123238095Y-97107142D01*
X123190476Y-97154761D01*
X123095238Y-97202380D01*
X122857142Y-97202380D01*
X122761904Y-97154761D01*
X122714285Y-97107142D01*
X183820833Y-127537142D02*
X183773214Y-127584761D01*
X183630357Y-127632380D01*
X183535119Y-127632380D01*
X183392261Y-127584761D01*
X183297023Y-127489523D01*
X183249404Y-127394285D01*
X183201785Y-127203809D01*
X183201785Y-127060952D01*
X183249404Y-126870476D01*
X183297023Y-126775238D01*
X183392261Y-126680000D01*
X183535119Y-126632380D01*
X183630357Y-126632380D01*
X183773214Y-126680000D01*
X183820833Y-126727619D01*
X184677976Y-126965714D02*
X184677976Y-127632380D01*
X184439880Y-126584761D02*
X184201785Y-127299047D01*
X184820833Y-127299047D01*
X110083333Y-127357142D02*
X110035714Y-127404761D01*
X109892857Y-127452380D01*
X109797619Y-127452380D01*
X109654761Y-127404761D01*
X109559523Y-127309523D01*
X109511904Y-127214285D01*
X109464285Y-127023809D01*
X109464285Y-126880952D01*
X109511904Y-126690476D01*
X109559523Y-126595238D01*
X109654761Y-126500000D01*
X109797619Y-126452380D01*
X109892857Y-126452380D01*
X110035714Y-126500000D01*
X110083333Y-126547619D01*
X110416666Y-126452380D02*
X111035714Y-126452380D01*
X110702380Y-126833333D01*
X110845238Y-126833333D01*
X110940476Y-126880952D01*
X110988095Y-126928571D01*
X111035714Y-127023809D01*
X111035714Y-127261904D01*
X110988095Y-127357142D01*
X110940476Y-127404761D01*
X110845238Y-127452380D01*
X110559523Y-127452380D01*
X110464285Y-127404761D01*
X110416666Y-127357142D01*
X140333333Y-123857142D02*
X140285714Y-123904761D01*
X140142857Y-123952380D01*
X140047619Y-123952380D01*
X139904761Y-123904761D01*
X139809523Y-123809523D01*
X139761904Y-123714285D01*
X139714285Y-123523809D01*
X139714285Y-123380952D01*
X139761904Y-123190476D01*
X139809523Y-123095238D01*
X139904761Y-123000000D01*
X140047619Y-122952380D01*
X140142857Y-122952380D01*
X140285714Y-123000000D01*
X140333333Y-123047619D01*
X140714285Y-123047619D02*
X140761904Y-123000000D01*
X140857142Y-122952380D01*
X141095238Y-122952380D01*
X141190476Y-123000000D01*
X141238095Y-123047619D01*
X141285714Y-123142857D01*
X141285714Y-123238095D01*
X141238095Y-123380952D01*
X140666666Y-123952380D01*
X141285714Y-123952380D01*
X136333333Y-128857142D02*
X136285714Y-128904761D01*
X136142857Y-128952380D01*
X136047619Y-128952380D01*
X135904761Y-128904761D01*
X135809523Y-128809523D01*
X135761904Y-128714285D01*
X135714285Y-128523809D01*
X135714285Y-128380952D01*
X135761904Y-128190476D01*
X135809523Y-128095238D01*
X135904761Y-128000000D01*
X136047619Y-127952380D01*
X136142857Y-127952380D01*
X136285714Y-128000000D01*
X136333333Y-128047619D01*
X137285714Y-128952380D02*
X136714285Y-128952380D01*
X137000000Y-128952380D02*
X137000000Y-127952380D01*
X136904761Y-128095238D01*
X136809523Y-128190476D01*
X136714285Y-128238095D01*
X193825904Y-92908380D02*
X193825904Y-91908380D01*
X194206857Y-91908380D01*
X194302095Y-91956000D01*
X194349714Y-92003619D01*
X194397333Y-92098857D01*
X194397333Y-92241714D01*
X194349714Y-92336952D01*
X194302095Y-92384571D01*
X194206857Y-92432190D01*
X193825904Y-92432190D01*
X195349714Y-92908380D02*
X194778285Y-92908380D01*
X195064000Y-92908380D02*
X195064000Y-91908380D01*
X194968761Y-92051238D01*
X194873523Y-92146476D01*
X194778285Y-92194095D01*
X133261904Y-116784380D02*
X133261904Y-115784380D01*
X133642857Y-115784380D01*
X133738095Y-115832000D01*
X133785714Y-115879619D01*
X133833333Y-115974857D01*
X133833333Y-116117714D01*
X133785714Y-116212952D01*
X133738095Y-116260571D01*
X133642857Y-116308190D01*
X133261904Y-116308190D01*
X134214285Y-115879619D02*
X134261904Y-115832000D01*
X134357142Y-115784380D01*
X134595238Y-115784380D01*
X134690476Y-115832000D01*
X134738095Y-115879619D01*
X134785714Y-115974857D01*
X134785714Y-116070095D01*
X134738095Y-116212952D01*
X134166666Y-116784380D01*
X134785714Y-116784380D01*
X162329904Y-117038380D02*
X162329904Y-116038380D01*
X162710857Y-116038380D01*
X162806095Y-116086000D01*
X162853714Y-116133619D01*
X162901333Y-116228857D01*
X162901333Y-116371714D01*
X162853714Y-116466952D01*
X162806095Y-116514571D01*
X162710857Y-116562190D01*
X162329904Y-116562190D01*
X163234666Y-116038380D02*
X163853714Y-116038380D01*
X163520380Y-116419333D01*
X163663238Y-116419333D01*
X163758476Y-116466952D01*
X163806095Y-116514571D01*
X163853714Y-116609809D01*
X163853714Y-116847904D01*
X163806095Y-116943142D01*
X163758476Y-116990761D01*
X163663238Y-117038380D01*
X163377523Y-117038380D01*
X163282285Y-116990761D01*
X163234666Y-116943142D01*
X185189904Y-116784380D02*
X185189904Y-115784380D01*
X185570857Y-115784380D01*
X185666095Y-115832000D01*
X185713714Y-115879619D01*
X185761333Y-115974857D01*
X185761333Y-116117714D01*
X185713714Y-116212952D01*
X185666095Y-116260571D01*
X185570857Y-116308190D01*
X185189904Y-116308190D01*
X186618476Y-116117714D02*
X186618476Y-116784380D01*
X186380380Y-115736761D02*
X186142285Y-116451047D01*
X186761333Y-116451047D01*
X118261904Y-71452380D02*
X118261904Y-70452380D01*
X118642857Y-70452380D01*
X118738095Y-70500000D01*
X118785714Y-70547619D01*
X118833333Y-70642857D01*
X118833333Y-70785714D01*
X118785714Y-70880952D01*
X118738095Y-70928571D01*
X118642857Y-70976190D01*
X118261904Y-70976190D01*
X119738095Y-70452380D02*
X119261904Y-70452380D01*
X119214285Y-70928571D01*
X119261904Y-70880952D01*
X119357142Y-70833333D01*
X119595238Y-70833333D01*
X119690476Y-70880952D01*
X119738095Y-70928571D01*
X119785714Y-71023809D01*
X119785714Y-71261904D01*
X119738095Y-71357142D01*
X119690476Y-71404761D01*
X119595238Y-71452380D01*
X119357142Y-71452380D01*
X119261904Y-71404761D01*
X119214285Y-71357142D01*
X156561904Y-68902380D02*
X156561904Y-67902380D01*
X156942857Y-67902380D01*
X157038095Y-67950000D01*
X157085714Y-67997619D01*
X157133333Y-68092857D01*
X157133333Y-68235714D01*
X157085714Y-68330952D01*
X157038095Y-68378571D01*
X156942857Y-68426190D01*
X156561904Y-68426190D01*
X157990476Y-67902380D02*
X157800000Y-67902380D01*
X157704761Y-67950000D01*
X157657142Y-67997619D01*
X157561904Y-68140476D01*
X157514285Y-68330952D01*
X157514285Y-68711904D01*
X157561904Y-68807142D01*
X157609523Y-68854761D01*
X157704761Y-68902380D01*
X157895238Y-68902380D01*
X157990476Y-68854761D01*
X158038095Y-68807142D01*
X158085714Y-68711904D01*
X158085714Y-68473809D01*
X158038095Y-68378571D01*
X157990476Y-68330952D01*
X157895238Y-68283333D01*
X157704761Y-68283333D01*
X157609523Y-68330952D01*
X157561904Y-68378571D01*
X157514285Y-68473809D01*
X180109904Y-74112380D02*
X180109904Y-73112380D01*
X180490857Y-73112380D01*
X180586095Y-73160000D01*
X180633714Y-73207619D01*
X180681333Y-73302857D01*
X180681333Y-73445714D01*
X180633714Y-73540952D01*
X180586095Y-73588571D01*
X180490857Y-73636190D01*
X180109904Y-73636190D01*
X181014666Y-73112380D02*
X181681333Y-73112380D01*
X181252761Y-74112380D01*
M02*
