G04 #@! TF.GenerationSoftware,KiCad,Pcbnew,(5.1.5)-3*
G04 #@! TF.CreationDate,2020-08-08T04:04:00-04:00*
G04 #@! TF.ProjectId,LT3081-ARDUINO-HEADERS,4c543330-3831-42d4-9152-4455494e4f2d,rev?*
G04 #@! TF.SameCoordinates,Original*
G04 #@! TF.FileFunction,Soldermask,Top*
G04 #@! TF.FilePolarity,Negative*
%FSLAX46Y46*%
G04 Gerber Fmt 4.6, Leading zero omitted, Abs format (unit mm)*
G04 Created by KiCad (PCBNEW (5.1.5)-3) date 2020-08-08 04:04:00*
%MOMM*%
%LPD*%
G04 APERTURE LIST*
%ADD10C,1.000000*%
%ADD11O,1.727200X1.727200*%
%ADD12C,1.727200*%
%ADD13O,1.700000X1.700000*%
%ADD14R,1.700000X1.700000*%
%ADD15R,10.800000X9.400000*%
%ADD16R,0.800000X4.600000*%
%ADD17O,1.905000X2.000000*%
%ADD18R,1.905000X2.000000*%
%ADD19C,0.100000*%
%ADD20C,2.600000*%
%ADD21C,2.850000*%
%ADD22R,2.850000X2.850000*%
%ADD23C,1.440000*%
%ADD24R,1.500000X1.000000*%
%ADD25C,1.600000*%
%ADD26O,3.500000X2.000000*%
%ADD27O,2.000000X3.300000*%
%ADD28R,2.000000X4.000000*%
%ADD29O,2.200000X2.200000*%
%ADD30R,2.200000X2.200000*%
%ADD31O,1.727200X2.032000*%
G04 APERTURE END LIST*
D10*
X169000000Y-105500000D02*
X121000000Y-105500000D01*
X121000000Y-105500000D02*
X120000000Y-104500000D01*
X169000000Y-73500000D02*
X170000000Y-74500000D01*
X170000000Y-104500000D02*
X169000000Y-105500000D01*
X170000000Y-74500000D02*
X170000000Y-104500000D01*
X121000000Y-73500000D02*
X169000000Y-73500000D01*
X120000000Y-74500000D02*
X121000000Y-73500000D01*
X120000000Y-104500000D02*
X120000000Y-74500000D01*
D11*
X206890000Y-70850000D03*
X204350000Y-70850000D03*
X206890000Y-73390000D03*
X204350000Y-73390000D03*
X206890000Y-75930000D03*
X204350000Y-75930000D03*
X206890000Y-78470000D03*
X204350000Y-78470000D03*
X206890000Y-81010000D03*
X204350000Y-81010000D03*
X206890000Y-83550000D03*
X204350000Y-83550000D03*
X206890000Y-86090000D03*
X204350000Y-86090000D03*
X206890000Y-88630000D03*
X204350000Y-88630000D03*
X206890000Y-91170000D03*
X204350000Y-91170000D03*
X206890000Y-93710000D03*
X204350000Y-93710000D03*
X206890000Y-96250000D03*
X204350000Y-96250000D03*
X206890000Y-98790000D03*
X204350000Y-98790000D03*
X206890000Y-101330000D03*
X204350000Y-101330000D03*
X206890000Y-103870000D03*
X204350000Y-103870000D03*
X206890000Y-106410000D03*
X204350000Y-106410000D03*
X206890000Y-108950000D03*
X204350000Y-108950000D03*
X206890000Y-111490000D03*
X204350000Y-111490000D03*
X206890000Y-114030000D03*
D12*
X204350000Y-114030000D03*
D13*
X179000000Y-114860000D03*
X181540000Y-114860000D03*
X179000000Y-112320000D03*
X181540000Y-112320000D03*
X179000000Y-109780000D03*
X181540000Y-109780000D03*
X179000000Y-107240000D03*
X181540000Y-107240000D03*
X179000000Y-104700000D03*
X181540000Y-104700000D03*
X179000000Y-102160000D03*
X181540000Y-102160000D03*
X179000000Y-99620000D03*
X181540000Y-99620000D03*
X179000000Y-97080000D03*
X181540000Y-97080000D03*
X179000000Y-94540000D03*
X181540000Y-94540000D03*
X179000000Y-92000000D03*
D14*
X181540000Y-92000000D03*
D15*
X163000000Y-84350000D03*
D16*
X166810000Y-93500000D03*
X165540000Y-93500000D03*
X164270000Y-93500000D03*
X163000000Y-93500000D03*
X161730000Y-93500000D03*
X160460000Y-93500000D03*
X159190000Y-93500000D03*
D15*
X151000000Y-84350000D03*
D16*
X154810000Y-93500000D03*
X153540000Y-93500000D03*
X152270000Y-93500000D03*
X151000000Y-93500000D03*
X149730000Y-93500000D03*
X148460000Y-93500000D03*
X147190000Y-93500000D03*
D15*
X139000000Y-84350000D03*
D16*
X142810000Y-93500000D03*
X141540000Y-93500000D03*
X140270000Y-93500000D03*
X139000000Y-93500000D03*
X137730000Y-93500000D03*
X136460000Y-93500000D03*
X135190000Y-93500000D03*
D15*
X127000000Y-84350000D03*
D16*
X130810000Y-93500000D03*
X129540000Y-93500000D03*
X128270000Y-93500000D03*
X127000000Y-93500000D03*
X125730000Y-93500000D03*
X124460000Y-93500000D03*
X123190000Y-93500000D03*
D17*
X146560000Y-128000000D03*
X149100000Y-128000000D03*
D18*
X151640000Y-128000000D03*
D19*
G36*
X148814703Y-63295722D02*
G01*
X148829264Y-63297882D01*
X148843543Y-63301459D01*
X148857403Y-63306418D01*
X148870710Y-63312712D01*
X148883336Y-63320280D01*
X148895159Y-63329048D01*
X148906066Y-63338934D01*
X148915952Y-63349841D01*
X148924720Y-63361664D01*
X148932288Y-63374290D01*
X148938582Y-63387597D01*
X148943541Y-63401457D01*
X148947118Y-63415736D01*
X148949278Y-63430297D01*
X148950000Y-63445000D01*
X148950000Y-63745000D01*
X148949278Y-63759703D01*
X148947118Y-63774264D01*
X148943541Y-63788543D01*
X148938582Y-63802403D01*
X148932288Y-63815710D01*
X148924720Y-63828336D01*
X148915952Y-63840159D01*
X148906066Y-63851066D01*
X148895159Y-63860952D01*
X148883336Y-63869720D01*
X148870710Y-63877288D01*
X148857403Y-63883582D01*
X148843543Y-63888541D01*
X148829264Y-63892118D01*
X148814703Y-63894278D01*
X148800000Y-63895000D01*
X147150000Y-63895000D01*
X147135297Y-63894278D01*
X147120736Y-63892118D01*
X147106457Y-63888541D01*
X147092597Y-63883582D01*
X147079290Y-63877288D01*
X147066664Y-63869720D01*
X147054841Y-63860952D01*
X147043934Y-63851066D01*
X147034048Y-63840159D01*
X147025280Y-63828336D01*
X147017712Y-63815710D01*
X147011418Y-63802403D01*
X147006459Y-63788543D01*
X147002882Y-63774264D01*
X147000722Y-63759703D01*
X147000000Y-63745000D01*
X147000000Y-63445000D01*
X147000722Y-63430297D01*
X147002882Y-63415736D01*
X147006459Y-63401457D01*
X147011418Y-63387597D01*
X147017712Y-63374290D01*
X147025280Y-63361664D01*
X147034048Y-63349841D01*
X147043934Y-63338934D01*
X147054841Y-63329048D01*
X147066664Y-63320280D01*
X147079290Y-63312712D01*
X147092597Y-63306418D01*
X147106457Y-63301459D01*
X147120736Y-63297882D01*
X147135297Y-63295722D01*
X147150000Y-63295000D01*
X148800000Y-63295000D01*
X148814703Y-63295722D01*
G37*
G36*
X148814703Y-64565722D02*
G01*
X148829264Y-64567882D01*
X148843543Y-64571459D01*
X148857403Y-64576418D01*
X148870710Y-64582712D01*
X148883336Y-64590280D01*
X148895159Y-64599048D01*
X148906066Y-64608934D01*
X148915952Y-64619841D01*
X148924720Y-64631664D01*
X148932288Y-64644290D01*
X148938582Y-64657597D01*
X148943541Y-64671457D01*
X148947118Y-64685736D01*
X148949278Y-64700297D01*
X148950000Y-64715000D01*
X148950000Y-65015000D01*
X148949278Y-65029703D01*
X148947118Y-65044264D01*
X148943541Y-65058543D01*
X148938582Y-65072403D01*
X148932288Y-65085710D01*
X148924720Y-65098336D01*
X148915952Y-65110159D01*
X148906066Y-65121066D01*
X148895159Y-65130952D01*
X148883336Y-65139720D01*
X148870710Y-65147288D01*
X148857403Y-65153582D01*
X148843543Y-65158541D01*
X148829264Y-65162118D01*
X148814703Y-65164278D01*
X148800000Y-65165000D01*
X147150000Y-65165000D01*
X147135297Y-65164278D01*
X147120736Y-65162118D01*
X147106457Y-65158541D01*
X147092597Y-65153582D01*
X147079290Y-65147288D01*
X147066664Y-65139720D01*
X147054841Y-65130952D01*
X147043934Y-65121066D01*
X147034048Y-65110159D01*
X147025280Y-65098336D01*
X147017712Y-65085710D01*
X147011418Y-65072403D01*
X147006459Y-65058543D01*
X147002882Y-65044264D01*
X147000722Y-65029703D01*
X147000000Y-65015000D01*
X147000000Y-64715000D01*
X147000722Y-64700297D01*
X147002882Y-64685736D01*
X147006459Y-64671457D01*
X147011418Y-64657597D01*
X147017712Y-64644290D01*
X147025280Y-64631664D01*
X147034048Y-64619841D01*
X147043934Y-64608934D01*
X147054841Y-64599048D01*
X147066664Y-64590280D01*
X147079290Y-64582712D01*
X147092597Y-64576418D01*
X147106457Y-64571459D01*
X147120736Y-64567882D01*
X147135297Y-64565722D01*
X147150000Y-64565000D01*
X148800000Y-64565000D01*
X148814703Y-64565722D01*
G37*
G36*
X148814703Y-65835722D02*
G01*
X148829264Y-65837882D01*
X148843543Y-65841459D01*
X148857403Y-65846418D01*
X148870710Y-65852712D01*
X148883336Y-65860280D01*
X148895159Y-65869048D01*
X148906066Y-65878934D01*
X148915952Y-65889841D01*
X148924720Y-65901664D01*
X148932288Y-65914290D01*
X148938582Y-65927597D01*
X148943541Y-65941457D01*
X148947118Y-65955736D01*
X148949278Y-65970297D01*
X148950000Y-65985000D01*
X148950000Y-66285000D01*
X148949278Y-66299703D01*
X148947118Y-66314264D01*
X148943541Y-66328543D01*
X148938582Y-66342403D01*
X148932288Y-66355710D01*
X148924720Y-66368336D01*
X148915952Y-66380159D01*
X148906066Y-66391066D01*
X148895159Y-66400952D01*
X148883336Y-66409720D01*
X148870710Y-66417288D01*
X148857403Y-66423582D01*
X148843543Y-66428541D01*
X148829264Y-66432118D01*
X148814703Y-66434278D01*
X148800000Y-66435000D01*
X147150000Y-66435000D01*
X147135297Y-66434278D01*
X147120736Y-66432118D01*
X147106457Y-66428541D01*
X147092597Y-66423582D01*
X147079290Y-66417288D01*
X147066664Y-66409720D01*
X147054841Y-66400952D01*
X147043934Y-66391066D01*
X147034048Y-66380159D01*
X147025280Y-66368336D01*
X147017712Y-66355710D01*
X147011418Y-66342403D01*
X147006459Y-66328543D01*
X147002882Y-66314264D01*
X147000722Y-66299703D01*
X147000000Y-66285000D01*
X147000000Y-65985000D01*
X147000722Y-65970297D01*
X147002882Y-65955736D01*
X147006459Y-65941457D01*
X147011418Y-65927597D01*
X147017712Y-65914290D01*
X147025280Y-65901664D01*
X147034048Y-65889841D01*
X147043934Y-65878934D01*
X147054841Y-65869048D01*
X147066664Y-65860280D01*
X147079290Y-65852712D01*
X147092597Y-65846418D01*
X147106457Y-65841459D01*
X147120736Y-65837882D01*
X147135297Y-65835722D01*
X147150000Y-65835000D01*
X148800000Y-65835000D01*
X148814703Y-65835722D01*
G37*
G36*
X148814703Y-67105722D02*
G01*
X148829264Y-67107882D01*
X148843543Y-67111459D01*
X148857403Y-67116418D01*
X148870710Y-67122712D01*
X148883336Y-67130280D01*
X148895159Y-67139048D01*
X148906066Y-67148934D01*
X148915952Y-67159841D01*
X148924720Y-67171664D01*
X148932288Y-67184290D01*
X148938582Y-67197597D01*
X148943541Y-67211457D01*
X148947118Y-67225736D01*
X148949278Y-67240297D01*
X148950000Y-67255000D01*
X148950000Y-67555000D01*
X148949278Y-67569703D01*
X148947118Y-67584264D01*
X148943541Y-67598543D01*
X148938582Y-67612403D01*
X148932288Y-67625710D01*
X148924720Y-67638336D01*
X148915952Y-67650159D01*
X148906066Y-67661066D01*
X148895159Y-67670952D01*
X148883336Y-67679720D01*
X148870710Y-67687288D01*
X148857403Y-67693582D01*
X148843543Y-67698541D01*
X148829264Y-67702118D01*
X148814703Y-67704278D01*
X148800000Y-67705000D01*
X147150000Y-67705000D01*
X147135297Y-67704278D01*
X147120736Y-67702118D01*
X147106457Y-67698541D01*
X147092597Y-67693582D01*
X147079290Y-67687288D01*
X147066664Y-67679720D01*
X147054841Y-67670952D01*
X147043934Y-67661066D01*
X147034048Y-67650159D01*
X147025280Y-67638336D01*
X147017712Y-67625710D01*
X147011418Y-67612403D01*
X147006459Y-67598543D01*
X147002882Y-67584264D01*
X147000722Y-67569703D01*
X147000000Y-67555000D01*
X147000000Y-67255000D01*
X147000722Y-67240297D01*
X147002882Y-67225736D01*
X147006459Y-67211457D01*
X147011418Y-67197597D01*
X147017712Y-67184290D01*
X147025280Y-67171664D01*
X147034048Y-67159841D01*
X147043934Y-67148934D01*
X147054841Y-67139048D01*
X147066664Y-67130280D01*
X147079290Y-67122712D01*
X147092597Y-67116418D01*
X147106457Y-67111459D01*
X147120736Y-67107882D01*
X147135297Y-67105722D01*
X147150000Y-67105000D01*
X148800000Y-67105000D01*
X148814703Y-67105722D01*
G37*
G36*
X143864703Y-67105722D02*
G01*
X143879264Y-67107882D01*
X143893543Y-67111459D01*
X143907403Y-67116418D01*
X143920710Y-67122712D01*
X143933336Y-67130280D01*
X143945159Y-67139048D01*
X143956066Y-67148934D01*
X143965952Y-67159841D01*
X143974720Y-67171664D01*
X143982288Y-67184290D01*
X143988582Y-67197597D01*
X143993541Y-67211457D01*
X143997118Y-67225736D01*
X143999278Y-67240297D01*
X144000000Y-67255000D01*
X144000000Y-67555000D01*
X143999278Y-67569703D01*
X143997118Y-67584264D01*
X143993541Y-67598543D01*
X143988582Y-67612403D01*
X143982288Y-67625710D01*
X143974720Y-67638336D01*
X143965952Y-67650159D01*
X143956066Y-67661066D01*
X143945159Y-67670952D01*
X143933336Y-67679720D01*
X143920710Y-67687288D01*
X143907403Y-67693582D01*
X143893543Y-67698541D01*
X143879264Y-67702118D01*
X143864703Y-67704278D01*
X143850000Y-67705000D01*
X142200000Y-67705000D01*
X142185297Y-67704278D01*
X142170736Y-67702118D01*
X142156457Y-67698541D01*
X142142597Y-67693582D01*
X142129290Y-67687288D01*
X142116664Y-67679720D01*
X142104841Y-67670952D01*
X142093934Y-67661066D01*
X142084048Y-67650159D01*
X142075280Y-67638336D01*
X142067712Y-67625710D01*
X142061418Y-67612403D01*
X142056459Y-67598543D01*
X142052882Y-67584264D01*
X142050722Y-67569703D01*
X142050000Y-67555000D01*
X142050000Y-67255000D01*
X142050722Y-67240297D01*
X142052882Y-67225736D01*
X142056459Y-67211457D01*
X142061418Y-67197597D01*
X142067712Y-67184290D01*
X142075280Y-67171664D01*
X142084048Y-67159841D01*
X142093934Y-67148934D01*
X142104841Y-67139048D01*
X142116664Y-67130280D01*
X142129290Y-67122712D01*
X142142597Y-67116418D01*
X142156457Y-67111459D01*
X142170736Y-67107882D01*
X142185297Y-67105722D01*
X142200000Y-67105000D01*
X143850000Y-67105000D01*
X143864703Y-67105722D01*
G37*
G36*
X143864703Y-65835722D02*
G01*
X143879264Y-65837882D01*
X143893543Y-65841459D01*
X143907403Y-65846418D01*
X143920710Y-65852712D01*
X143933336Y-65860280D01*
X143945159Y-65869048D01*
X143956066Y-65878934D01*
X143965952Y-65889841D01*
X143974720Y-65901664D01*
X143982288Y-65914290D01*
X143988582Y-65927597D01*
X143993541Y-65941457D01*
X143997118Y-65955736D01*
X143999278Y-65970297D01*
X144000000Y-65985000D01*
X144000000Y-66285000D01*
X143999278Y-66299703D01*
X143997118Y-66314264D01*
X143993541Y-66328543D01*
X143988582Y-66342403D01*
X143982288Y-66355710D01*
X143974720Y-66368336D01*
X143965952Y-66380159D01*
X143956066Y-66391066D01*
X143945159Y-66400952D01*
X143933336Y-66409720D01*
X143920710Y-66417288D01*
X143907403Y-66423582D01*
X143893543Y-66428541D01*
X143879264Y-66432118D01*
X143864703Y-66434278D01*
X143850000Y-66435000D01*
X142200000Y-66435000D01*
X142185297Y-66434278D01*
X142170736Y-66432118D01*
X142156457Y-66428541D01*
X142142597Y-66423582D01*
X142129290Y-66417288D01*
X142116664Y-66409720D01*
X142104841Y-66400952D01*
X142093934Y-66391066D01*
X142084048Y-66380159D01*
X142075280Y-66368336D01*
X142067712Y-66355710D01*
X142061418Y-66342403D01*
X142056459Y-66328543D01*
X142052882Y-66314264D01*
X142050722Y-66299703D01*
X142050000Y-66285000D01*
X142050000Y-65985000D01*
X142050722Y-65970297D01*
X142052882Y-65955736D01*
X142056459Y-65941457D01*
X142061418Y-65927597D01*
X142067712Y-65914290D01*
X142075280Y-65901664D01*
X142084048Y-65889841D01*
X142093934Y-65878934D01*
X142104841Y-65869048D01*
X142116664Y-65860280D01*
X142129290Y-65852712D01*
X142142597Y-65846418D01*
X142156457Y-65841459D01*
X142170736Y-65837882D01*
X142185297Y-65835722D01*
X142200000Y-65835000D01*
X143850000Y-65835000D01*
X143864703Y-65835722D01*
G37*
G36*
X143864703Y-64565722D02*
G01*
X143879264Y-64567882D01*
X143893543Y-64571459D01*
X143907403Y-64576418D01*
X143920710Y-64582712D01*
X143933336Y-64590280D01*
X143945159Y-64599048D01*
X143956066Y-64608934D01*
X143965952Y-64619841D01*
X143974720Y-64631664D01*
X143982288Y-64644290D01*
X143988582Y-64657597D01*
X143993541Y-64671457D01*
X143997118Y-64685736D01*
X143999278Y-64700297D01*
X144000000Y-64715000D01*
X144000000Y-65015000D01*
X143999278Y-65029703D01*
X143997118Y-65044264D01*
X143993541Y-65058543D01*
X143988582Y-65072403D01*
X143982288Y-65085710D01*
X143974720Y-65098336D01*
X143965952Y-65110159D01*
X143956066Y-65121066D01*
X143945159Y-65130952D01*
X143933336Y-65139720D01*
X143920710Y-65147288D01*
X143907403Y-65153582D01*
X143893543Y-65158541D01*
X143879264Y-65162118D01*
X143864703Y-65164278D01*
X143850000Y-65165000D01*
X142200000Y-65165000D01*
X142185297Y-65164278D01*
X142170736Y-65162118D01*
X142156457Y-65158541D01*
X142142597Y-65153582D01*
X142129290Y-65147288D01*
X142116664Y-65139720D01*
X142104841Y-65130952D01*
X142093934Y-65121066D01*
X142084048Y-65110159D01*
X142075280Y-65098336D01*
X142067712Y-65085710D01*
X142061418Y-65072403D01*
X142056459Y-65058543D01*
X142052882Y-65044264D01*
X142050722Y-65029703D01*
X142050000Y-65015000D01*
X142050000Y-64715000D01*
X142050722Y-64700297D01*
X142052882Y-64685736D01*
X142056459Y-64671457D01*
X142061418Y-64657597D01*
X142067712Y-64644290D01*
X142075280Y-64631664D01*
X142084048Y-64619841D01*
X142093934Y-64608934D01*
X142104841Y-64599048D01*
X142116664Y-64590280D01*
X142129290Y-64582712D01*
X142142597Y-64576418D01*
X142156457Y-64571459D01*
X142170736Y-64567882D01*
X142185297Y-64565722D01*
X142200000Y-64565000D01*
X143850000Y-64565000D01*
X143864703Y-64565722D01*
G37*
G36*
X143864703Y-63295722D02*
G01*
X143879264Y-63297882D01*
X143893543Y-63301459D01*
X143907403Y-63306418D01*
X143920710Y-63312712D01*
X143933336Y-63320280D01*
X143945159Y-63329048D01*
X143956066Y-63338934D01*
X143965952Y-63349841D01*
X143974720Y-63361664D01*
X143982288Y-63374290D01*
X143988582Y-63387597D01*
X143993541Y-63401457D01*
X143997118Y-63415736D01*
X143999278Y-63430297D01*
X144000000Y-63445000D01*
X144000000Y-63745000D01*
X143999278Y-63759703D01*
X143997118Y-63774264D01*
X143993541Y-63788543D01*
X143988582Y-63802403D01*
X143982288Y-63815710D01*
X143974720Y-63828336D01*
X143965952Y-63840159D01*
X143956066Y-63851066D01*
X143945159Y-63860952D01*
X143933336Y-63869720D01*
X143920710Y-63877288D01*
X143907403Y-63883582D01*
X143893543Y-63888541D01*
X143879264Y-63892118D01*
X143864703Y-63894278D01*
X143850000Y-63895000D01*
X142200000Y-63895000D01*
X142185297Y-63894278D01*
X142170736Y-63892118D01*
X142156457Y-63888541D01*
X142142597Y-63883582D01*
X142129290Y-63877288D01*
X142116664Y-63869720D01*
X142104841Y-63860952D01*
X142093934Y-63851066D01*
X142084048Y-63840159D01*
X142075280Y-63828336D01*
X142067712Y-63815710D01*
X142061418Y-63802403D01*
X142056459Y-63788543D01*
X142052882Y-63774264D01*
X142050722Y-63759703D01*
X142050000Y-63745000D01*
X142050000Y-63445000D01*
X142050722Y-63430297D01*
X142052882Y-63415736D01*
X142056459Y-63401457D01*
X142061418Y-63387597D01*
X142067712Y-63374290D01*
X142075280Y-63361664D01*
X142084048Y-63349841D01*
X142093934Y-63338934D01*
X142104841Y-63329048D01*
X142116664Y-63320280D01*
X142129290Y-63312712D01*
X142142597Y-63306418D01*
X142156457Y-63301459D01*
X142170736Y-63297882D01*
X142185297Y-63295722D01*
X142200000Y-63295000D01*
X143850000Y-63295000D01*
X143864703Y-63295722D01*
G37*
G36*
X140814703Y-63295722D02*
G01*
X140829264Y-63297882D01*
X140843543Y-63301459D01*
X140857403Y-63306418D01*
X140870710Y-63312712D01*
X140883336Y-63320280D01*
X140895159Y-63329048D01*
X140906066Y-63338934D01*
X140915952Y-63349841D01*
X140924720Y-63361664D01*
X140932288Y-63374290D01*
X140938582Y-63387597D01*
X140943541Y-63401457D01*
X140947118Y-63415736D01*
X140949278Y-63430297D01*
X140950000Y-63445000D01*
X140950000Y-63745000D01*
X140949278Y-63759703D01*
X140947118Y-63774264D01*
X140943541Y-63788543D01*
X140938582Y-63802403D01*
X140932288Y-63815710D01*
X140924720Y-63828336D01*
X140915952Y-63840159D01*
X140906066Y-63851066D01*
X140895159Y-63860952D01*
X140883336Y-63869720D01*
X140870710Y-63877288D01*
X140857403Y-63883582D01*
X140843543Y-63888541D01*
X140829264Y-63892118D01*
X140814703Y-63894278D01*
X140800000Y-63895000D01*
X139150000Y-63895000D01*
X139135297Y-63894278D01*
X139120736Y-63892118D01*
X139106457Y-63888541D01*
X139092597Y-63883582D01*
X139079290Y-63877288D01*
X139066664Y-63869720D01*
X139054841Y-63860952D01*
X139043934Y-63851066D01*
X139034048Y-63840159D01*
X139025280Y-63828336D01*
X139017712Y-63815710D01*
X139011418Y-63802403D01*
X139006459Y-63788543D01*
X139002882Y-63774264D01*
X139000722Y-63759703D01*
X139000000Y-63745000D01*
X139000000Y-63445000D01*
X139000722Y-63430297D01*
X139002882Y-63415736D01*
X139006459Y-63401457D01*
X139011418Y-63387597D01*
X139017712Y-63374290D01*
X139025280Y-63361664D01*
X139034048Y-63349841D01*
X139043934Y-63338934D01*
X139054841Y-63329048D01*
X139066664Y-63320280D01*
X139079290Y-63312712D01*
X139092597Y-63306418D01*
X139106457Y-63301459D01*
X139120736Y-63297882D01*
X139135297Y-63295722D01*
X139150000Y-63295000D01*
X140800000Y-63295000D01*
X140814703Y-63295722D01*
G37*
G36*
X140814703Y-64565722D02*
G01*
X140829264Y-64567882D01*
X140843543Y-64571459D01*
X140857403Y-64576418D01*
X140870710Y-64582712D01*
X140883336Y-64590280D01*
X140895159Y-64599048D01*
X140906066Y-64608934D01*
X140915952Y-64619841D01*
X140924720Y-64631664D01*
X140932288Y-64644290D01*
X140938582Y-64657597D01*
X140943541Y-64671457D01*
X140947118Y-64685736D01*
X140949278Y-64700297D01*
X140950000Y-64715000D01*
X140950000Y-65015000D01*
X140949278Y-65029703D01*
X140947118Y-65044264D01*
X140943541Y-65058543D01*
X140938582Y-65072403D01*
X140932288Y-65085710D01*
X140924720Y-65098336D01*
X140915952Y-65110159D01*
X140906066Y-65121066D01*
X140895159Y-65130952D01*
X140883336Y-65139720D01*
X140870710Y-65147288D01*
X140857403Y-65153582D01*
X140843543Y-65158541D01*
X140829264Y-65162118D01*
X140814703Y-65164278D01*
X140800000Y-65165000D01*
X139150000Y-65165000D01*
X139135297Y-65164278D01*
X139120736Y-65162118D01*
X139106457Y-65158541D01*
X139092597Y-65153582D01*
X139079290Y-65147288D01*
X139066664Y-65139720D01*
X139054841Y-65130952D01*
X139043934Y-65121066D01*
X139034048Y-65110159D01*
X139025280Y-65098336D01*
X139017712Y-65085710D01*
X139011418Y-65072403D01*
X139006459Y-65058543D01*
X139002882Y-65044264D01*
X139000722Y-65029703D01*
X139000000Y-65015000D01*
X139000000Y-64715000D01*
X139000722Y-64700297D01*
X139002882Y-64685736D01*
X139006459Y-64671457D01*
X139011418Y-64657597D01*
X139017712Y-64644290D01*
X139025280Y-64631664D01*
X139034048Y-64619841D01*
X139043934Y-64608934D01*
X139054841Y-64599048D01*
X139066664Y-64590280D01*
X139079290Y-64582712D01*
X139092597Y-64576418D01*
X139106457Y-64571459D01*
X139120736Y-64567882D01*
X139135297Y-64565722D01*
X139150000Y-64565000D01*
X140800000Y-64565000D01*
X140814703Y-64565722D01*
G37*
G36*
X140814703Y-65835722D02*
G01*
X140829264Y-65837882D01*
X140843543Y-65841459D01*
X140857403Y-65846418D01*
X140870710Y-65852712D01*
X140883336Y-65860280D01*
X140895159Y-65869048D01*
X140906066Y-65878934D01*
X140915952Y-65889841D01*
X140924720Y-65901664D01*
X140932288Y-65914290D01*
X140938582Y-65927597D01*
X140943541Y-65941457D01*
X140947118Y-65955736D01*
X140949278Y-65970297D01*
X140950000Y-65985000D01*
X140950000Y-66285000D01*
X140949278Y-66299703D01*
X140947118Y-66314264D01*
X140943541Y-66328543D01*
X140938582Y-66342403D01*
X140932288Y-66355710D01*
X140924720Y-66368336D01*
X140915952Y-66380159D01*
X140906066Y-66391066D01*
X140895159Y-66400952D01*
X140883336Y-66409720D01*
X140870710Y-66417288D01*
X140857403Y-66423582D01*
X140843543Y-66428541D01*
X140829264Y-66432118D01*
X140814703Y-66434278D01*
X140800000Y-66435000D01*
X139150000Y-66435000D01*
X139135297Y-66434278D01*
X139120736Y-66432118D01*
X139106457Y-66428541D01*
X139092597Y-66423582D01*
X139079290Y-66417288D01*
X139066664Y-66409720D01*
X139054841Y-66400952D01*
X139043934Y-66391066D01*
X139034048Y-66380159D01*
X139025280Y-66368336D01*
X139017712Y-66355710D01*
X139011418Y-66342403D01*
X139006459Y-66328543D01*
X139002882Y-66314264D01*
X139000722Y-66299703D01*
X139000000Y-66285000D01*
X139000000Y-65985000D01*
X139000722Y-65970297D01*
X139002882Y-65955736D01*
X139006459Y-65941457D01*
X139011418Y-65927597D01*
X139017712Y-65914290D01*
X139025280Y-65901664D01*
X139034048Y-65889841D01*
X139043934Y-65878934D01*
X139054841Y-65869048D01*
X139066664Y-65860280D01*
X139079290Y-65852712D01*
X139092597Y-65846418D01*
X139106457Y-65841459D01*
X139120736Y-65837882D01*
X139135297Y-65835722D01*
X139150000Y-65835000D01*
X140800000Y-65835000D01*
X140814703Y-65835722D01*
G37*
G36*
X140814703Y-67105722D02*
G01*
X140829264Y-67107882D01*
X140843543Y-67111459D01*
X140857403Y-67116418D01*
X140870710Y-67122712D01*
X140883336Y-67130280D01*
X140895159Y-67139048D01*
X140906066Y-67148934D01*
X140915952Y-67159841D01*
X140924720Y-67171664D01*
X140932288Y-67184290D01*
X140938582Y-67197597D01*
X140943541Y-67211457D01*
X140947118Y-67225736D01*
X140949278Y-67240297D01*
X140950000Y-67255000D01*
X140950000Y-67555000D01*
X140949278Y-67569703D01*
X140947118Y-67584264D01*
X140943541Y-67598543D01*
X140938582Y-67612403D01*
X140932288Y-67625710D01*
X140924720Y-67638336D01*
X140915952Y-67650159D01*
X140906066Y-67661066D01*
X140895159Y-67670952D01*
X140883336Y-67679720D01*
X140870710Y-67687288D01*
X140857403Y-67693582D01*
X140843543Y-67698541D01*
X140829264Y-67702118D01*
X140814703Y-67704278D01*
X140800000Y-67705000D01*
X139150000Y-67705000D01*
X139135297Y-67704278D01*
X139120736Y-67702118D01*
X139106457Y-67698541D01*
X139092597Y-67693582D01*
X139079290Y-67687288D01*
X139066664Y-67679720D01*
X139054841Y-67670952D01*
X139043934Y-67661066D01*
X139034048Y-67650159D01*
X139025280Y-67638336D01*
X139017712Y-67625710D01*
X139011418Y-67612403D01*
X139006459Y-67598543D01*
X139002882Y-67584264D01*
X139000722Y-67569703D01*
X139000000Y-67555000D01*
X139000000Y-67255000D01*
X139000722Y-67240297D01*
X139002882Y-67225736D01*
X139006459Y-67211457D01*
X139011418Y-67197597D01*
X139017712Y-67184290D01*
X139025280Y-67171664D01*
X139034048Y-67159841D01*
X139043934Y-67148934D01*
X139054841Y-67139048D01*
X139066664Y-67130280D01*
X139079290Y-67122712D01*
X139092597Y-67116418D01*
X139106457Y-67111459D01*
X139120736Y-67107882D01*
X139135297Y-67105722D01*
X139150000Y-67105000D01*
X140800000Y-67105000D01*
X140814703Y-67105722D01*
G37*
G36*
X135864703Y-67105722D02*
G01*
X135879264Y-67107882D01*
X135893543Y-67111459D01*
X135907403Y-67116418D01*
X135920710Y-67122712D01*
X135933336Y-67130280D01*
X135945159Y-67139048D01*
X135956066Y-67148934D01*
X135965952Y-67159841D01*
X135974720Y-67171664D01*
X135982288Y-67184290D01*
X135988582Y-67197597D01*
X135993541Y-67211457D01*
X135997118Y-67225736D01*
X135999278Y-67240297D01*
X136000000Y-67255000D01*
X136000000Y-67555000D01*
X135999278Y-67569703D01*
X135997118Y-67584264D01*
X135993541Y-67598543D01*
X135988582Y-67612403D01*
X135982288Y-67625710D01*
X135974720Y-67638336D01*
X135965952Y-67650159D01*
X135956066Y-67661066D01*
X135945159Y-67670952D01*
X135933336Y-67679720D01*
X135920710Y-67687288D01*
X135907403Y-67693582D01*
X135893543Y-67698541D01*
X135879264Y-67702118D01*
X135864703Y-67704278D01*
X135850000Y-67705000D01*
X134200000Y-67705000D01*
X134185297Y-67704278D01*
X134170736Y-67702118D01*
X134156457Y-67698541D01*
X134142597Y-67693582D01*
X134129290Y-67687288D01*
X134116664Y-67679720D01*
X134104841Y-67670952D01*
X134093934Y-67661066D01*
X134084048Y-67650159D01*
X134075280Y-67638336D01*
X134067712Y-67625710D01*
X134061418Y-67612403D01*
X134056459Y-67598543D01*
X134052882Y-67584264D01*
X134050722Y-67569703D01*
X134050000Y-67555000D01*
X134050000Y-67255000D01*
X134050722Y-67240297D01*
X134052882Y-67225736D01*
X134056459Y-67211457D01*
X134061418Y-67197597D01*
X134067712Y-67184290D01*
X134075280Y-67171664D01*
X134084048Y-67159841D01*
X134093934Y-67148934D01*
X134104841Y-67139048D01*
X134116664Y-67130280D01*
X134129290Y-67122712D01*
X134142597Y-67116418D01*
X134156457Y-67111459D01*
X134170736Y-67107882D01*
X134185297Y-67105722D01*
X134200000Y-67105000D01*
X135850000Y-67105000D01*
X135864703Y-67105722D01*
G37*
G36*
X135864703Y-65835722D02*
G01*
X135879264Y-65837882D01*
X135893543Y-65841459D01*
X135907403Y-65846418D01*
X135920710Y-65852712D01*
X135933336Y-65860280D01*
X135945159Y-65869048D01*
X135956066Y-65878934D01*
X135965952Y-65889841D01*
X135974720Y-65901664D01*
X135982288Y-65914290D01*
X135988582Y-65927597D01*
X135993541Y-65941457D01*
X135997118Y-65955736D01*
X135999278Y-65970297D01*
X136000000Y-65985000D01*
X136000000Y-66285000D01*
X135999278Y-66299703D01*
X135997118Y-66314264D01*
X135993541Y-66328543D01*
X135988582Y-66342403D01*
X135982288Y-66355710D01*
X135974720Y-66368336D01*
X135965952Y-66380159D01*
X135956066Y-66391066D01*
X135945159Y-66400952D01*
X135933336Y-66409720D01*
X135920710Y-66417288D01*
X135907403Y-66423582D01*
X135893543Y-66428541D01*
X135879264Y-66432118D01*
X135864703Y-66434278D01*
X135850000Y-66435000D01*
X134200000Y-66435000D01*
X134185297Y-66434278D01*
X134170736Y-66432118D01*
X134156457Y-66428541D01*
X134142597Y-66423582D01*
X134129290Y-66417288D01*
X134116664Y-66409720D01*
X134104841Y-66400952D01*
X134093934Y-66391066D01*
X134084048Y-66380159D01*
X134075280Y-66368336D01*
X134067712Y-66355710D01*
X134061418Y-66342403D01*
X134056459Y-66328543D01*
X134052882Y-66314264D01*
X134050722Y-66299703D01*
X134050000Y-66285000D01*
X134050000Y-65985000D01*
X134050722Y-65970297D01*
X134052882Y-65955736D01*
X134056459Y-65941457D01*
X134061418Y-65927597D01*
X134067712Y-65914290D01*
X134075280Y-65901664D01*
X134084048Y-65889841D01*
X134093934Y-65878934D01*
X134104841Y-65869048D01*
X134116664Y-65860280D01*
X134129290Y-65852712D01*
X134142597Y-65846418D01*
X134156457Y-65841459D01*
X134170736Y-65837882D01*
X134185297Y-65835722D01*
X134200000Y-65835000D01*
X135850000Y-65835000D01*
X135864703Y-65835722D01*
G37*
G36*
X135864703Y-64565722D02*
G01*
X135879264Y-64567882D01*
X135893543Y-64571459D01*
X135907403Y-64576418D01*
X135920710Y-64582712D01*
X135933336Y-64590280D01*
X135945159Y-64599048D01*
X135956066Y-64608934D01*
X135965952Y-64619841D01*
X135974720Y-64631664D01*
X135982288Y-64644290D01*
X135988582Y-64657597D01*
X135993541Y-64671457D01*
X135997118Y-64685736D01*
X135999278Y-64700297D01*
X136000000Y-64715000D01*
X136000000Y-65015000D01*
X135999278Y-65029703D01*
X135997118Y-65044264D01*
X135993541Y-65058543D01*
X135988582Y-65072403D01*
X135982288Y-65085710D01*
X135974720Y-65098336D01*
X135965952Y-65110159D01*
X135956066Y-65121066D01*
X135945159Y-65130952D01*
X135933336Y-65139720D01*
X135920710Y-65147288D01*
X135907403Y-65153582D01*
X135893543Y-65158541D01*
X135879264Y-65162118D01*
X135864703Y-65164278D01*
X135850000Y-65165000D01*
X134200000Y-65165000D01*
X134185297Y-65164278D01*
X134170736Y-65162118D01*
X134156457Y-65158541D01*
X134142597Y-65153582D01*
X134129290Y-65147288D01*
X134116664Y-65139720D01*
X134104841Y-65130952D01*
X134093934Y-65121066D01*
X134084048Y-65110159D01*
X134075280Y-65098336D01*
X134067712Y-65085710D01*
X134061418Y-65072403D01*
X134056459Y-65058543D01*
X134052882Y-65044264D01*
X134050722Y-65029703D01*
X134050000Y-65015000D01*
X134050000Y-64715000D01*
X134050722Y-64700297D01*
X134052882Y-64685736D01*
X134056459Y-64671457D01*
X134061418Y-64657597D01*
X134067712Y-64644290D01*
X134075280Y-64631664D01*
X134084048Y-64619841D01*
X134093934Y-64608934D01*
X134104841Y-64599048D01*
X134116664Y-64590280D01*
X134129290Y-64582712D01*
X134142597Y-64576418D01*
X134156457Y-64571459D01*
X134170736Y-64567882D01*
X134185297Y-64565722D01*
X134200000Y-64565000D01*
X135850000Y-64565000D01*
X135864703Y-64565722D01*
G37*
G36*
X135864703Y-63295722D02*
G01*
X135879264Y-63297882D01*
X135893543Y-63301459D01*
X135907403Y-63306418D01*
X135920710Y-63312712D01*
X135933336Y-63320280D01*
X135945159Y-63329048D01*
X135956066Y-63338934D01*
X135965952Y-63349841D01*
X135974720Y-63361664D01*
X135982288Y-63374290D01*
X135988582Y-63387597D01*
X135993541Y-63401457D01*
X135997118Y-63415736D01*
X135999278Y-63430297D01*
X136000000Y-63445000D01*
X136000000Y-63745000D01*
X135999278Y-63759703D01*
X135997118Y-63774264D01*
X135993541Y-63788543D01*
X135988582Y-63802403D01*
X135982288Y-63815710D01*
X135974720Y-63828336D01*
X135965952Y-63840159D01*
X135956066Y-63851066D01*
X135945159Y-63860952D01*
X135933336Y-63869720D01*
X135920710Y-63877288D01*
X135907403Y-63883582D01*
X135893543Y-63888541D01*
X135879264Y-63892118D01*
X135864703Y-63894278D01*
X135850000Y-63895000D01*
X134200000Y-63895000D01*
X134185297Y-63894278D01*
X134170736Y-63892118D01*
X134156457Y-63888541D01*
X134142597Y-63883582D01*
X134129290Y-63877288D01*
X134116664Y-63869720D01*
X134104841Y-63860952D01*
X134093934Y-63851066D01*
X134084048Y-63840159D01*
X134075280Y-63828336D01*
X134067712Y-63815710D01*
X134061418Y-63802403D01*
X134056459Y-63788543D01*
X134052882Y-63774264D01*
X134050722Y-63759703D01*
X134050000Y-63745000D01*
X134050000Y-63445000D01*
X134050722Y-63430297D01*
X134052882Y-63415736D01*
X134056459Y-63401457D01*
X134061418Y-63387597D01*
X134067712Y-63374290D01*
X134075280Y-63361664D01*
X134084048Y-63349841D01*
X134093934Y-63338934D01*
X134104841Y-63329048D01*
X134116664Y-63320280D01*
X134129290Y-63312712D01*
X134142597Y-63306418D01*
X134156457Y-63301459D01*
X134170736Y-63297882D01*
X134185297Y-63295722D01*
X134200000Y-63295000D01*
X135850000Y-63295000D01*
X135864703Y-63295722D01*
G37*
G36*
X132814703Y-63295722D02*
G01*
X132829264Y-63297882D01*
X132843543Y-63301459D01*
X132857403Y-63306418D01*
X132870710Y-63312712D01*
X132883336Y-63320280D01*
X132895159Y-63329048D01*
X132906066Y-63338934D01*
X132915952Y-63349841D01*
X132924720Y-63361664D01*
X132932288Y-63374290D01*
X132938582Y-63387597D01*
X132943541Y-63401457D01*
X132947118Y-63415736D01*
X132949278Y-63430297D01*
X132950000Y-63445000D01*
X132950000Y-63745000D01*
X132949278Y-63759703D01*
X132947118Y-63774264D01*
X132943541Y-63788543D01*
X132938582Y-63802403D01*
X132932288Y-63815710D01*
X132924720Y-63828336D01*
X132915952Y-63840159D01*
X132906066Y-63851066D01*
X132895159Y-63860952D01*
X132883336Y-63869720D01*
X132870710Y-63877288D01*
X132857403Y-63883582D01*
X132843543Y-63888541D01*
X132829264Y-63892118D01*
X132814703Y-63894278D01*
X132800000Y-63895000D01*
X131150000Y-63895000D01*
X131135297Y-63894278D01*
X131120736Y-63892118D01*
X131106457Y-63888541D01*
X131092597Y-63883582D01*
X131079290Y-63877288D01*
X131066664Y-63869720D01*
X131054841Y-63860952D01*
X131043934Y-63851066D01*
X131034048Y-63840159D01*
X131025280Y-63828336D01*
X131017712Y-63815710D01*
X131011418Y-63802403D01*
X131006459Y-63788543D01*
X131002882Y-63774264D01*
X131000722Y-63759703D01*
X131000000Y-63745000D01*
X131000000Y-63445000D01*
X131000722Y-63430297D01*
X131002882Y-63415736D01*
X131006459Y-63401457D01*
X131011418Y-63387597D01*
X131017712Y-63374290D01*
X131025280Y-63361664D01*
X131034048Y-63349841D01*
X131043934Y-63338934D01*
X131054841Y-63329048D01*
X131066664Y-63320280D01*
X131079290Y-63312712D01*
X131092597Y-63306418D01*
X131106457Y-63301459D01*
X131120736Y-63297882D01*
X131135297Y-63295722D01*
X131150000Y-63295000D01*
X132800000Y-63295000D01*
X132814703Y-63295722D01*
G37*
G36*
X132814703Y-64565722D02*
G01*
X132829264Y-64567882D01*
X132843543Y-64571459D01*
X132857403Y-64576418D01*
X132870710Y-64582712D01*
X132883336Y-64590280D01*
X132895159Y-64599048D01*
X132906066Y-64608934D01*
X132915952Y-64619841D01*
X132924720Y-64631664D01*
X132932288Y-64644290D01*
X132938582Y-64657597D01*
X132943541Y-64671457D01*
X132947118Y-64685736D01*
X132949278Y-64700297D01*
X132950000Y-64715000D01*
X132950000Y-65015000D01*
X132949278Y-65029703D01*
X132947118Y-65044264D01*
X132943541Y-65058543D01*
X132938582Y-65072403D01*
X132932288Y-65085710D01*
X132924720Y-65098336D01*
X132915952Y-65110159D01*
X132906066Y-65121066D01*
X132895159Y-65130952D01*
X132883336Y-65139720D01*
X132870710Y-65147288D01*
X132857403Y-65153582D01*
X132843543Y-65158541D01*
X132829264Y-65162118D01*
X132814703Y-65164278D01*
X132800000Y-65165000D01*
X131150000Y-65165000D01*
X131135297Y-65164278D01*
X131120736Y-65162118D01*
X131106457Y-65158541D01*
X131092597Y-65153582D01*
X131079290Y-65147288D01*
X131066664Y-65139720D01*
X131054841Y-65130952D01*
X131043934Y-65121066D01*
X131034048Y-65110159D01*
X131025280Y-65098336D01*
X131017712Y-65085710D01*
X131011418Y-65072403D01*
X131006459Y-65058543D01*
X131002882Y-65044264D01*
X131000722Y-65029703D01*
X131000000Y-65015000D01*
X131000000Y-64715000D01*
X131000722Y-64700297D01*
X131002882Y-64685736D01*
X131006459Y-64671457D01*
X131011418Y-64657597D01*
X131017712Y-64644290D01*
X131025280Y-64631664D01*
X131034048Y-64619841D01*
X131043934Y-64608934D01*
X131054841Y-64599048D01*
X131066664Y-64590280D01*
X131079290Y-64582712D01*
X131092597Y-64576418D01*
X131106457Y-64571459D01*
X131120736Y-64567882D01*
X131135297Y-64565722D01*
X131150000Y-64565000D01*
X132800000Y-64565000D01*
X132814703Y-64565722D01*
G37*
G36*
X132814703Y-65835722D02*
G01*
X132829264Y-65837882D01*
X132843543Y-65841459D01*
X132857403Y-65846418D01*
X132870710Y-65852712D01*
X132883336Y-65860280D01*
X132895159Y-65869048D01*
X132906066Y-65878934D01*
X132915952Y-65889841D01*
X132924720Y-65901664D01*
X132932288Y-65914290D01*
X132938582Y-65927597D01*
X132943541Y-65941457D01*
X132947118Y-65955736D01*
X132949278Y-65970297D01*
X132950000Y-65985000D01*
X132950000Y-66285000D01*
X132949278Y-66299703D01*
X132947118Y-66314264D01*
X132943541Y-66328543D01*
X132938582Y-66342403D01*
X132932288Y-66355710D01*
X132924720Y-66368336D01*
X132915952Y-66380159D01*
X132906066Y-66391066D01*
X132895159Y-66400952D01*
X132883336Y-66409720D01*
X132870710Y-66417288D01*
X132857403Y-66423582D01*
X132843543Y-66428541D01*
X132829264Y-66432118D01*
X132814703Y-66434278D01*
X132800000Y-66435000D01*
X131150000Y-66435000D01*
X131135297Y-66434278D01*
X131120736Y-66432118D01*
X131106457Y-66428541D01*
X131092597Y-66423582D01*
X131079290Y-66417288D01*
X131066664Y-66409720D01*
X131054841Y-66400952D01*
X131043934Y-66391066D01*
X131034048Y-66380159D01*
X131025280Y-66368336D01*
X131017712Y-66355710D01*
X131011418Y-66342403D01*
X131006459Y-66328543D01*
X131002882Y-66314264D01*
X131000722Y-66299703D01*
X131000000Y-66285000D01*
X131000000Y-65985000D01*
X131000722Y-65970297D01*
X131002882Y-65955736D01*
X131006459Y-65941457D01*
X131011418Y-65927597D01*
X131017712Y-65914290D01*
X131025280Y-65901664D01*
X131034048Y-65889841D01*
X131043934Y-65878934D01*
X131054841Y-65869048D01*
X131066664Y-65860280D01*
X131079290Y-65852712D01*
X131092597Y-65846418D01*
X131106457Y-65841459D01*
X131120736Y-65837882D01*
X131135297Y-65835722D01*
X131150000Y-65835000D01*
X132800000Y-65835000D01*
X132814703Y-65835722D01*
G37*
G36*
X132814703Y-67105722D02*
G01*
X132829264Y-67107882D01*
X132843543Y-67111459D01*
X132857403Y-67116418D01*
X132870710Y-67122712D01*
X132883336Y-67130280D01*
X132895159Y-67139048D01*
X132906066Y-67148934D01*
X132915952Y-67159841D01*
X132924720Y-67171664D01*
X132932288Y-67184290D01*
X132938582Y-67197597D01*
X132943541Y-67211457D01*
X132947118Y-67225736D01*
X132949278Y-67240297D01*
X132950000Y-67255000D01*
X132950000Y-67555000D01*
X132949278Y-67569703D01*
X132947118Y-67584264D01*
X132943541Y-67598543D01*
X132938582Y-67612403D01*
X132932288Y-67625710D01*
X132924720Y-67638336D01*
X132915952Y-67650159D01*
X132906066Y-67661066D01*
X132895159Y-67670952D01*
X132883336Y-67679720D01*
X132870710Y-67687288D01*
X132857403Y-67693582D01*
X132843543Y-67698541D01*
X132829264Y-67702118D01*
X132814703Y-67704278D01*
X132800000Y-67705000D01*
X131150000Y-67705000D01*
X131135297Y-67704278D01*
X131120736Y-67702118D01*
X131106457Y-67698541D01*
X131092597Y-67693582D01*
X131079290Y-67687288D01*
X131066664Y-67679720D01*
X131054841Y-67670952D01*
X131043934Y-67661066D01*
X131034048Y-67650159D01*
X131025280Y-67638336D01*
X131017712Y-67625710D01*
X131011418Y-67612403D01*
X131006459Y-67598543D01*
X131002882Y-67584264D01*
X131000722Y-67569703D01*
X131000000Y-67555000D01*
X131000000Y-67255000D01*
X131000722Y-67240297D01*
X131002882Y-67225736D01*
X131006459Y-67211457D01*
X131011418Y-67197597D01*
X131017712Y-67184290D01*
X131025280Y-67171664D01*
X131034048Y-67159841D01*
X131043934Y-67148934D01*
X131054841Y-67139048D01*
X131066664Y-67130280D01*
X131079290Y-67122712D01*
X131092597Y-67116418D01*
X131106457Y-67111459D01*
X131120736Y-67107882D01*
X131135297Y-67105722D01*
X131150000Y-67105000D01*
X132800000Y-67105000D01*
X132814703Y-67105722D01*
G37*
G36*
X127864703Y-67105722D02*
G01*
X127879264Y-67107882D01*
X127893543Y-67111459D01*
X127907403Y-67116418D01*
X127920710Y-67122712D01*
X127933336Y-67130280D01*
X127945159Y-67139048D01*
X127956066Y-67148934D01*
X127965952Y-67159841D01*
X127974720Y-67171664D01*
X127982288Y-67184290D01*
X127988582Y-67197597D01*
X127993541Y-67211457D01*
X127997118Y-67225736D01*
X127999278Y-67240297D01*
X128000000Y-67255000D01*
X128000000Y-67555000D01*
X127999278Y-67569703D01*
X127997118Y-67584264D01*
X127993541Y-67598543D01*
X127988582Y-67612403D01*
X127982288Y-67625710D01*
X127974720Y-67638336D01*
X127965952Y-67650159D01*
X127956066Y-67661066D01*
X127945159Y-67670952D01*
X127933336Y-67679720D01*
X127920710Y-67687288D01*
X127907403Y-67693582D01*
X127893543Y-67698541D01*
X127879264Y-67702118D01*
X127864703Y-67704278D01*
X127850000Y-67705000D01*
X126200000Y-67705000D01*
X126185297Y-67704278D01*
X126170736Y-67702118D01*
X126156457Y-67698541D01*
X126142597Y-67693582D01*
X126129290Y-67687288D01*
X126116664Y-67679720D01*
X126104841Y-67670952D01*
X126093934Y-67661066D01*
X126084048Y-67650159D01*
X126075280Y-67638336D01*
X126067712Y-67625710D01*
X126061418Y-67612403D01*
X126056459Y-67598543D01*
X126052882Y-67584264D01*
X126050722Y-67569703D01*
X126050000Y-67555000D01*
X126050000Y-67255000D01*
X126050722Y-67240297D01*
X126052882Y-67225736D01*
X126056459Y-67211457D01*
X126061418Y-67197597D01*
X126067712Y-67184290D01*
X126075280Y-67171664D01*
X126084048Y-67159841D01*
X126093934Y-67148934D01*
X126104841Y-67139048D01*
X126116664Y-67130280D01*
X126129290Y-67122712D01*
X126142597Y-67116418D01*
X126156457Y-67111459D01*
X126170736Y-67107882D01*
X126185297Y-67105722D01*
X126200000Y-67105000D01*
X127850000Y-67105000D01*
X127864703Y-67105722D01*
G37*
G36*
X127864703Y-65835722D02*
G01*
X127879264Y-65837882D01*
X127893543Y-65841459D01*
X127907403Y-65846418D01*
X127920710Y-65852712D01*
X127933336Y-65860280D01*
X127945159Y-65869048D01*
X127956066Y-65878934D01*
X127965952Y-65889841D01*
X127974720Y-65901664D01*
X127982288Y-65914290D01*
X127988582Y-65927597D01*
X127993541Y-65941457D01*
X127997118Y-65955736D01*
X127999278Y-65970297D01*
X128000000Y-65985000D01*
X128000000Y-66285000D01*
X127999278Y-66299703D01*
X127997118Y-66314264D01*
X127993541Y-66328543D01*
X127988582Y-66342403D01*
X127982288Y-66355710D01*
X127974720Y-66368336D01*
X127965952Y-66380159D01*
X127956066Y-66391066D01*
X127945159Y-66400952D01*
X127933336Y-66409720D01*
X127920710Y-66417288D01*
X127907403Y-66423582D01*
X127893543Y-66428541D01*
X127879264Y-66432118D01*
X127864703Y-66434278D01*
X127850000Y-66435000D01*
X126200000Y-66435000D01*
X126185297Y-66434278D01*
X126170736Y-66432118D01*
X126156457Y-66428541D01*
X126142597Y-66423582D01*
X126129290Y-66417288D01*
X126116664Y-66409720D01*
X126104841Y-66400952D01*
X126093934Y-66391066D01*
X126084048Y-66380159D01*
X126075280Y-66368336D01*
X126067712Y-66355710D01*
X126061418Y-66342403D01*
X126056459Y-66328543D01*
X126052882Y-66314264D01*
X126050722Y-66299703D01*
X126050000Y-66285000D01*
X126050000Y-65985000D01*
X126050722Y-65970297D01*
X126052882Y-65955736D01*
X126056459Y-65941457D01*
X126061418Y-65927597D01*
X126067712Y-65914290D01*
X126075280Y-65901664D01*
X126084048Y-65889841D01*
X126093934Y-65878934D01*
X126104841Y-65869048D01*
X126116664Y-65860280D01*
X126129290Y-65852712D01*
X126142597Y-65846418D01*
X126156457Y-65841459D01*
X126170736Y-65837882D01*
X126185297Y-65835722D01*
X126200000Y-65835000D01*
X127850000Y-65835000D01*
X127864703Y-65835722D01*
G37*
G36*
X127864703Y-64565722D02*
G01*
X127879264Y-64567882D01*
X127893543Y-64571459D01*
X127907403Y-64576418D01*
X127920710Y-64582712D01*
X127933336Y-64590280D01*
X127945159Y-64599048D01*
X127956066Y-64608934D01*
X127965952Y-64619841D01*
X127974720Y-64631664D01*
X127982288Y-64644290D01*
X127988582Y-64657597D01*
X127993541Y-64671457D01*
X127997118Y-64685736D01*
X127999278Y-64700297D01*
X128000000Y-64715000D01*
X128000000Y-65015000D01*
X127999278Y-65029703D01*
X127997118Y-65044264D01*
X127993541Y-65058543D01*
X127988582Y-65072403D01*
X127982288Y-65085710D01*
X127974720Y-65098336D01*
X127965952Y-65110159D01*
X127956066Y-65121066D01*
X127945159Y-65130952D01*
X127933336Y-65139720D01*
X127920710Y-65147288D01*
X127907403Y-65153582D01*
X127893543Y-65158541D01*
X127879264Y-65162118D01*
X127864703Y-65164278D01*
X127850000Y-65165000D01*
X126200000Y-65165000D01*
X126185297Y-65164278D01*
X126170736Y-65162118D01*
X126156457Y-65158541D01*
X126142597Y-65153582D01*
X126129290Y-65147288D01*
X126116664Y-65139720D01*
X126104841Y-65130952D01*
X126093934Y-65121066D01*
X126084048Y-65110159D01*
X126075280Y-65098336D01*
X126067712Y-65085710D01*
X126061418Y-65072403D01*
X126056459Y-65058543D01*
X126052882Y-65044264D01*
X126050722Y-65029703D01*
X126050000Y-65015000D01*
X126050000Y-64715000D01*
X126050722Y-64700297D01*
X126052882Y-64685736D01*
X126056459Y-64671457D01*
X126061418Y-64657597D01*
X126067712Y-64644290D01*
X126075280Y-64631664D01*
X126084048Y-64619841D01*
X126093934Y-64608934D01*
X126104841Y-64599048D01*
X126116664Y-64590280D01*
X126129290Y-64582712D01*
X126142597Y-64576418D01*
X126156457Y-64571459D01*
X126170736Y-64567882D01*
X126185297Y-64565722D01*
X126200000Y-64565000D01*
X127850000Y-64565000D01*
X127864703Y-64565722D01*
G37*
G36*
X127864703Y-63295722D02*
G01*
X127879264Y-63297882D01*
X127893543Y-63301459D01*
X127907403Y-63306418D01*
X127920710Y-63312712D01*
X127933336Y-63320280D01*
X127945159Y-63329048D01*
X127956066Y-63338934D01*
X127965952Y-63349841D01*
X127974720Y-63361664D01*
X127982288Y-63374290D01*
X127988582Y-63387597D01*
X127993541Y-63401457D01*
X127997118Y-63415736D01*
X127999278Y-63430297D01*
X128000000Y-63445000D01*
X128000000Y-63745000D01*
X127999278Y-63759703D01*
X127997118Y-63774264D01*
X127993541Y-63788543D01*
X127988582Y-63802403D01*
X127982288Y-63815710D01*
X127974720Y-63828336D01*
X127965952Y-63840159D01*
X127956066Y-63851066D01*
X127945159Y-63860952D01*
X127933336Y-63869720D01*
X127920710Y-63877288D01*
X127907403Y-63883582D01*
X127893543Y-63888541D01*
X127879264Y-63892118D01*
X127864703Y-63894278D01*
X127850000Y-63895000D01*
X126200000Y-63895000D01*
X126185297Y-63894278D01*
X126170736Y-63892118D01*
X126156457Y-63888541D01*
X126142597Y-63883582D01*
X126129290Y-63877288D01*
X126116664Y-63869720D01*
X126104841Y-63860952D01*
X126093934Y-63851066D01*
X126084048Y-63840159D01*
X126075280Y-63828336D01*
X126067712Y-63815710D01*
X126061418Y-63802403D01*
X126056459Y-63788543D01*
X126052882Y-63774264D01*
X126050722Y-63759703D01*
X126050000Y-63745000D01*
X126050000Y-63445000D01*
X126050722Y-63430297D01*
X126052882Y-63415736D01*
X126056459Y-63401457D01*
X126061418Y-63387597D01*
X126067712Y-63374290D01*
X126075280Y-63361664D01*
X126084048Y-63349841D01*
X126093934Y-63338934D01*
X126104841Y-63329048D01*
X126116664Y-63320280D01*
X126129290Y-63312712D01*
X126142597Y-63306418D01*
X126156457Y-63301459D01*
X126170736Y-63297882D01*
X126185297Y-63295722D01*
X126200000Y-63295000D01*
X127850000Y-63295000D01*
X127864703Y-63295722D01*
G37*
G36*
X124814703Y-63295722D02*
G01*
X124829264Y-63297882D01*
X124843543Y-63301459D01*
X124857403Y-63306418D01*
X124870710Y-63312712D01*
X124883336Y-63320280D01*
X124895159Y-63329048D01*
X124906066Y-63338934D01*
X124915952Y-63349841D01*
X124924720Y-63361664D01*
X124932288Y-63374290D01*
X124938582Y-63387597D01*
X124943541Y-63401457D01*
X124947118Y-63415736D01*
X124949278Y-63430297D01*
X124950000Y-63445000D01*
X124950000Y-63745000D01*
X124949278Y-63759703D01*
X124947118Y-63774264D01*
X124943541Y-63788543D01*
X124938582Y-63802403D01*
X124932288Y-63815710D01*
X124924720Y-63828336D01*
X124915952Y-63840159D01*
X124906066Y-63851066D01*
X124895159Y-63860952D01*
X124883336Y-63869720D01*
X124870710Y-63877288D01*
X124857403Y-63883582D01*
X124843543Y-63888541D01*
X124829264Y-63892118D01*
X124814703Y-63894278D01*
X124800000Y-63895000D01*
X123150000Y-63895000D01*
X123135297Y-63894278D01*
X123120736Y-63892118D01*
X123106457Y-63888541D01*
X123092597Y-63883582D01*
X123079290Y-63877288D01*
X123066664Y-63869720D01*
X123054841Y-63860952D01*
X123043934Y-63851066D01*
X123034048Y-63840159D01*
X123025280Y-63828336D01*
X123017712Y-63815710D01*
X123011418Y-63802403D01*
X123006459Y-63788543D01*
X123002882Y-63774264D01*
X123000722Y-63759703D01*
X123000000Y-63745000D01*
X123000000Y-63445000D01*
X123000722Y-63430297D01*
X123002882Y-63415736D01*
X123006459Y-63401457D01*
X123011418Y-63387597D01*
X123017712Y-63374290D01*
X123025280Y-63361664D01*
X123034048Y-63349841D01*
X123043934Y-63338934D01*
X123054841Y-63329048D01*
X123066664Y-63320280D01*
X123079290Y-63312712D01*
X123092597Y-63306418D01*
X123106457Y-63301459D01*
X123120736Y-63297882D01*
X123135297Y-63295722D01*
X123150000Y-63295000D01*
X124800000Y-63295000D01*
X124814703Y-63295722D01*
G37*
G36*
X124814703Y-64565722D02*
G01*
X124829264Y-64567882D01*
X124843543Y-64571459D01*
X124857403Y-64576418D01*
X124870710Y-64582712D01*
X124883336Y-64590280D01*
X124895159Y-64599048D01*
X124906066Y-64608934D01*
X124915952Y-64619841D01*
X124924720Y-64631664D01*
X124932288Y-64644290D01*
X124938582Y-64657597D01*
X124943541Y-64671457D01*
X124947118Y-64685736D01*
X124949278Y-64700297D01*
X124950000Y-64715000D01*
X124950000Y-65015000D01*
X124949278Y-65029703D01*
X124947118Y-65044264D01*
X124943541Y-65058543D01*
X124938582Y-65072403D01*
X124932288Y-65085710D01*
X124924720Y-65098336D01*
X124915952Y-65110159D01*
X124906066Y-65121066D01*
X124895159Y-65130952D01*
X124883336Y-65139720D01*
X124870710Y-65147288D01*
X124857403Y-65153582D01*
X124843543Y-65158541D01*
X124829264Y-65162118D01*
X124814703Y-65164278D01*
X124800000Y-65165000D01*
X123150000Y-65165000D01*
X123135297Y-65164278D01*
X123120736Y-65162118D01*
X123106457Y-65158541D01*
X123092597Y-65153582D01*
X123079290Y-65147288D01*
X123066664Y-65139720D01*
X123054841Y-65130952D01*
X123043934Y-65121066D01*
X123034048Y-65110159D01*
X123025280Y-65098336D01*
X123017712Y-65085710D01*
X123011418Y-65072403D01*
X123006459Y-65058543D01*
X123002882Y-65044264D01*
X123000722Y-65029703D01*
X123000000Y-65015000D01*
X123000000Y-64715000D01*
X123000722Y-64700297D01*
X123002882Y-64685736D01*
X123006459Y-64671457D01*
X123011418Y-64657597D01*
X123017712Y-64644290D01*
X123025280Y-64631664D01*
X123034048Y-64619841D01*
X123043934Y-64608934D01*
X123054841Y-64599048D01*
X123066664Y-64590280D01*
X123079290Y-64582712D01*
X123092597Y-64576418D01*
X123106457Y-64571459D01*
X123120736Y-64567882D01*
X123135297Y-64565722D01*
X123150000Y-64565000D01*
X124800000Y-64565000D01*
X124814703Y-64565722D01*
G37*
G36*
X124814703Y-65835722D02*
G01*
X124829264Y-65837882D01*
X124843543Y-65841459D01*
X124857403Y-65846418D01*
X124870710Y-65852712D01*
X124883336Y-65860280D01*
X124895159Y-65869048D01*
X124906066Y-65878934D01*
X124915952Y-65889841D01*
X124924720Y-65901664D01*
X124932288Y-65914290D01*
X124938582Y-65927597D01*
X124943541Y-65941457D01*
X124947118Y-65955736D01*
X124949278Y-65970297D01*
X124950000Y-65985000D01*
X124950000Y-66285000D01*
X124949278Y-66299703D01*
X124947118Y-66314264D01*
X124943541Y-66328543D01*
X124938582Y-66342403D01*
X124932288Y-66355710D01*
X124924720Y-66368336D01*
X124915952Y-66380159D01*
X124906066Y-66391066D01*
X124895159Y-66400952D01*
X124883336Y-66409720D01*
X124870710Y-66417288D01*
X124857403Y-66423582D01*
X124843543Y-66428541D01*
X124829264Y-66432118D01*
X124814703Y-66434278D01*
X124800000Y-66435000D01*
X123150000Y-66435000D01*
X123135297Y-66434278D01*
X123120736Y-66432118D01*
X123106457Y-66428541D01*
X123092597Y-66423582D01*
X123079290Y-66417288D01*
X123066664Y-66409720D01*
X123054841Y-66400952D01*
X123043934Y-66391066D01*
X123034048Y-66380159D01*
X123025280Y-66368336D01*
X123017712Y-66355710D01*
X123011418Y-66342403D01*
X123006459Y-66328543D01*
X123002882Y-66314264D01*
X123000722Y-66299703D01*
X123000000Y-66285000D01*
X123000000Y-65985000D01*
X123000722Y-65970297D01*
X123002882Y-65955736D01*
X123006459Y-65941457D01*
X123011418Y-65927597D01*
X123017712Y-65914290D01*
X123025280Y-65901664D01*
X123034048Y-65889841D01*
X123043934Y-65878934D01*
X123054841Y-65869048D01*
X123066664Y-65860280D01*
X123079290Y-65852712D01*
X123092597Y-65846418D01*
X123106457Y-65841459D01*
X123120736Y-65837882D01*
X123135297Y-65835722D01*
X123150000Y-65835000D01*
X124800000Y-65835000D01*
X124814703Y-65835722D01*
G37*
G36*
X124814703Y-67105722D02*
G01*
X124829264Y-67107882D01*
X124843543Y-67111459D01*
X124857403Y-67116418D01*
X124870710Y-67122712D01*
X124883336Y-67130280D01*
X124895159Y-67139048D01*
X124906066Y-67148934D01*
X124915952Y-67159841D01*
X124924720Y-67171664D01*
X124932288Y-67184290D01*
X124938582Y-67197597D01*
X124943541Y-67211457D01*
X124947118Y-67225736D01*
X124949278Y-67240297D01*
X124950000Y-67255000D01*
X124950000Y-67555000D01*
X124949278Y-67569703D01*
X124947118Y-67584264D01*
X124943541Y-67598543D01*
X124938582Y-67612403D01*
X124932288Y-67625710D01*
X124924720Y-67638336D01*
X124915952Y-67650159D01*
X124906066Y-67661066D01*
X124895159Y-67670952D01*
X124883336Y-67679720D01*
X124870710Y-67687288D01*
X124857403Y-67693582D01*
X124843543Y-67698541D01*
X124829264Y-67702118D01*
X124814703Y-67704278D01*
X124800000Y-67705000D01*
X123150000Y-67705000D01*
X123135297Y-67704278D01*
X123120736Y-67702118D01*
X123106457Y-67698541D01*
X123092597Y-67693582D01*
X123079290Y-67687288D01*
X123066664Y-67679720D01*
X123054841Y-67670952D01*
X123043934Y-67661066D01*
X123034048Y-67650159D01*
X123025280Y-67638336D01*
X123017712Y-67625710D01*
X123011418Y-67612403D01*
X123006459Y-67598543D01*
X123002882Y-67584264D01*
X123000722Y-67569703D01*
X123000000Y-67555000D01*
X123000000Y-67255000D01*
X123000722Y-67240297D01*
X123002882Y-67225736D01*
X123006459Y-67211457D01*
X123011418Y-67197597D01*
X123017712Y-67184290D01*
X123025280Y-67171664D01*
X123034048Y-67159841D01*
X123043934Y-67148934D01*
X123054841Y-67139048D01*
X123066664Y-67130280D01*
X123079290Y-67122712D01*
X123092597Y-67116418D01*
X123106457Y-67111459D01*
X123120736Y-67107882D01*
X123135297Y-67105722D01*
X123150000Y-67105000D01*
X124800000Y-67105000D01*
X124814703Y-67105722D01*
G37*
G36*
X119864703Y-67105722D02*
G01*
X119879264Y-67107882D01*
X119893543Y-67111459D01*
X119907403Y-67116418D01*
X119920710Y-67122712D01*
X119933336Y-67130280D01*
X119945159Y-67139048D01*
X119956066Y-67148934D01*
X119965952Y-67159841D01*
X119974720Y-67171664D01*
X119982288Y-67184290D01*
X119988582Y-67197597D01*
X119993541Y-67211457D01*
X119997118Y-67225736D01*
X119999278Y-67240297D01*
X120000000Y-67255000D01*
X120000000Y-67555000D01*
X119999278Y-67569703D01*
X119997118Y-67584264D01*
X119993541Y-67598543D01*
X119988582Y-67612403D01*
X119982288Y-67625710D01*
X119974720Y-67638336D01*
X119965952Y-67650159D01*
X119956066Y-67661066D01*
X119945159Y-67670952D01*
X119933336Y-67679720D01*
X119920710Y-67687288D01*
X119907403Y-67693582D01*
X119893543Y-67698541D01*
X119879264Y-67702118D01*
X119864703Y-67704278D01*
X119850000Y-67705000D01*
X118200000Y-67705000D01*
X118185297Y-67704278D01*
X118170736Y-67702118D01*
X118156457Y-67698541D01*
X118142597Y-67693582D01*
X118129290Y-67687288D01*
X118116664Y-67679720D01*
X118104841Y-67670952D01*
X118093934Y-67661066D01*
X118084048Y-67650159D01*
X118075280Y-67638336D01*
X118067712Y-67625710D01*
X118061418Y-67612403D01*
X118056459Y-67598543D01*
X118052882Y-67584264D01*
X118050722Y-67569703D01*
X118050000Y-67555000D01*
X118050000Y-67255000D01*
X118050722Y-67240297D01*
X118052882Y-67225736D01*
X118056459Y-67211457D01*
X118061418Y-67197597D01*
X118067712Y-67184290D01*
X118075280Y-67171664D01*
X118084048Y-67159841D01*
X118093934Y-67148934D01*
X118104841Y-67139048D01*
X118116664Y-67130280D01*
X118129290Y-67122712D01*
X118142597Y-67116418D01*
X118156457Y-67111459D01*
X118170736Y-67107882D01*
X118185297Y-67105722D01*
X118200000Y-67105000D01*
X119850000Y-67105000D01*
X119864703Y-67105722D01*
G37*
G36*
X119864703Y-65835722D02*
G01*
X119879264Y-65837882D01*
X119893543Y-65841459D01*
X119907403Y-65846418D01*
X119920710Y-65852712D01*
X119933336Y-65860280D01*
X119945159Y-65869048D01*
X119956066Y-65878934D01*
X119965952Y-65889841D01*
X119974720Y-65901664D01*
X119982288Y-65914290D01*
X119988582Y-65927597D01*
X119993541Y-65941457D01*
X119997118Y-65955736D01*
X119999278Y-65970297D01*
X120000000Y-65985000D01*
X120000000Y-66285000D01*
X119999278Y-66299703D01*
X119997118Y-66314264D01*
X119993541Y-66328543D01*
X119988582Y-66342403D01*
X119982288Y-66355710D01*
X119974720Y-66368336D01*
X119965952Y-66380159D01*
X119956066Y-66391066D01*
X119945159Y-66400952D01*
X119933336Y-66409720D01*
X119920710Y-66417288D01*
X119907403Y-66423582D01*
X119893543Y-66428541D01*
X119879264Y-66432118D01*
X119864703Y-66434278D01*
X119850000Y-66435000D01*
X118200000Y-66435000D01*
X118185297Y-66434278D01*
X118170736Y-66432118D01*
X118156457Y-66428541D01*
X118142597Y-66423582D01*
X118129290Y-66417288D01*
X118116664Y-66409720D01*
X118104841Y-66400952D01*
X118093934Y-66391066D01*
X118084048Y-66380159D01*
X118075280Y-66368336D01*
X118067712Y-66355710D01*
X118061418Y-66342403D01*
X118056459Y-66328543D01*
X118052882Y-66314264D01*
X118050722Y-66299703D01*
X118050000Y-66285000D01*
X118050000Y-65985000D01*
X118050722Y-65970297D01*
X118052882Y-65955736D01*
X118056459Y-65941457D01*
X118061418Y-65927597D01*
X118067712Y-65914290D01*
X118075280Y-65901664D01*
X118084048Y-65889841D01*
X118093934Y-65878934D01*
X118104841Y-65869048D01*
X118116664Y-65860280D01*
X118129290Y-65852712D01*
X118142597Y-65846418D01*
X118156457Y-65841459D01*
X118170736Y-65837882D01*
X118185297Y-65835722D01*
X118200000Y-65835000D01*
X119850000Y-65835000D01*
X119864703Y-65835722D01*
G37*
G36*
X119864703Y-64565722D02*
G01*
X119879264Y-64567882D01*
X119893543Y-64571459D01*
X119907403Y-64576418D01*
X119920710Y-64582712D01*
X119933336Y-64590280D01*
X119945159Y-64599048D01*
X119956066Y-64608934D01*
X119965952Y-64619841D01*
X119974720Y-64631664D01*
X119982288Y-64644290D01*
X119988582Y-64657597D01*
X119993541Y-64671457D01*
X119997118Y-64685736D01*
X119999278Y-64700297D01*
X120000000Y-64715000D01*
X120000000Y-65015000D01*
X119999278Y-65029703D01*
X119997118Y-65044264D01*
X119993541Y-65058543D01*
X119988582Y-65072403D01*
X119982288Y-65085710D01*
X119974720Y-65098336D01*
X119965952Y-65110159D01*
X119956066Y-65121066D01*
X119945159Y-65130952D01*
X119933336Y-65139720D01*
X119920710Y-65147288D01*
X119907403Y-65153582D01*
X119893543Y-65158541D01*
X119879264Y-65162118D01*
X119864703Y-65164278D01*
X119850000Y-65165000D01*
X118200000Y-65165000D01*
X118185297Y-65164278D01*
X118170736Y-65162118D01*
X118156457Y-65158541D01*
X118142597Y-65153582D01*
X118129290Y-65147288D01*
X118116664Y-65139720D01*
X118104841Y-65130952D01*
X118093934Y-65121066D01*
X118084048Y-65110159D01*
X118075280Y-65098336D01*
X118067712Y-65085710D01*
X118061418Y-65072403D01*
X118056459Y-65058543D01*
X118052882Y-65044264D01*
X118050722Y-65029703D01*
X118050000Y-65015000D01*
X118050000Y-64715000D01*
X118050722Y-64700297D01*
X118052882Y-64685736D01*
X118056459Y-64671457D01*
X118061418Y-64657597D01*
X118067712Y-64644290D01*
X118075280Y-64631664D01*
X118084048Y-64619841D01*
X118093934Y-64608934D01*
X118104841Y-64599048D01*
X118116664Y-64590280D01*
X118129290Y-64582712D01*
X118142597Y-64576418D01*
X118156457Y-64571459D01*
X118170736Y-64567882D01*
X118185297Y-64565722D01*
X118200000Y-64565000D01*
X119850000Y-64565000D01*
X119864703Y-64565722D01*
G37*
G36*
X119864703Y-63295722D02*
G01*
X119879264Y-63297882D01*
X119893543Y-63301459D01*
X119907403Y-63306418D01*
X119920710Y-63312712D01*
X119933336Y-63320280D01*
X119945159Y-63329048D01*
X119956066Y-63338934D01*
X119965952Y-63349841D01*
X119974720Y-63361664D01*
X119982288Y-63374290D01*
X119988582Y-63387597D01*
X119993541Y-63401457D01*
X119997118Y-63415736D01*
X119999278Y-63430297D01*
X120000000Y-63445000D01*
X120000000Y-63745000D01*
X119999278Y-63759703D01*
X119997118Y-63774264D01*
X119993541Y-63788543D01*
X119988582Y-63802403D01*
X119982288Y-63815710D01*
X119974720Y-63828336D01*
X119965952Y-63840159D01*
X119956066Y-63851066D01*
X119945159Y-63860952D01*
X119933336Y-63869720D01*
X119920710Y-63877288D01*
X119907403Y-63883582D01*
X119893543Y-63888541D01*
X119879264Y-63892118D01*
X119864703Y-63894278D01*
X119850000Y-63895000D01*
X118200000Y-63895000D01*
X118185297Y-63894278D01*
X118170736Y-63892118D01*
X118156457Y-63888541D01*
X118142597Y-63883582D01*
X118129290Y-63877288D01*
X118116664Y-63869720D01*
X118104841Y-63860952D01*
X118093934Y-63851066D01*
X118084048Y-63840159D01*
X118075280Y-63828336D01*
X118067712Y-63815710D01*
X118061418Y-63802403D01*
X118056459Y-63788543D01*
X118052882Y-63774264D01*
X118050722Y-63759703D01*
X118050000Y-63745000D01*
X118050000Y-63445000D01*
X118050722Y-63430297D01*
X118052882Y-63415736D01*
X118056459Y-63401457D01*
X118061418Y-63387597D01*
X118067712Y-63374290D01*
X118075280Y-63361664D01*
X118084048Y-63349841D01*
X118093934Y-63338934D01*
X118104841Y-63329048D01*
X118116664Y-63320280D01*
X118129290Y-63312712D01*
X118142597Y-63306418D01*
X118156457Y-63301459D01*
X118170736Y-63297882D01*
X118185297Y-63295722D01*
X118200000Y-63295000D01*
X119850000Y-63295000D01*
X119864703Y-63295722D01*
G37*
G36*
X116814703Y-63295722D02*
G01*
X116829264Y-63297882D01*
X116843543Y-63301459D01*
X116857403Y-63306418D01*
X116870710Y-63312712D01*
X116883336Y-63320280D01*
X116895159Y-63329048D01*
X116906066Y-63338934D01*
X116915952Y-63349841D01*
X116924720Y-63361664D01*
X116932288Y-63374290D01*
X116938582Y-63387597D01*
X116943541Y-63401457D01*
X116947118Y-63415736D01*
X116949278Y-63430297D01*
X116950000Y-63445000D01*
X116950000Y-63745000D01*
X116949278Y-63759703D01*
X116947118Y-63774264D01*
X116943541Y-63788543D01*
X116938582Y-63802403D01*
X116932288Y-63815710D01*
X116924720Y-63828336D01*
X116915952Y-63840159D01*
X116906066Y-63851066D01*
X116895159Y-63860952D01*
X116883336Y-63869720D01*
X116870710Y-63877288D01*
X116857403Y-63883582D01*
X116843543Y-63888541D01*
X116829264Y-63892118D01*
X116814703Y-63894278D01*
X116800000Y-63895000D01*
X115150000Y-63895000D01*
X115135297Y-63894278D01*
X115120736Y-63892118D01*
X115106457Y-63888541D01*
X115092597Y-63883582D01*
X115079290Y-63877288D01*
X115066664Y-63869720D01*
X115054841Y-63860952D01*
X115043934Y-63851066D01*
X115034048Y-63840159D01*
X115025280Y-63828336D01*
X115017712Y-63815710D01*
X115011418Y-63802403D01*
X115006459Y-63788543D01*
X115002882Y-63774264D01*
X115000722Y-63759703D01*
X115000000Y-63745000D01*
X115000000Y-63445000D01*
X115000722Y-63430297D01*
X115002882Y-63415736D01*
X115006459Y-63401457D01*
X115011418Y-63387597D01*
X115017712Y-63374290D01*
X115025280Y-63361664D01*
X115034048Y-63349841D01*
X115043934Y-63338934D01*
X115054841Y-63329048D01*
X115066664Y-63320280D01*
X115079290Y-63312712D01*
X115092597Y-63306418D01*
X115106457Y-63301459D01*
X115120736Y-63297882D01*
X115135297Y-63295722D01*
X115150000Y-63295000D01*
X116800000Y-63295000D01*
X116814703Y-63295722D01*
G37*
G36*
X116814703Y-64565722D02*
G01*
X116829264Y-64567882D01*
X116843543Y-64571459D01*
X116857403Y-64576418D01*
X116870710Y-64582712D01*
X116883336Y-64590280D01*
X116895159Y-64599048D01*
X116906066Y-64608934D01*
X116915952Y-64619841D01*
X116924720Y-64631664D01*
X116932288Y-64644290D01*
X116938582Y-64657597D01*
X116943541Y-64671457D01*
X116947118Y-64685736D01*
X116949278Y-64700297D01*
X116950000Y-64715000D01*
X116950000Y-65015000D01*
X116949278Y-65029703D01*
X116947118Y-65044264D01*
X116943541Y-65058543D01*
X116938582Y-65072403D01*
X116932288Y-65085710D01*
X116924720Y-65098336D01*
X116915952Y-65110159D01*
X116906066Y-65121066D01*
X116895159Y-65130952D01*
X116883336Y-65139720D01*
X116870710Y-65147288D01*
X116857403Y-65153582D01*
X116843543Y-65158541D01*
X116829264Y-65162118D01*
X116814703Y-65164278D01*
X116800000Y-65165000D01*
X115150000Y-65165000D01*
X115135297Y-65164278D01*
X115120736Y-65162118D01*
X115106457Y-65158541D01*
X115092597Y-65153582D01*
X115079290Y-65147288D01*
X115066664Y-65139720D01*
X115054841Y-65130952D01*
X115043934Y-65121066D01*
X115034048Y-65110159D01*
X115025280Y-65098336D01*
X115017712Y-65085710D01*
X115011418Y-65072403D01*
X115006459Y-65058543D01*
X115002882Y-65044264D01*
X115000722Y-65029703D01*
X115000000Y-65015000D01*
X115000000Y-64715000D01*
X115000722Y-64700297D01*
X115002882Y-64685736D01*
X115006459Y-64671457D01*
X115011418Y-64657597D01*
X115017712Y-64644290D01*
X115025280Y-64631664D01*
X115034048Y-64619841D01*
X115043934Y-64608934D01*
X115054841Y-64599048D01*
X115066664Y-64590280D01*
X115079290Y-64582712D01*
X115092597Y-64576418D01*
X115106457Y-64571459D01*
X115120736Y-64567882D01*
X115135297Y-64565722D01*
X115150000Y-64565000D01*
X116800000Y-64565000D01*
X116814703Y-64565722D01*
G37*
G36*
X116814703Y-65835722D02*
G01*
X116829264Y-65837882D01*
X116843543Y-65841459D01*
X116857403Y-65846418D01*
X116870710Y-65852712D01*
X116883336Y-65860280D01*
X116895159Y-65869048D01*
X116906066Y-65878934D01*
X116915952Y-65889841D01*
X116924720Y-65901664D01*
X116932288Y-65914290D01*
X116938582Y-65927597D01*
X116943541Y-65941457D01*
X116947118Y-65955736D01*
X116949278Y-65970297D01*
X116950000Y-65985000D01*
X116950000Y-66285000D01*
X116949278Y-66299703D01*
X116947118Y-66314264D01*
X116943541Y-66328543D01*
X116938582Y-66342403D01*
X116932288Y-66355710D01*
X116924720Y-66368336D01*
X116915952Y-66380159D01*
X116906066Y-66391066D01*
X116895159Y-66400952D01*
X116883336Y-66409720D01*
X116870710Y-66417288D01*
X116857403Y-66423582D01*
X116843543Y-66428541D01*
X116829264Y-66432118D01*
X116814703Y-66434278D01*
X116800000Y-66435000D01*
X115150000Y-66435000D01*
X115135297Y-66434278D01*
X115120736Y-66432118D01*
X115106457Y-66428541D01*
X115092597Y-66423582D01*
X115079290Y-66417288D01*
X115066664Y-66409720D01*
X115054841Y-66400952D01*
X115043934Y-66391066D01*
X115034048Y-66380159D01*
X115025280Y-66368336D01*
X115017712Y-66355710D01*
X115011418Y-66342403D01*
X115006459Y-66328543D01*
X115002882Y-66314264D01*
X115000722Y-66299703D01*
X115000000Y-66285000D01*
X115000000Y-65985000D01*
X115000722Y-65970297D01*
X115002882Y-65955736D01*
X115006459Y-65941457D01*
X115011418Y-65927597D01*
X115017712Y-65914290D01*
X115025280Y-65901664D01*
X115034048Y-65889841D01*
X115043934Y-65878934D01*
X115054841Y-65869048D01*
X115066664Y-65860280D01*
X115079290Y-65852712D01*
X115092597Y-65846418D01*
X115106457Y-65841459D01*
X115120736Y-65837882D01*
X115135297Y-65835722D01*
X115150000Y-65835000D01*
X116800000Y-65835000D01*
X116814703Y-65835722D01*
G37*
G36*
X116814703Y-67105722D02*
G01*
X116829264Y-67107882D01*
X116843543Y-67111459D01*
X116857403Y-67116418D01*
X116870710Y-67122712D01*
X116883336Y-67130280D01*
X116895159Y-67139048D01*
X116906066Y-67148934D01*
X116915952Y-67159841D01*
X116924720Y-67171664D01*
X116932288Y-67184290D01*
X116938582Y-67197597D01*
X116943541Y-67211457D01*
X116947118Y-67225736D01*
X116949278Y-67240297D01*
X116950000Y-67255000D01*
X116950000Y-67555000D01*
X116949278Y-67569703D01*
X116947118Y-67584264D01*
X116943541Y-67598543D01*
X116938582Y-67612403D01*
X116932288Y-67625710D01*
X116924720Y-67638336D01*
X116915952Y-67650159D01*
X116906066Y-67661066D01*
X116895159Y-67670952D01*
X116883336Y-67679720D01*
X116870710Y-67687288D01*
X116857403Y-67693582D01*
X116843543Y-67698541D01*
X116829264Y-67702118D01*
X116814703Y-67704278D01*
X116800000Y-67705000D01*
X115150000Y-67705000D01*
X115135297Y-67704278D01*
X115120736Y-67702118D01*
X115106457Y-67698541D01*
X115092597Y-67693582D01*
X115079290Y-67687288D01*
X115066664Y-67679720D01*
X115054841Y-67670952D01*
X115043934Y-67661066D01*
X115034048Y-67650159D01*
X115025280Y-67638336D01*
X115017712Y-67625710D01*
X115011418Y-67612403D01*
X115006459Y-67598543D01*
X115002882Y-67584264D01*
X115000722Y-67569703D01*
X115000000Y-67555000D01*
X115000000Y-67255000D01*
X115000722Y-67240297D01*
X115002882Y-67225736D01*
X115006459Y-67211457D01*
X115011418Y-67197597D01*
X115017712Y-67184290D01*
X115025280Y-67171664D01*
X115034048Y-67159841D01*
X115043934Y-67148934D01*
X115054841Y-67139048D01*
X115066664Y-67130280D01*
X115079290Y-67122712D01*
X115092597Y-67116418D01*
X115106457Y-67111459D01*
X115120736Y-67107882D01*
X115135297Y-67105722D01*
X115150000Y-67105000D01*
X116800000Y-67105000D01*
X116814703Y-67105722D01*
G37*
G36*
X111864703Y-67105722D02*
G01*
X111879264Y-67107882D01*
X111893543Y-67111459D01*
X111907403Y-67116418D01*
X111920710Y-67122712D01*
X111933336Y-67130280D01*
X111945159Y-67139048D01*
X111956066Y-67148934D01*
X111965952Y-67159841D01*
X111974720Y-67171664D01*
X111982288Y-67184290D01*
X111988582Y-67197597D01*
X111993541Y-67211457D01*
X111997118Y-67225736D01*
X111999278Y-67240297D01*
X112000000Y-67255000D01*
X112000000Y-67555000D01*
X111999278Y-67569703D01*
X111997118Y-67584264D01*
X111993541Y-67598543D01*
X111988582Y-67612403D01*
X111982288Y-67625710D01*
X111974720Y-67638336D01*
X111965952Y-67650159D01*
X111956066Y-67661066D01*
X111945159Y-67670952D01*
X111933336Y-67679720D01*
X111920710Y-67687288D01*
X111907403Y-67693582D01*
X111893543Y-67698541D01*
X111879264Y-67702118D01*
X111864703Y-67704278D01*
X111850000Y-67705000D01*
X110200000Y-67705000D01*
X110185297Y-67704278D01*
X110170736Y-67702118D01*
X110156457Y-67698541D01*
X110142597Y-67693582D01*
X110129290Y-67687288D01*
X110116664Y-67679720D01*
X110104841Y-67670952D01*
X110093934Y-67661066D01*
X110084048Y-67650159D01*
X110075280Y-67638336D01*
X110067712Y-67625710D01*
X110061418Y-67612403D01*
X110056459Y-67598543D01*
X110052882Y-67584264D01*
X110050722Y-67569703D01*
X110050000Y-67555000D01*
X110050000Y-67255000D01*
X110050722Y-67240297D01*
X110052882Y-67225736D01*
X110056459Y-67211457D01*
X110061418Y-67197597D01*
X110067712Y-67184290D01*
X110075280Y-67171664D01*
X110084048Y-67159841D01*
X110093934Y-67148934D01*
X110104841Y-67139048D01*
X110116664Y-67130280D01*
X110129290Y-67122712D01*
X110142597Y-67116418D01*
X110156457Y-67111459D01*
X110170736Y-67107882D01*
X110185297Y-67105722D01*
X110200000Y-67105000D01*
X111850000Y-67105000D01*
X111864703Y-67105722D01*
G37*
G36*
X111864703Y-65835722D02*
G01*
X111879264Y-65837882D01*
X111893543Y-65841459D01*
X111907403Y-65846418D01*
X111920710Y-65852712D01*
X111933336Y-65860280D01*
X111945159Y-65869048D01*
X111956066Y-65878934D01*
X111965952Y-65889841D01*
X111974720Y-65901664D01*
X111982288Y-65914290D01*
X111988582Y-65927597D01*
X111993541Y-65941457D01*
X111997118Y-65955736D01*
X111999278Y-65970297D01*
X112000000Y-65985000D01*
X112000000Y-66285000D01*
X111999278Y-66299703D01*
X111997118Y-66314264D01*
X111993541Y-66328543D01*
X111988582Y-66342403D01*
X111982288Y-66355710D01*
X111974720Y-66368336D01*
X111965952Y-66380159D01*
X111956066Y-66391066D01*
X111945159Y-66400952D01*
X111933336Y-66409720D01*
X111920710Y-66417288D01*
X111907403Y-66423582D01*
X111893543Y-66428541D01*
X111879264Y-66432118D01*
X111864703Y-66434278D01*
X111850000Y-66435000D01*
X110200000Y-66435000D01*
X110185297Y-66434278D01*
X110170736Y-66432118D01*
X110156457Y-66428541D01*
X110142597Y-66423582D01*
X110129290Y-66417288D01*
X110116664Y-66409720D01*
X110104841Y-66400952D01*
X110093934Y-66391066D01*
X110084048Y-66380159D01*
X110075280Y-66368336D01*
X110067712Y-66355710D01*
X110061418Y-66342403D01*
X110056459Y-66328543D01*
X110052882Y-66314264D01*
X110050722Y-66299703D01*
X110050000Y-66285000D01*
X110050000Y-65985000D01*
X110050722Y-65970297D01*
X110052882Y-65955736D01*
X110056459Y-65941457D01*
X110061418Y-65927597D01*
X110067712Y-65914290D01*
X110075280Y-65901664D01*
X110084048Y-65889841D01*
X110093934Y-65878934D01*
X110104841Y-65869048D01*
X110116664Y-65860280D01*
X110129290Y-65852712D01*
X110142597Y-65846418D01*
X110156457Y-65841459D01*
X110170736Y-65837882D01*
X110185297Y-65835722D01*
X110200000Y-65835000D01*
X111850000Y-65835000D01*
X111864703Y-65835722D01*
G37*
G36*
X111864703Y-64565722D02*
G01*
X111879264Y-64567882D01*
X111893543Y-64571459D01*
X111907403Y-64576418D01*
X111920710Y-64582712D01*
X111933336Y-64590280D01*
X111945159Y-64599048D01*
X111956066Y-64608934D01*
X111965952Y-64619841D01*
X111974720Y-64631664D01*
X111982288Y-64644290D01*
X111988582Y-64657597D01*
X111993541Y-64671457D01*
X111997118Y-64685736D01*
X111999278Y-64700297D01*
X112000000Y-64715000D01*
X112000000Y-65015000D01*
X111999278Y-65029703D01*
X111997118Y-65044264D01*
X111993541Y-65058543D01*
X111988582Y-65072403D01*
X111982288Y-65085710D01*
X111974720Y-65098336D01*
X111965952Y-65110159D01*
X111956066Y-65121066D01*
X111945159Y-65130952D01*
X111933336Y-65139720D01*
X111920710Y-65147288D01*
X111907403Y-65153582D01*
X111893543Y-65158541D01*
X111879264Y-65162118D01*
X111864703Y-65164278D01*
X111850000Y-65165000D01*
X110200000Y-65165000D01*
X110185297Y-65164278D01*
X110170736Y-65162118D01*
X110156457Y-65158541D01*
X110142597Y-65153582D01*
X110129290Y-65147288D01*
X110116664Y-65139720D01*
X110104841Y-65130952D01*
X110093934Y-65121066D01*
X110084048Y-65110159D01*
X110075280Y-65098336D01*
X110067712Y-65085710D01*
X110061418Y-65072403D01*
X110056459Y-65058543D01*
X110052882Y-65044264D01*
X110050722Y-65029703D01*
X110050000Y-65015000D01*
X110050000Y-64715000D01*
X110050722Y-64700297D01*
X110052882Y-64685736D01*
X110056459Y-64671457D01*
X110061418Y-64657597D01*
X110067712Y-64644290D01*
X110075280Y-64631664D01*
X110084048Y-64619841D01*
X110093934Y-64608934D01*
X110104841Y-64599048D01*
X110116664Y-64590280D01*
X110129290Y-64582712D01*
X110142597Y-64576418D01*
X110156457Y-64571459D01*
X110170736Y-64567882D01*
X110185297Y-64565722D01*
X110200000Y-64565000D01*
X111850000Y-64565000D01*
X111864703Y-64565722D01*
G37*
G36*
X111864703Y-63295722D02*
G01*
X111879264Y-63297882D01*
X111893543Y-63301459D01*
X111907403Y-63306418D01*
X111920710Y-63312712D01*
X111933336Y-63320280D01*
X111945159Y-63329048D01*
X111956066Y-63338934D01*
X111965952Y-63349841D01*
X111974720Y-63361664D01*
X111982288Y-63374290D01*
X111988582Y-63387597D01*
X111993541Y-63401457D01*
X111997118Y-63415736D01*
X111999278Y-63430297D01*
X112000000Y-63445000D01*
X112000000Y-63745000D01*
X111999278Y-63759703D01*
X111997118Y-63774264D01*
X111993541Y-63788543D01*
X111988582Y-63802403D01*
X111982288Y-63815710D01*
X111974720Y-63828336D01*
X111965952Y-63840159D01*
X111956066Y-63851066D01*
X111945159Y-63860952D01*
X111933336Y-63869720D01*
X111920710Y-63877288D01*
X111907403Y-63883582D01*
X111893543Y-63888541D01*
X111879264Y-63892118D01*
X111864703Y-63894278D01*
X111850000Y-63895000D01*
X110200000Y-63895000D01*
X110185297Y-63894278D01*
X110170736Y-63892118D01*
X110156457Y-63888541D01*
X110142597Y-63883582D01*
X110129290Y-63877288D01*
X110116664Y-63869720D01*
X110104841Y-63860952D01*
X110093934Y-63851066D01*
X110084048Y-63840159D01*
X110075280Y-63828336D01*
X110067712Y-63815710D01*
X110061418Y-63802403D01*
X110056459Y-63788543D01*
X110052882Y-63774264D01*
X110050722Y-63759703D01*
X110050000Y-63745000D01*
X110050000Y-63445000D01*
X110050722Y-63430297D01*
X110052882Y-63415736D01*
X110056459Y-63401457D01*
X110061418Y-63387597D01*
X110067712Y-63374290D01*
X110075280Y-63361664D01*
X110084048Y-63349841D01*
X110093934Y-63338934D01*
X110104841Y-63329048D01*
X110116664Y-63320280D01*
X110129290Y-63312712D01*
X110142597Y-63306418D01*
X110156457Y-63301459D01*
X110170736Y-63297882D01*
X110185297Y-63295722D01*
X110200000Y-63295000D01*
X111850000Y-63295000D01*
X111864703Y-63295722D01*
G37*
D20*
X153920000Y-65000000D03*
D19*
G36*
X159713711Y-63703130D02*
G01*
X159776809Y-63712490D01*
X159838685Y-63727989D01*
X159898744Y-63749478D01*
X159956408Y-63776751D01*
X160011121Y-63809545D01*
X160062356Y-63847543D01*
X160109619Y-63890381D01*
X160152457Y-63937644D01*
X160190455Y-63988879D01*
X160223249Y-64043592D01*
X160250522Y-64101256D01*
X160272011Y-64161315D01*
X160287510Y-64223191D01*
X160296870Y-64286289D01*
X160300000Y-64350000D01*
X160300000Y-65650000D01*
X160296870Y-65713711D01*
X160287510Y-65776809D01*
X160272011Y-65838685D01*
X160250522Y-65898744D01*
X160223249Y-65956408D01*
X160190455Y-66011121D01*
X160152457Y-66062356D01*
X160109619Y-66109619D01*
X160062356Y-66152457D01*
X160011121Y-66190455D01*
X159956408Y-66223249D01*
X159898744Y-66250522D01*
X159838685Y-66272011D01*
X159776809Y-66287510D01*
X159713711Y-66296870D01*
X159650000Y-66300000D01*
X158350000Y-66300000D01*
X158286289Y-66296870D01*
X158223191Y-66287510D01*
X158161315Y-66272011D01*
X158101256Y-66250522D01*
X158043592Y-66223249D01*
X157988879Y-66190455D01*
X157937644Y-66152457D01*
X157890381Y-66109619D01*
X157847543Y-66062356D01*
X157809545Y-66011121D01*
X157776751Y-65956408D01*
X157749478Y-65898744D01*
X157727989Y-65838685D01*
X157712490Y-65776809D01*
X157703130Y-65713711D01*
X157700000Y-65650000D01*
X157700000Y-64350000D01*
X157703130Y-64286289D01*
X157712490Y-64223191D01*
X157727989Y-64161315D01*
X157749478Y-64101256D01*
X157776751Y-64043592D01*
X157809545Y-63988879D01*
X157847543Y-63937644D01*
X157890381Y-63890381D01*
X157937644Y-63847543D01*
X157988879Y-63809545D01*
X158043592Y-63776751D01*
X158101256Y-63749478D01*
X158161315Y-63727989D01*
X158223191Y-63712490D01*
X158286289Y-63703130D01*
X158350000Y-63700000D01*
X159650000Y-63700000D01*
X159713711Y-63703130D01*
G37*
D21*
X118050000Y-122250000D03*
X122750000Y-122250000D03*
D22*
X127450000Y-122250000D03*
D23*
X149920000Y-100250000D03*
X152460000Y-100250000D03*
X155000000Y-100250000D03*
X157460000Y-127000000D03*
X160000000Y-127000000D03*
X162540000Y-127000000D03*
X167960000Y-127000000D03*
X170500000Y-127000000D03*
X173040000Y-127000000D03*
D19*
G36*
X169900142Y-112088674D02*
G01*
X169923803Y-112092184D01*
X169947007Y-112097996D01*
X169969529Y-112106054D01*
X169991153Y-112116282D01*
X170011670Y-112128579D01*
X170030883Y-112142829D01*
X170048607Y-112158893D01*
X170064671Y-112176617D01*
X170078921Y-112195830D01*
X170091218Y-112216347D01*
X170101446Y-112237971D01*
X170109504Y-112260493D01*
X170115316Y-112283697D01*
X170118826Y-112307358D01*
X170120000Y-112331250D01*
X170120000Y-112818750D01*
X170118826Y-112842642D01*
X170115316Y-112866303D01*
X170109504Y-112889507D01*
X170101446Y-112912029D01*
X170091218Y-112933653D01*
X170078921Y-112954170D01*
X170064671Y-112973383D01*
X170048607Y-112991107D01*
X170030883Y-113007171D01*
X170011670Y-113021421D01*
X169991153Y-113033718D01*
X169969529Y-113043946D01*
X169947007Y-113052004D01*
X169923803Y-113057816D01*
X169900142Y-113061326D01*
X169876250Y-113062500D01*
X168963750Y-113062500D01*
X168939858Y-113061326D01*
X168916197Y-113057816D01*
X168892993Y-113052004D01*
X168870471Y-113043946D01*
X168848847Y-113033718D01*
X168828330Y-113021421D01*
X168809117Y-113007171D01*
X168791393Y-112991107D01*
X168775329Y-112973383D01*
X168761079Y-112954170D01*
X168748782Y-112933653D01*
X168738554Y-112912029D01*
X168730496Y-112889507D01*
X168724684Y-112866303D01*
X168721174Y-112842642D01*
X168720000Y-112818750D01*
X168720000Y-112331250D01*
X168721174Y-112307358D01*
X168724684Y-112283697D01*
X168730496Y-112260493D01*
X168738554Y-112237971D01*
X168748782Y-112216347D01*
X168761079Y-112195830D01*
X168775329Y-112176617D01*
X168791393Y-112158893D01*
X168809117Y-112142829D01*
X168828330Y-112128579D01*
X168848847Y-112116282D01*
X168870471Y-112106054D01*
X168892993Y-112097996D01*
X168916197Y-112092184D01*
X168939858Y-112088674D01*
X168963750Y-112087500D01*
X169876250Y-112087500D01*
X169900142Y-112088674D01*
G37*
G36*
X169900142Y-113963674D02*
G01*
X169923803Y-113967184D01*
X169947007Y-113972996D01*
X169969529Y-113981054D01*
X169991153Y-113991282D01*
X170011670Y-114003579D01*
X170030883Y-114017829D01*
X170048607Y-114033893D01*
X170064671Y-114051617D01*
X170078921Y-114070830D01*
X170091218Y-114091347D01*
X170101446Y-114112971D01*
X170109504Y-114135493D01*
X170115316Y-114158697D01*
X170118826Y-114182358D01*
X170120000Y-114206250D01*
X170120000Y-114693750D01*
X170118826Y-114717642D01*
X170115316Y-114741303D01*
X170109504Y-114764507D01*
X170101446Y-114787029D01*
X170091218Y-114808653D01*
X170078921Y-114829170D01*
X170064671Y-114848383D01*
X170048607Y-114866107D01*
X170030883Y-114882171D01*
X170011670Y-114896421D01*
X169991153Y-114908718D01*
X169969529Y-114918946D01*
X169947007Y-114927004D01*
X169923803Y-114932816D01*
X169900142Y-114936326D01*
X169876250Y-114937500D01*
X168963750Y-114937500D01*
X168939858Y-114936326D01*
X168916197Y-114932816D01*
X168892993Y-114927004D01*
X168870471Y-114918946D01*
X168848847Y-114908718D01*
X168828330Y-114896421D01*
X168809117Y-114882171D01*
X168791393Y-114866107D01*
X168775329Y-114848383D01*
X168761079Y-114829170D01*
X168748782Y-114808653D01*
X168738554Y-114787029D01*
X168730496Y-114764507D01*
X168724684Y-114741303D01*
X168721174Y-114717642D01*
X168720000Y-114693750D01*
X168720000Y-114206250D01*
X168721174Y-114182358D01*
X168724684Y-114158697D01*
X168730496Y-114135493D01*
X168738554Y-114112971D01*
X168748782Y-114091347D01*
X168761079Y-114070830D01*
X168775329Y-114051617D01*
X168791393Y-114033893D01*
X168809117Y-114017829D01*
X168828330Y-114003579D01*
X168848847Y-113991282D01*
X168870471Y-113981054D01*
X168892993Y-113972996D01*
X168916197Y-113967184D01*
X168939858Y-113963674D01*
X168963750Y-113962500D01*
X169876250Y-113962500D01*
X169900142Y-113963674D01*
G37*
G36*
X172440142Y-112088674D02*
G01*
X172463803Y-112092184D01*
X172487007Y-112097996D01*
X172509529Y-112106054D01*
X172531153Y-112116282D01*
X172551670Y-112128579D01*
X172570883Y-112142829D01*
X172588607Y-112158893D01*
X172604671Y-112176617D01*
X172618921Y-112195830D01*
X172631218Y-112216347D01*
X172641446Y-112237971D01*
X172649504Y-112260493D01*
X172655316Y-112283697D01*
X172658826Y-112307358D01*
X172660000Y-112331250D01*
X172660000Y-112818750D01*
X172658826Y-112842642D01*
X172655316Y-112866303D01*
X172649504Y-112889507D01*
X172641446Y-112912029D01*
X172631218Y-112933653D01*
X172618921Y-112954170D01*
X172604671Y-112973383D01*
X172588607Y-112991107D01*
X172570883Y-113007171D01*
X172551670Y-113021421D01*
X172531153Y-113033718D01*
X172509529Y-113043946D01*
X172487007Y-113052004D01*
X172463803Y-113057816D01*
X172440142Y-113061326D01*
X172416250Y-113062500D01*
X171503750Y-113062500D01*
X171479858Y-113061326D01*
X171456197Y-113057816D01*
X171432993Y-113052004D01*
X171410471Y-113043946D01*
X171388847Y-113033718D01*
X171368330Y-113021421D01*
X171349117Y-113007171D01*
X171331393Y-112991107D01*
X171315329Y-112973383D01*
X171301079Y-112954170D01*
X171288782Y-112933653D01*
X171278554Y-112912029D01*
X171270496Y-112889507D01*
X171264684Y-112866303D01*
X171261174Y-112842642D01*
X171260000Y-112818750D01*
X171260000Y-112331250D01*
X171261174Y-112307358D01*
X171264684Y-112283697D01*
X171270496Y-112260493D01*
X171278554Y-112237971D01*
X171288782Y-112216347D01*
X171301079Y-112195830D01*
X171315329Y-112176617D01*
X171331393Y-112158893D01*
X171349117Y-112142829D01*
X171368330Y-112128579D01*
X171388847Y-112116282D01*
X171410471Y-112106054D01*
X171432993Y-112097996D01*
X171456197Y-112092184D01*
X171479858Y-112088674D01*
X171503750Y-112087500D01*
X172416250Y-112087500D01*
X172440142Y-112088674D01*
G37*
G36*
X172440142Y-113963674D02*
G01*
X172463803Y-113967184D01*
X172487007Y-113972996D01*
X172509529Y-113981054D01*
X172531153Y-113991282D01*
X172551670Y-114003579D01*
X172570883Y-114017829D01*
X172588607Y-114033893D01*
X172604671Y-114051617D01*
X172618921Y-114070830D01*
X172631218Y-114091347D01*
X172641446Y-114112971D01*
X172649504Y-114135493D01*
X172655316Y-114158697D01*
X172658826Y-114182358D01*
X172660000Y-114206250D01*
X172660000Y-114693750D01*
X172658826Y-114717642D01*
X172655316Y-114741303D01*
X172649504Y-114764507D01*
X172641446Y-114787029D01*
X172631218Y-114808653D01*
X172618921Y-114829170D01*
X172604671Y-114848383D01*
X172588607Y-114866107D01*
X172570883Y-114882171D01*
X172551670Y-114896421D01*
X172531153Y-114908718D01*
X172509529Y-114918946D01*
X172487007Y-114927004D01*
X172463803Y-114932816D01*
X172440142Y-114936326D01*
X172416250Y-114937500D01*
X171503750Y-114937500D01*
X171479858Y-114936326D01*
X171456197Y-114932816D01*
X171432993Y-114927004D01*
X171410471Y-114918946D01*
X171388847Y-114908718D01*
X171368330Y-114896421D01*
X171349117Y-114882171D01*
X171331393Y-114866107D01*
X171315329Y-114848383D01*
X171301079Y-114829170D01*
X171288782Y-114808653D01*
X171278554Y-114787029D01*
X171270496Y-114764507D01*
X171264684Y-114741303D01*
X171261174Y-114717642D01*
X171260000Y-114693750D01*
X171260000Y-114206250D01*
X171261174Y-114182358D01*
X171264684Y-114158697D01*
X171270496Y-114135493D01*
X171278554Y-114112971D01*
X171288782Y-114091347D01*
X171301079Y-114070830D01*
X171315329Y-114051617D01*
X171331393Y-114033893D01*
X171349117Y-114017829D01*
X171368330Y-114003579D01*
X171388847Y-113991282D01*
X171410471Y-113981054D01*
X171432993Y-113972996D01*
X171456197Y-113967184D01*
X171479858Y-113963674D01*
X171503750Y-113962500D01*
X172416250Y-113962500D01*
X172440142Y-113963674D01*
G37*
G36*
X164830142Y-112088674D02*
G01*
X164853803Y-112092184D01*
X164877007Y-112097996D01*
X164899529Y-112106054D01*
X164921153Y-112116282D01*
X164941670Y-112128579D01*
X164960883Y-112142829D01*
X164978607Y-112158893D01*
X164994671Y-112176617D01*
X165008921Y-112195830D01*
X165021218Y-112216347D01*
X165031446Y-112237971D01*
X165039504Y-112260493D01*
X165045316Y-112283697D01*
X165048826Y-112307358D01*
X165050000Y-112331250D01*
X165050000Y-112818750D01*
X165048826Y-112842642D01*
X165045316Y-112866303D01*
X165039504Y-112889507D01*
X165031446Y-112912029D01*
X165021218Y-112933653D01*
X165008921Y-112954170D01*
X164994671Y-112973383D01*
X164978607Y-112991107D01*
X164960883Y-113007171D01*
X164941670Y-113021421D01*
X164921153Y-113033718D01*
X164899529Y-113043946D01*
X164877007Y-113052004D01*
X164853803Y-113057816D01*
X164830142Y-113061326D01*
X164806250Y-113062500D01*
X163893750Y-113062500D01*
X163869858Y-113061326D01*
X163846197Y-113057816D01*
X163822993Y-113052004D01*
X163800471Y-113043946D01*
X163778847Y-113033718D01*
X163758330Y-113021421D01*
X163739117Y-113007171D01*
X163721393Y-112991107D01*
X163705329Y-112973383D01*
X163691079Y-112954170D01*
X163678782Y-112933653D01*
X163668554Y-112912029D01*
X163660496Y-112889507D01*
X163654684Y-112866303D01*
X163651174Y-112842642D01*
X163650000Y-112818750D01*
X163650000Y-112331250D01*
X163651174Y-112307358D01*
X163654684Y-112283697D01*
X163660496Y-112260493D01*
X163668554Y-112237971D01*
X163678782Y-112216347D01*
X163691079Y-112195830D01*
X163705329Y-112176617D01*
X163721393Y-112158893D01*
X163739117Y-112142829D01*
X163758330Y-112128579D01*
X163778847Y-112116282D01*
X163800471Y-112106054D01*
X163822993Y-112097996D01*
X163846197Y-112092184D01*
X163869858Y-112088674D01*
X163893750Y-112087500D01*
X164806250Y-112087500D01*
X164830142Y-112088674D01*
G37*
G36*
X164830142Y-113963674D02*
G01*
X164853803Y-113967184D01*
X164877007Y-113972996D01*
X164899529Y-113981054D01*
X164921153Y-113991282D01*
X164941670Y-114003579D01*
X164960883Y-114017829D01*
X164978607Y-114033893D01*
X164994671Y-114051617D01*
X165008921Y-114070830D01*
X165021218Y-114091347D01*
X165031446Y-114112971D01*
X165039504Y-114135493D01*
X165045316Y-114158697D01*
X165048826Y-114182358D01*
X165050000Y-114206250D01*
X165050000Y-114693750D01*
X165048826Y-114717642D01*
X165045316Y-114741303D01*
X165039504Y-114764507D01*
X165031446Y-114787029D01*
X165021218Y-114808653D01*
X165008921Y-114829170D01*
X164994671Y-114848383D01*
X164978607Y-114866107D01*
X164960883Y-114882171D01*
X164941670Y-114896421D01*
X164921153Y-114908718D01*
X164899529Y-114918946D01*
X164877007Y-114927004D01*
X164853803Y-114932816D01*
X164830142Y-114936326D01*
X164806250Y-114937500D01*
X163893750Y-114937500D01*
X163869858Y-114936326D01*
X163846197Y-114932816D01*
X163822993Y-114927004D01*
X163800471Y-114918946D01*
X163778847Y-114908718D01*
X163758330Y-114896421D01*
X163739117Y-114882171D01*
X163721393Y-114866107D01*
X163705329Y-114848383D01*
X163691079Y-114829170D01*
X163678782Y-114808653D01*
X163668554Y-114787029D01*
X163660496Y-114764507D01*
X163654684Y-114741303D01*
X163651174Y-114717642D01*
X163650000Y-114693750D01*
X163650000Y-114206250D01*
X163651174Y-114182358D01*
X163654684Y-114158697D01*
X163660496Y-114135493D01*
X163668554Y-114112971D01*
X163678782Y-114091347D01*
X163691079Y-114070830D01*
X163705329Y-114051617D01*
X163721393Y-114033893D01*
X163739117Y-114017829D01*
X163758330Y-114003579D01*
X163778847Y-113991282D01*
X163800471Y-113981054D01*
X163822993Y-113972996D01*
X163846197Y-113967184D01*
X163869858Y-113963674D01*
X163893750Y-113962500D01*
X164806250Y-113962500D01*
X164830142Y-113963674D01*
G37*
G36*
X167370142Y-112088674D02*
G01*
X167393803Y-112092184D01*
X167417007Y-112097996D01*
X167439529Y-112106054D01*
X167461153Y-112116282D01*
X167481670Y-112128579D01*
X167500883Y-112142829D01*
X167518607Y-112158893D01*
X167534671Y-112176617D01*
X167548921Y-112195830D01*
X167561218Y-112216347D01*
X167571446Y-112237971D01*
X167579504Y-112260493D01*
X167585316Y-112283697D01*
X167588826Y-112307358D01*
X167590000Y-112331250D01*
X167590000Y-112818750D01*
X167588826Y-112842642D01*
X167585316Y-112866303D01*
X167579504Y-112889507D01*
X167571446Y-112912029D01*
X167561218Y-112933653D01*
X167548921Y-112954170D01*
X167534671Y-112973383D01*
X167518607Y-112991107D01*
X167500883Y-113007171D01*
X167481670Y-113021421D01*
X167461153Y-113033718D01*
X167439529Y-113043946D01*
X167417007Y-113052004D01*
X167393803Y-113057816D01*
X167370142Y-113061326D01*
X167346250Y-113062500D01*
X166433750Y-113062500D01*
X166409858Y-113061326D01*
X166386197Y-113057816D01*
X166362993Y-113052004D01*
X166340471Y-113043946D01*
X166318847Y-113033718D01*
X166298330Y-113021421D01*
X166279117Y-113007171D01*
X166261393Y-112991107D01*
X166245329Y-112973383D01*
X166231079Y-112954170D01*
X166218782Y-112933653D01*
X166208554Y-112912029D01*
X166200496Y-112889507D01*
X166194684Y-112866303D01*
X166191174Y-112842642D01*
X166190000Y-112818750D01*
X166190000Y-112331250D01*
X166191174Y-112307358D01*
X166194684Y-112283697D01*
X166200496Y-112260493D01*
X166208554Y-112237971D01*
X166218782Y-112216347D01*
X166231079Y-112195830D01*
X166245329Y-112176617D01*
X166261393Y-112158893D01*
X166279117Y-112142829D01*
X166298330Y-112128579D01*
X166318847Y-112116282D01*
X166340471Y-112106054D01*
X166362993Y-112097996D01*
X166386197Y-112092184D01*
X166409858Y-112088674D01*
X166433750Y-112087500D01*
X167346250Y-112087500D01*
X167370142Y-112088674D01*
G37*
G36*
X167370142Y-113963674D02*
G01*
X167393803Y-113967184D01*
X167417007Y-113972996D01*
X167439529Y-113981054D01*
X167461153Y-113991282D01*
X167481670Y-114003579D01*
X167500883Y-114017829D01*
X167518607Y-114033893D01*
X167534671Y-114051617D01*
X167548921Y-114070830D01*
X167561218Y-114091347D01*
X167571446Y-114112971D01*
X167579504Y-114135493D01*
X167585316Y-114158697D01*
X167588826Y-114182358D01*
X167590000Y-114206250D01*
X167590000Y-114693750D01*
X167588826Y-114717642D01*
X167585316Y-114741303D01*
X167579504Y-114764507D01*
X167571446Y-114787029D01*
X167561218Y-114808653D01*
X167548921Y-114829170D01*
X167534671Y-114848383D01*
X167518607Y-114866107D01*
X167500883Y-114882171D01*
X167481670Y-114896421D01*
X167461153Y-114908718D01*
X167439529Y-114918946D01*
X167417007Y-114927004D01*
X167393803Y-114932816D01*
X167370142Y-114936326D01*
X167346250Y-114937500D01*
X166433750Y-114937500D01*
X166409858Y-114936326D01*
X166386197Y-114932816D01*
X166362993Y-114927004D01*
X166340471Y-114918946D01*
X166318847Y-114908718D01*
X166298330Y-114896421D01*
X166279117Y-114882171D01*
X166261393Y-114866107D01*
X166245329Y-114848383D01*
X166231079Y-114829170D01*
X166218782Y-114808653D01*
X166208554Y-114787029D01*
X166200496Y-114764507D01*
X166194684Y-114741303D01*
X166191174Y-114717642D01*
X166190000Y-114693750D01*
X166190000Y-114206250D01*
X166191174Y-114182358D01*
X166194684Y-114158697D01*
X166200496Y-114135493D01*
X166208554Y-114112971D01*
X166218782Y-114091347D01*
X166231079Y-114070830D01*
X166245329Y-114051617D01*
X166261393Y-114033893D01*
X166279117Y-114017829D01*
X166298330Y-114003579D01*
X166318847Y-113991282D01*
X166340471Y-113981054D01*
X166362993Y-113972996D01*
X166386197Y-113967184D01*
X166409858Y-113963674D01*
X166433750Y-113962500D01*
X167346250Y-113962500D01*
X167370142Y-113963674D01*
G37*
G36*
X159730142Y-112088674D02*
G01*
X159753803Y-112092184D01*
X159777007Y-112097996D01*
X159799529Y-112106054D01*
X159821153Y-112116282D01*
X159841670Y-112128579D01*
X159860883Y-112142829D01*
X159878607Y-112158893D01*
X159894671Y-112176617D01*
X159908921Y-112195830D01*
X159921218Y-112216347D01*
X159931446Y-112237971D01*
X159939504Y-112260493D01*
X159945316Y-112283697D01*
X159948826Y-112307358D01*
X159950000Y-112331250D01*
X159950000Y-112818750D01*
X159948826Y-112842642D01*
X159945316Y-112866303D01*
X159939504Y-112889507D01*
X159931446Y-112912029D01*
X159921218Y-112933653D01*
X159908921Y-112954170D01*
X159894671Y-112973383D01*
X159878607Y-112991107D01*
X159860883Y-113007171D01*
X159841670Y-113021421D01*
X159821153Y-113033718D01*
X159799529Y-113043946D01*
X159777007Y-113052004D01*
X159753803Y-113057816D01*
X159730142Y-113061326D01*
X159706250Y-113062500D01*
X158793750Y-113062500D01*
X158769858Y-113061326D01*
X158746197Y-113057816D01*
X158722993Y-113052004D01*
X158700471Y-113043946D01*
X158678847Y-113033718D01*
X158658330Y-113021421D01*
X158639117Y-113007171D01*
X158621393Y-112991107D01*
X158605329Y-112973383D01*
X158591079Y-112954170D01*
X158578782Y-112933653D01*
X158568554Y-112912029D01*
X158560496Y-112889507D01*
X158554684Y-112866303D01*
X158551174Y-112842642D01*
X158550000Y-112818750D01*
X158550000Y-112331250D01*
X158551174Y-112307358D01*
X158554684Y-112283697D01*
X158560496Y-112260493D01*
X158568554Y-112237971D01*
X158578782Y-112216347D01*
X158591079Y-112195830D01*
X158605329Y-112176617D01*
X158621393Y-112158893D01*
X158639117Y-112142829D01*
X158658330Y-112128579D01*
X158678847Y-112116282D01*
X158700471Y-112106054D01*
X158722993Y-112097996D01*
X158746197Y-112092184D01*
X158769858Y-112088674D01*
X158793750Y-112087500D01*
X159706250Y-112087500D01*
X159730142Y-112088674D01*
G37*
G36*
X159730142Y-113963674D02*
G01*
X159753803Y-113967184D01*
X159777007Y-113972996D01*
X159799529Y-113981054D01*
X159821153Y-113991282D01*
X159841670Y-114003579D01*
X159860883Y-114017829D01*
X159878607Y-114033893D01*
X159894671Y-114051617D01*
X159908921Y-114070830D01*
X159921218Y-114091347D01*
X159931446Y-114112971D01*
X159939504Y-114135493D01*
X159945316Y-114158697D01*
X159948826Y-114182358D01*
X159950000Y-114206250D01*
X159950000Y-114693750D01*
X159948826Y-114717642D01*
X159945316Y-114741303D01*
X159939504Y-114764507D01*
X159931446Y-114787029D01*
X159921218Y-114808653D01*
X159908921Y-114829170D01*
X159894671Y-114848383D01*
X159878607Y-114866107D01*
X159860883Y-114882171D01*
X159841670Y-114896421D01*
X159821153Y-114908718D01*
X159799529Y-114918946D01*
X159777007Y-114927004D01*
X159753803Y-114932816D01*
X159730142Y-114936326D01*
X159706250Y-114937500D01*
X158793750Y-114937500D01*
X158769858Y-114936326D01*
X158746197Y-114932816D01*
X158722993Y-114927004D01*
X158700471Y-114918946D01*
X158678847Y-114908718D01*
X158658330Y-114896421D01*
X158639117Y-114882171D01*
X158621393Y-114866107D01*
X158605329Y-114848383D01*
X158591079Y-114829170D01*
X158578782Y-114808653D01*
X158568554Y-114787029D01*
X158560496Y-114764507D01*
X158554684Y-114741303D01*
X158551174Y-114717642D01*
X158550000Y-114693750D01*
X158550000Y-114206250D01*
X158551174Y-114182358D01*
X158554684Y-114158697D01*
X158560496Y-114135493D01*
X158568554Y-114112971D01*
X158578782Y-114091347D01*
X158591079Y-114070830D01*
X158605329Y-114051617D01*
X158621393Y-114033893D01*
X158639117Y-114017829D01*
X158658330Y-114003579D01*
X158678847Y-113991282D01*
X158700471Y-113981054D01*
X158722993Y-113972996D01*
X158746197Y-113967184D01*
X158769858Y-113963674D01*
X158793750Y-113962500D01*
X159706250Y-113962500D01*
X159730142Y-113963674D01*
G37*
G36*
X162280142Y-112088674D02*
G01*
X162303803Y-112092184D01*
X162327007Y-112097996D01*
X162349529Y-112106054D01*
X162371153Y-112116282D01*
X162391670Y-112128579D01*
X162410883Y-112142829D01*
X162428607Y-112158893D01*
X162444671Y-112176617D01*
X162458921Y-112195830D01*
X162471218Y-112216347D01*
X162481446Y-112237971D01*
X162489504Y-112260493D01*
X162495316Y-112283697D01*
X162498826Y-112307358D01*
X162500000Y-112331250D01*
X162500000Y-112818750D01*
X162498826Y-112842642D01*
X162495316Y-112866303D01*
X162489504Y-112889507D01*
X162481446Y-112912029D01*
X162471218Y-112933653D01*
X162458921Y-112954170D01*
X162444671Y-112973383D01*
X162428607Y-112991107D01*
X162410883Y-113007171D01*
X162391670Y-113021421D01*
X162371153Y-113033718D01*
X162349529Y-113043946D01*
X162327007Y-113052004D01*
X162303803Y-113057816D01*
X162280142Y-113061326D01*
X162256250Y-113062500D01*
X161343750Y-113062500D01*
X161319858Y-113061326D01*
X161296197Y-113057816D01*
X161272993Y-113052004D01*
X161250471Y-113043946D01*
X161228847Y-113033718D01*
X161208330Y-113021421D01*
X161189117Y-113007171D01*
X161171393Y-112991107D01*
X161155329Y-112973383D01*
X161141079Y-112954170D01*
X161128782Y-112933653D01*
X161118554Y-112912029D01*
X161110496Y-112889507D01*
X161104684Y-112866303D01*
X161101174Y-112842642D01*
X161100000Y-112818750D01*
X161100000Y-112331250D01*
X161101174Y-112307358D01*
X161104684Y-112283697D01*
X161110496Y-112260493D01*
X161118554Y-112237971D01*
X161128782Y-112216347D01*
X161141079Y-112195830D01*
X161155329Y-112176617D01*
X161171393Y-112158893D01*
X161189117Y-112142829D01*
X161208330Y-112128579D01*
X161228847Y-112116282D01*
X161250471Y-112106054D01*
X161272993Y-112097996D01*
X161296197Y-112092184D01*
X161319858Y-112088674D01*
X161343750Y-112087500D01*
X162256250Y-112087500D01*
X162280142Y-112088674D01*
G37*
G36*
X162280142Y-113963674D02*
G01*
X162303803Y-113967184D01*
X162327007Y-113972996D01*
X162349529Y-113981054D01*
X162371153Y-113991282D01*
X162391670Y-114003579D01*
X162410883Y-114017829D01*
X162428607Y-114033893D01*
X162444671Y-114051617D01*
X162458921Y-114070830D01*
X162471218Y-114091347D01*
X162481446Y-114112971D01*
X162489504Y-114135493D01*
X162495316Y-114158697D01*
X162498826Y-114182358D01*
X162500000Y-114206250D01*
X162500000Y-114693750D01*
X162498826Y-114717642D01*
X162495316Y-114741303D01*
X162489504Y-114764507D01*
X162481446Y-114787029D01*
X162471218Y-114808653D01*
X162458921Y-114829170D01*
X162444671Y-114848383D01*
X162428607Y-114866107D01*
X162410883Y-114882171D01*
X162391670Y-114896421D01*
X162371153Y-114908718D01*
X162349529Y-114918946D01*
X162327007Y-114927004D01*
X162303803Y-114932816D01*
X162280142Y-114936326D01*
X162256250Y-114937500D01*
X161343750Y-114937500D01*
X161319858Y-114936326D01*
X161296197Y-114932816D01*
X161272993Y-114927004D01*
X161250471Y-114918946D01*
X161228847Y-114908718D01*
X161208330Y-114896421D01*
X161189117Y-114882171D01*
X161171393Y-114866107D01*
X161155329Y-114848383D01*
X161141079Y-114829170D01*
X161128782Y-114808653D01*
X161118554Y-114787029D01*
X161110496Y-114764507D01*
X161104684Y-114741303D01*
X161101174Y-114717642D01*
X161100000Y-114693750D01*
X161100000Y-114206250D01*
X161101174Y-114182358D01*
X161104684Y-114158697D01*
X161110496Y-114135493D01*
X161118554Y-114112971D01*
X161128782Y-114091347D01*
X161141079Y-114070830D01*
X161155329Y-114051617D01*
X161171393Y-114033893D01*
X161189117Y-114017829D01*
X161208330Y-114003579D01*
X161228847Y-113991282D01*
X161250471Y-113981054D01*
X161272993Y-113972996D01*
X161296197Y-113967184D01*
X161319858Y-113963674D01*
X161343750Y-113962500D01*
X162256250Y-113962500D01*
X162280142Y-113963674D01*
G37*
G36*
X154680142Y-112088674D02*
G01*
X154703803Y-112092184D01*
X154727007Y-112097996D01*
X154749529Y-112106054D01*
X154771153Y-112116282D01*
X154791670Y-112128579D01*
X154810883Y-112142829D01*
X154828607Y-112158893D01*
X154844671Y-112176617D01*
X154858921Y-112195830D01*
X154871218Y-112216347D01*
X154881446Y-112237971D01*
X154889504Y-112260493D01*
X154895316Y-112283697D01*
X154898826Y-112307358D01*
X154900000Y-112331250D01*
X154900000Y-112818750D01*
X154898826Y-112842642D01*
X154895316Y-112866303D01*
X154889504Y-112889507D01*
X154881446Y-112912029D01*
X154871218Y-112933653D01*
X154858921Y-112954170D01*
X154844671Y-112973383D01*
X154828607Y-112991107D01*
X154810883Y-113007171D01*
X154791670Y-113021421D01*
X154771153Y-113033718D01*
X154749529Y-113043946D01*
X154727007Y-113052004D01*
X154703803Y-113057816D01*
X154680142Y-113061326D01*
X154656250Y-113062500D01*
X153743750Y-113062500D01*
X153719858Y-113061326D01*
X153696197Y-113057816D01*
X153672993Y-113052004D01*
X153650471Y-113043946D01*
X153628847Y-113033718D01*
X153608330Y-113021421D01*
X153589117Y-113007171D01*
X153571393Y-112991107D01*
X153555329Y-112973383D01*
X153541079Y-112954170D01*
X153528782Y-112933653D01*
X153518554Y-112912029D01*
X153510496Y-112889507D01*
X153504684Y-112866303D01*
X153501174Y-112842642D01*
X153500000Y-112818750D01*
X153500000Y-112331250D01*
X153501174Y-112307358D01*
X153504684Y-112283697D01*
X153510496Y-112260493D01*
X153518554Y-112237971D01*
X153528782Y-112216347D01*
X153541079Y-112195830D01*
X153555329Y-112176617D01*
X153571393Y-112158893D01*
X153589117Y-112142829D01*
X153608330Y-112128579D01*
X153628847Y-112116282D01*
X153650471Y-112106054D01*
X153672993Y-112097996D01*
X153696197Y-112092184D01*
X153719858Y-112088674D01*
X153743750Y-112087500D01*
X154656250Y-112087500D01*
X154680142Y-112088674D01*
G37*
G36*
X154680142Y-113963674D02*
G01*
X154703803Y-113967184D01*
X154727007Y-113972996D01*
X154749529Y-113981054D01*
X154771153Y-113991282D01*
X154791670Y-114003579D01*
X154810883Y-114017829D01*
X154828607Y-114033893D01*
X154844671Y-114051617D01*
X154858921Y-114070830D01*
X154871218Y-114091347D01*
X154881446Y-114112971D01*
X154889504Y-114135493D01*
X154895316Y-114158697D01*
X154898826Y-114182358D01*
X154900000Y-114206250D01*
X154900000Y-114693750D01*
X154898826Y-114717642D01*
X154895316Y-114741303D01*
X154889504Y-114764507D01*
X154881446Y-114787029D01*
X154871218Y-114808653D01*
X154858921Y-114829170D01*
X154844671Y-114848383D01*
X154828607Y-114866107D01*
X154810883Y-114882171D01*
X154791670Y-114896421D01*
X154771153Y-114908718D01*
X154749529Y-114918946D01*
X154727007Y-114927004D01*
X154703803Y-114932816D01*
X154680142Y-114936326D01*
X154656250Y-114937500D01*
X153743750Y-114937500D01*
X153719858Y-114936326D01*
X153696197Y-114932816D01*
X153672993Y-114927004D01*
X153650471Y-114918946D01*
X153628847Y-114908718D01*
X153608330Y-114896421D01*
X153589117Y-114882171D01*
X153571393Y-114866107D01*
X153555329Y-114848383D01*
X153541079Y-114829170D01*
X153528782Y-114808653D01*
X153518554Y-114787029D01*
X153510496Y-114764507D01*
X153504684Y-114741303D01*
X153501174Y-114717642D01*
X153500000Y-114693750D01*
X153500000Y-114206250D01*
X153501174Y-114182358D01*
X153504684Y-114158697D01*
X153510496Y-114135493D01*
X153518554Y-114112971D01*
X153528782Y-114091347D01*
X153541079Y-114070830D01*
X153555329Y-114051617D01*
X153571393Y-114033893D01*
X153589117Y-114017829D01*
X153608330Y-114003579D01*
X153628847Y-113991282D01*
X153650471Y-113981054D01*
X153672993Y-113972996D01*
X153696197Y-113967184D01*
X153719858Y-113963674D01*
X153743750Y-113962500D01*
X154656250Y-113962500D01*
X154680142Y-113963674D01*
G37*
G36*
X157180142Y-112088674D02*
G01*
X157203803Y-112092184D01*
X157227007Y-112097996D01*
X157249529Y-112106054D01*
X157271153Y-112116282D01*
X157291670Y-112128579D01*
X157310883Y-112142829D01*
X157328607Y-112158893D01*
X157344671Y-112176617D01*
X157358921Y-112195830D01*
X157371218Y-112216347D01*
X157381446Y-112237971D01*
X157389504Y-112260493D01*
X157395316Y-112283697D01*
X157398826Y-112307358D01*
X157400000Y-112331250D01*
X157400000Y-112818750D01*
X157398826Y-112842642D01*
X157395316Y-112866303D01*
X157389504Y-112889507D01*
X157381446Y-112912029D01*
X157371218Y-112933653D01*
X157358921Y-112954170D01*
X157344671Y-112973383D01*
X157328607Y-112991107D01*
X157310883Y-113007171D01*
X157291670Y-113021421D01*
X157271153Y-113033718D01*
X157249529Y-113043946D01*
X157227007Y-113052004D01*
X157203803Y-113057816D01*
X157180142Y-113061326D01*
X157156250Y-113062500D01*
X156243750Y-113062500D01*
X156219858Y-113061326D01*
X156196197Y-113057816D01*
X156172993Y-113052004D01*
X156150471Y-113043946D01*
X156128847Y-113033718D01*
X156108330Y-113021421D01*
X156089117Y-113007171D01*
X156071393Y-112991107D01*
X156055329Y-112973383D01*
X156041079Y-112954170D01*
X156028782Y-112933653D01*
X156018554Y-112912029D01*
X156010496Y-112889507D01*
X156004684Y-112866303D01*
X156001174Y-112842642D01*
X156000000Y-112818750D01*
X156000000Y-112331250D01*
X156001174Y-112307358D01*
X156004684Y-112283697D01*
X156010496Y-112260493D01*
X156018554Y-112237971D01*
X156028782Y-112216347D01*
X156041079Y-112195830D01*
X156055329Y-112176617D01*
X156071393Y-112158893D01*
X156089117Y-112142829D01*
X156108330Y-112128579D01*
X156128847Y-112116282D01*
X156150471Y-112106054D01*
X156172993Y-112097996D01*
X156196197Y-112092184D01*
X156219858Y-112088674D01*
X156243750Y-112087500D01*
X157156250Y-112087500D01*
X157180142Y-112088674D01*
G37*
G36*
X157180142Y-113963674D02*
G01*
X157203803Y-113967184D01*
X157227007Y-113972996D01*
X157249529Y-113981054D01*
X157271153Y-113991282D01*
X157291670Y-114003579D01*
X157310883Y-114017829D01*
X157328607Y-114033893D01*
X157344671Y-114051617D01*
X157358921Y-114070830D01*
X157371218Y-114091347D01*
X157381446Y-114112971D01*
X157389504Y-114135493D01*
X157395316Y-114158697D01*
X157398826Y-114182358D01*
X157400000Y-114206250D01*
X157400000Y-114693750D01*
X157398826Y-114717642D01*
X157395316Y-114741303D01*
X157389504Y-114764507D01*
X157381446Y-114787029D01*
X157371218Y-114808653D01*
X157358921Y-114829170D01*
X157344671Y-114848383D01*
X157328607Y-114866107D01*
X157310883Y-114882171D01*
X157291670Y-114896421D01*
X157271153Y-114908718D01*
X157249529Y-114918946D01*
X157227007Y-114927004D01*
X157203803Y-114932816D01*
X157180142Y-114936326D01*
X157156250Y-114937500D01*
X156243750Y-114937500D01*
X156219858Y-114936326D01*
X156196197Y-114932816D01*
X156172993Y-114927004D01*
X156150471Y-114918946D01*
X156128847Y-114908718D01*
X156108330Y-114896421D01*
X156089117Y-114882171D01*
X156071393Y-114866107D01*
X156055329Y-114848383D01*
X156041079Y-114829170D01*
X156028782Y-114808653D01*
X156018554Y-114787029D01*
X156010496Y-114764507D01*
X156004684Y-114741303D01*
X156001174Y-114717642D01*
X156000000Y-114693750D01*
X156000000Y-114206250D01*
X156001174Y-114182358D01*
X156004684Y-114158697D01*
X156010496Y-114135493D01*
X156018554Y-114112971D01*
X156028782Y-114091347D01*
X156041079Y-114070830D01*
X156055329Y-114051617D01*
X156071393Y-114033893D01*
X156089117Y-114017829D01*
X156108330Y-114003579D01*
X156128847Y-113991282D01*
X156150471Y-113981054D01*
X156172993Y-113972996D01*
X156196197Y-113967184D01*
X156219858Y-113963674D01*
X156243750Y-113962500D01*
X157156250Y-113962500D01*
X157180142Y-113963674D01*
G37*
G36*
X141392642Y-61001174D02*
G01*
X141416303Y-61004684D01*
X141439507Y-61010496D01*
X141462029Y-61018554D01*
X141483653Y-61028782D01*
X141504170Y-61041079D01*
X141523383Y-61055329D01*
X141541107Y-61071393D01*
X141557171Y-61089117D01*
X141571421Y-61108330D01*
X141583718Y-61128847D01*
X141593946Y-61150471D01*
X141602004Y-61172993D01*
X141607816Y-61196197D01*
X141611326Y-61219858D01*
X141612500Y-61243750D01*
X141612500Y-62156250D01*
X141611326Y-62180142D01*
X141607816Y-62203803D01*
X141602004Y-62227007D01*
X141593946Y-62249529D01*
X141583718Y-62271153D01*
X141571421Y-62291670D01*
X141557171Y-62310883D01*
X141541107Y-62328607D01*
X141523383Y-62344671D01*
X141504170Y-62358921D01*
X141483653Y-62371218D01*
X141462029Y-62381446D01*
X141439507Y-62389504D01*
X141416303Y-62395316D01*
X141392642Y-62398826D01*
X141368750Y-62400000D01*
X140881250Y-62400000D01*
X140857358Y-62398826D01*
X140833697Y-62395316D01*
X140810493Y-62389504D01*
X140787971Y-62381446D01*
X140766347Y-62371218D01*
X140745830Y-62358921D01*
X140726617Y-62344671D01*
X140708893Y-62328607D01*
X140692829Y-62310883D01*
X140678579Y-62291670D01*
X140666282Y-62271153D01*
X140656054Y-62249529D01*
X140647996Y-62227007D01*
X140642184Y-62203803D01*
X140638674Y-62180142D01*
X140637500Y-62156250D01*
X140637500Y-61243750D01*
X140638674Y-61219858D01*
X140642184Y-61196197D01*
X140647996Y-61172993D01*
X140656054Y-61150471D01*
X140666282Y-61128847D01*
X140678579Y-61108330D01*
X140692829Y-61089117D01*
X140708893Y-61071393D01*
X140726617Y-61055329D01*
X140745830Y-61041079D01*
X140766347Y-61028782D01*
X140787971Y-61018554D01*
X140810493Y-61010496D01*
X140833697Y-61004684D01*
X140857358Y-61001174D01*
X140881250Y-61000000D01*
X141368750Y-61000000D01*
X141392642Y-61001174D01*
G37*
G36*
X143267642Y-61001174D02*
G01*
X143291303Y-61004684D01*
X143314507Y-61010496D01*
X143337029Y-61018554D01*
X143358653Y-61028782D01*
X143379170Y-61041079D01*
X143398383Y-61055329D01*
X143416107Y-61071393D01*
X143432171Y-61089117D01*
X143446421Y-61108330D01*
X143458718Y-61128847D01*
X143468946Y-61150471D01*
X143477004Y-61172993D01*
X143482816Y-61196197D01*
X143486326Y-61219858D01*
X143487500Y-61243750D01*
X143487500Y-62156250D01*
X143486326Y-62180142D01*
X143482816Y-62203803D01*
X143477004Y-62227007D01*
X143468946Y-62249529D01*
X143458718Y-62271153D01*
X143446421Y-62291670D01*
X143432171Y-62310883D01*
X143416107Y-62328607D01*
X143398383Y-62344671D01*
X143379170Y-62358921D01*
X143358653Y-62371218D01*
X143337029Y-62381446D01*
X143314507Y-62389504D01*
X143291303Y-62395316D01*
X143267642Y-62398826D01*
X143243750Y-62400000D01*
X142756250Y-62400000D01*
X142732358Y-62398826D01*
X142708697Y-62395316D01*
X142685493Y-62389504D01*
X142662971Y-62381446D01*
X142641347Y-62371218D01*
X142620830Y-62358921D01*
X142601617Y-62344671D01*
X142583893Y-62328607D01*
X142567829Y-62310883D01*
X142553579Y-62291670D01*
X142541282Y-62271153D01*
X142531054Y-62249529D01*
X142522996Y-62227007D01*
X142517184Y-62203803D01*
X142513674Y-62180142D01*
X142512500Y-62156250D01*
X142512500Y-61243750D01*
X142513674Y-61219858D01*
X142517184Y-61196197D01*
X142522996Y-61172993D01*
X142531054Y-61150471D01*
X142541282Y-61128847D01*
X142553579Y-61108330D01*
X142567829Y-61089117D01*
X142583893Y-61071393D01*
X142601617Y-61055329D01*
X142620830Y-61041079D01*
X142641347Y-61028782D01*
X142662971Y-61018554D01*
X142685493Y-61010496D01*
X142708697Y-61004684D01*
X142732358Y-61001174D01*
X142756250Y-61000000D01*
X143243750Y-61000000D01*
X143267642Y-61001174D01*
G37*
G36*
X133417642Y-61001174D02*
G01*
X133441303Y-61004684D01*
X133464507Y-61010496D01*
X133487029Y-61018554D01*
X133508653Y-61028782D01*
X133529170Y-61041079D01*
X133548383Y-61055329D01*
X133566107Y-61071393D01*
X133582171Y-61089117D01*
X133596421Y-61108330D01*
X133608718Y-61128847D01*
X133618946Y-61150471D01*
X133627004Y-61172993D01*
X133632816Y-61196197D01*
X133636326Y-61219858D01*
X133637500Y-61243750D01*
X133637500Y-62156250D01*
X133636326Y-62180142D01*
X133632816Y-62203803D01*
X133627004Y-62227007D01*
X133618946Y-62249529D01*
X133608718Y-62271153D01*
X133596421Y-62291670D01*
X133582171Y-62310883D01*
X133566107Y-62328607D01*
X133548383Y-62344671D01*
X133529170Y-62358921D01*
X133508653Y-62371218D01*
X133487029Y-62381446D01*
X133464507Y-62389504D01*
X133441303Y-62395316D01*
X133417642Y-62398826D01*
X133393750Y-62400000D01*
X132906250Y-62400000D01*
X132882358Y-62398826D01*
X132858697Y-62395316D01*
X132835493Y-62389504D01*
X132812971Y-62381446D01*
X132791347Y-62371218D01*
X132770830Y-62358921D01*
X132751617Y-62344671D01*
X132733893Y-62328607D01*
X132717829Y-62310883D01*
X132703579Y-62291670D01*
X132691282Y-62271153D01*
X132681054Y-62249529D01*
X132672996Y-62227007D01*
X132667184Y-62203803D01*
X132663674Y-62180142D01*
X132662500Y-62156250D01*
X132662500Y-61243750D01*
X132663674Y-61219858D01*
X132667184Y-61196197D01*
X132672996Y-61172993D01*
X132681054Y-61150471D01*
X132691282Y-61128847D01*
X132703579Y-61108330D01*
X132717829Y-61089117D01*
X132733893Y-61071393D01*
X132751617Y-61055329D01*
X132770830Y-61041079D01*
X132791347Y-61028782D01*
X132812971Y-61018554D01*
X132835493Y-61010496D01*
X132858697Y-61004684D01*
X132882358Y-61001174D01*
X132906250Y-61000000D01*
X133393750Y-61000000D01*
X133417642Y-61001174D01*
G37*
G36*
X135292642Y-61001174D02*
G01*
X135316303Y-61004684D01*
X135339507Y-61010496D01*
X135362029Y-61018554D01*
X135383653Y-61028782D01*
X135404170Y-61041079D01*
X135423383Y-61055329D01*
X135441107Y-61071393D01*
X135457171Y-61089117D01*
X135471421Y-61108330D01*
X135483718Y-61128847D01*
X135493946Y-61150471D01*
X135502004Y-61172993D01*
X135507816Y-61196197D01*
X135511326Y-61219858D01*
X135512500Y-61243750D01*
X135512500Y-62156250D01*
X135511326Y-62180142D01*
X135507816Y-62203803D01*
X135502004Y-62227007D01*
X135493946Y-62249529D01*
X135483718Y-62271153D01*
X135471421Y-62291670D01*
X135457171Y-62310883D01*
X135441107Y-62328607D01*
X135423383Y-62344671D01*
X135404170Y-62358921D01*
X135383653Y-62371218D01*
X135362029Y-62381446D01*
X135339507Y-62389504D01*
X135316303Y-62395316D01*
X135292642Y-62398826D01*
X135268750Y-62400000D01*
X134781250Y-62400000D01*
X134757358Y-62398826D01*
X134733697Y-62395316D01*
X134710493Y-62389504D01*
X134687971Y-62381446D01*
X134666347Y-62371218D01*
X134645830Y-62358921D01*
X134626617Y-62344671D01*
X134608893Y-62328607D01*
X134592829Y-62310883D01*
X134578579Y-62291670D01*
X134566282Y-62271153D01*
X134556054Y-62249529D01*
X134547996Y-62227007D01*
X134542184Y-62203803D01*
X134538674Y-62180142D01*
X134537500Y-62156250D01*
X134537500Y-61243750D01*
X134538674Y-61219858D01*
X134542184Y-61196197D01*
X134547996Y-61172993D01*
X134556054Y-61150471D01*
X134566282Y-61128847D01*
X134578579Y-61108330D01*
X134592829Y-61089117D01*
X134608893Y-61071393D01*
X134626617Y-61055329D01*
X134645830Y-61041079D01*
X134666347Y-61028782D01*
X134687971Y-61018554D01*
X134710493Y-61010496D01*
X134733697Y-61004684D01*
X134757358Y-61001174D01*
X134781250Y-61000000D01*
X135268750Y-61000000D01*
X135292642Y-61001174D01*
G37*
G36*
X125417642Y-61051174D02*
G01*
X125441303Y-61054684D01*
X125464507Y-61060496D01*
X125487029Y-61068554D01*
X125508653Y-61078782D01*
X125529170Y-61091079D01*
X125548383Y-61105329D01*
X125566107Y-61121393D01*
X125582171Y-61139117D01*
X125596421Y-61158330D01*
X125608718Y-61178847D01*
X125618946Y-61200471D01*
X125627004Y-61222993D01*
X125632816Y-61246197D01*
X125636326Y-61269858D01*
X125637500Y-61293750D01*
X125637500Y-62206250D01*
X125636326Y-62230142D01*
X125632816Y-62253803D01*
X125627004Y-62277007D01*
X125618946Y-62299529D01*
X125608718Y-62321153D01*
X125596421Y-62341670D01*
X125582171Y-62360883D01*
X125566107Y-62378607D01*
X125548383Y-62394671D01*
X125529170Y-62408921D01*
X125508653Y-62421218D01*
X125487029Y-62431446D01*
X125464507Y-62439504D01*
X125441303Y-62445316D01*
X125417642Y-62448826D01*
X125393750Y-62450000D01*
X124906250Y-62450000D01*
X124882358Y-62448826D01*
X124858697Y-62445316D01*
X124835493Y-62439504D01*
X124812971Y-62431446D01*
X124791347Y-62421218D01*
X124770830Y-62408921D01*
X124751617Y-62394671D01*
X124733893Y-62378607D01*
X124717829Y-62360883D01*
X124703579Y-62341670D01*
X124691282Y-62321153D01*
X124681054Y-62299529D01*
X124672996Y-62277007D01*
X124667184Y-62253803D01*
X124663674Y-62230142D01*
X124662500Y-62206250D01*
X124662500Y-61293750D01*
X124663674Y-61269858D01*
X124667184Y-61246197D01*
X124672996Y-61222993D01*
X124681054Y-61200471D01*
X124691282Y-61178847D01*
X124703579Y-61158330D01*
X124717829Y-61139117D01*
X124733893Y-61121393D01*
X124751617Y-61105329D01*
X124770830Y-61091079D01*
X124791347Y-61078782D01*
X124812971Y-61068554D01*
X124835493Y-61060496D01*
X124858697Y-61054684D01*
X124882358Y-61051174D01*
X124906250Y-61050000D01*
X125393750Y-61050000D01*
X125417642Y-61051174D01*
G37*
G36*
X127292642Y-61051174D02*
G01*
X127316303Y-61054684D01*
X127339507Y-61060496D01*
X127362029Y-61068554D01*
X127383653Y-61078782D01*
X127404170Y-61091079D01*
X127423383Y-61105329D01*
X127441107Y-61121393D01*
X127457171Y-61139117D01*
X127471421Y-61158330D01*
X127483718Y-61178847D01*
X127493946Y-61200471D01*
X127502004Y-61222993D01*
X127507816Y-61246197D01*
X127511326Y-61269858D01*
X127512500Y-61293750D01*
X127512500Y-62206250D01*
X127511326Y-62230142D01*
X127507816Y-62253803D01*
X127502004Y-62277007D01*
X127493946Y-62299529D01*
X127483718Y-62321153D01*
X127471421Y-62341670D01*
X127457171Y-62360883D01*
X127441107Y-62378607D01*
X127423383Y-62394671D01*
X127404170Y-62408921D01*
X127383653Y-62421218D01*
X127362029Y-62431446D01*
X127339507Y-62439504D01*
X127316303Y-62445316D01*
X127292642Y-62448826D01*
X127268750Y-62450000D01*
X126781250Y-62450000D01*
X126757358Y-62448826D01*
X126733697Y-62445316D01*
X126710493Y-62439504D01*
X126687971Y-62431446D01*
X126666347Y-62421218D01*
X126645830Y-62408921D01*
X126626617Y-62394671D01*
X126608893Y-62378607D01*
X126592829Y-62360883D01*
X126578579Y-62341670D01*
X126566282Y-62321153D01*
X126556054Y-62299529D01*
X126547996Y-62277007D01*
X126542184Y-62253803D01*
X126538674Y-62230142D01*
X126537500Y-62206250D01*
X126537500Y-61293750D01*
X126538674Y-61269858D01*
X126542184Y-61246197D01*
X126547996Y-61222993D01*
X126556054Y-61200471D01*
X126566282Y-61178847D01*
X126578579Y-61158330D01*
X126592829Y-61139117D01*
X126608893Y-61121393D01*
X126626617Y-61105329D01*
X126645830Y-61091079D01*
X126666347Y-61078782D01*
X126687971Y-61068554D01*
X126710493Y-61060496D01*
X126733697Y-61054684D01*
X126757358Y-61051174D01*
X126781250Y-61050000D01*
X127268750Y-61050000D01*
X127292642Y-61051174D01*
G37*
G36*
X117417642Y-61051174D02*
G01*
X117441303Y-61054684D01*
X117464507Y-61060496D01*
X117487029Y-61068554D01*
X117508653Y-61078782D01*
X117529170Y-61091079D01*
X117548383Y-61105329D01*
X117566107Y-61121393D01*
X117582171Y-61139117D01*
X117596421Y-61158330D01*
X117608718Y-61178847D01*
X117618946Y-61200471D01*
X117627004Y-61222993D01*
X117632816Y-61246197D01*
X117636326Y-61269858D01*
X117637500Y-61293750D01*
X117637500Y-62206250D01*
X117636326Y-62230142D01*
X117632816Y-62253803D01*
X117627004Y-62277007D01*
X117618946Y-62299529D01*
X117608718Y-62321153D01*
X117596421Y-62341670D01*
X117582171Y-62360883D01*
X117566107Y-62378607D01*
X117548383Y-62394671D01*
X117529170Y-62408921D01*
X117508653Y-62421218D01*
X117487029Y-62431446D01*
X117464507Y-62439504D01*
X117441303Y-62445316D01*
X117417642Y-62448826D01*
X117393750Y-62450000D01*
X116906250Y-62450000D01*
X116882358Y-62448826D01*
X116858697Y-62445316D01*
X116835493Y-62439504D01*
X116812971Y-62431446D01*
X116791347Y-62421218D01*
X116770830Y-62408921D01*
X116751617Y-62394671D01*
X116733893Y-62378607D01*
X116717829Y-62360883D01*
X116703579Y-62341670D01*
X116691282Y-62321153D01*
X116681054Y-62299529D01*
X116672996Y-62277007D01*
X116667184Y-62253803D01*
X116663674Y-62230142D01*
X116662500Y-62206250D01*
X116662500Y-61293750D01*
X116663674Y-61269858D01*
X116667184Y-61246197D01*
X116672996Y-61222993D01*
X116681054Y-61200471D01*
X116691282Y-61178847D01*
X116703579Y-61158330D01*
X116717829Y-61139117D01*
X116733893Y-61121393D01*
X116751617Y-61105329D01*
X116770830Y-61091079D01*
X116791347Y-61078782D01*
X116812971Y-61068554D01*
X116835493Y-61060496D01*
X116858697Y-61054684D01*
X116882358Y-61051174D01*
X116906250Y-61050000D01*
X117393750Y-61050000D01*
X117417642Y-61051174D01*
G37*
G36*
X119292642Y-61051174D02*
G01*
X119316303Y-61054684D01*
X119339507Y-61060496D01*
X119362029Y-61068554D01*
X119383653Y-61078782D01*
X119404170Y-61091079D01*
X119423383Y-61105329D01*
X119441107Y-61121393D01*
X119457171Y-61139117D01*
X119471421Y-61158330D01*
X119483718Y-61178847D01*
X119493946Y-61200471D01*
X119502004Y-61222993D01*
X119507816Y-61246197D01*
X119511326Y-61269858D01*
X119512500Y-61293750D01*
X119512500Y-62206250D01*
X119511326Y-62230142D01*
X119507816Y-62253803D01*
X119502004Y-62277007D01*
X119493946Y-62299529D01*
X119483718Y-62321153D01*
X119471421Y-62341670D01*
X119457171Y-62360883D01*
X119441107Y-62378607D01*
X119423383Y-62394671D01*
X119404170Y-62408921D01*
X119383653Y-62421218D01*
X119362029Y-62431446D01*
X119339507Y-62439504D01*
X119316303Y-62445316D01*
X119292642Y-62448826D01*
X119268750Y-62450000D01*
X118781250Y-62450000D01*
X118757358Y-62448826D01*
X118733697Y-62445316D01*
X118710493Y-62439504D01*
X118687971Y-62431446D01*
X118666347Y-62421218D01*
X118645830Y-62408921D01*
X118626617Y-62394671D01*
X118608893Y-62378607D01*
X118592829Y-62360883D01*
X118578579Y-62341670D01*
X118566282Y-62321153D01*
X118556054Y-62299529D01*
X118547996Y-62277007D01*
X118542184Y-62253803D01*
X118538674Y-62230142D01*
X118537500Y-62206250D01*
X118537500Y-61293750D01*
X118538674Y-61269858D01*
X118542184Y-61246197D01*
X118547996Y-61222993D01*
X118556054Y-61200471D01*
X118566282Y-61178847D01*
X118578579Y-61158330D01*
X118592829Y-61139117D01*
X118608893Y-61121393D01*
X118626617Y-61105329D01*
X118645830Y-61091079D01*
X118666347Y-61078782D01*
X118687971Y-61068554D01*
X118710493Y-61060496D01*
X118733697Y-61054684D01*
X118757358Y-61051174D01*
X118781250Y-61050000D01*
X119268750Y-61050000D01*
X119292642Y-61051174D01*
G37*
G36*
X113167642Y-61051174D02*
G01*
X113191303Y-61054684D01*
X113214507Y-61060496D01*
X113237029Y-61068554D01*
X113258653Y-61078782D01*
X113279170Y-61091079D01*
X113298383Y-61105329D01*
X113316107Y-61121393D01*
X113332171Y-61139117D01*
X113346421Y-61158330D01*
X113358718Y-61178847D01*
X113368946Y-61200471D01*
X113377004Y-61222993D01*
X113382816Y-61246197D01*
X113386326Y-61269858D01*
X113387500Y-61293750D01*
X113387500Y-62206250D01*
X113386326Y-62230142D01*
X113382816Y-62253803D01*
X113377004Y-62277007D01*
X113368946Y-62299529D01*
X113358718Y-62321153D01*
X113346421Y-62341670D01*
X113332171Y-62360883D01*
X113316107Y-62378607D01*
X113298383Y-62394671D01*
X113279170Y-62408921D01*
X113258653Y-62421218D01*
X113237029Y-62431446D01*
X113214507Y-62439504D01*
X113191303Y-62445316D01*
X113167642Y-62448826D01*
X113143750Y-62450000D01*
X112656250Y-62450000D01*
X112632358Y-62448826D01*
X112608697Y-62445316D01*
X112585493Y-62439504D01*
X112562971Y-62431446D01*
X112541347Y-62421218D01*
X112520830Y-62408921D01*
X112501617Y-62394671D01*
X112483893Y-62378607D01*
X112467829Y-62360883D01*
X112453579Y-62341670D01*
X112441282Y-62321153D01*
X112431054Y-62299529D01*
X112422996Y-62277007D01*
X112417184Y-62253803D01*
X112413674Y-62230142D01*
X112412500Y-62206250D01*
X112412500Y-61293750D01*
X112413674Y-61269858D01*
X112417184Y-61246197D01*
X112422996Y-61222993D01*
X112431054Y-61200471D01*
X112441282Y-61178847D01*
X112453579Y-61158330D01*
X112467829Y-61139117D01*
X112483893Y-61121393D01*
X112501617Y-61105329D01*
X112520830Y-61091079D01*
X112541347Y-61078782D01*
X112562971Y-61068554D01*
X112585493Y-61060496D01*
X112608697Y-61054684D01*
X112632358Y-61051174D01*
X112656250Y-61050000D01*
X113143750Y-61050000D01*
X113167642Y-61051174D01*
G37*
G36*
X111292642Y-61051174D02*
G01*
X111316303Y-61054684D01*
X111339507Y-61060496D01*
X111362029Y-61068554D01*
X111383653Y-61078782D01*
X111404170Y-61091079D01*
X111423383Y-61105329D01*
X111441107Y-61121393D01*
X111457171Y-61139117D01*
X111471421Y-61158330D01*
X111483718Y-61178847D01*
X111493946Y-61200471D01*
X111502004Y-61222993D01*
X111507816Y-61246197D01*
X111511326Y-61269858D01*
X111512500Y-61293750D01*
X111512500Y-62206250D01*
X111511326Y-62230142D01*
X111507816Y-62253803D01*
X111502004Y-62277007D01*
X111493946Y-62299529D01*
X111483718Y-62321153D01*
X111471421Y-62341670D01*
X111457171Y-62360883D01*
X111441107Y-62378607D01*
X111423383Y-62394671D01*
X111404170Y-62408921D01*
X111383653Y-62421218D01*
X111362029Y-62431446D01*
X111339507Y-62439504D01*
X111316303Y-62445316D01*
X111292642Y-62448826D01*
X111268750Y-62450000D01*
X110781250Y-62450000D01*
X110757358Y-62448826D01*
X110733697Y-62445316D01*
X110710493Y-62439504D01*
X110687971Y-62431446D01*
X110666347Y-62421218D01*
X110645830Y-62408921D01*
X110626617Y-62394671D01*
X110608893Y-62378607D01*
X110592829Y-62360883D01*
X110578579Y-62341670D01*
X110566282Y-62321153D01*
X110556054Y-62299529D01*
X110547996Y-62277007D01*
X110542184Y-62253803D01*
X110538674Y-62230142D01*
X110537500Y-62206250D01*
X110537500Y-61293750D01*
X110538674Y-61269858D01*
X110542184Y-61246197D01*
X110547996Y-61222993D01*
X110556054Y-61200471D01*
X110566282Y-61178847D01*
X110578579Y-61158330D01*
X110592829Y-61139117D01*
X110608893Y-61121393D01*
X110626617Y-61105329D01*
X110645830Y-61091079D01*
X110666347Y-61078782D01*
X110687971Y-61068554D01*
X110710493Y-61060496D01*
X110733697Y-61054684D01*
X110757358Y-61051174D01*
X110781250Y-61050000D01*
X111268750Y-61050000D01*
X111292642Y-61051174D01*
G37*
G36*
X164250000Y-103749398D02*
G01*
X164225466Y-103749398D01*
X164176635Y-103744588D01*
X164128510Y-103735016D01*
X164081555Y-103720772D01*
X164036222Y-103701995D01*
X163992949Y-103678864D01*
X163952150Y-103651604D01*
X163914221Y-103620476D01*
X163879524Y-103585779D01*
X163848396Y-103547850D01*
X163821136Y-103507051D01*
X163798005Y-103463778D01*
X163779228Y-103418445D01*
X163764984Y-103371490D01*
X163755412Y-103323365D01*
X163750602Y-103274534D01*
X163750602Y-103250000D01*
X163750000Y-103250000D01*
X163750000Y-102750000D01*
X163750602Y-102750000D01*
X163750602Y-102725466D01*
X163755412Y-102676635D01*
X163764984Y-102628510D01*
X163779228Y-102581555D01*
X163798005Y-102536222D01*
X163821136Y-102492949D01*
X163848396Y-102452150D01*
X163879524Y-102414221D01*
X163914221Y-102379524D01*
X163952150Y-102348396D01*
X163992949Y-102321136D01*
X164036222Y-102298005D01*
X164081555Y-102279228D01*
X164128510Y-102264984D01*
X164176635Y-102255412D01*
X164225466Y-102250602D01*
X164250000Y-102250602D01*
X164250000Y-102250000D01*
X164750000Y-102250000D01*
X164750000Y-103750000D01*
X164250000Y-103750000D01*
X164250000Y-103749398D01*
G37*
G36*
X165050000Y-102250000D02*
G01*
X165550000Y-102250000D01*
X165550000Y-102250602D01*
X165574534Y-102250602D01*
X165623365Y-102255412D01*
X165671490Y-102264984D01*
X165718445Y-102279228D01*
X165763778Y-102298005D01*
X165807051Y-102321136D01*
X165847850Y-102348396D01*
X165885779Y-102379524D01*
X165920476Y-102414221D01*
X165951604Y-102452150D01*
X165978864Y-102492949D01*
X166001995Y-102536222D01*
X166020772Y-102581555D01*
X166035016Y-102628510D01*
X166044588Y-102676635D01*
X166049398Y-102725466D01*
X166049398Y-102750000D01*
X166050000Y-102750000D01*
X166050000Y-103250000D01*
X166049398Y-103250000D01*
X166049398Y-103274534D01*
X166044588Y-103323365D01*
X166035016Y-103371490D01*
X166020772Y-103418445D01*
X166001995Y-103463778D01*
X165978864Y-103507051D01*
X165951604Y-103547850D01*
X165920476Y-103585779D01*
X165885779Y-103620476D01*
X165847850Y-103651604D01*
X165807051Y-103678864D01*
X165763778Y-103701995D01*
X165718445Y-103720772D01*
X165671490Y-103735016D01*
X165623365Y-103744588D01*
X165574534Y-103749398D01*
X165550000Y-103749398D01*
X165550000Y-103750000D01*
X165050000Y-103750000D01*
X165050000Y-102250000D01*
G37*
G36*
X160300000Y-98250602D02*
G01*
X160324534Y-98250602D01*
X160373365Y-98255412D01*
X160421490Y-98264984D01*
X160468445Y-98279228D01*
X160513778Y-98298005D01*
X160557051Y-98321136D01*
X160597850Y-98348396D01*
X160635779Y-98379524D01*
X160670476Y-98414221D01*
X160701604Y-98452150D01*
X160728864Y-98492949D01*
X160751995Y-98536222D01*
X160770772Y-98581555D01*
X160785016Y-98628510D01*
X160794588Y-98676635D01*
X160799398Y-98725466D01*
X160799398Y-98750000D01*
X160800000Y-98750000D01*
X160800000Y-99250000D01*
X160799398Y-99250000D01*
X160799398Y-99274534D01*
X160794588Y-99323365D01*
X160785016Y-99371490D01*
X160770772Y-99418445D01*
X160751995Y-99463778D01*
X160728864Y-99507051D01*
X160701604Y-99547850D01*
X160670476Y-99585779D01*
X160635779Y-99620476D01*
X160597850Y-99651604D01*
X160557051Y-99678864D01*
X160513778Y-99701995D01*
X160468445Y-99720772D01*
X160421490Y-99735016D01*
X160373365Y-99744588D01*
X160324534Y-99749398D01*
X160300000Y-99749398D01*
X160300000Y-99750000D01*
X159800000Y-99750000D01*
X159800000Y-98250000D01*
X160300000Y-98250000D01*
X160300000Y-98250602D01*
G37*
G36*
X159500000Y-99750000D02*
G01*
X159000000Y-99750000D01*
X159000000Y-99749398D01*
X158975466Y-99749398D01*
X158926635Y-99744588D01*
X158878510Y-99735016D01*
X158831555Y-99720772D01*
X158786222Y-99701995D01*
X158742949Y-99678864D01*
X158702150Y-99651604D01*
X158664221Y-99620476D01*
X158629524Y-99585779D01*
X158598396Y-99547850D01*
X158571136Y-99507051D01*
X158548005Y-99463778D01*
X158529228Y-99418445D01*
X158514984Y-99371490D01*
X158505412Y-99323365D01*
X158500602Y-99274534D01*
X158500602Y-99250000D01*
X158500000Y-99250000D01*
X158500000Y-98750000D01*
X158500602Y-98750000D01*
X158500602Y-98725466D01*
X158505412Y-98676635D01*
X158514984Y-98628510D01*
X158529228Y-98581555D01*
X158548005Y-98536222D01*
X158571136Y-98492949D01*
X158598396Y-98452150D01*
X158629524Y-98414221D01*
X158664221Y-98379524D01*
X158702150Y-98348396D01*
X158742949Y-98321136D01*
X158786222Y-98298005D01*
X158831555Y-98279228D01*
X158878510Y-98264984D01*
X158926635Y-98255412D01*
X158975466Y-98250602D01*
X159000000Y-98250602D01*
X159000000Y-98250000D01*
X159500000Y-98250000D01*
X159500000Y-99750000D01*
G37*
G36*
X144450000Y-102650602D02*
G01*
X144474534Y-102650602D01*
X144523365Y-102655412D01*
X144571490Y-102664984D01*
X144618445Y-102679228D01*
X144663778Y-102698005D01*
X144707051Y-102721136D01*
X144747850Y-102748396D01*
X144785779Y-102779524D01*
X144820476Y-102814221D01*
X144851604Y-102852150D01*
X144878864Y-102892949D01*
X144901995Y-102936222D01*
X144920772Y-102981555D01*
X144935016Y-103028510D01*
X144944588Y-103076635D01*
X144949398Y-103125466D01*
X144949398Y-103150000D01*
X144950000Y-103150000D01*
X144950000Y-103650000D01*
X144949398Y-103650000D01*
X144949398Y-103674534D01*
X144944588Y-103723365D01*
X144935016Y-103771490D01*
X144920772Y-103818445D01*
X144901995Y-103863778D01*
X144878864Y-103907051D01*
X144851604Y-103947850D01*
X144820476Y-103985779D01*
X144785779Y-104020476D01*
X144747850Y-104051604D01*
X144707051Y-104078864D01*
X144663778Y-104101995D01*
X144618445Y-104120772D01*
X144571490Y-104135016D01*
X144523365Y-104144588D01*
X144474534Y-104149398D01*
X144450000Y-104149398D01*
X144450000Y-104150000D01*
X143950000Y-104150000D01*
X143950000Y-102650000D01*
X144450000Y-102650000D01*
X144450000Y-102650602D01*
G37*
G36*
X143650000Y-104150000D02*
G01*
X143150000Y-104150000D01*
X143150000Y-104149398D01*
X143125466Y-104149398D01*
X143076635Y-104144588D01*
X143028510Y-104135016D01*
X142981555Y-104120772D01*
X142936222Y-104101995D01*
X142892949Y-104078864D01*
X142852150Y-104051604D01*
X142814221Y-104020476D01*
X142779524Y-103985779D01*
X142748396Y-103947850D01*
X142721136Y-103907051D01*
X142698005Y-103863778D01*
X142679228Y-103818445D01*
X142664984Y-103771490D01*
X142655412Y-103723365D01*
X142650602Y-103674534D01*
X142650602Y-103650000D01*
X142650000Y-103650000D01*
X142650000Y-103150000D01*
X142650602Y-103150000D01*
X142650602Y-103125466D01*
X142655412Y-103076635D01*
X142664984Y-103028510D01*
X142679228Y-102981555D01*
X142698005Y-102936222D01*
X142721136Y-102892949D01*
X142748396Y-102852150D01*
X142779524Y-102814221D01*
X142814221Y-102779524D01*
X142852150Y-102748396D01*
X142892949Y-102721136D01*
X142936222Y-102698005D01*
X142981555Y-102679228D01*
X143028510Y-102664984D01*
X143076635Y-102655412D01*
X143125466Y-102650602D01*
X143150000Y-102650602D01*
X143150000Y-102650000D01*
X143650000Y-102650000D01*
X143650000Y-104150000D01*
G37*
G36*
X141449398Y-101750000D02*
G01*
X141449398Y-101774534D01*
X141444588Y-101823365D01*
X141435016Y-101871490D01*
X141420772Y-101918445D01*
X141401995Y-101963778D01*
X141378864Y-102007051D01*
X141351604Y-102047850D01*
X141320476Y-102085779D01*
X141285779Y-102120476D01*
X141247850Y-102151604D01*
X141207051Y-102178864D01*
X141163778Y-102201995D01*
X141118445Y-102220772D01*
X141071490Y-102235016D01*
X141023365Y-102244588D01*
X140974534Y-102249398D01*
X140950000Y-102249398D01*
X140950000Y-102250000D01*
X140450000Y-102250000D01*
X140450000Y-102249398D01*
X140425466Y-102249398D01*
X140376635Y-102244588D01*
X140328510Y-102235016D01*
X140281555Y-102220772D01*
X140236222Y-102201995D01*
X140192949Y-102178864D01*
X140152150Y-102151604D01*
X140114221Y-102120476D01*
X140079524Y-102085779D01*
X140048396Y-102047850D01*
X140021136Y-102007051D01*
X139998005Y-101963778D01*
X139979228Y-101918445D01*
X139964984Y-101871490D01*
X139955412Y-101823365D01*
X139950602Y-101774534D01*
X139950602Y-101750000D01*
X139950000Y-101750000D01*
X139950000Y-101250000D01*
X141450000Y-101250000D01*
X141450000Y-101750000D01*
X141449398Y-101750000D01*
G37*
G36*
X139950000Y-100950000D02*
G01*
X139950000Y-100450000D01*
X139950602Y-100450000D01*
X139950602Y-100425466D01*
X139955412Y-100376635D01*
X139964984Y-100328510D01*
X139979228Y-100281555D01*
X139998005Y-100236222D01*
X140021136Y-100192949D01*
X140048396Y-100152150D01*
X140079524Y-100114221D01*
X140114221Y-100079524D01*
X140152150Y-100048396D01*
X140192949Y-100021136D01*
X140236222Y-99998005D01*
X140281555Y-99979228D01*
X140328510Y-99964984D01*
X140376635Y-99955412D01*
X140425466Y-99950602D01*
X140450000Y-99950602D01*
X140450000Y-99950000D01*
X140950000Y-99950000D01*
X140950000Y-99950602D01*
X140974534Y-99950602D01*
X141023365Y-99955412D01*
X141071490Y-99964984D01*
X141118445Y-99979228D01*
X141163778Y-99998005D01*
X141207051Y-100021136D01*
X141247850Y-100048396D01*
X141285779Y-100079524D01*
X141320476Y-100114221D01*
X141351604Y-100152150D01*
X141378864Y-100192949D01*
X141401995Y-100236222D01*
X141420772Y-100281555D01*
X141435016Y-100328510D01*
X141444588Y-100376635D01*
X141449398Y-100425466D01*
X141449398Y-100450000D01*
X141450000Y-100450000D01*
X141450000Y-100950000D01*
X139950000Y-100950000D01*
G37*
G36*
X158250602Y-101450000D02*
G01*
X158250602Y-101425466D01*
X158255412Y-101376635D01*
X158264984Y-101328510D01*
X158279228Y-101281555D01*
X158298005Y-101236222D01*
X158321136Y-101192949D01*
X158348396Y-101152150D01*
X158379524Y-101114221D01*
X158414221Y-101079524D01*
X158452150Y-101048396D01*
X158492949Y-101021136D01*
X158536222Y-100998005D01*
X158581555Y-100979228D01*
X158628510Y-100964984D01*
X158676635Y-100955412D01*
X158725466Y-100950602D01*
X158750000Y-100950602D01*
X158750000Y-100950000D01*
X159250000Y-100950000D01*
X159250000Y-100950602D01*
X159274534Y-100950602D01*
X159323365Y-100955412D01*
X159371490Y-100964984D01*
X159418445Y-100979228D01*
X159463778Y-100998005D01*
X159507051Y-101021136D01*
X159547850Y-101048396D01*
X159585779Y-101079524D01*
X159620476Y-101114221D01*
X159651604Y-101152150D01*
X159678864Y-101192949D01*
X159701995Y-101236222D01*
X159720772Y-101281555D01*
X159735016Y-101328510D01*
X159744588Y-101376635D01*
X159749398Y-101425466D01*
X159749398Y-101450000D01*
X159750000Y-101450000D01*
X159750000Y-101950000D01*
X158250000Y-101950000D01*
X158250000Y-101450000D01*
X158250602Y-101450000D01*
G37*
G36*
X159750000Y-102250000D02*
G01*
X159750000Y-102750000D01*
X159749398Y-102750000D01*
X159749398Y-102774534D01*
X159744588Y-102823365D01*
X159735016Y-102871490D01*
X159720772Y-102918445D01*
X159701995Y-102963778D01*
X159678864Y-103007051D01*
X159651604Y-103047850D01*
X159620476Y-103085779D01*
X159585779Y-103120476D01*
X159547850Y-103151604D01*
X159507051Y-103178864D01*
X159463778Y-103201995D01*
X159418445Y-103220772D01*
X159371490Y-103235016D01*
X159323365Y-103244588D01*
X159274534Y-103249398D01*
X159250000Y-103249398D01*
X159250000Y-103250000D01*
X158750000Y-103250000D01*
X158750000Y-103249398D01*
X158725466Y-103249398D01*
X158676635Y-103244588D01*
X158628510Y-103235016D01*
X158581555Y-103220772D01*
X158536222Y-103201995D01*
X158492949Y-103178864D01*
X158452150Y-103151604D01*
X158414221Y-103120476D01*
X158379524Y-103085779D01*
X158348396Y-103047850D01*
X158321136Y-103007051D01*
X158298005Y-102963778D01*
X158279228Y-102918445D01*
X158264984Y-102871490D01*
X158255412Y-102823365D01*
X158250602Y-102774534D01*
X158250602Y-102750000D01*
X158250000Y-102750000D01*
X158250000Y-102250000D01*
X159750000Y-102250000D01*
G37*
G36*
X164800000Y-121750602D02*
G01*
X164824534Y-121750602D01*
X164873365Y-121755412D01*
X164921490Y-121764984D01*
X164968445Y-121779228D01*
X165013778Y-121798005D01*
X165057051Y-121821136D01*
X165097850Y-121848396D01*
X165135779Y-121879524D01*
X165170476Y-121914221D01*
X165201604Y-121952150D01*
X165228864Y-121992949D01*
X165251995Y-122036222D01*
X165270772Y-122081555D01*
X165285016Y-122128510D01*
X165294588Y-122176635D01*
X165299398Y-122225466D01*
X165299398Y-122250000D01*
X165300000Y-122250000D01*
X165300000Y-122750000D01*
X165299398Y-122750000D01*
X165299398Y-122774534D01*
X165294588Y-122823365D01*
X165285016Y-122871490D01*
X165270772Y-122918445D01*
X165251995Y-122963778D01*
X165228864Y-123007051D01*
X165201604Y-123047850D01*
X165170476Y-123085779D01*
X165135779Y-123120476D01*
X165097850Y-123151604D01*
X165057051Y-123178864D01*
X165013778Y-123201995D01*
X164968445Y-123220772D01*
X164921490Y-123235016D01*
X164873365Y-123244588D01*
X164824534Y-123249398D01*
X164800000Y-123249398D01*
X164800000Y-123250000D01*
X164300000Y-123250000D01*
X164300000Y-121750000D01*
X164800000Y-121750000D01*
X164800000Y-121750602D01*
G37*
G36*
X164000000Y-123250000D02*
G01*
X163500000Y-123250000D01*
X163500000Y-123249398D01*
X163475466Y-123249398D01*
X163426635Y-123244588D01*
X163378510Y-123235016D01*
X163331555Y-123220772D01*
X163286222Y-123201995D01*
X163242949Y-123178864D01*
X163202150Y-123151604D01*
X163164221Y-123120476D01*
X163129524Y-123085779D01*
X163098396Y-123047850D01*
X163071136Y-123007051D01*
X163048005Y-122963778D01*
X163029228Y-122918445D01*
X163014984Y-122871490D01*
X163005412Y-122823365D01*
X163000602Y-122774534D01*
X163000602Y-122750000D01*
X163000000Y-122750000D01*
X163000000Y-122250000D01*
X163000602Y-122250000D01*
X163000602Y-122225466D01*
X163005412Y-122176635D01*
X163014984Y-122128510D01*
X163029228Y-122081555D01*
X163048005Y-122036222D01*
X163071136Y-121992949D01*
X163098396Y-121952150D01*
X163129524Y-121914221D01*
X163164221Y-121879524D01*
X163202150Y-121848396D01*
X163242949Y-121821136D01*
X163286222Y-121798005D01*
X163331555Y-121779228D01*
X163378510Y-121764984D01*
X163426635Y-121755412D01*
X163475466Y-121750602D01*
X163500000Y-121750602D01*
X163500000Y-121750000D01*
X164000000Y-121750000D01*
X164000000Y-123250000D01*
G37*
G36*
X152950000Y-123150602D02*
G01*
X152974534Y-123150602D01*
X153023365Y-123155412D01*
X153071490Y-123164984D01*
X153118445Y-123179228D01*
X153163778Y-123198005D01*
X153207051Y-123221136D01*
X153247850Y-123248396D01*
X153285779Y-123279524D01*
X153320476Y-123314221D01*
X153351604Y-123352150D01*
X153378864Y-123392949D01*
X153401995Y-123436222D01*
X153420772Y-123481555D01*
X153435016Y-123528510D01*
X153444588Y-123576635D01*
X153449398Y-123625466D01*
X153449398Y-123650000D01*
X153450000Y-123650000D01*
X153450000Y-124150000D01*
X153449398Y-124150000D01*
X153449398Y-124174534D01*
X153444588Y-124223365D01*
X153435016Y-124271490D01*
X153420772Y-124318445D01*
X153401995Y-124363778D01*
X153378864Y-124407051D01*
X153351604Y-124447850D01*
X153320476Y-124485779D01*
X153285779Y-124520476D01*
X153247850Y-124551604D01*
X153207051Y-124578864D01*
X153163778Y-124601995D01*
X153118445Y-124620772D01*
X153071490Y-124635016D01*
X153023365Y-124644588D01*
X152974534Y-124649398D01*
X152950000Y-124649398D01*
X152950000Y-124650000D01*
X152450000Y-124650000D01*
X152450000Y-123150000D01*
X152950000Y-123150000D01*
X152950000Y-123150602D01*
G37*
G36*
X152150000Y-124650000D02*
G01*
X151650000Y-124650000D01*
X151650000Y-124649398D01*
X151625466Y-124649398D01*
X151576635Y-124644588D01*
X151528510Y-124635016D01*
X151481555Y-124620772D01*
X151436222Y-124601995D01*
X151392949Y-124578864D01*
X151352150Y-124551604D01*
X151314221Y-124520476D01*
X151279524Y-124485779D01*
X151248396Y-124447850D01*
X151221136Y-124407051D01*
X151198005Y-124363778D01*
X151179228Y-124318445D01*
X151164984Y-124271490D01*
X151155412Y-124223365D01*
X151150602Y-124174534D01*
X151150602Y-124150000D01*
X151150000Y-124150000D01*
X151150000Y-123650000D01*
X151150602Y-123650000D01*
X151150602Y-123625466D01*
X151155412Y-123576635D01*
X151164984Y-123528510D01*
X151179228Y-123481555D01*
X151198005Y-123436222D01*
X151221136Y-123392949D01*
X151248396Y-123352150D01*
X151279524Y-123314221D01*
X151314221Y-123279524D01*
X151352150Y-123248396D01*
X151392949Y-123221136D01*
X151436222Y-123198005D01*
X151481555Y-123179228D01*
X151528510Y-123164984D01*
X151576635Y-123155412D01*
X151625466Y-123150602D01*
X151650000Y-123150602D01*
X151650000Y-123150000D01*
X152150000Y-123150000D01*
X152150000Y-124650000D01*
G37*
D24*
X177000000Y-127000000D03*
D19*
G36*
X176250602Y-125700000D02*
G01*
X176250602Y-125675466D01*
X176255412Y-125626635D01*
X176264984Y-125578510D01*
X176279228Y-125531555D01*
X176298005Y-125486222D01*
X176321136Y-125442949D01*
X176348396Y-125402150D01*
X176379524Y-125364221D01*
X176414221Y-125329524D01*
X176452150Y-125298396D01*
X176492949Y-125271136D01*
X176536222Y-125248005D01*
X176581555Y-125229228D01*
X176628510Y-125214984D01*
X176676635Y-125205412D01*
X176725466Y-125200602D01*
X176750000Y-125200602D01*
X176750000Y-125200000D01*
X177250000Y-125200000D01*
X177250000Y-125200602D01*
X177274534Y-125200602D01*
X177323365Y-125205412D01*
X177371490Y-125214984D01*
X177418445Y-125229228D01*
X177463778Y-125248005D01*
X177507051Y-125271136D01*
X177547850Y-125298396D01*
X177585779Y-125329524D01*
X177620476Y-125364221D01*
X177651604Y-125402150D01*
X177678864Y-125442949D01*
X177701995Y-125486222D01*
X177720772Y-125531555D01*
X177735016Y-125578510D01*
X177744588Y-125626635D01*
X177749398Y-125675466D01*
X177749398Y-125700000D01*
X177750000Y-125700000D01*
X177750000Y-126250000D01*
X176250000Y-126250000D01*
X176250000Y-125700000D01*
X176250602Y-125700000D01*
G37*
G36*
X177750000Y-127750000D02*
G01*
X177750000Y-128300000D01*
X177749398Y-128300000D01*
X177749398Y-128324534D01*
X177744588Y-128373365D01*
X177735016Y-128421490D01*
X177720772Y-128468445D01*
X177701995Y-128513778D01*
X177678864Y-128557051D01*
X177651604Y-128597850D01*
X177620476Y-128635779D01*
X177585779Y-128670476D01*
X177547850Y-128701604D01*
X177507051Y-128728864D01*
X177463778Y-128751995D01*
X177418445Y-128770772D01*
X177371490Y-128785016D01*
X177323365Y-128794588D01*
X177274534Y-128799398D01*
X177250000Y-128799398D01*
X177250000Y-128800000D01*
X176750000Y-128800000D01*
X176750000Y-128799398D01*
X176725466Y-128799398D01*
X176676635Y-128794588D01*
X176628510Y-128785016D01*
X176581555Y-128770772D01*
X176536222Y-128751995D01*
X176492949Y-128728864D01*
X176452150Y-128701604D01*
X176414221Y-128670476D01*
X176379524Y-128635779D01*
X176348396Y-128597850D01*
X176321136Y-128557051D01*
X176298005Y-128513778D01*
X176279228Y-128468445D01*
X176264984Y-128421490D01*
X176255412Y-128373365D01*
X176250602Y-128324534D01*
X176250602Y-128300000D01*
X176250000Y-128300000D01*
X176250000Y-127750000D01*
X177750000Y-127750000D01*
G37*
D13*
X167000000Y-62460000D03*
D14*
X167000000Y-65000000D03*
D13*
X137580000Y-100460000D03*
X137580000Y-103000000D03*
X135040000Y-100460000D03*
X135040000Y-103000000D03*
X132500000Y-100460000D03*
D14*
X132500000Y-103000000D03*
D13*
X125750000Y-103000000D03*
D14*
X125750000Y-100460000D03*
D13*
X115500000Y-129710000D03*
D14*
X112960000Y-129710000D03*
D13*
X132160000Y-129000000D03*
X129620000Y-129000000D03*
X127080000Y-129000000D03*
X124540000Y-129000000D03*
D14*
X122000000Y-129000000D03*
D25*
X112750000Y-112250000D03*
D26*
X114750000Y-116750000D03*
X114750000Y-107750000D03*
D27*
X115750000Y-112250000D03*
D28*
X121750000Y-112250000D03*
D29*
X189360000Y-122800000D03*
D30*
X179200000Y-122800000D03*
D29*
X149100000Y-115400000D03*
D30*
X138940000Y-115400000D03*
D19*
G36*
X163649504Y-61313704D02*
G01*
X163673773Y-61317304D01*
X163697571Y-61323265D01*
X163720671Y-61331530D01*
X163742849Y-61342020D01*
X163763893Y-61354633D01*
X163783598Y-61369247D01*
X163801777Y-61385723D01*
X163818253Y-61403902D01*
X163832867Y-61423607D01*
X163845480Y-61444651D01*
X163855970Y-61466829D01*
X163864235Y-61489929D01*
X163870196Y-61513727D01*
X163873796Y-61537996D01*
X163875000Y-61562500D01*
X163875000Y-62487500D01*
X163873796Y-62512004D01*
X163870196Y-62536273D01*
X163864235Y-62560071D01*
X163855970Y-62583171D01*
X163845480Y-62605349D01*
X163832867Y-62626393D01*
X163818253Y-62646098D01*
X163801777Y-62664277D01*
X163783598Y-62680753D01*
X163763893Y-62695367D01*
X163742849Y-62707980D01*
X163720671Y-62718470D01*
X163697571Y-62726735D01*
X163673773Y-62732696D01*
X163649504Y-62736296D01*
X163625000Y-62737500D01*
X162375000Y-62737500D01*
X162350496Y-62736296D01*
X162326227Y-62732696D01*
X162302429Y-62726735D01*
X162279329Y-62718470D01*
X162257151Y-62707980D01*
X162236107Y-62695367D01*
X162216402Y-62680753D01*
X162198223Y-62664277D01*
X162181747Y-62646098D01*
X162167133Y-62626393D01*
X162154520Y-62605349D01*
X162144030Y-62583171D01*
X162135765Y-62560071D01*
X162129804Y-62536273D01*
X162126204Y-62512004D01*
X162125000Y-62487500D01*
X162125000Y-61562500D01*
X162126204Y-61537996D01*
X162129804Y-61513727D01*
X162135765Y-61489929D01*
X162144030Y-61466829D01*
X162154520Y-61444651D01*
X162167133Y-61423607D01*
X162181747Y-61403902D01*
X162198223Y-61385723D01*
X162216402Y-61369247D01*
X162236107Y-61354633D01*
X162257151Y-61342020D01*
X162279329Y-61331530D01*
X162302429Y-61323265D01*
X162326227Y-61317304D01*
X162350496Y-61313704D01*
X162375000Y-61312500D01*
X163625000Y-61312500D01*
X163649504Y-61313704D01*
G37*
G36*
X163649504Y-64288704D02*
G01*
X163673773Y-64292304D01*
X163697571Y-64298265D01*
X163720671Y-64306530D01*
X163742849Y-64317020D01*
X163763893Y-64329633D01*
X163783598Y-64344247D01*
X163801777Y-64360723D01*
X163818253Y-64378902D01*
X163832867Y-64398607D01*
X163845480Y-64419651D01*
X163855970Y-64441829D01*
X163864235Y-64464929D01*
X163870196Y-64488727D01*
X163873796Y-64512996D01*
X163875000Y-64537500D01*
X163875000Y-65462500D01*
X163873796Y-65487004D01*
X163870196Y-65511273D01*
X163864235Y-65535071D01*
X163855970Y-65558171D01*
X163845480Y-65580349D01*
X163832867Y-65601393D01*
X163818253Y-65621098D01*
X163801777Y-65639277D01*
X163783598Y-65655753D01*
X163763893Y-65670367D01*
X163742849Y-65682980D01*
X163720671Y-65693470D01*
X163697571Y-65701735D01*
X163673773Y-65707696D01*
X163649504Y-65711296D01*
X163625000Y-65712500D01*
X162375000Y-65712500D01*
X162350496Y-65711296D01*
X162326227Y-65707696D01*
X162302429Y-65701735D01*
X162279329Y-65693470D01*
X162257151Y-65682980D01*
X162236107Y-65670367D01*
X162216402Y-65655753D01*
X162198223Y-65639277D01*
X162181747Y-65621098D01*
X162167133Y-65601393D01*
X162154520Y-65580349D01*
X162144030Y-65558171D01*
X162135765Y-65535071D01*
X162129804Y-65511273D01*
X162126204Y-65487004D01*
X162125000Y-65462500D01*
X162125000Y-64537500D01*
X162126204Y-64512996D01*
X162129804Y-64488727D01*
X162135765Y-64464929D01*
X162144030Y-64441829D01*
X162154520Y-64419651D01*
X162167133Y-64398607D01*
X162181747Y-64378902D01*
X162198223Y-64360723D01*
X162216402Y-64344247D01*
X162236107Y-64329633D01*
X162257151Y-64317020D01*
X162279329Y-64306530D01*
X162302429Y-64298265D01*
X162326227Y-64292304D01*
X162350496Y-64288704D01*
X162375000Y-64287500D01*
X163625000Y-64287500D01*
X163649504Y-64288704D01*
G37*
D25*
X122500000Y-101000000D03*
X122500000Y-98500000D03*
D19*
G36*
X185962004Y-128126204D02*
G01*
X185986273Y-128129804D01*
X186010071Y-128135765D01*
X186033171Y-128144030D01*
X186055349Y-128154520D01*
X186076393Y-128167133D01*
X186096098Y-128181747D01*
X186114277Y-128198223D01*
X186130753Y-128216402D01*
X186145367Y-128236107D01*
X186157980Y-128257151D01*
X186168470Y-128279329D01*
X186176735Y-128302429D01*
X186182696Y-128326227D01*
X186186296Y-128350496D01*
X186187500Y-128375000D01*
X186187500Y-129625000D01*
X186186296Y-129649504D01*
X186182696Y-129673773D01*
X186176735Y-129697571D01*
X186168470Y-129720671D01*
X186157980Y-129742849D01*
X186145367Y-129763893D01*
X186130753Y-129783598D01*
X186114277Y-129801777D01*
X186096098Y-129818253D01*
X186076393Y-129832867D01*
X186055349Y-129845480D01*
X186033171Y-129855970D01*
X186010071Y-129864235D01*
X185986273Y-129870196D01*
X185962004Y-129873796D01*
X185937500Y-129875000D01*
X185012500Y-129875000D01*
X184987996Y-129873796D01*
X184963727Y-129870196D01*
X184939929Y-129864235D01*
X184916829Y-129855970D01*
X184894651Y-129845480D01*
X184873607Y-129832867D01*
X184853902Y-129818253D01*
X184835723Y-129801777D01*
X184819247Y-129783598D01*
X184804633Y-129763893D01*
X184792020Y-129742849D01*
X184781530Y-129720671D01*
X184773265Y-129697571D01*
X184767304Y-129673773D01*
X184763704Y-129649504D01*
X184762500Y-129625000D01*
X184762500Y-128375000D01*
X184763704Y-128350496D01*
X184767304Y-128326227D01*
X184773265Y-128302429D01*
X184781530Y-128279329D01*
X184792020Y-128257151D01*
X184804633Y-128236107D01*
X184819247Y-128216402D01*
X184835723Y-128198223D01*
X184853902Y-128181747D01*
X184873607Y-128167133D01*
X184894651Y-128154520D01*
X184916829Y-128144030D01*
X184939929Y-128135765D01*
X184963727Y-128129804D01*
X184987996Y-128126204D01*
X185012500Y-128125000D01*
X185937500Y-128125000D01*
X185962004Y-128126204D01*
G37*
G36*
X182987004Y-128126204D02*
G01*
X183011273Y-128129804D01*
X183035071Y-128135765D01*
X183058171Y-128144030D01*
X183080349Y-128154520D01*
X183101393Y-128167133D01*
X183121098Y-128181747D01*
X183139277Y-128198223D01*
X183155753Y-128216402D01*
X183170367Y-128236107D01*
X183182980Y-128257151D01*
X183193470Y-128279329D01*
X183201735Y-128302429D01*
X183207696Y-128326227D01*
X183211296Y-128350496D01*
X183212500Y-128375000D01*
X183212500Y-129625000D01*
X183211296Y-129649504D01*
X183207696Y-129673773D01*
X183201735Y-129697571D01*
X183193470Y-129720671D01*
X183182980Y-129742849D01*
X183170367Y-129763893D01*
X183155753Y-129783598D01*
X183139277Y-129801777D01*
X183121098Y-129818253D01*
X183101393Y-129832867D01*
X183080349Y-129845480D01*
X183058171Y-129855970D01*
X183035071Y-129864235D01*
X183011273Y-129870196D01*
X182987004Y-129873796D01*
X182962500Y-129875000D01*
X182037500Y-129875000D01*
X182012996Y-129873796D01*
X181988727Y-129870196D01*
X181964929Y-129864235D01*
X181941829Y-129855970D01*
X181919651Y-129845480D01*
X181898607Y-129832867D01*
X181878902Y-129818253D01*
X181860723Y-129801777D01*
X181844247Y-129783598D01*
X181829633Y-129763893D01*
X181817020Y-129742849D01*
X181806530Y-129720671D01*
X181798265Y-129697571D01*
X181792304Y-129673773D01*
X181788704Y-129649504D01*
X181787500Y-129625000D01*
X181787500Y-128375000D01*
X181788704Y-128350496D01*
X181792304Y-128326227D01*
X181798265Y-128302429D01*
X181806530Y-128279329D01*
X181817020Y-128257151D01*
X181829633Y-128236107D01*
X181844247Y-128216402D01*
X181860723Y-128198223D01*
X181878902Y-128181747D01*
X181898607Y-128167133D01*
X181919651Y-128154520D01*
X181941829Y-128144030D01*
X181964929Y-128135765D01*
X181988727Y-128129804D01*
X182012996Y-128126204D01*
X182037500Y-128125000D01*
X182962500Y-128125000D01*
X182987004Y-128126204D01*
G37*
G36*
X112824504Y-118801204D02*
G01*
X112848773Y-118804804D01*
X112872571Y-118810765D01*
X112895671Y-118819030D01*
X112917849Y-118829520D01*
X112938893Y-118842133D01*
X112958598Y-118856747D01*
X112976777Y-118873223D01*
X112993253Y-118891402D01*
X113007867Y-118911107D01*
X113020480Y-118932151D01*
X113030970Y-118954329D01*
X113039235Y-118977429D01*
X113045196Y-119001227D01*
X113048796Y-119025496D01*
X113050000Y-119050000D01*
X113050000Y-121550000D01*
X113048796Y-121574504D01*
X113045196Y-121598773D01*
X113039235Y-121622571D01*
X113030970Y-121645671D01*
X113020480Y-121667849D01*
X113007867Y-121688893D01*
X112993253Y-121708598D01*
X112976777Y-121726777D01*
X112958598Y-121743253D01*
X112938893Y-121757867D01*
X112917849Y-121770480D01*
X112895671Y-121780970D01*
X112872571Y-121789235D01*
X112848773Y-121795196D01*
X112824504Y-121798796D01*
X112800000Y-121800000D01*
X111700000Y-121800000D01*
X111675496Y-121798796D01*
X111651227Y-121795196D01*
X111627429Y-121789235D01*
X111604329Y-121780970D01*
X111582151Y-121770480D01*
X111561107Y-121757867D01*
X111541402Y-121743253D01*
X111523223Y-121726777D01*
X111506747Y-121708598D01*
X111492133Y-121688893D01*
X111479520Y-121667849D01*
X111469030Y-121645671D01*
X111460765Y-121622571D01*
X111454804Y-121598773D01*
X111451204Y-121574504D01*
X111450000Y-121550000D01*
X111450000Y-119050000D01*
X111451204Y-119025496D01*
X111454804Y-119001227D01*
X111460765Y-118977429D01*
X111469030Y-118954329D01*
X111479520Y-118932151D01*
X111492133Y-118911107D01*
X111506747Y-118891402D01*
X111523223Y-118873223D01*
X111541402Y-118856747D01*
X111561107Y-118842133D01*
X111582151Y-118829520D01*
X111604329Y-118819030D01*
X111627429Y-118810765D01*
X111651227Y-118804804D01*
X111675496Y-118801204D01*
X111700000Y-118800000D01*
X112800000Y-118800000D01*
X112824504Y-118801204D01*
G37*
G36*
X112824504Y-123201204D02*
G01*
X112848773Y-123204804D01*
X112872571Y-123210765D01*
X112895671Y-123219030D01*
X112917849Y-123229520D01*
X112938893Y-123242133D01*
X112958598Y-123256747D01*
X112976777Y-123273223D01*
X112993253Y-123291402D01*
X113007867Y-123311107D01*
X113020480Y-123332151D01*
X113030970Y-123354329D01*
X113039235Y-123377429D01*
X113045196Y-123401227D01*
X113048796Y-123425496D01*
X113050000Y-123450000D01*
X113050000Y-125950000D01*
X113048796Y-125974504D01*
X113045196Y-125998773D01*
X113039235Y-126022571D01*
X113030970Y-126045671D01*
X113020480Y-126067849D01*
X113007867Y-126088893D01*
X112993253Y-126108598D01*
X112976777Y-126126777D01*
X112958598Y-126143253D01*
X112938893Y-126157867D01*
X112917849Y-126170480D01*
X112895671Y-126180970D01*
X112872571Y-126189235D01*
X112848773Y-126195196D01*
X112824504Y-126198796D01*
X112800000Y-126200000D01*
X111700000Y-126200000D01*
X111675496Y-126198796D01*
X111651227Y-126195196D01*
X111627429Y-126189235D01*
X111604329Y-126180970D01*
X111582151Y-126170480D01*
X111561107Y-126157867D01*
X111541402Y-126143253D01*
X111523223Y-126126777D01*
X111506747Y-126108598D01*
X111492133Y-126088893D01*
X111479520Y-126067849D01*
X111469030Y-126045671D01*
X111460765Y-126022571D01*
X111454804Y-125998773D01*
X111451204Y-125974504D01*
X111450000Y-125950000D01*
X111450000Y-123450000D01*
X111451204Y-123425496D01*
X111454804Y-123401227D01*
X111460765Y-123377429D01*
X111469030Y-123354329D01*
X111479520Y-123332151D01*
X111492133Y-123311107D01*
X111506747Y-123291402D01*
X111523223Y-123273223D01*
X111541402Y-123256747D01*
X111561107Y-123242133D01*
X111582151Y-123229520D01*
X111604329Y-123219030D01*
X111627429Y-123210765D01*
X111651227Y-123204804D01*
X111675496Y-123201204D01*
X111700000Y-123200000D01*
X112800000Y-123200000D01*
X112824504Y-123201204D01*
G37*
G36*
X144224504Y-122701204D02*
G01*
X144248773Y-122704804D01*
X144272571Y-122710765D01*
X144295671Y-122719030D01*
X144317849Y-122729520D01*
X144338893Y-122742133D01*
X144358598Y-122756747D01*
X144376777Y-122773223D01*
X144393253Y-122791402D01*
X144407867Y-122811107D01*
X144420480Y-122832151D01*
X144430970Y-122854329D01*
X144439235Y-122877429D01*
X144445196Y-122901227D01*
X144448796Y-122925496D01*
X144450000Y-122950000D01*
X144450000Y-124050000D01*
X144448796Y-124074504D01*
X144445196Y-124098773D01*
X144439235Y-124122571D01*
X144430970Y-124145671D01*
X144420480Y-124167849D01*
X144407867Y-124188893D01*
X144393253Y-124208598D01*
X144376777Y-124226777D01*
X144358598Y-124243253D01*
X144338893Y-124257867D01*
X144317849Y-124270480D01*
X144295671Y-124280970D01*
X144272571Y-124289235D01*
X144248773Y-124295196D01*
X144224504Y-124298796D01*
X144200000Y-124300000D01*
X142100000Y-124300000D01*
X142075496Y-124298796D01*
X142051227Y-124295196D01*
X142027429Y-124289235D01*
X142004329Y-124280970D01*
X141982151Y-124270480D01*
X141961107Y-124257867D01*
X141941402Y-124243253D01*
X141923223Y-124226777D01*
X141906747Y-124208598D01*
X141892133Y-124188893D01*
X141879520Y-124167849D01*
X141869030Y-124145671D01*
X141860765Y-124122571D01*
X141854804Y-124098773D01*
X141851204Y-124074504D01*
X141850000Y-124050000D01*
X141850000Y-122950000D01*
X141851204Y-122925496D01*
X141854804Y-122901227D01*
X141860765Y-122877429D01*
X141869030Y-122854329D01*
X141879520Y-122832151D01*
X141892133Y-122811107D01*
X141906747Y-122791402D01*
X141923223Y-122773223D01*
X141941402Y-122756747D01*
X141961107Y-122742133D01*
X141982151Y-122729520D01*
X142004329Y-122719030D01*
X142027429Y-122710765D01*
X142051227Y-122704804D01*
X142075496Y-122701204D01*
X142100000Y-122700000D01*
X144200000Y-122700000D01*
X144224504Y-122701204D01*
G37*
G36*
X147824504Y-122701204D02*
G01*
X147848773Y-122704804D01*
X147872571Y-122710765D01*
X147895671Y-122719030D01*
X147917849Y-122729520D01*
X147938893Y-122742133D01*
X147958598Y-122756747D01*
X147976777Y-122773223D01*
X147993253Y-122791402D01*
X148007867Y-122811107D01*
X148020480Y-122832151D01*
X148030970Y-122854329D01*
X148039235Y-122877429D01*
X148045196Y-122901227D01*
X148048796Y-122925496D01*
X148050000Y-122950000D01*
X148050000Y-124050000D01*
X148048796Y-124074504D01*
X148045196Y-124098773D01*
X148039235Y-124122571D01*
X148030970Y-124145671D01*
X148020480Y-124167849D01*
X148007867Y-124188893D01*
X147993253Y-124208598D01*
X147976777Y-124226777D01*
X147958598Y-124243253D01*
X147938893Y-124257867D01*
X147917849Y-124270480D01*
X147895671Y-124280970D01*
X147872571Y-124289235D01*
X147848773Y-124295196D01*
X147824504Y-124298796D01*
X147800000Y-124300000D01*
X145700000Y-124300000D01*
X145675496Y-124298796D01*
X145651227Y-124295196D01*
X145627429Y-124289235D01*
X145604329Y-124280970D01*
X145582151Y-124270480D01*
X145561107Y-124257867D01*
X145541402Y-124243253D01*
X145523223Y-124226777D01*
X145506747Y-124208598D01*
X145492133Y-124188893D01*
X145479520Y-124167849D01*
X145469030Y-124145671D01*
X145460765Y-124122571D01*
X145454804Y-124098773D01*
X145451204Y-124074504D01*
X145450000Y-124050000D01*
X145450000Y-122950000D01*
X145451204Y-122925496D01*
X145454804Y-122901227D01*
X145460765Y-122877429D01*
X145469030Y-122854329D01*
X145479520Y-122832151D01*
X145492133Y-122811107D01*
X145506747Y-122791402D01*
X145523223Y-122773223D01*
X145541402Y-122756747D01*
X145561107Y-122742133D01*
X145582151Y-122729520D01*
X145604329Y-122719030D01*
X145627429Y-122710765D01*
X145651227Y-122704804D01*
X145675496Y-122701204D01*
X145700000Y-122700000D01*
X147800000Y-122700000D01*
X147824504Y-122701204D01*
G37*
G36*
X140574504Y-129001204D02*
G01*
X140598773Y-129004804D01*
X140622571Y-129010765D01*
X140645671Y-129019030D01*
X140667849Y-129029520D01*
X140688893Y-129042133D01*
X140708598Y-129056747D01*
X140726777Y-129073223D01*
X140743253Y-129091402D01*
X140757867Y-129111107D01*
X140770480Y-129132151D01*
X140780970Y-129154329D01*
X140789235Y-129177429D01*
X140795196Y-129201227D01*
X140798796Y-129225496D01*
X140800000Y-129250000D01*
X140800000Y-131350000D01*
X140798796Y-131374504D01*
X140795196Y-131398773D01*
X140789235Y-131422571D01*
X140780970Y-131445671D01*
X140770480Y-131467849D01*
X140757867Y-131488893D01*
X140743253Y-131508598D01*
X140726777Y-131526777D01*
X140708598Y-131543253D01*
X140688893Y-131557867D01*
X140667849Y-131570480D01*
X140645671Y-131580970D01*
X140622571Y-131589235D01*
X140598773Y-131595196D01*
X140574504Y-131598796D01*
X140550000Y-131600000D01*
X139450000Y-131600000D01*
X139425496Y-131598796D01*
X139401227Y-131595196D01*
X139377429Y-131589235D01*
X139354329Y-131580970D01*
X139332151Y-131570480D01*
X139311107Y-131557867D01*
X139291402Y-131543253D01*
X139273223Y-131526777D01*
X139256747Y-131508598D01*
X139242133Y-131488893D01*
X139229520Y-131467849D01*
X139219030Y-131445671D01*
X139210765Y-131422571D01*
X139204804Y-131398773D01*
X139201204Y-131374504D01*
X139200000Y-131350000D01*
X139200000Y-129250000D01*
X139201204Y-129225496D01*
X139204804Y-129201227D01*
X139210765Y-129177429D01*
X139219030Y-129154329D01*
X139229520Y-129132151D01*
X139242133Y-129111107D01*
X139256747Y-129091402D01*
X139273223Y-129073223D01*
X139291402Y-129056747D01*
X139311107Y-129042133D01*
X139332151Y-129029520D01*
X139354329Y-129019030D01*
X139377429Y-129010765D01*
X139401227Y-129004804D01*
X139425496Y-129001204D01*
X139450000Y-129000000D01*
X140550000Y-129000000D01*
X140574504Y-129001204D01*
G37*
G36*
X140574504Y-125401204D02*
G01*
X140598773Y-125404804D01*
X140622571Y-125410765D01*
X140645671Y-125419030D01*
X140667849Y-125429520D01*
X140688893Y-125442133D01*
X140708598Y-125456747D01*
X140726777Y-125473223D01*
X140743253Y-125491402D01*
X140757867Y-125511107D01*
X140770480Y-125532151D01*
X140780970Y-125554329D01*
X140789235Y-125577429D01*
X140795196Y-125601227D01*
X140798796Y-125625496D01*
X140800000Y-125650000D01*
X140800000Y-127750000D01*
X140798796Y-127774504D01*
X140795196Y-127798773D01*
X140789235Y-127822571D01*
X140780970Y-127845671D01*
X140770480Y-127867849D01*
X140757867Y-127888893D01*
X140743253Y-127908598D01*
X140726777Y-127926777D01*
X140708598Y-127943253D01*
X140688893Y-127957867D01*
X140667849Y-127970480D01*
X140645671Y-127980970D01*
X140622571Y-127989235D01*
X140598773Y-127995196D01*
X140574504Y-127998796D01*
X140550000Y-128000000D01*
X139450000Y-128000000D01*
X139425496Y-127998796D01*
X139401227Y-127995196D01*
X139377429Y-127989235D01*
X139354329Y-127980970D01*
X139332151Y-127970480D01*
X139311107Y-127957867D01*
X139291402Y-127943253D01*
X139273223Y-127926777D01*
X139256747Y-127908598D01*
X139242133Y-127888893D01*
X139229520Y-127867849D01*
X139219030Y-127845671D01*
X139210765Y-127822571D01*
X139204804Y-127798773D01*
X139201204Y-127774504D01*
X139200000Y-127750000D01*
X139200000Y-125650000D01*
X139201204Y-125625496D01*
X139204804Y-125601227D01*
X139210765Y-125577429D01*
X139219030Y-125554329D01*
X139229520Y-125532151D01*
X139242133Y-125511107D01*
X139256747Y-125491402D01*
X139273223Y-125473223D01*
X139291402Y-125456747D01*
X139311107Y-125442133D01*
X139332151Y-125429520D01*
X139354329Y-125419030D01*
X139377429Y-125410765D01*
X139401227Y-125404804D01*
X139425496Y-125401204D01*
X139450000Y-125400000D01*
X140550000Y-125400000D01*
X140574504Y-125401204D01*
G37*
D12*
X197358000Y-114046000D03*
D11*
X199898000Y-114046000D03*
X197358000Y-111506000D03*
X199898000Y-111506000D03*
X197358000Y-108966000D03*
X199898000Y-108966000D03*
X197358000Y-106426000D03*
X199898000Y-106426000D03*
X197358000Y-103886000D03*
X199898000Y-103886000D03*
X197358000Y-101346000D03*
X199898000Y-101346000D03*
X197358000Y-98806000D03*
X199898000Y-98806000D03*
X197358000Y-96266000D03*
X199898000Y-96266000D03*
X197358000Y-93726000D03*
X199898000Y-93726000D03*
X197358000Y-91186000D03*
X199898000Y-91186000D03*
X197358000Y-88646000D03*
X199898000Y-88646000D03*
X197358000Y-86106000D03*
X199898000Y-86106000D03*
X197358000Y-83566000D03*
X199898000Y-83566000D03*
X197358000Y-81026000D03*
X199898000Y-81026000D03*
X197358000Y-78486000D03*
X199898000Y-78486000D03*
X197358000Y-75946000D03*
X199898000Y-75946000D03*
X197358000Y-73406000D03*
X199898000Y-73406000D03*
X197358000Y-70866000D03*
X199898000Y-70866000D03*
D31*
X131318000Y-119126000D03*
X133858000Y-119126000D03*
X136398000Y-119126000D03*
X138938000Y-119126000D03*
X141478000Y-119126000D03*
X144018000Y-119126000D03*
X146558000Y-119126000D03*
X149098000Y-119126000D03*
X154178000Y-119126000D03*
X156718000Y-119126000D03*
X159258000Y-119126000D03*
X161798000Y-119126000D03*
X164338000Y-119126000D03*
X166878000Y-119126000D03*
X169418000Y-119126000D03*
X171958000Y-119126000D03*
X177038000Y-119126000D03*
X179578000Y-119126000D03*
X182118000Y-119126000D03*
X184658000Y-119126000D03*
X187198000Y-119126000D03*
X189738000Y-119126000D03*
X192278000Y-119126000D03*
X194818000Y-119126000D03*
X122174000Y-70866000D03*
X124714000Y-70866000D03*
X127254000Y-70866000D03*
X129794000Y-70866000D03*
X132334000Y-70866000D03*
X134874000Y-70866000D03*
X137414000Y-70866000D03*
X139954000Y-70866000D03*
X142494000Y-70866000D03*
X145034000Y-70866000D03*
X149098000Y-70866000D03*
X151638000Y-70866000D03*
X154178000Y-70866000D03*
X156718000Y-70866000D03*
X159258000Y-70866000D03*
X161798000Y-70866000D03*
X164338000Y-70866000D03*
X166878000Y-70866000D03*
X171958000Y-70866000D03*
X174498000Y-70866000D03*
X177038000Y-70866000D03*
X179578000Y-70866000D03*
X182118000Y-70866000D03*
X184658000Y-70866000D03*
X187198000Y-70866000D03*
X189738000Y-70866000D03*
M02*
