M48
; DRILL file {KiCad (5.1.5)-3} date 8/8/2020 4:04:03 AM
; FORMAT={-:-/ absolute / inch / decimal}
; #@! TF.CreationDate,2020-08-08T04:04:03-04:00
; #@! TF.GenerationSoftware,Kicad,Pcbnew,(5.1.5)-3
FMAT,2
INCH
T1C0.0138
T2C0.0197
T3C0.0315
T4C0.0394
T5C0.0400
T6C0.0433
T7C0.0512
T8C0.0728
T9C0.0630
%
G90
G05
T1
X4.4193Y-4.6949
X4.4449Y-2.4311
X4.6102Y-2.4331
X4.9252Y-2.4311
X4.9705Y-3.8091
X5.0Y-2.9567
X5.0Y-3.75
X5.001Y-2.6988
X5.0295Y-3.8091
X5.1004Y-3.6811
X5.2421Y-2.4311
X5.3159Y-2.6988
X5.4429Y-3.8091
X5.4724Y-2.9567
X5.4724Y-3.75
X5.502Y-3.8091
X5.5118Y-5.1319
X5.5413Y-4.0059
X5.5551Y-2.4291
X5.5709Y-3.6811
X5.6309Y-2.6998
X5.6368Y-4.8642
X5.687Y-4.0709
X5.9154Y-3.8091
X5.9449Y-2.9567
X5.9449Y-3.75
X5.9744Y-3.8091
X6.0138Y-4.4685
X6.0453Y-3.6811
X6.0699Y-4.4321
X6.1181Y-4.4685
X6.1417Y-4.9409
X6.1693Y-4.4321
X6.2205Y-4.4685
X6.2697Y-4.4321
X6.2992Y-4.8228
X6.3091Y-3.8976
X6.3189Y-4.4685
X6.3701Y-4.4321
X6.3878Y-3.7992
X6.4173Y-2.4409
X6.4173Y-2.9567
X6.4173Y-3.75
X6.4193Y-4.4685
X6.4469Y-3.7992
X6.4705Y-4.4321
X6.4882Y-4.8228
X6.5157Y-4.0551
X6.5177Y-3.6811
X6.5197Y-4.4685
X6.5709Y-4.4321
X6.622Y-4.4685
X6.6703Y-4.4321
X6.7205Y-4.4685
X6.7697Y-4.4321
X6.9685Y-5.0512
X7.3031Y-5.0787
T2
X4.3701Y-2.7165
X4.3701Y-3.6811
X4.4291Y-3.6811
X4.4685Y-2.5787
X4.4882Y-3.6811
X4.5472Y-3.6811
X4.6063Y-3.6811
X4.6654Y-3.6811
X4.685Y-2.7165
X4.7835Y-2.5787
X4.8425Y-3.189
X4.8425Y-3.2283
X4.8425Y-3.2677
X4.8425Y-3.3858
X4.8425Y-3.4252
X4.8425Y-3.4646
X4.8819Y-3.189
X4.8819Y-3.2283
X4.8819Y-3.2677
X4.8819Y-3.3858
X4.8819Y-3.4252
X4.8819Y-3.4646
X4.9213Y-3.189
X4.9213Y-3.2283
X4.9213Y-3.2677
X4.9213Y-3.3858
X4.9213Y-3.4252
X4.9213Y-3.4646
X5.0787Y-3.189
X5.0787Y-3.2283
X5.0787Y-3.2677
X5.0787Y-3.3858
X5.0787Y-3.4252
X5.0787Y-3.4646
X5.0984Y-2.5787
X5.1181Y-3.189
X5.1181Y-3.2283
X5.1181Y-3.2677
X5.1181Y-3.3858
X5.1181Y-3.4252
X5.1181Y-3.4646
X5.1575Y-3.189
X5.1575Y-3.2283
X5.1575Y-3.2677
X5.1575Y-3.3858
X5.1575Y-3.4252
X5.1575Y-3.4646
X5.315Y-3.189
X5.315Y-3.2283
X5.315Y-3.2677
X5.315Y-3.3858
X5.315Y-3.4252
X5.315Y-3.4646
X5.3543Y-3.189
X5.3543Y-3.2283
X5.3543Y-3.2677
X5.3543Y-3.3858
X5.3543Y-3.4252
X5.3543Y-3.4646
X5.3937Y-3.189
X5.3937Y-3.2283
X5.3937Y-3.2677
X5.3937Y-3.3858
X5.3937Y-3.4252
X5.3937Y-3.4646
X5.4134Y-2.5787
X5.5512Y-3.189
X5.5512Y-3.2283
X5.5512Y-3.2677
X5.5512Y-3.3858
X5.5512Y-3.4252
X5.5512Y-3.4646
X5.5906Y-3.189
X5.5906Y-3.2283
X5.5906Y-3.2677
X5.5906Y-3.3858
X5.5906Y-3.4252
X5.5906Y-3.4646
X5.6299Y-3.189
X5.6299Y-3.2283
X5.6299Y-3.2677
X5.6299Y-3.3858
X5.6299Y-3.4252
X5.6299Y-3.4646
X5.7283Y-2.5787
X5.7874Y-3.189
X5.7874Y-3.2283
X5.7874Y-3.2677
X5.7874Y-3.3858
X5.7874Y-3.4252
X5.7874Y-3.4646
X5.8268Y-3.189
X5.8268Y-3.2283
X5.8268Y-3.2677
X5.8268Y-3.3858
X5.8268Y-3.4252
X5.8268Y-3.4646
X5.8661Y-3.189
X5.8661Y-3.2283
X5.8661Y-3.2677
X5.8661Y-3.3858
X5.8661Y-3.4252
X5.8661Y-3.4646
X6.0236Y-3.189
X6.0236Y-3.2283
X6.0236Y-3.2677
X6.0236Y-3.3858
X6.0236Y-3.4252
X6.0236Y-3.4646
X6.063Y-3.189
X6.063Y-3.2283
X6.063Y-3.2677
X6.063Y-3.3858
X6.063Y-3.4252
X6.063Y-3.4646
X6.1024Y-3.189
X6.1024Y-3.2283
X6.1024Y-3.2677
X6.1024Y-3.3858
X6.1024Y-3.4252
X6.1024Y-3.4646
X6.2598Y-3.189
X6.2598Y-3.2283
X6.2598Y-3.2677
X6.2598Y-3.3858
X6.2598Y-3.4252
X6.2598Y-3.4646
X6.2992Y-3.189
X6.2992Y-3.2283
X6.2992Y-3.2677
X6.2992Y-3.3858
X6.2992Y-3.4252
X6.2992Y-3.4646
X6.3386Y-3.189
X6.3386Y-3.2283
X6.3386Y-3.2677
X6.3386Y-3.3858
X6.3386Y-3.4252
X6.3386Y-3.4646
X6.4961Y-3.189
X6.4961Y-3.2283
X6.4961Y-3.2677
X6.4961Y-3.3858
X6.4961Y-3.4252
X6.4961Y-3.4646
X6.5354Y-3.189
X6.5354Y-3.2283
X6.5354Y-3.2677
X6.5354Y-3.3858
X6.5354Y-3.4252
X6.5354Y-3.4646
X6.5748Y-3.189
X6.5748Y-3.2283
X6.5748Y-3.2677
X6.5748Y-3.3858
X6.5748Y-3.4252
X6.5748Y-3.4646
X6.7717Y-3.5039
X6.8307Y-3.4449
X6.8898Y-3.3858
X6.9488Y-3.3268
X7.0669Y-3.3268
X7.1457Y-3.3268
X7.2244Y-3.3268
X7.3031Y-3.3268
X7.3819Y-3.3268
X7.4606Y-3.3268
X7.5394Y-3.3268
X7.6181Y-3.3268
T3
X6.6126Y-5.0
X6.7126Y-5.0
X6.8126Y-5.0
X4.8228Y-3.878
X4.8228Y-3.9764
X5.9024Y-3.9469
X6.0024Y-3.9469
X6.1024Y-3.9469
X6.1992Y-5.0
X6.2992Y-5.0
X6.3992Y-5.0
T4
X4.4472Y-5.1067
X4.5472Y-5.1067
X4.9508Y-3.9551
X4.9508Y-4.0551
X6.5748Y-2.4591
X6.5748Y-2.5591
X4.8031Y-5.0787
X4.9031Y-5.0787
X5.0031Y-5.0787
X5.1031Y-5.0787
X5.2031Y-5.0787
X5.2165Y-3.9551
X5.2165Y-4.0551
X5.3165Y-3.9551
X5.3165Y-4.0551
X5.4165Y-3.9551
X5.4165Y-4.0551
X7.0472Y-3.622
X7.0472Y-3.722
X7.0472Y-3.822
X7.0472Y-3.922
X7.0472Y-4.022
X7.0472Y-4.122
X7.0472Y-4.222
X7.0472Y-4.322
X7.0472Y-4.422
X7.0472Y-4.522
X7.1472Y-3.622
X7.1472Y-3.722
X7.1472Y-3.822
X7.1472Y-3.922
X7.1472Y-4.022
X7.1472Y-4.122
X7.1472Y-4.222
X7.1472Y-4.322
X7.1472Y-4.422
X7.1472Y-4.522
T5
X5.17Y-4.69
X5.27Y-4.69
X5.37Y-4.69
X5.47Y-4.69
X5.57Y-4.69
X5.67Y-4.69
X5.77Y-4.69
X5.87Y-4.69
X4.81Y-2.79
X4.91Y-2.79
X5.01Y-2.79
X5.11Y-2.79
X5.21Y-2.79
X5.31Y-2.79
X5.41Y-2.79
X5.51Y-2.79
X5.61Y-2.79
X5.71Y-2.79
X6.07Y-4.69
X6.17Y-4.69
X6.27Y-4.69
X6.37Y-4.69
X6.47Y-4.69
X6.57Y-4.69
X6.67Y-4.69
X6.77Y-4.69
X7.77Y-2.79
X7.77Y-2.89
X7.77Y-2.99
X7.77Y-3.09
X7.77Y-3.19
X7.77Y-3.29
X7.77Y-3.39
X7.77Y-3.49
X7.77Y-3.59
X7.77Y-3.69
X7.77Y-3.79
X7.77Y-3.89
X7.77Y-3.99
X7.77Y-4.09
X7.77Y-4.19
X7.77Y-4.29
X7.77Y-4.39
X7.77Y-4.49
X7.87Y-2.79
X7.87Y-2.89
X7.87Y-2.99
X7.87Y-3.09
X7.87Y-3.19
X7.87Y-3.29
X7.87Y-3.39
X7.87Y-3.49
X7.87Y-3.59
X7.87Y-3.69
X7.87Y-3.79
X7.87Y-3.89
X7.87Y-3.99
X7.87Y-4.09
X7.87Y-4.19
X7.87Y-4.29
X7.87Y-4.39
X7.87Y-4.49
X6.77Y-2.79
X6.87Y-2.79
X6.97Y-2.79
X7.07Y-2.79
X7.17Y-2.79
X7.27Y-2.79
X7.37Y-2.79
X7.47Y-2.79
X6.97Y-4.69
X7.07Y-4.69
X7.17Y-4.69
X7.27Y-4.69
X7.37Y-4.69
X7.47Y-4.69
X7.57Y-4.69
X7.67Y-4.69
X5.87Y-2.79
X5.97Y-2.79
X6.07Y-2.79
X6.17Y-2.79
X6.27Y-2.79
X6.37Y-2.79
X6.47Y-2.79
X6.57Y-2.79
X8.0453Y-2.7894
X8.0453Y-2.8894
X8.0453Y-2.9894
X8.0453Y-3.0894
X8.0453Y-3.1894
X8.0453Y-3.2894
X8.0453Y-3.3894
X8.0453Y-3.4894
X8.0453Y-3.5894
X8.0453Y-3.6894
X8.0453Y-3.7894
X8.0453Y-3.8894
X8.0453Y-3.9894
X8.0453Y-4.0894
X8.0453Y-4.1894
X8.0453Y-4.2894
X8.0453Y-4.3894
X8.0453Y-4.4894
X8.1453Y-2.7894
X8.1453Y-2.8894
X8.1453Y-2.9894
X8.1453Y-3.0894
X8.1453Y-3.1894
X8.1453Y-3.2894
X8.1453Y-3.3894
X8.1453Y-3.4894
X8.1453Y-3.5894
X8.1453Y-3.6894
X8.1453Y-3.7894
X8.1453Y-3.8894
X8.1453Y-3.9894
X8.1453Y-4.0894
X8.1453Y-4.1894
X8.1453Y-4.2894
X8.1453Y-4.3894
X8.1453Y-4.4894
T6
X5.4701Y-4.5433
X5.8701Y-4.5433
X5.7701Y-5.0394
X5.8701Y-5.0394
X5.9701Y-5.0394
X7.0551Y-4.8346
X7.4551Y-4.8346
T7
X6.0598Y-2.5591
X6.2598Y-2.5591
T8
X4.6476Y-4.813
X4.8327Y-4.813
X5.0177Y-4.813
T9
X4.439Y-4.4193
T4
G00X4.5472Y-4.2421
M15
G01X4.4882Y-4.2421
M16
G05
G00X4.5472Y-4.5965
M15
G01X4.4882Y-4.5965
M16
G05
G00X4.5571Y-4.3937
M15
G01X4.5571Y-4.4449
M16
G05
G00X4.7933Y-4.3799
M15
G01X4.7933Y-4.4587
M16
G05
T0
M30
