G04 #@! TF.GenerationSoftware,KiCad,Pcbnew,(5.1.5)-3*
G04 #@! TF.CreationDate,2020-08-08T04:04:00-04:00*
G04 #@! TF.ProjectId,LT3081-ARDUINO-HEADERS,4c543330-3831-42d4-9152-4455494e4f2d,rev?*
G04 #@! TF.SameCoordinates,Original*
G04 #@! TF.FileFunction,Soldermask,Bot*
G04 #@! TF.FilePolarity,Negative*
%FSLAX46Y46*%
G04 Gerber Fmt 4.6, Leading zero omitted, Abs format (unit mm)*
G04 Created by KiCad (PCBNEW (5.1.5)-3) date 2020-08-08 04:04:00*
%MOMM*%
%LPD*%
G04 APERTURE LIST*
%ADD10O,1.727200X1.727200*%
%ADD11C,1.727200*%
%ADD12O,1.700000X1.700000*%
%ADD13R,1.700000X1.700000*%
%ADD14O,1.905000X2.000000*%
%ADD15R,1.905000X2.000000*%
%ADD16C,2.600000*%
%ADD17C,0.100000*%
%ADD18C,2.850000*%
%ADD19R,2.850000X2.850000*%
%ADD20C,1.440000*%
%ADD21C,1.600000*%
%ADD22O,3.500000X2.000000*%
%ADD23O,2.000000X3.300000*%
%ADD24R,2.000000X4.000000*%
%ADD25O,2.200000X2.200000*%
%ADD26R,2.200000X2.200000*%
%ADD27O,1.727200X2.032000*%
G04 APERTURE END LIST*
D10*
X206890000Y-70850000D03*
X204350000Y-70850000D03*
X206890000Y-73390000D03*
X204350000Y-73390000D03*
X206890000Y-75930000D03*
X204350000Y-75930000D03*
X206890000Y-78470000D03*
X204350000Y-78470000D03*
X206890000Y-81010000D03*
X204350000Y-81010000D03*
X206890000Y-83550000D03*
X204350000Y-83550000D03*
X206890000Y-86090000D03*
X204350000Y-86090000D03*
X206890000Y-88630000D03*
X204350000Y-88630000D03*
X206890000Y-91170000D03*
X204350000Y-91170000D03*
X206890000Y-93710000D03*
X204350000Y-93710000D03*
X206890000Y-96250000D03*
X204350000Y-96250000D03*
X206890000Y-98790000D03*
X204350000Y-98790000D03*
X206890000Y-101330000D03*
X204350000Y-101330000D03*
X206890000Y-103870000D03*
X204350000Y-103870000D03*
X206890000Y-106410000D03*
X204350000Y-106410000D03*
X206890000Y-108950000D03*
X204350000Y-108950000D03*
X206890000Y-111490000D03*
X204350000Y-111490000D03*
X206890000Y-114030000D03*
D11*
X204350000Y-114030000D03*
D12*
X179000000Y-114860000D03*
X181540000Y-114860000D03*
X179000000Y-112320000D03*
X181540000Y-112320000D03*
X179000000Y-109780000D03*
X181540000Y-109780000D03*
X179000000Y-107240000D03*
X181540000Y-107240000D03*
X179000000Y-104700000D03*
X181540000Y-104700000D03*
X179000000Y-102160000D03*
X181540000Y-102160000D03*
X179000000Y-99620000D03*
X181540000Y-99620000D03*
X179000000Y-97080000D03*
X181540000Y-97080000D03*
X179000000Y-94540000D03*
X181540000Y-94540000D03*
X179000000Y-92000000D03*
D13*
X181540000Y-92000000D03*
D14*
X146560000Y-128000000D03*
X149100000Y-128000000D03*
D15*
X151640000Y-128000000D03*
D16*
X153920000Y-65000000D03*
D17*
G36*
X159713711Y-63703130D02*
G01*
X159776809Y-63712490D01*
X159838685Y-63727989D01*
X159898744Y-63749478D01*
X159956408Y-63776751D01*
X160011121Y-63809545D01*
X160062356Y-63847543D01*
X160109619Y-63890381D01*
X160152457Y-63937644D01*
X160190455Y-63988879D01*
X160223249Y-64043592D01*
X160250522Y-64101256D01*
X160272011Y-64161315D01*
X160287510Y-64223191D01*
X160296870Y-64286289D01*
X160300000Y-64350000D01*
X160300000Y-65650000D01*
X160296870Y-65713711D01*
X160287510Y-65776809D01*
X160272011Y-65838685D01*
X160250522Y-65898744D01*
X160223249Y-65956408D01*
X160190455Y-66011121D01*
X160152457Y-66062356D01*
X160109619Y-66109619D01*
X160062356Y-66152457D01*
X160011121Y-66190455D01*
X159956408Y-66223249D01*
X159898744Y-66250522D01*
X159838685Y-66272011D01*
X159776809Y-66287510D01*
X159713711Y-66296870D01*
X159650000Y-66300000D01*
X158350000Y-66300000D01*
X158286289Y-66296870D01*
X158223191Y-66287510D01*
X158161315Y-66272011D01*
X158101256Y-66250522D01*
X158043592Y-66223249D01*
X157988879Y-66190455D01*
X157937644Y-66152457D01*
X157890381Y-66109619D01*
X157847543Y-66062356D01*
X157809545Y-66011121D01*
X157776751Y-65956408D01*
X157749478Y-65898744D01*
X157727989Y-65838685D01*
X157712490Y-65776809D01*
X157703130Y-65713711D01*
X157700000Y-65650000D01*
X157700000Y-64350000D01*
X157703130Y-64286289D01*
X157712490Y-64223191D01*
X157727989Y-64161315D01*
X157749478Y-64101256D01*
X157776751Y-64043592D01*
X157809545Y-63988879D01*
X157847543Y-63937644D01*
X157890381Y-63890381D01*
X157937644Y-63847543D01*
X157988879Y-63809545D01*
X158043592Y-63776751D01*
X158101256Y-63749478D01*
X158161315Y-63727989D01*
X158223191Y-63712490D01*
X158286289Y-63703130D01*
X158350000Y-63700000D01*
X159650000Y-63700000D01*
X159713711Y-63703130D01*
G37*
D18*
X118050000Y-122250000D03*
X122750000Y-122250000D03*
D19*
X127450000Y-122250000D03*
D20*
X149920000Y-100250000D03*
X152460000Y-100250000D03*
X155000000Y-100250000D03*
X157460000Y-127000000D03*
X160000000Y-127000000D03*
X162540000Y-127000000D03*
X167960000Y-127000000D03*
X170500000Y-127000000D03*
X173040000Y-127000000D03*
D12*
X167000000Y-62460000D03*
D13*
X167000000Y-65000000D03*
D12*
X137580000Y-100460000D03*
X137580000Y-103000000D03*
X135040000Y-100460000D03*
X135040000Y-103000000D03*
X132500000Y-100460000D03*
D13*
X132500000Y-103000000D03*
D12*
X125750000Y-103000000D03*
D13*
X125750000Y-100460000D03*
D12*
X115500000Y-129710000D03*
D13*
X112960000Y-129710000D03*
D12*
X132160000Y-129000000D03*
X129620000Y-129000000D03*
X127080000Y-129000000D03*
X124540000Y-129000000D03*
D13*
X122000000Y-129000000D03*
D21*
X112750000Y-112250000D03*
D22*
X114750000Y-116750000D03*
X114750000Y-107750000D03*
D23*
X115750000Y-112250000D03*
D24*
X121750000Y-112250000D03*
D25*
X189360000Y-122800000D03*
D26*
X179200000Y-122800000D03*
D25*
X149100000Y-115400000D03*
D26*
X138940000Y-115400000D03*
D21*
X122500000Y-101000000D03*
X122500000Y-98500000D03*
D11*
X197358000Y-114046000D03*
D10*
X199898000Y-114046000D03*
X197358000Y-111506000D03*
X199898000Y-111506000D03*
X197358000Y-108966000D03*
X199898000Y-108966000D03*
X197358000Y-106426000D03*
X199898000Y-106426000D03*
X197358000Y-103886000D03*
X199898000Y-103886000D03*
X197358000Y-101346000D03*
X199898000Y-101346000D03*
X197358000Y-98806000D03*
X199898000Y-98806000D03*
X197358000Y-96266000D03*
X199898000Y-96266000D03*
X197358000Y-93726000D03*
X199898000Y-93726000D03*
X197358000Y-91186000D03*
X199898000Y-91186000D03*
X197358000Y-88646000D03*
X199898000Y-88646000D03*
X197358000Y-86106000D03*
X199898000Y-86106000D03*
X197358000Y-83566000D03*
X199898000Y-83566000D03*
X197358000Y-81026000D03*
X199898000Y-81026000D03*
X197358000Y-78486000D03*
X199898000Y-78486000D03*
X197358000Y-75946000D03*
X199898000Y-75946000D03*
X197358000Y-73406000D03*
X199898000Y-73406000D03*
X197358000Y-70866000D03*
X199898000Y-70866000D03*
D27*
X131318000Y-119126000D03*
X133858000Y-119126000D03*
X136398000Y-119126000D03*
X138938000Y-119126000D03*
X141478000Y-119126000D03*
X144018000Y-119126000D03*
X146558000Y-119126000D03*
X149098000Y-119126000D03*
X154178000Y-119126000D03*
X156718000Y-119126000D03*
X159258000Y-119126000D03*
X161798000Y-119126000D03*
X164338000Y-119126000D03*
X166878000Y-119126000D03*
X169418000Y-119126000D03*
X171958000Y-119126000D03*
X177038000Y-119126000D03*
X179578000Y-119126000D03*
X182118000Y-119126000D03*
X184658000Y-119126000D03*
X187198000Y-119126000D03*
X189738000Y-119126000D03*
X192278000Y-119126000D03*
X194818000Y-119126000D03*
X122174000Y-70866000D03*
X124714000Y-70866000D03*
X127254000Y-70866000D03*
X129794000Y-70866000D03*
X132334000Y-70866000D03*
X134874000Y-70866000D03*
X137414000Y-70866000D03*
X139954000Y-70866000D03*
X142494000Y-70866000D03*
X145034000Y-70866000D03*
X149098000Y-70866000D03*
X151638000Y-70866000D03*
X154178000Y-70866000D03*
X156718000Y-70866000D03*
X159258000Y-70866000D03*
X161798000Y-70866000D03*
X164338000Y-70866000D03*
X166878000Y-70866000D03*
X171958000Y-70866000D03*
X174498000Y-70866000D03*
X177038000Y-70866000D03*
X179578000Y-70866000D03*
X182118000Y-70866000D03*
X184658000Y-70866000D03*
X187198000Y-70866000D03*
X189738000Y-70866000D03*
M02*
