G04 #@! TF.GenerationSoftware,KiCad,Pcbnew,(5.1.5)-3*
G04 #@! TF.CreationDate,2020-05-06T20:42:40-04:00*
G04 #@! TF.ProjectId,2ToneSineGenSSB,32546f6e-6553-4696-9e65-47656e535342,rev?*
G04 #@! TF.SameCoordinates,Original*
G04 #@! TF.FileFunction,Copper,L1,Top*
G04 #@! TF.FilePolarity,Positive*
%FSLAX46Y46*%
G04 Gerber Fmt 4.6, Leading zero omitted, Abs format (unit mm)*
G04 Created by KiCad (PCBNEW (5.1.5)-3) date 2020-05-06 20:42:40*
%MOMM*%
%LPD*%
G04 APERTURE LIST*
%ADD10C,0.100000*%
%ADD11C,3.000000*%
%ADD12C,4.500000*%
%ADD13C,2.500000*%
%ADD14C,2.000000*%
%ADD15C,1.440000*%
%ADD16O,1.600000X1.600000*%
%ADD17C,1.600000*%
%ADD18R,1.300000X1.300000*%
%ADD19C,1.300000*%
%ADD20C,0.500000*%
%ADD21C,2.499360*%
%ADD22R,1.600000X1.600000*%
%ADD23C,1.270000*%
%ADD24C,0.500000*%
G04 APERTURE END LIST*
D10*
G36*
X174200000Y-84830000D02*
G01*
X173200000Y-84830000D01*
X173200000Y-84330000D01*
X174200000Y-84330000D01*
X174200000Y-84830000D01*
G37*
D11*
X187000000Y-88400000D03*
D12*
X190250000Y-98250000D03*
X125250000Y-98250000D03*
X190250000Y-73250000D03*
X125250000Y-73250000D03*
D13*
X146300000Y-73100000D03*
D14*
X161000000Y-93000000D03*
X161000000Y-98000000D03*
X157500000Y-98000000D03*
X157500000Y-93000000D03*
X154000000Y-93000000D03*
X154000000Y-98000000D03*
D15*
X171750000Y-84580000D03*
X174290000Y-82040000D03*
X171750000Y-79500000D03*
X163580000Y-78000000D03*
X161040000Y-75460000D03*
X158500000Y-78000000D03*
D16*
X150640000Y-79350000D03*
D17*
X135400000Y-79350000D03*
D16*
X171240000Y-72000000D03*
D17*
X156000000Y-72000000D03*
D16*
X163750000Y-98000000D03*
D17*
X178990000Y-98000000D03*
D16*
X135510000Y-83750000D03*
D17*
X150750000Y-83750000D03*
D16*
X167240000Y-88500000D03*
D17*
X152000000Y-88500000D03*
D16*
X140540000Y-89900000D03*
D17*
X125300000Y-89900000D03*
D16*
X131760000Y-98000000D03*
D17*
X147000000Y-98000000D03*
D16*
X140540000Y-93700000D03*
D17*
X125300000Y-93700000D03*
D18*
X152770000Y-73130000D03*
D19*
X150230000Y-73130000D03*
X151500000Y-74400000D03*
D18*
X156730000Y-84270000D03*
D19*
X159270000Y-84270000D03*
X158000000Y-83000000D03*
D20*
X173200000Y-84580000D03*
X174200000Y-84580000D03*
D21*
X187000000Y-82000000D03*
X141350000Y-73100000D03*
D22*
X177500000Y-82000000D03*
D17*
X180000000Y-82000000D03*
X177000000Y-73000000D03*
D22*
X174500000Y-73000000D03*
D17*
X143400000Y-88500000D03*
D22*
X145900000Y-88500000D03*
D23*
X125750000Y-85250000D03*
X129250001Y-85250000D03*
D17*
X148000000Y-93000000D03*
D22*
X150500000Y-93000000D03*
D17*
X132900000Y-73100000D03*
D22*
X135400000Y-73100000D03*
D23*
X125750000Y-77749999D03*
X125750000Y-81250000D03*
X130250000Y-77750000D03*
X130250000Y-81250001D03*
D24*
X130250000Y-78648025D02*
X132851975Y-81250000D01*
X130250000Y-77750000D02*
X130250000Y-78648025D01*
X132851975Y-81250000D02*
X132851975Y-81251975D01*
X132851975Y-81251975D02*
X133150000Y-81550000D01*
X133150000Y-81550000D02*
X145150000Y-81550000D01*
X147350000Y-79350000D02*
X150640000Y-79350000D01*
X145150000Y-81550000D02*
X147350000Y-79350000D01*
X145150000Y-81550000D02*
X147450000Y-83750000D01*
X147550000Y-83750000D02*
X150750000Y-83750000D01*
X147450000Y-83750000D02*
X147550000Y-83750000D01*
X145900000Y-88500000D02*
X147500000Y-88500000D01*
X150750000Y-85250000D02*
X150750000Y-83750000D01*
X147500000Y-88500000D02*
X150750000Y-85250000D01*
X150640000Y-79350000D02*
X152150000Y-79350000D01*
X152770000Y-78730000D02*
X152770000Y-73130000D01*
X152150000Y-79350000D02*
X152770000Y-78730000D01*
X129250002Y-81250001D02*
X127250001Y-79250000D01*
X130250000Y-81250001D02*
X129250002Y-81250001D01*
X127250001Y-79250000D02*
X126250000Y-79250000D01*
X125750000Y-78750000D02*
X125750000Y-77749999D01*
X126250000Y-79250000D02*
X125750000Y-78750000D01*
X125300000Y-93700000D02*
X126800000Y-93700000D01*
X126800000Y-93700000D02*
X127500000Y-93000000D01*
X127500000Y-93000000D02*
X127500000Y-84500000D01*
X127500000Y-84500000D02*
X129250000Y-82750000D01*
X129250000Y-82750000D02*
X130000000Y-82750000D01*
X130250000Y-82500000D02*
X130250000Y-81250001D01*
X130000000Y-82750000D02*
X130250000Y-82500000D01*
X171240000Y-72000000D02*
X172240000Y-73000000D01*
X172240000Y-73000000D02*
X174500000Y-73000000D01*
X178990000Y-98000000D02*
X170000000Y-98000000D01*
X170000000Y-98000000D02*
X167500000Y-95500000D01*
X167500000Y-95500000D02*
X154500000Y-95500000D01*
X154000000Y-95000000D02*
X154000000Y-93000000D01*
X154500000Y-95500000D02*
X154000000Y-95000000D01*
X147000000Y-98000000D02*
X154000000Y-98000000D01*
X154000000Y-98000000D02*
X157500000Y-98000000D01*
X125750000Y-85250000D02*
X125750000Y-81250000D01*
X125300000Y-89900000D02*
X125300000Y-87700000D01*
X125750000Y-87250000D02*
X125750000Y-85250000D01*
X125300000Y-87700000D02*
X125750000Y-87250000D01*
X157500000Y-93000000D02*
X157500000Y-90000000D01*
X156000000Y-88500000D02*
X152000000Y-88500000D01*
X157500000Y-90000000D02*
X156000000Y-88500000D01*
X161000000Y-93000000D02*
X157500000Y-93000000D01*
X171750000Y-84580000D02*
X173200000Y-84580000D01*
X135400000Y-79350000D02*
X135400000Y-73100000D01*
X136700000Y-73100000D02*
X141350000Y-73100000D01*
X135400000Y-73100000D02*
X136700000Y-73100000D01*
X135510000Y-83750000D02*
X129750000Y-83750000D01*
X129250001Y-84249999D02*
X129250001Y-85250000D01*
X129750000Y-83750000D02*
X129250001Y-84249999D01*
X161000000Y-98000000D02*
X163750000Y-98000000D01*
X177460000Y-82040000D02*
X177500000Y-82000000D01*
X174290000Y-82040000D02*
X177460000Y-82040000D01*
X171750000Y-79500000D02*
X171750000Y-77250000D01*
X169960000Y-75460000D02*
X161040000Y-75460000D01*
X171750000Y-77250000D02*
X169960000Y-75460000D01*
X180000000Y-82000000D02*
X187000000Y-82000000D01*
X174200000Y-84580000D02*
X175080000Y-84580000D01*
X178900000Y-88400000D02*
X187000000Y-88400000D01*
X175080000Y-84580000D02*
X178900000Y-88400000D01*
G36*
X188438334Y-70532864D02*
G01*
X188432989Y-70536435D01*
X188207782Y-71031005D01*
X190250000Y-73073223D01*
X190264142Y-73059081D01*
X190440919Y-73235858D01*
X190426777Y-73250000D01*
X192468995Y-75292218D01*
X192963565Y-75067011D01*
X193250001Y-74532392D01*
X193250000Y-96968791D01*
X192967136Y-96438334D01*
X192963565Y-96432989D01*
X192468995Y-96207782D01*
X190426777Y-98250000D01*
X190440919Y-98264142D01*
X190264142Y-98440919D01*
X190250000Y-98426777D01*
X188207782Y-100468995D01*
X188432989Y-100963565D01*
X188967606Y-101250000D01*
X126531209Y-101250000D01*
X127061666Y-100967136D01*
X127067011Y-100963565D01*
X127292218Y-100468995D01*
X125250000Y-98426777D01*
X125235858Y-98440919D01*
X125059081Y-98264142D01*
X125073223Y-98250000D01*
X125426777Y-98250000D01*
X127468995Y-100292218D01*
X127963565Y-100067011D01*
X128265905Y-99502708D01*
X128452346Y-98890263D01*
X128500685Y-98404363D01*
X130006008Y-98404363D01*
X130076952Y-98638251D01*
X130233808Y-98954334D01*
X130449315Y-99233742D01*
X130715191Y-99465738D01*
X131021218Y-99641406D01*
X131355636Y-99753996D01*
X131635000Y-99545658D01*
X131635000Y-98125000D01*
X131885000Y-98125000D01*
X131885000Y-99545658D01*
X132164364Y-99753996D01*
X132498782Y-99641406D01*
X132804809Y-99465738D01*
X133070685Y-99233742D01*
X133286192Y-98954334D01*
X133443048Y-98638251D01*
X133513992Y-98404363D01*
X133304951Y-98125000D01*
X131885000Y-98125000D01*
X131635000Y-98125000D01*
X130215049Y-98125000D01*
X130006008Y-98404363D01*
X128500685Y-98404363D01*
X128515723Y-98253215D01*
X128453600Y-97616041D01*
X128447433Y-97595637D01*
X130006008Y-97595637D01*
X130215049Y-97875000D01*
X131635000Y-97875000D01*
X131635000Y-96454342D01*
X131885000Y-96454342D01*
X131885000Y-97875000D01*
X133304951Y-97875000D01*
X133325649Y-97847338D01*
X145450000Y-97847338D01*
X145450000Y-98152662D01*
X145509565Y-98452118D01*
X145626408Y-98734200D01*
X145796036Y-98988068D01*
X146011932Y-99203964D01*
X146265800Y-99373592D01*
X146547882Y-99490435D01*
X146847338Y-99550000D01*
X147152662Y-99550000D01*
X147452118Y-99490435D01*
X147734200Y-99373592D01*
X147988068Y-99203964D01*
X148192032Y-99000000D01*
X152563471Y-99000000D01*
X152640686Y-99115560D01*
X152884440Y-99359314D01*
X153171064Y-99550830D01*
X153489544Y-99682749D01*
X153827640Y-99750000D01*
X154172360Y-99750000D01*
X154510456Y-99682749D01*
X154828936Y-99550830D01*
X155115560Y-99359314D01*
X155359314Y-99115560D01*
X155436529Y-99000000D01*
X156063471Y-99000000D01*
X156140686Y-99115560D01*
X156384440Y-99359314D01*
X156671064Y-99550830D01*
X156989544Y-99682749D01*
X157327640Y-99750000D01*
X157672360Y-99750000D01*
X158010456Y-99682749D01*
X158328936Y-99550830D01*
X158615560Y-99359314D01*
X158859314Y-99115560D01*
X159050830Y-98828936D01*
X159182749Y-98510456D01*
X159250000Y-98172360D01*
X159317251Y-98510456D01*
X159449170Y-98828936D01*
X159640686Y-99115560D01*
X159884440Y-99359314D01*
X160171064Y-99550830D01*
X160489544Y-99682749D01*
X160827640Y-99750000D01*
X161172360Y-99750000D01*
X161510456Y-99682749D01*
X161828936Y-99550830D01*
X162115560Y-99359314D01*
X162359314Y-99115560D01*
X162436529Y-99000000D01*
X162557968Y-99000000D01*
X162761932Y-99203964D01*
X163015800Y-99373592D01*
X163297882Y-99490435D01*
X163597338Y-99550000D01*
X163902662Y-99550000D01*
X164202118Y-99490435D01*
X164484200Y-99373592D01*
X164738068Y-99203964D01*
X164953964Y-98988068D01*
X165123592Y-98734200D01*
X165240435Y-98452118D01*
X165300000Y-98152662D01*
X165300000Y-97847338D01*
X165240435Y-97547882D01*
X165123592Y-97265800D01*
X164953964Y-97011932D01*
X164738068Y-96796036D01*
X164484200Y-96626408D01*
X164202118Y-96509565D01*
X164154031Y-96500000D01*
X167085788Y-96500000D01*
X169258155Y-98672368D01*
X169289472Y-98710528D01*
X169441742Y-98835492D01*
X169594446Y-98917114D01*
X169615465Y-98928349D01*
X169803966Y-98985530D01*
X170000000Y-99004838D01*
X170049120Y-99000000D01*
X177797968Y-99000000D01*
X178001932Y-99203964D01*
X178255800Y-99373592D01*
X178537882Y-99490435D01*
X178837338Y-99550000D01*
X179142662Y-99550000D01*
X179442118Y-99490435D01*
X179724200Y-99373592D01*
X179978068Y-99203964D01*
X180193964Y-98988068D01*
X180363592Y-98734200D01*
X180480435Y-98452118D01*
X180521277Y-98246785D01*
X186984277Y-98246785D01*
X187046400Y-98883959D01*
X187231635Y-99496769D01*
X187532864Y-100061666D01*
X187536435Y-100067011D01*
X188031005Y-100292218D01*
X190073223Y-98250000D01*
X188031005Y-96207782D01*
X187536435Y-96432989D01*
X187234095Y-96997292D01*
X187047654Y-97609737D01*
X186984277Y-98246785D01*
X180521277Y-98246785D01*
X180540000Y-98152662D01*
X180540000Y-97847338D01*
X180480435Y-97547882D01*
X180363592Y-97265800D01*
X180193964Y-97011932D01*
X179978068Y-96796036D01*
X179724200Y-96626408D01*
X179442118Y-96509565D01*
X179142662Y-96450000D01*
X178837338Y-96450000D01*
X178537882Y-96509565D01*
X178255800Y-96626408D01*
X178001932Y-96796036D01*
X177797968Y-97000000D01*
X170414213Y-97000000D01*
X169445218Y-96031005D01*
X188207782Y-96031005D01*
X190250000Y-98073223D01*
X192292218Y-96031005D01*
X192067011Y-95536435D01*
X191502708Y-95234095D01*
X190890263Y-95047654D01*
X190253215Y-94984277D01*
X189616041Y-95046400D01*
X189003231Y-95231635D01*
X188438334Y-95532864D01*
X188432989Y-95536435D01*
X188207782Y-96031005D01*
X169445218Y-96031005D01*
X168241849Y-94827637D01*
X168210528Y-94789472D01*
X168058258Y-94664508D01*
X167884535Y-94571651D01*
X167696034Y-94514470D01*
X167549120Y-94500000D01*
X167500000Y-94495162D01*
X167450880Y-94500000D01*
X161905008Y-94500000D01*
X162115560Y-94359314D01*
X162359314Y-94115560D01*
X162550830Y-93828936D01*
X162682749Y-93510456D01*
X162750000Y-93172360D01*
X162750000Y-92827640D01*
X162682749Y-92489544D01*
X162550830Y-92171064D01*
X162359314Y-91884440D01*
X162115560Y-91640686D01*
X161828936Y-91449170D01*
X161510456Y-91317251D01*
X161172360Y-91250000D01*
X160827640Y-91250000D01*
X160489544Y-91317251D01*
X160171064Y-91449170D01*
X159884440Y-91640686D01*
X159640686Y-91884440D01*
X159563471Y-92000000D01*
X158936529Y-92000000D01*
X158859314Y-91884440D01*
X158615560Y-91640686D01*
X158500000Y-91563471D01*
X158500000Y-90049117D01*
X158504838Y-89999999D01*
X158499827Y-89949120D01*
X158485530Y-89803966D01*
X158428349Y-89615465D01*
X158335492Y-89441742D01*
X158210528Y-89289472D01*
X158172368Y-89258155D01*
X157818576Y-88904363D01*
X165486008Y-88904363D01*
X165556952Y-89138251D01*
X165713808Y-89454334D01*
X165929315Y-89733742D01*
X166195191Y-89965738D01*
X166501218Y-90141406D01*
X166835636Y-90253996D01*
X167115000Y-90045658D01*
X167115000Y-88625000D01*
X167365000Y-88625000D01*
X167365000Y-90045658D01*
X167644364Y-90253996D01*
X167978782Y-90141406D01*
X168284809Y-89965738D01*
X168550685Y-89733742D01*
X168766192Y-89454334D01*
X168923048Y-89138251D01*
X168993992Y-88904363D01*
X168784951Y-88625000D01*
X167365000Y-88625000D01*
X167115000Y-88625000D01*
X165695049Y-88625000D01*
X165486008Y-88904363D01*
X157818576Y-88904363D01*
X157009850Y-88095637D01*
X165486008Y-88095637D01*
X165695049Y-88375000D01*
X167115000Y-88375000D01*
X167115000Y-86954342D01*
X167365000Y-86954342D01*
X167365000Y-88375000D01*
X168784951Y-88375000D01*
X168993992Y-88095637D01*
X168923048Y-87861749D01*
X168766192Y-87545666D01*
X168550685Y-87266258D01*
X168284809Y-87034262D01*
X167978782Y-86858594D01*
X167644364Y-86746004D01*
X167365000Y-86954342D01*
X167115000Y-86954342D01*
X166835636Y-86746004D01*
X166501218Y-86858594D01*
X166195191Y-87034262D01*
X165929315Y-87266258D01*
X165713808Y-87545666D01*
X165556952Y-87861749D01*
X165486008Y-88095637D01*
X157009850Y-88095637D01*
X156741849Y-87827637D01*
X156710528Y-87789472D01*
X156558258Y-87664508D01*
X156384535Y-87571651D01*
X156196034Y-87514470D01*
X156049120Y-87500000D01*
X156000000Y-87495162D01*
X155950880Y-87500000D01*
X153192032Y-87500000D01*
X152988068Y-87296036D01*
X152734200Y-87126408D01*
X152452118Y-87009565D01*
X152152662Y-86950000D01*
X151847338Y-86950000D01*
X151547882Y-87009565D01*
X151265800Y-87126408D01*
X151011932Y-87296036D01*
X150796036Y-87511932D01*
X150626408Y-87765800D01*
X150509565Y-88047882D01*
X150450000Y-88347338D01*
X150450000Y-88652662D01*
X150509565Y-88952118D01*
X150626408Y-89234200D01*
X150796036Y-89488068D01*
X151011932Y-89703964D01*
X151265800Y-89873592D01*
X151547882Y-89990435D01*
X151847338Y-90050000D01*
X152152662Y-90050000D01*
X152452118Y-89990435D01*
X152734200Y-89873592D01*
X152988068Y-89703964D01*
X153192032Y-89500000D01*
X155585788Y-89500000D01*
X156500001Y-90414214D01*
X156500000Y-91563471D01*
X156384440Y-91640686D01*
X156140686Y-91884440D01*
X155949170Y-92171064D01*
X155817251Y-92489544D01*
X155750000Y-92827640D01*
X155682749Y-92489544D01*
X155550830Y-92171064D01*
X155359314Y-91884440D01*
X155115560Y-91640686D01*
X154828936Y-91449170D01*
X154510456Y-91317251D01*
X154172360Y-91250000D01*
X153827640Y-91250000D01*
X153489544Y-91317251D01*
X153171064Y-91449170D01*
X152884440Y-91640686D01*
X152640686Y-91884440D01*
X152449170Y-92171064D01*
X152317251Y-92489544D01*
X152250000Y-92827640D01*
X152250000Y-93172360D01*
X152317251Y-93510456D01*
X152449170Y-93828936D01*
X152640686Y-94115560D01*
X152884440Y-94359314D01*
X153000000Y-94436529D01*
X153000000Y-94950879D01*
X152995162Y-95000000D01*
X153014470Y-95196034D01*
X153047211Y-95303966D01*
X153071651Y-95384534D01*
X153164508Y-95558258D01*
X153289472Y-95710528D01*
X153327636Y-95741849D01*
X153758155Y-96172368D01*
X153789472Y-96210528D01*
X153837569Y-96250000D01*
X153827640Y-96250000D01*
X153489544Y-96317251D01*
X153171064Y-96449170D01*
X152884440Y-96640686D01*
X152640686Y-96884440D01*
X152563471Y-97000000D01*
X148192032Y-97000000D01*
X147988068Y-96796036D01*
X147734200Y-96626408D01*
X147452118Y-96509565D01*
X147152662Y-96450000D01*
X146847338Y-96450000D01*
X146547882Y-96509565D01*
X146265800Y-96626408D01*
X146011932Y-96796036D01*
X145796036Y-97011932D01*
X145626408Y-97265800D01*
X145509565Y-97547882D01*
X145450000Y-97847338D01*
X133325649Y-97847338D01*
X133513992Y-97595637D01*
X133443048Y-97361749D01*
X133286192Y-97045666D01*
X133070685Y-96766258D01*
X132804809Y-96534262D01*
X132498782Y-96358594D01*
X132164364Y-96246004D01*
X131885000Y-96454342D01*
X131635000Y-96454342D01*
X131355636Y-96246004D01*
X131021218Y-96358594D01*
X130715191Y-96534262D01*
X130449315Y-96766258D01*
X130233808Y-97045666D01*
X130076952Y-97361749D01*
X130006008Y-97595637D01*
X128447433Y-97595637D01*
X128268365Y-97003231D01*
X127967136Y-96438334D01*
X127963565Y-96432989D01*
X127468995Y-96207782D01*
X125426777Y-98250000D01*
X125073223Y-98250000D01*
X123031005Y-96207782D01*
X122536435Y-96432989D01*
X122250000Y-96967606D01*
X122250000Y-75468995D01*
X123207782Y-75468995D01*
X123432989Y-75963565D01*
X123997292Y-76265905D01*
X124609737Y-76452346D01*
X125136996Y-76504801D01*
X125093957Y-76522628D01*
X124867114Y-76674200D01*
X124674201Y-76867113D01*
X124522629Y-77093956D01*
X124418225Y-77346010D01*
X124365000Y-77613588D01*
X124365000Y-77886410D01*
X124418225Y-78153988D01*
X124522629Y-78406042D01*
X124674201Y-78632885D01*
X124749300Y-78707984D01*
X124745162Y-78750000D01*
X124764470Y-78946034D01*
X124797211Y-79053966D01*
X124821651Y-79134534D01*
X124914508Y-79308258D01*
X125039472Y-79460528D01*
X125077636Y-79491849D01*
X125477798Y-79892011D01*
X125346011Y-79918225D01*
X125093957Y-80022629D01*
X124867114Y-80174201D01*
X124674201Y-80367114D01*
X124522629Y-80593957D01*
X124418225Y-80846011D01*
X124365000Y-81113589D01*
X124365000Y-81386411D01*
X124418225Y-81653989D01*
X124522629Y-81906043D01*
X124674201Y-82132886D01*
X124750001Y-82208686D01*
X124750000Y-84291315D01*
X124674201Y-84367114D01*
X124522629Y-84593957D01*
X124418225Y-84846011D01*
X124365000Y-85113589D01*
X124365000Y-85386411D01*
X124418225Y-85653989D01*
X124522629Y-85906043D01*
X124674201Y-86132886D01*
X124750001Y-86208686D01*
X124750000Y-86835788D01*
X124627633Y-86958155D01*
X124589473Y-86989472D01*
X124464509Y-87141742D01*
X124414875Y-87234600D01*
X124371651Y-87315466D01*
X124314470Y-87503966D01*
X124295162Y-87700000D01*
X124300001Y-87749130D01*
X124300001Y-88707967D01*
X124096036Y-88911932D01*
X123926408Y-89165800D01*
X123809565Y-89447882D01*
X123750000Y-89747338D01*
X123750000Y-90052662D01*
X123809565Y-90352118D01*
X123926408Y-90634200D01*
X124096036Y-90888068D01*
X124311932Y-91103964D01*
X124565800Y-91273592D01*
X124847882Y-91390435D01*
X125147338Y-91450000D01*
X125452662Y-91450000D01*
X125752118Y-91390435D01*
X126034200Y-91273592D01*
X126288068Y-91103964D01*
X126500000Y-90892032D01*
X126500000Y-92585787D01*
X126438910Y-92646878D01*
X126288068Y-92496036D01*
X126034200Y-92326408D01*
X125752118Y-92209565D01*
X125452662Y-92150000D01*
X125147338Y-92150000D01*
X124847882Y-92209565D01*
X124565800Y-92326408D01*
X124311932Y-92496036D01*
X124096036Y-92711932D01*
X123926408Y-92965800D01*
X123809565Y-93247882D01*
X123750000Y-93547338D01*
X123750000Y-93852662D01*
X123809565Y-94152118D01*
X123926408Y-94434200D01*
X124096036Y-94688068D01*
X124311932Y-94903964D01*
X124553429Y-95065326D01*
X124003231Y-95231635D01*
X123438334Y-95532864D01*
X123432989Y-95536435D01*
X123207782Y-96031005D01*
X125250000Y-98073223D01*
X127292218Y-96031005D01*
X127067011Y-95536435D01*
X126502708Y-95234095D01*
X126009320Y-95083898D01*
X126034200Y-95073592D01*
X126288068Y-94903964D01*
X126492032Y-94700000D01*
X126750880Y-94700000D01*
X126800000Y-94704838D01*
X126849120Y-94700000D01*
X126996034Y-94685530D01*
X127184535Y-94628349D01*
X127358258Y-94535492D01*
X127510528Y-94410528D01*
X127541848Y-94372364D01*
X127809849Y-94104363D01*
X138786008Y-94104363D01*
X138856952Y-94338251D01*
X139013808Y-94654334D01*
X139229315Y-94933742D01*
X139495191Y-95165738D01*
X139801218Y-95341406D01*
X140135636Y-95453996D01*
X140415000Y-95245658D01*
X140415000Y-93825000D01*
X140665000Y-93825000D01*
X140665000Y-95245658D01*
X140944364Y-95453996D01*
X141278782Y-95341406D01*
X141584809Y-95165738D01*
X141850685Y-94933742D01*
X142066192Y-94654334D01*
X142223048Y-94338251D01*
X142293992Y-94104363D01*
X142084951Y-93825000D01*
X140665000Y-93825000D01*
X140415000Y-93825000D01*
X138995049Y-93825000D01*
X138786008Y-94104363D01*
X127809849Y-94104363D01*
X128172373Y-93741841D01*
X128210528Y-93710528D01*
X128335492Y-93558258D01*
X128428349Y-93384535D01*
X128455315Y-93295637D01*
X138786008Y-93295637D01*
X138995049Y-93575000D01*
X140415000Y-93575000D01*
X140415000Y-92154342D01*
X140665000Y-92154342D01*
X140665000Y-93575000D01*
X142084951Y-93575000D01*
X142293992Y-93295637D01*
X142223048Y-93061749D01*
X142219234Y-93054063D01*
X146192100Y-93054063D01*
X146237385Y-93405728D01*
X146350407Y-93741801D01*
X146466749Y-93959463D01*
X146812988Y-94010236D01*
X147823223Y-93000000D01*
X146812988Y-91989764D01*
X146466749Y-92040537D01*
X146309028Y-92358095D01*
X146216291Y-92700321D01*
X146192100Y-93054063D01*
X142219234Y-93054063D01*
X142066192Y-92745666D01*
X141850685Y-92466258D01*
X141584809Y-92234262D01*
X141278782Y-92058594D01*
X140944364Y-91946004D01*
X140665000Y-92154342D01*
X140415000Y-92154342D01*
X140135636Y-91946004D01*
X139801218Y-92058594D01*
X139495191Y-92234262D01*
X139229315Y-92466258D01*
X139013808Y-92745666D01*
X138856952Y-93061749D01*
X138786008Y-93295637D01*
X128455315Y-93295637D01*
X128485530Y-93196034D01*
X128500000Y-93049120D01*
X128500000Y-93049111D01*
X128504837Y-93000001D01*
X128500000Y-92950891D01*
X128500000Y-91812988D01*
X146989764Y-91812988D01*
X148000000Y-92823223D01*
X148014142Y-92809081D01*
X148190919Y-92985858D01*
X148176777Y-93000000D01*
X148190919Y-93014142D01*
X148014142Y-93190919D01*
X148000000Y-93176777D01*
X146989764Y-94187012D01*
X147040537Y-94533251D01*
X147358095Y-94690972D01*
X147700321Y-94783709D01*
X148054063Y-94807900D01*
X148405728Y-94762615D01*
X148741801Y-94649593D01*
X148959463Y-94533251D01*
X149010236Y-94187015D01*
X149189706Y-94366485D01*
X149197968Y-94358223D01*
X149281307Y-94426619D01*
X149411599Y-94496261D01*
X149552974Y-94539147D01*
X149700000Y-94553628D01*
X151300000Y-94553628D01*
X151447026Y-94539147D01*
X151588401Y-94496261D01*
X151718693Y-94426619D01*
X151832895Y-94332895D01*
X151926619Y-94218693D01*
X151996261Y-94088401D01*
X152039147Y-93947026D01*
X152053628Y-93800000D01*
X152053628Y-92200000D01*
X152039147Y-92052974D01*
X151996261Y-91911599D01*
X151926619Y-91781307D01*
X151832895Y-91667105D01*
X151718693Y-91573381D01*
X151588401Y-91503739D01*
X151447026Y-91460853D01*
X151300000Y-91446372D01*
X149700000Y-91446372D01*
X149552974Y-91460853D01*
X149411599Y-91503739D01*
X149281307Y-91573381D01*
X149197968Y-91641777D01*
X149189706Y-91633515D01*
X149010236Y-91812985D01*
X148959463Y-91466749D01*
X148641905Y-91309028D01*
X148299679Y-91216291D01*
X147945937Y-91192100D01*
X147594272Y-91237385D01*
X147258199Y-91350407D01*
X147040537Y-91466749D01*
X146989764Y-91812988D01*
X128500000Y-91812988D01*
X128500000Y-90304363D01*
X138786008Y-90304363D01*
X138856952Y-90538251D01*
X139013808Y-90854334D01*
X139229315Y-91133742D01*
X139495191Y-91365738D01*
X139801218Y-91541406D01*
X140135636Y-91653996D01*
X140415000Y-91445658D01*
X140415000Y-90025000D01*
X140665000Y-90025000D01*
X140665000Y-91445658D01*
X140944364Y-91653996D01*
X141278782Y-91541406D01*
X141584809Y-91365738D01*
X141850685Y-91133742D01*
X142066192Y-90854334D01*
X142223048Y-90538251D01*
X142293992Y-90304363D01*
X142084951Y-90025000D01*
X140665000Y-90025000D01*
X140415000Y-90025000D01*
X138995049Y-90025000D01*
X138786008Y-90304363D01*
X128500000Y-90304363D01*
X128500000Y-89495637D01*
X138786008Y-89495637D01*
X138995049Y-89775000D01*
X140415000Y-89775000D01*
X140415000Y-88354342D01*
X140135636Y-88146004D01*
X139801218Y-88258594D01*
X139495191Y-88434262D01*
X139229315Y-88666258D01*
X139013808Y-88945666D01*
X138856952Y-89261749D01*
X138786008Y-89495637D01*
X128500000Y-89495637D01*
X128500000Y-86414590D01*
X128593958Y-86477371D01*
X128846012Y-86581775D01*
X129113590Y-86635000D01*
X129386412Y-86635000D01*
X129653990Y-86581775D01*
X129906044Y-86477371D01*
X130132887Y-86325799D01*
X130325800Y-86132886D01*
X130477372Y-85906043D01*
X130581776Y-85653989D01*
X130635001Y-85386411D01*
X130635001Y-85113589D01*
X130581776Y-84846011D01*
X130542007Y-84750000D01*
X134317968Y-84750000D01*
X134521932Y-84953964D01*
X134775800Y-85123592D01*
X135057882Y-85240435D01*
X135357338Y-85300000D01*
X135662662Y-85300000D01*
X135962118Y-85240435D01*
X136244200Y-85123592D01*
X136498068Y-84953964D01*
X136713964Y-84738068D01*
X136883592Y-84484200D01*
X137000435Y-84202118D01*
X137060000Y-83902662D01*
X137060000Y-83597338D01*
X137000435Y-83297882D01*
X136883592Y-83015800D01*
X136713964Y-82761932D01*
X136502032Y-82550000D01*
X144748743Y-82550000D01*
X146715225Y-84430983D01*
X146739472Y-84460528D01*
X146786233Y-84498903D01*
X146794273Y-84506594D01*
X146824184Y-84530049D01*
X146891742Y-84585492D01*
X146901624Y-84590774D01*
X146910441Y-84597688D01*
X146988398Y-84637156D01*
X147065465Y-84678349D01*
X147076188Y-84681602D01*
X147086185Y-84686663D01*
X147170332Y-84710160D01*
X147253966Y-84735530D01*
X147265122Y-84736629D01*
X147275909Y-84739641D01*
X147363015Y-84746271D01*
X147400880Y-84750000D01*
X147412016Y-84750000D01*
X147472324Y-84754590D01*
X147510263Y-84750000D01*
X149557968Y-84750000D01*
X149696878Y-84888910D01*
X147316640Y-87269148D01*
X147232895Y-87167105D01*
X147118693Y-87073381D01*
X146988401Y-87003739D01*
X146847026Y-86960853D01*
X146700000Y-86946372D01*
X145100000Y-86946372D01*
X144952974Y-86960853D01*
X144811599Y-87003739D01*
X144681307Y-87073381D01*
X144567105Y-87167105D01*
X144473381Y-87281307D01*
X144438534Y-87346502D01*
X144388068Y-87296036D01*
X144134200Y-87126408D01*
X143852118Y-87009565D01*
X143552662Y-86950000D01*
X143247338Y-86950000D01*
X142947882Y-87009565D01*
X142665800Y-87126408D01*
X142411932Y-87296036D01*
X142196036Y-87511932D01*
X142026408Y-87765800D01*
X141909565Y-88047882D01*
X141850000Y-88347338D01*
X141850000Y-88652662D01*
X141853406Y-88669786D01*
X141850685Y-88666258D01*
X141584809Y-88434262D01*
X141278782Y-88258594D01*
X140944364Y-88146004D01*
X140665000Y-88354342D01*
X140665000Y-89775000D01*
X142084951Y-89775000D01*
X142255306Y-89547338D01*
X142411932Y-89703964D01*
X142665800Y-89873592D01*
X142947882Y-89990435D01*
X143247338Y-90050000D01*
X143552662Y-90050000D01*
X143852118Y-89990435D01*
X144134200Y-89873592D01*
X144388068Y-89703964D01*
X144438534Y-89653498D01*
X144473381Y-89718693D01*
X144567105Y-89832895D01*
X144681307Y-89926619D01*
X144811599Y-89996261D01*
X144952974Y-90039147D01*
X145100000Y-90053628D01*
X146700000Y-90053628D01*
X146847026Y-90039147D01*
X146988401Y-89996261D01*
X147118693Y-89926619D01*
X147232895Y-89832895D01*
X147326619Y-89718693D01*
X147396261Y-89588401D01*
X147423077Y-89500000D01*
X147450880Y-89500000D01*
X147500000Y-89504838D01*
X147549120Y-89500000D01*
X147696034Y-89485530D01*
X147884535Y-89428349D01*
X148058258Y-89335492D01*
X148210528Y-89210528D01*
X148241849Y-89172363D01*
X151422368Y-85991845D01*
X151460528Y-85960528D01*
X151585492Y-85808258D01*
X151678349Y-85634535D01*
X151694892Y-85580000D01*
X151735530Y-85446035D01*
X151754838Y-85250001D01*
X151750000Y-85200880D01*
X151750000Y-84942032D01*
X151953964Y-84738068D01*
X152123592Y-84484200D01*
X152240435Y-84202118D01*
X152300000Y-83902662D01*
X152300000Y-83620000D01*
X155326372Y-83620000D01*
X155326372Y-84920000D01*
X155340853Y-85067026D01*
X155383739Y-85208401D01*
X155453381Y-85338693D01*
X155547105Y-85452895D01*
X155661307Y-85546619D01*
X155791599Y-85616261D01*
X155932974Y-85659147D01*
X156080000Y-85673628D01*
X157380000Y-85673628D01*
X157527026Y-85659147D01*
X157668401Y-85616261D01*
X157798693Y-85546619D01*
X157912895Y-85452895D01*
X157997296Y-85350052D01*
X158366725Y-85350052D01*
X158399363Y-85680993D01*
X158691363Y-85823734D01*
X159005599Y-85906766D01*
X159329996Y-85926898D01*
X159652088Y-85883356D01*
X159959496Y-85777814D01*
X160086413Y-85709976D01*
X170796800Y-85709976D01*
X170837905Y-86048053D01*
X171141834Y-86197786D01*
X171469134Y-86285349D01*
X171807227Y-86307375D01*
X172143121Y-86263019D01*
X172463908Y-86153986D01*
X172662095Y-86048053D01*
X172703200Y-85709976D01*
X171750000Y-84756777D01*
X170796800Y-85709976D01*
X160086413Y-85709976D01*
X160140637Y-85680993D01*
X160173275Y-85350052D01*
X159270000Y-84446777D01*
X158366725Y-85350052D01*
X157997296Y-85350052D01*
X158006619Y-85338693D01*
X158076261Y-85208401D01*
X158089909Y-85163409D01*
X158189948Y-85173275D01*
X159093223Y-84270000D01*
X159446777Y-84270000D01*
X160350052Y-85173275D01*
X160680993Y-85140637D01*
X160823734Y-84848637D01*
X160879595Y-84637227D01*
X170022625Y-84637227D01*
X170066981Y-84973121D01*
X170176014Y-85293908D01*
X170281947Y-85492095D01*
X170620024Y-85533200D01*
X171573223Y-84580000D01*
X171926777Y-84580000D01*
X172555971Y-85209194D01*
X172572427Y-85240672D01*
X172574073Y-85242719D01*
X172575309Y-85245044D01*
X172619926Y-85299749D01*
X172664145Y-85354748D01*
X172666161Y-85356440D01*
X172667822Y-85358476D01*
X172722200Y-85403462D01*
X172776275Y-85448835D01*
X172778578Y-85450101D01*
X172780605Y-85451778D01*
X172819684Y-85472908D01*
X172879976Y-85533200D01*
X172928452Y-85527306D01*
X172976687Y-85542237D01*
X173044066Y-85563611D01*
X173046684Y-85563905D01*
X173049192Y-85564681D01*
X173119337Y-85572054D01*
X173189528Y-85579927D01*
X173194575Y-85579962D01*
X173194764Y-85579982D01*
X173194953Y-85579965D01*
X173200000Y-85580000D01*
X174665788Y-85580000D01*
X178158160Y-89072374D01*
X178189472Y-89110528D01*
X178227626Y-89141840D01*
X178341742Y-89235492D01*
X178515465Y-89328349D01*
X178703966Y-89385530D01*
X178900000Y-89404838D01*
X178949120Y-89400000D01*
X184978831Y-89400000D01*
X185006076Y-89465775D01*
X185252311Y-89834292D01*
X185565708Y-90147689D01*
X185934225Y-90393924D01*
X186343699Y-90563534D01*
X186778394Y-90650000D01*
X187221606Y-90650000D01*
X187656301Y-90563534D01*
X188065775Y-90393924D01*
X188434292Y-90147689D01*
X188747689Y-89834292D01*
X188993924Y-89465775D01*
X189163534Y-89056301D01*
X189250000Y-88621606D01*
X189250000Y-88178394D01*
X189163534Y-87743699D01*
X188993924Y-87334225D01*
X188747689Y-86965708D01*
X188434292Y-86652311D01*
X188065775Y-86406076D01*
X187656301Y-86236466D01*
X187221606Y-86150000D01*
X186778394Y-86150000D01*
X186343699Y-86236466D01*
X185934225Y-86406076D01*
X185565708Y-86652311D01*
X185252311Y-86965708D01*
X185006076Y-87334225D01*
X184978831Y-87400000D01*
X179314214Y-87400000D01*
X175821849Y-83907637D01*
X175790528Y-83869472D01*
X175638258Y-83744508D01*
X175464535Y-83651651D01*
X175276034Y-83594470D01*
X175129120Y-83580000D01*
X175080000Y-83575162D01*
X175030880Y-83580000D01*
X173200000Y-83580000D01*
X173129765Y-83586887D01*
X173059464Y-83593285D01*
X173056942Y-83594027D01*
X173054324Y-83594284D01*
X172986722Y-83614694D01*
X172926407Y-83632445D01*
X172879976Y-83626800D01*
X172820805Y-83685971D01*
X172789328Y-83702427D01*
X172787281Y-83704073D01*
X172784956Y-83705309D01*
X172730251Y-83749926D01*
X172675252Y-83794145D01*
X172673560Y-83796161D01*
X172671524Y-83797822D01*
X172626538Y-83852200D01*
X172581165Y-83906275D01*
X172579899Y-83908578D01*
X172578222Y-83910605D01*
X172557092Y-83949684D01*
X171926777Y-84580000D01*
X171573223Y-84580000D01*
X170620024Y-83626800D01*
X170281947Y-83667905D01*
X170132214Y-83971834D01*
X170044651Y-84299134D01*
X170022625Y-84637227D01*
X160879595Y-84637227D01*
X160906766Y-84534401D01*
X160926898Y-84210004D01*
X160883356Y-83887912D01*
X160777814Y-83580504D01*
X160708072Y-83450024D01*
X170796800Y-83450024D01*
X171750000Y-84403223D01*
X172703200Y-83450024D01*
X172662095Y-83111947D01*
X172358166Y-82962214D01*
X172030866Y-82874651D01*
X171692773Y-82852625D01*
X171356879Y-82896981D01*
X171036092Y-83006014D01*
X170837905Y-83111947D01*
X170796800Y-83450024D01*
X160708072Y-83450024D01*
X160680993Y-83399363D01*
X160350052Y-83366725D01*
X159446777Y-84270000D01*
X159093223Y-84270000D01*
X159079081Y-84255858D01*
X159255858Y-84079081D01*
X159270000Y-84093223D01*
X160173275Y-83189948D01*
X160140637Y-82859007D01*
X159848637Y-82716266D01*
X159534401Y-82633234D01*
X159352225Y-82621928D01*
X159346199Y-82591635D01*
X159240664Y-82336851D01*
X159087451Y-82107552D01*
X158892448Y-81912549D01*
X158866511Y-81895218D01*
X172820000Y-81895218D01*
X172820000Y-82184782D01*
X172876491Y-82468783D01*
X172987303Y-82736306D01*
X173148176Y-82977071D01*
X173352929Y-83181824D01*
X173593694Y-83342697D01*
X173861217Y-83453509D01*
X174145218Y-83510000D01*
X174434782Y-83510000D01*
X174718783Y-83453509D01*
X174986306Y-83342697D01*
X175227071Y-83181824D01*
X175368895Y-83040000D01*
X175989057Y-83040000D01*
X176003739Y-83088401D01*
X176073381Y-83218693D01*
X176167105Y-83332895D01*
X176281307Y-83426619D01*
X176411599Y-83496261D01*
X176552974Y-83539147D01*
X176700000Y-83553628D01*
X178300000Y-83553628D01*
X178447026Y-83539147D01*
X178588401Y-83496261D01*
X178718693Y-83426619D01*
X178832895Y-83332895D01*
X178926619Y-83218693D01*
X178961466Y-83153498D01*
X179011932Y-83203964D01*
X179265800Y-83373592D01*
X179547882Y-83490435D01*
X179847338Y-83550000D01*
X180152662Y-83550000D01*
X180452118Y-83490435D01*
X180734200Y-83373592D01*
X180988068Y-83203964D01*
X181192032Y-83000000D01*
X185263183Y-83000000D01*
X185446747Y-83274722D01*
X185725278Y-83553253D01*
X186052796Y-83772094D01*
X186416715Y-83922834D01*
X186803049Y-83999680D01*
X187196951Y-83999680D01*
X187583285Y-83922834D01*
X187947204Y-83772094D01*
X188274722Y-83553253D01*
X188553253Y-83274722D01*
X188772094Y-82947204D01*
X188922834Y-82583285D01*
X188999680Y-82196951D01*
X188999680Y-81803049D01*
X188922834Y-81416715D01*
X188772094Y-81052796D01*
X188553253Y-80725278D01*
X188274722Y-80446747D01*
X187947204Y-80227906D01*
X187583285Y-80077166D01*
X187196951Y-80000320D01*
X186803049Y-80000320D01*
X186416715Y-80077166D01*
X186052796Y-80227906D01*
X185725278Y-80446747D01*
X185446747Y-80725278D01*
X185263183Y-81000000D01*
X181192032Y-81000000D01*
X180988068Y-80796036D01*
X180734200Y-80626408D01*
X180452118Y-80509565D01*
X180152662Y-80450000D01*
X179847338Y-80450000D01*
X179547882Y-80509565D01*
X179265800Y-80626408D01*
X179011932Y-80796036D01*
X178961466Y-80846502D01*
X178926619Y-80781307D01*
X178832895Y-80667105D01*
X178718693Y-80573381D01*
X178588401Y-80503739D01*
X178447026Y-80460853D01*
X178300000Y-80446372D01*
X176700000Y-80446372D01*
X176552974Y-80460853D01*
X176411599Y-80503739D01*
X176281307Y-80573381D01*
X176167105Y-80667105D01*
X176073381Y-80781307D01*
X176003739Y-80911599D01*
X175964789Y-81040000D01*
X175368895Y-81040000D01*
X175227071Y-80898176D01*
X174986306Y-80737303D01*
X174718783Y-80626491D01*
X174434782Y-80570000D01*
X174145218Y-80570000D01*
X173861217Y-80626491D01*
X173593694Y-80737303D01*
X173352929Y-80898176D01*
X173148176Y-81102929D01*
X172987303Y-81343694D01*
X172876491Y-81611217D01*
X172820000Y-81895218D01*
X158866511Y-81895218D01*
X158663149Y-81759336D01*
X158408365Y-81653801D01*
X158137888Y-81600000D01*
X157862112Y-81600000D01*
X157591635Y-81653801D01*
X157336851Y-81759336D01*
X157107552Y-81912549D01*
X156912549Y-82107552D01*
X156759336Y-82336851D01*
X156653801Y-82591635D01*
X156600000Y-82862112D01*
X156600000Y-82866372D01*
X156080000Y-82866372D01*
X155932974Y-82880853D01*
X155791599Y-82923739D01*
X155661307Y-82993381D01*
X155547105Y-83087105D01*
X155453381Y-83201307D01*
X155383739Y-83331599D01*
X155340853Y-83472974D01*
X155326372Y-83620000D01*
X152300000Y-83620000D01*
X152300000Y-83597338D01*
X152240435Y-83297882D01*
X152123592Y-83015800D01*
X151953964Y-82761932D01*
X151738068Y-82546036D01*
X151484200Y-82376408D01*
X151202118Y-82259565D01*
X150902662Y-82200000D01*
X150597338Y-82200000D01*
X150297882Y-82259565D01*
X150015800Y-82376408D01*
X149761932Y-82546036D01*
X149557968Y-82750000D01*
X147851257Y-82750000D01*
X146580101Y-81534112D01*
X147764213Y-80350000D01*
X149447968Y-80350000D01*
X149651932Y-80553964D01*
X149905800Y-80723592D01*
X150187882Y-80840435D01*
X150487338Y-80900000D01*
X150792662Y-80900000D01*
X151092118Y-80840435D01*
X151374200Y-80723592D01*
X151628068Y-80553964D01*
X151832032Y-80350000D01*
X152100880Y-80350000D01*
X152150000Y-80354838D01*
X152199120Y-80350000D01*
X152346034Y-80335530D01*
X152534535Y-80278349D01*
X152708258Y-80185492D01*
X152860528Y-80060528D01*
X152891849Y-80022363D01*
X153442363Y-79471849D01*
X153480528Y-79440528D01*
X153605492Y-79288258D01*
X153698349Y-79114535D01*
X153755530Y-78926034D01*
X153770000Y-78779120D01*
X153770000Y-78779119D01*
X153774838Y-78730001D01*
X153770000Y-78680883D01*
X153770000Y-77855218D01*
X157030000Y-77855218D01*
X157030000Y-78144782D01*
X157086491Y-78428783D01*
X157197303Y-78696306D01*
X157358176Y-78937071D01*
X157562929Y-79141824D01*
X157803694Y-79302697D01*
X158071217Y-79413509D01*
X158355218Y-79470000D01*
X158644782Y-79470000D01*
X158928783Y-79413509D01*
X159196306Y-79302697D01*
X159437071Y-79141824D01*
X159641824Y-78937071D01*
X159802697Y-78696306D01*
X159913509Y-78428783D01*
X159970000Y-78144782D01*
X159970000Y-77855218D01*
X162110000Y-77855218D01*
X162110000Y-78144782D01*
X162166491Y-78428783D01*
X162277303Y-78696306D01*
X162438176Y-78937071D01*
X162642929Y-79141824D01*
X162883694Y-79302697D01*
X163151217Y-79413509D01*
X163435218Y-79470000D01*
X163724782Y-79470000D01*
X164008783Y-79413509D01*
X164276306Y-79302697D01*
X164517071Y-79141824D01*
X164721824Y-78937071D01*
X164882697Y-78696306D01*
X164993509Y-78428783D01*
X165050000Y-78144782D01*
X165050000Y-77855218D01*
X164993509Y-77571217D01*
X164882697Y-77303694D01*
X164721824Y-77062929D01*
X164517071Y-76858176D01*
X164276306Y-76697303D01*
X164008783Y-76586491D01*
X163724782Y-76530000D01*
X163435218Y-76530000D01*
X163151217Y-76586491D01*
X162883694Y-76697303D01*
X162642929Y-76858176D01*
X162438176Y-77062929D01*
X162277303Y-77303694D01*
X162166491Y-77571217D01*
X162110000Y-77855218D01*
X159970000Y-77855218D01*
X159913509Y-77571217D01*
X159802697Y-77303694D01*
X159641824Y-77062929D01*
X159437071Y-76858176D01*
X159196306Y-76697303D01*
X158928783Y-76586491D01*
X158644782Y-76530000D01*
X158355218Y-76530000D01*
X158071217Y-76586491D01*
X157803694Y-76697303D01*
X157562929Y-76858176D01*
X157358176Y-77062929D01*
X157197303Y-77303694D01*
X157086491Y-77571217D01*
X157030000Y-77855218D01*
X153770000Y-77855218D01*
X153770000Y-75315218D01*
X159570000Y-75315218D01*
X159570000Y-75604782D01*
X159626491Y-75888783D01*
X159737303Y-76156306D01*
X159898176Y-76397071D01*
X160102929Y-76601824D01*
X160343694Y-76762697D01*
X160611217Y-76873509D01*
X160895218Y-76930000D01*
X161184782Y-76930000D01*
X161468783Y-76873509D01*
X161736306Y-76762697D01*
X161977071Y-76601824D01*
X162118895Y-76460000D01*
X169545788Y-76460000D01*
X170750001Y-77664214D01*
X170750000Y-78421105D01*
X170608176Y-78562929D01*
X170447303Y-78803694D01*
X170336491Y-79071217D01*
X170280000Y-79355218D01*
X170280000Y-79644782D01*
X170336491Y-79928783D01*
X170447303Y-80196306D01*
X170608176Y-80437071D01*
X170812929Y-80641824D01*
X171053694Y-80802697D01*
X171321217Y-80913509D01*
X171605218Y-80970000D01*
X171894782Y-80970000D01*
X172178783Y-80913509D01*
X172446306Y-80802697D01*
X172687071Y-80641824D01*
X172891824Y-80437071D01*
X173052697Y-80196306D01*
X173163509Y-79928783D01*
X173220000Y-79644782D01*
X173220000Y-79355218D01*
X173163509Y-79071217D01*
X173052697Y-78803694D01*
X172891824Y-78562929D01*
X172750000Y-78421105D01*
X172750000Y-77299117D01*
X172754838Y-77249999D01*
X172749100Y-77191741D01*
X172735530Y-77053966D01*
X172678349Y-76865465D01*
X172585492Y-76691742D01*
X172460528Y-76539472D01*
X172422368Y-76508155D01*
X171383208Y-75468995D01*
X188207782Y-75468995D01*
X188432989Y-75963565D01*
X188997292Y-76265905D01*
X189609737Y-76452346D01*
X190246785Y-76515723D01*
X190883959Y-76453600D01*
X191496769Y-76268365D01*
X192061666Y-75967136D01*
X192067011Y-75963565D01*
X192292218Y-75468995D01*
X190250000Y-73426777D01*
X188207782Y-75468995D01*
X171383208Y-75468995D01*
X170701849Y-74787637D01*
X170670528Y-74749472D01*
X170518258Y-74624508D01*
X170344535Y-74531651D01*
X170156034Y-74474470D01*
X170009120Y-74460000D01*
X169960000Y-74455162D01*
X169910880Y-74460000D01*
X162118895Y-74460000D01*
X161977071Y-74318176D01*
X161736306Y-74157303D01*
X161468783Y-74046491D01*
X161184782Y-73990000D01*
X160895218Y-73990000D01*
X160611217Y-74046491D01*
X160343694Y-74157303D01*
X160102929Y-74318176D01*
X159898176Y-74522929D01*
X159737303Y-74763694D01*
X159626491Y-75031217D01*
X159570000Y-75315218D01*
X153770000Y-75315218D01*
X153770000Y-74443336D01*
X153838693Y-74406619D01*
X153952895Y-74312895D01*
X154046619Y-74198693D01*
X154116261Y-74068401D01*
X154159147Y-73927026D01*
X154173628Y-73780000D01*
X154173628Y-72480000D01*
X154159147Y-72332974D01*
X154116261Y-72191599D01*
X154046619Y-72061307D01*
X153952895Y-71947105D01*
X153838693Y-71853381D01*
X153827388Y-71847338D01*
X154450000Y-71847338D01*
X154450000Y-72152662D01*
X154509565Y-72452118D01*
X154626408Y-72734200D01*
X154796036Y-72988068D01*
X155011932Y-73203964D01*
X155265800Y-73373592D01*
X155547882Y-73490435D01*
X155847338Y-73550000D01*
X156152662Y-73550000D01*
X156452118Y-73490435D01*
X156734200Y-73373592D01*
X156988068Y-73203964D01*
X157203964Y-72988068D01*
X157373592Y-72734200D01*
X157490435Y-72452118D01*
X157550000Y-72152662D01*
X157550000Y-71847338D01*
X169690000Y-71847338D01*
X169690000Y-72152662D01*
X169749565Y-72452118D01*
X169866408Y-72734200D01*
X170036036Y-72988068D01*
X170251932Y-73203964D01*
X170505800Y-73373592D01*
X170787882Y-73490435D01*
X171087338Y-73550000D01*
X171375786Y-73550000D01*
X171498159Y-73672373D01*
X171529472Y-73710528D01*
X171567626Y-73741840D01*
X171681742Y-73835492D01*
X171855465Y-73928349D01*
X172043966Y-73985530D01*
X172240000Y-74004838D01*
X172289120Y-74000000D01*
X172976923Y-74000000D01*
X173003739Y-74088401D01*
X173073381Y-74218693D01*
X173167105Y-74332895D01*
X173281307Y-74426619D01*
X173411599Y-74496261D01*
X173552974Y-74539147D01*
X173700000Y-74553628D01*
X175300000Y-74553628D01*
X175447026Y-74539147D01*
X175588401Y-74496261D01*
X175718693Y-74426619D01*
X175832895Y-74332895D01*
X175926619Y-74218693D01*
X175961466Y-74153498D01*
X176011932Y-74203964D01*
X176265800Y-74373592D01*
X176547882Y-74490435D01*
X176847338Y-74550000D01*
X177152662Y-74550000D01*
X177452118Y-74490435D01*
X177734200Y-74373592D01*
X177988068Y-74203964D01*
X178203964Y-73988068D01*
X178373592Y-73734200D01*
X178490435Y-73452118D01*
X178531277Y-73246785D01*
X186984277Y-73246785D01*
X187046400Y-73883959D01*
X187231635Y-74496769D01*
X187532864Y-75061666D01*
X187536435Y-75067011D01*
X188031005Y-75292218D01*
X190073223Y-73250000D01*
X188031005Y-71207782D01*
X187536435Y-71432989D01*
X187234095Y-71997292D01*
X187047654Y-72609737D01*
X186984277Y-73246785D01*
X178531277Y-73246785D01*
X178550000Y-73152662D01*
X178550000Y-72847338D01*
X178490435Y-72547882D01*
X178373592Y-72265800D01*
X178203964Y-72011932D01*
X177988068Y-71796036D01*
X177734200Y-71626408D01*
X177452118Y-71509565D01*
X177152662Y-71450000D01*
X176847338Y-71450000D01*
X176547882Y-71509565D01*
X176265800Y-71626408D01*
X176011932Y-71796036D01*
X175961466Y-71846502D01*
X175926619Y-71781307D01*
X175832895Y-71667105D01*
X175718693Y-71573381D01*
X175588401Y-71503739D01*
X175447026Y-71460853D01*
X175300000Y-71446372D01*
X173700000Y-71446372D01*
X173552974Y-71460853D01*
X173411599Y-71503739D01*
X173281307Y-71573381D01*
X173167105Y-71667105D01*
X173073381Y-71781307D01*
X173003739Y-71911599D01*
X172976923Y-72000000D01*
X172790000Y-72000000D01*
X172790000Y-71847338D01*
X172730435Y-71547882D01*
X172613592Y-71265800D01*
X172443964Y-71011932D01*
X172228068Y-70796036D01*
X171974200Y-70626408D01*
X171692118Y-70509565D01*
X171392662Y-70450000D01*
X171087338Y-70450000D01*
X170787882Y-70509565D01*
X170505800Y-70626408D01*
X170251932Y-70796036D01*
X170036036Y-71011932D01*
X169866408Y-71265800D01*
X169749565Y-71547882D01*
X169690000Y-71847338D01*
X157550000Y-71847338D01*
X157490435Y-71547882D01*
X157373592Y-71265800D01*
X157203964Y-71011932D01*
X156988068Y-70796036D01*
X156734200Y-70626408D01*
X156452118Y-70509565D01*
X156152662Y-70450000D01*
X155847338Y-70450000D01*
X155547882Y-70509565D01*
X155265800Y-70626408D01*
X155011932Y-70796036D01*
X154796036Y-71011932D01*
X154626408Y-71265800D01*
X154509565Y-71547882D01*
X154450000Y-71847338D01*
X153827388Y-71847338D01*
X153708401Y-71783739D01*
X153567026Y-71740853D01*
X153420000Y-71726372D01*
X152120000Y-71726372D01*
X151972974Y-71740853D01*
X151831599Y-71783739D01*
X151701307Y-71853381D01*
X151587105Y-71947105D01*
X151493381Y-72061307D01*
X151423739Y-72191599D01*
X151410091Y-72236591D01*
X151310052Y-72226725D01*
X150406777Y-73130000D01*
X150420919Y-73144142D01*
X150244142Y-73320919D01*
X150230000Y-73306777D01*
X149326725Y-74210052D01*
X149359363Y-74540993D01*
X149651363Y-74683734D01*
X149965599Y-74766766D01*
X150147775Y-74778072D01*
X150153801Y-74808365D01*
X150259336Y-75063149D01*
X150412549Y-75292448D01*
X150607552Y-75487451D01*
X150836851Y-75640664D01*
X151091635Y-75746199D01*
X151362112Y-75800000D01*
X151637888Y-75800000D01*
X151770001Y-75773721D01*
X151770000Y-78287968D01*
X151628068Y-78146036D01*
X151374200Y-77976408D01*
X151092118Y-77859565D01*
X150792662Y-77800000D01*
X150487338Y-77800000D01*
X150187882Y-77859565D01*
X149905800Y-77976408D01*
X149651932Y-78146036D01*
X149447968Y-78350000D01*
X147399120Y-78350000D01*
X147350000Y-78345162D01*
X147300880Y-78350000D01*
X147153966Y-78364470D01*
X146965465Y-78421651D01*
X146791742Y-78514508D01*
X146639472Y-78639472D01*
X146608155Y-78677632D01*
X144735788Y-80550000D01*
X136392032Y-80550000D01*
X136603964Y-80338068D01*
X136773592Y-80084200D01*
X136890435Y-79802118D01*
X136950000Y-79502662D01*
X136950000Y-79197338D01*
X136890435Y-78897882D01*
X136773592Y-78615800D01*
X136603964Y-78361932D01*
X136400000Y-78157968D01*
X136400000Y-74623077D01*
X136488401Y-74596261D01*
X136618693Y-74526619D01*
X136732895Y-74432895D01*
X136826619Y-74318693D01*
X136896261Y-74188401D01*
X136923077Y-74100000D01*
X139613183Y-74100000D01*
X139796747Y-74374722D01*
X140075278Y-74653253D01*
X140402796Y-74872094D01*
X140766715Y-75022834D01*
X141153049Y-75099680D01*
X141546951Y-75099680D01*
X141933285Y-75022834D01*
X142297204Y-74872094D01*
X142624722Y-74653253D01*
X142670425Y-74607550D01*
X144969226Y-74607550D01*
X145074244Y-74999772D01*
X145468423Y-75202402D01*
X145894560Y-75324238D01*
X146336277Y-75360596D01*
X146776601Y-75310082D01*
X147198610Y-75174636D01*
X147525756Y-74999772D01*
X147630774Y-74607550D01*
X146300000Y-73276777D01*
X144969226Y-74607550D01*
X142670425Y-74607550D01*
X142903253Y-74374722D01*
X143122094Y-74047204D01*
X143272834Y-73683285D01*
X143349680Y-73296951D01*
X143349680Y-73136277D01*
X144039404Y-73136277D01*
X144089918Y-73576601D01*
X144225364Y-73998610D01*
X144400228Y-74325756D01*
X144792450Y-74430774D01*
X146123223Y-73100000D01*
X146476777Y-73100000D01*
X147807550Y-74430774D01*
X148199772Y-74325756D01*
X148402402Y-73931577D01*
X148524238Y-73505440D01*
X148550202Y-73189996D01*
X148573102Y-73189996D01*
X148616644Y-73512088D01*
X148722186Y-73819496D01*
X148819007Y-74000637D01*
X149149948Y-74033275D01*
X150053223Y-73130000D01*
X149149948Y-72226725D01*
X148819007Y-72259363D01*
X148676266Y-72551363D01*
X148593234Y-72865599D01*
X148573102Y-73189996D01*
X148550202Y-73189996D01*
X148560596Y-73063723D01*
X148510082Y-72623399D01*
X148374636Y-72201390D01*
X148293689Y-72049948D01*
X149326725Y-72049948D01*
X150230000Y-72953223D01*
X151133275Y-72049948D01*
X151100637Y-71719007D01*
X150808637Y-71576266D01*
X150494401Y-71493234D01*
X150170004Y-71473102D01*
X149847912Y-71516644D01*
X149540504Y-71622186D01*
X149359363Y-71719007D01*
X149326725Y-72049948D01*
X148293689Y-72049948D01*
X148199772Y-71874244D01*
X147807550Y-71769226D01*
X146476777Y-73100000D01*
X146123223Y-73100000D01*
X144792450Y-71769226D01*
X144400228Y-71874244D01*
X144197598Y-72268423D01*
X144075762Y-72694560D01*
X144039404Y-73136277D01*
X143349680Y-73136277D01*
X143349680Y-72903049D01*
X143272834Y-72516715D01*
X143122094Y-72152796D01*
X142903253Y-71825278D01*
X142670425Y-71592450D01*
X144969226Y-71592450D01*
X146300000Y-72923223D01*
X147630774Y-71592450D01*
X147525756Y-71200228D01*
X147131577Y-70997598D01*
X146705440Y-70875762D01*
X146263723Y-70839404D01*
X145823399Y-70889918D01*
X145401390Y-71025364D01*
X145074244Y-71200228D01*
X144969226Y-71592450D01*
X142670425Y-71592450D01*
X142624722Y-71546747D01*
X142297204Y-71327906D01*
X141933285Y-71177166D01*
X141546951Y-71100320D01*
X141153049Y-71100320D01*
X140766715Y-71177166D01*
X140402796Y-71327906D01*
X140075278Y-71546747D01*
X139796747Y-71825278D01*
X139613183Y-72100000D01*
X136923077Y-72100000D01*
X136896261Y-72011599D01*
X136826619Y-71881307D01*
X136732895Y-71767105D01*
X136618693Y-71673381D01*
X136488401Y-71603739D01*
X136347026Y-71560853D01*
X136200000Y-71546372D01*
X134600000Y-71546372D01*
X134452974Y-71560853D01*
X134311599Y-71603739D01*
X134181307Y-71673381D01*
X134097968Y-71741777D01*
X134089706Y-71733515D01*
X133910236Y-71912985D01*
X133859463Y-71566749D01*
X133541905Y-71409028D01*
X133199679Y-71316291D01*
X132845937Y-71292100D01*
X132494272Y-71337385D01*
X132158199Y-71450407D01*
X131940537Y-71566749D01*
X131889764Y-71912988D01*
X132900000Y-72923223D01*
X132914142Y-72909081D01*
X133090919Y-73085858D01*
X133076777Y-73100000D01*
X133090919Y-73114142D01*
X132914142Y-73290919D01*
X132900000Y-73276777D01*
X131889764Y-74287012D01*
X131940537Y-74633251D01*
X132258095Y-74790972D01*
X132600321Y-74883709D01*
X132954063Y-74907900D01*
X133305728Y-74862615D01*
X133641801Y-74749593D01*
X133859463Y-74633251D01*
X133910236Y-74287015D01*
X134089706Y-74466485D01*
X134097968Y-74458223D01*
X134181307Y-74526619D01*
X134311599Y-74596261D01*
X134400001Y-74623078D01*
X134400000Y-78157968D01*
X134196036Y-78361932D01*
X134026408Y-78615800D01*
X133909565Y-78897882D01*
X133850000Y-79197338D01*
X133850000Y-79502662D01*
X133909565Y-79802118D01*
X134026408Y-80084200D01*
X134196036Y-80338068D01*
X134407968Y-80550000D01*
X133571143Y-80550000D01*
X133562503Y-80539472D01*
X133524343Y-80508155D01*
X131455285Y-78439097D01*
X131477371Y-78406043D01*
X131581775Y-78153989D01*
X131635000Y-77886411D01*
X131635000Y-77613589D01*
X131581775Y-77346011D01*
X131477371Y-77093957D01*
X131325799Y-76867114D01*
X131132886Y-76674201D01*
X130906043Y-76522629D01*
X130653989Y-76418225D01*
X130386411Y-76365000D01*
X130113589Y-76365000D01*
X129846011Y-76418225D01*
X129593957Y-76522629D01*
X129367114Y-76674201D01*
X129174201Y-76867114D01*
X129022629Y-77093957D01*
X128918225Y-77346011D01*
X128865000Y-77613589D01*
X128865000Y-77886411D01*
X128918225Y-78153989D01*
X129022629Y-78406043D01*
X129174201Y-78632886D01*
X129251261Y-78709946D01*
X129264470Y-78844059D01*
X129321651Y-79032559D01*
X129347957Y-79081774D01*
X129414509Y-79206283D01*
X129539473Y-79358553D01*
X129577632Y-79389869D01*
X130062855Y-79875093D01*
X129846011Y-79918226D01*
X129593957Y-80022630D01*
X129499775Y-80085561D01*
X127991850Y-78577637D01*
X127960529Y-78539472D01*
X127808259Y-78414508D01*
X127634536Y-78321651D01*
X127446035Y-78264470D01*
X127299121Y-78250000D01*
X127250001Y-78245162D01*
X127200881Y-78250000D01*
X127042006Y-78250000D01*
X127081775Y-78153988D01*
X127135000Y-77886410D01*
X127135000Y-77613588D01*
X127081775Y-77346010D01*
X126977371Y-77093956D01*
X126825799Y-76867113D01*
X126632886Y-76674200D01*
X126406043Y-76522628D01*
X126153989Y-76418224D01*
X126061715Y-76399869D01*
X126496769Y-76268365D01*
X127061666Y-75967136D01*
X127067011Y-75963565D01*
X127292218Y-75468995D01*
X125250000Y-73426777D01*
X123207782Y-75468995D01*
X122250000Y-75468995D01*
X122250000Y-74531209D01*
X122532864Y-75061666D01*
X122536435Y-75067011D01*
X123031005Y-75292218D01*
X125073223Y-73250000D01*
X125426777Y-73250000D01*
X127468995Y-75292218D01*
X127963565Y-75067011D01*
X128265905Y-74502708D01*
X128452346Y-73890263D01*
X128515723Y-73253215D01*
X128506056Y-73154063D01*
X131092100Y-73154063D01*
X131137385Y-73505728D01*
X131250407Y-73841801D01*
X131366749Y-74059463D01*
X131712988Y-74110236D01*
X132723223Y-73100000D01*
X131712988Y-72089764D01*
X131366749Y-72140537D01*
X131209028Y-72458095D01*
X131116291Y-72800321D01*
X131092100Y-73154063D01*
X128506056Y-73154063D01*
X128453600Y-72616041D01*
X128268365Y-72003231D01*
X127967136Y-71438334D01*
X127963565Y-71432989D01*
X127468995Y-71207782D01*
X125426777Y-73250000D01*
X125073223Y-73250000D01*
X125059081Y-73235858D01*
X125235858Y-73059081D01*
X125250000Y-73073223D01*
X127292218Y-71031005D01*
X127067011Y-70536435D01*
X126532394Y-70250000D01*
X188968791Y-70250000D01*
X188438334Y-70532864D01*
G37*
X188438334Y-70532864D02*
X188432989Y-70536435D01*
X188207782Y-71031005D01*
X190250000Y-73073223D01*
X190264142Y-73059081D01*
X190440919Y-73235858D01*
X190426777Y-73250000D01*
X192468995Y-75292218D01*
X192963565Y-75067011D01*
X193250001Y-74532392D01*
X193250000Y-96968791D01*
X192967136Y-96438334D01*
X192963565Y-96432989D01*
X192468995Y-96207782D01*
X190426777Y-98250000D01*
X190440919Y-98264142D01*
X190264142Y-98440919D01*
X190250000Y-98426777D01*
X188207782Y-100468995D01*
X188432989Y-100963565D01*
X188967606Y-101250000D01*
X126531209Y-101250000D01*
X127061666Y-100967136D01*
X127067011Y-100963565D01*
X127292218Y-100468995D01*
X125250000Y-98426777D01*
X125235858Y-98440919D01*
X125059081Y-98264142D01*
X125073223Y-98250000D01*
X125426777Y-98250000D01*
X127468995Y-100292218D01*
X127963565Y-100067011D01*
X128265905Y-99502708D01*
X128452346Y-98890263D01*
X128500685Y-98404363D01*
X130006008Y-98404363D01*
X130076952Y-98638251D01*
X130233808Y-98954334D01*
X130449315Y-99233742D01*
X130715191Y-99465738D01*
X131021218Y-99641406D01*
X131355636Y-99753996D01*
X131635000Y-99545658D01*
X131635000Y-98125000D01*
X131885000Y-98125000D01*
X131885000Y-99545658D01*
X132164364Y-99753996D01*
X132498782Y-99641406D01*
X132804809Y-99465738D01*
X133070685Y-99233742D01*
X133286192Y-98954334D01*
X133443048Y-98638251D01*
X133513992Y-98404363D01*
X133304951Y-98125000D01*
X131885000Y-98125000D01*
X131635000Y-98125000D01*
X130215049Y-98125000D01*
X130006008Y-98404363D01*
X128500685Y-98404363D01*
X128515723Y-98253215D01*
X128453600Y-97616041D01*
X128447433Y-97595637D01*
X130006008Y-97595637D01*
X130215049Y-97875000D01*
X131635000Y-97875000D01*
X131635000Y-96454342D01*
X131885000Y-96454342D01*
X131885000Y-97875000D01*
X133304951Y-97875000D01*
X133325649Y-97847338D01*
X145450000Y-97847338D01*
X145450000Y-98152662D01*
X145509565Y-98452118D01*
X145626408Y-98734200D01*
X145796036Y-98988068D01*
X146011932Y-99203964D01*
X146265800Y-99373592D01*
X146547882Y-99490435D01*
X146847338Y-99550000D01*
X147152662Y-99550000D01*
X147452118Y-99490435D01*
X147734200Y-99373592D01*
X147988068Y-99203964D01*
X148192032Y-99000000D01*
X152563471Y-99000000D01*
X152640686Y-99115560D01*
X152884440Y-99359314D01*
X153171064Y-99550830D01*
X153489544Y-99682749D01*
X153827640Y-99750000D01*
X154172360Y-99750000D01*
X154510456Y-99682749D01*
X154828936Y-99550830D01*
X155115560Y-99359314D01*
X155359314Y-99115560D01*
X155436529Y-99000000D01*
X156063471Y-99000000D01*
X156140686Y-99115560D01*
X156384440Y-99359314D01*
X156671064Y-99550830D01*
X156989544Y-99682749D01*
X157327640Y-99750000D01*
X157672360Y-99750000D01*
X158010456Y-99682749D01*
X158328936Y-99550830D01*
X158615560Y-99359314D01*
X158859314Y-99115560D01*
X159050830Y-98828936D01*
X159182749Y-98510456D01*
X159250000Y-98172360D01*
X159317251Y-98510456D01*
X159449170Y-98828936D01*
X159640686Y-99115560D01*
X159884440Y-99359314D01*
X160171064Y-99550830D01*
X160489544Y-99682749D01*
X160827640Y-99750000D01*
X161172360Y-99750000D01*
X161510456Y-99682749D01*
X161828936Y-99550830D01*
X162115560Y-99359314D01*
X162359314Y-99115560D01*
X162436529Y-99000000D01*
X162557968Y-99000000D01*
X162761932Y-99203964D01*
X163015800Y-99373592D01*
X163297882Y-99490435D01*
X163597338Y-99550000D01*
X163902662Y-99550000D01*
X164202118Y-99490435D01*
X164484200Y-99373592D01*
X164738068Y-99203964D01*
X164953964Y-98988068D01*
X165123592Y-98734200D01*
X165240435Y-98452118D01*
X165300000Y-98152662D01*
X165300000Y-97847338D01*
X165240435Y-97547882D01*
X165123592Y-97265800D01*
X164953964Y-97011932D01*
X164738068Y-96796036D01*
X164484200Y-96626408D01*
X164202118Y-96509565D01*
X164154031Y-96500000D01*
X167085788Y-96500000D01*
X169258155Y-98672368D01*
X169289472Y-98710528D01*
X169441742Y-98835492D01*
X169594446Y-98917114D01*
X169615465Y-98928349D01*
X169803966Y-98985530D01*
X170000000Y-99004838D01*
X170049120Y-99000000D01*
X177797968Y-99000000D01*
X178001932Y-99203964D01*
X178255800Y-99373592D01*
X178537882Y-99490435D01*
X178837338Y-99550000D01*
X179142662Y-99550000D01*
X179442118Y-99490435D01*
X179724200Y-99373592D01*
X179978068Y-99203964D01*
X180193964Y-98988068D01*
X180363592Y-98734200D01*
X180480435Y-98452118D01*
X180521277Y-98246785D01*
X186984277Y-98246785D01*
X187046400Y-98883959D01*
X187231635Y-99496769D01*
X187532864Y-100061666D01*
X187536435Y-100067011D01*
X188031005Y-100292218D01*
X190073223Y-98250000D01*
X188031005Y-96207782D01*
X187536435Y-96432989D01*
X187234095Y-96997292D01*
X187047654Y-97609737D01*
X186984277Y-98246785D01*
X180521277Y-98246785D01*
X180540000Y-98152662D01*
X180540000Y-97847338D01*
X180480435Y-97547882D01*
X180363592Y-97265800D01*
X180193964Y-97011932D01*
X179978068Y-96796036D01*
X179724200Y-96626408D01*
X179442118Y-96509565D01*
X179142662Y-96450000D01*
X178837338Y-96450000D01*
X178537882Y-96509565D01*
X178255800Y-96626408D01*
X178001932Y-96796036D01*
X177797968Y-97000000D01*
X170414213Y-97000000D01*
X169445218Y-96031005D01*
X188207782Y-96031005D01*
X190250000Y-98073223D01*
X192292218Y-96031005D01*
X192067011Y-95536435D01*
X191502708Y-95234095D01*
X190890263Y-95047654D01*
X190253215Y-94984277D01*
X189616041Y-95046400D01*
X189003231Y-95231635D01*
X188438334Y-95532864D01*
X188432989Y-95536435D01*
X188207782Y-96031005D01*
X169445218Y-96031005D01*
X168241849Y-94827637D01*
X168210528Y-94789472D01*
X168058258Y-94664508D01*
X167884535Y-94571651D01*
X167696034Y-94514470D01*
X167549120Y-94500000D01*
X167500000Y-94495162D01*
X167450880Y-94500000D01*
X161905008Y-94500000D01*
X162115560Y-94359314D01*
X162359314Y-94115560D01*
X162550830Y-93828936D01*
X162682749Y-93510456D01*
X162750000Y-93172360D01*
X162750000Y-92827640D01*
X162682749Y-92489544D01*
X162550830Y-92171064D01*
X162359314Y-91884440D01*
X162115560Y-91640686D01*
X161828936Y-91449170D01*
X161510456Y-91317251D01*
X161172360Y-91250000D01*
X160827640Y-91250000D01*
X160489544Y-91317251D01*
X160171064Y-91449170D01*
X159884440Y-91640686D01*
X159640686Y-91884440D01*
X159563471Y-92000000D01*
X158936529Y-92000000D01*
X158859314Y-91884440D01*
X158615560Y-91640686D01*
X158500000Y-91563471D01*
X158500000Y-90049117D01*
X158504838Y-89999999D01*
X158499827Y-89949120D01*
X158485530Y-89803966D01*
X158428349Y-89615465D01*
X158335492Y-89441742D01*
X158210528Y-89289472D01*
X158172368Y-89258155D01*
X157818576Y-88904363D01*
X165486008Y-88904363D01*
X165556952Y-89138251D01*
X165713808Y-89454334D01*
X165929315Y-89733742D01*
X166195191Y-89965738D01*
X166501218Y-90141406D01*
X166835636Y-90253996D01*
X167115000Y-90045658D01*
X167115000Y-88625000D01*
X167365000Y-88625000D01*
X167365000Y-90045658D01*
X167644364Y-90253996D01*
X167978782Y-90141406D01*
X168284809Y-89965738D01*
X168550685Y-89733742D01*
X168766192Y-89454334D01*
X168923048Y-89138251D01*
X168993992Y-88904363D01*
X168784951Y-88625000D01*
X167365000Y-88625000D01*
X167115000Y-88625000D01*
X165695049Y-88625000D01*
X165486008Y-88904363D01*
X157818576Y-88904363D01*
X157009850Y-88095637D01*
X165486008Y-88095637D01*
X165695049Y-88375000D01*
X167115000Y-88375000D01*
X167115000Y-86954342D01*
X167365000Y-86954342D01*
X167365000Y-88375000D01*
X168784951Y-88375000D01*
X168993992Y-88095637D01*
X168923048Y-87861749D01*
X168766192Y-87545666D01*
X168550685Y-87266258D01*
X168284809Y-87034262D01*
X167978782Y-86858594D01*
X167644364Y-86746004D01*
X167365000Y-86954342D01*
X167115000Y-86954342D01*
X166835636Y-86746004D01*
X166501218Y-86858594D01*
X166195191Y-87034262D01*
X165929315Y-87266258D01*
X165713808Y-87545666D01*
X165556952Y-87861749D01*
X165486008Y-88095637D01*
X157009850Y-88095637D01*
X156741849Y-87827637D01*
X156710528Y-87789472D01*
X156558258Y-87664508D01*
X156384535Y-87571651D01*
X156196034Y-87514470D01*
X156049120Y-87500000D01*
X156000000Y-87495162D01*
X155950880Y-87500000D01*
X153192032Y-87500000D01*
X152988068Y-87296036D01*
X152734200Y-87126408D01*
X152452118Y-87009565D01*
X152152662Y-86950000D01*
X151847338Y-86950000D01*
X151547882Y-87009565D01*
X151265800Y-87126408D01*
X151011932Y-87296036D01*
X150796036Y-87511932D01*
X150626408Y-87765800D01*
X150509565Y-88047882D01*
X150450000Y-88347338D01*
X150450000Y-88652662D01*
X150509565Y-88952118D01*
X150626408Y-89234200D01*
X150796036Y-89488068D01*
X151011932Y-89703964D01*
X151265800Y-89873592D01*
X151547882Y-89990435D01*
X151847338Y-90050000D01*
X152152662Y-90050000D01*
X152452118Y-89990435D01*
X152734200Y-89873592D01*
X152988068Y-89703964D01*
X153192032Y-89500000D01*
X155585788Y-89500000D01*
X156500001Y-90414214D01*
X156500000Y-91563471D01*
X156384440Y-91640686D01*
X156140686Y-91884440D01*
X155949170Y-92171064D01*
X155817251Y-92489544D01*
X155750000Y-92827640D01*
X155682749Y-92489544D01*
X155550830Y-92171064D01*
X155359314Y-91884440D01*
X155115560Y-91640686D01*
X154828936Y-91449170D01*
X154510456Y-91317251D01*
X154172360Y-91250000D01*
X153827640Y-91250000D01*
X153489544Y-91317251D01*
X153171064Y-91449170D01*
X152884440Y-91640686D01*
X152640686Y-91884440D01*
X152449170Y-92171064D01*
X152317251Y-92489544D01*
X152250000Y-92827640D01*
X152250000Y-93172360D01*
X152317251Y-93510456D01*
X152449170Y-93828936D01*
X152640686Y-94115560D01*
X152884440Y-94359314D01*
X153000000Y-94436529D01*
X153000000Y-94950879D01*
X152995162Y-95000000D01*
X153014470Y-95196034D01*
X153047211Y-95303966D01*
X153071651Y-95384534D01*
X153164508Y-95558258D01*
X153289472Y-95710528D01*
X153327636Y-95741849D01*
X153758155Y-96172368D01*
X153789472Y-96210528D01*
X153837569Y-96250000D01*
X153827640Y-96250000D01*
X153489544Y-96317251D01*
X153171064Y-96449170D01*
X152884440Y-96640686D01*
X152640686Y-96884440D01*
X152563471Y-97000000D01*
X148192032Y-97000000D01*
X147988068Y-96796036D01*
X147734200Y-96626408D01*
X147452118Y-96509565D01*
X147152662Y-96450000D01*
X146847338Y-96450000D01*
X146547882Y-96509565D01*
X146265800Y-96626408D01*
X146011932Y-96796036D01*
X145796036Y-97011932D01*
X145626408Y-97265800D01*
X145509565Y-97547882D01*
X145450000Y-97847338D01*
X133325649Y-97847338D01*
X133513992Y-97595637D01*
X133443048Y-97361749D01*
X133286192Y-97045666D01*
X133070685Y-96766258D01*
X132804809Y-96534262D01*
X132498782Y-96358594D01*
X132164364Y-96246004D01*
X131885000Y-96454342D01*
X131635000Y-96454342D01*
X131355636Y-96246004D01*
X131021218Y-96358594D01*
X130715191Y-96534262D01*
X130449315Y-96766258D01*
X130233808Y-97045666D01*
X130076952Y-97361749D01*
X130006008Y-97595637D01*
X128447433Y-97595637D01*
X128268365Y-97003231D01*
X127967136Y-96438334D01*
X127963565Y-96432989D01*
X127468995Y-96207782D01*
X125426777Y-98250000D01*
X125073223Y-98250000D01*
X123031005Y-96207782D01*
X122536435Y-96432989D01*
X122250000Y-96967606D01*
X122250000Y-75468995D01*
X123207782Y-75468995D01*
X123432989Y-75963565D01*
X123997292Y-76265905D01*
X124609737Y-76452346D01*
X125136996Y-76504801D01*
X125093957Y-76522628D01*
X124867114Y-76674200D01*
X124674201Y-76867113D01*
X124522629Y-77093956D01*
X124418225Y-77346010D01*
X124365000Y-77613588D01*
X124365000Y-77886410D01*
X124418225Y-78153988D01*
X124522629Y-78406042D01*
X124674201Y-78632885D01*
X124749300Y-78707984D01*
X124745162Y-78750000D01*
X124764470Y-78946034D01*
X124797211Y-79053966D01*
X124821651Y-79134534D01*
X124914508Y-79308258D01*
X125039472Y-79460528D01*
X125077636Y-79491849D01*
X125477798Y-79892011D01*
X125346011Y-79918225D01*
X125093957Y-80022629D01*
X124867114Y-80174201D01*
X124674201Y-80367114D01*
X124522629Y-80593957D01*
X124418225Y-80846011D01*
X124365000Y-81113589D01*
X124365000Y-81386411D01*
X124418225Y-81653989D01*
X124522629Y-81906043D01*
X124674201Y-82132886D01*
X124750001Y-82208686D01*
X124750000Y-84291315D01*
X124674201Y-84367114D01*
X124522629Y-84593957D01*
X124418225Y-84846011D01*
X124365000Y-85113589D01*
X124365000Y-85386411D01*
X124418225Y-85653989D01*
X124522629Y-85906043D01*
X124674201Y-86132886D01*
X124750001Y-86208686D01*
X124750000Y-86835788D01*
X124627633Y-86958155D01*
X124589473Y-86989472D01*
X124464509Y-87141742D01*
X124414875Y-87234600D01*
X124371651Y-87315466D01*
X124314470Y-87503966D01*
X124295162Y-87700000D01*
X124300001Y-87749130D01*
X124300001Y-88707967D01*
X124096036Y-88911932D01*
X123926408Y-89165800D01*
X123809565Y-89447882D01*
X123750000Y-89747338D01*
X123750000Y-90052662D01*
X123809565Y-90352118D01*
X123926408Y-90634200D01*
X124096036Y-90888068D01*
X124311932Y-91103964D01*
X124565800Y-91273592D01*
X124847882Y-91390435D01*
X125147338Y-91450000D01*
X125452662Y-91450000D01*
X125752118Y-91390435D01*
X126034200Y-91273592D01*
X126288068Y-91103964D01*
X126500000Y-90892032D01*
X126500000Y-92585787D01*
X126438910Y-92646878D01*
X126288068Y-92496036D01*
X126034200Y-92326408D01*
X125752118Y-92209565D01*
X125452662Y-92150000D01*
X125147338Y-92150000D01*
X124847882Y-92209565D01*
X124565800Y-92326408D01*
X124311932Y-92496036D01*
X124096036Y-92711932D01*
X123926408Y-92965800D01*
X123809565Y-93247882D01*
X123750000Y-93547338D01*
X123750000Y-93852662D01*
X123809565Y-94152118D01*
X123926408Y-94434200D01*
X124096036Y-94688068D01*
X124311932Y-94903964D01*
X124553429Y-95065326D01*
X124003231Y-95231635D01*
X123438334Y-95532864D01*
X123432989Y-95536435D01*
X123207782Y-96031005D01*
X125250000Y-98073223D01*
X127292218Y-96031005D01*
X127067011Y-95536435D01*
X126502708Y-95234095D01*
X126009320Y-95083898D01*
X126034200Y-95073592D01*
X126288068Y-94903964D01*
X126492032Y-94700000D01*
X126750880Y-94700000D01*
X126800000Y-94704838D01*
X126849120Y-94700000D01*
X126996034Y-94685530D01*
X127184535Y-94628349D01*
X127358258Y-94535492D01*
X127510528Y-94410528D01*
X127541848Y-94372364D01*
X127809849Y-94104363D01*
X138786008Y-94104363D01*
X138856952Y-94338251D01*
X139013808Y-94654334D01*
X139229315Y-94933742D01*
X139495191Y-95165738D01*
X139801218Y-95341406D01*
X140135636Y-95453996D01*
X140415000Y-95245658D01*
X140415000Y-93825000D01*
X140665000Y-93825000D01*
X140665000Y-95245658D01*
X140944364Y-95453996D01*
X141278782Y-95341406D01*
X141584809Y-95165738D01*
X141850685Y-94933742D01*
X142066192Y-94654334D01*
X142223048Y-94338251D01*
X142293992Y-94104363D01*
X142084951Y-93825000D01*
X140665000Y-93825000D01*
X140415000Y-93825000D01*
X138995049Y-93825000D01*
X138786008Y-94104363D01*
X127809849Y-94104363D01*
X128172373Y-93741841D01*
X128210528Y-93710528D01*
X128335492Y-93558258D01*
X128428349Y-93384535D01*
X128455315Y-93295637D01*
X138786008Y-93295637D01*
X138995049Y-93575000D01*
X140415000Y-93575000D01*
X140415000Y-92154342D01*
X140665000Y-92154342D01*
X140665000Y-93575000D01*
X142084951Y-93575000D01*
X142293992Y-93295637D01*
X142223048Y-93061749D01*
X142219234Y-93054063D01*
X146192100Y-93054063D01*
X146237385Y-93405728D01*
X146350407Y-93741801D01*
X146466749Y-93959463D01*
X146812988Y-94010236D01*
X147823223Y-93000000D01*
X146812988Y-91989764D01*
X146466749Y-92040537D01*
X146309028Y-92358095D01*
X146216291Y-92700321D01*
X146192100Y-93054063D01*
X142219234Y-93054063D01*
X142066192Y-92745666D01*
X141850685Y-92466258D01*
X141584809Y-92234262D01*
X141278782Y-92058594D01*
X140944364Y-91946004D01*
X140665000Y-92154342D01*
X140415000Y-92154342D01*
X140135636Y-91946004D01*
X139801218Y-92058594D01*
X139495191Y-92234262D01*
X139229315Y-92466258D01*
X139013808Y-92745666D01*
X138856952Y-93061749D01*
X138786008Y-93295637D01*
X128455315Y-93295637D01*
X128485530Y-93196034D01*
X128500000Y-93049120D01*
X128500000Y-93049111D01*
X128504837Y-93000001D01*
X128500000Y-92950891D01*
X128500000Y-91812988D01*
X146989764Y-91812988D01*
X148000000Y-92823223D01*
X148014142Y-92809081D01*
X148190919Y-92985858D01*
X148176777Y-93000000D01*
X148190919Y-93014142D01*
X148014142Y-93190919D01*
X148000000Y-93176777D01*
X146989764Y-94187012D01*
X147040537Y-94533251D01*
X147358095Y-94690972D01*
X147700321Y-94783709D01*
X148054063Y-94807900D01*
X148405728Y-94762615D01*
X148741801Y-94649593D01*
X148959463Y-94533251D01*
X149010236Y-94187015D01*
X149189706Y-94366485D01*
X149197968Y-94358223D01*
X149281307Y-94426619D01*
X149411599Y-94496261D01*
X149552974Y-94539147D01*
X149700000Y-94553628D01*
X151300000Y-94553628D01*
X151447026Y-94539147D01*
X151588401Y-94496261D01*
X151718693Y-94426619D01*
X151832895Y-94332895D01*
X151926619Y-94218693D01*
X151996261Y-94088401D01*
X152039147Y-93947026D01*
X152053628Y-93800000D01*
X152053628Y-92200000D01*
X152039147Y-92052974D01*
X151996261Y-91911599D01*
X151926619Y-91781307D01*
X151832895Y-91667105D01*
X151718693Y-91573381D01*
X151588401Y-91503739D01*
X151447026Y-91460853D01*
X151300000Y-91446372D01*
X149700000Y-91446372D01*
X149552974Y-91460853D01*
X149411599Y-91503739D01*
X149281307Y-91573381D01*
X149197968Y-91641777D01*
X149189706Y-91633515D01*
X149010236Y-91812985D01*
X148959463Y-91466749D01*
X148641905Y-91309028D01*
X148299679Y-91216291D01*
X147945937Y-91192100D01*
X147594272Y-91237385D01*
X147258199Y-91350407D01*
X147040537Y-91466749D01*
X146989764Y-91812988D01*
X128500000Y-91812988D01*
X128500000Y-90304363D01*
X138786008Y-90304363D01*
X138856952Y-90538251D01*
X139013808Y-90854334D01*
X139229315Y-91133742D01*
X139495191Y-91365738D01*
X139801218Y-91541406D01*
X140135636Y-91653996D01*
X140415000Y-91445658D01*
X140415000Y-90025000D01*
X140665000Y-90025000D01*
X140665000Y-91445658D01*
X140944364Y-91653996D01*
X141278782Y-91541406D01*
X141584809Y-91365738D01*
X141850685Y-91133742D01*
X142066192Y-90854334D01*
X142223048Y-90538251D01*
X142293992Y-90304363D01*
X142084951Y-90025000D01*
X140665000Y-90025000D01*
X140415000Y-90025000D01*
X138995049Y-90025000D01*
X138786008Y-90304363D01*
X128500000Y-90304363D01*
X128500000Y-89495637D01*
X138786008Y-89495637D01*
X138995049Y-89775000D01*
X140415000Y-89775000D01*
X140415000Y-88354342D01*
X140135636Y-88146004D01*
X139801218Y-88258594D01*
X139495191Y-88434262D01*
X139229315Y-88666258D01*
X139013808Y-88945666D01*
X138856952Y-89261749D01*
X138786008Y-89495637D01*
X128500000Y-89495637D01*
X128500000Y-86414590D01*
X128593958Y-86477371D01*
X128846012Y-86581775D01*
X129113590Y-86635000D01*
X129386412Y-86635000D01*
X129653990Y-86581775D01*
X129906044Y-86477371D01*
X130132887Y-86325799D01*
X130325800Y-86132886D01*
X130477372Y-85906043D01*
X130581776Y-85653989D01*
X130635001Y-85386411D01*
X130635001Y-85113589D01*
X130581776Y-84846011D01*
X130542007Y-84750000D01*
X134317968Y-84750000D01*
X134521932Y-84953964D01*
X134775800Y-85123592D01*
X135057882Y-85240435D01*
X135357338Y-85300000D01*
X135662662Y-85300000D01*
X135962118Y-85240435D01*
X136244200Y-85123592D01*
X136498068Y-84953964D01*
X136713964Y-84738068D01*
X136883592Y-84484200D01*
X137000435Y-84202118D01*
X137060000Y-83902662D01*
X137060000Y-83597338D01*
X137000435Y-83297882D01*
X136883592Y-83015800D01*
X136713964Y-82761932D01*
X136502032Y-82550000D01*
X144748743Y-82550000D01*
X146715225Y-84430983D01*
X146739472Y-84460528D01*
X146786233Y-84498903D01*
X146794273Y-84506594D01*
X146824184Y-84530049D01*
X146891742Y-84585492D01*
X146901624Y-84590774D01*
X146910441Y-84597688D01*
X146988398Y-84637156D01*
X147065465Y-84678349D01*
X147076188Y-84681602D01*
X147086185Y-84686663D01*
X147170332Y-84710160D01*
X147253966Y-84735530D01*
X147265122Y-84736629D01*
X147275909Y-84739641D01*
X147363015Y-84746271D01*
X147400880Y-84750000D01*
X147412016Y-84750000D01*
X147472324Y-84754590D01*
X147510263Y-84750000D01*
X149557968Y-84750000D01*
X149696878Y-84888910D01*
X147316640Y-87269148D01*
X147232895Y-87167105D01*
X147118693Y-87073381D01*
X146988401Y-87003739D01*
X146847026Y-86960853D01*
X146700000Y-86946372D01*
X145100000Y-86946372D01*
X144952974Y-86960853D01*
X144811599Y-87003739D01*
X144681307Y-87073381D01*
X144567105Y-87167105D01*
X144473381Y-87281307D01*
X144438534Y-87346502D01*
X144388068Y-87296036D01*
X144134200Y-87126408D01*
X143852118Y-87009565D01*
X143552662Y-86950000D01*
X143247338Y-86950000D01*
X142947882Y-87009565D01*
X142665800Y-87126408D01*
X142411932Y-87296036D01*
X142196036Y-87511932D01*
X142026408Y-87765800D01*
X141909565Y-88047882D01*
X141850000Y-88347338D01*
X141850000Y-88652662D01*
X141853406Y-88669786D01*
X141850685Y-88666258D01*
X141584809Y-88434262D01*
X141278782Y-88258594D01*
X140944364Y-88146004D01*
X140665000Y-88354342D01*
X140665000Y-89775000D01*
X142084951Y-89775000D01*
X142255306Y-89547338D01*
X142411932Y-89703964D01*
X142665800Y-89873592D01*
X142947882Y-89990435D01*
X143247338Y-90050000D01*
X143552662Y-90050000D01*
X143852118Y-89990435D01*
X144134200Y-89873592D01*
X144388068Y-89703964D01*
X144438534Y-89653498D01*
X144473381Y-89718693D01*
X144567105Y-89832895D01*
X144681307Y-89926619D01*
X144811599Y-89996261D01*
X144952974Y-90039147D01*
X145100000Y-90053628D01*
X146700000Y-90053628D01*
X146847026Y-90039147D01*
X146988401Y-89996261D01*
X147118693Y-89926619D01*
X147232895Y-89832895D01*
X147326619Y-89718693D01*
X147396261Y-89588401D01*
X147423077Y-89500000D01*
X147450880Y-89500000D01*
X147500000Y-89504838D01*
X147549120Y-89500000D01*
X147696034Y-89485530D01*
X147884535Y-89428349D01*
X148058258Y-89335492D01*
X148210528Y-89210528D01*
X148241849Y-89172363D01*
X151422368Y-85991845D01*
X151460528Y-85960528D01*
X151585492Y-85808258D01*
X151678349Y-85634535D01*
X151694892Y-85580000D01*
X151735530Y-85446035D01*
X151754838Y-85250001D01*
X151750000Y-85200880D01*
X151750000Y-84942032D01*
X151953964Y-84738068D01*
X152123592Y-84484200D01*
X152240435Y-84202118D01*
X152300000Y-83902662D01*
X152300000Y-83620000D01*
X155326372Y-83620000D01*
X155326372Y-84920000D01*
X155340853Y-85067026D01*
X155383739Y-85208401D01*
X155453381Y-85338693D01*
X155547105Y-85452895D01*
X155661307Y-85546619D01*
X155791599Y-85616261D01*
X155932974Y-85659147D01*
X156080000Y-85673628D01*
X157380000Y-85673628D01*
X157527026Y-85659147D01*
X157668401Y-85616261D01*
X157798693Y-85546619D01*
X157912895Y-85452895D01*
X157997296Y-85350052D01*
X158366725Y-85350052D01*
X158399363Y-85680993D01*
X158691363Y-85823734D01*
X159005599Y-85906766D01*
X159329996Y-85926898D01*
X159652088Y-85883356D01*
X159959496Y-85777814D01*
X160086413Y-85709976D01*
X170796800Y-85709976D01*
X170837905Y-86048053D01*
X171141834Y-86197786D01*
X171469134Y-86285349D01*
X171807227Y-86307375D01*
X172143121Y-86263019D01*
X172463908Y-86153986D01*
X172662095Y-86048053D01*
X172703200Y-85709976D01*
X171750000Y-84756777D01*
X170796800Y-85709976D01*
X160086413Y-85709976D01*
X160140637Y-85680993D01*
X160173275Y-85350052D01*
X159270000Y-84446777D01*
X158366725Y-85350052D01*
X157997296Y-85350052D01*
X158006619Y-85338693D01*
X158076261Y-85208401D01*
X158089909Y-85163409D01*
X158189948Y-85173275D01*
X159093223Y-84270000D01*
X159446777Y-84270000D01*
X160350052Y-85173275D01*
X160680993Y-85140637D01*
X160823734Y-84848637D01*
X160879595Y-84637227D01*
X170022625Y-84637227D01*
X170066981Y-84973121D01*
X170176014Y-85293908D01*
X170281947Y-85492095D01*
X170620024Y-85533200D01*
X171573223Y-84580000D01*
X171926777Y-84580000D01*
X172555971Y-85209194D01*
X172572427Y-85240672D01*
X172574073Y-85242719D01*
X172575309Y-85245044D01*
X172619926Y-85299749D01*
X172664145Y-85354748D01*
X172666161Y-85356440D01*
X172667822Y-85358476D01*
X172722200Y-85403462D01*
X172776275Y-85448835D01*
X172778578Y-85450101D01*
X172780605Y-85451778D01*
X172819684Y-85472908D01*
X172879976Y-85533200D01*
X172928452Y-85527306D01*
X172976687Y-85542237D01*
X173044066Y-85563611D01*
X173046684Y-85563905D01*
X173049192Y-85564681D01*
X173119337Y-85572054D01*
X173189528Y-85579927D01*
X173194575Y-85579962D01*
X173194764Y-85579982D01*
X173194953Y-85579965D01*
X173200000Y-85580000D01*
X174665788Y-85580000D01*
X178158160Y-89072374D01*
X178189472Y-89110528D01*
X178227626Y-89141840D01*
X178341742Y-89235492D01*
X178515465Y-89328349D01*
X178703966Y-89385530D01*
X178900000Y-89404838D01*
X178949120Y-89400000D01*
X184978831Y-89400000D01*
X185006076Y-89465775D01*
X185252311Y-89834292D01*
X185565708Y-90147689D01*
X185934225Y-90393924D01*
X186343699Y-90563534D01*
X186778394Y-90650000D01*
X187221606Y-90650000D01*
X187656301Y-90563534D01*
X188065775Y-90393924D01*
X188434292Y-90147689D01*
X188747689Y-89834292D01*
X188993924Y-89465775D01*
X189163534Y-89056301D01*
X189250000Y-88621606D01*
X189250000Y-88178394D01*
X189163534Y-87743699D01*
X188993924Y-87334225D01*
X188747689Y-86965708D01*
X188434292Y-86652311D01*
X188065775Y-86406076D01*
X187656301Y-86236466D01*
X187221606Y-86150000D01*
X186778394Y-86150000D01*
X186343699Y-86236466D01*
X185934225Y-86406076D01*
X185565708Y-86652311D01*
X185252311Y-86965708D01*
X185006076Y-87334225D01*
X184978831Y-87400000D01*
X179314214Y-87400000D01*
X175821849Y-83907637D01*
X175790528Y-83869472D01*
X175638258Y-83744508D01*
X175464535Y-83651651D01*
X175276034Y-83594470D01*
X175129120Y-83580000D01*
X175080000Y-83575162D01*
X175030880Y-83580000D01*
X173200000Y-83580000D01*
X173129765Y-83586887D01*
X173059464Y-83593285D01*
X173056942Y-83594027D01*
X173054324Y-83594284D01*
X172986722Y-83614694D01*
X172926407Y-83632445D01*
X172879976Y-83626800D01*
X172820805Y-83685971D01*
X172789328Y-83702427D01*
X172787281Y-83704073D01*
X172784956Y-83705309D01*
X172730251Y-83749926D01*
X172675252Y-83794145D01*
X172673560Y-83796161D01*
X172671524Y-83797822D01*
X172626538Y-83852200D01*
X172581165Y-83906275D01*
X172579899Y-83908578D01*
X172578222Y-83910605D01*
X172557092Y-83949684D01*
X171926777Y-84580000D01*
X171573223Y-84580000D01*
X170620024Y-83626800D01*
X170281947Y-83667905D01*
X170132214Y-83971834D01*
X170044651Y-84299134D01*
X170022625Y-84637227D01*
X160879595Y-84637227D01*
X160906766Y-84534401D01*
X160926898Y-84210004D01*
X160883356Y-83887912D01*
X160777814Y-83580504D01*
X160708072Y-83450024D01*
X170796800Y-83450024D01*
X171750000Y-84403223D01*
X172703200Y-83450024D01*
X172662095Y-83111947D01*
X172358166Y-82962214D01*
X172030866Y-82874651D01*
X171692773Y-82852625D01*
X171356879Y-82896981D01*
X171036092Y-83006014D01*
X170837905Y-83111947D01*
X170796800Y-83450024D01*
X160708072Y-83450024D01*
X160680993Y-83399363D01*
X160350052Y-83366725D01*
X159446777Y-84270000D01*
X159093223Y-84270000D01*
X159079081Y-84255858D01*
X159255858Y-84079081D01*
X159270000Y-84093223D01*
X160173275Y-83189948D01*
X160140637Y-82859007D01*
X159848637Y-82716266D01*
X159534401Y-82633234D01*
X159352225Y-82621928D01*
X159346199Y-82591635D01*
X159240664Y-82336851D01*
X159087451Y-82107552D01*
X158892448Y-81912549D01*
X158866511Y-81895218D01*
X172820000Y-81895218D01*
X172820000Y-82184782D01*
X172876491Y-82468783D01*
X172987303Y-82736306D01*
X173148176Y-82977071D01*
X173352929Y-83181824D01*
X173593694Y-83342697D01*
X173861217Y-83453509D01*
X174145218Y-83510000D01*
X174434782Y-83510000D01*
X174718783Y-83453509D01*
X174986306Y-83342697D01*
X175227071Y-83181824D01*
X175368895Y-83040000D01*
X175989057Y-83040000D01*
X176003739Y-83088401D01*
X176073381Y-83218693D01*
X176167105Y-83332895D01*
X176281307Y-83426619D01*
X176411599Y-83496261D01*
X176552974Y-83539147D01*
X176700000Y-83553628D01*
X178300000Y-83553628D01*
X178447026Y-83539147D01*
X178588401Y-83496261D01*
X178718693Y-83426619D01*
X178832895Y-83332895D01*
X178926619Y-83218693D01*
X178961466Y-83153498D01*
X179011932Y-83203964D01*
X179265800Y-83373592D01*
X179547882Y-83490435D01*
X179847338Y-83550000D01*
X180152662Y-83550000D01*
X180452118Y-83490435D01*
X180734200Y-83373592D01*
X180988068Y-83203964D01*
X181192032Y-83000000D01*
X185263183Y-83000000D01*
X185446747Y-83274722D01*
X185725278Y-83553253D01*
X186052796Y-83772094D01*
X186416715Y-83922834D01*
X186803049Y-83999680D01*
X187196951Y-83999680D01*
X187583285Y-83922834D01*
X187947204Y-83772094D01*
X188274722Y-83553253D01*
X188553253Y-83274722D01*
X188772094Y-82947204D01*
X188922834Y-82583285D01*
X188999680Y-82196951D01*
X188999680Y-81803049D01*
X188922834Y-81416715D01*
X188772094Y-81052796D01*
X188553253Y-80725278D01*
X188274722Y-80446747D01*
X187947204Y-80227906D01*
X187583285Y-80077166D01*
X187196951Y-80000320D01*
X186803049Y-80000320D01*
X186416715Y-80077166D01*
X186052796Y-80227906D01*
X185725278Y-80446747D01*
X185446747Y-80725278D01*
X185263183Y-81000000D01*
X181192032Y-81000000D01*
X180988068Y-80796036D01*
X180734200Y-80626408D01*
X180452118Y-80509565D01*
X180152662Y-80450000D01*
X179847338Y-80450000D01*
X179547882Y-80509565D01*
X179265800Y-80626408D01*
X179011932Y-80796036D01*
X178961466Y-80846502D01*
X178926619Y-80781307D01*
X178832895Y-80667105D01*
X178718693Y-80573381D01*
X178588401Y-80503739D01*
X178447026Y-80460853D01*
X178300000Y-80446372D01*
X176700000Y-80446372D01*
X176552974Y-80460853D01*
X176411599Y-80503739D01*
X176281307Y-80573381D01*
X176167105Y-80667105D01*
X176073381Y-80781307D01*
X176003739Y-80911599D01*
X175964789Y-81040000D01*
X175368895Y-81040000D01*
X175227071Y-80898176D01*
X174986306Y-80737303D01*
X174718783Y-80626491D01*
X174434782Y-80570000D01*
X174145218Y-80570000D01*
X173861217Y-80626491D01*
X173593694Y-80737303D01*
X173352929Y-80898176D01*
X173148176Y-81102929D01*
X172987303Y-81343694D01*
X172876491Y-81611217D01*
X172820000Y-81895218D01*
X158866511Y-81895218D01*
X158663149Y-81759336D01*
X158408365Y-81653801D01*
X158137888Y-81600000D01*
X157862112Y-81600000D01*
X157591635Y-81653801D01*
X157336851Y-81759336D01*
X157107552Y-81912549D01*
X156912549Y-82107552D01*
X156759336Y-82336851D01*
X156653801Y-82591635D01*
X156600000Y-82862112D01*
X156600000Y-82866372D01*
X156080000Y-82866372D01*
X155932974Y-82880853D01*
X155791599Y-82923739D01*
X155661307Y-82993381D01*
X155547105Y-83087105D01*
X155453381Y-83201307D01*
X155383739Y-83331599D01*
X155340853Y-83472974D01*
X155326372Y-83620000D01*
X152300000Y-83620000D01*
X152300000Y-83597338D01*
X152240435Y-83297882D01*
X152123592Y-83015800D01*
X151953964Y-82761932D01*
X151738068Y-82546036D01*
X151484200Y-82376408D01*
X151202118Y-82259565D01*
X150902662Y-82200000D01*
X150597338Y-82200000D01*
X150297882Y-82259565D01*
X150015800Y-82376408D01*
X149761932Y-82546036D01*
X149557968Y-82750000D01*
X147851257Y-82750000D01*
X146580101Y-81534112D01*
X147764213Y-80350000D01*
X149447968Y-80350000D01*
X149651932Y-80553964D01*
X149905800Y-80723592D01*
X150187882Y-80840435D01*
X150487338Y-80900000D01*
X150792662Y-80900000D01*
X151092118Y-80840435D01*
X151374200Y-80723592D01*
X151628068Y-80553964D01*
X151832032Y-80350000D01*
X152100880Y-80350000D01*
X152150000Y-80354838D01*
X152199120Y-80350000D01*
X152346034Y-80335530D01*
X152534535Y-80278349D01*
X152708258Y-80185492D01*
X152860528Y-80060528D01*
X152891849Y-80022363D01*
X153442363Y-79471849D01*
X153480528Y-79440528D01*
X153605492Y-79288258D01*
X153698349Y-79114535D01*
X153755530Y-78926034D01*
X153770000Y-78779120D01*
X153770000Y-78779119D01*
X153774838Y-78730001D01*
X153770000Y-78680883D01*
X153770000Y-77855218D01*
X157030000Y-77855218D01*
X157030000Y-78144782D01*
X157086491Y-78428783D01*
X157197303Y-78696306D01*
X157358176Y-78937071D01*
X157562929Y-79141824D01*
X157803694Y-79302697D01*
X158071217Y-79413509D01*
X158355218Y-79470000D01*
X158644782Y-79470000D01*
X158928783Y-79413509D01*
X159196306Y-79302697D01*
X159437071Y-79141824D01*
X159641824Y-78937071D01*
X159802697Y-78696306D01*
X159913509Y-78428783D01*
X159970000Y-78144782D01*
X159970000Y-77855218D01*
X162110000Y-77855218D01*
X162110000Y-78144782D01*
X162166491Y-78428783D01*
X162277303Y-78696306D01*
X162438176Y-78937071D01*
X162642929Y-79141824D01*
X162883694Y-79302697D01*
X163151217Y-79413509D01*
X163435218Y-79470000D01*
X163724782Y-79470000D01*
X164008783Y-79413509D01*
X164276306Y-79302697D01*
X164517071Y-79141824D01*
X164721824Y-78937071D01*
X164882697Y-78696306D01*
X164993509Y-78428783D01*
X165050000Y-78144782D01*
X165050000Y-77855218D01*
X164993509Y-77571217D01*
X164882697Y-77303694D01*
X164721824Y-77062929D01*
X164517071Y-76858176D01*
X164276306Y-76697303D01*
X164008783Y-76586491D01*
X163724782Y-76530000D01*
X163435218Y-76530000D01*
X163151217Y-76586491D01*
X162883694Y-76697303D01*
X162642929Y-76858176D01*
X162438176Y-77062929D01*
X162277303Y-77303694D01*
X162166491Y-77571217D01*
X162110000Y-77855218D01*
X159970000Y-77855218D01*
X159913509Y-77571217D01*
X159802697Y-77303694D01*
X159641824Y-77062929D01*
X159437071Y-76858176D01*
X159196306Y-76697303D01*
X158928783Y-76586491D01*
X158644782Y-76530000D01*
X158355218Y-76530000D01*
X158071217Y-76586491D01*
X157803694Y-76697303D01*
X157562929Y-76858176D01*
X157358176Y-77062929D01*
X157197303Y-77303694D01*
X157086491Y-77571217D01*
X157030000Y-77855218D01*
X153770000Y-77855218D01*
X153770000Y-75315218D01*
X159570000Y-75315218D01*
X159570000Y-75604782D01*
X159626491Y-75888783D01*
X159737303Y-76156306D01*
X159898176Y-76397071D01*
X160102929Y-76601824D01*
X160343694Y-76762697D01*
X160611217Y-76873509D01*
X160895218Y-76930000D01*
X161184782Y-76930000D01*
X161468783Y-76873509D01*
X161736306Y-76762697D01*
X161977071Y-76601824D01*
X162118895Y-76460000D01*
X169545788Y-76460000D01*
X170750001Y-77664214D01*
X170750000Y-78421105D01*
X170608176Y-78562929D01*
X170447303Y-78803694D01*
X170336491Y-79071217D01*
X170280000Y-79355218D01*
X170280000Y-79644782D01*
X170336491Y-79928783D01*
X170447303Y-80196306D01*
X170608176Y-80437071D01*
X170812929Y-80641824D01*
X171053694Y-80802697D01*
X171321217Y-80913509D01*
X171605218Y-80970000D01*
X171894782Y-80970000D01*
X172178783Y-80913509D01*
X172446306Y-80802697D01*
X172687071Y-80641824D01*
X172891824Y-80437071D01*
X173052697Y-80196306D01*
X173163509Y-79928783D01*
X173220000Y-79644782D01*
X173220000Y-79355218D01*
X173163509Y-79071217D01*
X173052697Y-78803694D01*
X172891824Y-78562929D01*
X172750000Y-78421105D01*
X172750000Y-77299117D01*
X172754838Y-77249999D01*
X172749100Y-77191741D01*
X172735530Y-77053966D01*
X172678349Y-76865465D01*
X172585492Y-76691742D01*
X172460528Y-76539472D01*
X172422368Y-76508155D01*
X171383208Y-75468995D01*
X188207782Y-75468995D01*
X188432989Y-75963565D01*
X188997292Y-76265905D01*
X189609737Y-76452346D01*
X190246785Y-76515723D01*
X190883959Y-76453600D01*
X191496769Y-76268365D01*
X192061666Y-75967136D01*
X192067011Y-75963565D01*
X192292218Y-75468995D01*
X190250000Y-73426777D01*
X188207782Y-75468995D01*
X171383208Y-75468995D01*
X170701849Y-74787637D01*
X170670528Y-74749472D01*
X170518258Y-74624508D01*
X170344535Y-74531651D01*
X170156034Y-74474470D01*
X170009120Y-74460000D01*
X169960000Y-74455162D01*
X169910880Y-74460000D01*
X162118895Y-74460000D01*
X161977071Y-74318176D01*
X161736306Y-74157303D01*
X161468783Y-74046491D01*
X161184782Y-73990000D01*
X160895218Y-73990000D01*
X160611217Y-74046491D01*
X160343694Y-74157303D01*
X160102929Y-74318176D01*
X159898176Y-74522929D01*
X159737303Y-74763694D01*
X159626491Y-75031217D01*
X159570000Y-75315218D01*
X153770000Y-75315218D01*
X153770000Y-74443336D01*
X153838693Y-74406619D01*
X153952895Y-74312895D01*
X154046619Y-74198693D01*
X154116261Y-74068401D01*
X154159147Y-73927026D01*
X154173628Y-73780000D01*
X154173628Y-72480000D01*
X154159147Y-72332974D01*
X154116261Y-72191599D01*
X154046619Y-72061307D01*
X153952895Y-71947105D01*
X153838693Y-71853381D01*
X153827388Y-71847338D01*
X154450000Y-71847338D01*
X154450000Y-72152662D01*
X154509565Y-72452118D01*
X154626408Y-72734200D01*
X154796036Y-72988068D01*
X155011932Y-73203964D01*
X155265800Y-73373592D01*
X155547882Y-73490435D01*
X155847338Y-73550000D01*
X156152662Y-73550000D01*
X156452118Y-73490435D01*
X156734200Y-73373592D01*
X156988068Y-73203964D01*
X157203964Y-72988068D01*
X157373592Y-72734200D01*
X157490435Y-72452118D01*
X157550000Y-72152662D01*
X157550000Y-71847338D01*
X169690000Y-71847338D01*
X169690000Y-72152662D01*
X169749565Y-72452118D01*
X169866408Y-72734200D01*
X170036036Y-72988068D01*
X170251932Y-73203964D01*
X170505800Y-73373592D01*
X170787882Y-73490435D01*
X171087338Y-73550000D01*
X171375786Y-73550000D01*
X171498159Y-73672373D01*
X171529472Y-73710528D01*
X171567626Y-73741840D01*
X171681742Y-73835492D01*
X171855465Y-73928349D01*
X172043966Y-73985530D01*
X172240000Y-74004838D01*
X172289120Y-74000000D01*
X172976923Y-74000000D01*
X173003739Y-74088401D01*
X173073381Y-74218693D01*
X173167105Y-74332895D01*
X173281307Y-74426619D01*
X173411599Y-74496261D01*
X173552974Y-74539147D01*
X173700000Y-74553628D01*
X175300000Y-74553628D01*
X175447026Y-74539147D01*
X175588401Y-74496261D01*
X175718693Y-74426619D01*
X175832895Y-74332895D01*
X175926619Y-74218693D01*
X175961466Y-74153498D01*
X176011932Y-74203964D01*
X176265800Y-74373592D01*
X176547882Y-74490435D01*
X176847338Y-74550000D01*
X177152662Y-74550000D01*
X177452118Y-74490435D01*
X177734200Y-74373592D01*
X177988068Y-74203964D01*
X178203964Y-73988068D01*
X178373592Y-73734200D01*
X178490435Y-73452118D01*
X178531277Y-73246785D01*
X186984277Y-73246785D01*
X187046400Y-73883959D01*
X187231635Y-74496769D01*
X187532864Y-75061666D01*
X187536435Y-75067011D01*
X188031005Y-75292218D01*
X190073223Y-73250000D01*
X188031005Y-71207782D01*
X187536435Y-71432989D01*
X187234095Y-71997292D01*
X187047654Y-72609737D01*
X186984277Y-73246785D01*
X178531277Y-73246785D01*
X178550000Y-73152662D01*
X178550000Y-72847338D01*
X178490435Y-72547882D01*
X178373592Y-72265800D01*
X178203964Y-72011932D01*
X177988068Y-71796036D01*
X177734200Y-71626408D01*
X177452118Y-71509565D01*
X177152662Y-71450000D01*
X176847338Y-71450000D01*
X176547882Y-71509565D01*
X176265800Y-71626408D01*
X176011932Y-71796036D01*
X175961466Y-71846502D01*
X175926619Y-71781307D01*
X175832895Y-71667105D01*
X175718693Y-71573381D01*
X175588401Y-71503739D01*
X175447026Y-71460853D01*
X175300000Y-71446372D01*
X173700000Y-71446372D01*
X173552974Y-71460853D01*
X173411599Y-71503739D01*
X173281307Y-71573381D01*
X173167105Y-71667105D01*
X173073381Y-71781307D01*
X173003739Y-71911599D01*
X172976923Y-72000000D01*
X172790000Y-72000000D01*
X172790000Y-71847338D01*
X172730435Y-71547882D01*
X172613592Y-71265800D01*
X172443964Y-71011932D01*
X172228068Y-70796036D01*
X171974200Y-70626408D01*
X171692118Y-70509565D01*
X171392662Y-70450000D01*
X171087338Y-70450000D01*
X170787882Y-70509565D01*
X170505800Y-70626408D01*
X170251932Y-70796036D01*
X170036036Y-71011932D01*
X169866408Y-71265800D01*
X169749565Y-71547882D01*
X169690000Y-71847338D01*
X157550000Y-71847338D01*
X157490435Y-71547882D01*
X157373592Y-71265800D01*
X157203964Y-71011932D01*
X156988068Y-70796036D01*
X156734200Y-70626408D01*
X156452118Y-70509565D01*
X156152662Y-70450000D01*
X155847338Y-70450000D01*
X155547882Y-70509565D01*
X155265800Y-70626408D01*
X155011932Y-70796036D01*
X154796036Y-71011932D01*
X154626408Y-71265800D01*
X154509565Y-71547882D01*
X154450000Y-71847338D01*
X153827388Y-71847338D01*
X153708401Y-71783739D01*
X153567026Y-71740853D01*
X153420000Y-71726372D01*
X152120000Y-71726372D01*
X151972974Y-71740853D01*
X151831599Y-71783739D01*
X151701307Y-71853381D01*
X151587105Y-71947105D01*
X151493381Y-72061307D01*
X151423739Y-72191599D01*
X151410091Y-72236591D01*
X151310052Y-72226725D01*
X150406777Y-73130000D01*
X150420919Y-73144142D01*
X150244142Y-73320919D01*
X150230000Y-73306777D01*
X149326725Y-74210052D01*
X149359363Y-74540993D01*
X149651363Y-74683734D01*
X149965599Y-74766766D01*
X150147775Y-74778072D01*
X150153801Y-74808365D01*
X150259336Y-75063149D01*
X150412549Y-75292448D01*
X150607552Y-75487451D01*
X150836851Y-75640664D01*
X151091635Y-75746199D01*
X151362112Y-75800000D01*
X151637888Y-75800000D01*
X151770001Y-75773721D01*
X151770000Y-78287968D01*
X151628068Y-78146036D01*
X151374200Y-77976408D01*
X151092118Y-77859565D01*
X150792662Y-77800000D01*
X150487338Y-77800000D01*
X150187882Y-77859565D01*
X149905800Y-77976408D01*
X149651932Y-78146036D01*
X149447968Y-78350000D01*
X147399120Y-78350000D01*
X147350000Y-78345162D01*
X147300880Y-78350000D01*
X147153966Y-78364470D01*
X146965465Y-78421651D01*
X146791742Y-78514508D01*
X146639472Y-78639472D01*
X146608155Y-78677632D01*
X144735788Y-80550000D01*
X136392032Y-80550000D01*
X136603964Y-80338068D01*
X136773592Y-80084200D01*
X136890435Y-79802118D01*
X136950000Y-79502662D01*
X136950000Y-79197338D01*
X136890435Y-78897882D01*
X136773592Y-78615800D01*
X136603964Y-78361932D01*
X136400000Y-78157968D01*
X136400000Y-74623077D01*
X136488401Y-74596261D01*
X136618693Y-74526619D01*
X136732895Y-74432895D01*
X136826619Y-74318693D01*
X136896261Y-74188401D01*
X136923077Y-74100000D01*
X139613183Y-74100000D01*
X139796747Y-74374722D01*
X140075278Y-74653253D01*
X140402796Y-74872094D01*
X140766715Y-75022834D01*
X141153049Y-75099680D01*
X141546951Y-75099680D01*
X141933285Y-75022834D01*
X142297204Y-74872094D01*
X142624722Y-74653253D01*
X142670425Y-74607550D01*
X144969226Y-74607550D01*
X145074244Y-74999772D01*
X145468423Y-75202402D01*
X145894560Y-75324238D01*
X146336277Y-75360596D01*
X146776601Y-75310082D01*
X147198610Y-75174636D01*
X147525756Y-74999772D01*
X147630774Y-74607550D01*
X146300000Y-73276777D01*
X144969226Y-74607550D01*
X142670425Y-74607550D01*
X142903253Y-74374722D01*
X143122094Y-74047204D01*
X143272834Y-73683285D01*
X143349680Y-73296951D01*
X143349680Y-73136277D01*
X144039404Y-73136277D01*
X144089918Y-73576601D01*
X144225364Y-73998610D01*
X144400228Y-74325756D01*
X144792450Y-74430774D01*
X146123223Y-73100000D01*
X146476777Y-73100000D01*
X147807550Y-74430774D01*
X148199772Y-74325756D01*
X148402402Y-73931577D01*
X148524238Y-73505440D01*
X148550202Y-73189996D01*
X148573102Y-73189996D01*
X148616644Y-73512088D01*
X148722186Y-73819496D01*
X148819007Y-74000637D01*
X149149948Y-74033275D01*
X150053223Y-73130000D01*
X149149948Y-72226725D01*
X148819007Y-72259363D01*
X148676266Y-72551363D01*
X148593234Y-72865599D01*
X148573102Y-73189996D01*
X148550202Y-73189996D01*
X148560596Y-73063723D01*
X148510082Y-72623399D01*
X148374636Y-72201390D01*
X148293689Y-72049948D01*
X149326725Y-72049948D01*
X150230000Y-72953223D01*
X151133275Y-72049948D01*
X151100637Y-71719007D01*
X150808637Y-71576266D01*
X150494401Y-71493234D01*
X150170004Y-71473102D01*
X149847912Y-71516644D01*
X149540504Y-71622186D01*
X149359363Y-71719007D01*
X149326725Y-72049948D01*
X148293689Y-72049948D01*
X148199772Y-71874244D01*
X147807550Y-71769226D01*
X146476777Y-73100000D01*
X146123223Y-73100000D01*
X144792450Y-71769226D01*
X144400228Y-71874244D01*
X144197598Y-72268423D01*
X144075762Y-72694560D01*
X144039404Y-73136277D01*
X143349680Y-73136277D01*
X143349680Y-72903049D01*
X143272834Y-72516715D01*
X143122094Y-72152796D01*
X142903253Y-71825278D01*
X142670425Y-71592450D01*
X144969226Y-71592450D01*
X146300000Y-72923223D01*
X147630774Y-71592450D01*
X147525756Y-71200228D01*
X147131577Y-70997598D01*
X146705440Y-70875762D01*
X146263723Y-70839404D01*
X145823399Y-70889918D01*
X145401390Y-71025364D01*
X145074244Y-71200228D01*
X144969226Y-71592450D01*
X142670425Y-71592450D01*
X142624722Y-71546747D01*
X142297204Y-71327906D01*
X141933285Y-71177166D01*
X141546951Y-71100320D01*
X141153049Y-71100320D01*
X140766715Y-71177166D01*
X140402796Y-71327906D01*
X140075278Y-71546747D01*
X139796747Y-71825278D01*
X139613183Y-72100000D01*
X136923077Y-72100000D01*
X136896261Y-72011599D01*
X136826619Y-71881307D01*
X136732895Y-71767105D01*
X136618693Y-71673381D01*
X136488401Y-71603739D01*
X136347026Y-71560853D01*
X136200000Y-71546372D01*
X134600000Y-71546372D01*
X134452974Y-71560853D01*
X134311599Y-71603739D01*
X134181307Y-71673381D01*
X134097968Y-71741777D01*
X134089706Y-71733515D01*
X133910236Y-71912985D01*
X133859463Y-71566749D01*
X133541905Y-71409028D01*
X133199679Y-71316291D01*
X132845937Y-71292100D01*
X132494272Y-71337385D01*
X132158199Y-71450407D01*
X131940537Y-71566749D01*
X131889764Y-71912988D01*
X132900000Y-72923223D01*
X132914142Y-72909081D01*
X133090919Y-73085858D01*
X133076777Y-73100000D01*
X133090919Y-73114142D01*
X132914142Y-73290919D01*
X132900000Y-73276777D01*
X131889764Y-74287012D01*
X131940537Y-74633251D01*
X132258095Y-74790972D01*
X132600321Y-74883709D01*
X132954063Y-74907900D01*
X133305728Y-74862615D01*
X133641801Y-74749593D01*
X133859463Y-74633251D01*
X133910236Y-74287015D01*
X134089706Y-74466485D01*
X134097968Y-74458223D01*
X134181307Y-74526619D01*
X134311599Y-74596261D01*
X134400001Y-74623078D01*
X134400000Y-78157968D01*
X134196036Y-78361932D01*
X134026408Y-78615800D01*
X133909565Y-78897882D01*
X133850000Y-79197338D01*
X133850000Y-79502662D01*
X133909565Y-79802118D01*
X134026408Y-80084200D01*
X134196036Y-80338068D01*
X134407968Y-80550000D01*
X133571143Y-80550000D01*
X133562503Y-80539472D01*
X133524343Y-80508155D01*
X131455285Y-78439097D01*
X131477371Y-78406043D01*
X131581775Y-78153989D01*
X131635000Y-77886411D01*
X131635000Y-77613589D01*
X131581775Y-77346011D01*
X131477371Y-77093957D01*
X131325799Y-76867114D01*
X131132886Y-76674201D01*
X130906043Y-76522629D01*
X130653989Y-76418225D01*
X130386411Y-76365000D01*
X130113589Y-76365000D01*
X129846011Y-76418225D01*
X129593957Y-76522629D01*
X129367114Y-76674201D01*
X129174201Y-76867114D01*
X129022629Y-77093957D01*
X128918225Y-77346011D01*
X128865000Y-77613589D01*
X128865000Y-77886411D01*
X128918225Y-78153989D01*
X129022629Y-78406043D01*
X129174201Y-78632886D01*
X129251261Y-78709946D01*
X129264470Y-78844059D01*
X129321651Y-79032559D01*
X129347957Y-79081774D01*
X129414509Y-79206283D01*
X129539473Y-79358553D01*
X129577632Y-79389869D01*
X130062855Y-79875093D01*
X129846011Y-79918226D01*
X129593957Y-80022630D01*
X129499775Y-80085561D01*
X127991850Y-78577637D01*
X127960529Y-78539472D01*
X127808259Y-78414508D01*
X127634536Y-78321651D01*
X127446035Y-78264470D01*
X127299121Y-78250000D01*
X127250001Y-78245162D01*
X127200881Y-78250000D01*
X127042006Y-78250000D01*
X127081775Y-78153988D01*
X127135000Y-77886410D01*
X127135000Y-77613588D01*
X127081775Y-77346010D01*
X126977371Y-77093956D01*
X126825799Y-76867113D01*
X126632886Y-76674200D01*
X126406043Y-76522628D01*
X126153989Y-76418224D01*
X126061715Y-76399869D01*
X126496769Y-76268365D01*
X127061666Y-75967136D01*
X127067011Y-75963565D01*
X127292218Y-75468995D01*
X125250000Y-73426777D01*
X123207782Y-75468995D01*
X122250000Y-75468995D01*
X122250000Y-74531209D01*
X122532864Y-75061666D01*
X122536435Y-75067011D01*
X123031005Y-75292218D01*
X125073223Y-73250000D01*
X125426777Y-73250000D01*
X127468995Y-75292218D01*
X127963565Y-75067011D01*
X128265905Y-74502708D01*
X128452346Y-73890263D01*
X128515723Y-73253215D01*
X128506056Y-73154063D01*
X131092100Y-73154063D01*
X131137385Y-73505728D01*
X131250407Y-73841801D01*
X131366749Y-74059463D01*
X131712988Y-74110236D01*
X132723223Y-73100000D01*
X131712988Y-72089764D01*
X131366749Y-72140537D01*
X131209028Y-72458095D01*
X131116291Y-72800321D01*
X131092100Y-73154063D01*
X128506056Y-73154063D01*
X128453600Y-72616041D01*
X128268365Y-72003231D01*
X127967136Y-71438334D01*
X127963565Y-71432989D01*
X127468995Y-71207782D01*
X125426777Y-73250000D01*
X125073223Y-73250000D01*
X125059081Y-73235858D01*
X125235858Y-73059081D01*
X125250000Y-73073223D01*
X127292218Y-71031005D01*
X127067011Y-70536435D01*
X126532394Y-70250000D01*
X188968791Y-70250000D01*
X188438334Y-70532864D01*
M02*
