G04 #@! TF.GenerationSoftware,KiCad,Pcbnew,(5.1.5)-3*
G04 #@! TF.CreationDate,2020-05-06T20:42:40-04:00*
G04 #@! TF.ProjectId,2ToneSineGenSSB,32546f6e-6553-4696-9e65-47656e535342,rev?*
G04 #@! TF.SameCoordinates,Original*
G04 #@! TF.FileFunction,Copper,L2,Bot*
G04 #@! TF.FilePolarity,Positive*
%FSLAX46Y46*%
G04 Gerber Fmt 4.6, Leading zero omitted, Abs format (unit mm)*
G04 Created by KiCad (PCBNEW (5.1.5)-3) date 2020-05-06 20:42:40*
%MOMM*%
%LPD*%
G04 APERTURE LIST*
%ADD10C,3.000000*%
%ADD11C,4.500000*%
%ADD12C,2.500000*%
%ADD13C,2.000000*%
%ADD14C,1.440000*%
%ADD15O,1.600000X1.600000*%
%ADD16C,1.600000*%
%ADD17R,1.300000X1.300000*%
%ADD18C,1.300000*%
%ADD19C,2.499360*%
%ADD20R,1.600000X1.600000*%
%ADD21C,1.270000*%
%ADD22C,0.500000*%
%ADD23C,0.254000*%
G04 APERTURE END LIST*
D10*
X187000000Y-88400000D03*
D11*
X190250000Y-98250000D03*
X125250000Y-98250000D03*
X190250000Y-73250000D03*
X125250000Y-73250000D03*
D12*
X146300000Y-73100000D03*
D13*
X161000000Y-93000000D03*
X161000000Y-98000000D03*
X157500000Y-98000000D03*
X157500000Y-93000000D03*
X154000000Y-93000000D03*
X154000000Y-98000000D03*
D14*
X171750000Y-84580000D03*
X174290000Y-82040000D03*
X171750000Y-79500000D03*
X163580000Y-78000000D03*
X161040000Y-75460000D03*
X158500000Y-78000000D03*
D15*
X150640000Y-79350000D03*
D16*
X135400000Y-79350000D03*
D15*
X171240000Y-72000000D03*
D16*
X156000000Y-72000000D03*
D15*
X163750000Y-98000000D03*
D16*
X178990000Y-98000000D03*
D15*
X135510000Y-83750000D03*
D16*
X150750000Y-83750000D03*
D15*
X167240000Y-88500000D03*
D16*
X152000000Y-88500000D03*
D15*
X140540000Y-89900000D03*
D16*
X125300000Y-89900000D03*
D15*
X131760000Y-98000000D03*
D16*
X147000000Y-98000000D03*
D15*
X140540000Y-93700000D03*
D16*
X125300000Y-93700000D03*
D17*
X152770000Y-73130000D03*
D18*
X150230000Y-73130000D03*
X151500000Y-74400000D03*
D17*
X156730000Y-84270000D03*
D18*
X159270000Y-84270000D03*
X158000000Y-83000000D03*
D19*
X187000000Y-82000000D03*
X141350000Y-73100000D03*
D20*
X177500000Y-82000000D03*
D16*
X180000000Y-82000000D03*
X177000000Y-73000000D03*
D20*
X174500000Y-73000000D03*
D16*
X143400000Y-88500000D03*
D20*
X145900000Y-88500000D03*
D21*
X125750000Y-85250000D03*
X129250001Y-85250000D03*
D16*
X148000000Y-93000000D03*
D20*
X150500000Y-93000000D03*
D16*
X132900000Y-73100000D03*
D20*
X135400000Y-73100000D03*
D21*
X125750000Y-77749999D03*
X125750000Y-81250000D03*
X130250000Y-77750000D03*
X130250000Y-81250001D03*
D22*
X156730000Y-85420000D02*
X154000000Y-88150000D01*
X156730000Y-84270000D02*
X156730000Y-85420000D01*
X154000000Y-88150000D02*
X154000000Y-93000000D01*
X156730000Y-84270000D02*
X156730000Y-82270000D01*
X156730000Y-82270000D02*
X167000000Y-72000000D01*
X167000000Y-72000000D02*
X171240000Y-72000000D01*
X141350000Y-73100000D02*
X143450000Y-71000000D01*
X143450000Y-71000000D02*
X153500000Y-71000000D01*
X154500000Y-72000000D02*
X156000000Y-72000000D01*
X153500000Y-71000000D02*
X154500000Y-72000000D01*
X150500000Y-91000000D02*
X150500000Y-93000000D01*
X147000000Y-90500000D02*
X150000000Y-90500000D01*
X145500000Y-92000000D02*
X147000000Y-90500000D01*
X133650000Y-79350000D02*
X133500000Y-79500000D01*
X133500000Y-89500000D02*
X136000000Y-92000000D01*
X135400000Y-79350000D02*
X133650000Y-79350000D01*
X150000000Y-90500000D02*
X150500000Y-91000000D01*
X133500000Y-79500000D02*
X133500000Y-89500000D01*
X136000000Y-92000000D02*
X145500000Y-92000000D01*
X142150000Y-83750000D02*
X149400000Y-76500000D01*
X135510000Y-83750000D02*
X142150000Y-83750000D01*
X149400000Y-76500000D02*
X151000000Y-76500000D01*
X151500000Y-76000000D02*
X151500000Y-74400000D01*
X151000000Y-76500000D02*
X151500000Y-76000000D01*
X158000000Y-86000000D02*
X158000000Y-83000000D01*
X161500000Y-89500000D02*
X158000000Y-86000000D01*
X162500000Y-89500000D02*
X161500000Y-89500000D01*
X163500000Y-90500000D02*
X162500000Y-89500000D01*
X163500000Y-94000000D02*
X163500000Y-90500000D01*
X161000000Y-96500000D02*
X163500000Y-94000000D01*
X161000000Y-98000000D02*
X161000000Y-96500000D01*
X158500000Y-78000000D02*
X156000000Y-78000000D01*
X156000000Y-78000000D02*
X152500000Y-81500000D01*
X152500000Y-81500000D02*
X148500000Y-81500000D01*
X143400000Y-86600000D02*
X143400000Y-88500000D01*
X148500000Y-81500000D02*
X143400000Y-86600000D01*
X164299999Y-77280001D02*
X174219999Y-77280001D01*
X163580000Y-78000000D02*
X164299999Y-77280001D01*
X177000000Y-74500000D02*
X177000000Y-73000000D01*
X174219999Y-77280001D02*
X177000000Y-74500000D01*
D23*
G36*
X143109687Y-70178411D02*
G01*
X142955941Y-70260589D01*
X142955939Y-70260590D01*
X142955940Y-70260590D01*
X142854953Y-70343468D01*
X142854951Y-70343470D01*
X142821183Y-70371183D01*
X142793470Y-70404951D01*
X141907472Y-71290949D01*
X141899741Y-71287747D01*
X141535625Y-71215320D01*
X141164375Y-71215320D01*
X140800259Y-71287747D01*
X140457269Y-71429818D01*
X140148587Y-71636074D01*
X139886074Y-71898587D01*
X139679818Y-72207269D01*
X139537747Y-72550259D01*
X139465320Y-72914375D01*
X139465320Y-73285625D01*
X139537747Y-73649741D01*
X139679818Y-73992731D01*
X139886074Y-74301413D01*
X140148587Y-74563926D01*
X140457269Y-74770182D01*
X140800259Y-74912253D01*
X141164375Y-74984680D01*
X141535625Y-74984680D01*
X141899741Y-74912253D01*
X142242731Y-74770182D01*
X142551413Y-74563926D01*
X142701734Y-74413605D01*
X145166000Y-74413605D01*
X145291914Y-74703577D01*
X145624126Y-74869433D01*
X145982312Y-74967290D01*
X146352706Y-74993389D01*
X146721075Y-74946725D01*
X147073262Y-74829094D01*
X147308086Y-74703577D01*
X147434000Y-74413605D01*
X146300000Y-73279605D01*
X145166000Y-74413605D01*
X142701734Y-74413605D01*
X142813926Y-74301413D01*
X143020182Y-73992731D01*
X143162253Y-73649741D01*
X143234680Y-73285625D01*
X143234680Y-72914375D01*
X143162253Y-72550259D01*
X143159051Y-72542528D01*
X143816579Y-71885000D01*
X144905392Y-71885000D01*
X144986393Y-71966001D01*
X144696423Y-72091914D01*
X144530567Y-72424126D01*
X144432710Y-72782312D01*
X144406611Y-73152706D01*
X144453275Y-73521075D01*
X144570906Y-73873262D01*
X144696423Y-74108086D01*
X144986395Y-74234000D01*
X146120395Y-73100000D01*
X146106253Y-73085858D01*
X146285858Y-72906253D01*
X146300000Y-72920395D01*
X146314143Y-72906253D01*
X146493748Y-73085858D01*
X146479605Y-73100000D01*
X147613605Y-74234000D01*
X147903577Y-74108086D01*
X148069433Y-73775874D01*
X148167290Y-73417688D01*
X148182174Y-73206455D01*
X148941048Y-73206455D01*
X148980730Y-73456449D01*
X149068422Y-73693896D01*
X149115799Y-73782534D01*
X149344473Y-73835922D01*
X150050395Y-73130000D01*
X149344473Y-72424078D01*
X149115799Y-72477466D01*
X149009905Y-72707374D01*
X148950898Y-72953524D01*
X148941048Y-73206455D01*
X148182174Y-73206455D01*
X148193389Y-73047294D01*
X148146725Y-72678925D01*
X148029094Y-72326738D01*
X147903577Y-72091914D01*
X147613607Y-71966001D01*
X147694608Y-71885000D01*
X149891989Y-71885000D01*
X149666104Y-71968422D01*
X149577466Y-72015799D01*
X149524078Y-72244473D01*
X150230000Y-72950395D01*
X150935922Y-72244473D01*
X150882534Y-72015799D01*
X150652626Y-71909905D01*
X150548734Y-71885000D01*
X151893944Y-71885000D01*
X151875820Y-71890498D01*
X151765506Y-71949463D01*
X151668815Y-72028815D01*
X151589463Y-72125506D01*
X151530498Y-72235820D01*
X151494188Y-72355518D01*
X151481928Y-72480000D01*
X151481928Y-72820296D01*
X151479270Y-72803551D01*
X151391578Y-72566104D01*
X151344201Y-72477466D01*
X151115527Y-72424078D01*
X150409605Y-73130000D01*
X150423748Y-73144143D01*
X150244143Y-73323748D01*
X150230000Y-73309605D01*
X149524078Y-74015527D01*
X149577466Y-74244201D01*
X149807374Y-74350095D01*
X150053524Y-74409102D01*
X150215000Y-74415390D01*
X150215000Y-74526561D01*
X150264381Y-74774821D01*
X150361247Y-75008676D01*
X150501875Y-75219140D01*
X150615000Y-75332265D01*
X150615000Y-75615000D01*
X149443465Y-75615000D01*
X149399999Y-75610719D01*
X149356533Y-75615000D01*
X149356523Y-75615000D01*
X149226510Y-75627805D01*
X149059687Y-75678411D01*
X148905941Y-75760589D01*
X148905939Y-75760590D01*
X148905940Y-75760590D01*
X148804953Y-75843468D01*
X148804951Y-75843470D01*
X148771183Y-75871183D01*
X148743470Y-75904951D01*
X141783422Y-82865000D01*
X136644521Y-82865000D01*
X136624637Y-82835241D01*
X136424759Y-82635363D01*
X136189727Y-82478320D01*
X135928574Y-82370147D01*
X135651335Y-82315000D01*
X135368665Y-82315000D01*
X135091426Y-82370147D01*
X134830273Y-82478320D01*
X134595241Y-82635363D01*
X134395363Y-82835241D01*
X134385000Y-82850750D01*
X134385000Y-80364396D01*
X134485241Y-80464637D01*
X134720273Y-80621680D01*
X134981426Y-80729853D01*
X135258665Y-80785000D01*
X135541335Y-80785000D01*
X135818574Y-80729853D01*
X136079727Y-80621680D01*
X136314759Y-80464637D01*
X136514637Y-80264759D01*
X136671680Y-80029727D01*
X136779853Y-79768574D01*
X136835000Y-79491335D01*
X136835000Y-79208665D01*
X136779853Y-78931426D01*
X136671680Y-78670273D01*
X136514637Y-78435241D01*
X136314759Y-78235363D01*
X136079727Y-78078320D01*
X135818574Y-77970147D01*
X135541335Y-77915000D01*
X135258665Y-77915000D01*
X134981426Y-77970147D01*
X134720273Y-78078320D01*
X134485241Y-78235363D01*
X134285363Y-78435241D01*
X134265479Y-78465000D01*
X133693466Y-78465000D01*
X133649999Y-78460719D01*
X133606533Y-78465000D01*
X133606523Y-78465000D01*
X133476510Y-78477805D01*
X133309687Y-78528411D01*
X133155941Y-78610589D01*
X133021183Y-78721183D01*
X132993466Y-78754956D01*
X132904956Y-78843466D01*
X132871183Y-78871183D01*
X132760589Y-79005942D01*
X132678411Y-79159688D01*
X132627805Y-79326511D01*
X132615000Y-79456524D01*
X132615000Y-79456531D01*
X132610719Y-79500000D01*
X132615000Y-79543469D01*
X132615001Y-89456521D01*
X132610719Y-89500000D01*
X132627805Y-89673490D01*
X132678412Y-89840313D01*
X132760590Y-89994059D01*
X132843468Y-90095046D01*
X132843471Y-90095049D01*
X132871184Y-90128817D01*
X132904951Y-90156529D01*
X135343470Y-92595049D01*
X135371183Y-92628817D01*
X135404951Y-92656530D01*
X135404953Y-92656532D01*
X135502499Y-92736586D01*
X135505941Y-92739411D01*
X135659687Y-92821589D01*
X135826510Y-92872195D01*
X135956523Y-92885000D01*
X135956531Y-92885000D01*
X136000000Y-92889281D01*
X136043469Y-92885000D01*
X139366469Y-92885000D01*
X139308963Y-92962580D01*
X139188754Y-93216913D01*
X139148096Y-93350961D01*
X139270085Y-93573000D01*
X140413000Y-93573000D01*
X140413000Y-93553000D01*
X140667000Y-93553000D01*
X140667000Y-93573000D01*
X141809915Y-93573000D01*
X141931904Y-93350961D01*
X141891246Y-93216913D01*
X141822051Y-93070512D01*
X146559783Y-93070512D01*
X146601213Y-93350130D01*
X146696397Y-93616292D01*
X146763329Y-93741514D01*
X147007298Y-93813097D01*
X147820395Y-93000000D01*
X147007298Y-92186903D01*
X146763329Y-92258486D01*
X146642429Y-92513996D01*
X146573700Y-92788184D01*
X146559783Y-93070512D01*
X141822051Y-93070512D01*
X141771037Y-92962580D01*
X141713531Y-92885000D01*
X145456531Y-92885000D01*
X145500000Y-92889281D01*
X145543469Y-92885000D01*
X145543477Y-92885000D01*
X145673490Y-92872195D01*
X145840313Y-92821589D01*
X145994059Y-92739411D01*
X146128817Y-92628817D01*
X146156534Y-92595044D01*
X146744280Y-92007298D01*
X147186903Y-92007298D01*
X148000000Y-92820395D01*
X148813097Y-92007298D01*
X148741514Y-91763329D01*
X148486004Y-91642429D01*
X148211816Y-91573700D01*
X147929488Y-91559783D01*
X147649870Y-91601213D01*
X147383708Y-91696397D01*
X147258486Y-91763329D01*
X147186903Y-92007298D01*
X146744280Y-92007298D01*
X147366579Y-91385000D01*
X149615000Y-91385000D01*
X149615000Y-91570299D01*
X149575518Y-91574188D01*
X149455820Y-91610498D01*
X149345506Y-91669463D01*
X149248815Y-91748815D01*
X149169463Y-91845506D01*
X149110498Y-91955820D01*
X149074188Y-92075518D01*
X149061928Y-92200000D01*
X149061928Y-92207215D01*
X148992702Y-92186903D01*
X148179605Y-93000000D01*
X148992702Y-93813097D01*
X149061928Y-93792785D01*
X149061928Y-93800000D01*
X149074188Y-93924482D01*
X149110498Y-94044180D01*
X149169463Y-94154494D01*
X149248815Y-94251185D01*
X149345506Y-94330537D01*
X149455820Y-94389502D01*
X149575518Y-94425812D01*
X149700000Y-94438072D01*
X151300000Y-94438072D01*
X151424482Y-94425812D01*
X151544180Y-94389502D01*
X151654494Y-94330537D01*
X151751185Y-94251185D01*
X151830537Y-94154494D01*
X151889502Y-94044180D01*
X151925812Y-93924482D01*
X151938072Y-93800000D01*
X151938072Y-92200000D01*
X151925812Y-92075518D01*
X151889502Y-91955820D01*
X151830537Y-91845506D01*
X151751185Y-91748815D01*
X151654494Y-91669463D01*
X151544180Y-91610498D01*
X151424482Y-91574188D01*
X151385000Y-91570299D01*
X151385000Y-91043469D01*
X151389281Y-91000000D01*
X151385000Y-90956531D01*
X151385000Y-90956523D01*
X151372195Y-90826510D01*
X151321589Y-90659687D01*
X151239411Y-90505941D01*
X151128817Y-90371183D01*
X151095045Y-90343467D01*
X150656534Y-89904956D01*
X150628817Y-89871183D01*
X150494059Y-89760589D01*
X150340313Y-89678411D01*
X150173490Y-89627805D01*
X150043477Y-89615000D01*
X150043469Y-89615000D01*
X150000000Y-89610719D01*
X149956531Y-89615000D01*
X147251647Y-89615000D01*
X147289502Y-89544180D01*
X147325812Y-89424482D01*
X147338072Y-89300000D01*
X147338072Y-87700000D01*
X147325812Y-87575518D01*
X147289502Y-87455820D01*
X147230537Y-87345506D01*
X147151185Y-87248815D01*
X147054494Y-87169463D01*
X146944180Y-87110498D01*
X146824482Y-87074188D01*
X146700000Y-87061928D01*
X145100000Y-87061928D01*
X144975518Y-87074188D01*
X144855820Y-87110498D01*
X144745506Y-87169463D01*
X144648815Y-87248815D01*
X144569463Y-87345506D01*
X144510498Y-87455820D01*
X144481339Y-87551943D01*
X144314759Y-87385363D01*
X144285000Y-87365479D01*
X144285000Y-86966578D01*
X148866579Y-82385000D01*
X150295568Y-82385000D01*
X150070273Y-82478320D01*
X149835241Y-82635363D01*
X149635363Y-82835241D01*
X149478320Y-83070273D01*
X149370147Y-83331426D01*
X149315000Y-83608665D01*
X149315000Y-83891335D01*
X149370147Y-84168574D01*
X149478320Y-84429727D01*
X149635363Y-84664759D01*
X149835241Y-84864637D01*
X150070273Y-85021680D01*
X150331426Y-85129853D01*
X150608665Y-85185000D01*
X150891335Y-85185000D01*
X151168574Y-85129853D01*
X151429727Y-85021680D01*
X151664759Y-84864637D01*
X151864637Y-84664759D01*
X152021680Y-84429727D01*
X152129853Y-84168574D01*
X152185000Y-83891335D01*
X152185000Y-83608665D01*
X152129853Y-83331426D01*
X152021680Y-83070273D01*
X151864637Y-82835241D01*
X151664759Y-82635363D01*
X151429727Y-82478320D01*
X151204432Y-82385000D01*
X152456531Y-82385000D01*
X152500000Y-82389281D01*
X152543469Y-82385000D01*
X152543477Y-82385000D01*
X152673490Y-82372195D01*
X152840313Y-82321589D01*
X152994059Y-82239411D01*
X153128817Y-82128817D01*
X153156534Y-82095044D01*
X156366579Y-78885000D01*
X157468741Y-78885000D01*
X157636238Y-79052497D01*
X157858167Y-79200785D01*
X158104761Y-79302928D01*
X158366544Y-79355000D01*
X158393422Y-79355000D01*
X156134952Y-81613470D01*
X156101184Y-81641183D01*
X156073471Y-81674951D01*
X156073468Y-81674954D01*
X155990590Y-81775941D01*
X155908412Y-81929687D01*
X155857805Y-82096510D01*
X155840719Y-82270000D01*
X155845001Y-82313479D01*
X155845001Y-83027713D01*
X155835820Y-83030498D01*
X155725506Y-83089463D01*
X155628815Y-83168815D01*
X155549463Y-83265506D01*
X155490498Y-83375820D01*
X155454188Y-83495518D01*
X155441928Y-83620000D01*
X155441928Y-84920000D01*
X155454188Y-85044482D01*
X155490498Y-85164180D01*
X155549463Y-85274494D01*
X155583028Y-85315393D01*
X153404956Y-87493466D01*
X153371183Y-87521183D01*
X153260589Y-87655942D01*
X153216719Y-87738018D01*
X153114637Y-87585241D01*
X152914759Y-87385363D01*
X152679727Y-87228320D01*
X152418574Y-87120147D01*
X152141335Y-87065000D01*
X151858665Y-87065000D01*
X151581426Y-87120147D01*
X151320273Y-87228320D01*
X151085241Y-87385363D01*
X150885363Y-87585241D01*
X150728320Y-87820273D01*
X150620147Y-88081426D01*
X150565000Y-88358665D01*
X150565000Y-88641335D01*
X150620147Y-88918574D01*
X150728320Y-89179727D01*
X150885363Y-89414759D01*
X151085241Y-89614637D01*
X151320273Y-89771680D01*
X151581426Y-89879853D01*
X151858665Y-89935000D01*
X152141335Y-89935000D01*
X152418574Y-89879853D01*
X152679727Y-89771680D01*
X152914759Y-89614637D01*
X153114637Y-89414759D01*
X153115000Y-89414215D01*
X153115001Y-91624940D01*
X152957748Y-91730013D01*
X152730013Y-91957748D01*
X152551082Y-92225537D01*
X152427832Y-92523088D01*
X152365000Y-92838967D01*
X152365000Y-93161033D01*
X152427832Y-93476912D01*
X152551082Y-93774463D01*
X152730013Y-94042252D01*
X152957748Y-94269987D01*
X153225537Y-94448918D01*
X153523088Y-94572168D01*
X153838967Y-94635000D01*
X154161033Y-94635000D01*
X154476912Y-94572168D01*
X154774463Y-94448918D01*
X155042252Y-94269987D01*
X155269987Y-94042252D01*
X155448918Y-93774463D01*
X155572168Y-93476912D01*
X155635000Y-93161033D01*
X155635000Y-92838967D01*
X155865000Y-92838967D01*
X155865000Y-93161033D01*
X155927832Y-93476912D01*
X156051082Y-93774463D01*
X156230013Y-94042252D01*
X156457748Y-94269987D01*
X156725537Y-94448918D01*
X157023088Y-94572168D01*
X157338967Y-94635000D01*
X157661033Y-94635000D01*
X157976912Y-94572168D01*
X158274463Y-94448918D01*
X158542252Y-94269987D01*
X158769987Y-94042252D01*
X158948918Y-93774463D01*
X159072168Y-93476912D01*
X159135000Y-93161033D01*
X159135000Y-92838967D01*
X159072168Y-92523088D01*
X158948918Y-92225537D01*
X158769987Y-91957748D01*
X158542252Y-91730013D01*
X158274463Y-91551082D01*
X157976912Y-91427832D01*
X157661033Y-91365000D01*
X157338967Y-91365000D01*
X157023088Y-91427832D01*
X156725537Y-91551082D01*
X156457748Y-91730013D01*
X156230013Y-91957748D01*
X156051082Y-92225537D01*
X155927832Y-92523088D01*
X155865000Y-92838967D01*
X155635000Y-92838967D01*
X155572168Y-92523088D01*
X155448918Y-92225537D01*
X155269987Y-91957748D01*
X155042252Y-91730013D01*
X154885000Y-91624941D01*
X154885000Y-88516578D01*
X157151146Y-86250433D01*
X157178411Y-86340312D01*
X157260589Y-86494058D01*
X157371183Y-86628817D01*
X157404956Y-86656534D01*
X160843470Y-90095049D01*
X160871183Y-90128817D01*
X160904951Y-90156530D01*
X160904953Y-90156532D01*
X160931613Y-90178411D01*
X161005941Y-90239411D01*
X161159687Y-90321589D01*
X161326510Y-90372195D01*
X161456523Y-90385000D01*
X161456533Y-90385000D01*
X161499999Y-90389281D01*
X161543465Y-90385000D01*
X162133422Y-90385000D01*
X162615001Y-90866580D01*
X162615000Y-92738422D01*
X162572168Y-92523088D01*
X162448918Y-92225537D01*
X162269987Y-91957748D01*
X162042252Y-91730013D01*
X161774463Y-91551082D01*
X161476912Y-91427832D01*
X161161033Y-91365000D01*
X160838967Y-91365000D01*
X160523088Y-91427832D01*
X160225537Y-91551082D01*
X159957748Y-91730013D01*
X159730013Y-91957748D01*
X159551082Y-92225537D01*
X159427832Y-92523088D01*
X159365000Y-92838967D01*
X159365000Y-93161033D01*
X159427832Y-93476912D01*
X159551082Y-93774463D01*
X159730013Y-94042252D01*
X159957748Y-94269987D01*
X160225537Y-94448918D01*
X160523088Y-94572168D01*
X160838967Y-94635000D01*
X161161033Y-94635000D01*
X161476912Y-94572168D01*
X161774463Y-94448918D01*
X161849927Y-94398495D01*
X160404951Y-95843471D01*
X160371184Y-95871183D01*
X160343471Y-95904951D01*
X160343468Y-95904954D01*
X160260590Y-96005941D01*
X160178412Y-96159687D01*
X160127805Y-96326510D01*
X160110719Y-96500000D01*
X160115001Y-96543479D01*
X160115001Y-96624940D01*
X159957748Y-96730013D01*
X159730013Y-96957748D01*
X159551082Y-97225537D01*
X159427832Y-97523088D01*
X159365000Y-97838967D01*
X159365000Y-98161033D01*
X159427832Y-98476912D01*
X159551082Y-98774463D01*
X159730013Y-99042252D01*
X159957748Y-99269987D01*
X160225537Y-99448918D01*
X160523088Y-99572168D01*
X160838967Y-99635000D01*
X161161033Y-99635000D01*
X161476912Y-99572168D01*
X161774463Y-99448918D01*
X162042252Y-99269987D01*
X162269987Y-99042252D01*
X162448918Y-98774463D01*
X162484394Y-98688817D01*
X162635363Y-98914759D01*
X162835241Y-99114637D01*
X163070273Y-99271680D01*
X163331426Y-99379853D01*
X163608665Y-99435000D01*
X163891335Y-99435000D01*
X164168574Y-99379853D01*
X164429727Y-99271680D01*
X164664759Y-99114637D01*
X164864637Y-98914759D01*
X165021680Y-98679727D01*
X165129853Y-98418574D01*
X165185000Y-98141335D01*
X165185000Y-97858665D01*
X177555000Y-97858665D01*
X177555000Y-98141335D01*
X177610147Y-98418574D01*
X177718320Y-98679727D01*
X177875363Y-98914759D01*
X178075241Y-99114637D01*
X178310273Y-99271680D01*
X178571426Y-99379853D01*
X178848665Y-99435000D01*
X179131335Y-99435000D01*
X179408574Y-99379853D01*
X179669727Y-99271680D01*
X179904759Y-99114637D01*
X180104637Y-98914759D01*
X180261680Y-98679727D01*
X180369853Y-98418574D01*
X180400759Y-98263199D01*
X187351072Y-98263199D01*
X187409348Y-98828498D01*
X187576790Y-99371566D01*
X187832296Y-99849584D01*
X188224660Y-100095735D01*
X190070395Y-98250000D01*
X190429605Y-98250000D01*
X192275340Y-100095735D01*
X192667704Y-99849584D01*
X192933312Y-99347178D01*
X193095801Y-98802607D01*
X193148928Y-98236801D01*
X193090652Y-97671502D01*
X192923210Y-97128434D01*
X192667704Y-96650416D01*
X192275340Y-96404265D01*
X190429605Y-98250000D01*
X190070395Y-98250000D01*
X188224660Y-96404265D01*
X187832296Y-96650416D01*
X187566688Y-97152822D01*
X187404199Y-97697393D01*
X187351072Y-98263199D01*
X180400759Y-98263199D01*
X180425000Y-98141335D01*
X180425000Y-97858665D01*
X180369853Y-97581426D01*
X180261680Y-97320273D01*
X180104637Y-97085241D01*
X179904759Y-96885363D01*
X179669727Y-96728320D01*
X179408574Y-96620147D01*
X179131335Y-96565000D01*
X178848665Y-96565000D01*
X178571426Y-96620147D01*
X178310273Y-96728320D01*
X178075241Y-96885363D01*
X177875363Y-97085241D01*
X177718320Y-97320273D01*
X177610147Y-97581426D01*
X177555000Y-97858665D01*
X165185000Y-97858665D01*
X165129853Y-97581426D01*
X165021680Y-97320273D01*
X164864637Y-97085241D01*
X164664759Y-96885363D01*
X164429727Y-96728320D01*
X164168574Y-96620147D01*
X163891335Y-96565000D01*
X163608665Y-96565000D01*
X163331426Y-96620147D01*
X163070273Y-96728320D01*
X162835241Y-96885363D01*
X162635363Y-97085241D01*
X162484394Y-97311183D01*
X162448918Y-97225537D01*
X162269987Y-96957748D01*
X162042252Y-96730013D01*
X162029851Y-96721727D01*
X162526918Y-96224660D01*
X188404265Y-96224660D01*
X190250000Y-98070395D01*
X192095735Y-96224660D01*
X191849584Y-95832296D01*
X191347178Y-95566688D01*
X190802607Y-95404199D01*
X190236801Y-95351072D01*
X189671502Y-95409348D01*
X189128434Y-95576790D01*
X188650416Y-95832296D01*
X188404265Y-96224660D01*
X162526918Y-96224660D01*
X164095050Y-94656529D01*
X164128817Y-94628817D01*
X164239411Y-94494059D01*
X164321589Y-94340313D01*
X164372195Y-94173490D01*
X164385000Y-94043477D01*
X164385000Y-94043469D01*
X164389281Y-94000000D01*
X164385000Y-93956531D01*
X164385000Y-90543469D01*
X164389281Y-90500000D01*
X164385000Y-90456531D01*
X164385000Y-90456523D01*
X164372195Y-90326510D01*
X164348694Y-90249039D01*
X164321589Y-90159686D01*
X164239411Y-90005941D01*
X164156532Y-89904953D01*
X164156530Y-89904951D01*
X164128817Y-89871183D01*
X164095049Y-89843470D01*
X163156534Y-88904956D01*
X163128817Y-88871183D01*
X163101835Y-88849039D01*
X165848096Y-88849039D01*
X165888754Y-88983087D01*
X166008963Y-89237420D01*
X166176481Y-89463414D01*
X166384869Y-89652385D01*
X166626119Y-89797070D01*
X166890960Y-89891909D01*
X167113000Y-89770624D01*
X167113000Y-88627000D01*
X167367000Y-88627000D01*
X167367000Y-89770624D01*
X167589040Y-89891909D01*
X167853881Y-89797070D01*
X168095131Y-89652385D01*
X168303519Y-89463414D01*
X168471037Y-89237420D01*
X168591246Y-88983087D01*
X168631904Y-88849039D01*
X168509915Y-88627000D01*
X167367000Y-88627000D01*
X167113000Y-88627000D01*
X165970085Y-88627000D01*
X165848096Y-88849039D01*
X163101835Y-88849039D01*
X162994059Y-88760589D01*
X162840313Y-88678411D01*
X162673490Y-88627805D01*
X162543477Y-88615000D01*
X162543469Y-88615000D01*
X162500000Y-88610719D01*
X162456531Y-88615000D01*
X161866579Y-88615000D01*
X161402540Y-88150961D01*
X165848096Y-88150961D01*
X165970085Y-88373000D01*
X167113000Y-88373000D01*
X167113000Y-87229376D01*
X167367000Y-87229376D01*
X167367000Y-88373000D01*
X168509915Y-88373000D01*
X168610609Y-88189721D01*
X184865000Y-88189721D01*
X184865000Y-88610279D01*
X184947047Y-89022756D01*
X185107988Y-89411302D01*
X185341637Y-89760983D01*
X185639017Y-90058363D01*
X185988698Y-90292012D01*
X186377244Y-90452953D01*
X186789721Y-90535000D01*
X187210279Y-90535000D01*
X187622756Y-90452953D01*
X188011302Y-90292012D01*
X188360983Y-90058363D01*
X188658363Y-89760983D01*
X188892012Y-89411302D01*
X189052953Y-89022756D01*
X189135000Y-88610279D01*
X189135000Y-88189721D01*
X189052953Y-87777244D01*
X188892012Y-87388698D01*
X188658363Y-87039017D01*
X188360983Y-86741637D01*
X188011302Y-86507988D01*
X187622756Y-86347047D01*
X187210279Y-86265000D01*
X186789721Y-86265000D01*
X186377244Y-86347047D01*
X185988698Y-86507988D01*
X185639017Y-86741637D01*
X185341637Y-87039017D01*
X185107988Y-87388698D01*
X184947047Y-87777244D01*
X184865000Y-88189721D01*
X168610609Y-88189721D01*
X168631904Y-88150961D01*
X168591246Y-88016913D01*
X168471037Y-87762580D01*
X168303519Y-87536586D01*
X168095131Y-87347615D01*
X167853881Y-87202930D01*
X167589040Y-87108091D01*
X167367000Y-87229376D01*
X167113000Y-87229376D01*
X166890960Y-87108091D01*
X166626119Y-87202930D01*
X166384869Y-87347615D01*
X166176481Y-87536586D01*
X166008963Y-87762580D01*
X165888754Y-88016913D01*
X165848096Y-88150961D01*
X161402540Y-88150961D01*
X158885000Y-85633422D01*
X158885000Y-85499115D01*
X159093524Y-85549102D01*
X159346455Y-85558952D01*
X159596449Y-85519270D01*
X159606494Y-85515560D01*
X170994045Y-85515560D01*
X171055932Y-85751368D01*
X171297790Y-85864266D01*
X171557027Y-85927811D01*
X171823680Y-85939561D01*
X172087501Y-85899063D01*
X172338353Y-85807875D01*
X172444068Y-85751368D01*
X172505955Y-85515560D01*
X171750000Y-84759605D01*
X170994045Y-85515560D01*
X159606494Y-85515560D01*
X159833896Y-85431578D01*
X159922534Y-85384201D01*
X159975922Y-85155527D01*
X159270000Y-84449605D01*
X159255858Y-84463748D01*
X159076253Y-84284143D01*
X159090395Y-84270000D01*
X159449605Y-84270000D01*
X160155527Y-84975922D01*
X160384201Y-84922534D01*
X160490095Y-84692626D01*
X160499431Y-84653680D01*
X170390439Y-84653680D01*
X170430937Y-84917501D01*
X170522125Y-85168353D01*
X170578632Y-85274068D01*
X170814440Y-85335955D01*
X171570395Y-84580000D01*
X171929605Y-84580000D01*
X172685560Y-85335955D01*
X172921368Y-85274068D01*
X173034266Y-85032210D01*
X173097811Y-84772973D01*
X173109561Y-84506320D01*
X173069063Y-84242499D01*
X172977875Y-83991647D01*
X172921368Y-83885932D01*
X172685560Y-83824045D01*
X171929605Y-84580000D01*
X171570395Y-84580000D01*
X170814440Y-83824045D01*
X170578632Y-83885932D01*
X170465734Y-84127790D01*
X170402189Y-84387027D01*
X170390439Y-84653680D01*
X160499431Y-84653680D01*
X160549102Y-84446476D01*
X160558952Y-84193545D01*
X160519270Y-83943551D01*
X160431578Y-83706104D01*
X160398619Y-83644440D01*
X170994045Y-83644440D01*
X171750000Y-84400395D01*
X172505955Y-83644440D01*
X172444068Y-83408632D01*
X172202210Y-83295734D01*
X171942973Y-83232189D01*
X171676320Y-83220439D01*
X171412499Y-83260937D01*
X171161647Y-83352125D01*
X171055932Y-83408632D01*
X170994045Y-83644440D01*
X160398619Y-83644440D01*
X160384201Y-83617466D01*
X160155527Y-83564078D01*
X159449605Y-84270000D01*
X159090395Y-84270000D01*
X159076253Y-84255858D01*
X159255858Y-84076253D01*
X159270000Y-84090395D01*
X159975922Y-83384473D01*
X159922534Y-83155799D01*
X159692626Y-83049905D01*
X159446476Y-82990898D01*
X159285000Y-82984610D01*
X159285000Y-82873439D01*
X159235619Y-82625179D01*
X159138753Y-82391324D01*
X158998125Y-82180860D01*
X158819140Y-82001875D01*
X158676468Y-81906544D01*
X172935000Y-81906544D01*
X172935000Y-82173456D01*
X172987072Y-82435239D01*
X173089215Y-82681833D01*
X173237503Y-82903762D01*
X173426238Y-83092497D01*
X173648167Y-83240785D01*
X173894761Y-83342928D01*
X174156544Y-83395000D01*
X174423456Y-83395000D01*
X174685239Y-83342928D01*
X174931833Y-83240785D01*
X175153762Y-83092497D01*
X175342497Y-82903762D01*
X175490785Y-82681833D01*
X175592928Y-82435239D01*
X175645000Y-82173456D01*
X175645000Y-81906544D01*
X175592928Y-81644761D01*
X175490785Y-81398167D01*
X175358375Y-81200000D01*
X176061928Y-81200000D01*
X176061928Y-82800000D01*
X176074188Y-82924482D01*
X176110498Y-83044180D01*
X176169463Y-83154494D01*
X176248815Y-83251185D01*
X176345506Y-83330537D01*
X176455820Y-83389502D01*
X176575518Y-83425812D01*
X176700000Y-83438072D01*
X178300000Y-83438072D01*
X178424482Y-83425812D01*
X178544180Y-83389502D01*
X178654494Y-83330537D01*
X178751185Y-83251185D01*
X178830537Y-83154494D01*
X178889502Y-83044180D01*
X178918661Y-82948057D01*
X179085241Y-83114637D01*
X179320273Y-83271680D01*
X179581426Y-83379853D01*
X179858665Y-83435000D01*
X180141335Y-83435000D01*
X180418574Y-83379853D01*
X180679727Y-83271680D01*
X180914759Y-83114637D01*
X181114637Y-82914759D01*
X181271680Y-82679727D01*
X181379853Y-82418574D01*
X181435000Y-82141335D01*
X181435000Y-81858665D01*
X181426191Y-81814375D01*
X185115320Y-81814375D01*
X185115320Y-82185625D01*
X185187747Y-82549741D01*
X185329818Y-82892731D01*
X185536074Y-83201413D01*
X185798587Y-83463926D01*
X186107269Y-83670182D01*
X186450259Y-83812253D01*
X186814375Y-83884680D01*
X187185625Y-83884680D01*
X187549741Y-83812253D01*
X187892731Y-83670182D01*
X188201413Y-83463926D01*
X188463926Y-83201413D01*
X188670182Y-82892731D01*
X188812253Y-82549741D01*
X188884680Y-82185625D01*
X188884680Y-81814375D01*
X188812253Y-81450259D01*
X188670182Y-81107269D01*
X188463926Y-80798587D01*
X188201413Y-80536074D01*
X187892731Y-80329818D01*
X187549741Y-80187747D01*
X187185625Y-80115320D01*
X186814375Y-80115320D01*
X186450259Y-80187747D01*
X186107269Y-80329818D01*
X185798587Y-80536074D01*
X185536074Y-80798587D01*
X185329818Y-81107269D01*
X185187747Y-81450259D01*
X185115320Y-81814375D01*
X181426191Y-81814375D01*
X181379853Y-81581426D01*
X181271680Y-81320273D01*
X181114637Y-81085241D01*
X180914759Y-80885363D01*
X180679727Y-80728320D01*
X180418574Y-80620147D01*
X180141335Y-80565000D01*
X179858665Y-80565000D01*
X179581426Y-80620147D01*
X179320273Y-80728320D01*
X179085241Y-80885363D01*
X178918661Y-81051943D01*
X178889502Y-80955820D01*
X178830537Y-80845506D01*
X178751185Y-80748815D01*
X178654494Y-80669463D01*
X178544180Y-80610498D01*
X178424482Y-80574188D01*
X178300000Y-80561928D01*
X176700000Y-80561928D01*
X176575518Y-80574188D01*
X176455820Y-80610498D01*
X176345506Y-80669463D01*
X176248815Y-80748815D01*
X176169463Y-80845506D01*
X176110498Y-80955820D01*
X176074188Y-81075518D01*
X176061928Y-81200000D01*
X175358375Y-81200000D01*
X175342497Y-81176238D01*
X175153762Y-80987503D01*
X174931833Y-80839215D01*
X174685239Y-80737072D01*
X174423456Y-80685000D01*
X174156544Y-80685000D01*
X173894761Y-80737072D01*
X173648167Y-80839215D01*
X173426238Y-80987503D01*
X173237503Y-81176238D01*
X173089215Y-81398167D01*
X172987072Y-81644761D01*
X172935000Y-81906544D01*
X158676468Y-81906544D01*
X158608676Y-81861247D01*
X158454283Y-81797295D01*
X162225000Y-78026578D01*
X162225000Y-78133456D01*
X162277072Y-78395239D01*
X162379215Y-78641833D01*
X162527503Y-78863762D01*
X162716238Y-79052497D01*
X162938167Y-79200785D01*
X163184761Y-79302928D01*
X163446544Y-79355000D01*
X163713456Y-79355000D01*
X163975239Y-79302928D01*
X164221833Y-79200785D01*
X164443762Y-79052497D01*
X164632497Y-78863762D01*
X164780785Y-78641833D01*
X164882928Y-78395239D01*
X164928725Y-78165001D01*
X171515992Y-78165001D01*
X171354761Y-78197072D01*
X171108167Y-78299215D01*
X170886238Y-78447503D01*
X170697503Y-78636238D01*
X170549215Y-78858167D01*
X170447072Y-79104761D01*
X170395000Y-79366544D01*
X170395000Y-79633456D01*
X170447072Y-79895239D01*
X170549215Y-80141833D01*
X170697503Y-80363762D01*
X170886238Y-80552497D01*
X171108167Y-80700785D01*
X171354761Y-80802928D01*
X171616544Y-80855000D01*
X171883456Y-80855000D01*
X172145239Y-80802928D01*
X172391833Y-80700785D01*
X172613762Y-80552497D01*
X172802497Y-80363762D01*
X172950785Y-80141833D01*
X173052928Y-79895239D01*
X173105000Y-79633456D01*
X173105000Y-79366544D01*
X173052928Y-79104761D01*
X172950785Y-78858167D01*
X172802497Y-78636238D01*
X172613762Y-78447503D01*
X172391833Y-78299215D01*
X172145239Y-78197072D01*
X171984008Y-78165001D01*
X174176530Y-78165001D01*
X174219999Y-78169282D01*
X174263468Y-78165001D01*
X174263476Y-78165001D01*
X174393489Y-78152196D01*
X174560312Y-78101590D01*
X174714058Y-78019412D01*
X174848816Y-77908818D01*
X174876533Y-77875045D01*
X177476238Y-75275340D01*
X188404265Y-75275340D01*
X188650416Y-75667704D01*
X189152822Y-75933312D01*
X189697393Y-76095801D01*
X190263199Y-76148928D01*
X190828498Y-76090652D01*
X191371566Y-75923210D01*
X191849584Y-75667704D01*
X192095735Y-75275340D01*
X190250000Y-73429605D01*
X188404265Y-75275340D01*
X177476238Y-75275340D01*
X177595050Y-75156529D01*
X177628817Y-75128817D01*
X177739411Y-74994059D01*
X177821589Y-74840313D01*
X177872195Y-74673490D01*
X177885000Y-74543477D01*
X177885000Y-74543467D01*
X177889281Y-74500001D01*
X177885000Y-74456535D01*
X177885000Y-74134521D01*
X177914759Y-74114637D01*
X178114637Y-73914759D01*
X178271680Y-73679727D01*
X178379853Y-73418574D01*
X178410759Y-73263199D01*
X187351072Y-73263199D01*
X187409348Y-73828498D01*
X187576790Y-74371566D01*
X187832296Y-74849584D01*
X188224660Y-75095735D01*
X190070395Y-73250000D01*
X190429605Y-73250000D01*
X192275340Y-75095735D01*
X192667704Y-74849584D01*
X192933312Y-74347178D01*
X193095801Y-73802607D01*
X193148928Y-73236801D01*
X193090652Y-72671502D01*
X192923210Y-72128434D01*
X192667704Y-71650416D01*
X192275340Y-71404265D01*
X190429605Y-73250000D01*
X190070395Y-73250000D01*
X188224660Y-71404265D01*
X187832296Y-71650416D01*
X187566688Y-72152822D01*
X187404199Y-72697393D01*
X187351072Y-73263199D01*
X178410759Y-73263199D01*
X178435000Y-73141335D01*
X178435000Y-72858665D01*
X178379853Y-72581426D01*
X178271680Y-72320273D01*
X178114637Y-72085241D01*
X177914759Y-71885363D01*
X177679727Y-71728320D01*
X177418574Y-71620147D01*
X177141335Y-71565000D01*
X176858665Y-71565000D01*
X176581426Y-71620147D01*
X176320273Y-71728320D01*
X176085241Y-71885363D01*
X175918661Y-72051943D01*
X175889502Y-71955820D01*
X175830537Y-71845506D01*
X175751185Y-71748815D01*
X175654494Y-71669463D01*
X175544180Y-71610498D01*
X175424482Y-71574188D01*
X175300000Y-71561928D01*
X173700000Y-71561928D01*
X173575518Y-71574188D01*
X173455820Y-71610498D01*
X173345506Y-71669463D01*
X173248815Y-71748815D01*
X173169463Y-71845506D01*
X173110498Y-71955820D01*
X173074188Y-72075518D01*
X173061928Y-72200000D01*
X173061928Y-73800000D01*
X173074188Y-73924482D01*
X173110498Y-74044180D01*
X173169463Y-74154494D01*
X173248815Y-74251185D01*
X173345506Y-74330537D01*
X173455820Y-74389502D01*
X173575518Y-74425812D01*
X173700000Y-74438072D01*
X175300000Y-74438072D01*
X175424482Y-74425812D01*
X175544180Y-74389502D01*
X175654494Y-74330537D01*
X175751185Y-74251185D01*
X175830537Y-74154494D01*
X175889502Y-74044180D01*
X175918661Y-73948057D01*
X176085241Y-74114637D01*
X176114340Y-74134081D01*
X173853421Y-76395001D01*
X164343464Y-76395001D01*
X164299998Y-76390720D01*
X164256532Y-76395001D01*
X164256522Y-76395001D01*
X164126509Y-76407806D01*
X163959686Y-76458412D01*
X163805940Y-76540590D01*
X163805938Y-76540591D01*
X163805939Y-76540591D01*
X163704952Y-76623469D01*
X163704950Y-76623471D01*
X163678717Y-76645000D01*
X163606579Y-76645000D01*
X167366579Y-72885000D01*
X170105479Y-72885000D01*
X170125363Y-72914759D01*
X170325241Y-73114637D01*
X170560273Y-73271680D01*
X170821426Y-73379853D01*
X171098665Y-73435000D01*
X171381335Y-73435000D01*
X171658574Y-73379853D01*
X171919727Y-73271680D01*
X172154759Y-73114637D01*
X172354637Y-72914759D01*
X172511680Y-72679727D01*
X172619853Y-72418574D01*
X172675000Y-72141335D01*
X172675000Y-71858665D01*
X172619853Y-71581426D01*
X172511680Y-71320273D01*
X172447794Y-71224660D01*
X188404265Y-71224660D01*
X190250000Y-73070395D01*
X192095735Y-71224660D01*
X191849584Y-70832296D01*
X191347178Y-70566688D01*
X190802607Y-70404199D01*
X190236801Y-70351072D01*
X189671502Y-70409348D01*
X189128434Y-70576790D01*
X188650416Y-70832296D01*
X188404265Y-71224660D01*
X172447794Y-71224660D01*
X172354637Y-71085241D01*
X172154759Y-70885363D01*
X171919727Y-70728320D01*
X171658574Y-70620147D01*
X171381335Y-70565000D01*
X171098665Y-70565000D01*
X170821426Y-70620147D01*
X170560273Y-70728320D01*
X170325241Y-70885363D01*
X170125363Y-71085241D01*
X170105479Y-71115000D01*
X167043465Y-71115000D01*
X166999999Y-71110719D01*
X166956533Y-71115000D01*
X166956523Y-71115000D01*
X166826510Y-71127805D01*
X166659687Y-71178411D01*
X166505941Y-71260589D01*
X166505939Y-71260590D01*
X166505940Y-71260590D01*
X166404953Y-71343468D01*
X166404951Y-71343470D01*
X166371183Y-71371183D01*
X166343470Y-71404951D01*
X162395000Y-75353421D01*
X162395000Y-75326544D01*
X162342928Y-75064761D01*
X162240785Y-74818167D01*
X162092497Y-74596238D01*
X161903762Y-74407503D01*
X161681833Y-74259215D01*
X161435239Y-74157072D01*
X161173456Y-74105000D01*
X160906544Y-74105000D01*
X160644761Y-74157072D01*
X160398167Y-74259215D01*
X160176238Y-74407503D01*
X159987503Y-74596238D01*
X159839215Y-74818167D01*
X159737072Y-75064761D01*
X159685000Y-75326544D01*
X159685000Y-75593456D01*
X159737072Y-75855239D01*
X159839215Y-76101833D01*
X159987503Y-76323762D01*
X160176238Y-76512497D01*
X160398167Y-76660785D01*
X160644761Y-76762928D01*
X160906544Y-76815000D01*
X160933422Y-76815000D01*
X159855000Y-77893422D01*
X159855000Y-77866544D01*
X159802928Y-77604761D01*
X159700785Y-77358167D01*
X159552497Y-77136238D01*
X159363762Y-76947503D01*
X159141833Y-76799215D01*
X158895239Y-76697072D01*
X158633456Y-76645000D01*
X158366544Y-76645000D01*
X158104761Y-76697072D01*
X157858167Y-76799215D01*
X157636238Y-76947503D01*
X157468741Y-77115000D01*
X156043465Y-77115000D01*
X155999999Y-77110719D01*
X155956533Y-77115000D01*
X155956523Y-77115000D01*
X155826510Y-77127805D01*
X155659687Y-77178411D01*
X155505941Y-77260589D01*
X155505939Y-77260590D01*
X155505940Y-77260590D01*
X155404953Y-77343468D01*
X155404951Y-77343470D01*
X155371183Y-77371183D01*
X155343470Y-77404951D01*
X152133422Y-80615000D01*
X151329724Y-80615000D01*
X151554759Y-80464637D01*
X151754637Y-80264759D01*
X151911680Y-80029727D01*
X152019853Y-79768574D01*
X152075000Y-79491335D01*
X152075000Y-79208665D01*
X152019853Y-78931426D01*
X151911680Y-78670273D01*
X151754637Y-78435241D01*
X151554759Y-78235363D01*
X151319727Y-78078320D01*
X151058574Y-77970147D01*
X150781335Y-77915000D01*
X150498665Y-77915000D01*
X150221426Y-77970147D01*
X149960273Y-78078320D01*
X149725241Y-78235363D01*
X149525363Y-78435241D01*
X149368320Y-78670273D01*
X149260147Y-78931426D01*
X149205000Y-79208665D01*
X149205000Y-79491335D01*
X149260147Y-79768574D01*
X149368320Y-80029727D01*
X149525363Y-80264759D01*
X149725241Y-80464637D01*
X149950276Y-80615000D01*
X148543465Y-80615000D01*
X148499999Y-80610719D01*
X148456533Y-80615000D01*
X148456523Y-80615000D01*
X148326510Y-80627805D01*
X148159687Y-80678411D01*
X148005941Y-80760589D01*
X148005939Y-80760590D01*
X148005940Y-80760590D01*
X147904953Y-80843468D01*
X147904951Y-80843470D01*
X147871183Y-80871183D01*
X147843470Y-80904951D01*
X142804956Y-85943466D01*
X142771183Y-85971183D01*
X142660589Y-86105942D01*
X142578411Y-86259688D01*
X142527805Y-86426511D01*
X142515000Y-86556524D01*
X142515000Y-86556531D01*
X142510719Y-86600000D01*
X142515000Y-86643469D01*
X142515000Y-87365478D01*
X142485241Y-87385363D01*
X142285363Y-87585241D01*
X142128320Y-87820273D01*
X142020147Y-88081426D01*
X141965000Y-88358665D01*
X141965000Y-88641335D01*
X142020147Y-88918574D01*
X142128320Y-89179727D01*
X142285363Y-89414759D01*
X142485241Y-89614637D01*
X142720273Y-89771680D01*
X142981426Y-89879853D01*
X143258665Y-89935000D01*
X143541335Y-89935000D01*
X143818574Y-89879853D01*
X144079727Y-89771680D01*
X144314759Y-89614637D01*
X144481339Y-89448057D01*
X144510498Y-89544180D01*
X144569463Y-89654494D01*
X144648815Y-89751185D01*
X144745506Y-89830537D01*
X144855820Y-89889502D01*
X144975518Y-89925812D01*
X145100000Y-89938072D01*
X146310349Y-89938072D01*
X145133422Y-91115000D01*
X141290726Y-91115000D01*
X141395131Y-91052385D01*
X141603519Y-90863414D01*
X141771037Y-90637420D01*
X141891246Y-90383087D01*
X141931904Y-90249039D01*
X141809915Y-90027000D01*
X140667000Y-90027000D01*
X140667000Y-90047000D01*
X140413000Y-90047000D01*
X140413000Y-90027000D01*
X139270085Y-90027000D01*
X139148096Y-90249039D01*
X139188754Y-90383087D01*
X139308963Y-90637420D01*
X139476481Y-90863414D01*
X139684869Y-91052385D01*
X139789274Y-91115000D01*
X136366579Y-91115000D01*
X134802540Y-89550961D01*
X139148096Y-89550961D01*
X139270085Y-89773000D01*
X140413000Y-89773000D01*
X140413000Y-88629376D01*
X140667000Y-88629376D01*
X140667000Y-89773000D01*
X141809915Y-89773000D01*
X141931904Y-89550961D01*
X141891246Y-89416913D01*
X141771037Y-89162580D01*
X141603519Y-88936586D01*
X141395131Y-88747615D01*
X141153881Y-88602930D01*
X140889040Y-88508091D01*
X140667000Y-88629376D01*
X140413000Y-88629376D01*
X140190960Y-88508091D01*
X139926119Y-88602930D01*
X139684869Y-88747615D01*
X139476481Y-88936586D01*
X139308963Y-89162580D01*
X139188754Y-89416913D01*
X139148096Y-89550961D01*
X134802540Y-89550961D01*
X134385000Y-89133422D01*
X134385000Y-84649250D01*
X134395363Y-84664759D01*
X134595241Y-84864637D01*
X134830273Y-85021680D01*
X135091426Y-85129853D01*
X135368665Y-85185000D01*
X135651335Y-85185000D01*
X135928574Y-85129853D01*
X136189727Y-85021680D01*
X136424759Y-84864637D01*
X136624637Y-84664759D01*
X136644521Y-84635000D01*
X142106531Y-84635000D01*
X142150000Y-84639281D01*
X142193469Y-84635000D01*
X142193477Y-84635000D01*
X142323490Y-84622195D01*
X142490313Y-84571589D01*
X142644059Y-84489411D01*
X142778817Y-84378817D01*
X142806534Y-84345044D01*
X149766579Y-77385000D01*
X150956531Y-77385000D01*
X151000000Y-77389281D01*
X151043469Y-77385000D01*
X151043477Y-77385000D01*
X151173490Y-77372195D01*
X151340313Y-77321589D01*
X151494059Y-77239411D01*
X151628817Y-77128817D01*
X151656534Y-77095044D01*
X152095045Y-76656533D01*
X152128817Y-76628817D01*
X152239411Y-76494059D01*
X152321589Y-76340313D01*
X152372195Y-76173490D01*
X152385000Y-76043477D01*
X152385000Y-76043469D01*
X152389281Y-76000000D01*
X152385000Y-75956531D01*
X152385000Y-75332265D01*
X152498125Y-75219140D01*
X152638753Y-75008676D01*
X152735619Y-74774821D01*
X152785000Y-74526561D01*
X152785000Y-74418072D01*
X153420000Y-74418072D01*
X153544482Y-74405812D01*
X153664180Y-74369502D01*
X153774494Y-74310537D01*
X153871185Y-74231185D01*
X153950537Y-74134494D01*
X154009502Y-74024180D01*
X154045812Y-73904482D01*
X154058072Y-73780000D01*
X154058072Y-72767275D01*
X154159686Y-72821589D01*
X154281908Y-72858665D01*
X154326510Y-72872195D01*
X154456523Y-72885000D01*
X154456531Y-72885000D01*
X154500000Y-72889281D01*
X154543469Y-72885000D01*
X154865479Y-72885000D01*
X154885363Y-72914759D01*
X155085241Y-73114637D01*
X155320273Y-73271680D01*
X155581426Y-73379853D01*
X155858665Y-73435000D01*
X156141335Y-73435000D01*
X156418574Y-73379853D01*
X156679727Y-73271680D01*
X156914759Y-73114637D01*
X157114637Y-72914759D01*
X157271680Y-72679727D01*
X157379853Y-72418574D01*
X157435000Y-72141335D01*
X157435000Y-71858665D01*
X157379853Y-71581426D01*
X157271680Y-71320273D01*
X157114637Y-71085241D01*
X156914759Y-70885363D01*
X156679727Y-70728320D01*
X156418574Y-70620147D01*
X156141335Y-70565000D01*
X155858665Y-70565000D01*
X155581426Y-70620147D01*
X155320273Y-70728320D01*
X155085241Y-70885363D01*
X154885363Y-71085241D01*
X154865919Y-71114341D01*
X154156534Y-70404956D01*
X154128817Y-70371183D01*
X153994059Y-70260589D01*
X153840313Y-70178411D01*
X153697208Y-70135000D01*
X190206720Y-70135000D01*
X190854213Y-70198487D01*
X191435416Y-70373963D01*
X191971466Y-70658986D01*
X192441947Y-71042700D01*
X192828932Y-71510484D01*
X193117693Y-72044537D01*
X193297220Y-72624496D01*
X193365001Y-73269391D01*
X193365000Y-98206719D01*
X193301513Y-98854213D01*
X193126036Y-99435419D01*
X192841012Y-99971470D01*
X192457302Y-100441944D01*
X191989515Y-100828932D01*
X191455463Y-101117693D01*
X190875508Y-101297219D01*
X190230620Y-101365000D01*
X125293281Y-101365000D01*
X124645787Y-101301513D01*
X124064581Y-101126036D01*
X123528530Y-100841012D01*
X123058056Y-100457302D01*
X122907524Y-100275340D01*
X123404265Y-100275340D01*
X123650416Y-100667704D01*
X124152822Y-100933312D01*
X124697393Y-101095801D01*
X125263199Y-101148928D01*
X125828498Y-101090652D01*
X126371566Y-100923210D01*
X126849584Y-100667704D01*
X127095735Y-100275340D01*
X188404265Y-100275340D01*
X188650416Y-100667704D01*
X189152822Y-100933312D01*
X189697393Y-101095801D01*
X190263199Y-101148928D01*
X190828498Y-101090652D01*
X191371566Y-100923210D01*
X191849584Y-100667704D01*
X192095735Y-100275340D01*
X190250000Y-98429605D01*
X188404265Y-100275340D01*
X127095735Y-100275340D01*
X125250000Y-98429605D01*
X123404265Y-100275340D01*
X122907524Y-100275340D01*
X122671068Y-99989515D01*
X122382307Y-99455463D01*
X122202781Y-98875508D01*
X122138425Y-98263199D01*
X122351072Y-98263199D01*
X122409348Y-98828498D01*
X122576790Y-99371566D01*
X122832296Y-99849584D01*
X123224660Y-100095735D01*
X125070395Y-98250000D01*
X125429605Y-98250000D01*
X127275340Y-100095735D01*
X127667704Y-99849584D01*
X127933312Y-99347178D01*
X128095801Y-98802607D01*
X128138389Y-98349039D01*
X130368096Y-98349039D01*
X130408754Y-98483087D01*
X130528963Y-98737420D01*
X130696481Y-98963414D01*
X130904869Y-99152385D01*
X131146119Y-99297070D01*
X131410960Y-99391909D01*
X131633000Y-99270624D01*
X131633000Y-98127000D01*
X131887000Y-98127000D01*
X131887000Y-99270624D01*
X132109040Y-99391909D01*
X132373881Y-99297070D01*
X132615131Y-99152385D01*
X132823519Y-98963414D01*
X132991037Y-98737420D01*
X133111246Y-98483087D01*
X133151904Y-98349039D01*
X133029915Y-98127000D01*
X131887000Y-98127000D01*
X131633000Y-98127000D01*
X130490085Y-98127000D01*
X130368096Y-98349039D01*
X128138389Y-98349039D01*
X128148928Y-98236801D01*
X128090652Y-97671502D01*
X128084319Y-97650961D01*
X130368096Y-97650961D01*
X130490085Y-97873000D01*
X131633000Y-97873000D01*
X131633000Y-96729376D01*
X131887000Y-96729376D01*
X131887000Y-97873000D01*
X133029915Y-97873000D01*
X133037790Y-97858665D01*
X145565000Y-97858665D01*
X145565000Y-98141335D01*
X145620147Y-98418574D01*
X145728320Y-98679727D01*
X145885363Y-98914759D01*
X146085241Y-99114637D01*
X146320273Y-99271680D01*
X146581426Y-99379853D01*
X146858665Y-99435000D01*
X147141335Y-99435000D01*
X147418574Y-99379853D01*
X147679727Y-99271680D01*
X147914759Y-99114637D01*
X148114637Y-98914759D01*
X148271680Y-98679727D01*
X148379853Y-98418574D01*
X148435000Y-98141335D01*
X148435000Y-97858665D01*
X148431082Y-97838967D01*
X152365000Y-97838967D01*
X152365000Y-98161033D01*
X152427832Y-98476912D01*
X152551082Y-98774463D01*
X152730013Y-99042252D01*
X152957748Y-99269987D01*
X153225537Y-99448918D01*
X153523088Y-99572168D01*
X153838967Y-99635000D01*
X154161033Y-99635000D01*
X154476912Y-99572168D01*
X154774463Y-99448918D01*
X155042252Y-99269987D01*
X155269987Y-99042252D01*
X155448918Y-98774463D01*
X155572168Y-98476912D01*
X155635000Y-98161033D01*
X155635000Y-97838967D01*
X155865000Y-97838967D01*
X155865000Y-98161033D01*
X155927832Y-98476912D01*
X156051082Y-98774463D01*
X156230013Y-99042252D01*
X156457748Y-99269987D01*
X156725537Y-99448918D01*
X157023088Y-99572168D01*
X157338967Y-99635000D01*
X157661033Y-99635000D01*
X157976912Y-99572168D01*
X158274463Y-99448918D01*
X158542252Y-99269987D01*
X158769987Y-99042252D01*
X158948918Y-98774463D01*
X159072168Y-98476912D01*
X159135000Y-98161033D01*
X159135000Y-97838967D01*
X159072168Y-97523088D01*
X158948918Y-97225537D01*
X158769987Y-96957748D01*
X158542252Y-96730013D01*
X158274463Y-96551082D01*
X157976912Y-96427832D01*
X157661033Y-96365000D01*
X157338967Y-96365000D01*
X157023088Y-96427832D01*
X156725537Y-96551082D01*
X156457748Y-96730013D01*
X156230013Y-96957748D01*
X156051082Y-97225537D01*
X155927832Y-97523088D01*
X155865000Y-97838967D01*
X155635000Y-97838967D01*
X155572168Y-97523088D01*
X155448918Y-97225537D01*
X155269987Y-96957748D01*
X155042252Y-96730013D01*
X154774463Y-96551082D01*
X154476912Y-96427832D01*
X154161033Y-96365000D01*
X153838967Y-96365000D01*
X153523088Y-96427832D01*
X153225537Y-96551082D01*
X152957748Y-96730013D01*
X152730013Y-96957748D01*
X152551082Y-97225537D01*
X152427832Y-97523088D01*
X152365000Y-97838967D01*
X148431082Y-97838967D01*
X148379853Y-97581426D01*
X148271680Y-97320273D01*
X148114637Y-97085241D01*
X147914759Y-96885363D01*
X147679727Y-96728320D01*
X147418574Y-96620147D01*
X147141335Y-96565000D01*
X146858665Y-96565000D01*
X146581426Y-96620147D01*
X146320273Y-96728320D01*
X146085241Y-96885363D01*
X145885363Y-97085241D01*
X145728320Y-97320273D01*
X145620147Y-97581426D01*
X145565000Y-97858665D01*
X133037790Y-97858665D01*
X133151904Y-97650961D01*
X133111246Y-97516913D01*
X132991037Y-97262580D01*
X132823519Y-97036586D01*
X132615131Y-96847615D01*
X132373881Y-96702930D01*
X132109040Y-96608091D01*
X131887000Y-96729376D01*
X131633000Y-96729376D01*
X131410960Y-96608091D01*
X131146119Y-96702930D01*
X130904869Y-96847615D01*
X130696481Y-97036586D01*
X130528963Y-97262580D01*
X130408754Y-97516913D01*
X130368096Y-97650961D01*
X128084319Y-97650961D01*
X127923210Y-97128434D01*
X127667704Y-96650416D01*
X127275340Y-96404265D01*
X125429605Y-98250000D01*
X125070395Y-98250000D01*
X123224660Y-96404265D01*
X122832296Y-96650416D01*
X122566688Y-97152822D01*
X122404199Y-97697393D01*
X122351072Y-98263199D01*
X122138425Y-98263199D01*
X122135000Y-98230620D01*
X122135000Y-96224660D01*
X123404265Y-96224660D01*
X125250000Y-98070395D01*
X127095735Y-96224660D01*
X126849584Y-95832296D01*
X126347178Y-95566688D01*
X125802607Y-95404199D01*
X125236801Y-95351072D01*
X124671502Y-95409348D01*
X124128434Y-95576790D01*
X123650416Y-95832296D01*
X123404265Y-96224660D01*
X122135000Y-96224660D01*
X122135000Y-93558665D01*
X123865000Y-93558665D01*
X123865000Y-93841335D01*
X123920147Y-94118574D01*
X124028320Y-94379727D01*
X124185363Y-94614759D01*
X124385241Y-94814637D01*
X124620273Y-94971680D01*
X124881426Y-95079853D01*
X125158665Y-95135000D01*
X125441335Y-95135000D01*
X125718574Y-95079853D01*
X125979727Y-94971680D01*
X126214759Y-94814637D01*
X126414637Y-94614759D01*
X126571680Y-94379727D01*
X126679853Y-94118574D01*
X126693684Y-94049039D01*
X139148096Y-94049039D01*
X139188754Y-94183087D01*
X139308963Y-94437420D01*
X139476481Y-94663414D01*
X139684869Y-94852385D01*
X139926119Y-94997070D01*
X140190960Y-95091909D01*
X140413000Y-94970624D01*
X140413000Y-93827000D01*
X140667000Y-93827000D01*
X140667000Y-94970624D01*
X140889040Y-95091909D01*
X141153881Y-94997070D01*
X141395131Y-94852385D01*
X141603519Y-94663414D01*
X141771037Y-94437420D01*
X141891246Y-94183087D01*
X141931904Y-94049039D01*
X141900953Y-93992702D01*
X147186903Y-93992702D01*
X147258486Y-94236671D01*
X147513996Y-94357571D01*
X147788184Y-94426300D01*
X148070512Y-94440217D01*
X148350130Y-94398787D01*
X148616292Y-94303603D01*
X148741514Y-94236671D01*
X148813097Y-93992702D01*
X148000000Y-93179605D01*
X147186903Y-93992702D01*
X141900953Y-93992702D01*
X141809915Y-93827000D01*
X140667000Y-93827000D01*
X140413000Y-93827000D01*
X139270085Y-93827000D01*
X139148096Y-94049039D01*
X126693684Y-94049039D01*
X126735000Y-93841335D01*
X126735000Y-93558665D01*
X126679853Y-93281426D01*
X126571680Y-93020273D01*
X126414637Y-92785241D01*
X126214759Y-92585363D01*
X125979727Y-92428320D01*
X125718574Y-92320147D01*
X125441335Y-92265000D01*
X125158665Y-92265000D01*
X124881426Y-92320147D01*
X124620273Y-92428320D01*
X124385241Y-92585363D01*
X124185363Y-92785241D01*
X124028320Y-93020273D01*
X123920147Y-93281426D01*
X123865000Y-93558665D01*
X122135000Y-93558665D01*
X122135000Y-89758665D01*
X123865000Y-89758665D01*
X123865000Y-90041335D01*
X123920147Y-90318574D01*
X124028320Y-90579727D01*
X124185363Y-90814759D01*
X124385241Y-91014637D01*
X124620273Y-91171680D01*
X124881426Y-91279853D01*
X125158665Y-91335000D01*
X125441335Y-91335000D01*
X125718574Y-91279853D01*
X125979727Y-91171680D01*
X126214759Y-91014637D01*
X126414637Y-90814759D01*
X126571680Y-90579727D01*
X126679853Y-90318574D01*
X126735000Y-90041335D01*
X126735000Y-89758665D01*
X126679853Y-89481426D01*
X126571680Y-89220273D01*
X126414637Y-88985241D01*
X126214759Y-88785363D01*
X125979727Y-88628320D01*
X125718574Y-88520147D01*
X125441335Y-88465000D01*
X125158665Y-88465000D01*
X124881426Y-88520147D01*
X124620273Y-88628320D01*
X124385241Y-88785363D01*
X124185363Y-88985241D01*
X124028320Y-89220273D01*
X123920147Y-89481426D01*
X123865000Y-89758665D01*
X122135000Y-89758665D01*
X122135000Y-85124916D01*
X124480000Y-85124916D01*
X124480000Y-85375084D01*
X124528805Y-85620445D01*
X124624541Y-85851571D01*
X124763527Y-86059578D01*
X124940422Y-86236473D01*
X125148429Y-86375459D01*
X125379555Y-86471195D01*
X125624916Y-86520000D01*
X125875084Y-86520000D01*
X126120445Y-86471195D01*
X126351571Y-86375459D01*
X126559578Y-86236473D01*
X126736473Y-86059578D01*
X126875459Y-85851571D01*
X126971195Y-85620445D01*
X127020000Y-85375084D01*
X127020000Y-85124916D01*
X127980001Y-85124916D01*
X127980001Y-85375084D01*
X128028806Y-85620445D01*
X128124542Y-85851571D01*
X128263528Y-86059578D01*
X128440423Y-86236473D01*
X128648430Y-86375459D01*
X128879556Y-86471195D01*
X129124917Y-86520000D01*
X129375085Y-86520000D01*
X129620446Y-86471195D01*
X129851572Y-86375459D01*
X130059579Y-86236473D01*
X130236474Y-86059578D01*
X130375460Y-85851571D01*
X130471196Y-85620445D01*
X130520001Y-85375084D01*
X130520001Y-85124916D01*
X130471196Y-84879555D01*
X130375460Y-84648429D01*
X130236474Y-84440422D01*
X130059579Y-84263527D01*
X129851572Y-84124541D01*
X129620446Y-84028805D01*
X129375085Y-83980000D01*
X129124917Y-83980000D01*
X128879556Y-84028805D01*
X128648430Y-84124541D01*
X128440423Y-84263527D01*
X128263528Y-84440422D01*
X128124542Y-84648429D01*
X128028806Y-84879555D01*
X127980001Y-85124916D01*
X127020000Y-85124916D01*
X126971195Y-84879555D01*
X126875459Y-84648429D01*
X126736473Y-84440422D01*
X126559578Y-84263527D01*
X126351571Y-84124541D01*
X126120445Y-84028805D01*
X125875084Y-83980000D01*
X125624916Y-83980000D01*
X125379555Y-84028805D01*
X125148429Y-84124541D01*
X124940422Y-84263527D01*
X124763527Y-84440422D01*
X124624541Y-84648429D01*
X124528805Y-84879555D01*
X124480000Y-85124916D01*
X122135000Y-85124916D01*
X122135000Y-81124916D01*
X124480000Y-81124916D01*
X124480000Y-81375084D01*
X124528805Y-81620445D01*
X124624541Y-81851571D01*
X124763527Y-82059578D01*
X124940422Y-82236473D01*
X125148429Y-82375459D01*
X125379555Y-82471195D01*
X125624916Y-82520000D01*
X125875084Y-82520000D01*
X126120445Y-82471195D01*
X126351571Y-82375459D01*
X126559578Y-82236473D01*
X126736473Y-82059578D01*
X126875459Y-81851571D01*
X126971195Y-81620445D01*
X127020000Y-81375084D01*
X127020000Y-81124917D01*
X128980000Y-81124917D01*
X128980000Y-81375085D01*
X129028805Y-81620446D01*
X129124541Y-81851572D01*
X129263527Y-82059579D01*
X129440422Y-82236474D01*
X129648429Y-82375460D01*
X129879555Y-82471196D01*
X130124916Y-82520001D01*
X130375084Y-82520001D01*
X130620445Y-82471196D01*
X130851571Y-82375460D01*
X131059578Y-82236474D01*
X131236473Y-82059579D01*
X131375459Y-81851572D01*
X131471195Y-81620446D01*
X131520000Y-81375085D01*
X131520000Y-81124917D01*
X131471195Y-80879556D01*
X131375459Y-80648430D01*
X131236473Y-80440423D01*
X131059578Y-80263528D01*
X130851571Y-80124542D01*
X130620445Y-80028806D01*
X130375084Y-79980001D01*
X130124916Y-79980001D01*
X129879555Y-80028806D01*
X129648429Y-80124542D01*
X129440422Y-80263528D01*
X129263527Y-80440423D01*
X129124541Y-80648430D01*
X129028805Y-80879556D01*
X128980000Y-81124917D01*
X127020000Y-81124917D01*
X127020000Y-81124916D01*
X126971195Y-80879555D01*
X126875459Y-80648429D01*
X126736473Y-80440422D01*
X126559578Y-80263527D01*
X126351571Y-80124541D01*
X126120445Y-80028805D01*
X125875084Y-79980000D01*
X125624916Y-79980000D01*
X125379555Y-80028805D01*
X125148429Y-80124541D01*
X124940422Y-80263527D01*
X124763527Y-80440422D01*
X124624541Y-80648429D01*
X124528805Y-80879555D01*
X124480000Y-81124916D01*
X122135000Y-81124916D01*
X122135000Y-77624915D01*
X124480000Y-77624915D01*
X124480000Y-77875083D01*
X124528805Y-78120444D01*
X124624541Y-78351570D01*
X124763527Y-78559577D01*
X124940422Y-78736472D01*
X125148429Y-78875458D01*
X125379555Y-78971194D01*
X125624916Y-79019999D01*
X125875084Y-79019999D01*
X126120445Y-78971194D01*
X126351571Y-78875458D01*
X126559578Y-78736472D01*
X126736473Y-78559577D01*
X126875459Y-78351570D01*
X126971195Y-78120444D01*
X127020000Y-77875083D01*
X127020000Y-77624916D01*
X128980000Y-77624916D01*
X128980000Y-77875084D01*
X129028805Y-78120445D01*
X129124541Y-78351571D01*
X129263527Y-78559578D01*
X129440422Y-78736473D01*
X129648429Y-78875459D01*
X129879555Y-78971195D01*
X130124916Y-79020000D01*
X130375084Y-79020000D01*
X130620445Y-78971195D01*
X130851571Y-78875459D01*
X131059578Y-78736473D01*
X131236473Y-78559578D01*
X131375459Y-78351571D01*
X131471195Y-78120445D01*
X131520000Y-77875084D01*
X131520000Y-77624916D01*
X131471195Y-77379555D01*
X131375459Y-77148429D01*
X131236473Y-76940422D01*
X131059578Y-76763527D01*
X130851571Y-76624541D01*
X130620445Y-76528805D01*
X130375084Y-76480000D01*
X130124916Y-76480000D01*
X129879555Y-76528805D01*
X129648429Y-76624541D01*
X129440422Y-76763527D01*
X129263527Y-76940422D01*
X129124541Y-77148429D01*
X129028805Y-77379555D01*
X128980000Y-77624916D01*
X127020000Y-77624916D01*
X127020000Y-77624915D01*
X126971195Y-77379554D01*
X126875459Y-77148428D01*
X126736473Y-76940421D01*
X126559578Y-76763526D01*
X126351571Y-76624540D01*
X126120445Y-76528804D01*
X125875084Y-76479999D01*
X125624916Y-76479999D01*
X125379555Y-76528804D01*
X125148429Y-76624540D01*
X124940422Y-76763526D01*
X124763527Y-76940421D01*
X124624541Y-77148428D01*
X124528805Y-77379554D01*
X124480000Y-77624915D01*
X122135000Y-77624915D01*
X122135000Y-75275340D01*
X123404265Y-75275340D01*
X123650416Y-75667704D01*
X124152822Y-75933312D01*
X124697393Y-76095801D01*
X125263199Y-76148928D01*
X125828498Y-76090652D01*
X126371566Y-75923210D01*
X126849584Y-75667704D01*
X127095735Y-75275340D01*
X125250000Y-73429605D01*
X123404265Y-75275340D01*
X122135000Y-75275340D01*
X122135000Y-73293280D01*
X122137949Y-73263199D01*
X122351072Y-73263199D01*
X122409348Y-73828498D01*
X122576790Y-74371566D01*
X122832296Y-74849584D01*
X123224660Y-75095735D01*
X125070395Y-73250000D01*
X125429605Y-73250000D01*
X127275340Y-75095735D01*
X127667704Y-74849584D01*
X127933312Y-74347178D01*
X128009242Y-74092702D01*
X132086903Y-74092702D01*
X132158486Y-74336671D01*
X132413996Y-74457571D01*
X132688184Y-74526300D01*
X132970512Y-74540217D01*
X133250130Y-74498787D01*
X133516292Y-74403603D01*
X133641514Y-74336671D01*
X133713097Y-74092702D01*
X132900000Y-73279605D01*
X132086903Y-74092702D01*
X128009242Y-74092702D01*
X128095801Y-73802607D01*
X128148928Y-73236801D01*
X128142095Y-73170512D01*
X131459783Y-73170512D01*
X131501213Y-73450130D01*
X131596397Y-73716292D01*
X131663329Y-73841514D01*
X131907298Y-73913097D01*
X132720395Y-73100000D01*
X133079605Y-73100000D01*
X133892702Y-73913097D01*
X133961928Y-73892785D01*
X133961928Y-73900000D01*
X133974188Y-74024482D01*
X134010498Y-74144180D01*
X134069463Y-74254494D01*
X134148815Y-74351185D01*
X134245506Y-74430537D01*
X134355820Y-74489502D01*
X134475518Y-74525812D01*
X134600000Y-74538072D01*
X136200000Y-74538072D01*
X136324482Y-74525812D01*
X136444180Y-74489502D01*
X136554494Y-74430537D01*
X136651185Y-74351185D01*
X136730537Y-74254494D01*
X136789502Y-74144180D01*
X136825812Y-74024482D01*
X136838072Y-73900000D01*
X136838072Y-72300000D01*
X136825812Y-72175518D01*
X136789502Y-72055820D01*
X136730537Y-71945506D01*
X136651185Y-71848815D01*
X136554494Y-71769463D01*
X136444180Y-71710498D01*
X136324482Y-71674188D01*
X136200000Y-71661928D01*
X134600000Y-71661928D01*
X134475518Y-71674188D01*
X134355820Y-71710498D01*
X134245506Y-71769463D01*
X134148815Y-71848815D01*
X134069463Y-71945506D01*
X134010498Y-72055820D01*
X133974188Y-72175518D01*
X133961928Y-72300000D01*
X133961928Y-72307215D01*
X133892702Y-72286903D01*
X133079605Y-73100000D01*
X132720395Y-73100000D01*
X131907298Y-72286903D01*
X131663329Y-72358486D01*
X131542429Y-72613996D01*
X131473700Y-72888184D01*
X131459783Y-73170512D01*
X128142095Y-73170512D01*
X128090652Y-72671502D01*
X127923210Y-72128434D01*
X127911913Y-72107298D01*
X132086903Y-72107298D01*
X132900000Y-72920395D01*
X133713097Y-72107298D01*
X133641514Y-71863329D01*
X133386004Y-71742429D01*
X133111816Y-71673700D01*
X132829488Y-71659783D01*
X132549870Y-71701213D01*
X132283708Y-71796397D01*
X132158486Y-71863329D01*
X132086903Y-72107298D01*
X127911913Y-72107298D01*
X127667704Y-71650416D01*
X127275340Y-71404265D01*
X125429605Y-73250000D01*
X125070395Y-73250000D01*
X123224660Y-71404265D01*
X122832296Y-71650416D01*
X122566688Y-72152822D01*
X122404199Y-72697393D01*
X122351072Y-73263199D01*
X122137949Y-73263199D01*
X122198487Y-72645787D01*
X122373963Y-72064584D01*
X122658986Y-71528534D01*
X122906818Y-71224660D01*
X123404265Y-71224660D01*
X125250000Y-73070395D01*
X127095735Y-71224660D01*
X126849584Y-70832296D01*
X126347178Y-70566688D01*
X125802607Y-70404199D01*
X125236801Y-70351072D01*
X124671502Y-70409348D01*
X124128434Y-70576790D01*
X123650416Y-70832296D01*
X123404265Y-71224660D01*
X122906818Y-71224660D01*
X123042700Y-71058053D01*
X123510484Y-70671068D01*
X124044537Y-70382307D01*
X124624496Y-70202780D01*
X125269381Y-70135000D01*
X143252792Y-70135000D01*
X143109687Y-70178411D01*
G37*
X143109687Y-70178411D02*
X142955941Y-70260589D01*
X142955939Y-70260590D01*
X142955940Y-70260590D01*
X142854953Y-70343468D01*
X142854951Y-70343470D01*
X142821183Y-70371183D01*
X142793470Y-70404951D01*
X141907472Y-71290949D01*
X141899741Y-71287747D01*
X141535625Y-71215320D01*
X141164375Y-71215320D01*
X140800259Y-71287747D01*
X140457269Y-71429818D01*
X140148587Y-71636074D01*
X139886074Y-71898587D01*
X139679818Y-72207269D01*
X139537747Y-72550259D01*
X139465320Y-72914375D01*
X139465320Y-73285625D01*
X139537747Y-73649741D01*
X139679818Y-73992731D01*
X139886074Y-74301413D01*
X140148587Y-74563926D01*
X140457269Y-74770182D01*
X140800259Y-74912253D01*
X141164375Y-74984680D01*
X141535625Y-74984680D01*
X141899741Y-74912253D01*
X142242731Y-74770182D01*
X142551413Y-74563926D01*
X142701734Y-74413605D01*
X145166000Y-74413605D01*
X145291914Y-74703577D01*
X145624126Y-74869433D01*
X145982312Y-74967290D01*
X146352706Y-74993389D01*
X146721075Y-74946725D01*
X147073262Y-74829094D01*
X147308086Y-74703577D01*
X147434000Y-74413605D01*
X146300000Y-73279605D01*
X145166000Y-74413605D01*
X142701734Y-74413605D01*
X142813926Y-74301413D01*
X143020182Y-73992731D01*
X143162253Y-73649741D01*
X143234680Y-73285625D01*
X143234680Y-72914375D01*
X143162253Y-72550259D01*
X143159051Y-72542528D01*
X143816579Y-71885000D01*
X144905392Y-71885000D01*
X144986393Y-71966001D01*
X144696423Y-72091914D01*
X144530567Y-72424126D01*
X144432710Y-72782312D01*
X144406611Y-73152706D01*
X144453275Y-73521075D01*
X144570906Y-73873262D01*
X144696423Y-74108086D01*
X144986395Y-74234000D01*
X146120395Y-73100000D01*
X146106253Y-73085858D01*
X146285858Y-72906253D01*
X146300000Y-72920395D01*
X146314143Y-72906253D01*
X146493748Y-73085858D01*
X146479605Y-73100000D01*
X147613605Y-74234000D01*
X147903577Y-74108086D01*
X148069433Y-73775874D01*
X148167290Y-73417688D01*
X148182174Y-73206455D01*
X148941048Y-73206455D01*
X148980730Y-73456449D01*
X149068422Y-73693896D01*
X149115799Y-73782534D01*
X149344473Y-73835922D01*
X150050395Y-73130000D01*
X149344473Y-72424078D01*
X149115799Y-72477466D01*
X149009905Y-72707374D01*
X148950898Y-72953524D01*
X148941048Y-73206455D01*
X148182174Y-73206455D01*
X148193389Y-73047294D01*
X148146725Y-72678925D01*
X148029094Y-72326738D01*
X147903577Y-72091914D01*
X147613607Y-71966001D01*
X147694608Y-71885000D01*
X149891989Y-71885000D01*
X149666104Y-71968422D01*
X149577466Y-72015799D01*
X149524078Y-72244473D01*
X150230000Y-72950395D01*
X150935922Y-72244473D01*
X150882534Y-72015799D01*
X150652626Y-71909905D01*
X150548734Y-71885000D01*
X151893944Y-71885000D01*
X151875820Y-71890498D01*
X151765506Y-71949463D01*
X151668815Y-72028815D01*
X151589463Y-72125506D01*
X151530498Y-72235820D01*
X151494188Y-72355518D01*
X151481928Y-72480000D01*
X151481928Y-72820296D01*
X151479270Y-72803551D01*
X151391578Y-72566104D01*
X151344201Y-72477466D01*
X151115527Y-72424078D01*
X150409605Y-73130000D01*
X150423748Y-73144143D01*
X150244143Y-73323748D01*
X150230000Y-73309605D01*
X149524078Y-74015527D01*
X149577466Y-74244201D01*
X149807374Y-74350095D01*
X150053524Y-74409102D01*
X150215000Y-74415390D01*
X150215000Y-74526561D01*
X150264381Y-74774821D01*
X150361247Y-75008676D01*
X150501875Y-75219140D01*
X150615000Y-75332265D01*
X150615000Y-75615000D01*
X149443465Y-75615000D01*
X149399999Y-75610719D01*
X149356533Y-75615000D01*
X149356523Y-75615000D01*
X149226510Y-75627805D01*
X149059687Y-75678411D01*
X148905941Y-75760589D01*
X148905939Y-75760590D01*
X148905940Y-75760590D01*
X148804953Y-75843468D01*
X148804951Y-75843470D01*
X148771183Y-75871183D01*
X148743470Y-75904951D01*
X141783422Y-82865000D01*
X136644521Y-82865000D01*
X136624637Y-82835241D01*
X136424759Y-82635363D01*
X136189727Y-82478320D01*
X135928574Y-82370147D01*
X135651335Y-82315000D01*
X135368665Y-82315000D01*
X135091426Y-82370147D01*
X134830273Y-82478320D01*
X134595241Y-82635363D01*
X134395363Y-82835241D01*
X134385000Y-82850750D01*
X134385000Y-80364396D01*
X134485241Y-80464637D01*
X134720273Y-80621680D01*
X134981426Y-80729853D01*
X135258665Y-80785000D01*
X135541335Y-80785000D01*
X135818574Y-80729853D01*
X136079727Y-80621680D01*
X136314759Y-80464637D01*
X136514637Y-80264759D01*
X136671680Y-80029727D01*
X136779853Y-79768574D01*
X136835000Y-79491335D01*
X136835000Y-79208665D01*
X136779853Y-78931426D01*
X136671680Y-78670273D01*
X136514637Y-78435241D01*
X136314759Y-78235363D01*
X136079727Y-78078320D01*
X135818574Y-77970147D01*
X135541335Y-77915000D01*
X135258665Y-77915000D01*
X134981426Y-77970147D01*
X134720273Y-78078320D01*
X134485241Y-78235363D01*
X134285363Y-78435241D01*
X134265479Y-78465000D01*
X133693466Y-78465000D01*
X133649999Y-78460719D01*
X133606533Y-78465000D01*
X133606523Y-78465000D01*
X133476510Y-78477805D01*
X133309687Y-78528411D01*
X133155941Y-78610589D01*
X133021183Y-78721183D01*
X132993466Y-78754956D01*
X132904956Y-78843466D01*
X132871183Y-78871183D01*
X132760589Y-79005942D01*
X132678411Y-79159688D01*
X132627805Y-79326511D01*
X132615000Y-79456524D01*
X132615000Y-79456531D01*
X132610719Y-79500000D01*
X132615000Y-79543469D01*
X132615001Y-89456521D01*
X132610719Y-89500000D01*
X132627805Y-89673490D01*
X132678412Y-89840313D01*
X132760590Y-89994059D01*
X132843468Y-90095046D01*
X132843471Y-90095049D01*
X132871184Y-90128817D01*
X132904951Y-90156529D01*
X135343470Y-92595049D01*
X135371183Y-92628817D01*
X135404951Y-92656530D01*
X135404953Y-92656532D01*
X135502499Y-92736586D01*
X135505941Y-92739411D01*
X135659687Y-92821589D01*
X135826510Y-92872195D01*
X135956523Y-92885000D01*
X135956531Y-92885000D01*
X136000000Y-92889281D01*
X136043469Y-92885000D01*
X139366469Y-92885000D01*
X139308963Y-92962580D01*
X139188754Y-93216913D01*
X139148096Y-93350961D01*
X139270085Y-93573000D01*
X140413000Y-93573000D01*
X140413000Y-93553000D01*
X140667000Y-93553000D01*
X140667000Y-93573000D01*
X141809915Y-93573000D01*
X141931904Y-93350961D01*
X141891246Y-93216913D01*
X141822051Y-93070512D01*
X146559783Y-93070512D01*
X146601213Y-93350130D01*
X146696397Y-93616292D01*
X146763329Y-93741514D01*
X147007298Y-93813097D01*
X147820395Y-93000000D01*
X147007298Y-92186903D01*
X146763329Y-92258486D01*
X146642429Y-92513996D01*
X146573700Y-92788184D01*
X146559783Y-93070512D01*
X141822051Y-93070512D01*
X141771037Y-92962580D01*
X141713531Y-92885000D01*
X145456531Y-92885000D01*
X145500000Y-92889281D01*
X145543469Y-92885000D01*
X145543477Y-92885000D01*
X145673490Y-92872195D01*
X145840313Y-92821589D01*
X145994059Y-92739411D01*
X146128817Y-92628817D01*
X146156534Y-92595044D01*
X146744280Y-92007298D01*
X147186903Y-92007298D01*
X148000000Y-92820395D01*
X148813097Y-92007298D01*
X148741514Y-91763329D01*
X148486004Y-91642429D01*
X148211816Y-91573700D01*
X147929488Y-91559783D01*
X147649870Y-91601213D01*
X147383708Y-91696397D01*
X147258486Y-91763329D01*
X147186903Y-92007298D01*
X146744280Y-92007298D01*
X147366579Y-91385000D01*
X149615000Y-91385000D01*
X149615000Y-91570299D01*
X149575518Y-91574188D01*
X149455820Y-91610498D01*
X149345506Y-91669463D01*
X149248815Y-91748815D01*
X149169463Y-91845506D01*
X149110498Y-91955820D01*
X149074188Y-92075518D01*
X149061928Y-92200000D01*
X149061928Y-92207215D01*
X148992702Y-92186903D01*
X148179605Y-93000000D01*
X148992702Y-93813097D01*
X149061928Y-93792785D01*
X149061928Y-93800000D01*
X149074188Y-93924482D01*
X149110498Y-94044180D01*
X149169463Y-94154494D01*
X149248815Y-94251185D01*
X149345506Y-94330537D01*
X149455820Y-94389502D01*
X149575518Y-94425812D01*
X149700000Y-94438072D01*
X151300000Y-94438072D01*
X151424482Y-94425812D01*
X151544180Y-94389502D01*
X151654494Y-94330537D01*
X151751185Y-94251185D01*
X151830537Y-94154494D01*
X151889502Y-94044180D01*
X151925812Y-93924482D01*
X151938072Y-93800000D01*
X151938072Y-92200000D01*
X151925812Y-92075518D01*
X151889502Y-91955820D01*
X151830537Y-91845506D01*
X151751185Y-91748815D01*
X151654494Y-91669463D01*
X151544180Y-91610498D01*
X151424482Y-91574188D01*
X151385000Y-91570299D01*
X151385000Y-91043469D01*
X151389281Y-91000000D01*
X151385000Y-90956531D01*
X151385000Y-90956523D01*
X151372195Y-90826510D01*
X151321589Y-90659687D01*
X151239411Y-90505941D01*
X151128817Y-90371183D01*
X151095045Y-90343467D01*
X150656534Y-89904956D01*
X150628817Y-89871183D01*
X150494059Y-89760589D01*
X150340313Y-89678411D01*
X150173490Y-89627805D01*
X150043477Y-89615000D01*
X150043469Y-89615000D01*
X150000000Y-89610719D01*
X149956531Y-89615000D01*
X147251647Y-89615000D01*
X147289502Y-89544180D01*
X147325812Y-89424482D01*
X147338072Y-89300000D01*
X147338072Y-87700000D01*
X147325812Y-87575518D01*
X147289502Y-87455820D01*
X147230537Y-87345506D01*
X147151185Y-87248815D01*
X147054494Y-87169463D01*
X146944180Y-87110498D01*
X146824482Y-87074188D01*
X146700000Y-87061928D01*
X145100000Y-87061928D01*
X144975518Y-87074188D01*
X144855820Y-87110498D01*
X144745506Y-87169463D01*
X144648815Y-87248815D01*
X144569463Y-87345506D01*
X144510498Y-87455820D01*
X144481339Y-87551943D01*
X144314759Y-87385363D01*
X144285000Y-87365479D01*
X144285000Y-86966578D01*
X148866579Y-82385000D01*
X150295568Y-82385000D01*
X150070273Y-82478320D01*
X149835241Y-82635363D01*
X149635363Y-82835241D01*
X149478320Y-83070273D01*
X149370147Y-83331426D01*
X149315000Y-83608665D01*
X149315000Y-83891335D01*
X149370147Y-84168574D01*
X149478320Y-84429727D01*
X149635363Y-84664759D01*
X149835241Y-84864637D01*
X150070273Y-85021680D01*
X150331426Y-85129853D01*
X150608665Y-85185000D01*
X150891335Y-85185000D01*
X151168574Y-85129853D01*
X151429727Y-85021680D01*
X151664759Y-84864637D01*
X151864637Y-84664759D01*
X152021680Y-84429727D01*
X152129853Y-84168574D01*
X152185000Y-83891335D01*
X152185000Y-83608665D01*
X152129853Y-83331426D01*
X152021680Y-83070273D01*
X151864637Y-82835241D01*
X151664759Y-82635363D01*
X151429727Y-82478320D01*
X151204432Y-82385000D01*
X152456531Y-82385000D01*
X152500000Y-82389281D01*
X152543469Y-82385000D01*
X152543477Y-82385000D01*
X152673490Y-82372195D01*
X152840313Y-82321589D01*
X152994059Y-82239411D01*
X153128817Y-82128817D01*
X153156534Y-82095044D01*
X156366579Y-78885000D01*
X157468741Y-78885000D01*
X157636238Y-79052497D01*
X157858167Y-79200785D01*
X158104761Y-79302928D01*
X158366544Y-79355000D01*
X158393422Y-79355000D01*
X156134952Y-81613470D01*
X156101184Y-81641183D01*
X156073471Y-81674951D01*
X156073468Y-81674954D01*
X155990590Y-81775941D01*
X155908412Y-81929687D01*
X155857805Y-82096510D01*
X155840719Y-82270000D01*
X155845001Y-82313479D01*
X155845001Y-83027713D01*
X155835820Y-83030498D01*
X155725506Y-83089463D01*
X155628815Y-83168815D01*
X155549463Y-83265506D01*
X155490498Y-83375820D01*
X155454188Y-83495518D01*
X155441928Y-83620000D01*
X155441928Y-84920000D01*
X155454188Y-85044482D01*
X155490498Y-85164180D01*
X155549463Y-85274494D01*
X155583028Y-85315393D01*
X153404956Y-87493466D01*
X153371183Y-87521183D01*
X153260589Y-87655942D01*
X153216719Y-87738018D01*
X153114637Y-87585241D01*
X152914759Y-87385363D01*
X152679727Y-87228320D01*
X152418574Y-87120147D01*
X152141335Y-87065000D01*
X151858665Y-87065000D01*
X151581426Y-87120147D01*
X151320273Y-87228320D01*
X151085241Y-87385363D01*
X150885363Y-87585241D01*
X150728320Y-87820273D01*
X150620147Y-88081426D01*
X150565000Y-88358665D01*
X150565000Y-88641335D01*
X150620147Y-88918574D01*
X150728320Y-89179727D01*
X150885363Y-89414759D01*
X151085241Y-89614637D01*
X151320273Y-89771680D01*
X151581426Y-89879853D01*
X151858665Y-89935000D01*
X152141335Y-89935000D01*
X152418574Y-89879853D01*
X152679727Y-89771680D01*
X152914759Y-89614637D01*
X153114637Y-89414759D01*
X153115000Y-89414215D01*
X153115001Y-91624940D01*
X152957748Y-91730013D01*
X152730013Y-91957748D01*
X152551082Y-92225537D01*
X152427832Y-92523088D01*
X152365000Y-92838967D01*
X152365000Y-93161033D01*
X152427832Y-93476912D01*
X152551082Y-93774463D01*
X152730013Y-94042252D01*
X152957748Y-94269987D01*
X153225537Y-94448918D01*
X153523088Y-94572168D01*
X153838967Y-94635000D01*
X154161033Y-94635000D01*
X154476912Y-94572168D01*
X154774463Y-94448918D01*
X155042252Y-94269987D01*
X155269987Y-94042252D01*
X155448918Y-93774463D01*
X155572168Y-93476912D01*
X155635000Y-93161033D01*
X155635000Y-92838967D01*
X155865000Y-92838967D01*
X155865000Y-93161033D01*
X155927832Y-93476912D01*
X156051082Y-93774463D01*
X156230013Y-94042252D01*
X156457748Y-94269987D01*
X156725537Y-94448918D01*
X157023088Y-94572168D01*
X157338967Y-94635000D01*
X157661033Y-94635000D01*
X157976912Y-94572168D01*
X158274463Y-94448918D01*
X158542252Y-94269987D01*
X158769987Y-94042252D01*
X158948918Y-93774463D01*
X159072168Y-93476912D01*
X159135000Y-93161033D01*
X159135000Y-92838967D01*
X159072168Y-92523088D01*
X158948918Y-92225537D01*
X158769987Y-91957748D01*
X158542252Y-91730013D01*
X158274463Y-91551082D01*
X157976912Y-91427832D01*
X157661033Y-91365000D01*
X157338967Y-91365000D01*
X157023088Y-91427832D01*
X156725537Y-91551082D01*
X156457748Y-91730013D01*
X156230013Y-91957748D01*
X156051082Y-92225537D01*
X155927832Y-92523088D01*
X155865000Y-92838967D01*
X155635000Y-92838967D01*
X155572168Y-92523088D01*
X155448918Y-92225537D01*
X155269987Y-91957748D01*
X155042252Y-91730013D01*
X154885000Y-91624941D01*
X154885000Y-88516578D01*
X157151146Y-86250433D01*
X157178411Y-86340312D01*
X157260589Y-86494058D01*
X157371183Y-86628817D01*
X157404956Y-86656534D01*
X160843470Y-90095049D01*
X160871183Y-90128817D01*
X160904951Y-90156530D01*
X160904953Y-90156532D01*
X160931613Y-90178411D01*
X161005941Y-90239411D01*
X161159687Y-90321589D01*
X161326510Y-90372195D01*
X161456523Y-90385000D01*
X161456533Y-90385000D01*
X161499999Y-90389281D01*
X161543465Y-90385000D01*
X162133422Y-90385000D01*
X162615001Y-90866580D01*
X162615000Y-92738422D01*
X162572168Y-92523088D01*
X162448918Y-92225537D01*
X162269987Y-91957748D01*
X162042252Y-91730013D01*
X161774463Y-91551082D01*
X161476912Y-91427832D01*
X161161033Y-91365000D01*
X160838967Y-91365000D01*
X160523088Y-91427832D01*
X160225537Y-91551082D01*
X159957748Y-91730013D01*
X159730013Y-91957748D01*
X159551082Y-92225537D01*
X159427832Y-92523088D01*
X159365000Y-92838967D01*
X159365000Y-93161033D01*
X159427832Y-93476912D01*
X159551082Y-93774463D01*
X159730013Y-94042252D01*
X159957748Y-94269987D01*
X160225537Y-94448918D01*
X160523088Y-94572168D01*
X160838967Y-94635000D01*
X161161033Y-94635000D01*
X161476912Y-94572168D01*
X161774463Y-94448918D01*
X161849927Y-94398495D01*
X160404951Y-95843471D01*
X160371184Y-95871183D01*
X160343471Y-95904951D01*
X160343468Y-95904954D01*
X160260590Y-96005941D01*
X160178412Y-96159687D01*
X160127805Y-96326510D01*
X160110719Y-96500000D01*
X160115001Y-96543479D01*
X160115001Y-96624940D01*
X159957748Y-96730013D01*
X159730013Y-96957748D01*
X159551082Y-97225537D01*
X159427832Y-97523088D01*
X159365000Y-97838967D01*
X159365000Y-98161033D01*
X159427832Y-98476912D01*
X159551082Y-98774463D01*
X159730013Y-99042252D01*
X159957748Y-99269987D01*
X160225537Y-99448918D01*
X160523088Y-99572168D01*
X160838967Y-99635000D01*
X161161033Y-99635000D01*
X161476912Y-99572168D01*
X161774463Y-99448918D01*
X162042252Y-99269987D01*
X162269987Y-99042252D01*
X162448918Y-98774463D01*
X162484394Y-98688817D01*
X162635363Y-98914759D01*
X162835241Y-99114637D01*
X163070273Y-99271680D01*
X163331426Y-99379853D01*
X163608665Y-99435000D01*
X163891335Y-99435000D01*
X164168574Y-99379853D01*
X164429727Y-99271680D01*
X164664759Y-99114637D01*
X164864637Y-98914759D01*
X165021680Y-98679727D01*
X165129853Y-98418574D01*
X165185000Y-98141335D01*
X165185000Y-97858665D01*
X177555000Y-97858665D01*
X177555000Y-98141335D01*
X177610147Y-98418574D01*
X177718320Y-98679727D01*
X177875363Y-98914759D01*
X178075241Y-99114637D01*
X178310273Y-99271680D01*
X178571426Y-99379853D01*
X178848665Y-99435000D01*
X179131335Y-99435000D01*
X179408574Y-99379853D01*
X179669727Y-99271680D01*
X179904759Y-99114637D01*
X180104637Y-98914759D01*
X180261680Y-98679727D01*
X180369853Y-98418574D01*
X180400759Y-98263199D01*
X187351072Y-98263199D01*
X187409348Y-98828498D01*
X187576790Y-99371566D01*
X187832296Y-99849584D01*
X188224660Y-100095735D01*
X190070395Y-98250000D01*
X190429605Y-98250000D01*
X192275340Y-100095735D01*
X192667704Y-99849584D01*
X192933312Y-99347178D01*
X193095801Y-98802607D01*
X193148928Y-98236801D01*
X193090652Y-97671502D01*
X192923210Y-97128434D01*
X192667704Y-96650416D01*
X192275340Y-96404265D01*
X190429605Y-98250000D01*
X190070395Y-98250000D01*
X188224660Y-96404265D01*
X187832296Y-96650416D01*
X187566688Y-97152822D01*
X187404199Y-97697393D01*
X187351072Y-98263199D01*
X180400759Y-98263199D01*
X180425000Y-98141335D01*
X180425000Y-97858665D01*
X180369853Y-97581426D01*
X180261680Y-97320273D01*
X180104637Y-97085241D01*
X179904759Y-96885363D01*
X179669727Y-96728320D01*
X179408574Y-96620147D01*
X179131335Y-96565000D01*
X178848665Y-96565000D01*
X178571426Y-96620147D01*
X178310273Y-96728320D01*
X178075241Y-96885363D01*
X177875363Y-97085241D01*
X177718320Y-97320273D01*
X177610147Y-97581426D01*
X177555000Y-97858665D01*
X165185000Y-97858665D01*
X165129853Y-97581426D01*
X165021680Y-97320273D01*
X164864637Y-97085241D01*
X164664759Y-96885363D01*
X164429727Y-96728320D01*
X164168574Y-96620147D01*
X163891335Y-96565000D01*
X163608665Y-96565000D01*
X163331426Y-96620147D01*
X163070273Y-96728320D01*
X162835241Y-96885363D01*
X162635363Y-97085241D01*
X162484394Y-97311183D01*
X162448918Y-97225537D01*
X162269987Y-96957748D01*
X162042252Y-96730013D01*
X162029851Y-96721727D01*
X162526918Y-96224660D01*
X188404265Y-96224660D01*
X190250000Y-98070395D01*
X192095735Y-96224660D01*
X191849584Y-95832296D01*
X191347178Y-95566688D01*
X190802607Y-95404199D01*
X190236801Y-95351072D01*
X189671502Y-95409348D01*
X189128434Y-95576790D01*
X188650416Y-95832296D01*
X188404265Y-96224660D01*
X162526918Y-96224660D01*
X164095050Y-94656529D01*
X164128817Y-94628817D01*
X164239411Y-94494059D01*
X164321589Y-94340313D01*
X164372195Y-94173490D01*
X164385000Y-94043477D01*
X164385000Y-94043469D01*
X164389281Y-94000000D01*
X164385000Y-93956531D01*
X164385000Y-90543469D01*
X164389281Y-90500000D01*
X164385000Y-90456531D01*
X164385000Y-90456523D01*
X164372195Y-90326510D01*
X164348694Y-90249039D01*
X164321589Y-90159686D01*
X164239411Y-90005941D01*
X164156532Y-89904953D01*
X164156530Y-89904951D01*
X164128817Y-89871183D01*
X164095049Y-89843470D01*
X163156534Y-88904956D01*
X163128817Y-88871183D01*
X163101835Y-88849039D01*
X165848096Y-88849039D01*
X165888754Y-88983087D01*
X166008963Y-89237420D01*
X166176481Y-89463414D01*
X166384869Y-89652385D01*
X166626119Y-89797070D01*
X166890960Y-89891909D01*
X167113000Y-89770624D01*
X167113000Y-88627000D01*
X167367000Y-88627000D01*
X167367000Y-89770624D01*
X167589040Y-89891909D01*
X167853881Y-89797070D01*
X168095131Y-89652385D01*
X168303519Y-89463414D01*
X168471037Y-89237420D01*
X168591246Y-88983087D01*
X168631904Y-88849039D01*
X168509915Y-88627000D01*
X167367000Y-88627000D01*
X167113000Y-88627000D01*
X165970085Y-88627000D01*
X165848096Y-88849039D01*
X163101835Y-88849039D01*
X162994059Y-88760589D01*
X162840313Y-88678411D01*
X162673490Y-88627805D01*
X162543477Y-88615000D01*
X162543469Y-88615000D01*
X162500000Y-88610719D01*
X162456531Y-88615000D01*
X161866579Y-88615000D01*
X161402540Y-88150961D01*
X165848096Y-88150961D01*
X165970085Y-88373000D01*
X167113000Y-88373000D01*
X167113000Y-87229376D01*
X167367000Y-87229376D01*
X167367000Y-88373000D01*
X168509915Y-88373000D01*
X168610609Y-88189721D01*
X184865000Y-88189721D01*
X184865000Y-88610279D01*
X184947047Y-89022756D01*
X185107988Y-89411302D01*
X185341637Y-89760983D01*
X185639017Y-90058363D01*
X185988698Y-90292012D01*
X186377244Y-90452953D01*
X186789721Y-90535000D01*
X187210279Y-90535000D01*
X187622756Y-90452953D01*
X188011302Y-90292012D01*
X188360983Y-90058363D01*
X188658363Y-89760983D01*
X188892012Y-89411302D01*
X189052953Y-89022756D01*
X189135000Y-88610279D01*
X189135000Y-88189721D01*
X189052953Y-87777244D01*
X188892012Y-87388698D01*
X188658363Y-87039017D01*
X188360983Y-86741637D01*
X188011302Y-86507988D01*
X187622756Y-86347047D01*
X187210279Y-86265000D01*
X186789721Y-86265000D01*
X186377244Y-86347047D01*
X185988698Y-86507988D01*
X185639017Y-86741637D01*
X185341637Y-87039017D01*
X185107988Y-87388698D01*
X184947047Y-87777244D01*
X184865000Y-88189721D01*
X168610609Y-88189721D01*
X168631904Y-88150961D01*
X168591246Y-88016913D01*
X168471037Y-87762580D01*
X168303519Y-87536586D01*
X168095131Y-87347615D01*
X167853881Y-87202930D01*
X167589040Y-87108091D01*
X167367000Y-87229376D01*
X167113000Y-87229376D01*
X166890960Y-87108091D01*
X166626119Y-87202930D01*
X166384869Y-87347615D01*
X166176481Y-87536586D01*
X166008963Y-87762580D01*
X165888754Y-88016913D01*
X165848096Y-88150961D01*
X161402540Y-88150961D01*
X158885000Y-85633422D01*
X158885000Y-85499115D01*
X159093524Y-85549102D01*
X159346455Y-85558952D01*
X159596449Y-85519270D01*
X159606494Y-85515560D01*
X170994045Y-85515560D01*
X171055932Y-85751368D01*
X171297790Y-85864266D01*
X171557027Y-85927811D01*
X171823680Y-85939561D01*
X172087501Y-85899063D01*
X172338353Y-85807875D01*
X172444068Y-85751368D01*
X172505955Y-85515560D01*
X171750000Y-84759605D01*
X170994045Y-85515560D01*
X159606494Y-85515560D01*
X159833896Y-85431578D01*
X159922534Y-85384201D01*
X159975922Y-85155527D01*
X159270000Y-84449605D01*
X159255858Y-84463748D01*
X159076253Y-84284143D01*
X159090395Y-84270000D01*
X159449605Y-84270000D01*
X160155527Y-84975922D01*
X160384201Y-84922534D01*
X160490095Y-84692626D01*
X160499431Y-84653680D01*
X170390439Y-84653680D01*
X170430937Y-84917501D01*
X170522125Y-85168353D01*
X170578632Y-85274068D01*
X170814440Y-85335955D01*
X171570395Y-84580000D01*
X171929605Y-84580000D01*
X172685560Y-85335955D01*
X172921368Y-85274068D01*
X173034266Y-85032210D01*
X173097811Y-84772973D01*
X173109561Y-84506320D01*
X173069063Y-84242499D01*
X172977875Y-83991647D01*
X172921368Y-83885932D01*
X172685560Y-83824045D01*
X171929605Y-84580000D01*
X171570395Y-84580000D01*
X170814440Y-83824045D01*
X170578632Y-83885932D01*
X170465734Y-84127790D01*
X170402189Y-84387027D01*
X170390439Y-84653680D01*
X160499431Y-84653680D01*
X160549102Y-84446476D01*
X160558952Y-84193545D01*
X160519270Y-83943551D01*
X160431578Y-83706104D01*
X160398619Y-83644440D01*
X170994045Y-83644440D01*
X171750000Y-84400395D01*
X172505955Y-83644440D01*
X172444068Y-83408632D01*
X172202210Y-83295734D01*
X171942973Y-83232189D01*
X171676320Y-83220439D01*
X171412499Y-83260937D01*
X171161647Y-83352125D01*
X171055932Y-83408632D01*
X170994045Y-83644440D01*
X160398619Y-83644440D01*
X160384201Y-83617466D01*
X160155527Y-83564078D01*
X159449605Y-84270000D01*
X159090395Y-84270000D01*
X159076253Y-84255858D01*
X159255858Y-84076253D01*
X159270000Y-84090395D01*
X159975922Y-83384473D01*
X159922534Y-83155799D01*
X159692626Y-83049905D01*
X159446476Y-82990898D01*
X159285000Y-82984610D01*
X159285000Y-82873439D01*
X159235619Y-82625179D01*
X159138753Y-82391324D01*
X158998125Y-82180860D01*
X158819140Y-82001875D01*
X158676468Y-81906544D01*
X172935000Y-81906544D01*
X172935000Y-82173456D01*
X172987072Y-82435239D01*
X173089215Y-82681833D01*
X173237503Y-82903762D01*
X173426238Y-83092497D01*
X173648167Y-83240785D01*
X173894761Y-83342928D01*
X174156544Y-83395000D01*
X174423456Y-83395000D01*
X174685239Y-83342928D01*
X174931833Y-83240785D01*
X175153762Y-83092497D01*
X175342497Y-82903762D01*
X175490785Y-82681833D01*
X175592928Y-82435239D01*
X175645000Y-82173456D01*
X175645000Y-81906544D01*
X175592928Y-81644761D01*
X175490785Y-81398167D01*
X175358375Y-81200000D01*
X176061928Y-81200000D01*
X176061928Y-82800000D01*
X176074188Y-82924482D01*
X176110498Y-83044180D01*
X176169463Y-83154494D01*
X176248815Y-83251185D01*
X176345506Y-83330537D01*
X176455820Y-83389502D01*
X176575518Y-83425812D01*
X176700000Y-83438072D01*
X178300000Y-83438072D01*
X178424482Y-83425812D01*
X178544180Y-83389502D01*
X178654494Y-83330537D01*
X178751185Y-83251185D01*
X178830537Y-83154494D01*
X178889502Y-83044180D01*
X178918661Y-82948057D01*
X179085241Y-83114637D01*
X179320273Y-83271680D01*
X179581426Y-83379853D01*
X179858665Y-83435000D01*
X180141335Y-83435000D01*
X180418574Y-83379853D01*
X180679727Y-83271680D01*
X180914759Y-83114637D01*
X181114637Y-82914759D01*
X181271680Y-82679727D01*
X181379853Y-82418574D01*
X181435000Y-82141335D01*
X181435000Y-81858665D01*
X181426191Y-81814375D01*
X185115320Y-81814375D01*
X185115320Y-82185625D01*
X185187747Y-82549741D01*
X185329818Y-82892731D01*
X185536074Y-83201413D01*
X185798587Y-83463926D01*
X186107269Y-83670182D01*
X186450259Y-83812253D01*
X186814375Y-83884680D01*
X187185625Y-83884680D01*
X187549741Y-83812253D01*
X187892731Y-83670182D01*
X188201413Y-83463926D01*
X188463926Y-83201413D01*
X188670182Y-82892731D01*
X188812253Y-82549741D01*
X188884680Y-82185625D01*
X188884680Y-81814375D01*
X188812253Y-81450259D01*
X188670182Y-81107269D01*
X188463926Y-80798587D01*
X188201413Y-80536074D01*
X187892731Y-80329818D01*
X187549741Y-80187747D01*
X187185625Y-80115320D01*
X186814375Y-80115320D01*
X186450259Y-80187747D01*
X186107269Y-80329818D01*
X185798587Y-80536074D01*
X185536074Y-80798587D01*
X185329818Y-81107269D01*
X185187747Y-81450259D01*
X185115320Y-81814375D01*
X181426191Y-81814375D01*
X181379853Y-81581426D01*
X181271680Y-81320273D01*
X181114637Y-81085241D01*
X180914759Y-80885363D01*
X180679727Y-80728320D01*
X180418574Y-80620147D01*
X180141335Y-80565000D01*
X179858665Y-80565000D01*
X179581426Y-80620147D01*
X179320273Y-80728320D01*
X179085241Y-80885363D01*
X178918661Y-81051943D01*
X178889502Y-80955820D01*
X178830537Y-80845506D01*
X178751185Y-80748815D01*
X178654494Y-80669463D01*
X178544180Y-80610498D01*
X178424482Y-80574188D01*
X178300000Y-80561928D01*
X176700000Y-80561928D01*
X176575518Y-80574188D01*
X176455820Y-80610498D01*
X176345506Y-80669463D01*
X176248815Y-80748815D01*
X176169463Y-80845506D01*
X176110498Y-80955820D01*
X176074188Y-81075518D01*
X176061928Y-81200000D01*
X175358375Y-81200000D01*
X175342497Y-81176238D01*
X175153762Y-80987503D01*
X174931833Y-80839215D01*
X174685239Y-80737072D01*
X174423456Y-80685000D01*
X174156544Y-80685000D01*
X173894761Y-80737072D01*
X173648167Y-80839215D01*
X173426238Y-80987503D01*
X173237503Y-81176238D01*
X173089215Y-81398167D01*
X172987072Y-81644761D01*
X172935000Y-81906544D01*
X158676468Y-81906544D01*
X158608676Y-81861247D01*
X158454283Y-81797295D01*
X162225000Y-78026578D01*
X162225000Y-78133456D01*
X162277072Y-78395239D01*
X162379215Y-78641833D01*
X162527503Y-78863762D01*
X162716238Y-79052497D01*
X162938167Y-79200785D01*
X163184761Y-79302928D01*
X163446544Y-79355000D01*
X163713456Y-79355000D01*
X163975239Y-79302928D01*
X164221833Y-79200785D01*
X164443762Y-79052497D01*
X164632497Y-78863762D01*
X164780785Y-78641833D01*
X164882928Y-78395239D01*
X164928725Y-78165001D01*
X171515992Y-78165001D01*
X171354761Y-78197072D01*
X171108167Y-78299215D01*
X170886238Y-78447503D01*
X170697503Y-78636238D01*
X170549215Y-78858167D01*
X170447072Y-79104761D01*
X170395000Y-79366544D01*
X170395000Y-79633456D01*
X170447072Y-79895239D01*
X170549215Y-80141833D01*
X170697503Y-80363762D01*
X170886238Y-80552497D01*
X171108167Y-80700785D01*
X171354761Y-80802928D01*
X171616544Y-80855000D01*
X171883456Y-80855000D01*
X172145239Y-80802928D01*
X172391833Y-80700785D01*
X172613762Y-80552497D01*
X172802497Y-80363762D01*
X172950785Y-80141833D01*
X173052928Y-79895239D01*
X173105000Y-79633456D01*
X173105000Y-79366544D01*
X173052928Y-79104761D01*
X172950785Y-78858167D01*
X172802497Y-78636238D01*
X172613762Y-78447503D01*
X172391833Y-78299215D01*
X172145239Y-78197072D01*
X171984008Y-78165001D01*
X174176530Y-78165001D01*
X174219999Y-78169282D01*
X174263468Y-78165001D01*
X174263476Y-78165001D01*
X174393489Y-78152196D01*
X174560312Y-78101590D01*
X174714058Y-78019412D01*
X174848816Y-77908818D01*
X174876533Y-77875045D01*
X177476238Y-75275340D01*
X188404265Y-75275340D01*
X188650416Y-75667704D01*
X189152822Y-75933312D01*
X189697393Y-76095801D01*
X190263199Y-76148928D01*
X190828498Y-76090652D01*
X191371566Y-75923210D01*
X191849584Y-75667704D01*
X192095735Y-75275340D01*
X190250000Y-73429605D01*
X188404265Y-75275340D01*
X177476238Y-75275340D01*
X177595050Y-75156529D01*
X177628817Y-75128817D01*
X177739411Y-74994059D01*
X177821589Y-74840313D01*
X177872195Y-74673490D01*
X177885000Y-74543477D01*
X177885000Y-74543467D01*
X177889281Y-74500001D01*
X177885000Y-74456535D01*
X177885000Y-74134521D01*
X177914759Y-74114637D01*
X178114637Y-73914759D01*
X178271680Y-73679727D01*
X178379853Y-73418574D01*
X178410759Y-73263199D01*
X187351072Y-73263199D01*
X187409348Y-73828498D01*
X187576790Y-74371566D01*
X187832296Y-74849584D01*
X188224660Y-75095735D01*
X190070395Y-73250000D01*
X190429605Y-73250000D01*
X192275340Y-75095735D01*
X192667704Y-74849584D01*
X192933312Y-74347178D01*
X193095801Y-73802607D01*
X193148928Y-73236801D01*
X193090652Y-72671502D01*
X192923210Y-72128434D01*
X192667704Y-71650416D01*
X192275340Y-71404265D01*
X190429605Y-73250000D01*
X190070395Y-73250000D01*
X188224660Y-71404265D01*
X187832296Y-71650416D01*
X187566688Y-72152822D01*
X187404199Y-72697393D01*
X187351072Y-73263199D01*
X178410759Y-73263199D01*
X178435000Y-73141335D01*
X178435000Y-72858665D01*
X178379853Y-72581426D01*
X178271680Y-72320273D01*
X178114637Y-72085241D01*
X177914759Y-71885363D01*
X177679727Y-71728320D01*
X177418574Y-71620147D01*
X177141335Y-71565000D01*
X176858665Y-71565000D01*
X176581426Y-71620147D01*
X176320273Y-71728320D01*
X176085241Y-71885363D01*
X175918661Y-72051943D01*
X175889502Y-71955820D01*
X175830537Y-71845506D01*
X175751185Y-71748815D01*
X175654494Y-71669463D01*
X175544180Y-71610498D01*
X175424482Y-71574188D01*
X175300000Y-71561928D01*
X173700000Y-71561928D01*
X173575518Y-71574188D01*
X173455820Y-71610498D01*
X173345506Y-71669463D01*
X173248815Y-71748815D01*
X173169463Y-71845506D01*
X173110498Y-71955820D01*
X173074188Y-72075518D01*
X173061928Y-72200000D01*
X173061928Y-73800000D01*
X173074188Y-73924482D01*
X173110498Y-74044180D01*
X173169463Y-74154494D01*
X173248815Y-74251185D01*
X173345506Y-74330537D01*
X173455820Y-74389502D01*
X173575518Y-74425812D01*
X173700000Y-74438072D01*
X175300000Y-74438072D01*
X175424482Y-74425812D01*
X175544180Y-74389502D01*
X175654494Y-74330537D01*
X175751185Y-74251185D01*
X175830537Y-74154494D01*
X175889502Y-74044180D01*
X175918661Y-73948057D01*
X176085241Y-74114637D01*
X176114340Y-74134081D01*
X173853421Y-76395001D01*
X164343464Y-76395001D01*
X164299998Y-76390720D01*
X164256532Y-76395001D01*
X164256522Y-76395001D01*
X164126509Y-76407806D01*
X163959686Y-76458412D01*
X163805940Y-76540590D01*
X163805938Y-76540591D01*
X163805939Y-76540591D01*
X163704952Y-76623469D01*
X163704950Y-76623471D01*
X163678717Y-76645000D01*
X163606579Y-76645000D01*
X167366579Y-72885000D01*
X170105479Y-72885000D01*
X170125363Y-72914759D01*
X170325241Y-73114637D01*
X170560273Y-73271680D01*
X170821426Y-73379853D01*
X171098665Y-73435000D01*
X171381335Y-73435000D01*
X171658574Y-73379853D01*
X171919727Y-73271680D01*
X172154759Y-73114637D01*
X172354637Y-72914759D01*
X172511680Y-72679727D01*
X172619853Y-72418574D01*
X172675000Y-72141335D01*
X172675000Y-71858665D01*
X172619853Y-71581426D01*
X172511680Y-71320273D01*
X172447794Y-71224660D01*
X188404265Y-71224660D01*
X190250000Y-73070395D01*
X192095735Y-71224660D01*
X191849584Y-70832296D01*
X191347178Y-70566688D01*
X190802607Y-70404199D01*
X190236801Y-70351072D01*
X189671502Y-70409348D01*
X189128434Y-70576790D01*
X188650416Y-70832296D01*
X188404265Y-71224660D01*
X172447794Y-71224660D01*
X172354637Y-71085241D01*
X172154759Y-70885363D01*
X171919727Y-70728320D01*
X171658574Y-70620147D01*
X171381335Y-70565000D01*
X171098665Y-70565000D01*
X170821426Y-70620147D01*
X170560273Y-70728320D01*
X170325241Y-70885363D01*
X170125363Y-71085241D01*
X170105479Y-71115000D01*
X167043465Y-71115000D01*
X166999999Y-71110719D01*
X166956533Y-71115000D01*
X166956523Y-71115000D01*
X166826510Y-71127805D01*
X166659687Y-71178411D01*
X166505941Y-71260589D01*
X166505939Y-71260590D01*
X166505940Y-71260590D01*
X166404953Y-71343468D01*
X166404951Y-71343470D01*
X166371183Y-71371183D01*
X166343470Y-71404951D01*
X162395000Y-75353421D01*
X162395000Y-75326544D01*
X162342928Y-75064761D01*
X162240785Y-74818167D01*
X162092497Y-74596238D01*
X161903762Y-74407503D01*
X161681833Y-74259215D01*
X161435239Y-74157072D01*
X161173456Y-74105000D01*
X160906544Y-74105000D01*
X160644761Y-74157072D01*
X160398167Y-74259215D01*
X160176238Y-74407503D01*
X159987503Y-74596238D01*
X159839215Y-74818167D01*
X159737072Y-75064761D01*
X159685000Y-75326544D01*
X159685000Y-75593456D01*
X159737072Y-75855239D01*
X159839215Y-76101833D01*
X159987503Y-76323762D01*
X160176238Y-76512497D01*
X160398167Y-76660785D01*
X160644761Y-76762928D01*
X160906544Y-76815000D01*
X160933422Y-76815000D01*
X159855000Y-77893422D01*
X159855000Y-77866544D01*
X159802928Y-77604761D01*
X159700785Y-77358167D01*
X159552497Y-77136238D01*
X159363762Y-76947503D01*
X159141833Y-76799215D01*
X158895239Y-76697072D01*
X158633456Y-76645000D01*
X158366544Y-76645000D01*
X158104761Y-76697072D01*
X157858167Y-76799215D01*
X157636238Y-76947503D01*
X157468741Y-77115000D01*
X156043465Y-77115000D01*
X155999999Y-77110719D01*
X155956533Y-77115000D01*
X155956523Y-77115000D01*
X155826510Y-77127805D01*
X155659687Y-77178411D01*
X155505941Y-77260589D01*
X155505939Y-77260590D01*
X155505940Y-77260590D01*
X155404953Y-77343468D01*
X155404951Y-77343470D01*
X155371183Y-77371183D01*
X155343470Y-77404951D01*
X152133422Y-80615000D01*
X151329724Y-80615000D01*
X151554759Y-80464637D01*
X151754637Y-80264759D01*
X151911680Y-80029727D01*
X152019853Y-79768574D01*
X152075000Y-79491335D01*
X152075000Y-79208665D01*
X152019853Y-78931426D01*
X151911680Y-78670273D01*
X151754637Y-78435241D01*
X151554759Y-78235363D01*
X151319727Y-78078320D01*
X151058574Y-77970147D01*
X150781335Y-77915000D01*
X150498665Y-77915000D01*
X150221426Y-77970147D01*
X149960273Y-78078320D01*
X149725241Y-78235363D01*
X149525363Y-78435241D01*
X149368320Y-78670273D01*
X149260147Y-78931426D01*
X149205000Y-79208665D01*
X149205000Y-79491335D01*
X149260147Y-79768574D01*
X149368320Y-80029727D01*
X149525363Y-80264759D01*
X149725241Y-80464637D01*
X149950276Y-80615000D01*
X148543465Y-80615000D01*
X148499999Y-80610719D01*
X148456533Y-80615000D01*
X148456523Y-80615000D01*
X148326510Y-80627805D01*
X148159687Y-80678411D01*
X148005941Y-80760589D01*
X148005939Y-80760590D01*
X148005940Y-80760590D01*
X147904953Y-80843468D01*
X147904951Y-80843470D01*
X147871183Y-80871183D01*
X147843470Y-80904951D01*
X142804956Y-85943466D01*
X142771183Y-85971183D01*
X142660589Y-86105942D01*
X142578411Y-86259688D01*
X142527805Y-86426511D01*
X142515000Y-86556524D01*
X142515000Y-86556531D01*
X142510719Y-86600000D01*
X142515000Y-86643469D01*
X142515000Y-87365478D01*
X142485241Y-87385363D01*
X142285363Y-87585241D01*
X142128320Y-87820273D01*
X142020147Y-88081426D01*
X141965000Y-88358665D01*
X141965000Y-88641335D01*
X142020147Y-88918574D01*
X142128320Y-89179727D01*
X142285363Y-89414759D01*
X142485241Y-89614637D01*
X142720273Y-89771680D01*
X142981426Y-89879853D01*
X143258665Y-89935000D01*
X143541335Y-89935000D01*
X143818574Y-89879853D01*
X144079727Y-89771680D01*
X144314759Y-89614637D01*
X144481339Y-89448057D01*
X144510498Y-89544180D01*
X144569463Y-89654494D01*
X144648815Y-89751185D01*
X144745506Y-89830537D01*
X144855820Y-89889502D01*
X144975518Y-89925812D01*
X145100000Y-89938072D01*
X146310349Y-89938072D01*
X145133422Y-91115000D01*
X141290726Y-91115000D01*
X141395131Y-91052385D01*
X141603519Y-90863414D01*
X141771037Y-90637420D01*
X141891246Y-90383087D01*
X141931904Y-90249039D01*
X141809915Y-90027000D01*
X140667000Y-90027000D01*
X140667000Y-90047000D01*
X140413000Y-90047000D01*
X140413000Y-90027000D01*
X139270085Y-90027000D01*
X139148096Y-90249039D01*
X139188754Y-90383087D01*
X139308963Y-90637420D01*
X139476481Y-90863414D01*
X139684869Y-91052385D01*
X139789274Y-91115000D01*
X136366579Y-91115000D01*
X134802540Y-89550961D01*
X139148096Y-89550961D01*
X139270085Y-89773000D01*
X140413000Y-89773000D01*
X140413000Y-88629376D01*
X140667000Y-88629376D01*
X140667000Y-89773000D01*
X141809915Y-89773000D01*
X141931904Y-89550961D01*
X141891246Y-89416913D01*
X141771037Y-89162580D01*
X141603519Y-88936586D01*
X141395131Y-88747615D01*
X141153881Y-88602930D01*
X140889040Y-88508091D01*
X140667000Y-88629376D01*
X140413000Y-88629376D01*
X140190960Y-88508091D01*
X139926119Y-88602930D01*
X139684869Y-88747615D01*
X139476481Y-88936586D01*
X139308963Y-89162580D01*
X139188754Y-89416913D01*
X139148096Y-89550961D01*
X134802540Y-89550961D01*
X134385000Y-89133422D01*
X134385000Y-84649250D01*
X134395363Y-84664759D01*
X134595241Y-84864637D01*
X134830273Y-85021680D01*
X135091426Y-85129853D01*
X135368665Y-85185000D01*
X135651335Y-85185000D01*
X135928574Y-85129853D01*
X136189727Y-85021680D01*
X136424759Y-84864637D01*
X136624637Y-84664759D01*
X136644521Y-84635000D01*
X142106531Y-84635000D01*
X142150000Y-84639281D01*
X142193469Y-84635000D01*
X142193477Y-84635000D01*
X142323490Y-84622195D01*
X142490313Y-84571589D01*
X142644059Y-84489411D01*
X142778817Y-84378817D01*
X142806534Y-84345044D01*
X149766579Y-77385000D01*
X150956531Y-77385000D01*
X151000000Y-77389281D01*
X151043469Y-77385000D01*
X151043477Y-77385000D01*
X151173490Y-77372195D01*
X151340313Y-77321589D01*
X151494059Y-77239411D01*
X151628817Y-77128817D01*
X151656534Y-77095044D01*
X152095045Y-76656533D01*
X152128817Y-76628817D01*
X152239411Y-76494059D01*
X152321589Y-76340313D01*
X152372195Y-76173490D01*
X152385000Y-76043477D01*
X152385000Y-76043469D01*
X152389281Y-76000000D01*
X152385000Y-75956531D01*
X152385000Y-75332265D01*
X152498125Y-75219140D01*
X152638753Y-75008676D01*
X152735619Y-74774821D01*
X152785000Y-74526561D01*
X152785000Y-74418072D01*
X153420000Y-74418072D01*
X153544482Y-74405812D01*
X153664180Y-74369502D01*
X153774494Y-74310537D01*
X153871185Y-74231185D01*
X153950537Y-74134494D01*
X154009502Y-74024180D01*
X154045812Y-73904482D01*
X154058072Y-73780000D01*
X154058072Y-72767275D01*
X154159686Y-72821589D01*
X154281908Y-72858665D01*
X154326510Y-72872195D01*
X154456523Y-72885000D01*
X154456531Y-72885000D01*
X154500000Y-72889281D01*
X154543469Y-72885000D01*
X154865479Y-72885000D01*
X154885363Y-72914759D01*
X155085241Y-73114637D01*
X155320273Y-73271680D01*
X155581426Y-73379853D01*
X155858665Y-73435000D01*
X156141335Y-73435000D01*
X156418574Y-73379853D01*
X156679727Y-73271680D01*
X156914759Y-73114637D01*
X157114637Y-72914759D01*
X157271680Y-72679727D01*
X157379853Y-72418574D01*
X157435000Y-72141335D01*
X157435000Y-71858665D01*
X157379853Y-71581426D01*
X157271680Y-71320273D01*
X157114637Y-71085241D01*
X156914759Y-70885363D01*
X156679727Y-70728320D01*
X156418574Y-70620147D01*
X156141335Y-70565000D01*
X155858665Y-70565000D01*
X155581426Y-70620147D01*
X155320273Y-70728320D01*
X155085241Y-70885363D01*
X154885363Y-71085241D01*
X154865919Y-71114341D01*
X154156534Y-70404956D01*
X154128817Y-70371183D01*
X153994059Y-70260589D01*
X153840313Y-70178411D01*
X153697208Y-70135000D01*
X190206720Y-70135000D01*
X190854213Y-70198487D01*
X191435416Y-70373963D01*
X191971466Y-70658986D01*
X192441947Y-71042700D01*
X192828932Y-71510484D01*
X193117693Y-72044537D01*
X193297220Y-72624496D01*
X193365001Y-73269391D01*
X193365000Y-98206719D01*
X193301513Y-98854213D01*
X193126036Y-99435419D01*
X192841012Y-99971470D01*
X192457302Y-100441944D01*
X191989515Y-100828932D01*
X191455463Y-101117693D01*
X190875508Y-101297219D01*
X190230620Y-101365000D01*
X125293281Y-101365000D01*
X124645787Y-101301513D01*
X124064581Y-101126036D01*
X123528530Y-100841012D01*
X123058056Y-100457302D01*
X122907524Y-100275340D01*
X123404265Y-100275340D01*
X123650416Y-100667704D01*
X124152822Y-100933312D01*
X124697393Y-101095801D01*
X125263199Y-101148928D01*
X125828498Y-101090652D01*
X126371566Y-100923210D01*
X126849584Y-100667704D01*
X127095735Y-100275340D01*
X188404265Y-100275340D01*
X188650416Y-100667704D01*
X189152822Y-100933312D01*
X189697393Y-101095801D01*
X190263199Y-101148928D01*
X190828498Y-101090652D01*
X191371566Y-100923210D01*
X191849584Y-100667704D01*
X192095735Y-100275340D01*
X190250000Y-98429605D01*
X188404265Y-100275340D01*
X127095735Y-100275340D01*
X125250000Y-98429605D01*
X123404265Y-100275340D01*
X122907524Y-100275340D01*
X122671068Y-99989515D01*
X122382307Y-99455463D01*
X122202781Y-98875508D01*
X122138425Y-98263199D01*
X122351072Y-98263199D01*
X122409348Y-98828498D01*
X122576790Y-99371566D01*
X122832296Y-99849584D01*
X123224660Y-100095735D01*
X125070395Y-98250000D01*
X125429605Y-98250000D01*
X127275340Y-100095735D01*
X127667704Y-99849584D01*
X127933312Y-99347178D01*
X128095801Y-98802607D01*
X128138389Y-98349039D01*
X130368096Y-98349039D01*
X130408754Y-98483087D01*
X130528963Y-98737420D01*
X130696481Y-98963414D01*
X130904869Y-99152385D01*
X131146119Y-99297070D01*
X131410960Y-99391909D01*
X131633000Y-99270624D01*
X131633000Y-98127000D01*
X131887000Y-98127000D01*
X131887000Y-99270624D01*
X132109040Y-99391909D01*
X132373881Y-99297070D01*
X132615131Y-99152385D01*
X132823519Y-98963414D01*
X132991037Y-98737420D01*
X133111246Y-98483087D01*
X133151904Y-98349039D01*
X133029915Y-98127000D01*
X131887000Y-98127000D01*
X131633000Y-98127000D01*
X130490085Y-98127000D01*
X130368096Y-98349039D01*
X128138389Y-98349039D01*
X128148928Y-98236801D01*
X128090652Y-97671502D01*
X128084319Y-97650961D01*
X130368096Y-97650961D01*
X130490085Y-97873000D01*
X131633000Y-97873000D01*
X131633000Y-96729376D01*
X131887000Y-96729376D01*
X131887000Y-97873000D01*
X133029915Y-97873000D01*
X133037790Y-97858665D01*
X145565000Y-97858665D01*
X145565000Y-98141335D01*
X145620147Y-98418574D01*
X145728320Y-98679727D01*
X145885363Y-98914759D01*
X146085241Y-99114637D01*
X146320273Y-99271680D01*
X146581426Y-99379853D01*
X146858665Y-99435000D01*
X147141335Y-99435000D01*
X147418574Y-99379853D01*
X147679727Y-99271680D01*
X147914759Y-99114637D01*
X148114637Y-98914759D01*
X148271680Y-98679727D01*
X148379853Y-98418574D01*
X148435000Y-98141335D01*
X148435000Y-97858665D01*
X148431082Y-97838967D01*
X152365000Y-97838967D01*
X152365000Y-98161033D01*
X152427832Y-98476912D01*
X152551082Y-98774463D01*
X152730013Y-99042252D01*
X152957748Y-99269987D01*
X153225537Y-99448918D01*
X153523088Y-99572168D01*
X153838967Y-99635000D01*
X154161033Y-99635000D01*
X154476912Y-99572168D01*
X154774463Y-99448918D01*
X155042252Y-99269987D01*
X155269987Y-99042252D01*
X155448918Y-98774463D01*
X155572168Y-98476912D01*
X155635000Y-98161033D01*
X155635000Y-97838967D01*
X155865000Y-97838967D01*
X155865000Y-98161033D01*
X155927832Y-98476912D01*
X156051082Y-98774463D01*
X156230013Y-99042252D01*
X156457748Y-99269987D01*
X156725537Y-99448918D01*
X157023088Y-99572168D01*
X157338967Y-99635000D01*
X157661033Y-99635000D01*
X157976912Y-99572168D01*
X158274463Y-99448918D01*
X158542252Y-99269987D01*
X158769987Y-99042252D01*
X158948918Y-98774463D01*
X159072168Y-98476912D01*
X159135000Y-98161033D01*
X159135000Y-97838967D01*
X159072168Y-97523088D01*
X158948918Y-97225537D01*
X158769987Y-96957748D01*
X158542252Y-96730013D01*
X158274463Y-96551082D01*
X157976912Y-96427832D01*
X157661033Y-96365000D01*
X157338967Y-96365000D01*
X157023088Y-96427832D01*
X156725537Y-96551082D01*
X156457748Y-96730013D01*
X156230013Y-96957748D01*
X156051082Y-97225537D01*
X155927832Y-97523088D01*
X155865000Y-97838967D01*
X155635000Y-97838967D01*
X155572168Y-97523088D01*
X155448918Y-97225537D01*
X155269987Y-96957748D01*
X155042252Y-96730013D01*
X154774463Y-96551082D01*
X154476912Y-96427832D01*
X154161033Y-96365000D01*
X153838967Y-96365000D01*
X153523088Y-96427832D01*
X153225537Y-96551082D01*
X152957748Y-96730013D01*
X152730013Y-96957748D01*
X152551082Y-97225537D01*
X152427832Y-97523088D01*
X152365000Y-97838967D01*
X148431082Y-97838967D01*
X148379853Y-97581426D01*
X148271680Y-97320273D01*
X148114637Y-97085241D01*
X147914759Y-96885363D01*
X147679727Y-96728320D01*
X147418574Y-96620147D01*
X147141335Y-96565000D01*
X146858665Y-96565000D01*
X146581426Y-96620147D01*
X146320273Y-96728320D01*
X146085241Y-96885363D01*
X145885363Y-97085241D01*
X145728320Y-97320273D01*
X145620147Y-97581426D01*
X145565000Y-97858665D01*
X133037790Y-97858665D01*
X133151904Y-97650961D01*
X133111246Y-97516913D01*
X132991037Y-97262580D01*
X132823519Y-97036586D01*
X132615131Y-96847615D01*
X132373881Y-96702930D01*
X132109040Y-96608091D01*
X131887000Y-96729376D01*
X131633000Y-96729376D01*
X131410960Y-96608091D01*
X131146119Y-96702930D01*
X130904869Y-96847615D01*
X130696481Y-97036586D01*
X130528963Y-97262580D01*
X130408754Y-97516913D01*
X130368096Y-97650961D01*
X128084319Y-97650961D01*
X127923210Y-97128434D01*
X127667704Y-96650416D01*
X127275340Y-96404265D01*
X125429605Y-98250000D01*
X125070395Y-98250000D01*
X123224660Y-96404265D01*
X122832296Y-96650416D01*
X122566688Y-97152822D01*
X122404199Y-97697393D01*
X122351072Y-98263199D01*
X122138425Y-98263199D01*
X122135000Y-98230620D01*
X122135000Y-96224660D01*
X123404265Y-96224660D01*
X125250000Y-98070395D01*
X127095735Y-96224660D01*
X126849584Y-95832296D01*
X126347178Y-95566688D01*
X125802607Y-95404199D01*
X125236801Y-95351072D01*
X124671502Y-95409348D01*
X124128434Y-95576790D01*
X123650416Y-95832296D01*
X123404265Y-96224660D01*
X122135000Y-96224660D01*
X122135000Y-93558665D01*
X123865000Y-93558665D01*
X123865000Y-93841335D01*
X123920147Y-94118574D01*
X124028320Y-94379727D01*
X124185363Y-94614759D01*
X124385241Y-94814637D01*
X124620273Y-94971680D01*
X124881426Y-95079853D01*
X125158665Y-95135000D01*
X125441335Y-95135000D01*
X125718574Y-95079853D01*
X125979727Y-94971680D01*
X126214759Y-94814637D01*
X126414637Y-94614759D01*
X126571680Y-94379727D01*
X126679853Y-94118574D01*
X126693684Y-94049039D01*
X139148096Y-94049039D01*
X139188754Y-94183087D01*
X139308963Y-94437420D01*
X139476481Y-94663414D01*
X139684869Y-94852385D01*
X139926119Y-94997070D01*
X140190960Y-95091909D01*
X140413000Y-94970624D01*
X140413000Y-93827000D01*
X140667000Y-93827000D01*
X140667000Y-94970624D01*
X140889040Y-95091909D01*
X141153881Y-94997070D01*
X141395131Y-94852385D01*
X141603519Y-94663414D01*
X141771037Y-94437420D01*
X141891246Y-94183087D01*
X141931904Y-94049039D01*
X141900953Y-93992702D01*
X147186903Y-93992702D01*
X147258486Y-94236671D01*
X147513996Y-94357571D01*
X147788184Y-94426300D01*
X148070512Y-94440217D01*
X148350130Y-94398787D01*
X148616292Y-94303603D01*
X148741514Y-94236671D01*
X148813097Y-93992702D01*
X148000000Y-93179605D01*
X147186903Y-93992702D01*
X141900953Y-93992702D01*
X141809915Y-93827000D01*
X140667000Y-93827000D01*
X140413000Y-93827000D01*
X139270085Y-93827000D01*
X139148096Y-94049039D01*
X126693684Y-94049039D01*
X126735000Y-93841335D01*
X126735000Y-93558665D01*
X126679853Y-93281426D01*
X126571680Y-93020273D01*
X126414637Y-92785241D01*
X126214759Y-92585363D01*
X125979727Y-92428320D01*
X125718574Y-92320147D01*
X125441335Y-92265000D01*
X125158665Y-92265000D01*
X124881426Y-92320147D01*
X124620273Y-92428320D01*
X124385241Y-92585363D01*
X124185363Y-92785241D01*
X124028320Y-93020273D01*
X123920147Y-93281426D01*
X123865000Y-93558665D01*
X122135000Y-93558665D01*
X122135000Y-89758665D01*
X123865000Y-89758665D01*
X123865000Y-90041335D01*
X123920147Y-90318574D01*
X124028320Y-90579727D01*
X124185363Y-90814759D01*
X124385241Y-91014637D01*
X124620273Y-91171680D01*
X124881426Y-91279853D01*
X125158665Y-91335000D01*
X125441335Y-91335000D01*
X125718574Y-91279853D01*
X125979727Y-91171680D01*
X126214759Y-91014637D01*
X126414637Y-90814759D01*
X126571680Y-90579727D01*
X126679853Y-90318574D01*
X126735000Y-90041335D01*
X126735000Y-89758665D01*
X126679853Y-89481426D01*
X126571680Y-89220273D01*
X126414637Y-88985241D01*
X126214759Y-88785363D01*
X125979727Y-88628320D01*
X125718574Y-88520147D01*
X125441335Y-88465000D01*
X125158665Y-88465000D01*
X124881426Y-88520147D01*
X124620273Y-88628320D01*
X124385241Y-88785363D01*
X124185363Y-88985241D01*
X124028320Y-89220273D01*
X123920147Y-89481426D01*
X123865000Y-89758665D01*
X122135000Y-89758665D01*
X122135000Y-85124916D01*
X124480000Y-85124916D01*
X124480000Y-85375084D01*
X124528805Y-85620445D01*
X124624541Y-85851571D01*
X124763527Y-86059578D01*
X124940422Y-86236473D01*
X125148429Y-86375459D01*
X125379555Y-86471195D01*
X125624916Y-86520000D01*
X125875084Y-86520000D01*
X126120445Y-86471195D01*
X126351571Y-86375459D01*
X126559578Y-86236473D01*
X126736473Y-86059578D01*
X126875459Y-85851571D01*
X126971195Y-85620445D01*
X127020000Y-85375084D01*
X127020000Y-85124916D01*
X127980001Y-85124916D01*
X127980001Y-85375084D01*
X128028806Y-85620445D01*
X128124542Y-85851571D01*
X128263528Y-86059578D01*
X128440423Y-86236473D01*
X128648430Y-86375459D01*
X128879556Y-86471195D01*
X129124917Y-86520000D01*
X129375085Y-86520000D01*
X129620446Y-86471195D01*
X129851572Y-86375459D01*
X130059579Y-86236473D01*
X130236474Y-86059578D01*
X130375460Y-85851571D01*
X130471196Y-85620445D01*
X130520001Y-85375084D01*
X130520001Y-85124916D01*
X130471196Y-84879555D01*
X130375460Y-84648429D01*
X130236474Y-84440422D01*
X130059579Y-84263527D01*
X129851572Y-84124541D01*
X129620446Y-84028805D01*
X129375085Y-83980000D01*
X129124917Y-83980000D01*
X128879556Y-84028805D01*
X128648430Y-84124541D01*
X128440423Y-84263527D01*
X128263528Y-84440422D01*
X128124542Y-84648429D01*
X128028806Y-84879555D01*
X127980001Y-85124916D01*
X127020000Y-85124916D01*
X126971195Y-84879555D01*
X126875459Y-84648429D01*
X126736473Y-84440422D01*
X126559578Y-84263527D01*
X126351571Y-84124541D01*
X126120445Y-84028805D01*
X125875084Y-83980000D01*
X125624916Y-83980000D01*
X125379555Y-84028805D01*
X125148429Y-84124541D01*
X124940422Y-84263527D01*
X124763527Y-84440422D01*
X124624541Y-84648429D01*
X124528805Y-84879555D01*
X124480000Y-85124916D01*
X122135000Y-85124916D01*
X122135000Y-81124916D01*
X124480000Y-81124916D01*
X124480000Y-81375084D01*
X124528805Y-81620445D01*
X124624541Y-81851571D01*
X124763527Y-82059578D01*
X124940422Y-82236473D01*
X125148429Y-82375459D01*
X125379555Y-82471195D01*
X125624916Y-82520000D01*
X125875084Y-82520000D01*
X126120445Y-82471195D01*
X126351571Y-82375459D01*
X126559578Y-82236473D01*
X126736473Y-82059578D01*
X126875459Y-81851571D01*
X126971195Y-81620445D01*
X127020000Y-81375084D01*
X127020000Y-81124917D01*
X128980000Y-81124917D01*
X128980000Y-81375085D01*
X129028805Y-81620446D01*
X129124541Y-81851572D01*
X129263527Y-82059579D01*
X129440422Y-82236474D01*
X129648429Y-82375460D01*
X129879555Y-82471196D01*
X130124916Y-82520001D01*
X130375084Y-82520001D01*
X130620445Y-82471196D01*
X130851571Y-82375460D01*
X131059578Y-82236474D01*
X131236473Y-82059579D01*
X131375459Y-81851572D01*
X131471195Y-81620446D01*
X131520000Y-81375085D01*
X131520000Y-81124917D01*
X131471195Y-80879556D01*
X131375459Y-80648430D01*
X131236473Y-80440423D01*
X131059578Y-80263528D01*
X130851571Y-80124542D01*
X130620445Y-80028806D01*
X130375084Y-79980001D01*
X130124916Y-79980001D01*
X129879555Y-80028806D01*
X129648429Y-80124542D01*
X129440422Y-80263528D01*
X129263527Y-80440423D01*
X129124541Y-80648430D01*
X129028805Y-80879556D01*
X128980000Y-81124917D01*
X127020000Y-81124917D01*
X127020000Y-81124916D01*
X126971195Y-80879555D01*
X126875459Y-80648429D01*
X126736473Y-80440422D01*
X126559578Y-80263527D01*
X126351571Y-80124541D01*
X126120445Y-80028805D01*
X125875084Y-79980000D01*
X125624916Y-79980000D01*
X125379555Y-80028805D01*
X125148429Y-80124541D01*
X124940422Y-80263527D01*
X124763527Y-80440422D01*
X124624541Y-80648429D01*
X124528805Y-80879555D01*
X124480000Y-81124916D01*
X122135000Y-81124916D01*
X122135000Y-77624915D01*
X124480000Y-77624915D01*
X124480000Y-77875083D01*
X124528805Y-78120444D01*
X124624541Y-78351570D01*
X124763527Y-78559577D01*
X124940422Y-78736472D01*
X125148429Y-78875458D01*
X125379555Y-78971194D01*
X125624916Y-79019999D01*
X125875084Y-79019999D01*
X126120445Y-78971194D01*
X126351571Y-78875458D01*
X126559578Y-78736472D01*
X126736473Y-78559577D01*
X126875459Y-78351570D01*
X126971195Y-78120444D01*
X127020000Y-77875083D01*
X127020000Y-77624916D01*
X128980000Y-77624916D01*
X128980000Y-77875084D01*
X129028805Y-78120445D01*
X129124541Y-78351571D01*
X129263527Y-78559578D01*
X129440422Y-78736473D01*
X129648429Y-78875459D01*
X129879555Y-78971195D01*
X130124916Y-79020000D01*
X130375084Y-79020000D01*
X130620445Y-78971195D01*
X130851571Y-78875459D01*
X131059578Y-78736473D01*
X131236473Y-78559578D01*
X131375459Y-78351571D01*
X131471195Y-78120445D01*
X131520000Y-77875084D01*
X131520000Y-77624916D01*
X131471195Y-77379555D01*
X131375459Y-77148429D01*
X131236473Y-76940422D01*
X131059578Y-76763527D01*
X130851571Y-76624541D01*
X130620445Y-76528805D01*
X130375084Y-76480000D01*
X130124916Y-76480000D01*
X129879555Y-76528805D01*
X129648429Y-76624541D01*
X129440422Y-76763527D01*
X129263527Y-76940422D01*
X129124541Y-77148429D01*
X129028805Y-77379555D01*
X128980000Y-77624916D01*
X127020000Y-77624916D01*
X127020000Y-77624915D01*
X126971195Y-77379554D01*
X126875459Y-77148428D01*
X126736473Y-76940421D01*
X126559578Y-76763526D01*
X126351571Y-76624540D01*
X126120445Y-76528804D01*
X125875084Y-76479999D01*
X125624916Y-76479999D01*
X125379555Y-76528804D01*
X125148429Y-76624540D01*
X124940422Y-76763526D01*
X124763527Y-76940421D01*
X124624541Y-77148428D01*
X124528805Y-77379554D01*
X124480000Y-77624915D01*
X122135000Y-77624915D01*
X122135000Y-75275340D01*
X123404265Y-75275340D01*
X123650416Y-75667704D01*
X124152822Y-75933312D01*
X124697393Y-76095801D01*
X125263199Y-76148928D01*
X125828498Y-76090652D01*
X126371566Y-75923210D01*
X126849584Y-75667704D01*
X127095735Y-75275340D01*
X125250000Y-73429605D01*
X123404265Y-75275340D01*
X122135000Y-75275340D01*
X122135000Y-73293280D01*
X122137949Y-73263199D01*
X122351072Y-73263199D01*
X122409348Y-73828498D01*
X122576790Y-74371566D01*
X122832296Y-74849584D01*
X123224660Y-75095735D01*
X125070395Y-73250000D01*
X125429605Y-73250000D01*
X127275340Y-75095735D01*
X127667704Y-74849584D01*
X127933312Y-74347178D01*
X128009242Y-74092702D01*
X132086903Y-74092702D01*
X132158486Y-74336671D01*
X132413996Y-74457571D01*
X132688184Y-74526300D01*
X132970512Y-74540217D01*
X133250130Y-74498787D01*
X133516292Y-74403603D01*
X133641514Y-74336671D01*
X133713097Y-74092702D01*
X132900000Y-73279605D01*
X132086903Y-74092702D01*
X128009242Y-74092702D01*
X128095801Y-73802607D01*
X128148928Y-73236801D01*
X128142095Y-73170512D01*
X131459783Y-73170512D01*
X131501213Y-73450130D01*
X131596397Y-73716292D01*
X131663329Y-73841514D01*
X131907298Y-73913097D01*
X132720395Y-73100000D01*
X133079605Y-73100000D01*
X133892702Y-73913097D01*
X133961928Y-73892785D01*
X133961928Y-73900000D01*
X133974188Y-74024482D01*
X134010498Y-74144180D01*
X134069463Y-74254494D01*
X134148815Y-74351185D01*
X134245506Y-74430537D01*
X134355820Y-74489502D01*
X134475518Y-74525812D01*
X134600000Y-74538072D01*
X136200000Y-74538072D01*
X136324482Y-74525812D01*
X136444180Y-74489502D01*
X136554494Y-74430537D01*
X136651185Y-74351185D01*
X136730537Y-74254494D01*
X136789502Y-74144180D01*
X136825812Y-74024482D01*
X136838072Y-73900000D01*
X136838072Y-72300000D01*
X136825812Y-72175518D01*
X136789502Y-72055820D01*
X136730537Y-71945506D01*
X136651185Y-71848815D01*
X136554494Y-71769463D01*
X136444180Y-71710498D01*
X136324482Y-71674188D01*
X136200000Y-71661928D01*
X134600000Y-71661928D01*
X134475518Y-71674188D01*
X134355820Y-71710498D01*
X134245506Y-71769463D01*
X134148815Y-71848815D01*
X134069463Y-71945506D01*
X134010498Y-72055820D01*
X133974188Y-72175518D01*
X133961928Y-72300000D01*
X133961928Y-72307215D01*
X133892702Y-72286903D01*
X133079605Y-73100000D01*
X132720395Y-73100000D01*
X131907298Y-72286903D01*
X131663329Y-72358486D01*
X131542429Y-72613996D01*
X131473700Y-72888184D01*
X131459783Y-73170512D01*
X128142095Y-73170512D01*
X128090652Y-72671502D01*
X127923210Y-72128434D01*
X127911913Y-72107298D01*
X132086903Y-72107298D01*
X132900000Y-72920395D01*
X133713097Y-72107298D01*
X133641514Y-71863329D01*
X133386004Y-71742429D01*
X133111816Y-71673700D01*
X132829488Y-71659783D01*
X132549870Y-71701213D01*
X132283708Y-71796397D01*
X132158486Y-71863329D01*
X132086903Y-72107298D01*
X127911913Y-72107298D01*
X127667704Y-71650416D01*
X127275340Y-71404265D01*
X125429605Y-73250000D01*
X125070395Y-73250000D01*
X123224660Y-71404265D01*
X122832296Y-71650416D01*
X122566688Y-72152822D01*
X122404199Y-72697393D01*
X122351072Y-73263199D01*
X122137949Y-73263199D01*
X122198487Y-72645787D01*
X122373963Y-72064584D01*
X122658986Y-71528534D01*
X122906818Y-71224660D01*
X123404265Y-71224660D01*
X125250000Y-73070395D01*
X127095735Y-71224660D01*
X126849584Y-70832296D01*
X126347178Y-70566688D01*
X125802607Y-70404199D01*
X125236801Y-70351072D01*
X124671502Y-70409348D01*
X124128434Y-70576790D01*
X123650416Y-70832296D01*
X123404265Y-71224660D01*
X122906818Y-71224660D01*
X123042700Y-71058053D01*
X123510484Y-70671068D01*
X124044537Y-70382307D01*
X124624496Y-70202780D01*
X125269381Y-70135000D01*
X143252792Y-70135000D01*
X143109687Y-70178411D01*
M02*
