G04 #@! TF.GenerationSoftware,KiCad,Pcbnew,(5.1.5)-3*
G04 #@! TF.CreationDate,2020-08-05T20:59:16-04:00*
G04 #@! TF.ProjectId,SOIC-8,534f4943-2d38-42e6-9b69-6361645f7063,rev?*
G04 #@! TF.SameCoordinates,Original*
G04 #@! TF.FileFunction,Soldermask,Bot*
G04 #@! TF.FilePolarity,Negative*
%FSLAX46Y46*%
G04 Gerber Fmt 4.6, Leading zero omitted, Abs format (unit mm)*
G04 Created by KiCad (PCBNEW (5.1.5)-3) date 2020-08-05 20:59:16*
%MOMM*%
%LPD*%
G04 APERTURE LIST*
%ADD10C,0.100000*%
G04 APERTURE END LIST*
D10*
G36*
X98201000Y-83221000D02*
G01*
X96399000Y-83221000D01*
X96399000Y-81419000D01*
X98201000Y-81419000D01*
X98201000Y-83221000D01*
G37*
G36*
X85413512Y-81423927D02*
G01*
X85562812Y-81453624D01*
X85726784Y-81521544D01*
X85874354Y-81620147D01*
X85999853Y-81745646D01*
X86098456Y-81893216D01*
X86166376Y-82057188D01*
X86201000Y-82231259D01*
X86201000Y-82408741D01*
X86166376Y-82582812D01*
X86098456Y-82746784D01*
X85999853Y-82894354D01*
X85874354Y-83019853D01*
X85726784Y-83118456D01*
X85562812Y-83186376D01*
X85413512Y-83216073D01*
X85388742Y-83221000D01*
X85211258Y-83221000D01*
X85186488Y-83216073D01*
X85037188Y-83186376D01*
X84873216Y-83118456D01*
X84725646Y-83019853D01*
X84600147Y-82894354D01*
X84501544Y-82746784D01*
X84433624Y-82582812D01*
X84399000Y-82408741D01*
X84399000Y-82231259D01*
X84433624Y-82057188D01*
X84501544Y-81893216D01*
X84600147Y-81745646D01*
X84725646Y-81620147D01*
X84873216Y-81521544D01*
X85037188Y-81453624D01*
X85186488Y-81423927D01*
X85211258Y-81419000D01*
X85388742Y-81419000D01*
X85413512Y-81423927D01*
G37*
G36*
X97413512Y-78883927D02*
G01*
X97562812Y-78913624D01*
X97726784Y-78981544D01*
X97874354Y-79080147D01*
X97999853Y-79205646D01*
X98098456Y-79353216D01*
X98166376Y-79517188D01*
X98201000Y-79691259D01*
X98201000Y-79868741D01*
X98166376Y-80042812D01*
X98098456Y-80206784D01*
X97999853Y-80354354D01*
X97874354Y-80479853D01*
X97726784Y-80578456D01*
X97562812Y-80646376D01*
X97413512Y-80676073D01*
X97388742Y-80681000D01*
X97211258Y-80681000D01*
X97186488Y-80676073D01*
X97037188Y-80646376D01*
X96873216Y-80578456D01*
X96725646Y-80479853D01*
X96600147Y-80354354D01*
X96501544Y-80206784D01*
X96433624Y-80042812D01*
X96399000Y-79868741D01*
X96399000Y-79691259D01*
X96433624Y-79517188D01*
X96501544Y-79353216D01*
X96600147Y-79205646D01*
X96725646Y-79080147D01*
X96873216Y-78981544D01*
X97037188Y-78913624D01*
X97186488Y-78883927D01*
X97211258Y-78879000D01*
X97388742Y-78879000D01*
X97413512Y-78883927D01*
G37*
G36*
X85413512Y-78883927D02*
G01*
X85562812Y-78913624D01*
X85726784Y-78981544D01*
X85874354Y-79080147D01*
X85999853Y-79205646D01*
X86098456Y-79353216D01*
X86166376Y-79517188D01*
X86201000Y-79691259D01*
X86201000Y-79868741D01*
X86166376Y-80042812D01*
X86098456Y-80206784D01*
X85999853Y-80354354D01*
X85874354Y-80479853D01*
X85726784Y-80578456D01*
X85562812Y-80646376D01*
X85413512Y-80676073D01*
X85388742Y-80681000D01*
X85211258Y-80681000D01*
X85186488Y-80676073D01*
X85037188Y-80646376D01*
X84873216Y-80578456D01*
X84725646Y-80479853D01*
X84600147Y-80354354D01*
X84501544Y-80206784D01*
X84433624Y-80042812D01*
X84399000Y-79868741D01*
X84399000Y-79691259D01*
X84433624Y-79517188D01*
X84501544Y-79353216D01*
X84600147Y-79205646D01*
X84725646Y-79080147D01*
X84873216Y-78981544D01*
X85037188Y-78913624D01*
X85186488Y-78883927D01*
X85211258Y-78879000D01*
X85388742Y-78879000D01*
X85413512Y-78883927D01*
G37*
G36*
X97413512Y-76343927D02*
G01*
X97562812Y-76373624D01*
X97726784Y-76441544D01*
X97874354Y-76540147D01*
X97999853Y-76665646D01*
X98098456Y-76813216D01*
X98166376Y-76977188D01*
X98201000Y-77151259D01*
X98201000Y-77328741D01*
X98166376Y-77502812D01*
X98098456Y-77666784D01*
X97999853Y-77814354D01*
X97874354Y-77939853D01*
X97726784Y-78038456D01*
X97562812Y-78106376D01*
X97413512Y-78136073D01*
X97388742Y-78141000D01*
X97211258Y-78141000D01*
X97186488Y-78136073D01*
X97037188Y-78106376D01*
X96873216Y-78038456D01*
X96725646Y-77939853D01*
X96600147Y-77814354D01*
X96501544Y-77666784D01*
X96433624Y-77502812D01*
X96399000Y-77328741D01*
X96399000Y-77151259D01*
X96433624Y-76977188D01*
X96501544Y-76813216D01*
X96600147Y-76665646D01*
X96725646Y-76540147D01*
X96873216Y-76441544D01*
X97037188Y-76373624D01*
X97186488Y-76343927D01*
X97211258Y-76339000D01*
X97388742Y-76339000D01*
X97413512Y-76343927D01*
G37*
G36*
X85413512Y-76343927D02*
G01*
X85562812Y-76373624D01*
X85726784Y-76441544D01*
X85874354Y-76540147D01*
X85999853Y-76665646D01*
X86098456Y-76813216D01*
X86166376Y-76977188D01*
X86201000Y-77151259D01*
X86201000Y-77328741D01*
X86166376Y-77502812D01*
X86098456Y-77666784D01*
X85999853Y-77814354D01*
X85874354Y-77939853D01*
X85726784Y-78038456D01*
X85562812Y-78106376D01*
X85413512Y-78136073D01*
X85388742Y-78141000D01*
X85211258Y-78141000D01*
X85186488Y-78136073D01*
X85037188Y-78106376D01*
X84873216Y-78038456D01*
X84725646Y-77939853D01*
X84600147Y-77814354D01*
X84501544Y-77666784D01*
X84433624Y-77502812D01*
X84399000Y-77328741D01*
X84399000Y-77151259D01*
X84433624Y-76977188D01*
X84501544Y-76813216D01*
X84600147Y-76665646D01*
X84725646Y-76540147D01*
X84873216Y-76441544D01*
X85037188Y-76373624D01*
X85186488Y-76343927D01*
X85211258Y-76339000D01*
X85388742Y-76339000D01*
X85413512Y-76343927D01*
G37*
G36*
X97413512Y-73803927D02*
G01*
X97562812Y-73833624D01*
X97726784Y-73901544D01*
X97874354Y-74000147D01*
X97999853Y-74125646D01*
X98098456Y-74273216D01*
X98166376Y-74437188D01*
X98201000Y-74611259D01*
X98201000Y-74788741D01*
X98166376Y-74962812D01*
X98098456Y-75126784D01*
X97999853Y-75274354D01*
X97874354Y-75399853D01*
X97726784Y-75498456D01*
X97562812Y-75566376D01*
X97413512Y-75596073D01*
X97388742Y-75601000D01*
X97211258Y-75601000D01*
X97186488Y-75596073D01*
X97037188Y-75566376D01*
X96873216Y-75498456D01*
X96725646Y-75399853D01*
X96600147Y-75274354D01*
X96501544Y-75126784D01*
X96433624Y-74962812D01*
X96399000Y-74788741D01*
X96399000Y-74611259D01*
X96433624Y-74437188D01*
X96501544Y-74273216D01*
X96600147Y-74125646D01*
X96725646Y-74000147D01*
X96873216Y-73901544D01*
X97037188Y-73833624D01*
X97186488Y-73803927D01*
X97211258Y-73799000D01*
X97388742Y-73799000D01*
X97413512Y-73803927D01*
G37*
G36*
X86201000Y-75601000D02*
G01*
X84399000Y-75601000D01*
X84399000Y-73799000D01*
X86201000Y-73799000D01*
X86201000Y-75601000D01*
G37*
M02*
