G04 #@! TF.GenerationSoftware,KiCad,Pcbnew,(5.1.5)-3*
G04 #@! TF.CreationDate,2020-12-03T02:51:26-05:00*
G04 #@! TF.ProjectId,7447_Replica,37343437-5f52-4657-906c-6963612e6b69,rev?*
G04 #@! TF.SameCoordinates,Original*
G04 #@! TF.FileFunction,Legend,Top*
G04 #@! TF.FilePolarity,Positive*
%FSLAX46Y46*%
G04 Gerber Fmt 4.6, Leading zero omitted, Abs format (unit mm)*
G04 Created by KiCad (PCBNEW (5.1.5)-3) date 2020-12-03 02:51:26*
%MOMM*%
%LPD*%
G04 APERTURE LIST*
%ADD10C,0.381000*%
%ADD11C,0.150000*%
%ADD12C,0.010000*%
%ADD13C,0.120000*%
%ADD14C,0.200000*%
%ADD15C,0.152400*%
%ADD16C,0.124460*%
%ADD17C,0.101600*%
G04 APERTURE END LIST*
D10*
X105621666Y-30014333D02*
X106807000Y-30014333D01*
X106045000Y-31792333D01*
X108754333Y-31707666D02*
X109008333Y-31792333D01*
X109431666Y-31792333D01*
X109601000Y-31707666D01*
X109685666Y-31623000D01*
X109770333Y-31453666D01*
X109770333Y-31284333D01*
X109685666Y-31115000D01*
X109601000Y-31030333D01*
X109431666Y-30945666D01*
X109093000Y-30861000D01*
X108923666Y-30776333D01*
X108839000Y-30691666D01*
X108754333Y-30522333D01*
X108754333Y-30353000D01*
X108839000Y-30183666D01*
X108923666Y-30099000D01*
X109093000Y-30014333D01*
X109516333Y-30014333D01*
X109770333Y-30099000D01*
X110532333Y-30861000D02*
X111125000Y-30861000D01*
X111379000Y-31792333D02*
X110532333Y-31792333D01*
X110532333Y-30014333D01*
X111379000Y-30014333D01*
X113072333Y-30099000D02*
X112903000Y-30014333D01*
X112649000Y-30014333D01*
X112395000Y-30099000D01*
X112225666Y-30268333D01*
X112141000Y-30437666D01*
X112056333Y-30776333D01*
X112056333Y-31030333D01*
X112141000Y-31369000D01*
X112225666Y-31538333D01*
X112395000Y-31707666D01*
X112649000Y-31792333D01*
X112818333Y-31792333D01*
X113072333Y-31707666D01*
X113157000Y-31623000D01*
X113157000Y-31030333D01*
X112818333Y-31030333D01*
X113919000Y-31792333D02*
X113919000Y-30014333D01*
X114511666Y-31284333D01*
X115104333Y-30014333D01*
X115104333Y-31792333D01*
X115951000Y-30861000D02*
X116543666Y-30861000D01*
X116797666Y-31792333D02*
X115951000Y-31792333D01*
X115951000Y-30014333D01*
X116797666Y-30014333D01*
X117559666Y-31792333D02*
X117559666Y-30014333D01*
X118575666Y-31792333D01*
X118575666Y-30014333D01*
X119168333Y-30014333D02*
X120184333Y-30014333D01*
X119676333Y-31792333D02*
X119676333Y-30014333D01*
X122131666Y-31792333D02*
X122131666Y-30014333D01*
X122555000Y-30014333D01*
X122809000Y-30099000D01*
X122978333Y-30268333D01*
X123063000Y-30437666D01*
X123147666Y-30776333D01*
X123147666Y-31030333D01*
X123063000Y-31369000D01*
X122978333Y-31538333D01*
X122809000Y-31707666D01*
X122555000Y-31792333D01*
X122131666Y-31792333D01*
X123909666Y-30861000D02*
X124502333Y-30861000D01*
X124756333Y-31792333D02*
X123909666Y-31792333D01*
X123909666Y-30014333D01*
X124756333Y-30014333D01*
X126534333Y-31623000D02*
X126449666Y-31707666D01*
X126195666Y-31792333D01*
X126026333Y-31792333D01*
X125772333Y-31707666D01*
X125603000Y-31538333D01*
X125518333Y-31369000D01*
X125433666Y-31030333D01*
X125433666Y-30776333D01*
X125518333Y-30437666D01*
X125603000Y-30268333D01*
X125772333Y-30099000D01*
X126026333Y-30014333D01*
X126195666Y-30014333D01*
X126449666Y-30099000D01*
X126534333Y-30183666D01*
X127635000Y-30014333D02*
X127973666Y-30014333D01*
X128143000Y-30099000D01*
X128312333Y-30268333D01*
X128397000Y-30607000D01*
X128397000Y-31199666D01*
X128312333Y-31538333D01*
X128143000Y-31707666D01*
X127973666Y-31792333D01*
X127635000Y-31792333D01*
X127465666Y-31707666D01*
X127296333Y-31538333D01*
X127211666Y-31199666D01*
X127211666Y-30607000D01*
X127296333Y-30268333D01*
X127465666Y-30099000D01*
X127635000Y-30014333D01*
X129159000Y-31792333D02*
X129159000Y-30014333D01*
X129582333Y-30014333D01*
X129836333Y-30099000D01*
X130005666Y-30268333D01*
X130090333Y-30437666D01*
X130175000Y-30776333D01*
X130175000Y-31030333D01*
X130090333Y-31369000D01*
X130005666Y-31538333D01*
X129836333Y-31707666D01*
X129582333Y-31792333D01*
X129159000Y-31792333D01*
X130937000Y-30861000D02*
X131529666Y-30861000D01*
X131783666Y-31792333D02*
X130937000Y-31792333D01*
X130937000Y-30014333D01*
X131783666Y-30014333D01*
X133561666Y-31792333D02*
X132969000Y-30945666D01*
X132545666Y-31792333D02*
X132545666Y-30014333D01*
X133223000Y-30014333D01*
X133392333Y-30099000D01*
X133477000Y-30183666D01*
X133561666Y-30353000D01*
X133561666Y-30607000D01*
X133477000Y-30776333D01*
X133392333Y-30861000D01*
X133223000Y-30945666D01*
X132545666Y-30945666D01*
X101600000Y-34755666D02*
X101854000Y-34840333D01*
X102277333Y-34840333D01*
X102446666Y-34755666D01*
X102531333Y-34671000D01*
X102616000Y-34501666D01*
X102616000Y-34332333D01*
X102531333Y-34163000D01*
X102446666Y-34078333D01*
X102277333Y-33993666D01*
X101938666Y-33909000D01*
X101769333Y-33824333D01*
X101684666Y-33739666D01*
X101600000Y-33570333D01*
X101600000Y-33401000D01*
X101684666Y-33231666D01*
X101769333Y-33147000D01*
X101938666Y-33062333D01*
X102362000Y-33062333D01*
X102616000Y-33147000D01*
X104394000Y-34671000D02*
X104309333Y-34755666D01*
X104055333Y-34840333D01*
X103886000Y-34840333D01*
X103632000Y-34755666D01*
X103462666Y-34586333D01*
X103378000Y-34417000D01*
X103293333Y-34078333D01*
X103293333Y-33824333D01*
X103378000Y-33485666D01*
X103462666Y-33316333D01*
X103632000Y-33147000D01*
X103886000Y-33062333D01*
X104055333Y-33062333D01*
X104309333Y-33147000D01*
X104394000Y-33231666D01*
X105156000Y-34840333D02*
X105156000Y-33062333D01*
X105156000Y-33909000D02*
X106172000Y-33909000D01*
X106172000Y-34840333D02*
X106172000Y-33062333D01*
X107018666Y-33909000D02*
X107611333Y-33909000D01*
X107865333Y-34840333D02*
X107018666Y-34840333D01*
X107018666Y-33062333D01*
X107865333Y-33062333D01*
X108627333Y-34840333D02*
X108627333Y-33062333D01*
X109220000Y-34332333D01*
X109812666Y-33062333D01*
X109812666Y-34840333D01*
X110574666Y-34332333D02*
X111421333Y-34332333D01*
X110405333Y-34840333D02*
X110998000Y-33062333D01*
X111590666Y-34840333D01*
X111929333Y-33062333D02*
X112945333Y-33062333D01*
X112437333Y-34840333D02*
X112437333Y-33062333D01*
X113538000Y-34840333D02*
X113538000Y-33062333D01*
X115400666Y-34671000D02*
X115316000Y-34755666D01*
X115062000Y-34840333D01*
X114892666Y-34840333D01*
X114638666Y-34755666D01*
X114469333Y-34586333D01*
X114384666Y-34417000D01*
X114300000Y-34078333D01*
X114300000Y-33824333D01*
X114384666Y-33485666D01*
X114469333Y-33316333D01*
X114638666Y-33147000D01*
X114892666Y-33062333D01*
X115062000Y-33062333D01*
X115316000Y-33147000D01*
X115400666Y-33231666D01*
X118110000Y-33909000D02*
X118364000Y-33993666D01*
X118448666Y-34078333D01*
X118533333Y-34247666D01*
X118533333Y-34501666D01*
X118448666Y-34671000D01*
X118364000Y-34755666D01*
X118194666Y-34840333D01*
X117517333Y-34840333D01*
X117517333Y-33062333D01*
X118110000Y-33062333D01*
X118279333Y-33147000D01*
X118364000Y-33231666D01*
X118448666Y-33401000D01*
X118448666Y-33570333D01*
X118364000Y-33739666D01*
X118279333Y-33824333D01*
X118110000Y-33909000D01*
X117517333Y-33909000D01*
X119634000Y-33993666D02*
X119634000Y-34840333D01*
X119041333Y-33062333D02*
X119634000Y-33993666D01*
X120226666Y-33062333D01*
X122089333Y-34755666D02*
X122343333Y-34840333D01*
X122766666Y-34840333D01*
X122936000Y-34755666D01*
X123020666Y-34671000D01*
X123105333Y-34501666D01*
X123105333Y-34332333D01*
X123020666Y-34163000D01*
X122936000Y-34078333D01*
X122766666Y-33993666D01*
X122428000Y-33909000D01*
X122258666Y-33824333D01*
X122174000Y-33739666D01*
X122089333Y-33570333D01*
X122089333Y-33401000D01*
X122174000Y-33231666D01*
X122258666Y-33147000D01*
X122428000Y-33062333D01*
X122851333Y-33062333D01*
X123105333Y-33147000D01*
X123867333Y-34840333D02*
X123867333Y-33062333D01*
X124883333Y-34840333D02*
X124121333Y-33824333D01*
X124883333Y-33062333D02*
X123867333Y-34078333D01*
X125984000Y-33993666D02*
X125984000Y-34840333D01*
X125391333Y-33062333D02*
X125984000Y-33993666D01*
X126576666Y-33062333D01*
X127169333Y-33909000D02*
X127762000Y-33909000D01*
X128016000Y-34840333D02*
X127169333Y-34840333D01*
X127169333Y-33062333D01*
X128016000Y-33062333D01*
X130132666Y-33909000D02*
X130725333Y-33909000D01*
X130979333Y-34840333D02*
X130132666Y-34840333D01*
X130132666Y-33062333D01*
X130979333Y-33062333D01*
X132757333Y-34840333D02*
X132164666Y-33993666D01*
X131741333Y-34840333D02*
X131741333Y-33062333D01*
X132418666Y-33062333D01*
X132588000Y-33147000D01*
X132672666Y-33231666D01*
X132757333Y-33401000D01*
X132757333Y-33655000D01*
X132672666Y-33824333D01*
X132588000Y-33909000D01*
X132418666Y-33993666D01*
X131741333Y-33993666D01*
X133519333Y-34840333D02*
X133519333Y-33062333D01*
X134535333Y-34840333D01*
X134535333Y-33062333D01*
X135297333Y-34755666D02*
X135551333Y-34840333D01*
X135974666Y-34840333D01*
X136144000Y-34755666D01*
X136228666Y-34671000D01*
X136313333Y-34501666D01*
X136313333Y-34332333D01*
X136228666Y-34163000D01*
X136144000Y-34078333D01*
X135974666Y-33993666D01*
X135636000Y-33909000D01*
X135466666Y-33824333D01*
X135382000Y-33739666D01*
X135297333Y-33570333D01*
X135297333Y-33401000D01*
X135382000Y-33231666D01*
X135466666Y-33147000D01*
X135636000Y-33062333D01*
X136059333Y-33062333D01*
X136313333Y-33147000D01*
X136821333Y-33062333D02*
X137837333Y-33062333D01*
X137329333Y-34840333D02*
X137329333Y-33062333D01*
X104986666Y-37888333D02*
X104140000Y-37888333D01*
X104140000Y-36110333D01*
X105494666Y-37380333D02*
X106341333Y-37380333D01*
X105325333Y-37888333D02*
X105918000Y-36110333D01*
X106510666Y-37888333D01*
X107442000Y-37041666D02*
X107442000Y-37888333D01*
X106849333Y-36110333D02*
X107442000Y-37041666D01*
X108034666Y-36110333D01*
X108966000Y-36110333D02*
X109304666Y-36110333D01*
X109474000Y-36195000D01*
X109643333Y-36364333D01*
X109728000Y-36703000D01*
X109728000Y-37295666D01*
X109643333Y-37634333D01*
X109474000Y-37803666D01*
X109304666Y-37888333D01*
X108966000Y-37888333D01*
X108796666Y-37803666D01*
X108627333Y-37634333D01*
X108542666Y-37295666D01*
X108542666Y-36703000D01*
X108627333Y-36364333D01*
X108796666Y-36195000D01*
X108966000Y-36110333D01*
X110490000Y-36110333D02*
X110490000Y-37549666D01*
X110574666Y-37719000D01*
X110659333Y-37803666D01*
X110828666Y-37888333D01*
X111167333Y-37888333D01*
X111336666Y-37803666D01*
X111421333Y-37719000D01*
X111506000Y-37549666D01*
X111506000Y-36110333D01*
X112098666Y-36110333D02*
X113114666Y-36110333D01*
X112606666Y-37888333D02*
X112606666Y-36110333D01*
X115654666Y-36957000D02*
X115908666Y-37041666D01*
X115993333Y-37126333D01*
X116078000Y-37295666D01*
X116078000Y-37549666D01*
X115993333Y-37719000D01*
X115908666Y-37803666D01*
X115739333Y-37888333D01*
X115062000Y-37888333D01*
X115062000Y-36110333D01*
X115654666Y-36110333D01*
X115824000Y-36195000D01*
X115908666Y-36279666D01*
X115993333Y-36449000D01*
X115993333Y-36618333D01*
X115908666Y-36787666D01*
X115824000Y-36872333D01*
X115654666Y-36957000D01*
X115062000Y-36957000D01*
X117178666Y-37041666D02*
X117178666Y-37888333D01*
X116586000Y-36110333D02*
X117178666Y-37041666D01*
X117771333Y-36110333D01*
X119634000Y-37803666D02*
X119888000Y-37888333D01*
X120311333Y-37888333D01*
X120480666Y-37803666D01*
X120565333Y-37719000D01*
X120650000Y-37549666D01*
X120650000Y-37380333D01*
X120565333Y-37211000D01*
X120480666Y-37126333D01*
X120311333Y-37041666D01*
X119972666Y-36957000D01*
X119803333Y-36872333D01*
X119718666Y-36787666D01*
X119634000Y-36618333D01*
X119634000Y-36449000D01*
X119718666Y-36279666D01*
X119803333Y-36195000D01*
X119972666Y-36110333D01*
X120396000Y-36110333D01*
X120650000Y-36195000D01*
X121412000Y-37888333D02*
X121412000Y-36110333D01*
X122428000Y-37888333D02*
X121666000Y-36872333D01*
X122428000Y-36110333D02*
X121412000Y-37126333D01*
X123528666Y-37041666D02*
X123528666Y-37888333D01*
X122936000Y-36110333D02*
X123528666Y-37041666D01*
X124121333Y-36110333D01*
X124714000Y-36957000D02*
X125306666Y-36957000D01*
X125560666Y-37888333D02*
X124714000Y-37888333D01*
X124714000Y-36110333D01*
X125560666Y-36110333D01*
X127677333Y-36957000D02*
X128270000Y-36957000D01*
X128524000Y-37888333D02*
X127677333Y-37888333D01*
X127677333Y-36110333D01*
X128524000Y-36110333D01*
X130302000Y-37888333D02*
X129709333Y-37041666D01*
X129286000Y-37888333D02*
X129286000Y-36110333D01*
X129963333Y-36110333D01*
X130132666Y-36195000D01*
X130217333Y-36279666D01*
X130302000Y-36449000D01*
X130302000Y-36703000D01*
X130217333Y-36872333D01*
X130132666Y-36957000D01*
X129963333Y-37041666D01*
X129286000Y-37041666D01*
X131064000Y-37888333D02*
X131064000Y-36110333D01*
X132080000Y-37888333D01*
X132080000Y-36110333D01*
X132842000Y-37803666D02*
X133096000Y-37888333D01*
X133519333Y-37888333D01*
X133688666Y-37803666D01*
X133773333Y-37719000D01*
X133858000Y-37549666D01*
X133858000Y-37380333D01*
X133773333Y-37211000D01*
X133688666Y-37126333D01*
X133519333Y-37041666D01*
X133180666Y-36957000D01*
X133011333Y-36872333D01*
X132926666Y-36787666D01*
X132842000Y-36618333D01*
X132842000Y-36449000D01*
X132926666Y-36279666D01*
X133011333Y-36195000D01*
X133180666Y-36110333D01*
X133604000Y-36110333D01*
X133858000Y-36195000D01*
X134366000Y-36110333D02*
X135382000Y-36110333D01*
X134874000Y-37888333D02*
X134874000Y-36110333D01*
D11*
X59055095Y-26424000D02*
X58959857Y-26376380D01*
X58817000Y-26376380D01*
X58674142Y-26424000D01*
X58578904Y-26519238D01*
X58531285Y-26614476D01*
X58483666Y-26804952D01*
X58483666Y-26947809D01*
X58531285Y-27138285D01*
X58578904Y-27233523D01*
X58674142Y-27328761D01*
X58817000Y-27376380D01*
X58912238Y-27376380D01*
X59055095Y-27328761D01*
X59102714Y-27281142D01*
X59102714Y-26947809D01*
X58912238Y-26947809D01*
X59531285Y-27376380D02*
X59531285Y-26376380D01*
X60102714Y-27376380D01*
X60102714Y-26376380D01*
X60578904Y-27376380D02*
X60578904Y-26376380D01*
X60817000Y-26376380D01*
X60959857Y-26424000D01*
X61055095Y-26519238D01*
X61102714Y-26614476D01*
X61150333Y-26804952D01*
X61150333Y-26947809D01*
X61102714Y-27138285D01*
X61055095Y-27233523D01*
X60959857Y-27328761D01*
X60817000Y-27376380D01*
X60578904Y-27376380D01*
X58531285Y-37155428D02*
X59293190Y-37155428D01*
X58912238Y-37536380D02*
X58912238Y-36774476D01*
X60245571Y-36536380D02*
X59769380Y-36536380D01*
X59721761Y-37012571D01*
X59769380Y-36964952D01*
X59864619Y-36917333D01*
X60102714Y-36917333D01*
X60197952Y-36964952D01*
X60245571Y-37012571D01*
X60293190Y-37107809D01*
X60293190Y-37345904D01*
X60245571Y-37441142D01*
X60197952Y-37488761D01*
X60102714Y-37536380D01*
X59864619Y-37536380D01*
X59769380Y-37488761D01*
X59721761Y-37441142D01*
X60578904Y-36536380D02*
X60912238Y-37536380D01*
X61245571Y-36536380D01*
X62865095Y-26424000D02*
X62769857Y-26376380D01*
X62627000Y-26376380D01*
X62484142Y-26424000D01*
X62388904Y-26519238D01*
X62341285Y-26614476D01*
X62293666Y-26804952D01*
X62293666Y-26947809D01*
X62341285Y-27138285D01*
X62388904Y-27233523D01*
X62484142Y-27328761D01*
X62627000Y-27376380D01*
X62722238Y-27376380D01*
X62865095Y-27328761D01*
X62912714Y-27281142D01*
X62912714Y-26947809D01*
X62722238Y-26947809D01*
X63341285Y-27376380D02*
X63341285Y-26376380D01*
X63912714Y-27376380D01*
X63912714Y-26376380D01*
X64388904Y-27376380D02*
X64388904Y-26376380D01*
X64627000Y-26376380D01*
X64769857Y-26424000D01*
X64865095Y-26519238D01*
X64912714Y-26614476D01*
X64960333Y-26804952D01*
X64960333Y-26947809D01*
X64912714Y-27138285D01*
X64865095Y-27233523D01*
X64769857Y-27328761D01*
X64627000Y-27376380D01*
X64388904Y-27376380D01*
X61865095Y-37155428D02*
X62627000Y-37155428D01*
X62246047Y-37536380D02*
X62246047Y-36774476D01*
X63627000Y-37536380D02*
X63055571Y-37536380D01*
X63341285Y-37536380D02*
X63341285Y-36536380D01*
X63246047Y-36679238D01*
X63150809Y-36774476D01*
X63055571Y-36822095D01*
X64007952Y-36631619D02*
X64055571Y-36584000D01*
X64150809Y-36536380D01*
X64388904Y-36536380D01*
X64484142Y-36584000D01*
X64531761Y-36631619D01*
X64579380Y-36726857D01*
X64579380Y-36822095D01*
X64531761Y-36964952D01*
X63960333Y-37536380D01*
X64579380Y-37536380D01*
X64865095Y-36536380D02*
X65198428Y-37536380D01*
X65531761Y-36536380D01*
D12*
G36*
X46635292Y-69122409D02*
G01*
X46687857Y-69122944D01*
X46841881Y-69126660D01*
X46970875Y-69137699D01*
X47079237Y-69157246D01*
X47171362Y-69186483D01*
X47251647Y-69226597D01*
X47324488Y-69278769D01*
X47350505Y-69301433D01*
X47393663Y-69354462D01*
X47432579Y-69426421D01*
X47462573Y-69506184D01*
X47478965Y-69582625D01*
X47480668Y-69610872D01*
X47469995Y-69689174D01*
X47441393Y-69774705D01*
X47399989Y-69855663D01*
X47350905Y-69920246D01*
X47342933Y-69928038D01*
X47275400Y-69982808D01*
X47201448Y-70025563D01*
X47116812Y-70057423D01*
X47017229Y-70079508D01*
X46898434Y-70092938D01*
X46756166Y-70098834D01*
X46691000Y-70099334D01*
X46608145Y-70098935D01*
X46549877Y-70097266D01*
X46510730Y-70093622D01*
X46485237Y-70087293D01*
X46467932Y-70077574D01*
X46458656Y-70069274D01*
X46449894Y-70059192D01*
X46443021Y-70046185D01*
X46437808Y-70026769D01*
X46434027Y-69997460D01*
X46431449Y-69954773D01*
X46429846Y-69895225D01*
X46428989Y-69815330D01*
X46428649Y-69711605D01*
X46428597Y-69610872D01*
X46428266Y-69476519D01*
X46428338Y-69369192D01*
X46429616Y-69317795D01*
X46623981Y-69317795D01*
X46623981Y-69903949D01*
X46747975Y-69903835D01*
X46822585Y-69901696D01*
X46900728Y-69896183D01*
X46965926Y-69888472D01*
X46967910Y-69888155D01*
X47073283Y-69862678D01*
X47155014Y-69823000D01*
X47217184Y-69766538D01*
X47256686Y-69705406D01*
X47281026Y-69637593D01*
X47279139Y-69573919D01*
X47250891Y-69505665D01*
X47195638Y-69435056D01*
X47119073Y-69382735D01*
X47019551Y-69347763D01*
X46953039Y-69335386D01*
X46877539Y-69326694D01*
X46797521Y-69320404D01*
X46729462Y-69317788D01*
X46725431Y-69317776D01*
X46623981Y-69317795D01*
X46429616Y-69317795D01*
X46430410Y-69285881D01*
X46436085Y-69223579D01*
X46446959Y-69179275D01*
X46464632Y-69149960D01*
X46490703Y-69132625D01*
X46526771Y-69124261D01*
X46574434Y-69121859D01*
X46635292Y-69122409D01*
G37*
X46635292Y-69122409D02*
X46687857Y-69122944D01*
X46841881Y-69126660D01*
X46970875Y-69137699D01*
X47079237Y-69157246D01*
X47171362Y-69186483D01*
X47251647Y-69226597D01*
X47324488Y-69278769D01*
X47350505Y-69301433D01*
X47393663Y-69354462D01*
X47432579Y-69426421D01*
X47462573Y-69506184D01*
X47478965Y-69582625D01*
X47480668Y-69610872D01*
X47469995Y-69689174D01*
X47441393Y-69774705D01*
X47399989Y-69855663D01*
X47350905Y-69920246D01*
X47342933Y-69928038D01*
X47275400Y-69982808D01*
X47201448Y-70025563D01*
X47116812Y-70057423D01*
X47017229Y-70079508D01*
X46898434Y-70092938D01*
X46756166Y-70098834D01*
X46691000Y-70099334D01*
X46608145Y-70098935D01*
X46549877Y-70097266D01*
X46510730Y-70093622D01*
X46485237Y-70087293D01*
X46467932Y-70077574D01*
X46458656Y-70069274D01*
X46449894Y-70059192D01*
X46443021Y-70046185D01*
X46437808Y-70026769D01*
X46434027Y-69997460D01*
X46431449Y-69954773D01*
X46429846Y-69895225D01*
X46428989Y-69815330D01*
X46428649Y-69711605D01*
X46428597Y-69610872D01*
X46428266Y-69476519D01*
X46428338Y-69369192D01*
X46429616Y-69317795D01*
X46623981Y-69317795D01*
X46623981Y-69903949D01*
X46747975Y-69903835D01*
X46822585Y-69901696D01*
X46900728Y-69896183D01*
X46965926Y-69888472D01*
X46967910Y-69888155D01*
X47073283Y-69862678D01*
X47155014Y-69823000D01*
X47217184Y-69766538D01*
X47256686Y-69705406D01*
X47281026Y-69637593D01*
X47279139Y-69573919D01*
X47250891Y-69505665D01*
X47195638Y-69435056D01*
X47119073Y-69382735D01*
X47019551Y-69347763D01*
X46953039Y-69335386D01*
X46877539Y-69326694D01*
X46797521Y-69320404D01*
X46729462Y-69317788D01*
X46725431Y-69317776D01*
X46623981Y-69317795D01*
X46429616Y-69317795D01*
X46430410Y-69285881D01*
X46436085Y-69223579D01*
X46446959Y-69179275D01*
X46464632Y-69149960D01*
X46490703Y-69132625D01*
X46526771Y-69124261D01*
X46574434Y-69121859D01*
X46635292Y-69122409D01*
G36*
X48510616Y-69122516D02*
G01*
X48603024Y-69123012D01*
X48672773Y-69124165D01*
X48723563Y-69126244D01*
X48759095Y-69129515D01*
X48783068Y-69134247D01*
X48799182Y-69140707D01*
X48811137Y-69149163D01*
X48815467Y-69153055D01*
X48841795Y-69194404D01*
X48846535Y-69241916D01*
X48829216Y-69284095D01*
X48821207Y-69292620D01*
X48808254Y-69300885D01*
X48787398Y-69307261D01*
X48754770Y-69312059D01*
X48706504Y-69315588D01*
X48638732Y-69318158D01*
X48547586Y-69320081D01*
X48464255Y-69321251D01*
X48134454Y-69325310D01*
X48125440Y-69498150D01*
X48349304Y-69498150D01*
X48446492Y-69498989D01*
X48517643Y-69502496D01*
X48566755Y-69510159D01*
X48597829Y-69523467D01*
X48614862Y-69543905D01*
X48621854Y-69572963D01*
X48622916Y-69599931D01*
X48619616Y-69633021D01*
X48607163Y-69657404D01*
X48581726Y-69674353D01*
X48539475Y-69685143D01*
X48476580Y-69691048D01*
X48389211Y-69693341D01*
X48341525Y-69693535D01*
X48126940Y-69693535D01*
X48126940Y-69903949D01*
X48457591Y-69903949D01*
X48565976Y-69904100D01*
X48648349Y-69904778D01*
X48708757Y-69906320D01*
X48751247Y-69909063D01*
X48779865Y-69913345D01*
X48798658Y-69919503D01*
X48811672Y-69927873D01*
X48818301Y-69934008D01*
X48841039Y-69969813D01*
X48848360Y-70001641D01*
X48837907Y-70040518D01*
X48818301Y-70069274D01*
X48807841Y-70078327D01*
X48794338Y-70085357D01*
X48774160Y-70090618D01*
X48743675Y-70094365D01*
X48699251Y-70096854D01*
X48637255Y-70098339D01*
X48554055Y-70099075D01*
X48446019Y-70099318D01*
X48389957Y-70099334D01*
X48269902Y-70099227D01*
X48176272Y-70098739D01*
X48105437Y-70097613D01*
X48053765Y-70095595D01*
X48017623Y-70092430D01*
X47993378Y-70087863D01*
X47977399Y-70081640D01*
X47966053Y-70073504D01*
X47961614Y-70069274D01*
X47952829Y-70059160D01*
X47945942Y-70046112D01*
X47940725Y-70026634D01*
X47936947Y-69997228D01*
X47934376Y-69954398D01*
X47932782Y-69894648D01*
X47931935Y-69814481D01*
X47931604Y-69710401D01*
X47931555Y-69613492D01*
X47931600Y-69489387D01*
X47931912Y-69391830D01*
X47932758Y-69317310D01*
X47934404Y-69262315D01*
X47937117Y-69223334D01*
X47941163Y-69196857D01*
X47946809Y-69179370D01*
X47954320Y-69167364D01*
X47963964Y-69157327D01*
X47966340Y-69155090D01*
X47977871Y-69145183D01*
X47991268Y-69137512D01*
X48010250Y-69131790D01*
X48038531Y-69127732D01*
X48079828Y-69125052D01*
X48137858Y-69123466D01*
X48216337Y-69122688D01*
X48318980Y-69122432D01*
X48391850Y-69122410D01*
X48510616Y-69122516D01*
G37*
X48510616Y-69122516D02*
X48603024Y-69123012D01*
X48672773Y-69124165D01*
X48723563Y-69126244D01*
X48759095Y-69129515D01*
X48783068Y-69134247D01*
X48799182Y-69140707D01*
X48811137Y-69149163D01*
X48815467Y-69153055D01*
X48841795Y-69194404D01*
X48846535Y-69241916D01*
X48829216Y-69284095D01*
X48821207Y-69292620D01*
X48808254Y-69300885D01*
X48787398Y-69307261D01*
X48754770Y-69312059D01*
X48706504Y-69315588D01*
X48638732Y-69318158D01*
X48547586Y-69320081D01*
X48464255Y-69321251D01*
X48134454Y-69325310D01*
X48125440Y-69498150D01*
X48349304Y-69498150D01*
X48446492Y-69498989D01*
X48517643Y-69502496D01*
X48566755Y-69510159D01*
X48597829Y-69523467D01*
X48614862Y-69543905D01*
X48621854Y-69572963D01*
X48622916Y-69599931D01*
X48619616Y-69633021D01*
X48607163Y-69657404D01*
X48581726Y-69674353D01*
X48539475Y-69685143D01*
X48476580Y-69691048D01*
X48389211Y-69693341D01*
X48341525Y-69693535D01*
X48126940Y-69693535D01*
X48126940Y-69903949D01*
X48457591Y-69903949D01*
X48565976Y-69904100D01*
X48648349Y-69904778D01*
X48708757Y-69906320D01*
X48751247Y-69909063D01*
X48779865Y-69913345D01*
X48798658Y-69919503D01*
X48811672Y-69927873D01*
X48818301Y-69934008D01*
X48841039Y-69969813D01*
X48848360Y-70001641D01*
X48837907Y-70040518D01*
X48818301Y-70069274D01*
X48807841Y-70078327D01*
X48794338Y-70085357D01*
X48774160Y-70090618D01*
X48743675Y-70094365D01*
X48699251Y-70096854D01*
X48637255Y-70098339D01*
X48554055Y-70099075D01*
X48446019Y-70099318D01*
X48389957Y-70099334D01*
X48269902Y-70099227D01*
X48176272Y-70098739D01*
X48105437Y-70097613D01*
X48053765Y-70095595D01*
X48017623Y-70092430D01*
X47993378Y-70087863D01*
X47977399Y-70081640D01*
X47966053Y-70073504D01*
X47961614Y-70069274D01*
X47952829Y-70059160D01*
X47945942Y-70046112D01*
X47940725Y-70026634D01*
X47936947Y-69997228D01*
X47934376Y-69954398D01*
X47932782Y-69894648D01*
X47931935Y-69814481D01*
X47931604Y-69710401D01*
X47931555Y-69613492D01*
X47931600Y-69489387D01*
X47931912Y-69391830D01*
X47932758Y-69317310D01*
X47934404Y-69262315D01*
X47937117Y-69223334D01*
X47941163Y-69196857D01*
X47946809Y-69179370D01*
X47954320Y-69167364D01*
X47963964Y-69157327D01*
X47966340Y-69155090D01*
X47977871Y-69145183D01*
X47991268Y-69137512D01*
X48010250Y-69131790D01*
X48038531Y-69127732D01*
X48079828Y-69125052D01*
X48137858Y-69123466D01*
X48216337Y-69122688D01*
X48318980Y-69122432D01*
X48391850Y-69122410D01*
X48510616Y-69122516D01*
G36*
X49870058Y-69124121D02*
G01*
X49969663Y-69131084D01*
X50062302Y-69141959D01*
X50142588Y-69156338D01*
X50205138Y-69173810D01*
X50244565Y-69193966D01*
X50250617Y-69199899D01*
X50271662Y-69245939D01*
X50265280Y-69293204D01*
X50232639Y-69333642D01*
X50231082Y-69334801D01*
X50211883Y-69347261D01*
X50191841Y-69353813D01*
X50163886Y-69354608D01*
X50120947Y-69349800D01*
X50055955Y-69339539D01*
X50050727Y-69338675D01*
X49953885Y-69326778D01*
X49849402Y-69320909D01*
X49744611Y-69320852D01*
X49646844Y-69326391D01*
X49563434Y-69337309D01*
X49501713Y-69353389D01*
X49497658Y-69355005D01*
X49452882Y-69380093D01*
X49437150Y-69405482D01*
X49449466Y-69430451D01*
X49488831Y-69454280D01*
X49554248Y-69476246D01*
X49644720Y-69495630D01*
X49705046Y-69504962D01*
X49830446Y-69522913D01*
X49930181Y-69539323D01*
X50008500Y-69555612D01*
X50069653Y-69573202D01*
X50117887Y-69593513D01*
X50157451Y-69617967D01*
X50192594Y-69647984D01*
X50220835Y-69677460D01*
X50254338Y-69718531D01*
X50270827Y-69753846D01*
X50275983Y-69797357D01*
X50276170Y-69813292D01*
X50272298Y-69866169D01*
X50256819Y-69905507D01*
X50230031Y-69940424D01*
X50175587Y-69993798D01*
X50114876Y-70034502D01*
X50043388Y-70063864D01*
X49956610Y-70083211D01*
X49850032Y-70093870D01*
X49719143Y-70097169D01*
X49697531Y-70097113D01*
X49610248Y-70095304D01*
X49523687Y-70091193D01*
X49447284Y-70085370D01*
X49390476Y-70078425D01*
X49385882Y-70077628D01*
X49329401Y-70064248D01*
X49281494Y-70047346D01*
X49254373Y-70031895D01*
X49229135Y-69991130D01*
X49227377Y-69943662D01*
X49249134Y-69901359D01*
X49254002Y-69896576D01*
X49274124Y-69882363D01*
X49299288Y-69876240D01*
X49338233Y-69877282D01*
X49385511Y-69882698D01*
X49438341Y-69887537D01*
X49512398Y-69891619D01*
X49598855Y-69894582D01*
X49688883Y-69896061D01*
X49712561Y-69896158D01*
X49802924Y-69895794D01*
X49869057Y-69894040D01*
X49916779Y-69890287D01*
X49951908Y-69883927D01*
X49980264Y-69874351D01*
X49997305Y-69866375D01*
X50034750Y-69844229D01*
X50058625Y-69824172D01*
X50062114Y-69818487D01*
X50054753Y-69795009D01*
X50019759Y-69772281D01*
X49959558Y-69751334D01*
X49876575Y-69733200D01*
X49852126Y-69729161D01*
X49724424Y-69709103D01*
X49622506Y-69692338D01*
X49542440Y-69677647D01*
X49480292Y-69663812D01*
X49432128Y-69649615D01*
X49394014Y-69633837D01*
X49362016Y-69615260D01*
X49332202Y-69592666D01*
X49300636Y-69564837D01*
X49290014Y-69555080D01*
X49252773Y-69518666D01*
X49233059Y-69489816D01*
X49225347Y-69456802D01*
X49224099Y-69415199D01*
X49237831Y-69333615D01*
X49278868Y-69264298D01*
X49346976Y-69207472D01*
X49441919Y-69163361D01*
X49509662Y-69143576D01*
X49583287Y-69130797D01*
X49671485Y-69123568D01*
X49768870Y-69121479D01*
X49870058Y-69124121D01*
G37*
X49870058Y-69124121D02*
X49969663Y-69131084D01*
X50062302Y-69141959D01*
X50142588Y-69156338D01*
X50205138Y-69173810D01*
X50244565Y-69193966D01*
X50250617Y-69199899D01*
X50271662Y-69245939D01*
X50265280Y-69293204D01*
X50232639Y-69333642D01*
X50231082Y-69334801D01*
X50211883Y-69347261D01*
X50191841Y-69353813D01*
X50163886Y-69354608D01*
X50120947Y-69349800D01*
X50055955Y-69339539D01*
X50050727Y-69338675D01*
X49953885Y-69326778D01*
X49849402Y-69320909D01*
X49744611Y-69320852D01*
X49646844Y-69326391D01*
X49563434Y-69337309D01*
X49501713Y-69353389D01*
X49497658Y-69355005D01*
X49452882Y-69380093D01*
X49437150Y-69405482D01*
X49449466Y-69430451D01*
X49488831Y-69454280D01*
X49554248Y-69476246D01*
X49644720Y-69495630D01*
X49705046Y-69504962D01*
X49830446Y-69522913D01*
X49930181Y-69539323D01*
X50008500Y-69555612D01*
X50069653Y-69573202D01*
X50117887Y-69593513D01*
X50157451Y-69617967D01*
X50192594Y-69647984D01*
X50220835Y-69677460D01*
X50254338Y-69718531D01*
X50270827Y-69753846D01*
X50275983Y-69797357D01*
X50276170Y-69813292D01*
X50272298Y-69866169D01*
X50256819Y-69905507D01*
X50230031Y-69940424D01*
X50175587Y-69993798D01*
X50114876Y-70034502D01*
X50043388Y-70063864D01*
X49956610Y-70083211D01*
X49850032Y-70093870D01*
X49719143Y-70097169D01*
X49697531Y-70097113D01*
X49610248Y-70095304D01*
X49523687Y-70091193D01*
X49447284Y-70085370D01*
X49390476Y-70078425D01*
X49385882Y-70077628D01*
X49329401Y-70064248D01*
X49281494Y-70047346D01*
X49254373Y-70031895D01*
X49229135Y-69991130D01*
X49227377Y-69943662D01*
X49249134Y-69901359D01*
X49254002Y-69896576D01*
X49274124Y-69882363D01*
X49299288Y-69876240D01*
X49338233Y-69877282D01*
X49385511Y-69882698D01*
X49438341Y-69887537D01*
X49512398Y-69891619D01*
X49598855Y-69894582D01*
X49688883Y-69896061D01*
X49712561Y-69896158D01*
X49802924Y-69895794D01*
X49869057Y-69894040D01*
X49916779Y-69890287D01*
X49951908Y-69883927D01*
X49980264Y-69874351D01*
X49997305Y-69866375D01*
X50034750Y-69844229D01*
X50058625Y-69824172D01*
X50062114Y-69818487D01*
X50054753Y-69795009D01*
X50019759Y-69772281D01*
X49959558Y-69751334D01*
X49876575Y-69733200D01*
X49852126Y-69729161D01*
X49724424Y-69709103D01*
X49622506Y-69692338D01*
X49542440Y-69677647D01*
X49480292Y-69663812D01*
X49432128Y-69649615D01*
X49394014Y-69633837D01*
X49362016Y-69615260D01*
X49332202Y-69592666D01*
X49300636Y-69564837D01*
X49290014Y-69555080D01*
X49252773Y-69518666D01*
X49233059Y-69489816D01*
X49225347Y-69456802D01*
X49224099Y-69415199D01*
X49237831Y-69333615D01*
X49278868Y-69264298D01*
X49346976Y-69207472D01*
X49441919Y-69163361D01*
X49509662Y-69143576D01*
X49583287Y-69130797D01*
X49671485Y-69123568D01*
X49768870Y-69121479D01*
X49870058Y-69124121D01*
G36*
X50892383Y-69152470D02*
G01*
X50901145Y-69162552D01*
X50908018Y-69175559D01*
X50913231Y-69194975D01*
X50917012Y-69224284D01*
X50919590Y-69266971D01*
X50921193Y-69326519D01*
X50922051Y-69406414D01*
X50922390Y-69510140D01*
X50922443Y-69610872D01*
X50922350Y-69735816D01*
X50921919Y-69834185D01*
X50920923Y-69909465D01*
X50919131Y-69965138D01*
X50916317Y-70004690D01*
X50912250Y-70031605D01*
X50906704Y-70049367D01*
X50899449Y-70061461D01*
X50892383Y-70069274D01*
X50848444Y-70095476D01*
X50801626Y-70093125D01*
X50759737Y-70064548D01*
X50750112Y-70053391D01*
X50742591Y-70040447D01*
X50736912Y-70022136D01*
X50732819Y-69994882D01*
X50730051Y-69955104D01*
X50728350Y-69899226D01*
X50727457Y-69823668D01*
X50727113Y-69724852D01*
X50727058Y-69612978D01*
X50727058Y-69196192D01*
X50763949Y-69159301D01*
X50809421Y-69128264D01*
X50853530Y-69127145D01*
X50892383Y-69152470D01*
G37*
X50892383Y-69152470D02*
X50901145Y-69162552D01*
X50908018Y-69175559D01*
X50913231Y-69194975D01*
X50917012Y-69224284D01*
X50919590Y-69266971D01*
X50921193Y-69326519D01*
X50922051Y-69406414D01*
X50922390Y-69510140D01*
X50922443Y-69610872D01*
X50922350Y-69735816D01*
X50921919Y-69834185D01*
X50920923Y-69909465D01*
X50919131Y-69965138D01*
X50916317Y-70004690D01*
X50912250Y-70031605D01*
X50906704Y-70049367D01*
X50899449Y-70061461D01*
X50892383Y-70069274D01*
X50848444Y-70095476D01*
X50801626Y-70093125D01*
X50759737Y-70064548D01*
X50750112Y-70053391D01*
X50742591Y-70040447D01*
X50736912Y-70022136D01*
X50732819Y-69994882D01*
X50730051Y-69955104D01*
X50728350Y-69899226D01*
X50727457Y-69823668D01*
X50727113Y-69724852D01*
X50727058Y-69612978D01*
X50727058Y-69196192D01*
X50763949Y-69159301D01*
X50809421Y-69128264D01*
X50853530Y-69127145D01*
X50892383Y-69152470D01*
G36*
X52188784Y-69129776D02*
G01*
X52280005Y-69145082D01*
X52350064Y-69168875D01*
X52395642Y-69200204D01*
X52408062Y-69218078D01*
X52420692Y-69259649D01*
X52412193Y-69297256D01*
X52385361Y-69332919D01*
X52343670Y-69349603D01*
X52283176Y-69348248D01*
X52236387Y-69339209D01*
X52132418Y-69321987D01*
X52026166Y-69320351D01*
X51907237Y-69334329D01*
X51874386Y-69340252D01*
X51763801Y-69371431D01*
X51677287Y-69417810D01*
X51615793Y-69478599D01*
X51580268Y-69553008D01*
X51572921Y-69591478D01*
X51577730Y-69669527D01*
X51608780Y-69738581D01*
X51663240Y-69797293D01*
X51738282Y-69844317D01*
X51831076Y-69878307D01*
X51938794Y-69897918D01*
X52058605Y-69901805D01*
X52187681Y-69888620D01*
X52194969Y-69887376D01*
X52246308Y-69877814D01*
X52274774Y-69868578D01*
X52287112Y-69854873D01*
X52290068Y-69831906D01*
X52290135Y-69819743D01*
X52290135Y-69768683D01*
X52198969Y-69768683D01*
X52118464Y-69763168D01*
X52063525Y-69745594D01*
X52031560Y-69714417D01*
X52019974Y-69668094D01*
X52019833Y-69662048D01*
X52026611Y-69622453D01*
X52049855Y-69594181D01*
X52093116Y-69575471D01*
X52159945Y-69564564D01*
X52224676Y-69560554D01*
X52318759Y-69558253D01*
X52387002Y-69561764D01*
X52433545Y-69574719D01*
X52462528Y-69600750D01*
X52478091Y-69643491D01*
X52484375Y-69706574D01*
X52485520Y-69789428D01*
X52483644Y-69881910D01*
X52478000Y-69944818D01*
X52468564Y-69978403D01*
X52466733Y-69981033D01*
X52414921Y-70022998D01*
X52338956Y-70056232D01*
X52243654Y-70080023D01*
X52133830Y-70093663D01*
X52014300Y-70096442D01*
X51889880Y-70087649D01*
X51816703Y-70076849D01*
X51701926Y-70044362D01*
X51595250Y-69991250D01*
X51505935Y-69922319D01*
X51492360Y-69908542D01*
X51448254Y-69850622D01*
X51408457Y-69778840D01*
X51377619Y-69703583D01*
X51360389Y-69635241D01*
X51358312Y-69608993D01*
X51367153Y-69554241D01*
X51390651Y-69486119D01*
X51424297Y-69414414D01*
X51463582Y-69348913D01*
X51498291Y-69305162D01*
X51579443Y-69240083D01*
X51684348Y-69188285D01*
X51809246Y-69150938D01*
X51950379Y-69129217D01*
X52079721Y-69123909D01*
X52188784Y-69129776D01*
G37*
X52188784Y-69129776D02*
X52280005Y-69145082D01*
X52350064Y-69168875D01*
X52395642Y-69200204D01*
X52408062Y-69218078D01*
X52420692Y-69259649D01*
X52412193Y-69297256D01*
X52385361Y-69332919D01*
X52343670Y-69349603D01*
X52283176Y-69348248D01*
X52236387Y-69339209D01*
X52132418Y-69321987D01*
X52026166Y-69320351D01*
X51907237Y-69334329D01*
X51874386Y-69340252D01*
X51763801Y-69371431D01*
X51677287Y-69417810D01*
X51615793Y-69478599D01*
X51580268Y-69553008D01*
X51572921Y-69591478D01*
X51577730Y-69669527D01*
X51608780Y-69738581D01*
X51663240Y-69797293D01*
X51738282Y-69844317D01*
X51831076Y-69878307D01*
X51938794Y-69897918D01*
X52058605Y-69901805D01*
X52187681Y-69888620D01*
X52194969Y-69887376D01*
X52246308Y-69877814D01*
X52274774Y-69868578D01*
X52287112Y-69854873D01*
X52290068Y-69831906D01*
X52290135Y-69819743D01*
X52290135Y-69768683D01*
X52198969Y-69768683D01*
X52118464Y-69763168D01*
X52063525Y-69745594D01*
X52031560Y-69714417D01*
X52019974Y-69668094D01*
X52019833Y-69662048D01*
X52026611Y-69622453D01*
X52049855Y-69594181D01*
X52093116Y-69575471D01*
X52159945Y-69564564D01*
X52224676Y-69560554D01*
X52318759Y-69558253D01*
X52387002Y-69561764D01*
X52433545Y-69574719D01*
X52462528Y-69600750D01*
X52478091Y-69643491D01*
X52484375Y-69706574D01*
X52485520Y-69789428D01*
X52483644Y-69881910D01*
X52478000Y-69944818D01*
X52468564Y-69978403D01*
X52466733Y-69981033D01*
X52414921Y-70022998D01*
X52338956Y-70056232D01*
X52243654Y-70080023D01*
X52133830Y-70093663D01*
X52014300Y-70096442D01*
X51889880Y-70087649D01*
X51816703Y-70076849D01*
X51701926Y-70044362D01*
X51595250Y-69991250D01*
X51505935Y-69922319D01*
X51492360Y-69908542D01*
X51448254Y-69850622D01*
X51408457Y-69778840D01*
X51377619Y-69703583D01*
X51360389Y-69635241D01*
X51358312Y-69608993D01*
X51367153Y-69554241D01*
X51390651Y-69486119D01*
X51424297Y-69414414D01*
X51463582Y-69348913D01*
X51498291Y-69305162D01*
X51579443Y-69240083D01*
X51684348Y-69188285D01*
X51809246Y-69150938D01*
X51950379Y-69129217D01*
X52079721Y-69123909D01*
X52188784Y-69129776D01*
G36*
X53054126Y-69128244D02*
G01*
X53085501Y-69146649D01*
X53126524Y-69176749D01*
X53179322Y-69219960D01*
X53246021Y-69277702D01*
X53328747Y-69351392D01*
X53429626Y-69442448D01*
X53545105Y-69547138D01*
X53785579Y-69765207D01*
X53793094Y-69472508D01*
X53795807Y-69371754D01*
X53798424Y-69296722D01*
X53801526Y-69243084D01*
X53805690Y-69206510D01*
X53811495Y-69182671D01*
X53819522Y-69167238D01*
X53830349Y-69155882D01*
X53836090Y-69151110D01*
X53882063Y-69125877D01*
X53925809Y-69129566D01*
X53960511Y-69151123D01*
X53995993Y-69179835D01*
X54000406Y-69599150D01*
X54001627Y-69722471D01*
X54002249Y-69819348D01*
X54002056Y-69893394D01*
X54000832Y-69948221D01*
X53998362Y-69987443D01*
X53994432Y-70014673D01*
X53988826Y-70033523D01*
X53981328Y-70047605D01*
X53973013Y-70058899D01*
X53955024Y-70079846D01*
X53937125Y-70093731D01*
X53916834Y-70099060D01*
X53891668Y-70094340D01*
X53859146Y-70078077D01*
X53816783Y-70048777D01*
X53762098Y-70004946D01*
X53692609Y-69945091D01*
X53605831Y-69867718D01*
X53507531Y-69778814D01*
X53154336Y-69458435D01*
X53146821Y-69750177D01*
X53144103Y-69850747D01*
X53141479Y-69925604D01*
X53138367Y-69979084D01*
X53134184Y-70015526D01*
X53128349Y-70039268D01*
X53120280Y-70054646D01*
X53109395Y-70066000D01*
X53103825Y-70070626D01*
X53054590Y-70096042D01*
X53008069Y-70092209D01*
X52967557Y-70059733D01*
X52958290Y-70046667D01*
X52951067Y-70031409D01*
X52945634Y-70010296D01*
X52941738Y-69979669D01*
X52939125Y-69935866D01*
X52937539Y-69875227D01*
X52936728Y-69794091D01*
X52936438Y-69688797D01*
X52936407Y-69610872D01*
X52936505Y-69488988D01*
X52936967Y-69393503D01*
X52938049Y-69320755D01*
X52940003Y-69267083D01*
X52943084Y-69228827D01*
X52947546Y-69202327D01*
X52953643Y-69183920D01*
X52961629Y-69169948D01*
X52967557Y-69162011D01*
X52982584Y-69143212D01*
X52996628Y-69129017D01*
X53011816Y-69120846D01*
X53030273Y-69120116D01*
X53054126Y-69128244D01*
G37*
X53054126Y-69128244D02*
X53085501Y-69146649D01*
X53126524Y-69176749D01*
X53179322Y-69219960D01*
X53246021Y-69277702D01*
X53328747Y-69351392D01*
X53429626Y-69442448D01*
X53545105Y-69547138D01*
X53785579Y-69765207D01*
X53793094Y-69472508D01*
X53795807Y-69371754D01*
X53798424Y-69296722D01*
X53801526Y-69243084D01*
X53805690Y-69206510D01*
X53811495Y-69182671D01*
X53819522Y-69167238D01*
X53830349Y-69155882D01*
X53836090Y-69151110D01*
X53882063Y-69125877D01*
X53925809Y-69129566D01*
X53960511Y-69151123D01*
X53995993Y-69179835D01*
X54000406Y-69599150D01*
X54001627Y-69722471D01*
X54002249Y-69819348D01*
X54002056Y-69893394D01*
X54000832Y-69948221D01*
X53998362Y-69987443D01*
X53994432Y-70014673D01*
X53988826Y-70033523D01*
X53981328Y-70047605D01*
X53973013Y-70058899D01*
X53955024Y-70079846D01*
X53937125Y-70093731D01*
X53916834Y-70099060D01*
X53891668Y-70094340D01*
X53859146Y-70078077D01*
X53816783Y-70048777D01*
X53762098Y-70004946D01*
X53692609Y-69945091D01*
X53605831Y-69867718D01*
X53507531Y-69778814D01*
X53154336Y-69458435D01*
X53146821Y-69750177D01*
X53144103Y-69850747D01*
X53141479Y-69925604D01*
X53138367Y-69979084D01*
X53134184Y-70015526D01*
X53128349Y-70039268D01*
X53120280Y-70054646D01*
X53109395Y-70066000D01*
X53103825Y-70070626D01*
X53054590Y-70096042D01*
X53008069Y-70092209D01*
X52967557Y-70059733D01*
X52958290Y-70046667D01*
X52951067Y-70031409D01*
X52945634Y-70010296D01*
X52941738Y-69979669D01*
X52939125Y-69935866D01*
X52937539Y-69875227D01*
X52936728Y-69794091D01*
X52936438Y-69688797D01*
X52936407Y-69610872D01*
X52936505Y-69488988D01*
X52936967Y-69393503D01*
X52938049Y-69320755D01*
X52940003Y-69267083D01*
X52943084Y-69228827D01*
X52947546Y-69202327D01*
X52953643Y-69183920D01*
X52961629Y-69169948D01*
X52967557Y-69162011D01*
X52982584Y-69143212D01*
X52996628Y-69129017D01*
X53011816Y-69120846D01*
X53030273Y-69120116D01*
X53054126Y-69128244D01*
G36*
X55091716Y-69122667D02*
G01*
X55193377Y-69123884D01*
X55271282Y-69126730D01*
X55328581Y-69131874D01*
X55368427Y-69139984D01*
X55393968Y-69151731D01*
X55408357Y-69167782D01*
X55414745Y-69188808D01*
X55416281Y-69215476D01*
X55416289Y-69218626D01*
X55414955Y-69248790D01*
X55408651Y-69272103D01*
X55393922Y-69289506D01*
X55367315Y-69301940D01*
X55325374Y-69310345D01*
X55264646Y-69315665D01*
X55181676Y-69318839D01*
X55073011Y-69320809D01*
X55039705Y-69321245D01*
X54717413Y-69325310D01*
X54712906Y-69411730D01*
X54708398Y-69498150D01*
X54932263Y-69498150D01*
X55019721Y-69498473D01*
X55082169Y-69499837D01*
X55124654Y-69502839D01*
X55152223Y-69508073D01*
X55169922Y-69516135D01*
X55182797Y-69527620D01*
X55182880Y-69527711D01*
X55206230Y-69572471D01*
X55205386Y-69620847D01*
X55180879Y-69662086D01*
X55176029Y-69666325D01*
X55158815Y-69677249D01*
X55135226Y-69684849D01*
X55100007Y-69689697D01*
X55047900Y-69692366D01*
X54973650Y-69693428D01*
X54926162Y-69693535D01*
X54709898Y-69693535D01*
X54709898Y-69903949D01*
X55038220Y-69903949D01*
X55146618Y-69904139D01*
X55228935Y-69904914D01*
X55289149Y-69906584D01*
X55331235Y-69909458D01*
X55359171Y-69913847D01*
X55376934Y-69920059D01*
X55388500Y-69928404D01*
X55391415Y-69931434D01*
X55412936Y-69973434D01*
X55414510Y-70021214D01*
X55396855Y-70062642D01*
X55382885Y-70075937D01*
X55368354Y-70083256D01*
X55345838Y-70088919D01*
X55311776Y-70093123D01*
X55262607Y-70096068D01*
X55194768Y-70097951D01*
X55104698Y-70098970D01*
X54988837Y-70099325D01*
X54962643Y-70099334D01*
X54844839Y-70099256D01*
X54753396Y-70098831D01*
X54684614Y-70097766D01*
X54634796Y-70095769D01*
X54600240Y-70092550D01*
X54577250Y-70087816D01*
X54562126Y-70081277D01*
X54551169Y-70072641D01*
X54545158Y-70066440D01*
X54536110Y-70055457D01*
X54529042Y-70041852D01*
X54523709Y-70022056D01*
X54519868Y-69992502D01*
X54517275Y-69949621D01*
X54515687Y-69889845D01*
X54514861Y-69809607D01*
X54514552Y-69705339D01*
X54514514Y-69617580D01*
X54514608Y-69494608D01*
X54515057Y-69398069D01*
X54516108Y-69324339D01*
X54518010Y-69269790D01*
X54521009Y-69230799D01*
X54525355Y-69203739D01*
X54531294Y-69184984D01*
X54539075Y-69170910D01*
X54545664Y-69162011D01*
X54576814Y-69122410D01*
X54963148Y-69122410D01*
X55091716Y-69122667D01*
G37*
X55091716Y-69122667D02*
X55193377Y-69123884D01*
X55271282Y-69126730D01*
X55328581Y-69131874D01*
X55368427Y-69139984D01*
X55393968Y-69151731D01*
X55408357Y-69167782D01*
X55414745Y-69188808D01*
X55416281Y-69215476D01*
X55416289Y-69218626D01*
X55414955Y-69248790D01*
X55408651Y-69272103D01*
X55393922Y-69289506D01*
X55367315Y-69301940D01*
X55325374Y-69310345D01*
X55264646Y-69315665D01*
X55181676Y-69318839D01*
X55073011Y-69320809D01*
X55039705Y-69321245D01*
X54717413Y-69325310D01*
X54712906Y-69411730D01*
X54708398Y-69498150D01*
X54932263Y-69498150D01*
X55019721Y-69498473D01*
X55082169Y-69499837D01*
X55124654Y-69502839D01*
X55152223Y-69508073D01*
X55169922Y-69516135D01*
X55182797Y-69527620D01*
X55182880Y-69527711D01*
X55206230Y-69572471D01*
X55205386Y-69620847D01*
X55180879Y-69662086D01*
X55176029Y-69666325D01*
X55158815Y-69677249D01*
X55135226Y-69684849D01*
X55100007Y-69689697D01*
X55047900Y-69692366D01*
X54973650Y-69693428D01*
X54926162Y-69693535D01*
X54709898Y-69693535D01*
X54709898Y-69903949D01*
X55038220Y-69903949D01*
X55146618Y-69904139D01*
X55228935Y-69904914D01*
X55289149Y-69906584D01*
X55331235Y-69909458D01*
X55359171Y-69913847D01*
X55376934Y-69920059D01*
X55388500Y-69928404D01*
X55391415Y-69931434D01*
X55412936Y-69973434D01*
X55414510Y-70021214D01*
X55396855Y-70062642D01*
X55382885Y-70075937D01*
X55368354Y-70083256D01*
X55345838Y-70088919D01*
X55311776Y-70093123D01*
X55262607Y-70096068D01*
X55194768Y-70097951D01*
X55104698Y-70098970D01*
X54988837Y-70099325D01*
X54962643Y-70099334D01*
X54844839Y-70099256D01*
X54753396Y-70098831D01*
X54684614Y-70097766D01*
X54634796Y-70095769D01*
X54600240Y-70092550D01*
X54577250Y-70087816D01*
X54562126Y-70081277D01*
X54551169Y-70072641D01*
X54545158Y-70066440D01*
X54536110Y-70055457D01*
X54529042Y-70041852D01*
X54523709Y-70022056D01*
X54519868Y-69992502D01*
X54517275Y-69949621D01*
X54515687Y-69889845D01*
X54514861Y-69809607D01*
X54514552Y-69705339D01*
X54514514Y-69617580D01*
X54514608Y-69494608D01*
X54515057Y-69398069D01*
X54516108Y-69324339D01*
X54518010Y-69269790D01*
X54521009Y-69230799D01*
X54525355Y-69203739D01*
X54531294Y-69184984D01*
X54539075Y-69170910D01*
X54545664Y-69162011D01*
X54576814Y-69122410D01*
X54963148Y-69122410D01*
X55091716Y-69122667D01*
G36*
X56140783Y-69122687D02*
G01*
X56312501Y-69128493D01*
X56458555Y-69146101D01*
X56581353Y-69176563D01*
X56683303Y-69220935D01*
X56766814Y-69280271D01*
X56834293Y-69355624D01*
X56888149Y-69448050D01*
X56889208Y-69450304D01*
X56921349Y-69533024D01*
X56932801Y-69606284D01*
X56923520Y-69680012D01*
X56893461Y-69764135D01*
X56887761Y-69776937D01*
X56848885Y-69851862D01*
X56805195Y-69909757D01*
X56748806Y-69958972D01*
X56671838Y-70007857D01*
X56667366Y-70010409D01*
X56600363Y-70042595D01*
X56524631Y-70066632D01*
X56435304Y-70083351D01*
X56327515Y-70093579D01*
X56196398Y-70098146D01*
X56150072Y-70098543D01*
X55929476Y-70099334D01*
X55898326Y-70059733D01*
X55889086Y-70046711D01*
X55881878Y-70031504D01*
X55876450Y-70010466D01*
X55872551Y-69979950D01*
X55869929Y-69936311D01*
X55869074Y-69903949D01*
X56077591Y-69903949D01*
X56202582Y-69903949D01*
X56275723Y-69901810D01*
X56350807Y-69896181D01*
X56412430Y-69888243D01*
X56416149Y-69887575D01*
X56525599Y-69858212D01*
X56610494Y-69814097D01*
X56673518Y-69753183D01*
X56717360Y-69673424D01*
X56724983Y-69652284D01*
X56732456Y-69619362D01*
X56729221Y-69586836D01*
X56713479Y-69543564D01*
X56703990Y-69522307D01*
X56672917Y-69465820D01*
X56635479Y-69426191D01*
X56594287Y-69398594D01*
X56511776Y-69362682D01*
X56406179Y-69336668D01*
X56283164Y-69321688D01*
X56194070Y-69318392D01*
X56077591Y-69317795D01*
X56077591Y-69903949D01*
X55869074Y-69903949D01*
X55868332Y-69875900D01*
X55867510Y-69795072D01*
X55867210Y-69690181D01*
X55867176Y-69608162D01*
X55867176Y-69196192D01*
X55904067Y-69159301D01*
X55920440Y-69144348D01*
X55938143Y-69134108D01*
X55962865Y-69127701D01*
X56000294Y-69124247D01*
X56056119Y-69122867D01*
X56136028Y-69122681D01*
X56140783Y-69122687D01*
G37*
X56140783Y-69122687D02*
X56312501Y-69128493D01*
X56458555Y-69146101D01*
X56581353Y-69176563D01*
X56683303Y-69220935D01*
X56766814Y-69280271D01*
X56834293Y-69355624D01*
X56888149Y-69448050D01*
X56889208Y-69450304D01*
X56921349Y-69533024D01*
X56932801Y-69606284D01*
X56923520Y-69680012D01*
X56893461Y-69764135D01*
X56887761Y-69776937D01*
X56848885Y-69851862D01*
X56805195Y-69909757D01*
X56748806Y-69958972D01*
X56671838Y-70007857D01*
X56667366Y-70010409D01*
X56600363Y-70042595D01*
X56524631Y-70066632D01*
X56435304Y-70083351D01*
X56327515Y-70093579D01*
X56196398Y-70098146D01*
X56150072Y-70098543D01*
X55929476Y-70099334D01*
X55898326Y-70059733D01*
X55889086Y-70046711D01*
X55881878Y-70031504D01*
X55876450Y-70010466D01*
X55872551Y-69979950D01*
X55869929Y-69936311D01*
X55869074Y-69903949D01*
X56077591Y-69903949D01*
X56202582Y-69903949D01*
X56275723Y-69901810D01*
X56350807Y-69896181D01*
X56412430Y-69888243D01*
X56416149Y-69887575D01*
X56525599Y-69858212D01*
X56610494Y-69814097D01*
X56673518Y-69753183D01*
X56717360Y-69673424D01*
X56724983Y-69652284D01*
X56732456Y-69619362D01*
X56729221Y-69586836D01*
X56713479Y-69543564D01*
X56703990Y-69522307D01*
X56672917Y-69465820D01*
X56635479Y-69426191D01*
X56594287Y-69398594D01*
X56511776Y-69362682D01*
X56406179Y-69336668D01*
X56283164Y-69321688D01*
X56194070Y-69318392D01*
X56077591Y-69317795D01*
X56077591Y-69903949D01*
X55869074Y-69903949D01*
X55868332Y-69875900D01*
X55867510Y-69795072D01*
X55867210Y-69690181D01*
X55867176Y-69608162D01*
X55867176Y-69196192D01*
X55904067Y-69159301D01*
X55920440Y-69144348D01*
X55938143Y-69134108D01*
X55962865Y-69127701D01*
X56000294Y-69124247D01*
X56056119Y-69122867D01*
X56136028Y-69122681D01*
X56140783Y-69122687D01*
G36*
X59770547Y-69125030D02*
G01*
X59796628Y-69134350D01*
X59797634Y-69134806D01*
X59833052Y-69161834D01*
X59852566Y-69189636D01*
X59856384Y-69202672D01*
X59856195Y-69219992D01*
X59850822Y-69244667D01*
X59839088Y-69279764D01*
X59819813Y-69328353D01*
X59791822Y-69393502D01*
X59753936Y-69478281D01*
X59704978Y-69585759D01*
X59678031Y-69644503D01*
X59629370Y-69749373D01*
X59583690Y-69845814D01*
X59542734Y-69930298D01*
X59508246Y-69999300D01*
X59481969Y-70049294D01*
X59465646Y-70076754D01*
X59462416Y-70080547D01*
X59421089Y-70097280D01*
X59374409Y-70095039D01*
X59336970Y-70074687D01*
X59335444Y-70073032D01*
X59320551Y-70050486D01*
X59295569Y-70006571D01*
X59263579Y-69946940D01*
X59227660Y-69877246D01*
X59214752Y-69851563D01*
X59117314Y-69656397D01*
X59011106Y-69868407D01*
X58973197Y-69941661D01*
X58938027Y-70005190D01*
X58908468Y-70054131D01*
X58887394Y-70083622D01*
X58880252Y-70089876D01*
X58824738Y-70098345D01*
X58778929Y-70080547D01*
X58765454Y-70061525D01*
X58742136Y-70019249D01*
X58710877Y-69957880D01*
X58673580Y-69881576D01*
X58632146Y-69794499D01*
X58588478Y-69700807D01*
X58544478Y-69604661D01*
X58502048Y-69510221D01*
X58463090Y-69421645D01*
X58429507Y-69343096D01*
X58403201Y-69278731D01*
X58386074Y-69232711D01*
X58380029Y-69209197D01*
X58380091Y-69208345D01*
X58394800Y-69178756D01*
X58424202Y-69148620D01*
X58425933Y-69147308D01*
X58462070Y-69126882D01*
X58495494Y-69127080D01*
X58508022Y-69130931D01*
X58523287Y-69139253D01*
X58539498Y-69155625D01*
X58558599Y-69183442D01*
X58582535Y-69226100D01*
X58613251Y-69286995D01*
X58652691Y-69369525D01*
X58688258Y-69445707D01*
X58729177Y-69534014D01*
X58765844Y-69613426D01*
X58796354Y-69679796D01*
X58818802Y-69728975D01*
X58831283Y-69756813D01*
X58833103Y-69761168D01*
X58841290Y-69754049D01*
X58860105Y-69724241D01*
X58887046Y-69676096D01*
X58919608Y-69613963D01*
X58932566Y-69588328D01*
X58976460Y-69501765D01*
X59010311Y-69438725D01*
X59036897Y-69395542D01*
X59058995Y-69368552D01*
X59079384Y-69354088D01*
X59100840Y-69348487D01*
X59114823Y-69347854D01*
X59139488Y-69350040D01*
X59161102Y-69359079D01*
X59182578Y-69378697D01*
X59206830Y-69412617D01*
X59236770Y-69464562D01*
X59275313Y-69538258D01*
X59296578Y-69580180D01*
X59331072Y-69646994D01*
X59361156Y-69702401D01*
X59384177Y-69741727D01*
X59397480Y-69760296D01*
X59399289Y-69761069D01*
X59407880Y-69746455D01*
X59427114Y-69708507D01*
X59455065Y-69651196D01*
X59489807Y-69578496D01*
X59529413Y-69494376D01*
X59548896Y-69452594D01*
X59599580Y-69344763D01*
X59640393Y-69261790D01*
X59673454Y-69200966D01*
X59700881Y-69159585D01*
X59724792Y-69134940D01*
X59747308Y-69124324D01*
X59770547Y-69125030D01*
G37*
X59770547Y-69125030D02*
X59796628Y-69134350D01*
X59797634Y-69134806D01*
X59833052Y-69161834D01*
X59852566Y-69189636D01*
X59856384Y-69202672D01*
X59856195Y-69219992D01*
X59850822Y-69244667D01*
X59839088Y-69279764D01*
X59819813Y-69328353D01*
X59791822Y-69393502D01*
X59753936Y-69478281D01*
X59704978Y-69585759D01*
X59678031Y-69644503D01*
X59629370Y-69749373D01*
X59583690Y-69845814D01*
X59542734Y-69930298D01*
X59508246Y-69999300D01*
X59481969Y-70049294D01*
X59465646Y-70076754D01*
X59462416Y-70080547D01*
X59421089Y-70097280D01*
X59374409Y-70095039D01*
X59336970Y-70074687D01*
X59335444Y-70073032D01*
X59320551Y-70050486D01*
X59295569Y-70006571D01*
X59263579Y-69946940D01*
X59227660Y-69877246D01*
X59214752Y-69851563D01*
X59117314Y-69656397D01*
X59011106Y-69868407D01*
X58973197Y-69941661D01*
X58938027Y-70005190D01*
X58908468Y-70054131D01*
X58887394Y-70083622D01*
X58880252Y-70089876D01*
X58824738Y-70098345D01*
X58778929Y-70080547D01*
X58765454Y-70061525D01*
X58742136Y-70019249D01*
X58710877Y-69957880D01*
X58673580Y-69881576D01*
X58632146Y-69794499D01*
X58588478Y-69700807D01*
X58544478Y-69604661D01*
X58502048Y-69510221D01*
X58463090Y-69421645D01*
X58429507Y-69343096D01*
X58403201Y-69278731D01*
X58386074Y-69232711D01*
X58380029Y-69209197D01*
X58380091Y-69208345D01*
X58394800Y-69178756D01*
X58424202Y-69148620D01*
X58425933Y-69147308D01*
X58462070Y-69126882D01*
X58495494Y-69127080D01*
X58508022Y-69130931D01*
X58523287Y-69139253D01*
X58539498Y-69155625D01*
X58558599Y-69183442D01*
X58582535Y-69226100D01*
X58613251Y-69286995D01*
X58652691Y-69369525D01*
X58688258Y-69445707D01*
X58729177Y-69534014D01*
X58765844Y-69613426D01*
X58796354Y-69679796D01*
X58818802Y-69728975D01*
X58831283Y-69756813D01*
X58833103Y-69761168D01*
X58841290Y-69754049D01*
X58860105Y-69724241D01*
X58887046Y-69676096D01*
X58919608Y-69613963D01*
X58932566Y-69588328D01*
X58976460Y-69501765D01*
X59010311Y-69438725D01*
X59036897Y-69395542D01*
X59058995Y-69368552D01*
X59079384Y-69354088D01*
X59100840Y-69348487D01*
X59114823Y-69347854D01*
X59139488Y-69350040D01*
X59161102Y-69359079D01*
X59182578Y-69378697D01*
X59206830Y-69412617D01*
X59236770Y-69464562D01*
X59275313Y-69538258D01*
X59296578Y-69580180D01*
X59331072Y-69646994D01*
X59361156Y-69702401D01*
X59384177Y-69741727D01*
X59397480Y-69760296D01*
X59399289Y-69761069D01*
X59407880Y-69746455D01*
X59427114Y-69708507D01*
X59455065Y-69651196D01*
X59489807Y-69578496D01*
X59529413Y-69494376D01*
X59548896Y-69452594D01*
X59599580Y-69344763D01*
X59640393Y-69261790D01*
X59673454Y-69200966D01*
X59700881Y-69159585D01*
X59724792Y-69134940D01*
X59747308Y-69124324D01*
X59770547Y-69125030D01*
G36*
X60361604Y-69131477D02*
G01*
X60393174Y-69151142D01*
X60428656Y-69179873D01*
X60428656Y-69607966D01*
X60428543Y-69733190D01*
X60428059Y-69831847D01*
X60426986Y-69907430D01*
X60425108Y-69963433D01*
X60422206Y-70003347D01*
X60418063Y-70030666D01*
X60412462Y-70048881D01*
X60405185Y-70061486D01*
X60400024Y-70067696D01*
X60358168Y-70094980D01*
X60310505Y-70093867D01*
X60268753Y-70070602D01*
X60233271Y-70041871D01*
X60233271Y-69179873D01*
X60268753Y-69151142D01*
X60302998Y-69130242D01*
X60330963Y-69122410D01*
X60361604Y-69131477D01*
G37*
X60361604Y-69131477D02*
X60393174Y-69151142D01*
X60428656Y-69179873D01*
X60428656Y-69607966D01*
X60428543Y-69733190D01*
X60428059Y-69831847D01*
X60426986Y-69907430D01*
X60425108Y-69963433D01*
X60422206Y-70003347D01*
X60418063Y-70030666D01*
X60412462Y-70048881D01*
X60405185Y-70061486D01*
X60400024Y-70067696D01*
X60358168Y-70094980D01*
X60310505Y-70093867D01*
X60268753Y-70070602D01*
X60233271Y-70041871D01*
X60233271Y-69179873D01*
X60268753Y-69151142D01*
X60302998Y-69130242D01*
X60330963Y-69122410D01*
X60361604Y-69131477D01*
G36*
X61392677Y-69122539D02*
G01*
X61497465Y-69123043D01*
X61578799Y-69124096D01*
X61639980Y-69125876D01*
X61684311Y-69128557D01*
X61715094Y-69132314D01*
X61735631Y-69137325D01*
X61749225Y-69143763D01*
X61755803Y-69148712D01*
X61789944Y-69192029D01*
X61794074Y-69237003D01*
X61772976Y-69277860D01*
X61759179Y-69294186D01*
X61744332Y-69305318D01*
X61722815Y-69312250D01*
X61689008Y-69315977D01*
X61637292Y-69317494D01*
X61562047Y-69317794D01*
X61547269Y-69317795D01*
X61352975Y-69317795D01*
X61352975Y-69678505D01*
X61352847Y-69792201D01*
X61352266Y-69879685D01*
X61350936Y-69944802D01*
X61348560Y-69991398D01*
X61344844Y-70023319D01*
X61339492Y-70044412D01*
X61332207Y-70058523D01*
X61322916Y-70069274D01*
X61279071Y-70095696D01*
X61233300Y-70093614D01*
X61191790Y-70063469D01*
X61188741Y-70059733D01*
X61178812Y-70045610D01*
X61171248Y-70029086D01*
X61165729Y-70006146D01*
X61161933Y-69972773D01*
X61159542Y-69924955D01*
X61158234Y-69858674D01*
X61157691Y-69769918D01*
X61157591Y-69668963D01*
X61157591Y-69317795D01*
X60972050Y-69317795D01*
X60892427Y-69317256D01*
X60837304Y-69315157D01*
X60801132Y-69310771D01*
X60778362Y-69303376D01*
X60763447Y-69292245D01*
X60761636Y-69290310D01*
X60739858Y-69246057D01*
X60741784Y-69196029D01*
X60766821Y-69152470D01*
X60776504Y-69144020D01*
X60788988Y-69137321D01*
X60807603Y-69132169D01*
X60835677Y-69128361D01*
X60876541Y-69125697D01*
X60933522Y-69123972D01*
X61009952Y-69122984D01*
X61109157Y-69122532D01*
X61234469Y-69122412D01*
X61261133Y-69122410D01*
X61392677Y-69122539D01*
G37*
X61392677Y-69122539D02*
X61497465Y-69123043D01*
X61578799Y-69124096D01*
X61639980Y-69125876D01*
X61684311Y-69128557D01*
X61715094Y-69132314D01*
X61735631Y-69137325D01*
X61749225Y-69143763D01*
X61755803Y-69148712D01*
X61789944Y-69192029D01*
X61794074Y-69237003D01*
X61772976Y-69277860D01*
X61759179Y-69294186D01*
X61744332Y-69305318D01*
X61722815Y-69312250D01*
X61689008Y-69315977D01*
X61637292Y-69317494D01*
X61562047Y-69317794D01*
X61547269Y-69317795D01*
X61352975Y-69317795D01*
X61352975Y-69678505D01*
X61352847Y-69792201D01*
X61352266Y-69879685D01*
X61350936Y-69944802D01*
X61348560Y-69991398D01*
X61344844Y-70023319D01*
X61339492Y-70044412D01*
X61332207Y-70058523D01*
X61322916Y-70069274D01*
X61279071Y-70095696D01*
X61233300Y-70093614D01*
X61191790Y-70063469D01*
X61188741Y-70059733D01*
X61178812Y-70045610D01*
X61171248Y-70029086D01*
X61165729Y-70006146D01*
X61161933Y-69972773D01*
X61159542Y-69924955D01*
X61158234Y-69858674D01*
X61157691Y-69769918D01*
X61157591Y-69668963D01*
X61157591Y-69317795D01*
X60972050Y-69317795D01*
X60892427Y-69317256D01*
X60837304Y-69315157D01*
X60801132Y-69310771D01*
X60778362Y-69303376D01*
X60763447Y-69292245D01*
X60761636Y-69290310D01*
X60739858Y-69246057D01*
X60741784Y-69196029D01*
X60766821Y-69152470D01*
X60776504Y-69144020D01*
X60788988Y-69137321D01*
X60807603Y-69132169D01*
X60835677Y-69128361D01*
X60876541Y-69125697D01*
X60933522Y-69123972D01*
X61009952Y-69122984D01*
X61109157Y-69122532D01*
X61234469Y-69122412D01*
X61261133Y-69122410D01*
X61392677Y-69122539D01*
G36*
X63077859Y-69129688D02*
G01*
X63119635Y-69159301D01*
X63156525Y-69196192D01*
X63156525Y-69608162D01*
X63156429Y-69730486D01*
X63155972Y-69826398D01*
X63154903Y-69899544D01*
X63152971Y-69953570D01*
X63149923Y-69992123D01*
X63145509Y-70018848D01*
X63139476Y-70037394D01*
X63131574Y-70051405D01*
X63125375Y-70059733D01*
X63084461Y-70092449D01*
X63037482Y-70096000D01*
X62994544Y-70075937D01*
X62980356Y-70064092D01*
X62970872Y-70048358D01*
X62965151Y-70023022D01*
X62962253Y-69982370D01*
X62961238Y-69920688D01*
X62961141Y-69873038D01*
X62961141Y-69693535D01*
X62299839Y-69693535D01*
X62299839Y-69856833D01*
X62299155Y-69931505D01*
X62296419Y-69982824D01*
X62290604Y-70017477D01*
X62280684Y-70042155D01*
X62268689Y-70059733D01*
X62227546Y-70092357D01*
X62181017Y-70096220D01*
X62136473Y-70073032D01*
X62124312Y-70060876D01*
X62115723Y-70044761D01*
X62110058Y-70019660D01*
X62106669Y-69980544D01*
X62104908Y-69922386D01*
X62104128Y-69840158D01*
X62104036Y-69821286D01*
X62103392Y-69666357D01*
X62103060Y-69538674D01*
X62103168Y-69435427D01*
X62103845Y-69353803D01*
X62105218Y-69290992D01*
X62107416Y-69244181D01*
X62110566Y-69210559D01*
X62114798Y-69187315D01*
X62120238Y-69171636D01*
X62127015Y-69160711D01*
X62134514Y-69152470D01*
X62176933Y-69126107D01*
X62221172Y-69129688D01*
X62262948Y-69159301D01*
X62279853Y-69178407D01*
X62290629Y-69199511D01*
X62296641Y-69229568D01*
X62299256Y-69275533D01*
X62299839Y-69344360D01*
X62299839Y-69498150D01*
X62961141Y-69498150D01*
X62961141Y-69340339D01*
X62961816Y-69267636D01*
X62964526Y-69218545D01*
X62970301Y-69186636D01*
X62980169Y-69165478D01*
X62991200Y-69152470D01*
X63033619Y-69126107D01*
X63077859Y-69129688D01*
G37*
X63077859Y-69129688D02*
X63119635Y-69159301D01*
X63156525Y-69196192D01*
X63156525Y-69608162D01*
X63156429Y-69730486D01*
X63155972Y-69826398D01*
X63154903Y-69899544D01*
X63152971Y-69953570D01*
X63149923Y-69992123D01*
X63145509Y-70018848D01*
X63139476Y-70037394D01*
X63131574Y-70051405D01*
X63125375Y-70059733D01*
X63084461Y-70092449D01*
X63037482Y-70096000D01*
X62994544Y-70075937D01*
X62980356Y-70064092D01*
X62970872Y-70048358D01*
X62965151Y-70023022D01*
X62962253Y-69982370D01*
X62961238Y-69920688D01*
X62961141Y-69873038D01*
X62961141Y-69693535D01*
X62299839Y-69693535D01*
X62299839Y-69856833D01*
X62299155Y-69931505D01*
X62296419Y-69982824D01*
X62290604Y-70017477D01*
X62280684Y-70042155D01*
X62268689Y-70059733D01*
X62227546Y-70092357D01*
X62181017Y-70096220D01*
X62136473Y-70073032D01*
X62124312Y-70060876D01*
X62115723Y-70044761D01*
X62110058Y-70019660D01*
X62106669Y-69980544D01*
X62104908Y-69922386D01*
X62104128Y-69840158D01*
X62104036Y-69821286D01*
X62103392Y-69666357D01*
X62103060Y-69538674D01*
X62103168Y-69435427D01*
X62103845Y-69353803D01*
X62105218Y-69290992D01*
X62107416Y-69244181D01*
X62110566Y-69210559D01*
X62114798Y-69187315D01*
X62120238Y-69171636D01*
X62127015Y-69160711D01*
X62134514Y-69152470D01*
X62176933Y-69126107D01*
X62221172Y-69129688D01*
X62262948Y-69159301D01*
X62279853Y-69178407D01*
X62290629Y-69199511D01*
X62296641Y-69229568D01*
X62299256Y-69275533D01*
X62299839Y-69344360D01*
X62299839Y-69498150D01*
X62961141Y-69498150D01*
X62961141Y-69340339D01*
X62961816Y-69267636D01*
X62964526Y-69218545D01*
X62970301Y-69186636D01*
X62980169Y-69165478D01*
X62991200Y-69152470D01*
X63033619Y-69126107D01*
X63077859Y-69129688D01*
G36*
X51007682Y-60599933D02*
G01*
X51143929Y-60647172D01*
X51270779Y-60721527D01*
X51384067Y-60822987D01*
X51479628Y-60951543D01*
X51522554Y-61032572D01*
X51559705Y-61145908D01*
X51577712Y-61276751D01*
X51575717Y-61411265D01*
X51553577Y-61533158D01*
X51493064Y-61682107D01*
X51405314Y-61811309D01*
X51294788Y-61918223D01*
X51165946Y-62000306D01*
X51023247Y-62055016D01*
X50871151Y-62079810D01*
X50714119Y-62072147D01*
X50636714Y-62055772D01*
X50485859Y-61997089D01*
X50351875Y-61907543D01*
X50237994Y-61789893D01*
X50147448Y-61646902D01*
X50139788Y-61631286D01*
X50113306Y-61572686D01*
X50096678Y-61523334D01*
X50087650Y-61471270D01*
X50083968Y-61404539D01*
X50083357Y-61331929D01*
X50084367Y-61244691D01*
X50088928Y-61181624D01*
X50099334Y-61130636D01*
X50117879Y-61079633D01*
X50140770Y-61029313D01*
X50226154Y-60886470D01*
X50331301Y-60770810D01*
X50452045Y-60682325D01*
X50584221Y-60621005D01*
X50723663Y-60586839D01*
X50866205Y-60579818D01*
X51007682Y-60599933D01*
G37*
X51007682Y-60599933D02*
X51143929Y-60647172D01*
X51270779Y-60721527D01*
X51384067Y-60822987D01*
X51479628Y-60951543D01*
X51522554Y-61032572D01*
X51559705Y-61145908D01*
X51577712Y-61276751D01*
X51575717Y-61411265D01*
X51553577Y-61533158D01*
X51493064Y-61682107D01*
X51405314Y-61811309D01*
X51294788Y-61918223D01*
X51165946Y-62000306D01*
X51023247Y-62055016D01*
X50871151Y-62079810D01*
X50714119Y-62072147D01*
X50636714Y-62055772D01*
X50485859Y-61997089D01*
X50351875Y-61907543D01*
X50237994Y-61789893D01*
X50147448Y-61646902D01*
X50139788Y-61631286D01*
X50113306Y-61572686D01*
X50096678Y-61523334D01*
X50087650Y-61471270D01*
X50083968Y-61404539D01*
X50083357Y-61331929D01*
X50084367Y-61244691D01*
X50088928Y-61181624D01*
X50099334Y-61130636D01*
X50117879Y-61079633D01*
X50140770Y-61029313D01*
X50226154Y-60886470D01*
X50331301Y-60770810D01*
X50452045Y-60682325D01*
X50584221Y-60621005D01*
X50723663Y-60586839D01*
X50866205Y-60579818D01*
X51007682Y-60599933D01*
G36*
X63651571Y-61816089D02*
G01*
X63805876Y-61816723D01*
X63858321Y-61817042D01*
X64579500Y-61821786D01*
X64588571Y-64588572D01*
X64589769Y-64963756D01*
X64590832Y-65304417D01*
X64591827Y-65612318D01*
X64592823Y-65889221D01*
X64593888Y-66136888D01*
X64595091Y-66357081D01*
X64596499Y-66551562D01*
X64598182Y-66722094D01*
X64600206Y-66870440D01*
X64602641Y-66998361D01*
X64605554Y-67107620D01*
X64609015Y-67199979D01*
X64613090Y-67277200D01*
X64617849Y-67341046D01*
X64623360Y-67393278D01*
X64629691Y-67435660D01*
X64636910Y-67469953D01*
X64645085Y-67497920D01*
X64654285Y-67521324D01*
X64664577Y-67541925D01*
X64676031Y-67561487D01*
X64688715Y-67581772D01*
X64702695Y-67604543D01*
X64705561Y-67609393D01*
X64753640Y-67691433D01*
X63363928Y-67681929D01*
X63354857Y-67529295D01*
X63349918Y-67456045D01*
X63344771Y-67413696D01*
X63337786Y-67396892D01*
X63327337Y-67400277D01*
X63318571Y-67409960D01*
X63280388Y-67445229D01*
X63218155Y-67490563D01*
X63140641Y-67540546D01*
X63056613Y-67589761D01*
X62974839Y-67632791D01*
X62912052Y-67661101D01*
X62764954Y-67707624D01*
X62596180Y-67740579D01*
X62418191Y-67758707D01*
X62243447Y-67760750D01*
X62084407Y-67745447D01*
X62081788Y-67745009D01*
X61864168Y-67690402D01*
X61660455Y-67603401D01*
X61472613Y-67485876D01*
X61302607Y-67339697D01*
X61152402Y-67166734D01*
X61023964Y-66968857D01*
X60919257Y-66747936D01*
X60862246Y-66584286D01*
X60824651Y-66447375D01*
X60796771Y-66314798D01*
X60777753Y-66178502D01*
X60766745Y-66030433D01*
X60762895Y-65862537D01*
X60764600Y-65725440D01*
X62103359Y-65725440D01*
X62109694Y-65955329D01*
X62129679Y-66153111D01*
X62163927Y-66320539D01*
X62213055Y-66459369D01*
X62277676Y-66571358D01*
X62358405Y-66658259D01*
X62451591Y-66719692D01*
X62500080Y-66742626D01*
X62542134Y-66756375D01*
X62589020Y-66762666D01*
X62652004Y-66763222D01*
X62719857Y-66760773D01*
X62853295Y-66749004D01*
X62958832Y-66725955D01*
X62992000Y-66714410D01*
X63067735Y-66680311D01*
X63147614Y-66637491D01*
X63182500Y-66616057D01*
X63273214Y-66556556D01*
X63273214Y-64670584D01*
X63173428Y-64610771D01*
X63034267Y-64543185D01*
X62892087Y-64503214D01*
X62752090Y-64490622D01*
X62619474Y-64505173D01*
X62499440Y-64546632D01*
X62397188Y-64614763D01*
X62364195Y-64647466D01*
X62284667Y-64754619D01*
X62220299Y-64884327D01*
X62170553Y-65038814D01*
X62134891Y-65220302D01*
X62112775Y-65431015D01*
X62103667Y-65673175D01*
X62103359Y-65725440D01*
X60764600Y-65725440D01*
X60765310Y-65668374D01*
X60780605Y-65369713D01*
X60811358Y-65100325D01*
X60858381Y-64856285D01*
X60922482Y-64633670D01*
X61004472Y-64428556D01*
X61033730Y-64367746D01*
X61151581Y-64169440D01*
X61293996Y-63993212D01*
X61457629Y-63841908D01*
X61639131Y-63718371D01*
X61835153Y-63625447D01*
X61952655Y-63587115D01*
X62068054Y-63564359D01*
X62206907Y-63550820D01*
X62357574Y-63546492D01*
X62508413Y-63551368D01*
X62647785Y-63565444D01*
X62759691Y-63587525D01*
X62892884Y-63630828D01*
X63021979Y-63686511D01*
X63134928Y-63748936D01*
X63195043Y-63791303D01*
X63236510Y-63822807D01*
X63265545Y-63841990D01*
X63272150Y-63844714D01*
X63274198Y-63827163D01*
X63276107Y-63776875D01*
X63277836Y-63697400D01*
X63279341Y-63592286D01*
X63280581Y-63465083D01*
X63281513Y-63319339D01*
X63282095Y-63158603D01*
X63282286Y-62994884D01*
X63282179Y-62785188D01*
X63281658Y-62608396D01*
X63280416Y-62461126D01*
X63278148Y-62339997D01*
X63274550Y-62241627D01*
X63269317Y-62162634D01*
X63262144Y-62099638D01*
X63252726Y-62049255D01*
X63240758Y-62008105D01*
X63225935Y-61972806D01*
X63207952Y-61939977D01*
X63186505Y-61906235D01*
X63183745Y-61902057D01*
X63156083Y-61858356D01*
X63139382Y-61828305D01*
X63137143Y-61821967D01*
X63154643Y-61819967D01*
X63204574Y-61818340D01*
X63283085Y-61817112D01*
X63386323Y-61816311D01*
X63510436Y-61815961D01*
X63651571Y-61816089D01*
G37*
X63651571Y-61816089D02*
X63805876Y-61816723D01*
X63858321Y-61817042D01*
X64579500Y-61821786D01*
X64588571Y-64588572D01*
X64589769Y-64963756D01*
X64590832Y-65304417D01*
X64591827Y-65612318D01*
X64592823Y-65889221D01*
X64593888Y-66136888D01*
X64595091Y-66357081D01*
X64596499Y-66551562D01*
X64598182Y-66722094D01*
X64600206Y-66870440D01*
X64602641Y-66998361D01*
X64605554Y-67107620D01*
X64609015Y-67199979D01*
X64613090Y-67277200D01*
X64617849Y-67341046D01*
X64623360Y-67393278D01*
X64629691Y-67435660D01*
X64636910Y-67469953D01*
X64645085Y-67497920D01*
X64654285Y-67521324D01*
X64664577Y-67541925D01*
X64676031Y-67561487D01*
X64688715Y-67581772D01*
X64702695Y-67604543D01*
X64705561Y-67609393D01*
X64753640Y-67691433D01*
X63363928Y-67681929D01*
X63354857Y-67529295D01*
X63349918Y-67456045D01*
X63344771Y-67413696D01*
X63337786Y-67396892D01*
X63327337Y-67400277D01*
X63318571Y-67409960D01*
X63280388Y-67445229D01*
X63218155Y-67490563D01*
X63140641Y-67540546D01*
X63056613Y-67589761D01*
X62974839Y-67632791D01*
X62912052Y-67661101D01*
X62764954Y-67707624D01*
X62596180Y-67740579D01*
X62418191Y-67758707D01*
X62243447Y-67760750D01*
X62084407Y-67745447D01*
X62081788Y-67745009D01*
X61864168Y-67690402D01*
X61660455Y-67603401D01*
X61472613Y-67485876D01*
X61302607Y-67339697D01*
X61152402Y-67166734D01*
X61023964Y-66968857D01*
X60919257Y-66747936D01*
X60862246Y-66584286D01*
X60824651Y-66447375D01*
X60796771Y-66314798D01*
X60777753Y-66178502D01*
X60766745Y-66030433D01*
X60762895Y-65862537D01*
X60764600Y-65725440D01*
X62103359Y-65725440D01*
X62109694Y-65955329D01*
X62129679Y-66153111D01*
X62163927Y-66320539D01*
X62213055Y-66459369D01*
X62277676Y-66571358D01*
X62358405Y-66658259D01*
X62451591Y-66719692D01*
X62500080Y-66742626D01*
X62542134Y-66756375D01*
X62589020Y-66762666D01*
X62652004Y-66763222D01*
X62719857Y-66760773D01*
X62853295Y-66749004D01*
X62958832Y-66725955D01*
X62992000Y-66714410D01*
X63067735Y-66680311D01*
X63147614Y-66637491D01*
X63182500Y-66616057D01*
X63273214Y-66556556D01*
X63273214Y-64670584D01*
X63173428Y-64610771D01*
X63034267Y-64543185D01*
X62892087Y-64503214D01*
X62752090Y-64490622D01*
X62619474Y-64505173D01*
X62499440Y-64546632D01*
X62397188Y-64614763D01*
X62364195Y-64647466D01*
X62284667Y-64754619D01*
X62220299Y-64884327D01*
X62170553Y-65038814D01*
X62134891Y-65220302D01*
X62112775Y-65431015D01*
X62103667Y-65673175D01*
X62103359Y-65725440D01*
X60764600Y-65725440D01*
X60765310Y-65668374D01*
X60780605Y-65369713D01*
X60811358Y-65100325D01*
X60858381Y-64856285D01*
X60922482Y-64633670D01*
X61004472Y-64428556D01*
X61033730Y-64367746D01*
X61151581Y-64169440D01*
X61293996Y-63993212D01*
X61457629Y-63841908D01*
X61639131Y-63718371D01*
X61835153Y-63625447D01*
X61952655Y-63587115D01*
X62068054Y-63564359D01*
X62206907Y-63550820D01*
X62357574Y-63546492D01*
X62508413Y-63551368D01*
X62647785Y-63565444D01*
X62759691Y-63587525D01*
X62892884Y-63630828D01*
X63021979Y-63686511D01*
X63134928Y-63748936D01*
X63195043Y-63791303D01*
X63236510Y-63822807D01*
X63265545Y-63841990D01*
X63272150Y-63844714D01*
X63274198Y-63827163D01*
X63276107Y-63776875D01*
X63277836Y-63697400D01*
X63279341Y-63592286D01*
X63280581Y-63465083D01*
X63281513Y-63319339D01*
X63282095Y-63158603D01*
X63282286Y-62994884D01*
X63282179Y-62785188D01*
X63281658Y-62608396D01*
X63280416Y-62461126D01*
X63278148Y-62339997D01*
X63274550Y-62241627D01*
X63269317Y-62162634D01*
X63262144Y-62099638D01*
X63252726Y-62049255D01*
X63240758Y-62008105D01*
X63225935Y-61972806D01*
X63207952Y-61939977D01*
X63186505Y-61906235D01*
X63183745Y-61902057D01*
X63156083Y-61858356D01*
X63139382Y-61828305D01*
X63137143Y-61821967D01*
X63154643Y-61819967D01*
X63204574Y-61818340D01*
X63283085Y-61817112D01*
X63386323Y-61816311D01*
X63510436Y-61815961D01*
X63651571Y-61816089D01*
G36*
X58795632Y-63543730D02*
G01*
X58885523Y-63550535D01*
X59142715Y-63584753D01*
X59370485Y-63639331D01*
X59569943Y-63715020D01*
X59742197Y-63812570D01*
X59888359Y-63932732D01*
X60009536Y-64076258D01*
X60106839Y-64243898D01*
X60177891Y-64425286D01*
X60195927Y-64483146D01*
X60211632Y-64537329D01*
X60225192Y-64590752D01*
X60236792Y-64646333D01*
X60246617Y-64706988D01*
X60254853Y-64775635D01*
X60261684Y-64855190D01*
X60267295Y-64948572D01*
X60271872Y-65058696D01*
X60275600Y-65188481D01*
X60278665Y-65340842D01*
X60281250Y-65518698D01*
X60283542Y-65724965D01*
X60285725Y-65962561D01*
X60287286Y-66148857D01*
X60297785Y-67427929D01*
X60365821Y-67551018D01*
X60398038Y-67610317D01*
X60422012Y-67656377D01*
X60433450Y-67680893D01*
X60433857Y-67682553D01*
X60416375Y-67684454D01*
X60366574Y-67686205D01*
X60288421Y-67687758D01*
X60185882Y-67689062D01*
X60062922Y-67690070D01*
X59923510Y-67690731D01*
X59771611Y-67690997D01*
X59753500Y-67691000D01*
X59073143Y-67691000D01*
X59073143Y-67536786D01*
X59071982Y-67467094D01*
X59068887Y-67413794D01*
X59064432Y-67385217D01*
X59062463Y-67382572D01*
X59044455Y-67393653D01*
X59007393Y-67422736D01*
X58959222Y-67463579D01*
X58958141Y-67464524D01*
X58870235Y-67529971D01*
X58759217Y-67595688D01*
X58637631Y-67655219D01*
X58518021Y-67702109D01*
X58465357Y-67718133D01*
X58360551Y-67738485D01*
X58231950Y-67751472D01*
X58091325Y-67756909D01*
X57950448Y-67754611D01*
X57821093Y-67744392D01*
X57730571Y-67729689D01*
X57508580Y-67664499D01*
X57308729Y-67571594D01*
X57132319Y-67452126D01*
X56980650Y-67307247D01*
X56855024Y-67138110D01*
X56756741Y-66945867D01*
X56714341Y-66829214D01*
X56687768Y-66715833D01*
X56670158Y-66579722D01*
X56662010Y-66433437D01*
X56662278Y-66412151D01*
X57889321Y-66412151D01*
X57899496Y-66520850D01*
X57933378Y-66611185D01*
X57996000Y-66694995D01*
X58020052Y-66719571D01*
X58105551Y-66786011D01*
X58204373Y-66828574D01*
X58322768Y-66849177D01*
X58447445Y-66850694D01*
X58565698Y-66840677D01*
X58656239Y-66821085D01*
X58695560Y-66806370D01*
X58766432Y-66766265D01*
X58841525Y-66709863D01*
X58910038Y-66646561D01*
X58961172Y-66585755D01*
X58974750Y-66563449D01*
X58985305Y-66532212D01*
X58992810Y-66482507D01*
X58997613Y-66409587D01*
X59000065Y-66308703D01*
X59000571Y-66212689D01*
X59000228Y-66100750D01*
X58998843Y-66019809D01*
X58995881Y-65964585D01*
X58990808Y-65929794D01*
X58983090Y-65910154D01*
X58972192Y-65900380D01*
X58968821Y-65898824D01*
X58939529Y-65894029D01*
X58881756Y-65890108D01*
X58803304Y-65887414D01*
X58711974Y-65886299D01*
X58692143Y-65886298D01*
X58570063Y-65888246D01*
X58475749Y-65894041D01*
X58400807Y-65904475D01*
X58338903Y-65919714D01*
X58185349Y-65977784D01*
X58064932Y-66049179D01*
X57976610Y-66135039D01*
X57919339Y-66236507D01*
X57892078Y-66354725D01*
X57889321Y-66412151D01*
X56662278Y-66412151D01*
X56663823Y-66289533D01*
X56676096Y-66160565D01*
X56685670Y-66108460D01*
X56746801Y-65914997D01*
X56839757Y-65736993D01*
X56962783Y-65576155D01*
X57114124Y-65434190D01*
X57292025Y-65312806D01*
X57494732Y-65213709D01*
X57667071Y-65153533D01*
X57782253Y-65121919D01*
X57892423Y-65097354D01*
X58004719Y-65079039D01*
X58126275Y-65066178D01*
X58264229Y-65057972D01*
X58425715Y-65053624D01*
X58571715Y-65052400D01*
X59004645Y-65051215D01*
X58996351Y-64921080D01*
X58972801Y-64779883D01*
X58922703Y-64658518D01*
X58848191Y-64560017D01*
X58751399Y-64487409D01*
X58666171Y-64451979D01*
X58544056Y-64429650D01*
X58398683Y-64426443D01*
X58236867Y-64441177D01*
X58065422Y-64472670D01*
X57891163Y-64519740D01*
X57720904Y-64581203D01*
X57597176Y-64637417D01*
X57537647Y-64666283D01*
X57492242Y-64686443D01*
X57469150Y-64694310D01*
X57467897Y-64694058D01*
X57459929Y-64676437D01*
X57440031Y-64629733D01*
X57410077Y-64558418D01*
X57371939Y-64466969D01*
X57327488Y-64359859D01*
X57282305Y-64250549D01*
X57101667Y-63812740D01*
X57230155Y-63791636D01*
X57285846Y-63781047D01*
X57369564Y-63763263D01*
X57474139Y-63739898D01*
X57592399Y-63712565D01*
X57717172Y-63682881D01*
X57766857Y-63670818D01*
X57981807Y-63620962D01*
X58169995Y-63583584D01*
X58338446Y-63557927D01*
X58494186Y-63543235D01*
X58644240Y-63538755D01*
X58795632Y-63543730D01*
G37*
X58795632Y-63543730D02*
X58885523Y-63550535D01*
X59142715Y-63584753D01*
X59370485Y-63639331D01*
X59569943Y-63715020D01*
X59742197Y-63812570D01*
X59888359Y-63932732D01*
X60009536Y-64076258D01*
X60106839Y-64243898D01*
X60177891Y-64425286D01*
X60195927Y-64483146D01*
X60211632Y-64537329D01*
X60225192Y-64590752D01*
X60236792Y-64646333D01*
X60246617Y-64706988D01*
X60254853Y-64775635D01*
X60261684Y-64855190D01*
X60267295Y-64948572D01*
X60271872Y-65058696D01*
X60275600Y-65188481D01*
X60278665Y-65340842D01*
X60281250Y-65518698D01*
X60283542Y-65724965D01*
X60285725Y-65962561D01*
X60287286Y-66148857D01*
X60297785Y-67427929D01*
X60365821Y-67551018D01*
X60398038Y-67610317D01*
X60422012Y-67656377D01*
X60433450Y-67680893D01*
X60433857Y-67682553D01*
X60416375Y-67684454D01*
X60366574Y-67686205D01*
X60288421Y-67687758D01*
X60185882Y-67689062D01*
X60062922Y-67690070D01*
X59923510Y-67690731D01*
X59771611Y-67690997D01*
X59753500Y-67691000D01*
X59073143Y-67691000D01*
X59073143Y-67536786D01*
X59071982Y-67467094D01*
X59068887Y-67413794D01*
X59064432Y-67385217D01*
X59062463Y-67382572D01*
X59044455Y-67393653D01*
X59007393Y-67422736D01*
X58959222Y-67463579D01*
X58958141Y-67464524D01*
X58870235Y-67529971D01*
X58759217Y-67595688D01*
X58637631Y-67655219D01*
X58518021Y-67702109D01*
X58465357Y-67718133D01*
X58360551Y-67738485D01*
X58231950Y-67751472D01*
X58091325Y-67756909D01*
X57950448Y-67754611D01*
X57821093Y-67744392D01*
X57730571Y-67729689D01*
X57508580Y-67664499D01*
X57308729Y-67571594D01*
X57132319Y-67452126D01*
X56980650Y-67307247D01*
X56855024Y-67138110D01*
X56756741Y-66945867D01*
X56714341Y-66829214D01*
X56687768Y-66715833D01*
X56670158Y-66579722D01*
X56662010Y-66433437D01*
X56662278Y-66412151D01*
X57889321Y-66412151D01*
X57899496Y-66520850D01*
X57933378Y-66611185D01*
X57996000Y-66694995D01*
X58020052Y-66719571D01*
X58105551Y-66786011D01*
X58204373Y-66828574D01*
X58322768Y-66849177D01*
X58447445Y-66850694D01*
X58565698Y-66840677D01*
X58656239Y-66821085D01*
X58695560Y-66806370D01*
X58766432Y-66766265D01*
X58841525Y-66709863D01*
X58910038Y-66646561D01*
X58961172Y-66585755D01*
X58974750Y-66563449D01*
X58985305Y-66532212D01*
X58992810Y-66482507D01*
X58997613Y-66409587D01*
X59000065Y-66308703D01*
X59000571Y-66212689D01*
X59000228Y-66100750D01*
X58998843Y-66019809D01*
X58995881Y-65964585D01*
X58990808Y-65929794D01*
X58983090Y-65910154D01*
X58972192Y-65900380D01*
X58968821Y-65898824D01*
X58939529Y-65894029D01*
X58881756Y-65890108D01*
X58803304Y-65887414D01*
X58711974Y-65886299D01*
X58692143Y-65886298D01*
X58570063Y-65888246D01*
X58475749Y-65894041D01*
X58400807Y-65904475D01*
X58338903Y-65919714D01*
X58185349Y-65977784D01*
X58064932Y-66049179D01*
X57976610Y-66135039D01*
X57919339Y-66236507D01*
X57892078Y-66354725D01*
X57889321Y-66412151D01*
X56662278Y-66412151D01*
X56663823Y-66289533D01*
X56676096Y-66160565D01*
X56685670Y-66108460D01*
X56746801Y-65914997D01*
X56839757Y-65736993D01*
X56962783Y-65576155D01*
X57114124Y-65434190D01*
X57292025Y-65312806D01*
X57494732Y-65213709D01*
X57667071Y-65153533D01*
X57782253Y-65121919D01*
X57892423Y-65097354D01*
X58004719Y-65079039D01*
X58126275Y-65066178D01*
X58264229Y-65057972D01*
X58425715Y-65053624D01*
X58571715Y-65052400D01*
X59004645Y-65051215D01*
X58996351Y-64921080D01*
X58972801Y-64779883D01*
X58922703Y-64658518D01*
X58848191Y-64560017D01*
X58751399Y-64487409D01*
X58666171Y-64451979D01*
X58544056Y-64429650D01*
X58398683Y-64426443D01*
X58236867Y-64441177D01*
X58065422Y-64472670D01*
X57891163Y-64519740D01*
X57720904Y-64581203D01*
X57597176Y-64637417D01*
X57537647Y-64666283D01*
X57492242Y-64686443D01*
X57469150Y-64694310D01*
X57467897Y-64694058D01*
X57459929Y-64676437D01*
X57440031Y-64629733D01*
X57410077Y-64558418D01*
X57371939Y-64466969D01*
X57327488Y-64359859D01*
X57282305Y-64250549D01*
X57101667Y-63812740D01*
X57230155Y-63791636D01*
X57285846Y-63781047D01*
X57369564Y-63763263D01*
X57474139Y-63739898D01*
X57592399Y-63712565D01*
X57717172Y-63682881D01*
X57766857Y-63670818D01*
X57981807Y-63620962D01*
X58169995Y-63583584D01*
X58338446Y-63557927D01*
X58494186Y-63543235D01*
X58644240Y-63538755D01*
X58795632Y-63543730D01*
G36*
X55191378Y-62085231D02*
G01*
X55387019Y-62106649D01*
X55576562Y-62144985D01*
X55767717Y-62202238D01*
X55968196Y-62280409D01*
X56185708Y-62381496D01*
X56224880Y-62401076D01*
X56314772Y-62445362D01*
X56399553Y-62485239D01*
X56470855Y-62516898D01*
X56520310Y-62536532D01*
X56527908Y-62539004D01*
X56600714Y-62560817D01*
X56274803Y-63034944D01*
X56195123Y-63150823D01*
X56122272Y-63256694D01*
X56058730Y-63348962D01*
X56006972Y-63424033D01*
X55969477Y-63478313D01*
X55948723Y-63508207D01*
X55945351Y-63512941D01*
X55931655Y-63503042D01*
X55897943Y-63473285D01*
X55850244Y-63429073D01*
X55823920Y-63404084D01*
X55674772Y-63285456D01*
X55507268Y-63195313D01*
X55362928Y-63145936D01*
X55276283Y-63130429D01*
X55167796Y-63120979D01*
X55050227Y-63117761D01*
X54936334Y-63120951D01*
X54838879Y-63130724D01*
X54799990Y-63138209D01*
X54624712Y-63198512D01*
X54466765Y-63290590D01*
X54326268Y-63414273D01*
X54203335Y-63569393D01*
X54098085Y-63755781D01*
X54010635Y-63973270D01*
X53941100Y-64221692D01*
X53899775Y-64434357D01*
X53888994Y-64528241D01*
X53881648Y-64649524D01*
X53877667Y-64789493D01*
X53876979Y-64939431D01*
X53879514Y-65090622D01*
X53885200Y-65234351D01*
X53893967Y-65361903D01*
X53905744Y-65464562D01*
X53908293Y-65480401D01*
X53964481Y-65735536D01*
X54041036Y-65961342D01*
X54138426Y-66158831D01*
X54257114Y-66329014D01*
X54341363Y-66421022D01*
X54492770Y-66545943D01*
X54658817Y-66638540D01*
X54836701Y-66698309D01*
X55023622Y-66724746D01*
X55216778Y-66717348D01*
X55413369Y-66675611D01*
X55529597Y-66634771D01*
X55690438Y-66552990D01*
X55856213Y-66435678D01*
X55949073Y-66356345D01*
X56001214Y-66310429D01*
X56042180Y-66276742D01*
X56065498Y-66260510D01*
X56068393Y-66260015D01*
X56078800Y-66276601D01*
X56105767Y-66320432D01*
X56146996Y-66387748D01*
X56200189Y-66474794D01*
X56263050Y-66577810D01*
X56333281Y-66693041D01*
X56372372Y-66757231D01*
X56670964Y-67247677D01*
X56298161Y-67431915D01*
X56163369Y-67498093D01*
X56054175Y-67550278D01*
X55963907Y-67591060D01*
X55885888Y-67623033D01*
X55813444Y-67648787D01*
X55739901Y-67670914D01*
X55658584Y-67692007D01*
X55580643Y-67710530D01*
X55511366Y-67724863D01*
X55438917Y-67735694D01*
X55356042Y-67743626D01*
X55255488Y-67749258D01*
X55130003Y-67753192D01*
X55045428Y-67754891D01*
X54924754Y-67756050D01*
X54809042Y-67755465D01*
X54705951Y-67753304D01*
X54623138Y-67749732D01*
X54568260Y-67744917D01*
X54565008Y-67744437D01*
X54280043Y-67682786D01*
X54012442Y-67589285D01*
X53762297Y-67463993D01*
X53529704Y-67306974D01*
X53314757Y-67118289D01*
X53117550Y-66898000D01*
X52974727Y-66702214D01*
X52822680Y-66445949D01*
X52699773Y-66175317D01*
X52605410Y-65888149D01*
X52538999Y-65582276D01*
X52499944Y-65255528D01*
X52487640Y-64923739D01*
X52497759Y-64602779D01*
X52529561Y-64306646D01*
X52584054Y-64030345D01*
X52662250Y-63768881D01*
X52765159Y-63517258D01*
X52777447Y-63491190D01*
X52912820Y-63247507D01*
X53079089Y-63015618D01*
X53271541Y-62800323D01*
X53485466Y-62606422D01*
X53716155Y-62438715D01*
X53931109Y-62315696D01*
X54148258Y-62219345D01*
X54365868Y-62149551D01*
X54592362Y-62104413D01*
X54836166Y-62082031D01*
X54981928Y-62078731D01*
X55191378Y-62085231D01*
G37*
X55191378Y-62085231D02*
X55387019Y-62106649D01*
X55576562Y-62144985D01*
X55767717Y-62202238D01*
X55968196Y-62280409D01*
X56185708Y-62381496D01*
X56224880Y-62401076D01*
X56314772Y-62445362D01*
X56399553Y-62485239D01*
X56470855Y-62516898D01*
X56520310Y-62536532D01*
X56527908Y-62539004D01*
X56600714Y-62560817D01*
X56274803Y-63034944D01*
X56195123Y-63150823D01*
X56122272Y-63256694D01*
X56058730Y-63348962D01*
X56006972Y-63424033D01*
X55969477Y-63478313D01*
X55948723Y-63508207D01*
X55945351Y-63512941D01*
X55931655Y-63503042D01*
X55897943Y-63473285D01*
X55850244Y-63429073D01*
X55823920Y-63404084D01*
X55674772Y-63285456D01*
X55507268Y-63195313D01*
X55362928Y-63145936D01*
X55276283Y-63130429D01*
X55167796Y-63120979D01*
X55050227Y-63117761D01*
X54936334Y-63120951D01*
X54838879Y-63130724D01*
X54799990Y-63138209D01*
X54624712Y-63198512D01*
X54466765Y-63290590D01*
X54326268Y-63414273D01*
X54203335Y-63569393D01*
X54098085Y-63755781D01*
X54010635Y-63973270D01*
X53941100Y-64221692D01*
X53899775Y-64434357D01*
X53888994Y-64528241D01*
X53881648Y-64649524D01*
X53877667Y-64789493D01*
X53876979Y-64939431D01*
X53879514Y-65090622D01*
X53885200Y-65234351D01*
X53893967Y-65361903D01*
X53905744Y-65464562D01*
X53908293Y-65480401D01*
X53964481Y-65735536D01*
X54041036Y-65961342D01*
X54138426Y-66158831D01*
X54257114Y-66329014D01*
X54341363Y-66421022D01*
X54492770Y-66545943D01*
X54658817Y-66638540D01*
X54836701Y-66698309D01*
X55023622Y-66724746D01*
X55216778Y-66717348D01*
X55413369Y-66675611D01*
X55529597Y-66634771D01*
X55690438Y-66552990D01*
X55856213Y-66435678D01*
X55949073Y-66356345D01*
X56001214Y-66310429D01*
X56042180Y-66276742D01*
X56065498Y-66260510D01*
X56068393Y-66260015D01*
X56078800Y-66276601D01*
X56105767Y-66320432D01*
X56146996Y-66387748D01*
X56200189Y-66474794D01*
X56263050Y-66577810D01*
X56333281Y-66693041D01*
X56372372Y-66757231D01*
X56670964Y-67247677D01*
X56298161Y-67431915D01*
X56163369Y-67498093D01*
X56054175Y-67550278D01*
X55963907Y-67591060D01*
X55885888Y-67623033D01*
X55813444Y-67648787D01*
X55739901Y-67670914D01*
X55658584Y-67692007D01*
X55580643Y-67710530D01*
X55511366Y-67724863D01*
X55438917Y-67735694D01*
X55356042Y-67743626D01*
X55255488Y-67749258D01*
X55130003Y-67753192D01*
X55045428Y-67754891D01*
X54924754Y-67756050D01*
X54809042Y-67755465D01*
X54705951Y-67753304D01*
X54623138Y-67749732D01*
X54568260Y-67744917D01*
X54565008Y-67744437D01*
X54280043Y-67682786D01*
X54012442Y-67589285D01*
X53762297Y-67463993D01*
X53529704Y-67306974D01*
X53314757Y-67118289D01*
X53117550Y-66898000D01*
X52974727Y-66702214D01*
X52822680Y-66445949D01*
X52699773Y-66175317D01*
X52605410Y-65888149D01*
X52538999Y-65582276D01*
X52499944Y-65255528D01*
X52487640Y-64923739D01*
X52497759Y-64602779D01*
X52529561Y-64306646D01*
X52584054Y-64030345D01*
X52662250Y-63768881D01*
X52765159Y-63517258D01*
X52777447Y-63491190D01*
X52912820Y-63247507D01*
X53079089Y-63015618D01*
X53271541Y-62800323D01*
X53485466Y-62606422D01*
X53716155Y-62438715D01*
X53931109Y-62315696D01*
X54148258Y-62219345D01*
X54365868Y-62149551D01*
X54592362Y-62104413D01*
X54836166Y-62082031D01*
X54981928Y-62078731D01*
X55191378Y-62085231D01*
G36*
X46739911Y-61177660D02*
G01*
X47089460Y-61177707D01*
X47252170Y-61177714D01*
X49856571Y-61177715D01*
X49856571Y-61331238D01*
X49872957Y-61518063D01*
X49922412Y-61690367D01*
X50005380Y-61849175D01*
X50122305Y-61995510D01*
X50161864Y-62035032D01*
X50304170Y-62147138D01*
X50461078Y-62228899D01*
X50627928Y-62280353D01*
X50800061Y-62301537D01*
X50972815Y-62292487D01*
X51141530Y-62253242D01*
X51301546Y-62183838D01*
X51448202Y-62084311D01*
X51514068Y-62024265D01*
X51636808Y-61877043D01*
X51726812Y-61715147D01*
X51783294Y-61540427D01*
X51805471Y-61354735D01*
X51805766Y-61336467D01*
X51806928Y-61177720D01*
X51876700Y-61177717D01*
X51938595Y-61186118D01*
X51995135Y-61206556D01*
X51998872Y-61208667D01*
X52011642Y-61215293D01*
X52023368Y-61220454D01*
X52034094Y-61225651D01*
X52043861Y-61232390D01*
X52052712Y-61242171D01*
X52060689Y-61256500D01*
X52067835Y-61276878D01*
X52074192Y-61304808D01*
X52079802Y-61341795D01*
X52084707Y-61389340D01*
X52088951Y-61448947D01*
X52092576Y-61522119D01*
X52095623Y-61610359D01*
X52098136Y-61715170D01*
X52100156Y-61838055D01*
X52101726Y-61980517D01*
X52102888Y-62144060D01*
X52103686Y-62330186D01*
X52104160Y-62540398D01*
X52104354Y-62776200D01*
X52104310Y-63039094D01*
X52104070Y-63330584D01*
X52103677Y-63652172D01*
X52103173Y-64005362D01*
X52102600Y-64391657D01*
X52102001Y-64812560D01*
X52101932Y-64863840D01*
X52101395Y-65287426D01*
X52100939Y-65676230D01*
X52100516Y-66031753D01*
X52100079Y-66355498D01*
X52099578Y-66648966D01*
X52098965Y-66913661D01*
X52098192Y-67151085D01*
X52097211Y-67362740D01*
X52095974Y-67550129D01*
X52094432Y-67714754D01*
X52092537Y-67858117D01*
X52090241Y-67981720D01*
X52087496Y-68087067D01*
X52084253Y-68175659D01*
X52080464Y-68249000D01*
X52076081Y-68308590D01*
X52071055Y-68355933D01*
X52065339Y-68392531D01*
X52058884Y-68419886D01*
X52051641Y-68439502D01*
X52043563Y-68452879D01*
X52034602Y-68461521D01*
X52024708Y-68466930D01*
X52013835Y-68470608D01*
X52001933Y-68474058D01*
X51988954Y-68478782D01*
X51985783Y-68480220D01*
X51975819Y-68483451D01*
X51959141Y-68486420D01*
X51934293Y-68489137D01*
X51899820Y-68491613D01*
X51854264Y-68493858D01*
X51796170Y-68495883D01*
X51724081Y-68497698D01*
X51636542Y-68499315D01*
X51532095Y-68500743D01*
X51409285Y-68501993D01*
X51266655Y-68503076D01*
X51102749Y-68504002D01*
X50916110Y-68504782D01*
X50705284Y-68505426D01*
X50468812Y-68505946D01*
X50205239Y-68506351D01*
X49913110Y-68506652D01*
X49590966Y-68506860D01*
X49237353Y-68506985D01*
X48850814Y-68507038D01*
X48429892Y-68507029D01*
X48293544Y-68507016D01*
X47863284Y-68506947D01*
X47467836Y-68506834D01*
X47105727Y-68506665D01*
X46775483Y-68506430D01*
X46475629Y-68506116D01*
X46204692Y-68505713D01*
X45961200Y-68505207D01*
X45743677Y-68504589D01*
X45550650Y-68503846D01*
X45380646Y-68502968D01*
X45232190Y-68501941D01*
X45103810Y-68500756D01*
X44994031Y-68499400D01*
X44901380Y-68497862D01*
X44824383Y-68496130D01*
X44761566Y-68494194D01*
X44711456Y-68492040D01*
X44672579Y-68489659D01*
X44643462Y-68487037D01*
X44622629Y-68484165D01*
X44608609Y-68481030D01*
X44600966Y-68478159D01*
X44587382Y-68472430D01*
X44574910Y-68468206D01*
X44563502Y-68463985D01*
X44553111Y-68458268D01*
X44543691Y-68449555D01*
X44535192Y-68436345D01*
X44527570Y-68417137D01*
X44520775Y-68390433D01*
X44514762Y-68354730D01*
X44509483Y-68308530D01*
X44504890Y-68250332D01*
X44500936Y-68178635D01*
X44497575Y-68091940D01*
X44494759Y-67988746D01*
X44492440Y-67867553D01*
X44490572Y-67726860D01*
X44490084Y-67672857D01*
X44974296Y-67672857D01*
X46685744Y-67672857D01*
X46652813Y-67622964D01*
X46620053Y-67571693D01*
X46592311Y-67522869D01*
X46569193Y-67473076D01*
X46550303Y-67418898D01*
X46535249Y-67356916D01*
X46523633Y-67283715D01*
X46515064Y-67195878D01*
X46509144Y-67089988D01*
X46505481Y-66962628D01*
X46503679Y-66810381D01*
X46503344Y-66629832D01*
X46504081Y-66417562D01*
X46504499Y-66338755D01*
X46509214Y-65493911D01*
X47044428Y-66222557D01*
X47196054Y-66429265D01*
X47327419Y-66609260D01*
X47439943Y-66764925D01*
X47535043Y-66898647D01*
X47614138Y-67012809D01*
X47678647Y-67109797D01*
X47729988Y-67191994D01*
X47769580Y-67261786D01*
X47798840Y-67321558D01*
X47819188Y-67373693D01*
X47832042Y-67420576D01*
X47838819Y-67464593D01*
X47840940Y-67508127D01*
X47839821Y-67553564D01*
X47839536Y-67559275D01*
X47833643Y-67672933D01*
X49709229Y-67672857D01*
X49569722Y-67532189D01*
X49531865Y-67493715D01*
X49495953Y-67456279D01*
X49460407Y-67417814D01*
X49423653Y-67376258D01*
X49384114Y-67329545D01*
X49340214Y-67275610D01*
X49290377Y-67212390D01*
X49233028Y-67137818D01*
X49166589Y-67049832D01*
X49089485Y-66946365D01*
X49000139Y-66825354D01*
X48896976Y-66684734D01*
X48778420Y-66522440D01*
X48642895Y-66336407D01*
X48488823Y-66124571D01*
X48362538Y-65950804D01*
X48204046Y-65732501D01*
X48065784Y-65541629D01*
X47946501Y-65376374D01*
X47844943Y-65234926D01*
X47759859Y-65115471D01*
X47689995Y-65016198D01*
X47634100Y-64935295D01*
X47590920Y-64870949D01*
X47559203Y-64821347D01*
X47537698Y-64784679D01*
X47525150Y-64759132D01*
X47520308Y-64742893D01*
X47521763Y-64734355D01*
X47539401Y-64711635D01*
X47577534Y-64663543D01*
X47633862Y-64592938D01*
X47706084Y-64502678D01*
X47791899Y-64395621D01*
X47889006Y-64274627D01*
X47995104Y-64142554D01*
X48107891Y-64002260D01*
X48225068Y-63856603D01*
X48344333Y-63708444D01*
X48409933Y-63627000D01*
X50038686Y-63627000D01*
X50106379Y-63749465D01*
X50174071Y-63871929D01*
X50174071Y-67427929D01*
X50106379Y-67550393D01*
X50038686Y-67672857D01*
X50839441Y-67672857D01*
X51030602Y-67672802D01*
X51188499Y-67672551D01*
X51316152Y-67671979D01*
X51416581Y-67670959D01*
X51492807Y-67669365D01*
X51547852Y-67667070D01*
X51584736Y-67663950D01*
X51606479Y-67659877D01*
X51616102Y-67654725D01*
X51616627Y-67648367D01*
X51611074Y-67640679D01*
X51611016Y-67640615D01*
X51588140Y-67607524D01*
X51557849Y-67553719D01*
X51531097Y-67500008D01*
X51480357Y-67391643D01*
X51475182Y-65509322D01*
X51470007Y-63627000D01*
X50038686Y-63627000D01*
X48409933Y-63627000D01*
X48463385Y-63560639D01*
X48579923Y-63416047D01*
X48691646Y-63277528D01*
X48796254Y-63147939D01*
X48891444Y-63030140D01*
X48974917Y-62926988D01*
X49044371Y-62841343D01*
X49097506Y-62776062D01*
X49128715Y-62738000D01*
X49249903Y-62595670D01*
X49366493Y-62467230D01*
X49474397Y-62356886D01*
X49569530Y-62268841D01*
X49637043Y-62214862D01*
X49716873Y-62157429D01*
X47880892Y-62157429D01*
X47881408Y-62265165D01*
X47876276Y-62344372D01*
X47856985Y-62417805D01*
X47827123Y-62487415D01*
X47807712Y-62526741D01*
X47786841Y-62565707D01*
X47762604Y-62606901D01*
X47733094Y-62652908D01*
X47696406Y-62706317D01*
X47650632Y-62769714D01*
X47593865Y-62845685D01*
X47524200Y-62936817D01*
X47439730Y-63045698D01*
X47338547Y-63174914D01*
X47218747Y-63327052D01*
X47078421Y-63504698D01*
X47062571Y-63524742D01*
X46509214Y-64224508D01*
X46503857Y-63449504D01*
X46502779Y-63217368D01*
X46503008Y-63020846D01*
X46504557Y-62859292D01*
X46507437Y-62732056D01*
X46511659Y-62638492D01*
X46517234Y-62577952D01*
X46519107Y-62566468D01*
X46548505Y-62445499D01*
X46587022Y-62336446D01*
X46630974Y-62248763D01*
X46657379Y-62211574D01*
X46702940Y-62157429D01*
X45838470Y-62157429D01*
X45632255Y-62157605D01*
X45459812Y-62158179D01*
X45318627Y-62159217D01*
X45206188Y-62160787D01*
X45119983Y-62162954D01*
X45057498Y-62165788D01*
X45016221Y-62169353D01*
X44993640Y-62173718D01*
X44987241Y-62178949D01*
X44987683Y-62180107D01*
X45006009Y-62207769D01*
X45036604Y-62251615D01*
X45052433Y-62273791D01*
X45068798Y-62295920D01*
X45083508Y-62315709D01*
X45096656Y-62335106D01*
X45108333Y-62356058D01*
X45118632Y-62380512D01*
X45127646Y-62410416D01*
X45135468Y-62447717D01*
X45142191Y-62494363D01*
X45147906Y-62552301D01*
X45152707Y-62623479D01*
X45156685Y-62709844D01*
X45159935Y-62813344D01*
X45162548Y-62935925D01*
X45164617Y-63079537D01*
X45166234Y-63246125D01*
X45167493Y-63437637D01*
X45168485Y-63656022D01*
X45169304Y-63903226D01*
X45170042Y-64181196D01*
X45170791Y-64491881D01*
X45171492Y-64777300D01*
X45172153Y-65095492D01*
X45172497Y-65399077D01*
X45172532Y-65686115D01*
X45172268Y-65954669D01*
X45171715Y-66202798D01*
X45170880Y-66428563D01*
X45169773Y-66630026D01*
X45168404Y-66805246D01*
X45166781Y-66952286D01*
X45164913Y-67069206D01*
X45162811Y-67154067D01*
X45160482Y-67204929D01*
X45160041Y-67210304D01*
X45143992Y-67333613D01*
X45118936Y-67432644D01*
X45080779Y-67519070D01*
X45025428Y-67604565D01*
X45018504Y-67613893D01*
X44974296Y-67672857D01*
X44490084Y-67672857D01*
X44489108Y-67565168D01*
X44487999Y-67380976D01*
X44487199Y-67172784D01*
X44486661Y-66939091D01*
X44486338Y-66678398D01*
X44486183Y-66389204D01*
X44486146Y-66070009D01*
X44486183Y-65719313D01*
X44486245Y-65335614D01*
X44486285Y-64917414D01*
X44486286Y-64834393D01*
X44486309Y-64411789D01*
X44486388Y-64023981D01*
X44486533Y-63669480D01*
X44486756Y-63346797D01*
X44487069Y-63054442D01*
X44487483Y-62790927D01*
X44488009Y-62554762D01*
X44488660Y-62344458D01*
X44489447Y-62158526D01*
X44490381Y-61995475D01*
X44491474Y-61853818D01*
X44492737Y-61732064D01*
X44494183Y-61628725D01*
X44495821Y-61542311D01*
X44497666Y-61471333D01*
X44499726Y-61414301D01*
X44502015Y-61369727D01*
X44504544Y-61336121D01*
X44507324Y-61311993D01*
X44510367Y-61295856D01*
X44513684Y-61286218D01*
X44513807Y-61285978D01*
X44520640Y-61271255D01*
X44526330Y-61257926D01*
X44532626Y-61245922D01*
X44541272Y-61235173D01*
X44554014Y-61225611D01*
X44572600Y-61217167D01*
X44598774Y-61209771D01*
X44634284Y-61203354D01*
X44680875Y-61197848D01*
X44740293Y-61193183D01*
X44814285Y-61189291D01*
X44904597Y-61186102D01*
X45012975Y-61183547D01*
X45141165Y-61181558D01*
X45290913Y-61180065D01*
X45463966Y-61178998D01*
X45662069Y-61178291D01*
X45886969Y-61177872D01*
X46140412Y-61177673D01*
X46424144Y-61177626D01*
X46739911Y-61177660D01*
G37*
X46739911Y-61177660D02*
X47089460Y-61177707D01*
X47252170Y-61177714D01*
X49856571Y-61177715D01*
X49856571Y-61331238D01*
X49872957Y-61518063D01*
X49922412Y-61690367D01*
X50005380Y-61849175D01*
X50122305Y-61995510D01*
X50161864Y-62035032D01*
X50304170Y-62147138D01*
X50461078Y-62228899D01*
X50627928Y-62280353D01*
X50800061Y-62301537D01*
X50972815Y-62292487D01*
X51141530Y-62253242D01*
X51301546Y-62183838D01*
X51448202Y-62084311D01*
X51514068Y-62024265D01*
X51636808Y-61877043D01*
X51726812Y-61715147D01*
X51783294Y-61540427D01*
X51805471Y-61354735D01*
X51805766Y-61336467D01*
X51806928Y-61177720D01*
X51876700Y-61177717D01*
X51938595Y-61186118D01*
X51995135Y-61206556D01*
X51998872Y-61208667D01*
X52011642Y-61215293D01*
X52023368Y-61220454D01*
X52034094Y-61225651D01*
X52043861Y-61232390D01*
X52052712Y-61242171D01*
X52060689Y-61256500D01*
X52067835Y-61276878D01*
X52074192Y-61304808D01*
X52079802Y-61341795D01*
X52084707Y-61389340D01*
X52088951Y-61448947D01*
X52092576Y-61522119D01*
X52095623Y-61610359D01*
X52098136Y-61715170D01*
X52100156Y-61838055D01*
X52101726Y-61980517D01*
X52102888Y-62144060D01*
X52103686Y-62330186D01*
X52104160Y-62540398D01*
X52104354Y-62776200D01*
X52104310Y-63039094D01*
X52104070Y-63330584D01*
X52103677Y-63652172D01*
X52103173Y-64005362D01*
X52102600Y-64391657D01*
X52102001Y-64812560D01*
X52101932Y-64863840D01*
X52101395Y-65287426D01*
X52100939Y-65676230D01*
X52100516Y-66031753D01*
X52100079Y-66355498D01*
X52099578Y-66648966D01*
X52098965Y-66913661D01*
X52098192Y-67151085D01*
X52097211Y-67362740D01*
X52095974Y-67550129D01*
X52094432Y-67714754D01*
X52092537Y-67858117D01*
X52090241Y-67981720D01*
X52087496Y-68087067D01*
X52084253Y-68175659D01*
X52080464Y-68249000D01*
X52076081Y-68308590D01*
X52071055Y-68355933D01*
X52065339Y-68392531D01*
X52058884Y-68419886D01*
X52051641Y-68439502D01*
X52043563Y-68452879D01*
X52034602Y-68461521D01*
X52024708Y-68466930D01*
X52013835Y-68470608D01*
X52001933Y-68474058D01*
X51988954Y-68478782D01*
X51985783Y-68480220D01*
X51975819Y-68483451D01*
X51959141Y-68486420D01*
X51934293Y-68489137D01*
X51899820Y-68491613D01*
X51854264Y-68493858D01*
X51796170Y-68495883D01*
X51724081Y-68497698D01*
X51636542Y-68499315D01*
X51532095Y-68500743D01*
X51409285Y-68501993D01*
X51266655Y-68503076D01*
X51102749Y-68504002D01*
X50916110Y-68504782D01*
X50705284Y-68505426D01*
X50468812Y-68505946D01*
X50205239Y-68506351D01*
X49913110Y-68506652D01*
X49590966Y-68506860D01*
X49237353Y-68506985D01*
X48850814Y-68507038D01*
X48429892Y-68507029D01*
X48293544Y-68507016D01*
X47863284Y-68506947D01*
X47467836Y-68506834D01*
X47105727Y-68506665D01*
X46775483Y-68506430D01*
X46475629Y-68506116D01*
X46204692Y-68505713D01*
X45961200Y-68505207D01*
X45743677Y-68504589D01*
X45550650Y-68503846D01*
X45380646Y-68502968D01*
X45232190Y-68501941D01*
X45103810Y-68500756D01*
X44994031Y-68499400D01*
X44901380Y-68497862D01*
X44824383Y-68496130D01*
X44761566Y-68494194D01*
X44711456Y-68492040D01*
X44672579Y-68489659D01*
X44643462Y-68487037D01*
X44622629Y-68484165D01*
X44608609Y-68481030D01*
X44600966Y-68478159D01*
X44587382Y-68472430D01*
X44574910Y-68468206D01*
X44563502Y-68463985D01*
X44553111Y-68458268D01*
X44543691Y-68449555D01*
X44535192Y-68436345D01*
X44527570Y-68417137D01*
X44520775Y-68390433D01*
X44514762Y-68354730D01*
X44509483Y-68308530D01*
X44504890Y-68250332D01*
X44500936Y-68178635D01*
X44497575Y-68091940D01*
X44494759Y-67988746D01*
X44492440Y-67867553D01*
X44490572Y-67726860D01*
X44490084Y-67672857D01*
X44974296Y-67672857D01*
X46685744Y-67672857D01*
X46652813Y-67622964D01*
X46620053Y-67571693D01*
X46592311Y-67522869D01*
X46569193Y-67473076D01*
X46550303Y-67418898D01*
X46535249Y-67356916D01*
X46523633Y-67283715D01*
X46515064Y-67195878D01*
X46509144Y-67089988D01*
X46505481Y-66962628D01*
X46503679Y-66810381D01*
X46503344Y-66629832D01*
X46504081Y-66417562D01*
X46504499Y-66338755D01*
X46509214Y-65493911D01*
X47044428Y-66222557D01*
X47196054Y-66429265D01*
X47327419Y-66609260D01*
X47439943Y-66764925D01*
X47535043Y-66898647D01*
X47614138Y-67012809D01*
X47678647Y-67109797D01*
X47729988Y-67191994D01*
X47769580Y-67261786D01*
X47798840Y-67321558D01*
X47819188Y-67373693D01*
X47832042Y-67420576D01*
X47838819Y-67464593D01*
X47840940Y-67508127D01*
X47839821Y-67553564D01*
X47839536Y-67559275D01*
X47833643Y-67672933D01*
X49709229Y-67672857D01*
X49569722Y-67532189D01*
X49531865Y-67493715D01*
X49495953Y-67456279D01*
X49460407Y-67417814D01*
X49423653Y-67376258D01*
X49384114Y-67329545D01*
X49340214Y-67275610D01*
X49290377Y-67212390D01*
X49233028Y-67137818D01*
X49166589Y-67049832D01*
X49089485Y-66946365D01*
X49000139Y-66825354D01*
X48896976Y-66684734D01*
X48778420Y-66522440D01*
X48642895Y-66336407D01*
X48488823Y-66124571D01*
X48362538Y-65950804D01*
X48204046Y-65732501D01*
X48065784Y-65541629D01*
X47946501Y-65376374D01*
X47844943Y-65234926D01*
X47759859Y-65115471D01*
X47689995Y-65016198D01*
X47634100Y-64935295D01*
X47590920Y-64870949D01*
X47559203Y-64821347D01*
X47537698Y-64784679D01*
X47525150Y-64759132D01*
X47520308Y-64742893D01*
X47521763Y-64734355D01*
X47539401Y-64711635D01*
X47577534Y-64663543D01*
X47633862Y-64592938D01*
X47706084Y-64502678D01*
X47791899Y-64395621D01*
X47889006Y-64274627D01*
X47995104Y-64142554D01*
X48107891Y-64002260D01*
X48225068Y-63856603D01*
X48344333Y-63708444D01*
X48409933Y-63627000D01*
X50038686Y-63627000D01*
X50106379Y-63749465D01*
X50174071Y-63871929D01*
X50174071Y-67427929D01*
X50106379Y-67550393D01*
X50038686Y-67672857D01*
X50839441Y-67672857D01*
X51030602Y-67672802D01*
X51188499Y-67672551D01*
X51316152Y-67671979D01*
X51416581Y-67670959D01*
X51492807Y-67669365D01*
X51547852Y-67667070D01*
X51584736Y-67663950D01*
X51606479Y-67659877D01*
X51616102Y-67654725D01*
X51616627Y-67648367D01*
X51611074Y-67640679D01*
X51611016Y-67640615D01*
X51588140Y-67607524D01*
X51557849Y-67553719D01*
X51531097Y-67500008D01*
X51480357Y-67391643D01*
X51475182Y-65509322D01*
X51470007Y-63627000D01*
X50038686Y-63627000D01*
X48409933Y-63627000D01*
X48463385Y-63560639D01*
X48579923Y-63416047D01*
X48691646Y-63277528D01*
X48796254Y-63147939D01*
X48891444Y-63030140D01*
X48974917Y-62926988D01*
X49044371Y-62841343D01*
X49097506Y-62776062D01*
X49128715Y-62738000D01*
X49249903Y-62595670D01*
X49366493Y-62467230D01*
X49474397Y-62356886D01*
X49569530Y-62268841D01*
X49637043Y-62214862D01*
X49716873Y-62157429D01*
X47880892Y-62157429D01*
X47881408Y-62265165D01*
X47876276Y-62344372D01*
X47856985Y-62417805D01*
X47827123Y-62487415D01*
X47807712Y-62526741D01*
X47786841Y-62565707D01*
X47762604Y-62606901D01*
X47733094Y-62652908D01*
X47696406Y-62706317D01*
X47650632Y-62769714D01*
X47593865Y-62845685D01*
X47524200Y-62936817D01*
X47439730Y-63045698D01*
X47338547Y-63174914D01*
X47218747Y-63327052D01*
X47078421Y-63504698D01*
X47062571Y-63524742D01*
X46509214Y-64224508D01*
X46503857Y-63449504D01*
X46502779Y-63217368D01*
X46503008Y-63020846D01*
X46504557Y-62859292D01*
X46507437Y-62732056D01*
X46511659Y-62638492D01*
X46517234Y-62577952D01*
X46519107Y-62566468D01*
X46548505Y-62445499D01*
X46587022Y-62336446D01*
X46630974Y-62248763D01*
X46657379Y-62211574D01*
X46702940Y-62157429D01*
X45838470Y-62157429D01*
X45632255Y-62157605D01*
X45459812Y-62158179D01*
X45318627Y-62159217D01*
X45206188Y-62160787D01*
X45119983Y-62162954D01*
X45057498Y-62165788D01*
X45016221Y-62169353D01*
X44993640Y-62173718D01*
X44987241Y-62178949D01*
X44987683Y-62180107D01*
X45006009Y-62207769D01*
X45036604Y-62251615D01*
X45052433Y-62273791D01*
X45068798Y-62295920D01*
X45083508Y-62315709D01*
X45096656Y-62335106D01*
X45108333Y-62356058D01*
X45118632Y-62380512D01*
X45127646Y-62410416D01*
X45135468Y-62447717D01*
X45142191Y-62494363D01*
X45147906Y-62552301D01*
X45152707Y-62623479D01*
X45156685Y-62709844D01*
X45159935Y-62813344D01*
X45162548Y-62935925D01*
X45164617Y-63079537D01*
X45166234Y-63246125D01*
X45167493Y-63437637D01*
X45168485Y-63656022D01*
X45169304Y-63903226D01*
X45170042Y-64181196D01*
X45170791Y-64491881D01*
X45171492Y-64777300D01*
X45172153Y-65095492D01*
X45172497Y-65399077D01*
X45172532Y-65686115D01*
X45172268Y-65954669D01*
X45171715Y-66202798D01*
X45170880Y-66428563D01*
X45169773Y-66630026D01*
X45168404Y-66805246D01*
X45166781Y-66952286D01*
X45164913Y-67069206D01*
X45162811Y-67154067D01*
X45160482Y-67204929D01*
X45160041Y-67210304D01*
X45143992Y-67333613D01*
X45118936Y-67432644D01*
X45080779Y-67519070D01*
X45025428Y-67604565D01*
X45018504Y-67613893D01*
X44974296Y-67672857D01*
X44490084Y-67672857D01*
X44489108Y-67565168D01*
X44487999Y-67380976D01*
X44487199Y-67172784D01*
X44486661Y-66939091D01*
X44486338Y-66678398D01*
X44486183Y-66389204D01*
X44486146Y-66070009D01*
X44486183Y-65719313D01*
X44486245Y-65335614D01*
X44486285Y-64917414D01*
X44486286Y-64834393D01*
X44486309Y-64411789D01*
X44486388Y-64023981D01*
X44486533Y-63669480D01*
X44486756Y-63346797D01*
X44487069Y-63054442D01*
X44487483Y-62790927D01*
X44488009Y-62554762D01*
X44488660Y-62344458D01*
X44489447Y-62158526D01*
X44490381Y-61995475D01*
X44491474Y-61853818D01*
X44492737Y-61732064D01*
X44494183Y-61628725D01*
X44495821Y-61542311D01*
X44497666Y-61471333D01*
X44499726Y-61414301D01*
X44502015Y-61369727D01*
X44504544Y-61336121D01*
X44507324Y-61311993D01*
X44510367Y-61295856D01*
X44513684Y-61286218D01*
X44513807Y-61285978D01*
X44520640Y-61271255D01*
X44526330Y-61257926D01*
X44532626Y-61245922D01*
X44541272Y-61235173D01*
X44554014Y-61225611D01*
X44572600Y-61217167D01*
X44598774Y-61209771D01*
X44634284Y-61203354D01*
X44680875Y-61197848D01*
X44740293Y-61193183D01*
X44814285Y-61189291D01*
X44904597Y-61186102D01*
X45012975Y-61183547D01*
X45141165Y-61181558D01*
X45290913Y-61180065D01*
X45463966Y-61178998D01*
X45662069Y-61178291D01*
X45886969Y-61177872D01*
X46140412Y-61177673D01*
X46424144Y-61177626D01*
X46739911Y-61177660D01*
G36*
X54430085Y-71641671D02*
G01*
X54476129Y-71716491D01*
X54547067Y-71835028D01*
X54639991Y-71992237D01*
X54751992Y-72183076D01*
X54880162Y-72402501D01*
X55021592Y-72645469D01*
X55173373Y-72906937D01*
X55332597Y-73181860D01*
X55496356Y-73465197D01*
X55661740Y-73751902D01*
X55825842Y-74036934D01*
X55985752Y-74315248D01*
X56138562Y-74581802D01*
X56281363Y-74831552D01*
X56411247Y-75059455D01*
X56525305Y-75260466D01*
X56620629Y-75429544D01*
X56694310Y-75561645D01*
X56743439Y-75651724D01*
X56765108Y-75694740D01*
X56765902Y-75697429D01*
X56739002Y-75733930D01*
X56664227Y-75789764D01*
X56550470Y-75859450D01*
X56406623Y-75937509D01*
X56256029Y-76011687D01*
X56051119Y-76101635D01*
X55835633Y-76182453D01*
X55602146Y-76255938D01*
X55343236Y-76323884D01*
X55051479Y-76388088D01*
X54719451Y-76450346D01*
X54339731Y-76512454D01*
X53946937Y-76570290D01*
X53605668Y-76621600D01*
X53319090Y-76672397D01*
X53080015Y-76725204D01*
X52881259Y-76782546D01*
X52715635Y-76846947D01*
X52575956Y-76920931D01*
X52455036Y-77007024D01*
X52345689Y-77107750D01*
X52310428Y-77145167D01*
X52234000Y-77232279D01*
X52177463Y-77303364D01*
X52151235Y-77345167D01*
X52150536Y-77348594D01*
X52141360Y-77369612D01*
X52109515Y-77369849D01*
X52048531Y-77346509D01*
X51951935Y-77296793D01*
X51813254Y-77217905D01*
X51716878Y-77161175D01*
X51573166Y-77072494D01*
X51461483Y-76996559D01*
X51389334Y-76938832D01*
X51364226Y-76904776D01*
X51364241Y-76904529D01*
X51379811Y-76872075D01*
X51423783Y-76790800D01*
X51493605Y-76665134D01*
X51586725Y-76499505D01*
X51700589Y-76298344D01*
X51832646Y-76066080D01*
X51980343Y-75807143D01*
X52141128Y-75525961D01*
X52312448Y-75226965D01*
X52491751Y-74914584D01*
X52676485Y-74593248D01*
X52864098Y-74267386D01*
X53052036Y-73941427D01*
X53237747Y-73619801D01*
X53418680Y-73306937D01*
X53592281Y-73007266D01*
X53755999Y-72725216D01*
X53907281Y-72465218D01*
X54043574Y-72231699D01*
X54162326Y-72029091D01*
X54260985Y-71861823D01*
X54336999Y-71734324D01*
X54387814Y-71651023D01*
X54410879Y-71616350D01*
X54411845Y-71615610D01*
X54430085Y-71641671D01*
G37*
X54430085Y-71641671D02*
X54476129Y-71716491D01*
X54547067Y-71835028D01*
X54639991Y-71992237D01*
X54751992Y-72183076D01*
X54880162Y-72402501D01*
X55021592Y-72645469D01*
X55173373Y-72906937D01*
X55332597Y-73181860D01*
X55496356Y-73465197D01*
X55661740Y-73751902D01*
X55825842Y-74036934D01*
X55985752Y-74315248D01*
X56138562Y-74581802D01*
X56281363Y-74831552D01*
X56411247Y-75059455D01*
X56525305Y-75260466D01*
X56620629Y-75429544D01*
X56694310Y-75561645D01*
X56743439Y-75651724D01*
X56765108Y-75694740D01*
X56765902Y-75697429D01*
X56739002Y-75733930D01*
X56664227Y-75789764D01*
X56550470Y-75859450D01*
X56406623Y-75937509D01*
X56256029Y-76011687D01*
X56051119Y-76101635D01*
X55835633Y-76182453D01*
X55602146Y-76255938D01*
X55343236Y-76323884D01*
X55051479Y-76388088D01*
X54719451Y-76450346D01*
X54339731Y-76512454D01*
X53946937Y-76570290D01*
X53605668Y-76621600D01*
X53319090Y-76672397D01*
X53080015Y-76725204D01*
X52881259Y-76782546D01*
X52715635Y-76846947D01*
X52575956Y-76920931D01*
X52455036Y-77007024D01*
X52345689Y-77107750D01*
X52310428Y-77145167D01*
X52234000Y-77232279D01*
X52177463Y-77303364D01*
X52151235Y-77345167D01*
X52150536Y-77348594D01*
X52141360Y-77369612D01*
X52109515Y-77369849D01*
X52048531Y-77346509D01*
X51951935Y-77296793D01*
X51813254Y-77217905D01*
X51716878Y-77161175D01*
X51573166Y-77072494D01*
X51461483Y-76996559D01*
X51389334Y-76938832D01*
X51364226Y-76904776D01*
X51364241Y-76904529D01*
X51379811Y-76872075D01*
X51423783Y-76790800D01*
X51493605Y-76665134D01*
X51586725Y-76499505D01*
X51700589Y-76298344D01*
X51832646Y-76066080D01*
X51980343Y-75807143D01*
X52141128Y-75525961D01*
X52312448Y-75226965D01*
X52491751Y-74914584D01*
X52676485Y-74593248D01*
X52864098Y-74267386D01*
X53052036Y-73941427D01*
X53237747Y-73619801D01*
X53418680Y-73306937D01*
X53592281Y-73007266D01*
X53755999Y-72725216D01*
X53907281Y-72465218D01*
X54043574Y-72231699D01*
X54162326Y-72029091D01*
X54260985Y-71861823D01*
X54336999Y-71734324D01*
X54387814Y-71651023D01*
X54410879Y-71616350D01*
X54411845Y-71615610D01*
X54430085Y-71641671D01*
G36*
X58077056Y-77939238D02*
G01*
X58099816Y-77977386D01*
X58150975Y-78064843D01*
X58228004Y-78197238D01*
X58328372Y-78370204D01*
X58449549Y-78579370D01*
X58589006Y-78820367D01*
X58744213Y-79088824D01*
X58912640Y-79380374D01*
X59091757Y-79690646D01*
X59275995Y-80010000D01*
X59464152Y-80336235D01*
X59644803Y-80649418D01*
X59815330Y-80945012D01*
X59973114Y-81218480D01*
X60115538Y-81465284D01*
X60239981Y-81680889D01*
X60343826Y-81860755D01*
X60424455Y-82000347D01*
X60479248Y-82095128D01*
X60505013Y-82139573D01*
X60547014Y-82214661D01*
X60569850Y-82261663D01*
X60571102Y-82269841D01*
X60543272Y-82254484D01*
X60465881Y-82210407D01*
X60342973Y-82139942D01*
X60178595Y-82045422D01*
X59976792Y-81929178D01*
X59741609Y-81793542D01*
X59477091Y-81640848D01*
X59187284Y-81473428D01*
X58876233Y-81293613D01*
X58547984Y-81103735D01*
X58423097Y-81031464D01*
X58088974Y-80838167D01*
X57770147Y-80653877D01*
X57470709Y-80480950D01*
X57194752Y-80321743D01*
X56946370Y-80178610D01*
X56729653Y-80053910D01*
X56548696Y-79949996D01*
X56407591Y-79869227D01*
X56310430Y-79813957D01*
X56261307Y-79786544D01*
X56256170Y-79783948D01*
X56271138Y-79760441D01*
X56323227Y-79697591D01*
X56407117Y-79601188D01*
X56517492Y-79477020D01*
X56649034Y-79330879D01*
X56796424Y-79168553D01*
X56954345Y-78995832D01*
X57117479Y-78818506D01*
X57280508Y-78642365D01*
X57438114Y-78473198D01*
X57584979Y-78316795D01*
X57715786Y-78178945D01*
X57825216Y-78065439D01*
X57907953Y-77982065D01*
X57936328Y-77954726D01*
X58030359Y-77866403D01*
X58077056Y-77939238D01*
G37*
X58077056Y-77939238D02*
X58099816Y-77977386D01*
X58150975Y-78064843D01*
X58228004Y-78197238D01*
X58328372Y-78370204D01*
X58449549Y-78579370D01*
X58589006Y-78820367D01*
X58744213Y-79088824D01*
X58912640Y-79380374D01*
X59091757Y-79690646D01*
X59275995Y-80010000D01*
X59464152Y-80336235D01*
X59644803Y-80649418D01*
X59815330Y-80945012D01*
X59973114Y-81218480D01*
X60115538Y-81465284D01*
X60239981Y-81680889D01*
X60343826Y-81860755D01*
X60424455Y-82000347D01*
X60479248Y-82095128D01*
X60505013Y-82139573D01*
X60547014Y-82214661D01*
X60569850Y-82261663D01*
X60571102Y-82269841D01*
X60543272Y-82254484D01*
X60465881Y-82210407D01*
X60342973Y-82139942D01*
X60178595Y-82045422D01*
X59976792Y-81929178D01*
X59741609Y-81793542D01*
X59477091Y-81640848D01*
X59187284Y-81473428D01*
X58876233Y-81293613D01*
X58547984Y-81103735D01*
X58423097Y-81031464D01*
X58088974Y-80838167D01*
X57770147Y-80653877D01*
X57470709Y-80480950D01*
X57194752Y-80321743D01*
X56946370Y-80178610D01*
X56729653Y-80053910D01*
X56548696Y-79949996D01*
X56407591Y-79869227D01*
X56310430Y-79813957D01*
X56261307Y-79786544D01*
X56256170Y-79783948D01*
X56271138Y-79760441D01*
X56323227Y-79697591D01*
X56407117Y-79601188D01*
X56517492Y-79477020D01*
X56649034Y-79330879D01*
X56796424Y-79168553D01*
X56954345Y-78995832D01*
X57117479Y-78818506D01*
X57280508Y-78642365D01*
X57438114Y-78473198D01*
X57584979Y-78316795D01*
X57715786Y-78178945D01*
X57825216Y-78065439D01*
X57907953Y-77982065D01*
X57936328Y-77954726D01*
X58030359Y-77866403D01*
X58077056Y-77939238D01*
G36*
X50746187Y-78052317D02*
G01*
X50811237Y-78077473D01*
X50910385Y-78127425D01*
X51052747Y-78205752D01*
X51063832Y-78211977D01*
X51194947Y-78286952D01*
X51305596Y-78352638D01*
X51384910Y-78402410D01*
X51422023Y-78429641D01*
X51423061Y-78430974D01*
X51414096Y-78468780D01*
X51372971Y-78553210D01*
X51302366Y-78679665D01*
X51204960Y-78843544D01*
X51083435Y-79040245D01*
X50940471Y-79265170D01*
X50904890Y-79320331D01*
X50812186Y-79473398D01*
X50744683Y-79605112D01*
X50708305Y-79703565D01*
X50704572Y-79723014D01*
X50706229Y-79808624D01*
X50724788Y-79944418D01*
X50757936Y-80121687D01*
X50803360Y-80331719D01*
X50858746Y-80565804D01*
X50921780Y-80815232D01*
X50990150Y-81071290D01*
X51061542Y-81325269D01*
X51133641Y-81568457D01*
X51204136Y-81792145D01*
X51270712Y-81987621D01*
X51331055Y-82146174D01*
X51373121Y-82240244D01*
X51422673Y-82340451D01*
X51469460Y-82436337D01*
X51471993Y-82441586D01*
X51549397Y-82538440D01*
X51662368Y-82603656D01*
X51793878Y-82634909D01*
X51926901Y-82629875D01*
X52044410Y-82586228D01*
X52110516Y-82528764D01*
X52205718Y-82371166D01*
X52275478Y-82174756D01*
X52313753Y-81959559D01*
X52319176Y-81837561D01*
X52297339Y-81609870D01*
X52233247Y-81421320D01*
X52123451Y-81262759D01*
X52089213Y-81227467D01*
X51987322Y-81128470D01*
X51973328Y-79728978D01*
X52151635Y-79459062D01*
X52235307Y-79336891D01*
X52315889Y-79226987D01*
X52381885Y-79144673D01*
X52410252Y-79114384D01*
X52490562Y-79039621D01*
X52599330Y-79098196D01*
X52668077Y-79140168D01*
X52705692Y-79172756D01*
X52708097Y-79178615D01*
X52733806Y-79203456D01*
X52777792Y-79221954D01*
X52820299Y-79238626D01*
X52885387Y-79270299D01*
X52978644Y-79320066D01*
X53105658Y-79391018D01*
X53272016Y-79486247D01*
X53483305Y-79608844D01*
X53598124Y-79675864D01*
X53733187Y-79756143D01*
X53821770Y-79813319D01*
X53871710Y-79854078D01*
X53890846Y-79885107D01*
X53887016Y-79913092D01*
X53883822Y-79919593D01*
X53852752Y-79960533D01*
X53786271Y-80037330D01*
X53692124Y-80141393D01*
X53578056Y-80264132D01*
X53479400Y-80368180D01*
X53252059Y-80615134D01*
X53074210Y-80829183D01*
X52944267Y-81012480D01*
X52860642Y-81167176D01*
X52832434Y-81245732D01*
X52820783Y-81314498D01*
X52808749Y-81431799D01*
X52797391Y-81584234D01*
X52787767Y-81758404D01*
X52783238Y-81868537D01*
X52776918Y-82058929D01*
X52774137Y-82198124D01*
X52775715Y-82296819D01*
X52782469Y-82365708D01*
X52795216Y-82415487D01*
X52814773Y-82456850D01*
X52830134Y-82482106D01*
X52918842Y-82579453D01*
X53033147Y-82647291D01*
X53153416Y-82676876D01*
X53243545Y-82666172D01*
X53325152Y-82619861D01*
X53427447Y-82536924D01*
X53536083Y-82431825D01*
X53636713Y-82319032D01*
X53714988Y-82213010D01*
X53743809Y-82161778D01*
X53786982Y-82091628D01*
X53865505Y-81984778D01*
X53972203Y-81849578D01*
X54099903Y-81694381D01*
X54241429Y-81527536D01*
X54389607Y-81357396D01*
X54537263Y-81192311D01*
X54677222Y-81040633D01*
X54802310Y-80910713D01*
X54900520Y-80815339D01*
X55009557Y-80720065D01*
X55101284Y-80649817D01*
X55165621Y-80611898D01*
X55186978Y-80607729D01*
X55219706Y-80624548D01*
X55301341Y-80669692D01*
X55427172Y-80740449D01*
X55592488Y-80834109D01*
X55792578Y-80947962D01*
X56022732Y-81079298D01*
X56278238Y-81225406D01*
X56554387Y-81383576D01*
X56846467Y-81551097D01*
X57149768Y-81725259D01*
X57459579Y-81903352D01*
X57771189Y-82082665D01*
X58079888Y-82260487D01*
X58380964Y-82434109D01*
X58669708Y-82600819D01*
X58941408Y-82757908D01*
X59191354Y-82902666D01*
X59414834Y-83032380D01*
X59607139Y-83144342D01*
X59763557Y-83235841D01*
X59879378Y-83304167D01*
X59949891Y-83346608D01*
X59970329Y-83359927D01*
X59942803Y-83362560D01*
X59856208Y-83365118D01*
X59713428Y-83367592D01*
X59517346Y-83369966D01*
X59270844Y-83372231D01*
X58976806Y-83374373D01*
X58638114Y-83376379D01*
X58257652Y-83378238D01*
X57838301Y-83379937D01*
X57382946Y-83381464D01*
X56894469Y-83382807D01*
X56375753Y-83383952D01*
X55829681Y-83384889D01*
X55259136Y-83385604D01*
X54667000Y-83386085D01*
X54056157Y-83386319D01*
X53799848Y-83386342D01*
X47599939Y-83386342D01*
X48042106Y-82619695D01*
X48135711Y-82457360D01*
X48256204Y-82248332D01*
X48399556Y-81999603D01*
X48561738Y-81718164D01*
X48738723Y-81411007D01*
X48926480Y-81085125D01*
X49120982Y-80747509D01*
X49318200Y-80405151D01*
X49514105Y-80065043D01*
X49563649Y-79979025D01*
X49744304Y-79665715D01*
X49916578Y-79367606D01*
X50077884Y-79089136D01*
X50225632Y-78834743D01*
X50357233Y-78608864D01*
X50470099Y-78415937D01*
X50561641Y-78260401D01*
X50629270Y-78146692D01*
X50670396Y-78079250D01*
X50681905Y-78062080D01*
X50706115Y-78048379D01*
X50746187Y-78052317D01*
G37*
X50746187Y-78052317D02*
X50811237Y-78077473D01*
X50910385Y-78127425D01*
X51052747Y-78205752D01*
X51063832Y-78211977D01*
X51194947Y-78286952D01*
X51305596Y-78352638D01*
X51384910Y-78402410D01*
X51422023Y-78429641D01*
X51423061Y-78430974D01*
X51414096Y-78468780D01*
X51372971Y-78553210D01*
X51302366Y-78679665D01*
X51204960Y-78843544D01*
X51083435Y-79040245D01*
X50940471Y-79265170D01*
X50904890Y-79320331D01*
X50812186Y-79473398D01*
X50744683Y-79605112D01*
X50708305Y-79703565D01*
X50704572Y-79723014D01*
X50706229Y-79808624D01*
X50724788Y-79944418D01*
X50757936Y-80121687D01*
X50803360Y-80331719D01*
X50858746Y-80565804D01*
X50921780Y-80815232D01*
X50990150Y-81071290D01*
X51061542Y-81325269D01*
X51133641Y-81568457D01*
X51204136Y-81792145D01*
X51270712Y-81987621D01*
X51331055Y-82146174D01*
X51373121Y-82240244D01*
X51422673Y-82340451D01*
X51469460Y-82436337D01*
X51471993Y-82441586D01*
X51549397Y-82538440D01*
X51662368Y-82603656D01*
X51793878Y-82634909D01*
X51926901Y-82629875D01*
X52044410Y-82586228D01*
X52110516Y-82528764D01*
X52205718Y-82371166D01*
X52275478Y-82174756D01*
X52313753Y-81959559D01*
X52319176Y-81837561D01*
X52297339Y-81609870D01*
X52233247Y-81421320D01*
X52123451Y-81262759D01*
X52089213Y-81227467D01*
X51987322Y-81128470D01*
X51973328Y-79728978D01*
X52151635Y-79459062D01*
X52235307Y-79336891D01*
X52315889Y-79226987D01*
X52381885Y-79144673D01*
X52410252Y-79114384D01*
X52490562Y-79039621D01*
X52599330Y-79098196D01*
X52668077Y-79140168D01*
X52705692Y-79172756D01*
X52708097Y-79178615D01*
X52733806Y-79203456D01*
X52777792Y-79221954D01*
X52820299Y-79238626D01*
X52885387Y-79270299D01*
X52978644Y-79320066D01*
X53105658Y-79391018D01*
X53272016Y-79486247D01*
X53483305Y-79608844D01*
X53598124Y-79675864D01*
X53733187Y-79756143D01*
X53821770Y-79813319D01*
X53871710Y-79854078D01*
X53890846Y-79885107D01*
X53887016Y-79913092D01*
X53883822Y-79919593D01*
X53852752Y-79960533D01*
X53786271Y-80037330D01*
X53692124Y-80141393D01*
X53578056Y-80264132D01*
X53479400Y-80368180D01*
X53252059Y-80615134D01*
X53074210Y-80829183D01*
X52944267Y-81012480D01*
X52860642Y-81167176D01*
X52832434Y-81245732D01*
X52820783Y-81314498D01*
X52808749Y-81431799D01*
X52797391Y-81584234D01*
X52787767Y-81758404D01*
X52783238Y-81868537D01*
X52776918Y-82058929D01*
X52774137Y-82198124D01*
X52775715Y-82296819D01*
X52782469Y-82365708D01*
X52795216Y-82415487D01*
X52814773Y-82456850D01*
X52830134Y-82482106D01*
X52918842Y-82579453D01*
X53033147Y-82647291D01*
X53153416Y-82676876D01*
X53243545Y-82666172D01*
X53325152Y-82619861D01*
X53427447Y-82536924D01*
X53536083Y-82431825D01*
X53636713Y-82319032D01*
X53714988Y-82213010D01*
X53743809Y-82161778D01*
X53786982Y-82091628D01*
X53865505Y-81984778D01*
X53972203Y-81849578D01*
X54099903Y-81694381D01*
X54241429Y-81527536D01*
X54389607Y-81357396D01*
X54537263Y-81192311D01*
X54677222Y-81040633D01*
X54802310Y-80910713D01*
X54900520Y-80815339D01*
X55009557Y-80720065D01*
X55101284Y-80649817D01*
X55165621Y-80611898D01*
X55186978Y-80607729D01*
X55219706Y-80624548D01*
X55301341Y-80669692D01*
X55427172Y-80740449D01*
X55592488Y-80834109D01*
X55792578Y-80947962D01*
X56022732Y-81079298D01*
X56278238Y-81225406D01*
X56554387Y-81383576D01*
X56846467Y-81551097D01*
X57149768Y-81725259D01*
X57459579Y-81903352D01*
X57771189Y-82082665D01*
X58079888Y-82260487D01*
X58380964Y-82434109D01*
X58669708Y-82600819D01*
X58941408Y-82757908D01*
X59191354Y-82902666D01*
X59414834Y-83032380D01*
X59607139Y-83144342D01*
X59763557Y-83235841D01*
X59879378Y-83304167D01*
X59949891Y-83346608D01*
X59970329Y-83359927D01*
X59942803Y-83362560D01*
X59856208Y-83365118D01*
X59713428Y-83367592D01*
X59517346Y-83369966D01*
X59270844Y-83372231D01*
X58976806Y-83374373D01*
X58638114Y-83376379D01*
X58257652Y-83378238D01*
X57838301Y-83379937D01*
X57382946Y-83381464D01*
X56894469Y-83382807D01*
X56375753Y-83383952D01*
X55829681Y-83384889D01*
X55259136Y-83385604D01*
X54667000Y-83386085D01*
X54056157Y-83386319D01*
X53799848Y-83386342D01*
X47599939Y-83386342D01*
X48042106Y-82619695D01*
X48135711Y-82457360D01*
X48256204Y-82248332D01*
X48399556Y-81999603D01*
X48561738Y-81718164D01*
X48738723Y-81411007D01*
X48926480Y-81085125D01*
X49120982Y-80747509D01*
X49318200Y-80405151D01*
X49514105Y-80065043D01*
X49563649Y-79979025D01*
X49744304Y-79665715D01*
X49916578Y-79367606D01*
X50077884Y-79089136D01*
X50225632Y-78834743D01*
X50357233Y-78608864D01*
X50470099Y-78415937D01*
X50561641Y-78260401D01*
X50629270Y-78146692D01*
X50670396Y-78079250D01*
X50681905Y-78062080D01*
X50706115Y-78048379D01*
X50746187Y-78052317D01*
D13*
X80706752Y-34913500D02*
X80184248Y-34913500D01*
X80706752Y-36333500D02*
X80184248Y-36333500D01*
X80706752Y-47613500D02*
X80184248Y-47613500D01*
X80706752Y-49033500D02*
X80184248Y-49033500D01*
X95184752Y-28246000D02*
X94662248Y-28246000D01*
X95184752Y-29666000D02*
X94662248Y-29666000D01*
X95184752Y-40882500D02*
X94662248Y-40882500D01*
X95184752Y-42302500D02*
X94662248Y-42302500D01*
X80706752Y-60123000D02*
X80184248Y-60123000D01*
X80706752Y-61543000D02*
X80184248Y-61543000D01*
X95184752Y-53328500D02*
X94662248Y-53328500D01*
X95184752Y-54748500D02*
X94662248Y-54748500D01*
X90993752Y-67679500D02*
X90471248Y-67679500D01*
X90993752Y-69099500D02*
X90471248Y-69099500D01*
X101661752Y-67679500D02*
X101139248Y-67679500D01*
X101661752Y-69099500D02*
X101139248Y-69099500D01*
X78994000Y-74813000D02*
X75544000Y-74813000D01*
X78994000Y-74813000D02*
X80944000Y-74813000D01*
X78994000Y-83683000D02*
X77044000Y-83683000D01*
X78994000Y-83683000D02*
X80944000Y-83683000D01*
D14*
X133843000Y-54354000D02*
G75*
G03X133843000Y-54354000I-100000J0D01*
G01*
D15*
X134343000Y-72654000D02*
X121943000Y-72654000D01*
X134343000Y-54854000D02*
X134343000Y-72654000D01*
X121943000Y-72654000D02*
X121943000Y-54854000D01*
X121943000Y-54854000D02*
X134343000Y-54854000D01*
D13*
X93472000Y-30236000D02*
X90022000Y-30236000D01*
X93472000Y-30236000D02*
X95422000Y-30236000D01*
X93472000Y-39106000D02*
X91522000Y-39106000D01*
X93472000Y-39106000D02*
X95422000Y-39106000D01*
X93472000Y-55255000D02*
X90022000Y-55255000D01*
X93472000Y-55255000D02*
X95422000Y-55255000D01*
X93472000Y-64125000D02*
X91522000Y-64125000D01*
X93472000Y-64125000D02*
X95422000Y-64125000D01*
X93472000Y-42809000D02*
X90022000Y-42809000D01*
X93472000Y-42809000D02*
X95422000Y-42809000D01*
X93472000Y-51679000D02*
X91522000Y-51679000D01*
X93472000Y-51679000D02*
X95422000Y-51679000D01*
X78994000Y-36840000D02*
X75544000Y-36840000D01*
X78994000Y-36840000D02*
X80944000Y-36840000D01*
X78994000Y-45710000D02*
X77044000Y-45710000D01*
X78994000Y-45710000D02*
X80944000Y-45710000D01*
X78994000Y-49540000D02*
X75544000Y-49540000D01*
X78994000Y-49540000D02*
X80944000Y-49540000D01*
X78994000Y-58410000D02*
X77044000Y-58410000D01*
X78994000Y-58410000D02*
X80944000Y-58410000D01*
X99949000Y-69606000D02*
X96499000Y-69606000D01*
X99949000Y-69606000D02*
X101899000Y-69606000D01*
X99949000Y-78476000D02*
X97999000Y-78476000D01*
X99949000Y-78476000D02*
X101899000Y-78476000D01*
X89281000Y-69606000D02*
X85831000Y-69606000D01*
X89281000Y-69606000D02*
X91231000Y-69606000D01*
X89281000Y-78476000D02*
X87331000Y-78476000D01*
X89281000Y-78476000D02*
X91231000Y-78476000D01*
X78994000Y-62113000D02*
X75544000Y-62113000D01*
X78994000Y-62113000D02*
X80944000Y-62113000D01*
X78994000Y-70983000D02*
X77044000Y-70983000D01*
X78994000Y-70983000D02*
X80944000Y-70983000D01*
X99949000Y-85608000D02*
X96499000Y-85608000D01*
X99949000Y-85608000D02*
X101899000Y-85608000D01*
X99949000Y-94478000D02*
X97999000Y-94478000D01*
X99949000Y-94478000D02*
X101899000Y-94478000D01*
X89281000Y-85608000D02*
X85831000Y-85608000D01*
X89281000Y-85608000D02*
X91231000Y-85608000D01*
X89281000Y-94478000D02*
X87331000Y-94478000D01*
X89281000Y-94478000D02*
X91231000Y-94478000D01*
X79119500Y-85608000D02*
X75669500Y-85608000D01*
X79119500Y-85608000D02*
X81069500Y-85608000D01*
X79119500Y-94478000D02*
X77169500Y-94478000D01*
X79119500Y-94478000D02*
X81069500Y-94478000D01*
X89281000Y-98308000D02*
X85831000Y-98308000D01*
X89281000Y-98308000D02*
X91231000Y-98308000D01*
X89281000Y-107178000D02*
X87331000Y-107178000D01*
X89281000Y-107178000D02*
X91231000Y-107178000D01*
X79121000Y-98308000D02*
X75671000Y-98308000D01*
X79121000Y-98308000D02*
X81071000Y-98308000D01*
X79121000Y-107178000D02*
X77171000Y-107178000D01*
X79121000Y-107178000D02*
X81071000Y-107178000D01*
X99887000Y-98308000D02*
X96437000Y-98308000D01*
X99887000Y-98308000D02*
X101837000Y-98308000D01*
X99887000Y-107178000D02*
X97937000Y-107178000D01*
X99887000Y-107178000D02*
X101837000Y-107178000D01*
X54102000Y-115453000D02*
X50652000Y-115453000D01*
X54102000Y-115453000D02*
X56052000Y-115453000D01*
X54102000Y-124323000D02*
X52152000Y-124323000D01*
X54102000Y-124323000D02*
X56052000Y-124323000D01*
X89216000Y-111008000D02*
X85766000Y-111008000D01*
X89216000Y-111008000D02*
X91166000Y-111008000D01*
X89216000Y-119878000D02*
X87266000Y-119878000D01*
X89216000Y-119878000D02*
X91166000Y-119878000D01*
X79121000Y-111008000D02*
X75671000Y-111008000D01*
X79121000Y-111008000D02*
X81071000Y-111008000D01*
X79121000Y-119878000D02*
X77171000Y-119878000D01*
X79121000Y-119878000D02*
X81071000Y-119878000D01*
X51817748Y-103834000D02*
X52340252Y-103834000D01*
X51817748Y-102414000D02*
X52340252Y-102414000D01*
X51817748Y-104954000D02*
X52340252Y-104954000D01*
X51817748Y-106374000D02*
X52340252Y-106374000D01*
X51817748Y-107494000D02*
X52340252Y-107494000D01*
X51817748Y-108914000D02*
X52340252Y-108914000D01*
X51817748Y-110034000D02*
X52340252Y-110034000D01*
X51817748Y-111454000D02*
X52340252Y-111454000D01*
X84583748Y-41985000D02*
X85106252Y-41985000D01*
X84583748Y-40565000D02*
X85106252Y-40565000D01*
X84583748Y-44017000D02*
X85106252Y-44017000D01*
X84583748Y-42597000D02*
X85106252Y-42597000D01*
X84126000Y-47372748D02*
X84126000Y-47895252D01*
X85546000Y-47372748D02*
X85546000Y-47895252D01*
X84710748Y-64718000D02*
X85233252Y-64718000D01*
X84710748Y-63298000D02*
X85233252Y-63298000D01*
X45033000Y-88417752D02*
X45033000Y-87895248D01*
X43613000Y-88417752D02*
X43613000Y-87895248D01*
X42493000Y-88399252D02*
X42493000Y-87876748D01*
X41073000Y-88399252D02*
X41073000Y-87876748D01*
X123773000Y-52830252D02*
X123773000Y-52307748D01*
X122353000Y-52830252D02*
X122353000Y-52307748D01*
X132513000Y-74677748D02*
X132513000Y-75200252D01*
X133933000Y-74677748D02*
X133933000Y-75200252D01*
X129973000Y-74677748D02*
X129973000Y-75200252D01*
X131393000Y-74677748D02*
X131393000Y-75200252D01*
X133933000Y-51179252D02*
X133933000Y-50656748D01*
X132513000Y-51179252D02*
X132513000Y-50656748D01*
X131393000Y-52830252D02*
X131393000Y-52307748D01*
X129973000Y-52830252D02*
X129973000Y-52307748D01*
X126313000Y-52830252D02*
X126313000Y-52307748D01*
X124893000Y-52830252D02*
X124893000Y-52307748D01*
X122353000Y-74677748D02*
X122353000Y-75200252D01*
X123773000Y-74677748D02*
X123773000Y-75200252D01*
X124893000Y-74677748D02*
X124893000Y-75200252D01*
X126313000Y-74677748D02*
X126313000Y-75200252D01*
X58317000Y-36064000D02*
X58317000Y-27964000D01*
X61317000Y-27964000D02*
X61317000Y-36064000D01*
X58317000Y-36064000D02*
X61317000Y-36064000D01*
X61317000Y-27964000D02*
X58317000Y-27964000D01*
X62127000Y-36064000D02*
X62127000Y-27964000D01*
X65127000Y-27964000D02*
X65127000Y-36064000D01*
X62127000Y-36064000D02*
X65127000Y-36064000D01*
X65127000Y-27964000D02*
X62127000Y-27964000D01*
X65750000Y-95063000D02*
X64500000Y-95063000D01*
X65750000Y-120583000D02*
X65750000Y-95063000D01*
X61250000Y-120583000D02*
X65750000Y-120583000D01*
X61250000Y-95063000D02*
X61250000Y-120583000D01*
X62500000Y-95063000D02*
X61250000Y-95063000D01*
X64500000Y-95063000D02*
G75*
G02X62500000Y-95063000I-1000000J0D01*
G01*
X47209000Y-53140000D02*
X47209000Y-56080000D01*
X47449000Y-53140000D02*
X47449000Y-56080000D01*
X47329000Y-53140000D02*
X47329000Y-56080000D01*
X53089000Y-54610000D02*
X51869000Y-54610000D01*
X45209000Y-54610000D02*
X46429000Y-54610000D01*
X51869000Y-53140000D02*
X46429000Y-53140000D01*
X51869000Y-56080000D02*
X51869000Y-53140000D01*
X46429000Y-56080000D02*
X51869000Y-56080000D01*
X46429000Y-53140000D02*
X46429000Y-56080000D01*
X40799000Y-45647000D02*
X42309000Y-45647000D01*
X40799000Y-49348000D02*
X42309000Y-49348000D01*
X42309000Y-52618000D02*
X42309000Y-42378000D01*
X40799000Y-42378000D02*
X45440000Y-42378000D01*
X40799000Y-52618000D02*
X45440000Y-52618000D01*
X45440000Y-52618000D02*
X45440000Y-42378000D01*
X40799000Y-52618000D02*
X40799000Y-42378000D01*
X45212000Y-95853333D02*
X46482000Y-95853333D01*
X46412000Y-97060000D02*
X46412000Y-95853333D01*
X46292000Y-97060000D02*
X46292000Y-95853333D01*
X46172000Y-97060000D02*
X46172000Y-95853333D01*
X46052000Y-97060000D02*
X46052000Y-95853333D01*
X45932000Y-97060000D02*
X45932000Y-95853333D01*
X45812000Y-97060000D02*
X45812000Y-95853333D01*
X45692000Y-97060000D02*
X45692000Y-95853333D01*
X45572000Y-97060000D02*
X45572000Y-95853333D01*
X45452000Y-97060000D02*
X45452000Y-95853333D01*
X45332000Y-97060000D02*
X45332000Y-95853333D01*
X45212000Y-93440000D02*
X45212000Y-97060000D01*
X46482000Y-93440000D02*
X45212000Y-93440000D01*
X46482000Y-97060000D02*
X46482000Y-93440000D01*
X45212000Y-97060000D02*
X46482000Y-97060000D01*
X42672000Y-95853333D02*
X43942000Y-95853333D01*
X43872000Y-97060000D02*
X43872000Y-95853333D01*
X43752000Y-97060000D02*
X43752000Y-95853333D01*
X43632000Y-97060000D02*
X43632000Y-95853333D01*
X43512000Y-97060000D02*
X43512000Y-95853333D01*
X43392000Y-97060000D02*
X43392000Y-95853333D01*
X43272000Y-97060000D02*
X43272000Y-95853333D01*
X43152000Y-97060000D02*
X43152000Y-95853333D01*
X43032000Y-97060000D02*
X43032000Y-95853333D01*
X42912000Y-97060000D02*
X42912000Y-95853333D01*
X42792000Y-97060000D02*
X42792000Y-95853333D01*
X42672000Y-93440000D02*
X42672000Y-97060000D01*
X43942000Y-93440000D02*
X42672000Y-93440000D01*
X43942000Y-97060000D02*
X43942000Y-93440000D01*
X42672000Y-97060000D02*
X43942000Y-97060000D01*
X40957000Y-98900000D02*
X42267000Y-98900000D01*
X40957000Y-98900000D02*
X40957000Y-97517000D01*
X44297000Y-91839000D02*
X44858000Y-91839000D01*
X41197000Y-91839000D02*
X42317000Y-91839000D01*
X46837000Y-91839000D02*
X47957000Y-91839000D01*
X46837000Y-98660000D02*
X47957000Y-98660000D01*
X44347000Y-98660000D02*
X44858000Y-98660000D01*
X41197000Y-98660000D02*
X42267000Y-98660000D01*
X47957000Y-98660000D02*
X47957000Y-91839000D01*
X41197000Y-98660000D02*
X41197000Y-91839000D01*
X44608667Y-111379000D02*
X44608667Y-112649000D01*
X43402000Y-112579000D02*
X44608667Y-112579000D01*
X43402000Y-112459000D02*
X44608667Y-112459000D01*
X43402000Y-112339000D02*
X44608667Y-112339000D01*
X43402000Y-112219000D02*
X44608667Y-112219000D01*
X43402000Y-112099000D02*
X44608667Y-112099000D01*
X43402000Y-111979000D02*
X44608667Y-111979000D01*
X43402000Y-111859000D02*
X44608667Y-111859000D01*
X43402000Y-111739000D02*
X44608667Y-111739000D01*
X43402000Y-111619000D02*
X44608667Y-111619000D01*
X43402000Y-111499000D02*
X44608667Y-111499000D01*
X47022000Y-111379000D02*
X43402000Y-111379000D01*
X47022000Y-112649000D02*
X47022000Y-111379000D01*
X43402000Y-112649000D02*
X47022000Y-112649000D01*
X43402000Y-111379000D02*
X43402000Y-112649000D01*
X44608667Y-108839000D02*
X44608667Y-110109000D01*
X43402000Y-110039000D02*
X44608667Y-110039000D01*
X43402000Y-109919000D02*
X44608667Y-109919000D01*
X43402000Y-109799000D02*
X44608667Y-109799000D01*
X43402000Y-109679000D02*
X44608667Y-109679000D01*
X43402000Y-109559000D02*
X44608667Y-109559000D01*
X43402000Y-109439000D02*
X44608667Y-109439000D01*
X43402000Y-109319000D02*
X44608667Y-109319000D01*
X43402000Y-109199000D02*
X44608667Y-109199000D01*
X43402000Y-109079000D02*
X44608667Y-109079000D01*
X43402000Y-108959000D02*
X44608667Y-108959000D01*
X47022000Y-108839000D02*
X43402000Y-108839000D01*
X47022000Y-110109000D02*
X47022000Y-108839000D01*
X43402000Y-110109000D02*
X47022000Y-110109000D01*
X43402000Y-108839000D02*
X43402000Y-110109000D01*
X44608667Y-106299000D02*
X44608667Y-107569000D01*
X43402000Y-107499000D02*
X44608667Y-107499000D01*
X43402000Y-107379000D02*
X44608667Y-107379000D01*
X43402000Y-107259000D02*
X44608667Y-107259000D01*
X43402000Y-107139000D02*
X44608667Y-107139000D01*
X43402000Y-107019000D02*
X44608667Y-107019000D01*
X43402000Y-106899000D02*
X44608667Y-106899000D01*
X43402000Y-106779000D02*
X44608667Y-106779000D01*
X43402000Y-106659000D02*
X44608667Y-106659000D01*
X43402000Y-106539000D02*
X44608667Y-106539000D01*
X43402000Y-106419000D02*
X44608667Y-106419000D01*
X47022000Y-106299000D02*
X43402000Y-106299000D01*
X47022000Y-107569000D02*
X47022000Y-106299000D01*
X43402000Y-107569000D02*
X47022000Y-107569000D01*
X43402000Y-106299000D02*
X43402000Y-107569000D01*
X44608667Y-103759000D02*
X44608667Y-105029000D01*
X43402000Y-104959000D02*
X44608667Y-104959000D01*
X43402000Y-104839000D02*
X44608667Y-104839000D01*
X43402000Y-104719000D02*
X44608667Y-104719000D01*
X43402000Y-104599000D02*
X44608667Y-104599000D01*
X43402000Y-104479000D02*
X44608667Y-104479000D01*
X43402000Y-104359000D02*
X44608667Y-104359000D01*
X43402000Y-104239000D02*
X44608667Y-104239000D01*
X43402000Y-104119000D02*
X44608667Y-104119000D01*
X43402000Y-103999000D02*
X44608667Y-103999000D01*
X43402000Y-103879000D02*
X44608667Y-103879000D01*
X47022000Y-103759000D02*
X43402000Y-103759000D01*
X47022000Y-105029000D02*
X47022000Y-103759000D01*
X43402000Y-105029000D02*
X47022000Y-105029000D01*
X43402000Y-103759000D02*
X43402000Y-105029000D01*
X41562000Y-102044000D02*
X41562000Y-103354000D01*
X41562000Y-102044000D02*
X42945000Y-102044000D01*
X48623000Y-105384000D02*
X48623000Y-105945000D01*
X48623000Y-102284000D02*
X48623000Y-103404000D01*
X48623000Y-107924000D02*
X48623000Y-108485000D01*
X48623000Y-110464000D02*
X48623000Y-111025000D01*
X48623000Y-113004000D02*
X48623000Y-114124000D01*
X41802000Y-113004000D02*
X41802000Y-114124000D01*
X41802000Y-110464000D02*
X41802000Y-111025000D01*
X41802000Y-107924000D02*
X41802000Y-108485000D01*
X41802000Y-105434000D02*
X41802000Y-105945000D01*
X41802000Y-102284000D02*
X41802000Y-103354000D01*
X41802000Y-114124000D02*
X48623000Y-114124000D01*
X41802000Y-102284000D02*
X48623000Y-102284000D01*
X54259000Y-30496000D02*
X54259000Y-32496000D01*
X40849000Y-26386000D02*
X43909000Y-26386000D01*
X40849000Y-36606000D02*
X40849000Y-26386000D01*
X43909000Y-36606000D02*
X40849000Y-36606000D01*
X54069000Y-36606000D02*
X48009000Y-36606000D01*
X54069000Y-33796000D02*
X54069000Y-36606000D01*
X54069000Y-26386000D02*
X54069000Y-29196000D01*
X48009000Y-26386000D02*
X54069000Y-26386000D01*
X47372748Y-45668000D02*
X47895252Y-45668000D01*
X47372748Y-44248000D02*
X47895252Y-44248000D01*
X47372748Y-50748000D02*
X47895252Y-50748000D01*
X47372748Y-49328000D02*
X47895252Y-49328000D01*
X90993752Y-96445000D02*
X90471248Y-96445000D01*
X90993752Y-97865000D02*
X90471248Y-97865000D01*
X80706752Y-72886500D02*
X80184248Y-72886500D01*
X80706752Y-74306500D02*
X80184248Y-74306500D01*
X90930252Y-109018000D02*
X90407748Y-109018000D01*
X90930252Y-110438000D02*
X90407748Y-110438000D01*
X54354252Y-113590000D02*
X53831748Y-113590000D01*
X54354252Y-115010000D02*
X53831748Y-115010000D01*
X80833752Y-109018000D02*
X80311248Y-109018000D01*
X80833752Y-110438000D02*
X80311248Y-110438000D01*
X90993752Y-83618000D02*
X90471248Y-83618000D01*
X90993752Y-85038000D02*
X90471248Y-85038000D01*
X80833752Y-96381500D02*
X80311248Y-96381500D01*
X80833752Y-97801500D02*
X80311248Y-97801500D01*
X101661752Y-83681500D02*
X101139248Y-83681500D01*
X101661752Y-85101500D02*
X101139248Y-85101500D01*
X66546252Y-93016000D02*
X66023748Y-93016000D01*
X66546252Y-94436000D02*
X66023748Y-94436000D01*
X84530000Y-85469252D02*
X84530000Y-84946748D01*
X83110000Y-85469252D02*
X83110000Y-84946748D01*
X101598252Y-96318000D02*
X101075748Y-96318000D01*
X101598252Y-97738000D02*
X101075748Y-97738000D01*
D11*
X79802642Y-34393142D02*
X79755023Y-34440761D01*
X79612166Y-34488380D01*
X79516928Y-34488380D01*
X79374071Y-34440761D01*
X79278833Y-34345523D01*
X79231214Y-34250285D01*
X79183595Y-34059809D01*
X79183595Y-33916952D01*
X79231214Y-33726476D01*
X79278833Y-33631238D01*
X79374071Y-33536000D01*
X79516928Y-33488380D01*
X79612166Y-33488380D01*
X79755023Y-33536000D01*
X79802642Y-33583619D01*
X80183595Y-33583619D02*
X80231214Y-33536000D01*
X80326452Y-33488380D01*
X80564547Y-33488380D01*
X80659785Y-33536000D01*
X80707404Y-33583619D01*
X80755023Y-33678857D01*
X80755023Y-33774095D01*
X80707404Y-33916952D01*
X80135976Y-34488380D01*
X80755023Y-34488380D01*
X81707404Y-34488380D02*
X81135976Y-34488380D01*
X81421690Y-34488380D02*
X81421690Y-33488380D01*
X81326452Y-33631238D01*
X81231214Y-33726476D01*
X81135976Y-33774095D01*
X79802642Y-47029642D02*
X79755023Y-47077261D01*
X79612166Y-47124880D01*
X79516928Y-47124880D01*
X79374071Y-47077261D01*
X79278833Y-46982023D01*
X79231214Y-46886785D01*
X79183595Y-46696309D01*
X79183595Y-46553452D01*
X79231214Y-46362976D01*
X79278833Y-46267738D01*
X79374071Y-46172500D01*
X79516928Y-46124880D01*
X79612166Y-46124880D01*
X79755023Y-46172500D01*
X79802642Y-46220119D01*
X80183595Y-46220119D02*
X80231214Y-46172500D01*
X80326452Y-46124880D01*
X80564547Y-46124880D01*
X80659785Y-46172500D01*
X80707404Y-46220119D01*
X80755023Y-46315357D01*
X80755023Y-46410595D01*
X80707404Y-46553452D01*
X80135976Y-47124880D01*
X80755023Y-47124880D01*
X81374071Y-46124880D02*
X81469309Y-46124880D01*
X81564547Y-46172500D01*
X81612166Y-46220119D01*
X81659785Y-46315357D01*
X81707404Y-46505833D01*
X81707404Y-46743928D01*
X81659785Y-46934404D01*
X81612166Y-47029642D01*
X81564547Y-47077261D01*
X81469309Y-47124880D01*
X81374071Y-47124880D01*
X81278833Y-47077261D01*
X81231214Y-47029642D01*
X81183595Y-46934404D01*
X81135976Y-46743928D01*
X81135976Y-46505833D01*
X81183595Y-46315357D01*
X81231214Y-46220119D01*
X81278833Y-46172500D01*
X81374071Y-46124880D01*
X94280642Y-27662142D02*
X94233023Y-27709761D01*
X94090166Y-27757380D01*
X93994928Y-27757380D01*
X93852071Y-27709761D01*
X93756833Y-27614523D01*
X93709214Y-27519285D01*
X93661595Y-27328809D01*
X93661595Y-27185952D01*
X93709214Y-26995476D01*
X93756833Y-26900238D01*
X93852071Y-26805000D01*
X93994928Y-26757380D01*
X94090166Y-26757380D01*
X94233023Y-26805000D01*
X94280642Y-26852619D01*
X95233023Y-27757380D02*
X94661595Y-27757380D01*
X94947309Y-27757380D02*
X94947309Y-26757380D01*
X94852071Y-26900238D01*
X94756833Y-26995476D01*
X94661595Y-27043095D01*
X95709214Y-27757380D02*
X95899690Y-27757380D01*
X95994928Y-27709761D01*
X96042547Y-27662142D01*
X96137785Y-27519285D01*
X96185404Y-27328809D01*
X96185404Y-26947857D01*
X96137785Y-26852619D01*
X96090166Y-26805000D01*
X95994928Y-26757380D01*
X95804452Y-26757380D01*
X95709214Y-26805000D01*
X95661595Y-26852619D01*
X95613976Y-26947857D01*
X95613976Y-27185952D01*
X95661595Y-27281190D01*
X95709214Y-27328809D01*
X95804452Y-27376428D01*
X95994928Y-27376428D01*
X96090166Y-27328809D01*
X96137785Y-27281190D01*
X96185404Y-27185952D01*
X94280642Y-40362142D02*
X94233023Y-40409761D01*
X94090166Y-40457380D01*
X93994928Y-40457380D01*
X93852071Y-40409761D01*
X93756833Y-40314523D01*
X93709214Y-40219285D01*
X93661595Y-40028809D01*
X93661595Y-39885952D01*
X93709214Y-39695476D01*
X93756833Y-39600238D01*
X93852071Y-39505000D01*
X93994928Y-39457380D01*
X94090166Y-39457380D01*
X94233023Y-39505000D01*
X94280642Y-39552619D01*
X95233023Y-40457380D02*
X94661595Y-40457380D01*
X94947309Y-40457380D02*
X94947309Y-39457380D01*
X94852071Y-39600238D01*
X94756833Y-39695476D01*
X94661595Y-39743095D01*
X95804452Y-39885952D02*
X95709214Y-39838333D01*
X95661595Y-39790714D01*
X95613976Y-39695476D01*
X95613976Y-39647857D01*
X95661595Y-39552619D01*
X95709214Y-39505000D01*
X95804452Y-39457380D01*
X95994928Y-39457380D01*
X96090166Y-39505000D01*
X96137785Y-39552619D01*
X96185404Y-39647857D01*
X96185404Y-39695476D01*
X96137785Y-39790714D01*
X96090166Y-39838333D01*
X95994928Y-39885952D01*
X95804452Y-39885952D01*
X95709214Y-39933571D01*
X95661595Y-39981190D01*
X95613976Y-40076428D01*
X95613976Y-40266904D01*
X95661595Y-40362142D01*
X95709214Y-40409761D01*
X95804452Y-40457380D01*
X95994928Y-40457380D01*
X96090166Y-40409761D01*
X96137785Y-40362142D01*
X96185404Y-40266904D01*
X96185404Y-40076428D01*
X96137785Y-39981190D01*
X96090166Y-39933571D01*
X95994928Y-39885952D01*
X79802642Y-59666142D02*
X79755023Y-59713761D01*
X79612166Y-59761380D01*
X79516928Y-59761380D01*
X79374071Y-59713761D01*
X79278833Y-59618523D01*
X79231214Y-59523285D01*
X79183595Y-59332809D01*
X79183595Y-59189952D01*
X79231214Y-58999476D01*
X79278833Y-58904238D01*
X79374071Y-58809000D01*
X79516928Y-58761380D01*
X79612166Y-58761380D01*
X79755023Y-58809000D01*
X79802642Y-58856619D01*
X80755023Y-59761380D02*
X80183595Y-59761380D01*
X80469309Y-59761380D02*
X80469309Y-58761380D01*
X80374071Y-58904238D01*
X80278833Y-58999476D01*
X80183595Y-59047095D01*
X81088357Y-58761380D02*
X81755023Y-58761380D01*
X81326452Y-59761380D01*
X94280642Y-52935142D02*
X94233023Y-52982761D01*
X94090166Y-53030380D01*
X93994928Y-53030380D01*
X93852071Y-52982761D01*
X93756833Y-52887523D01*
X93709214Y-52792285D01*
X93661595Y-52601809D01*
X93661595Y-52458952D01*
X93709214Y-52268476D01*
X93756833Y-52173238D01*
X93852071Y-52078000D01*
X93994928Y-52030380D01*
X94090166Y-52030380D01*
X94233023Y-52078000D01*
X94280642Y-52125619D01*
X95233023Y-53030380D02*
X94661595Y-53030380D01*
X94947309Y-53030380D02*
X94947309Y-52030380D01*
X94852071Y-52173238D01*
X94756833Y-52268476D01*
X94661595Y-52316095D01*
X96090166Y-52030380D02*
X95899690Y-52030380D01*
X95804452Y-52078000D01*
X95756833Y-52125619D01*
X95661595Y-52268476D01*
X95613976Y-52458952D01*
X95613976Y-52839904D01*
X95661595Y-52935142D01*
X95709214Y-52982761D01*
X95804452Y-53030380D01*
X95994928Y-53030380D01*
X96090166Y-52982761D01*
X96137785Y-52935142D01*
X96185404Y-52839904D01*
X96185404Y-52601809D01*
X96137785Y-52506571D01*
X96090166Y-52458952D01*
X95994928Y-52411333D01*
X95804452Y-52411333D01*
X95709214Y-52458952D01*
X95661595Y-52506571D01*
X95613976Y-52601809D01*
X90089642Y-67159142D02*
X90042023Y-67206761D01*
X89899166Y-67254380D01*
X89803928Y-67254380D01*
X89661071Y-67206761D01*
X89565833Y-67111523D01*
X89518214Y-67016285D01*
X89470595Y-66825809D01*
X89470595Y-66682952D01*
X89518214Y-66492476D01*
X89565833Y-66397238D01*
X89661071Y-66302000D01*
X89803928Y-66254380D01*
X89899166Y-66254380D01*
X90042023Y-66302000D01*
X90089642Y-66349619D01*
X91042023Y-67254380D02*
X90470595Y-67254380D01*
X90756309Y-67254380D02*
X90756309Y-66254380D01*
X90661071Y-66397238D01*
X90565833Y-66492476D01*
X90470595Y-66540095D01*
X91946785Y-66254380D02*
X91470595Y-66254380D01*
X91422976Y-66730571D01*
X91470595Y-66682952D01*
X91565833Y-66635333D01*
X91803928Y-66635333D01*
X91899166Y-66682952D01*
X91946785Y-66730571D01*
X91994404Y-66825809D01*
X91994404Y-67063904D01*
X91946785Y-67159142D01*
X91899166Y-67206761D01*
X91803928Y-67254380D01*
X91565833Y-67254380D01*
X91470595Y-67206761D01*
X91422976Y-67159142D01*
X100757642Y-67159142D02*
X100710023Y-67206761D01*
X100567166Y-67254380D01*
X100471928Y-67254380D01*
X100329071Y-67206761D01*
X100233833Y-67111523D01*
X100186214Y-67016285D01*
X100138595Y-66825809D01*
X100138595Y-66682952D01*
X100186214Y-66492476D01*
X100233833Y-66397238D01*
X100329071Y-66302000D01*
X100471928Y-66254380D01*
X100567166Y-66254380D01*
X100710023Y-66302000D01*
X100757642Y-66349619D01*
X101710023Y-67254380D02*
X101138595Y-67254380D01*
X101424309Y-67254380D02*
X101424309Y-66254380D01*
X101329071Y-66397238D01*
X101233833Y-66492476D01*
X101138595Y-66540095D01*
X102567166Y-66587714D02*
X102567166Y-67254380D01*
X102329071Y-66206761D02*
X102090976Y-66921047D01*
X102710023Y-66921047D01*
X75215904Y-73420380D02*
X75215904Y-74229904D01*
X75263523Y-74325142D01*
X75311142Y-74372761D01*
X75406380Y-74420380D01*
X75596857Y-74420380D01*
X75692095Y-74372761D01*
X75739714Y-74325142D01*
X75787333Y-74229904D01*
X75787333Y-73420380D01*
X76787333Y-74420380D02*
X76215904Y-74420380D01*
X76501619Y-74420380D02*
X76501619Y-73420380D01*
X76406380Y-73563238D01*
X76311142Y-73658476D01*
X76215904Y-73706095D01*
X77168285Y-73515619D02*
X77215904Y-73468000D01*
X77311142Y-73420380D01*
X77549238Y-73420380D01*
X77644476Y-73468000D01*
X77692095Y-73515619D01*
X77739714Y-73610857D01*
X77739714Y-73706095D01*
X77692095Y-73848952D01*
X77120666Y-74420380D01*
X77739714Y-74420380D01*
D16*
X132484904Y-53919380D02*
X132484904Y-52919380D01*
X132723000Y-52919380D01*
X132865857Y-52967000D01*
X132961095Y-53062238D01*
X133008714Y-53157476D01*
X133056333Y-53347952D01*
X133056333Y-53490809D01*
X133008714Y-53681285D01*
X132961095Y-53776523D01*
X132865857Y-53871761D01*
X132723000Y-53919380D01*
X132484904Y-53919380D01*
X134008714Y-53919380D02*
X133437285Y-53919380D01*
X133723000Y-53919380D02*
X133723000Y-52919380D01*
X133627761Y-53062238D01*
X133532523Y-53157476D01*
X133437285Y-53205095D01*
D11*
X89693904Y-28843380D02*
X89693904Y-29652904D01*
X89741523Y-29748142D01*
X89789142Y-29795761D01*
X89884380Y-29843380D01*
X90074857Y-29843380D01*
X90170095Y-29795761D01*
X90217714Y-29748142D01*
X90265333Y-29652904D01*
X90265333Y-28843380D01*
X90693904Y-28938619D02*
X90741523Y-28891000D01*
X90836761Y-28843380D01*
X91074857Y-28843380D01*
X91170095Y-28891000D01*
X91217714Y-28938619D01*
X91265333Y-29033857D01*
X91265333Y-29129095D01*
X91217714Y-29271952D01*
X90646285Y-29843380D01*
X91265333Y-29843380D01*
X92217714Y-29843380D02*
X91646285Y-29843380D01*
X91932000Y-29843380D02*
X91932000Y-28843380D01*
X91836761Y-28986238D01*
X91741523Y-29081476D01*
X91646285Y-29129095D01*
X89693904Y-53862380D02*
X89693904Y-54671904D01*
X89741523Y-54767142D01*
X89789142Y-54814761D01*
X89884380Y-54862380D01*
X90074857Y-54862380D01*
X90170095Y-54814761D01*
X90217714Y-54767142D01*
X90265333Y-54671904D01*
X90265333Y-53862380D01*
X90693904Y-53957619D02*
X90741523Y-53910000D01*
X90836761Y-53862380D01*
X91074857Y-53862380D01*
X91170095Y-53910000D01*
X91217714Y-53957619D01*
X91265333Y-54052857D01*
X91265333Y-54148095D01*
X91217714Y-54290952D01*
X90646285Y-54862380D01*
X91265333Y-54862380D01*
X91884380Y-53862380D02*
X91979619Y-53862380D01*
X92074857Y-53910000D01*
X92122476Y-53957619D01*
X92170095Y-54052857D01*
X92217714Y-54243333D01*
X92217714Y-54481428D01*
X92170095Y-54671904D01*
X92122476Y-54767142D01*
X92074857Y-54814761D01*
X91979619Y-54862380D01*
X91884380Y-54862380D01*
X91789142Y-54814761D01*
X91741523Y-54767142D01*
X91693904Y-54671904D01*
X91646285Y-54481428D01*
X91646285Y-54243333D01*
X91693904Y-54052857D01*
X91741523Y-53957619D01*
X91789142Y-53910000D01*
X91884380Y-53862380D01*
X89693904Y-41416380D02*
X89693904Y-42225904D01*
X89741523Y-42321142D01*
X89789142Y-42368761D01*
X89884380Y-42416380D01*
X90074857Y-42416380D01*
X90170095Y-42368761D01*
X90217714Y-42321142D01*
X90265333Y-42225904D01*
X90265333Y-41416380D01*
X91265333Y-42416380D02*
X90693904Y-42416380D01*
X90979619Y-42416380D02*
X90979619Y-41416380D01*
X90884380Y-41559238D01*
X90789142Y-41654476D01*
X90693904Y-41702095D01*
X91741523Y-42416380D02*
X91932000Y-42416380D01*
X92027238Y-42368761D01*
X92074857Y-42321142D01*
X92170095Y-42178285D01*
X92217714Y-41987809D01*
X92217714Y-41606857D01*
X92170095Y-41511619D01*
X92122476Y-41464000D01*
X92027238Y-41416380D01*
X91836761Y-41416380D01*
X91741523Y-41464000D01*
X91693904Y-41511619D01*
X91646285Y-41606857D01*
X91646285Y-41844952D01*
X91693904Y-41940190D01*
X91741523Y-41987809D01*
X91836761Y-42035428D01*
X92027238Y-42035428D01*
X92122476Y-41987809D01*
X92170095Y-41940190D01*
X92217714Y-41844952D01*
X75215904Y-35266380D02*
X75215904Y-36075904D01*
X75263523Y-36171142D01*
X75311142Y-36218761D01*
X75406380Y-36266380D01*
X75596857Y-36266380D01*
X75692095Y-36218761D01*
X75739714Y-36171142D01*
X75787333Y-36075904D01*
X75787333Y-35266380D01*
X76787333Y-36266380D02*
X76215904Y-36266380D01*
X76501619Y-36266380D02*
X76501619Y-35266380D01*
X76406380Y-35409238D01*
X76311142Y-35504476D01*
X76215904Y-35552095D01*
X77120666Y-35266380D02*
X77787333Y-35266380D01*
X77358761Y-36266380D01*
X75215904Y-48147380D02*
X75215904Y-48956904D01*
X75263523Y-49052142D01*
X75311142Y-49099761D01*
X75406380Y-49147380D01*
X75596857Y-49147380D01*
X75692095Y-49099761D01*
X75739714Y-49052142D01*
X75787333Y-48956904D01*
X75787333Y-48147380D01*
X76787333Y-49147380D02*
X76215904Y-49147380D01*
X76501619Y-49147380D02*
X76501619Y-48147380D01*
X76406380Y-48290238D01*
X76311142Y-48385476D01*
X76215904Y-48433095D01*
X77644476Y-48147380D02*
X77454000Y-48147380D01*
X77358761Y-48195000D01*
X77311142Y-48242619D01*
X77215904Y-48385476D01*
X77168285Y-48575952D01*
X77168285Y-48956904D01*
X77215904Y-49052142D01*
X77263523Y-49099761D01*
X77358761Y-49147380D01*
X77549238Y-49147380D01*
X77644476Y-49099761D01*
X77692095Y-49052142D01*
X77739714Y-48956904D01*
X77739714Y-48718809D01*
X77692095Y-48623571D01*
X77644476Y-48575952D01*
X77549238Y-48528333D01*
X77358761Y-48528333D01*
X77263523Y-48575952D01*
X77215904Y-48623571D01*
X77168285Y-48718809D01*
X96170904Y-68213380D02*
X96170904Y-69022904D01*
X96218523Y-69118142D01*
X96266142Y-69165761D01*
X96361380Y-69213380D01*
X96551857Y-69213380D01*
X96647095Y-69165761D01*
X96694714Y-69118142D01*
X96742333Y-69022904D01*
X96742333Y-68213380D01*
X97742333Y-69213380D02*
X97170904Y-69213380D01*
X97456619Y-69213380D02*
X97456619Y-68213380D01*
X97361380Y-68356238D01*
X97266142Y-68451476D01*
X97170904Y-68499095D01*
X98647095Y-68213380D02*
X98170904Y-68213380D01*
X98123285Y-68689571D01*
X98170904Y-68641952D01*
X98266142Y-68594333D01*
X98504238Y-68594333D01*
X98599476Y-68641952D01*
X98647095Y-68689571D01*
X98694714Y-68784809D01*
X98694714Y-69022904D01*
X98647095Y-69118142D01*
X98599476Y-69165761D01*
X98504238Y-69213380D01*
X98266142Y-69213380D01*
X98170904Y-69165761D01*
X98123285Y-69118142D01*
X85629904Y-68213380D02*
X85629904Y-69022904D01*
X85677523Y-69118142D01*
X85725142Y-69165761D01*
X85820380Y-69213380D01*
X86010857Y-69213380D01*
X86106095Y-69165761D01*
X86153714Y-69118142D01*
X86201333Y-69022904D01*
X86201333Y-68213380D01*
X87201333Y-69213380D02*
X86629904Y-69213380D01*
X86915619Y-69213380D02*
X86915619Y-68213380D01*
X86820380Y-68356238D01*
X86725142Y-68451476D01*
X86629904Y-68499095D01*
X88058476Y-68546714D02*
X88058476Y-69213380D01*
X87820380Y-68165761D02*
X87582285Y-68880047D01*
X88201333Y-68880047D01*
X75342904Y-60793380D02*
X75342904Y-61602904D01*
X75390523Y-61698142D01*
X75438142Y-61745761D01*
X75533380Y-61793380D01*
X75723857Y-61793380D01*
X75819095Y-61745761D01*
X75866714Y-61698142D01*
X75914333Y-61602904D01*
X75914333Y-60793380D01*
X76914333Y-61793380D02*
X76342904Y-61793380D01*
X76628619Y-61793380D02*
X76628619Y-60793380D01*
X76533380Y-60936238D01*
X76438142Y-61031476D01*
X76342904Y-61079095D01*
X77247666Y-60793380D02*
X77866714Y-60793380D01*
X77533380Y-61174333D01*
X77676238Y-61174333D01*
X77771476Y-61221952D01*
X77819095Y-61269571D01*
X77866714Y-61364809D01*
X77866714Y-61602904D01*
X77819095Y-61698142D01*
X77771476Y-61745761D01*
X77676238Y-61793380D01*
X77390523Y-61793380D01*
X77295285Y-61745761D01*
X77247666Y-61698142D01*
X96170904Y-84215380D02*
X96170904Y-85024904D01*
X96218523Y-85120142D01*
X96266142Y-85167761D01*
X96361380Y-85215380D01*
X96551857Y-85215380D01*
X96647095Y-85167761D01*
X96694714Y-85120142D01*
X96742333Y-85024904D01*
X96742333Y-84215380D01*
X97742333Y-85215380D02*
X97170904Y-85215380D01*
X97456619Y-85215380D02*
X97456619Y-84215380D01*
X97361380Y-84358238D01*
X97266142Y-84453476D01*
X97170904Y-84501095D01*
X98694714Y-85215380D02*
X98123285Y-85215380D01*
X98409000Y-85215380D02*
X98409000Y-84215380D01*
X98313761Y-84358238D01*
X98218523Y-84453476D01*
X98123285Y-84501095D01*
X85502904Y-84215380D02*
X85502904Y-85024904D01*
X85550523Y-85120142D01*
X85598142Y-85167761D01*
X85693380Y-85215380D01*
X85883857Y-85215380D01*
X85979095Y-85167761D01*
X86026714Y-85120142D01*
X86074333Y-85024904D01*
X86074333Y-84215380D01*
X87074333Y-85215380D02*
X86502904Y-85215380D01*
X86788619Y-85215380D02*
X86788619Y-84215380D01*
X86693380Y-84358238D01*
X86598142Y-84453476D01*
X86502904Y-84501095D01*
X87693380Y-84215380D02*
X87788619Y-84215380D01*
X87883857Y-84263000D01*
X87931476Y-84310619D01*
X87979095Y-84405857D01*
X88026714Y-84596333D01*
X88026714Y-84834428D01*
X87979095Y-85024904D01*
X87931476Y-85120142D01*
X87883857Y-85167761D01*
X87788619Y-85215380D01*
X87693380Y-85215380D01*
X87598142Y-85167761D01*
X87550523Y-85120142D01*
X87502904Y-85024904D01*
X87455285Y-84834428D01*
X87455285Y-84596333D01*
X87502904Y-84405857D01*
X87550523Y-84310619D01*
X87598142Y-84263000D01*
X87693380Y-84215380D01*
X75946095Y-84215380D02*
X75946095Y-85024904D01*
X75993714Y-85120142D01*
X76041333Y-85167761D01*
X76136571Y-85215380D01*
X76327047Y-85215380D01*
X76422285Y-85167761D01*
X76469904Y-85120142D01*
X76517523Y-85024904D01*
X76517523Y-84215380D01*
X77136571Y-84643952D02*
X77041333Y-84596333D01*
X76993714Y-84548714D01*
X76946095Y-84453476D01*
X76946095Y-84405857D01*
X76993714Y-84310619D01*
X77041333Y-84263000D01*
X77136571Y-84215380D01*
X77327047Y-84215380D01*
X77422285Y-84263000D01*
X77469904Y-84310619D01*
X77517523Y-84405857D01*
X77517523Y-84453476D01*
X77469904Y-84548714D01*
X77422285Y-84596333D01*
X77327047Y-84643952D01*
X77136571Y-84643952D01*
X77041333Y-84691571D01*
X76993714Y-84739190D01*
X76946095Y-84834428D01*
X76946095Y-85024904D01*
X76993714Y-85120142D01*
X77041333Y-85167761D01*
X77136571Y-85215380D01*
X77327047Y-85215380D01*
X77422285Y-85167761D01*
X77469904Y-85120142D01*
X77517523Y-85024904D01*
X77517523Y-84834428D01*
X77469904Y-84739190D01*
X77422285Y-84691571D01*
X77327047Y-84643952D01*
X85979095Y-96915380D02*
X85979095Y-97724904D01*
X86026714Y-97820142D01*
X86074333Y-97867761D01*
X86169571Y-97915380D01*
X86360047Y-97915380D01*
X86455285Y-97867761D01*
X86502904Y-97820142D01*
X86550523Y-97724904D01*
X86550523Y-96915380D01*
X86931476Y-96915380D02*
X87598142Y-96915380D01*
X87169571Y-97915380D01*
X75946095Y-96915380D02*
X75946095Y-97724904D01*
X75993714Y-97820142D01*
X76041333Y-97867761D01*
X76136571Y-97915380D01*
X76327047Y-97915380D01*
X76422285Y-97867761D01*
X76469904Y-97820142D01*
X76517523Y-97724904D01*
X76517523Y-96915380D01*
X77422285Y-96915380D02*
X77231809Y-96915380D01*
X77136571Y-96963000D01*
X77088952Y-97010619D01*
X76993714Y-97153476D01*
X76946095Y-97343952D01*
X76946095Y-97724904D01*
X76993714Y-97820142D01*
X77041333Y-97867761D01*
X77136571Y-97915380D01*
X77327047Y-97915380D01*
X77422285Y-97867761D01*
X77469904Y-97820142D01*
X77517523Y-97724904D01*
X77517523Y-97486809D01*
X77469904Y-97391571D01*
X77422285Y-97343952D01*
X77327047Y-97296333D01*
X77136571Y-97296333D01*
X77041333Y-97343952D01*
X76993714Y-97391571D01*
X76946095Y-97486809D01*
X96647095Y-96915380D02*
X96647095Y-97724904D01*
X96694714Y-97820142D01*
X96742333Y-97867761D01*
X96837571Y-97915380D01*
X97028047Y-97915380D01*
X97123285Y-97867761D01*
X97170904Y-97820142D01*
X97218523Y-97724904D01*
X97218523Y-96915380D01*
X98123285Y-97248714D02*
X98123285Y-97915380D01*
X97885190Y-96867761D02*
X97647095Y-97582047D01*
X98266142Y-97582047D01*
X50546095Y-114060380D02*
X50546095Y-114869904D01*
X50593714Y-114965142D01*
X50641333Y-115012761D01*
X50736571Y-115060380D01*
X50927047Y-115060380D01*
X51022285Y-115012761D01*
X51069904Y-114965142D01*
X51117523Y-114869904D01*
X51117523Y-114060380D01*
X51498476Y-114060380D02*
X52117523Y-114060380D01*
X51784190Y-114441333D01*
X51927047Y-114441333D01*
X52022285Y-114488952D01*
X52069904Y-114536571D01*
X52117523Y-114631809D01*
X52117523Y-114869904D01*
X52069904Y-114965142D01*
X52022285Y-115012761D01*
X51927047Y-115060380D01*
X51641333Y-115060380D01*
X51546095Y-115012761D01*
X51498476Y-114965142D01*
X85979095Y-109561380D02*
X85979095Y-110370904D01*
X86026714Y-110466142D01*
X86074333Y-110513761D01*
X86169571Y-110561380D01*
X86360047Y-110561380D01*
X86455285Y-110513761D01*
X86502904Y-110466142D01*
X86550523Y-110370904D01*
X86550523Y-109561380D01*
X86979095Y-109656619D02*
X87026714Y-109609000D01*
X87121952Y-109561380D01*
X87360047Y-109561380D01*
X87455285Y-109609000D01*
X87502904Y-109656619D01*
X87550523Y-109751857D01*
X87550523Y-109847095D01*
X87502904Y-109989952D01*
X86931476Y-110561380D01*
X87550523Y-110561380D01*
X76073095Y-109688380D02*
X76073095Y-110497904D01*
X76120714Y-110593142D01*
X76168333Y-110640761D01*
X76263571Y-110688380D01*
X76454047Y-110688380D01*
X76549285Y-110640761D01*
X76596904Y-110593142D01*
X76644523Y-110497904D01*
X76644523Y-109688380D01*
X77644523Y-110688380D02*
X77073095Y-110688380D01*
X77358809Y-110688380D02*
X77358809Y-109688380D01*
X77263571Y-109831238D01*
X77168333Y-109926476D01*
X77073095Y-109974095D01*
D17*
X55405261Y-103532214D02*
X55102880Y-103743880D01*
X55405261Y-103895071D02*
X54770261Y-103895071D01*
X54770261Y-103653166D01*
X54800500Y-103592690D01*
X54830738Y-103562452D01*
X54891214Y-103532214D01*
X54981928Y-103532214D01*
X55042404Y-103562452D01*
X55072642Y-103592690D01*
X55102880Y-103653166D01*
X55102880Y-103895071D01*
X55405261Y-102927452D02*
X55405261Y-103290309D01*
X55405261Y-103108880D02*
X54770261Y-103108880D01*
X54860976Y-103169357D01*
X54921452Y-103229833D01*
X54951690Y-103290309D01*
X55042404Y-102564595D02*
X55012166Y-102625071D01*
X54981928Y-102655309D01*
X54921452Y-102685547D01*
X54891214Y-102685547D01*
X54830738Y-102655309D01*
X54800500Y-102625071D01*
X54770261Y-102564595D01*
X54770261Y-102443642D01*
X54800500Y-102383166D01*
X54830738Y-102352928D01*
X54891214Y-102322690D01*
X54921452Y-102322690D01*
X54981928Y-102352928D01*
X55012166Y-102383166D01*
X55042404Y-102443642D01*
X55042404Y-102564595D01*
X55072642Y-102625071D01*
X55102880Y-102655309D01*
X55163357Y-102685547D01*
X55284309Y-102685547D01*
X55344785Y-102655309D01*
X55375023Y-102625071D01*
X55405261Y-102564595D01*
X55405261Y-102443642D01*
X55375023Y-102383166D01*
X55344785Y-102352928D01*
X55284309Y-102322690D01*
X55163357Y-102322690D01*
X55102880Y-102352928D01*
X55072642Y-102383166D01*
X55042404Y-102443642D01*
X55659261Y-106072214D02*
X55356880Y-106283880D01*
X55659261Y-106435071D02*
X55024261Y-106435071D01*
X55024261Y-106193166D01*
X55054500Y-106132690D01*
X55084738Y-106102452D01*
X55145214Y-106072214D01*
X55235928Y-106072214D01*
X55296404Y-106102452D01*
X55326642Y-106132690D01*
X55356880Y-106193166D01*
X55356880Y-106435071D01*
X55659261Y-105467452D02*
X55659261Y-105830309D01*
X55659261Y-105648880D02*
X55024261Y-105648880D01*
X55114976Y-105709357D01*
X55175452Y-105769833D01*
X55205690Y-105830309D01*
X55024261Y-105255785D02*
X55024261Y-104832452D01*
X55659261Y-105104595D01*
X55659261Y-108612214D02*
X55356880Y-108823880D01*
X55659261Y-108975071D02*
X55024261Y-108975071D01*
X55024261Y-108733166D01*
X55054500Y-108672690D01*
X55084738Y-108642452D01*
X55145214Y-108612214D01*
X55235928Y-108612214D01*
X55296404Y-108642452D01*
X55326642Y-108672690D01*
X55356880Y-108733166D01*
X55356880Y-108975071D01*
X55659261Y-108007452D02*
X55659261Y-108370309D01*
X55659261Y-108188880D02*
X55024261Y-108188880D01*
X55114976Y-108249357D01*
X55175452Y-108309833D01*
X55205690Y-108370309D01*
X55024261Y-107463166D02*
X55024261Y-107584119D01*
X55054500Y-107644595D01*
X55084738Y-107674833D01*
X55175452Y-107735309D01*
X55296404Y-107765547D01*
X55538309Y-107765547D01*
X55598785Y-107735309D01*
X55629023Y-107705071D01*
X55659261Y-107644595D01*
X55659261Y-107523642D01*
X55629023Y-107463166D01*
X55598785Y-107432928D01*
X55538309Y-107402690D01*
X55387119Y-107402690D01*
X55326642Y-107432928D01*
X55296404Y-107463166D01*
X55266166Y-107523642D01*
X55266166Y-107644595D01*
X55296404Y-107705071D01*
X55326642Y-107735309D01*
X55387119Y-107765547D01*
X55659261Y-111152214D02*
X55356880Y-111363880D01*
X55659261Y-111515071D02*
X55024261Y-111515071D01*
X55024261Y-111273166D01*
X55054500Y-111212690D01*
X55084738Y-111182452D01*
X55145214Y-111152214D01*
X55235928Y-111152214D01*
X55296404Y-111182452D01*
X55326642Y-111212690D01*
X55356880Y-111273166D01*
X55356880Y-111515071D01*
X55659261Y-110547452D02*
X55659261Y-110910309D01*
X55659261Y-110728880D02*
X55024261Y-110728880D01*
X55114976Y-110789357D01*
X55175452Y-110849833D01*
X55205690Y-110910309D01*
X55024261Y-109972928D02*
X55024261Y-110275309D01*
X55326642Y-110305547D01*
X55296404Y-110275309D01*
X55266166Y-110214833D01*
X55266166Y-110063642D01*
X55296404Y-110003166D01*
X55326642Y-109972928D01*
X55387119Y-109942690D01*
X55538309Y-109942690D01*
X55598785Y-109972928D01*
X55629023Y-110003166D01*
X55659261Y-110063642D01*
X55659261Y-110214833D01*
X55629023Y-110275309D01*
X55598785Y-110305547D01*
D11*
X84193142Y-40203380D02*
X83859809Y-39727190D01*
X83621714Y-40203380D02*
X83621714Y-39203380D01*
X84002666Y-39203380D01*
X84097904Y-39251000D01*
X84145523Y-39298619D01*
X84193142Y-39393857D01*
X84193142Y-39536714D01*
X84145523Y-39631952D01*
X84097904Y-39679571D01*
X84002666Y-39727190D01*
X83621714Y-39727190D01*
X85145523Y-40203380D02*
X84574095Y-40203380D01*
X84859809Y-40203380D02*
X84859809Y-39203380D01*
X84764571Y-39346238D01*
X84669333Y-39441476D01*
X84574095Y-39489095D01*
X86002666Y-39536714D02*
X86002666Y-40203380D01*
X85764571Y-39155761D02*
X85526476Y-39870047D01*
X86145523Y-39870047D01*
X84202142Y-45537380D02*
X83868809Y-45061190D01*
X83630714Y-45537380D02*
X83630714Y-44537380D01*
X84011666Y-44537380D01*
X84106904Y-44585000D01*
X84154523Y-44632619D01*
X84202142Y-44727857D01*
X84202142Y-44870714D01*
X84154523Y-44965952D01*
X84106904Y-45013571D01*
X84011666Y-45061190D01*
X83630714Y-45061190D01*
X85154523Y-45537380D02*
X84583095Y-45537380D01*
X84868809Y-45537380D02*
X84868809Y-44537380D01*
X84773571Y-44680238D01*
X84678333Y-44775476D01*
X84583095Y-44823095D01*
X85487857Y-44537380D02*
X86106904Y-44537380D01*
X85773571Y-44918333D01*
X85916428Y-44918333D01*
X86011666Y-44965952D01*
X86059285Y-45013571D01*
X86106904Y-45108809D01*
X86106904Y-45346904D01*
X86059285Y-45442142D01*
X86011666Y-45489761D01*
X85916428Y-45537380D01*
X85630714Y-45537380D01*
X85535476Y-45489761D01*
X85487857Y-45442142D01*
X86479142Y-48086380D02*
X86145809Y-47610190D01*
X85907714Y-48086380D02*
X85907714Y-47086380D01*
X86288666Y-47086380D01*
X86383904Y-47134000D01*
X86431523Y-47181619D01*
X86479142Y-47276857D01*
X86479142Y-47419714D01*
X86431523Y-47514952D01*
X86383904Y-47562571D01*
X86288666Y-47610190D01*
X85907714Y-47610190D01*
X87431523Y-48086380D02*
X86860095Y-48086380D01*
X87145809Y-48086380D02*
X87145809Y-47086380D01*
X87050571Y-47229238D01*
X86955333Y-47324476D01*
X86860095Y-47372095D01*
X87812476Y-47181619D02*
X87860095Y-47134000D01*
X87955333Y-47086380D01*
X88193428Y-47086380D01*
X88288666Y-47134000D01*
X88336285Y-47181619D01*
X88383904Y-47276857D01*
X88383904Y-47372095D01*
X88336285Y-47514952D01*
X87764857Y-48086380D01*
X88383904Y-48086380D01*
X84329142Y-62810380D02*
X83995809Y-62334190D01*
X83757714Y-62810380D02*
X83757714Y-61810380D01*
X84138666Y-61810380D01*
X84233904Y-61858000D01*
X84281523Y-61905619D01*
X84329142Y-62000857D01*
X84329142Y-62143714D01*
X84281523Y-62238952D01*
X84233904Y-62286571D01*
X84138666Y-62334190D01*
X83757714Y-62334190D01*
X85281523Y-62810380D02*
X84710095Y-62810380D01*
X84995809Y-62810380D02*
X84995809Y-61810380D01*
X84900571Y-61953238D01*
X84805333Y-62048476D01*
X84710095Y-62096095D01*
X86233904Y-62810380D02*
X85662476Y-62810380D01*
X85948190Y-62810380D02*
X85948190Y-61810380D01*
X85852952Y-61953238D01*
X85757714Y-62048476D01*
X85662476Y-62096095D01*
X44188142Y-86050380D02*
X43854809Y-85574190D01*
X43616714Y-86050380D02*
X43616714Y-85050380D01*
X43997666Y-85050380D01*
X44092904Y-85098000D01*
X44140523Y-85145619D01*
X44188142Y-85240857D01*
X44188142Y-85383714D01*
X44140523Y-85478952D01*
X44092904Y-85526571D01*
X43997666Y-85574190D01*
X43616714Y-85574190D01*
X45140523Y-86050380D02*
X44569095Y-86050380D01*
X44854809Y-86050380D02*
X44854809Y-85050380D01*
X44759571Y-85193238D01*
X44664333Y-85288476D01*
X44569095Y-85336095D01*
X45759571Y-85050380D02*
X45854809Y-85050380D01*
X45950047Y-85098000D01*
X45997666Y-85145619D01*
X46045285Y-85240857D01*
X46092904Y-85431333D01*
X46092904Y-85669428D01*
X46045285Y-85859904D01*
X45997666Y-85955142D01*
X45950047Y-86002761D01*
X45854809Y-86050380D01*
X45759571Y-86050380D01*
X45664333Y-86002761D01*
X45616714Y-85955142D01*
X45569095Y-85859904D01*
X45521476Y-85669428D01*
X45521476Y-85431333D01*
X45569095Y-85240857D01*
X45616714Y-85145619D01*
X45664333Y-85098000D01*
X45759571Y-85050380D01*
X41362333Y-86050380D02*
X41029000Y-85574190D01*
X40790904Y-86050380D02*
X40790904Y-85050380D01*
X41171857Y-85050380D01*
X41267095Y-85098000D01*
X41314714Y-85145619D01*
X41362333Y-85240857D01*
X41362333Y-85383714D01*
X41314714Y-85478952D01*
X41267095Y-85526571D01*
X41171857Y-85574190D01*
X40790904Y-85574190D01*
X41838523Y-86050380D02*
X42029000Y-86050380D01*
X42124238Y-86002761D01*
X42171857Y-85955142D01*
X42267095Y-85812285D01*
X42314714Y-85621809D01*
X42314714Y-85240857D01*
X42267095Y-85145619D01*
X42219476Y-85098000D01*
X42124238Y-85050380D01*
X41933761Y-85050380D01*
X41838523Y-85098000D01*
X41790904Y-85145619D01*
X41743285Y-85240857D01*
X41743285Y-85478952D01*
X41790904Y-85574190D01*
X41838523Y-85621809D01*
X41933761Y-85669428D01*
X42124238Y-85669428D01*
X42219476Y-85621809D01*
X42267095Y-85574190D01*
X42314714Y-85478952D01*
X122896333Y-50490380D02*
X122563000Y-50014190D01*
X122324904Y-50490380D02*
X122324904Y-49490380D01*
X122705857Y-49490380D01*
X122801095Y-49538000D01*
X122848714Y-49585619D01*
X122896333Y-49680857D01*
X122896333Y-49823714D01*
X122848714Y-49918952D01*
X122801095Y-49966571D01*
X122705857Y-50014190D01*
X122324904Y-50014190D01*
X123467761Y-49918952D02*
X123372523Y-49871333D01*
X123324904Y-49823714D01*
X123277285Y-49728476D01*
X123277285Y-49680857D01*
X123324904Y-49585619D01*
X123372523Y-49538000D01*
X123467761Y-49490380D01*
X123658238Y-49490380D01*
X123753476Y-49538000D01*
X123801095Y-49585619D01*
X123848714Y-49680857D01*
X123848714Y-49728476D01*
X123801095Y-49823714D01*
X123753476Y-49871333D01*
X123658238Y-49918952D01*
X123467761Y-49918952D01*
X123372523Y-49966571D01*
X123324904Y-50014190D01*
X123277285Y-50109428D01*
X123277285Y-50299904D01*
X123324904Y-50395142D01*
X123372523Y-50442761D01*
X123467761Y-50490380D01*
X123658238Y-50490380D01*
X123753476Y-50442761D01*
X123801095Y-50395142D01*
X123848714Y-50299904D01*
X123848714Y-50109428D01*
X123801095Y-50014190D01*
X123753476Y-49966571D01*
X123658238Y-49918952D01*
X133056333Y-78194380D02*
X132723000Y-77718190D01*
X132484904Y-78194380D02*
X132484904Y-77194380D01*
X132865857Y-77194380D01*
X132961095Y-77242000D01*
X133008714Y-77289619D01*
X133056333Y-77384857D01*
X133056333Y-77527714D01*
X133008714Y-77622952D01*
X132961095Y-77670571D01*
X132865857Y-77718190D01*
X132484904Y-77718190D01*
X133389666Y-77194380D02*
X134056333Y-77194380D01*
X133627761Y-78194380D01*
X130516333Y-78194380D02*
X130183000Y-77718190D01*
X129944904Y-78194380D02*
X129944904Y-77194380D01*
X130325857Y-77194380D01*
X130421095Y-77242000D01*
X130468714Y-77289619D01*
X130516333Y-77384857D01*
X130516333Y-77527714D01*
X130468714Y-77622952D01*
X130421095Y-77670571D01*
X130325857Y-77718190D01*
X129944904Y-77718190D01*
X131373476Y-77194380D02*
X131183000Y-77194380D01*
X131087761Y-77242000D01*
X131040142Y-77289619D01*
X130944904Y-77432476D01*
X130897285Y-77622952D01*
X130897285Y-78003904D01*
X130944904Y-78099142D01*
X130992523Y-78146761D01*
X131087761Y-78194380D01*
X131278238Y-78194380D01*
X131373476Y-78146761D01*
X131421095Y-78099142D01*
X131468714Y-78003904D01*
X131468714Y-77765809D01*
X131421095Y-77670571D01*
X131373476Y-77622952D01*
X131278238Y-77575333D01*
X131087761Y-77575333D01*
X130992523Y-77622952D01*
X130944904Y-77670571D01*
X130897285Y-77765809D01*
X133056333Y-48567380D02*
X132723000Y-48091190D01*
X132484904Y-48567380D02*
X132484904Y-47567380D01*
X132865857Y-47567380D01*
X132961095Y-47615000D01*
X133008714Y-47662619D01*
X133056333Y-47757857D01*
X133056333Y-47900714D01*
X133008714Y-47995952D01*
X132961095Y-48043571D01*
X132865857Y-48091190D01*
X132484904Y-48091190D01*
X133961095Y-47567380D02*
X133484904Y-47567380D01*
X133437285Y-48043571D01*
X133484904Y-47995952D01*
X133580142Y-47948333D01*
X133818238Y-47948333D01*
X133913476Y-47995952D01*
X133961095Y-48043571D01*
X134008714Y-48138809D01*
X134008714Y-48376904D01*
X133961095Y-48472142D01*
X133913476Y-48519761D01*
X133818238Y-48567380D01*
X133580142Y-48567380D01*
X133484904Y-48519761D01*
X133437285Y-48472142D01*
X130516333Y-50218380D02*
X130183000Y-49742190D01*
X129944904Y-50218380D02*
X129944904Y-49218380D01*
X130325857Y-49218380D01*
X130421095Y-49266000D01*
X130468714Y-49313619D01*
X130516333Y-49408857D01*
X130516333Y-49551714D01*
X130468714Y-49646952D01*
X130421095Y-49694571D01*
X130325857Y-49742190D01*
X129944904Y-49742190D01*
X131373476Y-49551714D02*
X131373476Y-50218380D01*
X131135380Y-49170761D02*
X130897285Y-49885047D01*
X131516333Y-49885047D01*
X125436333Y-50227380D02*
X125103000Y-49751190D01*
X124864904Y-50227380D02*
X124864904Y-49227380D01*
X125245857Y-49227380D01*
X125341095Y-49275000D01*
X125388714Y-49322619D01*
X125436333Y-49417857D01*
X125436333Y-49560714D01*
X125388714Y-49655952D01*
X125341095Y-49703571D01*
X125245857Y-49751190D01*
X124864904Y-49751190D01*
X125769666Y-49227380D02*
X126388714Y-49227380D01*
X126055380Y-49608333D01*
X126198238Y-49608333D01*
X126293476Y-49655952D01*
X126341095Y-49703571D01*
X126388714Y-49798809D01*
X126388714Y-50036904D01*
X126341095Y-50132142D01*
X126293476Y-50179761D01*
X126198238Y-50227380D01*
X125912523Y-50227380D01*
X125817285Y-50179761D01*
X125769666Y-50132142D01*
X122896333Y-78176380D02*
X122563000Y-77700190D01*
X122324904Y-78176380D02*
X122324904Y-77176380D01*
X122705857Y-77176380D01*
X122801095Y-77224000D01*
X122848714Y-77271619D01*
X122896333Y-77366857D01*
X122896333Y-77509714D01*
X122848714Y-77604952D01*
X122801095Y-77652571D01*
X122705857Y-77700190D01*
X122324904Y-77700190D01*
X123277285Y-77271619D02*
X123324904Y-77224000D01*
X123420142Y-77176380D01*
X123658238Y-77176380D01*
X123753476Y-77224000D01*
X123801095Y-77271619D01*
X123848714Y-77366857D01*
X123848714Y-77462095D01*
X123801095Y-77604952D01*
X123229666Y-78176380D01*
X123848714Y-78176380D01*
X125436333Y-78176380D02*
X125103000Y-77700190D01*
X124864904Y-78176380D02*
X124864904Y-77176380D01*
X125245857Y-77176380D01*
X125341095Y-77224000D01*
X125388714Y-77271619D01*
X125436333Y-77366857D01*
X125436333Y-77509714D01*
X125388714Y-77604952D01*
X125341095Y-77652571D01*
X125245857Y-77700190D01*
X124864904Y-77700190D01*
X126388714Y-78176380D02*
X125817285Y-78176380D01*
X126103000Y-78176380D02*
X126103000Y-77176380D01*
X126007761Y-77319238D01*
X125912523Y-77414476D01*
X125817285Y-77462095D01*
X55253095Y-31964380D02*
X55824523Y-31964380D01*
X55538809Y-32964380D02*
X55538809Y-31964380D01*
X56157857Y-32964380D02*
X56157857Y-31964380D01*
X56538809Y-31964380D01*
X56634047Y-32012000D01*
X56681666Y-32059619D01*
X56729285Y-32154857D01*
X56729285Y-32297714D01*
X56681666Y-32392952D01*
X56634047Y-32440571D01*
X56538809Y-32488190D01*
X56157857Y-32488190D01*
X57110238Y-32059619D02*
X57157857Y-32012000D01*
X57253095Y-31964380D01*
X57491190Y-31964380D01*
X57586428Y-32012000D01*
X57634047Y-32059619D01*
X57681666Y-32154857D01*
X57681666Y-32250095D01*
X57634047Y-32392952D01*
X57062619Y-32964380D01*
X57681666Y-32964380D01*
X65667095Y-31710380D02*
X66238523Y-31710380D01*
X65952809Y-32710380D02*
X65952809Y-31710380D01*
X66571857Y-32710380D02*
X66571857Y-31710380D01*
X66952809Y-31710380D01*
X67048047Y-31758000D01*
X67095666Y-31805619D01*
X67143285Y-31900857D01*
X67143285Y-32043714D01*
X67095666Y-32138952D01*
X67048047Y-32186571D01*
X66952809Y-32234190D01*
X66571857Y-32234190D01*
X68095666Y-32710380D02*
X67524238Y-32710380D01*
X67809952Y-32710380D02*
X67809952Y-31710380D01*
X67714714Y-31853238D01*
X67619476Y-31948476D01*
X67524238Y-31996095D01*
X61087095Y-93686380D02*
X61087095Y-94495904D01*
X61134714Y-94591142D01*
X61182333Y-94638761D01*
X61277571Y-94686380D01*
X61468047Y-94686380D01*
X61563285Y-94638761D01*
X61610904Y-94591142D01*
X61658523Y-94495904D01*
X61658523Y-93686380D01*
X62182333Y-94686380D02*
X62372809Y-94686380D01*
X62468047Y-94638761D01*
X62515666Y-94591142D01*
X62610904Y-94448285D01*
X62658523Y-94257809D01*
X62658523Y-93876857D01*
X62610904Y-93781619D01*
X62563285Y-93734000D01*
X62468047Y-93686380D01*
X62277571Y-93686380D01*
X62182333Y-93734000D01*
X62134714Y-93781619D01*
X62087095Y-93876857D01*
X62087095Y-94114952D01*
X62134714Y-94210190D01*
X62182333Y-94257809D01*
X62277571Y-94305428D01*
X62468047Y-94305428D01*
X62563285Y-94257809D01*
X62610904Y-94210190D01*
X62658523Y-94114952D01*
X48664904Y-57602380D02*
X48664904Y-56602380D01*
X48903000Y-56602380D01*
X49045857Y-56650000D01*
X49141095Y-56745238D01*
X49188714Y-56840476D01*
X49236333Y-57030952D01*
X49236333Y-57173809D01*
X49188714Y-57364285D01*
X49141095Y-57459523D01*
X49045857Y-57554761D01*
X48903000Y-57602380D01*
X48664904Y-57602380D01*
X49617285Y-56697619D02*
X49664904Y-56650000D01*
X49760142Y-56602380D01*
X49998238Y-56602380D01*
X50093476Y-56650000D01*
X50141095Y-56697619D01*
X50188714Y-56792857D01*
X50188714Y-56888095D01*
X50141095Y-57030952D01*
X49569666Y-57602380D01*
X50188714Y-57602380D01*
X42489380Y-54871904D02*
X41489380Y-54871904D01*
X42489380Y-54300476D02*
X41917952Y-54729047D01*
X41489380Y-54300476D02*
X42060809Y-54871904D01*
X42759476Y-40981380D02*
X43092809Y-41981380D01*
X43426142Y-40981380D01*
X44330904Y-41981380D02*
X43997571Y-41505190D01*
X43759476Y-41981380D02*
X43759476Y-40981380D01*
X44140428Y-40981380D01*
X44235666Y-41029000D01*
X44283285Y-41076619D01*
X44330904Y-41171857D01*
X44330904Y-41314714D01*
X44283285Y-41409952D01*
X44235666Y-41457571D01*
X44140428Y-41505190D01*
X43759476Y-41505190D01*
X45283285Y-41981380D02*
X44711857Y-41981380D01*
X44997571Y-41981380D02*
X44997571Y-40981380D01*
X44902333Y-41124238D01*
X44807095Y-41219476D01*
X44711857Y-41267095D01*
X46418666Y-90066761D02*
X46561523Y-90114380D01*
X46799619Y-90114380D01*
X46894857Y-90066761D01*
X46942476Y-90019142D01*
X46990095Y-89923904D01*
X46990095Y-89828666D01*
X46942476Y-89733428D01*
X46894857Y-89685809D01*
X46799619Y-89638190D01*
X46609142Y-89590571D01*
X46513904Y-89542952D01*
X46466285Y-89495333D01*
X46418666Y-89400095D01*
X46418666Y-89304857D01*
X46466285Y-89209619D01*
X46513904Y-89162000D01*
X46609142Y-89114380D01*
X46847238Y-89114380D01*
X46990095Y-89162000D01*
X47323428Y-89114380D02*
X47561523Y-90114380D01*
X47752000Y-89400095D01*
X47942476Y-90114380D01*
X48180571Y-89114380D01*
X48513904Y-89209619D02*
X48561523Y-89162000D01*
X48656761Y-89114380D01*
X48894857Y-89114380D01*
X48990095Y-89162000D01*
X49037714Y-89209619D01*
X49085333Y-89304857D01*
X49085333Y-89400095D01*
X49037714Y-89542952D01*
X48466285Y-90114380D01*
X49085333Y-90114380D01*
X40576666Y-115720761D02*
X40719523Y-115768380D01*
X40957619Y-115768380D01*
X41052857Y-115720761D01*
X41100476Y-115673142D01*
X41148095Y-115577904D01*
X41148095Y-115482666D01*
X41100476Y-115387428D01*
X41052857Y-115339809D01*
X40957619Y-115292190D01*
X40767142Y-115244571D01*
X40671904Y-115196952D01*
X40624285Y-115149333D01*
X40576666Y-115054095D01*
X40576666Y-114958857D01*
X40624285Y-114863619D01*
X40671904Y-114816000D01*
X40767142Y-114768380D01*
X41005238Y-114768380D01*
X41148095Y-114816000D01*
X41481428Y-114768380D02*
X41719523Y-115768380D01*
X41910000Y-115054095D01*
X42100476Y-115768380D01*
X42338571Y-114768380D01*
X43243333Y-115768380D02*
X42671904Y-115768380D01*
X42957619Y-115768380D02*
X42957619Y-114768380D01*
X42862380Y-114911238D01*
X42767142Y-115006476D01*
X42671904Y-115054095D01*
X43227666Y-37806380D02*
X43227666Y-38520666D01*
X43180047Y-38663523D01*
X43084809Y-38758761D01*
X42941952Y-38806380D01*
X42846714Y-38806380D01*
X44227666Y-38806380D02*
X43656238Y-38806380D01*
X43941952Y-38806380D02*
X43941952Y-37806380D01*
X43846714Y-37949238D01*
X43751476Y-38044476D01*
X43656238Y-38092095D01*
X50284142Y-45315142D02*
X50236523Y-45362761D01*
X50093666Y-45410380D01*
X49998428Y-45410380D01*
X49855571Y-45362761D01*
X49760333Y-45267523D01*
X49712714Y-45172285D01*
X49665095Y-44981809D01*
X49665095Y-44838952D01*
X49712714Y-44648476D01*
X49760333Y-44553238D01*
X49855571Y-44458000D01*
X49998428Y-44410380D01*
X50093666Y-44410380D01*
X50236523Y-44458000D01*
X50284142Y-44505619D01*
X51236523Y-45410380D02*
X50665095Y-45410380D01*
X50950809Y-45410380D02*
X50950809Y-44410380D01*
X50855571Y-44553238D01*
X50760333Y-44648476D01*
X50665095Y-44696095D01*
X51569857Y-44410380D02*
X52188904Y-44410380D01*
X51855571Y-44791333D01*
X51998428Y-44791333D01*
X52093666Y-44838952D01*
X52141285Y-44886571D01*
X52188904Y-44981809D01*
X52188904Y-45219904D01*
X52141285Y-45315142D01*
X52093666Y-45362761D01*
X51998428Y-45410380D01*
X51712714Y-45410380D01*
X51617476Y-45362761D01*
X51569857Y-45315142D01*
X50284142Y-50395142D02*
X50236523Y-50442761D01*
X50093666Y-50490380D01*
X49998428Y-50490380D01*
X49855571Y-50442761D01*
X49760333Y-50347523D01*
X49712714Y-50252285D01*
X49665095Y-50061809D01*
X49665095Y-49918952D01*
X49712714Y-49728476D01*
X49760333Y-49633238D01*
X49855571Y-49538000D01*
X49998428Y-49490380D01*
X50093666Y-49490380D01*
X50236523Y-49538000D01*
X50284142Y-49585619D01*
X51236523Y-50490380D02*
X50665095Y-50490380D01*
X50950809Y-50490380D02*
X50950809Y-49490380D01*
X50855571Y-49633238D01*
X50760333Y-49728476D01*
X50665095Y-49776095D01*
X51617476Y-49585619D02*
X51665095Y-49538000D01*
X51760333Y-49490380D01*
X51998428Y-49490380D01*
X52093666Y-49538000D01*
X52141285Y-49585619D01*
X52188904Y-49680857D01*
X52188904Y-49776095D01*
X52141285Y-49918952D01*
X51569857Y-50490380D01*
X52188904Y-50490380D01*
X90098642Y-95924642D02*
X90051023Y-95972261D01*
X89908166Y-96019880D01*
X89812928Y-96019880D01*
X89670071Y-95972261D01*
X89574833Y-95877023D01*
X89527214Y-95781785D01*
X89479595Y-95591309D01*
X89479595Y-95448452D01*
X89527214Y-95257976D01*
X89574833Y-95162738D01*
X89670071Y-95067500D01*
X89812928Y-95019880D01*
X89908166Y-95019880D01*
X90051023Y-95067500D01*
X90098642Y-95115119D01*
X91051023Y-96019880D02*
X90479595Y-96019880D01*
X90765309Y-96019880D02*
X90765309Y-95019880D01*
X90670071Y-95162738D01*
X90574833Y-95257976D01*
X90479595Y-95305595D01*
X92003404Y-96019880D02*
X91431976Y-96019880D01*
X91717690Y-96019880D02*
X91717690Y-95019880D01*
X91622452Y-95162738D01*
X91527214Y-95257976D01*
X91431976Y-95305595D01*
X79802642Y-72429642D02*
X79755023Y-72477261D01*
X79612166Y-72524880D01*
X79516928Y-72524880D01*
X79374071Y-72477261D01*
X79278833Y-72382023D01*
X79231214Y-72286785D01*
X79183595Y-72096309D01*
X79183595Y-71953452D01*
X79231214Y-71762976D01*
X79278833Y-71667738D01*
X79374071Y-71572500D01*
X79516928Y-71524880D01*
X79612166Y-71524880D01*
X79755023Y-71572500D01*
X79802642Y-71620119D01*
X80755023Y-72524880D02*
X80183595Y-72524880D01*
X80469309Y-72524880D02*
X80469309Y-71524880D01*
X80374071Y-71667738D01*
X80278833Y-71762976D01*
X80183595Y-71810595D01*
X81374071Y-71524880D02*
X81469309Y-71524880D01*
X81564547Y-71572500D01*
X81612166Y-71620119D01*
X81659785Y-71715357D01*
X81707404Y-71905833D01*
X81707404Y-72143928D01*
X81659785Y-72334404D01*
X81612166Y-72429642D01*
X81564547Y-72477261D01*
X81469309Y-72524880D01*
X81374071Y-72524880D01*
X81278833Y-72477261D01*
X81231214Y-72429642D01*
X81183595Y-72334404D01*
X81135976Y-72143928D01*
X81135976Y-71905833D01*
X81183595Y-71715357D01*
X81231214Y-71620119D01*
X81278833Y-71572500D01*
X81374071Y-71524880D01*
X90511333Y-108561142D02*
X90463714Y-108608761D01*
X90320857Y-108656380D01*
X90225619Y-108656380D01*
X90082761Y-108608761D01*
X89987523Y-108513523D01*
X89939904Y-108418285D01*
X89892285Y-108227809D01*
X89892285Y-108084952D01*
X89939904Y-107894476D01*
X89987523Y-107799238D01*
X90082761Y-107704000D01*
X90225619Y-107656380D01*
X90320857Y-107656380D01*
X90463714Y-107704000D01*
X90511333Y-107751619D01*
X90987523Y-108656380D02*
X91178000Y-108656380D01*
X91273238Y-108608761D01*
X91320857Y-108561142D01*
X91416095Y-108418285D01*
X91463714Y-108227809D01*
X91463714Y-107846857D01*
X91416095Y-107751619D01*
X91368476Y-107704000D01*
X91273238Y-107656380D01*
X91082761Y-107656380D01*
X90987523Y-107704000D01*
X90939904Y-107751619D01*
X90892285Y-107846857D01*
X90892285Y-108084952D01*
X90939904Y-108180190D01*
X90987523Y-108227809D01*
X91082761Y-108275428D01*
X91273238Y-108275428D01*
X91368476Y-108227809D01*
X91416095Y-108180190D01*
X91463714Y-108084952D01*
X51141333Y-113641142D02*
X51093714Y-113688761D01*
X50950857Y-113736380D01*
X50855619Y-113736380D01*
X50712761Y-113688761D01*
X50617523Y-113593523D01*
X50569904Y-113498285D01*
X50522285Y-113307809D01*
X50522285Y-113164952D01*
X50569904Y-112974476D01*
X50617523Y-112879238D01*
X50712761Y-112784000D01*
X50855619Y-112736380D01*
X50950857Y-112736380D01*
X51093714Y-112784000D01*
X51141333Y-112831619D01*
X51712761Y-113164952D02*
X51617523Y-113117333D01*
X51569904Y-113069714D01*
X51522285Y-112974476D01*
X51522285Y-112926857D01*
X51569904Y-112831619D01*
X51617523Y-112784000D01*
X51712761Y-112736380D01*
X51903238Y-112736380D01*
X51998476Y-112784000D01*
X52046095Y-112831619D01*
X52093714Y-112926857D01*
X52093714Y-112974476D01*
X52046095Y-113069714D01*
X51998476Y-113117333D01*
X51903238Y-113164952D01*
X51712761Y-113164952D01*
X51617523Y-113212571D01*
X51569904Y-113260190D01*
X51522285Y-113355428D01*
X51522285Y-113545904D01*
X51569904Y-113641142D01*
X51617523Y-113688761D01*
X51712761Y-113736380D01*
X51903238Y-113736380D01*
X51998476Y-113688761D01*
X52046095Y-113641142D01*
X52093714Y-113545904D01*
X52093714Y-113355428D01*
X52046095Y-113260190D01*
X51998476Y-113212571D01*
X51903238Y-113164952D01*
X80414833Y-108434142D02*
X80367214Y-108481761D01*
X80224357Y-108529380D01*
X80129119Y-108529380D01*
X79986261Y-108481761D01*
X79891023Y-108386523D01*
X79843404Y-108291285D01*
X79795785Y-108100809D01*
X79795785Y-107957952D01*
X79843404Y-107767476D01*
X79891023Y-107672238D01*
X79986261Y-107577000D01*
X80129119Y-107529380D01*
X80224357Y-107529380D01*
X80367214Y-107577000D01*
X80414833Y-107624619D01*
X80748166Y-107529380D02*
X81414833Y-107529380D01*
X80986261Y-108529380D01*
X90638333Y-83161142D02*
X90590714Y-83208761D01*
X90447857Y-83256380D01*
X90352619Y-83256380D01*
X90209761Y-83208761D01*
X90114523Y-83113523D01*
X90066904Y-83018285D01*
X90019285Y-82827809D01*
X90019285Y-82684952D01*
X90066904Y-82494476D01*
X90114523Y-82399238D01*
X90209761Y-82304000D01*
X90352619Y-82256380D01*
X90447857Y-82256380D01*
X90590714Y-82304000D01*
X90638333Y-82351619D01*
X91495476Y-82256380D02*
X91305000Y-82256380D01*
X91209761Y-82304000D01*
X91162142Y-82351619D01*
X91066904Y-82494476D01*
X91019285Y-82684952D01*
X91019285Y-83065904D01*
X91066904Y-83161142D01*
X91114523Y-83208761D01*
X91209761Y-83256380D01*
X91400238Y-83256380D01*
X91495476Y-83208761D01*
X91543095Y-83161142D01*
X91590714Y-83065904D01*
X91590714Y-82827809D01*
X91543095Y-82732571D01*
X91495476Y-82684952D01*
X91400238Y-82637333D01*
X91209761Y-82637333D01*
X91114523Y-82684952D01*
X91066904Y-82732571D01*
X91019285Y-82827809D01*
X80351333Y-95861142D02*
X80303714Y-95908761D01*
X80160857Y-95956380D01*
X80065619Y-95956380D01*
X79922761Y-95908761D01*
X79827523Y-95813523D01*
X79779904Y-95718285D01*
X79732285Y-95527809D01*
X79732285Y-95384952D01*
X79779904Y-95194476D01*
X79827523Y-95099238D01*
X79922761Y-95004000D01*
X80065619Y-94956380D01*
X80160857Y-94956380D01*
X80303714Y-95004000D01*
X80351333Y-95051619D01*
X81256095Y-94956380D02*
X80779904Y-94956380D01*
X80732285Y-95432571D01*
X80779904Y-95384952D01*
X80875142Y-95337333D01*
X81113238Y-95337333D01*
X81208476Y-95384952D01*
X81256095Y-95432571D01*
X81303714Y-95527809D01*
X81303714Y-95765904D01*
X81256095Y-95861142D01*
X81208476Y-95908761D01*
X81113238Y-95956380D01*
X80875142Y-95956380D01*
X80779904Y-95908761D01*
X80732285Y-95861142D01*
X101179333Y-83161142D02*
X101131714Y-83208761D01*
X100988857Y-83256380D01*
X100893619Y-83256380D01*
X100750761Y-83208761D01*
X100655523Y-83113523D01*
X100607904Y-83018285D01*
X100560285Y-82827809D01*
X100560285Y-82684952D01*
X100607904Y-82494476D01*
X100655523Y-82399238D01*
X100750761Y-82304000D01*
X100893619Y-82256380D01*
X100988857Y-82256380D01*
X101131714Y-82304000D01*
X101179333Y-82351619D01*
X102036476Y-82589714D02*
X102036476Y-83256380D01*
X101798380Y-82208761D02*
X101560285Y-82923047D01*
X102179333Y-82923047D01*
X66118333Y-92305142D02*
X66070714Y-92352761D01*
X65927857Y-92400380D01*
X65832619Y-92400380D01*
X65689761Y-92352761D01*
X65594523Y-92257523D01*
X65546904Y-92162285D01*
X65499285Y-91971809D01*
X65499285Y-91828952D01*
X65546904Y-91638476D01*
X65594523Y-91543238D01*
X65689761Y-91448000D01*
X65832619Y-91400380D01*
X65927857Y-91400380D01*
X66070714Y-91448000D01*
X66118333Y-91495619D01*
X66451666Y-91400380D02*
X67070714Y-91400380D01*
X66737380Y-91781333D01*
X66880238Y-91781333D01*
X66975476Y-91828952D01*
X67023095Y-91876571D01*
X67070714Y-91971809D01*
X67070714Y-92209904D01*
X67023095Y-92305142D01*
X66975476Y-92352761D01*
X66880238Y-92400380D01*
X66594523Y-92400380D01*
X66499285Y-92352761D01*
X66451666Y-92305142D01*
X81748333Y-85066142D02*
X81700714Y-85113761D01*
X81557857Y-85161380D01*
X81462619Y-85161380D01*
X81319761Y-85113761D01*
X81224523Y-85018523D01*
X81176904Y-84923285D01*
X81129285Y-84732809D01*
X81129285Y-84589952D01*
X81176904Y-84399476D01*
X81224523Y-84304238D01*
X81319761Y-84209000D01*
X81462619Y-84161380D01*
X81557857Y-84161380D01*
X81700714Y-84209000D01*
X81748333Y-84256619D01*
X82129285Y-84256619D02*
X82176904Y-84209000D01*
X82272142Y-84161380D01*
X82510238Y-84161380D01*
X82605476Y-84209000D01*
X82653095Y-84256619D01*
X82700714Y-84351857D01*
X82700714Y-84447095D01*
X82653095Y-84589952D01*
X82081666Y-85161380D01*
X82700714Y-85161380D01*
X101179333Y-95861142D02*
X101131714Y-95908761D01*
X100988857Y-95956380D01*
X100893619Y-95956380D01*
X100750761Y-95908761D01*
X100655523Y-95813523D01*
X100607904Y-95718285D01*
X100560285Y-95527809D01*
X100560285Y-95384952D01*
X100607904Y-95194476D01*
X100655523Y-95099238D01*
X100750761Y-95004000D01*
X100893619Y-94956380D01*
X100988857Y-94956380D01*
X101131714Y-95004000D01*
X101179333Y-95051619D01*
X102131714Y-95956380D02*
X101560285Y-95956380D01*
X101846000Y-95956380D02*
X101846000Y-94956380D01*
X101750761Y-95099238D01*
X101655523Y-95194476D01*
X101560285Y-95242095D01*
M02*
