M48
; DRILL file {KiCad (5.1.5)-3} date 12/3/2020 2:51:23 AM
; FORMAT={-:-/ absolute / inch / decimal}
; #@! TF.CreationDate,2020-12-03T02:51:23-05:00
; #@! TF.GenerationSoftware,Kicad,Pcbnew,(5.1.5)-3
FMAT,2
INCH
T1C0.0100
T2C0.0315
T3C0.0354
T4C0.0394
T5C0.0433
T6C0.0512
T7C0.0630
%
G90
G05
T1
X1.9Y-4.57
X2.09Y-4.44
X2.1Y-4.82
X2.105Y-4.57
X2.13Y-4.44
X2.135Y-4.62
X2.14Y-4.06
X2.14Y-4.16
X2.14Y-4.26
X2.14Y-4.36
X2.16Y-4.57
X2.16Y-4.74
X2.16Y-4.87
X2.2Y-4.43
X2.23Y-4.47
X2.2878Y-4.77
X2.725Y-1.575
X2.725Y-2.62
X2.725Y-3.02
X2.725Y-3.945
X2.755Y-1.625
X2.755Y-2.175
X2.755Y-3.07
X2.755Y-3.545
X2.755Y-4.02
X2.7811Y-4.3211
X2.785Y-1.675
X2.785Y-2.2
X2.785Y-2.52
X2.785Y-3.045
X2.785Y-3.42
X2.785Y-4.095
X2.8111Y-4.3911
X2.815Y-1.475
X2.815Y-1.975
X2.815Y-2.075
X2.815Y-2.47
X2.815Y-2.57
X2.815Y-2.97
X2.815Y-3.195
X2.815Y-3.395
X2.815Y-3.895
X2.8411Y-4.4611
X2.845Y-1.525
X2.845Y-2.025
X2.845Y-2.125
X2.845Y-2.72
X2.845Y-3.445
X2.875Y-1.7
X2.875Y-2.67
X2.875Y-3.12
X2.875Y-3.495
X2.875Y-4.045
X2.905Y-3.17
X2.905Y-3.595
X2.905Y-3.995
X2.945Y-1.475
X2.945Y-1.525
X2.945Y-1.575
X2.945Y-1.625
X2.945Y-1.675
X2.945Y-1.975
X2.945Y-2.025
X2.945Y-2.075
X2.945Y-2.125
X2.945Y-2.175
X2.945Y-2.47
X2.945Y-2.52
X2.945Y-2.57
X2.945Y-2.62
X2.945Y-2.67
X2.945Y-2.97
X2.945Y-3.02
X2.945Y-3.12
X2.945Y-3.17
X2.945Y-4.395
X2.945Y-4.445
X2.945Y-4.545
X2.945Y-4.595
X2.95Y-3.395
X2.95Y-3.445
X2.95Y-3.545
X2.95Y-3.595
X2.95Y-3.695
X2.95Y-3.895
X2.95Y-3.945
X2.95Y-4.045
X2.95Y-4.095
X2.955Y-4.195
X3.08Y-2.8975
X3.08Y-3.22
X3.08Y-4.32
X3.085Y-4.145
X3.09Y-3.395
X3.09Y-4.395
X3.105Y-1.725
X3.115Y-3.9
X3.135Y-2.72
X3.14Y-1.525
X3.14Y-2.125
X3.14Y-3.02
X3.14Y-3.07
X3.14Y-3.22
X3.14Y-3.495
X3.14Y-4.02
X3.14Y-4.595
X3.14Y-4.645
X3.145Y-2.25
X3.145Y-3.42
X3.145Y-3.945
X3.275Y-1.975
X3.275Y-2.225
X3.275Y-2.47
X3.275Y-2.77
X3.275Y-2.91
X3.275Y-2.97
X3.28Y-1.475
X3.28Y-3.895
X3.28Y-4.395
X3.28Y-4.445
X3.285Y-3.595
X3.285Y-3.645
X3.3Y-3.27
X3.3Y-3.45
X3.31Y-4.74
X3.345Y-4.445
X3.35Y-3.545
X3.35Y-3.695
X3.35Y-3.945
X3.355Y-3.3
X3.355Y-4.195
X3.44Y-2.52
X3.47Y-1.66
X3.48Y-3.825
X3.485Y-1.785
X3.485Y-2.21
X3.485Y-2.28
X3.485Y-3.015
X3.485Y-3.645
X3.485Y-4.145
X3.5Y-2.625
X3.505Y-1.415
X3.51Y-1.91
X3.515Y-4.63
X3.53Y-3.4
X3.54Y-4.495
X3.545Y-3.995
X3.575Y-2.08
X3.68Y-1.44
X3.68Y-2.765
X3.68Y-3.495
X3.68Y-3.895
X3.68Y-4.395
X3.685Y-2.865
X3.685Y-3.395
X3.695Y-4.24
X3.71Y-1.315
X3.71Y-1.76
X3.71Y-2.925
X3.735Y-4.24
X3.765Y-2.765
X3.765Y-3.895
X3.765Y-3.945
X3.77Y-3.395
X3.77Y-3.47
X3.77Y-3.52
X3.77Y-3.675
X3.77Y-4.195
X3.825Y-2.065
X3.845Y-2.2
X3.85Y-1.215
X3.85Y-1.71
X3.87Y-1.885
X3.89Y-3.82
X3.905Y-3.995
X3.905Y-4.145
X3.91Y-3.05
X3.965Y-3.065
X3.965Y-3.445
X3.965Y-3.695
X4.1Y-3.895
X4.105Y-2.765
X4.11Y-3.395
X4.185Y-2.47
X4.185Y-2.59
X4.215Y-2.45
X4.215Y-2.795
X4.695Y-3.315
X4.785Y-2.03
X4.845Y-3.255
X4.89Y-1.815
X4.915Y-1.845
X4.945Y-3.11
X5.145Y-1.845
X5.245Y-1.815
T2
X1.705Y-3.6
X1.705Y-3.9
X1.805Y-3.6
X1.805Y-3.9
X4.845Y-2.21
X4.845Y-2.81
X4.945Y-2.21
X4.945Y-2.81
X5.045Y-2.21
X5.045Y-2.81
X5.145Y-2.21
X5.145Y-2.81
X5.245Y-2.21
X5.245Y-2.81
X2.35Y-3.795
X2.35Y-3.895
X2.35Y-3.995
X2.35Y-4.095
X2.35Y-4.195
X2.35Y-4.295
X2.35Y-4.395
X2.35Y-4.495
X2.35Y-4.595
X2.35Y-4.695
X2.65Y-3.795
X2.65Y-3.895
X2.65Y-3.995
X2.65Y-4.095
X2.65Y-4.195
X2.65Y-4.295
X2.65Y-4.395
X2.65Y-4.495
X2.65Y-4.595
X2.65Y-4.695
X1.63Y-4.11
X1.63Y-4.21
X1.63Y-4.31
X1.63Y-4.41
X1.93Y-4.11
X1.93Y-4.21
X1.93Y-4.31
X1.93Y-4.41
T3
X1.735Y-2.15
X2.135Y-2.15
T5
X1.735Y-1.77
X1.735Y-1.87
X1.735Y-1.97
T6
X2.355Y-1.16
X2.355Y-1.36
X2.505Y-1.16
X2.505Y-1.36
T7
X1.7307Y-1.24
T4
G00X1.8389Y-1.0628
M15
G01X1.7799Y-1.0628
M16
G05
G00X1.8389Y-1.4172
M15
G01X1.7799Y-1.4172
M16
G05
G00X1.8488Y-1.2144
M15
G01X1.8488Y-1.2656
M16
G05
G00X2.085Y-1.2006
M15
G01X2.085Y-1.2794
M16
G05
T0
M30
