G04 #@! TF.GenerationSoftware,KiCad,Pcbnew,(5.1.5)-3*
G04 #@! TF.CreationDate,2020-04-16T17:23:26-04:00*
G04 #@! TF.ProjectId,SAP-PSU,5341502d-5053-4552-9e6b-696361645f70,rev?*
G04 #@! TF.SameCoordinates,Original*
G04 #@! TF.FileFunction,Soldermask,Bot*
G04 #@! TF.FilePolarity,Negative*
%FSLAX46Y46*%
G04 Gerber Fmt 4.6, Leading zero omitted, Abs format (unit mm)*
G04 Created by KiCad (PCBNEW (5.1.5)-3) date 2020-04-16 17:23:26*
%MOMM*%
%LPD*%
G04 APERTURE LIST*
%ADD10C,0.100000*%
G04 APERTURE END LIST*
D10*
G36*
X660634239Y-416811467D02*
G01*
X660948282Y-416873934D01*
X661539926Y-417119001D01*
X662072392Y-417474784D01*
X662525216Y-417927608D01*
X662880999Y-418460074D01*
X663126066Y-419051718D01*
X663251000Y-419679804D01*
X663251000Y-420320196D01*
X663126066Y-420948282D01*
X662880999Y-421539926D01*
X662525216Y-422072392D01*
X662072392Y-422525216D01*
X661539926Y-422880999D01*
X660948282Y-423126066D01*
X660634239Y-423188533D01*
X660320197Y-423251000D01*
X659679803Y-423251000D01*
X659365761Y-423188533D01*
X659051718Y-423126066D01*
X658460074Y-422880999D01*
X657927608Y-422525216D01*
X657474784Y-422072392D01*
X657119001Y-421539926D01*
X656873934Y-420948282D01*
X656749000Y-420320196D01*
X656749000Y-419679804D01*
X656873934Y-419051718D01*
X657119001Y-418460074D01*
X657474784Y-417927608D01*
X657927608Y-417474784D01*
X658460074Y-417119001D01*
X659051718Y-416873934D01*
X659365761Y-416811467D01*
X659679803Y-416749000D01*
X660320197Y-416749000D01*
X660634239Y-416811467D01*
G37*
G36*
X460634239Y-416811467D02*
G01*
X460948282Y-416873934D01*
X461539926Y-417119001D01*
X462072392Y-417474784D01*
X462525216Y-417927608D01*
X462880999Y-418460074D01*
X463126066Y-419051718D01*
X463251000Y-419679804D01*
X463251000Y-420320196D01*
X463126066Y-420948282D01*
X462880999Y-421539926D01*
X462525216Y-422072392D01*
X462072392Y-422525216D01*
X461539926Y-422880999D01*
X460948282Y-423126066D01*
X460634239Y-423188533D01*
X460320197Y-423251000D01*
X459679803Y-423251000D01*
X459365761Y-423188533D01*
X459051718Y-423126066D01*
X458460074Y-422880999D01*
X457927608Y-422525216D01*
X457474784Y-422072392D01*
X457119001Y-421539926D01*
X456873934Y-420948282D01*
X456749000Y-420320196D01*
X456749000Y-419679804D01*
X456873934Y-419051718D01*
X457119001Y-418460074D01*
X457474784Y-417927608D01*
X457927608Y-417474784D01*
X458460074Y-417119001D01*
X459051718Y-416873934D01*
X459365761Y-416811467D01*
X459679803Y-416749000D01*
X460320197Y-416749000D01*
X460634239Y-416811467D01*
G37*
G36*
X507091009Y-399947591D02*
G01*
X507586658Y-400046181D01*
X508520440Y-400432967D01*
X509360822Y-400994492D01*
X510075508Y-401709178D01*
X510637033Y-402549560D01*
X511023819Y-403483342D01*
X511221000Y-404474641D01*
X511221000Y-405485359D01*
X511023819Y-406476658D01*
X510637033Y-407410440D01*
X510075508Y-408250822D01*
X509360822Y-408965508D01*
X508520440Y-409527033D01*
X507586658Y-409913819D01*
X507091009Y-410012409D01*
X506595361Y-410111000D01*
X505584639Y-410111000D01*
X505088991Y-410012409D01*
X504593342Y-409913819D01*
X503659560Y-409527033D01*
X502819178Y-408965508D01*
X502104492Y-408250822D01*
X501542967Y-407410440D01*
X501156181Y-406476658D01*
X500959000Y-405485359D01*
X500959000Y-404474641D01*
X501156181Y-403483342D01*
X501542967Y-402549560D01*
X502104492Y-401709178D01*
X502819178Y-400994492D01*
X503659560Y-400432967D01*
X504593342Y-400046181D01*
X505088991Y-399947591D01*
X505584639Y-399849000D01*
X506595361Y-399849000D01*
X507091009Y-399947591D01*
G37*
G36*
X477121009Y-399947591D02*
G01*
X477616658Y-400046181D01*
X478550440Y-400432967D01*
X479390822Y-400994492D01*
X480105508Y-401709178D01*
X480667033Y-402549560D01*
X481053819Y-403483342D01*
X481251000Y-404474641D01*
X481251000Y-405485359D01*
X481053819Y-406476658D01*
X480667033Y-407410440D01*
X480105508Y-408250822D01*
X479390822Y-408965508D01*
X478550440Y-409527033D01*
X477616658Y-409913819D01*
X477121009Y-410012409D01*
X476625361Y-410111000D01*
X475614639Y-410111000D01*
X475118991Y-410012409D01*
X474623342Y-409913819D01*
X473689560Y-409527033D01*
X472849178Y-408965508D01*
X472134492Y-408250822D01*
X471572967Y-407410440D01*
X471186181Y-406476658D01*
X470989000Y-405485359D01*
X470989000Y-404474641D01*
X471186181Y-403483342D01*
X471572967Y-402549560D01*
X472134492Y-401709178D01*
X472849178Y-400994492D01*
X473689560Y-400432967D01*
X474623342Y-400046181D01*
X475118991Y-399947591D01*
X475614639Y-399849000D01*
X476625361Y-399849000D01*
X477121009Y-399947591D01*
G37*
G36*
X492111009Y-399947591D02*
G01*
X492606658Y-400046181D01*
X493540440Y-400432967D01*
X494380822Y-400994492D01*
X495095508Y-401709178D01*
X495657033Y-402549560D01*
X496043819Y-403483342D01*
X496241000Y-404474641D01*
X496241000Y-405485359D01*
X496043819Y-406476658D01*
X495657033Y-407410440D01*
X495095508Y-408250822D01*
X494380822Y-408965508D01*
X493540440Y-409527033D01*
X492606658Y-409913819D01*
X492111009Y-410012409D01*
X491615361Y-410111000D01*
X490604639Y-410111000D01*
X490108991Y-410012409D01*
X489613342Y-409913819D01*
X488679560Y-409527033D01*
X487839178Y-408965508D01*
X487124492Y-408250822D01*
X486562967Y-407410440D01*
X486176181Y-406476658D01*
X485979000Y-405485359D01*
X485979000Y-404474641D01*
X486176181Y-403483342D01*
X486562967Y-402549560D01*
X487124492Y-401709178D01*
X487839178Y-400994492D01*
X488679560Y-400432967D01*
X489613342Y-400046181D01*
X490108991Y-399947591D01*
X490604639Y-399849000D01*
X491615361Y-399849000D01*
X492111009Y-399947591D01*
G37*
G36*
X578998228Y-393331703D02*
G01*
X579153100Y-393395853D01*
X579292481Y-393488985D01*
X579411015Y-393607519D01*
X579504147Y-393746900D01*
X579568297Y-393901772D01*
X579601000Y-394066184D01*
X579601000Y-394233816D01*
X579568297Y-394398228D01*
X579504147Y-394553100D01*
X579411015Y-394692481D01*
X579292481Y-394811015D01*
X579153100Y-394904147D01*
X578998228Y-394968297D01*
X578833816Y-395001000D01*
X578666184Y-395001000D01*
X578501772Y-394968297D01*
X578346900Y-394904147D01*
X578207519Y-394811015D01*
X578088985Y-394692481D01*
X577995853Y-394553100D01*
X577931703Y-394398228D01*
X577899000Y-394233816D01*
X577899000Y-394066184D01*
X577931703Y-393901772D01*
X577995853Y-393746900D01*
X578088985Y-393607519D01*
X578207519Y-393488985D01*
X578346900Y-393395853D01*
X578501772Y-393331703D01*
X578666184Y-393299000D01*
X578833816Y-393299000D01*
X578998228Y-393331703D01*
G37*
G36*
X557948228Y-393331703D02*
G01*
X558103100Y-393395853D01*
X558242481Y-393488985D01*
X558361015Y-393607519D01*
X558454147Y-393746900D01*
X558518297Y-393901772D01*
X558551000Y-394066184D01*
X558551000Y-394233816D01*
X558518297Y-394398228D01*
X558454147Y-394553100D01*
X558361015Y-394692481D01*
X558242481Y-394811015D01*
X558103100Y-394904147D01*
X557948228Y-394968297D01*
X557783816Y-395001000D01*
X557616184Y-395001000D01*
X557451772Y-394968297D01*
X557296900Y-394904147D01*
X557157519Y-394811015D01*
X557038985Y-394692481D01*
X556945853Y-394553100D01*
X556881703Y-394398228D01*
X556849000Y-394233816D01*
X556849000Y-394066184D01*
X556881703Y-393901772D01*
X556945853Y-393746900D01*
X557038985Y-393607519D01*
X557157519Y-393488985D01*
X557296900Y-393395853D01*
X557451772Y-393331703D01*
X557616184Y-393299000D01*
X557783816Y-393299000D01*
X557948228Y-393331703D01*
G37*
G36*
X564998228Y-393331703D02*
G01*
X565153100Y-393395853D01*
X565292481Y-393488985D01*
X565411015Y-393607519D01*
X565504147Y-393746900D01*
X565568297Y-393901772D01*
X565601000Y-394066184D01*
X565601000Y-394233816D01*
X565568297Y-394398228D01*
X565504147Y-394553100D01*
X565411015Y-394692481D01*
X565292481Y-394811015D01*
X565153100Y-394904147D01*
X564998228Y-394968297D01*
X564833816Y-395001000D01*
X564666184Y-395001000D01*
X564501772Y-394968297D01*
X564346900Y-394904147D01*
X564207519Y-394811015D01*
X564088985Y-394692481D01*
X563995853Y-394553100D01*
X563931703Y-394398228D01*
X563899000Y-394233816D01*
X563899000Y-394066184D01*
X563931703Y-393901772D01*
X563995853Y-393746900D01*
X564088985Y-393607519D01*
X564207519Y-393488985D01*
X564346900Y-393395853D01*
X564501772Y-393331703D01*
X564666184Y-393299000D01*
X564833816Y-393299000D01*
X564998228Y-393331703D01*
G37*
G36*
X571998228Y-393331703D02*
G01*
X572153100Y-393395853D01*
X572292481Y-393488985D01*
X572411015Y-393607519D01*
X572504147Y-393746900D01*
X572568297Y-393901772D01*
X572601000Y-394066184D01*
X572601000Y-394233816D01*
X572568297Y-394398228D01*
X572504147Y-394553100D01*
X572411015Y-394692481D01*
X572292481Y-394811015D01*
X572153100Y-394904147D01*
X571998228Y-394968297D01*
X571833816Y-395001000D01*
X571666184Y-395001000D01*
X571501772Y-394968297D01*
X571346900Y-394904147D01*
X571207519Y-394811015D01*
X571088985Y-394692481D01*
X570995853Y-394553100D01*
X570931703Y-394398228D01*
X570899000Y-394233816D01*
X570899000Y-394066184D01*
X570931703Y-393901772D01*
X570995853Y-393746900D01*
X571088985Y-393607519D01*
X571207519Y-393488985D01*
X571346900Y-393395853D01*
X571501772Y-393331703D01*
X571666184Y-393299000D01*
X571833816Y-393299000D01*
X571998228Y-393331703D01*
G37*
G36*
X554448228Y-393321703D02*
G01*
X554603100Y-393385853D01*
X554742481Y-393478985D01*
X554861015Y-393597519D01*
X554954147Y-393736900D01*
X555018297Y-393891772D01*
X555051000Y-394056184D01*
X555051000Y-394223816D01*
X555018297Y-394388228D01*
X554954147Y-394543100D01*
X554861015Y-394682481D01*
X554742481Y-394801015D01*
X554603100Y-394894147D01*
X554448228Y-394958297D01*
X554283816Y-394991000D01*
X554116184Y-394991000D01*
X553951772Y-394958297D01*
X553796900Y-394894147D01*
X553657519Y-394801015D01*
X553538985Y-394682481D01*
X553445853Y-394543100D01*
X553381703Y-394388228D01*
X553349000Y-394223816D01*
X553349000Y-394056184D01*
X553381703Y-393891772D01*
X553445853Y-393736900D01*
X553538985Y-393597519D01*
X553657519Y-393478985D01*
X553796900Y-393385853D01*
X553951772Y-393321703D01*
X554116184Y-393289000D01*
X554283816Y-393289000D01*
X554448228Y-393321703D01*
G37*
G36*
X561498228Y-393321703D02*
G01*
X561653100Y-393385853D01*
X561792481Y-393478985D01*
X561911015Y-393597519D01*
X562004147Y-393736900D01*
X562068297Y-393891772D01*
X562101000Y-394056184D01*
X562101000Y-394223816D01*
X562068297Y-394388228D01*
X562004147Y-394543100D01*
X561911015Y-394682481D01*
X561792481Y-394801015D01*
X561653100Y-394894147D01*
X561498228Y-394958297D01*
X561333816Y-394991000D01*
X561166184Y-394991000D01*
X561001772Y-394958297D01*
X560846900Y-394894147D01*
X560707519Y-394801015D01*
X560588985Y-394682481D01*
X560495853Y-394543100D01*
X560431703Y-394388228D01*
X560399000Y-394223816D01*
X560399000Y-394056184D01*
X560431703Y-393891772D01*
X560495853Y-393736900D01*
X560588985Y-393597519D01*
X560707519Y-393478985D01*
X560846900Y-393385853D01*
X561001772Y-393321703D01*
X561166184Y-393289000D01*
X561333816Y-393289000D01*
X561498228Y-393321703D01*
G37*
G36*
X568498228Y-393321703D02*
G01*
X568653100Y-393385853D01*
X568792481Y-393478985D01*
X568911015Y-393597519D01*
X569004147Y-393736900D01*
X569068297Y-393891772D01*
X569101000Y-394056184D01*
X569101000Y-394223816D01*
X569068297Y-394388228D01*
X569004147Y-394543100D01*
X568911015Y-394682481D01*
X568792481Y-394801015D01*
X568653100Y-394894147D01*
X568498228Y-394958297D01*
X568333816Y-394991000D01*
X568166184Y-394991000D01*
X568001772Y-394958297D01*
X567846900Y-394894147D01*
X567707519Y-394801015D01*
X567588985Y-394682481D01*
X567495853Y-394543100D01*
X567431703Y-394388228D01*
X567399000Y-394223816D01*
X567399000Y-394056184D01*
X567431703Y-393891772D01*
X567495853Y-393736900D01*
X567588985Y-393597519D01*
X567707519Y-393478985D01*
X567846900Y-393385853D01*
X568001772Y-393321703D01*
X568166184Y-393289000D01*
X568333816Y-393289000D01*
X568498228Y-393321703D01*
G37*
G36*
X575498228Y-393321703D02*
G01*
X575653100Y-393385853D01*
X575792481Y-393478985D01*
X575911015Y-393597519D01*
X576004147Y-393736900D01*
X576068297Y-393891772D01*
X576101000Y-394056184D01*
X576101000Y-394223816D01*
X576068297Y-394388228D01*
X576004147Y-394543100D01*
X575911015Y-394682481D01*
X575792481Y-394801015D01*
X575653100Y-394894147D01*
X575498228Y-394958297D01*
X575333816Y-394991000D01*
X575166184Y-394991000D01*
X575001772Y-394958297D01*
X574846900Y-394894147D01*
X574707519Y-394801015D01*
X574588985Y-394682481D01*
X574495853Y-394543100D01*
X574431703Y-394388228D01*
X574399000Y-394223816D01*
X574399000Y-394056184D01*
X574431703Y-393891772D01*
X574495853Y-393736900D01*
X574588985Y-393597519D01*
X574707519Y-393478985D01*
X574846900Y-393385853D01*
X575001772Y-393321703D01*
X575166184Y-393289000D01*
X575333816Y-393289000D01*
X575498228Y-393321703D01*
G37*
G36*
X476426585Y-383138802D02*
G01*
X476576410Y-383168604D01*
X476858674Y-383285521D01*
X477112705Y-383455259D01*
X477328741Y-383671295D01*
X477498479Y-383925326D01*
X477615396Y-384207590D01*
X477675000Y-384507240D01*
X477675000Y-384812760D01*
X477615396Y-385112410D01*
X477498479Y-385394674D01*
X477328741Y-385648705D01*
X477112705Y-385864741D01*
X476858674Y-386034479D01*
X476576410Y-386151396D01*
X476426585Y-386181198D01*
X476276761Y-386211000D01*
X475971239Y-386211000D01*
X475821415Y-386181198D01*
X475671590Y-386151396D01*
X475389326Y-386034479D01*
X475135295Y-385864741D01*
X474919259Y-385648705D01*
X474749521Y-385394674D01*
X474632604Y-385112410D01*
X474573000Y-384812760D01*
X474573000Y-384507240D01*
X474632604Y-384207590D01*
X474749521Y-383925326D01*
X474919259Y-383671295D01*
X475135295Y-383455259D01*
X475389326Y-383285521D01*
X475671590Y-383168604D01*
X475821415Y-383138802D01*
X475971239Y-383109000D01*
X476276761Y-383109000D01*
X476426585Y-383138802D01*
G37*
G36*
X602457473Y-383411371D02*
G01*
X602572353Y-383446220D01*
X602678228Y-383502811D01*
X602771029Y-383578971D01*
X602847189Y-383671772D01*
X602903780Y-383777647D01*
X602938629Y-383892527D01*
X602951000Y-384018140D01*
X602951000Y-385481860D01*
X602938629Y-385607473D01*
X602903780Y-385722353D01*
X602847189Y-385828228D01*
X602771029Y-385921029D01*
X602678228Y-385997189D01*
X602572353Y-386053780D01*
X602457473Y-386088629D01*
X602331860Y-386101000D01*
X600868140Y-386101000D01*
X600742527Y-386088629D01*
X600627647Y-386053780D01*
X600521772Y-385997189D01*
X600428971Y-385921029D01*
X600352811Y-385828228D01*
X600296220Y-385722353D01*
X600261371Y-385607473D01*
X600249000Y-385481860D01*
X600249000Y-384018140D01*
X600261371Y-383892527D01*
X600296220Y-383777647D01*
X600352811Y-383671772D01*
X600428971Y-383578971D01*
X600521772Y-383502811D01*
X600627647Y-383446220D01*
X600742527Y-383411371D01*
X600868140Y-383399000D01*
X602331860Y-383399000D01*
X602457473Y-383411371D01*
G37*
G36*
X615800680Y-386050680D02*
G01*
X613199320Y-386050680D01*
X613199320Y-383449320D01*
X615800680Y-383449320D01*
X615800680Y-386050680D01*
G37*
G36*
X618689393Y-383499304D02*
G01*
X618926101Y-383597352D01*
X618926103Y-383597353D01*
X619139135Y-383739696D01*
X619320304Y-383920865D01*
X619422959Y-384074500D01*
X619462648Y-384133899D01*
X619560696Y-384370607D01*
X619610680Y-384621893D01*
X619610680Y-384878107D01*
X619560696Y-385129393D01*
X619462648Y-385366101D01*
X619462647Y-385366103D01*
X619320304Y-385579135D01*
X619139135Y-385760304D01*
X618926103Y-385902647D01*
X618926102Y-385902648D01*
X618926101Y-385902648D01*
X618689393Y-386000696D01*
X618438107Y-386050680D01*
X618181893Y-386050680D01*
X617930607Y-386000696D01*
X617693899Y-385902648D01*
X617693898Y-385902648D01*
X617693897Y-385902647D01*
X617480865Y-385760304D01*
X617299696Y-385579135D01*
X617157353Y-385366103D01*
X617157352Y-385366101D01*
X617059304Y-385129393D01*
X617009320Y-384878107D01*
X617009320Y-384621893D01*
X617059304Y-384370607D01*
X617157352Y-384133899D01*
X617197041Y-384074500D01*
X617299696Y-383920865D01*
X617480865Y-383739696D01*
X617693897Y-383597353D01*
X617693899Y-383597352D01*
X617930607Y-383499304D01*
X618181893Y-383449320D01*
X618438107Y-383449320D01*
X618689393Y-383499304D01*
G37*
G36*
X601926711Y-378357519D02*
G01*
X601994072Y-378370918D01*
X602239939Y-378472759D01*
X602351328Y-378547187D01*
X602461211Y-378620609D01*
X602649391Y-378808789D01*
X602722813Y-378918672D01*
X602773023Y-378993816D01*
X602797242Y-379030063D01*
X602899082Y-379275928D01*
X602934201Y-379452481D01*
X602951000Y-379536938D01*
X602951000Y-379803062D01*
X602899082Y-380064072D01*
X602797241Y-380309939D01*
X602649390Y-380531212D01*
X602461212Y-380719390D01*
X602239939Y-380867241D01*
X602239938Y-380867242D01*
X602239937Y-380867242D01*
X601994072Y-380969082D01*
X601733063Y-381021000D01*
X601466937Y-381021000D01*
X601205928Y-380969082D01*
X600960063Y-380867242D01*
X600960062Y-380867242D01*
X600960061Y-380867241D01*
X600738788Y-380719390D01*
X600550610Y-380531212D01*
X600402759Y-380309939D01*
X600300918Y-380064072D01*
X600249000Y-379803062D01*
X600249000Y-379536938D01*
X600265800Y-379452481D01*
X600300918Y-379275928D01*
X600402758Y-379030063D01*
X600426978Y-378993816D01*
X600477187Y-378918672D01*
X600550609Y-378808789D01*
X600738789Y-378620609D01*
X600848673Y-378547187D01*
X600960061Y-378472759D01*
X601205928Y-378370918D01*
X601273289Y-378357519D01*
X601466937Y-378319000D01*
X601733063Y-378319000D01*
X601926711Y-378357519D01*
G37*
G36*
X578998228Y-378091703D02*
G01*
X579153100Y-378155853D01*
X579292481Y-378248985D01*
X579411015Y-378367519D01*
X579504147Y-378506900D01*
X579568297Y-378661772D01*
X579601000Y-378826184D01*
X579601000Y-378993816D01*
X579568297Y-379158228D01*
X579504147Y-379313100D01*
X579411015Y-379452481D01*
X579292481Y-379571015D01*
X579153100Y-379664147D01*
X578998228Y-379728297D01*
X578833816Y-379761000D01*
X578666184Y-379761000D01*
X578501772Y-379728297D01*
X578346900Y-379664147D01*
X578207519Y-379571015D01*
X578088985Y-379452481D01*
X577995853Y-379313100D01*
X577931703Y-379158228D01*
X577899000Y-378993816D01*
X577899000Y-378826184D01*
X577931703Y-378661772D01*
X577995853Y-378506900D01*
X578088985Y-378367519D01*
X578207519Y-378248985D01*
X578346900Y-378155853D01*
X578501772Y-378091703D01*
X578666184Y-378059000D01*
X578833816Y-378059000D01*
X578998228Y-378091703D01*
G37*
G36*
X557948228Y-378091703D02*
G01*
X558103100Y-378155853D01*
X558242481Y-378248985D01*
X558361015Y-378367519D01*
X558454147Y-378506900D01*
X558518297Y-378661772D01*
X558551000Y-378826184D01*
X558551000Y-378993816D01*
X558518297Y-379158228D01*
X558454147Y-379313100D01*
X558361015Y-379452481D01*
X558242481Y-379571015D01*
X558103100Y-379664147D01*
X557948228Y-379728297D01*
X557783816Y-379761000D01*
X557616184Y-379761000D01*
X557451772Y-379728297D01*
X557296900Y-379664147D01*
X557157519Y-379571015D01*
X557038985Y-379452481D01*
X556945853Y-379313100D01*
X556881703Y-379158228D01*
X556849000Y-378993816D01*
X556849000Y-378826184D01*
X556881703Y-378661772D01*
X556945853Y-378506900D01*
X557038985Y-378367519D01*
X557157519Y-378248985D01*
X557296900Y-378155853D01*
X557451772Y-378091703D01*
X557616184Y-378059000D01*
X557783816Y-378059000D01*
X557948228Y-378091703D01*
G37*
G36*
X571998228Y-378091703D02*
G01*
X572153100Y-378155853D01*
X572292481Y-378248985D01*
X572411015Y-378367519D01*
X572504147Y-378506900D01*
X572568297Y-378661772D01*
X572601000Y-378826184D01*
X572601000Y-378993816D01*
X572568297Y-379158228D01*
X572504147Y-379313100D01*
X572411015Y-379452481D01*
X572292481Y-379571015D01*
X572153100Y-379664147D01*
X571998228Y-379728297D01*
X571833816Y-379761000D01*
X571666184Y-379761000D01*
X571501772Y-379728297D01*
X571346900Y-379664147D01*
X571207519Y-379571015D01*
X571088985Y-379452481D01*
X570995853Y-379313100D01*
X570931703Y-379158228D01*
X570899000Y-378993816D01*
X570899000Y-378826184D01*
X570931703Y-378661772D01*
X570995853Y-378506900D01*
X571088985Y-378367519D01*
X571207519Y-378248985D01*
X571346900Y-378155853D01*
X571501772Y-378091703D01*
X571666184Y-378059000D01*
X571833816Y-378059000D01*
X571998228Y-378091703D01*
G37*
G36*
X564998228Y-378091703D02*
G01*
X565153100Y-378155853D01*
X565292481Y-378248985D01*
X565411015Y-378367519D01*
X565504147Y-378506900D01*
X565568297Y-378661772D01*
X565601000Y-378826184D01*
X565601000Y-378993816D01*
X565568297Y-379158228D01*
X565504147Y-379313100D01*
X565411015Y-379452481D01*
X565292481Y-379571015D01*
X565153100Y-379664147D01*
X564998228Y-379728297D01*
X564833816Y-379761000D01*
X564666184Y-379761000D01*
X564501772Y-379728297D01*
X564346900Y-379664147D01*
X564207519Y-379571015D01*
X564088985Y-379452481D01*
X563995853Y-379313100D01*
X563931703Y-379158228D01*
X563899000Y-378993816D01*
X563899000Y-378826184D01*
X563931703Y-378661772D01*
X563995853Y-378506900D01*
X564088985Y-378367519D01*
X564207519Y-378248985D01*
X564346900Y-378155853D01*
X564501772Y-378091703D01*
X564666184Y-378059000D01*
X564833816Y-378059000D01*
X564998228Y-378091703D01*
G37*
G36*
X575498228Y-378081703D02*
G01*
X575653100Y-378145853D01*
X575792481Y-378238985D01*
X575911015Y-378357519D01*
X576004147Y-378496900D01*
X576068297Y-378651772D01*
X576101000Y-378816184D01*
X576101000Y-378983816D01*
X576068297Y-379148228D01*
X576004147Y-379303100D01*
X575911015Y-379442481D01*
X575792481Y-379561015D01*
X575653100Y-379654147D01*
X575498228Y-379718297D01*
X575333816Y-379751000D01*
X575166184Y-379751000D01*
X575001772Y-379718297D01*
X574846900Y-379654147D01*
X574707519Y-379561015D01*
X574588985Y-379442481D01*
X574495853Y-379303100D01*
X574431703Y-379148228D01*
X574399000Y-378983816D01*
X574399000Y-378816184D01*
X574431703Y-378651772D01*
X574495853Y-378496900D01*
X574588985Y-378357519D01*
X574707519Y-378238985D01*
X574846900Y-378145853D01*
X575001772Y-378081703D01*
X575166184Y-378049000D01*
X575333816Y-378049000D01*
X575498228Y-378081703D01*
G37*
G36*
X568498228Y-378081703D02*
G01*
X568653100Y-378145853D01*
X568792481Y-378238985D01*
X568911015Y-378357519D01*
X569004147Y-378496900D01*
X569068297Y-378651772D01*
X569101000Y-378816184D01*
X569101000Y-378983816D01*
X569068297Y-379148228D01*
X569004147Y-379303100D01*
X568911015Y-379442481D01*
X568792481Y-379561015D01*
X568653100Y-379654147D01*
X568498228Y-379718297D01*
X568333816Y-379751000D01*
X568166184Y-379751000D01*
X568001772Y-379718297D01*
X567846900Y-379654147D01*
X567707519Y-379561015D01*
X567588985Y-379442481D01*
X567495853Y-379303100D01*
X567431703Y-379148228D01*
X567399000Y-378983816D01*
X567399000Y-378816184D01*
X567431703Y-378651772D01*
X567495853Y-378496900D01*
X567588985Y-378357519D01*
X567707519Y-378238985D01*
X567846900Y-378145853D01*
X568001772Y-378081703D01*
X568166184Y-378049000D01*
X568333816Y-378049000D01*
X568498228Y-378081703D01*
G37*
G36*
X561498228Y-378081703D02*
G01*
X561653100Y-378145853D01*
X561792481Y-378238985D01*
X561911015Y-378357519D01*
X562004147Y-378496900D01*
X562068297Y-378651772D01*
X562101000Y-378816184D01*
X562101000Y-378983816D01*
X562068297Y-379148228D01*
X562004147Y-379303100D01*
X561911015Y-379442481D01*
X561792481Y-379561015D01*
X561653100Y-379654147D01*
X561498228Y-379718297D01*
X561333816Y-379751000D01*
X561166184Y-379751000D01*
X561001772Y-379718297D01*
X560846900Y-379654147D01*
X560707519Y-379561015D01*
X560588985Y-379442481D01*
X560495853Y-379303100D01*
X560431703Y-379148228D01*
X560399000Y-378983816D01*
X560399000Y-378816184D01*
X560431703Y-378651772D01*
X560495853Y-378496900D01*
X560588985Y-378357519D01*
X560707519Y-378238985D01*
X560846900Y-378145853D01*
X561001772Y-378081703D01*
X561166184Y-378049000D01*
X561333816Y-378049000D01*
X561498228Y-378081703D01*
G37*
G36*
X554448228Y-378081703D02*
G01*
X554603100Y-378145853D01*
X554742481Y-378238985D01*
X554861015Y-378357519D01*
X554954147Y-378496900D01*
X555018297Y-378651772D01*
X555051000Y-378816184D01*
X555051000Y-378983816D01*
X555018297Y-379148228D01*
X554954147Y-379303100D01*
X554861015Y-379442481D01*
X554742481Y-379561015D01*
X554603100Y-379654147D01*
X554448228Y-379718297D01*
X554283816Y-379751000D01*
X554116184Y-379751000D01*
X553951772Y-379718297D01*
X553796900Y-379654147D01*
X553657519Y-379561015D01*
X553538985Y-379442481D01*
X553445853Y-379303100D01*
X553381703Y-379148228D01*
X553349000Y-378983816D01*
X553349000Y-378816184D01*
X553381703Y-378651772D01*
X553445853Y-378496900D01*
X553538985Y-378357519D01*
X553657519Y-378238985D01*
X553796900Y-378145853D01*
X553951772Y-378081703D01*
X554116184Y-378049000D01*
X554283816Y-378049000D01*
X554448228Y-378081703D01*
G37*
G36*
X601848228Y-375621703D02*
G01*
X602003100Y-375685853D01*
X602142481Y-375778985D01*
X602261015Y-375897519D01*
X602354147Y-376036900D01*
X602418297Y-376191772D01*
X602451000Y-376356184D01*
X602451000Y-376523816D01*
X602418297Y-376688228D01*
X602354147Y-376843100D01*
X602261015Y-376982481D01*
X602142481Y-377101015D01*
X602003100Y-377194147D01*
X601848228Y-377258297D01*
X601683816Y-377291000D01*
X601516184Y-377291000D01*
X601351772Y-377258297D01*
X601196900Y-377194147D01*
X601057519Y-377101015D01*
X600938985Y-376982481D01*
X600845853Y-376843100D01*
X600781703Y-376688228D01*
X600749000Y-376523816D01*
X600749000Y-376356184D01*
X600781703Y-376191772D01*
X600845853Y-376036900D01*
X600938985Y-375897519D01*
X601057519Y-375778985D01*
X601196900Y-375685853D01*
X601351772Y-375621703D01*
X601516184Y-375589000D01*
X601683816Y-375589000D01*
X601848228Y-375621703D01*
G37*
G36*
X476442433Y-372044893D02*
G01*
X476532657Y-372062839D01*
X476638267Y-372106585D01*
X476787621Y-372168449D01*
X476787622Y-372168450D01*
X477017086Y-372321772D01*
X477212228Y-372516914D01*
X477314675Y-372670237D01*
X477365551Y-372746379D01*
X477471161Y-373001344D01*
X477525000Y-373272012D01*
X477525000Y-373547988D01*
X477471161Y-373818656D01*
X477365551Y-374073621D01*
X477365550Y-374073622D01*
X477212228Y-374303086D01*
X477017086Y-374498228D01*
X476863763Y-374600675D01*
X476787621Y-374651551D01*
X476638267Y-374713415D01*
X476532657Y-374757161D01*
X476442433Y-374775107D01*
X476261988Y-374811000D01*
X475986012Y-374811000D01*
X475805567Y-374775107D01*
X475715343Y-374757161D01*
X475609733Y-374713415D01*
X475460379Y-374651551D01*
X475384237Y-374600675D01*
X475230914Y-374498228D01*
X475035772Y-374303086D01*
X474882450Y-374073622D01*
X474882449Y-374073621D01*
X474776839Y-373818656D01*
X474723000Y-373547988D01*
X474723000Y-373272012D01*
X474776839Y-373001344D01*
X474882449Y-372746379D01*
X474933325Y-372670237D01*
X475035772Y-372516914D01*
X475230914Y-372321772D01*
X475460378Y-372168450D01*
X475460379Y-372168449D01*
X475609733Y-372106585D01*
X475715343Y-372062839D01*
X475805567Y-372044893D01*
X475986012Y-372009000D01*
X476261988Y-372009000D01*
X476442433Y-372044893D01*
G37*
G36*
X584802585Y-366278802D02*
G01*
X584952410Y-366308604D01*
X585234674Y-366425521D01*
X585488705Y-366595259D01*
X585704741Y-366811295D01*
X585874479Y-367065326D01*
X585991396Y-367347590D01*
X586051000Y-367647240D01*
X586051000Y-367952760D01*
X585991396Y-368252410D01*
X585874479Y-368534674D01*
X585704741Y-368788705D01*
X585488705Y-369004741D01*
X585234674Y-369174479D01*
X584952410Y-369291396D01*
X584802585Y-369321198D01*
X584652761Y-369351000D01*
X584347239Y-369351000D01*
X584197415Y-369321198D01*
X584047590Y-369291396D01*
X583765326Y-369174479D01*
X583511295Y-369004741D01*
X583295259Y-368788705D01*
X583125521Y-368534674D01*
X583008604Y-368252410D01*
X582949000Y-367952760D01*
X582949000Y-367647240D01*
X583008604Y-367347590D01*
X583125521Y-367065326D01*
X583295259Y-366811295D01*
X583511295Y-366595259D01*
X583765326Y-366425521D01*
X584047590Y-366308604D01*
X584197415Y-366278802D01*
X584347239Y-366249000D01*
X584652761Y-366249000D01*
X584802585Y-366278802D01*
G37*
G36*
X557802585Y-366278802D02*
G01*
X557952410Y-366308604D01*
X558234674Y-366425521D01*
X558488705Y-366595259D01*
X558704741Y-366811295D01*
X558874479Y-367065326D01*
X558991396Y-367347590D01*
X559051000Y-367647240D01*
X559051000Y-367952760D01*
X558991396Y-368252410D01*
X558874479Y-368534674D01*
X558704741Y-368788705D01*
X558488705Y-369004741D01*
X558234674Y-369174479D01*
X557952410Y-369291396D01*
X557802585Y-369321198D01*
X557652761Y-369351000D01*
X557347239Y-369351000D01*
X557197415Y-369321198D01*
X557047590Y-369291396D01*
X556765326Y-369174479D01*
X556511295Y-369004741D01*
X556295259Y-368788705D01*
X556125521Y-368534674D01*
X556008604Y-368252410D01*
X555949000Y-367952760D01*
X555949000Y-367647240D01*
X556008604Y-367347590D01*
X556125521Y-367065326D01*
X556295259Y-366811295D01*
X556511295Y-366595259D01*
X556765326Y-366425521D01*
X557047590Y-366308604D01*
X557197415Y-366278802D01*
X557347239Y-366249000D01*
X557652761Y-366249000D01*
X557802585Y-366278802D01*
G37*
G36*
X476426585Y-360638802D02*
G01*
X476576410Y-360668604D01*
X476858674Y-360785521D01*
X477112705Y-360955259D01*
X477328741Y-361171295D01*
X477498479Y-361425326D01*
X477615396Y-361707590D01*
X477675000Y-362007240D01*
X477675000Y-362312760D01*
X477615396Y-362612410D01*
X477498479Y-362894674D01*
X477328741Y-363148705D01*
X477112705Y-363364741D01*
X476858674Y-363534479D01*
X476576410Y-363651396D01*
X476426585Y-363681198D01*
X476276761Y-363711000D01*
X475971239Y-363711000D01*
X475821415Y-363681198D01*
X475671590Y-363651396D01*
X475389326Y-363534479D01*
X475135295Y-363364741D01*
X474919259Y-363148705D01*
X474749521Y-362894674D01*
X474632604Y-362612410D01*
X474573000Y-362312760D01*
X474573000Y-362007240D01*
X474632604Y-361707590D01*
X474749521Y-361425326D01*
X474919259Y-361171295D01*
X475135295Y-360955259D01*
X475389326Y-360785521D01*
X475671590Y-360668604D01*
X475821415Y-360638802D01*
X475971239Y-360609000D01*
X476276761Y-360609000D01*
X476426585Y-360638802D01*
G37*
G36*
X601848228Y-360381703D02*
G01*
X602003100Y-360445853D01*
X602142481Y-360538985D01*
X602261015Y-360657519D01*
X602354147Y-360796900D01*
X602418297Y-360951772D01*
X602451000Y-361116184D01*
X602451000Y-361283816D01*
X602418297Y-361448228D01*
X602354147Y-361603100D01*
X602261015Y-361742481D01*
X602142481Y-361861015D01*
X602003100Y-361954147D01*
X601848228Y-362018297D01*
X601683816Y-362051000D01*
X601516184Y-362051000D01*
X601351772Y-362018297D01*
X601196900Y-361954147D01*
X601057519Y-361861015D01*
X600938985Y-361742481D01*
X600845853Y-361603100D01*
X600781703Y-361448228D01*
X600749000Y-361283816D01*
X600749000Y-361116184D01*
X600781703Y-360951772D01*
X600845853Y-360796900D01*
X600938985Y-360657519D01*
X601057519Y-360538985D01*
X601196900Y-360445853D01*
X601351772Y-360381703D01*
X601516184Y-360349000D01*
X601683816Y-360349000D01*
X601848228Y-360381703D01*
G37*
G36*
X577488228Y-360281703D02*
G01*
X577643100Y-360345853D01*
X577782481Y-360438985D01*
X577901015Y-360557519D01*
X577994147Y-360696900D01*
X578058297Y-360851772D01*
X578091000Y-361016184D01*
X578091000Y-361183816D01*
X578058297Y-361348228D01*
X577994147Y-361503100D01*
X577901015Y-361642481D01*
X577782481Y-361761015D01*
X577643100Y-361854147D01*
X577488228Y-361918297D01*
X577323816Y-361951000D01*
X577156184Y-361951000D01*
X576991772Y-361918297D01*
X576836900Y-361854147D01*
X576697519Y-361761015D01*
X576578985Y-361642481D01*
X576485853Y-361503100D01*
X576421703Y-361348228D01*
X576389000Y-361183816D01*
X576389000Y-361016184D01*
X576421703Y-360851772D01*
X576485853Y-360696900D01*
X576578985Y-360557519D01*
X576697519Y-360438985D01*
X576836900Y-360345853D01*
X576991772Y-360281703D01*
X577156184Y-360249000D01*
X577323816Y-360249000D01*
X577488228Y-360281703D01*
G37*
G36*
X562248228Y-360281703D02*
G01*
X562403100Y-360345853D01*
X562542481Y-360438985D01*
X562661015Y-360557519D01*
X562754147Y-360696900D01*
X562818297Y-360851772D01*
X562851000Y-361016184D01*
X562851000Y-361183816D01*
X562818297Y-361348228D01*
X562754147Y-361503100D01*
X562661015Y-361642481D01*
X562542481Y-361761015D01*
X562403100Y-361854147D01*
X562248228Y-361918297D01*
X562083816Y-361951000D01*
X561916184Y-361951000D01*
X561751772Y-361918297D01*
X561596900Y-361854147D01*
X561457519Y-361761015D01*
X561338985Y-361642481D01*
X561245853Y-361503100D01*
X561181703Y-361348228D01*
X561149000Y-361183816D01*
X561149000Y-361016184D01*
X561181703Y-360851772D01*
X561245853Y-360696900D01*
X561338985Y-360557519D01*
X561457519Y-360438985D01*
X561596900Y-360345853D01*
X561751772Y-360281703D01*
X561916184Y-360249000D01*
X562083816Y-360249000D01*
X562248228Y-360281703D01*
G37*
G36*
X534408228Y-357581703D02*
G01*
X534563100Y-357645853D01*
X534702481Y-357738985D01*
X534821015Y-357857519D01*
X534914147Y-357996900D01*
X534978297Y-358151772D01*
X535011000Y-358316184D01*
X535011000Y-358483816D01*
X534978297Y-358648228D01*
X534914147Y-358803100D01*
X534821015Y-358942481D01*
X534702481Y-359061015D01*
X534563100Y-359154147D01*
X534408228Y-359218297D01*
X534243816Y-359251000D01*
X534076184Y-359251000D01*
X533911772Y-359218297D01*
X533756900Y-359154147D01*
X533617519Y-359061015D01*
X533498985Y-358942481D01*
X533405853Y-358803100D01*
X533341703Y-358648228D01*
X533309000Y-358483816D01*
X533309000Y-358316184D01*
X533341703Y-358151772D01*
X533405853Y-357996900D01*
X533498985Y-357857519D01*
X533617519Y-357738985D01*
X533756900Y-357645853D01*
X533911772Y-357581703D01*
X534076184Y-357549000D01*
X534243816Y-357549000D01*
X534408228Y-357581703D01*
G37*
G36*
X549648228Y-357581703D02*
G01*
X549803100Y-357645853D01*
X549942481Y-357738985D01*
X550061015Y-357857519D01*
X550154147Y-357996900D01*
X550218297Y-358151772D01*
X550251000Y-358316184D01*
X550251000Y-358483816D01*
X550218297Y-358648228D01*
X550154147Y-358803100D01*
X550061015Y-358942481D01*
X549942481Y-359061015D01*
X549803100Y-359154147D01*
X549648228Y-359218297D01*
X549483816Y-359251000D01*
X549316184Y-359251000D01*
X549151772Y-359218297D01*
X548996900Y-359154147D01*
X548857519Y-359061015D01*
X548738985Y-358942481D01*
X548645853Y-358803100D01*
X548581703Y-358648228D01*
X548549000Y-358483816D01*
X548549000Y-358316184D01*
X548581703Y-358151772D01*
X548645853Y-357996900D01*
X548738985Y-357857519D01*
X548857519Y-357738985D01*
X548996900Y-357645853D01*
X549151772Y-357581703D01*
X549316184Y-357549000D01*
X549483816Y-357549000D01*
X549648228Y-357581703D01*
G37*
G36*
X581516551Y-357713492D02*
G01*
X581597470Y-357721462D01*
X581727252Y-357760831D01*
X581776645Y-357787233D01*
X581846860Y-357824763D01*
X581951699Y-357910801D01*
X582037737Y-358015640D01*
X582045947Y-358031000D01*
X582101669Y-358135248D01*
X582141038Y-358265030D01*
X582154331Y-358400000D01*
X582141038Y-358534970D01*
X582101669Y-358664752D01*
X582101666Y-358664757D01*
X582037737Y-358784360D01*
X581951699Y-358889199D01*
X581846860Y-358975237D01*
X581776645Y-359012767D01*
X581727252Y-359039169D01*
X581597470Y-359078538D01*
X581516551Y-359086508D01*
X581496322Y-359088500D01*
X580903678Y-359088500D01*
X580883449Y-359086508D01*
X580802530Y-359078538D01*
X580672748Y-359039169D01*
X580623355Y-359012767D01*
X580553140Y-358975237D01*
X580448301Y-358889199D01*
X580362263Y-358784360D01*
X580298334Y-358664757D01*
X580298331Y-358664752D01*
X580258962Y-358534970D01*
X580245669Y-358400000D01*
X580258962Y-358265030D01*
X580298331Y-358135248D01*
X580354053Y-358031000D01*
X580362263Y-358015640D01*
X580448301Y-357910801D01*
X580553140Y-357824763D01*
X580623355Y-357787233D01*
X580672748Y-357760831D01*
X580802530Y-357721462D01*
X580883449Y-357713492D01*
X580903678Y-357711500D01*
X581496322Y-357711500D01*
X581516551Y-357713492D01*
G37*
G36*
X554516551Y-357713492D02*
G01*
X554597470Y-357721462D01*
X554727252Y-357760831D01*
X554776645Y-357787233D01*
X554846860Y-357824763D01*
X554951699Y-357910801D01*
X555037737Y-358015640D01*
X555045947Y-358031000D01*
X555101669Y-358135248D01*
X555141038Y-358265030D01*
X555154331Y-358400000D01*
X555141038Y-358534970D01*
X555101669Y-358664752D01*
X555101666Y-358664757D01*
X555037737Y-358784360D01*
X554951699Y-358889199D01*
X554846860Y-358975237D01*
X554776645Y-359012767D01*
X554727252Y-359039169D01*
X554597470Y-359078538D01*
X554516551Y-359086508D01*
X554496322Y-359088500D01*
X553903678Y-359088500D01*
X553883449Y-359086508D01*
X553802530Y-359078538D01*
X553672748Y-359039169D01*
X553623355Y-359012767D01*
X553553140Y-358975237D01*
X553448301Y-358889199D01*
X553362263Y-358784360D01*
X553298334Y-358664757D01*
X553298331Y-358664752D01*
X553258962Y-358534970D01*
X553245669Y-358400000D01*
X553258962Y-358265030D01*
X553298331Y-358135248D01*
X553354053Y-358031000D01*
X553362263Y-358015640D01*
X553448301Y-357910801D01*
X553553140Y-357824763D01*
X553623355Y-357787233D01*
X553672748Y-357760831D01*
X553802530Y-357721462D01*
X553883449Y-357713492D01*
X553903678Y-357711500D01*
X554496322Y-357711500D01*
X554516551Y-357713492D01*
G37*
G36*
X602457473Y-355341371D02*
G01*
X602572353Y-355376220D01*
X602678228Y-355432811D01*
X602771029Y-355508971D01*
X602847189Y-355601772D01*
X602903780Y-355707647D01*
X602938629Y-355822527D01*
X602951000Y-355948140D01*
X602951000Y-357411860D01*
X602938629Y-357537473D01*
X602903780Y-357652353D01*
X602847189Y-357758228D01*
X602771029Y-357851029D01*
X602678228Y-357927189D01*
X602572353Y-357983780D01*
X602457473Y-358018629D01*
X602331860Y-358031000D01*
X600868140Y-358031000D01*
X600742527Y-358018629D01*
X600627647Y-357983780D01*
X600521772Y-357927189D01*
X600428971Y-357851029D01*
X600352811Y-357758228D01*
X600296220Y-357652353D01*
X600261371Y-357537473D01*
X600249000Y-357411860D01*
X600249000Y-355948140D01*
X600261371Y-355822527D01*
X600296220Y-355707647D01*
X600352811Y-355601772D01*
X600428971Y-355508971D01*
X600521772Y-355432811D01*
X600627647Y-355376220D01*
X600742527Y-355341371D01*
X600868140Y-355329000D01*
X602331860Y-355329000D01*
X602457473Y-355341371D01*
G37*
G36*
X615850680Y-357950680D02*
G01*
X613249320Y-357950680D01*
X613249320Y-355349320D01*
X615850680Y-355349320D01*
X615850680Y-357950680D01*
G37*
G36*
X618739393Y-355399304D02*
G01*
X618976101Y-355497352D01*
X618976103Y-355497353D01*
X619189135Y-355639696D01*
X619370304Y-355820865D01*
X619504338Y-356021462D01*
X619512648Y-356033899D01*
X619610696Y-356270607D01*
X619660680Y-356521893D01*
X619660680Y-356778107D01*
X619610696Y-357029393D01*
X619580165Y-357103100D01*
X619512647Y-357266103D01*
X619370304Y-357479135D01*
X619189135Y-357660304D01*
X618976103Y-357802647D01*
X618976102Y-357802648D01*
X618976101Y-357802648D01*
X618739393Y-357900696D01*
X618488107Y-357950680D01*
X618231893Y-357950680D01*
X617980607Y-357900696D01*
X617743899Y-357802648D01*
X617743898Y-357802648D01*
X617743897Y-357802647D01*
X617530865Y-357660304D01*
X617349696Y-357479135D01*
X617207353Y-357266103D01*
X617139835Y-357103100D01*
X617109304Y-357029393D01*
X617059320Y-356778107D01*
X617059320Y-356521893D01*
X617109304Y-356270607D01*
X617207352Y-356033899D01*
X617215662Y-356021462D01*
X617349696Y-355820865D01*
X617530865Y-355639696D01*
X617743897Y-355497353D01*
X617743899Y-355497352D01*
X617980607Y-355399304D01*
X618231893Y-355349320D01*
X618488107Y-355349320D01*
X618739393Y-355399304D01*
G37*
G36*
X577448228Y-355881703D02*
G01*
X577603100Y-355945853D01*
X577742481Y-356038985D01*
X577861015Y-356157519D01*
X577954147Y-356296900D01*
X578018297Y-356451772D01*
X578051000Y-356616184D01*
X578051000Y-356783816D01*
X578018297Y-356948228D01*
X577954147Y-357103100D01*
X577861015Y-357242481D01*
X577742481Y-357361015D01*
X577603100Y-357454147D01*
X577448228Y-357518297D01*
X577283816Y-357551000D01*
X577116184Y-357551000D01*
X576951772Y-357518297D01*
X576796900Y-357454147D01*
X576657519Y-357361015D01*
X576538985Y-357242481D01*
X576445853Y-357103100D01*
X576381703Y-356948228D01*
X576349000Y-356783816D01*
X576349000Y-356616184D01*
X576381703Y-356451772D01*
X576445853Y-356296900D01*
X576538985Y-356157519D01*
X576657519Y-356038985D01*
X576796900Y-355945853D01*
X576951772Y-355881703D01*
X577116184Y-355849000D01*
X577283816Y-355849000D01*
X577448228Y-355881703D01*
G37*
G36*
X562208228Y-355881703D02*
G01*
X562363100Y-355945853D01*
X562502481Y-356038985D01*
X562621015Y-356157519D01*
X562714147Y-356296900D01*
X562778297Y-356451772D01*
X562811000Y-356616184D01*
X562811000Y-356783816D01*
X562778297Y-356948228D01*
X562714147Y-357103100D01*
X562621015Y-357242481D01*
X562502481Y-357361015D01*
X562363100Y-357454147D01*
X562208228Y-357518297D01*
X562043816Y-357551000D01*
X561876184Y-357551000D01*
X561711772Y-357518297D01*
X561556900Y-357454147D01*
X561417519Y-357361015D01*
X561298985Y-357242481D01*
X561205853Y-357103100D01*
X561141703Y-356948228D01*
X561109000Y-356783816D01*
X561109000Y-356616184D01*
X561141703Y-356451772D01*
X561205853Y-356296900D01*
X561298985Y-356157519D01*
X561417519Y-356038985D01*
X561556900Y-355945853D01*
X561711772Y-355881703D01*
X561876184Y-355849000D01*
X562043816Y-355849000D01*
X562208228Y-355881703D01*
G37*
G36*
X554516551Y-356013492D02*
G01*
X554597470Y-356021462D01*
X554727252Y-356060831D01*
X554776645Y-356087233D01*
X554846860Y-356124763D01*
X554951699Y-356210801D01*
X555022360Y-356296903D01*
X555037736Y-356315639D01*
X555101669Y-356435248D01*
X555141038Y-356565030D01*
X555154331Y-356700000D01*
X555141038Y-356834970D01*
X555101669Y-356964752D01*
X555101666Y-356964757D01*
X555037737Y-357084360D01*
X554951699Y-357189199D01*
X554846860Y-357275237D01*
X554776645Y-357312767D01*
X554727252Y-357339169D01*
X554597470Y-357378538D01*
X554516551Y-357386508D01*
X554496322Y-357388500D01*
X553903678Y-357388500D01*
X553883449Y-357386508D01*
X553802530Y-357378538D01*
X553672748Y-357339169D01*
X553623355Y-357312767D01*
X553553140Y-357275237D01*
X553448301Y-357189199D01*
X553362263Y-357084360D01*
X553298334Y-356964757D01*
X553298331Y-356964752D01*
X553258962Y-356834970D01*
X553245669Y-356700000D01*
X553258962Y-356565030D01*
X553298331Y-356435248D01*
X553362264Y-356315639D01*
X553377640Y-356296903D01*
X553448301Y-356210801D01*
X553553140Y-356124763D01*
X553623355Y-356087233D01*
X553672748Y-356060831D01*
X553802530Y-356021462D01*
X553883449Y-356013492D01*
X553903678Y-356011500D01*
X554496322Y-356011500D01*
X554516551Y-356013492D01*
G37*
G36*
X581516551Y-356013492D02*
G01*
X581597470Y-356021462D01*
X581727252Y-356060831D01*
X581776645Y-356087233D01*
X581846860Y-356124763D01*
X581951699Y-356210801D01*
X582022360Y-356296903D01*
X582037736Y-356315639D01*
X582101669Y-356435248D01*
X582141038Y-356565030D01*
X582154331Y-356700000D01*
X582141038Y-356834970D01*
X582101669Y-356964752D01*
X582101666Y-356964757D01*
X582037737Y-357084360D01*
X581951699Y-357189199D01*
X581846860Y-357275237D01*
X581776645Y-357312767D01*
X581727252Y-357339169D01*
X581597470Y-357378538D01*
X581516551Y-357386508D01*
X581496322Y-357388500D01*
X580903678Y-357388500D01*
X580883449Y-357386508D01*
X580802530Y-357378538D01*
X580672748Y-357339169D01*
X580623355Y-357312767D01*
X580553140Y-357275237D01*
X580448301Y-357189199D01*
X580362263Y-357084360D01*
X580298334Y-356964757D01*
X580298331Y-356964752D01*
X580258962Y-356834970D01*
X580245669Y-356700000D01*
X580258962Y-356565030D01*
X580298331Y-356435248D01*
X580362264Y-356315639D01*
X580377640Y-356296903D01*
X580448301Y-356210801D01*
X580553140Y-356124763D01*
X580623355Y-356087233D01*
X580672748Y-356060831D01*
X580802530Y-356021462D01*
X580883449Y-356013492D01*
X580903678Y-356011500D01*
X581496322Y-356011500D01*
X581516551Y-356013492D01*
G37*
G36*
X530648228Y-354781703D02*
G01*
X530803100Y-354845853D01*
X530942481Y-354938985D01*
X531061015Y-355057519D01*
X531154147Y-355196900D01*
X531218297Y-355351772D01*
X531251000Y-355516184D01*
X531251000Y-355683816D01*
X531218297Y-355848228D01*
X531154147Y-356003100D01*
X531061015Y-356142481D01*
X530942481Y-356261015D01*
X530803100Y-356354147D01*
X530648228Y-356418297D01*
X530483816Y-356451000D01*
X530316184Y-356451000D01*
X530151772Y-356418297D01*
X529996900Y-356354147D01*
X529857519Y-356261015D01*
X529738985Y-356142481D01*
X529645853Y-356003100D01*
X529581703Y-355848228D01*
X529549000Y-355683816D01*
X529549000Y-355516184D01*
X529581703Y-355351772D01*
X529645853Y-355196900D01*
X529738985Y-355057519D01*
X529857519Y-354938985D01*
X529996900Y-354845853D01*
X530151772Y-354781703D01*
X530316184Y-354749000D01*
X530483816Y-354749000D01*
X530648228Y-354781703D01*
G37*
G36*
X534448228Y-354781703D02*
G01*
X534603100Y-354845853D01*
X534742481Y-354938985D01*
X534861015Y-355057519D01*
X534954147Y-355196900D01*
X535018297Y-355351772D01*
X535051000Y-355516184D01*
X535051000Y-355683816D01*
X535018297Y-355848228D01*
X534954147Y-356003100D01*
X534861015Y-356142481D01*
X534742481Y-356261015D01*
X534603100Y-356354147D01*
X534448228Y-356418297D01*
X534283816Y-356451000D01*
X534116184Y-356451000D01*
X533951772Y-356418297D01*
X533796900Y-356354147D01*
X533657519Y-356261015D01*
X533538985Y-356142481D01*
X533445853Y-356003100D01*
X533381703Y-355848228D01*
X533349000Y-355683816D01*
X533349000Y-355516184D01*
X533381703Y-355351772D01*
X533445853Y-355196900D01*
X533538985Y-355057519D01*
X533657519Y-354938985D01*
X533796900Y-354845853D01*
X533951772Y-354781703D01*
X534116184Y-354749000D01*
X534283816Y-354749000D01*
X534448228Y-354781703D01*
G37*
G36*
X581516551Y-354313492D02*
G01*
X581597470Y-354321462D01*
X581727252Y-354360831D01*
X581776645Y-354387233D01*
X581846860Y-354424763D01*
X581951699Y-354510801D01*
X582037736Y-354615639D01*
X582101669Y-354735248D01*
X582141038Y-354865030D01*
X582154331Y-355000000D01*
X582141038Y-355134970D01*
X582101669Y-355264752D01*
X582101666Y-355264757D01*
X582037737Y-355384360D01*
X581951699Y-355489199D01*
X581846860Y-355575237D01*
X581797216Y-355601772D01*
X581727252Y-355639169D01*
X581597470Y-355678538D01*
X581516551Y-355686508D01*
X581496322Y-355688500D01*
X580903678Y-355688500D01*
X580883449Y-355686508D01*
X580802530Y-355678538D01*
X580672748Y-355639169D01*
X580602784Y-355601772D01*
X580553140Y-355575237D01*
X580448301Y-355489199D01*
X580362263Y-355384360D01*
X580298334Y-355264757D01*
X580298331Y-355264752D01*
X580258962Y-355134970D01*
X580245669Y-355000000D01*
X580258962Y-354865030D01*
X580298331Y-354735248D01*
X580362264Y-354615639D01*
X580448301Y-354510801D01*
X580553140Y-354424763D01*
X580623355Y-354387233D01*
X580672748Y-354360831D01*
X580802530Y-354321462D01*
X580883449Y-354313492D01*
X580903678Y-354311500D01*
X581496322Y-354311500D01*
X581516551Y-354313492D01*
G37*
G36*
X554516551Y-354313492D02*
G01*
X554597470Y-354321462D01*
X554727252Y-354360831D01*
X554776645Y-354387233D01*
X554846860Y-354424763D01*
X554951699Y-354510801D01*
X555037736Y-354615639D01*
X555101669Y-354735248D01*
X555141038Y-354865030D01*
X555154331Y-355000000D01*
X555141038Y-355134970D01*
X555101669Y-355264752D01*
X555101666Y-355264757D01*
X555037737Y-355384360D01*
X554951699Y-355489199D01*
X554846860Y-355575237D01*
X554797216Y-355601772D01*
X554727252Y-355639169D01*
X554597470Y-355678538D01*
X554516551Y-355686508D01*
X554496322Y-355688500D01*
X553903678Y-355688500D01*
X553883449Y-355686508D01*
X553802530Y-355678538D01*
X553672748Y-355639169D01*
X553602784Y-355601772D01*
X553553140Y-355575237D01*
X553448301Y-355489199D01*
X553362263Y-355384360D01*
X553298334Y-355264757D01*
X553298331Y-355264752D01*
X553258962Y-355134970D01*
X553245669Y-355000000D01*
X553258962Y-354865030D01*
X553298331Y-354735248D01*
X553362264Y-354615639D01*
X553448301Y-354510801D01*
X553553140Y-354424763D01*
X553623355Y-354387233D01*
X553672748Y-354360831D01*
X553802530Y-354321462D01*
X553883449Y-354313492D01*
X553903678Y-354311500D01*
X554496322Y-354311500D01*
X554516551Y-354313492D01*
G37*
G36*
X554516551Y-352613492D02*
G01*
X554597470Y-352621462D01*
X554727252Y-352660831D01*
X554776645Y-352687233D01*
X554846860Y-352724763D01*
X554951699Y-352810801D01*
X555024148Y-352899082D01*
X555037736Y-352915639D01*
X555101669Y-353035248D01*
X555141038Y-353165030D01*
X555154331Y-353300000D01*
X555141038Y-353434970D01*
X555101669Y-353564752D01*
X555101666Y-353564757D01*
X555037737Y-353684360D01*
X554951699Y-353789199D01*
X554846860Y-353875237D01*
X554776645Y-353912767D01*
X554727252Y-353939169D01*
X554597470Y-353978538D01*
X554516551Y-353986508D01*
X554496322Y-353988500D01*
X553903678Y-353988500D01*
X553883449Y-353986508D01*
X553802530Y-353978538D01*
X553672748Y-353939169D01*
X553623355Y-353912767D01*
X553553140Y-353875237D01*
X553448301Y-353789199D01*
X553362263Y-353684360D01*
X553298334Y-353564757D01*
X553298331Y-353564752D01*
X553258962Y-353434970D01*
X553245669Y-353300000D01*
X553258962Y-353165030D01*
X553298331Y-353035248D01*
X553362264Y-352915639D01*
X553375852Y-352899082D01*
X553448301Y-352810801D01*
X553553140Y-352724763D01*
X553623355Y-352687233D01*
X553672748Y-352660831D01*
X553802530Y-352621462D01*
X553883449Y-352613492D01*
X553903678Y-352611500D01*
X554496322Y-352611500D01*
X554516551Y-352613492D01*
G37*
G36*
X581516551Y-352613492D02*
G01*
X581597470Y-352621462D01*
X581727252Y-352660831D01*
X581776645Y-352687233D01*
X581846860Y-352724763D01*
X581951699Y-352810801D01*
X582024148Y-352899082D01*
X582037736Y-352915639D01*
X582101669Y-353035248D01*
X582141038Y-353165030D01*
X582154331Y-353300000D01*
X582141038Y-353434970D01*
X582101669Y-353564752D01*
X582101666Y-353564757D01*
X582037737Y-353684360D01*
X581951699Y-353789199D01*
X581846860Y-353875237D01*
X581776645Y-353912767D01*
X581727252Y-353939169D01*
X581597470Y-353978538D01*
X581516551Y-353986508D01*
X581496322Y-353988500D01*
X580903678Y-353988500D01*
X580883449Y-353986508D01*
X580802530Y-353978538D01*
X580672748Y-353939169D01*
X580623355Y-353912767D01*
X580553140Y-353875237D01*
X580448301Y-353789199D01*
X580362263Y-353684360D01*
X580298334Y-353564757D01*
X580298331Y-353564752D01*
X580258962Y-353434970D01*
X580245669Y-353300000D01*
X580258962Y-353165030D01*
X580298331Y-353035248D01*
X580362264Y-352915639D01*
X580375852Y-352899082D01*
X580448301Y-352810801D01*
X580553140Y-352724763D01*
X580623355Y-352687233D01*
X580672748Y-352660831D01*
X580802530Y-352621462D01*
X580883449Y-352613492D01*
X580903678Y-352611500D01*
X581496322Y-352611500D01*
X581516551Y-352613492D01*
G37*
G36*
X601994072Y-350300918D02*
G01*
X602239939Y-350402759D01*
X602351328Y-350477187D01*
X602461211Y-350550609D01*
X602649391Y-350738789D01*
X602797242Y-350960063D01*
X602899082Y-351205928D01*
X602951000Y-351466937D01*
X602951000Y-351733063D01*
X602899082Y-351994072D01*
X602797242Y-352239937D01*
X602649391Y-352461211D01*
X602461211Y-352649391D01*
X602444085Y-352660834D01*
X602239939Y-352797241D01*
X602239938Y-352797242D01*
X602239937Y-352797242D01*
X601994072Y-352899082D01*
X601733063Y-352951000D01*
X601466937Y-352951000D01*
X601205928Y-352899082D01*
X600960063Y-352797242D01*
X600960062Y-352797242D01*
X600960061Y-352797241D01*
X600755915Y-352660834D01*
X600738789Y-352649391D01*
X600550609Y-352461211D01*
X600402758Y-352239937D01*
X600300918Y-351994072D01*
X600249000Y-351733063D01*
X600249000Y-351466937D01*
X600300918Y-351205928D01*
X600402758Y-350960063D01*
X600550609Y-350738789D01*
X600738789Y-350550609D01*
X600848672Y-350477187D01*
X600960061Y-350402759D01*
X601205928Y-350300918D01*
X601466937Y-350249000D01*
X601733063Y-350249000D01*
X601994072Y-350300918D01*
G37*
G36*
X582151000Y-352288500D02*
G01*
X580249000Y-352288500D01*
X580249000Y-350911500D01*
X582151000Y-350911500D01*
X582151000Y-352288500D01*
G37*
G36*
X555151000Y-352288500D02*
G01*
X553249000Y-352288500D01*
X553249000Y-350911500D01*
X555151000Y-350911500D01*
X555151000Y-352288500D01*
G37*
G36*
X480926585Y-347832802D02*
G01*
X481076410Y-347862604D01*
X481358674Y-347979521D01*
X481612705Y-348149259D01*
X481828741Y-348365295D01*
X481998479Y-348619326D01*
X482115396Y-348901590D01*
X482175000Y-349201240D01*
X482175000Y-349506760D01*
X482115396Y-349806410D01*
X481998479Y-350088674D01*
X481828741Y-350342705D01*
X481612705Y-350558741D01*
X481358674Y-350728479D01*
X481076410Y-350845396D01*
X480926585Y-350875198D01*
X480776761Y-350905000D01*
X480471239Y-350905000D01*
X480321415Y-350875198D01*
X480171590Y-350845396D01*
X479889326Y-350728479D01*
X479635295Y-350558741D01*
X479419259Y-350342705D01*
X479249521Y-350088674D01*
X479132604Y-349806410D01*
X479073000Y-349506760D01*
X479073000Y-349201240D01*
X479132604Y-348901590D01*
X479249521Y-348619326D01*
X479419259Y-348365295D01*
X479635295Y-348149259D01*
X479889326Y-347979521D01*
X480171590Y-347862604D01*
X480321415Y-347832802D01*
X480471239Y-347803000D01*
X480776761Y-347803000D01*
X480926585Y-347832802D01*
G37*
G36*
X499026585Y-347832802D02*
G01*
X499176410Y-347862604D01*
X499458674Y-347979521D01*
X499712705Y-348149259D01*
X499928741Y-348365295D01*
X500098479Y-348619326D01*
X500215396Y-348901590D01*
X500275000Y-349201240D01*
X500275000Y-349506760D01*
X500215396Y-349806410D01*
X500098479Y-350088674D01*
X499928741Y-350342705D01*
X499712705Y-350558741D01*
X499458674Y-350728479D01*
X499176410Y-350845396D01*
X499026585Y-350875198D01*
X498876761Y-350905000D01*
X498571239Y-350905000D01*
X498421415Y-350875198D01*
X498271590Y-350845396D01*
X497989326Y-350728479D01*
X497735295Y-350558741D01*
X497519259Y-350342705D01*
X497349521Y-350088674D01*
X497232604Y-349806410D01*
X497173000Y-349506760D01*
X497173000Y-349201240D01*
X497232604Y-348901590D01*
X497349521Y-348619326D01*
X497519259Y-348365295D01*
X497735295Y-348149259D01*
X497989326Y-347979521D01*
X498271590Y-347862604D01*
X498421415Y-347832802D01*
X498571239Y-347803000D01*
X498876761Y-347803000D01*
X499026585Y-347832802D01*
G37*
G36*
X485406585Y-347832802D02*
G01*
X485556410Y-347862604D01*
X485838674Y-347979521D01*
X486092705Y-348149259D01*
X486308741Y-348365295D01*
X486478479Y-348619326D01*
X486595396Y-348901590D01*
X486655000Y-349201240D01*
X486655000Y-349506760D01*
X486595396Y-349806410D01*
X486478479Y-350088674D01*
X486308741Y-350342705D01*
X486092705Y-350558741D01*
X485838674Y-350728479D01*
X485556410Y-350845396D01*
X485406585Y-350875198D01*
X485256761Y-350905000D01*
X484951239Y-350905000D01*
X484801415Y-350875198D01*
X484651590Y-350845396D01*
X484369326Y-350728479D01*
X484115295Y-350558741D01*
X483899259Y-350342705D01*
X483729521Y-350088674D01*
X483612604Y-349806410D01*
X483553000Y-349506760D01*
X483553000Y-349201240D01*
X483612604Y-348901590D01*
X483729521Y-348619326D01*
X483899259Y-348365295D01*
X484115295Y-348149259D01*
X484369326Y-347979521D01*
X484651590Y-347862604D01*
X484801415Y-347832802D01*
X484951239Y-347803000D01*
X485256761Y-347803000D01*
X485406585Y-347832802D01*
G37*
G36*
X503626585Y-347832802D02*
G01*
X503776410Y-347862604D01*
X504058674Y-347979521D01*
X504312705Y-348149259D01*
X504528741Y-348365295D01*
X504698479Y-348619326D01*
X504815396Y-348901590D01*
X504875000Y-349201240D01*
X504875000Y-349506760D01*
X504815396Y-349806410D01*
X504698479Y-350088674D01*
X504528741Y-350342705D01*
X504312705Y-350558741D01*
X504058674Y-350728479D01*
X503776410Y-350845396D01*
X503626585Y-350875198D01*
X503476761Y-350905000D01*
X503171239Y-350905000D01*
X503021415Y-350875198D01*
X502871590Y-350845396D01*
X502589326Y-350728479D01*
X502335295Y-350558741D01*
X502119259Y-350342705D01*
X501949521Y-350088674D01*
X501832604Y-349806410D01*
X501773000Y-349506760D01*
X501773000Y-349201240D01*
X501832604Y-348901590D01*
X501949521Y-348619326D01*
X502119259Y-348365295D01*
X502335295Y-348149259D01*
X502589326Y-347979521D01*
X502871590Y-347862604D01*
X503021415Y-347832802D01*
X503171239Y-347803000D01*
X503476761Y-347803000D01*
X503626585Y-347832802D01*
G37*
G36*
X477675000Y-350905000D02*
G01*
X474573000Y-350905000D01*
X474573000Y-347803000D01*
X477675000Y-347803000D01*
X477675000Y-350905000D01*
G37*
G36*
X489946585Y-347832802D02*
G01*
X490096410Y-347862604D01*
X490378674Y-347979521D01*
X490632705Y-348149259D01*
X490848741Y-348365295D01*
X491018479Y-348619326D01*
X491135396Y-348901590D01*
X491195000Y-349201240D01*
X491195000Y-349506760D01*
X491135396Y-349806410D01*
X491018479Y-350088674D01*
X490848741Y-350342705D01*
X490632705Y-350558741D01*
X490378674Y-350728479D01*
X490096410Y-350845396D01*
X489946585Y-350875198D01*
X489796761Y-350905000D01*
X489491239Y-350905000D01*
X489341415Y-350875198D01*
X489191590Y-350845396D01*
X488909326Y-350728479D01*
X488655295Y-350558741D01*
X488439259Y-350342705D01*
X488269521Y-350088674D01*
X488152604Y-349806410D01*
X488093000Y-349506760D01*
X488093000Y-349201240D01*
X488152604Y-348901590D01*
X488269521Y-348619326D01*
X488439259Y-348365295D01*
X488655295Y-348149259D01*
X488909326Y-347979521D01*
X489191590Y-347862604D01*
X489341415Y-347832802D01*
X489491239Y-347803000D01*
X489796761Y-347803000D01*
X489946585Y-347832802D01*
G37*
G36*
X494486585Y-347832802D02*
G01*
X494636410Y-347862604D01*
X494918674Y-347979521D01*
X495172705Y-348149259D01*
X495388741Y-348365295D01*
X495558479Y-348619326D01*
X495675396Y-348901590D01*
X495735000Y-349201240D01*
X495735000Y-349506760D01*
X495675396Y-349806410D01*
X495558479Y-350088674D01*
X495388741Y-350342705D01*
X495172705Y-350558741D01*
X494918674Y-350728479D01*
X494636410Y-350845396D01*
X494486585Y-350875198D01*
X494336761Y-350905000D01*
X494031239Y-350905000D01*
X493881415Y-350875198D01*
X493731590Y-350845396D01*
X493449326Y-350728479D01*
X493195295Y-350558741D01*
X492979259Y-350342705D01*
X492809521Y-350088674D01*
X492692604Y-349806410D01*
X492633000Y-349506760D01*
X492633000Y-349201240D01*
X492692604Y-348901590D01*
X492809521Y-348619326D01*
X492979259Y-348365295D01*
X493195295Y-348149259D01*
X493449326Y-347979521D01*
X493731590Y-347862604D01*
X493881415Y-347832802D01*
X494031239Y-347803000D01*
X494336761Y-347803000D01*
X494486585Y-347832802D01*
G37*
G36*
X584802585Y-340678802D02*
G01*
X584952410Y-340708604D01*
X585234674Y-340825521D01*
X585488705Y-340995259D01*
X585704741Y-341211295D01*
X585874479Y-341465326D01*
X585991396Y-341747590D01*
X586051000Y-342047240D01*
X586051000Y-342352760D01*
X585991396Y-342652410D01*
X585874479Y-342934674D01*
X585704741Y-343188705D01*
X585488705Y-343404741D01*
X585234674Y-343574479D01*
X584952410Y-343691396D01*
X584802585Y-343721198D01*
X584652761Y-343751000D01*
X584347239Y-343751000D01*
X584197415Y-343721198D01*
X584047590Y-343691396D01*
X583765326Y-343574479D01*
X583511295Y-343404741D01*
X583295259Y-343188705D01*
X583125521Y-342934674D01*
X583008604Y-342652410D01*
X582949000Y-342352760D01*
X582949000Y-342047240D01*
X583008604Y-341747590D01*
X583125521Y-341465326D01*
X583295259Y-341211295D01*
X583511295Y-340995259D01*
X583765326Y-340825521D01*
X584047590Y-340708604D01*
X584197415Y-340678802D01*
X584347239Y-340649000D01*
X584652761Y-340649000D01*
X584802585Y-340678802D01*
G37*
G36*
X557802585Y-340678802D02*
G01*
X557952410Y-340708604D01*
X558234674Y-340825521D01*
X558488705Y-340995259D01*
X558704741Y-341211295D01*
X558874479Y-341465326D01*
X558991396Y-341747590D01*
X559051000Y-342047240D01*
X559051000Y-342352760D01*
X558991396Y-342652410D01*
X558874479Y-342934674D01*
X558704741Y-343188705D01*
X558488705Y-343404741D01*
X558234674Y-343574479D01*
X557952410Y-343691396D01*
X557802585Y-343721198D01*
X557652761Y-343751000D01*
X557347239Y-343751000D01*
X557197415Y-343721198D01*
X557047590Y-343691396D01*
X556765326Y-343574479D01*
X556511295Y-343404741D01*
X556295259Y-343188705D01*
X556125521Y-342934674D01*
X556008604Y-342652410D01*
X555949000Y-342352760D01*
X555949000Y-342047240D01*
X556008604Y-341747590D01*
X556125521Y-341465326D01*
X556295259Y-341211295D01*
X556511295Y-340995259D01*
X556765326Y-340825521D01*
X557047590Y-340708604D01*
X557197415Y-340678802D01*
X557347239Y-340649000D01*
X557652761Y-340649000D01*
X557802585Y-340678802D01*
G37*
G36*
X530648228Y-339541703D02*
G01*
X530803100Y-339605853D01*
X530942481Y-339698985D01*
X531061015Y-339817519D01*
X531154147Y-339956900D01*
X531218297Y-340111772D01*
X531251000Y-340276184D01*
X531251000Y-340443816D01*
X531218297Y-340608228D01*
X531154147Y-340763100D01*
X531061015Y-340902481D01*
X530942481Y-341021015D01*
X530803100Y-341114147D01*
X530648228Y-341178297D01*
X530483816Y-341211000D01*
X530316184Y-341211000D01*
X530151772Y-341178297D01*
X529996900Y-341114147D01*
X529857519Y-341021015D01*
X529738985Y-340902481D01*
X529645853Y-340763100D01*
X529581703Y-340608228D01*
X529549000Y-340443816D01*
X529549000Y-340276184D01*
X529581703Y-340111772D01*
X529645853Y-339956900D01*
X529738985Y-339817519D01*
X529857519Y-339698985D01*
X529996900Y-339605853D01*
X530151772Y-339541703D01*
X530316184Y-339509000D01*
X530483816Y-339509000D01*
X530648228Y-339541703D01*
G37*
G36*
X534448228Y-339541703D02*
G01*
X534603100Y-339605853D01*
X534742481Y-339698985D01*
X534861015Y-339817519D01*
X534954147Y-339956900D01*
X535018297Y-340111772D01*
X535051000Y-340276184D01*
X535051000Y-340443816D01*
X535018297Y-340608228D01*
X534954147Y-340763100D01*
X534861015Y-340902481D01*
X534742481Y-341021015D01*
X534603100Y-341114147D01*
X534448228Y-341178297D01*
X534283816Y-341211000D01*
X534116184Y-341211000D01*
X533951772Y-341178297D01*
X533796900Y-341114147D01*
X533657519Y-341021015D01*
X533538985Y-340902481D01*
X533445853Y-340763100D01*
X533381703Y-340608228D01*
X533349000Y-340443816D01*
X533349000Y-340276184D01*
X533381703Y-340111772D01*
X533445853Y-339956900D01*
X533538985Y-339817519D01*
X533657519Y-339698985D01*
X533796900Y-339605853D01*
X533951772Y-339541703D01*
X534116184Y-339509000D01*
X534283816Y-339509000D01*
X534448228Y-339541703D01*
G37*
G36*
X618639393Y-333649304D02*
G01*
X618876101Y-333747352D01*
X618876103Y-333747353D01*
X619089135Y-333889696D01*
X619270304Y-334070865D01*
X619412647Y-334283897D01*
X619412648Y-334283899D01*
X619510696Y-334520607D01*
X619560680Y-334771893D01*
X619560680Y-335028107D01*
X619510696Y-335279393D01*
X619412648Y-335516101D01*
X619412647Y-335516103D01*
X619270304Y-335729135D01*
X619089135Y-335910304D01*
X618876103Y-336052647D01*
X618876102Y-336052648D01*
X618876101Y-336052648D01*
X618639393Y-336150696D01*
X618388107Y-336200680D01*
X618131893Y-336200680D01*
X617880607Y-336150696D01*
X617643899Y-336052648D01*
X617643898Y-336052648D01*
X617643897Y-336052647D01*
X617430865Y-335910304D01*
X617249696Y-335729135D01*
X617107353Y-335516103D01*
X617107352Y-335516101D01*
X617009304Y-335279393D01*
X616959320Y-335028107D01*
X616959320Y-334771893D01*
X617009304Y-334520607D01*
X617107352Y-334283899D01*
X617107353Y-334283897D01*
X617249696Y-334070865D01*
X617430865Y-333889696D01*
X617643897Y-333747353D01*
X617643899Y-333747352D01*
X617880607Y-333649304D01*
X618131893Y-333599320D01*
X618388107Y-333599320D01*
X618639393Y-333649304D01*
G37*
G36*
X615750680Y-336200680D02*
G01*
X613149320Y-336200680D01*
X613149320Y-333599320D01*
X615750680Y-333599320D01*
X615750680Y-336200680D01*
G37*
G36*
X486375256Y-329631298D02*
G01*
X486481579Y-329652447D01*
X486782042Y-329776903D01*
X487052451Y-329957585D01*
X487282415Y-330187549D01*
X487463097Y-330457958D01*
X487587553Y-330758421D01*
X487651000Y-331077391D01*
X487651000Y-331402609D01*
X487587553Y-331721579D01*
X487463097Y-332022042D01*
X487282415Y-332292451D01*
X487052451Y-332522415D01*
X486782042Y-332703097D01*
X486481579Y-332827553D01*
X486375256Y-332848702D01*
X486162611Y-332891000D01*
X485837389Y-332891000D01*
X485624744Y-332848702D01*
X485518421Y-332827553D01*
X485217958Y-332703097D01*
X484947549Y-332522415D01*
X484717585Y-332292451D01*
X484536903Y-332022042D01*
X484412447Y-331721579D01*
X484349000Y-331402609D01*
X484349000Y-331077391D01*
X484412447Y-330758421D01*
X484536903Y-330457958D01*
X484717585Y-330187549D01*
X484947549Y-329957585D01*
X485217958Y-329776903D01*
X485518421Y-329652447D01*
X485624744Y-329631298D01*
X485837389Y-329589000D01*
X486162611Y-329589000D01*
X486375256Y-329631298D01*
G37*
G36*
X486375256Y-324551298D02*
G01*
X486481579Y-324572447D01*
X486782042Y-324696903D01*
X487052451Y-324877585D01*
X487282415Y-325107549D01*
X487463097Y-325377958D01*
X487587553Y-325678421D01*
X487651000Y-325997391D01*
X487651000Y-326322609D01*
X487587553Y-326641579D01*
X487463097Y-326942042D01*
X487282415Y-327212451D01*
X487052451Y-327442415D01*
X486782042Y-327623097D01*
X486481579Y-327747553D01*
X486375256Y-327768702D01*
X486162611Y-327811000D01*
X485837389Y-327811000D01*
X485624744Y-327768702D01*
X485518421Y-327747553D01*
X485217958Y-327623097D01*
X484947549Y-327442415D01*
X484717585Y-327212451D01*
X484536903Y-326942042D01*
X484412447Y-326641579D01*
X484349000Y-326322609D01*
X484349000Y-325997391D01*
X484412447Y-325678421D01*
X484536903Y-325377958D01*
X484717585Y-325107549D01*
X484947549Y-324877585D01*
X485217958Y-324696903D01*
X485518421Y-324572447D01*
X485624744Y-324551298D01*
X485837389Y-324509000D01*
X486162611Y-324509000D01*
X486375256Y-324551298D01*
G37*
G36*
X486375256Y-319471298D02*
G01*
X486481579Y-319492447D01*
X486782042Y-319616903D01*
X487052451Y-319797585D01*
X487282415Y-320027549D01*
X487463097Y-320297958D01*
X487587553Y-320598421D01*
X487651000Y-320917391D01*
X487651000Y-321242609D01*
X487587553Y-321561579D01*
X487463097Y-321862042D01*
X487282415Y-322132451D01*
X487052451Y-322362415D01*
X486782042Y-322543097D01*
X486481579Y-322667553D01*
X486375256Y-322688702D01*
X486162611Y-322731000D01*
X485837389Y-322731000D01*
X485624744Y-322688702D01*
X485518421Y-322667553D01*
X485217958Y-322543097D01*
X484947549Y-322362415D01*
X484717585Y-322132451D01*
X484536903Y-321862042D01*
X484412447Y-321561579D01*
X484349000Y-321242609D01*
X484349000Y-320917391D01*
X484412447Y-320598421D01*
X484536903Y-320297958D01*
X484717585Y-320027549D01*
X484947549Y-319797585D01*
X485217958Y-319616903D01*
X485518421Y-319492447D01*
X485624744Y-319471298D01*
X485837389Y-319429000D01*
X486162611Y-319429000D01*
X486375256Y-319471298D01*
G37*
G36*
X521451000Y-322451000D02*
G01*
X518949000Y-322451000D01*
X518949000Y-319949000D01*
X521451000Y-319949000D01*
X521451000Y-322451000D01*
G37*
G36*
X509151000Y-322251000D02*
G01*
X507049000Y-322251000D01*
X507049000Y-320149000D01*
X509151000Y-320149000D01*
X509151000Y-322251000D01*
G37*
G36*
X498051000Y-322251000D02*
G01*
X495949000Y-322251000D01*
X495949000Y-320149000D01*
X498051000Y-320149000D01*
X498051000Y-322251000D01*
G37*
G36*
X487651000Y-317651000D02*
G01*
X484349000Y-317651000D01*
X484349000Y-314349000D01*
X487651000Y-314349000D01*
X487651000Y-317651000D01*
G37*
G36*
X520564903Y-314997075D02*
G01*
X520792571Y-315091378D01*
X520997466Y-315228285D01*
X521171715Y-315402534D01*
X521308622Y-315607429D01*
X521402925Y-315835097D01*
X521451000Y-316076787D01*
X521451000Y-316323213D01*
X521402925Y-316564903D01*
X521308622Y-316792571D01*
X521171715Y-316997466D01*
X520997466Y-317171715D01*
X520792571Y-317308622D01*
X520792570Y-317308623D01*
X520792569Y-317308623D01*
X520564903Y-317402925D01*
X520323214Y-317451000D01*
X520076786Y-317451000D01*
X519835097Y-317402925D01*
X519607431Y-317308623D01*
X519607430Y-317308623D01*
X519607429Y-317308622D01*
X519402534Y-317171715D01*
X519228285Y-316997466D01*
X519091378Y-316792571D01*
X518997075Y-316564903D01*
X518949000Y-316323213D01*
X518949000Y-316076787D01*
X518997075Y-315835097D01*
X519091378Y-315607429D01*
X519228285Y-315402534D01*
X519402534Y-315228285D01*
X519607429Y-315091378D01*
X519835097Y-314997075D01*
X520076786Y-314949000D01*
X520323214Y-314949000D01*
X520564903Y-314997075D01*
G37*
G36*
X497306564Y-315189389D02*
G01*
X497497833Y-315268615D01*
X497497835Y-315268616D01*
X497581440Y-315324479D01*
X497669973Y-315383635D01*
X497816365Y-315530027D01*
X497931385Y-315702167D01*
X498010611Y-315893436D01*
X498051000Y-316096484D01*
X498051000Y-316303516D01*
X498010611Y-316506564D01*
X497986446Y-316564903D01*
X497931384Y-316697835D01*
X497816365Y-316869973D01*
X497669973Y-317016365D01*
X497497835Y-317131384D01*
X497497834Y-317131385D01*
X497497833Y-317131385D01*
X497306564Y-317210611D01*
X497103516Y-317251000D01*
X496896484Y-317251000D01*
X496693436Y-317210611D01*
X496502167Y-317131385D01*
X496502166Y-317131385D01*
X496502165Y-317131384D01*
X496330027Y-317016365D01*
X496183635Y-316869973D01*
X496068616Y-316697835D01*
X496013554Y-316564903D01*
X495989389Y-316506564D01*
X495949000Y-316303516D01*
X495949000Y-316096484D01*
X495989389Y-315893436D01*
X496068615Y-315702167D01*
X496183635Y-315530027D01*
X496330027Y-315383635D01*
X496418560Y-315324479D01*
X496502165Y-315268616D01*
X496502167Y-315268615D01*
X496693436Y-315189389D01*
X496896484Y-315149000D01*
X497103516Y-315149000D01*
X497306564Y-315189389D01*
G37*
G36*
X508406564Y-315189389D02*
G01*
X508597833Y-315268615D01*
X508597835Y-315268616D01*
X508681440Y-315324479D01*
X508769973Y-315383635D01*
X508916365Y-315530027D01*
X509031385Y-315702167D01*
X509110611Y-315893436D01*
X509151000Y-316096484D01*
X509151000Y-316303516D01*
X509110611Y-316506564D01*
X509086446Y-316564903D01*
X509031384Y-316697835D01*
X508916365Y-316869973D01*
X508769973Y-317016365D01*
X508597835Y-317131384D01*
X508597834Y-317131385D01*
X508597833Y-317131385D01*
X508406564Y-317210611D01*
X508203516Y-317251000D01*
X507996484Y-317251000D01*
X507793436Y-317210611D01*
X507602167Y-317131385D01*
X507602166Y-317131385D01*
X507602165Y-317131384D01*
X507430027Y-317016365D01*
X507283635Y-316869973D01*
X507168616Y-316697835D01*
X507113554Y-316564903D01*
X507089389Y-316506564D01*
X507049000Y-316303516D01*
X507049000Y-316096484D01*
X507089389Y-315893436D01*
X507168615Y-315702167D01*
X507283635Y-315530027D01*
X507430027Y-315383635D01*
X507518560Y-315324479D01*
X507602165Y-315268616D01*
X507602167Y-315268615D01*
X507793436Y-315189389D01*
X507996484Y-315149000D01*
X508203516Y-315149000D01*
X508406564Y-315189389D01*
G37*
G36*
X607102585Y-312428802D02*
G01*
X607252410Y-312458604D01*
X607534674Y-312575521D01*
X607788705Y-312745259D01*
X608004741Y-312961295D01*
X608174479Y-313215326D01*
X608291396Y-313497590D01*
X608291396Y-313497591D01*
X608351000Y-313797239D01*
X608351000Y-314102761D01*
X608348887Y-314113383D01*
X608291396Y-314402410D01*
X608174479Y-314684674D01*
X608004741Y-314938705D01*
X607788705Y-315154741D01*
X607534674Y-315324479D01*
X607252410Y-315441396D01*
X607102585Y-315471198D01*
X606952761Y-315501000D01*
X606647239Y-315501000D01*
X606497415Y-315471198D01*
X606347590Y-315441396D01*
X606065326Y-315324479D01*
X605811295Y-315154741D01*
X605595259Y-314938705D01*
X605425521Y-314684674D01*
X605308604Y-314402410D01*
X605251113Y-314113383D01*
X605249000Y-314102761D01*
X605249000Y-313797239D01*
X605308604Y-313497591D01*
X605308604Y-313497590D01*
X605425521Y-313215326D01*
X605595259Y-312961295D01*
X605811295Y-312745259D01*
X606065326Y-312575521D01*
X606347590Y-312458604D01*
X606497415Y-312428802D01*
X606647239Y-312399000D01*
X606952761Y-312399000D01*
X607102585Y-312428802D01*
G37*
G36*
X634302585Y-312428802D02*
G01*
X634452410Y-312458604D01*
X634734674Y-312575521D01*
X634988705Y-312745259D01*
X635204741Y-312961295D01*
X635374479Y-313215326D01*
X635491396Y-313497590D01*
X635491396Y-313497591D01*
X635551000Y-313797239D01*
X635551000Y-314102761D01*
X635548887Y-314113383D01*
X635491396Y-314402410D01*
X635374479Y-314684674D01*
X635204741Y-314938705D01*
X634988705Y-315154741D01*
X634734674Y-315324479D01*
X634452410Y-315441396D01*
X634302585Y-315471198D01*
X634152761Y-315501000D01*
X633847239Y-315501000D01*
X633697415Y-315471198D01*
X633547590Y-315441396D01*
X633265326Y-315324479D01*
X633011295Y-315154741D01*
X632795259Y-314938705D01*
X632625521Y-314684674D01*
X632508604Y-314402410D01*
X632451113Y-314113383D01*
X632449000Y-314102761D01*
X632449000Y-313797239D01*
X632508604Y-313497591D01*
X632508604Y-313497590D01*
X632625521Y-313215326D01*
X632795259Y-312961295D01*
X633011295Y-312745259D01*
X633265326Y-312575521D01*
X633547590Y-312458604D01*
X633697415Y-312428802D01*
X633847239Y-312399000D01*
X634152761Y-312399000D01*
X634302585Y-312428802D01*
G37*
G36*
X572736719Y-312643520D02*
G01*
X572925880Y-312700901D01*
X572925883Y-312700902D01*
X573008868Y-312745259D01*
X573100212Y-312794083D01*
X573253015Y-312919485D01*
X573378417Y-313072288D01*
X573471599Y-313246619D01*
X573528980Y-313435780D01*
X573543500Y-313583206D01*
X573543500Y-313776793D01*
X573528980Y-313924219D01*
X573474820Y-314102761D01*
X573471598Y-314113383D01*
X573422182Y-314205833D01*
X573378417Y-314287712D01*
X573253015Y-314440515D01*
X573100212Y-314565917D01*
X572925881Y-314659099D01*
X572736720Y-314716480D01*
X572540000Y-314735855D01*
X572343281Y-314716480D01*
X572154120Y-314659099D01*
X571979788Y-314565917D01*
X571826985Y-314440515D01*
X571701583Y-314287712D01*
X571608401Y-314113381D01*
X571551020Y-313924220D01*
X571536500Y-313776794D01*
X571536500Y-313583207D01*
X571551020Y-313435781D01*
X571608401Y-313246620D01*
X571608402Y-313246617D01*
X571657818Y-313154167D01*
X571701583Y-313072288D01*
X571826985Y-312919485D01*
X571979788Y-312794083D01*
X572154119Y-312700901D01*
X572343280Y-312643520D01*
X572540000Y-312624145D01*
X572736719Y-312643520D01*
G37*
G36*
X570196719Y-312643520D02*
G01*
X570385880Y-312700901D01*
X570385883Y-312700902D01*
X570468868Y-312745259D01*
X570560212Y-312794083D01*
X570713015Y-312919485D01*
X570838417Y-313072288D01*
X570931599Y-313246619D01*
X570988980Y-313435780D01*
X571003500Y-313583206D01*
X571003500Y-313776793D01*
X570988980Y-313924219D01*
X570934820Y-314102761D01*
X570931598Y-314113383D01*
X570882182Y-314205833D01*
X570838417Y-314287712D01*
X570713015Y-314440515D01*
X570560212Y-314565917D01*
X570385881Y-314659099D01*
X570196720Y-314716480D01*
X570000000Y-314735855D01*
X569803281Y-314716480D01*
X569614120Y-314659099D01*
X569439788Y-314565917D01*
X569286985Y-314440515D01*
X569161583Y-314287712D01*
X569068401Y-314113381D01*
X569011020Y-313924220D01*
X568996500Y-313776794D01*
X568996500Y-313583207D01*
X569011020Y-313435781D01*
X569068401Y-313246620D01*
X569068402Y-313246617D01*
X569117818Y-313154167D01*
X569161583Y-313072288D01*
X569286985Y-312919485D01*
X569439788Y-312794083D01*
X569614119Y-312700901D01*
X569803280Y-312643520D01*
X570000000Y-312624145D01*
X570196719Y-312643520D01*
G37*
G36*
X568463500Y-314731000D02*
G01*
X566456500Y-314731000D01*
X566456500Y-312629000D01*
X568463500Y-312629000D01*
X568463500Y-314731000D01*
G37*
G36*
X557302585Y-308478802D02*
G01*
X557452410Y-308508604D01*
X557734674Y-308625521D01*
X557988705Y-308795259D01*
X558204741Y-309011295D01*
X558374479Y-309265326D01*
X558491396Y-309547590D01*
X558551000Y-309847240D01*
X558551000Y-310152760D01*
X558491396Y-310452410D01*
X558374479Y-310734674D01*
X558204741Y-310988705D01*
X557988705Y-311204741D01*
X557734674Y-311374479D01*
X557452410Y-311491396D01*
X557302585Y-311521198D01*
X557152761Y-311551000D01*
X556847239Y-311551000D01*
X556697415Y-311521198D01*
X556547590Y-311491396D01*
X556265326Y-311374479D01*
X556011295Y-311204741D01*
X555795259Y-310988705D01*
X555625521Y-310734674D01*
X555508604Y-310452410D01*
X555449000Y-310152760D01*
X555449000Y-309847240D01*
X555508604Y-309547590D01*
X555625521Y-309265326D01*
X555795259Y-309011295D01*
X556011295Y-308795259D01*
X556265326Y-308625521D01*
X556547590Y-308508604D01*
X556697415Y-308478802D01*
X556847239Y-308449000D01*
X557152761Y-308449000D01*
X557302585Y-308478802D01*
G37*
G36*
X582902585Y-308478802D02*
G01*
X583052410Y-308508604D01*
X583334674Y-308625521D01*
X583588705Y-308795259D01*
X583804741Y-309011295D01*
X583974479Y-309265326D01*
X584091396Y-309547590D01*
X584151000Y-309847240D01*
X584151000Y-310152760D01*
X584091396Y-310452410D01*
X583974479Y-310734674D01*
X583804741Y-310988705D01*
X583588705Y-311204741D01*
X583334674Y-311374479D01*
X583052410Y-311491396D01*
X582902585Y-311521198D01*
X582752761Y-311551000D01*
X582447239Y-311551000D01*
X582297415Y-311521198D01*
X582147590Y-311491396D01*
X581865326Y-311374479D01*
X581611295Y-311204741D01*
X581395259Y-310988705D01*
X581225521Y-310734674D01*
X581108604Y-310452410D01*
X581049000Y-310152760D01*
X581049000Y-309847240D01*
X581108604Y-309547590D01*
X581225521Y-309265326D01*
X581395259Y-309011295D01*
X581611295Y-308795259D01*
X581865326Y-308625521D01*
X582147590Y-308508604D01*
X582297415Y-308478802D01*
X582447239Y-308449000D01*
X582752761Y-308449000D01*
X582902585Y-308478802D01*
G37*
G36*
X498051000Y-309951000D02*
G01*
X495949000Y-309951000D01*
X495949000Y-307849000D01*
X498051000Y-307849000D01*
X498051000Y-309951000D01*
G37*
G36*
X497306564Y-302889389D02*
G01*
X497497833Y-302968615D01*
X497497835Y-302968616D01*
X497669973Y-303083635D01*
X497816365Y-303230027D01*
X497931385Y-303402167D01*
X498010611Y-303593436D01*
X498051000Y-303796484D01*
X498051000Y-304003516D01*
X498010611Y-304206564D01*
X497934542Y-304390211D01*
X497931384Y-304397835D01*
X497816365Y-304569973D01*
X497669973Y-304716365D01*
X497497835Y-304831384D01*
X497497834Y-304831385D01*
X497497833Y-304831385D01*
X497306564Y-304910611D01*
X497103516Y-304951000D01*
X496896484Y-304951000D01*
X496693436Y-304910611D01*
X496502167Y-304831385D01*
X496502166Y-304831385D01*
X496502165Y-304831384D01*
X496330027Y-304716365D01*
X496183635Y-304569973D01*
X496068616Y-304397835D01*
X496065458Y-304390211D01*
X495989389Y-304206564D01*
X495949000Y-304003516D01*
X495949000Y-303796484D01*
X495989389Y-303593436D01*
X496068615Y-303402167D01*
X496183635Y-303230027D01*
X496330027Y-303083635D01*
X496502165Y-302968616D01*
X496502167Y-302968615D01*
X496693436Y-302889389D01*
X496896484Y-302849000D01*
X497103516Y-302849000D01*
X497306564Y-302889389D01*
G37*
G36*
X603265936Y-302831340D02*
G01*
X603364220Y-302841020D01*
X603553381Y-302898401D01*
X603727712Y-302991583D01*
X603880515Y-303116985D01*
X604005917Y-303269788D01*
X604099099Y-303444119D01*
X604156480Y-303633280D01*
X604175855Y-303830000D01*
X604156480Y-304026720D01*
X604099099Y-304215881D01*
X604005917Y-304390212D01*
X603880515Y-304543015D01*
X603727712Y-304668417D01*
X603553381Y-304761599D01*
X603364220Y-304818980D01*
X603265936Y-304828660D01*
X603216795Y-304833500D01*
X603023205Y-304833500D01*
X602974064Y-304828660D01*
X602875780Y-304818980D01*
X602686619Y-304761599D01*
X602512288Y-304668417D01*
X602359485Y-304543015D01*
X602234083Y-304390212D01*
X602140901Y-304215881D01*
X602083520Y-304026720D01*
X602064145Y-303830000D01*
X602083520Y-303633280D01*
X602140901Y-303444119D01*
X602234083Y-303269788D01*
X602359485Y-303116985D01*
X602512288Y-302991583D01*
X602686619Y-302898401D01*
X602875780Y-302841020D01*
X602974064Y-302831340D01*
X603023205Y-302826500D01*
X603216795Y-302826500D01*
X603265936Y-302831340D01*
G37*
G36*
X638751000Y-304803500D02*
G01*
X636649000Y-304803500D01*
X636649000Y-302796500D01*
X638751000Y-302796500D01*
X638751000Y-304803500D01*
G37*
G36*
X603265936Y-300291340D02*
G01*
X603364220Y-300301020D01*
X603553381Y-300358401D01*
X603727712Y-300451583D01*
X603880515Y-300576985D01*
X604005917Y-300729788D01*
X604099099Y-300904119D01*
X604156480Y-301093280D01*
X604175855Y-301290000D01*
X604156480Y-301486720D01*
X604099099Y-301675881D01*
X604005917Y-301850212D01*
X603880515Y-302003015D01*
X603727712Y-302128417D01*
X603553381Y-302221599D01*
X603364220Y-302278980D01*
X603265936Y-302288660D01*
X603216795Y-302293500D01*
X603023205Y-302293500D01*
X602974064Y-302288660D01*
X602875780Y-302278980D01*
X602686619Y-302221599D01*
X602512288Y-302128417D01*
X602359485Y-302003015D01*
X602234083Y-301850212D01*
X602140901Y-301675881D01*
X602083520Y-301486720D01*
X602064145Y-301290000D01*
X602083520Y-301093280D01*
X602140901Y-300904119D01*
X602234083Y-300729788D01*
X602359485Y-300576985D01*
X602512288Y-300451583D01*
X602686619Y-300358401D01*
X602875780Y-300301020D01*
X602974064Y-300291340D01*
X603023205Y-300286500D01*
X603216795Y-300286500D01*
X603265936Y-300291340D01*
G37*
G36*
X637845936Y-300261340D02*
G01*
X637944220Y-300271020D01*
X638133381Y-300328401D01*
X638307712Y-300421583D01*
X638460515Y-300546985D01*
X638585917Y-300699788D01*
X638679099Y-300874119D01*
X638736480Y-301063280D01*
X638755855Y-301260000D01*
X638736480Y-301456720D01*
X638679099Y-301645881D01*
X638585917Y-301820212D01*
X638460515Y-301973015D01*
X638307712Y-302098417D01*
X638133381Y-302191599D01*
X637944220Y-302248980D01*
X637845936Y-302258660D01*
X637796795Y-302263500D01*
X637603205Y-302263500D01*
X637554064Y-302258660D01*
X637455780Y-302248980D01*
X637266619Y-302191599D01*
X637092288Y-302098417D01*
X636939485Y-301973015D01*
X636814083Y-301820212D01*
X636720901Y-301645881D01*
X636663520Y-301456720D01*
X636644145Y-301260000D01*
X636663520Y-301063280D01*
X636720901Y-300874119D01*
X636814083Y-300699788D01*
X636939485Y-300546985D01*
X637092288Y-300421583D01*
X637266619Y-300328401D01*
X637455780Y-300271020D01*
X637554064Y-300261340D01*
X637603205Y-300256500D01*
X637796795Y-300256500D01*
X637845936Y-300261340D01*
G37*
G36*
X604171000Y-299753500D02*
G01*
X602069000Y-299753500D01*
X602069000Y-297746500D01*
X604171000Y-297746500D01*
X604171000Y-299753500D01*
G37*
G36*
X637845936Y-297721340D02*
G01*
X637944220Y-297731020D01*
X638133381Y-297788401D01*
X638307712Y-297881583D01*
X638460515Y-298006985D01*
X638585917Y-298159788D01*
X638679099Y-298334119D01*
X638736480Y-298523280D01*
X638755855Y-298720000D01*
X638736480Y-298916720D01*
X638679099Y-299105881D01*
X638585917Y-299280212D01*
X638460515Y-299433015D01*
X638307712Y-299558417D01*
X638133381Y-299651599D01*
X637944220Y-299708980D01*
X637845936Y-299718660D01*
X637796795Y-299723500D01*
X637603205Y-299723500D01*
X637554064Y-299718660D01*
X637455780Y-299708980D01*
X637266619Y-299651599D01*
X637092288Y-299558417D01*
X636939485Y-299433015D01*
X636814083Y-299280212D01*
X636720901Y-299105881D01*
X636663520Y-298916720D01*
X636644145Y-298720000D01*
X636663520Y-298523280D01*
X636720901Y-298334119D01*
X636814083Y-298159788D01*
X636939485Y-298006985D01*
X637092288Y-297881583D01*
X637266619Y-297788401D01*
X637455780Y-297731020D01*
X637554064Y-297721340D01*
X637603205Y-297716500D01*
X637796795Y-297716500D01*
X637845936Y-297721340D01*
G37*
G36*
X559273512Y-288703927D02*
G01*
X559422812Y-288733624D01*
X559586784Y-288801544D01*
X559734354Y-288900147D01*
X559859853Y-289025646D01*
X559958456Y-289173216D01*
X560026376Y-289337188D01*
X560061000Y-289511259D01*
X560061000Y-289688741D01*
X560026376Y-289862812D01*
X559958456Y-290026784D01*
X559859853Y-290174354D01*
X559734354Y-290299853D01*
X559586784Y-290398456D01*
X559422812Y-290466376D01*
X559273512Y-290496073D01*
X559248742Y-290501000D01*
X559071258Y-290501000D01*
X559046488Y-290496073D01*
X558897188Y-290466376D01*
X558733216Y-290398456D01*
X558585646Y-290299853D01*
X558460147Y-290174354D01*
X558361544Y-290026784D01*
X558293624Y-289862812D01*
X558259000Y-289688741D01*
X558259000Y-289511259D01*
X558293624Y-289337188D01*
X558361544Y-289173216D01*
X558460147Y-289025646D01*
X558585646Y-288900147D01*
X558733216Y-288801544D01*
X558897188Y-288733624D01*
X559046488Y-288703927D01*
X559071258Y-288699000D01*
X559248742Y-288699000D01*
X559273512Y-288703927D01*
G37*
G36*
X562601000Y-290501000D02*
G01*
X560799000Y-290501000D01*
X560799000Y-288699000D01*
X562601000Y-288699000D01*
X562601000Y-290501000D01*
G37*
G36*
X578801000Y-290501000D02*
G01*
X576999000Y-290501000D01*
X576999000Y-288699000D01*
X578801000Y-288699000D01*
X578801000Y-290501000D01*
G37*
G36*
X580553512Y-288703927D02*
G01*
X580702812Y-288733624D01*
X580866784Y-288801544D01*
X581014354Y-288900147D01*
X581139853Y-289025646D01*
X581238456Y-289173216D01*
X581306376Y-289337188D01*
X581341000Y-289511259D01*
X581341000Y-289688741D01*
X581306376Y-289862812D01*
X581238456Y-290026784D01*
X581139853Y-290174354D01*
X581014354Y-290299853D01*
X580866784Y-290398456D01*
X580702812Y-290466376D01*
X580553512Y-290496073D01*
X580528742Y-290501000D01*
X580351258Y-290501000D01*
X580326488Y-290496073D01*
X580177188Y-290466376D01*
X580013216Y-290398456D01*
X579865646Y-290299853D01*
X579740147Y-290174354D01*
X579641544Y-290026784D01*
X579573624Y-289862812D01*
X579539000Y-289688741D01*
X579539000Y-289511259D01*
X579573624Y-289337188D01*
X579641544Y-289173216D01*
X579740147Y-289025646D01*
X579865646Y-288900147D01*
X580013216Y-288801544D01*
X580177188Y-288733624D01*
X580326488Y-288703927D01*
X580351258Y-288699000D01*
X580528742Y-288699000D01*
X580553512Y-288703927D01*
G37*
G36*
X607102585Y-286828802D02*
G01*
X607252410Y-286858604D01*
X607534674Y-286975521D01*
X607788705Y-287145259D01*
X608004741Y-287361295D01*
X608174479Y-287615326D01*
X608291396Y-287897590D01*
X608351000Y-288197240D01*
X608351000Y-288502760D01*
X608291396Y-288802410D01*
X608174479Y-289084674D01*
X608004741Y-289338705D01*
X607788705Y-289554741D01*
X607534674Y-289724479D01*
X607252410Y-289841396D01*
X607144749Y-289862811D01*
X606952761Y-289901000D01*
X606647239Y-289901000D01*
X606455251Y-289862811D01*
X606347590Y-289841396D01*
X606065326Y-289724479D01*
X605811295Y-289554741D01*
X605595259Y-289338705D01*
X605425521Y-289084674D01*
X605308604Y-288802410D01*
X605249000Y-288502760D01*
X605249000Y-288197240D01*
X605308604Y-287897590D01*
X605425521Y-287615326D01*
X605595259Y-287361295D01*
X605811295Y-287145259D01*
X606065326Y-286975521D01*
X606347590Y-286858604D01*
X606497415Y-286828802D01*
X606647239Y-286799000D01*
X606952761Y-286799000D01*
X607102585Y-286828802D01*
G37*
G36*
X634302585Y-286828802D02*
G01*
X634452410Y-286858604D01*
X634734674Y-286975521D01*
X634988705Y-287145259D01*
X635204741Y-287361295D01*
X635374479Y-287615326D01*
X635491396Y-287897590D01*
X635551000Y-288197240D01*
X635551000Y-288502760D01*
X635491396Y-288802410D01*
X635374479Y-289084674D01*
X635204741Y-289338705D01*
X634988705Y-289554741D01*
X634734674Y-289724479D01*
X634452410Y-289841396D01*
X634344749Y-289862811D01*
X634152761Y-289901000D01*
X633847239Y-289901000D01*
X633655251Y-289862811D01*
X633547590Y-289841396D01*
X633265326Y-289724479D01*
X633011295Y-289554741D01*
X632795259Y-289338705D01*
X632625521Y-289084674D01*
X632508604Y-288802410D01*
X632449000Y-288502760D01*
X632449000Y-288197240D01*
X632508604Y-287897590D01*
X632625521Y-287615326D01*
X632795259Y-287361295D01*
X633011295Y-287145259D01*
X633265326Y-286975521D01*
X633547590Y-286858604D01*
X633697415Y-286828802D01*
X633847239Y-286799000D01*
X634152761Y-286799000D01*
X634302585Y-286828802D01*
G37*
G36*
X460634239Y-281811467D02*
G01*
X460948282Y-281873934D01*
X461539926Y-282119001D01*
X462072392Y-282474784D01*
X462525216Y-282927608D01*
X462880999Y-283460074D01*
X463126066Y-284051718D01*
X463251000Y-284679804D01*
X463251000Y-285320196D01*
X463126066Y-285948282D01*
X462880999Y-286539926D01*
X462525216Y-287072392D01*
X462072392Y-287525216D01*
X461539926Y-287880999D01*
X460948282Y-288126066D01*
X460634239Y-288188533D01*
X460320197Y-288251000D01*
X459679803Y-288251000D01*
X459365761Y-288188533D01*
X459051718Y-288126066D01*
X458460074Y-287880999D01*
X457927608Y-287525216D01*
X457474784Y-287072392D01*
X457119001Y-286539926D01*
X456873934Y-285948282D01*
X456749000Y-285320196D01*
X456749000Y-284679804D01*
X456873934Y-284051718D01*
X457119001Y-283460074D01*
X457474784Y-282927608D01*
X457927608Y-282474784D01*
X458460074Y-282119001D01*
X459051718Y-281873934D01*
X459365761Y-281811467D01*
X459679803Y-281749000D01*
X460320197Y-281749000D01*
X460634239Y-281811467D01*
G37*
G36*
X660634239Y-281811467D02*
G01*
X660948282Y-281873934D01*
X661539926Y-282119001D01*
X662072392Y-282474784D01*
X662525216Y-282927608D01*
X662880999Y-283460074D01*
X663126066Y-284051718D01*
X663251000Y-284679804D01*
X663251000Y-285320196D01*
X663126066Y-285948282D01*
X662880999Y-286539926D01*
X662525216Y-287072392D01*
X662072392Y-287525216D01*
X661539926Y-287880999D01*
X660948282Y-288126066D01*
X660634239Y-288188533D01*
X660320197Y-288251000D01*
X659679803Y-288251000D01*
X659365761Y-288188533D01*
X659051718Y-288126066D01*
X658460074Y-287880999D01*
X657927608Y-287525216D01*
X657474784Y-287072392D01*
X657119001Y-286539926D01*
X656873934Y-285948282D01*
X656749000Y-285320196D01*
X656749000Y-284679804D01*
X656873934Y-284051718D01*
X657119001Y-283460074D01*
X657474784Y-282927608D01*
X657927608Y-282474784D01*
X658460074Y-282119001D01*
X659051718Y-281873934D01*
X659365761Y-281811467D01*
X659679803Y-281749000D01*
X660320197Y-281749000D01*
X660634239Y-281811467D01*
G37*
M02*
