M48
; DRILL file {KiCad (5.1.5)-3} date 2/17/2021 11:26:23 PM
; FORMAT={-:-/ absolute / inch / decimal}
; #@! TF.CreationDate,2021-02-17T23:26:23-05:00
; #@! TF.GenerationSoftware,Kicad,Pcbnew,(5.1.5)-3
FMAT,2
INCH
T1C0.0150
T2C0.0433
T3C0.0630
%
G90
G05
T1
X4.9213Y-2.5591
X4.9213Y-2.6378
X4.9213Y-2.7165
X4.9213Y-2.7953
X4.9213Y-2.874
X4.9213Y-2.9528
X4.9213Y-3.0315
X4.9213Y-3.1102
X4.9213Y-3.189
X4.9213Y-3.2677
X4.9213Y-3.3465
X4.9213Y-3.4252
X4.9213Y-3.5039
X4.9213Y-3.5827
X4.9213Y-3.6614
X4.9213Y-3.7402
X4.9213Y-3.8189
X4.9213Y-3.8976
X4.9213Y-3.9764
X4.9213Y-4.0551
X4.9213Y-4.1339
X5.0Y-2.5591
X5.0Y-4.1339
X5.0787Y-2.5591
X5.0787Y-4.1339
X5.1575Y-2.5591
X5.1575Y-3.4252
X5.1575Y-3.5039
X5.1575Y-3.5827
X5.1575Y-3.6614
X5.1575Y-3.7402
X5.1575Y-3.8189
X5.1575Y-3.8976
X5.1575Y-3.9764
X5.1575Y-4.0551
X5.1575Y-4.1339
X5.2362Y-2.5591
X5.2362Y-3.4252
X5.2362Y-4.0551
X5.2362Y-4.1339
X5.315Y-2.5591
X5.315Y-3.4252
X5.315Y-4.0551
X5.315Y-4.1339
X5.3937Y-2.5591
X5.3937Y-3.4252
X5.3937Y-4.0551
X5.3937Y-4.1339
X5.4724Y-2.5591
X5.4724Y-3.4252
X5.4724Y-4.0551
X5.4724Y-4.1339
X5.5512Y-2.5591
X5.5512Y-3.4252
X5.5512Y-3.5039
X5.5512Y-4.0551
X5.5512Y-4.1339
X5.6299Y-2.5591
X5.6299Y-3.5039
X5.6299Y-3.5827
X5.6299Y-3.9764
X5.6299Y-4.0551
X5.6299Y-4.1339
X5.7087Y-2.5591
X5.7087Y-3.5827
X5.7087Y-3.6614
X5.7087Y-3.9764
X5.7087Y-4.1339
X5.7874Y-2.5591
X5.7874Y-3.6614
X5.7874Y-3.9764
X5.7874Y-4.1339
X5.8661Y-2.5591
X5.8661Y-3.6614
X5.8661Y-3.9764
X5.8661Y-4.1339
X5.9449Y-2.5591
X5.9449Y-3.6614
X5.9449Y-3.9764
X5.9449Y-4.1339
X6.0236Y-2.5591
X6.0236Y-3.6614
X6.0236Y-3.9764
X6.0236Y-4.1339
X6.1024Y-2.5591
X6.1024Y-3.6614
X6.1024Y-3.9764
X6.1024Y-4.1339
X6.1811Y-2.5591
X6.1811Y-3.6614
X6.1811Y-3.9764
X6.1811Y-4.1339
X6.2598Y-2.5591
X6.2598Y-3.6614
X6.2598Y-3.9764
X6.2598Y-4.1339
X6.3386Y-2.5591
X6.3386Y-3.6614
X6.3386Y-3.9764
X6.3386Y-4.1339
X6.4173Y-2.5591
X6.4173Y-3.6614
X6.4173Y-3.9764
X6.4173Y-4.1339
X6.4961Y-2.5591
X6.4961Y-3.6614
X6.4961Y-3.9764
X6.4961Y-4.1339
X6.5748Y-2.5591
X6.5748Y-3.6614
X6.5748Y-3.9764
X6.5748Y-4.1339
X6.6535Y-2.5591
X6.6535Y-3.6614
X6.6535Y-3.9764
X6.6535Y-4.1339
X6.7323Y-2.5591
X6.7323Y-3.6614
X6.7323Y-3.9764
X6.7323Y-4.1339
X6.811Y-2.5591
X6.811Y-3.6614
X6.811Y-3.9764
X6.811Y-4.1339
X6.8898Y-2.5591
X6.8898Y-3.6614
X6.8898Y-3.9764
X6.8898Y-4.1339
X6.9685Y-2.5591
X6.9685Y-3.6614
X6.9685Y-3.9764
X6.9685Y-4.1339
X7.0472Y-2.5591
X7.0472Y-3.6614
X7.0472Y-3.9764
X7.0472Y-4.1339
X7.126Y-2.5591
X7.126Y-3.6614
X7.126Y-3.9764
X7.126Y-4.1339
X7.2047Y-2.5591
X7.2047Y-3.6614
X7.2047Y-3.9764
X7.2047Y-4.1339
X7.2835Y-2.5591
X7.2835Y-3.6614
X7.2835Y-3.9764
X7.2835Y-4.1339
X7.3622Y-2.5591
X7.3622Y-3.6614
X7.3622Y-3.9764
X7.3622Y-4.1339
X7.4409Y-2.5591
X7.4409Y-3.6614
X7.4409Y-3.9764
X7.4409Y-4.1339
X7.5197Y-2.5591
X7.5197Y-3.6614
X7.5197Y-3.9764
X7.5197Y-4.1339
X7.5984Y-2.5591
X7.5984Y-3.6614
X7.5984Y-3.9764
X7.5984Y-4.1339
X7.6772Y-2.5591
X7.6772Y-3.5827
X7.6772Y-3.6614
X7.6772Y-3.9764
X7.6772Y-4.0551
X7.6772Y-4.1339
X7.7559Y-2.5591
X7.7559Y-3.5039
X7.7559Y-3.5827
X7.7559Y-4.0551
X7.7559Y-4.1339
X7.8346Y-2.5591
X7.8346Y-3.4252
X7.8346Y-3.5039
X7.8346Y-4.0551
X7.8346Y-4.1339
X7.9134Y-2.5591
X7.9134Y-3.4252
X7.9134Y-4.0551
X7.9134Y-4.1339
X7.9921Y-2.5591
X7.9921Y-3.4252
X7.9921Y-4.0551
X7.9921Y-4.1339
X8.0709Y-2.5591
X8.0709Y-3.4252
X8.0709Y-4.0551
X8.0709Y-4.1339
X8.1496Y-2.5591
X8.1496Y-3.4252
X8.1496Y-3.5039
X8.1496Y-3.5827
X8.1496Y-3.6614
X8.1496Y-3.7402
X8.1496Y-3.8189
X8.1496Y-3.8976
X8.1496Y-3.9764
X8.1496Y-4.0551
X8.1496Y-4.1339
X8.2283Y-2.5591
X8.2283Y-4.1339
X8.3071Y-2.5591
X8.3071Y-4.1339
X8.3858Y-2.5591
X8.3858Y-4.1339
X8.4646Y-2.5591
X8.4646Y-2.6378
X8.4646Y-2.7165
X8.4646Y-2.7953
X8.4646Y-2.874
X8.4646Y-2.9528
X8.4646Y-3.0315
X8.4646Y-3.1102
X8.4646Y-3.189
X8.4646Y-3.2677
X8.4646Y-3.3465
X8.4646Y-3.4252
X8.4646Y-3.5039
X8.4646Y-3.5827
X8.4646Y-3.6614
X8.4646Y-3.7402
X8.4646Y-3.8189
X8.4646Y-3.8976
X8.4646Y-3.9764
X8.4646Y-4.0551
X8.4646Y-4.1339
T2
X6.6556Y-3.0681
X7.9106Y-3.0681
X7.9043Y-3.8087
X5.4106Y-3.0681
X5.4043Y-3.8087
T3
X6.5324Y-2.9449
X6.5324Y-3.1913
X6.7789Y-2.9449
X6.7789Y-3.1913
X7.7874Y-2.9449
X7.7874Y-3.1913
X8.0339Y-2.9449
X8.0339Y-3.1913
X7.7811Y-3.6854
X7.7811Y-3.9319
X8.0276Y-3.6854
X8.0276Y-3.9319
X5.2874Y-2.9449
X5.2874Y-3.1913
X5.5339Y-2.9449
X5.5339Y-3.1913
X5.2811Y-3.6854
X5.2811Y-3.9319
X5.5276Y-3.6854
X5.5276Y-3.9319
T0
M30
