G04 #@! TF.GenerationSoftware,KiCad,Pcbnew,(5.1.5)-3*
G04 #@! TF.CreationDate,2021-02-17T23:25:52-05:00*
G04 #@! TF.ProjectId,AM Bandpass Filter,414d2042-616e-4647-9061-73732046696c,rev?*
G04 #@! TF.SameCoordinates,Original*
G04 #@! TF.FileFunction,Soldermask,Top*
G04 #@! TF.FilePolarity,Negative*
%FSLAX46Y46*%
G04 Gerber Fmt 4.6, Leading zero omitted, Abs format (unit mm)*
G04 Created by KiCad (PCBNEW (5.1.5)-3) date 2021-02-17 23:25:52*
%MOMM*%
%LPD*%
G04 APERTURE LIST*
%ADD10C,0.100000*%
G04 APERTURE END LIST*
D10*
G36*
X140764903Y-98667075D02*
G01*
X140992571Y-98761378D01*
X141197466Y-98898285D01*
X141371715Y-99072534D01*
X141492749Y-99253674D01*
X141508623Y-99277431D01*
X141602925Y-99505097D01*
X141651000Y-99746786D01*
X141651000Y-99993214D01*
X141647605Y-100010282D01*
X141602925Y-100234903D01*
X141508622Y-100462571D01*
X141371715Y-100667466D01*
X141197466Y-100841715D01*
X140992571Y-100978622D01*
X140992570Y-100978623D01*
X140992569Y-100978623D01*
X140764903Y-101072925D01*
X140523214Y-101121000D01*
X140276786Y-101121000D01*
X140035097Y-101072925D01*
X139807431Y-100978623D01*
X139807430Y-100978623D01*
X139807429Y-100978622D01*
X139602534Y-100841715D01*
X139428285Y-100667466D01*
X139291378Y-100462571D01*
X139197075Y-100234903D01*
X139152395Y-100010282D01*
X139149000Y-99993214D01*
X139149000Y-99746786D01*
X139197075Y-99505097D01*
X139291377Y-99277431D01*
X139307251Y-99253674D01*
X139428285Y-99072534D01*
X139602534Y-98898285D01*
X139807429Y-98761378D01*
X140035097Y-98667075D01*
X140276786Y-98619000D01*
X140523214Y-98619000D01*
X140764903Y-98667075D01*
G37*
G36*
X134504903Y-98667075D02*
G01*
X134732571Y-98761378D01*
X134937466Y-98898285D01*
X135111715Y-99072534D01*
X135232749Y-99253674D01*
X135248623Y-99277431D01*
X135342925Y-99505097D01*
X135391000Y-99746786D01*
X135391000Y-99993214D01*
X135387605Y-100010282D01*
X135342925Y-100234903D01*
X135248622Y-100462571D01*
X135111715Y-100667466D01*
X134937466Y-100841715D01*
X134732571Y-100978622D01*
X134732570Y-100978623D01*
X134732569Y-100978623D01*
X134504903Y-101072925D01*
X134263214Y-101121000D01*
X134016786Y-101121000D01*
X133775097Y-101072925D01*
X133547431Y-100978623D01*
X133547430Y-100978623D01*
X133547429Y-100978622D01*
X133342534Y-100841715D01*
X133168285Y-100667466D01*
X133031378Y-100462571D01*
X132937075Y-100234903D01*
X132892395Y-100010282D01*
X132889000Y-99993214D01*
X132889000Y-99746786D01*
X132937075Y-99505097D01*
X133031377Y-99277431D01*
X133047251Y-99253674D01*
X133168285Y-99072534D01*
X133342534Y-98898285D01*
X133547429Y-98761378D01*
X133775097Y-98667075D01*
X134016786Y-98619000D01*
X134263214Y-98619000D01*
X134504903Y-98667075D01*
G37*
G36*
X204264903Y-98667075D02*
G01*
X204492571Y-98761378D01*
X204697466Y-98898285D01*
X204871715Y-99072534D01*
X204992749Y-99253674D01*
X205008623Y-99277431D01*
X205102925Y-99505097D01*
X205151000Y-99746786D01*
X205151000Y-99993214D01*
X205147605Y-100010282D01*
X205102925Y-100234903D01*
X205008622Y-100462571D01*
X204871715Y-100667466D01*
X204697466Y-100841715D01*
X204492571Y-100978622D01*
X204492570Y-100978623D01*
X204492569Y-100978623D01*
X204264903Y-101072925D01*
X204023214Y-101121000D01*
X203776786Y-101121000D01*
X203535097Y-101072925D01*
X203307431Y-100978623D01*
X203307430Y-100978623D01*
X203307429Y-100978622D01*
X203102534Y-100841715D01*
X202928285Y-100667466D01*
X202791378Y-100462571D01*
X202697075Y-100234903D01*
X202652395Y-100010282D01*
X202649000Y-99993214D01*
X202649000Y-99746786D01*
X202697075Y-99505097D01*
X202791377Y-99277431D01*
X202807251Y-99253674D01*
X202928285Y-99072534D01*
X203102534Y-98898285D01*
X203307429Y-98761378D01*
X203535097Y-98667075D01*
X203776786Y-98619000D01*
X204023214Y-98619000D01*
X204264903Y-98667075D01*
G37*
G36*
X198004903Y-98667075D02*
G01*
X198232571Y-98761378D01*
X198437466Y-98898285D01*
X198611715Y-99072534D01*
X198732749Y-99253674D01*
X198748623Y-99277431D01*
X198842925Y-99505097D01*
X198891000Y-99746786D01*
X198891000Y-99993214D01*
X198887605Y-100010282D01*
X198842925Y-100234903D01*
X198748622Y-100462571D01*
X198611715Y-100667466D01*
X198437466Y-100841715D01*
X198232571Y-100978622D01*
X198232570Y-100978623D01*
X198232569Y-100978623D01*
X198004903Y-101072925D01*
X197763214Y-101121000D01*
X197516786Y-101121000D01*
X197275097Y-101072925D01*
X197047431Y-100978623D01*
X197047430Y-100978623D01*
X197047429Y-100978622D01*
X196842534Y-100841715D01*
X196668285Y-100667466D01*
X196531378Y-100462571D01*
X196437075Y-100234903D01*
X196392395Y-100010282D01*
X196389000Y-99993214D01*
X196389000Y-99746786D01*
X196437075Y-99505097D01*
X196531377Y-99277431D01*
X196547251Y-99253674D01*
X196668285Y-99072534D01*
X196842534Y-98898285D01*
X197047429Y-98761378D01*
X197275097Y-98667075D01*
X197516786Y-98619000D01*
X197763214Y-98619000D01*
X198004903Y-98667075D01*
G37*
G36*
X179788674Y-98533465D02*
G01*
X179826367Y-98544899D01*
X179861103Y-98563466D01*
X179891548Y-98588452D01*
X179916534Y-98618897D01*
X179935101Y-98653633D01*
X179946535Y-98691326D01*
X179951000Y-98736661D01*
X179951000Y-99823339D01*
X179946535Y-99868674D01*
X179935101Y-99906367D01*
X179916534Y-99941103D01*
X179891548Y-99971548D01*
X179861103Y-99996534D01*
X179826367Y-100015101D01*
X179788674Y-100026535D01*
X179743339Y-100031000D01*
X178906661Y-100031000D01*
X178861326Y-100026535D01*
X178823633Y-100015101D01*
X178788897Y-99996534D01*
X178758452Y-99971548D01*
X178733466Y-99941103D01*
X178714899Y-99906367D01*
X178703465Y-99868674D01*
X178699000Y-99823339D01*
X178699000Y-98736661D01*
X178703465Y-98691326D01*
X178714899Y-98653633D01*
X178733466Y-98618897D01*
X178758452Y-98588452D01*
X178788897Y-98563466D01*
X178823633Y-98544899D01*
X178861326Y-98533465D01*
X178906661Y-98529000D01*
X179743339Y-98529000D01*
X179788674Y-98533465D01*
G37*
G36*
X177738674Y-98533465D02*
G01*
X177776367Y-98544899D01*
X177811103Y-98563466D01*
X177841548Y-98588452D01*
X177866534Y-98618897D01*
X177885101Y-98653633D01*
X177896535Y-98691326D01*
X177901000Y-98736661D01*
X177901000Y-99823339D01*
X177896535Y-99868674D01*
X177885101Y-99906367D01*
X177866534Y-99941103D01*
X177841548Y-99971548D01*
X177811103Y-99996534D01*
X177776367Y-100015101D01*
X177738674Y-100026535D01*
X177693339Y-100031000D01*
X176856661Y-100031000D01*
X176811326Y-100026535D01*
X176773633Y-100015101D01*
X176738897Y-99996534D01*
X176708452Y-99971548D01*
X176683466Y-99941103D01*
X176664899Y-99906367D01*
X176653465Y-99868674D01*
X176649000Y-99823339D01*
X176649000Y-98736661D01*
X176653465Y-98691326D01*
X176664899Y-98653633D01*
X176683466Y-98618897D01*
X176708452Y-98588452D01*
X176738897Y-98563466D01*
X176773633Y-98544899D01*
X176811326Y-98533465D01*
X176856661Y-98529000D01*
X177693339Y-98529000D01*
X177738674Y-98533465D01*
G37*
G36*
X165818674Y-98533465D02*
G01*
X165856367Y-98544899D01*
X165891103Y-98563466D01*
X165921548Y-98588452D01*
X165946534Y-98618897D01*
X165965101Y-98653633D01*
X165976535Y-98691326D01*
X165981000Y-98736661D01*
X165981000Y-99823339D01*
X165976535Y-99868674D01*
X165965101Y-99906367D01*
X165946534Y-99941103D01*
X165921548Y-99971548D01*
X165891103Y-99996534D01*
X165856367Y-100015101D01*
X165818674Y-100026535D01*
X165773339Y-100031000D01*
X164936661Y-100031000D01*
X164891326Y-100026535D01*
X164853633Y-100015101D01*
X164818897Y-99996534D01*
X164788452Y-99971548D01*
X164763466Y-99941103D01*
X164744899Y-99906367D01*
X164733465Y-99868674D01*
X164729000Y-99823339D01*
X164729000Y-98736661D01*
X164733465Y-98691326D01*
X164744899Y-98653633D01*
X164763466Y-98618897D01*
X164788452Y-98588452D01*
X164818897Y-98563466D01*
X164853633Y-98544899D01*
X164891326Y-98533465D01*
X164936661Y-98529000D01*
X165773339Y-98529000D01*
X165818674Y-98533465D01*
G37*
G36*
X163768674Y-98533465D02*
G01*
X163806367Y-98544899D01*
X163841103Y-98563466D01*
X163871548Y-98588452D01*
X163896534Y-98618897D01*
X163915101Y-98653633D01*
X163926535Y-98691326D01*
X163931000Y-98736661D01*
X163931000Y-99823339D01*
X163926535Y-99868674D01*
X163915101Y-99906367D01*
X163896534Y-99941103D01*
X163871548Y-99971548D01*
X163841103Y-99996534D01*
X163806367Y-100015101D01*
X163768674Y-100026535D01*
X163723339Y-100031000D01*
X162886661Y-100031000D01*
X162841326Y-100026535D01*
X162803633Y-100015101D01*
X162768897Y-99996534D01*
X162738452Y-99971548D01*
X162713466Y-99941103D01*
X162694899Y-99906367D01*
X162683465Y-99868674D01*
X162679000Y-99823339D01*
X162679000Y-98736661D01*
X162683465Y-98691326D01*
X162694899Y-98653633D01*
X162713466Y-98618897D01*
X162738452Y-98588452D01*
X162768897Y-98563466D01*
X162803633Y-98544899D01*
X162841326Y-98533465D01*
X162886661Y-98529000D01*
X163723339Y-98529000D01*
X163768674Y-98533465D01*
G37*
G36*
X168338674Y-98168465D02*
G01*
X168376367Y-98179899D01*
X168411103Y-98198466D01*
X168441548Y-98223452D01*
X168466534Y-98253897D01*
X168485101Y-98288633D01*
X168496535Y-98326326D01*
X168501000Y-98371661D01*
X168501000Y-99208339D01*
X168496535Y-99253674D01*
X168485101Y-99291367D01*
X168466534Y-99326103D01*
X168441548Y-99356548D01*
X168411103Y-99381534D01*
X168376367Y-99400101D01*
X168338674Y-99411535D01*
X168293339Y-99416000D01*
X167206661Y-99416000D01*
X167161326Y-99411535D01*
X167123633Y-99400101D01*
X167088897Y-99381534D01*
X167058452Y-99356548D01*
X167033466Y-99326103D01*
X167014899Y-99291367D01*
X167003465Y-99253674D01*
X166999000Y-99208339D01*
X166999000Y-98371661D01*
X167003465Y-98326326D01*
X167014899Y-98288633D01*
X167033466Y-98253897D01*
X167058452Y-98223452D01*
X167088897Y-98198466D01*
X167123633Y-98179899D01*
X167161326Y-98168465D01*
X167206661Y-98164000D01*
X168293339Y-98164000D01*
X168338674Y-98168465D01*
G37*
G36*
X154368674Y-98168465D02*
G01*
X154406367Y-98179899D01*
X154441103Y-98198466D01*
X154471548Y-98223452D01*
X154496534Y-98253897D01*
X154515101Y-98288633D01*
X154526535Y-98326326D01*
X154531000Y-98371661D01*
X154531000Y-99208339D01*
X154526535Y-99253674D01*
X154515101Y-99291367D01*
X154496534Y-99326103D01*
X154471548Y-99356548D01*
X154441103Y-99381534D01*
X154406367Y-99400101D01*
X154368674Y-99411535D01*
X154323339Y-99416000D01*
X153236661Y-99416000D01*
X153191326Y-99411535D01*
X153153633Y-99400101D01*
X153118897Y-99381534D01*
X153088452Y-99356548D01*
X153063466Y-99326103D01*
X153044899Y-99291367D01*
X153033465Y-99253674D01*
X153029000Y-99208339D01*
X153029000Y-98371661D01*
X153033465Y-98326326D01*
X153044899Y-98288633D01*
X153063466Y-98253897D01*
X153088452Y-98223452D01*
X153118897Y-98198466D01*
X153153633Y-98179899D01*
X153191326Y-98168465D01*
X153236661Y-98164000D01*
X154323339Y-98164000D01*
X154368674Y-98168465D01*
G37*
G36*
X170878674Y-98168465D02*
G01*
X170916367Y-98179899D01*
X170951103Y-98198466D01*
X170981548Y-98223452D01*
X171006534Y-98253897D01*
X171025101Y-98288633D01*
X171036535Y-98326326D01*
X171041000Y-98371661D01*
X171041000Y-99208339D01*
X171036535Y-99253674D01*
X171025101Y-99291367D01*
X171006534Y-99326103D01*
X170981548Y-99356548D01*
X170951103Y-99381534D01*
X170916367Y-99400101D01*
X170878674Y-99411535D01*
X170833339Y-99416000D01*
X169746661Y-99416000D01*
X169701326Y-99411535D01*
X169663633Y-99400101D01*
X169628897Y-99381534D01*
X169598452Y-99356548D01*
X169573466Y-99326103D01*
X169554899Y-99291367D01*
X169543465Y-99253674D01*
X169539000Y-99208339D01*
X169539000Y-98371661D01*
X169543465Y-98326326D01*
X169554899Y-98288633D01*
X169573466Y-98253897D01*
X169598452Y-98223452D01*
X169628897Y-98198466D01*
X169663633Y-98179899D01*
X169701326Y-98168465D01*
X169746661Y-98164000D01*
X170833339Y-98164000D01*
X170878674Y-98168465D01*
G37*
G36*
X182308674Y-98168465D02*
G01*
X182346367Y-98179899D01*
X182381103Y-98198466D01*
X182411548Y-98223452D01*
X182436534Y-98253897D01*
X182455101Y-98288633D01*
X182466535Y-98326326D01*
X182471000Y-98371661D01*
X182471000Y-99208339D01*
X182466535Y-99253674D01*
X182455101Y-99291367D01*
X182436534Y-99326103D01*
X182411548Y-99356548D01*
X182381103Y-99381534D01*
X182346367Y-99400101D01*
X182308674Y-99411535D01*
X182263339Y-99416000D01*
X181176661Y-99416000D01*
X181131326Y-99411535D01*
X181093633Y-99400101D01*
X181058897Y-99381534D01*
X181028452Y-99356548D01*
X181003466Y-99326103D01*
X180984899Y-99291367D01*
X180973465Y-99253674D01*
X180969000Y-99208339D01*
X180969000Y-98371661D01*
X180973465Y-98326326D01*
X180984899Y-98288633D01*
X181003466Y-98253897D01*
X181028452Y-98223452D01*
X181058897Y-98198466D01*
X181093633Y-98179899D01*
X181131326Y-98168465D01*
X181176661Y-98164000D01*
X182263339Y-98164000D01*
X182308674Y-98168465D01*
G37*
G36*
X184848674Y-98168465D02*
G01*
X184886367Y-98179899D01*
X184921103Y-98198466D01*
X184951548Y-98223452D01*
X184976534Y-98253897D01*
X184995101Y-98288633D01*
X185006535Y-98326326D01*
X185011000Y-98371661D01*
X185011000Y-99208339D01*
X185006535Y-99253674D01*
X184995101Y-99291367D01*
X184976534Y-99326103D01*
X184951548Y-99356548D01*
X184921103Y-99381534D01*
X184886367Y-99400101D01*
X184848674Y-99411535D01*
X184803339Y-99416000D01*
X183716661Y-99416000D01*
X183671326Y-99411535D01*
X183633633Y-99400101D01*
X183598897Y-99381534D01*
X183568452Y-99356548D01*
X183543466Y-99326103D01*
X183524899Y-99291367D01*
X183513465Y-99253674D01*
X183509000Y-99208339D01*
X183509000Y-98371661D01*
X183513465Y-98326326D01*
X183524899Y-98288633D01*
X183543466Y-98253897D01*
X183568452Y-98223452D01*
X183598897Y-98198466D01*
X183633633Y-98179899D01*
X183671326Y-98168465D01*
X183716661Y-98164000D01*
X184803339Y-98164000D01*
X184848674Y-98168465D01*
G37*
G36*
X156908674Y-98168465D02*
G01*
X156946367Y-98179899D01*
X156981103Y-98198466D01*
X157011548Y-98223452D01*
X157036534Y-98253897D01*
X157055101Y-98288633D01*
X157066535Y-98326326D01*
X157071000Y-98371661D01*
X157071000Y-99208339D01*
X157066535Y-99253674D01*
X157055101Y-99291367D01*
X157036534Y-99326103D01*
X157011548Y-99356548D01*
X156981103Y-99381534D01*
X156946367Y-99400101D01*
X156908674Y-99411535D01*
X156863339Y-99416000D01*
X155776661Y-99416000D01*
X155731326Y-99411535D01*
X155693633Y-99400101D01*
X155658897Y-99381534D01*
X155628452Y-99356548D01*
X155603466Y-99326103D01*
X155584899Y-99291367D01*
X155573465Y-99253674D01*
X155569000Y-99208339D01*
X155569000Y-98371661D01*
X155573465Y-98326326D01*
X155584899Y-98288633D01*
X155603466Y-98253897D01*
X155628452Y-98223452D01*
X155658897Y-98198466D01*
X155693633Y-98179899D01*
X155731326Y-98168465D01*
X155776661Y-98164000D01*
X156863339Y-98164000D01*
X156908674Y-98168465D01*
G37*
G36*
X137525520Y-95897664D02*
G01*
X137684942Y-95963699D01*
X137828418Y-96059566D01*
X137950434Y-96181582D01*
X138046301Y-96325058D01*
X138112336Y-96484480D01*
X138146000Y-96653721D01*
X138146000Y-96826279D01*
X138112336Y-96995520D01*
X138046301Y-97154942D01*
X137950434Y-97298418D01*
X137828418Y-97420434D01*
X137684942Y-97516301D01*
X137525520Y-97582336D01*
X137440899Y-97599168D01*
X137356280Y-97616000D01*
X137183720Y-97616000D01*
X137099101Y-97599168D01*
X137014480Y-97582336D01*
X136855058Y-97516301D01*
X136711582Y-97420434D01*
X136589566Y-97298418D01*
X136493699Y-97154942D01*
X136427664Y-96995520D01*
X136394000Y-96826279D01*
X136394000Y-96653721D01*
X136427664Y-96484480D01*
X136493699Y-96325058D01*
X136589566Y-96181582D01*
X136711582Y-96059566D01*
X136855058Y-95963699D01*
X137014480Y-95897664D01*
X137183720Y-95864000D01*
X137356280Y-95864000D01*
X137525520Y-95897664D01*
G37*
G36*
X201025520Y-95897664D02*
G01*
X201184942Y-95963699D01*
X201328418Y-96059566D01*
X201450434Y-96181582D01*
X201546301Y-96325058D01*
X201612336Y-96484480D01*
X201646000Y-96653721D01*
X201646000Y-96826279D01*
X201612336Y-96995520D01*
X201546301Y-97154942D01*
X201450434Y-97298418D01*
X201328418Y-97420434D01*
X201184942Y-97516301D01*
X201025520Y-97582336D01*
X200940899Y-97599168D01*
X200856280Y-97616000D01*
X200683720Y-97616000D01*
X200599101Y-97599168D01*
X200514480Y-97582336D01*
X200355058Y-97516301D01*
X200211582Y-97420434D01*
X200089566Y-97298418D01*
X199993699Y-97154942D01*
X199927664Y-96995520D01*
X199894000Y-96826279D01*
X199894000Y-96653721D01*
X199927664Y-96484480D01*
X199993699Y-96325058D01*
X200089566Y-96181582D01*
X200211582Y-96059566D01*
X200355058Y-95963699D01*
X200514480Y-95897664D01*
X200683720Y-95864000D01*
X200856280Y-95864000D01*
X201025520Y-95897664D01*
G37*
G36*
X159323674Y-95993465D02*
G01*
X159361367Y-96004899D01*
X159396103Y-96023466D01*
X159426548Y-96048452D01*
X159451534Y-96078897D01*
X159470101Y-96113633D01*
X159481535Y-96151326D01*
X159486000Y-96196661D01*
X159486000Y-97283339D01*
X159481535Y-97328674D01*
X159470101Y-97366367D01*
X159451534Y-97401103D01*
X159426548Y-97431548D01*
X159396103Y-97456534D01*
X159361367Y-97475101D01*
X159323674Y-97486535D01*
X159278339Y-97491000D01*
X158441661Y-97491000D01*
X158396326Y-97486535D01*
X158358633Y-97475101D01*
X158323897Y-97456534D01*
X158293452Y-97431548D01*
X158268466Y-97401103D01*
X158249899Y-97366367D01*
X158238465Y-97328674D01*
X158234000Y-97283339D01*
X158234000Y-96196661D01*
X158238465Y-96151326D01*
X158249899Y-96113633D01*
X158268466Y-96078897D01*
X158293452Y-96048452D01*
X158323897Y-96023466D01*
X158358633Y-96004899D01*
X158396326Y-95993465D01*
X158441661Y-95989000D01*
X159278339Y-95989000D01*
X159323674Y-95993465D01*
G37*
G36*
X144963674Y-95993465D02*
G01*
X145001367Y-96004899D01*
X145036103Y-96023466D01*
X145066548Y-96048452D01*
X145091534Y-96078897D01*
X145110101Y-96113633D01*
X145121535Y-96151326D01*
X145126000Y-96196661D01*
X145126000Y-97283339D01*
X145121535Y-97328674D01*
X145110101Y-97366367D01*
X145091534Y-97401103D01*
X145066548Y-97431548D01*
X145036103Y-97456534D01*
X145001367Y-97475101D01*
X144963674Y-97486535D01*
X144918339Y-97491000D01*
X144081661Y-97491000D01*
X144036326Y-97486535D01*
X143998633Y-97475101D01*
X143963897Y-97456534D01*
X143933452Y-97431548D01*
X143908466Y-97401103D01*
X143889899Y-97366367D01*
X143878465Y-97328674D01*
X143874000Y-97283339D01*
X143874000Y-96196661D01*
X143878465Y-96151326D01*
X143889899Y-96113633D01*
X143908466Y-96078897D01*
X143933452Y-96048452D01*
X143963897Y-96023466D01*
X143998633Y-96004899D01*
X144036326Y-95993465D01*
X144081661Y-95989000D01*
X144918339Y-95989000D01*
X144963674Y-95993465D01*
G37*
G36*
X161373674Y-95993465D02*
G01*
X161411367Y-96004899D01*
X161446103Y-96023466D01*
X161476548Y-96048452D01*
X161501534Y-96078897D01*
X161520101Y-96113633D01*
X161531535Y-96151326D01*
X161536000Y-96196661D01*
X161536000Y-97283339D01*
X161531535Y-97328674D01*
X161520101Y-97366367D01*
X161501534Y-97401103D01*
X161476548Y-97431548D01*
X161446103Y-97456534D01*
X161411367Y-97475101D01*
X161373674Y-97486535D01*
X161328339Y-97491000D01*
X160491661Y-97491000D01*
X160446326Y-97486535D01*
X160408633Y-97475101D01*
X160373897Y-97456534D01*
X160343452Y-97431548D01*
X160318466Y-97401103D01*
X160299899Y-97366367D01*
X160288465Y-97328674D01*
X160284000Y-97283339D01*
X160284000Y-96196661D01*
X160288465Y-96151326D01*
X160299899Y-96113633D01*
X160318466Y-96078897D01*
X160343452Y-96048452D01*
X160373897Y-96023466D01*
X160408633Y-96004899D01*
X160446326Y-95993465D01*
X160491661Y-95989000D01*
X161328339Y-95989000D01*
X161373674Y-95993465D01*
G37*
G36*
X175343674Y-95993465D02*
G01*
X175381367Y-96004899D01*
X175416103Y-96023466D01*
X175446548Y-96048452D01*
X175471534Y-96078897D01*
X175490101Y-96113633D01*
X175501535Y-96151326D01*
X175506000Y-96196661D01*
X175506000Y-97283339D01*
X175501535Y-97328674D01*
X175490101Y-97366367D01*
X175471534Y-97401103D01*
X175446548Y-97431548D01*
X175416103Y-97456534D01*
X175381367Y-97475101D01*
X175343674Y-97486535D01*
X175298339Y-97491000D01*
X174461661Y-97491000D01*
X174416326Y-97486535D01*
X174378633Y-97475101D01*
X174343897Y-97456534D01*
X174313452Y-97431548D01*
X174288466Y-97401103D01*
X174269899Y-97366367D01*
X174258465Y-97328674D01*
X174254000Y-97283339D01*
X174254000Y-96196661D01*
X174258465Y-96151326D01*
X174269899Y-96113633D01*
X174288466Y-96078897D01*
X174313452Y-96048452D01*
X174343897Y-96023466D01*
X174378633Y-96004899D01*
X174416326Y-95993465D01*
X174461661Y-95989000D01*
X175298339Y-95989000D01*
X175343674Y-95993465D01*
G37*
G36*
X173293674Y-95993465D02*
G01*
X173331367Y-96004899D01*
X173366103Y-96023466D01*
X173396548Y-96048452D01*
X173421534Y-96078897D01*
X173440101Y-96113633D01*
X173451535Y-96151326D01*
X173456000Y-96196661D01*
X173456000Y-97283339D01*
X173451535Y-97328674D01*
X173440101Y-97366367D01*
X173421534Y-97401103D01*
X173396548Y-97431548D01*
X173366103Y-97456534D01*
X173331367Y-97475101D01*
X173293674Y-97486535D01*
X173248339Y-97491000D01*
X172411661Y-97491000D01*
X172366326Y-97486535D01*
X172328633Y-97475101D01*
X172293897Y-97456534D01*
X172263452Y-97431548D01*
X172238466Y-97401103D01*
X172219899Y-97366367D01*
X172208465Y-97328674D01*
X172204000Y-97283339D01*
X172204000Y-96196661D01*
X172208465Y-96151326D01*
X172219899Y-96113633D01*
X172238466Y-96078897D01*
X172263452Y-96048452D01*
X172293897Y-96023466D01*
X172328633Y-96004899D01*
X172366326Y-95993465D01*
X172411661Y-95989000D01*
X173248339Y-95989000D01*
X173293674Y-95993465D01*
G37*
G36*
X189313674Y-95993465D02*
G01*
X189351367Y-96004899D01*
X189386103Y-96023466D01*
X189416548Y-96048452D01*
X189441534Y-96078897D01*
X189460101Y-96113633D01*
X189471535Y-96151326D01*
X189476000Y-96196661D01*
X189476000Y-97283339D01*
X189471535Y-97328674D01*
X189460101Y-97366367D01*
X189441534Y-97401103D01*
X189416548Y-97431548D01*
X189386103Y-97456534D01*
X189351367Y-97475101D01*
X189313674Y-97486535D01*
X189268339Y-97491000D01*
X188431661Y-97491000D01*
X188386326Y-97486535D01*
X188348633Y-97475101D01*
X188313897Y-97456534D01*
X188283452Y-97431548D01*
X188258466Y-97401103D01*
X188239899Y-97366367D01*
X188228465Y-97328674D01*
X188224000Y-97283339D01*
X188224000Y-96196661D01*
X188228465Y-96151326D01*
X188239899Y-96113633D01*
X188258466Y-96078897D01*
X188283452Y-96048452D01*
X188313897Y-96023466D01*
X188348633Y-96004899D01*
X188386326Y-95993465D01*
X188431661Y-95989000D01*
X189268339Y-95989000D01*
X189313674Y-95993465D01*
G37*
G36*
X187263674Y-95993465D02*
G01*
X187301367Y-96004899D01*
X187336103Y-96023466D01*
X187366548Y-96048452D01*
X187391534Y-96078897D01*
X187410101Y-96113633D01*
X187421535Y-96151326D01*
X187426000Y-96196661D01*
X187426000Y-97283339D01*
X187421535Y-97328674D01*
X187410101Y-97366367D01*
X187391534Y-97401103D01*
X187366548Y-97431548D01*
X187336103Y-97456534D01*
X187301367Y-97475101D01*
X187263674Y-97486535D01*
X187218339Y-97491000D01*
X186381661Y-97491000D01*
X186336326Y-97486535D01*
X186298633Y-97475101D01*
X186263897Y-97456534D01*
X186233452Y-97431548D01*
X186208466Y-97401103D01*
X186189899Y-97366367D01*
X186178465Y-97328674D01*
X186174000Y-97283339D01*
X186174000Y-96196661D01*
X186178465Y-96151326D01*
X186189899Y-96113633D01*
X186208466Y-96078897D01*
X186233452Y-96048452D01*
X186263897Y-96023466D01*
X186298633Y-96004899D01*
X186336326Y-95993465D01*
X186381661Y-95989000D01*
X187218339Y-95989000D01*
X187263674Y-95993465D01*
G37*
G36*
X149408674Y-95993465D02*
G01*
X149446367Y-96004899D01*
X149481103Y-96023466D01*
X149511548Y-96048452D01*
X149536534Y-96078897D01*
X149555101Y-96113633D01*
X149566535Y-96151326D01*
X149571000Y-96196661D01*
X149571000Y-97283339D01*
X149566535Y-97328674D01*
X149555101Y-97366367D01*
X149536534Y-97401103D01*
X149511548Y-97431548D01*
X149481103Y-97456534D01*
X149446367Y-97475101D01*
X149408674Y-97486535D01*
X149363339Y-97491000D01*
X148526661Y-97491000D01*
X148481326Y-97486535D01*
X148443633Y-97475101D01*
X148408897Y-97456534D01*
X148378452Y-97431548D01*
X148353466Y-97401103D01*
X148334899Y-97366367D01*
X148323465Y-97328674D01*
X148319000Y-97283339D01*
X148319000Y-96196661D01*
X148323465Y-96151326D01*
X148334899Y-96113633D01*
X148353466Y-96078897D01*
X148378452Y-96048452D01*
X148408897Y-96023466D01*
X148443633Y-96004899D01*
X148481326Y-95993465D01*
X148526661Y-95989000D01*
X149363339Y-95989000D01*
X149408674Y-95993465D01*
G37*
G36*
X163768674Y-95993465D02*
G01*
X163806367Y-96004899D01*
X163841103Y-96023466D01*
X163871548Y-96048452D01*
X163896534Y-96078897D01*
X163915101Y-96113633D01*
X163926535Y-96151326D01*
X163931000Y-96196661D01*
X163931000Y-97283339D01*
X163926535Y-97328674D01*
X163915101Y-97366367D01*
X163896534Y-97401103D01*
X163871548Y-97431548D01*
X163841103Y-97456534D01*
X163806367Y-97475101D01*
X163768674Y-97486535D01*
X163723339Y-97491000D01*
X162886661Y-97491000D01*
X162841326Y-97486535D01*
X162803633Y-97475101D01*
X162768897Y-97456534D01*
X162738452Y-97431548D01*
X162713466Y-97401103D01*
X162694899Y-97366367D01*
X162683465Y-97328674D01*
X162679000Y-97283339D01*
X162679000Y-96196661D01*
X162683465Y-96151326D01*
X162694899Y-96113633D01*
X162713466Y-96078897D01*
X162738452Y-96048452D01*
X162768897Y-96023466D01*
X162803633Y-96004899D01*
X162841326Y-95993465D01*
X162886661Y-95989000D01*
X163723339Y-95989000D01*
X163768674Y-95993465D01*
G37*
G36*
X165818674Y-95993465D02*
G01*
X165856367Y-96004899D01*
X165891103Y-96023466D01*
X165921548Y-96048452D01*
X165946534Y-96078897D01*
X165965101Y-96113633D01*
X165976535Y-96151326D01*
X165981000Y-96196661D01*
X165981000Y-97283339D01*
X165976535Y-97328674D01*
X165965101Y-97366367D01*
X165946534Y-97401103D01*
X165921548Y-97431548D01*
X165891103Y-97456534D01*
X165856367Y-97475101D01*
X165818674Y-97486535D01*
X165773339Y-97491000D01*
X164936661Y-97491000D01*
X164891326Y-97486535D01*
X164853633Y-97475101D01*
X164818897Y-97456534D01*
X164788452Y-97431548D01*
X164763466Y-97401103D01*
X164744899Y-97366367D01*
X164733465Y-97328674D01*
X164729000Y-97283339D01*
X164729000Y-96196661D01*
X164733465Y-96151326D01*
X164744899Y-96113633D01*
X164763466Y-96078897D01*
X164788452Y-96048452D01*
X164818897Y-96023466D01*
X164853633Y-96004899D01*
X164891326Y-95993465D01*
X164936661Y-95989000D01*
X165773339Y-95989000D01*
X165818674Y-95993465D01*
G37*
G36*
X191708674Y-95993465D02*
G01*
X191746367Y-96004899D01*
X191781103Y-96023466D01*
X191811548Y-96048452D01*
X191836534Y-96078897D01*
X191855101Y-96113633D01*
X191866535Y-96151326D01*
X191871000Y-96196661D01*
X191871000Y-97283339D01*
X191866535Y-97328674D01*
X191855101Y-97366367D01*
X191836534Y-97401103D01*
X191811548Y-97431548D01*
X191781103Y-97456534D01*
X191746367Y-97475101D01*
X191708674Y-97486535D01*
X191663339Y-97491000D01*
X190826661Y-97491000D01*
X190781326Y-97486535D01*
X190743633Y-97475101D01*
X190708897Y-97456534D01*
X190678452Y-97431548D01*
X190653466Y-97401103D01*
X190634899Y-97366367D01*
X190623465Y-97328674D01*
X190619000Y-97283339D01*
X190619000Y-96196661D01*
X190623465Y-96151326D01*
X190634899Y-96113633D01*
X190653466Y-96078897D01*
X190678452Y-96048452D01*
X190708897Y-96023466D01*
X190743633Y-96004899D01*
X190781326Y-95993465D01*
X190826661Y-95989000D01*
X191663339Y-95989000D01*
X191708674Y-95993465D01*
G37*
G36*
X193758674Y-95993465D02*
G01*
X193796367Y-96004899D01*
X193831103Y-96023466D01*
X193861548Y-96048452D01*
X193886534Y-96078897D01*
X193905101Y-96113633D01*
X193916535Y-96151326D01*
X193921000Y-96196661D01*
X193921000Y-97283339D01*
X193916535Y-97328674D01*
X193905101Y-97366367D01*
X193886534Y-97401103D01*
X193861548Y-97431548D01*
X193831103Y-97456534D01*
X193796367Y-97475101D01*
X193758674Y-97486535D01*
X193713339Y-97491000D01*
X192876661Y-97491000D01*
X192831326Y-97486535D01*
X192793633Y-97475101D01*
X192758897Y-97456534D01*
X192728452Y-97431548D01*
X192703466Y-97401103D01*
X192684899Y-97366367D01*
X192673465Y-97328674D01*
X192669000Y-97283339D01*
X192669000Y-96196661D01*
X192673465Y-96151326D01*
X192684899Y-96113633D01*
X192703466Y-96078897D01*
X192728452Y-96048452D01*
X192758897Y-96023466D01*
X192793633Y-96004899D01*
X192831326Y-95993465D01*
X192876661Y-95989000D01*
X193713339Y-95989000D01*
X193758674Y-95993465D01*
G37*
G36*
X147013674Y-95993465D02*
G01*
X147051367Y-96004899D01*
X147086103Y-96023466D01*
X147116548Y-96048452D01*
X147141534Y-96078897D01*
X147160101Y-96113633D01*
X147171535Y-96151326D01*
X147176000Y-96196661D01*
X147176000Y-97283339D01*
X147171535Y-97328674D01*
X147160101Y-97366367D01*
X147141534Y-97401103D01*
X147116548Y-97431548D01*
X147086103Y-97456534D01*
X147051367Y-97475101D01*
X147013674Y-97486535D01*
X146968339Y-97491000D01*
X146131661Y-97491000D01*
X146086326Y-97486535D01*
X146048633Y-97475101D01*
X146013897Y-97456534D01*
X145983452Y-97431548D01*
X145958466Y-97401103D01*
X145939899Y-97366367D01*
X145928465Y-97328674D01*
X145924000Y-97283339D01*
X145924000Y-96196661D01*
X145928465Y-96151326D01*
X145939899Y-96113633D01*
X145958466Y-96078897D01*
X145983452Y-96048452D01*
X146013897Y-96023466D01*
X146048633Y-96004899D01*
X146086326Y-95993465D01*
X146131661Y-95989000D01*
X146968339Y-95989000D01*
X147013674Y-95993465D01*
G37*
G36*
X179788674Y-95993465D02*
G01*
X179826367Y-96004899D01*
X179861103Y-96023466D01*
X179891548Y-96048452D01*
X179916534Y-96078897D01*
X179935101Y-96113633D01*
X179946535Y-96151326D01*
X179951000Y-96196661D01*
X179951000Y-97283339D01*
X179946535Y-97328674D01*
X179935101Y-97366367D01*
X179916534Y-97401103D01*
X179891548Y-97431548D01*
X179861103Y-97456534D01*
X179826367Y-97475101D01*
X179788674Y-97486535D01*
X179743339Y-97491000D01*
X178906661Y-97491000D01*
X178861326Y-97486535D01*
X178823633Y-97475101D01*
X178788897Y-97456534D01*
X178758452Y-97431548D01*
X178733466Y-97401103D01*
X178714899Y-97366367D01*
X178703465Y-97328674D01*
X178699000Y-97283339D01*
X178699000Y-96196661D01*
X178703465Y-96151326D01*
X178714899Y-96113633D01*
X178733466Y-96078897D01*
X178758452Y-96048452D01*
X178788897Y-96023466D01*
X178823633Y-96004899D01*
X178861326Y-95993465D01*
X178906661Y-95989000D01*
X179743339Y-95989000D01*
X179788674Y-95993465D01*
G37*
G36*
X177738674Y-95993465D02*
G01*
X177776367Y-96004899D01*
X177811103Y-96023466D01*
X177841548Y-96048452D01*
X177866534Y-96078897D01*
X177885101Y-96113633D01*
X177896535Y-96151326D01*
X177901000Y-96196661D01*
X177901000Y-97283339D01*
X177896535Y-97328674D01*
X177885101Y-97366367D01*
X177866534Y-97401103D01*
X177841548Y-97431548D01*
X177811103Y-97456534D01*
X177776367Y-97475101D01*
X177738674Y-97486535D01*
X177693339Y-97491000D01*
X176856661Y-97491000D01*
X176811326Y-97486535D01*
X176773633Y-97475101D01*
X176738897Y-97456534D01*
X176708452Y-97431548D01*
X176683466Y-97401103D01*
X176664899Y-97366367D01*
X176653465Y-97328674D01*
X176649000Y-97283339D01*
X176649000Y-96196661D01*
X176653465Y-96151326D01*
X176664899Y-96113633D01*
X176683466Y-96078897D01*
X176708452Y-96048452D01*
X176738897Y-96023466D01*
X176773633Y-96004899D01*
X176811326Y-95993465D01*
X176856661Y-95989000D01*
X177693339Y-95989000D01*
X177738674Y-95993465D01*
G37*
G36*
X151458674Y-95993465D02*
G01*
X151496367Y-96004899D01*
X151531103Y-96023466D01*
X151561548Y-96048452D01*
X151586534Y-96078897D01*
X151605101Y-96113633D01*
X151616535Y-96151326D01*
X151621000Y-96196661D01*
X151621000Y-97283339D01*
X151616535Y-97328674D01*
X151605101Y-97366367D01*
X151586534Y-97401103D01*
X151561548Y-97431548D01*
X151531103Y-97456534D01*
X151496367Y-97475101D01*
X151458674Y-97486535D01*
X151413339Y-97491000D01*
X150576661Y-97491000D01*
X150531326Y-97486535D01*
X150493633Y-97475101D01*
X150458897Y-97456534D01*
X150428452Y-97431548D01*
X150403466Y-97401103D01*
X150384899Y-97366367D01*
X150373465Y-97328674D01*
X150369000Y-97283339D01*
X150369000Y-96196661D01*
X150373465Y-96151326D01*
X150384899Y-96113633D01*
X150403466Y-96078897D01*
X150428452Y-96048452D01*
X150458897Y-96023466D01*
X150493633Y-96004899D01*
X150531326Y-95993465D01*
X150576661Y-95989000D01*
X151413339Y-95989000D01*
X151458674Y-95993465D01*
G37*
G36*
X154368674Y-96118465D02*
G01*
X154406367Y-96129899D01*
X154441103Y-96148466D01*
X154471548Y-96173452D01*
X154496534Y-96203897D01*
X154515101Y-96238633D01*
X154526535Y-96276326D01*
X154531000Y-96321661D01*
X154531000Y-97158339D01*
X154526535Y-97203674D01*
X154515101Y-97241367D01*
X154496534Y-97276103D01*
X154471548Y-97306548D01*
X154441103Y-97331534D01*
X154406367Y-97350101D01*
X154368674Y-97361535D01*
X154323339Y-97366000D01*
X153236661Y-97366000D01*
X153191326Y-97361535D01*
X153153633Y-97350101D01*
X153118897Y-97331534D01*
X153088452Y-97306548D01*
X153063466Y-97276103D01*
X153044899Y-97241367D01*
X153033465Y-97203674D01*
X153029000Y-97158339D01*
X153029000Y-96321661D01*
X153033465Y-96276326D01*
X153044899Y-96238633D01*
X153063466Y-96203897D01*
X153088452Y-96173452D01*
X153118897Y-96148466D01*
X153153633Y-96129899D01*
X153191326Y-96118465D01*
X153236661Y-96114000D01*
X154323339Y-96114000D01*
X154368674Y-96118465D01*
G37*
G36*
X170878674Y-96118465D02*
G01*
X170916367Y-96129899D01*
X170951103Y-96148466D01*
X170981548Y-96173452D01*
X171006534Y-96203897D01*
X171025101Y-96238633D01*
X171036535Y-96276326D01*
X171041000Y-96321661D01*
X171041000Y-97158339D01*
X171036535Y-97203674D01*
X171025101Y-97241367D01*
X171006534Y-97276103D01*
X170981548Y-97306548D01*
X170951103Y-97331534D01*
X170916367Y-97350101D01*
X170878674Y-97361535D01*
X170833339Y-97366000D01*
X169746661Y-97366000D01*
X169701326Y-97361535D01*
X169663633Y-97350101D01*
X169628897Y-97331534D01*
X169598452Y-97306548D01*
X169573466Y-97276103D01*
X169554899Y-97241367D01*
X169543465Y-97203674D01*
X169539000Y-97158339D01*
X169539000Y-96321661D01*
X169543465Y-96276326D01*
X169554899Y-96238633D01*
X169573466Y-96203897D01*
X169598452Y-96173452D01*
X169628897Y-96148466D01*
X169663633Y-96129899D01*
X169701326Y-96118465D01*
X169746661Y-96114000D01*
X170833339Y-96114000D01*
X170878674Y-96118465D01*
G37*
G36*
X182308674Y-96118465D02*
G01*
X182346367Y-96129899D01*
X182381103Y-96148466D01*
X182411548Y-96173452D01*
X182436534Y-96203897D01*
X182455101Y-96238633D01*
X182466535Y-96276326D01*
X182471000Y-96321661D01*
X182471000Y-97158339D01*
X182466535Y-97203674D01*
X182455101Y-97241367D01*
X182436534Y-97276103D01*
X182411548Y-97306548D01*
X182381103Y-97331534D01*
X182346367Y-97350101D01*
X182308674Y-97361535D01*
X182263339Y-97366000D01*
X181176661Y-97366000D01*
X181131326Y-97361535D01*
X181093633Y-97350101D01*
X181058897Y-97331534D01*
X181028452Y-97306548D01*
X181003466Y-97276103D01*
X180984899Y-97241367D01*
X180973465Y-97203674D01*
X180969000Y-97158339D01*
X180969000Y-96321661D01*
X180973465Y-96276326D01*
X180984899Y-96238633D01*
X181003466Y-96203897D01*
X181028452Y-96173452D01*
X181058897Y-96148466D01*
X181093633Y-96129899D01*
X181131326Y-96118465D01*
X181176661Y-96114000D01*
X182263339Y-96114000D01*
X182308674Y-96118465D01*
G37*
G36*
X184848674Y-96118465D02*
G01*
X184886367Y-96129899D01*
X184921103Y-96148466D01*
X184951548Y-96173452D01*
X184976534Y-96203897D01*
X184995101Y-96238633D01*
X185006535Y-96276326D01*
X185011000Y-96321661D01*
X185011000Y-97158339D01*
X185006535Y-97203674D01*
X184995101Y-97241367D01*
X184976534Y-97276103D01*
X184951548Y-97306548D01*
X184921103Y-97331534D01*
X184886367Y-97350101D01*
X184848674Y-97361535D01*
X184803339Y-97366000D01*
X183716661Y-97366000D01*
X183671326Y-97361535D01*
X183633633Y-97350101D01*
X183598897Y-97331534D01*
X183568452Y-97306548D01*
X183543466Y-97276103D01*
X183524899Y-97241367D01*
X183513465Y-97203674D01*
X183509000Y-97158339D01*
X183509000Y-96321661D01*
X183513465Y-96276326D01*
X183524899Y-96238633D01*
X183543466Y-96203897D01*
X183568452Y-96173452D01*
X183598897Y-96148466D01*
X183633633Y-96129899D01*
X183671326Y-96118465D01*
X183716661Y-96114000D01*
X184803339Y-96114000D01*
X184848674Y-96118465D01*
G37*
G36*
X168338674Y-96118465D02*
G01*
X168376367Y-96129899D01*
X168411103Y-96148466D01*
X168441548Y-96173452D01*
X168466534Y-96203897D01*
X168485101Y-96238633D01*
X168496535Y-96276326D01*
X168501000Y-96321661D01*
X168501000Y-97158339D01*
X168496535Y-97203674D01*
X168485101Y-97241367D01*
X168466534Y-97276103D01*
X168441548Y-97306548D01*
X168411103Y-97331534D01*
X168376367Y-97350101D01*
X168338674Y-97361535D01*
X168293339Y-97366000D01*
X167206661Y-97366000D01*
X167161326Y-97361535D01*
X167123633Y-97350101D01*
X167088897Y-97331534D01*
X167058452Y-97306548D01*
X167033466Y-97276103D01*
X167014899Y-97241367D01*
X167003465Y-97203674D01*
X166999000Y-97158339D01*
X166999000Y-96321661D01*
X167003465Y-96276326D01*
X167014899Y-96238633D01*
X167033466Y-96203897D01*
X167058452Y-96173452D01*
X167088897Y-96148466D01*
X167123633Y-96129899D01*
X167161326Y-96118465D01*
X167206661Y-96114000D01*
X168293339Y-96114000D01*
X168338674Y-96118465D01*
G37*
G36*
X156908674Y-96118465D02*
G01*
X156946367Y-96129899D01*
X156981103Y-96148466D01*
X157011548Y-96173452D01*
X157036534Y-96203897D01*
X157055101Y-96238633D01*
X157066535Y-96276326D01*
X157071000Y-96321661D01*
X157071000Y-97158339D01*
X157066535Y-97203674D01*
X157055101Y-97241367D01*
X157036534Y-97276103D01*
X157011548Y-97306548D01*
X156981103Y-97331534D01*
X156946367Y-97350101D01*
X156908674Y-97361535D01*
X156863339Y-97366000D01*
X155776661Y-97366000D01*
X155731326Y-97361535D01*
X155693633Y-97350101D01*
X155658897Y-97331534D01*
X155628452Y-97306548D01*
X155603466Y-97276103D01*
X155584899Y-97241367D01*
X155573465Y-97203674D01*
X155569000Y-97158339D01*
X155569000Y-96321661D01*
X155573465Y-96276326D01*
X155584899Y-96238633D01*
X155603466Y-96203897D01*
X155628452Y-96173452D01*
X155658897Y-96148466D01*
X155693633Y-96129899D01*
X155731326Y-96118465D01*
X155776661Y-96114000D01*
X156863339Y-96114000D01*
X156908674Y-96118465D01*
G37*
G36*
X198004903Y-92407075D02*
G01*
X198232571Y-92501378D01*
X198437466Y-92638285D01*
X198611715Y-92812534D01*
X198748622Y-93017429D01*
X198842925Y-93245097D01*
X198891000Y-93486787D01*
X198891000Y-93733213D01*
X198842925Y-93974903D01*
X198748622Y-94202571D01*
X198611715Y-94407466D01*
X198437466Y-94581715D01*
X198232571Y-94718622D01*
X198232570Y-94718623D01*
X198232569Y-94718623D01*
X198004903Y-94812925D01*
X197763214Y-94861000D01*
X197516786Y-94861000D01*
X197275097Y-94812925D01*
X197047431Y-94718623D01*
X197047430Y-94718623D01*
X197047429Y-94718622D01*
X196842534Y-94581715D01*
X196668285Y-94407466D01*
X196531378Y-94202571D01*
X196437075Y-93974903D01*
X196389000Y-93733213D01*
X196389000Y-93486787D01*
X196437075Y-93245097D01*
X196531378Y-93017429D01*
X196668285Y-92812534D01*
X196842534Y-92638285D01*
X197047429Y-92501378D01*
X197275097Y-92407075D01*
X197516786Y-92359000D01*
X197763214Y-92359000D01*
X198004903Y-92407075D01*
G37*
G36*
X204264903Y-92407075D02*
G01*
X204492571Y-92501378D01*
X204697466Y-92638285D01*
X204871715Y-92812534D01*
X205008622Y-93017429D01*
X205102925Y-93245097D01*
X205151000Y-93486787D01*
X205151000Y-93733213D01*
X205102925Y-93974903D01*
X205008622Y-94202571D01*
X204871715Y-94407466D01*
X204697466Y-94581715D01*
X204492571Y-94718622D01*
X204492570Y-94718623D01*
X204492569Y-94718623D01*
X204264903Y-94812925D01*
X204023214Y-94861000D01*
X203776786Y-94861000D01*
X203535097Y-94812925D01*
X203307431Y-94718623D01*
X203307430Y-94718623D01*
X203307429Y-94718622D01*
X203102534Y-94581715D01*
X202928285Y-94407466D01*
X202791378Y-94202571D01*
X202697075Y-93974903D01*
X202649000Y-93733213D01*
X202649000Y-93486787D01*
X202697075Y-93245097D01*
X202791378Y-93017429D01*
X202928285Y-92812534D01*
X203102534Y-92638285D01*
X203307429Y-92501378D01*
X203535097Y-92407075D01*
X203776786Y-92359000D01*
X204023214Y-92359000D01*
X204264903Y-92407075D01*
G37*
G36*
X134504903Y-92407075D02*
G01*
X134732571Y-92501378D01*
X134937466Y-92638285D01*
X135111715Y-92812534D01*
X135248622Y-93017429D01*
X135342925Y-93245097D01*
X135391000Y-93486787D01*
X135391000Y-93733213D01*
X135342925Y-93974903D01*
X135248622Y-94202571D01*
X135111715Y-94407466D01*
X134937466Y-94581715D01*
X134732571Y-94718622D01*
X134732570Y-94718623D01*
X134732569Y-94718623D01*
X134504903Y-94812925D01*
X134263214Y-94861000D01*
X134016786Y-94861000D01*
X133775097Y-94812925D01*
X133547431Y-94718623D01*
X133547430Y-94718623D01*
X133547429Y-94718622D01*
X133342534Y-94581715D01*
X133168285Y-94407466D01*
X133031378Y-94202571D01*
X132937075Y-93974903D01*
X132889000Y-93733213D01*
X132889000Y-93486787D01*
X132937075Y-93245097D01*
X133031378Y-93017429D01*
X133168285Y-92812534D01*
X133342534Y-92638285D01*
X133547429Y-92501378D01*
X133775097Y-92407075D01*
X134016786Y-92359000D01*
X134263214Y-92359000D01*
X134504903Y-92407075D01*
G37*
G36*
X140764903Y-92407075D02*
G01*
X140992571Y-92501378D01*
X141197466Y-92638285D01*
X141371715Y-92812534D01*
X141508622Y-93017429D01*
X141602925Y-93245097D01*
X141651000Y-93486787D01*
X141651000Y-93733213D01*
X141602925Y-93974903D01*
X141508622Y-94202571D01*
X141371715Y-94407466D01*
X141197466Y-94581715D01*
X140992571Y-94718622D01*
X140992570Y-94718623D01*
X140992569Y-94718623D01*
X140764903Y-94812925D01*
X140523214Y-94861000D01*
X140276786Y-94861000D01*
X140035097Y-94812925D01*
X139807431Y-94718623D01*
X139807430Y-94718623D01*
X139807429Y-94718622D01*
X139602534Y-94581715D01*
X139428285Y-94407466D01*
X139291378Y-94202571D01*
X139197075Y-93974903D01*
X139149000Y-93733213D01*
X139149000Y-93486787D01*
X139197075Y-93245097D01*
X139291378Y-93017429D01*
X139428285Y-92812534D01*
X139602534Y-92638285D01*
X139807429Y-92501378D01*
X140035097Y-92407075D01*
X140276786Y-92359000D01*
X140523214Y-92359000D01*
X140764903Y-92407075D01*
G37*
G36*
X140924903Y-79857075D02*
G01*
X141152571Y-79951378D01*
X141357466Y-80088285D01*
X141531715Y-80262534D01*
X141668622Y-80467429D01*
X141762925Y-80695097D01*
X141811000Y-80936787D01*
X141811000Y-81183213D01*
X141762925Y-81424903D01*
X141668622Y-81652571D01*
X141531715Y-81857466D01*
X141357466Y-82031715D01*
X141152571Y-82168622D01*
X141152570Y-82168623D01*
X141152569Y-82168623D01*
X140924903Y-82262925D01*
X140683214Y-82311000D01*
X140436786Y-82311000D01*
X140195097Y-82262925D01*
X139967431Y-82168623D01*
X139967430Y-82168623D01*
X139967429Y-82168622D01*
X139762534Y-82031715D01*
X139588285Y-81857466D01*
X139451378Y-81652571D01*
X139357075Y-81424903D01*
X139309000Y-81183213D01*
X139309000Y-80936787D01*
X139357075Y-80695097D01*
X139451378Y-80467429D01*
X139588285Y-80262534D01*
X139762534Y-80088285D01*
X139967429Y-79951378D01*
X140195097Y-79857075D01*
X140436786Y-79809000D01*
X140683214Y-79809000D01*
X140924903Y-79857075D01*
G37*
G36*
X134664903Y-79857075D02*
G01*
X134892571Y-79951378D01*
X135097466Y-80088285D01*
X135271715Y-80262534D01*
X135408622Y-80467429D01*
X135502925Y-80695097D01*
X135551000Y-80936787D01*
X135551000Y-81183213D01*
X135502925Y-81424903D01*
X135408622Y-81652571D01*
X135271715Y-81857466D01*
X135097466Y-82031715D01*
X134892571Y-82168622D01*
X134892570Y-82168623D01*
X134892569Y-82168623D01*
X134664903Y-82262925D01*
X134423214Y-82311000D01*
X134176786Y-82311000D01*
X133935097Y-82262925D01*
X133707431Y-82168623D01*
X133707430Y-82168623D01*
X133707429Y-82168622D01*
X133502534Y-82031715D01*
X133328285Y-81857466D01*
X133191378Y-81652571D01*
X133097075Y-81424903D01*
X133049000Y-81183213D01*
X133049000Y-80936787D01*
X133097075Y-80695097D01*
X133191378Y-80467429D01*
X133328285Y-80262534D01*
X133502534Y-80088285D01*
X133707429Y-79951378D01*
X133935097Y-79857075D01*
X134176786Y-79809000D01*
X134423214Y-79809000D01*
X134664903Y-79857075D01*
G37*
G36*
X166287903Y-79857075D02*
G01*
X166515571Y-79951378D01*
X166720466Y-80088285D01*
X166894715Y-80262534D01*
X167031622Y-80467429D01*
X167125925Y-80695097D01*
X167174000Y-80936787D01*
X167174000Y-81183213D01*
X167125925Y-81424903D01*
X167031622Y-81652571D01*
X166894715Y-81857466D01*
X166720466Y-82031715D01*
X166515571Y-82168622D01*
X166515570Y-82168623D01*
X166515569Y-82168623D01*
X166287903Y-82262925D01*
X166046214Y-82311000D01*
X165799786Y-82311000D01*
X165558097Y-82262925D01*
X165330431Y-82168623D01*
X165330430Y-82168623D01*
X165330429Y-82168622D01*
X165125534Y-82031715D01*
X164951285Y-81857466D01*
X164814378Y-81652571D01*
X164720075Y-81424903D01*
X164672000Y-81183213D01*
X164672000Y-80936787D01*
X164720075Y-80695097D01*
X164814378Y-80467429D01*
X164951285Y-80262534D01*
X165125534Y-80088285D01*
X165330429Y-79951378D01*
X165558097Y-79857075D01*
X165799786Y-79809000D01*
X166046214Y-79809000D01*
X166287903Y-79857075D01*
G37*
G36*
X172547903Y-79857075D02*
G01*
X172775571Y-79951378D01*
X172980466Y-80088285D01*
X173154715Y-80262534D01*
X173291622Y-80467429D01*
X173385925Y-80695097D01*
X173434000Y-80936787D01*
X173434000Y-81183213D01*
X173385925Y-81424903D01*
X173291622Y-81652571D01*
X173154715Y-81857466D01*
X172980466Y-82031715D01*
X172775571Y-82168622D01*
X172775570Y-82168623D01*
X172775569Y-82168623D01*
X172547903Y-82262925D01*
X172306214Y-82311000D01*
X172059786Y-82311000D01*
X171818097Y-82262925D01*
X171590431Y-82168623D01*
X171590430Y-82168623D01*
X171590429Y-82168622D01*
X171385534Y-82031715D01*
X171211285Y-81857466D01*
X171074378Y-81652571D01*
X170980075Y-81424903D01*
X170932000Y-81183213D01*
X170932000Y-80936787D01*
X170980075Y-80695097D01*
X171074378Y-80467429D01*
X171211285Y-80262534D01*
X171385534Y-80088285D01*
X171590429Y-79951378D01*
X171818097Y-79857075D01*
X172059786Y-79809000D01*
X172306214Y-79809000D01*
X172547903Y-79857075D01*
G37*
G36*
X198164903Y-79857075D02*
G01*
X198392571Y-79951378D01*
X198597466Y-80088285D01*
X198771715Y-80262534D01*
X198908622Y-80467429D01*
X199002925Y-80695097D01*
X199051000Y-80936787D01*
X199051000Y-81183213D01*
X199002925Y-81424903D01*
X198908622Y-81652571D01*
X198771715Y-81857466D01*
X198597466Y-82031715D01*
X198392571Y-82168622D01*
X198392570Y-82168623D01*
X198392569Y-82168623D01*
X198164903Y-82262925D01*
X197923214Y-82311000D01*
X197676786Y-82311000D01*
X197435097Y-82262925D01*
X197207431Y-82168623D01*
X197207430Y-82168623D01*
X197207429Y-82168622D01*
X197002534Y-82031715D01*
X196828285Y-81857466D01*
X196691378Y-81652571D01*
X196597075Y-81424903D01*
X196549000Y-81183213D01*
X196549000Y-80936787D01*
X196597075Y-80695097D01*
X196691378Y-80467429D01*
X196828285Y-80262534D01*
X197002534Y-80088285D01*
X197207429Y-79951378D01*
X197435097Y-79857075D01*
X197676786Y-79809000D01*
X197923214Y-79809000D01*
X198164903Y-79857075D01*
G37*
G36*
X204424903Y-79857075D02*
G01*
X204652571Y-79951378D01*
X204857466Y-80088285D01*
X205031715Y-80262534D01*
X205168622Y-80467429D01*
X205262925Y-80695097D01*
X205311000Y-80936787D01*
X205311000Y-81183213D01*
X205262925Y-81424903D01*
X205168622Y-81652571D01*
X205031715Y-81857466D01*
X204857466Y-82031715D01*
X204652571Y-82168622D01*
X204652570Y-82168623D01*
X204652569Y-82168623D01*
X204424903Y-82262925D01*
X204183214Y-82311000D01*
X203936786Y-82311000D01*
X203695097Y-82262925D01*
X203467431Y-82168623D01*
X203467430Y-82168623D01*
X203467429Y-82168622D01*
X203262534Y-82031715D01*
X203088285Y-81857466D01*
X202951378Y-81652571D01*
X202857075Y-81424903D01*
X202809000Y-81183213D01*
X202809000Y-80936787D01*
X202857075Y-80695097D01*
X202951378Y-80467429D01*
X203088285Y-80262534D01*
X203262534Y-80088285D01*
X203467429Y-79951378D01*
X203695097Y-79857075D01*
X203936786Y-79809000D01*
X204183214Y-79809000D01*
X204424903Y-79857075D01*
G37*
G36*
X211920562Y-77008181D02*
G01*
X211955481Y-77018774D01*
X211987663Y-77035976D01*
X212015873Y-77059127D01*
X212039024Y-77087337D01*
X212056226Y-77119519D01*
X212066819Y-77154438D01*
X212071000Y-77196895D01*
X212071000Y-78663105D01*
X212066819Y-78705562D01*
X212056226Y-78740481D01*
X212039024Y-78772663D01*
X212015873Y-78800873D01*
X211987663Y-78824024D01*
X211955481Y-78841226D01*
X211920562Y-78851819D01*
X211878105Y-78856000D01*
X210736895Y-78856000D01*
X210694438Y-78851819D01*
X210659519Y-78841226D01*
X210627337Y-78824024D01*
X210599127Y-78800873D01*
X210575976Y-78772663D01*
X210558774Y-78740481D01*
X210548181Y-78705562D01*
X210544000Y-78663105D01*
X210544000Y-77196895D01*
X210548181Y-77154438D01*
X210558774Y-77119519D01*
X210575976Y-77087337D01*
X210599127Y-77059127D01*
X210627337Y-77035976D01*
X210659519Y-77018774D01*
X210694438Y-77008181D01*
X210736895Y-77004000D01*
X211878105Y-77004000D01*
X211920562Y-77008181D01*
G37*
G36*
X208945562Y-77008181D02*
G01*
X208980481Y-77018774D01*
X209012663Y-77035976D01*
X209040873Y-77059127D01*
X209064024Y-77087337D01*
X209081226Y-77119519D01*
X209091819Y-77154438D01*
X209096000Y-77196895D01*
X209096000Y-78663105D01*
X209091819Y-78705562D01*
X209081226Y-78740481D01*
X209064024Y-78772663D01*
X209040873Y-78800873D01*
X209012663Y-78824024D01*
X208980481Y-78841226D01*
X208945562Y-78851819D01*
X208903105Y-78856000D01*
X207761895Y-78856000D01*
X207719438Y-78851819D01*
X207684519Y-78841226D01*
X207652337Y-78824024D01*
X207624127Y-78800873D01*
X207600976Y-78772663D01*
X207583774Y-78740481D01*
X207573181Y-78705562D01*
X207569000Y-78663105D01*
X207569000Y-77196895D01*
X207573181Y-77154438D01*
X207583774Y-77119519D01*
X207600976Y-77087337D01*
X207624127Y-77059127D01*
X207652337Y-77035976D01*
X207684519Y-77018774D01*
X207719438Y-77008181D01*
X207761895Y-77004000D01*
X208903105Y-77004000D01*
X208945562Y-77008181D01*
G37*
G36*
X201100899Y-77070832D02*
G01*
X201185520Y-77087664D01*
X201344942Y-77153699D01*
X201488418Y-77249566D01*
X201610434Y-77371582D01*
X201706301Y-77515058D01*
X201772336Y-77674480D01*
X201806000Y-77843721D01*
X201806000Y-78016279D01*
X201772336Y-78185520D01*
X201706301Y-78344942D01*
X201610434Y-78488418D01*
X201488418Y-78610434D01*
X201344942Y-78706301D01*
X201185520Y-78772336D01*
X201016280Y-78806000D01*
X200843720Y-78806000D01*
X200674480Y-78772336D01*
X200515058Y-78706301D01*
X200371582Y-78610434D01*
X200249566Y-78488418D01*
X200153699Y-78344942D01*
X200087664Y-78185520D01*
X200054000Y-78016279D01*
X200054000Y-77843721D01*
X200087664Y-77674480D01*
X200153699Y-77515058D01*
X200249566Y-77371582D01*
X200371582Y-77249566D01*
X200515058Y-77153699D01*
X200674480Y-77087664D01*
X200759101Y-77070832D01*
X200843720Y-77054000D01*
X201016280Y-77054000D01*
X201100899Y-77070832D01*
G37*
G36*
X169223899Y-77070832D02*
G01*
X169308520Y-77087664D01*
X169467942Y-77153699D01*
X169611418Y-77249566D01*
X169733434Y-77371582D01*
X169829301Y-77515058D01*
X169895336Y-77674480D01*
X169929000Y-77843721D01*
X169929000Y-78016279D01*
X169895336Y-78185520D01*
X169829301Y-78344942D01*
X169733434Y-78488418D01*
X169611418Y-78610434D01*
X169467942Y-78706301D01*
X169308520Y-78772336D01*
X169139280Y-78806000D01*
X168966720Y-78806000D01*
X168797480Y-78772336D01*
X168638058Y-78706301D01*
X168494582Y-78610434D01*
X168372566Y-78488418D01*
X168276699Y-78344942D01*
X168210664Y-78185520D01*
X168177000Y-78016279D01*
X168177000Y-77843721D01*
X168210664Y-77674480D01*
X168276699Y-77515058D01*
X168372566Y-77371582D01*
X168494582Y-77249566D01*
X168638058Y-77153699D01*
X168797480Y-77087664D01*
X168882101Y-77070832D01*
X168966720Y-77054000D01*
X169139280Y-77054000D01*
X169223899Y-77070832D01*
G37*
G36*
X137600899Y-77070832D02*
G01*
X137685520Y-77087664D01*
X137844942Y-77153699D01*
X137988418Y-77249566D01*
X138110434Y-77371582D01*
X138206301Y-77515058D01*
X138272336Y-77674480D01*
X138306000Y-77843721D01*
X138306000Y-78016279D01*
X138272336Y-78185520D01*
X138206301Y-78344942D01*
X138110434Y-78488418D01*
X137988418Y-78610434D01*
X137844942Y-78706301D01*
X137685520Y-78772336D01*
X137516280Y-78806000D01*
X137343720Y-78806000D01*
X137174480Y-78772336D01*
X137015058Y-78706301D01*
X136871582Y-78610434D01*
X136749566Y-78488418D01*
X136653699Y-78344942D01*
X136587664Y-78185520D01*
X136554000Y-78016279D01*
X136554000Y-77843721D01*
X136587664Y-77674480D01*
X136653699Y-77515058D01*
X136749566Y-77371582D01*
X136871582Y-77249566D01*
X137015058Y-77153699D01*
X137174480Y-77087664D01*
X137259101Y-77070832D01*
X137343720Y-77054000D01*
X137516280Y-77054000D01*
X137600899Y-77070832D01*
G37*
G36*
X134664903Y-73597075D02*
G01*
X134892571Y-73691378D01*
X135097466Y-73828285D01*
X135271715Y-74002534D01*
X135408622Y-74207429D01*
X135502925Y-74435097D01*
X135551000Y-74676787D01*
X135551000Y-74923213D01*
X135502925Y-75164903D01*
X135408622Y-75392571D01*
X135271715Y-75597466D01*
X135097466Y-75771715D01*
X134892571Y-75908622D01*
X134892570Y-75908623D01*
X134892569Y-75908623D01*
X134664903Y-76002925D01*
X134423214Y-76051000D01*
X134176786Y-76051000D01*
X133935097Y-76002925D01*
X133707431Y-75908623D01*
X133707430Y-75908623D01*
X133707429Y-75908622D01*
X133502534Y-75771715D01*
X133328285Y-75597466D01*
X133191378Y-75392571D01*
X133097075Y-75164903D01*
X133049000Y-74923213D01*
X133049000Y-74676787D01*
X133097075Y-74435097D01*
X133191378Y-74207429D01*
X133328285Y-74002534D01*
X133502534Y-73828285D01*
X133707429Y-73691378D01*
X133935097Y-73597075D01*
X134176786Y-73549000D01*
X134423214Y-73549000D01*
X134664903Y-73597075D01*
G37*
G36*
X204424903Y-73597075D02*
G01*
X204652571Y-73691378D01*
X204857466Y-73828285D01*
X205031715Y-74002534D01*
X205168622Y-74207429D01*
X205262925Y-74435097D01*
X205311000Y-74676787D01*
X205311000Y-74923213D01*
X205262925Y-75164903D01*
X205168622Y-75392571D01*
X205031715Y-75597466D01*
X204857466Y-75771715D01*
X204652571Y-75908622D01*
X204652570Y-75908623D01*
X204652569Y-75908623D01*
X204424903Y-76002925D01*
X204183214Y-76051000D01*
X203936786Y-76051000D01*
X203695097Y-76002925D01*
X203467431Y-75908623D01*
X203467430Y-75908623D01*
X203467429Y-75908622D01*
X203262534Y-75771715D01*
X203088285Y-75597466D01*
X202951378Y-75392571D01*
X202857075Y-75164903D01*
X202809000Y-74923213D01*
X202809000Y-74676787D01*
X202857075Y-74435097D01*
X202951378Y-74207429D01*
X203088285Y-74002534D01*
X203262534Y-73828285D01*
X203467429Y-73691378D01*
X203695097Y-73597075D01*
X203936786Y-73549000D01*
X204183214Y-73549000D01*
X204424903Y-73597075D01*
G37*
G36*
X198164903Y-73597075D02*
G01*
X198392571Y-73691378D01*
X198597466Y-73828285D01*
X198771715Y-74002534D01*
X198908622Y-74207429D01*
X199002925Y-74435097D01*
X199051000Y-74676787D01*
X199051000Y-74923213D01*
X199002925Y-75164903D01*
X198908622Y-75392571D01*
X198771715Y-75597466D01*
X198597466Y-75771715D01*
X198392571Y-75908622D01*
X198392570Y-75908623D01*
X198392569Y-75908623D01*
X198164903Y-76002925D01*
X197923214Y-76051000D01*
X197676786Y-76051000D01*
X197435097Y-76002925D01*
X197207431Y-75908623D01*
X197207430Y-75908623D01*
X197207429Y-75908622D01*
X197002534Y-75771715D01*
X196828285Y-75597466D01*
X196691378Y-75392571D01*
X196597075Y-75164903D01*
X196549000Y-74923213D01*
X196549000Y-74676787D01*
X196597075Y-74435097D01*
X196691378Y-74207429D01*
X196828285Y-74002534D01*
X197002534Y-73828285D01*
X197207429Y-73691378D01*
X197435097Y-73597075D01*
X197676786Y-73549000D01*
X197923214Y-73549000D01*
X198164903Y-73597075D01*
G37*
G36*
X172547903Y-73597075D02*
G01*
X172775571Y-73691378D01*
X172980466Y-73828285D01*
X173154715Y-74002534D01*
X173291622Y-74207429D01*
X173385925Y-74435097D01*
X173434000Y-74676787D01*
X173434000Y-74923213D01*
X173385925Y-75164903D01*
X173291622Y-75392571D01*
X173154715Y-75597466D01*
X172980466Y-75771715D01*
X172775571Y-75908622D01*
X172775570Y-75908623D01*
X172775569Y-75908623D01*
X172547903Y-76002925D01*
X172306214Y-76051000D01*
X172059786Y-76051000D01*
X171818097Y-76002925D01*
X171590431Y-75908623D01*
X171590430Y-75908623D01*
X171590429Y-75908622D01*
X171385534Y-75771715D01*
X171211285Y-75597466D01*
X171074378Y-75392571D01*
X170980075Y-75164903D01*
X170932000Y-74923213D01*
X170932000Y-74676787D01*
X170980075Y-74435097D01*
X171074378Y-74207429D01*
X171211285Y-74002534D01*
X171385534Y-73828285D01*
X171590429Y-73691378D01*
X171818097Y-73597075D01*
X172059786Y-73549000D01*
X172306214Y-73549000D01*
X172547903Y-73597075D01*
G37*
G36*
X166287903Y-73597075D02*
G01*
X166515571Y-73691378D01*
X166720466Y-73828285D01*
X166894715Y-74002534D01*
X167031622Y-74207429D01*
X167125925Y-74435097D01*
X167174000Y-74676787D01*
X167174000Y-74923213D01*
X167125925Y-75164903D01*
X167031622Y-75392571D01*
X166894715Y-75597466D01*
X166720466Y-75771715D01*
X166515571Y-75908622D01*
X166515570Y-75908623D01*
X166515569Y-75908623D01*
X166287903Y-76002925D01*
X166046214Y-76051000D01*
X165799786Y-76051000D01*
X165558097Y-76002925D01*
X165330431Y-75908623D01*
X165330430Y-75908623D01*
X165330429Y-75908622D01*
X165125534Y-75771715D01*
X164951285Y-75597466D01*
X164814378Y-75392571D01*
X164720075Y-75164903D01*
X164672000Y-74923213D01*
X164672000Y-74676787D01*
X164720075Y-74435097D01*
X164814378Y-74207429D01*
X164951285Y-74002534D01*
X165125534Y-73828285D01*
X165330429Y-73691378D01*
X165558097Y-73597075D01*
X165799786Y-73549000D01*
X166046214Y-73549000D01*
X166287903Y-73597075D01*
G37*
G36*
X140924903Y-73597075D02*
G01*
X141152571Y-73691378D01*
X141357466Y-73828285D01*
X141531715Y-74002534D01*
X141668622Y-74207429D01*
X141762925Y-74435097D01*
X141811000Y-74676787D01*
X141811000Y-74923213D01*
X141762925Y-75164903D01*
X141668622Y-75392571D01*
X141531715Y-75597466D01*
X141357466Y-75771715D01*
X141152571Y-75908622D01*
X141152570Y-75908623D01*
X141152569Y-75908623D01*
X140924903Y-76002925D01*
X140683214Y-76051000D01*
X140436786Y-76051000D01*
X140195097Y-76002925D01*
X139967431Y-75908623D01*
X139967430Y-75908623D01*
X139967429Y-75908622D01*
X139762534Y-75771715D01*
X139588285Y-75597466D01*
X139451378Y-75392571D01*
X139357075Y-75164903D01*
X139309000Y-74923213D01*
X139309000Y-74676787D01*
X139357075Y-74435097D01*
X139451378Y-74207429D01*
X139588285Y-74002534D01*
X139762534Y-73828285D01*
X139967429Y-73691378D01*
X140195097Y-73597075D01*
X140436786Y-73549000D01*
X140683214Y-73549000D01*
X140924903Y-73597075D01*
G37*
M02*
