G04 #@! TF.GenerationSoftware,KiCad,Pcbnew,(5.1.5)-3*
G04 #@! TF.CreationDate,2021-02-17T23:25:52-05:00*
G04 #@! TF.ProjectId,AM Bandpass Filter,414d2042-616e-4647-9061-73732046696c,rev?*
G04 #@! TF.SameCoordinates,Original*
G04 #@! TF.FileFunction,Copper,L1,Top*
G04 #@! TF.FilePolarity,Positive*
%FSLAX46Y46*%
G04 Gerber Fmt 4.6, Leading zero omitted, Abs format (unit mm)*
G04 Created by KiCad (PCBNEW (5.1.5)-3) date 2021-02-17 23:25:52*
%MOMM*%
%LPD*%
G04 APERTURE LIST*
%ADD10C,0.100000*%
%ADD11C,2.400000*%
%ADD12C,1.650000*%
%ADD13C,0.762000*%
%ADD14C,0.293370*%
%ADD15C,0.250000*%
G04 APERTURE END LIST*
G04 #@! TA.AperFunction,SMDPad,CuDef*
D10*
G36*
X211794504Y-77056204D02*
G01*
X211818773Y-77059804D01*
X211842571Y-77065765D01*
X211865671Y-77074030D01*
X211887849Y-77084520D01*
X211908893Y-77097133D01*
X211928598Y-77111747D01*
X211946777Y-77128223D01*
X211963253Y-77146402D01*
X211977867Y-77166107D01*
X211990480Y-77187151D01*
X212000970Y-77209329D01*
X212009235Y-77232429D01*
X212015196Y-77256227D01*
X212018796Y-77280496D01*
X212020000Y-77305000D01*
X212020000Y-78555000D01*
X212018796Y-78579504D01*
X212015196Y-78603773D01*
X212009235Y-78627571D01*
X212000970Y-78650671D01*
X211990480Y-78672849D01*
X211977867Y-78693893D01*
X211963253Y-78713598D01*
X211946777Y-78731777D01*
X211928598Y-78748253D01*
X211908893Y-78762867D01*
X211887849Y-78775480D01*
X211865671Y-78785970D01*
X211842571Y-78794235D01*
X211818773Y-78800196D01*
X211794504Y-78803796D01*
X211770000Y-78805000D01*
X210845000Y-78805000D01*
X210820496Y-78803796D01*
X210796227Y-78800196D01*
X210772429Y-78794235D01*
X210749329Y-78785970D01*
X210727151Y-78775480D01*
X210706107Y-78762867D01*
X210686402Y-78748253D01*
X210668223Y-78731777D01*
X210651747Y-78713598D01*
X210637133Y-78693893D01*
X210624520Y-78672849D01*
X210614030Y-78650671D01*
X210605765Y-78627571D01*
X210599804Y-78603773D01*
X210596204Y-78579504D01*
X210595000Y-78555000D01*
X210595000Y-77305000D01*
X210596204Y-77280496D01*
X210599804Y-77256227D01*
X210605765Y-77232429D01*
X210614030Y-77209329D01*
X210624520Y-77187151D01*
X210637133Y-77166107D01*
X210651747Y-77146402D01*
X210668223Y-77128223D01*
X210686402Y-77111747D01*
X210706107Y-77097133D01*
X210727151Y-77084520D01*
X210749329Y-77074030D01*
X210772429Y-77065765D01*
X210796227Y-77059804D01*
X210820496Y-77056204D01*
X210845000Y-77055000D01*
X211770000Y-77055000D01*
X211794504Y-77056204D01*
G37*
G04 #@! TD.AperFunction*
G04 #@! TA.AperFunction,SMDPad,CuDef*
G36*
X208819504Y-77056204D02*
G01*
X208843773Y-77059804D01*
X208867571Y-77065765D01*
X208890671Y-77074030D01*
X208912849Y-77084520D01*
X208933893Y-77097133D01*
X208953598Y-77111747D01*
X208971777Y-77128223D01*
X208988253Y-77146402D01*
X209002867Y-77166107D01*
X209015480Y-77187151D01*
X209025970Y-77209329D01*
X209034235Y-77232429D01*
X209040196Y-77256227D01*
X209043796Y-77280496D01*
X209045000Y-77305000D01*
X209045000Y-78555000D01*
X209043796Y-78579504D01*
X209040196Y-78603773D01*
X209034235Y-78627571D01*
X209025970Y-78650671D01*
X209015480Y-78672849D01*
X209002867Y-78693893D01*
X208988253Y-78713598D01*
X208971777Y-78731777D01*
X208953598Y-78748253D01*
X208933893Y-78762867D01*
X208912849Y-78775480D01*
X208890671Y-78785970D01*
X208867571Y-78794235D01*
X208843773Y-78800196D01*
X208819504Y-78803796D01*
X208795000Y-78805000D01*
X207870000Y-78805000D01*
X207845496Y-78803796D01*
X207821227Y-78800196D01*
X207797429Y-78794235D01*
X207774329Y-78785970D01*
X207752151Y-78775480D01*
X207731107Y-78762867D01*
X207711402Y-78748253D01*
X207693223Y-78731777D01*
X207676747Y-78713598D01*
X207662133Y-78693893D01*
X207649520Y-78672849D01*
X207639030Y-78650671D01*
X207630765Y-78627571D01*
X207624804Y-78603773D01*
X207621204Y-78579504D01*
X207620000Y-78555000D01*
X207620000Y-77305000D01*
X207621204Y-77280496D01*
X207624804Y-77256227D01*
X207630765Y-77232429D01*
X207639030Y-77209329D01*
X207649520Y-77187151D01*
X207662133Y-77166107D01*
X207676747Y-77146402D01*
X207693223Y-77128223D01*
X207711402Y-77111747D01*
X207731107Y-77097133D01*
X207752151Y-77084520D01*
X207774329Y-77074030D01*
X207797429Y-77065765D01*
X207821227Y-77059804D01*
X207845496Y-77056204D01*
X207870000Y-77055000D01*
X208795000Y-77055000D01*
X208819504Y-77056204D01*
G37*
G04 #@! TD.AperFunction*
G04 #@! TA.AperFunction,SMDPad,CuDef*
G36*
X179674505Y-98581204D02*
G01*
X179698773Y-98584804D01*
X179722572Y-98590765D01*
X179745671Y-98599030D01*
X179767850Y-98609520D01*
X179788893Y-98622132D01*
X179808599Y-98636747D01*
X179826777Y-98653223D01*
X179843253Y-98671401D01*
X179857868Y-98691107D01*
X179870480Y-98712150D01*
X179880970Y-98734329D01*
X179889235Y-98757428D01*
X179895196Y-98781227D01*
X179898796Y-98805495D01*
X179900000Y-98829999D01*
X179900000Y-99730001D01*
X179898796Y-99754505D01*
X179895196Y-99778773D01*
X179889235Y-99802572D01*
X179880970Y-99825671D01*
X179870480Y-99847850D01*
X179857868Y-99868893D01*
X179843253Y-99888599D01*
X179826777Y-99906777D01*
X179808599Y-99923253D01*
X179788893Y-99937868D01*
X179767850Y-99950480D01*
X179745671Y-99960970D01*
X179722572Y-99969235D01*
X179698773Y-99975196D01*
X179674505Y-99978796D01*
X179650001Y-99980000D01*
X178999999Y-99980000D01*
X178975495Y-99978796D01*
X178951227Y-99975196D01*
X178927428Y-99969235D01*
X178904329Y-99960970D01*
X178882150Y-99950480D01*
X178861107Y-99937868D01*
X178841401Y-99923253D01*
X178823223Y-99906777D01*
X178806747Y-99888599D01*
X178792132Y-99868893D01*
X178779520Y-99847850D01*
X178769030Y-99825671D01*
X178760765Y-99802572D01*
X178754804Y-99778773D01*
X178751204Y-99754505D01*
X178750000Y-99730001D01*
X178750000Y-98829999D01*
X178751204Y-98805495D01*
X178754804Y-98781227D01*
X178760765Y-98757428D01*
X178769030Y-98734329D01*
X178779520Y-98712150D01*
X178792132Y-98691107D01*
X178806747Y-98671401D01*
X178823223Y-98653223D01*
X178841401Y-98636747D01*
X178861107Y-98622132D01*
X178882150Y-98609520D01*
X178904329Y-98599030D01*
X178927428Y-98590765D01*
X178951227Y-98584804D01*
X178975495Y-98581204D01*
X178999999Y-98580000D01*
X179650001Y-98580000D01*
X179674505Y-98581204D01*
G37*
G04 #@! TD.AperFunction*
G04 #@! TA.AperFunction,SMDPad,CuDef*
G36*
X177624505Y-98581204D02*
G01*
X177648773Y-98584804D01*
X177672572Y-98590765D01*
X177695671Y-98599030D01*
X177717850Y-98609520D01*
X177738893Y-98622132D01*
X177758599Y-98636747D01*
X177776777Y-98653223D01*
X177793253Y-98671401D01*
X177807868Y-98691107D01*
X177820480Y-98712150D01*
X177830970Y-98734329D01*
X177839235Y-98757428D01*
X177845196Y-98781227D01*
X177848796Y-98805495D01*
X177850000Y-98829999D01*
X177850000Y-99730001D01*
X177848796Y-99754505D01*
X177845196Y-99778773D01*
X177839235Y-99802572D01*
X177830970Y-99825671D01*
X177820480Y-99847850D01*
X177807868Y-99868893D01*
X177793253Y-99888599D01*
X177776777Y-99906777D01*
X177758599Y-99923253D01*
X177738893Y-99937868D01*
X177717850Y-99950480D01*
X177695671Y-99960970D01*
X177672572Y-99969235D01*
X177648773Y-99975196D01*
X177624505Y-99978796D01*
X177600001Y-99980000D01*
X176949999Y-99980000D01*
X176925495Y-99978796D01*
X176901227Y-99975196D01*
X176877428Y-99969235D01*
X176854329Y-99960970D01*
X176832150Y-99950480D01*
X176811107Y-99937868D01*
X176791401Y-99923253D01*
X176773223Y-99906777D01*
X176756747Y-99888599D01*
X176742132Y-99868893D01*
X176729520Y-99847850D01*
X176719030Y-99825671D01*
X176710765Y-99802572D01*
X176704804Y-99778773D01*
X176701204Y-99754505D01*
X176700000Y-99730001D01*
X176700000Y-98829999D01*
X176701204Y-98805495D01*
X176704804Y-98781227D01*
X176710765Y-98757428D01*
X176719030Y-98734329D01*
X176729520Y-98712150D01*
X176742132Y-98691107D01*
X176756747Y-98671401D01*
X176773223Y-98653223D01*
X176791401Y-98636747D01*
X176811107Y-98622132D01*
X176832150Y-98609520D01*
X176854329Y-98599030D01*
X176877428Y-98590765D01*
X176901227Y-98584804D01*
X176925495Y-98581204D01*
X176949999Y-98580000D01*
X177600001Y-98580000D01*
X177624505Y-98581204D01*
G37*
G04 #@! TD.AperFunction*
G04 #@! TA.AperFunction,SMDPad,CuDef*
G36*
X165704505Y-98581204D02*
G01*
X165728773Y-98584804D01*
X165752572Y-98590765D01*
X165775671Y-98599030D01*
X165797850Y-98609520D01*
X165818893Y-98622132D01*
X165838599Y-98636747D01*
X165856777Y-98653223D01*
X165873253Y-98671401D01*
X165887868Y-98691107D01*
X165900480Y-98712150D01*
X165910970Y-98734329D01*
X165919235Y-98757428D01*
X165925196Y-98781227D01*
X165928796Y-98805495D01*
X165930000Y-98829999D01*
X165930000Y-99730001D01*
X165928796Y-99754505D01*
X165925196Y-99778773D01*
X165919235Y-99802572D01*
X165910970Y-99825671D01*
X165900480Y-99847850D01*
X165887868Y-99868893D01*
X165873253Y-99888599D01*
X165856777Y-99906777D01*
X165838599Y-99923253D01*
X165818893Y-99937868D01*
X165797850Y-99950480D01*
X165775671Y-99960970D01*
X165752572Y-99969235D01*
X165728773Y-99975196D01*
X165704505Y-99978796D01*
X165680001Y-99980000D01*
X165029999Y-99980000D01*
X165005495Y-99978796D01*
X164981227Y-99975196D01*
X164957428Y-99969235D01*
X164934329Y-99960970D01*
X164912150Y-99950480D01*
X164891107Y-99937868D01*
X164871401Y-99923253D01*
X164853223Y-99906777D01*
X164836747Y-99888599D01*
X164822132Y-99868893D01*
X164809520Y-99847850D01*
X164799030Y-99825671D01*
X164790765Y-99802572D01*
X164784804Y-99778773D01*
X164781204Y-99754505D01*
X164780000Y-99730001D01*
X164780000Y-98829999D01*
X164781204Y-98805495D01*
X164784804Y-98781227D01*
X164790765Y-98757428D01*
X164799030Y-98734329D01*
X164809520Y-98712150D01*
X164822132Y-98691107D01*
X164836747Y-98671401D01*
X164853223Y-98653223D01*
X164871401Y-98636747D01*
X164891107Y-98622132D01*
X164912150Y-98609520D01*
X164934329Y-98599030D01*
X164957428Y-98590765D01*
X164981227Y-98584804D01*
X165005495Y-98581204D01*
X165029999Y-98580000D01*
X165680001Y-98580000D01*
X165704505Y-98581204D01*
G37*
G04 #@! TD.AperFunction*
G04 #@! TA.AperFunction,SMDPad,CuDef*
G36*
X163654505Y-98581204D02*
G01*
X163678773Y-98584804D01*
X163702572Y-98590765D01*
X163725671Y-98599030D01*
X163747850Y-98609520D01*
X163768893Y-98622132D01*
X163788599Y-98636747D01*
X163806777Y-98653223D01*
X163823253Y-98671401D01*
X163837868Y-98691107D01*
X163850480Y-98712150D01*
X163860970Y-98734329D01*
X163869235Y-98757428D01*
X163875196Y-98781227D01*
X163878796Y-98805495D01*
X163880000Y-98829999D01*
X163880000Y-99730001D01*
X163878796Y-99754505D01*
X163875196Y-99778773D01*
X163869235Y-99802572D01*
X163860970Y-99825671D01*
X163850480Y-99847850D01*
X163837868Y-99868893D01*
X163823253Y-99888599D01*
X163806777Y-99906777D01*
X163788599Y-99923253D01*
X163768893Y-99937868D01*
X163747850Y-99950480D01*
X163725671Y-99960970D01*
X163702572Y-99969235D01*
X163678773Y-99975196D01*
X163654505Y-99978796D01*
X163630001Y-99980000D01*
X162979999Y-99980000D01*
X162955495Y-99978796D01*
X162931227Y-99975196D01*
X162907428Y-99969235D01*
X162884329Y-99960970D01*
X162862150Y-99950480D01*
X162841107Y-99937868D01*
X162821401Y-99923253D01*
X162803223Y-99906777D01*
X162786747Y-99888599D01*
X162772132Y-99868893D01*
X162759520Y-99847850D01*
X162749030Y-99825671D01*
X162740765Y-99802572D01*
X162734804Y-99778773D01*
X162731204Y-99754505D01*
X162730000Y-99730001D01*
X162730000Y-98829999D01*
X162731204Y-98805495D01*
X162734804Y-98781227D01*
X162740765Y-98757428D01*
X162749030Y-98734329D01*
X162759520Y-98712150D01*
X162772132Y-98691107D01*
X162786747Y-98671401D01*
X162803223Y-98653223D01*
X162821401Y-98636747D01*
X162841107Y-98622132D01*
X162862150Y-98609520D01*
X162884329Y-98599030D01*
X162907428Y-98590765D01*
X162931227Y-98584804D01*
X162955495Y-98581204D01*
X162979999Y-98580000D01*
X163630001Y-98580000D01*
X163654505Y-98581204D01*
G37*
G04 #@! TD.AperFunction*
G04 #@! TA.AperFunction,SMDPad,CuDef*
G36*
X179674505Y-96041204D02*
G01*
X179698773Y-96044804D01*
X179722572Y-96050765D01*
X179745671Y-96059030D01*
X179767850Y-96069520D01*
X179788893Y-96082132D01*
X179808599Y-96096747D01*
X179826777Y-96113223D01*
X179843253Y-96131401D01*
X179857868Y-96151107D01*
X179870480Y-96172150D01*
X179880970Y-96194329D01*
X179889235Y-96217428D01*
X179895196Y-96241227D01*
X179898796Y-96265495D01*
X179900000Y-96289999D01*
X179900000Y-97190001D01*
X179898796Y-97214505D01*
X179895196Y-97238773D01*
X179889235Y-97262572D01*
X179880970Y-97285671D01*
X179870480Y-97307850D01*
X179857868Y-97328893D01*
X179843253Y-97348599D01*
X179826777Y-97366777D01*
X179808599Y-97383253D01*
X179788893Y-97397868D01*
X179767850Y-97410480D01*
X179745671Y-97420970D01*
X179722572Y-97429235D01*
X179698773Y-97435196D01*
X179674505Y-97438796D01*
X179650001Y-97440000D01*
X178999999Y-97440000D01*
X178975495Y-97438796D01*
X178951227Y-97435196D01*
X178927428Y-97429235D01*
X178904329Y-97420970D01*
X178882150Y-97410480D01*
X178861107Y-97397868D01*
X178841401Y-97383253D01*
X178823223Y-97366777D01*
X178806747Y-97348599D01*
X178792132Y-97328893D01*
X178779520Y-97307850D01*
X178769030Y-97285671D01*
X178760765Y-97262572D01*
X178754804Y-97238773D01*
X178751204Y-97214505D01*
X178750000Y-97190001D01*
X178750000Y-96289999D01*
X178751204Y-96265495D01*
X178754804Y-96241227D01*
X178760765Y-96217428D01*
X178769030Y-96194329D01*
X178779520Y-96172150D01*
X178792132Y-96151107D01*
X178806747Y-96131401D01*
X178823223Y-96113223D01*
X178841401Y-96096747D01*
X178861107Y-96082132D01*
X178882150Y-96069520D01*
X178904329Y-96059030D01*
X178927428Y-96050765D01*
X178951227Y-96044804D01*
X178975495Y-96041204D01*
X178999999Y-96040000D01*
X179650001Y-96040000D01*
X179674505Y-96041204D01*
G37*
G04 #@! TD.AperFunction*
G04 #@! TA.AperFunction,SMDPad,CuDef*
G36*
X177624505Y-96041204D02*
G01*
X177648773Y-96044804D01*
X177672572Y-96050765D01*
X177695671Y-96059030D01*
X177717850Y-96069520D01*
X177738893Y-96082132D01*
X177758599Y-96096747D01*
X177776777Y-96113223D01*
X177793253Y-96131401D01*
X177807868Y-96151107D01*
X177820480Y-96172150D01*
X177830970Y-96194329D01*
X177839235Y-96217428D01*
X177845196Y-96241227D01*
X177848796Y-96265495D01*
X177850000Y-96289999D01*
X177850000Y-97190001D01*
X177848796Y-97214505D01*
X177845196Y-97238773D01*
X177839235Y-97262572D01*
X177830970Y-97285671D01*
X177820480Y-97307850D01*
X177807868Y-97328893D01*
X177793253Y-97348599D01*
X177776777Y-97366777D01*
X177758599Y-97383253D01*
X177738893Y-97397868D01*
X177717850Y-97410480D01*
X177695671Y-97420970D01*
X177672572Y-97429235D01*
X177648773Y-97435196D01*
X177624505Y-97438796D01*
X177600001Y-97440000D01*
X176949999Y-97440000D01*
X176925495Y-97438796D01*
X176901227Y-97435196D01*
X176877428Y-97429235D01*
X176854329Y-97420970D01*
X176832150Y-97410480D01*
X176811107Y-97397868D01*
X176791401Y-97383253D01*
X176773223Y-97366777D01*
X176756747Y-97348599D01*
X176742132Y-97328893D01*
X176729520Y-97307850D01*
X176719030Y-97285671D01*
X176710765Y-97262572D01*
X176704804Y-97238773D01*
X176701204Y-97214505D01*
X176700000Y-97190001D01*
X176700000Y-96289999D01*
X176701204Y-96265495D01*
X176704804Y-96241227D01*
X176710765Y-96217428D01*
X176719030Y-96194329D01*
X176729520Y-96172150D01*
X176742132Y-96151107D01*
X176756747Y-96131401D01*
X176773223Y-96113223D01*
X176791401Y-96096747D01*
X176811107Y-96082132D01*
X176832150Y-96069520D01*
X176854329Y-96059030D01*
X176877428Y-96050765D01*
X176901227Y-96044804D01*
X176925495Y-96041204D01*
X176949999Y-96040000D01*
X177600001Y-96040000D01*
X177624505Y-96041204D01*
G37*
G04 #@! TD.AperFunction*
D11*
X197640000Y-99870000D03*
X203900000Y-99870000D03*
X203900000Y-93610000D03*
X197640000Y-93610000D03*
D12*
X200770000Y-96740000D03*
D11*
X197800000Y-81060000D03*
X204060000Y-81060000D03*
X204060000Y-74800000D03*
X197800000Y-74800000D03*
D12*
X200930000Y-77930000D03*
D11*
X165923000Y-81060000D03*
X172183000Y-81060000D03*
X172183000Y-74800000D03*
X165923000Y-74800000D03*
D12*
X169053000Y-77930000D03*
D11*
X134300000Y-81060000D03*
X140560000Y-81060000D03*
X140560000Y-74800000D03*
X134300000Y-74800000D03*
D12*
X137430000Y-77930000D03*
D11*
X134140000Y-99870000D03*
X140400000Y-99870000D03*
X140400000Y-93610000D03*
X134140000Y-93610000D03*
D12*
X137270000Y-96740000D03*
G04 #@! TA.AperFunction,SMDPad,CuDef*
D10*
G36*
X193644505Y-96041204D02*
G01*
X193668773Y-96044804D01*
X193692572Y-96050765D01*
X193715671Y-96059030D01*
X193737850Y-96069520D01*
X193758893Y-96082132D01*
X193778599Y-96096747D01*
X193796777Y-96113223D01*
X193813253Y-96131401D01*
X193827868Y-96151107D01*
X193840480Y-96172150D01*
X193850970Y-96194329D01*
X193859235Y-96217428D01*
X193865196Y-96241227D01*
X193868796Y-96265495D01*
X193870000Y-96289999D01*
X193870000Y-97190001D01*
X193868796Y-97214505D01*
X193865196Y-97238773D01*
X193859235Y-97262572D01*
X193850970Y-97285671D01*
X193840480Y-97307850D01*
X193827868Y-97328893D01*
X193813253Y-97348599D01*
X193796777Y-97366777D01*
X193778599Y-97383253D01*
X193758893Y-97397868D01*
X193737850Y-97410480D01*
X193715671Y-97420970D01*
X193692572Y-97429235D01*
X193668773Y-97435196D01*
X193644505Y-97438796D01*
X193620001Y-97440000D01*
X192969999Y-97440000D01*
X192945495Y-97438796D01*
X192921227Y-97435196D01*
X192897428Y-97429235D01*
X192874329Y-97420970D01*
X192852150Y-97410480D01*
X192831107Y-97397868D01*
X192811401Y-97383253D01*
X192793223Y-97366777D01*
X192776747Y-97348599D01*
X192762132Y-97328893D01*
X192749520Y-97307850D01*
X192739030Y-97285671D01*
X192730765Y-97262572D01*
X192724804Y-97238773D01*
X192721204Y-97214505D01*
X192720000Y-97190001D01*
X192720000Y-96289999D01*
X192721204Y-96265495D01*
X192724804Y-96241227D01*
X192730765Y-96217428D01*
X192739030Y-96194329D01*
X192749520Y-96172150D01*
X192762132Y-96151107D01*
X192776747Y-96131401D01*
X192793223Y-96113223D01*
X192811401Y-96096747D01*
X192831107Y-96082132D01*
X192852150Y-96069520D01*
X192874329Y-96059030D01*
X192897428Y-96050765D01*
X192921227Y-96044804D01*
X192945495Y-96041204D01*
X192969999Y-96040000D01*
X193620001Y-96040000D01*
X193644505Y-96041204D01*
G37*
G04 #@! TD.AperFunction*
G04 #@! TA.AperFunction,SMDPad,CuDef*
G36*
X191594505Y-96041204D02*
G01*
X191618773Y-96044804D01*
X191642572Y-96050765D01*
X191665671Y-96059030D01*
X191687850Y-96069520D01*
X191708893Y-96082132D01*
X191728599Y-96096747D01*
X191746777Y-96113223D01*
X191763253Y-96131401D01*
X191777868Y-96151107D01*
X191790480Y-96172150D01*
X191800970Y-96194329D01*
X191809235Y-96217428D01*
X191815196Y-96241227D01*
X191818796Y-96265495D01*
X191820000Y-96289999D01*
X191820000Y-97190001D01*
X191818796Y-97214505D01*
X191815196Y-97238773D01*
X191809235Y-97262572D01*
X191800970Y-97285671D01*
X191790480Y-97307850D01*
X191777868Y-97328893D01*
X191763253Y-97348599D01*
X191746777Y-97366777D01*
X191728599Y-97383253D01*
X191708893Y-97397868D01*
X191687850Y-97410480D01*
X191665671Y-97420970D01*
X191642572Y-97429235D01*
X191618773Y-97435196D01*
X191594505Y-97438796D01*
X191570001Y-97440000D01*
X190919999Y-97440000D01*
X190895495Y-97438796D01*
X190871227Y-97435196D01*
X190847428Y-97429235D01*
X190824329Y-97420970D01*
X190802150Y-97410480D01*
X190781107Y-97397868D01*
X190761401Y-97383253D01*
X190743223Y-97366777D01*
X190726747Y-97348599D01*
X190712132Y-97328893D01*
X190699520Y-97307850D01*
X190689030Y-97285671D01*
X190680765Y-97262572D01*
X190674804Y-97238773D01*
X190671204Y-97214505D01*
X190670000Y-97190001D01*
X190670000Y-96289999D01*
X190671204Y-96265495D01*
X190674804Y-96241227D01*
X190680765Y-96217428D01*
X190689030Y-96194329D01*
X190699520Y-96172150D01*
X190712132Y-96151107D01*
X190726747Y-96131401D01*
X190743223Y-96113223D01*
X190761401Y-96096747D01*
X190781107Y-96082132D01*
X190802150Y-96069520D01*
X190824329Y-96059030D01*
X190847428Y-96050765D01*
X190871227Y-96044804D01*
X190895495Y-96041204D01*
X190919999Y-96040000D01*
X191570001Y-96040000D01*
X191594505Y-96041204D01*
G37*
G04 #@! TD.AperFunction*
G04 #@! TA.AperFunction,SMDPad,CuDef*
G36*
X184734505Y-98216204D02*
G01*
X184758773Y-98219804D01*
X184782572Y-98225765D01*
X184805671Y-98234030D01*
X184827850Y-98244520D01*
X184848893Y-98257132D01*
X184868599Y-98271747D01*
X184886777Y-98288223D01*
X184903253Y-98306401D01*
X184917868Y-98326107D01*
X184930480Y-98347150D01*
X184940970Y-98369329D01*
X184949235Y-98392428D01*
X184955196Y-98416227D01*
X184958796Y-98440495D01*
X184960000Y-98464999D01*
X184960000Y-99115001D01*
X184958796Y-99139505D01*
X184955196Y-99163773D01*
X184949235Y-99187572D01*
X184940970Y-99210671D01*
X184930480Y-99232850D01*
X184917868Y-99253893D01*
X184903253Y-99273599D01*
X184886777Y-99291777D01*
X184868599Y-99308253D01*
X184848893Y-99322868D01*
X184827850Y-99335480D01*
X184805671Y-99345970D01*
X184782572Y-99354235D01*
X184758773Y-99360196D01*
X184734505Y-99363796D01*
X184710001Y-99365000D01*
X183809999Y-99365000D01*
X183785495Y-99363796D01*
X183761227Y-99360196D01*
X183737428Y-99354235D01*
X183714329Y-99345970D01*
X183692150Y-99335480D01*
X183671107Y-99322868D01*
X183651401Y-99308253D01*
X183633223Y-99291777D01*
X183616747Y-99273599D01*
X183602132Y-99253893D01*
X183589520Y-99232850D01*
X183579030Y-99210671D01*
X183570765Y-99187572D01*
X183564804Y-99163773D01*
X183561204Y-99139505D01*
X183560000Y-99115001D01*
X183560000Y-98464999D01*
X183561204Y-98440495D01*
X183564804Y-98416227D01*
X183570765Y-98392428D01*
X183579030Y-98369329D01*
X183589520Y-98347150D01*
X183602132Y-98326107D01*
X183616747Y-98306401D01*
X183633223Y-98288223D01*
X183651401Y-98271747D01*
X183671107Y-98257132D01*
X183692150Y-98244520D01*
X183714329Y-98234030D01*
X183737428Y-98225765D01*
X183761227Y-98219804D01*
X183785495Y-98216204D01*
X183809999Y-98215000D01*
X184710001Y-98215000D01*
X184734505Y-98216204D01*
G37*
G04 #@! TD.AperFunction*
G04 #@! TA.AperFunction,SMDPad,CuDef*
G36*
X184734505Y-96166204D02*
G01*
X184758773Y-96169804D01*
X184782572Y-96175765D01*
X184805671Y-96184030D01*
X184827850Y-96194520D01*
X184848893Y-96207132D01*
X184868599Y-96221747D01*
X184886777Y-96238223D01*
X184903253Y-96256401D01*
X184917868Y-96276107D01*
X184930480Y-96297150D01*
X184940970Y-96319329D01*
X184949235Y-96342428D01*
X184955196Y-96366227D01*
X184958796Y-96390495D01*
X184960000Y-96414999D01*
X184960000Y-97065001D01*
X184958796Y-97089505D01*
X184955196Y-97113773D01*
X184949235Y-97137572D01*
X184940970Y-97160671D01*
X184930480Y-97182850D01*
X184917868Y-97203893D01*
X184903253Y-97223599D01*
X184886777Y-97241777D01*
X184868599Y-97258253D01*
X184848893Y-97272868D01*
X184827850Y-97285480D01*
X184805671Y-97295970D01*
X184782572Y-97304235D01*
X184758773Y-97310196D01*
X184734505Y-97313796D01*
X184710001Y-97315000D01*
X183809999Y-97315000D01*
X183785495Y-97313796D01*
X183761227Y-97310196D01*
X183737428Y-97304235D01*
X183714329Y-97295970D01*
X183692150Y-97285480D01*
X183671107Y-97272868D01*
X183651401Y-97258253D01*
X183633223Y-97241777D01*
X183616747Y-97223599D01*
X183602132Y-97203893D01*
X183589520Y-97182850D01*
X183579030Y-97160671D01*
X183570765Y-97137572D01*
X183564804Y-97113773D01*
X183561204Y-97089505D01*
X183560000Y-97065001D01*
X183560000Y-96414999D01*
X183561204Y-96390495D01*
X183564804Y-96366227D01*
X183570765Y-96342428D01*
X183579030Y-96319329D01*
X183589520Y-96297150D01*
X183602132Y-96276107D01*
X183616747Y-96256401D01*
X183633223Y-96238223D01*
X183651401Y-96221747D01*
X183671107Y-96207132D01*
X183692150Y-96194520D01*
X183714329Y-96184030D01*
X183737428Y-96175765D01*
X183761227Y-96169804D01*
X183785495Y-96166204D01*
X183809999Y-96165000D01*
X184710001Y-96165000D01*
X184734505Y-96166204D01*
G37*
G04 #@! TD.AperFunction*
G04 #@! TA.AperFunction,SMDPad,CuDef*
G36*
X170764505Y-98216204D02*
G01*
X170788773Y-98219804D01*
X170812572Y-98225765D01*
X170835671Y-98234030D01*
X170857850Y-98244520D01*
X170878893Y-98257132D01*
X170898599Y-98271747D01*
X170916777Y-98288223D01*
X170933253Y-98306401D01*
X170947868Y-98326107D01*
X170960480Y-98347150D01*
X170970970Y-98369329D01*
X170979235Y-98392428D01*
X170985196Y-98416227D01*
X170988796Y-98440495D01*
X170990000Y-98464999D01*
X170990000Y-99115001D01*
X170988796Y-99139505D01*
X170985196Y-99163773D01*
X170979235Y-99187572D01*
X170970970Y-99210671D01*
X170960480Y-99232850D01*
X170947868Y-99253893D01*
X170933253Y-99273599D01*
X170916777Y-99291777D01*
X170898599Y-99308253D01*
X170878893Y-99322868D01*
X170857850Y-99335480D01*
X170835671Y-99345970D01*
X170812572Y-99354235D01*
X170788773Y-99360196D01*
X170764505Y-99363796D01*
X170740001Y-99365000D01*
X169839999Y-99365000D01*
X169815495Y-99363796D01*
X169791227Y-99360196D01*
X169767428Y-99354235D01*
X169744329Y-99345970D01*
X169722150Y-99335480D01*
X169701107Y-99322868D01*
X169681401Y-99308253D01*
X169663223Y-99291777D01*
X169646747Y-99273599D01*
X169632132Y-99253893D01*
X169619520Y-99232850D01*
X169609030Y-99210671D01*
X169600765Y-99187572D01*
X169594804Y-99163773D01*
X169591204Y-99139505D01*
X169590000Y-99115001D01*
X169590000Y-98464999D01*
X169591204Y-98440495D01*
X169594804Y-98416227D01*
X169600765Y-98392428D01*
X169609030Y-98369329D01*
X169619520Y-98347150D01*
X169632132Y-98326107D01*
X169646747Y-98306401D01*
X169663223Y-98288223D01*
X169681401Y-98271747D01*
X169701107Y-98257132D01*
X169722150Y-98244520D01*
X169744329Y-98234030D01*
X169767428Y-98225765D01*
X169791227Y-98219804D01*
X169815495Y-98216204D01*
X169839999Y-98215000D01*
X170740001Y-98215000D01*
X170764505Y-98216204D01*
G37*
G04 #@! TD.AperFunction*
G04 #@! TA.AperFunction,SMDPad,CuDef*
G36*
X170764505Y-96166204D02*
G01*
X170788773Y-96169804D01*
X170812572Y-96175765D01*
X170835671Y-96184030D01*
X170857850Y-96194520D01*
X170878893Y-96207132D01*
X170898599Y-96221747D01*
X170916777Y-96238223D01*
X170933253Y-96256401D01*
X170947868Y-96276107D01*
X170960480Y-96297150D01*
X170970970Y-96319329D01*
X170979235Y-96342428D01*
X170985196Y-96366227D01*
X170988796Y-96390495D01*
X170990000Y-96414999D01*
X170990000Y-97065001D01*
X170988796Y-97089505D01*
X170985196Y-97113773D01*
X170979235Y-97137572D01*
X170970970Y-97160671D01*
X170960480Y-97182850D01*
X170947868Y-97203893D01*
X170933253Y-97223599D01*
X170916777Y-97241777D01*
X170898599Y-97258253D01*
X170878893Y-97272868D01*
X170857850Y-97285480D01*
X170835671Y-97295970D01*
X170812572Y-97304235D01*
X170788773Y-97310196D01*
X170764505Y-97313796D01*
X170740001Y-97315000D01*
X169839999Y-97315000D01*
X169815495Y-97313796D01*
X169791227Y-97310196D01*
X169767428Y-97304235D01*
X169744329Y-97295970D01*
X169722150Y-97285480D01*
X169701107Y-97272868D01*
X169681401Y-97258253D01*
X169663223Y-97241777D01*
X169646747Y-97223599D01*
X169632132Y-97203893D01*
X169619520Y-97182850D01*
X169609030Y-97160671D01*
X169600765Y-97137572D01*
X169594804Y-97113773D01*
X169591204Y-97089505D01*
X169590000Y-97065001D01*
X169590000Y-96414999D01*
X169591204Y-96390495D01*
X169594804Y-96366227D01*
X169600765Y-96342428D01*
X169609030Y-96319329D01*
X169619520Y-96297150D01*
X169632132Y-96276107D01*
X169646747Y-96256401D01*
X169663223Y-96238223D01*
X169681401Y-96221747D01*
X169701107Y-96207132D01*
X169722150Y-96194520D01*
X169744329Y-96184030D01*
X169767428Y-96175765D01*
X169791227Y-96169804D01*
X169815495Y-96166204D01*
X169839999Y-96165000D01*
X170740001Y-96165000D01*
X170764505Y-96166204D01*
G37*
G04 #@! TD.AperFunction*
G04 #@! TA.AperFunction,SMDPad,CuDef*
G36*
X165704505Y-96041204D02*
G01*
X165728773Y-96044804D01*
X165752572Y-96050765D01*
X165775671Y-96059030D01*
X165797850Y-96069520D01*
X165818893Y-96082132D01*
X165838599Y-96096747D01*
X165856777Y-96113223D01*
X165873253Y-96131401D01*
X165887868Y-96151107D01*
X165900480Y-96172150D01*
X165910970Y-96194329D01*
X165919235Y-96217428D01*
X165925196Y-96241227D01*
X165928796Y-96265495D01*
X165930000Y-96289999D01*
X165930000Y-97190001D01*
X165928796Y-97214505D01*
X165925196Y-97238773D01*
X165919235Y-97262572D01*
X165910970Y-97285671D01*
X165900480Y-97307850D01*
X165887868Y-97328893D01*
X165873253Y-97348599D01*
X165856777Y-97366777D01*
X165838599Y-97383253D01*
X165818893Y-97397868D01*
X165797850Y-97410480D01*
X165775671Y-97420970D01*
X165752572Y-97429235D01*
X165728773Y-97435196D01*
X165704505Y-97438796D01*
X165680001Y-97440000D01*
X165029999Y-97440000D01*
X165005495Y-97438796D01*
X164981227Y-97435196D01*
X164957428Y-97429235D01*
X164934329Y-97420970D01*
X164912150Y-97410480D01*
X164891107Y-97397868D01*
X164871401Y-97383253D01*
X164853223Y-97366777D01*
X164836747Y-97348599D01*
X164822132Y-97328893D01*
X164809520Y-97307850D01*
X164799030Y-97285671D01*
X164790765Y-97262572D01*
X164784804Y-97238773D01*
X164781204Y-97214505D01*
X164780000Y-97190001D01*
X164780000Y-96289999D01*
X164781204Y-96265495D01*
X164784804Y-96241227D01*
X164790765Y-96217428D01*
X164799030Y-96194329D01*
X164809520Y-96172150D01*
X164822132Y-96151107D01*
X164836747Y-96131401D01*
X164853223Y-96113223D01*
X164871401Y-96096747D01*
X164891107Y-96082132D01*
X164912150Y-96069520D01*
X164934329Y-96059030D01*
X164957428Y-96050765D01*
X164981227Y-96044804D01*
X165005495Y-96041204D01*
X165029999Y-96040000D01*
X165680001Y-96040000D01*
X165704505Y-96041204D01*
G37*
G04 #@! TD.AperFunction*
G04 #@! TA.AperFunction,SMDPad,CuDef*
G36*
X163654505Y-96041204D02*
G01*
X163678773Y-96044804D01*
X163702572Y-96050765D01*
X163725671Y-96059030D01*
X163747850Y-96069520D01*
X163768893Y-96082132D01*
X163788599Y-96096747D01*
X163806777Y-96113223D01*
X163823253Y-96131401D01*
X163837868Y-96151107D01*
X163850480Y-96172150D01*
X163860970Y-96194329D01*
X163869235Y-96217428D01*
X163875196Y-96241227D01*
X163878796Y-96265495D01*
X163880000Y-96289999D01*
X163880000Y-97190001D01*
X163878796Y-97214505D01*
X163875196Y-97238773D01*
X163869235Y-97262572D01*
X163860970Y-97285671D01*
X163850480Y-97307850D01*
X163837868Y-97328893D01*
X163823253Y-97348599D01*
X163806777Y-97366777D01*
X163788599Y-97383253D01*
X163768893Y-97397868D01*
X163747850Y-97410480D01*
X163725671Y-97420970D01*
X163702572Y-97429235D01*
X163678773Y-97435196D01*
X163654505Y-97438796D01*
X163630001Y-97440000D01*
X162979999Y-97440000D01*
X162955495Y-97438796D01*
X162931227Y-97435196D01*
X162907428Y-97429235D01*
X162884329Y-97420970D01*
X162862150Y-97410480D01*
X162841107Y-97397868D01*
X162821401Y-97383253D01*
X162803223Y-97366777D01*
X162786747Y-97348599D01*
X162772132Y-97328893D01*
X162759520Y-97307850D01*
X162749030Y-97285671D01*
X162740765Y-97262572D01*
X162734804Y-97238773D01*
X162731204Y-97214505D01*
X162730000Y-97190001D01*
X162730000Y-96289999D01*
X162731204Y-96265495D01*
X162734804Y-96241227D01*
X162740765Y-96217428D01*
X162749030Y-96194329D01*
X162759520Y-96172150D01*
X162772132Y-96151107D01*
X162786747Y-96131401D01*
X162803223Y-96113223D01*
X162821401Y-96096747D01*
X162841107Y-96082132D01*
X162862150Y-96069520D01*
X162884329Y-96059030D01*
X162907428Y-96050765D01*
X162931227Y-96044804D01*
X162955495Y-96041204D01*
X162979999Y-96040000D01*
X163630001Y-96040000D01*
X163654505Y-96041204D01*
G37*
G04 #@! TD.AperFunction*
G04 #@! TA.AperFunction,SMDPad,CuDef*
G36*
X156794505Y-98216204D02*
G01*
X156818773Y-98219804D01*
X156842572Y-98225765D01*
X156865671Y-98234030D01*
X156887850Y-98244520D01*
X156908893Y-98257132D01*
X156928599Y-98271747D01*
X156946777Y-98288223D01*
X156963253Y-98306401D01*
X156977868Y-98326107D01*
X156990480Y-98347150D01*
X157000970Y-98369329D01*
X157009235Y-98392428D01*
X157015196Y-98416227D01*
X157018796Y-98440495D01*
X157020000Y-98464999D01*
X157020000Y-99115001D01*
X157018796Y-99139505D01*
X157015196Y-99163773D01*
X157009235Y-99187572D01*
X157000970Y-99210671D01*
X156990480Y-99232850D01*
X156977868Y-99253893D01*
X156963253Y-99273599D01*
X156946777Y-99291777D01*
X156928599Y-99308253D01*
X156908893Y-99322868D01*
X156887850Y-99335480D01*
X156865671Y-99345970D01*
X156842572Y-99354235D01*
X156818773Y-99360196D01*
X156794505Y-99363796D01*
X156770001Y-99365000D01*
X155869999Y-99365000D01*
X155845495Y-99363796D01*
X155821227Y-99360196D01*
X155797428Y-99354235D01*
X155774329Y-99345970D01*
X155752150Y-99335480D01*
X155731107Y-99322868D01*
X155711401Y-99308253D01*
X155693223Y-99291777D01*
X155676747Y-99273599D01*
X155662132Y-99253893D01*
X155649520Y-99232850D01*
X155639030Y-99210671D01*
X155630765Y-99187572D01*
X155624804Y-99163773D01*
X155621204Y-99139505D01*
X155620000Y-99115001D01*
X155620000Y-98464999D01*
X155621204Y-98440495D01*
X155624804Y-98416227D01*
X155630765Y-98392428D01*
X155639030Y-98369329D01*
X155649520Y-98347150D01*
X155662132Y-98326107D01*
X155676747Y-98306401D01*
X155693223Y-98288223D01*
X155711401Y-98271747D01*
X155731107Y-98257132D01*
X155752150Y-98244520D01*
X155774329Y-98234030D01*
X155797428Y-98225765D01*
X155821227Y-98219804D01*
X155845495Y-98216204D01*
X155869999Y-98215000D01*
X156770001Y-98215000D01*
X156794505Y-98216204D01*
G37*
G04 #@! TD.AperFunction*
G04 #@! TA.AperFunction,SMDPad,CuDef*
G36*
X156794505Y-96166204D02*
G01*
X156818773Y-96169804D01*
X156842572Y-96175765D01*
X156865671Y-96184030D01*
X156887850Y-96194520D01*
X156908893Y-96207132D01*
X156928599Y-96221747D01*
X156946777Y-96238223D01*
X156963253Y-96256401D01*
X156977868Y-96276107D01*
X156990480Y-96297150D01*
X157000970Y-96319329D01*
X157009235Y-96342428D01*
X157015196Y-96366227D01*
X157018796Y-96390495D01*
X157020000Y-96414999D01*
X157020000Y-97065001D01*
X157018796Y-97089505D01*
X157015196Y-97113773D01*
X157009235Y-97137572D01*
X157000970Y-97160671D01*
X156990480Y-97182850D01*
X156977868Y-97203893D01*
X156963253Y-97223599D01*
X156946777Y-97241777D01*
X156928599Y-97258253D01*
X156908893Y-97272868D01*
X156887850Y-97285480D01*
X156865671Y-97295970D01*
X156842572Y-97304235D01*
X156818773Y-97310196D01*
X156794505Y-97313796D01*
X156770001Y-97315000D01*
X155869999Y-97315000D01*
X155845495Y-97313796D01*
X155821227Y-97310196D01*
X155797428Y-97304235D01*
X155774329Y-97295970D01*
X155752150Y-97285480D01*
X155731107Y-97272868D01*
X155711401Y-97258253D01*
X155693223Y-97241777D01*
X155676747Y-97223599D01*
X155662132Y-97203893D01*
X155649520Y-97182850D01*
X155639030Y-97160671D01*
X155630765Y-97137572D01*
X155624804Y-97113773D01*
X155621204Y-97089505D01*
X155620000Y-97065001D01*
X155620000Y-96414999D01*
X155621204Y-96390495D01*
X155624804Y-96366227D01*
X155630765Y-96342428D01*
X155639030Y-96319329D01*
X155649520Y-96297150D01*
X155662132Y-96276107D01*
X155676747Y-96256401D01*
X155693223Y-96238223D01*
X155711401Y-96221747D01*
X155731107Y-96207132D01*
X155752150Y-96194520D01*
X155774329Y-96184030D01*
X155797428Y-96175765D01*
X155821227Y-96169804D01*
X155845495Y-96166204D01*
X155869999Y-96165000D01*
X156770001Y-96165000D01*
X156794505Y-96166204D01*
G37*
G04 #@! TD.AperFunction*
G04 #@! TA.AperFunction,SMDPad,CuDef*
G36*
X151344505Y-96041204D02*
G01*
X151368773Y-96044804D01*
X151392572Y-96050765D01*
X151415671Y-96059030D01*
X151437850Y-96069520D01*
X151458893Y-96082132D01*
X151478599Y-96096747D01*
X151496777Y-96113223D01*
X151513253Y-96131401D01*
X151527868Y-96151107D01*
X151540480Y-96172150D01*
X151550970Y-96194329D01*
X151559235Y-96217428D01*
X151565196Y-96241227D01*
X151568796Y-96265495D01*
X151570000Y-96289999D01*
X151570000Y-97190001D01*
X151568796Y-97214505D01*
X151565196Y-97238773D01*
X151559235Y-97262572D01*
X151550970Y-97285671D01*
X151540480Y-97307850D01*
X151527868Y-97328893D01*
X151513253Y-97348599D01*
X151496777Y-97366777D01*
X151478599Y-97383253D01*
X151458893Y-97397868D01*
X151437850Y-97410480D01*
X151415671Y-97420970D01*
X151392572Y-97429235D01*
X151368773Y-97435196D01*
X151344505Y-97438796D01*
X151320001Y-97440000D01*
X150669999Y-97440000D01*
X150645495Y-97438796D01*
X150621227Y-97435196D01*
X150597428Y-97429235D01*
X150574329Y-97420970D01*
X150552150Y-97410480D01*
X150531107Y-97397868D01*
X150511401Y-97383253D01*
X150493223Y-97366777D01*
X150476747Y-97348599D01*
X150462132Y-97328893D01*
X150449520Y-97307850D01*
X150439030Y-97285671D01*
X150430765Y-97262572D01*
X150424804Y-97238773D01*
X150421204Y-97214505D01*
X150420000Y-97190001D01*
X150420000Y-96289999D01*
X150421204Y-96265495D01*
X150424804Y-96241227D01*
X150430765Y-96217428D01*
X150439030Y-96194329D01*
X150449520Y-96172150D01*
X150462132Y-96151107D01*
X150476747Y-96131401D01*
X150493223Y-96113223D01*
X150511401Y-96096747D01*
X150531107Y-96082132D01*
X150552150Y-96069520D01*
X150574329Y-96059030D01*
X150597428Y-96050765D01*
X150621227Y-96044804D01*
X150645495Y-96041204D01*
X150669999Y-96040000D01*
X151320001Y-96040000D01*
X151344505Y-96041204D01*
G37*
G04 #@! TD.AperFunction*
G04 #@! TA.AperFunction,SMDPad,CuDef*
G36*
X149294505Y-96041204D02*
G01*
X149318773Y-96044804D01*
X149342572Y-96050765D01*
X149365671Y-96059030D01*
X149387850Y-96069520D01*
X149408893Y-96082132D01*
X149428599Y-96096747D01*
X149446777Y-96113223D01*
X149463253Y-96131401D01*
X149477868Y-96151107D01*
X149490480Y-96172150D01*
X149500970Y-96194329D01*
X149509235Y-96217428D01*
X149515196Y-96241227D01*
X149518796Y-96265495D01*
X149520000Y-96289999D01*
X149520000Y-97190001D01*
X149518796Y-97214505D01*
X149515196Y-97238773D01*
X149509235Y-97262572D01*
X149500970Y-97285671D01*
X149490480Y-97307850D01*
X149477868Y-97328893D01*
X149463253Y-97348599D01*
X149446777Y-97366777D01*
X149428599Y-97383253D01*
X149408893Y-97397868D01*
X149387850Y-97410480D01*
X149365671Y-97420970D01*
X149342572Y-97429235D01*
X149318773Y-97435196D01*
X149294505Y-97438796D01*
X149270001Y-97440000D01*
X148619999Y-97440000D01*
X148595495Y-97438796D01*
X148571227Y-97435196D01*
X148547428Y-97429235D01*
X148524329Y-97420970D01*
X148502150Y-97410480D01*
X148481107Y-97397868D01*
X148461401Y-97383253D01*
X148443223Y-97366777D01*
X148426747Y-97348599D01*
X148412132Y-97328893D01*
X148399520Y-97307850D01*
X148389030Y-97285671D01*
X148380765Y-97262572D01*
X148374804Y-97238773D01*
X148371204Y-97214505D01*
X148370000Y-97190001D01*
X148370000Y-96289999D01*
X148371204Y-96265495D01*
X148374804Y-96241227D01*
X148380765Y-96217428D01*
X148389030Y-96194329D01*
X148399520Y-96172150D01*
X148412132Y-96151107D01*
X148426747Y-96131401D01*
X148443223Y-96113223D01*
X148461401Y-96096747D01*
X148481107Y-96082132D01*
X148502150Y-96069520D01*
X148524329Y-96059030D01*
X148547428Y-96050765D01*
X148571227Y-96044804D01*
X148595495Y-96041204D01*
X148619999Y-96040000D01*
X149270001Y-96040000D01*
X149294505Y-96041204D01*
G37*
G04 #@! TD.AperFunction*
G04 #@! TA.AperFunction,SMDPad,CuDef*
G36*
X187149505Y-96041204D02*
G01*
X187173773Y-96044804D01*
X187197572Y-96050765D01*
X187220671Y-96059030D01*
X187242850Y-96069520D01*
X187263893Y-96082132D01*
X187283599Y-96096747D01*
X187301777Y-96113223D01*
X187318253Y-96131401D01*
X187332868Y-96151107D01*
X187345480Y-96172150D01*
X187355970Y-96194329D01*
X187364235Y-96217428D01*
X187370196Y-96241227D01*
X187373796Y-96265495D01*
X187375000Y-96289999D01*
X187375000Y-97190001D01*
X187373796Y-97214505D01*
X187370196Y-97238773D01*
X187364235Y-97262572D01*
X187355970Y-97285671D01*
X187345480Y-97307850D01*
X187332868Y-97328893D01*
X187318253Y-97348599D01*
X187301777Y-97366777D01*
X187283599Y-97383253D01*
X187263893Y-97397868D01*
X187242850Y-97410480D01*
X187220671Y-97420970D01*
X187197572Y-97429235D01*
X187173773Y-97435196D01*
X187149505Y-97438796D01*
X187125001Y-97440000D01*
X186474999Y-97440000D01*
X186450495Y-97438796D01*
X186426227Y-97435196D01*
X186402428Y-97429235D01*
X186379329Y-97420970D01*
X186357150Y-97410480D01*
X186336107Y-97397868D01*
X186316401Y-97383253D01*
X186298223Y-97366777D01*
X186281747Y-97348599D01*
X186267132Y-97328893D01*
X186254520Y-97307850D01*
X186244030Y-97285671D01*
X186235765Y-97262572D01*
X186229804Y-97238773D01*
X186226204Y-97214505D01*
X186225000Y-97190001D01*
X186225000Y-96289999D01*
X186226204Y-96265495D01*
X186229804Y-96241227D01*
X186235765Y-96217428D01*
X186244030Y-96194329D01*
X186254520Y-96172150D01*
X186267132Y-96151107D01*
X186281747Y-96131401D01*
X186298223Y-96113223D01*
X186316401Y-96096747D01*
X186336107Y-96082132D01*
X186357150Y-96069520D01*
X186379329Y-96059030D01*
X186402428Y-96050765D01*
X186426227Y-96044804D01*
X186450495Y-96041204D01*
X186474999Y-96040000D01*
X187125001Y-96040000D01*
X187149505Y-96041204D01*
G37*
G04 #@! TD.AperFunction*
G04 #@! TA.AperFunction,SMDPad,CuDef*
G36*
X189199505Y-96041204D02*
G01*
X189223773Y-96044804D01*
X189247572Y-96050765D01*
X189270671Y-96059030D01*
X189292850Y-96069520D01*
X189313893Y-96082132D01*
X189333599Y-96096747D01*
X189351777Y-96113223D01*
X189368253Y-96131401D01*
X189382868Y-96151107D01*
X189395480Y-96172150D01*
X189405970Y-96194329D01*
X189414235Y-96217428D01*
X189420196Y-96241227D01*
X189423796Y-96265495D01*
X189425000Y-96289999D01*
X189425000Y-97190001D01*
X189423796Y-97214505D01*
X189420196Y-97238773D01*
X189414235Y-97262572D01*
X189405970Y-97285671D01*
X189395480Y-97307850D01*
X189382868Y-97328893D01*
X189368253Y-97348599D01*
X189351777Y-97366777D01*
X189333599Y-97383253D01*
X189313893Y-97397868D01*
X189292850Y-97410480D01*
X189270671Y-97420970D01*
X189247572Y-97429235D01*
X189223773Y-97435196D01*
X189199505Y-97438796D01*
X189175001Y-97440000D01*
X188524999Y-97440000D01*
X188500495Y-97438796D01*
X188476227Y-97435196D01*
X188452428Y-97429235D01*
X188429329Y-97420970D01*
X188407150Y-97410480D01*
X188386107Y-97397868D01*
X188366401Y-97383253D01*
X188348223Y-97366777D01*
X188331747Y-97348599D01*
X188317132Y-97328893D01*
X188304520Y-97307850D01*
X188294030Y-97285671D01*
X188285765Y-97262572D01*
X188279804Y-97238773D01*
X188276204Y-97214505D01*
X188275000Y-97190001D01*
X188275000Y-96289999D01*
X188276204Y-96265495D01*
X188279804Y-96241227D01*
X188285765Y-96217428D01*
X188294030Y-96194329D01*
X188304520Y-96172150D01*
X188317132Y-96151107D01*
X188331747Y-96131401D01*
X188348223Y-96113223D01*
X188366401Y-96096747D01*
X188386107Y-96082132D01*
X188407150Y-96069520D01*
X188429329Y-96059030D01*
X188452428Y-96050765D01*
X188476227Y-96044804D01*
X188500495Y-96041204D01*
X188524999Y-96040000D01*
X189175001Y-96040000D01*
X189199505Y-96041204D01*
G37*
G04 #@! TD.AperFunction*
G04 #@! TA.AperFunction,SMDPad,CuDef*
G36*
X182194505Y-96166204D02*
G01*
X182218773Y-96169804D01*
X182242572Y-96175765D01*
X182265671Y-96184030D01*
X182287850Y-96194520D01*
X182308893Y-96207132D01*
X182328599Y-96221747D01*
X182346777Y-96238223D01*
X182363253Y-96256401D01*
X182377868Y-96276107D01*
X182390480Y-96297150D01*
X182400970Y-96319329D01*
X182409235Y-96342428D01*
X182415196Y-96366227D01*
X182418796Y-96390495D01*
X182420000Y-96414999D01*
X182420000Y-97065001D01*
X182418796Y-97089505D01*
X182415196Y-97113773D01*
X182409235Y-97137572D01*
X182400970Y-97160671D01*
X182390480Y-97182850D01*
X182377868Y-97203893D01*
X182363253Y-97223599D01*
X182346777Y-97241777D01*
X182328599Y-97258253D01*
X182308893Y-97272868D01*
X182287850Y-97285480D01*
X182265671Y-97295970D01*
X182242572Y-97304235D01*
X182218773Y-97310196D01*
X182194505Y-97313796D01*
X182170001Y-97315000D01*
X181269999Y-97315000D01*
X181245495Y-97313796D01*
X181221227Y-97310196D01*
X181197428Y-97304235D01*
X181174329Y-97295970D01*
X181152150Y-97285480D01*
X181131107Y-97272868D01*
X181111401Y-97258253D01*
X181093223Y-97241777D01*
X181076747Y-97223599D01*
X181062132Y-97203893D01*
X181049520Y-97182850D01*
X181039030Y-97160671D01*
X181030765Y-97137572D01*
X181024804Y-97113773D01*
X181021204Y-97089505D01*
X181020000Y-97065001D01*
X181020000Y-96414999D01*
X181021204Y-96390495D01*
X181024804Y-96366227D01*
X181030765Y-96342428D01*
X181039030Y-96319329D01*
X181049520Y-96297150D01*
X181062132Y-96276107D01*
X181076747Y-96256401D01*
X181093223Y-96238223D01*
X181111401Y-96221747D01*
X181131107Y-96207132D01*
X181152150Y-96194520D01*
X181174329Y-96184030D01*
X181197428Y-96175765D01*
X181221227Y-96169804D01*
X181245495Y-96166204D01*
X181269999Y-96165000D01*
X182170001Y-96165000D01*
X182194505Y-96166204D01*
G37*
G04 #@! TD.AperFunction*
G04 #@! TA.AperFunction,SMDPad,CuDef*
G36*
X182194505Y-98216204D02*
G01*
X182218773Y-98219804D01*
X182242572Y-98225765D01*
X182265671Y-98234030D01*
X182287850Y-98244520D01*
X182308893Y-98257132D01*
X182328599Y-98271747D01*
X182346777Y-98288223D01*
X182363253Y-98306401D01*
X182377868Y-98326107D01*
X182390480Y-98347150D01*
X182400970Y-98369329D01*
X182409235Y-98392428D01*
X182415196Y-98416227D01*
X182418796Y-98440495D01*
X182420000Y-98464999D01*
X182420000Y-99115001D01*
X182418796Y-99139505D01*
X182415196Y-99163773D01*
X182409235Y-99187572D01*
X182400970Y-99210671D01*
X182390480Y-99232850D01*
X182377868Y-99253893D01*
X182363253Y-99273599D01*
X182346777Y-99291777D01*
X182328599Y-99308253D01*
X182308893Y-99322868D01*
X182287850Y-99335480D01*
X182265671Y-99345970D01*
X182242572Y-99354235D01*
X182218773Y-99360196D01*
X182194505Y-99363796D01*
X182170001Y-99365000D01*
X181269999Y-99365000D01*
X181245495Y-99363796D01*
X181221227Y-99360196D01*
X181197428Y-99354235D01*
X181174329Y-99345970D01*
X181152150Y-99335480D01*
X181131107Y-99322868D01*
X181111401Y-99308253D01*
X181093223Y-99291777D01*
X181076747Y-99273599D01*
X181062132Y-99253893D01*
X181049520Y-99232850D01*
X181039030Y-99210671D01*
X181030765Y-99187572D01*
X181024804Y-99163773D01*
X181021204Y-99139505D01*
X181020000Y-99115001D01*
X181020000Y-98464999D01*
X181021204Y-98440495D01*
X181024804Y-98416227D01*
X181030765Y-98392428D01*
X181039030Y-98369329D01*
X181049520Y-98347150D01*
X181062132Y-98326107D01*
X181076747Y-98306401D01*
X181093223Y-98288223D01*
X181111401Y-98271747D01*
X181131107Y-98257132D01*
X181152150Y-98244520D01*
X181174329Y-98234030D01*
X181197428Y-98225765D01*
X181221227Y-98219804D01*
X181245495Y-98216204D01*
X181269999Y-98215000D01*
X182170001Y-98215000D01*
X182194505Y-98216204D01*
G37*
G04 #@! TD.AperFunction*
G04 #@! TA.AperFunction,SMDPad,CuDef*
G36*
X173179505Y-96041204D02*
G01*
X173203773Y-96044804D01*
X173227572Y-96050765D01*
X173250671Y-96059030D01*
X173272850Y-96069520D01*
X173293893Y-96082132D01*
X173313599Y-96096747D01*
X173331777Y-96113223D01*
X173348253Y-96131401D01*
X173362868Y-96151107D01*
X173375480Y-96172150D01*
X173385970Y-96194329D01*
X173394235Y-96217428D01*
X173400196Y-96241227D01*
X173403796Y-96265495D01*
X173405000Y-96289999D01*
X173405000Y-97190001D01*
X173403796Y-97214505D01*
X173400196Y-97238773D01*
X173394235Y-97262572D01*
X173385970Y-97285671D01*
X173375480Y-97307850D01*
X173362868Y-97328893D01*
X173348253Y-97348599D01*
X173331777Y-97366777D01*
X173313599Y-97383253D01*
X173293893Y-97397868D01*
X173272850Y-97410480D01*
X173250671Y-97420970D01*
X173227572Y-97429235D01*
X173203773Y-97435196D01*
X173179505Y-97438796D01*
X173155001Y-97440000D01*
X172504999Y-97440000D01*
X172480495Y-97438796D01*
X172456227Y-97435196D01*
X172432428Y-97429235D01*
X172409329Y-97420970D01*
X172387150Y-97410480D01*
X172366107Y-97397868D01*
X172346401Y-97383253D01*
X172328223Y-97366777D01*
X172311747Y-97348599D01*
X172297132Y-97328893D01*
X172284520Y-97307850D01*
X172274030Y-97285671D01*
X172265765Y-97262572D01*
X172259804Y-97238773D01*
X172256204Y-97214505D01*
X172255000Y-97190001D01*
X172255000Y-96289999D01*
X172256204Y-96265495D01*
X172259804Y-96241227D01*
X172265765Y-96217428D01*
X172274030Y-96194329D01*
X172284520Y-96172150D01*
X172297132Y-96151107D01*
X172311747Y-96131401D01*
X172328223Y-96113223D01*
X172346401Y-96096747D01*
X172366107Y-96082132D01*
X172387150Y-96069520D01*
X172409329Y-96059030D01*
X172432428Y-96050765D01*
X172456227Y-96044804D01*
X172480495Y-96041204D01*
X172504999Y-96040000D01*
X173155001Y-96040000D01*
X173179505Y-96041204D01*
G37*
G04 #@! TD.AperFunction*
G04 #@! TA.AperFunction,SMDPad,CuDef*
G36*
X175229505Y-96041204D02*
G01*
X175253773Y-96044804D01*
X175277572Y-96050765D01*
X175300671Y-96059030D01*
X175322850Y-96069520D01*
X175343893Y-96082132D01*
X175363599Y-96096747D01*
X175381777Y-96113223D01*
X175398253Y-96131401D01*
X175412868Y-96151107D01*
X175425480Y-96172150D01*
X175435970Y-96194329D01*
X175444235Y-96217428D01*
X175450196Y-96241227D01*
X175453796Y-96265495D01*
X175455000Y-96289999D01*
X175455000Y-97190001D01*
X175453796Y-97214505D01*
X175450196Y-97238773D01*
X175444235Y-97262572D01*
X175435970Y-97285671D01*
X175425480Y-97307850D01*
X175412868Y-97328893D01*
X175398253Y-97348599D01*
X175381777Y-97366777D01*
X175363599Y-97383253D01*
X175343893Y-97397868D01*
X175322850Y-97410480D01*
X175300671Y-97420970D01*
X175277572Y-97429235D01*
X175253773Y-97435196D01*
X175229505Y-97438796D01*
X175205001Y-97440000D01*
X174554999Y-97440000D01*
X174530495Y-97438796D01*
X174506227Y-97435196D01*
X174482428Y-97429235D01*
X174459329Y-97420970D01*
X174437150Y-97410480D01*
X174416107Y-97397868D01*
X174396401Y-97383253D01*
X174378223Y-97366777D01*
X174361747Y-97348599D01*
X174347132Y-97328893D01*
X174334520Y-97307850D01*
X174324030Y-97285671D01*
X174315765Y-97262572D01*
X174309804Y-97238773D01*
X174306204Y-97214505D01*
X174305000Y-97190001D01*
X174305000Y-96289999D01*
X174306204Y-96265495D01*
X174309804Y-96241227D01*
X174315765Y-96217428D01*
X174324030Y-96194329D01*
X174334520Y-96172150D01*
X174347132Y-96151107D01*
X174361747Y-96131401D01*
X174378223Y-96113223D01*
X174396401Y-96096747D01*
X174416107Y-96082132D01*
X174437150Y-96069520D01*
X174459329Y-96059030D01*
X174482428Y-96050765D01*
X174506227Y-96044804D01*
X174530495Y-96041204D01*
X174554999Y-96040000D01*
X175205001Y-96040000D01*
X175229505Y-96041204D01*
G37*
G04 #@! TD.AperFunction*
G04 #@! TA.AperFunction,SMDPad,CuDef*
G36*
X168224505Y-96166204D02*
G01*
X168248773Y-96169804D01*
X168272572Y-96175765D01*
X168295671Y-96184030D01*
X168317850Y-96194520D01*
X168338893Y-96207132D01*
X168358599Y-96221747D01*
X168376777Y-96238223D01*
X168393253Y-96256401D01*
X168407868Y-96276107D01*
X168420480Y-96297150D01*
X168430970Y-96319329D01*
X168439235Y-96342428D01*
X168445196Y-96366227D01*
X168448796Y-96390495D01*
X168450000Y-96414999D01*
X168450000Y-97065001D01*
X168448796Y-97089505D01*
X168445196Y-97113773D01*
X168439235Y-97137572D01*
X168430970Y-97160671D01*
X168420480Y-97182850D01*
X168407868Y-97203893D01*
X168393253Y-97223599D01*
X168376777Y-97241777D01*
X168358599Y-97258253D01*
X168338893Y-97272868D01*
X168317850Y-97285480D01*
X168295671Y-97295970D01*
X168272572Y-97304235D01*
X168248773Y-97310196D01*
X168224505Y-97313796D01*
X168200001Y-97315000D01*
X167299999Y-97315000D01*
X167275495Y-97313796D01*
X167251227Y-97310196D01*
X167227428Y-97304235D01*
X167204329Y-97295970D01*
X167182150Y-97285480D01*
X167161107Y-97272868D01*
X167141401Y-97258253D01*
X167123223Y-97241777D01*
X167106747Y-97223599D01*
X167092132Y-97203893D01*
X167079520Y-97182850D01*
X167069030Y-97160671D01*
X167060765Y-97137572D01*
X167054804Y-97113773D01*
X167051204Y-97089505D01*
X167050000Y-97065001D01*
X167050000Y-96414999D01*
X167051204Y-96390495D01*
X167054804Y-96366227D01*
X167060765Y-96342428D01*
X167069030Y-96319329D01*
X167079520Y-96297150D01*
X167092132Y-96276107D01*
X167106747Y-96256401D01*
X167123223Y-96238223D01*
X167141401Y-96221747D01*
X167161107Y-96207132D01*
X167182150Y-96194520D01*
X167204329Y-96184030D01*
X167227428Y-96175765D01*
X167251227Y-96169804D01*
X167275495Y-96166204D01*
X167299999Y-96165000D01*
X168200001Y-96165000D01*
X168224505Y-96166204D01*
G37*
G04 #@! TD.AperFunction*
G04 #@! TA.AperFunction,SMDPad,CuDef*
G36*
X168224505Y-98216204D02*
G01*
X168248773Y-98219804D01*
X168272572Y-98225765D01*
X168295671Y-98234030D01*
X168317850Y-98244520D01*
X168338893Y-98257132D01*
X168358599Y-98271747D01*
X168376777Y-98288223D01*
X168393253Y-98306401D01*
X168407868Y-98326107D01*
X168420480Y-98347150D01*
X168430970Y-98369329D01*
X168439235Y-98392428D01*
X168445196Y-98416227D01*
X168448796Y-98440495D01*
X168450000Y-98464999D01*
X168450000Y-99115001D01*
X168448796Y-99139505D01*
X168445196Y-99163773D01*
X168439235Y-99187572D01*
X168430970Y-99210671D01*
X168420480Y-99232850D01*
X168407868Y-99253893D01*
X168393253Y-99273599D01*
X168376777Y-99291777D01*
X168358599Y-99308253D01*
X168338893Y-99322868D01*
X168317850Y-99335480D01*
X168295671Y-99345970D01*
X168272572Y-99354235D01*
X168248773Y-99360196D01*
X168224505Y-99363796D01*
X168200001Y-99365000D01*
X167299999Y-99365000D01*
X167275495Y-99363796D01*
X167251227Y-99360196D01*
X167227428Y-99354235D01*
X167204329Y-99345970D01*
X167182150Y-99335480D01*
X167161107Y-99322868D01*
X167141401Y-99308253D01*
X167123223Y-99291777D01*
X167106747Y-99273599D01*
X167092132Y-99253893D01*
X167079520Y-99232850D01*
X167069030Y-99210671D01*
X167060765Y-99187572D01*
X167054804Y-99163773D01*
X167051204Y-99139505D01*
X167050000Y-99115001D01*
X167050000Y-98464999D01*
X167051204Y-98440495D01*
X167054804Y-98416227D01*
X167060765Y-98392428D01*
X167069030Y-98369329D01*
X167079520Y-98347150D01*
X167092132Y-98326107D01*
X167106747Y-98306401D01*
X167123223Y-98288223D01*
X167141401Y-98271747D01*
X167161107Y-98257132D01*
X167182150Y-98244520D01*
X167204329Y-98234030D01*
X167227428Y-98225765D01*
X167251227Y-98219804D01*
X167275495Y-98216204D01*
X167299999Y-98215000D01*
X168200001Y-98215000D01*
X168224505Y-98216204D01*
G37*
G04 #@! TD.AperFunction*
G04 #@! TA.AperFunction,SMDPad,CuDef*
G36*
X159209505Y-96041204D02*
G01*
X159233773Y-96044804D01*
X159257572Y-96050765D01*
X159280671Y-96059030D01*
X159302850Y-96069520D01*
X159323893Y-96082132D01*
X159343599Y-96096747D01*
X159361777Y-96113223D01*
X159378253Y-96131401D01*
X159392868Y-96151107D01*
X159405480Y-96172150D01*
X159415970Y-96194329D01*
X159424235Y-96217428D01*
X159430196Y-96241227D01*
X159433796Y-96265495D01*
X159435000Y-96289999D01*
X159435000Y-97190001D01*
X159433796Y-97214505D01*
X159430196Y-97238773D01*
X159424235Y-97262572D01*
X159415970Y-97285671D01*
X159405480Y-97307850D01*
X159392868Y-97328893D01*
X159378253Y-97348599D01*
X159361777Y-97366777D01*
X159343599Y-97383253D01*
X159323893Y-97397868D01*
X159302850Y-97410480D01*
X159280671Y-97420970D01*
X159257572Y-97429235D01*
X159233773Y-97435196D01*
X159209505Y-97438796D01*
X159185001Y-97440000D01*
X158534999Y-97440000D01*
X158510495Y-97438796D01*
X158486227Y-97435196D01*
X158462428Y-97429235D01*
X158439329Y-97420970D01*
X158417150Y-97410480D01*
X158396107Y-97397868D01*
X158376401Y-97383253D01*
X158358223Y-97366777D01*
X158341747Y-97348599D01*
X158327132Y-97328893D01*
X158314520Y-97307850D01*
X158304030Y-97285671D01*
X158295765Y-97262572D01*
X158289804Y-97238773D01*
X158286204Y-97214505D01*
X158285000Y-97190001D01*
X158285000Y-96289999D01*
X158286204Y-96265495D01*
X158289804Y-96241227D01*
X158295765Y-96217428D01*
X158304030Y-96194329D01*
X158314520Y-96172150D01*
X158327132Y-96151107D01*
X158341747Y-96131401D01*
X158358223Y-96113223D01*
X158376401Y-96096747D01*
X158396107Y-96082132D01*
X158417150Y-96069520D01*
X158439329Y-96059030D01*
X158462428Y-96050765D01*
X158486227Y-96044804D01*
X158510495Y-96041204D01*
X158534999Y-96040000D01*
X159185001Y-96040000D01*
X159209505Y-96041204D01*
G37*
G04 #@! TD.AperFunction*
G04 #@! TA.AperFunction,SMDPad,CuDef*
G36*
X161259505Y-96041204D02*
G01*
X161283773Y-96044804D01*
X161307572Y-96050765D01*
X161330671Y-96059030D01*
X161352850Y-96069520D01*
X161373893Y-96082132D01*
X161393599Y-96096747D01*
X161411777Y-96113223D01*
X161428253Y-96131401D01*
X161442868Y-96151107D01*
X161455480Y-96172150D01*
X161465970Y-96194329D01*
X161474235Y-96217428D01*
X161480196Y-96241227D01*
X161483796Y-96265495D01*
X161485000Y-96289999D01*
X161485000Y-97190001D01*
X161483796Y-97214505D01*
X161480196Y-97238773D01*
X161474235Y-97262572D01*
X161465970Y-97285671D01*
X161455480Y-97307850D01*
X161442868Y-97328893D01*
X161428253Y-97348599D01*
X161411777Y-97366777D01*
X161393599Y-97383253D01*
X161373893Y-97397868D01*
X161352850Y-97410480D01*
X161330671Y-97420970D01*
X161307572Y-97429235D01*
X161283773Y-97435196D01*
X161259505Y-97438796D01*
X161235001Y-97440000D01*
X160584999Y-97440000D01*
X160560495Y-97438796D01*
X160536227Y-97435196D01*
X160512428Y-97429235D01*
X160489329Y-97420970D01*
X160467150Y-97410480D01*
X160446107Y-97397868D01*
X160426401Y-97383253D01*
X160408223Y-97366777D01*
X160391747Y-97348599D01*
X160377132Y-97328893D01*
X160364520Y-97307850D01*
X160354030Y-97285671D01*
X160345765Y-97262572D01*
X160339804Y-97238773D01*
X160336204Y-97214505D01*
X160335000Y-97190001D01*
X160335000Y-96289999D01*
X160336204Y-96265495D01*
X160339804Y-96241227D01*
X160345765Y-96217428D01*
X160354030Y-96194329D01*
X160364520Y-96172150D01*
X160377132Y-96151107D01*
X160391747Y-96131401D01*
X160408223Y-96113223D01*
X160426401Y-96096747D01*
X160446107Y-96082132D01*
X160467150Y-96069520D01*
X160489329Y-96059030D01*
X160512428Y-96050765D01*
X160536227Y-96044804D01*
X160560495Y-96041204D01*
X160584999Y-96040000D01*
X161235001Y-96040000D01*
X161259505Y-96041204D01*
G37*
G04 #@! TD.AperFunction*
G04 #@! TA.AperFunction,SMDPad,CuDef*
G36*
X154254505Y-96166204D02*
G01*
X154278773Y-96169804D01*
X154302572Y-96175765D01*
X154325671Y-96184030D01*
X154347850Y-96194520D01*
X154368893Y-96207132D01*
X154388599Y-96221747D01*
X154406777Y-96238223D01*
X154423253Y-96256401D01*
X154437868Y-96276107D01*
X154450480Y-96297150D01*
X154460970Y-96319329D01*
X154469235Y-96342428D01*
X154475196Y-96366227D01*
X154478796Y-96390495D01*
X154480000Y-96414999D01*
X154480000Y-97065001D01*
X154478796Y-97089505D01*
X154475196Y-97113773D01*
X154469235Y-97137572D01*
X154460970Y-97160671D01*
X154450480Y-97182850D01*
X154437868Y-97203893D01*
X154423253Y-97223599D01*
X154406777Y-97241777D01*
X154388599Y-97258253D01*
X154368893Y-97272868D01*
X154347850Y-97285480D01*
X154325671Y-97295970D01*
X154302572Y-97304235D01*
X154278773Y-97310196D01*
X154254505Y-97313796D01*
X154230001Y-97315000D01*
X153329999Y-97315000D01*
X153305495Y-97313796D01*
X153281227Y-97310196D01*
X153257428Y-97304235D01*
X153234329Y-97295970D01*
X153212150Y-97285480D01*
X153191107Y-97272868D01*
X153171401Y-97258253D01*
X153153223Y-97241777D01*
X153136747Y-97223599D01*
X153122132Y-97203893D01*
X153109520Y-97182850D01*
X153099030Y-97160671D01*
X153090765Y-97137572D01*
X153084804Y-97113773D01*
X153081204Y-97089505D01*
X153080000Y-97065001D01*
X153080000Y-96414999D01*
X153081204Y-96390495D01*
X153084804Y-96366227D01*
X153090765Y-96342428D01*
X153099030Y-96319329D01*
X153109520Y-96297150D01*
X153122132Y-96276107D01*
X153136747Y-96256401D01*
X153153223Y-96238223D01*
X153171401Y-96221747D01*
X153191107Y-96207132D01*
X153212150Y-96194520D01*
X153234329Y-96184030D01*
X153257428Y-96175765D01*
X153281227Y-96169804D01*
X153305495Y-96166204D01*
X153329999Y-96165000D01*
X154230001Y-96165000D01*
X154254505Y-96166204D01*
G37*
G04 #@! TD.AperFunction*
G04 #@! TA.AperFunction,SMDPad,CuDef*
G36*
X154254505Y-98216204D02*
G01*
X154278773Y-98219804D01*
X154302572Y-98225765D01*
X154325671Y-98234030D01*
X154347850Y-98244520D01*
X154368893Y-98257132D01*
X154388599Y-98271747D01*
X154406777Y-98288223D01*
X154423253Y-98306401D01*
X154437868Y-98326107D01*
X154450480Y-98347150D01*
X154460970Y-98369329D01*
X154469235Y-98392428D01*
X154475196Y-98416227D01*
X154478796Y-98440495D01*
X154480000Y-98464999D01*
X154480000Y-99115001D01*
X154478796Y-99139505D01*
X154475196Y-99163773D01*
X154469235Y-99187572D01*
X154460970Y-99210671D01*
X154450480Y-99232850D01*
X154437868Y-99253893D01*
X154423253Y-99273599D01*
X154406777Y-99291777D01*
X154388599Y-99308253D01*
X154368893Y-99322868D01*
X154347850Y-99335480D01*
X154325671Y-99345970D01*
X154302572Y-99354235D01*
X154278773Y-99360196D01*
X154254505Y-99363796D01*
X154230001Y-99365000D01*
X153329999Y-99365000D01*
X153305495Y-99363796D01*
X153281227Y-99360196D01*
X153257428Y-99354235D01*
X153234329Y-99345970D01*
X153212150Y-99335480D01*
X153191107Y-99322868D01*
X153171401Y-99308253D01*
X153153223Y-99291777D01*
X153136747Y-99273599D01*
X153122132Y-99253893D01*
X153109520Y-99232850D01*
X153099030Y-99210671D01*
X153090765Y-99187572D01*
X153084804Y-99163773D01*
X153081204Y-99139505D01*
X153080000Y-99115001D01*
X153080000Y-98464999D01*
X153081204Y-98440495D01*
X153084804Y-98416227D01*
X153090765Y-98392428D01*
X153099030Y-98369329D01*
X153109520Y-98347150D01*
X153122132Y-98326107D01*
X153136747Y-98306401D01*
X153153223Y-98288223D01*
X153171401Y-98271747D01*
X153191107Y-98257132D01*
X153212150Y-98244520D01*
X153234329Y-98234030D01*
X153257428Y-98225765D01*
X153281227Y-98219804D01*
X153305495Y-98216204D01*
X153329999Y-98215000D01*
X154230001Y-98215000D01*
X154254505Y-98216204D01*
G37*
G04 #@! TD.AperFunction*
G04 #@! TA.AperFunction,SMDPad,CuDef*
G36*
X144849505Y-96041204D02*
G01*
X144873773Y-96044804D01*
X144897572Y-96050765D01*
X144920671Y-96059030D01*
X144942850Y-96069520D01*
X144963893Y-96082132D01*
X144983599Y-96096747D01*
X145001777Y-96113223D01*
X145018253Y-96131401D01*
X145032868Y-96151107D01*
X145045480Y-96172150D01*
X145055970Y-96194329D01*
X145064235Y-96217428D01*
X145070196Y-96241227D01*
X145073796Y-96265495D01*
X145075000Y-96289999D01*
X145075000Y-97190001D01*
X145073796Y-97214505D01*
X145070196Y-97238773D01*
X145064235Y-97262572D01*
X145055970Y-97285671D01*
X145045480Y-97307850D01*
X145032868Y-97328893D01*
X145018253Y-97348599D01*
X145001777Y-97366777D01*
X144983599Y-97383253D01*
X144963893Y-97397868D01*
X144942850Y-97410480D01*
X144920671Y-97420970D01*
X144897572Y-97429235D01*
X144873773Y-97435196D01*
X144849505Y-97438796D01*
X144825001Y-97440000D01*
X144174999Y-97440000D01*
X144150495Y-97438796D01*
X144126227Y-97435196D01*
X144102428Y-97429235D01*
X144079329Y-97420970D01*
X144057150Y-97410480D01*
X144036107Y-97397868D01*
X144016401Y-97383253D01*
X143998223Y-97366777D01*
X143981747Y-97348599D01*
X143967132Y-97328893D01*
X143954520Y-97307850D01*
X143944030Y-97285671D01*
X143935765Y-97262572D01*
X143929804Y-97238773D01*
X143926204Y-97214505D01*
X143925000Y-97190001D01*
X143925000Y-96289999D01*
X143926204Y-96265495D01*
X143929804Y-96241227D01*
X143935765Y-96217428D01*
X143944030Y-96194329D01*
X143954520Y-96172150D01*
X143967132Y-96151107D01*
X143981747Y-96131401D01*
X143998223Y-96113223D01*
X144016401Y-96096747D01*
X144036107Y-96082132D01*
X144057150Y-96069520D01*
X144079329Y-96059030D01*
X144102428Y-96050765D01*
X144126227Y-96044804D01*
X144150495Y-96041204D01*
X144174999Y-96040000D01*
X144825001Y-96040000D01*
X144849505Y-96041204D01*
G37*
G04 #@! TD.AperFunction*
G04 #@! TA.AperFunction,SMDPad,CuDef*
G36*
X146899505Y-96041204D02*
G01*
X146923773Y-96044804D01*
X146947572Y-96050765D01*
X146970671Y-96059030D01*
X146992850Y-96069520D01*
X147013893Y-96082132D01*
X147033599Y-96096747D01*
X147051777Y-96113223D01*
X147068253Y-96131401D01*
X147082868Y-96151107D01*
X147095480Y-96172150D01*
X147105970Y-96194329D01*
X147114235Y-96217428D01*
X147120196Y-96241227D01*
X147123796Y-96265495D01*
X147125000Y-96289999D01*
X147125000Y-97190001D01*
X147123796Y-97214505D01*
X147120196Y-97238773D01*
X147114235Y-97262572D01*
X147105970Y-97285671D01*
X147095480Y-97307850D01*
X147082868Y-97328893D01*
X147068253Y-97348599D01*
X147051777Y-97366777D01*
X147033599Y-97383253D01*
X147013893Y-97397868D01*
X146992850Y-97410480D01*
X146970671Y-97420970D01*
X146947572Y-97429235D01*
X146923773Y-97435196D01*
X146899505Y-97438796D01*
X146875001Y-97440000D01*
X146224999Y-97440000D01*
X146200495Y-97438796D01*
X146176227Y-97435196D01*
X146152428Y-97429235D01*
X146129329Y-97420970D01*
X146107150Y-97410480D01*
X146086107Y-97397868D01*
X146066401Y-97383253D01*
X146048223Y-97366777D01*
X146031747Y-97348599D01*
X146017132Y-97328893D01*
X146004520Y-97307850D01*
X145994030Y-97285671D01*
X145985765Y-97262572D01*
X145979804Y-97238773D01*
X145976204Y-97214505D01*
X145975000Y-97190001D01*
X145975000Y-96289999D01*
X145976204Y-96265495D01*
X145979804Y-96241227D01*
X145985765Y-96217428D01*
X145994030Y-96194329D01*
X146004520Y-96172150D01*
X146017132Y-96151107D01*
X146031747Y-96131401D01*
X146048223Y-96113223D01*
X146066401Y-96096747D01*
X146086107Y-96082132D01*
X146107150Y-96069520D01*
X146129329Y-96059030D01*
X146152428Y-96050765D01*
X146176227Y-96044804D01*
X146200495Y-96041204D01*
X146224999Y-96040000D01*
X146875001Y-96040000D01*
X146899505Y-96041204D01*
G37*
G04 #@! TD.AperFunction*
D13*
X125000000Y-67000000D03*
X125000000Y-65000000D03*
X127000000Y-65000000D03*
X129000000Y-65000000D03*
X131000000Y-65000000D03*
X133000000Y-65000000D03*
X135000000Y-65000000D03*
X137000000Y-65000000D03*
X139000000Y-65000000D03*
X141000000Y-65000000D03*
X143000000Y-65000000D03*
X145000000Y-65000000D03*
X147000000Y-65000000D03*
X149000000Y-65000000D03*
X151000000Y-65000000D03*
X153000000Y-65000000D03*
X155000000Y-65000000D03*
X157000000Y-65000000D03*
X159000000Y-65000000D03*
X161000000Y-65000000D03*
X163000000Y-65000000D03*
X165000000Y-65000000D03*
X167000000Y-65000000D03*
X169000000Y-65000000D03*
X171000000Y-65000000D03*
X173000000Y-65000000D03*
X175000000Y-65000000D03*
X177000000Y-65000000D03*
X179000000Y-65000000D03*
X181000000Y-65000000D03*
X183000000Y-65000000D03*
X185000000Y-65000000D03*
X187000000Y-65000000D03*
X189000000Y-65000000D03*
X191000000Y-65000000D03*
X193000000Y-65000000D03*
X195000000Y-65000000D03*
X197000000Y-65000000D03*
X199000000Y-65000000D03*
X201000000Y-65000000D03*
X203000000Y-65000000D03*
X205000000Y-65000000D03*
X207000000Y-65000000D03*
X209000000Y-65000000D03*
X211000000Y-65000000D03*
X213000000Y-65000000D03*
X215000000Y-65000000D03*
X125000000Y-69000000D03*
X125000000Y-71000000D03*
X125000000Y-73000000D03*
X125000000Y-75000000D03*
X125000000Y-77000000D03*
X125000000Y-79000000D03*
X125000000Y-81000000D03*
X125000000Y-83000000D03*
X125000000Y-85000000D03*
X125000000Y-87000000D03*
X125000000Y-89000000D03*
X125000000Y-91000000D03*
X125000000Y-93000000D03*
X125000000Y-95000000D03*
X125000000Y-97000000D03*
X125000000Y-99000000D03*
X125000000Y-101000000D03*
X125000000Y-103000000D03*
X125000000Y-105000000D03*
X215000000Y-67000000D03*
X215000000Y-69000000D03*
X215000000Y-71000000D03*
X215000000Y-73000000D03*
X215000000Y-75000000D03*
X215000000Y-77000000D03*
X215000000Y-79000000D03*
X215000000Y-81000000D03*
X215000000Y-83000000D03*
X215000000Y-85000000D03*
X215000000Y-87000000D03*
X215000000Y-89000000D03*
X215000000Y-91000000D03*
X215000000Y-93000000D03*
X215000000Y-95000000D03*
X215000000Y-97000000D03*
X215000000Y-99000000D03*
X215000000Y-101000000D03*
X215000000Y-103000000D03*
X215000000Y-105000000D03*
X213000000Y-105000000D03*
X211000000Y-105000000D03*
X209000000Y-105000000D03*
X207000000Y-105000000D03*
X205000000Y-105000000D03*
X203000000Y-105000000D03*
X201000000Y-105000000D03*
X199000000Y-105000000D03*
X197000000Y-105000000D03*
X195000000Y-105000000D03*
X193000000Y-105000000D03*
X191000000Y-105000000D03*
X189000000Y-105000000D03*
X187000000Y-105000000D03*
X185000000Y-105000000D03*
X183000000Y-105000000D03*
X181000000Y-105000000D03*
X179000000Y-105000000D03*
X177000000Y-105000000D03*
X175000000Y-105000000D03*
X173000000Y-105000000D03*
X171000000Y-105000000D03*
X169000000Y-105000000D03*
X167000000Y-105000000D03*
X165000000Y-105000000D03*
X163000000Y-105000000D03*
X161000000Y-105000000D03*
X159000000Y-105000000D03*
X157000000Y-105000000D03*
X155000000Y-105000000D03*
X153000000Y-105000000D03*
X151000000Y-105000000D03*
X149000000Y-105000000D03*
X147000000Y-105000000D03*
X145000000Y-105000000D03*
X143000000Y-105000000D03*
X141000000Y-105000000D03*
X139000000Y-105000000D03*
X137000000Y-105000000D03*
X135000000Y-105000000D03*
X133000000Y-105000000D03*
X131000000Y-105000000D03*
X129000000Y-105000000D03*
X127000000Y-105000000D03*
X139000000Y-103000000D03*
X137000000Y-103000000D03*
X135000000Y-103000000D03*
X133000000Y-103000000D03*
X131000000Y-103000000D03*
X131000000Y-101000000D03*
X131000000Y-99000000D03*
X131000000Y-97000000D03*
X131000000Y-95000000D03*
X131000000Y-93000000D03*
X131000000Y-91000000D03*
X131000000Y-89000000D03*
X131000000Y-87000000D03*
X133000000Y-87000000D03*
X135000000Y-87000000D03*
X137000000Y-87000000D03*
X139000000Y-87000000D03*
X141000000Y-87000000D03*
X141000000Y-89000000D03*
X143000000Y-89000000D03*
X143000000Y-91000000D03*
X145000000Y-91000000D03*
X145000000Y-93000000D03*
X147000000Y-93000000D03*
X149000000Y-93000000D03*
X151000000Y-93000000D03*
X153000000Y-93000000D03*
X155000000Y-93000000D03*
X157000000Y-93000000D03*
X159000000Y-93000000D03*
X161000000Y-93000000D03*
X163000000Y-93000000D03*
X165000000Y-93000000D03*
X167000000Y-93000000D03*
X169000000Y-93000000D03*
X171000000Y-93000000D03*
X173000000Y-93000000D03*
X175000000Y-93000000D03*
X177000000Y-93000000D03*
X179000000Y-93000000D03*
X181000000Y-93000000D03*
X183000000Y-93000000D03*
X185000000Y-93000000D03*
X187000000Y-93000000D03*
X189000000Y-93000000D03*
X191000000Y-93000000D03*
X193000000Y-93000000D03*
X195000000Y-93000000D03*
X195000000Y-91000000D03*
X197000000Y-91000000D03*
X197000000Y-89000000D03*
X199000000Y-89000000D03*
X199000000Y-87000000D03*
X201000000Y-87000000D03*
X203000000Y-87000000D03*
X205000000Y-87000000D03*
X207000000Y-87000000D03*
X207000000Y-89000000D03*
X207000000Y-91000000D03*
X207000000Y-93000000D03*
X207000000Y-95000000D03*
X207000000Y-97000000D03*
X207000000Y-99000000D03*
X207000000Y-101000000D03*
X207000000Y-103000000D03*
X141000000Y-103000000D03*
X143000000Y-103000000D03*
X143000000Y-101000000D03*
X145000000Y-101000000D03*
X147000000Y-101000000D03*
X149000000Y-101000000D03*
X151000000Y-101000000D03*
X153000000Y-101000000D03*
X155000000Y-101000000D03*
X157000000Y-101000000D03*
X159000000Y-101000000D03*
X161000000Y-101000000D03*
X163000000Y-101000000D03*
X165000000Y-101000000D03*
X167000000Y-101000000D03*
X169000000Y-101000000D03*
X171000000Y-101000000D03*
X173000000Y-101000000D03*
X175000000Y-101000000D03*
X177000000Y-101000000D03*
X179000000Y-101000000D03*
X181000000Y-101000000D03*
X183000000Y-101000000D03*
X185000000Y-101000000D03*
X187000000Y-101000000D03*
X189000000Y-101000000D03*
X191000000Y-101000000D03*
X193000000Y-101000000D03*
X195000000Y-101000000D03*
X195000000Y-103000000D03*
X197000000Y-103000000D03*
X199000000Y-103000000D03*
X201000000Y-103000000D03*
X203000000Y-103000000D03*
X205000000Y-103000000D03*
D14*
X137270000Y-96740000D02*
X144500000Y-96740000D01*
X146550000Y-96740000D02*
X148945000Y-96740000D01*
X150995000Y-96740000D02*
X153780000Y-96740000D01*
X153780000Y-96740000D02*
X156320000Y-96740000D01*
X156320000Y-96740000D02*
X158860000Y-96740000D01*
X160910000Y-97774000D02*
X161146000Y-98010000D01*
X160910000Y-96740000D02*
X160910000Y-97774000D01*
X163305000Y-98264000D02*
X163051000Y-98010000D01*
X161146000Y-98010000D02*
X163051000Y-98010000D01*
X163305000Y-98010000D02*
X163305000Y-98264000D01*
X163051000Y-98010000D02*
X163305000Y-98010000D01*
X163305000Y-98264000D02*
X163305000Y-99280000D01*
X163305000Y-98010000D02*
X163305000Y-97756000D01*
X163305000Y-97756000D02*
X163051000Y-98010000D01*
X163305000Y-97756000D02*
X163305000Y-96740000D01*
X167750000Y-96740000D02*
X170290000Y-96740000D01*
X170290000Y-96740000D02*
X172830000Y-96740000D01*
X165373000Y-98010000D02*
X165355000Y-97992000D01*
X165373000Y-98010000D02*
X165355000Y-98028000D01*
X165355000Y-98246000D02*
X165591000Y-98010000D01*
X165355000Y-98028000D02*
X165355000Y-98246000D01*
X165591000Y-98010000D02*
X165373000Y-98010000D01*
X165355000Y-98246000D02*
X165355000Y-99280000D01*
X165355000Y-97738000D02*
X165355000Y-97774000D01*
X165355000Y-97992000D02*
X165355000Y-97738000D01*
X165355000Y-97774000D02*
X165591000Y-98010000D01*
X165355000Y-97738000D02*
X165355000Y-96740000D01*
X166353000Y-98010000D02*
X165591000Y-98010000D01*
X166480000Y-97883000D02*
X166353000Y-98010000D01*
X167750000Y-96740000D02*
X166734000Y-96740000D01*
X166480000Y-96994000D02*
X166480000Y-97883000D01*
X166734000Y-96740000D02*
X166480000Y-96994000D01*
X177275000Y-97756000D02*
X177021000Y-98010000D01*
X177275000Y-97629000D02*
X177275000Y-97756000D01*
X177275000Y-98010000D02*
X177275000Y-97629000D01*
X177275000Y-97629000D02*
X177275000Y-96740000D01*
X177021000Y-98010000D02*
X177275000Y-98010000D01*
X177275000Y-98264000D02*
X177021000Y-98010000D01*
X177275000Y-98391000D02*
X177275000Y-98264000D01*
X177275000Y-98010000D02*
X177275000Y-98391000D01*
X177275000Y-98391000D02*
X177275000Y-99280000D01*
X175116000Y-98010000D02*
X177021000Y-98010000D01*
X174880000Y-96740000D02*
X174880000Y-97774000D01*
X174880000Y-97774000D02*
X175116000Y-98010000D01*
X184260000Y-96740000D02*
X186800000Y-96740000D01*
X181720000Y-96740000D02*
X184260000Y-96740000D01*
X180214000Y-97992000D02*
X180450000Y-97756000D01*
X180450000Y-97756000D02*
X180450000Y-96867000D01*
X180577000Y-96740000D02*
X181720000Y-96740000D01*
X180450000Y-96867000D02*
X180577000Y-96740000D01*
X179360120Y-97801500D02*
X179550840Y-97992220D01*
X179325000Y-97801500D02*
X179325000Y-96740000D01*
X179325000Y-97992000D02*
X179550840Y-97992220D01*
X179325000Y-97992000D02*
X179325000Y-97801500D01*
X179550840Y-97992220D02*
X180214000Y-97992000D01*
X179325000Y-97801500D02*
X179360120Y-97801500D01*
X179325000Y-98218060D02*
X179550840Y-97992220D01*
X179325000Y-98286640D02*
X179325000Y-98218060D01*
X179325000Y-99280000D02*
X179325000Y-98286640D01*
X179325000Y-98286640D02*
X179325000Y-97992000D01*
X188850000Y-96740000D02*
X191245000Y-96740000D01*
X193295000Y-96740000D02*
X200770000Y-96740000D01*
X137430000Y-77930000D02*
X145050000Y-77930000D01*
X200930000Y-77930000D02*
X208795000Y-77930000D01*
D15*
G36*
X215769864Y-60721292D02*
G01*
X216515389Y-60925245D01*
X217213013Y-61257995D01*
X217840689Y-61709026D01*
X218378579Y-62264085D01*
X218809671Y-62905618D01*
X219120345Y-63613354D01*
X219301980Y-64369917D01*
X219350001Y-65023842D01*
X219350000Y-104971049D01*
X219278708Y-105769865D01*
X219074755Y-106515389D01*
X218742005Y-107213013D01*
X218290972Y-107840692D01*
X217735916Y-108378579D01*
X217094383Y-108809670D01*
X216386650Y-109120344D01*
X215630083Y-109301980D01*
X214976171Y-109350000D01*
X125028951Y-109350000D01*
X124230135Y-109278708D01*
X123484611Y-109074755D01*
X122786987Y-108742005D01*
X122159308Y-108290972D01*
X121621421Y-107735916D01*
X121190330Y-107094383D01*
X120879656Y-106386650D01*
X120698020Y-105630083D01*
X120650000Y-104976171D01*
X120650000Y-101141319D01*
X133045457Y-101141319D01*
X133165736Y-101423622D01*
X133487553Y-101583840D01*
X133834443Y-101678196D01*
X134193075Y-101703063D01*
X134549669Y-101657486D01*
X134890518Y-101543218D01*
X135114264Y-101423622D01*
X135234543Y-101141319D01*
X139305457Y-101141319D01*
X139425736Y-101423622D01*
X139747553Y-101583840D01*
X140094443Y-101678196D01*
X140453075Y-101703063D01*
X140809669Y-101657486D01*
X141150518Y-101543218D01*
X141374264Y-101423622D01*
X141494543Y-101141319D01*
X196545457Y-101141319D01*
X196665736Y-101423622D01*
X196987553Y-101583840D01*
X197334443Y-101678196D01*
X197693075Y-101703063D01*
X198049669Y-101657486D01*
X198390518Y-101543218D01*
X198614264Y-101423622D01*
X198734543Y-101141319D01*
X202805457Y-101141319D01*
X202925736Y-101423622D01*
X203247553Y-101583840D01*
X203594443Y-101678196D01*
X203953075Y-101703063D01*
X204309669Y-101657486D01*
X204650518Y-101543218D01*
X204874264Y-101423622D01*
X204994543Y-101141319D01*
X203900000Y-100046777D01*
X202805457Y-101141319D01*
X198734543Y-101141319D01*
X197640000Y-100046777D01*
X196545457Y-101141319D01*
X141494543Y-101141319D01*
X140400000Y-100046777D01*
X139305457Y-101141319D01*
X135234543Y-101141319D01*
X134140000Y-100046777D01*
X133045457Y-101141319D01*
X120650000Y-101141319D01*
X120650000Y-99923075D01*
X132306937Y-99923075D01*
X132352514Y-100279669D01*
X132466782Y-100620518D01*
X132586378Y-100844264D01*
X132868681Y-100964543D01*
X133963223Y-99870000D01*
X134316777Y-99870000D01*
X135411319Y-100964543D01*
X135693622Y-100844264D01*
X135853840Y-100522447D01*
X135948196Y-100175557D01*
X135965702Y-99923075D01*
X138566937Y-99923075D01*
X138612514Y-100279669D01*
X138726782Y-100620518D01*
X138846378Y-100844264D01*
X139128681Y-100964543D01*
X140223223Y-99870000D01*
X140576777Y-99870000D01*
X141671319Y-100964543D01*
X141953622Y-100844264D01*
X142113840Y-100522447D01*
X142208196Y-100175557D01*
X142233063Y-99816925D01*
X142187486Y-99460331D01*
X142155527Y-99365000D01*
X152451976Y-99365000D01*
X152464043Y-99487521D01*
X152499781Y-99605334D01*
X152557817Y-99713911D01*
X152635920Y-99809080D01*
X152731089Y-99887183D01*
X152839666Y-99945219D01*
X152957479Y-99980957D01*
X153080000Y-99993024D01*
X153498750Y-99990000D01*
X153655000Y-99833750D01*
X153655000Y-98915000D01*
X153905000Y-98915000D01*
X153905000Y-99833750D01*
X154061250Y-99990000D01*
X154480000Y-99993024D01*
X154602521Y-99980957D01*
X154720334Y-99945219D01*
X154828911Y-99887183D01*
X154924080Y-99809080D01*
X155002183Y-99713911D01*
X155050000Y-99624452D01*
X155097817Y-99713911D01*
X155175920Y-99809080D01*
X155271089Y-99887183D01*
X155379666Y-99945219D01*
X155497479Y-99980957D01*
X155620000Y-99993024D01*
X156038750Y-99990000D01*
X156195000Y-99833750D01*
X156195000Y-98915000D01*
X156445000Y-98915000D01*
X156445000Y-99833750D01*
X156601250Y-99990000D01*
X157020000Y-99993024D01*
X157142521Y-99980957D01*
X157260334Y-99945219D01*
X157368911Y-99887183D01*
X157464080Y-99809080D01*
X157542183Y-99713911D01*
X157600219Y-99605334D01*
X157635957Y-99487521D01*
X157648024Y-99365000D01*
X157645000Y-99071250D01*
X157488750Y-98915000D01*
X156445000Y-98915000D01*
X156195000Y-98915000D01*
X155151250Y-98915000D01*
X155050000Y-99016250D01*
X154948750Y-98915000D01*
X153905000Y-98915000D01*
X153655000Y-98915000D01*
X152611250Y-98915000D01*
X152455000Y-99071250D01*
X152451976Y-99365000D01*
X142155527Y-99365000D01*
X142073218Y-99119482D01*
X141953622Y-98895736D01*
X141671319Y-98775457D01*
X140576777Y-99870000D01*
X140223223Y-99870000D01*
X139128681Y-98775457D01*
X138846378Y-98895736D01*
X138686160Y-99217553D01*
X138591804Y-99564443D01*
X138566937Y-99923075D01*
X135965702Y-99923075D01*
X135973063Y-99816925D01*
X135927486Y-99460331D01*
X135813218Y-99119482D01*
X135693622Y-98895736D01*
X135411319Y-98775457D01*
X134316777Y-99870000D01*
X133963223Y-99870000D01*
X132868681Y-98775457D01*
X132586378Y-98895736D01*
X132426160Y-99217553D01*
X132331804Y-99564443D01*
X132306937Y-99923075D01*
X120650000Y-99923075D01*
X120650000Y-98598681D01*
X133045457Y-98598681D01*
X134140000Y-99693223D01*
X135234543Y-98598681D01*
X139305457Y-98598681D01*
X140400000Y-99693223D01*
X141494543Y-98598681D01*
X141374264Y-98316378D01*
X141052447Y-98156160D01*
X140705557Y-98061804D01*
X140346925Y-98036937D01*
X139990331Y-98082514D01*
X139649482Y-98196782D01*
X139425736Y-98316378D01*
X139305457Y-98598681D01*
X135234543Y-98598681D01*
X135114264Y-98316378D01*
X134792447Y-98156160D01*
X134445557Y-98061804D01*
X134086925Y-98036937D01*
X133730331Y-98082514D01*
X133389482Y-98196782D01*
X133165736Y-98316378D01*
X133045457Y-98598681D01*
X120650000Y-98598681D01*
X120650000Y-96597187D01*
X135820000Y-96597187D01*
X135820000Y-96882813D01*
X135875723Y-97162949D01*
X135985027Y-97426833D01*
X136143711Y-97664321D01*
X136345679Y-97866289D01*
X136583167Y-98024973D01*
X136847051Y-98134277D01*
X137127187Y-98190000D01*
X137412813Y-98190000D01*
X137692949Y-98134277D01*
X137956833Y-98024973D01*
X138194321Y-97866289D01*
X138396289Y-97664321D01*
X138498277Y-97511685D01*
X143359468Y-97511685D01*
X143363812Y-97526006D01*
X143444950Y-97677804D01*
X143554143Y-97810857D01*
X143687196Y-97920050D01*
X143838994Y-98001188D01*
X144003705Y-98051153D01*
X144174999Y-98068024D01*
X144825001Y-98068024D01*
X144996295Y-98051153D01*
X145161006Y-98001188D01*
X145312804Y-97920050D01*
X145445857Y-97810857D01*
X145525000Y-97714420D01*
X145604143Y-97810857D01*
X145737196Y-97920050D01*
X145888994Y-98001188D01*
X146053705Y-98051153D01*
X146224999Y-98068024D01*
X146875001Y-98068024D01*
X147046295Y-98051153D01*
X147211006Y-98001188D01*
X147362804Y-97920050D01*
X147495857Y-97810857D01*
X147605050Y-97677804D01*
X147686188Y-97526006D01*
X147690532Y-97511685D01*
X147804468Y-97511685D01*
X147808812Y-97526006D01*
X147889950Y-97677804D01*
X147999143Y-97810857D01*
X148132196Y-97920050D01*
X148283994Y-98001188D01*
X148448705Y-98051153D01*
X148619999Y-98068024D01*
X149270001Y-98068024D01*
X149441295Y-98051153D01*
X149606006Y-98001188D01*
X149757804Y-97920050D01*
X149890857Y-97810857D01*
X149970000Y-97714420D01*
X150049143Y-97810857D01*
X150182196Y-97920050D01*
X150333994Y-98001188D01*
X150498705Y-98051153D01*
X150669999Y-98068024D01*
X151320001Y-98068024D01*
X151491295Y-98051153D01*
X151656006Y-98001188D01*
X151807804Y-97920050D01*
X151940857Y-97810857D01*
X152050050Y-97677804D01*
X152131188Y-97526006D01*
X152135532Y-97511685D01*
X152577971Y-97511685D01*
X152599950Y-97552804D01*
X152709143Y-97685857D01*
X152724356Y-97698342D01*
X152635920Y-97770920D01*
X152557817Y-97866089D01*
X152499781Y-97974666D01*
X152464043Y-98092479D01*
X152451976Y-98215000D01*
X152455000Y-98508750D01*
X152611250Y-98665000D01*
X153655000Y-98665000D01*
X153655000Y-98645000D01*
X153905000Y-98645000D01*
X153905000Y-98665000D01*
X154948750Y-98665000D01*
X155050000Y-98563750D01*
X155151250Y-98665000D01*
X156195000Y-98665000D01*
X156195000Y-98645000D01*
X156445000Y-98645000D01*
X156445000Y-98665000D01*
X157488750Y-98665000D01*
X157645000Y-98508750D01*
X157648024Y-98215000D01*
X157635957Y-98092479D01*
X157600219Y-97974666D01*
X157542183Y-97866089D01*
X157464080Y-97770920D01*
X157375644Y-97698342D01*
X157390857Y-97685857D01*
X157500050Y-97552804D01*
X157522029Y-97511685D01*
X157719468Y-97511685D01*
X157723812Y-97526006D01*
X157804950Y-97677804D01*
X157914143Y-97810857D01*
X158047196Y-97920050D01*
X158198994Y-98001188D01*
X158363705Y-98051153D01*
X158534999Y-98068024D01*
X159185001Y-98068024D01*
X159356295Y-98051153D01*
X159521006Y-98001188D01*
X159672804Y-97920050D01*
X159805857Y-97810857D01*
X159885000Y-97714420D01*
X159964143Y-97810857D01*
X160097196Y-97920050D01*
X160157708Y-97952394D01*
X160193607Y-98070739D01*
X160265263Y-98204799D01*
X160337535Y-98292862D01*
X160337541Y-98292868D01*
X160361698Y-98322303D01*
X160391134Y-98346460D01*
X160573532Y-98528858D01*
X160597697Y-98558303D01*
X160715201Y-98654737D01*
X160849260Y-98726393D01*
X160994723Y-98770519D01*
X161108097Y-98781685D01*
X161108106Y-98781685D01*
X161145999Y-98785417D01*
X161183892Y-98781685D01*
X162106735Y-98781685D01*
X162101976Y-98829999D01*
X162101976Y-99730001D01*
X162118847Y-99901295D01*
X162168812Y-100066006D01*
X162249950Y-100217804D01*
X162359143Y-100350857D01*
X162492196Y-100460050D01*
X162643994Y-100541188D01*
X162808705Y-100591153D01*
X162979999Y-100608024D01*
X163630001Y-100608024D01*
X163801295Y-100591153D01*
X163966006Y-100541188D01*
X164117804Y-100460050D01*
X164250857Y-100350857D01*
X164330000Y-100254420D01*
X164409143Y-100350857D01*
X164542196Y-100460050D01*
X164693994Y-100541188D01*
X164858705Y-100591153D01*
X165029999Y-100608024D01*
X165680001Y-100608024D01*
X165851295Y-100591153D01*
X166016006Y-100541188D01*
X166167804Y-100460050D01*
X166300857Y-100350857D01*
X166410050Y-100217804D01*
X166491188Y-100066006D01*
X166541153Y-99901295D01*
X166556202Y-99748498D01*
X166605920Y-99809080D01*
X166701089Y-99887183D01*
X166809666Y-99945219D01*
X166927479Y-99980957D01*
X167050000Y-99993024D01*
X167468750Y-99990000D01*
X167625000Y-99833750D01*
X167625000Y-98915000D01*
X167875000Y-98915000D01*
X167875000Y-99833750D01*
X168031250Y-99990000D01*
X168450000Y-99993024D01*
X168572521Y-99980957D01*
X168690334Y-99945219D01*
X168798911Y-99887183D01*
X168894080Y-99809080D01*
X168972183Y-99713911D01*
X169020000Y-99624452D01*
X169067817Y-99713911D01*
X169145920Y-99809080D01*
X169241089Y-99887183D01*
X169349666Y-99945219D01*
X169467479Y-99980957D01*
X169590000Y-99993024D01*
X170008750Y-99990000D01*
X170165000Y-99833750D01*
X170165000Y-98915000D01*
X170415000Y-98915000D01*
X170415000Y-99833750D01*
X170571250Y-99990000D01*
X170990000Y-99993024D01*
X171112521Y-99980957D01*
X171230334Y-99945219D01*
X171338911Y-99887183D01*
X171434080Y-99809080D01*
X171512183Y-99713911D01*
X171570219Y-99605334D01*
X171605957Y-99487521D01*
X171618024Y-99365000D01*
X171615000Y-99071250D01*
X171458750Y-98915000D01*
X170415000Y-98915000D01*
X170165000Y-98915000D01*
X169121250Y-98915000D01*
X169020000Y-99016250D01*
X168918750Y-98915000D01*
X167875000Y-98915000D01*
X167625000Y-98915000D01*
X167605000Y-98915000D01*
X167605000Y-98665000D01*
X167625000Y-98665000D01*
X167625000Y-98645000D01*
X167875000Y-98645000D01*
X167875000Y-98665000D01*
X168918750Y-98665000D01*
X169020000Y-98563750D01*
X169121250Y-98665000D01*
X170165000Y-98665000D01*
X170165000Y-98645000D01*
X170415000Y-98645000D01*
X170415000Y-98665000D01*
X171458750Y-98665000D01*
X171615000Y-98508750D01*
X171618024Y-98215000D01*
X171605957Y-98092479D01*
X171570219Y-97974666D01*
X171512183Y-97866089D01*
X171434080Y-97770920D01*
X171345644Y-97698342D01*
X171360857Y-97685857D01*
X171470050Y-97552804D01*
X171492029Y-97511685D01*
X171689468Y-97511685D01*
X171693812Y-97526006D01*
X171774950Y-97677804D01*
X171884143Y-97810857D01*
X172017196Y-97920050D01*
X172168994Y-98001188D01*
X172333705Y-98051153D01*
X172504999Y-98068024D01*
X173155001Y-98068024D01*
X173326295Y-98051153D01*
X173491006Y-98001188D01*
X173642804Y-97920050D01*
X173775857Y-97810857D01*
X173855000Y-97714420D01*
X173934143Y-97810857D01*
X174067196Y-97920050D01*
X174127708Y-97952394D01*
X174163607Y-98070739D01*
X174235263Y-98204799D01*
X174307535Y-98292862D01*
X174307541Y-98292868D01*
X174331698Y-98322303D01*
X174361134Y-98346460D01*
X174543532Y-98528858D01*
X174567697Y-98558303D01*
X174685201Y-98654737D01*
X174819260Y-98726393D01*
X174964723Y-98770519D01*
X175078097Y-98781685D01*
X175078106Y-98781685D01*
X175115999Y-98785417D01*
X175153892Y-98781685D01*
X176076735Y-98781685D01*
X176071976Y-98829999D01*
X176071976Y-99730001D01*
X176088847Y-99901295D01*
X176138812Y-100066006D01*
X176219950Y-100217804D01*
X176329143Y-100350857D01*
X176462196Y-100460050D01*
X176613994Y-100541188D01*
X176778705Y-100591153D01*
X176949999Y-100608024D01*
X177600001Y-100608024D01*
X177771295Y-100591153D01*
X177936006Y-100541188D01*
X178087804Y-100460050D01*
X178220857Y-100350857D01*
X178300000Y-100254420D01*
X178379143Y-100350857D01*
X178512196Y-100460050D01*
X178663994Y-100541188D01*
X178828705Y-100591153D01*
X178999999Y-100608024D01*
X179650001Y-100608024D01*
X179821295Y-100591153D01*
X179986006Y-100541188D01*
X180137804Y-100460050D01*
X180270857Y-100350857D01*
X180380050Y-100217804D01*
X180461188Y-100066006D01*
X180511153Y-99901295D01*
X180526202Y-99748498D01*
X180575920Y-99809080D01*
X180671089Y-99887183D01*
X180779666Y-99945219D01*
X180897479Y-99980957D01*
X181020000Y-99993024D01*
X181438750Y-99990000D01*
X181595000Y-99833750D01*
X181595000Y-98915000D01*
X181845000Y-98915000D01*
X181845000Y-99833750D01*
X182001250Y-99990000D01*
X182420000Y-99993024D01*
X182542521Y-99980957D01*
X182660334Y-99945219D01*
X182768911Y-99887183D01*
X182864080Y-99809080D01*
X182942183Y-99713911D01*
X182990000Y-99624452D01*
X183037817Y-99713911D01*
X183115920Y-99809080D01*
X183211089Y-99887183D01*
X183319666Y-99945219D01*
X183437479Y-99980957D01*
X183560000Y-99993024D01*
X183978750Y-99990000D01*
X184135000Y-99833750D01*
X184135000Y-98915000D01*
X184385000Y-98915000D01*
X184385000Y-99833750D01*
X184541250Y-99990000D01*
X184960000Y-99993024D01*
X185082521Y-99980957D01*
X185200334Y-99945219D01*
X185241762Y-99923075D01*
X195806937Y-99923075D01*
X195852514Y-100279669D01*
X195966782Y-100620518D01*
X196086378Y-100844264D01*
X196368681Y-100964543D01*
X197463223Y-99870000D01*
X197816777Y-99870000D01*
X198911319Y-100964543D01*
X199193622Y-100844264D01*
X199353840Y-100522447D01*
X199448196Y-100175557D01*
X199465702Y-99923075D01*
X202066937Y-99923075D01*
X202112514Y-100279669D01*
X202226782Y-100620518D01*
X202346378Y-100844264D01*
X202628681Y-100964543D01*
X203723223Y-99870000D01*
X204076777Y-99870000D01*
X205171319Y-100964543D01*
X205453622Y-100844264D01*
X205613840Y-100522447D01*
X205708196Y-100175557D01*
X205733063Y-99816925D01*
X205687486Y-99460331D01*
X205573218Y-99119482D01*
X205453622Y-98895736D01*
X205171319Y-98775457D01*
X204076777Y-99870000D01*
X203723223Y-99870000D01*
X202628681Y-98775457D01*
X202346378Y-98895736D01*
X202186160Y-99217553D01*
X202091804Y-99564443D01*
X202066937Y-99923075D01*
X199465702Y-99923075D01*
X199473063Y-99816925D01*
X199427486Y-99460331D01*
X199313218Y-99119482D01*
X199193622Y-98895736D01*
X198911319Y-98775457D01*
X197816777Y-99870000D01*
X197463223Y-99870000D01*
X196368681Y-98775457D01*
X196086378Y-98895736D01*
X195926160Y-99217553D01*
X195831804Y-99564443D01*
X195806937Y-99923075D01*
X185241762Y-99923075D01*
X185308911Y-99887183D01*
X185404080Y-99809080D01*
X185482183Y-99713911D01*
X185540219Y-99605334D01*
X185575957Y-99487521D01*
X185588024Y-99365000D01*
X185585000Y-99071250D01*
X185428750Y-98915000D01*
X184385000Y-98915000D01*
X184135000Y-98915000D01*
X183091250Y-98915000D01*
X182990000Y-99016250D01*
X182888750Y-98915000D01*
X181845000Y-98915000D01*
X181595000Y-98915000D01*
X181575000Y-98915000D01*
X181575000Y-98665000D01*
X181595000Y-98665000D01*
X181595000Y-98645000D01*
X181845000Y-98645000D01*
X181845000Y-98665000D01*
X182888750Y-98665000D01*
X182990000Y-98563750D01*
X183091250Y-98665000D01*
X184135000Y-98665000D01*
X184135000Y-98645000D01*
X184385000Y-98645000D01*
X184385000Y-98665000D01*
X185428750Y-98665000D01*
X185495069Y-98598681D01*
X196545457Y-98598681D01*
X197640000Y-99693223D01*
X198734543Y-98598681D01*
X202805457Y-98598681D01*
X203900000Y-99693223D01*
X204994543Y-98598681D01*
X204874264Y-98316378D01*
X204552447Y-98156160D01*
X204205557Y-98061804D01*
X203846925Y-98036937D01*
X203490331Y-98082514D01*
X203149482Y-98196782D01*
X202925736Y-98316378D01*
X202805457Y-98598681D01*
X198734543Y-98598681D01*
X198614264Y-98316378D01*
X198292447Y-98156160D01*
X197945557Y-98061804D01*
X197586925Y-98036937D01*
X197230331Y-98082514D01*
X196889482Y-98196782D01*
X196665736Y-98316378D01*
X196545457Y-98598681D01*
X185495069Y-98598681D01*
X185585000Y-98508750D01*
X185588024Y-98215000D01*
X185575957Y-98092479D01*
X185540219Y-97974666D01*
X185482183Y-97866089D01*
X185404080Y-97770920D01*
X185315644Y-97698342D01*
X185330857Y-97685857D01*
X185440050Y-97552804D01*
X185462029Y-97511685D01*
X185659468Y-97511685D01*
X185663812Y-97526006D01*
X185744950Y-97677804D01*
X185854143Y-97810857D01*
X185987196Y-97920050D01*
X186138994Y-98001188D01*
X186303705Y-98051153D01*
X186474999Y-98068024D01*
X187125001Y-98068024D01*
X187296295Y-98051153D01*
X187461006Y-98001188D01*
X187612804Y-97920050D01*
X187745857Y-97810857D01*
X187825000Y-97714420D01*
X187904143Y-97810857D01*
X188037196Y-97920050D01*
X188188994Y-98001188D01*
X188353705Y-98051153D01*
X188524999Y-98068024D01*
X189175001Y-98068024D01*
X189346295Y-98051153D01*
X189511006Y-98001188D01*
X189662804Y-97920050D01*
X189795857Y-97810857D01*
X189905050Y-97677804D01*
X189986188Y-97526006D01*
X189990532Y-97511685D01*
X190104468Y-97511685D01*
X190108812Y-97526006D01*
X190189950Y-97677804D01*
X190299143Y-97810857D01*
X190432196Y-97920050D01*
X190583994Y-98001188D01*
X190748705Y-98051153D01*
X190919999Y-98068024D01*
X191570001Y-98068024D01*
X191741295Y-98051153D01*
X191906006Y-98001188D01*
X192057804Y-97920050D01*
X192190857Y-97810857D01*
X192270000Y-97714420D01*
X192349143Y-97810857D01*
X192482196Y-97920050D01*
X192633994Y-98001188D01*
X192798705Y-98051153D01*
X192969999Y-98068024D01*
X193620001Y-98068024D01*
X193791295Y-98051153D01*
X193956006Y-98001188D01*
X194107804Y-97920050D01*
X194240857Y-97810857D01*
X194350050Y-97677804D01*
X194431188Y-97526006D01*
X194435532Y-97511685D01*
X199541723Y-97511685D01*
X199643711Y-97664321D01*
X199845679Y-97866289D01*
X200083167Y-98024973D01*
X200347051Y-98134277D01*
X200627187Y-98190000D01*
X200912813Y-98190000D01*
X201192949Y-98134277D01*
X201456833Y-98024973D01*
X201694321Y-97866289D01*
X201896289Y-97664321D01*
X202054973Y-97426833D01*
X202164277Y-97162949D01*
X202220000Y-96882813D01*
X202220000Y-96597187D01*
X202164277Y-96317051D01*
X202054973Y-96053167D01*
X201896289Y-95815679D01*
X201694321Y-95613711D01*
X201456833Y-95455027D01*
X201192949Y-95345723D01*
X200912813Y-95290000D01*
X200627187Y-95290000D01*
X200347051Y-95345723D01*
X200083167Y-95455027D01*
X199845679Y-95613711D01*
X199643711Y-95815679D01*
X199541723Y-95968315D01*
X194435532Y-95968315D01*
X194431188Y-95953994D01*
X194350050Y-95802196D01*
X194240857Y-95669143D01*
X194107804Y-95559950D01*
X193956006Y-95478812D01*
X193791295Y-95428847D01*
X193620001Y-95411976D01*
X192969999Y-95411976D01*
X192798705Y-95428847D01*
X192633994Y-95478812D01*
X192482196Y-95559950D01*
X192349143Y-95669143D01*
X192270000Y-95765580D01*
X192190857Y-95669143D01*
X192057804Y-95559950D01*
X191906006Y-95478812D01*
X191741295Y-95428847D01*
X191570001Y-95411976D01*
X190919999Y-95411976D01*
X190748705Y-95428847D01*
X190583994Y-95478812D01*
X190432196Y-95559950D01*
X190299143Y-95669143D01*
X190189950Y-95802196D01*
X190108812Y-95953994D01*
X190104468Y-95968315D01*
X189990532Y-95968315D01*
X189986188Y-95953994D01*
X189905050Y-95802196D01*
X189795857Y-95669143D01*
X189662804Y-95559950D01*
X189511006Y-95478812D01*
X189346295Y-95428847D01*
X189175001Y-95411976D01*
X188524999Y-95411976D01*
X188353705Y-95428847D01*
X188188994Y-95478812D01*
X188037196Y-95559950D01*
X187904143Y-95669143D01*
X187825000Y-95765580D01*
X187745857Y-95669143D01*
X187612804Y-95559950D01*
X187461006Y-95478812D01*
X187296295Y-95428847D01*
X187125001Y-95411976D01*
X186474999Y-95411976D01*
X186303705Y-95428847D01*
X186138994Y-95478812D01*
X185987196Y-95559950D01*
X185854143Y-95669143D01*
X185744950Y-95802196D01*
X185663812Y-95953994D01*
X185659468Y-95968315D01*
X185462029Y-95968315D01*
X185440050Y-95927196D01*
X185330857Y-95794143D01*
X185197804Y-95684950D01*
X185046006Y-95603812D01*
X184881295Y-95553847D01*
X184710001Y-95536976D01*
X183809999Y-95536976D01*
X183638705Y-95553847D01*
X183473994Y-95603812D01*
X183322196Y-95684950D01*
X183189143Y-95794143D01*
X183079950Y-95927196D01*
X183057971Y-95968315D01*
X182922029Y-95968315D01*
X182900050Y-95927196D01*
X182790857Y-95794143D01*
X182657804Y-95684950D01*
X182506006Y-95603812D01*
X182341295Y-95553847D01*
X182170001Y-95536976D01*
X181269999Y-95536976D01*
X181098705Y-95553847D01*
X180933994Y-95603812D01*
X180782196Y-95684950D01*
X180649143Y-95794143D01*
X180539950Y-95927196D01*
X180516797Y-95970511D01*
X180467666Y-95975350D01*
X180461188Y-95953994D01*
X180380050Y-95802196D01*
X180270857Y-95669143D01*
X180137804Y-95559950D01*
X179986006Y-95478812D01*
X179821295Y-95428847D01*
X179650001Y-95411976D01*
X178999999Y-95411976D01*
X178828705Y-95428847D01*
X178663994Y-95478812D01*
X178512196Y-95559950D01*
X178379143Y-95669143D01*
X178300000Y-95765580D01*
X178220857Y-95669143D01*
X178087804Y-95559950D01*
X177936006Y-95478812D01*
X177771295Y-95428847D01*
X177600001Y-95411976D01*
X176949999Y-95411976D01*
X176778705Y-95428847D01*
X176613994Y-95478812D01*
X176462196Y-95559950D01*
X176329143Y-95669143D01*
X176219950Y-95802196D01*
X176138812Y-95953994D01*
X176088847Y-96118705D01*
X176077500Y-96233913D01*
X176066153Y-96118705D01*
X176016188Y-95953994D01*
X175935050Y-95802196D01*
X175825857Y-95669143D01*
X175692804Y-95559950D01*
X175541006Y-95478812D01*
X175376295Y-95428847D01*
X175205001Y-95411976D01*
X174554999Y-95411976D01*
X174383705Y-95428847D01*
X174218994Y-95478812D01*
X174067196Y-95559950D01*
X173934143Y-95669143D01*
X173855000Y-95765580D01*
X173775857Y-95669143D01*
X173642804Y-95559950D01*
X173491006Y-95478812D01*
X173326295Y-95428847D01*
X173155001Y-95411976D01*
X172504999Y-95411976D01*
X172333705Y-95428847D01*
X172168994Y-95478812D01*
X172017196Y-95559950D01*
X171884143Y-95669143D01*
X171774950Y-95802196D01*
X171693812Y-95953994D01*
X171689468Y-95968315D01*
X171492029Y-95968315D01*
X171470050Y-95927196D01*
X171360857Y-95794143D01*
X171227804Y-95684950D01*
X171076006Y-95603812D01*
X170911295Y-95553847D01*
X170740001Y-95536976D01*
X169839999Y-95536976D01*
X169668705Y-95553847D01*
X169503994Y-95603812D01*
X169352196Y-95684950D01*
X169219143Y-95794143D01*
X169109950Y-95927196D01*
X169087971Y-95968315D01*
X168952029Y-95968315D01*
X168930050Y-95927196D01*
X168820857Y-95794143D01*
X168687804Y-95684950D01*
X168536006Y-95603812D01*
X168371295Y-95553847D01*
X168200001Y-95536976D01*
X167299999Y-95536976D01*
X167128705Y-95553847D01*
X166963994Y-95603812D01*
X166812196Y-95684950D01*
X166679143Y-95794143D01*
X166569950Y-95927196D01*
X166534123Y-95994224D01*
X166505981Y-96002760D01*
X166491188Y-95953994D01*
X166410050Y-95802196D01*
X166300857Y-95669143D01*
X166167804Y-95559950D01*
X166016006Y-95478812D01*
X165851295Y-95428847D01*
X165680001Y-95411976D01*
X165029999Y-95411976D01*
X164858705Y-95428847D01*
X164693994Y-95478812D01*
X164542196Y-95559950D01*
X164409143Y-95669143D01*
X164330000Y-95765580D01*
X164250857Y-95669143D01*
X164117804Y-95559950D01*
X163966006Y-95478812D01*
X163801295Y-95428847D01*
X163630001Y-95411976D01*
X162979999Y-95411976D01*
X162808705Y-95428847D01*
X162643994Y-95478812D01*
X162492196Y-95559950D01*
X162359143Y-95669143D01*
X162249950Y-95802196D01*
X162168812Y-95953994D01*
X162118847Y-96118705D01*
X162107500Y-96233913D01*
X162096153Y-96118705D01*
X162046188Y-95953994D01*
X161965050Y-95802196D01*
X161855857Y-95669143D01*
X161722804Y-95559950D01*
X161571006Y-95478812D01*
X161406295Y-95428847D01*
X161235001Y-95411976D01*
X160584999Y-95411976D01*
X160413705Y-95428847D01*
X160248994Y-95478812D01*
X160097196Y-95559950D01*
X159964143Y-95669143D01*
X159885000Y-95765580D01*
X159805857Y-95669143D01*
X159672804Y-95559950D01*
X159521006Y-95478812D01*
X159356295Y-95428847D01*
X159185001Y-95411976D01*
X158534999Y-95411976D01*
X158363705Y-95428847D01*
X158198994Y-95478812D01*
X158047196Y-95559950D01*
X157914143Y-95669143D01*
X157804950Y-95802196D01*
X157723812Y-95953994D01*
X157719468Y-95968315D01*
X157522029Y-95968315D01*
X157500050Y-95927196D01*
X157390857Y-95794143D01*
X157257804Y-95684950D01*
X157106006Y-95603812D01*
X156941295Y-95553847D01*
X156770001Y-95536976D01*
X155869999Y-95536976D01*
X155698705Y-95553847D01*
X155533994Y-95603812D01*
X155382196Y-95684950D01*
X155249143Y-95794143D01*
X155139950Y-95927196D01*
X155117971Y-95968315D01*
X154982029Y-95968315D01*
X154960050Y-95927196D01*
X154850857Y-95794143D01*
X154717804Y-95684950D01*
X154566006Y-95603812D01*
X154401295Y-95553847D01*
X154230001Y-95536976D01*
X153329999Y-95536976D01*
X153158705Y-95553847D01*
X152993994Y-95603812D01*
X152842196Y-95684950D01*
X152709143Y-95794143D01*
X152599950Y-95927196D01*
X152577971Y-95968315D01*
X152135532Y-95968315D01*
X152131188Y-95953994D01*
X152050050Y-95802196D01*
X151940857Y-95669143D01*
X151807804Y-95559950D01*
X151656006Y-95478812D01*
X151491295Y-95428847D01*
X151320001Y-95411976D01*
X150669999Y-95411976D01*
X150498705Y-95428847D01*
X150333994Y-95478812D01*
X150182196Y-95559950D01*
X150049143Y-95669143D01*
X149970000Y-95765580D01*
X149890857Y-95669143D01*
X149757804Y-95559950D01*
X149606006Y-95478812D01*
X149441295Y-95428847D01*
X149270001Y-95411976D01*
X148619999Y-95411976D01*
X148448705Y-95428847D01*
X148283994Y-95478812D01*
X148132196Y-95559950D01*
X147999143Y-95669143D01*
X147889950Y-95802196D01*
X147808812Y-95953994D01*
X147804468Y-95968315D01*
X147690532Y-95968315D01*
X147686188Y-95953994D01*
X147605050Y-95802196D01*
X147495857Y-95669143D01*
X147362804Y-95559950D01*
X147211006Y-95478812D01*
X147046295Y-95428847D01*
X146875001Y-95411976D01*
X146224999Y-95411976D01*
X146053705Y-95428847D01*
X145888994Y-95478812D01*
X145737196Y-95559950D01*
X145604143Y-95669143D01*
X145525000Y-95765580D01*
X145445857Y-95669143D01*
X145312804Y-95559950D01*
X145161006Y-95478812D01*
X144996295Y-95428847D01*
X144825001Y-95411976D01*
X144174999Y-95411976D01*
X144003705Y-95428847D01*
X143838994Y-95478812D01*
X143687196Y-95559950D01*
X143554143Y-95669143D01*
X143444950Y-95802196D01*
X143363812Y-95953994D01*
X143359468Y-95968315D01*
X138498277Y-95968315D01*
X138396289Y-95815679D01*
X138194321Y-95613711D01*
X137956833Y-95455027D01*
X137692949Y-95345723D01*
X137412813Y-95290000D01*
X137127187Y-95290000D01*
X136847051Y-95345723D01*
X136583167Y-95455027D01*
X136345679Y-95613711D01*
X136143711Y-95815679D01*
X135985027Y-96053167D01*
X135875723Y-96317051D01*
X135820000Y-96597187D01*
X120650000Y-96597187D01*
X120650000Y-94881319D01*
X133045457Y-94881319D01*
X133165736Y-95163622D01*
X133487553Y-95323840D01*
X133834443Y-95418196D01*
X134193075Y-95443063D01*
X134549669Y-95397486D01*
X134890518Y-95283218D01*
X135114264Y-95163622D01*
X135234543Y-94881319D01*
X139305457Y-94881319D01*
X139425736Y-95163622D01*
X139747553Y-95323840D01*
X140094443Y-95418196D01*
X140453075Y-95443063D01*
X140809669Y-95397486D01*
X141150518Y-95283218D01*
X141374264Y-95163622D01*
X141494543Y-94881319D01*
X196545457Y-94881319D01*
X196665736Y-95163622D01*
X196987553Y-95323840D01*
X197334443Y-95418196D01*
X197693075Y-95443063D01*
X198049669Y-95397486D01*
X198390518Y-95283218D01*
X198614264Y-95163622D01*
X198734543Y-94881319D01*
X202805457Y-94881319D01*
X202925736Y-95163622D01*
X203247553Y-95323840D01*
X203594443Y-95418196D01*
X203953075Y-95443063D01*
X204309669Y-95397486D01*
X204650518Y-95283218D01*
X204874264Y-95163622D01*
X204994543Y-94881319D01*
X203900000Y-93786777D01*
X202805457Y-94881319D01*
X198734543Y-94881319D01*
X197640000Y-93786777D01*
X196545457Y-94881319D01*
X141494543Y-94881319D01*
X140400000Y-93786777D01*
X139305457Y-94881319D01*
X135234543Y-94881319D01*
X134140000Y-93786777D01*
X133045457Y-94881319D01*
X120650000Y-94881319D01*
X120650000Y-93663075D01*
X132306937Y-93663075D01*
X132352514Y-94019669D01*
X132466782Y-94360518D01*
X132586378Y-94584264D01*
X132868681Y-94704543D01*
X133963223Y-93610000D01*
X134316777Y-93610000D01*
X135411319Y-94704543D01*
X135693622Y-94584264D01*
X135853840Y-94262447D01*
X135948196Y-93915557D01*
X135965702Y-93663075D01*
X138566937Y-93663075D01*
X138612514Y-94019669D01*
X138726782Y-94360518D01*
X138846378Y-94584264D01*
X139128681Y-94704543D01*
X140223223Y-93610000D01*
X140576777Y-93610000D01*
X141671319Y-94704543D01*
X141953622Y-94584264D01*
X142113840Y-94262447D01*
X142208196Y-93915557D01*
X142225702Y-93663075D01*
X195806937Y-93663075D01*
X195852514Y-94019669D01*
X195966782Y-94360518D01*
X196086378Y-94584264D01*
X196368681Y-94704543D01*
X197463223Y-93610000D01*
X197816777Y-93610000D01*
X198911319Y-94704543D01*
X199193622Y-94584264D01*
X199353840Y-94262447D01*
X199448196Y-93915557D01*
X199465702Y-93663075D01*
X202066937Y-93663075D01*
X202112514Y-94019669D01*
X202226782Y-94360518D01*
X202346378Y-94584264D01*
X202628681Y-94704543D01*
X203723223Y-93610000D01*
X204076777Y-93610000D01*
X205171319Y-94704543D01*
X205453622Y-94584264D01*
X205613840Y-94262447D01*
X205708196Y-93915557D01*
X205733063Y-93556925D01*
X205687486Y-93200331D01*
X205573218Y-92859482D01*
X205453622Y-92635736D01*
X205171319Y-92515457D01*
X204076777Y-93610000D01*
X203723223Y-93610000D01*
X202628681Y-92515457D01*
X202346378Y-92635736D01*
X202186160Y-92957553D01*
X202091804Y-93304443D01*
X202066937Y-93663075D01*
X199465702Y-93663075D01*
X199473063Y-93556925D01*
X199427486Y-93200331D01*
X199313218Y-92859482D01*
X199193622Y-92635736D01*
X198911319Y-92515457D01*
X197816777Y-93610000D01*
X197463223Y-93610000D01*
X196368681Y-92515457D01*
X196086378Y-92635736D01*
X195926160Y-92957553D01*
X195831804Y-93304443D01*
X195806937Y-93663075D01*
X142225702Y-93663075D01*
X142233063Y-93556925D01*
X142187486Y-93200331D01*
X142073218Y-92859482D01*
X141953622Y-92635736D01*
X141671319Y-92515457D01*
X140576777Y-93610000D01*
X140223223Y-93610000D01*
X139128681Y-92515457D01*
X138846378Y-92635736D01*
X138686160Y-92957553D01*
X138591804Y-93304443D01*
X138566937Y-93663075D01*
X135965702Y-93663075D01*
X135973063Y-93556925D01*
X135927486Y-93200331D01*
X135813218Y-92859482D01*
X135693622Y-92635736D01*
X135411319Y-92515457D01*
X134316777Y-93610000D01*
X133963223Y-93610000D01*
X132868681Y-92515457D01*
X132586378Y-92635736D01*
X132426160Y-92957553D01*
X132331804Y-93304443D01*
X132306937Y-93663075D01*
X120650000Y-93663075D01*
X120650000Y-92338681D01*
X133045457Y-92338681D01*
X134140000Y-93433223D01*
X135234543Y-92338681D01*
X139305457Y-92338681D01*
X140400000Y-93433223D01*
X141494543Y-92338681D01*
X196545457Y-92338681D01*
X197640000Y-93433223D01*
X198734543Y-92338681D01*
X202805457Y-92338681D01*
X203900000Y-93433223D01*
X204994543Y-92338681D01*
X204874264Y-92056378D01*
X204552447Y-91896160D01*
X204205557Y-91801804D01*
X203846925Y-91776937D01*
X203490331Y-91822514D01*
X203149482Y-91936782D01*
X202925736Y-92056378D01*
X202805457Y-92338681D01*
X198734543Y-92338681D01*
X198614264Y-92056378D01*
X198292447Y-91896160D01*
X197945557Y-91801804D01*
X197586925Y-91776937D01*
X197230331Y-91822514D01*
X196889482Y-91936782D01*
X196665736Y-92056378D01*
X196545457Y-92338681D01*
X141494543Y-92338681D01*
X141374264Y-92056378D01*
X141052447Y-91896160D01*
X140705557Y-91801804D01*
X140346925Y-91776937D01*
X139990331Y-91822514D01*
X139649482Y-91936782D01*
X139425736Y-92056378D01*
X139305457Y-92338681D01*
X135234543Y-92338681D01*
X135114264Y-92056378D01*
X134792447Y-91896160D01*
X134445557Y-91801804D01*
X134086925Y-91776937D01*
X133730331Y-91822514D01*
X133389482Y-91936782D01*
X133165736Y-92056378D01*
X133045457Y-92338681D01*
X120650000Y-92338681D01*
X120650000Y-82331319D01*
X133205457Y-82331319D01*
X133325736Y-82613622D01*
X133647553Y-82773840D01*
X133994443Y-82868196D01*
X134353075Y-82893063D01*
X134709669Y-82847486D01*
X135050518Y-82733218D01*
X135274264Y-82613622D01*
X135394543Y-82331319D01*
X139465457Y-82331319D01*
X139585736Y-82613622D01*
X139907553Y-82773840D01*
X140254443Y-82868196D01*
X140613075Y-82893063D01*
X140969669Y-82847486D01*
X141310518Y-82733218D01*
X141534264Y-82613622D01*
X141654543Y-82331319D01*
X164828457Y-82331319D01*
X164948736Y-82613622D01*
X165270553Y-82773840D01*
X165617443Y-82868196D01*
X165976075Y-82893063D01*
X166332669Y-82847486D01*
X166673518Y-82733218D01*
X166897264Y-82613622D01*
X167017543Y-82331319D01*
X171088457Y-82331319D01*
X171208736Y-82613622D01*
X171530553Y-82773840D01*
X171877443Y-82868196D01*
X172236075Y-82893063D01*
X172592669Y-82847486D01*
X172933518Y-82733218D01*
X173157264Y-82613622D01*
X173277543Y-82331319D01*
X196705457Y-82331319D01*
X196825736Y-82613622D01*
X197147553Y-82773840D01*
X197494443Y-82868196D01*
X197853075Y-82893063D01*
X198209669Y-82847486D01*
X198550518Y-82733218D01*
X198774264Y-82613622D01*
X198894543Y-82331319D01*
X202965457Y-82331319D01*
X203085736Y-82613622D01*
X203407553Y-82773840D01*
X203754443Y-82868196D01*
X204113075Y-82893063D01*
X204469669Y-82847486D01*
X204810518Y-82733218D01*
X205034264Y-82613622D01*
X205154543Y-82331319D01*
X204060000Y-81236777D01*
X202965457Y-82331319D01*
X198894543Y-82331319D01*
X197800000Y-81236777D01*
X196705457Y-82331319D01*
X173277543Y-82331319D01*
X172183000Y-81236777D01*
X171088457Y-82331319D01*
X167017543Y-82331319D01*
X165923000Y-81236777D01*
X164828457Y-82331319D01*
X141654543Y-82331319D01*
X140560000Y-81236777D01*
X139465457Y-82331319D01*
X135394543Y-82331319D01*
X134300000Y-81236777D01*
X133205457Y-82331319D01*
X120650000Y-82331319D01*
X120650000Y-81113075D01*
X132466937Y-81113075D01*
X132512514Y-81469669D01*
X132626782Y-81810518D01*
X132746378Y-82034264D01*
X133028681Y-82154543D01*
X134123223Y-81060000D01*
X134476777Y-81060000D01*
X135571319Y-82154543D01*
X135853622Y-82034264D01*
X136013840Y-81712447D01*
X136108196Y-81365557D01*
X136125702Y-81113075D01*
X138726937Y-81113075D01*
X138772514Y-81469669D01*
X138886782Y-81810518D01*
X139006378Y-82034264D01*
X139288681Y-82154543D01*
X140383223Y-81060000D01*
X140736777Y-81060000D01*
X141831319Y-82154543D01*
X142113622Y-82034264D01*
X142273840Y-81712447D01*
X142368196Y-81365557D01*
X142385702Y-81113075D01*
X164089937Y-81113075D01*
X164135514Y-81469669D01*
X164249782Y-81810518D01*
X164369378Y-82034264D01*
X164651681Y-82154543D01*
X165746223Y-81060000D01*
X166099777Y-81060000D01*
X167194319Y-82154543D01*
X167476622Y-82034264D01*
X167636840Y-81712447D01*
X167731196Y-81365557D01*
X167748702Y-81113075D01*
X170349937Y-81113075D01*
X170395514Y-81469669D01*
X170509782Y-81810518D01*
X170629378Y-82034264D01*
X170911681Y-82154543D01*
X172006223Y-81060000D01*
X172359777Y-81060000D01*
X173454319Y-82154543D01*
X173736622Y-82034264D01*
X173896840Y-81712447D01*
X173991196Y-81365557D01*
X174008702Y-81113075D01*
X195966937Y-81113075D01*
X196012514Y-81469669D01*
X196126782Y-81810518D01*
X196246378Y-82034264D01*
X196528681Y-82154543D01*
X197623223Y-81060000D01*
X197976777Y-81060000D01*
X199071319Y-82154543D01*
X199353622Y-82034264D01*
X199513840Y-81712447D01*
X199608196Y-81365557D01*
X199625702Y-81113075D01*
X202226937Y-81113075D01*
X202272514Y-81469669D01*
X202386782Y-81810518D01*
X202506378Y-82034264D01*
X202788681Y-82154543D01*
X203883223Y-81060000D01*
X204236777Y-81060000D01*
X205331319Y-82154543D01*
X205613622Y-82034264D01*
X205773840Y-81712447D01*
X205868196Y-81365557D01*
X205893063Y-81006925D01*
X205847486Y-80650331D01*
X205733218Y-80309482D01*
X205613622Y-80085736D01*
X205331319Y-79965457D01*
X204236777Y-81060000D01*
X203883223Y-81060000D01*
X202788681Y-79965457D01*
X202506378Y-80085736D01*
X202346160Y-80407553D01*
X202251804Y-80754443D01*
X202226937Y-81113075D01*
X199625702Y-81113075D01*
X199633063Y-81006925D01*
X199587486Y-80650331D01*
X199473218Y-80309482D01*
X199353622Y-80085736D01*
X199071319Y-79965457D01*
X197976777Y-81060000D01*
X197623223Y-81060000D01*
X196528681Y-79965457D01*
X196246378Y-80085736D01*
X196086160Y-80407553D01*
X195991804Y-80754443D01*
X195966937Y-81113075D01*
X174008702Y-81113075D01*
X174016063Y-81006925D01*
X173970486Y-80650331D01*
X173856218Y-80309482D01*
X173736622Y-80085736D01*
X173454319Y-79965457D01*
X172359777Y-81060000D01*
X172006223Y-81060000D01*
X170911681Y-79965457D01*
X170629378Y-80085736D01*
X170469160Y-80407553D01*
X170374804Y-80754443D01*
X170349937Y-81113075D01*
X167748702Y-81113075D01*
X167756063Y-81006925D01*
X167710486Y-80650331D01*
X167596218Y-80309482D01*
X167476622Y-80085736D01*
X167194319Y-79965457D01*
X166099777Y-81060000D01*
X165746223Y-81060000D01*
X164651681Y-79965457D01*
X164369378Y-80085736D01*
X164209160Y-80407553D01*
X164114804Y-80754443D01*
X164089937Y-81113075D01*
X142385702Y-81113075D01*
X142393063Y-81006925D01*
X142347486Y-80650331D01*
X142233218Y-80309482D01*
X142113622Y-80085736D01*
X141831319Y-79965457D01*
X140736777Y-81060000D01*
X140383223Y-81060000D01*
X139288681Y-79965457D01*
X139006378Y-80085736D01*
X138846160Y-80407553D01*
X138751804Y-80754443D01*
X138726937Y-81113075D01*
X136125702Y-81113075D01*
X136133063Y-81006925D01*
X136087486Y-80650331D01*
X135973218Y-80309482D01*
X135853622Y-80085736D01*
X135571319Y-79965457D01*
X134476777Y-81060000D01*
X134123223Y-81060000D01*
X133028681Y-79965457D01*
X132746378Y-80085736D01*
X132586160Y-80407553D01*
X132491804Y-80754443D01*
X132466937Y-81113075D01*
X120650000Y-81113075D01*
X120650000Y-79788681D01*
X133205457Y-79788681D01*
X134300000Y-80883223D01*
X135394543Y-79788681D01*
X139465457Y-79788681D01*
X140560000Y-80883223D01*
X141654543Y-79788681D01*
X164828457Y-79788681D01*
X165923000Y-80883223D01*
X167017543Y-79788681D01*
X171088457Y-79788681D01*
X172183000Y-80883223D01*
X173277543Y-79788681D01*
X196705457Y-79788681D01*
X197800000Y-80883223D01*
X198894543Y-79788681D01*
X202965457Y-79788681D01*
X204060000Y-80883223D01*
X205154543Y-79788681D01*
X205034264Y-79506378D01*
X204712447Y-79346160D01*
X204365557Y-79251804D01*
X204006925Y-79226937D01*
X203650331Y-79272514D01*
X203309482Y-79386782D01*
X203085736Y-79506378D01*
X202965457Y-79788681D01*
X198894543Y-79788681D01*
X198774264Y-79506378D01*
X198452447Y-79346160D01*
X198105557Y-79251804D01*
X197746925Y-79226937D01*
X197390331Y-79272514D01*
X197049482Y-79386782D01*
X196825736Y-79506378D01*
X196705457Y-79788681D01*
X173277543Y-79788681D01*
X173157264Y-79506378D01*
X172835447Y-79346160D01*
X172488557Y-79251804D01*
X172129925Y-79226937D01*
X171773331Y-79272514D01*
X171432482Y-79386782D01*
X171208736Y-79506378D01*
X171088457Y-79788681D01*
X167017543Y-79788681D01*
X166897264Y-79506378D01*
X166575447Y-79346160D01*
X166228557Y-79251804D01*
X165869925Y-79226937D01*
X165513331Y-79272514D01*
X165172482Y-79386782D01*
X164948736Y-79506378D01*
X164828457Y-79788681D01*
X141654543Y-79788681D01*
X141534264Y-79506378D01*
X141212447Y-79346160D01*
X140865557Y-79251804D01*
X140506925Y-79226937D01*
X140150331Y-79272514D01*
X139809482Y-79386782D01*
X139585736Y-79506378D01*
X139465457Y-79788681D01*
X135394543Y-79788681D01*
X135274264Y-79506378D01*
X134952447Y-79346160D01*
X134605557Y-79251804D01*
X134246925Y-79226937D01*
X133890331Y-79272514D01*
X133549482Y-79386782D01*
X133325736Y-79506378D01*
X133205457Y-79788681D01*
X120650000Y-79788681D01*
X120650000Y-77787187D01*
X135980000Y-77787187D01*
X135980000Y-78072813D01*
X136035723Y-78352949D01*
X136145027Y-78616833D01*
X136303711Y-78854321D01*
X136505679Y-79056289D01*
X136743167Y-79214973D01*
X137007051Y-79324277D01*
X137287187Y-79380000D01*
X137572813Y-79380000D01*
X137852949Y-79324277D01*
X138116833Y-79214973D01*
X138354321Y-79056289D01*
X138476698Y-78933912D01*
X168225865Y-78933912D01*
X168300872Y-79177878D01*
X168558773Y-79300634D01*
X168835666Y-79370716D01*
X169120912Y-79385432D01*
X169403548Y-79344218D01*
X169672713Y-79248655D01*
X169805128Y-79177878D01*
X169880135Y-78933912D01*
X169053000Y-78106777D01*
X168225865Y-78933912D01*
X138476698Y-78933912D01*
X138556289Y-78854321D01*
X138658277Y-78701685D01*
X145087903Y-78701685D01*
X145201277Y-78690519D01*
X145346740Y-78646393D01*
X145480799Y-78574737D01*
X145598303Y-78478303D01*
X145694737Y-78360799D01*
X145766393Y-78226740D01*
X145810519Y-78081277D01*
X145818729Y-77997912D01*
X167597568Y-77997912D01*
X167638782Y-78280548D01*
X167734345Y-78549713D01*
X167805122Y-78682128D01*
X168049088Y-78757135D01*
X168876223Y-77930000D01*
X169229777Y-77930000D01*
X170056912Y-78757135D01*
X170300878Y-78682128D01*
X170423634Y-78424227D01*
X170493716Y-78147334D01*
X170508432Y-77862088D01*
X170497510Y-77787187D01*
X199480000Y-77787187D01*
X199480000Y-78072813D01*
X199535723Y-78352949D01*
X199645027Y-78616833D01*
X199803711Y-78854321D01*
X200005679Y-79056289D01*
X200243167Y-79214973D01*
X200507051Y-79324277D01*
X200787187Y-79380000D01*
X201072813Y-79380000D01*
X201352949Y-79324277D01*
X201616833Y-79214973D01*
X201854321Y-79056289D01*
X202056289Y-78854321D01*
X202158277Y-78701685D01*
X207006423Y-78701685D01*
X207008847Y-78726294D01*
X207058812Y-78891005D01*
X207139950Y-79042804D01*
X207249143Y-79175857D01*
X207382196Y-79285050D01*
X207533995Y-79366188D01*
X207698706Y-79416153D01*
X207870000Y-79433024D01*
X208795000Y-79433024D01*
X208966294Y-79416153D01*
X209131005Y-79366188D01*
X209282804Y-79285050D01*
X209415857Y-79175857D01*
X209525050Y-79042804D01*
X209606188Y-78891005D01*
X209632277Y-78805000D01*
X209966976Y-78805000D01*
X209979043Y-78927521D01*
X210014781Y-79045334D01*
X210072817Y-79153911D01*
X210150920Y-79249080D01*
X210246089Y-79327183D01*
X210354666Y-79385219D01*
X210472479Y-79420957D01*
X210595000Y-79433024D01*
X211026250Y-79430000D01*
X211182500Y-79273750D01*
X211182500Y-78055000D01*
X211432500Y-78055000D01*
X211432500Y-79273750D01*
X211588750Y-79430000D01*
X212020000Y-79433024D01*
X212142521Y-79420957D01*
X212260334Y-79385219D01*
X212368911Y-79327183D01*
X212464080Y-79249080D01*
X212542183Y-79153911D01*
X212600219Y-79045334D01*
X212635957Y-78927521D01*
X212648024Y-78805000D01*
X212645000Y-78211250D01*
X212488750Y-78055000D01*
X211432500Y-78055000D01*
X211182500Y-78055000D01*
X210126250Y-78055000D01*
X209970000Y-78211250D01*
X209966976Y-78805000D01*
X209632277Y-78805000D01*
X209656153Y-78726294D01*
X209673024Y-78555000D01*
X209673024Y-77305000D01*
X209656153Y-77133706D01*
X209632278Y-77055000D01*
X209966976Y-77055000D01*
X209970000Y-77648750D01*
X210126250Y-77805000D01*
X211182500Y-77805000D01*
X211182500Y-76586250D01*
X211432500Y-76586250D01*
X211432500Y-77805000D01*
X212488750Y-77805000D01*
X212645000Y-77648750D01*
X212648024Y-77055000D01*
X212635957Y-76932479D01*
X212600219Y-76814666D01*
X212542183Y-76706089D01*
X212464080Y-76610920D01*
X212368911Y-76532817D01*
X212260334Y-76474781D01*
X212142521Y-76439043D01*
X212020000Y-76426976D01*
X211588750Y-76430000D01*
X211432500Y-76586250D01*
X211182500Y-76586250D01*
X211026250Y-76430000D01*
X210595000Y-76426976D01*
X210472479Y-76439043D01*
X210354666Y-76474781D01*
X210246089Y-76532817D01*
X210150920Y-76610920D01*
X210072817Y-76706089D01*
X210014781Y-76814666D01*
X209979043Y-76932479D01*
X209966976Y-77055000D01*
X209632278Y-77055000D01*
X209606188Y-76968995D01*
X209525050Y-76817196D01*
X209415857Y-76684143D01*
X209282804Y-76574950D01*
X209131005Y-76493812D01*
X208966294Y-76443847D01*
X208795000Y-76426976D01*
X207870000Y-76426976D01*
X207698706Y-76443847D01*
X207533995Y-76493812D01*
X207382196Y-76574950D01*
X207249143Y-76684143D01*
X207139950Y-76817196D01*
X207058812Y-76968995D01*
X207008847Y-77133706D01*
X207006423Y-77158315D01*
X202158277Y-77158315D01*
X202056289Y-77005679D01*
X201854321Y-76803711D01*
X201616833Y-76645027D01*
X201352949Y-76535723D01*
X201072813Y-76480000D01*
X200787187Y-76480000D01*
X200507051Y-76535723D01*
X200243167Y-76645027D01*
X200005679Y-76803711D01*
X199803711Y-77005679D01*
X199645027Y-77243167D01*
X199535723Y-77507051D01*
X199480000Y-77787187D01*
X170497510Y-77787187D01*
X170467218Y-77579452D01*
X170371655Y-77310287D01*
X170300878Y-77177872D01*
X170056912Y-77102865D01*
X169229777Y-77930000D01*
X168876223Y-77930000D01*
X168049088Y-77102865D01*
X167805122Y-77177872D01*
X167682366Y-77435773D01*
X167612284Y-77712666D01*
X167597568Y-77997912D01*
X145818729Y-77997912D01*
X145825418Y-77930000D01*
X145810519Y-77778723D01*
X145766393Y-77633260D01*
X145694737Y-77499201D01*
X145598303Y-77381697D01*
X145480799Y-77285263D01*
X145346740Y-77213607D01*
X145201277Y-77169481D01*
X145087903Y-77158315D01*
X138658277Y-77158315D01*
X138556289Y-77005679D01*
X138476698Y-76926088D01*
X168225865Y-76926088D01*
X169053000Y-77753223D01*
X169880135Y-76926088D01*
X169805128Y-76682122D01*
X169547227Y-76559366D01*
X169270334Y-76489284D01*
X168985088Y-76474568D01*
X168702452Y-76515782D01*
X168433287Y-76611345D01*
X168300872Y-76682122D01*
X168225865Y-76926088D01*
X138476698Y-76926088D01*
X138354321Y-76803711D01*
X138116833Y-76645027D01*
X137852949Y-76535723D01*
X137572813Y-76480000D01*
X137287187Y-76480000D01*
X137007051Y-76535723D01*
X136743167Y-76645027D01*
X136505679Y-76803711D01*
X136303711Y-77005679D01*
X136145027Y-77243167D01*
X136035723Y-77507051D01*
X135980000Y-77787187D01*
X120650000Y-77787187D01*
X120650000Y-76071319D01*
X133205457Y-76071319D01*
X133325736Y-76353622D01*
X133647553Y-76513840D01*
X133994443Y-76608196D01*
X134353075Y-76633063D01*
X134709669Y-76587486D01*
X135050518Y-76473218D01*
X135274264Y-76353622D01*
X135394543Y-76071319D01*
X139465457Y-76071319D01*
X139585736Y-76353622D01*
X139907553Y-76513840D01*
X140254443Y-76608196D01*
X140613075Y-76633063D01*
X140969669Y-76587486D01*
X141310518Y-76473218D01*
X141534264Y-76353622D01*
X141654543Y-76071319D01*
X164828457Y-76071319D01*
X164948736Y-76353622D01*
X165270553Y-76513840D01*
X165617443Y-76608196D01*
X165976075Y-76633063D01*
X166332669Y-76587486D01*
X166673518Y-76473218D01*
X166897264Y-76353622D01*
X167017543Y-76071319D01*
X171088457Y-76071319D01*
X171208736Y-76353622D01*
X171530553Y-76513840D01*
X171877443Y-76608196D01*
X172236075Y-76633063D01*
X172592669Y-76587486D01*
X172933518Y-76473218D01*
X173157264Y-76353622D01*
X173277543Y-76071319D01*
X196705457Y-76071319D01*
X196825736Y-76353622D01*
X197147553Y-76513840D01*
X197494443Y-76608196D01*
X197853075Y-76633063D01*
X198209669Y-76587486D01*
X198550518Y-76473218D01*
X198774264Y-76353622D01*
X198894543Y-76071319D01*
X202965457Y-76071319D01*
X203085736Y-76353622D01*
X203407553Y-76513840D01*
X203754443Y-76608196D01*
X204113075Y-76633063D01*
X204469669Y-76587486D01*
X204810518Y-76473218D01*
X205034264Y-76353622D01*
X205154543Y-76071319D01*
X204060000Y-74976777D01*
X202965457Y-76071319D01*
X198894543Y-76071319D01*
X197800000Y-74976777D01*
X196705457Y-76071319D01*
X173277543Y-76071319D01*
X172183000Y-74976777D01*
X171088457Y-76071319D01*
X167017543Y-76071319D01*
X165923000Y-74976777D01*
X164828457Y-76071319D01*
X141654543Y-76071319D01*
X140560000Y-74976777D01*
X139465457Y-76071319D01*
X135394543Y-76071319D01*
X134300000Y-74976777D01*
X133205457Y-76071319D01*
X120650000Y-76071319D01*
X120650000Y-74853075D01*
X132466937Y-74853075D01*
X132512514Y-75209669D01*
X132626782Y-75550518D01*
X132746378Y-75774264D01*
X133028681Y-75894543D01*
X134123223Y-74800000D01*
X134476777Y-74800000D01*
X135571319Y-75894543D01*
X135853622Y-75774264D01*
X136013840Y-75452447D01*
X136108196Y-75105557D01*
X136125702Y-74853075D01*
X138726937Y-74853075D01*
X138772514Y-75209669D01*
X138886782Y-75550518D01*
X139006378Y-75774264D01*
X139288681Y-75894543D01*
X140383223Y-74800000D01*
X140736777Y-74800000D01*
X141831319Y-75894543D01*
X142113622Y-75774264D01*
X142273840Y-75452447D01*
X142368196Y-75105557D01*
X142385702Y-74853075D01*
X164089937Y-74853075D01*
X164135514Y-75209669D01*
X164249782Y-75550518D01*
X164369378Y-75774264D01*
X164651681Y-75894543D01*
X165746223Y-74800000D01*
X166099777Y-74800000D01*
X167194319Y-75894543D01*
X167476622Y-75774264D01*
X167636840Y-75452447D01*
X167731196Y-75105557D01*
X167748702Y-74853075D01*
X170349937Y-74853075D01*
X170395514Y-75209669D01*
X170509782Y-75550518D01*
X170629378Y-75774264D01*
X170911681Y-75894543D01*
X172006223Y-74800000D01*
X172359777Y-74800000D01*
X173454319Y-75894543D01*
X173736622Y-75774264D01*
X173896840Y-75452447D01*
X173991196Y-75105557D01*
X174008702Y-74853075D01*
X195966937Y-74853075D01*
X196012514Y-75209669D01*
X196126782Y-75550518D01*
X196246378Y-75774264D01*
X196528681Y-75894543D01*
X197623223Y-74800000D01*
X197976777Y-74800000D01*
X199071319Y-75894543D01*
X199353622Y-75774264D01*
X199513840Y-75452447D01*
X199608196Y-75105557D01*
X199625702Y-74853075D01*
X202226937Y-74853075D01*
X202272514Y-75209669D01*
X202386782Y-75550518D01*
X202506378Y-75774264D01*
X202788681Y-75894543D01*
X203883223Y-74800000D01*
X204236777Y-74800000D01*
X205331319Y-75894543D01*
X205613622Y-75774264D01*
X205773840Y-75452447D01*
X205868196Y-75105557D01*
X205893063Y-74746925D01*
X205847486Y-74390331D01*
X205733218Y-74049482D01*
X205613622Y-73825736D01*
X205331319Y-73705457D01*
X204236777Y-74800000D01*
X203883223Y-74800000D01*
X202788681Y-73705457D01*
X202506378Y-73825736D01*
X202346160Y-74147553D01*
X202251804Y-74494443D01*
X202226937Y-74853075D01*
X199625702Y-74853075D01*
X199633063Y-74746925D01*
X199587486Y-74390331D01*
X199473218Y-74049482D01*
X199353622Y-73825736D01*
X199071319Y-73705457D01*
X197976777Y-74800000D01*
X197623223Y-74800000D01*
X196528681Y-73705457D01*
X196246378Y-73825736D01*
X196086160Y-74147553D01*
X195991804Y-74494443D01*
X195966937Y-74853075D01*
X174008702Y-74853075D01*
X174016063Y-74746925D01*
X173970486Y-74390331D01*
X173856218Y-74049482D01*
X173736622Y-73825736D01*
X173454319Y-73705457D01*
X172359777Y-74800000D01*
X172006223Y-74800000D01*
X170911681Y-73705457D01*
X170629378Y-73825736D01*
X170469160Y-74147553D01*
X170374804Y-74494443D01*
X170349937Y-74853075D01*
X167748702Y-74853075D01*
X167756063Y-74746925D01*
X167710486Y-74390331D01*
X167596218Y-74049482D01*
X167476622Y-73825736D01*
X167194319Y-73705457D01*
X166099777Y-74800000D01*
X165746223Y-74800000D01*
X164651681Y-73705457D01*
X164369378Y-73825736D01*
X164209160Y-74147553D01*
X164114804Y-74494443D01*
X164089937Y-74853075D01*
X142385702Y-74853075D01*
X142393063Y-74746925D01*
X142347486Y-74390331D01*
X142233218Y-74049482D01*
X142113622Y-73825736D01*
X141831319Y-73705457D01*
X140736777Y-74800000D01*
X140383223Y-74800000D01*
X139288681Y-73705457D01*
X139006378Y-73825736D01*
X138846160Y-74147553D01*
X138751804Y-74494443D01*
X138726937Y-74853075D01*
X136125702Y-74853075D01*
X136133063Y-74746925D01*
X136087486Y-74390331D01*
X135973218Y-74049482D01*
X135853622Y-73825736D01*
X135571319Y-73705457D01*
X134476777Y-74800000D01*
X134123223Y-74800000D01*
X133028681Y-73705457D01*
X132746378Y-73825736D01*
X132586160Y-74147553D01*
X132491804Y-74494443D01*
X132466937Y-74853075D01*
X120650000Y-74853075D01*
X120650000Y-73528681D01*
X133205457Y-73528681D01*
X134300000Y-74623223D01*
X135394543Y-73528681D01*
X139465457Y-73528681D01*
X140560000Y-74623223D01*
X141654543Y-73528681D01*
X164828457Y-73528681D01*
X165923000Y-74623223D01*
X167017543Y-73528681D01*
X171088457Y-73528681D01*
X172183000Y-74623223D01*
X173277543Y-73528681D01*
X196705457Y-73528681D01*
X197800000Y-74623223D01*
X198894543Y-73528681D01*
X202965457Y-73528681D01*
X204060000Y-74623223D01*
X205154543Y-73528681D01*
X205034264Y-73246378D01*
X204712447Y-73086160D01*
X204365557Y-72991804D01*
X204006925Y-72966937D01*
X203650331Y-73012514D01*
X203309482Y-73126782D01*
X203085736Y-73246378D01*
X202965457Y-73528681D01*
X198894543Y-73528681D01*
X198774264Y-73246378D01*
X198452447Y-73086160D01*
X198105557Y-72991804D01*
X197746925Y-72966937D01*
X197390331Y-73012514D01*
X197049482Y-73126782D01*
X196825736Y-73246378D01*
X196705457Y-73528681D01*
X173277543Y-73528681D01*
X173157264Y-73246378D01*
X172835447Y-73086160D01*
X172488557Y-72991804D01*
X172129925Y-72966937D01*
X171773331Y-73012514D01*
X171432482Y-73126782D01*
X171208736Y-73246378D01*
X171088457Y-73528681D01*
X167017543Y-73528681D01*
X166897264Y-73246378D01*
X166575447Y-73086160D01*
X166228557Y-72991804D01*
X165869925Y-72966937D01*
X165513331Y-73012514D01*
X165172482Y-73126782D01*
X164948736Y-73246378D01*
X164828457Y-73528681D01*
X141654543Y-73528681D01*
X141534264Y-73246378D01*
X141212447Y-73086160D01*
X140865557Y-72991804D01*
X140506925Y-72966937D01*
X140150331Y-73012514D01*
X139809482Y-73126782D01*
X139585736Y-73246378D01*
X139465457Y-73528681D01*
X135394543Y-73528681D01*
X135274264Y-73246378D01*
X134952447Y-73086160D01*
X134605557Y-72991804D01*
X134246925Y-72966937D01*
X133890331Y-73012514D01*
X133549482Y-73126782D01*
X133325736Y-73246378D01*
X133205457Y-73528681D01*
X120650000Y-73528681D01*
X120650000Y-65028951D01*
X120721292Y-64230136D01*
X120925245Y-63484611D01*
X121257995Y-62786987D01*
X121709026Y-62159311D01*
X122264085Y-61621421D01*
X122905618Y-61190329D01*
X123613354Y-60879655D01*
X124369917Y-60698020D01*
X125023829Y-60650000D01*
X214971049Y-60650000D01*
X215769864Y-60721292D01*
G37*
X215769864Y-60721292D02*
X216515389Y-60925245D01*
X217213013Y-61257995D01*
X217840689Y-61709026D01*
X218378579Y-62264085D01*
X218809671Y-62905618D01*
X219120345Y-63613354D01*
X219301980Y-64369917D01*
X219350001Y-65023842D01*
X219350000Y-104971049D01*
X219278708Y-105769865D01*
X219074755Y-106515389D01*
X218742005Y-107213013D01*
X218290972Y-107840692D01*
X217735916Y-108378579D01*
X217094383Y-108809670D01*
X216386650Y-109120344D01*
X215630083Y-109301980D01*
X214976171Y-109350000D01*
X125028951Y-109350000D01*
X124230135Y-109278708D01*
X123484611Y-109074755D01*
X122786987Y-108742005D01*
X122159308Y-108290972D01*
X121621421Y-107735916D01*
X121190330Y-107094383D01*
X120879656Y-106386650D01*
X120698020Y-105630083D01*
X120650000Y-104976171D01*
X120650000Y-101141319D01*
X133045457Y-101141319D01*
X133165736Y-101423622D01*
X133487553Y-101583840D01*
X133834443Y-101678196D01*
X134193075Y-101703063D01*
X134549669Y-101657486D01*
X134890518Y-101543218D01*
X135114264Y-101423622D01*
X135234543Y-101141319D01*
X139305457Y-101141319D01*
X139425736Y-101423622D01*
X139747553Y-101583840D01*
X140094443Y-101678196D01*
X140453075Y-101703063D01*
X140809669Y-101657486D01*
X141150518Y-101543218D01*
X141374264Y-101423622D01*
X141494543Y-101141319D01*
X196545457Y-101141319D01*
X196665736Y-101423622D01*
X196987553Y-101583840D01*
X197334443Y-101678196D01*
X197693075Y-101703063D01*
X198049669Y-101657486D01*
X198390518Y-101543218D01*
X198614264Y-101423622D01*
X198734543Y-101141319D01*
X202805457Y-101141319D01*
X202925736Y-101423622D01*
X203247553Y-101583840D01*
X203594443Y-101678196D01*
X203953075Y-101703063D01*
X204309669Y-101657486D01*
X204650518Y-101543218D01*
X204874264Y-101423622D01*
X204994543Y-101141319D01*
X203900000Y-100046777D01*
X202805457Y-101141319D01*
X198734543Y-101141319D01*
X197640000Y-100046777D01*
X196545457Y-101141319D01*
X141494543Y-101141319D01*
X140400000Y-100046777D01*
X139305457Y-101141319D01*
X135234543Y-101141319D01*
X134140000Y-100046777D01*
X133045457Y-101141319D01*
X120650000Y-101141319D01*
X120650000Y-99923075D01*
X132306937Y-99923075D01*
X132352514Y-100279669D01*
X132466782Y-100620518D01*
X132586378Y-100844264D01*
X132868681Y-100964543D01*
X133963223Y-99870000D01*
X134316777Y-99870000D01*
X135411319Y-100964543D01*
X135693622Y-100844264D01*
X135853840Y-100522447D01*
X135948196Y-100175557D01*
X135965702Y-99923075D01*
X138566937Y-99923075D01*
X138612514Y-100279669D01*
X138726782Y-100620518D01*
X138846378Y-100844264D01*
X139128681Y-100964543D01*
X140223223Y-99870000D01*
X140576777Y-99870000D01*
X141671319Y-100964543D01*
X141953622Y-100844264D01*
X142113840Y-100522447D01*
X142208196Y-100175557D01*
X142233063Y-99816925D01*
X142187486Y-99460331D01*
X142155527Y-99365000D01*
X152451976Y-99365000D01*
X152464043Y-99487521D01*
X152499781Y-99605334D01*
X152557817Y-99713911D01*
X152635920Y-99809080D01*
X152731089Y-99887183D01*
X152839666Y-99945219D01*
X152957479Y-99980957D01*
X153080000Y-99993024D01*
X153498750Y-99990000D01*
X153655000Y-99833750D01*
X153655000Y-98915000D01*
X153905000Y-98915000D01*
X153905000Y-99833750D01*
X154061250Y-99990000D01*
X154480000Y-99993024D01*
X154602521Y-99980957D01*
X154720334Y-99945219D01*
X154828911Y-99887183D01*
X154924080Y-99809080D01*
X155002183Y-99713911D01*
X155050000Y-99624452D01*
X155097817Y-99713911D01*
X155175920Y-99809080D01*
X155271089Y-99887183D01*
X155379666Y-99945219D01*
X155497479Y-99980957D01*
X155620000Y-99993024D01*
X156038750Y-99990000D01*
X156195000Y-99833750D01*
X156195000Y-98915000D01*
X156445000Y-98915000D01*
X156445000Y-99833750D01*
X156601250Y-99990000D01*
X157020000Y-99993024D01*
X157142521Y-99980957D01*
X157260334Y-99945219D01*
X157368911Y-99887183D01*
X157464080Y-99809080D01*
X157542183Y-99713911D01*
X157600219Y-99605334D01*
X157635957Y-99487521D01*
X157648024Y-99365000D01*
X157645000Y-99071250D01*
X157488750Y-98915000D01*
X156445000Y-98915000D01*
X156195000Y-98915000D01*
X155151250Y-98915000D01*
X155050000Y-99016250D01*
X154948750Y-98915000D01*
X153905000Y-98915000D01*
X153655000Y-98915000D01*
X152611250Y-98915000D01*
X152455000Y-99071250D01*
X152451976Y-99365000D01*
X142155527Y-99365000D01*
X142073218Y-99119482D01*
X141953622Y-98895736D01*
X141671319Y-98775457D01*
X140576777Y-99870000D01*
X140223223Y-99870000D01*
X139128681Y-98775457D01*
X138846378Y-98895736D01*
X138686160Y-99217553D01*
X138591804Y-99564443D01*
X138566937Y-99923075D01*
X135965702Y-99923075D01*
X135973063Y-99816925D01*
X135927486Y-99460331D01*
X135813218Y-99119482D01*
X135693622Y-98895736D01*
X135411319Y-98775457D01*
X134316777Y-99870000D01*
X133963223Y-99870000D01*
X132868681Y-98775457D01*
X132586378Y-98895736D01*
X132426160Y-99217553D01*
X132331804Y-99564443D01*
X132306937Y-99923075D01*
X120650000Y-99923075D01*
X120650000Y-98598681D01*
X133045457Y-98598681D01*
X134140000Y-99693223D01*
X135234543Y-98598681D01*
X139305457Y-98598681D01*
X140400000Y-99693223D01*
X141494543Y-98598681D01*
X141374264Y-98316378D01*
X141052447Y-98156160D01*
X140705557Y-98061804D01*
X140346925Y-98036937D01*
X139990331Y-98082514D01*
X139649482Y-98196782D01*
X139425736Y-98316378D01*
X139305457Y-98598681D01*
X135234543Y-98598681D01*
X135114264Y-98316378D01*
X134792447Y-98156160D01*
X134445557Y-98061804D01*
X134086925Y-98036937D01*
X133730331Y-98082514D01*
X133389482Y-98196782D01*
X133165736Y-98316378D01*
X133045457Y-98598681D01*
X120650000Y-98598681D01*
X120650000Y-96597187D01*
X135820000Y-96597187D01*
X135820000Y-96882813D01*
X135875723Y-97162949D01*
X135985027Y-97426833D01*
X136143711Y-97664321D01*
X136345679Y-97866289D01*
X136583167Y-98024973D01*
X136847051Y-98134277D01*
X137127187Y-98190000D01*
X137412813Y-98190000D01*
X137692949Y-98134277D01*
X137956833Y-98024973D01*
X138194321Y-97866289D01*
X138396289Y-97664321D01*
X138498277Y-97511685D01*
X143359468Y-97511685D01*
X143363812Y-97526006D01*
X143444950Y-97677804D01*
X143554143Y-97810857D01*
X143687196Y-97920050D01*
X143838994Y-98001188D01*
X144003705Y-98051153D01*
X144174999Y-98068024D01*
X144825001Y-98068024D01*
X144996295Y-98051153D01*
X145161006Y-98001188D01*
X145312804Y-97920050D01*
X145445857Y-97810857D01*
X145525000Y-97714420D01*
X145604143Y-97810857D01*
X145737196Y-97920050D01*
X145888994Y-98001188D01*
X146053705Y-98051153D01*
X146224999Y-98068024D01*
X146875001Y-98068024D01*
X147046295Y-98051153D01*
X147211006Y-98001188D01*
X147362804Y-97920050D01*
X147495857Y-97810857D01*
X147605050Y-97677804D01*
X147686188Y-97526006D01*
X147690532Y-97511685D01*
X147804468Y-97511685D01*
X147808812Y-97526006D01*
X147889950Y-97677804D01*
X147999143Y-97810857D01*
X148132196Y-97920050D01*
X148283994Y-98001188D01*
X148448705Y-98051153D01*
X148619999Y-98068024D01*
X149270001Y-98068024D01*
X149441295Y-98051153D01*
X149606006Y-98001188D01*
X149757804Y-97920050D01*
X149890857Y-97810857D01*
X149970000Y-97714420D01*
X150049143Y-97810857D01*
X150182196Y-97920050D01*
X150333994Y-98001188D01*
X150498705Y-98051153D01*
X150669999Y-98068024D01*
X151320001Y-98068024D01*
X151491295Y-98051153D01*
X151656006Y-98001188D01*
X151807804Y-97920050D01*
X151940857Y-97810857D01*
X152050050Y-97677804D01*
X152131188Y-97526006D01*
X152135532Y-97511685D01*
X152577971Y-97511685D01*
X152599950Y-97552804D01*
X152709143Y-97685857D01*
X152724356Y-97698342D01*
X152635920Y-97770920D01*
X152557817Y-97866089D01*
X152499781Y-97974666D01*
X152464043Y-98092479D01*
X152451976Y-98215000D01*
X152455000Y-98508750D01*
X152611250Y-98665000D01*
X153655000Y-98665000D01*
X153655000Y-98645000D01*
X153905000Y-98645000D01*
X153905000Y-98665000D01*
X154948750Y-98665000D01*
X155050000Y-98563750D01*
X155151250Y-98665000D01*
X156195000Y-98665000D01*
X156195000Y-98645000D01*
X156445000Y-98645000D01*
X156445000Y-98665000D01*
X157488750Y-98665000D01*
X157645000Y-98508750D01*
X157648024Y-98215000D01*
X157635957Y-98092479D01*
X157600219Y-97974666D01*
X157542183Y-97866089D01*
X157464080Y-97770920D01*
X157375644Y-97698342D01*
X157390857Y-97685857D01*
X157500050Y-97552804D01*
X157522029Y-97511685D01*
X157719468Y-97511685D01*
X157723812Y-97526006D01*
X157804950Y-97677804D01*
X157914143Y-97810857D01*
X158047196Y-97920050D01*
X158198994Y-98001188D01*
X158363705Y-98051153D01*
X158534999Y-98068024D01*
X159185001Y-98068024D01*
X159356295Y-98051153D01*
X159521006Y-98001188D01*
X159672804Y-97920050D01*
X159805857Y-97810857D01*
X159885000Y-97714420D01*
X159964143Y-97810857D01*
X160097196Y-97920050D01*
X160157708Y-97952394D01*
X160193607Y-98070739D01*
X160265263Y-98204799D01*
X160337535Y-98292862D01*
X160337541Y-98292868D01*
X160361698Y-98322303D01*
X160391134Y-98346460D01*
X160573532Y-98528858D01*
X160597697Y-98558303D01*
X160715201Y-98654737D01*
X160849260Y-98726393D01*
X160994723Y-98770519D01*
X161108097Y-98781685D01*
X161108106Y-98781685D01*
X161145999Y-98785417D01*
X161183892Y-98781685D01*
X162106735Y-98781685D01*
X162101976Y-98829999D01*
X162101976Y-99730001D01*
X162118847Y-99901295D01*
X162168812Y-100066006D01*
X162249950Y-100217804D01*
X162359143Y-100350857D01*
X162492196Y-100460050D01*
X162643994Y-100541188D01*
X162808705Y-100591153D01*
X162979999Y-100608024D01*
X163630001Y-100608024D01*
X163801295Y-100591153D01*
X163966006Y-100541188D01*
X164117804Y-100460050D01*
X164250857Y-100350857D01*
X164330000Y-100254420D01*
X164409143Y-100350857D01*
X164542196Y-100460050D01*
X164693994Y-100541188D01*
X164858705Y-100591153D01*
X165029999Y-100608024D01*
X165680001Y-100608024D01*
X165851295Y-100591153D01*
X166016006Y-100541188D01*
X166167804Y-100460050D01*
X166300857Y-100350857D01*
X166410050Y-100217804D01*
X166491188Y-100066006D01*
X166541153Y-99901295D01*
X166556202Y-99748498D01*
X166605920Y-99809080D01*
X166701089Y-99887183D01*
X166809666Y-99945219D01*
X166927479Y-99980957D01*
X167050000Y-99993024D01*
X167468750Y-99990000D01*
X167625000Y-99833750D01*
X167625000Y-98915000D01*
X167875000Y-98915000D01*
X167875000Y-99833750D01*
X168031250Y-99990000D01*
X168450000Y-99993024D01*
X168572521Y-99980957D01*
X168690334Y-99945219D01*
X168798911Y-99887183D01*
X168894080Y-99809080D01*
X168972183Y-99713911D01*
X169020000Y-99624452D01*
X169067817Y-99713911D01*
X169145920Y-99809080D01*
X169241089Y-99887183D01*
X169349666Y-99945219D01*
X169467479Y-99980957D01*
X169590000Y-99993024D01*
X170008750Y-99990000D01*
X170165000Y-99833750D01*
X170165000Y-98915000D01*
X170415000Y-98915000D01*
X170415000Y-99833750D01*
X170571250Y-99990000D01*
X170990000Y-99993024D01*
X171112521Y-99980957D01*
X171230334Y-99945219D01*
X171338911Y-99887183D01*
X171434080Y-99809080D01*
X171512183Y-99713911D01*
X171570219Y-99605334D01*
X171605957Y-99487521D01*
X171618024Y-99365000D01*
X171615000Y-99071250D01*
X171458750Y-98915000D01*
X170415000Y-98915000D01*
X170165000Y-98915000D01*
X169121250Y-98915000D01*
X169020000Y-99016250D01*
X168918750Y-98915000D01*
X167875000Y-98915000D01*
X167625000Y-98915000D01*
X167605000Y-98915000D01*
X167605000Y-98665000D01*
X167625000Y-98665000D01*
X167625000Y-98645000D01*
X167875000Y-98645000D01*
X167875000Y-98665000D01*
X168918750Y-98665000D01*
X169020000Y-98563750D01*
X169121250Y-98665000D01*
X170165000Y-98665000D01*
X170165000Y-98645000D01*
X170415000Y-98645000D01*
X170415000Y-98665000D01*
X171458750Y-98665000D01*
X171615000Y-98508750D01*
X171618024Y-98215000D01*
X171605957Y-98092479D01*
X171570219Y-97974666D01*
X171512183Y-97866089D01*
X171434080Y-97770920D01*
X171345644Y-97698342D01*
X171360857Y-97685857D01*
X171470050Y-97552804D01*
X171492029Y-97511685D01*
X171689468Y-97511685D01*
X171693812Y-97526006D01*
X171774950Y-97677804D01*
X171884143Y-97810857D01*
X172017196Y-97920050D01*
X172168994Y-98001188D01*
X172333705Y-98051153D01*
X172504999Y-98068024D01*
X173155001Y-98068024D01*
X173326295Y-98051153D01*
X173491006Y-98001188D01*
X173642804Y-97920050D01*
X173775857Y-97810857D01*
X173855000Y-97714420D01*
X173934143Y-97810857D01*
X174067196Y-97920050D01*
X174127708Y-97952394D01*
X174163607Y-98070739D01*
X174235263Y-98204799D01*
X174307535Y-98292862D01*
X174307541Y-98292868D01*
X174331698Y-98322303D01*
X174361134Y-98346460D01*
X174543532Y-98528858D01*
X174567697Y-98558303D01*
X174685201Y-98654737D01*
X174819260Y-98726393D01*
X174964723Y-98770519D01*
X175078097Y-98781685D01*
X175078106Y-98781685D01*
X175115999Y-98785417D01*
X175153892Y-98781685D01*
X176076735Y-98781685D01*
X176071976Y-98829999D01*
X176071976Y-99730001D01*
X176088847Y-99901295D01*
X176138812Y-100066006D01*
X176219950Y-100217804D01*
X176329143Y-100350857D01*
X176462196Y-100460050D01*
X176613994Y-100541188D01*
X176778705Y-100591153D01*
X176949999Y-100608024D01*
X177600001Y-100608024D01*
X177771295Y-100591153D01*
X177936006Y-100541188D01*
X178087804Y-100460050D01*
X178220857Y-100350857D01*
X178300000Y-100254420D01*
X178379143Y-100350857D01*
X178512196Y-100460050D01*
X178663994Y-100541188D01*
X178828705Y-100591153D01*
X178999999Y-100608024D01*
X179650001Y-100608024D01*
X179821295Y-100591153D01*
X179986006Y-100541188D01*
X180137804Y-100460050D01*
X180270857Y-100350857D01*
X180380050Y-100217804D01*
X180461188Y-100066006D01*
X180511153Y-99901295D01*
X180526202Y-99748498D01*
X180575920Y-99809080D01*
X180671089Y-99887183D01*
X180779666Y-99945219D01*
X180897479Y-99980957D01*
X181020000Y-99993024D01*
X181438750Y-99990000D01*
X181595000Y-99833750D01*
X181595000Y-98915000D01*
X181845000Y-98915000D01*
X181845000Y-99833750D01*
X182001250Y-99990000D01*
X182420000Y-99993024D01*
X182542521Y-99980957D01*
X182660334Y-99945219D01*
X182768911Y-99887183D01*
X182864080Y-99809080D01*
X182942183Y-99713911D01*
X182990000Y-99624452D01*
X183037817Y-99713911D01*
X183115920Y-99809080D01*
X183211089Y-99887183D01*
X183319666Y-99945219D01*
X183437479Y-99980957D01*
X183560000Y-99993024D01*
X183978750Y-99990000D01*
X184135000Y-99833750D01*
X184135000Y-98915000D01*
X184385000Y-98915000D01*
X184385000Y-99833750D01*
X184541250Y-99990000D01*
X184960000Y-99993024D01*
X185082521Y-99980957D01*
X185200334Y-99945219D01*
X185241762Y-99923075D01*
X195806937Y-99923075D01*
X195852514Y-100279669D01*
X195966782Y-100620518D01*
X196086378Y-100844264D01*
X196368681Y-100964543D01*
X197463223Y-99870000D01*
X197816777Y-99870000D01*
X198911319Y-100964543D01*
X199193622Y-100844264D01*
X199353840Y-100522447D01*
X199448196Y-100175557D01*
X199465702Y-99923075D01*
X202066937Y-99923075D01*
X202112514Y-100279669D01*
X202226782Y-100620518D01*
X202346378Y-100844264D01*
X202628681Y-100964543D01*
X203723223Y-99870000D01*
X204076777Y-99870000D01*
X205171319Y-100964543D01*
X205453622Y-100844264D01*
X205613840Y-100522447D01*
X205708196Y-100175557D01*
X205733063Y-99816925D01*
X205687486Y-99460331D01*
X205573218Y-99119482D01*
X205453622Y-98895736D01*
X205171319Y-98775457D01*
X204076777Y-99870000D01*
X203723223Y-99870000D01*
X202628681Y-98775457D01*
X202346378Y-98895736D01*
X202186160Y-99217553D01*
X202091804Y-99564443D01*
X202066937Y-99923075D01*
X199465702Y-99923075D01*
X199473063Y-99816925D01*
X199427486Y-99460331D01*
X199313218Y-99119482D01*
X199193622Y-98895736D01*
X198911319Y-98775457D01*
X197816777Y-99870000D01*
X197463223Y-99870000D01*
X196368681Y-98775457D01*
X196086378Y-98895736D01*
X195926160Y-99217553D01*
X195831804Y-99564443D01*
X195806937Y-99923075D01*
X185241762Y-99923075D01*
X185308911Y-99887183D01*
X185404080Y-99809080D01*
X185482183Y-99713911D01*
X185540219Y-99605334D01*
X185575957Y-99487521D01*
X185588024Y-99365000D01*
X185585000Y-99071250D01*
X185428750Y-98915000D01*
X184385000Y-98915000D01*
X184135000Y-98915000D01*
X183091250Y-98915000D01*
X182990000Y-99016250D01*
X182888750Y-98915000D01*
X181845000Y-98915000D01*
X181595000Y-98915000D01*
X181575000Y-98915000D01*
X181575000Y-98665000D01*
X181595000Y-98665000D01*
X181595000Y-98645000D01*
X181845000Y-98645000D01*
X181845000Y-98665000D01*
X182888750Y-98665000D01*
X182990000Y-98563750D01*
X183091250Y-98665000D01*
X184135000Y-98665000D01*
X184135000Y-98645000D01*
X184385000Y-98645000D01*
X184385000Y-98665000D01*
X185428750Y-98665000D01*
X185495069Y-98598681D01*
X196545457Y-98598681D01*
X197640000Y-99693223D01*
X198734543Y-98598681D01*
X202805457Y-98598681D01*
X203900000Y-99693223D01*
X204994543Y-98598681D01*
X204874264Y-98316378D01*
X204552447Y-98156160D01*
X204205557Y-98061804D01*
X203846925Y-98036937D01*
X203490331Y-98082514D01*
X203149482Y-98196782D01*
X202925736Y-98316378D01*
X202805457Y-98598681D01*
X198734543Y-98598681D01*
X198614264Y-98316378D01*
X198292447Y-98156160D01*
X197945557Y-98061804D01*
X197586925Y-98036937D01*
X197230331Y-98082514D01*
X196889482Y-98196782D01*
X196665736Y-98316378D01*
X196545457Y-98598681D01*
X185495069Y-98598681D01*
X185585000Y-98508750D01*
X185588024Y-98215000D01*
X185575957Y-98092479D01*
X185540219Y-97974666D01*
X185482183Y-97866089D01*
X185404080Y-97770920D01*
X185315644Y-97698342D01*
X185330857Y-97685857D01*
X185440050Y-97552804D01*
X185462029Y-97511685D01*
X185659468Y-97511685D01*
X185663812Y-97526006D01*
X185744950Y-97677804D01*
X185854143Y-97810857D01*
X185987196Y-97920050D01*
X186138994Y-98001188D01*
X186303705Y-98051153D01*
X186474999Y-98068024D01*
X187125001Y-98068024D01*
X187296295Y-98051153D01*
X187461006Y-98001188D01*
X187612804Y-97920050D01*
X187745857Y-97810857D01*
X187825000Y-97714420D01*
X187904143Y-97810857D01*
X188037196Y-97920050D01*
X188188994Y-98001188D01*
X188353705Y-98051153D01*
X188524999Y-98068024D01*
X189175001Y-98068024D01*
X189346295Y-98051153D01*
X189511006Y-98001188D01*
X189662804Y-97920050D01*
X189795857Y-97810857D01*
X189905050Y-97677804D01*
X189986188Y-97526006D01*
X189990532Y-97511685D01*
X190104468Y-97511685D01*
X190108812Y-97526006D01*
X190189950Y-97677804D01*
X190299143Y-97810857D01*
X190432196Y-97920050D01*
X190583994Y-98001188D01*
X190748705Y-98051153D01*
X190919999Y-98068024D01*
X191570001Y-98068024D01*
X191741295Y-98051153D01*
X191906006Y-98001188D01*
X192057804Y-97920050D01*
X192190857Y-97810857D01*
X192270000Y-97714420D01*
X192349143Y-97810857D01*
X192482196Y-97920050D01*
X192633994Y-98001188D01*
X192798705Y-98051153D01*
X192969999Y-98068024D01*
X193620001Y-98068024D01*
X193791295Y-98051153D01*
X193956006Y-98001188D01*
X194107804Y-97920050D01*
X194240857Y-97810857D01*
X194350050Y-97677804D01*
X194431188Y-97526006D01*
X194435532Y-97511685D01*
X199541723Y-97511685D01*
X199643711Y-97664321D01*
X199845679Y-97866289D01*
X200083167Y-98024973D01*
X200347051Y-98134277D01*
X200627187Y-98190000D01*
X200912813Y-98190000D01*
X201192949Y-98134277D01*
X201456833Y-98024973D01*
X201694321Y-97866289D01*
X201896289Y-97664321D01*
X202054973Y-97426833D01*
X202164277Y-97162949D01*
X202220000Y-96882813D01*
X202220000Y-96597187D01*
X202164277Y-96317051D01*
X202054973Y-96053167D01*
X201896289Y-95815679D01*
X201694321Y-95613711D01*
X201456833Y-95455027D01*
X201192949Y-95345723D01*
X200912813Y-95290000D01*
X200627187Y-95290000D01*
X200347051Y-95345723D01*
X200083167Y-95455027D01*
X199845679Y-95613711D01*
X199643711Y-95815679D01*
X199541723Y-95968315D01*
X194435532Y-95968315D01*
X194431188Y-95953994D01*
X194350050Y-95802196D01*
X194240857Y-95669143D01*
X194107804Y-95559950D01*
X193956006Y-95478812D01*
X193791295Y-95428847D01*
X193620001Y-95411976D01*
X192969999Y-95411976D01*
X192798705Y-95428847D01*
X192633994Y-95478812D01*
X192482196Y-95559950D01*
X192349143Y-95669143D01*
X192270000Y-95765580D01*
X192190857Y-95669143D01*
X192057804Y-95559950D01*
X191906006Y-95478812D01*
X191741295Y-95428847D01*
X191570001Y-95411976D01*
X190919999Y-95411976D01*
X190748705Y-95428847D01*
X190583994Y-95478812D01*
X190432196Y-95559950D01*
X190299143Y-95669143D01*
X190189950Y-95802196D01*
X190108812Y-95953994D01*
X190104468Y-95968315D01*
X189990532Y-95968315D01*
X189986188Y-95953994D01*
X189905050Y-95802196D01*
X189795857Y-95669143D01*
X189662804Y-95559950D01*
X189511006Y-95478812D01*
X189346295Y-95428847D01*
X189175001Y-95411976D01*
X188524999Y-95411976D01*
X188353705Y-95428847D01*
X188188994Y-95478812D01*
X188037196Y-95559950D01*
X187904143Y-95669143D01*
X187825000Y-95765580D01*
X187745857Y-95669143D01*
X187612804Y-95559950D01*
X187461006Y-95478812D01*
X187296295Y-95428847D01*
X187125001Y-95411976D01*
X186474999Y-95411976D01*
X186303705Y-95428847D01*
X186138994Y-95478812D01*
X185987196Y-95559950D01*
X185854143Y-95669143D01*
X185744950Y-95802196D01*
X185663812Y-95953994D01*
X185659468Y-95968315D01*
X185462029Y-95968315D01*
X185440050Y-95927196D01*
X185330857Y-95794143D01*
X185197804Y-95684950D01*
X185046006Y-95603812D01*
X184881295Y-95553847D01*
X184710001Y-95536976D01*
X183809999Y-95536976D01*
X183638705Y-95553847D01*
X183473994Y-95603812D01*
X183322196Y-95684950D01*
X183189143Y-95794143D01*
X183079950Y-95927196D01*
X183057971Y-95968315D01*
X182922029Y-95968315D01*
X182900050Y-95927196D01*
X182790857Y-95794143D01*
X182657804Y-95684950D01*
X182506006Y-95603812D01*
X182341295Y-95553847D01*
X182170001Y-95536976D01*
X181269999Y-95536976D01*
X181098705Y-95553847D01*
X180933994Y-95603812D01*
X180782196Y-95684950D01*
X180649143Y-95794143D01*
X180539950Y-95927196D01*
X180516797Y-95970511D01*
X180467666Y-95975350D01*
X180461188Y-95953994D01*
X180380050Y-95802196D01*
X180270857Y-95669143D01*
X180137804Y-95559950D01*
X179986006Y-95478812D01*
X179821295Y-95428847D01*
X179650001Y-95411976D01*
X178999999Y-95411976D01*
X178828705Y-95428847D01*
X178663994Y-95478812D01*
X178512196Y-95559950D01*
X178379143Y-95669143D01*
X178300000Y-95765580D01*
X178220857Y-95669143D01*
X178087804Y-95559950D01*
X177936006Y-95478812D01*
X177771295Y-95428847D01*
X177600001Y-95411976D01*
X176949999Y-95411976D01*
X176778705Y-95428847D01*
X176613994Y-95478812D01*
X176462196Y-95559950D01*
X176329143Y-95669143D01*
X176219950Y-95802196D01*
X176138812Y-95953994D01*
X176088847Y-96118705D01*
X176077500Y-96233913D01*
X176066153Y-96118705D01*
X176016188Y-95953994D01*
X175935050Y-95802196D01*
X175825857Y-95669143D01*
X175692804Y-95559950D01*
X175541006Y-95478812D01*
X175376295Y-95428847D01*
X175205001Y-95411976D01*
X174554999Y-95411976D01*
X174383705Y-95428847D01*
X174218994Y-95478812D01*
X174067196Y-95559950D01*
X173934143Y-95669143D01*
X173855000Y-95765580D01*
X173775857Y-95669143D01*
X173642804Y-95559950D01*
X173491006Y-95478812D01*
X173326295Y-95428847D01*
X173155001Y-95411976D01*
X172504999Y-95411976D01*
X172333705Y-95428847D01*
X172168994Y-95478812D01*
X172017196Y-95559950D01*
X171884143Y-95669143D01*
X171774950Y-95802196D01*
X171693812Y-95953994D01*
X171689468Y-95968315D01*
X171492029Y-95968315D01*
X171470050Y-95927196D01*
X171360857Y-95794143D01*
X171227804Y-95684950D01*
X171076006Y-95603812D01*
X170911295Y-95553847D01*
X170740001Y-95536976D01*
X169839999Y-95536976D01*
X169668705Y-95553847D01*
X169503994Y-95603812D01*
X169352196Y-95684950D01*
X169219143Y-95794143D01*
X169109950Y-95927196D01*
X169087971Y-95968315D01*
X168952029Y-95968315D01*
X168930050Y-95927196D01*
X168820857Y-95794143D01*
X168687804Y-95684950D01*
X168536006Y-95603812D01*
X168371295Y-95553847D01*
X168200001Y-95536976D01*
X167299999Y-95536976D01*
X167128705Y-95553847D01*
X166963994Y-95603812D01*
X166812196Y-95684950D01*
X166679143Y-95794143D01*
X166569950Y-95927196D01*
X166534123Y-95994224D01*
X166505981Y-96002760D01*
X166491188Y-95953994D01*
X166410050Y-95802196D01*
X166300857Y-95669143D01*
X166167804Y-95559950D01*
X166016006Y-95478812D01*
X165851295Y-95428847D01*
X165680001Y-95411976D01*
X165029999Y-95411976D01*
X164858705Y-95428847D01*
X164693994Y-95478812D01*
X164542196Y-95559950D01*
X164409143Y-95669143D01*
X164330000Y-95765580D01*
X164250857Y-95669143D01*
X164117804Y-95559950D01*
X163966006Y-95478812D01*
X163801295Y-95428847D01*
X163630001Y-95411976D01*
X162979999Y-95411976D01*
X162808705Y-95428847D01*
X162643994Y-95478812D01*
X162492196Y-95559950D01*
X162359143Y-95669143D01*
X162249950Y-95802196D01*
X162168812Y-95953994D01*
X162118847Y-96118705D01*
X162107500Y-96233913D01*
X162096153Y-96118705D01*
X162046188Y-95953994D01*
X161965050Y-95802196D01*
X161855857Y-95669143D01*
X161722804Y-95559950D01*
X161571006Y-95478812D01*
X161406295Y-95428847D01*
X161235001Y-95411976D01*
X160584999Y-95411976D01*
X160413705Y-95428847D01*
X160248994Y-95478812D01*
X160097196Y-95559950D01*
X159964143Y-95669143D01*
X159885000Y-95765580D01*
X159805857Y-95669143D01*
X159672804Y-95559950D01*
X159521006Y-95478812D01*
X159356295Y-95428847D01*
X159185001Y-95411976D01*
X158534999Y-95411976D01*
X158363705Y-95428847D01*
X158198994Y-95478812D01*
X158047196Y-95559950D01*
X157914143Y-95669143D01*
X157804950Y-95802196D01*
X157723812Y-95953994D01*
X157719468Y-95968315D01*
X157522029Y-95968315D01*
X157500050Y-95927196D01*
X157390857Y-95794143D01*
X157257804Y-95684950D01*
X157106006Y-95603812D01*
X156941295Y-95553847D01*
X156770001Y-95536976D01*
X155869999Y-95536976D01*
X155698705Y-95553847D01*
X155533994Y-95603812D01*
X155382196Y-95684950D01*
X155249143Y-95794143D01*
X155139950Y-95927196D01*
X155117971Y-95968315D01*
X154982029Y-95968315D01*
X154960050Y-95927196D01*
X154850857Y-95794143D01*
X154717804Y-95684950D01*
X154566006Y-95603812D01*
X154401295Y-95553847D01*
X154230001Y-95536976D01*
X153329999Y-95536976D01*
X153158705Y-95553847D01*
X152993994Y-95603812D01*
X152842196Y-95684950D01*
X152709143Y-95794143D01*
X152599950Y-95927196D01*
X152577971Y-95968315D01*
X152135532Y-95968315D01*
X152131188Y-95953994D01*
X152050050Y-95802196D01*
X151940857Y-95669143D01*
X151807804Y-95559950D01*
X151656006Y-95478812D01*
X151491295Y-95428847D01*
X151320001Y-95411976D01*
X150669999Y-95411976D01*
X150498705Y-95428847D01*
X150333994Y-95478812D01*
X150182196Y-95559950D01*
X150049143Y-95669143D01*
X149970000Y-95765580D01*
X149890857Y-95669143D01*
X149757804Y-95559950D01*
X149606006Y-95478812D01*
X149441295Y-95428847D01*
X149270001Y-95411976D01*
X148619999Y-95411976D01*
X148448705Y-95428847D01*
X148283994Y-95478812D01*
X148132196Y-95559950D01*
X147999143Y-95669143D01*
X147889950Y-95802196D01*
X147808812Y-95953994D01*
X147804468Y-95968315D01*
X147690532Y-95968315D01*
X147686188Y-95953994D01*
X147605050Y-95802196D01*
X147495857Y-95669143D01*
X147362804Y-95559950D01*
X147211006Y-95478812D01*
X147046295Y-95428847D01*
X146875001Y-95411976D01*
X146224999Y-95411976D01*
X146053705Y-95428847D01*
X145888994Y-95478812D01*
X145737196Y-95559950D01*
X145604143Y-95669143D01*
X145525000Y-95765580D01*
X145445857Y-95669143D01*
X145312804Y-95559950D01*
X145161006Y-95478812D01*
X144996295Y-95428847D01*
X144825001Y-95411976D01*
X144174999Y-95411976D01*
X144003705Y-95428847D01*
X143838994Y-95478812D01*
X143687196Y-95559950D01*
X143554143Y-95669143D01*
X143444950Y-95802196D01*
X143363812Y-95953994D01*
X143359468Y-95968315D01*
X138498277Y-95968315D01*
X138396289Y-95815679D01*
X138194321Y-95613711D01*
X137956833Y-95455027D01*
X137692949Y-95345723D01*
X137412813Y-95290000D01*
X137127187Y-95290000D01*
X136847051Y-95345723D01*
X136583167Y-95455027D01*
X136345679Y-95613711D01*
X136143711Y-95815679D01*
X135985027Y-96053167D01*
X135875723Y-96317051D01*
X135820000Y-96597187D01*
X120650000Y-96597187D01*
X120650000Y-94881319D01*
X133045457Y-94881319D01*
X133165736Y-95163622D01*
X133487553Y-95323840D01*
X133834443Y-95418196D01*
X134193075Y-95443063D01*
X134549669Y-95397486D01*
X134890518Y-95283218D01*
X135114264Y-95163622D01*
X135234543Y-94881319D01*
X139305457Y-94881319D01*
X139425736Y-95163622D01*
X139747553Y-95323840D01*
X140094443Y-95418196D01*
X140453075Y-95443063D01*
X140809669Y-95397486D01*
X141150518Y-95283218D01*
X141374264Y-95163622D01*
X141494543Y-94881319D01*
X196545457Y-94881319D01*
X196665736Y-95163622D01*
X196987553Y-95323840D01*
X197334443Y-95418196D01*
X197693075Y-95443063D01*
X198049669Y-95397486D01*
X198390518Y-95283218D01*
X198614264Y-95163622D01*
X198734543Y-94881319D01*
X202805457Y-94881319D01*
X202925736Y-95163622D01*
X203247553Y-95323840D01*
X203594443Y-95418196D01*
X203953075Y-95443063D01*
X204309669Y-95397486D01*
X204650518Y-95283218D01*
X204874264Y-95163622D01*
X204994543Y-94881319D01*
X203900000Y-93786777D01*
X202805457Y-94881319D01*
X198734543Y-94881319D01*
X197640000Y-93786777D01*
X196545457Y-94881319D01*
X141494543Y-94881319D01*
X140400000Y-93786777D01*
X139305457Y-94881319D01*
X135234543Y-94881319D01*
X134140000Y-93786777D01*
X133045457Y-94881319D01*
X120650000Y-94881319D01*
X120650000Y-93663075D01*
X132306937Y-93663075D01*
X132352514Y-94019669D01*
X132466782Y-94360518D01*
X132586378Y-94584264D01*
X132868681Y-94704543D01*
X133963223Y-93610000D01*
X134316777Y-93610000D01*
X135411319Y-94704543D01*
X135693622Y-94584264D01*
X135853840Y-94262447D01*
X135948196Y-93915557D01*
X135965702Y-93663075D01*
X138566937Y-93663075D01*
X138612514Y-94019669D01*
X138726782Y-94360518D01*
X138846378Y-94584264D01*
X139128681Y-94704543D01*
X140223223Y-93610000D01*
X140576777Y-93610000D01*
X141671319Y-94704543D01*
X141953622Y-94584264D01*
X142113840Y-94262447D01*
X142208196Y-93915557D01*
X142225702Y-93663075D01*
X195806937Y-93663075D01*
X195852514Y-94019669D01*
X195966782Y-94360518D01*
X196086378Y-94584264D01*
X196368681Y-94704543D01*
X197463223Y-93610000D01*
X197816777Y-93610000D01*
X198911319Y-94704543D01*
X199193622Y-94584264D01*
X199353840Y-94262447D01*
X199448196Y-93915557D01*
X199465702Y-93663075D01*
X202066937Y-93663075D01*
X202112514Y-94019669D01*
X202226782Y-94360518D01*
X202346378Y-94584264D01*
X202628681Y-94704543D01*
X203723223Y-93610000D01*
X204076777Y-93610000D01*
X205171319Y-94704543D01*
X205453622Y-94584264D01*
X205613840Y-94262447D01*
X205708196Y-93915557D01*
X205733063Y-93556925D01*
X205687486Y-93200331D01*
X205573218Y-92859482D01*
X205453622Y-92635736D01*
X205171319Y-92515457D01*
X204076777Y-93610000D01*
X203723223Y-93610000D01*
X202628681Y-92515457D01*
X202346378Y-92635736D01*
X202186160Y-92957553D01*
X202091804Y-93304443D01*
X202066937Y-93663075D01*
X199465702Y-93663075D01*
X199473063Y-93556925D01*
X199427486Y-93200331D01*
X199313218Y-92859482D01*
X199193622Y-92635736D01*
X198911319Y-92515457D01*
X197816777Y-93610000D01*
X197463223Y-93610000D01*
X196368681Y-92515457D01*
X196086378Y-92635736D01*
X195926160Y-92957553D01*
X195831804Y-93304443D01*
X195806937Y-93663075D01*
X142225702Y-93663075D01*
X142233063Y-93556925D01*
X142187486Y-93200331D01*
X142073218Y-92859482D01*
X141953622Y-92635736D01*
X141671319Y-92515457D01*
X140576777Y-93610000D01*
X140223223Y-93610000D01*
X139128681Y-92515457D01*
X138846378Y-92635736D01*
X138686160Y-92957553D01*
X138591804Y-93304443D01*
X138566937Y-93663075D01*
X135965702Y-93663075D01*
X135973063Y-93556925D01*
X135927486Y-93200331D01*
X135813218Y-92859482D01*
X135693622Y-92635736D01*
X135411319Y-92515457D01*
X134316777Y-93610000D01*
X133963223Y-93610000D01*
X132868681Y-92515457D01*
X132586378Y-92635736D01*
X132426160Y-92957553D01*
X132331804Y-93304443D01*
X132306937Y-93663075D01*
X120650000Y-93663075D01*
X120650000Y-92338681D01*
X133045457Y-92338681D01*
X134140000Y-93433223D01*
X135234543Y-92338681D01*
X139305457Y-92338681D01*
X140400000Y-93433223D01*
X141494543Y-92338681D01*
X196545457Y-92338681D01*
X197640000Y-93433223D01*
X198734543Y-92338681D01*
X202805457Y-92338681D01*
X203900000Y-93433223D01*
X204994543Y-92338681D01*
X204874264Y-92056378D01*
X204552447Y-91896160D01*
X204205557Y-91801804D01*
X203846925Y-91776937D01*
X203490331Y-91822514D01*
X203149482Y-91936782D01*
X202925736Y-92056378D01*
X202805457Y-92338681D01*
X198734543Y-92338681D01*
X198614264Y-92056378D01*
X198292447Y-91896160D01*
X197945557Y-91801804D01*
X197586925Y-91776937D01*
X197230331Y-91822514D01*
X196889482Y-91936782D01*
X196665736Y-92056378D01*
X196545457Y-92338681D01*
X141494543Y-92338681D01*
X141374264Y-92056378D01*
X141052447Y-91896160D01*
X140705557Y-91801804D01*
X140346925Y-91776937D01*
X139990331Y-91822514D01*
X139649482Y-91936782D01*
X139425736Y-92056378D01*
X139305457Y-92338681D01*
X135234543Y-92338681D01*
X135114264Y-92056378D01*
X134792447Y-91896160D01*
X134445557Y-91801804D01*
X134086925Y-91776937D01*
X133730331Y-91822514D01*
X133389482Y-91936782D01*
X133165736Y-92056378D01*
X133045457Y-92338681D01*
X120650000Y-92338681D01*
X120650000Y-82331319D01*
X133205457Y-82331319D01*
X133325736Y-82613622D01*
X133647553Y-82773840D01*
X133994443Y-82868196D01*
X134353075Y-82893063D01*
X134709669Y-82847486D01*
X135050518Y-82733218D01*
X135274264Y-82613622D01*
X135394543Y-82331319D01*
X139465457Y-82331319D01*
X139585736Y-82613622D01*
X139907553Y-82773840D01*
X140254443Y-82868196D01*
X140613075Y-82893063D01*
X140969669Y-82847486D01*
X141310518Y-82733218D01*
X141534264Y-82613622D01*
X141654543Y-82331319D01*
X164828457Y-82331319D01*
X164948736Y-82613622D01*
X165270553Y-82773840D01*
X165617443Y-82868196D01*
X165976075Y-82893063D01*
X166332669Y-82847486D01*
X166673518Y-82733218D01*
X166897264Y-82613622D01*
X167017543Y-82331319D01*
X171088457Y-82331319D01*
X171208736Y-82613622D01*
X171530553Y-82773840D01*
X171877443Y-82868196D01*
X172236075Y-82893063D01*
X172592669Y-82847486D01*
X172933518Y-82733218D01*
X173157264Y-82613622D01*
X173277543Y-82331319D01*
X196705457Y-82331319D01*
X196825736Y-82613622D01*
X197147553Y-82773840D01*
X197494443Y-82868196D01*
X197853075Y-82893063D01*
X198209669Y-82847486D01*
X198550518Y-82733218D01*
X198774264Y-82613622D01*
X198894543Y-82331319D01*
X202965457Y-82331319D01*
X203085736Y-82613622D01*
X203407553Y-82773840D01*
X203754443Y-82868196D01*
X204113075Y-82893063D01*
X204469669Y-82847486D01*
X204810518Y-82733218D01*
X205034264Y-82613622D01*
X205154543Y-82331319D01*
X204060000Y-81236777D01*
X202965457Y-82331319D01*
X198894543Y-82331319D01*
X197800000Y-81236777D01*
X196705457Y-82331319D01*
X173277543Y-82331319D01*
X172183000Y-81236777D01*
X171088457Y-82331319D01*
X167017543Y-82331319D01*
X165923000Y-81236777D01*
X164828457Y-82331319D01*
X141654543Y-82331319D01*
X140560000Y-81236777D01*
X139465457Y-82331319D01*
X135394543Y-82331319D01*
X134300000Y-81236777D01*
X133205457Y-82331319D01*
X120650000Y-82331319D01*
X120650000Y-81113075D01*
X132466937Y-81113075D01*
X132512514Y-81469669D01*
X132626782Y-81810518D01*
X132746378Y-82034264D01*
X133028681Y-82154543D01*
X134123223Y-81060000D01*
X134476777Y-81060000D01*
X135571319Y-82154543D01*
X135853622Y-82034264D01*
X136013840Y-81712447D01*
X136108196Y-81365557D01*
X136125702Y-81113075D01*
X138726937Y-81113075D01*
X138772514Y-81469669D01*
X138886782Y-81810518D01*
X139006378Y-82034264D01*
X139288681Y-82154543D01*
X140383223Y-81060000D01*
X140736777Y-81060000D01*
X141831319Y-82154543D01*
X142113622Y-82034264D01*
X142273840Y-81712447D01*
X142368196Y-81365557D01*
X142385702Y-81113075D01*
X164089937Y-81113075D01*
X164135514Y-81469669D01*
X164249782Y-81810518D01*
X164369378Y-82034264D01*
X164651681Y-82154543D01*
X165746223Y-81060000D01*
X166099777Y-81060000D01*
X167194319Y-82154543D01*
X167476622Y-82034264D01*
X167636840Y-81712447D01*
X167731196Y-81365557D01*
X167748702Y-81113075D01*
X170349937Y-81113075D01*
X170395514Y-81469669D01*
X170509782Y-81810518D01*
X170629378Y-82034264D01*
X170911681Y-82154543D01*
X172006223Y-81060000D01*
X172359777Y-81060000D01*
X173454319Y-82154543D01*
X173736622Y-82034264D01*
X173896840Y-81712447D01*
X173991196Y-81365557D01*
X174008702Y-81113075D01*
X195966937Y-81113075D01*
X196012514Y-81469669D01*
X196126782Y-81810518D01*
X196246378Y-82034264D01*
X196528681Y-82154543D01*
X197623223Y-81060000D01*
X197976777Y-81060000D01*
X199071319Y-82154543D01*
X199353622Y-82034264D01*
X199513840Y-81712447D01*
X199608196Y-81365557D01*
X199625702Y-81113075D01*
X202226937Y-81113075D01*
X202272514Y-81469669D01*
X202386782Y-81810518D01*
X202506378Y-82034264D01*
X202788681Y-82154543D01*
X203883223Y-81060000D01*
X204236777Y-81060000D01*
X205331319Y-82154543D01*
X205613622Y-82034264D01*
X205773840Y-81712447D01*
X205868196Y-81365557D01*
X205893063Y-81006925D01*
X205847486Y-80650331D01*
X205733218Y-80309482D01*
X205613622Y-80085736D01*
X205331319Y-79965457D01*
X204236777Y-81060000D01*
X203883223Y-81060000D01*
X202788681Y-79965457D01*
X202506378Y-80085736D01*
X202346160Y-80407553D01*
X202251804Y-80754443D01*
X202226937Y-81113075D01*
X199625702Y-81113075D01*
X199633063Y-81006925D01*
X199587486Y-80650331D01*
X199473218Y-80309482D01*
X199353622Y-80085736D01*
X199071319Y-79965457D01*
X197976777Y-81060000D01*
X197623223Y-81060000D01*
X196528681Y-79965457D01*
X196246378Y-80085736D01*
X196086160Y-80407553D01*
X195991804Y-80754443D01*
X195966937Y-81113075D01*
X174008702Y-81113075D01*
X174016063Y-81006925D01*
X173970486Y-80650331D01*
X173856218Y-80309482D01*
X173736622Y-80085736D01*
X173454319Y-79965457D01*
X172359777Y-81060000D01*
X172006223Y-81060000D01*
X170911681Y-79965457D01*
X170629378Y-80085736D01*
X170469160Y-80407553D01*
X170374804Y-80754443D01*
X170349937Y-81113075D01*
X167748702Y-81113075D01*
X167756063Y-81006925D01*
X167710486Y-80650331D01*
X167596218Y-80309482D01*
X167476622Y-80085736D01*
X167194319Y-79965457D01*
X166099777Y-81060000D01*
X165746223Y-81060000D01*
X164651681Y-79965457D01*
X164369378Y-80085736D01*
X164209160Y-80407553D01*
X164114804Y-80754443D01*
X164089937Y-81113075D01*
X142385702Y-81113075D01*
X142393063Y-81006925D01*
X142347486Y-80650331D01*
X142233218Y-80309482D01*
X142113622Y-80085736D01*
X141831319Y-79965457D01*
X140736777Y-81060000D01*
X140383223Y-81060000D01*
X139288681Y-79965457D01*
X139006378Y-80085736D01*
X138846160Y-80407553D01*
X138751804Y-80754443D01*
X138726937Y-81113075D01*
X136125702Y-81113075D01*
X136133063Y-81006925D01*
X136087486Y-80650331D01*
X135973218Y-80309482D01*
X135853622Y-80085736D01*
X135571319Y-79965457D01*
X134476777Y-81060000D01*
X134123223Y-81060000D01*
X133028681Y-79965457D01*
X132746378Y-80085736D01*
X132586160Y-80407553D01*
X132491804Y-80754443D01*
X132466937Y-81113075D01*
X120650000Y-81113075D01*
X120650000Y-79788681D01*
X133205457Y-79788681D01*
X134300000Y-80883223D01*
X135394543Y-79788681D01*
X139465457Y-79788681D01*
X140560000Y-80883223D01*
X141654543Y-79788681D01*
X164828457Y-79788681D01*
X165923000Y-80883223D01*
X167017543Y-79788681D01*
X171088457Y-79788681D01*
X172183000Y-80883223D01*
X173277543Y-79788681D01*
X196705457Y-79788681D01*
X197800000Y-80883223D01*
X198894543Y-79788681D01*
X202965457Y-79788681D01*
X204060000Y-80883223D01*
X205154543Y-79788681D01*
X205034264Y-79506378D01*
X204712447Y-79346160D01*
X204365557Y-79251804D01*
X204006925Y-79226937D01*
X203650331Y-79272514D01*
X203309482Y-79386782D01*
X203085736Y-79506378D01*
X202965457Y-79788681D01*
X198894543Y-79788681D01*
X198774264Y-79506378D01*
X198452447Y-79346160D01*
X198105557Y-79251804D01*
X197746925Y-79226937D01*
X197390331Y-79272514D01*
X197049482Y-79386782D01*
X196825736Y-79506378D01*
X196705457Y-79788681D01*
X173277543Y-79788681D01*
X173157264Y-79506378D01*
X172835447Y-79346160D01*
X172488557Y-79251804D01*
X172129925Y-79226937D01*
X171773331Y-79272514D01*
X171432482Y-79386782D01*
X171208736Y-79506378D01*
X171088457Y-79788681D01*
X167017543Y-79788681D01*
X166897264Y-79506378D01*
X166575447Y-79346160D01*
X166228557Y-79251804D01*
X165869925Y-79226937D01*
X165513331Y-79272514D01*
X165172482Y-79386782D01*
X164948736Y-79506378D01*
X164828457Y-79788681D01*
X141654543Y-79788681D01*
X141534264Y-79506378D01*
X141212447Y-79346160D01*
X140865557Y-79251804D01*
X140506925Y-79226937D01*
X140150331Y-79272514D01*
X139809482Y-79386782D01*
X139585736Y-79506378D01*
X139465457Y-79788681D01*
X135394543Y-79788681D01*
X135274264Y-79506378D01*
X134952447Y-79346160D01*
X134605557Y-79251804D01*
X134246925Y-79226937D01*
X133890331Y-79272514D01*
X133549482Y-79386782D01*
X133325736Y-79506378D01*
X133205457Y-79788681D01*
X120650000Y-79788681D01*
X120650000Y-77787187D01*
X135980000Y-77787187D01*
X135980000Y-78072813D01*
X136035723Y-78352949D01*
X136145027Y-78616833D01*
X136303711Y-78854321D01*
X136505679Y-79056289D01*
X136743167Y-79214973D01*
X137007051Y-79324277D01*
X137287187Y-79380000D01*
X137572813Y-79380000D01*
X137852949Y-79324277D01*
X138116833Y-79214973D01*
X138354321Y-79056289D01*
X138476698Y-78933912D01*
X168225865Y-78933912D01*
X168300872Y-79177878D01*
X168558773Y-79300634D01*
X168835666Y-79370716D01*
X169120912Y-79385432D01*
X169403548Y-79344218D01*
X169672713Y-79248655D01*
X169805128Y-79177878D01*
X169880135Y-78933912D01*
X169053000Y-78106777D01*
X168225865Y-78933912D01*
X138476698Y-78933912D01*
X138556289Y-78854321D01*
X138658277Y-78701685D01*
X145087903Y-78701685D01*
X145201277Y-78690519D01*
X145346740Y-78646393D01*
X145480799Y-78574737D01*
X145598303Y-78478303D01*
X145694737Y-78360799D01*
X145766393Y-78226740D01*
X145810519Y-78081277D01*
X145818729Y-77997912D01*
X167597568Y-77997912D01*
X167638782Y-78280548D01*
X167734345Y-78549713D01*
X167805122Y-78682128D01*
X168049088Y-78757135D01*
X168876223Y-77930000D01*
X169229777Y-77930000D01*
X170056912Y-78757135D01*
X170300878Y-78682128D01*
X170423634Y-78424227D01*
X170493716Y-78147334D01*
X170508432Y-77862088D01*
X170497510Y-77787187D01*
X199480000Y-77787187D01*
X199480000Y-78072813D01*
X199535723Y-78352949D01*
X199645027Y-78616833D01*
X199803711Y-78854321D01*
X200005679Y-79056289D01*
X200243167Y-79214973D01*
X200507051Y-79324277D01*
X200787187Y-79380000D01*
X201072813Y-79380000D01*
X201352949Y-79324277D01*
X201616833Y-79214973D01*
X201854321Y-79056289D01*
X202056289Y-78854321D01*
X202158277Y-78701685D01*
X207006423Y-78701685D01*
X207008847Y-78726294D01*
X207058812Y-78891005D01*
X207139950Y-79042804D01*
X207249143Y-79175857D01*
X207382196Y-79285050D01*
X207533995Y-79366188D01*
X207698706Y-79416153D01*
X207870000Y-79433024D01*
X208795000Y-79433024D01*
X208966294Y-79416153D01*
X209131005Y-79366188D01*
X209282804Y-79285050D01*
X209415857Y-79175857D01*
X209525050Y-79042804D01*
X209606188Y-78891005D01*
X209632277Y-78805000D01*
X209966976Y-78805000D01*
X209979043Y-78927521D01*
X210014781Y-79045334D01*
X210072817Y-79153911D01*
X210150920Y-79249080D01*
X210246089Y-79327183D01*
X210354666Y-79385219D01*
X210472479Y-79420957D01*
X210595000Y-79433024D01*
X211026250Y-79430000D01*
X211182500Y-79273750D01*
X211182500Y-78055000D01*
X211432500Y-78055000D01*
X211432500Y-79273750D01*
X211588750Y-79430000D01*
X212020000Y-79433024D01*
X212142521Y-79420957D01*
X212260334Y-79385219D01*
X212368911Y-79327183D01*
X212464080Y-79249080D01*
X212542183Y-79153911D01*
X212600219Y-79045334D01*
X212635957Y-78927521D01*
X212648024Y-78805000D01*
X212645000Y-78211250D01*
X212488750Y-78055000D01*
X211432500Y-78055000D01*
X211182500Y-78055000D01*
X210126250Y-78055000D01*
X209970000Y-78211250D01*
X209966976Y-78805000D01*
X209632277Y-78805000D01*
X209656153Y-78726294D01*
X209673024Y-78555000D01*
X209673024Y-77305000D01*
X209656153Y-77133706D01*
X209632278Y-77055000D01*
X209966976Y-77055000D01*
X209970000Y-77648750D01*
X210126250Y-77805000D01*
X211182500Y-77805000D01*
X211182500Y-76586250D01*
X211432500Y-76586250D01*
X211432500Y-77805000D01*
X212488750Y-77805000D01*
X212645000Y-77648750D01*
X212648024Y-77055000D01*
X212635957Y-76932479D01*
X212600219Y-76814666D01*
X212542183Y-76706089D01*
X212464080Y-76610920D01*
X212368911Y-76532817D01*
X212260334Y-76474781D01*
X212142521Y-76439043D01*
X212020000Y-76426976D01*
X211588750Y-76430000D01*
X211432500Y-76586250D01*
X211182500Y-76586250D01*
X211026250Y-76430000D01*
X210595000Y-76426976D01*
X210472479Y-76439043D01*
X210354666Y-76474781D01*
X210246089Y-76532817D01*
X210150920Y-76610920D01*
X210072817Y-76706089D01*
X210014781Y-76814666D01*
X209979043Y-76932479D01*
X209966976Y-77055000D01*
X209632278Y-77055000D01*
X209606188Y-76968995D01*
X209525050Y-76817196D01*
X209415857Y-76684143D01*
X209282804Y-76574950D01*
X209131005Y-76493812D01*
X208966294Y-76443847D01*
X208795000Y-76426976D01*
X207870000Y-76426976D01*
X207698706Y-76443847D01*
X207533995Y-76493812D01*
X207382196Y-76574950D01*
X207249143Y-76684143D01*
X207139950Y-76817196D01*
X207058812Y-76968995D01*
X207008847Y-77133706D01*
X207006423Y-77158315D01*
X202158277Y-77158315D01*
X202056289Y-77005679D01*
X201854321Y-76803711D01*
X201616833Y-76645027D01*
X201352949Y-76535723D01*
X201072813Y-76480000D01*
X200787187Y-76480000D01*
X200507051Y-76535723D01*
X200243167Y-76645027D01*
X200005679Y-76803711D01*
X199803711Y-77005679D01*
X199645027Y-77243167D01*
X199535723Y-77507051D01*
X199480000Y-77787187D01*
X170497510Y-77787187D01*
X170467218Y-77579452D01*
X170371655Y-77310287D01*
X170300878Y-77177872D01*
X170056912Y-77102865D01*
X169229777Y-77930000D01*
X168876223Y-77930000D01*
X168049088Y-77102865D01*
X167805122Y-77177872D01*
X167682366Y-77435773D01*
X167612284Y-77712666D01*
X167597568Y-77997912D01*
X145818729Y-77997912D01*
X145825418Y-77930000D01*
X145810519Y-77778723D01*
X145766393Y-77633260D01*
X145694737Y-77499201D01*
X145598303Y-77381697D01*
X145480799Y-77285263D01*
X145346740Y-77213607D01*
X145201277Y-77169481D01*
X145087903Y-77158315D01*
X138658277Y-77158315D01*
X138556289Y-77005679D01*
X138476698Y-76926088D01*
X168225865Y-76926088D01*
X169053000Y-77753223D01*
X169880135Y-76926088D01*
X169805128Y-76682122D01*
X169547227Y-76559366D01*
X169270334Y-76489284D01*
X168985088Y-76474568D01*
X168702452Y-76515782D01*
X168433287Y-76611345D01*
X168300872Y-76682122D01*
X168225865Y-76926088D01*
X138476698Y-76926088D01*
X138354321Y-76803711D01*
X138116833Y-76645027D01*
X137852949Y-76535723D01*
X137572813Y-76480000D01*
X137287187Y-76480000D01*
X137007051Y-76535723D01*
X136743167Y-76645027D01*
X136505679Y-76803711D01*
X136303711Y-77005679D01*
X136145027Y-77243167D01*
X136035723Y-77507051D01*
X135980000Y-77787187D01*
X120650000Y-77787187D01*
X120650000Y-76071319D01*
X133205457Y-76071319D01*
X133325736Y-76353622D01*
X133647553Y-76513840D01*
X133994443Y-76608196D01*
X134353075Y-76633063D01*
X134709669Y-76587486D01*
X135050518Y-76473218D01*
X135274264Y-76353622D01*
X135394543Y-76071319D01*
X139465457Y-76071319D01*
X139585736Y-76353622D01*
X139907553Y-76513840D01*
X140254443Y-76608196D01*
X140613075Y-76633063D01*
X140969669Y-76587486D01*
X141310518Y-76473218D01*
X141534264Y-76353622D01*
X141654543Y-76071319D01*
X164828457Y-76071319D01*
X164948736Y-76353622D01*
X165270553Y-76513840D01*
X165617443Y-76608196D01*
X165976075Y-76633063D01*
X166332669Y-76587486D01*
X166673518Y-76473218D01*
X166897264Y-76353622D01*
X167017543Y-76071319D01*
X171088457Y-76071319D01*
X171208736Y-76353622D01*
X171530553Y-76513840D01*
X171877443Y-76608196D01*
X172236075Y-76633063D01*
X172592669Y-76587486D01*
X172933518Y-76473218D01*
X173157264Y-76353622D01*
X173277543Y-76071319D01*
X196705457Y-76071319D01*
X196825736Y-76353622D01*
X197147553Y-76513840D01*
X197494443Y-76608196D01*
X197853075Y-76633063D01*
X198209669Y-76587486D01*
X198550518Y-76473218D01*
X198774264Y-76353622D01*
X198894543Y-76071319D01*
X202965457Y-76071319D01*
X203085736Y-76353622D01*
X203407553Y-76513840D01*
X203754443Y-76608196D01*
X204113075Y-76633063D01*
X204469669Y-76587486D01*
X204810518Y-76473218D01*
X205034264Y-76353622D01*
X205154543Y-76071319D01*
X204060000Y-74976777D01*
X202965457Y-76071319D01*
X198894543Y-76071319D01*
X197800000Y-74976777D01*
X196705457Y-76071319D01*
X173277543Y-76071319D01*
X172183000Y-74976777D01*
X171088457Y-76071319D01*
X167017543Y-76071319D01*
X165923000Y-74976777D01*
X164828457Y-76071319D01*
X141654543Y-76071319D01*
X140560000Y-74976777D01*
X139465457Y-76071319D01*
X135394543Y-76071319D01*
X134300000Y-74976777D01*
X133205457Y-76071319D01*
X120650000Y-76071319D01*
X120650000Y-74853075D01*
X132466937Y-74853075D01*
X132512514Y-75209669D01*
X132626782Y-75550518D01*
X132746378Y-75774264D01*
X133028681Y-75894543D01*
X134123223Y-74800000D01*
X134476777Y-74800000D01*
X135571319Y-75894543D01*
X135853622Y-75774264D01*
X136013840Y-75452447D01*
X136108196Y-75105557D01*
X136125702Y-74853075D01*
X138726937Y-74853075D01*
X138772514Y-75209669D01*
X138886782Y-75550518D01*
X139006378Y-75774264D01*
X139288681Y-75894543D01*
X140383223Y-74800000D01*
X140736777Y-74800000D01*
X141831319Y-75894543D01*
X142113622Y-75774264D01*
X142273840Y-75452447D01*
X142368196Y-75105557D01*
X142385702Y-74853075D01*
X164089937Y-74853075D01*
X164135514Y-75209669D01*
X164249782Y-75550518D01*
X164369378Y-75774264D01*
X164651681Y-75894543D01*
X165746223Y-74800000D01*
X166099777Y-74800000D01*
X167194319Y-75894543D01*
X167476622Y-75774264D01*
X167636840Y-75452447D01*
X167731196Y-75105557D01*
X167748702Y-74853075D01*
X170349937Y-74853075D01*
X170395514Y-75209669D01*
X170509782Y-75550518D01*
X170629378Y-75774264D01*
X170911681Y-75894543D01*
X172006223Y-74800000D01*
X172359777Y-74800000D01*
X173454319Y-75894543D01*
X173736622Y-75774264D01*
X173896840Y-75452447D01*
X173991196Y-75105557D01*
X174008702Y-74853075D01*
X195966937Y-74853075D01*
X196012514Y-75209669D01*
X196126782Y-75550518D01*
X196246378Y-75774264D01*
X196528681Y-75894543D01*
X197623223Y-74800000D01*
X197976777Y-74800000D01*
X199071319Y-75894543D01*
X199353622Y-75774264D01*
X199513840Y-75452447D01*
X199608196Y-75105557D01*
X199625702Y-74853075D01*
X202226937Y-74853075D01*
X202272514Y-75209669D01*
X202386782Y-75550518D01*
X202506378Y-75774264D01*
X202788681Y-75894543D01*
X203883223Y-74800000D01*
X204236777Y-74800000D01*
X205331319Y-75894543D01*
X205613622Y-75774264D01*
X205773840Y-75452447D01*
X205868196Y-75105557D01*
X205893063Y-74746925D01*
X205847486Y-74390331D01*
X205733218Y-74049482D01*
X205613622Y-73825736D01*
X205331319Y-73705457D01*
X204236777Y-74800000D01*
X203883223Y-74800000D01*
X202788681Y-73705457D01*
X202506378Y-73825736D01*
X202346160Y-74147553D01*
X202251804Y-74494443D01*
X202226937Y-74853075D01*
X199625702Y-74853075D01*
X199633063Y-74746925D01*
X199587486Y-74390331D01*
X199473218Y-74049482D01*
X199353622Y-73825736D01*
X199071319Y-73705457D01*
X197976777Y-74800000D01*
X197623223Y-74800000D01*
X196528681Y-73705457D01*
X196246378Y-73825736D01*
X196086160Y-74147553D01*
X195991804Y-74494443D01*
X195966937Y-74853075D01*
X174008702Y-74853075D01*
X174016063Y-74746925D01*
X173970486Y-74390331D01*
X173856218Y-74049482D01*
X173736622Y-73825736D01*
X173454319Y-73705457D01*
X172359777Y-74800000D01*
X172006223Y-74800000D01*
X170911681Y-73705457D01*
X170629378Y-73825736D01*
X170469160Y-74147553D01*
X170374804Y-74494443D01*
X170349937Y-74853075D01*
X167748702Y-74853075D01*
X167756063Y-74746925D01*
X167710486Y-74390331D01*
X167596218Y-74049482D01*
X167476622Y-73825736D01*
X167194319Y-73705457D01*
X166099777Y-74800000D01*
X165746223Y-74800000D01*
X164651681Y-73705457D01*
X164369378Y-73825736D01*
X164209160Y-74147553D01*
X164114804Y-74494443D01*
X164089937Y-74853075D01*
X142385702Y-74853075D01*
X142393063Y-74746925D01*
X142347486Y-74390331D01*
X142233218Y-74049482D01*
X142113622Y-73825736D01*
X141831319Y-73705457D01*
X140736777Y-74800000D01*
X140383223Y-74800000D01*
X139288681Y-73705457D01*
X139006378Y-73825736D01*
X138846160Y-74147553D01*
X138751804Y-74494443D01*
X138726937Y-74853075D01*
X136125702Y-74853075D01*
X136133063Y-74746925D01*
X136087486Y-74390331D01*
X135973218Y-74049482D01*
X135853622Y-73825736D01*
X135571319Y-73705457D01*
X134476777Y-74800000D01*
X134123223Y-74800000D01*
X133028681Y-73705457D01*
X132746378Y-73825736D01*
X132586160Y-74147553D01*
X132491804Y-74494443D01*
X132466937Y-74853075D01*
X120650000Y-74853075D01*
X120650000Y-73528681D01*
X133205457Y-73528681D01*
X134300000Y-74623223D01*
X135394543Y-73528681D01*
X139465457Y-73528681D01*
X140560000Y-74623223D01*
X141654543Y-73528681D01*
X164828457Y-73528681D01*
X165923000Y-74623223D01*
X167017543Y-73528681D01*
X171088457Y-73528681D01*
X172183000Y-74623223D01*
X173277543Y-73528681D01*
X196705457Y-73528681D01*
X197800000Y-74623223D01*
X198894543Y-73528681D01*
X202965457Y-73528681D01*
X204060000Y-74623223D01*
X205154543Y-73528681D01*
X205034264Y-73246378D01*
X204712447Y-73086160D01*
X204365557Y-72991804D01*
X204006925Y-72966937D01*
X203650331Y-73012514D01*
X203309482Y-73126782D01*
X203085736Y-73246378D01*
X202965457Y-73528681D01*
X198894543Y-73528681D01*
X198774264Y-73246378D01*
X198452447Y-73086160D01*
X198105557Y-72991804D01*
X197746925Y-72966937D01*
X197390331Y-73012514D01*
X197049482Y-73126782D01*
X196825736Y-73246378D01*
X196705457Y-73528681D01*
X173277543Y-73528681D01*
X173157264Y-73246378D01*
X172835447Y-73086160D01*
X172488557Y-72991804D01*
X172129925Y-72966937D01*
X171773331Y-73012514D01*
X171432482Y-73126782D01*
X171208736Y-73246378D01*
X171088457Y-73528681D01*
X167017543Y-73528681D01*
X166897264Y-73246378D01*
X166575447Y-73086160D01*
X166228557Y-72991804D01*
X165869925Y-72966937D01*
X165513331Y-73012514D01*
X165172482Y-73126782D01*
X164948736Y-73246378D01*
X164828457Y-73528681D01*
X141654543Y-73528681D01*
X141534264Y-73246378D01*
X141212447Y-73086160D01*
X140865557Y-72991804D01*
X140506925Y-72966937D01*
X140150331Y-73012514D01*
X139809482Y-73126782D01*
X139585736Y-73246378D01*
X139465457Y-73528681D01*
X135394543Y-73528681D01*
X135274264Y-73246378D01*
X134952447Y-73086160D01*
X134605557Y-72991804D01*
X134246925Y-72966937D01*
X133890331Y-73012514D01*
X133549482Y-73126782D01*
X133325736Y-73246378D01*
X133205457Y-73528681D01*
X120650000Y-73528681D01*
X120650000Y-65028951D01*
X120721292Y-64230136D01*
X120925245Y-63484611D01*
X121257995Y-62786987D01*
X121709026Y-62159311D01*
X122264085Y-61621421D01*
X122905618Y-61190329D01*
X123613354Y-60879655D01*
X124369917Y-60698020D01*
X125023829Y-60650000D01*
X214971049Y-60650000D01*
X215769864Y-60721292D01*
M02*
