G04 #@! TF.GenerationSoftware,KiCad,Pcbnew,(5.1.5)-3*
G04 #@! TF.CreationDate,2021-02-17T23:25:52-05:00*
G04 #@! TF.ProjectId,AM Bandpass Filter,414d2042-616e-4647-9061-73732046696c,rev?*
G04 #@! TF.SameCoordinates,Original*
G04 #@! TF.FileFunction,Soldermask,Bot*
G04 #@! TF.FilePolarity,Negative*
%FSLAX46Y46*%
G04 Gerber Fmt 4.6, Leading zero omitted, Abs format (unit mm)*
G04 Created by KiCad (PCBNEW (5.1.5)-3) date 2021-02-17 23:25:52*
%MOMM*%
%LPD*%
G04 APERTURE LIST*
%ADD10C,0.100000*%
G04 APERTURE END LIST*
D10*
G36*
X140764903Y-98667075D02*
G01*
X140992571Y-98761378D01*
X141197466Y-98898285D01*
X141371715Y-99072534D01*
X141508622Y-99277429D01*
X141602925Y-99505097D01*
X141651000Y-99746787D01*
X141651000Y-99993213D01*
X141602925Y-100234903D01*
X141508622Y-100462571D01*
X141371715Y-100667466D01*
X141197466Y-100841715D01*
X140992571Y-100978622D01*
X140992570Y-100978623D01*
X140992569Y-100978623D01*
X140764903Y-101072925D01*
X140523214Y-101121000D01*
X140276786Y-101121000D01*
X140035097Y-101072925D01*
X139807431Y-100978623D01*
X139807430Y-100978623D01*
X139807429Y-100978622D01*
X139602534Y-100841715D01*
X139428285Y-100667466D01*
X139291378Y-100462571D01*
X139197075Y-100234903D01*
X139149000Y-99993213D01*
X139149000Y-99746787D01*
X139197075Y-99505097D01*
X139291378Y-99277429D01*
X139428285Y-99072534D01*
X139602534Y-98898285D01*
X139807429Y-98761378D01*
X140035097Y-98667075D01*
X140276786Y-98619000D01*
X140523214Y-98619000D01*
X140764903Y-98667075D01*
G37*
G36*
X134504903Y-98667075D02*
G01*
X134732571Y-98761378D01*
X134937466Y-98898285D01*
X135111715Y-99072534D01*
X135248622Y-99277429D01*
X135342925Y-99505097D01*
X135391000Y-99746787D01*
X135391000Y-99993213D01*
X135342925Y-100234903D01*
X135248622Y-100462571D01*
X135111715Y-100667466D01*
X134937466Y-100841715D01*
X134732571Y-100978622D01*
X134732570Y-100978623D01*
X134732569Y-100978623D01*
X134504903Y-101072925D01*
X134263214Y-101121000D01*
X134016786Y-101121000D01*
X133775097Y-101072925D01*
X133547431Y-100978623D01*
X133547430Y-100978623D01*
X133547429Y-100978622D01*
X133342534Y-100841715D01*
X133168285Y-100667466D01*
X133031378Y-100462571D01*
X132937075Y-100234903D01*
X132889000Y-99993213D01*
X132889000Y-99746787D01*
X132937075Y-99505097D01*
X133031378Y-99277429D01*
X133168285Y-99072534D01*
X133342534Y-98898285D01*
X133547429Y-98761378D01*
X133775097Y-98667075D01*
X134016786Y-98619000D01*
X134263214Y-98619000D01*
X134504903Y-98667075D01*
G37*
G36*
X204264903Y-98667075D02*
G01*
X204492571Y-98761378D01*
X204697466Y-98898285D01*
X204871715Y-99072534D01*
X205008622Y-99277429D01*
X205102925Y-99505097D01*
X205151000Y-99746787D01*
X205151000Y-99993213D01*
X205102925Y-100234903D01*
X205008622Y-100462571D01*
X204871715Y-100667466D01*
X204697466Y-100841715D01*
X204492571Y-100978622D01*
X204492570Y-100978623D01*
X204492569Y-100978623D01*
X204264903Y-101072925D01*
X204023214Y-101121000D01*
X203776786Y-101121000D01*
X203535097Y-101072925D01*
X203307431Y-100978623D01*
X203307430Y-100978623D01*
X203307429Y-100978622D01*
X203102534Y-100841715D01*
X202928285Y-100667466D01*
X202791378Y-100462571D01*
X202697075Y-100234903D01*
X202649000Y-99993213D01*
X202649000Y-99746787D01*
X202697075Y-99505097D01*
X202791378Y-99277429D01*
X202928285Y-99072534D01*
X203102534Y-98898285D01*
X203307429Y-98761378D01*
X203535097Y-98667075D01*
X203776786Y-98619000D01*
X204023214Y-98619000D01*
X204264903Y-98667075D01*
G37*
G36*
X198004903Y-98667075D02*
G01*
X198232571Y-98761378D01*
X198437466Y-98898285D01*
X198611715Y-99072534D01*
X198748622Y-99277429D01*
X198842925Y-99505097D01*
X198891000Y-99746787D01*
X198891000Y-99993213D01*
X198842925Y-100234903D01*
X198748622Y-100462571D01*
X198611715Y-100667466D01*
X198437466Y-100841715D01*
X198232571Y-100978622D01*
X198232570Y-100978623D01*
X198232569Y-100978623D01*
X198004903Y-101072925D01*
X197763214Y-101121000D01*
X197516786Y-101121000D01*
X197275097Y-101072925D01*
X197047431Y-100978623D01*
X197047430Y-100978623D01*
X197047429Y-100978622D01*
X196842534Y-100841715D01*
X196668285Y-100667466D01*
X196531378Y-100462571D01*
X196437075Y-100234903D01*
X196389000Y-99993213D01*
X196389000Y-99746787D01*
X196437075Y-99505097D01*
X196531378Y-99277429D01*
X196668285Y-99072534D01*
X196842534Y-98898285D01*
X197047429Y-98761378D01*
X197275097Y-98667075D01*
X197516786Y-98619000D01*
X197763214Y-98619000D01*
X198004903Y-98667075D01*
G37*
G36*
X137525520Y-95897664D02*
G01*
X137684942Y-95963699D01*
X137828418Y-96059566D01*
X137950434Y-96181582D01*
X138046301Y-96325058D01*
X138112336Y-96484480D01*
X138146000Y-96653721D01*
X138146000Y-96826279D01*
X138112336Y-96995520D01*
X138046301Y-97154942D01*
X137950434Y-97298418D01*
X137828418Y-97420434D01*
X137684942Y-97516301D01*
X137525520Y-97582336D01*
X137440899Y-97599168D01*
X137356280Y-97616000D01*
X137183720Y-97616000D01*
X137099101Y-97599168D01*
X137014480Y-97582336D01*
X136855058Y-97516301D01*
X136711582Y-97420434D01*
X136589566Y-97298418D01*
X136493699Y-97154942D01*
X136427664Y-96995520D01*
X136394000Y-96826279D01*
X136394000Y-96653721D01*
X136427664Y-96484480D01*
X136493699Y-96325058D01*
X136589566Y-96181582D01*
X136711582Y-96059566D01*
X136855058Y-95963699D01*
X137014480Y-95897664D01*
X137183720Y-95864000D01*
X137356280Y-95864000D01*
X137525520Y-95897664D01*
G37*
G36*
X201025520Y-95897664D02*
G01*
X201184942Y-95963699D01*
X201328418Y-96059566D01*
X201450434Y-96181582D01*
X201546301Y-96325058D01*
X201612336Y-96484480D01*
X201646000Y-96653721D01*
X201646000Y-96826279D01*
X201612336Y-96995520D01*
X201546301Y-97154942D01*
X201450434Y-97298418D01*
X201328418Y-97420434D01*
X201184942Y-97516301D01*
X201025520Y-97582336D01*
X200940899Y-97599168D01*
X200856280Y-97616000D01*
X200683720Y-97616000D01*
X200599101Y-97599168D01*
X200514480Y-97582336D01*
X200355058Y-97516301D01*
X200211582Y-97420434D01*
X200089566Y-97298418D01*
X199993699Y-97154942D01*
X199927664Y-96995520D01*
X199894000Y-96826279D01*
X199894000Y-96653721D01*
X199927664Y-96484480D01*
X199993699Y-96325058D01*
X200089566Y-96181582D01*
X200211582Y-96059566D01*
X200355058Y-95963699D01*
X200514480Y-95897664D01*
X200683720Y-95864000D01*
X200856280Y-95864000D01*
X201025520Y-95897664D01*
G37*
G36*
X204264903Y-92407075D02*
G01*
X204492571Y-92501378D01*
X204697466Y-92638285D01*
X204871715Y-92812534D01*
X205008622Y-93017429D01*
X205102925Y-93245097D01*
X205151000Y-93486787D01*
X205151000Y-93733213D01*
X205102925Y-93974903D01*
X205008622Y-94202571D01*
X204871715Y-94407466D01*
X204697466Y-94581715D01*
X204492571Y-94718622D01*
X204492570Y-94718623D01*
X204492569Y-94718623D01*
X204264903Y-94812925D01*
X204023214Y-94861000D01*
X203776786Y-94861000D01*
X203535097Y-94812925D01*
X203307431Y-94718623D01*
X203307430Y-94718623D01*
X203307429Y-94718622D01*
X203102534Y-94581715D01*
X202928285Y-94407466D01*
X202791378Y-94202571D01*
X202697075Y-93974903D01*
X202649000Y-93733213D01*
X202649000Y-93486787D01*
X202697075Y-93245097D01*
X202791378Y-93017429D01*
X202928285Y-92812534D01*
X203102534Y-92638285D01*
X203307429Y-92501378D01*
X203535097Y-92407075D01*
X203776786Y-92359000D01*
X204023214Y-92359000D01*
X204264903Y-92407075D01*
G37*
G36*
X134504903Y-92407075D02*
G01*
X134732571Y-92501378D01*
X134937466Y-92638285D01*
X135111715Y-92812534D01*
X135248622Y-93017429D01*
X135342925Y-93245097D01*
X135391000Y-93486787D01*
X135391000Y-93733213D01*
X135342925Y-93974903D01*
X135248622Y-94202571D01*
X135111715Y-94407466D01*
X134937466Y-94581715D01*
X134732571Y-94718622D01*
X134732570Y-94718623D01*
X134732569Y-94718623D01*
X134504903Y-94812925D01*
X134263214Y-94861000D01*
X134016786Y-94861000D01*
X133775097Y-94812925D01*
X133547431Y-94718623D01*
X133547430Y-94718623D01*
X133547429Y-94718622D01*
X133342534Y-94581715D01*
X133168285Y-94407466D01*
X133031378Y-94202571D01*
X132937075Y-93974903D01*
X132889000Y-93733213D01*
X132889000Y-93486787D01*
X132937075Y-93245097D01*
X133031378Y-93017429D01*
X133168285Y-92812534D01*
X133342534Y-92638285D01*
X133547429Y-92501378D01*
X133775097Y-92407075D01*
X134016786Y-92359000D01*
X134263214Y-92359000D01*
X134504903Y-92407075D01*
G37*
G36*
X140764903Y-92407075D02*
G01*
X140992571Y-92501378D01*
X141197466Y-92638285D01*
X141371715Y-92812534D01*
X141508622Y-93017429D01*
X141602925Y-93245097D01*
X141651000Y-93486787D01*
X141651000Y-93733213D01*
X141602925Y-93974903D01*
X141508622Y-94202571D01*
X141371715Y-94407466D01*
X141197466Y-94581715D01*
X140992571Y-94718622D01*
X140992570Y-94718623D01*
X140992569Y-94718623D01*
X140764903Y-94812925D01*
X140523214Y-94861000D01*
X140276786Y-94861000D01*
X140035097Y-94812925D01*
X139807431Y-94718623D01*
X139807430Y-94718623D01*
X139807429Y-94718622D01*
X139602534Y-94581715D01*
X139428285Y-94407466D01*
X139291378Y-94202571D01*
X139197075Y-93974903D01*
X139149000Y-93733213D01*
X139149000Y-93486787D01*
X139197075Y-93245097D01*
X139291378Y-93017429D01*
X139428285Y-92812534D01*
X139602534Y-92638285D01*
X139807429Y-92501378D01*
X140035097Y-92407075D01*
X140276786Y-92359000D01*
X140523214Y-92359000D01*
X140764903Y-92407075D01*
G37*
G36*
X198004903Y-92407075D02*
G01*
X198232571Y-92501378D01*
X198437466Y-92638285D01*
X198611715Y-92812534D01*
X198748622Y-93017429D01*
X198842925Y-93245097D01*
X198891000Y-93486787D01*
X198891000Y-93733213D01*
X198842925Y-93974903D01*
X198748622Y-94202571D01*
X198611715Y-94407466D01*
X198437466Y-94581715D01*
X198232571Y-94718622D01*
X198232570Y-94718623D01*
X198232569Y-94718623D01*
X198004903Y-94812925D01*
X197763214Y-94861000D01*
X197516786Y-94861000D01*
X197275097Y-94812925D01*
X197047431Y-94718623D01*
X197047430Y-94718623D01*
X197047429Y-94718622D01*
X196842534Y-94581715D01*
X196668285Y-94407466D01*
X196531378Y-94202571D01*
X196437075Y-93974903D01*
X196389000Y-93733213D01*
X196389000Y-93486787D01*
X196437075Y-93245097D01*
X196531378Y-93017429D01*
X196668285Y-92812534D01*
X196842534Y-92638285D01*
X197047429Y-92501378D01*
X197275097Y-92407075D01*
X197516786Y-92359000D01*
X197763214Y-92359000D01*
X198004903Y-92407075D01*
G37*
G36*
X204424903Y-79857075D02*
G01*
X204652571Y-79951378D01*
X204857466Y-80088285D01*
X205031715Y-80262534D01*
X205168622Y-80467429D01*
X205262925Y-80695097D01*
X205311000Y-80936787D01*
X205311000Y-81183213D01*
X205262925Y-81424903D01*
X205168622Y-81652571D01*
X205031715Y-81857466D01*
X204857466Y-82031715D01*
X204652571Y-82168622D01*
X204652570Y-82168623D01*
X204652569Y-82168623D01*
X204424903Y-82262925D01*
X204183214Y-82311000D01*
X203936786Y-82311000D01*
X203695097Y-82262925D01*
X203467431Y-82168623D01*
X203467430Y-82168623D01*
X203467429Y-82168622D01*
X203262534Y-82031715D01*
X203088285Y-81857466D01*
X202951378Y-81652571D01*
X202857075Y-81424903D01*
X202809000Y-81183213D01*
X202809000Y-80936787D01*
X202857075Y-80695097D01*
X202951378Y-80467429D01*
X203088285Y-80262534D01*
X203262534Y-80088285D01*
X203467429Y-79951378D01*
X203695097Y-79857075D01*
X203936786Y-79809000D01*
X204183214Y-79809000D01*
X204424903Y-79857075D01*
G37*
G36*
X134664903Y-79857075D02*
G01*
X134892571Y-79951378D01*
X135097466Y-80088285D01*
X135271715Y-80262534D01*
X135408622Y-80467429D01*
X135502925Y-80695097D01*
X135551000Y-80936787D01*
X135551000Y-81183213D01*
X135502925Y-81424903D01*
X135408622Y-81652571D01*
X135271715Y-81857466D01*
X135097466Y-82031715D01*
X134892571Y-82168622D01*
X134892570Y-82168623D01*
X134892569Y-82168623D01*
X134664903Y-82262925D01*
X134423214Y-82311000D01*
X134176786Y-82311000D01*
X133935097Y-82262925D01*
X133707431Y-82168623D01*
X133707430Y-82168623D01*
X133707429Y-82168622D01*
X133502534Y-82031715D01*
X133328285Y-81857466D01*
X133191378Y-81652571D01*
X133097075Y-81424903D01*
X133049000Y-81183213D01*
X133049000Y-80936787D01*
X133097075Y-80695097D01*
X133191378Y-80467429D01*
X133328285Y-80262534D01*
X133502534Y-80088285D01*
X133707429Y-79951378D01*
X133935097Y-79857075D01*
X134176786Y-79809000D01*
X134423214Y-79809000D01*
X134664903Y-79857075D01*
G37*
G36*
X140924903Y-79857075D02*
G01*
X141152571Y-79951378D01*
X141357466Y-80088285D01*
X141531715Y-80262534D01*
X141668622Y-80467429D01*
X141762925Y-80695097D01*
X141811000Y-80936787D01*
X141811000Y-81183213D01*
X141762925Y-81424903D01*
X141668622Y-81652571D01*
X141531715Y-81857466D01*
X141357466Y-82031715D01*
X141152571Y-82168622D01*
X141152570Y-82168623D01*
X141152569Y-82168623D01*
X140924903Y-82262925D01*
X140683214Y-82311000D01*
X140436786Y-82311000D01*
X140195097Y-82262925D01*
X139967431Y-82168623D01*
X139967430Y-82168623D01*
X139967429Y-82168622D01*
X139762534Y-82031715D01*
X139588285Y-81857466D01*
X139451378Y-81652571D01*
X139357075Y-81424903D01*
X139309000Y-81183213D01*
X139309000Y-80936787D01*
X139357075Y-80695097D01*
X139451378Y-80467429D01*
X139588285Y-80262534D01*
X139762534Y-80088285D01*
X139967429Y-79951378D01*
X140195097Y-79857075D01*
X140436786Y-79809000D01*
X140683214Y-79809000D01*
X140924903Y-79857075D01*
G37*
G36*
X198164903Y-79857075D02*
G01*
X198392571Y-79951378D01*
X198597466Y-80088285D01*
X198771715Y-80262534D01*
X198908622Y-80467429D01*
X199002925Y-80695097D01*
X199051000Y-80936787D01*
X199051000Y-81183213D01*
X199002925Y-81424903D01*
X198908622Y-81652571D01*
X198771715Y-81857466D01*
X198597466Y-82031715D01*
X198392571Y-82168622D01*
X198392570Y-82168623D01*
X198392569Y-82168623D01*
X198164903Y-82262925D01*
X197923214Y-82311000D01*
X197676786Y-82311000D01*
X197435097Y-82262925D01*
X197207431Y-82168623D01*
X197207430Y-82168623D01*
X197207429Y-82168622D01*
X197002534Y-82031715D01*
X196828285Y-81857466D01*
X196691378Y-81652571D01*
X196597075Y-81424903D01*
X196549000Y-81183213D01*
X196549000Y-80936787D01*
X196597075Y-80695097D01*
X196691378Y-80467429D01*
X196828285Y-80262534D01*
X197002534Y-80088285D01*
X197207429Y-79951378D01*
X197435097Y-79857075D01*
X197676786Y-79809000D01*
X197923214Y-79809000D01*
X198164903Y-79857075D01*
G37*
G36*
X172547903Y-79857075D02*
G01*
X172775571Y-79951378D01*
X172980466Y-80088285D01*
X173154715Y-80262534D01*
X173291622Y-80467429D01*
X173385925Y-80695097D01*
X173434000Y-80936787D01*
X173434000Y-81183213D01*
X173385925Y-81424903D01*
X173291622Y-81652571D01*
X173154715Y-81857466D01*
X172980466Y-82031715D01*
X172775571Y-82168622D01*
X172775570Y-82168623D01*
X172775569Y-82168623D01*
X172547903Y-82262925D01*
X172306214Y-82311000D01*
X172059786Y-82311000D01*
X171818097Y-82262925D01*
X171590431Y-82168623D01*
X171590430Y-82168623D01*
X171590429Y-82168622D01*
X171385534Y-82031715D01*
X171211285Y-81857466D01*
X171074378Y-81652571D01*
X170980075Y-81424903D01*
X170932000Y-81183213D01*
X170932000Y-80936787D01*
X170980075Y-80695097D01*
X171074378Y-80467429D01*
X171211285Y-80262534D01*
X171385534Y-80088285D01*
X171590429Y-79951378D01*
X171818097Y-79857075D01*
X172059786Y-79809000D01*
X172306214Y-79809000D01*
X172547903Y-79857075D01*
G37*
G36*
X166287903Y-79857075D02*
G01*
X166515571Y-79951378D01*
X166720466Y-80088285D01*
X166894715Y-80262534D01*
X167031622Y-80467429D01*
X167125925Y-80695097D01*
X167174000Y-80936787D01*
X167174000Y-81183213D01*
X167125925Y-81424903D01*
X167031622Y-81652571D01*
X166894715Y-81857466D01*
X166720466Y-82031715D01*
X166515571Y-82168622D01*
X166515570Y-82168623D01*
X166515569Y-82168623D01*
X166287903Y-82262925D01*
X166046214Y-82311000D01*
X165799786Y-82311000D01*
X165558097Y-82262925D01*
X165330431Y-82168623D01*
X165330430Y-82168623D01*
X165330429Y-82168622D01*
X165125534Y-82031715D01*
X164951285Y-81857466D01*
X164814378Y-81652571D01*
X164720075Y-81424903D01*
X164672000Y-81183213D01*
X164672000Y-80936787D01*
X164720075Y-80695097D01*
X164814378Y-80467429D01*
X164951285Y-80262534D01*
X165125534Y-80088285D01*
X165330429Y-79951378D01*
X165558097Y-79857075D01*
X165799786Y-79809000D01*
X166046214Y-79809000D01*
X166287903Y-79857075D01*
G37*
G36*
X137600899Y-77070832D02*
G01*
X137685520Y-77087664D01*
X137844942Y-77153699D01*
X137988418Y-77249566D01*
X138110434Y-77371582D01*
X138206301Y-77515058D01*
X138272336Y-77674480D01*
X138306000Y-77843721D01*
X138306000Y-78016279D01*
X138272336Y-78185520D01*
X138206301Y-78344942D01*
X138110434Y-78488418D01*
X137988418Y-78610434D01*
X137844942Y-78706301D01*
X137685520Y-78772336D01*
X137516280Y-78806000D01*
X137343720Y-78806000D01*
X137174480Y-78772336D01*
X137015058Y-78706301D01*
X136871582Y-78610434D01*
X136749566Y-78488418D01*
X136653699Y-78344942D01*
X136587664Y-78185520D01*
X136554000Y-78016279D01*
X136554000Y-77843721D01*
X136587664Y-77674480D01*
X136653699Y-77515058D01*
X136749566Y-77371582D01*
X136871582Y-77249566D01*
X137015058Y-77153699D01*
X137174480Y-77087664D01*
X137259101Y-77070832D01*
X137343720Y-77054000D01*
X137516280Y-77054000D01*
X137600899Y-77070832D01*
G37*
G36*
X169223899Y-77070832D02*
G01*
X169308520Y-77087664D01*
X169467942Y-77153699D01*
X169611418Y-77249566D01*
X169733434Y-77371582D01*
X169829301Y-77515058D01*
X169895336Y-77674480D01*
X169929000Y-77843721D01*
X169929000Y-78016279D01*
X169895336Y-78185520D01*
X169829301Y-78344942D01*
X169733434Y-78488418D01*
X169611418Y-78610434D01*
X169467942Y-78706301D01*
X169308520Y-78772336D01*
X169139280Y-78806000D01*
X168966720Y-78806000D01*
X168797480Y-78772336D01*
X168638058Y-78706301D01*
X168494582Y-78610434D01*
X168372566Y-78488418D01*
X168276699Y-78344942D01*
X168210664Y-78185520D01*
X168177000Y-78016279D01*
X168177000Y-77843721D01*
X168210664Y-77674480D01*
X168276699Y-77515058D01*
X168372566Y-77371582D01*
X168494582Y-77249566D01*
X168638058Y-77153699D01*
X168797480Y-77087664D01*
X168882101Y-77070832D01*
X168966720Y-77054000D01*
X169139280Y-77054000D01*
X169223899Y-77070832D01*
G37*
G36*
X201100899Y-77070832D02*
G01*
X201185520Y-77087664D01*
X201344942Y-77153699D01*
X201488418Y-77249566D01*
X201610434Y-77371582D01*
X201706301Y-77515058D01*
X201772336Y-77674480D01*
X201806000Y-77843721D01*
X201806000Y-78016279D01*
X201772336Y-78185520D01*
X201706301Y-78344942D01*
X201610434Y-78488418D01*
X201488418Y-78610434D01*
X201344942Y-78706301D01*
X201185520Y-78772336D01*
X201016280Y-78806000D01*
X200843720Y-78806000D01*
X200674480Y-78772336D01*
X200515058Y-78706301D01*
X200371582Y-78610434D01*
X200249566Y-78488418D01*
X200153699Y-78344942D01*
X200087664Y-78185520D01*
X200054000Y-78016279D01*
X200054000Y-77843721D01*
X200087664Y-77674480D01*
X200153699Y-77515058D01*
X200249566Y-77371582D01*
X200371582Y-77249566D01*
X200515058Y-77153699D01*
X200674480Y-77087664D01*
X200759101Y-77070832D01*
X200843720Y-77054000D01*
X201016280Y-77054000D01*
X201100899Y-77070832D01*
G37*
G36*
X198164903Y-73597075D02*
G01*
X198392571Y-73691378D01*
X198597466Y-73828285D01*
X198771715Y-74002534D01*
X198908622Y-74207429D01*
X199002925Y-74435097D01*
X199051000Y-74676787D01*
X199051000Y-74923213D01*
X199002925Y-75164903D01*
X198908622Y-75392571D01*
X198771715Y-75597466D01*
X198597466Y-75771715D01*
X198392571Y-75908622D01*
X198392570Y-75908623D01*
X198392569Y-75908623D01*
X198164903Y-76002925D01*
X197923214Y-76051000D01*
X197676786Y-76051000D01*
X197435097Y-76002925D01*
X197207431Y-75908623D01*
X197207430Y-75908623D01*
X197207429Y-75908622D01*
X197002534Y-75771715D01*
X196828285Y-75597466D01*
X196691378Y-75392571D01*
X196597075Y-75164903D01*
X196549000Y-74923213D01*
X196549000Y-74676787D01*
X196597075Y-74435097D01*
X196691378Y-74207429D01*
X196828285Y-74002534D01*
X197002534Y-73828285D01*
X197207429Y-73691378D01*
X197435097Y-73597075D01*
X197676786Y-73549000D01*
X197923214Y-73549000D01*
X198164903Y-73597075D01*
G37*
G36*
X172547903Y-73597075D02*
G01*
X172775571Y-73691378D01*
X172980466Y-73828285D01*
X173154715Y-74002534D01*
X173291622Y-74207429D01*
X173385925Y-74435097D01*
X173434000Y-74676787D01*
X173434000Y-74923213D01*
X173385925Y-75164903D01*
X173291622Y-75392571D01*
X173154715Y-75597466D01*
X172980466Y-75771715D01*
X172775571Y-75908622D01*
X172775570Y-75908623D01*
X172775569Y-75908623D01*
X172547903Y-76002925D01*
X172306214Y-76051000D01*
X172059786Y-76051000D01*
X171818097Y-76002925D01*
X171590431Y-75908623D01*
X171590430Y-75908623D01*
X171590429Y-75908622D01*
X171385534Y-75771715D01*
X171211285Y-75597466D01*
X171074378Y-75392571D01*
X170980075Y-75164903D01*
X170932000Y-74923213D01*
X170932000Y-74676787D01*
X170980075Y-74435097D01*
X171074378Y-74207429D01*
X171211285Y-74002534D01*
X171385534Y-73828285D01*
X171590429Y-73691378D01*
X171818097Y-73597075D01*
X172059786Y-73549000D01*
X172306214Y-73549000D01*
X172547903Y-73597075D01*
G37*
G36*
X166287903Y-73597075D02*
G01*
X166515571Y-73691378D01*
X166720466Y-73828285D01*
X166894715Y-74002534D01*
X167031622Y-74207429D01*
X167125925Y-74435097D01*
X167174000Y-74676787D01*
X167174000Y-74923213D01*
X167125925Y-75164903D01*
X167031622Y-75392571D01*
X166894715Y-75597466D01*
X166720466Y-75771715D01*
X166515571Y-75908622D01*
X166515570Y-75908623D01*
X166515569Y-75908623D01*
X166287903Y-76002925D01*
X166046214Y-76051000D01*
X165799786Y-76051000D01*
X165558097Y-76002925D01*
X165330431Y-75908623D01*
X165330430Y-75908623D01*
X165330429Y-75908622D01*
X165125534Y-75771715D01*
X164951285Y-75597466D01*
X164814378Y-75392571D01*
X164720075Y-75164903D01*
X164672000Y-74923213D01*
X164672000Y-74676787D01*
X164720075Y-74435097D01*
X164814378Y-74207429D01*
X164951285Y-74002534D01*
X165125534Y-73828285D01*
X165330429Y-73691378D01*
X165558097Y-73597075D01*
X165799786Y-73549000D01*
X166046214Y-73549000D01*
X166287903Y-73597075D01*
G37*
G36*
X204424903Y-73597075D02*
G01*
X204652571Y-73691378D01*
X204857466Y-73828285D01*
X205031715Y-74002534D01*
X205168622Y-74207429D01*
X205262925Y-74435097D01*
X205311000Y-74676787D01*
X205311000Y-74923213D01*
X205262925Y-75164903D01*
X205168622Y-75392571D01*
X205031715Y-75597466D01*
X204857466Y-75771715D01*
X204652571Y-75908622D01*
X204652570Y-75908623D01*
X204652569Y-75908623D01*
X204424903Y-76002925D01*
X204183214Y-76051000D01*
X203936786Y-76051000D01*
X203695097Y-76002925D01*
X203467431Y-75908623D01*
X203467430Y-75908623D01*
X203467429Y-75908622D01*
X203262534Y-75771715D01*
X203088285Y-75597466D01*
X202951378Y-75392571D01*
X202857075Y-75164903D01*
X202809000Y-74923213D01*
X202809000Y-74676787D01*
X202857075Y-74435097D01*
X202951378Y-74207429D01*
X203088285Y-74002534D01*
X203262534Y-73828285D01*
X203467429Y-73691378D01*
X203695097Y-73597075D01*
X203936786Y-73549000D01*
X204183214Y-73549000D01*
X204424903Y-73597075D01*
G37*
G36*
X134664903Y-73597075D02*
G01*
X134892571Y-73691378D01*
X135097466Y-73828285D01*
X135271715Y-74002534D01*
X135408622Y-74207429D01*
X135502925Y-74435097D01*
X135551000Y-74676787D01*
X135551000Y-74923213D01*
X135502925Y-75164903D01*
X135408622Y-75392571D01*
X135271715Y-75597466D01*
X135097466Y-75771715D01*
X134892571Y-75908622D01*
X134892570Y-75908623D01*
X134892569Y-75908623D01*
X134664903Y-76002925D01*
X134423214Y-76051000D01*
X134176786Y-76051000D01*
X133935097Y-76002925D01*
X133707431Y-75908623D01*
X133707430Y-75908623D01*
X133707429Y-75908622D01*
X133502534Y-75771715D01*
X133328285Y-75597466D01*
X133191378Y-75392571D01*
X133097075Y-75164903D01*
X133049000Y-74923213D01*
X133049000Y-74676787D01*
X133097075Y-74435097D01*
X133191378Y-74207429D01*
X133328285Y-74002534D01*
X133502534Y-73828285D01*
X133707429Y-73691378D01*
X133935097Y-73597075D01*
X134176786Y-73549000D01*
X134423214Y-73549000D01*
X134664903Y-73597075D01*
G37*
G36*
X140924903Y-73597075D02*
G01*
X141152571Y-73691378D01*
X141357466Y-73828285D01*
X141531715Y-74002534D01*
X141668622Y-74207429D01*
X141762925Y-74435097D01*
X141811000Y-74676787D01*
X141811000Y-74923213D01*
X141762925Y-75164903D01*
X141668622Y-75392571D01*
X141531715Y-75597466D01*
X141357466Y-75771715D01*
X141152571Y-75908622D01*
X141152570Y-75908623D01*
X141152569Y-75908623D01*
X140924903Y-76002925D01*
X140683214Y-76051000D01*
X140436786Y-76051000D01*
X140195097Y-76002925D01*
X139967431Y-75908623D01*
X139967430Y-75908623D01*
X139967429Y-75908622D01*
X139762534Y-75771715D01*
X139588285Y-75597466D01*
X139451378Y-75392571D01*
X139357075Y-75164903D01*
X139309000Y-74923213D01*
X139309000Y-74676787D01*
X139357075Y-74435097D01*
X139451378Y-74207429D01*
X139588285Y-74002534D01*
X139762534Y-73828285D01*
X139967429Y-73691378D01*
X140195097Y-73597075D01*
X140436786Y-73549000D01*
X140683214Y-73549000D01*
X140924903Y-73597075D01*
G37*
M02*
