G04 #@! TF.GenerationSoftware,KiCad,Pcbnew,(5.1.5)-3*
G04 #@! TF.CreationDate,2021-02-17T23:25:52-05:00*
G04 #@! TF.ProjectId,AM Bandpass Filter,414d2042-616e-4647-9061-73732046696c,rev?*
G04 #@! TF.SameCoordinates,Original*
G04 #@! TF.FileFunction,Legend,Top*
G04 #@! TF.FilePolarity,Positive*
%FSLAX46Y46*%
G04 Gerber Fmt 4.6, Leading zero omitted, Abs format (unit mm)*
G04 Created by KiCad (PCBNEW (5.1.5)-3) date 2021-02-17 23:25:52*
%MOMM*%
%LPD*%
G04 APERTURE LIST*
%ADD10C,0.150000*%
%ADD11C,0.250000*%
%ADD12C,0.500000*%
%ADD13C,0.120000*%
%ADD14C,0.127000*%
%ADD15C,0.152400*%
G04 APERTURE END LIST*
D10*
X158377142Y-90842380D02*
X158377142Y-89842380D01*
X158615238Y-89842380D01*
X158758095Y-89890000D01*
X158853333Y-89985238D01*
X158900952Y-90080476D01*
X158948571Y-90270952D01*
X158948571Y-90413809D01*
X158900952Y-90604285D01*
X158853333Y-90699523D01*
X158758095Y-90794761D01*
X158615238Y-90842380D01*
X158377142Y-90842380D01*
X159377142Y-90318571D02*
X159710476Y-90318571D01*
X159853333Y-90842380D02*
X159377142Y-90842380D01*
X159377142Y-89842380D01*
X159853333Y-89842380D01*
X160234285Y-90794761D02*
X160377142Y-90842380D01*
X160615238Y-90842380D01*
X160710476Y-90794761D01*
X160758095Y-90747142D01*
X160805714Y-90651904D01*
X160805714Y-90556666D01*
X160758095Y-90461428D01*
X160710476Y-90413809D01*
X160615238Y-90366190D01*
X160424761Y-90318571D01*
X160329523Y-90270952D01*
X160281904Y-90223333D01*
X160234285Y-90128095D01*
X160234285Y-90032857D01*
X160281904Y-89937619D01*
X160329523Y-89890000D01*
X160424761Y-89842380D01*
X160662857Y-89842380D01*
X160805714Y-89890000D01*
X161234285Y-90842380D02*
X161234285Y-89842380D01*
X162234285Y-89890000D02*
X162139047Y-89842380D01*
X161996190Y-89842380D01*
X161853333Y-89890000D01*
X161758095Y-89985238D01*
X161710476Y-90080476D01*
X161662857Y-90270952D01*
X161662857Y-90413809D01*
X161710476Y-90604285D01*
X161758095Y-90699523D01*
X161853333Y-90794761D01*
X161996190Y-90842380D01*
X162091428Y-90842380D01*
X162234285Y-90794761D01*
X162281904Y-90747142D01*
X162281904Y-90413809D01*
X162091428Y-90413809D01*
X162710476Y-90842380D02*
X162710476Y-89842380D01*
X163281904Y-90842380D01*
X163281904Y-89842380D01*
X163758095Y-90318571D02*
X164091428Y-90318571D01*
X164234285Y-90842380D02*
X163758095Y-90842380D01*
X163758095Y-89842380D01*
X164234285Y-89842380D01*
X164662857Y-90842380D02*
X164662857Y-89842380D01*
X164900952Y-89842380D01*
X165043809Y-89890000D01*
X165139047Y-89985238D01*
X165186666Y-90080476D01*
X165234285Y-90270952D01*
X165234285Y-90413809D01*
X165186666Y-90604285D01*
X165139047Y-90699523D01*
X165043809Y-90794761D01*
X164900952Y-90842380D01*
X164662857Y-90842380D01*
X166758095Y-90318571D02*
X166900952Y-90366190D01*
X166948571Y-90413809D01*
X166996190Y-90509047D01*
X166996190Y-90651904D01*
X166948571Y-90747142D01*
X166900952Y-90794761D01*
X166805714Y-90842380D01*
X166424761Y-90842380D01*
X166424761Y-89842380D01*
X166758095Y-89842380D01*
X166853333Y-89890000D01*
X166900952Y-89937619D01*
X166948571Y-90032857D01*
X166948571Y-90128095D01*
X166900952Y-90223333D01*
X166853333Y-90270952D01*
X166758095Y-90318571D01*
X166424761Y-90318571D01*
X167615238Y-90366190D02*
X167615238Y-90842380D01*
X167281904Y-89842380D02*
X167615238Y-90366190D01*
X167948571Y-89842380D01*
X168996190Y-90794761D02*
X169139047Y-90842380D01*
X169377142Y-90842380D01*
X169472380Y-90794761D01*
X169520000Y-90747142D01*
X169567619Y-90651904D01*
X169567619Y-90556666D01*
X169520000Y-90461428D01*
X169472380Y-90413809D01*
X169377142Y-90366190D01*
X169186666Y-90318571D01*
X169091428Y-90270952D01*
X169043809Y-90223333D01*
X168996190Y-90128095D01*
X168996190Y-90032857D01*
X169043809Y-89937619D01*
X169091428Y-89890000D01*
X169186666Y-89842380D01*
X169424761Y-89842380D01*
X169567619Y-89890000D01*
X169996190Y-90842380D02*
X169996190Y-89842380D01*
X170567619Y-90842380D02*
X170139047Y-90270952D01*
X170567619Y-89842380D02*
X169996190Y-90413809D01*
X171186666Y-90366190D02*
X171186666Y-90842380D01*
X170853333Y-89842380D02*
X171186666Y-90366190D01*
X171520000Y-89842380D01*
X171853333Y-90318571D02*
X172186666Y-90318571D01*
X172329523Y-90842380D02*
X171853333Y-90842380D01*
X171853333Y-89842380D01*
X172329523Y-89842380D01*
X173472380Y-90556666D02*
X173948571Y-90556666D01*
X173377142Y-90842380D02*
X173710476Y-89842380D01*
X174043809Y-90842380D01*
X174377142Y-90842380D02*
X174377142Y-89842380D01*
X174948571Y-90842380D01*
X174948571Y-89842380D01*
X175424761Y-90842380D02*
X175424761Y-89842380D01*
X175662857Y-89842380D01*
X175805714Y-89890000D01*
X175900952Y-89985238D01*
X175948571Y-90080476D01*
X175996190Y-90270952D01*
X175996190Y-90413809D01*
X175948571Y-90604285D01*
X175900952Y-90699523D01*
X175805714Y-90794761D01*
X175662857Y-90842380D01*
X175424761Y-90842380D01*
X177186666Y-90842380D02*
X177186666Y-89842380D01*
X177520000Y-90556666D01*
X177853333Y-89842380D01*
X177853333Y-90842380D01*
X178281904Y-90556666D02*
X178758095Y-90556666D01*
X178186666Y-90842380D02*
X178520000Y-89842380D01*
X178853333Y-90842380D01*
X179091428Y-89842380D02*
X179758095Y-90842380D01*
X179758095Y-89842380D02*
X179091428Y-90842380D01*
X208842380Y-98668571D02*
X208366190Y-99001904D01*
X208842380Y-99240000D02*
X207842380Y-99240000D01*
X207842380Y-98859047D01*
X207890000Y-98763809D01*
X207937619Y-98716190D01*
X208032857Y-98668571D01*
X208175714Y-98668571D01*
X208270952Y-98716190D01*
X208318571Y-98763809D01*
X208366190Y-98859047D01*
X208366190Y-99240000D01*
X208318571Y-97906666D02*
X208318571Y-98240000D01*
X208842380Y-98240000D02*
X207842380Y-98240000D01*
X207842380Y-97763809D01*
X207842380Y-96430476D02*
X207842380Y-96240000D01*
X207890000Y-96144761D01*
X207985238Y-96049523D01*
X208175714Y-96001904D01*
X208509047Y-96001904D01*
X208699523Y-96049523D01*
X208794761Y-96144761D01*
X208842380Y-96240000D01*
X208842380Y-96430476D01*
X208794761Y-96525714D01*
X208699523Y-96620952D01*
X208509047Y-96668571D01*
X208175714Y-96668571D01*
X207985238Y-96620952D01*
X207890000Y-96525714D01*
X207842380Y-96430476D01*
X207842380Y-95573333D02*
X208651904Y-95573333D01*
X208747142Y-95525714D01*
X208794761Y-95478095D01*
X208842380Y-95382857D01*
X208842380Y-95192380D01*
X208794761Y-95097142D01*
X208747142Y-95049523D01*
X208651904Y-95001904D01*
X207842380Y-95001904D01*
X207842380Y-94668571D02*
X207842380Y-94097142D01*
X208842380Y-94382857D02*
X207842380Y-94382857D01*
X129197619Y-95478095D02*
X129673809Y-95144761D01*
X129197619Y-94906666D02*
X130197619Y-94906666D01*
X130197619Y-95287619D01*
X130150000Y-95382857D01*
X130102380Y-95430476D01*
X130007142Y-95478095D01*
X129864285Y-95478095D01*
X129769047Y-95430476D01*
X129721428Y-95382857D01*
X129673809Y-95287619D01*
X129673809Y-94906666D01*
X129721428Y-96240000D02*
X129721428Y-95906666D01*
X129197619Y-95906666D02*
X130197619Y-95906666D01*
X130197619Y-96382857D01*
X129197619Y-97525714D02*
X130197619Y-97525714D01*
X129197619Y-98001904D02*
X130197619Y-98001904D01*
X129197619Y-98573333D01*
X130197619Y-98573333D01*
D11*
X143571428Y-87250000D02*
X144285714Y-87250000D01*
X143428571Y-87678571D02*
X143928571Y-86178571D01*
X144428571Y-87678571D01*
X144928571Y-87678571D02*
X144928571Y-86178571D01*
X145428571Y-87250000D01*
X145928571Y-86178571D01*
X145928571Y-87678571D01*
X148285714Y-86892857D02*
X148499999Y-86964285D01*
X148571428Y-87035714D01*
X148642857Y-87178571D01*
X148642857Y-87392857D01*
X148571428Y-87535714D01*
X148499999Y-87607142D01*
X148357142Y-87678571D01*
X147785714Y-87678571D01*
X147785714Y-86178571D01*
X148285714Y-86178571D01*
X148428571Y-86250000D01*
X148499999Y-86321428D01*
X148571428Y-86464285D01*
X148571428Y-86607142D01*
X148499999Y-86750000D01*
X148428571Y-86821428D01*
X148285714Y-86892857D01*
X147785714Y-86892857D01*
X149285714Y-87678571D02*
X149285714Y-86678571D01*
X149285714Y-86964285D02*
X149357142Y-86821428D01*
X149428571Y-86750000D01*
X149571428Y-86678571D01*
X149714285Y-86678571D01*
X150428571Y-87678571D02*
X150285714Y-87607142D01*
X150214285Y-87535714D01*
X150142857Y-87392857D01*
X150142857Y-86964285D01*
X150214285Y-86821428D01*
X150285714Y-86750000D01*
X150428571Y-86678571D01*
X150642857Y-86678571D01*
X150785714Y-86750000D01*
X150857142Y-86821428D01*
X150928571Y-86964285D01*
X150928571Y-87392857D01*
X150857142Y-87535714D01*
X150785714Y-87607142D01*
X150642857Y-87678571D01*
X150428571Y-87678571D01*
X152214285Y-87678571D02*
X152214285Y-86892857D01*
X152142857Y-86750000D01*
X151999999Y-86678571D01*
X151714285Y-86678571D01*
X151571428Y-86750000D01*
X152214285Y-87607142D02*
X152071428Y-87678571D01*
X151714285Y-87678571D01*
X151571428Y-87607142D01*
X151499999Y-87464285D01*
X151499999Y-87321428D01*
X151571428Y-87178571D01*
X151714285Y-87107142D01*
X152071428Y-87107142D01*
X152214285Y-87035714D01*
X153571428Y-87678571D02*
X153571428Y-86178571D01*
X153571428Y-87607142D02*
X153428571Y-87678571D01*
X153142857Y-87678571D01*
X152999999Y-87607142D01*
X152928571Y-87535714D01*
X152857142Y-87392857D01*
X152857142Y-86964285D01*
X152928571Y-86821428D01*
X152999999Y-86750000D01*
X153142857Y-86678571D01*
X153428571Y-86678571D01*
X153571428Y-86750000D01*
X154928571Y-87607142D02*
X154785714Y-87678571D01*
X154499999Y-87678571D01*
X154357142Y-87607142D01*
X154285714Y-87535714D01*
X154214285Y-87392857D01*
X154214285Y-86964285D01*
X154285714Y-86821428D01*
X154357142Y-86750000D01*
X154499999Y-86678571D01*
X154785714Y-86678571D01*
X154928571Y-86750000D01*
X156214285Y-87678571D02*
X156214285Y-86892857D01*
X156142857Y-86750000D01*
X155999999Y-86678571D01*
X155714285Y-86678571D01*
X155571428Y-86750000D01*
X156214285Y-87607142D02*
X156071428Y-87678571D01*
X155714285Y-87678571D01*
X155571428Y-87607142D01*
X155499999Y-87464285D01*
X155499999Y-87321428D01*
X155571428Y-87178571D01*
X155714285Y-87107142D01*
X156071428Y-87107142D01*
X156214285Y-87035714D01*
X156857142Y-87607142D02*
X156999999Y-87678571D01*
X157285714Y-87678571D01*
X157428571Y-87607142D01*
X157499999Y-87464285D01*
X157499999Y-87392857D01*
X157428571Y-87250000D01*
X157285714Y-87178571D01*
X157071428Y-87178571D01*
X156928571Y-87107142D01*
X156857142Y-86964285D01*
X156857142Y-86892857D01*
X156928571Y-86750000D01*
X157071428Y-86678571D01*
X157285714Y-86678571D01*
X157428571Y-86750000D01*
X157928571Y-86678571D02*
X158499999Y-86678571D01*
X158142857Y-86178571D02*
X158142857Y-87464285D01*
X158214285Y-87607142D01*
X158357142Y-87678571D01*
X158499999Y-87678571D01*
X160642857Y-86892857D02*
X160857142Y-86964285D01*
X160928571Y-87035714D01*
X160999999Y-87178571D01*
X160999999Y-87392857D01*
X160928571Y-87535714D01*
X160857142Y-87607142D01*
X160714285Y-87678571D01*
X160142857Y-87678571D01*
X160142857Y-86178571D01*
X160642857Y-86178571D01*
X160785714Y-86250000D01*
X160857142Y-86321428D01*
X160928571Y-86464285D01*
X160928571Y-86607142D01*
X160857142Y-86750000D01*
X160785714Y-86821428D01*
X160642857Y-86892857D01*
X160142857Y-86892857D01*
X162285714Y-87678571D02*
X162285714Y-86892857D01*
X162214285Y-86750000D01*
X162071428Y-86678571D01*
X161785714Y-86678571D01*
X161642857Y-86750000D01*
X162285714Y-87607142D02*
X162142857Y-87678571D01*
X161785714Y-87678571D01*
X161642857Y-87607142D01*
X161571428Y-87464285D01*
X161571428Y-87321428D01*
X161642857Y-87178571D01*
X161785714Y-87107142D01*
X162142857Y-87107142D01*
X162285714Y-87035714D01*
X162999999Y-86678571D02*
X162999999Y-87678571D01*
X162999999Y-86821428D02*
X163071428Y-86750000D01*
X163214285Y-86678571D01*
X163428571Y-86678571D01*
X163571428Y-86750000D01*
X163642857Y-86892857D01*
X163642857Y-87678571D01*
X164999999Y-87678571D02*
X164999999Y-86178571D01*
X164999999Y-87607142D02*
X164857142Y-87678571D01*
X164571428Y-87678571D01*
X164428571Y-87607142D01*
X164357142Y-87535714D01*
X164285714Y-87392857D01*
X164285714Y-86964285D01*
X164357142Y-86821428D01*
X164428571Y-86750000D01*
X164571428Y-86678571D01*
X164857142Y-86678571D01*
X164999999Y-86750000D01*
X165714285Y-86678571D02*
X165714285Y-88178571D01*
X165714285Y-86750000D02*
X165857142Y-86678571D01*
X166142857Y-86678571D01*
X166285714Y-86750000D01*
X166357142Y-86821428D01*
X166428571Y-86964285D01*
X166428571Y-87392857D01*
X166357142Y-87535714D01*
X166285714Y-87607142D01*
X166142857Y-87678571D01*
X165857142Y-87678571D01*
X165714285Y-87607142D01*
X167714285Y-87678571D02*
X167714285Y-86892857D01*
X167642857Y-86750000D01*
X167500000Y-86678571D01*
X167214285Y-86678571D01*
X167071428Y-86750000D01*
X167714285Y-87607142D02*
X167571428Y-87678571D01*
X167214285Y-87678571D01*
X167071428Y-87607142D01*
X167000000Y-87464285D01*
X167000000Y-87321428D01*
X167071428Y-87178571D01*
X167214285Y-87107142D01*
X167571428Y-87107142D01*
X167714285Y-87035714D01*
X168357142Y-87607142D02*
X168500000Y-87678571D01*
X168785714Y-87678571D01*
X168928571Y-87607142D01*
X169000000Y-87464285D01*
X169000000Y-87392857D01*
X168928571Y-87250000D01*
X168785714Y-87178571D01*
X168571428Y-87178571D01*
X168428571Y-87107142D01*
X168357142Y-86964285D01*
X168357142Y-86892857D01*
X168428571Y-86750000D01*
X168571428Y-86678571D01*
X168785714Y-86678571D01*
X168928571Y-86750000D01*
X169571428Y-87607142D02*
X169714285Y-87678571D01*
X169999999Y-87678571D01*
X170142857Y-87607142D01*
X170214285Y-87464285D01*
X170214285Y-87392857D01*
X170142857Y-87250000D01*
X169999999Y-87178571D01*
X169785714Y-87178571D01*
X169642857Y-87107142D01*
X169571428Y-86964285D01*
X169571428Y-86892857D01*
X169642857Y-86750000D01*
X169785714Y-86678571D01*
X169999999Y-86678571D01*
X170142857Y-86750000D01*
X172499999Y-86892857D02*
X171999999Y-86892857D01*
X171999999Y-87678571D02*
X171999999Y-86178571D01*
X172714285Y-86178571D01*
X173285714Y-87678571D02*
X173285714Y-86678571D01*
X173285714Y-86178571D02*
X173214285Y-86250000D01*
X173285714Y-86321428D01*
X173357142Y-86250000D01*
X173285714Y-86178571D01*
X173285714Y-86321428D01*
X174214285Y-87678571D02*
X174071428Y-87607142D01*
X173999999Y-87464285D01*
X173999999Y-86178571D01*
X174571428Y-86678571D02*
X175142857Y-86678571D01*
X174785714Y-86178571D02*
X174785714Y-87464285D01*
X174857142Y-87607142D01*
X174999999Y-87678571D01*
X175142857Y-87678571D01*
X176214285Y-87607142D02*
X176071428Y-87678571D01*
X175785714Y-87678571D01*
X175642857Y-87607142D01*
X175571428Y-87464285D01*
X175571428Y-86892857D01*
X175642857Y-86750000D01*
X175785714Y-86678571D01*
X176071428Y-86678571D01*
X176214285Y-86750000D01*
X176285714Y-86892857D01*
X176285714Y-87035714D01*
X175571428Y-87178571D01*
X176928571Y-87678571D02*
X176928571Y-86678571D01*
X176928571Y-86964285D02*
X177000000Y-86821428D01*
X177071428Y-86750000D01*
X177214285Y-86678571D01*
X177357142Y-86678571D01*
X179428571Y-88250000D02*
X179357142Y-88178571D01*
X179214285Y-87964285D01*
X179142857Y-87821428D01*
X179071428Y-87607142D01*
X179000000Y-87250000D01*
X179000000Y-86964285D01*
X179071428Y-86607142D01*
X179142857Y-86392857D01*
X179214285Y-86250000D01*
X179357142Y-86035714D01*
X179428571Y-85964285D01*
X180642857Y-86678571D02*
X180642857Y-87678571D01*
X180285714Y-86107142D02*
X179928571Y-87178571D01*
X180857142Y-87178571D01*
X182142857Y-86178571D02*
X181428571Y-86178571D01*
X181357142Y-86892857D01*
X181428571Y-86821428D01*
X181571428Y-86750000D01*
X181928571Y-86750000D01*
X182071428Y-86821428D01*
X182142857Y-86892857D01*
X182214285Y-87035714D01*
X182214285Y-87392857D01*
X182142857Y-87535714D01*
X182071428Y-87607142D01*
X181928571Y-87678571D01*
X181571428Y-87678571D01*
X181428571Y-87607142D01*
X181357142Y-87535714D01*
X183142857Y-86178571D02*
X183285714Y-86178571D01*
X183428571Y-86250000D01*
X183499999Y-86321428D01*
X183571428Y-86464285D01*
X183642857Y-86750000D01*
X183642857Y-87107142D01*
X183571428Y-87392857D01*
X183499999Y-87535714D01*
X183428571Y-87607142D01*
X183285714Y-87678571D01*
X183142857Y-87678571D01*
X182999999Y-87607142D01*
X182928571Y-87535714D01*
X182857142Y-87392857D01*
X182785714Y-87107142D01*
X182785714Y-86750000D01*
X182857142Y-86464285D01*
X182928571Y-86321428D01*
X182999999Y-86250000D01*
X183142857Y-86178571D01*
X184285714Y-87678571D02*
X184285714Y-86178571D01*
X184428571Y-87107142D02*
X184857142Y-87678571D01*
X184857142Y-86678571D02*
X184285714Y-87250000D01*
X185499999Y-87678571D02*
X185499999Y-86178571D01*
X185499999Y-86892857D02*
X186357142Y-86892857D01*
X186357142Y-87678571D02*
X186357142Y-86178571D01*
X186928571Y-86678571D02*
X187714285Y-86678571D01*
X186928571Y-87678571D01*
X187714285Y-87678571D01*
X188285714Y-87107142D02*
X189428571Y-87107142D01*
X190071428Y-86321428D02*
X190142857Y-86250000D01*
X190285714Y-86178571D01*
X190642857Y-86178571D01*
X190785714Y-86250000D01*
X190857142Y-86321428D01*
X190928571Y-86464285D01*
X190928571Y-86607142D01*
X190857142Y-86821428D01*
X190000000Y-87678571D01*
X190928571Y-87678571D01*
X191571428Y-87678571D02*
X191571428Y-86178571D01*
X192071428Y-87250000D01*
X192571428Y-86178571D01*
X192571428Y-87678571D01*
X193285714Y-87678571D02*
X193285714Y-86178571D01*
X193285714Y-86892857D02*
X194142857Y-86892857D01*
X194142857Y-87678571D02*
X194142857Y-86178571D01*
X194714285Y-86678571D02*
X195500000Y-86678571D01*
X194714285Y-87678571D01*
X195500000Y-87678571D01*
X195928571Y-88250000D02*
X196000000Y-88178571D01*
X196142857Y-87964285D01*
X196214285Y-87821428D01*
X196285714Y-87607142D01*
X196357142Y-87250000D01*
X196357142Y-86964285D01*
X196285714Y-86607142D01*
X196214285Y-86392857D01*
X196142857Y-86250000D01*
X196000000Y-86035714D01*
X195928571Y-85964285D01*
D12*
X153166666Y-67130952D02*
X154000000Y-69630952D01*
X154833333Y-67130952D01*
X155666666Y-69630952D02*
X155666666Y-67130952D01*
X157095238Y-69630952D01*
X157095238Y-67130952D01*
X158166666Y-68916666D02*
X159357142Y-68916666D01*
X157928571Y-69630952D02*
X158761904Y-67130952D01*
X159595238Y-69630952D01*
X163761904Y-69392857D02*
X163642857Y-69511904D01*
X163285714Y-69630952D01*
X163047619Y-69630952D01*
X162690476Y-69511904D01*
X162452380Y-69273809D01*
X162333333Y-69035714D01*
X162214285Y-68559523D01*
X162214285Y-68202380D01*
X162333333Y-67726190D01*
X162452380Y-67488095D01*
X162690476Y-67250000D01*
X163047619Y-67130952D01*
X163285714Y-67130952D01*
X163642857Y-67250000D01*
X163761904Y-67369047D01*
X164714285Y-68916666D02*
X165904761Y-68916666D01*
X164476190Y-69630952D02*
X165309523Y-67130952D01*
X166142857Y-69630952D01*
X168166666Y-69630952D02*
X166976190Y-69630952D01*
X166976190Y-67130952D01*
X169000000Y-69630952D02*
X169000000Y-67130952D01*
X171023809Y-68321428D02*
X171380952Y-68440476D01*
X171500000Y-68559523D01*
X171619047Y-68797619D01*
X171619047Y-69154761D01*
X171500000Y-69392857D01*
X171380952Y-69511904D01*
X171142857Y-69630952D01*
X170190476Y-69630952D01*
X170190476Y-67130952D01*
X171023809Y-67130952D01*
X171261904Y-67250000D01*
X171380952Y-67369047D01*
X171500000Y-67607142D01*
X171500000Y-67845238D01*
X171380952Y-68083333D01*
X171261904Y-68202380D01*
X171023809Y-68321428D01*
X170190476Y-68321428D01*
X174119047Y-69630952D02*
X173285714Y-68440476D01*
X172690476Y-69630952D02*
X172690476Y-67130952D01*
X173642857Y-67130952D01*
X173880952Y-67250000D01*
X174000000Y-67369047D01*
X174119047Y-67607142D01*
X174119047Y-67964285D01*
X174000000Y-68202380D01*
X173880952Y-68321428D01*
X173642857Y-68440476D01*
X172690476Y-68440476D01*
X175071428Y-68916666D02*
X176261904Y-68916666D01*
X174833333Y-69630952D02*
X175666666Y-67130952D01*
X176500000Y-69630952D01*
X176976190Y-67130952D02*
X178404761Y-67130952D01*
X177690476Y-69630952D02*
X177690476Y-67130952D01*
X179238095Y-69630952D02*
X179238095Y-67130952D01*
X180904761Y-67130952D02*
X181380952Y-67130952D01*
X181619047Y-67250000D01*
X181857142Y-67488095D01*
X181976190Y-67964285D01*
X181976190Y-68797619D01*
X181857142Y-69273809D01*
X181619047Y-69511904D01*
X181380952Y-69630952D01*
X180904761Y-69630952D01*
X180666666Y-69511904D01*
X180428571Y-69273809D01*
X180309523Y-68797619D01*
X180309523Y-67964285D01*
X180428571Y-67488095D01*
X180666666Y-67250000D01*
X180904761Y-67130952D01*
X183047619Y-69630952D02*
X183047619Y-67130952D01*
X184476190Y-69630952D01*
X184476190Y-67130952D01*
D10*
X206357142Y-73452380D02*
X205880952Y-73452380D01*
X205880952Y-72452380D01*
X206880952Y-72452380D02*
X207071428Y-72452380D01*
X207166666Y-72500000D01*
X207261904Y-72595238D01*
X207309523Y-72785714D01*
X207309523Y-73119047D01*
X207261904Y-73309523D01*
X207166666Y-73404761D01*
X207071428Y-73452380D01*
X206880952Y-73452380D01*
X206785714Y-73404761D01*
X206690476Y-73309523D01*
X206642857Y-73119047D01*
X206642857Y-72785714D01*
X206690476Y-72595238D01*
X206785714Y-72500000D01*
X206880952Y-72452380D01*
X207690476Y-73166666D02*
X208166666Y-73166666D01*
X207595238Y-73452380D02*
X207928571Y-72452380D01*
X208261904Y-73452380D01*
X208595238Y-73452380D02*
X208595238Y-72452380D01*
X208833333Y-72452380D01*
X208976190Y-72500000D01*
X209071428Y-72595238D01*
X209119047Y-72690476D01*
X209166666Y-72880952D01*
X209166666Y-73023809D01*
X209119047Y-73214285D01*
X209071428Y-73309523D01*
X208976190Y-73404761D01*
X208833333Y-73452380D01*
X208595238Y-73452380D01*
X174285714Y-73404761D02*
X174428571Y-73452380D01*
X174666666Y-73452380D01*
X174761904Y-73404761D01*
X174809523Y-73357142D01*
X174857142Y-73261904D01*
X174857142Y-73166666D01*
X174809523Y-73071428D01*
X174761904Y-73023809D01*
X174666666Y-72976190D01*
X174476190Y-72928571D01*
X174380952Y-72880952D01*
X174333333Y-72833333D01*
X174285714Y-72738095D01*
X174285714Y-72642857D01*
X174333333Y-72547619D01*
X174380952Y-72500000D01*
X174476190Y-72452380D01*
X174714285Y-72452380D01*
X174857142Y-72500000D01*
X175285714Y-73452380D02*
X175285714Y-72452380D01*
X175285714Y-72928571D02*
X175857142Y-72928571D01*
X175857142Y-73452380D02*
X175857142Y-72452380D01*
X176523809Y-72452380D02*
X176714285Y-72452380D01*
X176809523Y-72500000D01*
X176904761Y-72595238D01*
X176952380Y-72785714D01*
X176952380Y-73119047D01*
X176904761Y-73309523D01*
X176809523Y-73404761D01*
X176714285Y-73452380D01*
X176523809Y-73452380D01*
X176428571Y-73404761D01*
X176333333Y-73309523D01*
X176285714Y-73119047D01*
X176285714Y-72785714D01*
X176333333Y-72595238D01*
X176428571Y-72500000D01*
X176523809Y-72452380D01*
X177952380Y-73452380D02*
X177619047Y-72976190D01*
X177380952Y-73452380D02*
X177380952Y-72452380D01*
X177761904Y-72452380D01*
X177857142Y-72500000D01*
X177904761Y-72547619D01*
X177952380Y-72642857D01*
X177952380Y-72785714D01*
X177904761Y-72880952D01*
X177857142Y-72928571D01*
X177761904Y-72976190D01*
X177380952Y-72976190D01*
X178238095Y-72452380D02*
X178809523Y-72452380D01*
X178523809Y-73452380D02*
X178523809Y-72452380D01*
X141928571Y-72452380D02*
X142119047Y-72452380D01*
X142214285Y-72500000D01*
X142309523Y-72595238D01*
X142357142Y-72785714D01*
X142357142Y-73119047D01*
X142309523Y-73309523D01*
X142214285Y-73404761D01*
X142119047Y-73452380D01*
X141928571Y-73452380D01*
X141833333Y-73404761D01*
X141738095Y-73309523D01*
X141690476Y-73119047D01*
X141690476Y-72785714D01*
X141738095Y-72595238D01*
X141833333Y-72500000D01*
X141928571Y-72452380D01*
X142785714Y-73452380D02*
X142785714Y-72452380D01*
X143166666Y-72452380D01*
X143261904Y-72500000D01*
X143309523Y-72547619D01*
X143357142Y-72642857D01*
X143357142Y-72785714D01*
X143309523Y-72880952D01*
X143261904Y-72928571D01*
X143166666Y-72976190D01*
X142785714Y-72976190D01*
X143785714Y-72928571D02*
X144119047Y-72928571D01*
X144261904Y-73452380D02*
X143785714Y-73452380D01*
X143785714Y-72452380D01*
X144261904Y-72452380D01*
X144690476Y-73452380D02*
X144690476Y-72452380D01*
X145261904Y-73452380D01*
X145261904Y-72452380D01*
D13*
X211500000Y-66500000D02*
X132000000Y-66500000D01*
X211500000Y-66500000D02*
G75*
G02X212500000Y-67500000I0J-1000000D01*
G01*
X212500000Y-83500000D02*
X212500000Y-67500000D01*
X212500000Y-83500000D02*
G75*
G02X211500000Y-84500000I-1000000J0D01*
G01*
X132000000Y-84500000D02*
X211500000Y-84500000D01*
X131000000Y-67500000D02*
G75*
G02X132000000Y-66500000I1000000J0D01*
G01*
X131000000Y-83500000D02*
X131000000Y-67500000D01*
X132000000Y-84500000D02*
G75*
G02X131000000Y-83500000I0J1000000D01*
G01*
X209217936Y-78840000D02*
X210422064Y-78840000D01*
X209217936Y-77020000D02*
X210422064Y-77020000D01*
X178038748Y-99990000D02*
X178561252Y-99990000D01*
X178038748Y-98570000D02*
X178561252Y-98570000D01*
X164068748Y-99990000D02*
X164591252Y-99990000D01*
X164068748Y-98570000D02*
X164591252Y-98570000D01*
X178038748Y-97450000D02*
X178561252Y-97450000D01*
X178038748Y-96030000D02*
X178561252Y-96030000D01*
D14*
X205595400Y-94114600D02*
G75*
G02X205621400Y-99356200I-4815290J-2644750D01*
G01*
X203470000Y-101540000D02*
G75*
G02X198124000Y-101567000I-2697871J4910957D01*
G01*
X195970000Y-99440000D02*
G75*
G02X195943000Y-94094000I4910957J2697871D01*
G01*
X198153800Y-91888600D02*
G75*
G02X203416000Y-91913000I2608826J-4815992D01*
G01*
X205755400Y-75304600D02*
G75*
G02X205781400Y-80546200I-4815290J-2644750D01*
G01*
X203630000Y-82730000D02*
G75*
G02X198284000Y-82757000I-2697871J4910957D01*
G01*
X196130000Y-80630000D02*
G75*
G02X196103000Y-75284000I4910957J2697871D01*
G01*
X198313800Y-73078600D02*
G75*
G02X203576000Y-73103000I2608826J-4815992D01*
G01*
X173878400Y-75304600D02*
G75*
G02X173904400Y-80546200I-4815290J-2644750D01*
G01*
X171753000Y-82730000D02*
G75*
G02X166407000Y-82757000I-2697871J4910957D01*
G01*
X164253000Y-80630000D02*
G75*
G02X164226000Y-75284000I4910957J2697871D01*
G01*
X166436800Y-73078600D02*
G75*
G02X171699000Y-73103000I2608826J-4815992D01*
G01*
X142255400Y-75304600D02*
G75*
G02X142281400Y-80546200I-4815290J-2644750D01*
G01*
X140130000Y-82730000D02*
G75*
G02X134784000Y-82757000I-2697871J4910957D01*
G01*
X132630000Y-80630000D02*
G75*
G02X132603000Y-75284000I4910957J2697871D01*
G01*
X134813800Y-73078600D02*
G75*
G02X140076000Y-73103000I2608826J-4815992D01*
G01*
X142095400Y-94114600D02*
G75*
G02X142121400Y-99356200I-4815290J-2644750D01*
G01*
X139970000Y-101540000D02*
G75*
G02X134624000Y-101567000I-2697871J4910957D01*
G01*
X132470000Y-99440000D02*
G75*
G02X132443000Y-94094000I4910957J2697871D01*
G01*
X134653800Y-91888600D02*
G75*
G02X139916000Y-91913000I2608826J-4815992D01*
G01*
D13*
X192008748Y-97450000D02*
X192531252Y-97450000D01*
X192008748Y-96030000D02*
X192531252Y-96030000D01*
X183550000Y-97503748D02*
X183550000Y-98026252D01*
X184970000Y-97503748D02*
X184970000Y-98026252D01*
X169580000Y-97503748D02*
X169580000Y-98026252D01*
X171000000Y-97503748D02*
X171000000Y-98026252D01*
X164068748Y-97450000D02*
X164591252Y-97450000D01*
X164068748Y-96030000D02*
X164591252Y-96030000D01*
X155610000Y-97503748D02*
X155610000Y-98026252D01*
X157030000Y-97503748D02*
X157030000Y-98026252D01*
X149708748Y-97450000D02*
X150231252Y-97450000D01*
X149708748Y-96030000D02*
X150231252Y-96030000D01*
X188086252Y-96030000D02*
X187563748Y-96030000D01*
X188086252Y-97450000D02*
X187563748Y-97450000D01*
X182430000Y-98026252D02*
X182430000Y-97503748D01*
X181010000Y-98026252D02*
X181010000Y-97503748D01*
X174116252Y-96030000D02*
X173593748Y-96030000D01*
X174116252Y-97450000D02*
X173593748Y-97450000D01*
X168460000Y-98026252D02*
X168460000Y-97503748D01*
X167040000Y-98026252D02*
X167040000Y-97503748D01*
X160146252Y-96030000D02*
X159623748Y-96030000D01*
X160146252Y-97450000D02*
X159623748Y-97450000D01*
X154490000Y-98026252D02*
X154490000Y-97503748D01*
X153070000Y-98026252D02*
X153070000Y-97503748D01*
X145786252Y-96030000D02*
X145263748Y-96030000D01*
X145786252Y-97450000D02*
X145263748Y-97450000D01*
D10*
X209653333Y-76562380D02*
X209320000Y-76086190D01*
X209081904Y-76562380D02*
X209081904Y-75562380D01*
X209462857Y-75562380D01*
X209558095Y-75610000D01*
X209605714Y-75657619D01*
X209653333Y-75752857D01*
X209653333Y-75895714D01*
X209605714Y-75990952D01*
X209558095Y-76038571D01*
X209462857Y-76086190D01*
X209081904Y-76086190D01*
X210605714Y-76562380D02*
X210034285Y-76562380D01*
X210320000Y-76562380D02*
X210320000Y-75562380D01*
X210224761Y-75705238D01*
X210129523Y-75800476D01*
X210034285Y-75848095D01*
X175203333Y-99732380D02*
X174727142Y-99732380D01*
X174727142Y-98732380D01*
X175584285Y-99732380D02*
X175774761Y-99732380D01*
X175870000Y-99684761D01*
X175917619Y-99637142D01*
X176012857Y-99494285D01*
X176060476Y-99303809D01*
X176060476Y-98922857D01*
X176012857Y-98827619D01*
X175965238Y-98780000D01*
X175870000Y-98732380D01*
X175679523Y-98732380D01*
X175584285Y-98780000D01*
X175536666Y-98827619D01*
X175489047Y-98922857D01*
X175489047Y-99160952D01*
X175536666Y-99256190D01*
X175584285Y-99303809D01*
X175679523Y-99351428D01*
X175870000Y-99351428D01*
X175965238Y-99303809D01*
X176012857Y-99256190D01*
X176060476Y-99160952D01*
X161233333Y-99732380D02*
X160757142Y-99732380D01*
X160757142Y-98732380D01*
X161709523Y-99160952D02*
X161614285Y-99113333D01*
X161566666Y-99065714D01*
X161519047Y-98970476D01*
X161519047Y-98922857D01*
X161566666Y-98827619D01*
X161614285Y-98780000D01*
X161709523Y-98732380D01*
X161900000Y-98732380D01*
X161995238Y-98780000D01*
X162042857Y-98827619D01*
X162090476Y-98922857D01*
X162090476Y-98970476D01*
X162042857Y-99065714D01*
X161995238Y-99113333D01*
X161900000Y-99160952D01*
X161709523Y-99160952D01*
X161614285Y-99208571D01*
X161566666Y-99256190D01*
X161519047Y-99351428D01*
X161519047Y-99541904D01*
X161566666Y-99637142D01*
X161614285Y-99684761D01*
X161709523Y-99732380D01*
X161900000Y-99732380D01*
X161995238Y-99684761D01*
X162042857Y-99637142D01*
X162090476Y-99541904D01*
X162090476Y-99351428D01*
X162042857Y-99256190D01*
X161995238Y-99208571D01*
X161900000Y-99160952D01*
X178133333Y-95542380D02*
X177657142Y-95542380D01*
X177657142Y-94542380D01*
X178942857Y-94542380D02*
X178466666Y-94542380D01*
X178419047Y-95018571D01*
X178466666Y-94970952D01*
X178561904Y-94923333D01*
X178800000Y-94923333D01*
X178895238Y-94970952D01*
X178942857Y-95018571D01*
X178990476Y-95113809D01*
X178990476Y-95351904D01*
X178942857Y-95447142D01*
X178895238Y-95494761D01*
X178800000Y-95542380D01*
X178561904Y-95542380D01*
X178466666Y-95494761D01*
X178419047Y-95447142D01*
D15*
X200663018Y-89435297D02*
X200663018Y-90007400D01*
X200624878Y-90121821D01*
X200548597Y-90198102D01*
X200434176Y-90236242D01*
X200357896Y-90236242D01*
X201006280Y-89511577D02*
X201044420Y-89473437D01*
X201120701Y-89435297D01*
X201311402Y-89435297D01*
X201387682Y-89473437D01*
X201425823Y-89511577D01*
X201463963Y-89587858D01*
X201463963Y-89664138D01*
X201425823Y-89778559D01*
X200968140Y-90236242D01*
X201463963Y-90236242D01*
X200591333Y-70515619D02*
X200591333Y-71241333D01*
X200542952Y-71386476D01*
X200446190Y-71483238D01*
X200301047Y-71531619D01*
X200204285Y-71531619D01*
X201558952Y-70515619D02*
X201075142Y-70515619D01*
X201026761Y-70999428D01*
X201075142Y-70951047D01*
X201171904Y-70902666D01*
X201413809Y-70902666D01*
X201510571Y-70951047D01*
X201558952Y-70999428D01*
X201607333Y-71096190D01*
X201607333Y-71338095D01*
X201558952Y-71434857D01*
X201510571Y-71483238D01*
X201413809Y-71531619D01*
X201171904Y-71531619D01*
X201075142Y-71483238D01*
X201026761Y-71434857D01*
X168841333Y-70579119D02*
X168841333Y-71304833D01*
X168792952Y-71449976D01*
X168696190Y-71546738D01*
X168551047Y-71595119D01*
X168454285Y-71595119D01*
X169760571Y-70917785D02*
X169760571Y-71595119D01*
X169518666Y-70530738D02*
X169276761Y-71256452D01*
X169905714Y-71256452D01*
X137091333Y-70706119D02*
X137091333Y-71431833D01*
X137042952Y-71576976D01*
X136946190Y-71673738D01*
X136801047Y-71722119D01*
X136704285Y-71722119D01*
X137478380Y-70706119D02*
X138107333Y-70706119D01*
X137768666Y-71093166D01*
X137913809Y-71093166D01*
X138010571Y-71141547D01*
X138058952Y-71189928D01*
X138107333Y-71286690D01*
X138107333Y-71528595D01*
X138058952Y-71625357D01*
X138010571Y-71673738D01*
X137913809Y-71722119D01*
X137623523Y-71722119D01*
X137526761Y-71673738D01*
X137478380Y-71625357D01*
X137091333Y-89317529D02*
X137091333Y-90043243D01*
X137042952Y-90188386D01*
X136946190Y-90285148D01*
X136801047Y-90333529D01*
X136704285Y-90333529D01*
X138107333Y-90333529D02*
X137526761Y-90333529D01*
X137817047Y-90333529D02*
X137817047Y-89317529D01*
X137720285Y-89462671D01*
X137623523Y-89559433D01*
X137526761Y-89607814D01*
D10*
X192103333Y-95542380D02*
X191627142Y-95542380D01*
X191627142Y-94542380D01*
X192341428Y-94542380D02*
X193008095Y-94542380D01*
X192579523Y-95542380D01*
X184093333Y-95287380D02*
X183617142Y-95287380D01*
X183617142Y-94287380D01*
X184855238Y-94287380D02*
X184664761Y-94287380D01*
X184569523Y-94335000D01*
X184521904Y-94382619D01*
X184426666Y-94525476D01*
X184379047Y-94715952D01*
X184379047Y-95096904D01*
X184426666Y-95192142D01*
X184474285Y-95239761D01*
X184569523Y-95287380D01*
X184760000Y-95287380D01*
X184855238Y-95239761D01*
X184902857Y-95192142D01*
X184950476Y-95096904D01*
X184950476Y-94858809D01*
X184902857Y-94763571D01*
X184855238Y-94715952D01*
X184760000Y-94668333D01*
X184569523Y-94668333D01*
X184474285Y-94715952D01*
X184426666Y-94763571D01*
X184379047Y-94858809D01*
X170123333Y-95287380D02*
X169647142Y-95287380D01*
X169647142Y-94287380D01*
X170885238Y-94620714D02*
X170885238Y-95287380D01*
X170647142Y-94239761D02*
X170409047Y-94954047D01*
X171028095Y-94954047D01*
X164163333Y-95287380D02*
X163687142Y-95287380D01*
X163687142Y-94287380D01*
X164401428Y-94287380D02*
X165020476Y-94287380D01*
X164687142Y-94668333D01*
X164830000Y-94668333D01*
X164925238Y-94715952D01*
X164972857Y-94763571D01*
X165020476Y-94858809D01*
X165020476Y-95096904D01*
X164972857Y-95192142D01*
X164925238Y-95239761D01*
X164830000Y-95287380D01*
X164544285Y-95287380D01*
X164449047Y-95239761D01*
X164401428Y-95192142D01*
X156153333Y-95287380D02*
X155677142Y-95287380D01*
X155677142Y-94287380D01*
X156439047Y-94382619D02*
X156486666Y-94335000D01*
X156581904Y-94287380D01*
X156820000Y-94287380D01*
X156915238Y-94335000D01*
X156962857Y-94382619D01*
X157010476Y-94477857D01*
X157010476Y-94573095D01*
X156962857Y-94715952D01*
X156391428Y-95287380D01*
X157010476Y-95287380D01*
X149803333Y-95287380D02*
X149327142Y-95287380D01*
X149327142Y-94287380D01*
X150660476Y-95287380D02*
X150089047Y-95287380D01*
X150374761Y-95287380D02*
X150374761Y-94287380D01*
X150279523Y-94430238D01*
X150184285Y-94525476D01*
X150089047Y-94573095D01*
X187658333Y-95192142D02*
X187610714Y-95239761D01*
X187467857Y-95287380D01*
X187372619Y-95287380D01*
X187229761Y-95239761D01*
X187134523Y-95144523D01*
X187086904Y-95049285D01*
X187039285Y-94858809D01*
X187039285Y-94715952D01*
X187086904Y-94525476D01*
X187134523Y-94430238D01*
X187229761Y-94335000D01*
X187372619Y-94287380D01*
X187467857Y-94287380D01*
X187610714Y-94335000D01*
X187658333Y-94382619D01*
X187991666Y-94287380D02*
X188658333Y-94287380D01*
X188229761Y-95287380D01*
X181553333Y-95192142D02*
X181505714Y-95239761D01*
X181362857Y-95287380D01*
X181267619Y-95287380D01*
X181124761Y-95239761D01*
X181029523Y-95144523D01*
X180981904Y-95049285D01*
X180934285Y-94858809D01*
X180934285Y-94715952D01*
X180981904Y-94525476D01*
X181029523Y-94430238D01*
X181124761Y-94335000D01*
X181267619Y-94287380D01*
X181362857Y-94287380D01*
X181505714Y-94335000D01*
X181553333Y-94382619D01*
X182410476Y-94287380D02*
X182220000Y-94287380D01*
X182124761Y-94335000D01*
X182077142Y-94382619D01*
X181981904Y-94525476D01*
X181934285Y-94715952D01*
X181934285Y-95096904D01*
X181981904Y-95192142D01*
X182029523Y-95239761D01*
X182124761Y-95287380D01*
X182315238Y-95287380D01*
X182410476Y-95239761D01*
X182458095Y-95192142D01*
X182505714Y-95096904D01*
X182505714Y-94858809D01*
X182458095Y-94763571D01*
X182410476Y-94715952D01*
X182315238Y-94668333D01*
X182124761Y-94668333D01*
X182029523Y-94715952D01*
X181981904Y-94763571D01*
X181934285Y-94858809D01*
X173688333Y-95192142D02*
X173640714Y-95239761D01*
X173497857Y-95287380D01*
X173402619Y-95287380D01*
X173259761Y-95239761D01*
X173164523Y-95144523D01*
X173116904Y-95049285D01*
X173069285Y-94858809D01*
X173069285Y-94715952D01*
X173116904Y-94525476D01*
X173164523Y-94430238D01*
X173259761Y-94335000D01*
X173402619Y-94287380D01*
X173497857Y-94287380D01*
X173640714Y-94335000D01*
X173688333Y-94382619D01*
X174593095Y-94287380D02*
X174116904Y-94287380D01*
X174069285Y-94763571D01*
X174116904Y-94715952D01*
X174212142Y-94668333D01*
X174450238Y-94668333D01*
X174545476Y-94715952D01*
X174593095Y-94763571D01*
X174640714Y-94858809D01*
X174640714Y-95096904D01*
X174593095Y-95192142D01*
X174545476Y-95239761D01*
X174450238Y-95287380D01*
X174212142Y-95287380D01*
X174116904Y-95239761D01*
X174069285Y-95192142D01*
X167583333Y-95192142D02*
X167535714Y-95239761D01*
X167392857Y-95287380D01*
X167297619Y-95287380D01*
X167154761Y-95239761D01*
X167059523Y-95144523D01*
X167011904Y-95049285D01*
X166964285Y-94858809D01*
X166964285Y-94715952D01*
X167011904Y-94525476D01*
X167059523Y-94430238D01*
X167154761Y-94335000D01*
X167297619Y-94287380D01*
X167392857Y-94287380D01*
X167535714Y-94335000D01*
X167583333Y-94382619D01*
X168440476Y-94620714D02*
X168440476Y-95287380D01*
X168202380Y-94239761D02*
X167964285Y-94954047D01*
X168583333Y-94954047D01*
X159718333Y-95192142D02*
X159670714Y-95239761D01*
X159527857Y-95287380D01*
X159432619Y-95287380D01*
X159289761Y-95239761D01*
X159194523Y-95144523D01*
X159146904Y-95049285D01*
X159099285Y-94858809D01*
X159099285Y-94715952D01*
X159146904Y-94525476D01*
X159194523Y-94430238D01*
X159289761Y-94335000D01*
X159432619Y-94287380D01*
X159527857Y-94287380D01*
X159670714Y-94335000D01*
X159718333Y-94382619D01*
X160051666Y-94287380D02*
X160670714Y-94287380D01*
X160337380Y-94668333D01*
X160480238Y-94668333D01*
X160575476Y-94715952D01*
X160623095Y-94763571D01*
X160670714Y-94858809D01*
X160670714Y-95096904D01*
X160623095Y-95192142D01*
X160575476Y-95239761D01*
X160480238Y-95287380D01*
X160194523Y-95287380D01*
X160099285Y-95239761D01*
X160051666Y-95192142D01*
X153613333Y-95192142D02*
X153565714Y-95239761D01*
X153422857Y-95287380D01*
X153327619Y-95287380D01*
X153184761Y-95239761D01*
X153089523Y-95144523D01*
X153041904Y-95049285D01*
X152994285Y-94858809D01*
X152994285Y-94715952D01*
X153041904Y-94525476D01*
X153089523Y-94430238D01*
X153184761Y-94335000D01*
X153327619Y-94287380D01*
X153422857Y-94287380D01*
X153565714Y-94335000D01*
X153613333Y-94382619D01*
X153994285Y-94382619D02*
X154041904Y-94335000D01*
X154137142Y-94287380D01*
X154375238Y-94287380D01*
X154470476Y-94335000D01*
X154518095Y-94382619D01*
X154565714Y-94477857D01*
X154565714Y-94573095D01*
X154518095Y-94715952D01*
X153946666Y-95287380D01*
X154565714Y-95287380D01*
X145358333Y-95192142D02*
X145310714Y-95239761D01*
X145167857Y-95287380D01*
X145072619Y-95287380D01*
X144929761Y-95239761D01*
X144834523Y-95144523D01*
X144786904Y-95049285D01*
X144739285Y-94858809D01*
X144739285Y-94715952D01*
X144786904Y-94525476D01*
X144834523Y-94430238D01*
X144929761Y-94335000D01*
X145072619Y-94287380D01*
X145167857Y-94287380D01*
X145310714Y-94335000D01*
X145358333Y-94382619D01*
X146310714Y-95287380D02*
X145739285Y-95287380D01*
X146025000Y-95287380D02*
X146025000Y-94287380D01*
X145929761Y-94430238D01*
X145834523Y-94525476D01*
X145739285Y-94573095D01*
M02*
