M48
; DRILL file {KiCad (5.1.5)-3} date 11/9/2020 10:39:26 PM
; FORMAT={-:-/ absolute / inch / decimal}
; #@! TF.CreationDate,2020-11-09T22:39:26-05:00
; #@! TF.GenerationSoftware,Kicad,Pcbnew,(5.1.5)-3
FMAT,2
INCH
T1C0.0315
T2C0.0315
T3C0.0394
T4C0.0433
T5C0.0472
T6C0.0512
T7C0.0591
T8C0.0630
T9C0.1063
%
G90
G05
T1
X6.2402Y-4.626
X6.3386Y-4.626
X4.4094Y-4.6638
X6.0024Y-4.4291
X6.6024Y-4.4291
X6.3189Y-4.8228
X6.3189Y-5.4228
X4.6756Y-3.9764
X5.2756Y-3.9764
X4.1969Y-4.9134
X4.1969Y-5.0118
X4.7539Y-4.5181
X4.7539Y-5.1181
X4.4094Y-5.2638
T2
X5.4331Y-2.4341
X5.4331Y-2.5591
X5.4331Y-2.6841
T3
X5.5807Y-4.8425
X5.5807Y-4.9425
X5.4724Y-3.9764
X5.5724Y-3.9764
X5.6724Y-3.9764
X5.8661Y-3.9764
X5.9661Y-3.9764
X3.75Y-5.1181
T4
X5.5709Y-3.2055
X5.5709Y-3.4055
X6.4567Y-4.6244
X6.4567Y-4.7244
X6.4567Y-4.8244
X6.6024Y-4.5744
X6.6024Y-4.6744
X6.6024Y-4.7744
X6.6024Y-4.8744
X5.9449Y-3.2087
X5.9449Y-3.4087
X3.9445Y-5.2638
X3.9945Y-5.1181
X4.0445Y-5.2638
X4.0945Y-5.1181
X4.1445Y-5.2638
X4.1945Y-5.1181
X4.2445Y-5.2638
T5
X5.1181Y-2.3228
X5.1181Y-2.4728
T6
X3.9764Y-2.3228
X4.8622Y-2.3228
X5.1744Y-4.8433
X5.1744Y-5.0433
T7
X3.622Y-2.3228
X3.622Y-2.5591
X3.622Y-2.7953
T8
X6.3087Y-2.8937
X5.7283Y-2.5787
X5.9283Y-2.5787
X6.1283Y-2.5787
X6.3283Y-2.5787
X5.7283Y-2.2441
X5.9283Y-2.2441
X6.1283Y-2.2441
X6.3283Y-2.2441
X5.7087Y-2.8937
X5.9087Y-2.8937
X6.1087Y-2.8937
T9
X4.4193Y-2.3228
T0
M30
