G04 #@! TF.GenerationSoftware,KiCad,Pcbnew,(5.1.5)-3*
G04 #@! TF.CreationDate,2020-11-09T22:39:24-05:00*
G04 #@! TF.ProjectId,BridgeRectifier,42726964-6765-4526-9563-746966696572,rev?*
G04 #@! TF.SameCoordinates,Original*
G04 #@! TF.FileFunction,Soldermask,Top*
G04 #@! TF.FilePolarity,Negative*
%FSLAX46Y46*%
G04 Gerber Fmt 4.6, Leading zero omitted, Abs format (unit mm)*
G04 Created by KiCad (PCBNEW (5.1.5)-3) date 2020-11-09 22:39:24*
%MOMM*%
%LPD*%
G04 APERTURE LIST*
%ADD10C,0.100000*%
G04 APERTURE END LIST*
D10*
G36*
X94084468Y-144841065D02*
G01*
X94123138Y-144852796D01*
X94158777Y-144871846D01*
X94190017Y-144897483D01*
X94215654Y-144928723D01*
X94234704Y-144964362D01*
X94246435Y-145003032D01*
X94251000Y-145049388D01*
X94251000Y-145700612D01*
X94246435Y-145746968D01*
X94234704Y-145785638D01*
X94215654Y-145821277D01*
X94190017Y-145852517D01*
X94158777Y-145878154D01*
X94123138Y-145897204D01*
X94084468Y-145908935D01*
X94038112Y-145913500D01*
X92961888Y-145913500D01*
X92915532Y-145908935D01*
X92876862Y-145897204D01*
X92841223Y-145878154D01*
X92809983Y-145852517D01*
X92784346Y-145821277D01*
X92765296Y-145785638D01*
X92753565Y-145746968D01*
X92749000Y-145700612D01*
X92749000Y-145049388D01*
X92753565Y-145003032D01*
X92765296Y-144964362D01*
X92784346Y-144928723D01*
X92809983Y-144897483D01*
X92841223Y-144871846D01*
X92876862Y-144852796D01*
X92915532Y-144841065D01*
X92961888Y-144836500D01*
X94038112Y-144836500D01*
X94084468Y-144841065D01*
G37*
G36*
X110334468Y-144841065D02*
G01*
X110373138Y-144852796D01*
X110408777Y-144871846D01*
X110440017Y-144897483D01*
X110465654Y-144928723D01*
X110484704Y-144964362D01*
X110496435Y-145003032D01*
X110501000Y-145049388D01*
X110501000Y-145700612D01*
X110496435Y-145746968D01*
X110484704Y-145785638D01*
X110465654Y-145821277D01*
X110440017Y-145852517D01*
X110408777Y-145878154D01*
X110373138Y-145897204D01*
X110334468Y-145908935D01*
X110288112Y-145913500D01*
X109211888Y-145913500D01*
X109165532Y-145908935D01*
X109126862Y-145897204D01*
X109091223Y-145878154D01*
X109059983Y-145852517D01*
X109034346Y-145821277D01*
X109015296Y-145785638D01*
X109003565Y-145746968D01*
X108999000Y-145700612D01*
X108999000Y-145049388D01*
X109003565Y-145003032D01*
X109015296Y-144964362D01*
X109034346Y-144928723D01*
X109059983Y-144897483D01*
X109091223Y-144871846D01*
X109126862Y-144852796D01*
X109165532Y-144841065D01*
X109211888Y-144836500D01*
X110288112Y-144836500D01*
X110334468Y-144841065D01*
G37*
G36*
X114834468Y-144841065D02*
G01*
X114873138Y-144852796D01*
X114908777Y-144871846D01*
X114940017Y-144897483D01*
X114965654Y-144928723D01*
X114984704Y-144964362D01*
X114996435Y-145003032D01*
X115001000Y-145049388D01*
X115001000Y-145700612D01*
X114996435Y-145746968D01*
X114984704Y-145785638D01*
X114965654Y-145821277D01*
X114940017Y-145852517D01*
X114908777Y-145878154D01*
X114873138Y-145897204D01*
X114834468Y-145908935D01*
X114788112Y-145913500D01*
X113711888Y-145913500D01*
X113665532Y-145908935D01*
X113626862Y-145897204D01*
X113591223Y-145878154D01*
X113559983Y-145852517D01*
X113534346Y-145821277D01*
X113515296Y-145785638D01*
X113503565Y-145746968D01*
X113499000Y-145700612D01*
X113499000Y-145049388D01*
X113503565Y-145003032D01*
X113515296Y-144964362D01*
X113534346Y-144928723D01*
X113559983Y-144897483D01*
X113591223Y-144871846D01*
X113626862Y-144852796D01*
X113665532Y-144841065D01*
X113711888Y-144836500D01*
X114788112Y-144836500D01*
X114834468Y-144841065D01*
G37*
G36*
X98584468Y-144841065D02*
G01*
X98623138Y-144852796D01*
X98658777Y-144871846D01*
X98690017Y-144897483D01*
X98715654Y-144928723D01*
X98734704Y-144964362D01*
X98746435Y-145003032D01*
X98751000Y-145049388D01*
X98751000Y-145700612D01*
X98746435Y-145746968D01*
X98734704Y-145785638D01*
X98715654Y-145821277D01*
X98690017Y-145852517D01*
X98658777Y-145878154D01*
X98623138Y-145897204D01*
X98584468Y-145908935D01*
X98538112Y-145913500D01*
X97461888Y-145913500D01*
X97415532Y-145908935D01*
X97376862Y-145897204D01*
X97341223Y-145878154D01*
X97309983Y-145852517D01*
X97284346Y-145821277D01*
X97265296Y-145785638D01*
X97253565Y-145746968D01*
X97249000Y-145700612D01*
X97249000Y-145049388D01*
X97253565Y-145003032D01*
X97265296Y-144964362D01*
X97284346Y-144928723D01*
X97309983Y-144897483D01*
X97341223Y-144871846D01*
X97376862Y-144852796D01*
X97415532Y-144841065D01*
X97461888Y-144836500D01*
X98538112Y-144836500D01*
X98584468Y-144841065D01*
G37*
G36*
X94084468Y-142966065D02*
G01*
X94123138Y-142977796D01*
X94158777Y-142996846D01*
X94190017Y-143022483D01*
X94215654Y-143053723D01*
X94234704Y-143089362D01*
X94246435Y-143128032D01*
X94251000Y-143174388D01*
X94251000Y-143825612D01*
X94246435Y-143871968D01*
X94234704Y-143910638D01*
X94215654Y-143946277D01*
X94190017Y-143977517D01*
X94158777Y-144003154D01*
X94123138Y-144022204D01*
X94084468Y-144033935D01*
X94038112Y-144038500D01*
X92961888Y-144038500D01*
X92915532Y-144033935D01*
X92876862Y-144022204D01*
X92841223Y-144003154D01*
X92809983Y-143977517D01*
X92784346Y-143946277D01*
X92765296Y-143910638D01*
X92753565Y-143871968D01*
X92749000Y-143825612D01*
X92749000Y-143174388D01*
X92753565Y-143128032D01*
X92765296Y-143089362D01*
X92784346Y-143053723D01*
X92809983Y-143022483D01*
X92841223Y-142996846D01*
X92876862Y-142977796D01*
X92915532Y-142966065D01*
X92961888Y-142961500D01*
X94038112Y-142961500D01*
X94084468Y-142966065D01*
G37*
G36*
X114834468Y-142966065D02*
G01*
X114873138Y-142977796D01*
X114908777Y-142996846D01*
X114940017Y-143022483D01*
X114965654Y-143053723D01*
X114984704Y-143089362D01*
X114996435Y-143128032D01*
X115001000Y-143174388D01*
X115001000Y-143825612D01*
X114996435Y-143871968D01*
X114984704Y-143910638D01*
X114965654Y-143946277D01*
X114940017Y-143977517D01*
X114908777Y-144003154D01*
X114873138Y-144022204D01*
X114834468Y-144033935D01*
X114788112Y-144038500D01*
X113711888Y-144038500D01*
X113665532Y-144033935D01*
X113626862Y-144022204D01*
X113591223Y-144003154D01*
X113559983Y-143977517D01*
X113534346Y-143946277D01*
X113515296Y-143910638D01*
X113503565Y-143871968D01*
X113499000Y-143825612D01*
X113499000Y-143174388D01*
X113503565Y-143128032D01*
X113515296Y-143089362D01*
X113534346Y-143053723D01*
X113559983Y-143022483D01*
X113591223Y-142996846D01*
X113626862Y-142977796D01*
X113665532Y-142966065D01*
X113711888Y-142961500D01*
X114788112Y-142961500D01*
X114834468Y-142966065D01*
G37*
G36*
X110334468Y-142966065D02*
G01*
X110373138Y-142977796D01*
X110408777Y-142996846D01*
X110440017Y-143022483D01*
X110465654Y-143053723D01*
X110484704Y-143089362D01*
X110496435Y-143128032D01*
X110501000Y-143174388D01*
X110501000Y-143825612D01*
X110496435Y-143871968D01*
X110484704Y-143910638D01*
X110465654Y-143946277D01*
X110440017Y-143977517D01*
X110408777Y-144003154D01*
X110373138Y-144022204D01*
X110334468Y-144033935D01*
X110288112Y-144038500D01*
X109211888Y-144038500D01*
X109165532Y-144033935D01*
X109126862Y-144022204D01*
X109091223Y-144003154D01*
X109059983Y-143977517D01*
X109034346Y-143946277D01*
X109015296Y-143910638D01*
X109003565Y-143871968D01*
X108999000Y-143825612D01*
X108999000Y-143174388D01*
X109003565Y-143128032D01*
X109015296Y-143089362D01*
X109034346Y-143053723D01*
X109059983Y-143022483D01*
X109091223Y-142996846D01*
X109126862Y-142977796D01*
X109165532Y-142966065D01*
X109211888Y-142961500D01*
X110288112Y-142961500D01*
X110334468Y-142966065D01*
G37*
G36*
X98584468Y-142966065D02*
G01*
X98623138Y-142977796D01*
X98658777Y-142996846D01*
X98690017Y-143022483D01*
X98715654Y-143053723D01*
X98734704Y-143089362D01*
X98746435Y-143128032D01*
X98751000Y-143174388D01*
X98751000Y-143825612D01*
X98746435Y-143871968D01*
X98734704Y-143910638D01*
X98715654Y-143946277D01*
X98690017Y-143977517D01*
X98658777Y-144003154D01*
X98623138Y-144022204D01*
X98584468Y-144033935D01*
X98538112Y-144038500D01*
X97461888Y-144038500D01*
X97415532Y-144033935D01*
X97376862Y-144022204D01*
X97341223Y-144003154D01*
X97309983Y-143977517D01*
X97284346Y-143946277D01*
X97265296Y-143910638D01*
X97253565Y-143871968D01*
X97249000Y-143825612D01*
X97249000Y-143174388D01*
X97253565Y-143128032D01*
X97265296Y-143089362D01*
X97284346Y-143053723D01*
X97309983Y-143022483D01*
X97341223Y-142996846D01*
X97376862Y-142977796D01*
X97415532Y-142966065D01*
X97461888Y-142961500D01*
X98538112Y-142961500D01*
X98584468Y-142966065D01*
G37*
G36*
X111259999Y-139949737D02*
G01*
X111274528Y-139954145D01*
X111287711Y-139959606D01*
X111311745Y-139964388D01*
X111336249Y-139964389D01*
X111360282Y-139959609D01*
X111382921Y-139950232D01*
X111384765Y-139949000D01*
X112616050Y-139949000D01*
X112628164Y-139955475D01*
X112651613Y-139962588D01*
X112675999Y-139964990D01*
X112700385Y-139962588D01*
X112723834Y-139955475D01*
X112728746Y-139953152D01*
X112740001Y-139949737D01*
X112756140Y-139948148D01*
X113293861Y-139948148D01*
X113312199Y-139949954D01*
X113324450Y-139950556D01*
X113342869Y-139950556D01*
X113365149Y-139952750D01*
X113449233Y-139969476D01*
X113470660Y-139975976D01*
X113549858Y-140008780D01*
X113555303Y-140011691D01*
X113555309Y-140011693D01*
X113564169Y-140016429D01*
X113564173Y-140016432D01*
X113569614Y-140019340D01*
X113640899Y-140066971D01*
X113658204Y-140081172D01*
X113718828Y-140141796D01*
X113733029Y-140159101D01*
X113780660Y-140230386D01*
X113783568Y-140235827D01*
X113783571Y-140235831D01*
X113788307Y-140244691D01*
X113788309Y-140244697D01*
X113791220Y-140250142D01*
X113824024Y-140329340D01*
X113830524Y-140350767D01*
X113847250Y-140434851D01*
X113849444Y-140457131D01*
X113849444Y-140475550D01*
X113850046Y-140487801D01*
X113851852Y-140506139D01*
X113851852Y-140993862D01*
X113850046Y-141012199D01*
X113849444Y-141024450D01*
X113849444Y-141042869D01*
X113847250Y-141065149D01*
X113830524Y-141149233D01*
X113824024Y-141170660D01*
X113791220Y-141249858D01*
X113788309Y-141255303D01*
X113788307Y-141255309D01*
X113783571Y-141264169D01*
X113783568Y-141264173D01*
X113780660Y-141269614D01*
X113733029Y-141340899D01*
X113718828Y-141358204D01*
X113658204Y-141418828D01*
X113640899Y-141433029D01*
X113569614Y-141480660D01*
X113564173Y-141483568D01*
X113564169Y-141483571D01*
X113555309Y-141488307D01*
X113555303Y-141488309D01*
X113549858Y-141491220D01*
X113470660Y-141524024D01*
X113449233Y-141530524D01*
X113365149Y-141547250D01*
X113342869Y-141549444D01*
X113324450Y-141549444D01*
X113312199Y-141550046D01*
X113293862Y-141551852D01*
X112756140Y-141551852D01*
X112740001Y-141550263D01*
X112725472Y-141545855D01*
X112712289Y-141540394D01*
X112688255Y-141535612D01*
X112663751Y-141535611D01*
X112639718Y-141540391D01*
X112617079Y-141549768D01*
X112615235Y-141551000D01*
X111383950Y-141551000D01*
X111371836Y-141544525D01*
X111348387Y-141537412D01*
X111324001Y-141535010D01*
X111299615Y-141537412D01*
X111276166Y-141544525D01*
X111271254Y-141546848D01*
X111259999Y-141550263D01*
X111243860Y-141551852D01*
X110706138Y-141551852D01*
X110687801Y-141550046D01*
X110675550Y-141549444D01*
X110657131Y-141549444D01*
X110634851Y-141547250D01*
X110550767Y-141530524D01*
X110529340Y-141524024D01*
X110450142Y-141491220D01*
X110444697Y-141488309D01*
X110444691Y-141488307D01*
X110435831Y-141483571D01*
X110435827Y-141483568D01*
X110430386Y-141480660D01*
X110359101Y-141433029D01*
X110341796Y-141418828D01*
X110281172Y-141358204D01*
X110266971Y-141340899D01*
X110219340Y-141269614D01*
X110216432Y-141264173D01*
X110216429Y-141264169D01*
X110211693Y-141255309D01*
X110211691Y-141255303D01*
X110208780Y-141249858D01*
X110175976Y-141170660D01*
X110169476Y-141149233D01*
X110152750Y-141065149D01*
X110150556Y-141042869D01*
X110150556Y-141024450D01*
X110149954Y-141012199D01*
X110148148Y-140993862D01*
X110148148Y-140506139D01*
X110149954Y-140487801D01*
X110150556Y-140475550D01*
X110150556Y-140457131D01*
X110152750Y-140434851D01*
X110169476Y-140350767D01*
X110175976Y-140329340D01*
X110208780Y-140250142D01*
X110211691Y-140244697D01*
X110211693Y-140244691D01*
X110216429Y-140235831D01*
X110216432Y-140235827D01*
X110219340Y-140230386D01*
X110266971Y-140159101D01*
X110281172Y-140141796D01*
X110341796Y-140081172D01*
X110359101Y-140066971D01*
X110430386Y-140019340D01*
X110435827Y-140016432D01*
X110435831Y-140016429D01*
X110444691Y-140011693D01*
X110444697Y-140011691D01*
X110450142Y-140008780D01*
X110529340Y-139975976D01*
X110550767Y-139969476D01*
X110634851Y-139952750D01*
X110657131Y-139950556D01*
X110675550Y-139950556D01*
X110687801Y-139949954D01*
X110706139Y-139948148D01*
X111243860Y-139948148D01*
X111259999Y-139949737D01*
G37*
G36*
X95009999Y-139949737D02*
G01*
X95024528Y-139954145D01*
X95037711Y-139959606D01*
X95061745Y-139964388D01*
X95086249Y-139964389D01*
X95110282Y-139959609D01*
X95132921Y-139950232D01*
X95134765Y-139949000D01*
X96366050Y-139949000D01*
X96378164Y-139955475D01*
X96401613Y-139962588D01*
X96425999Y-139964990D01*
X96450385Y-139962588D01*
X96473834Y-139955475D01*
X96478746Y-139953152D01*
X96490001Y-139949737D01*
X96506140Y-139948148D01*
X97043861Y-139948148D01*
X97062199Y-139949954D01*
X97074450Y-139950556D01*
X97092869Y-139950556D01*
X97115149Y-139952750D01*
X97199233Y-139969476D01*
X97220660Y-139975976D01*
X97299858Y-140008780D01*
X97305303Y-140011691D01*
X97305309Y-140011693D01*
X97314169Y-140016429D01*
X97314173Y-140016432D01*
X97319614Y-140019340D01*
X97390899Y-140066971D01*
X97408204Y-140081172D01*
X97468828Y-140141796D01*
X97483029Y-140159101D01*
X97530660Y-140230386D01*
X97533568Y-140235827D01*
X97533571Y-140235831D01*
X97538307Y-140244691D01*
X97538309Y-140244697D01*
X97541220Y-140250142D01*
X97574024Y-140329340D01*
X97580524Y-140350767D01*
X97597250Y-140434851D01*
X97599444Y-140457131D01*
X97599444Y-140475550D01*
X97600046Y-140487801D01*
X97601852Y-140506139D01*
X97601852Y-140993862D01*
X97600046Y-141012199D01*
X97599444Y-141024450D01*
X97599444Y-141042869D01*
X97597250Y-141065149D01*
X97580524Y-141149233D01*
X97574024Y-141170660D01*
X97541220Y-141249858D01*
X97538309Y-141255303D01*
X97538307Y-141255309D01*
X97533571Y-141264169D01*
X97533568Y-141264173D01*
X97530660Y-141269614D01*
X97483029Y-141340899D01*
X97468828Y-141358204D01*
X97408204Y-141418828D01*
X97390899Y-141433029D01*
X97319614Y-141480660D01*
X97314173Y-141483568D01*
X97314169Y-141483571D01*
X97305309Y-141488307D01*
X97305303Y-141488309D01*
X97299858Y-141491220D01*
X97220660Y-141524024D01*
X97199233Y-141530524D01*
X97115149Y-141547250D01*
X97092869Y-141549444D01*
X97074450Y-141549444D01*
X97062199Y-141550046D01*
X97043862Y-141551852D01*
X96506140Y-141551852D01*
X96490001Y-141550263D01*
X96475472Y-141545855D01*
X96462289Y-141540394D01*
X96438255Y-141535612D01*
X96413751Y-141535611D01*
X96389718Y-141540391D01*
X96367079Y-141549768D01*
X96365235Y-141551000D01*
X95133950Y-141551000D01*
X95121836Y-141544525D01*
X95098387Y-141537412D01*
X95074001Y-141535010D01*
X95049615Y-141537412D01*
X95026166Y-141544525D01*
X95021254Y-141546848D01*
X95009999Y-141550263D01*
X94993860Y-141551852D01*
X94456138Y-141551852D01*
X94437801Y-141550046D01*
X94425550Y-141549444D01*
X94407131Y-141549444D01*
X94384851Y-141547250D01*
X94300767Y-141530524D01*
X94279340Y-141524024D01*
X94200142Y-141491220D01*
X94194697Y-141488309D01*
X94194691Y-141488307D01*
X94185831Y-141483571D01*
X94185827Y-141483568D01*
X94180386Y-141480660D01*
X94109101Y-141433029D01*
X94091796Y-141418828D01*
X94031172Y-141358204D01*
X94016971Y-141340899D01*
X93969340Y-141269614D01*
X93966432Y-141264173D01*
X93966429Y-141264169D01*
X93961693Y-141255309D01*
X93961691Y-141255303D01*
X93958780Y-141249858D01*
X93925976Y-141170660D01*
X93919476Y-141149233D01*
X93902750Y-141065149D01*
X93900556Y-141042869D01*
X93900556Y-141024450D01*
X93899954Y-141012199D01*
X93898148Y-140993862D01*
X93898148Y-140506138D01*
X93899954Y-140487801D01*
X93900556Y-140475550D01*
X93900556Y-140457131D01*
X93902750Y-140434851D01*
X93919476Y-140350767D01*
X93925976Y-140329340D01*
X93958780Y-140250142D01*
X93961691Y-140244697D01*
X93961693Y-140244691D01*
X93966429Y-140235831D01*
X93966432Y-140235827D01*
X93969340Y-140230386D01*
X94016971Y-140159101D01*
X94031172Y-140141796D01*
X94091796Y-140081172D01*
X94109101Y-140066971D01*
X94180386Y-140019340D01*
X94185827Y-140016432D01*
X94185831Y-140016429D01*
X94194691Y-140011693D01*
X94194697Y-140011691D01*
X94200142Y-140008780D01*
X94279340Y-139975976D01*
X94300767Y-139969476D01*
X94384851Y-139952750D01*
X94407131Y-139950556D01*
X94425550Y-139950556D01*
X94437801Y-139949954D01*
X94456139Y-139948148D01*
X94993860Y-139948148D01*
X95009999Y-139949737D01*
G37*
G36*
X160748228Y-136921703D02*
G01*
X160903100Y-136985853D01*
X161042481Y-137078985D01*
X161161015Y-137197519D01*
X161254147Y-137336900D01*
X161318297Y-137491772D01*
X161351000Y-137656184D01*
X161351000Y-137823816D01*
X161318297Y-137988228D01*
X161254147Y-138143100D01*
X161161015Y-138282481D01*
X161042481Y-138401015D01*
X160903100Y-138494147D01*
X160748228Y-138558297D01*
X160583816Y-138591000D01*
X160416184Y-138591000D01*
X160251772Y-138558297D01*
X160096900Y-138494147D01*
X159957519Y-138401015D01*
X159838985Y-138282481D01*
X159745853Y-138143100D01*
X159681703Y-137988228D01*
X159649000Y-137823816D01*
X159649000Y-137656184D01*
X159681703Y-137491772D01*
X159745853Y-137336900D01*
X159838985Y-137197519D01*
X159957519Y-137078985D01*
X160096900Y-136985853D01*
X160251772Y-136921703D01*
X160416184Y-136889000D01*
X160583816Y-136889000D01*
X160748228Y-136921703D01*
G37*
G36*
X100467395Y-132785546D02*
G01*
X100640466Y-132857234D01*
X100640467Y-132857235D01*
X100796227Y-132961310D01*
X100928690Y-133093773D01*
X100971284Y-133157520D01*
X101032766Y-133249534D01*
X101104454Y-133422605D01*
X101141000Y-133606333D01*
X101141000Y-133793667D01*
X101104454Y-133977395D01*
X101032766Y-134150466D01*
X101032765Y-134150467D01*
X100928690Y-134306227D01*
X100796227Y-134438690D01*
X100773092Y-134454148D01*
X100640466Y-134542766D01*
X100467395Y-134614454D01*
X100283667Y-134651000D01*
X100096333Y-134651000D01*
X99912605Y-134614454D01*
X99739534Y-134542766D01*
X99606908Y-134454148D01*
X99583773Y-134438690D01*
X99451310Y-134306227D01*
X99347235Y-134150467D01*
X99347234Y-134150466D01*
X99275546Y-133977395D01*
X99239000Y-133793667D01*
X99239000Y-133606333D01*
X99275546Y-133422605D01*
X99347234Y-133249534D01*
X99408716Y-133157520D01*
X99451310Y-133093773D01*
X99583773Y-132961310D01*
X99739533Y-132857235D01*
X99739534Y-132857234D01*
X99912605Y-132785546D01*
X100096333Y-132749000D01*
X100283667Y-132749000D01*
X100467395Y-132785546D01*
G37*
G36*
X103007395Y-132785546D02*
G01*
X103180466Y-132857234D01*
X103180467Y-132857235D01*
X103336227Y-132961310D01*
X103468690Y-133093773D01*
X103511284Y-133157520D01*
X103572766Y-133249534D01*
X103644454Y-133422605D01*
X103681000Y-133606333D01*
X103681000Y-133793667D01*
X103644454Y-133977395D01*
X103572766Y-134150466D01*
X103572765Y-134150467D01*
X103468690Y-134306227D01*
X103336227Y-134438690D01*
X103313092Y-134454148D01*
X103180466Y-134542766D01*
X103007395Y-134614454D01*
X102823667Y-134651000D01*
X102636333Y-134651000D01*
X102452605Y-134614454D01*
X102279534Y-134542766D01*
X102146908Y-134454148D01*
X102123773Y-134438690D01*
X101991310Y-134306227D01*
X101887235Y-134150467D01*
X101887234Y-134150466D01*
X101815546Y-133977395D01*
X101779000Y-133793667D01*
X101779000Y-133606333D01*
X101815546Y-133422605D01*
X101887234Y-133249534D01*
X101948716Y-133157520D01*
X101991310Y-133093773D01*
X102123773Y-132961310D01*
X102279533Y-132857235D01*
X102279534Y-132857234D01*
X102452605Y-132785546D01*
X102636333Y-132749000D01*
X102823667Y-132749000D01*
X103007395Y-132785546D01*
G37*
G36*
X105547395Y-132785546D02*
G01*
X105720466Y-132857234D01*
X105720467Y-132857235D01*
X105876227Y-132961310D01*
X106008690Y-133093773D01*
X106051284Y-133157520D01*
X106112766Y-133249534D01*
X106184454Y-133422605D01*
X106221000Y-133606333D01*
X106221000Y-133793667D01*
X106184454Y-133977395D01*
X106112766Y-134150466D01*
X106112765Y-134150467D01*
X106008690Y-134306227D01*
X105876227Y-134438690D01*
X105853092Y-134454148D01*
X105720466Y-134542766D01*
X105547395Y-134614454D01*
X105363667Y-134651000D01*
X105176333Y-134651000D01*
X104992605Y-134614454D01*
X104819534Y-134542766D01*
X104686908Y-134454148D01*
X104663773Y-134438690D01*
X104531310Y-134306227D01*
X104427235Y-134150467D01*
X104427234Y-134150466D01*
X104355546Y-133977395D01*
X104319000Y-133793667D01*
X104319000Y-133606333D01*
X104355546Y-133422605D01*
X104427234Y-133249534D01*
X104488716Y-133157520D01*
X104531310Y-133093773D01*
X104663773Y-132961310D01*
X104819533Y-132857235D01*
X104819534Y-132857234D01*
X104992605Y-132785546D01*
X105176333Y-132749000D01*
X105363667Y-132749000D01*
X105547395Y-132785546D01*
G37*
G36*
X108761000Y-134651000D02*
G01*
X106859000Y-134651000D01*
X106859000Y-132749000D01*
X108761000Y-132749000D01*
X108761000Y-134651000D01*
G37*
G36*
X112248228Y-132881703D02*
G01*
X112403100Y-132945853D01*
X112542481Y-133038985D01*
X112661015Y-133157519D01*
X112754147Y-133296900D01*
X112818297Y-133451772D01*
X112851000Y-133616184D01*
X112851000Y-133783816D01*
X112818297Y-133948228D01*
X112754147Y-134103100D01*
X112661015Y-134242481D01*
X112542481Y-134361015D01*
X112403100Y-134454147D01*
X112248228Y-134518297D01*
X112083816Y-134551000D01*
X111916184Y-134551000D01*
X111751772Y-134518297D01*
X111596900Y-134454147D01*
X111457519Y-134361015D01*
X111338985Y-134242481D01*
X111245853Y-134103100D01*
X111181703Y-133948228D01*
X111149000Y-133783816D01*
X111149000Y-133616184D01*
X111181703Y-133451772D01*
X111245853Y-133296900D01*
X111338985Y-133157519D01*
X111457519Y-133038985D01*
X111596900Y-132945853D01*
X111751772Y-132881703D01*
X111916184Y-132849000D01*
X112083816Y-132849000D01*
X112248228Y-132881703D01*
G37*
G36*
X173334468Y-132341065D02*
G01*
X173373138Y-132352796D01*
X173408777Y-132371846D01*
X173440017Y-132397483D01*
X173465654Y-132428723D01*
X173484704Y-132464362D01*
X173496435Y-132503032D01*
X173501000Y-132549388D01*
X173501000Y-133200612D01*
X173496435Y-133246968D01*
X173484704Y-133285638D01*
X173465654Y-133321277D01*
X173440017Y-133352517D01*
X173408777Y-133378154D01*
X173373138Y-133397204D01*
X173334468Y-133408935D01*
X173288112Y-133413500D01*
X172211888Y-133413500D01*
X172165532Y-133408935D01*
X172126862Y-133397204D01*
X172091223Y-133378154D01*
X172059983Y-133352517D01*
X172034346Y-133321277D01*
X172015296Y-133285638D01*
X172003565Y-133246968D01*
X171999000Y-133200612D01*
X171999000Y-132549388D01*
X172003565Y-132503032D01*
X172015296Y-132464362D01*
X172034346Y-132428723D01*
X172059983Y-132397483D01*
X172091223Y-132371846D01*
X172126862Y-132352796D01*
X172165532Y-132341065D01*
X172211888Y-132336500D01*
X173288112Y-132336500D01*
X173334468Y-132341065D01*
G37*
G36*
X177834468Y-132341065D02*
G01*
X177873138Y-132352796D01*
X177908777Y-132371846D01*
X177940017Y-132397483D01*
X177965654Y-132428723D01*
X177984704Y-132464362D01*
X177996435Y-132503032D01*
X178001000Y-132549388D01*
X178001000Y-133200612D01*
X177996435Y-133246968D01*
X177984704Y-133285638D01*
X177965654Y-133321277D01*
X177940017Y-133352517D01*
X177908777Y-133378154D01*
X177873138Y-133397204D01*
X177834468Y-133408935D01*
X177788112Y-133413500D01*
X176711888Y-133413500D01*
X176665532Y-133408935D01*
X176626862Y-133397204D01*
X176591223Y-133378154D01*
X176559983Y-133352517D01*
X176534346Y-133321277D01*
X176515296Y-133285638D01*
X176503565Y-133246968D01*
X176499000Y-133200612D01*
X176499000Y-132549388D01*
X176503565Y-132503032D01*
X176515296Y-132464362D01*
X176534346Y-132428723D01*
X176559983Y-132397483D01*
X176591223Y-132371846D01*
X176626862Y-132352796D01*
X176665532Y-132341065D01*
X176711888Y-132336500D01*
X177788112Y-132336500D01*
X177834468Y-132341065D01*
G37*
G36*
X177834468Y-130466065D02*
G01*
X177873138Y-130477796D01*
X177908777Y-130496846D01*
X177940017Y-130522483D01*
X177965654Y-130553723D01*
X177984704Y-130589362D01*
X177996435Y-130628032D01*
X178001000Y-130674388D01*
X178001000Y-131325612D01*
X177996435Y-131371968D01*
X177984704Y-131410638D01*
X177965654Y-131446277D01*
X177940017Y-131477517D01*
X177908777Y-131503154D01*
X177873138Y-131522204D01*
X177834468Y-131533935D01*
X177788112Y-131538500D01*
X176711888Y-131538500D01*
X176665532Y-131533935D01*
X176626862Y-131522204D01*
X176591223Y-131503154D01*
X176559983Y-131477517D01*
X176534346Y-131446277D01*
X176515296Y-131410638D01*
X176503565Y-131371968D01*
X176499000Y-131325612D01*
X176499000Y-130674388D01*
X176503565Y-130628032D01*
X176515296Y-130589362D01*
X176534346Y-130553723D01*
X176559983Y-130522483D01*
X176591223Y-130496846D01*
X176626862Y-130477796D01*
X176665532Y-130466065D01*
X176711888Y-130461500D01*
X177788112Y-130461500D01*
X177834468Y-130466065D01*
G37*
G36*
X173334468Y-130466065D02*
G01*
X173373138Y-130477796D01*
X173408777Y-130496846D01*
X173440017Y-130522483D01*
X173465654Y-130553723D01*
X173484704Y-130589362D01*
X173496435Y-130628032D01*
X173501000Y-130674388D01*
X173501000Y-131325612D01*
X173496435Y-131371968D01*
X173484704Y-131410638D01*
X173465654Y-131446277D01*
X173440017Y-131477517D01*
X173408777Y-131503154D01*
X173373138Y-131522204D01*
X173334468Y-131533935D01*
X173288112Y-131538500D01*
X172211888Y-131538500D01*
X172165532Y-131533935D01*
X172126862Y-131522204D01*
X172091223Y-131503154D01*
X172059983Y-131477517D01*
X172034346Y-131446277D01*
X172015296Y-131410638D01*
X172003565Y-131371968D01*
X171999000Y-131325612D01*
X171999000Y-130674388D01*
X172003565Y-130628032D01*
X172015296Y-130589362D01*
X172034346Y-130553723D01*
X172059983Y-130522483D01*
X172091223Y-130496846D01*
X172126862Y-130477796D01*
X172165532Y-130466065D01*
X172211888Y-130461500D01*
X173288112Y-130461500D01*
X173334468Y-130466065D01*
G37*
G36*
X101737395Y-129085546D02*
G01*
X101910466Y-129157234D01*
X101933675Y-129172742D01*
X102066227Y-129261310D01*
X102198690Y-129393773D01*
X102241284Y-129457520D01*
X102302766Y-129549534D01*
X102374454Y-129722605D01*
X102411000Y-129906333D01*
X102411000Y-130093667D01*
X102374454Y-130277395D01*
X102302766Y-130450466D01*
X102281699Y-130481995D01*
X102198690Y-130606227D01*
X102066227Y-130738690D01*
X102043092Y-130754148D01*
X101910466Y-130842766D01*
X101737395Y-130914454D01*
X101553667Y-130951000D01*
X101366333Y-130951000D01*
X101182605Y-130914454D01*
X101009534Y-130842766D01*
X100876908Y-130754148D01*
X100853773Y-130738690D01*
X100721310Y-130606227D01*
X100638301Y-130481995D01*
X100617234Y-130450466D01*
X100545546Y-130277395D01*
X100509000Y-130093667D01*
X100509000Y-129906333D01*
X100545546Y-129722605D01*
X100617234Y-129549534D01*
X100678716Y-129457520D01*
X100721310Y-129393773D01*
X100853773Y-129261310D01*
X100986325Y-129172742D01*
X101009534Y-129157234D01*
X101182605Y-129085546D01*
X101366333Y-129049000D01*
X101553667Y-129049000D01*
X101737395Y-129085546D01*
G37*
G36*
X106817395Y-129085546D02*
G01*
X106990466Y-129157234D01*
X107013675Y-129172742D01*
X107146227Y-129261310D01*
X107278690Y-129393773D01*
X107321284Y-129457520D01*
X107382766Y-129549534D01*
X107454454Y-129722605D01*
X107491000Y-129906333D01*
X107491000Y-130093667D01*
X107454454Y-130277395D01*
X107382766Y-130450466D01*
X107361699Y-130481995D01*
X107278690Y-130606227D01*
X107146227Y-130738690D01*
X107123092Y-130754148D01*
X106990466Y-130842766D01*
X106817395Y-130914454D01*
X106633667Y-130951000D01*
X106446333Y-130951000D01*
X106262605Y-130914454D01*
X106089534Y-130842766D01*
X105956908Y-130754148D01*
X105933773Y-130738690D01*
X105801310Y-130606227D01*
X105718301Y-130481995D01*
X105697234Y-130450466D01*
X105625546Y-130277395D01*
X105589000Y-130093667D01*
X105589000Y-129906333D01*
X105625546Y-129722605D01*
X105697234Y-129549534D01*
X105758716Y-129457520D01*
X105801310Y-129393773D01*
X105933773Y-129261310D01*
X106066325Y-129172742D01*
X106089534Y-129157234D01*
X106262605Y-129085546D01*
X106446333Y-129049000D01*
X106633667Y-129049000D01*
X106817395Y-129085546D01*
G37*
G36*
X104277395Y-129085546D02*
G01*
X104450466Y-129157234D01*
X104473675Y-129172742D01*
X104606227Y-129261310D01*
X104738690Y-129393773D01*
X104781284Y-129457520D01*
X104842766Y-129549534D01*
X104914454Y-129722605D01*
X104951000Y-129906333D01*
X104951000Y-130093667D01*
X104914454Y-130277395D01*
X104842766Y-130450466D01*
X104821699Y-130481995D01*
X104738690Y-130606227D01*
X104606227Y-130738690D01*
X104583092Y-130754148D01*
X104450466Y-130842766D01*
X104277395Y-130914454D01*
X104093667Y-130951000D01*
X103906333Y-130951000D01*
X103722605Y-130914454D01*
X103549534Y-130842766D01*
X103416908Y-130754148D01*
X103393773Y-130738690D01*
X103261310Y-130606227D01*
X103178301Y-130481995D01*
X103157234Y-130450466D01*
X103085546Y-130277395D01*
X103049000Y-130093667D01*
X103049000Y-129906333D01*
X103085546Y-129722605D01*
X103157234Y-129549534D01*
X103218716Y-129457520D01*
X103261310Y-129393773D01*
X103393773Y-129261310D01*
X103526325Y-129172742D01*
X103549534Y-129157234D01*
X103722605Y-129085546D01*
X103906333Y-129049000D01*
X104093667Y-129049000D01*
X104277395Y-129085546D01*
G37*
G36*
X96151000Y-130901000D02*
G01*
X94349000Y-130901000D01*
X94349000Y-129099000D01*
X96151000Y-129099000D01*
X96151000Y-130901000D01*
G37*
G36*
X120998228Y-129181703D02*
G01*
X121153100Y-129245853D01*
X121292481Y-129338985D01*
X121411015Y-129457519D01*
X121504147Y-129596900D01*
X121568297Y-129751772D01*
X121601000Y-129916184D01*
X121601000Y-130083816D01*
X121568297Y-130248228D01*
X121504147Y-130403100D01*
X121411015Y-130542481D01*
X121292481Y-130661015D01*
X121153100Y-130754147D01*
X120998228Y-130818297D01*
X120833816Y-130851000D01*
X120666184Y-130851000D01*
X120501772Y-130818297D01*
X120346900Y-130754147D01*
X120207519Y-130661015D01*
X120088985Y-130542481D01*
X119995853Y-130403100D01*
X119931703Y-130248228D01*
X119899000Y-130083816D01*
X119899000Y-129916184D01*
X119931703Y-129751772D01*
X119995853Y-129596900D01*
X120088985Y-129457519D01*
X120207519Y-129338985D01*
X120346900Y-129245853D01*
X120501772Y-129181703D01*
X120666184Y-129149000D01*
X120833816Y-129149000D01*
X120998228Y-129181703D01*
G37*
G36*
X131824072Y-126800918D02*
G01*
X132055802Y-126896903D01*
X132069939Y-126902759D01*
X132153139Y-126958352D01*
X132291211Y-127050609D01*
X132479391Y-127238789D01*
X132627242Y-127460063D01*
X132729082Y-127705928D01*
X132781000Y-127966937D01*
X132781000Y-128233063D01*
X132779620Y-128240002D01*
X132729082Y-128494072D01*
X132627241Y-128739939D01*
X132620518Y-128750000D01*
X132479391Y-128961211D01*
X132291211Y-129149391D01*
X132256264Y-129172742D01*
X132069939Y-129297241D01*
X132069938Y-129297242D01*
X132069937Y-129297242D01*
X131824072Y-129399082D01*
X131563063Y-129451000D01*
X131296937Y-129451000D01*
X131035928Y-129399082D01*
X130790063Y-129297242D01*
X130790062Y-129297242D01*
X130790061Y-129297241D01*
X130603736Y-129172742D01*
X130568789Y-129149391D01*
X130380609Y-128961211D01*
X130239482Y-128750000D01*
X130232759Y-128739939D01*
X130130918Y-128494072D01*
X130080380Y-128240002D01*
X130079000Y-128233063D01*
X130079000Y-127966937D01*
X130130918Y-127705928D01*
X130232758Y-127460063D01*
X130380609Y-127238789D01*
X130568789Y-127050609D01*
X130706861Y-126958352D01*
X130790061Y-126902759D01*
X130804199Y-126896903D01*
X131035928Y-126800918D01*
X131296937Y-126749000D01*
X131563063Y-126749000D01*
X131824072Y-126800918D01*
G37*
G36*
X174259999Y-127699737D02*
G01*
X174274528Y-127704145D01*
X174287711Y-127709606D01*
X174311745Y-127714388D01*
X174336249Y-127714389D01*
X174360282Y-127709609D01*
X174382921Y-127700232D01*
X174384765Y-127699000D01*
X175616050Y-127699000D01*
X175628164Y-127705475D01*
X175651613Y-127712588D01*
X175675999Y-127714990D01*
X175700385Y-127712588D01*
X175723834Y-127705475D01*
X175728746Y-127703152D01*
X175740001Y-127699737D01*
X175756140Y-127698148D01*
X176293861Y-127698148D01*
X176312199Y-127699954D01*
X176324450Y-127700556D01*
X176342869Y-127700556D01*
X176365149Y-127702750D01*
X176449233Y-127719476D01*
X176470660Y-127725976D01*
X176549858Y-127758780D01*
X176555303Y-127761691D01*
X176555309Y-127761693D01*
X176564169Y-127766429D01*
X176564173Y-127766432D01*
X176569614Y-127769340D01*
X176640899Y-127816971D01*
X176658204Y-127831172D01*
X176718828Y-127891796D01*
X176733029Y-127909101D01*
X176780660Y-127980386D01*
X176783568Y-127985827D01*
X176783571Y-127985831D01*
X176788307Y-127994691D01*
X176788309Y-127994697D01*
X176791220Y-128000142D01*
X176824024Y-128079340D01*
X176830524Y-128100767D01*
X176847250Y-128184851D01*
X176849444Y-128207131D01*
X176849444Y-128225550D01*
X176850046Y-128237801D01*
X176851852Y-128256139D01*
X176851852Y-128743862D01*
X176850046Y-128762199D01*
X176849444Y-128774450D01*
X176849444Y-128792869D01*
X176847250Y-128815149D01*
X176830524Y-128899233D01*
X176824024Y-128920660D01*
X176791220Y-128999858D01*
X176788309Y-129005303D01*
X176788307Y-129005309D01*
X176783571Y-129014169D01*
X176783568Y-129014173D01*
X176780660Y-129019614D01*
X176733029Y-129090899D01*
X176718828Y-129108204D01*
X176658204Y-129168828D01*
X176640899Y-129183029D01*
X176569614Y-129230660D01*
X176564173Y-129233568D01*
X176564169Y-129233571D01*
X176555309Y-129238307D01*
X176555303Y-129238309D01*
X176549858Y-129241220D01*
X176470660Y-129274024D01*
X176449233Y-129280524D01*
X176365149Y-129297250D01*
X176342869Y-129299444D01*
X176324450Y-129299444D01*
X176312199Y-129300046D01*
X176293862Y-129301852D01*
X175756140Y-129301852D01*
X175740001Y-129300263D01*
X175725472Y-129295855D01*
X175712289Y-129290394D01*
X175688255Y-129285612D01*
X175663751Y-129285611D01*
X175639718Y-129290391D01*
X175617079Y-129299768D01*
X175615235Y-129301000D01*
X174383950Y-129301000D01*
X174371836Y-129294525D01*
X174348387Y-129287412D01*
X174324001Y-129285010D01*
X174299615Y-129287412D01*
X174276166Y-129294525D01*
X174271254Y-129296848D01*
X174259999Y-129300263D01*
X174243860Y-129301852D01*
X173706138Y-129301852D01*
X173687801Y-129300046D01*
X173675550Y-129299444D01*
X173657131Y-129299444D01*
X173634851Y-129297250D01*
X173550767Y-129280524D01*
X173529340Y-129274024D01*
X173450142Y-129241220D01*
X173444697Y-129238309D01*
X173444691Y-129238307D01*
X173435831Y-129233571D01*
X173435827Y-129233568D01*
X173430386Y-129230660D01*
X173359101Y-129183029D01*
X173341796Y-129168828D01*
X173281172Y-129108204D01*
X173266971Y-129090899D01*
X173219340Y-129019614D01*
X173216432Y-129014173D01*
X173216429Y-129014169D01*
X173211693Y-129005309D01*
X173211691Y-129005303D01*
X173208780Y-128999858D01*
X173175976Y-128920660D01*
X173169476Y-128899233D01*
X173152750Y-128815149D01*
X173150556Y-128792869D01*
X173150556Y-128774450D01*
X173149954Y-128762199D01*
X173148148Y-128743862D01*
X173148148Y-128256139D01*
X173149954Y-128237801D01*
X173150556Y-128225550D01*
X173150556Y-128207131D01*
X173152750Y-128184851D01*
X173169476Y-128100767D01*
X173175976Y-128079340D01*
X173208780Y-128000142D01*
X173211691Y-127994697D01*
X173211693Y-127994691D01*
X173216429Y-127985831D01*
X173216432Y-127985827D01*
X173219340Y-127980386D01*
X173266971Y-127909101D01*
X173281172Y-127891796D01*
X173341796Y-127831172D01*
X173359101Y-127816971D01*
X173430386Y-127769340D01*
X173435827Y-127766432D01*
X173435831Y-127766429D01*
X173444691Y-127761693D01*
X173444697Y-127761691D01*
X173450142Y-127758780D01*
X173529340Y-127725976D01*
X173550767Y-127719476D01*
X173634851Y-127702750D01*
X173657131Y-127700556D01*
X173675550Y-127700556D01*
X173687801Y-127699954D01*
X173706139Y-127698148D01*
X174243860Y-127698148D01*
X174259999Y-127699737D01*
G37*
G36*
X106848228Y-126481703D02*
G01*
X107003100Y-126545853D01*
X107142481Y-126638985D01*
X107261015Y-126757519D01*
X107354147Y-126896900D01*
X107418297Y-127051772D01*
X107451000Y-127216184D01*
X107451000Y-127383816D01*
X107418297Y-127548228D01*
X107354147Y-127703100D01*
X107261015Y-127842481D01*
X107142481Y-127961015D01*
X107003100Y-128054147D01*
X106848228Y-128118297D01*
X106683816Y-128151000D01*
X106516184Y-128151000D01*
X106351772Y-128118297D01*
X106196900Y-128054147D01*
X106057519Y-127961015D01*
X105938985Y-127842481D01*
X105845853Y-127703100D01*
X105781703Y-127548228D01*
X105749000Y-127383816D01*
X105749000Y-127216184D01*
X105781703Y-127051772D01*
X105845853Y-126896900D01*
X105938985Y-126757519D01*
X106057519Y-126638985D01*
X106196900Y-126545853D01*
X106351772Y-126481703D01*
X106516184Y-126449000D01*
X106683816Y-126449000D01*
X106848228Y-126481703D01*
G37*
G36*
X138018604Y-126628347D02*
G01*
X138055144Y-126639432D01*
X138088821Y-126657433D01*
X138118341Y-126681659D01*
X138142567Y-126711179D01*
X138160568Y-126744856D01*
X138171653Y-126781396D01*
X138176000Y-126825538D01*
X138176000Y-127774462D01*
X138171653Y-127818604D01*
X138160568Y-127855144D01*
X138142567Y-127888821D01*
X138118341Y-127918341D01*
X138088821Y-127942567D01*
X138055144Y-127960568D01*
X138018604Y-127971653D01*
X137974462Y-127976000D01*
X135625538Y-127976000D01*
X135581396Y-127971653D01*
X135544856Y-127960568D01*
X135511179Y-127942567D01*
X135481659Y-127918341D01*
X135457433Y-127888821D01*
X135439432Y-127855144D01*
X135428347Y-127818604D01*
X135424000Y-127774462D01*
X135424000Y-126825538D01*
X135428347Y-126781396D01*
X135439432Y-126744856D01*
X135457433Y-126711179D01*
X135481659Y-126681659D01*
X135511179Y-126657433D01*
X135544856Y-126639432D01*
X135581396Y-126628347D01*
X135625538Y-126624000D01*
X137974462Y-126624000D01*
X138018604Y-126628347D01*
G37*
G36*
X102718604Y-125828347D02*
G01*
X102755144Y-125839432D01*
X102788821Y-125857433D01*
X102818341Y-125881659D01*
X102842567Y-125911179D01*
X102860568Y-125944856D01*
X102871653Y-125981396D01*
X102876000Y-126025538D01*
X102876000Y-126974462D01*
X102871653Y-127018604D01*
X102860568Y-127055144D01*
X102842567Y-127088821D01*
X102818341Y-127118341D01*
X102788821Y-127142567D01*
X102755144Y-127160568D01*
X102718604Y-127171653D01*
X102674462Y-127176000D01*
X100325538Y-127176000D01*
X100281396Y-127171653D01*
X100244856Y-127160568D01*
X100211179Y-127142567D01*
X100181659Y-127118341D01*
X100157433Y-127088821D01*
X100139432Y-127055144D01*
X100128347Y-127018604D01*
X100124000Y-126974462D01*
X100124000Y-126025538D01*
X100128347Y-125981396D01*
X100139432Y-125944856D01*
X100157433Y-125911179D01*
X100181659Y-125881659D01*
X100211179Y-125857433D01*
X100244856Y-125839432D01*
X100281396Y-125828347D01*
X100325538Y-125824000D01*
X102674462Y-125824000D01*
X102718604Y-125828347D01*
G37*
G36*
X141863512Y-124643927D02*
G01*
X142012812Y-124673624D01*
X142176784Y-124741544D01*
X142324354Y-124840147D01*
X142449853Y-124965646D01*
X142548456Y-125113216D01*
X142616376Y-125277188D01*
X142651000Y-125451259D01*
X142651000Y-125628741D01*
X142616376Y-125802812D01*
X142548456Y-125966784D01*
X142449853Y-126114354D01*
X142324354Y-126239853D01*
X142176784Y-126338456D01*
X142012812Y-126406376D01*
X141863512Y-126436073D01*
X141838742Y-126441000D01*
X141661258Y-126441000D01*
X141636488Y-126436073D01*
X141487188Y-126406376D01*
X141323216Y-126338456D01*
X141175646Y-126239853D01*
X141050147Y-126114354D01*
X140951544Y-125966784D01*
X140883624Y-125802812D01*
X140849000Y-125628741D01*
X140849000Y-125451259D01*
X140883624Y-125277188D01*
X140951544Y-125113216D01*
X141050147Y-124965646D01*
X141175646Y-124840147D01*
X141323216Y-124741544D01*
X141487188Y-124673624D01*
X141636488Y-124643927D01*
X141661258Y-124639000D01*
X141838742Y-124639000D01*
X141863512Y-124643927D01*
G37*
G36*
X106848228Y-123981703D02*
G01*
X107003100Y-124045853D01*
X107142481Y-124138985D01*
X107261015Y-124257519D01*
X107354147Y-124396900D01*
X107418297Y-124551772D01*
X107451000Y-124716184D01*
X107451000Y-124883816D01*
X107418297Y-125048228D01*
X107354147Y-125203100D01*
X107261015Y-125342481D01*
X107142481Y-125461015D01*
X107003100Y-125554147D01*
X106848228Y-125618297D01*
X106683816Y-125651000D01*
X106516184Y-125651000D01*
X106351772Y-125618297D01*
X106196900Y-125554147D01*
X106057519Y-125461015D01*
X105938985Y-125342481D01*
X105845853Y-125203100D01*
X105781703Y-125048228D01*
X105749000Y-124883816D01*
X105749000Y-124716184D01*
X105781703Y-124551772D01*
X105845853Y-124396900D01*
X105938985Y-124257519D01*
X106057519Y-124138985D01*
X106196900Y-124045853D01*
X106351772Y-123981703D01*
X106516184Y-123949000D01*
X106683816Y-123949000D01*
X106848228Y-123981703D01*
G37*
G36*
X138018604Y-123828347D02*
G01*
X138055144Y-123839432D01*
X138088821Y-123857433D01*
X138118341Y-123881659D01*
X138142567Y-123911179D01*
X138160568Y-123944856D01*
X138171653Y-123981396D01*
X138176000Y-124025538D01*
X138176000Y-124974462D01*
X138171653Y-125018604D01*
X138160568Y-125055144D01*
X138142567Y-125088821D01*
X138118341Y-125118341D01*
X138088821Y-125142567D01*
X138055144Y-125160568D01*
X138018604Y-125171653D01*
X137974462Y-125176000D01*
X135625538Y-125176000D01*
X135581396Y-125171653D01*
X135544856Y-125160568D01*
X135511179Y-125142567D01*
X135481659Y-125118341D01*
X135457433Y-125088821D01*
X135439432Y-125055144D01*
X135428347Y-125018604D01*
X135424000Y-124974462D01*
X135424000Y-124025538D01*
X135428347Y-123981396D01*
X135439432Y-123944856D01*
X135457433Y-123911179D01*
X135481659Y-123881659D01*
X135511179Y-123857433D01*
X135544856Y-123839432D01*
X135581396Y-123828347D01*
X135625538Y-123824000D01*
X137974462Y-123824000D01*
X138018604Y-123828347D01*
G37*
G36*
X167977395Y-122895546D02*
G01*
X168150466Y-122967234D01*
X168227818Y-123018919D01*
X168306227Y-123071310D01*
X168438690Y-123203773D01*
X168438691Y-123203775D01*
X168542766Y-123359534D01*
X168614454Y-123532605D01*
X168651000Y-123716333D01*
X168651000Y-123903667D01*
X168614454Y-124087395D01*
X168542766Y-124260466D01*
X168500461Y-124323780D01*
X168438690Y-124416227D01*
X168306227Y-124548690D01*
X168301614Y-124551772D01*
X168150466Y-124652766D01*
X167977395Y-124724454D01*
X167793667Y-124761000D01*
X167606333Y-124761000D01*
X167422605Y-124724454D01*
X167249534Y-124652766D01*
X167098386Y-124551772D01*
X167093773Y-124548690D01*
X166961310Y-124416227D01*
X166899539Y-124323780D01*
X166857234Y-124260466D01*
X166785546Y-124087395D01*
X166749000Y-123903667D01*
X166749000Y-123716333D01*
X166785546Y-123532605D01*
X166857234Y-123359534D01*
X166961309Y-123203775D01*
X166961310Y-123203773D01*
X167093773Y-123071310D01*
X167172182Y-123018919D01*
X167249534Y-122967234D01*
X167422605Y-122895546D01*
X167606333Y-122859000D01*
X167793667Y-122859000D01*
X167977395Y-122895546D01*
G37*
G36*
X102718604Y-123028347D02*
G01*
X102755144Y-123039432D01*
X102788821Y-123057433D01*
X102818341Y-123081659D01*
X102842567Y-123111179D01*
X102860568Y-123144856D01*
X102871653Y-123181396D01*
X102876000Y-123225538D01*
X102876000Y-124174462D01*
X102871653Y-124218604D01*
X102860568Y-124255144D01*
X102842567Y-124288821D01*
X102818341Y-124318341D01*
X102788821Y-124342567D01*
X102755144Y-124360568D01*
X102718604Y-124371653D01*
X102674462Y-124376000D01*
X100325538Y-124376000D01*
X100281396Y-124371653D01*
X100244856Y-124360568D01*
X100211179Y-124342567D01*
X100181659Y-124318341D01*
X100157433Y-124288821D01*
X100139432Y-124255144D01*
X100128347Y-124218604D01*
X100124000Y-124174462D01*
X100124000Y-123225538D01*
X100128347Y-123181396D01*
X100139432Y-123144856D01*
X100157433Y-123111179D01*
X100181659Y-123081659D01*
X100211179Y-123057433D01*
X100244856Y-123039432D01*
X100281396Y-123028347D01*
X100325538Y-123024000D01*
X102674462Y-123024000D01*
X102718604Y-123028347D01*
G37*
G36*
X132287473Y-121681371D02*
G01*
X132402353Y-121716220D01*
X132508228Y-121772811D01*
X132601029Y-121848971D01*
X132677189Y-121941772D01*
X132733780Y-122047647D01*
X132768629Y-122162527D01*
X132781000Y-122288140D01*
X132781000Y-123751860D01*
X132768629Y-123877473D01*
X132733780Y-123992353D01*
X132677189Y-124098228D01*
X132601029Y-124191029D01*
X132508228Y-124267189D01*
X132402353Y-124323780D01*
X132287473Y-124358629D01*
X132161860Y-124371000D01*
X130698140Y-124371000D01*
X130572527Y-124358629D01*
X130457647Y-124323780D01*
X130351772Y-124267189D01*
X130258971Y-124191029D01*
X130182811Y-124098228D01*
X130126220Y-123992353D01*
X130091371Y-123877473D01*
X130079000Y-123751860D01*
X130079000Y-122288140D01*
X130091371Y-122162527D01*
X130126220Y-122047647D01*
X130182811Y-121941772D01*
X130258971Y-121848971D01*
X130351772Y-121772811D01*
X130457647Y-121716220D01*
X130572527Y-121681371D01*
X130698140Y-121669000D01*
X132161860Y-121669000D01*
X132287473Y-121681371D01*
G37*
G36*
X142651000Y-123901000D02*
G01*
X140849000Y-123901000D01*
X140849000Y-122099000D01*
X142651000Y-122099000D01*
X142651000Y-123901000D01*
G37*
G36*
X164277395Y-121625546D02*
G01*
X164450466Y-121697234D01*
X164523228Y-121745852D01*
X164606227Y-121801310D01*
X164738690Y-121933773D01*
X164754556Y-121957519D01*
X164842766Y-122089534D01*
X164914454Y-122262605D01*
X164951000Y-122446333D01*
X164951000Y-122633667D01*
X164914454Y-122817395D01*
X164842766Y-122990466D01*
X164842765Y-122990467D01*
X164738690Y-123146227D01*
X164606227Y-123278690D01*
X164582715Y-123294400D01*
X164450466Y-123382766D01*
X164277395Y-123454454D01*
X164093667Y-123491000D01*
X163906333Y-123491000D01*
X163722605Y-123454454D01*
X163549534Y-123382766D01*
X163417285Y-123294400D01*
X163393773Y-123278690D01*
X163261310Y-123146227D01*
X163157235Y-122990467D01*
X163157234Y-122990466D01*
X163085546Y-122817395D01*
X163049000Y-122633667D01*
X163049000Y-122446333D01*
X163085546Y-122262605D01*
X163157234Y-122089534D01*
X163245444Y-121957519D01*
X163261310Y-121933773D01*
X163393773Y-121801310D01*
X163476772Y-121745852D01*
X163549534Y-121697234D01*
X163722605Y-121625546D01*
X163906333Y-121589000D01*
X164093667Y-121589000D01*
X164277395Y-121625546D01*
G37*
G36*
X160748228Y-121681703D02*
G01*
X160903100Y-121745853D01*
X161042481Y-121838985D01*
X161161015Y-121957519D01*
X161254147Y-122096900D01*
X161318297Y-122251772D01*
X161351000Y-122416184D01*
X161351000Y-122583816D01*
X161318297Y-122748228D01*
X161254147Y-122903100D01*
X161161015Y-123042481D01*
X161042481Y-123161015D01*
X160903100Y-123254147D01*
X160748228Y-123318297D01*
X160583816Y-123351000D01*
X160416184Y-123351000D01*
X160251772Y-123318297D01*
X160096900Y-123254147D01*
X159957519Y-123161015D01*
X159838985Y-123042481D01*
X159745853Y-122903100D01*
X159681703Y-122748228D01*
X159649000Y-122583816D01*
X159649000Y-122416184D01*
X159681703Y-122251772D01*
X159745853Y-122096900D01*
X159838985Y-121957519D01*
X159957519Y-121838985D01*
X160096900Y-121745853D01*
X160251772Y-121681703D01*
X160416184Y-121649000D01*
X160583816Y-121649000D01*
X160748228Y-121681703D01*
G37*
G36*
X167977395Y-120355546D02*
G01*
X168150466Y-120427234D01*
X168227818Y-120478919D01*
X168306227Y-120531310D01*
X168438690Y-120663773D01*
X168438691Y-120663775D01*
X168542766Y-120819534D01*
X168614454Y-120992605D01*
X168651000Y-121176333D01*
X168651000Y-121363667D01*
X168614454Y-121547395D01*
X168542766Y-121720466D01*
X168525803Y-121745853D01*
X168438690Y-121876227D01*
X168306227Y-122008690D01*
X168247923Y-122047647D01*
X168150466Y-122112766D01*
X167977395Y-122184454D01*
X167793667Y-122221000D01*
X167606333Y-122221000D01*
X167422605Y-122184454D01*
X167249534Y-122112766D01*
X167152077Y-122047647D01*
X167093773Y-122008690D01*
X166961310Y-121876227D01*
X166874197Y-121745853D01*
X166857234Y-121720466D01*
X166785546Y-121547395D01*
X166749000Y-121363667D01*
X166749000Y-121176333D01*
X166785546Y-120992605D01*
X166857234Y-120819534D01*
X166961309Y-120663775D01*
X166961310Y-120663773D01*
X167093773Y-120531310D01*
X167172182Y-120478919D01*
X167249534Y-120427234D01*
X167422605Y-120355546D01*
X167606333Y-120319000D01*
X167793667Y-120319000D01*
X167977395Y-120355546D01*
G37*
G36*
X164277395Y-119085546D02*
G01*
X164450466Y-119157234D01*
X164527818Y-119208919D01*
X164606227Y-119261310D01*
X164738690Y-119393773D01*
X164738691Y-119393775D01*
X164842766Y-119549534D01*
X164914454Y-119722605D01*
X164951000Y-119906333D01*
X164951000Y-120093667D01*
X164914454Y-120277395D01*
X164842766Y-120450466D01*
X164842765Y-120450467D01*
X164738690Y-120606227D01*
X164606227Y-120738690D01*
X164527818Y-120791081D01*
X164450466Y-120842766D01*
X164277395Y-120914454D01*
X164093667Y-120951000D01*
X163906333Y-120951000D01*
X163722605Y-120914454D01*
X163549534Y-120842766D01*
X163472182Y-120791081D01*
X163393773Y-120738690D01*
X163261310Y-120606227D01*
X163157235Y-120450467D01*
X163157234Y-120450466D01*
X163085546Y-120277395D01*
X163049000Y-120093667D01*
X163049000Y-119906333D01*
X163085546Y-119722605D01*
X163157234Y-119549534D01*
X163261309Y-119393775D01*
X163261310Y-119393773D01*
X163393773Y-119261310D01*
X163472182Y-119208919D01*
X163549534Y-119157234D01*
X163722605Y-119085546D01*
X163906333Y-119049000D01*
X164093667Y-119049000D01*
X164277395Y-119085546D01*
G37*
G36*
X167977395Y-117815546D02*
G01*
X168150466Y-117887234D01*
X168195792Y-117917520D01*
X168306227Y-117991310D01*
X168438690Y-118123773D01*
X168438691Y-118123775D01*
X168542766Y-118279534D01*
X168614454Y-118452605D01*
X168651000Y-118636333D01*
X168651000Y-118823667D01*
X168614454Y-119007395D01*
X168542766Y-119180466D01*
X168542765Y-119180467D01*
X168438690Y-119336227D01*
X168306227Y-119468690D01*
X168227818Y-119521081D01*
X168150466Y-119572766D01*
X167977395Y-119644454D01*
X167793667Y-119681000D01*
X167606333Y-119681000D01*
X167422605Y-119644454D01*
X167249534Y-119572766D01*
X167172182Y-119521081D01*
X167093773Y-119468690D01*
X166961310Y-119336227D01*
X166857235Y-119180467D01*
X166857234Y-119180466D01*
X166785546Y-119007395D01*
X166749000Y-118823667D01*
X166749000Y-118636333D01*
X166785546Y-118452605D01*
X166857234Y-118279534D01*
X166961309Y-118123775D01*
X166961310Y-118123773D01*
X167093773Y-117991310D01*
X167204208Y-117917520D01*
X167249534Y-117887234D01*
X167422605Y-117815546D01*
X167606333Y-117779000D01*
X167793667Y-117779000D01*
X167977395Y-117815546D01*
G37*
G36*
X112248228Y-117641703D02*
G01*
X112403100Y-117705853D01*
X112542481Y-117798985D01*
X112661015Y-117917519D01*
X112754147Y-118056900D01*
X112818297Y-118211772D01*
X112851000Y-118376184D01*
X112851000Y-118543816D01*
X112818297Y-118708228D01*
X112754147Y-118863100D01*
X112661015Y-119002481D01*
X112542481Y-119121015D01*
X112403100Y-119214147D01*
X112248228Y-119278297D01*
X112083816Y-119311000D01*
X111916184Y-119311000D01*
X111751772Y-119278297D01*
X111596900Y-119214147D01*
X111457519Y-119121015D01*
X111338985Y-119002481D01*
X111245853Y-118863100D01*
X111181703Y-118708228D01*
X111149000Y-118543816D01*
X111149000Y-118376184D01*
X111181703Y-118211772D01*
X111245853Y-118056900D01*
X111338985Y-117917519D01*
X111457519Y-117798985D01*
X111596900Y-117705853D01*
X111751772Y-117641703D01*
X111916184Y-117609000D01*
X112083816Y-117609000D01*
X112248228Y-117641703D01*
G37*
G36*
X164277395Y-116545546D02*
G01*
X164450466Y-116617234D01*
X164450467Y-116617235D01*
X164606227Y-116721310D01*
X164738690Y-116853773D01*
X164738691Y-116853775D01*
X164842766Y-117009534D01*
X164914454Y-117182605D01*
X164951000Y-117366333D01*
X164951000Y-117553667D01*
X164914454Y-117737395D01*
X164842766Y-117910466D01*
X164791081Y-117987818D01*
X164738690Y-118066227D01*
X164606227Y-118198690D01*
X164586648Y-118211772D01*
X164450466Y-118302766D01*
X164277395Y-118374454D01*
X164093667Y-118411000D01*
X163906333Y-118411000D01*
X163722605Y-118374454D01*
X163549534Y-118302766D01*
X163413352Y-118211772D01*
X163393773Y-118198690D01*
X163261310Y-118066227D01*
X163208919Y-117987818D01*
X163157234Y-117910466D01*
X163085546Y-117737395D01*
X163049000Y-117553667D01*
X163049000Y-117366333D01*
X163085546Y-117182605D01*
X163157234Y-117009534D01*
X163261309Y-116853775D01*
X163261310Y-116853773D01*
X163393773Y-116721310D01*
X163549533Y-116617235D01*
X163549534Y-116617234D01*
X163722605Y-116545546D01*
X163906333Y-116509000D01*
X164093667Y-116509000D01*
X164277395Y-116545546D01*
G37*
G36*
X158748228Y-116681703D02*
G01*
X158903100Y-116745853D01*
X159042481Y-116838985D01*
X159161015Y-116957519D01*
X159254147Y-117096900D01*
X159318297Y-117251772D01*
X159351000Y-117416184D01*
X159351000Y-117583816D01*
X159318297Y-117748228D01*
X159254147Y-117903100D01*
X159161015Y-118042481D01*
X159042481Y-118161015D01*
X158903100Y-118254147D01*
X158748228Y-118318297D01*
X158583816Y-118351000D01*
X158416184Y-118351000D01*
X158251772Y-118318297D01*
X158096900Y-118254147D01*
X157957519Y-118161015D01*
X157838985Y-118042481D01*
X157745853Y-117903100D01*
X157681703Y-117748228D01*
X157649000Y-117583816D01*
X157649000Y-117416184D01*
X157681703Y-117251772D01*
X157745853Y-117096900D01*
X157838985Y-116957519D01*
X157957519Y-116838985D01*
X158096900Y-116745853D01*
X158251772Y-116681703D01*
X158416184Y-116649000D01*
X158583816Y-116649000D01*
X158748228Y-116681703D01*
G37*
G36*
X161248228Y-116681703D02*
G01*
X161403100Y-116745853D01*
X161542481Y-116838985D01*
X161661015Y-116957519D01*
X161754147Y-117096900D01*
X161818297Y-117251772D01*
X161851000Y-117416184D01*
X161851000Y-117583816D01*
X161818297Y-117748228D01*
X161754147Y-117903100D01*
X161661015Y-118042481D01*
X161542481Y-118161015D01*
X161403100Y-118254147D01*
X161248228Y-118318297D01*
X161083816Y-118351000D01*
X160916184Y-118351000D01*
X160751772Y-118318297D01*
X160596900Y-118254147D01*
X160457519Y-118161015D01*
X160338985Y-118042481D01*
X160245853Y-117903100D01*
X160181703Y-117748228D01*
X160149000Y-117583816D01*
X160149000Y-117416184D01*
X160181703Y-117251772D01*
X160245853Y-117096900D01*
X160338985Y-116957519D01*
X160457519Y-116838985D01*
X160596900Y-116745853D01*
X160751772Y-116681703D01*
X160916184Y-116649000D01*
X161083816Y-116649000D01*
X161248228Y-116681703D01*
G37*
G36*
X168651000Y-117141000D02*
G01*
X166749000Y-117141000D01*
X166749000Y-115239000D01*
X168651000Y-115239000D01*
X168651000Y-117141000D01*
G37*
G36*
X120998228Y-113941703D02*
G01*
X121153100Y-114005853D01*
X121292481Y-114098985D01*
X121411015Y-114217519D01*
X121504147Y-114356900D01*
X121568297Y-114511772D01*
X121601000Y-114676184D01*
X121601000Y-114843816D01*
X121568297Y-115008228D01*
X121504147Y-115163100D01*
X121411015Y-115302481D01*
X121292481Y-115421015D01*
X121153100Y-115514147D01*
X120998228Y-115578297D01*
X120833816Y-115611000D01*
X120666184Y-115611000D01*
X120501772Y-115578297D01*
X120346900Y-115514147D01*
X120207519Y-115421015D01*
X120088985Y-115302481D01*
X119995853Y-115163100D01*
X119931703Y-115008228D01*
X119899000Y-114843816D01*
X119899000Y-114676184D01*
X119931703Y-114511772D01*
X119995853Y-114356900D01*
X120088985Y-114217519D01*
X120207519Y-114098985D01*
X120346900Y-114005853D01*
X120501772Y-113941703D01*
X120666184Y-113909000D01*
X120833816Y-113909000D01*
X120998228Y-113941703D01*
G37*
G36*
X174259999Y-112199737D02*
G01*
X174274528Y-112204145D01*
X174287711Y-112209606D01*
X174311745Y-112214388D01*
X174336249Y-112214389D01*
X174360282Y-112209609D01*
X174382921Y-112200232D01*
X174384765Y-112199000D01*
X175616050Y-112199000D01*
X175628164Y-112205475D01*
X175651613Y-112212588D01*
X175675999Y-112214990D01*
X175700385Y-112212588D01*
X175723834Y-112205475D01*
X175728746Y-112203152D01*
X175740001Y-112199737D01*
X175756140Y-112198148D01*
X176293861Y-112198148D01*
X176312199Y-112199954D01*
X176324450Y-112200556D01*
X176342869Y-112200556D01*
X176365149Y-112202750D01*
X176449233Y-112219476D01*
X176470660Y-112225976D01*
X176549858Y-112258780D01*
X176555303Y-112261691D01*
X176555309Y-112261693D01*
X176564169Y-112266429D01*
X176564173Y-112266432D01*
X176569614Y-112269340D01*
X176640899Y-112316971D01*
X176658204Y-112331172D01*
X176718828Y-112391796D01*
X176733029Y-112409101D01*
X176780660Y-112480386D01*
X176783568Y-112485827D01*
X176783571Y-112485831D01*
X176788307Y-112494691D01*
X176788309Y-112494697D01*
X176791220Y-112500142D01*
X176824024Y-112579340D01*
X176830524Y-112600767D01*
X176847250Y-112684851D01*
X176849444Y-112707131D01*
X176849444Y-112725550D01*
X176850046Y-112737801D01*
X176851852Y-112756139D01*
X176851852Y-113243862D01*
X176850046Y-113262199D01*
X176849444Y-113274450D01*
X176849444Y-113292869D01*
X176847250Y-113315149D01*
X176830524Y-113399233D01*
X176824024Y-113420660D01*
X176791220Y-113499858D01*
X176788309Y-113505303D01*
X176788307Y-113505309D01*
X176783571Y-113514169D01*
X176783568Y-113514173D01*
X176780660Y-113519614D01*
X176733029Y-113590899D01*
X176718828Y-113608204D01*
X176658204Y-113668828D01*
X176640899Y-113683029D01*
X176569614Y-113730660D01*
X176564173Y-113733568D01*
X176564169Y-113733571D01*
X176555309Y-113738307D01*
X176555303Y-113738309D01*
X176549858Y-113741220D01*
X176470660Y-113774024D01*
X176449233Y-113780524D01*
X176365149Y-113797250D01*
X176342869Y-113799444D01*
X176324450Y-113799444D01*
X176312199Y-113800046D01*
X176293862Y-113801852D01*
X175756140Y-113801852D01*
X175740001Y-113800263D01*
X175725472Y-113795855D01*
X175712289Y-113790394D01*
X175688255Y-113785612D01*
X175663751Y-113785611D01*
X175639718Y-113790391D01*
X175617079Y-113799768D01*
X175615235Y-113801000D01*
X174383950Y-113801000D01*
X174371836Y-113794525D01*
X174348387Y-113787412D01*
X174324001Y-113785010D01*
X174299615Y-113787412D01*
X174276166Y-113794525D01*
X174271254Y-113796848D01*
X174259999Y-113800263D01*
X174243860Y-113801852D01*
X173706138Y-113801852D01*
X173687801Y-113800046D01*
X173675550Y-113799444D01*
X173657131Y-113799444D01*
X173634851Y-113797250D01*
X173550767Y-113780524D01*
X173529340Y-113774024D01*
X173450142Y-113741220D01*
X173444697Y-113738309D01*
X173444691Y-113738307D01*
X173435831Y-113733571D01*
X173435827Y-113733568D01*
X173430386Y-113730660D01*
X173359101Y-113683029D01*
X173341796Y-113668828D01*
X173281172Y-113608204D01*
X173266971Y-113590899D01*
X173219340Y-113519614D01*
X173216432Y-113514173D01*
X173216429Y-113514169D01*
X173211693Y-113505309D01*
X173211691Y-113505303D01*
X173208780Y-113499858D01*
X173175976Y-113420660D01*
X173169476Y-113399233D01*
X173152750Y-113315149D01*
X173150556Y-113292869D01*
X173150556Y-113274450D01*
X173149954Y-113262199D01*
X173148148Y-113243862D01*
X173148148Y-112756139D01*
X173149954Y-112737801D01*
X173150556Y-112725550D01*
X173150556Y-112707131D01*
X173152750Y-112684851D01*
X173169476Y-112600767D01*
X173175976Y-112579340D01*
X173208780Y-112500142D01*
X173211691Y-112494697D01*
X173211693Y-112494691D01*
X173216429Y-112485831D01*
X173216432Y-112485827D01*
X173219340Y-112480386D01*
X173266971Y-112409101D01*
X173281172Y-112391796D01*
X173341796Y-112331172D01*
X173359101Y-112316971D01*
X173430386Y-112269340D01*
X173435827Y-112266432D01*
X173435831Y-112266429D01*
X173444691Y-112261693D01*
X173444697Y-112261691D01*
X173450142Y-112258780D01*
X173529340Y-112225976D01*
X173550767Y-112219476D01*
X173634851Y-112202750D01*
X173657131Y-112200556D01*
X173675550Y-112200556D01*
X173687801Y-112199954D01*
X173706139Y-112198148D01*
X174243860Y-112198148D01*
X174259999Y-112199737D01*
G37*
G36*
X167948228Y-111681703D02*
G01*
X168103100Y-111745853D01*
X168242481Y-111838985D01*
X168361015Y-111957519D01*
X168454147Y-112096900D01*
X168518297Y-112251772D01*
X168551000Y-112416184D01*
X168551000Y-112583816D01*
X168518297Y-112748228D01*
X168454147Y-112903100D01*
X168361015Y-113042481D01*
X168242481Y-113161015D01*
X168103100Y-113254147D01*
X167948228Y-113318297D01*
X167783816Y-113351000D01*
X167616184Y-113351000D01*
X167451772Y-113318297D01*
X167296900Y-113254147D01*
X167157519Y-113161015D01*
X167038985Y-113042481D01*
X166945853Y-112903100D01*
X166881703Y-112748228D01*
X166849000Y-112583816D01*
X166849000Y-112416184D01*
X166881703Y-112251772D01*
X166945853Y-112096900D01*
X167038985Y-111957519D01*
X167157519Y-111838985D01*
X167296900Y-111745853D01*
X167451772Y-111681703D01*
X167616184Y-111649000D01*
X167783816Y-111649000D01*
X167948228Y-111681703D01*
G37*
G36*
X152708228Y-111681703D02*
G01*
X152863100Y-111745853D01*
X153002481Y-111838985D01*
X153121015Y-111957519D01*
X153214147Y-112096900D01*
X153278297Y-112251772D01*
X153311000Y-112416184D01*
X153311000Y-112583816D01*
X153278297Y-112748228D01*
X153214147Y-112903100D01*
X153121015Y-113042481D01*
X153002481Y-113161015D01*
X152863100Y-113254147D01*
X152708228Y-113318297D01*
X152543816Y-113351000D01*
X152376184Y-113351000D01*
X152211772Y-113318297D01*
X152056900Y-113254147D01*
X151917519Y-113161015D01*
X151798985Y-113042481D01*
X151705853Y-112903100D01*
X151641703Y-112748228D01*
X151609000Y-112583816D01*
X151609000Y-112416184D01*
X151641703Y-112251772D01*
X151705853Y-112096900D01*
X151798985Y-111957519D01*
X151917519Y-111838985D01*
X152056900Y-111745853D01*
X152211772Y-111681703D01*
X152376184Y-111649000D01*
X152543816Y-111649000D01*
X152708228Y-111681703D01*
G37*
G36*
X173334468Y-109966065D02*
G01*
X173373138Y-109977796D01*
X173408777Y-109996846D01*
X173440017Y-110022483D01*
X173465654Y-110053723D01*
X173484704Y-110089362D01*
X173496435Y-110128032D01*
X173501000Y-110174388D01*
X173501000Y-110825612D01*
X173496435Y-110871968D01*
X173484704Y-110910638D01*
X173465654Y-110946277D01*
X173440017Y-110977517D01*
X173408777Y-111003154D01*
X173373138Y-111022204D01*
X173334468Y-111033935D01*
X173288112Y-111038500D01*
X172211888Y-111038500D01*
X172165532Y-111033935D01*
X172126862Y-111022204D01*
X172091223Y-111003154D01*
X172059983Y-110977517D01*
X172034346Y-110946277D01*
X172015296Y-110910638D01*
X172003565Y-110871968D01*
X171999000Y-110825612D01*
X171999000Y-110174388D01*
X172003565Y-110128032D01*
X172015296Y-110089362D01*
X172034346Y-110053723D01*
X172059983Y-110022483D01*
X172091223Y-109996846D01*
X172126862Y-109977796D01*
X172165532Y-109966065D01*
X172211888Y-109961500D01*
X173288112Y-109961500D01*
X173334468Y-109966065D01*
G37*
G36*
X177834468Y-109966065D02*
G01*
X177873138Y-109977796D01*
X177908777Y-109996846D01*
X177940017Y-110022483D01*
X177965654Y-110053723D01*
X177984704Y-110089362D01*
X177996435Y-110128032D01*
X178001000Y-110174388D01*
X178001000Y-110825612D01*
X177996435Y-110871968D01*
X177984704Y-110910638D01*
X177965654Y-110946277D01*
X177940017Y-110977517D01*
X177908777Y-111003154D01*
X177873138Y-111022204D01*
X177834468Y-111033935D01*
X177788112Y-111038500D01*
X176711888Y-111038500D01*
X176665532Y-111033935D01*
X176626862Y-111022204D01*
X176591223Y-111003154D01*
X176559983Y-110977517D01*
X176534346Y-110946277D01*
X176515296Y-110910638D01*
X176503565Y-110871968D01*
X176499000Y-110825612D01*
X176499000Y-110174388D01*
X176503565Y-110128032D01*
X176515296Y-110089362D01*
X176534346Y-110053723D01*
X176559983Y-110022483D01*
X176591223Y-109996846D01*
X176626862Y-109977796D01*
X176665532Y-109966065D01*
X176711888Y-109961500D01*
X177788112Y-109961500D01*
X177834468Y-109966065D01*
G37*
G36*
X173334468Y-108091065D02*
G01*
X173373138Y-108102796D01*
X173408777Y-108121846D01*
X173440017Y-108147483D01*
X173465654Y-108178723D01*
X173484704Y-108214362D01*
X173496435Y-108253032D01*
X173501000Y-108299388D01*
X173501000Y-108950612D01*
X173496435Y-108996968D01*
X173484704Y-109035638D01*
X173465654Y-109071277D01*
X173440017Y-109102517D01*
X173408777Y-109128154D01*
X173373138Y-109147204D01*
X173334468Y-109158935D01*
X173288112Y-109163500D01*
X172211888Y-109163500D01*
X172165532Y-109158935D01*
X172126862Y-109147204D01*
X172091223Y-109128154D01*
X172059983Y-109102517D01*
X172034346Y-109071277D01*
X172015296Y-109035638D01*
X172003565Y-108996968D01*
X171999000Y-108950612D01*
X171999000Y-108299388D01*
X172003565Y-108253032D01*
X172015296Y-108214362D01*
X172034346Y-108178723D01*
X172059983Y-108147483D01*
X172091223Y-108121846D01*
X172126862Y-108102796D01*
X172165532Y-108091065D01*
X172211888Y-108086500D01*
X173288112Y-108086500D01*
X173334468Y-108091065D01*
G37*
G36*
X177834468Y-108091065D02*
G01*
X177873138Y-108102796D01*
X177908777Y-108121846D01*
X177940017Y-108147483D01*
X177965654Y-108178723D01*
X177984704Y-108214362D01*
X177996435Y-108253032D01*
X178001000Y-108299388D01*
X178001000Y-108950612D01*
X177996435Y-108996968D01*
X177984704Y-109035638D01*
X177965654Y-109071277D01*
X177940017Y-109102517D01*
X177908777Y-109128154D01*
X177873138Y-109147204D01*
X177834468Y-109158935D01*
X177788112Y-109163500D01*
X176711888Y-109163500D01*
X176665532Y-109158935D01*
X176626862Y-109147204D01*
X176591223Y-109128154D01*
X176559983Y-109102517D01*
X176534346Y-109071277D01*
X176515296Y-109035638D01*
X176503565Y-108996968D01*
X176499000Y-108950612D01*
X176499000Y-108299388D01*
X176503565Y-108253032D01*
X176515296Y-108214362D01*
X176534346Y-108178723D01*
X176559983Y-108147483D01*
X176591223Y-108121846D01*
X176626862Y-108102796D01*
X176665532Y-108091065D01*
X176711888Y-108086500D01*
X177788112Y-108086500D01*
X177834468Y-108091065D01*
G37*
G36*
X144386564Y-99989389D02*
G01*
X144577833Y-100068615D01*
X144577835Y-100068616D01*
X144749973Y-100183635D01*
X144896365Y-100330027D01*
X144960256Y-100425646D01*
X145011385Y-100502167D01*
X145090611Y-100693436D01*
X145131000Y-100896484D01*
X145131000Y-101103516D01*
X145090611Y-101306564D01*
X145040815Y-101426782D01*
X145011384Y-101497835D01*
X144896365Y-101669973D01*
X144749973Y-101816365D01*
X144577835Y-101931384D01*
X144577834Y-101931385D01*
X144577833Y-101931385D01*
X144386564Y-102010611D01*
X144183516Y-102051000D01*
X143976484Y-102051000D01*
X143773436Y-102010611D01*
X143582167Y-101931385D01*
X143582166Y-101931385D01*
X143582165Y-101931384D01*
X143410027Y-101816365D01*
X143263635Y-101669973D01*
X143148616Y-101497835D01*
X143119185Y-101426782D01*
X143069389Y-101306564D01*
X143029000Y-101103516D01*
X143029000Y-100896484D01*
X143069389Y-100693436D01*
X143148615Y-100502167D01*
X143199745Y-100425646D01*
X143263635Y-100330027D01*
X143410027Y-100183635D01*
X143582165Y-100068616D01*
X143582167Y-100068615D01*
X143773436Y-99989389D01*
X143976484Y-99949000D01*
X144183516Y-99949000D01*
X144386564Y-99989389D01*
G37*
G36*
X141846564Y-99989389D02*
G01*
X142037833Y-100068615D01*
X142037835Y-100068616D01*
X142209973Y-100183635D01*
X142356365Y-100330027D01*
X142420256Y-100425646D01*
X142471385Y-100502167D01*
X142550611Y-100693436D01*
X142591000Y-100896484D01*
X142591000Y-101103516D01*
X142550611Y-101306564D01*
X142500815Y-101426782D01*
X142471384Y-101497835D01*
X142356365Y-101669973D01*
X142209973Y-101816365D01*
X142037835Y-101931384D01*
X142037834Y-101931385D01*
X142037833Y-101931385D01*
X141846564Y-102010611D01*
X141643516Y-102051000D01*
X141436484Y-102051000D01*
X141233436Y-102010611D01*
X141042167Y-101931385D01*
X141042166Y-101931385D01*
X141042165Y-101931384D01*
X140870027Y-101816365D01*
X140723635Y-101669973D01*
X140608616Y-101497835D01*
X140579185Y-101426782D01*
X140529389Y-101306564D01*
X140489000Y-101103516D01*
X140489000Y-100896484D01*
X140529389Y-100693436D01*
X140608615Y-100502167D01*
X140659745Y-100425646D01*
X140723635Y-100330027D01*
X140870027Y-100183635D01*
X141042165Y-100068616D01*
X141042167Y-100068615D01*
X141233436Y-99989389D01*
X141436484Y-99949000D01*
X141643516Y-99949000D01*
X141846564Y-99989389D01*
G37*
G36*
X140051000Y-102051000D02*
G01*
X137949000Y-102051000D01*
X137949000Y-99949000D01*
X140051000Y-99949000D01*
X140051000Y-102051000D01*
G37*
G36*
X151653512Y-100103927D02*
G01*
X151802812Y-100133624D01*
X151966784Y-100201544D01*
X152114354Y-100300147D01*
X152239853Y-100425646D01*
X152338456Y-100573216D01*
X152406376Y-100737188D01*
X152441000Y-100911259D01*
X152441000Y-101088741D01*
X152406376Y-101262812D01*
X152338456Y-101426784D01*
X152239853Y-101574354D01*
X152114354Y-101699853D01*
X151966784Y-101798456D01*
X151802812Y-101866376D01*
X151653512Y-101896073D01*
X151628742Y-101901000D01*
X151451258Y-101901000D01*
X151426488Y-101896073D01*
X151277188Y-101866376D01*
X151113216Y-101798456D01*
X150965646Y-101699853D01*
X150840147Y-101574354D01*
X150741544Y-101426784D01*
X150673624Y-101262812D01*
X150639000Y-101088741D01*
X150639000Y-100911259D01*
X150673624Y-100737188D01*
X150741544Y-100573216D01*
X150840147Y-100425646D01*
X150965646Y-100300147D01*
X151113216Y-100201544D01*
X151277188Y-100133624D01*
X151426488Y-100103927D01*
X151451258Y-100099000D01*
X151628742Y-100099000D01*
X151653512Y-100103927D01*
G37*
G36*
X149901000Y-101901000D02*
G01*
X148099000Y-101901000D01*
X148099000Y-100099000D01*
X149901000Y-100099000D01*
X149901000Y-101901000D01*
G37*
G36*
X134248228Y-100181703D02*
G01*
X134403100Y-100245853D01*
X134542481Y-100338985D01*
X134661015Y-100457519D01*
X134754147Y-100596900D01*
X134818297Y-100751772D01*
X134851000Y-100916184D01*
X134851000Y-101083816D01*
X134818297Y-101248228D01*
X134754147Y-101403100D01*
X134661015Y-101542481D01*
X134542481Y-101661015D01*
X134403100Y-101754147D01*
X134248228Y-101818297D01*
X134083816Y-101851000D01*
X133916184Y-101851000D01*
X133751772Y-101818297D01*
X133596900Y-101754147D01*
X133457519Y-101661015D01*
X133338985Y-101542481D01*
X133245853Y-101403100D01*
X133181703Y-101248228D01*
X133149000Y-101083816D01*
X133149000Y-100916184D01*
X133181703Y-100751772D01*
X133245853Y-100596900D01*
X133338985Y-100457519D01*
X133457519Y-100338985D01*
X133596900Y-100245853D01*
X133751772Y-100181703D01*
X133916184Y-100149000D01*
X134083816Y-100149000D01*
X134248228Y-100181703D01*
G37*
G36*
X119008228Y-100181703D02*
G01*
X119163100Y-100245853D01*
X119302481Y-100338985D01*
X119421015Y-100457519D01*
X119514147Y-100596900D01*
X119578297Y-100751772D01*
X119611000Y-100916184D01*
X119611000Y-101083816D01*
X119578297Y-101248228D01*
X119514147Y-101403100D01*
X119421015Y-101542481D01*
X119302481Y-101661015D01*
X119163100Y-101754147D01*
X119008228Y-101818297D01*
X118843816Y-101851000D01*
X118676184Y-101851000D01*
X118511772Y-101818297D01*
X118356900Y-101754147D01*
X118217519Y-101661015D01*
X118098985Y-101542481D01*
X118005853Y-101403100D01*
X117941703Y-101248228D01*
X117909000Y-101083816D01*
X117909000Y-100916184D01*
X117941703Y-100751772D01*
X118005853Y-100596900D01*
X118098985Y-100457519D01*
X118217519Y-100338985D01*
X118356900Y-100245853D01*
X118511772Y-100181703D01*
X118676184Y-100149000D01*
X118843816Y-100149000D01*
X119008228Y-100181703D01*
G37*
G36*
X143959999Y-93699737D02*
G01*
X143974528Y-93704145D01*
X143987711Y-93709606D01*
X144011745Y-93714388D01*
X144036249Y-93714389D01*
X144060282Y-93709609D01*
X144082921Y-93700232D01*
X144084765Y-93699000D01*
X145316050Y-93699000D01*
X145328164Y-93705475D01*
X145351613Y-93712588D01*
X145375999Y-93714990D01*
X145400385Y-93712588D01*
X145423834Y-93705475D01*
X145428746Y-93703152D01*
X145440001Y-93699737D01*
X145456140Y-93698148D01*
X145993861Y-93698148D01*
X146012199Y-93699954D01*
X146024450Y-93700556D01*
X146042869Y-93700556D01*
X146065149Y-93702750D01*
X146149233Y-93719476D01*
X146170660Y-93725976D01*
X146249858Y-93758780D01*
X146255303Y-93761691D01*
X146255309Y-93761693D01*
X146264169Y-93766429D01*
X146264173Y-93766432D01*
X146269614Y-93769340D01*
X146340899Y-93816971D01*
X146358204Y-93831172D01*
X146418828Y-93891796D01*
X146433029Y-93909101D01*
X146480660Y-93980386D01*
X146483568Y-93985827D01*
X146483571Y-93985831D01*
X146488307Y-93994691D01*
X146488309Y-93994697D01*
X146491220Y-94000142D01*
X146524024Y-94079340D01*
X146530524Y-94100767D01*
X146547250Y-94184851D01*
X146549444Y-94207131D01*
X146549444Y-94225550D01*
X146550046Y-94237801D01*
X146551852Y-94256139D01*
X146551852Y-94743862D01*
X146550046Y-94762199D01*
X146549444Y-94774450D01*
X146549444Y-94792869D01*
X146547250Y-94815149D01*
X146530524Y-94899233D01*
X146524024Y-94920660D01*
X146491220Y-94999858D01*
X146488309Y-95005303D01*
X146488307Y-95005309D01*
X146483571Y-95014169D01*
X146483568Y-95014173D01*
X146480660Y-95019614D01*
X146433029Y-95090899D01*
X146418828Y-95108204D01*
X146358204Y-95168828D01*
X146340899Y-95183029D01*
X146269614Y-95230660D01*
X146264173Y-95233568D01*
X146264169Y-95233571D01*
X146255309Y-95238307D01*
X146255303Y-95238309D01*
X146249858Y-95241220D01*
X146170660Y-95274024D01*
X146149233Y-95280524D01*
X146065149Y-95297250D01*
X146042869Y-95299444D01*
X146024450Y-95299444D01*
X146012199Y-95300046D01*
X145993862Y-95301852D01*
X145456140Y-95301852D01*
X145440001Y-95300263D01*
X145425472Y-95295855D01*
X145412289Y-95290394D01*
X145388255Y-95285612D01*
X145363751Y-95285611D01*
X145339718Y-95290391D01*
X145317079Y-95299768D01*
X145315235Y-95301000D01*
X144083950Y-95301000D01*
X144071836Y-95294525D01*
X144048387Y-95287412D01*
X144024001Y-95285010D01*
X143999615Y-95287412D01*
X143976166Y-95294525D01*
X143971254Y-95296848D01*
X143959999Y-95300263D01*
X143943860Y-95301852D01*
X143406138Y-95301852D01*
X143387801Y-95300046D01*
X143375550Y-95299444D01*
X143357131Y-95299444D01*
X143334851Y-95297250D01*
X143250767Y-95280524D01*
X143229340Y-95274024D01*
X143150142Y-95241220D01*
X143144697Y-95238309D01*
X143144691Y-95238307D01*
X143135831Y-95233571D01*
X143135827Y-95233568D01*
X143130386Y-95230660D01*
X143059101Y-95183029D01*
X143041796Y-95168828D01*
X142981172Y-95108204D01*
X142966971Y-95090899D01*
X142919340Y-95019614D01*
X142916432Y-95014173D01*
X142916429Y-95014169D01*
X142911693Y-95005309D01*
X142911691Y-95005303D01*
X142908780Y-94999858D01*
X142875976Y-94920660D01*
X142869476Y-94899233D01*
X142852750Y-94815149D01*
X142850556Y-94792869D01*
X142850556Y-94774450D01*
X142849954Y-94762199D01*
X142848148Y-94743862D01*
X142848148Y-94256139D01*
X142849954Y-94237801D01*
X142850556Y-94225550D01*
X142850556Y-94207131D01*
X142852750Y-94184851D01*
X142869476Y-94100767D01*
X142875976Y-94079340D01*
X142908780Y-94000142D01*
X142911691Y-93994697D01*
X142911693Y-93994691D01*
X142916429Y-93985831D01*
X142916432Y-93985827D01*
X142919340Y-93980386D01*
X142966971Y-93909101D01*
X142981172Y-93891796D01*
X143041796Y-93831172D01*
X143059101Y-93816971D01*
X143130386Y-93769340D01*
X143135827Y-93766432D01*
X143135831Y-93766429D01*
X143144691Y-93761693D01*
X143144697Y-93761691D01*
X143150142Y-93758780D01*
X143229340Y-93725976D01*
X143250767Y-93719476D01*
X143334851Y-93702750D01*
X143357131Y-93700556D01*
X143375550Y-93700556D01*
X143387801Y-93699954D01*
X143406139Y-93698148D01*
X143943860Y-93698148D01*
X143959999Y-93699737D01*
G37*
G36*
X151306564Y-85569389D02*
G01*
X151497833Y-85648615D01*
X151497835Y-85648616D01*
X151669973Y-85763635D01*
X151816365Y-85910027D01*
X151931385Y-86082167D01*
X152010611Y-86273436D01*
X152051000Y-86476484D01*
X152051000Y-86683516D01*
X152010611Y-86886564D01*
X151931385Y-87077833D01*
X151931384Y-87077835D01*
X151816365Y-87249973D01*
X151669973Y-87396365D01*
X151497835Y-87511384D01*
X151497834Y-87511385D01*
X151497833Y-87511385D01*
X151306564Y-87590611D01*
X151103516Y-87631000D01*
X150896484Y-87631000D01*
X150693436Y-87590611D01*
X150502167Y-87511385D01*
X150502166Y-87511385D01*
X150502165Y-87511384D01*
X150330027Y-87396365D01*
X150183635Y-87249973D01*
X150068616Y-87077835D01*
X150068615Y-87077833D01*
X149989389Y-86886564D01*
X149949000Y-86683516D01*
X149949000Y-86476484D01*
X149989389Y-86273436D01*
X150068615Y-86082167D01*
X150183635Y-85910027D01*
X150330027Y-85763635D01*
X150502165Y-85648616D01*
X150502167Y-85648615D01*
X150693436Y-85569389D01*
X150896484Y-85529000D01*
X151103516Y-85529000D01*
X151306564Y-85569389D01*
G37*
G36*
X142551000Y-87551000D02*
G01*
X140449000Y-87551000D01*
X140449000Y-85449000D01*
X142551000Y-85449000D01*
X142551000Y-87551000D01*
G37*
G36*
X152051000Y-82551000D02*
G01*
X149949000Y-82551000D01*
X149949000Y-80449000D01*
X152051000Y-80449000D01*
X152051000Y-82551000D01*
G37*
G36*
X141806564Y-80409389D02*
G01*
X141997833Y-80488615D01*
X141997835Y-80488616D01*
X142169973Y-80603635D01*
X142316365Y-80750027D01*
X142431385Y-80922167D01*
X142510611Y-81113436D01*
X142551000Y-81316484D01*
X142551000Y-81523516D01*
X142510611Y-81726564D01*
X142431385Y-81917833D01*
X142431384Y-81917835D01*
X142316365Y-82089973D01*
X142169973Y-82236365D01*
X141997835Y-82351384D01*
X141997834Y-82351385D01*
X141997833Y-82351385D01*
X141806564Y-82430611D01*
X141603516Y-82471000D01*
X141396484Y-82471000D01*
X141193436Y-82430611D01*
X141002167Y-82351385D01*
X141002166Y-82351385D01*
X141002165Y-82351384D01*
X140830027Y-82236365D01*
X140683635Y-82089973D01*
X140568616Y-81917835D01*
X140568615Y-81917833D01*
X140489389Y-81726564D01*
X140449000Y-81523516D01*
X140449000Y-81316484D01*
X140489389Y-81113436D01*
X140568615Y-80922167D01*
X140683635Y-80750027D01*
X140830027Y-80603635D01*
X141002165Y-80488616D01*
X141002167Y-80488615D01*
X141193436Y-80409389D01*
X141396484Y-80369000D01*
X141603516Y-80369000D01*
X141806564Y-80409389D01*
G37*
G36*
X146651000Y-75151000D02*
G01*
X143349000Y-75151000D01*
X143349000Y-71849000D01*
X146651000Y-71849000D01*
X146651000Y-75151000D01*
G37*
G36*
X150455256Y-71891298D02*
G01*
X150561579Y-71912447D01*
X150862042Y-72036903D01*
X151132451Y-72217585D01*
X151362415Y-72447549D01*
X151543097Y-72717958D01*
X151667553Y-73018421D01*
X151731000Y-73337391D01*
X151731000Y-73662609D01*
X151667553Y-73981579D01*
X151543097Y-74282042D01*
X151362415Y-74552451D01*
X151132451Y-74782415D01*
X150862042Y-74963097D01*
X150561579Y-75087553D01*
X150455256Y-75108702D01*
X150242611Y-75151000D01*
X149917389Y-75151000D01*
X149704744Y-75108702D01*
X149598421Y-75087553D01*
X149297958Y-74963097D01*
X149027549Y-74782415D01*
X148797585Y-74552451D01*
X148616903Y-74282042D01*
X148492447Y-73981579D01*
X148429000Y-73662609D01*
X148429000Y-73337391D01*
X148492447Y-73018421D01*
X148616903Y-72717958D01*
X148797585Y-72447549D01*
X149027549Y-72217585D01*
X149297958Y-72036903D01*
X149598421Y-71912447D01*
X149704744Y-71891298D01*
X149917389Y-71849000D01*
X150242611Y-71849000D01*
X150455256Y-71891298D01*
G37*
G36*
X155535256Y-71891298D02*
G01*
X155641579Y-71912447D01*
X155942042Y-72036903D01*
X156212451Y-72217585D01*
X156442415Y-72447549D01*
X156623097Y-72717958D01*
X156747553Y-73018421D01*
X156811000Y-73337391D01*
X156811000Y-73662609D01*
X156747553Y-73981579D01*
X156623097Y-74282042D01*
X156442415Y-74552451D01*
X156212451Y-74782415D01*
X155942042Y-74963097D01*
X155641579Y-75087553D01*
X155535256Y-75108702D01*
X155322611Y-75151000D01*
X154997389Y-75151000D01*
X154784744Y-75108702D01*
X154678421Y-75087553D01*
X154377958Y-74963097D01*
X154107549Y-74782415D01*
X153877585Y-74552451D01*
X153696903Y-74282042D01*
X153572447Y-73981579D01*
X153509000Y-73662609D01*
X153509000Y-73337391D01*
X153572447Y-73018421D01*
X153696903Y-72717958D01*
X153877585Y-72447549D01*
X154107549Y-72217585D01*
X154377958Y-72036903D01*
X154678421Y-71912447D01*
X154784744Y-71891298D01*
X154997389Y-71849000D01*
X155322611Y-71849000D01*
X155535256Y-71891298D01*
G37*
G36*
X160615256Y-71891298D02*
G01*
X160721579Y-71912447D01*
X161022042Y-72036903D01*
X161292451Y-72217585D01*
X161522415Y-72447549D01*
X161703097Y-72717958D01*
X161827553Y-73018421D01*
X161891000Y-73337391D01*
X161891000Y-73662609D01*
X161827553Y-73981579D01*
X161703097Y-74282042D01*
X161522415Y-74552451D01*
X161292451Y-74782415D01*
X161022042Y-74963097D01*
X160721579Y-75087553D01*
X160615256Y-75108702D01*
X160402611Y-75151000D01*
X160077389Y-75151000D01*
X159864744Y-75108702D01*
X159758421Y-75087553D01*
X159457958Y-74963097D01*
X159187549Y-74782415D01*
X158957585Y-74552451D01*
X158776903Y-74282042D01*
X158652447Y-73981579D01*
X158589000Y-73662609D01*
X158589000Y-73337391D01*
X158652447Y-73018421D01*
X158776903Y-72717958D01*
X158957585Y-72447549D01*
X159187549Y-72217585D01*
X159457958Y-72036903D01*
X159758421Y-71912447D01*
X159864744Y-71891298D01*
X160077389Y-71849000D01*
X160402611Y-71849000D01*
X160615256Y-71891298D01*
G37*
G36*
X92226905Y-69208789D02*
G01*
X92525350Y-69268153D01*
X92853122Y-69403921D01*
X93148109Y-69601025D01*
X93398975Y-69851891D01*
X93596079Y-70146878D01*
X93731847Y-70474650D01*
X93801060Y-70822611D01*
X93801060Y-71177389D01*
X93731847Y-71525350D01*
X93596079Y-71853122D01*
X93398975Y-72148109D01*
X93148109Y-72398975D01*
X92853122Y-72596079D01*
X92525350Y-72731847D01*
X92226905Y-72791211D01*
X92177390Y-72801060D01*
X91822610Y-72801060D01*
X91773095Y-72791211D01*
X91474650Y-72731847D01*
X91146878Y-72596079D01*
X90851891Y-72398975D01*
X90601025Y-72148109D01*
X90403921Y-71853122D01*
X90268153Y-71525350D01*
X90198940Y-71177389D01*
X90198940Y-70822611D01*
X90268153Y-70474650D01*
X90403921Y-70146878D01*
X90601025Y-69851891D01*
X90851891Y-69601025D01*
X91146878Y-69403921D01*
X91474650Y-69268153D01*
X91773095Y-69208789D01*
X91822610Y-69198940D01*
X92177390Y-69198940D01*
X92226905Y-69208789D01*
G37*
G36*
X138306416Y-67164879D02*
G01*
X138497592Y-67244067D01*
X138497594Y-67244068D01*
X138669648Y-67359031D01*
X138815969Y-67505352D01*
X138930933Y-67677408D01*
X139010121Y-67868584D01*
X139050490Y-68071534D01*
X139050490Y-68278466D01*
X139010121Y-68481416D01*
X138930933Y-68672592D01*
X138930932Y-68672594D01*
X138815969Y-68844648D01*
X138669648Y-68990969D01*
X138497594Y-69105932D01*
X138497593Y-69105933D01*
X138497592Y-69105933D01*
X138306416Y-69185121D01*
X138103466Y-69225490D01*
X137896534Y-69225490D01*
X137693584Y-69185121D01*
X137502408Y-69105933D01*
X137502407Y-69105933D01*
X137502406Y-69105932D01*
X137330352Y-68990969D01*
X137184031Y-68844648D01*
X137069068Y-68672594D01*
X137069067Y-68672592D01*
X136989879Y-68481416D01*
X136949510Y-68278466D01*
X136949510Y-68071534D01*
X136989879Y-67868584D01*
X137069067Y-67677408D01*
X137184031Y-67505352D01*
X137330352Y-67359031D01*
X137502406Y-67244068D01*
X137502408Y-67244067D01*
X137693584Y-67164879D01*
X137896534Y-67124510D01*
X138103466Y-67124510D01*
X138306416Y-67164879D01*
G37*
G36*
X150955256Y-63891298D02*
G01*
X151061579Y-63912447D01*
X151274037Y-64000450D01*
X151308295Y-64014640D01*
X151362042Y-64036903D01*
X151632451Y-64217585D01*
X151862415Y-64447549D01*
X152043097Y-64717958D01*
X152167553Y-65018421D01*
X152231000Y-65337391D01*
X152231000Y-65662609D01*
X152167553Y-65981579D01*
X152043097Y-66282042D01*
X151862415Y-66552451D01*
X151632451Y-66782415D01*
X151362042Y-66963097D01*
X151061579Y-67087553D01*
X150955256Y-67108702D01*
X150742611Y-67151000D01*
X150417389Y-67151000D01*
X150204744Y-67108702D01*
X150098421Y-67087553D01*
X149797958Y-66963097D01*
X149527549Y-66782415D01*
X149297585Y-66552451D01*
X149116903Y-66282042D01*
X148992447Y-65981579D01*
X148929000Y-65662609D01*
X148929000Y-65337391D01*
X148992447Y-65018421D01*
X149116903Y-64717958D01*
X149297585Y-64447549D01*
X149527549Y-64217585D01*
X149797958Y-64036903D01*
X149851706Y-64014640D01*
X149885963Y-64000450D01*
X150098421Y-63912447D01*
X150204744Y-63891298D01*
X150417389Y-63849000D01*
X150742611Y-63849000D01*
X150955256Y-63891298D01*
G37*
G36*
X147151000Y-67151000D02*
G01*
X143849000Y-67151000D01*
X143849000Y-63849000D01*
X147151000Y-63849000D01*
X147151000Y-67151000D01*
G37*
G36*
X161115256Y-63891298D02*
G01*
X161221579Y-63912447D01*
X161434037Y-64000450D01*
X161468295Y-64014640D01*
X161522042Y-64036903D01*
X161792451Y-64217585D01*
X162022415Y-64447549D01*
X162203097Y-64717958D01*
X162327553Y-65018421D01*
X162391000Y-65337391D01*
X162391000Y-65662609D01*
X162327553Y-65981579D01*
X162203097Y-66282042D01*
X162022415Y-66552451D01*
X161792451Y-66782415D01*
X161522042Y-66963097D01*
X161221579Y-67087553D01*
X161115256Y-67108702D01*
X160902611Y-67151000D01*
X160577389Y-67151000D01*
X160364744Y-67108702D01*
X160258421Y-67087553D01*
X159957958Y-66963097D01*
X159687549Y-66782415D01*
X159457585Y-66552451D01*
X159276903Y-66282042D01*
X159152447Y-65981579D01*
X159089000Y-65662609D01*
X159089000Y-65337391D01*
X159152447Y-65018421D01*
X159276903Y-64717958D01*
X159457585Y-64447549D01*
X159687549Y-64217585D01*
X159957958Y-64036903D01*
X160011706Y-64014640D01*
X160045963Y-64000450D01*
X160258421Y-63912447D01*
X160364744Y-63891298D01*
X160577389Y-63849000D01*
X160902611Y-63849000D01*
X161115256Y-63891298D01*
G37*
G36*
X156035256Y-63891298D02*
G01*
X156141579Y-63912447D01*
X156354037Y-64000450D01*
X156388295Y-64014640D01*
X156442042Y-64036903D01*
X156712451Y-64217585D01*
X156942415Y-64447549D01*
X157123097Y-64717958D01*
X157247553Y-65018421D01*
X157311000Y-65337391D01*
X157311000Y-65662609D01*
X157247553Y-65981579D01*
X157123097Y-66282042D01*
X156942415Y-66552451D01*
X156712451Y-66782415D01*
X156442042Y-66963097D01*
X156141579Y-67087553D01*
X156035256Y-67108702D01*
X155822611Y-67151000D01*
X155497389Y-67151000D01*
X155284744Y-67108702D01*
X155178421Y-67087553D01*
X154877958Y-66963097D01*
X154607549Y-66782415D01*
X154377585Y-66552451D01*
X154196903Y-66282042D01*
X154072447Y-65981579D01*
X154009000Y-65662609D01*
X154009000Y-65337391D01*
X154072447Y-65018421D01*
X154196903Y-64717958D01*
X154377585Y-64447549D01*
X154607549Y-64217585D01*
X154877958Y-64036903D01*
X154931706Y-64014640D01*
X154965963Y-64000450D01*
X155178421Y-63912447D01*
X155284744Y-63891298D01*
X155497389Y-63849000D01*
X155822611Y-63849000D01*
X156035256Y-63891298D01*
G37*
G36*
X92226905Y-63208789D02*
G01*
X92525350Y-63268153D01*
X92853122Y-63403921D01*
X93148109Y-63601025D01*
X93398975Y-63851891D01*
X93596079Y-64146878D01*
X93731847Y-64474650D01*
X93801060Y-64822611D01*
X93801060Y-65177389D01*
X93731847Y-65525350D01*
X93596079Y-65853122D01*
X93398975Y-66148109D01*
X93148109Y-66398975D01*
X92853122Y-66596079D01*
X92525350Y-66731847D01*
X92226905Y-66791211D01*
X92177390Y-66801060D01*
X91822610Y-66801060D01*
X91773095Y-66791211D01*
X91474650Y-66731847D01*
X91146878Y-66596079D01*
X90851891Y-66398975D01*
X90601025Y-66148109D01*
X90403921Y-65853122D01*
X90268153Y-65525350D01*
X90198940Y-65177389D01*
X90198940Y-64822611D01*
X90268153Y-64474650D01*
X90403921Y-64146878D01*
X90601025Y-63851891D01*
X90851891Y-63601025D01*
X91146878Y-63403921D01*
X91474650Y-63268153D01*
X91773095Y-63208789D01*
X91822610Y-63198940D01*
X92177390Y-63198940D01*
X92226905Y-63208789D01*
G37*
G36*
X138306416Y-63989879D02*
G01*
X138497592Y-64069067D01*
X138497594Y-64069068D01*
X138669648Y-64184031D01*
X138815969Y-64330352D01*
X138912387Y-64474651D01*
X138930933Y-64502408D01*
X139010121Y-64693584D01*
X139050490Y-64896534D01*
X139050490Y-65103466D01*
X139010121Y-65306416D01*
X138930933Y-65497592D01*
X138930932Y-65497594D01*
X138815969Y-65669648D01*
X138669648Y-65815969D01*
X138497594Y-65930932D01*
X138497593Y-65930933D01*
X138497592Y-65930933D01*
X138306416Y-66010121D01*
X138103466Y-66050490D01*
X137896534Y-66050490D01*
X137693584Y-66010121D01*
X137502408Y-65930933D01*
X137502407Y-65930933D01*
X137502406Y-65930932D01*
X137330352Y-65815969D01*
X137184031Y-65669648D01*
X137069068Y-65497594D01*
X137069067Y-65497592D01*
X136989879Y-65306416D01*
X136949510Y-65103466D01*
X136949510Y-64896534D01*
X136989879Y-64693584D01*
X137069067Y-64502408D01*
X137087614Y-64474651D01*
X137184031Y-64330352D01*
X137330352Y-64184031D01*
X137502406Y-64069068D01*
X137502408Y-64069067D01*
X137693584Y-63989879D01*
X137896534Y-63949510D01*
X138103466Y-63949510D01*
X138306416Y-63989879D01*
G37*
G36*
X130352497Y-61298863D02*
G01*
X130452372Y-61318729D01*
X130569279Y-61367154D01*
X130734611Y-61435636D01*
X130988621Y-61605360D01*
X131204640Y-61821379D01*
X131374364Y-62075389D01*
X131491271Y-62357629D01*
X131550870Y-62657251D01*
X131550870Y-62962749D01*
X131491271Y-63262371D01*
X131374364Y-63544611D01*
X131204640Y-63798621D01*
X130988621Y-64014640D01*
X130734611Y-64184364D01*
X130569279Y-64252846D01*
X130452372Y-64301271D01*
X130352497Y-64321137D01*
X130152749Y-64360870D01*
X129847251Y-64360870D01*
X129647503Y-64321137D01*
X129547628Y-64301271D01*
X129430721Y-64252846D01*
X129265389Y-64184364D01*
X129011379Y-64014640D01*
X128795360Y-63798621D01*
X128625636Y-63544611D01*
X128508729Y-63262371D01*
X128449130Y-62962749D01*
X128449130Y-62657251D01*
X128508729Y-62357629D01*
X128625636Y-62075389D01*
X128795360Y-61821379D01*
X129011379Y-61605360D01*
X129265389Y-61435636D01*
X129430721Y-61367154D01*
X129547628Y-61318729D01*
X129647503Y-61298863D01*
X129847251Y-61259130D01*
X130152749Y-61259130D01*
X130352497Y-61298863D01*
G37*
G36*
X139050490Y-62875490D02*
G01*
X136949510Y-62875490D01*
X136949510Y-60774510D01*
X139050490Y-60774510D01*
X139050490Y-62875490D01*
G37*
G36*
X93801060Y-60801060D02*
G01*
X90198940Y-60801060D01*
X90198940Y-57198940D01*
X93801060Y-57198940D01*
X93801060Y-60801060D01*
G37*
G36*
X101302585Y-57478802D02*
G01*
X101452410Y-57508604D01*
X101734674Y-57625521D01*
X101988705Y-57795259D01*
X102204741Y-58011295D01*
X102374479Y-58265326D01*
X102491396Y-58547590D01*
X102551000Y-58847240D01*
X102551000Y-59152760D01*
X102491396Y-59452410D01*
X102374479Y-59734674D01*
X102204741Y-59988705D01*
X101988705Y-60204741D01*
X101734674Y-60374479D01*
X101452410Y-60491396D01*
X101302585Y-60521198D01*
X101152761Y-60551000D01*
X100847239Y-60551000D01*
X100697415Y-60521198D01*
X100547590Y-60491396D01*
X100265326Y-60374479D01*
X100011295Y-60204741D01*
X99795259Y-59988705D01*
X99625521Y-59734674D01*
X99508604Y-59452410D01*
X99449000Y-59152760D01*
X99449000Y-58847240D01*
X99508604Y-58547590D01*
X99625521Y-58265326D01*
X99795259Y-58011295D01*
X100011295Y-57795259D01*
X100265326Y-57625521D01*
X100547590Y-57508604D01*
X100697415Y-57478802D01*
X100847239Y-57449000D01*
X101152761Y-57449000D01*
X101302585Y-57478802D01*
G37*
G36*
X123802585Y-57478802D02*
G01*
X123952410Y-57508604D01*
X124234674Y-57625521D01*
X124488705Y-57795259D01*
X124704741Y-58011295D01*
X124874479Y-58265326D01*
X124991396Y-58547590D01*
X125051000Y-58847240D01*
X125051000Y-59152760D01*
X124991396Y-59452410D01*
X124874479Y-59734674D01*
X124704741Y-59988705D01*
X124488705Y-60204741D01*
X124234674Y-60374479D01*
X123952410Y-60491396D01*
X123802585Y-60521198D01*
X123652761Y-60551000D01*
X123347239Y-60551000D01*
X123197415Y-60521198D01*
X123047590Y-60491396D01*
X122765326Y-60374479D01*
X122511295Y-60204741D01*
X122295259Y-59988705D01*
X122125521Y-59734674D01*
X122008604Y-59452410D01*
X121949000Y-59152760D01*
X121949000Y-58847240D01*
X122008604Y-58547590D01*
X122125521Y-58265326D01*
X122295259Y-58011295D01*
X122511295Y-57795259D01*
X122765326Y-57625521D01*
X123047590Y-57508604D01*
X123197415Y-57478802D01*
X123347239Y-57449000D01*
X123652761Y-57449000D01*
X123802585Y-57478802D01*
G37*
G36*
X131550870Y-60550870D02*
G01*
X128449130Y-60550870D01*
X128449130Y-57449130D01*
X131550870Y-57449130D01*
X131550870Y-60550870D01*
G37*
G36*
X112568433Y-57634893D02*
G01*
X112658657Y-57652839D01*
X112764267Y-57696585D01*
X112913621Y-57758449D01*
X112989763Y-57809325D01*
X113143086Y-57911772D01*
X113338228Y-58106914D01*
X113440675Y-58260237D01*
X113491551Y-58336379D01*
X113544039Y-58463097D01*
X113579038Y-58547590D01*
X113597161Y-58591344D01*
X113651000Y-58862012D01*
X113651000Y-59137988D01*
X113648061Y-59152761D01*
X113597161Y-59408657D01*
X113553415Y-59514267D01*
X113491551Y-59663621D01*
X113491550Y-59663622D01*
X113338228Y-59893086D01*
X113143086Y-60088228D01*
X112989763Y-60190675D01*
X112913621Y-60241551D01*
X112764267Y-60303415D01*
X112658657Y-60347161D01*
X112568433Y-60365107D01*
X112387988Y-60401000D01*
X112112012Y-60401000D01*
X111931567Y-60365107D01*
X111841343Y-60347161D01*
X111735733Y-60303415D01*
X111586379Y-60241551D01*
X111510237Y-60190675D01*
X111356914Y-60088228D01*
X111161772Y-59893086D01*
X111008450Y-59663622D01*
X111008449Y-59663621D01*
X110946585Y-59514267D01*
X110902839Y-59408657D01*
X110851939Y-59152761D01*
X110849000Y-59137988D01*
X110849000Y-58862012D01*
X110902839Y-58591344D01*
X110920963Y-58547590D01*
X110955961Y-58463097D01*
X111008449Y-58336379D01*
X111059325Y-58260237D01*
X111161772Y-58106914D01*
X111356914Y-57911772D01*
X111510237Y-57809325D01*
X111586379Y-57758449D01*
X111735733Y-57696585D01*
X111841343Y-57652839D01*
X111931567Y-57634893D01*
X112112012Y-57599000D01*
X112387988Y-57599000D01*
X112568433Y-57634893D01*
G37*
G36*
X147151000Y-58651000D02*
G01*
X143849000Y-58651000D01*
X143849000Y-55349000D01*
X147151000Y-55349000D01*
X147151000Y-58651000D01*
G37*
G36*
X150955256Y-55391298D02*
G01*
X151061579Y-55412447D01*
X151362042Y-55536903D01*
X151632451Y-55717585D01*
X151862415Y-55947549D01*
X151862416Y-55947551D01*
X152043098Y-56217960D01*
X152167553Y-56518422D01*
X152231000Y-56837389D01*
X152231000Y-57162611D01*
X152188702Y-57375256D01*
X152167553Y-57481579D01*
X152043097Y-57782042D01*
X151862415Y-58052451D01*
X151632451Y-58282415D01*
X151362042Y-58463097D01*
X151061579Y-58587553D01*
X151042525Y-58591343D01*
X150742611Y-58651000D01*
X150417389Y-58651000D01*
X150117475Y-58591343D01*
X150098421Y-58587553D01*
X149797958Y-58463097D01*
X149527549Y-58282415D01*
X149297585Y-58052451D01*
X149116903Y-57782042D01*
X148992447Y-57481579D01*
X148971298Y-57375256D01*
X148929000Y-57162611D01*
X148929000Y-56837389D01*
X148992447Y-56518422D01*
X149116902Y-56217960D01*
X149297584Y-55947551D01*
X149297585Y-55947549D01*
X149527549Y-55717585D01*
X149797958Y-55536903D01*
X150098421Y-55412447D01*
X150204744Y-55391298D01*
X150417389Y-55349000D01*
X150742611Y-55349000D01*
X150955256Y-55391298D01*
G37*
G36*
X156035256Y-55391298D02*
G01*
X156141579Y-55412447D01*
X156442042Y-55536903D01*
X156712451Y-55717585D01*
X156942415Y-55947549D01*
X156942416Y-55947551D01*
X157123098Y-56217960D01*
X157247553Y-56518422D01*
X157311000Y-56837389D01*
X157311000Y-57162611D01*
X157268702Y-57375256D01*
X157247553Y-57481579D01*
X157123097Y-57782042D01*
X156942415Y-58052451D01*
X156712451Y-58282415D01*
X156442042Y-58463097D01*
X156141579Y-58587553D01*
X156122525Y-58591343D01*
X155822611Y-58651000D01*
X155497389Y-58651000D01*
X155197475Y-58591343D01*
X155178421Y-58587553D01*
X154877958Y-58463097D01*
X154607549Y-58282415D01*
X154377585Y-58052451D01*
X154196903Y-57782042D01*
X154072447Y-57481579D01*
X154051298Y-57375256D01*
X154009000Y-57162611D01*
X154009000Y-56837389D01*
X154072447Y-56518422D01*
X154196902Y-56217960D01*
X154377584Y-55947551D01*
X154377585Y-55947549D01*
X154607549Y-55717585D01*
X154877958Y-55536903D01*
X155178421Y-55412447D01*
X155284744Y-55391298D01*
X155497389Y-55349000D01*
X155822611Y-55349000D01*
X156035256Y-55391298D01*
G37*
G36*
X161115256Y-55391298D02*
G01*
X161221579Y-55412447D01*
X161522042Y-55536903D01*
X161792451Y-55717585D01*
X162022415Y-55947549D01*
X162022416Y-55947551D01*
X162203098Y-56217960D01*
X162327553Y-56518422D01*
X162391000Y-56837389D01*
X162391000Y-57162611D01*
X162348702Y-57375256D01*
X162327553Y-57481579D01*
X162203097Y-57782042D01*
X162022415Y-58052451D01*
X161792451Y-58282415D01*
X161522042Y-58463097D01*
X161221579Y-58587553D01*
X161202525Y-58591343D01*
X160902611Y-58651000D01*
X160577389Y-58651000D01*
X160277475Y-58591343D01*
X160258421Y-58587553D01*
X159957958Y-58463097D01*
X159687549Y-58282415D01*
X159457585Y-58052451D01*
X159276903Y-57782042D01*
X159152447Y-57481579D01*
X159131298Y-57375256D01*
X159089000Y-57162611D01*
X159089000Y-56837389D01*
X159152447Y-56518422D01*
X159276902Y-56217960D01*
X159457584Y-55947551D01*
X159457585Y-55947549D01*
X159687549Y-55717585D01*
X159957958Y-55536903D01*
X160258421Y-55412447D01*
X160364744Y-55391298D01*
X160577389Y-55349000D01*
X160902611Y-55349000D01*
X161115256Y-55391298D01*
G37*
M02*
