G04 #@! TF.GenerationSoftware,KiCad,Pcbnew,(5.1.4)-1*
G04 #@! TF.CreationDate,2019-11-27T05:32:18-05:00*
G04 #@! TF.ProjectId,Rotary Encoder Breakout Board,526f7461-7279-4204-956e-636f64657220,rev?*
G04 #@! TF.SameCoordinates,Original*
G04 #@! TF.FileFunction,Soldermask,Bot*
G04 #@! TF.FilePolarity,Negative*
%FSLAX46Y46*%
G04 Gerber Fmt 4.6, Leading zero omitted, Abs format (unit mm)*
G04 Created by KiCad (PCBNEW (5.1.4)-1) date 2019-11-27 05:32:18*
%MOMM*%
%LPD*%
G04 APERTURE LIST*
%ADD10C,0.100000*%
G04 APERTURE END LIST*
D10*
G36*
X140201000Y-102451000D02*
G01*
X137099000Y-102451000D01*
X137099000Y-99849000D01*
X140201000Y-99849000D01*
X140201000Y-102451000D01*
X140201000Y-102451000D01*
G37*
G36*
X145956564Y-97039389D02*
G01*
X146147833Y-97118615D01*
X146147835Y-97118616D01*
X146184328Y-97143000D01*
X146319973Y-97233635D01*
X146466365Y-97380027D01*
X146581385Y-97552167D01*
X146660611Y-97743436D01*
X146701000Y-97946484D01*
X146701000Y-98153516D01*
X146660611Y-98356564D01*
X146581385Y-98547833D01*
X146581384Y-98547835D01*
X146466365Y-98719973D01*
X146319973Y-98866365D01*
X146147835Y-98981384D01*
X146147834Y-98981385D01*
X146147833Y-98981385D01*
X145956564Y-99060611D01*
X145753516Y-99101000D01*
X145546484Y-99101000D01*
X145343436Y-99060611D01*
X145152167Y-98981385D01*
X145152166Y-98981385D01*
X145152165Y-98981384D01*
X144980027Y-98866365D01*
X144833635Y-98719973D01*
X144718616Y-98547835D01*
X144718615Y-98547833D01*
X144639389Y-98356564D01*
X144599000Y-98153516D01*
X144599000Y-97946484D01*
X144639389Y-97743436D01*
X144718615Y-97552167D01*
X144833635Y-97380027D01*
X144980027Y-97233635D01*
X145115672Y-97143000D01*
X145152165Y-97118616D01*
X145152167Y-97118615D01*
X145343436Y-97039389D01*
X145546484Y-96999000D01*
X145753516Y-96999000D01*
X145956564Y-97039389D01*
X145956564Y-97039389D01*
G37*
G36*
X131456564Y-97039389D02*
G01*
X131647833Y-97118615D01*
X131647835Y-97118616D01*
X131684328Y-97143000D01*
X131819973Y-97233635D01*
X131966365Y-97380027D01*
X132081385Y-97552167D01*
X132160611Y-97743436D01*
X132201000Y-97946484D01*
X132201000Y-98153516D01*
X132160611Y-98356564D01*
X132081385Y-98547833D01*
X132081384Y-98547835D01*
X131966365Y-98719973D01*
X131819973Y-98866365D01*
X131647835Y-98981384D01*
X131647834Y-98981385D01*
X131647833Y-98981385D01*
X131456564Y-99060611D01*
X131253516Y-99101000D01*
X131046484Y-99101000D01*
X130843436Y-99060611D01*
X130652167Y-98981385D01*
X130652166Y-98981385D01*
X130652165Y-98981384D01*
X130480027Y-98866365D01*
X130333635Y-98719973D01*
X130218616Y-98547835D01*
X130218615Y-98547833D01*
X130139389Y-98356564D01*
X130099000Y-98153516D01*
X130099000Y-97946484D01*
X130139389Y-97743436D01*
X130218615Y-97552167D01*
X130333635Y-97380027D01*
X130480027Y-97233635D01*
X130615672Y-97143000D01*
X130652165Y-97118616D01*
X130652167Y-97118615D01*
X130843436Y-97039389D01*
X131046484Y-96999000D01*
X131253516Y-96999000D01*
X131456564Y-97039389D01*
X131456564Y-97039389D01*
G37*
G36*
X118249000Y-98945000D02*
G01*
X116447000Y-98945000D01*
X116447000Y-97143000D01*
X118249000Y-97143000D01*
X118249000Y-98945000D01*
X118249000Y-98945000D01*
G37*
G36*
X131456564Y-94539389D02*
G01*
X131641609Y-94616037D01*
X131647835Y-94618616D01*
X131819973Y-94733635D01*
X131966365Y-94880027D01*
X132047203Y-95001009D01*
X132081385Y-95052167D01*
X132160611Y-95243436D01*
X132201000Y-95446484D01*
X132201000Y-95653516D01*
X132160611Y-95856564D01*
X132098303Y-96006989D01*
X132081384Y-96047835D01*
X131966365Y-96219973D01*
X131819973Y-96366365D01*
X131647835Y-96481384D01*
X131647834Y-96481385D01*
X131647833Y-96481385D01*
X131456564Y-96560611D01*
X131253516Y-96601000D01*
X131046484Y-96601000D01*
X130843436Y-96560611D01*
X130652167Y-96481385D01*
X130652166Y-96481385D01*
X130652165Y-96481384D01*
X130480027Y-96366365D01*
X130333635Y-96219973D01*
X130218616Y-96047835D01*
X130201697Y-96006989D01*
X130139389Y-95856564D01*
X130099000Y-95653516D01*
X130099000Y-95446484D01*
X130139389Y-95243436D01*
X130218615Y-95052167D01*
X130252798Y-95001009D01*
X130333635Y-94880027D01*
X130480027Y-94733635D01*
X130652165Y-94618616D01*
X130658391Y-94616037D01*
X130843436Y-94539389D01*
X131046484Y-94499000D01*
X131253516Y-94499000D01*
X131456564Y-94539389D01*
X131456564Y-94539389D01*
G37*
G36*
X117458442Y-94609518D02*
G01*
X117524627Y-94616037D01*
X117694466Y-94667557D01*
X117850991Y-94751222D01*
X117886729Y-94780552D01*
X117988186Y-94863814D01*
X118071448Y-94965271D01*
X118100778Y-95001009D01*
X118184443Y-95157534D01*
X118235963Y-95327373D01*
X118253359Y-95504000D01*
X118235963Y-95680627D01*
X118184443Y-95850466D01*
X118100778Y-96006991D01*
X118071448Y-96042729D01*
X117988186Y-96144186D01*
X117895838Y-96219973D01*
X117850991Y-96256778D01*
X117694466Y-96340443D01*
X117524627Y-96391963D01*
X117458442Y-96398482D01*
X117392260Y-96405000D01*
X117303740Y-96405000D01*
X117237558Y-96398482D01*
X117171373Y-96391963D01*
X117001534Y-96340443D01*
X116845009Y-96256778D01*
X116800162Y-96219973D01*
X116707814Y-96144186D01*
X116624552Y-96042729D01*
X116595222Y-96006991D01*
X116511557Y-95850466D01*
X116460037Y-95680627D01*
X116442641Y-95504000D01*
X116460037Y-95327373D01*
X116511557Y-95157534D01*
X116595222Y-95001009D01*
X116624552Y-94965271D01*
X116707814Y-94863814D01*
X116809271Y-94780552D01*
X116845009Y-94751222D01*
X117001534Y-94667557D01*
X117171373Y-94616037D01*
X117237558Y-94609518D01*
X117303740Y-94603000D01*
X117392260Y-94603000D01*
X117458442Y-94609518D01*
X117458442Y-94609518D01*
G37*
G36*
X132201000Y-94101000D02*
G01*
X130099000Y-94101000D01*
X130099000Y-91999000D01*
X132201000Y-91999000D01*
X132201000Y-94101000D01*
X132201000Y-94101000D01*
G37*
G36*
X145956564Y-92039389D02*
G01*
X146147833Y-92118615D01*
X146147835Y-92118616D01*
X146319973Y-92233635D01*
X146466365Y-92380027D01*
X146581385Y-92552167D01*
X146660611Y-92743436D01*
X146701000Y-92946484D01*
X146701000Y-93153516D01*
X146660611Y-93356564D01*
X146581385Y-93547833D01*
X146581384Y-93547835D01*
X146466365Y-93719973D01*
X146319973Y-93866365D01*
X146147835Y-93981384D01*
X146147834Y-93981385D01*
X146147833Y-93981385D01*
X145956564Y-94060611D01*
X145753516Y-94101000D01*
X145546484Y-94101000D01*
X145343436Y-94060611D01*
X145152167Y-93981385D01*
X145152166Y-93981385D01*
X145152165Y-93981384D01*
X144980027Y-93866365D01*
X144833635Y-93719973D01*
X144718616Y-93547835D01*
X144718615Y-93547833D01*
X144639389Y-93356564D01*
X144599000Y-93153516D01*
X144599000Y-92946484D01*
X144639389Y-92743436D01*
X144718615Y-92552167D01*
X144833635Y-92380027D01*
X144980027Y-92233635D01*
X145152165Y-92118616D01*
X145152167Y-92118615D01*
X145343436Y-92039389D01*
X145546484Y-91999000D01*
X145753516Y-91999000D01*
X145956564Y-92039389D01*
X145956564Y-92039389D01*
G37*
G36*
X117458443Y-92069519D02*
G01*
X117524627Y-92076037D01*
X117694466Y-92127557D01*
X117850991Y-92211222D01*
X117878301Y-92233635D01*
X117988186Y-92323814D01*
X118071448Y-92425271D01*
X118100778Y-92461009D01*
X118184443Y-92617534D01*
X118235963Y-92787373D01*
X118253359Y-92964000D01*
X118235963Y-93140627D01*
X118184443Y-93310466D01*
X118100778Y-93466991D01*
X118071448Y-93502729D01*
X117988186Y-93604186D01*
X117886729Y-93687448D01*
X117850991Y-93716778D01*
X117694466Y-93800443D01*
X117524627Y-93851963D01*
X117458443Y-93858481D01*
X117392260Y-93865000D01*
X117303740Y-93865000D01*
X117237557Y-93858481D01*
X117171373Y-93851963D01*
X117001534Y-93800443D01*
X116845009Y-93716778D01*
X116809271Y-93687448D01*
X116707814Y-93604186D01*
X116624552Y-93502729D01*
X116595222Y-93466991D01*
X116511557Y-93310466D01*
X116460037Y-93140627D01*
X116442641Y-92964000D01*
X116460037Y-92787373D01*
X116511557Y-92617534D01*
X116595222Y-92461009D01*
X116624552Y-92425271D01*
X116707814Y-92323814D01*
X116817699Y-92233635D01*
X116845009Y-92211222D01*
X117001534Y-92127557D01*
X117171373Y-92076037D01*
X117237557Y-92069519D01*
X117303740Y-92063000D01*
X117392260Y-92063000D01*
X117458443Y-92069519D01*
X117458443Y-92069519D01*
G37*
G36*
X117458442Y-89529518D02*
G01*
X117524627Y-89536037D01*
X117694466Y-89587557D01*
X117850991Y-89671222D01*
X117886729Y-89700552D01*
X117988186Y-89783814D01*
X118071448Y-89885271D01*
X118100778Y-89921009D01*
X118184443Y-90077534D01*
X118235963Y-90247373D01*
X118253359Y-90424000D01*
X118235963Y-90600627D01*
X118184443Y-90770466D01*
X118100778Y-90926991D01*
X118071448Y-90962729D01*
X117988186Y-91064186D01*
X117886729Y-91147448D01*
X117850991Y-91176778D01*
X117850989Y-91176779D01*
X117712133Y-91251000D01*
X117694466Y-91260443D01*
X117524627Y-91311963D01*
X117458443Y-91318481D01*
X117392260Y-91325000D01*
X117303740Y-91325000D01*
X117237557Y-91318481D01*
X117171373Y-91311963D01*
X117001534Y-91260443D01*
X116983868Y-91251000D01*
X116845011Y-91176779D01*
X116845009Y-91176778D01*
X116809271Y-91147448D01*
X116707814Y-91064186D01*
X116624552Y-90962729D01*
X116595222Y-90926991D01*
X116511557Y-90770466D01*
X116460037Y-90600627D01*
X116442641Y-90424000D01*
X116460037Y-90247373D01*
X116511557Y-90077534D01*
X116595222Y-89921009D01*
X116624552Y-89885271D01*
X116707814Y-89783814D01*
X116809271Y-89700552D01*
X116845009Y-89671222D01*
X117001534Y-89587557D01*
X117171373Y-89536037D01*
X117237558Y-89529518D01*
X117303740Y-89523000D01*
X117392260Y-89523000D01*
X117458442Y-89529518D01*
X117458442Y-89529518D01*
G37*
G36*
X140201000Y-91251000D02*
G01*
X137099000Y-91251000D01*
X137099000Y-88649000D01*
X140201000Y-88649000D01*
X140201000Y-91251000D01*
X140201000Y-91251000D01*
G37*
G36*
X117458443Y-86989519D02*
G01*
X117524627Y-86996037D01*
X117694466Y-87047557D01*
X117850991Y-87131222D01*
X117886729Y-87160552D01*
X117988186Y-87243814D01*
X118071448Y-87345271D01*
X118100778Y-87381009D01*
X118184443Y-87537534D01*
X118235963Y-87707373D01*
X118253359Y-87884000D01*
X118235963Y-88060627D01*
X118184443Y-88230466D01*
X118100778Y-88386991D01*
X118071448Y-88422729D01*
X117988186Y-88524186D01*
X117886729Y-88607448D01*
X117850991Y-88636778D01*
X117694466Y-88720443D01*
X117524627Y-88771963D01*
X117458442Y-88778482D01*
X117392260Y-88785000D01*
X117303740Y-88785000D01*
X117237558Y-88778482D01*
X117171373Y-88771963D01*
X117001534Y-88720443D01*
X116845009Y-88636778D01*
X116809271Y-88607448D01*
X116707814Y-88524186D01*
X116624552Y-88422729D01*
X116595222Y-88386991D01*
X116511557Y-88230466D01*
X116460037Y-88060627D01*
X116442641Y-87884000D01*
X116460037Y-87707373D01*
X116511557Y-87537534D01*
X116595222Y-87381009D01*
X116624552Y-87345271D01*
X116707814Y-87243814D01*
X116809271Y-87160552D01*
X116845009Y-87131222D01*
X117001534Y-87047557D01*
X117171373Y-86996037D01*
X117237557Y-86989519D01*
X117303740Y-86983000D01*
X117392260Y-86983000D01*
X117458443Y-86989519D01*
X117458443Y-86989519D01*
G37*
G36*
X117458442Y-84449518D02*
G01*
X117524627Y-84456037D01*
X117694466Y-84507557D01*
X117850991Y-84591222D01*
X117886729Y-84620552D01*
X117988186Y-84703814D01*
X118071448Y-84805271D01*
X118100778Y-84841009D01*
X118184443Y-84997534D01*
X118235963Y-85167373D01*
X118253359Y-85344000D01*
X118235963Y-85520627D01*
X118184443Y-85690466D01*
X118100778Y-85846991D01*
X118071448Y-85882729D01*
X117988186Y-85984186D01*
X117886729Y-86067448D01*
X117850991Y-86096778D01*
X117694466Y-86180443D01*
X117524627Y-86231963D01*
X117458442Y-86238482D01*
X117392260Y-86245000D01*
X117303740Y-86245000D01*
X117237558Y-86238482D01*
X117171373Y-86231963D01*
X117001534Y-86180443D01*
X116845009Y-86096778D01*
X116809271Y-86067448D01*
X116707814Y-85984186D01*
X116624552Y-85882729D01*
X116595222Y-85846991D01*
X116511557Y-85690466D01*
X116460037Y-85520627D01*
X116442641Y-85344000D01*
X116460037Y-85167373D01*
X116511557Y-84997534D01*
X116595222Y-84841009D01*
X116624552Y-84805271D01*
X116707814Y-84703814D01*
X116809271Y-84620552D01*
X116845009Y-84591222D01*
X117001534Y-84507557D01*
X117171373Y-84456037D01*
X117237558Y-84449518D01*
X117303740Y-84443000D01*
X117392260Y-84443000D01*
X117458442Y-84449518D01*
X117458442Y-84449518D01*
G37*
M02*
