M48
; DRILL file {KiCad (5.1.5)-3} date 6/2/2020 4:47:04 PM
; FORMAT={-:-/ absolute / inch / decimal}
; #@! TF.CreationDate,2020-06-02T16:47:04-04:00
; #@! TF.GenerationSoftware,Kicad,Pcbnew,(5.1.5)-3
FMAT,2
INCH
T1C0.0098
T2C0.0197
T3C0.0315
T4C0.0394
T5C0.0394
%
G90
G05
T1
X5.4134Y-2.5
X5.4606Y-2.5
X5.5118Y-1.4961
X5.5118Y-2.5
X5.563Y-2.5
X5.6102Y-2.5
X5.9055Y-2.5
X5.9547Y-2.5
X6.0039Y-1.4843
X6.0039Y-2.5
X6.0531Y-2.5
X6.1024Y-2.5
X6.3976Y-2.5
X6.4469Y-2.5
X6.4961Y-1.4843
X6.4961Y-2.5
X6.5453Y-2.5
X6.5945Y-2.5
X6.8898Y-2.5
X6.939Y-2.5
X6.9882Y-1.4843
X6.9882Y-2.5
X7.0374Y-2.5
X7.0866Y-2.5
X7.3819Y-2.5
X7.4311Y-2.5
X7.4803Y-1.4843
X7.4803Y-2.5
X7.5295Y-2.5
X7.5787Y-2.5
X7.9606Y-1.9567
X7.9606Y-2.1142
X7.9606Y-2.2638
X7.9606Y-2.4173
X7.9606Y-2.5709
X7.9606Y-2.7244
X7.9606Y-2.878
X7.9606Y-3.0315
X7.9606Y-3.185
X7.9606Y-3.3425
X8.0354Y-1.8976
X8.0354Y-2.0433
X8.0354Y-2.2008
X8.0354Y-2.3602
X8.0354Y-2.5039
X8.0354Y-2.6535
X8.0354Y-2.8071
X8.0354Y-2.9646
X8.0354Y-3.1102
X8.0354Y-3.2677
T2
X4.7244Y-1.1811
X4.7244Y-1.378
X4.7244Y-1.5748
X4.7244Y-1.7717
X4.7244Y-1.9685
X4.7244Y-2.1654
X4.7244Y-2.3622
X4.7244Y-2.5591
X4.7244Y-2.7559
X4.7244Y-2.9528
X4.7244Y-3.5433
X4.9213Y-1.1811
X4.9213Y-1.378
X4.9213Y-1.5748
X4.9213Y-1.7717
X4.9213Y-1.9685
X4.9213Y-2.1654
X4.9213Y-2.3622
X4.9213Y-2.5591
X4.9213Y-2.7559
X4.9213Y-2.9528
X4.9213Y-3.1496
X4.9213Y-3.5433
X5.1181Y-1.1811
X5.1181Y-1.378
X5.1181Y-1.5748
X5.1181Y-1.7717
X5.1181Y-1.9685
X5.1181Y-2.1654
X5.1181Y-2.3622
X5.1181Y-2.5591
X5.1181Y-2.7559
X5.1181Y-2.9528
X5.1181Y-3.1496
X5.1181Y-3.5433
X5.2756Y-2.3228
X5.2756Y-2.5
X5.2756Y-2.6772
X5.2756Y-2.8543
X5.2756Y-2.9921
X5.315Y-1.1811
X5.315Y-1.378
X5.315Y-1.5748
X5.315Y-1.7717
X5.315Y-3.0315
X5.315Y-3.1496
X5.315Y-3.3465
X5.315Y-3.5433
X5.3543Y-1.9291
X5.3543Y-2.1654
X5.4134Y-2.7559
X5.4134Y-2.8543
X5.4134Y-2.9528
X5.4921Y-3.0315
X5.5118Y-1.1811
X5.5118Y-1.378
X5.5118Y-2.7559
X5.5118Y-2.8543
X5.5118Y-2.9528
X5.5118Y-3.3465
X5.5118Y-3.5433
X5.6102Y-2.7559
X5.6102Y-2.8543
X5.6102Y-2.9528
X5.6693Y-1.9291
X5.6693Y-2.1654
X5.6693Y-3.0315
X5.7087Y-1.1811
X5.7087Y-1.378
X5.7087Y-2.7559
X5.7087Y-2.9528
X5.7087Y-3.1496
X5.7087Y-3.3465
X5.7087Y-3.5433
X5.8465Y-3.0315
X5.8661Y-1.9291
X5.8661Y-2.1654
X5.9055Y-1.1811
X5.9055Y-1.378
X5.9055Y-2.7559
X5.9055Y-2.9528
X5.9055Y-3.1496
X5.9055Y-3.3465
X5.9055Y-3.5433
X6.0039Y-2.7559
X6.0039Y-2.8543
X6.0039Y-2.9528
X6.0236Y-3.0315
X6.1024Y-1.1811
X6.1024Y-1.378
X6.1024Y-2.7559
X6.1024Y-2.8543
X6.1024Y-2.9528
X6.1024Y-3.1496
X6.1024Y-3.3465
X6.1024Y-3.5433
X6.1417Y-1.9291
X6.1417Y-2.1654
X6.2008Y-2.7559
X6.2008Y-2.8543
X6.2008Y-2.9528
X6.2008Y-3.0315
X6.2992Y-1.378
X6.2992Y-2.7559
X6.2992Y-2.8543
X6.2992Y-2.9528
X6.2992Y-3.1496
X6.2992Y-3.3465
X6.2992Y-3.5433
X6.3287Y-1.122
X6.3287Y-1.2402
X6.3386Y-1.9291
X6.3386Y-2.1654
X6.3386Y-3.0315
X6.3976Y-2.7559
X6.3976Y-2.8543
X6.3976Y-2.9528
X6.4173Y-1.3189
X6.4961Y-1.378
X6.4961Y-2.7559
X6.4961Y-2.9528
X6.4961Y-3.1496
X6.4961Y-3.3465
X6.4961Y-3.5433
X6.5157Y-3.0315
X6.6535Y-1.9291
X6.6535Y-2.1654
X6.6929Y-1.378
X6.6929Y-2.7559
X6.6929Y-2.9528
X6.6929Y-3.0315
X6.6929Y-3.1496
X6.6929Y-3.3465
X6.6929Y-3.5433
X6.7913Y-2.7559
X6.7913Y-2.8543
X6.7913Y-2.9528
X6.8307Y-3.0315
X6.8504Y-1.9291
X6.8504Y-2.1654
X6.8898Y-1.1811
X6.8898Y-1.378
X6.8898Y-2.7559
X6.8898Y-2.8543
X6.8898Y-2.9528
X6.8898Y-3.1496
X6.8898Y-3.3465
X6.8898Y-3.5433
X6.9882Y-2.7559
X6.9882Y-2.8543
X6.9882Y-2.9528
X7.0079Y-3.0315
X7.0866Y-1.1811
X7.0866Y-1.378
X7.0866Y-3.1496
X7.0866Y-3.3465
X7.0866Y-3.5433
X7.126Y-1.9291
X7.126Y-2.1654
X7.185Y-3.0315
X7.2835Y-1.1811
X7.2835Y-1.378
X7.2835Y-3.1496
X7.2835Y-3.3465
X7.2835Y-3.5433
X7.3228Y-1.9291
X7.3228Y-2.1654
X7.3622Y-3.0315
X7.4803Y-1.1811
X7.4803Y-1.378
X7.4803Y-3.1496
X7.4803Y-3.3465
X7.4803Y-3.5433
X7.5394Y-3.0315
X7.5984Y-1.9291
X7.6378Y-2.1654
X7.6772Y-1.1811
X7.6772Y-1.378
X7.6772Y-3.3465
X7.6772Y-3.5433
X7.7165Y-3.0315
X7.7559Y-2.3228
X7.7559Y-2.5
X7.7559Y-2.6772
X7.7559Y-2.8543
X7.7559Y-2.9921
X7.815Y-3.2283
X7.874Y-1.1811
X7.874Y-1.378
X7.874Y-3.5433
X8.0709Y-1.1811
X8.0709Y-1.378
X8.0709Y-3.5433
X8.2677Y-1.1811
X8.2677Y-1.378
X8.2677Y-1.5748
X8.2677Y-1.7717
X8.2677Y-3.5433
T3
X6.5551Y-1.1402
X6.5551Y-1.2402
X7.2244Y-2.7559
X7.3228Y-2.7559
T4
X8.1677Y-3.185
X8.2677Y-3.185
X8.1677Y-1.9567
X8.2677Y-1.9567
X8.1677Y-2.1142
X8.2677Y-2.1142
X8.1677Y-2.7244
X8.2677Y-2.7244
X4.8031Y-3.1496
X4.8031Y-3.2496
X8.1677Y-3.0315
X8.2677Y-3.0315
X8.1677Y-2.5709
X8.2677Y-2.5709
X8.1677Y-2.4173
X8.2677Y-2.4173
X8.1677Y-2.2638
X8.2677Y-2.2638
X6.7323Y-1.1402
X6.7323Y-1.2402
X7.6378Y-2.7559
X7.6378Y-2.8559
X8.1677Y-2.878
X8.2677Y-2.878
X8.1677Y-3.3386
X8.2677Y-3.3386
T5
X7.4606Y-2.7559
X7.4606Y-2.9059
X7.1335Y-2.9035
X7.2835Y-2.9035
T0
M30
