G04 #@! TF.GenerationSoftware,KiCad,Pcbnew,(5.1.5)-3*
G04 #@! TF.CreationDate,2020-06-02T16:47:02-04:00*
G04 #@! TF.ProjectId,LT3081-TESTING,4c543330-3831-42d5-9445-5354494e472e,rev?*
G04 #@! TF.SameCoordinates,Original*
G04 #@! TF.FileFunction,Soldermask,Bot*
G04 #@! TF.FilePolarity,Negative*
%FSLAX46Y46*%
G04 Gerber Fmt 4.6, Leading zero omitted, Abs format (unit mm)*
G04 Created by KiCad (PCBNEW (5.1.5)-3) date 2020-06-02 16:47:02*
%MOMM*%
%LPD*%
G04 APERTURE LIST*
%ADD10C,1.000000*%
%ADD11C,0.100000*%
G04 APERTURE END LIST*
D10*
X134000000Y-76000000D02*
X134000000Y-59000000D01*
X135000000Y-77000000D02*
X134000000Y-76000000D01*
X196000000Y-77000000D02*
X135000000Y-77000000D01*
X197000000Y-76000000D02*
X196000000Y-77000000D01*
X197000000Y-59000000D02*
X197000000Y-76000000D01*
X196000000Y-58000000D02*
X197000000Y-59000000D01*
X135000000Y-58000000D02*
X196000000Y-58000000D01*
X134000000Y-59000000D02*
X135000000Y-58000000D01*
D11*
G36*
X210113512Y-83903927D02*
G01*
X210262812Y-83933624D01*
X210426784Y-84001544D01*
X210574354Y-84100147D01*
X210699853Y-84225646D01*
X210798456Y-84373216D01*
X210866376Y-84537188D01*
X210901000Y-84711259D01*
X210901000Y-84888741D01*
X210866376Y-85062812D01*
X210798456Y-85226784D01*
X210699853Y-85374354D01*
X210574354Y-85499853D01*
X210426784Y-85598456D01*
X210262812Y-85666376D01*
X210113512Y-85696073D01*
X210088742Y-85701000D01*
X209911258Y-85701000D01*
X209886488Y-85696073D01*
X209737188Y-85666376D01*
X209573216Y-85598456D01*
X209425646Y-85499853D01*
X209300147Y-85374354D01*
X209201544Y-85226784D01*
X209133624Y-85062812D01*
X209099000Y-84888741D01*
X209099000Y-84711259D01*
X209133624Y-84537188D01*
X209201544Y-84373216D01*
X209300147Y-84225646D01*
X209425646Y-84100147D01*
X209573216Y-84001544D01*
X209737188Y-83933624D01*
X209886488Y-83903927D01*
X209911258Y-83899000D01*
X210088742Y-83899000D01*
X210113512Y-83903927D01*
G37*
G36*
X208361000Y-85701000D02*
G01*
X206559000Y-85701000D01*
X206559000Y-83899000D01*
X208361000Y-83899000D01*
X208361000Y-85701000D01*
G37*
G36*
X122901000Y-83441000D02*
G01*
X121099000Y-83441000D01*
X121099000Y-81639000D01*
X122901000Y-81639000D01*
X122901000Y-83441000D01*
G37*
G36*
X210113512Y-80003927D02*
G01*
X210262812Y-80033624D01*
X210426784Y-80101544D01*
X210574354Y-80200147D01*
X210699853Y-80325646D01*
X210798456Y-80473216D01*
X210866376Y-80637188D01*
X210901000Y-80811259D01*
X210901000Y-80988741D01*
X210866376Y-81162812D01*
X210798456Y-81326784D01*
X210699853Y-81474354D01*
X210574354Y-81599853D01*
X210426784Y-81698456D01*
X210262812Y-81766376D01*
X210113512Y-81796073D01*
X210088742Y-81801000D01*
X209911258Y-81801000D01*
X209886488Y-81796073D01*
X209737188Y-81766376D01*
X209573216Y-81698456D01*
X209425646Y-81599853D01*
X209300147Y-81474354D01*
X209201544Y-81326784D01*
X209133624Y-81162812D01*
X209099000Y-80988741D01*
X209099000Y-80811259D01*
X209133624Y-80637188D01*
X209201544Y-80473216D01*
X209300147Y-80325646D01*
X209425646Y-80200147D01*
X209573216Y-80101544D01*
X209737188Y-80033624D01*
X209886488Y-80003927D01*
X209911258Y-79999000D01*
X210088742Y-79999000D01*
X210113512Y-80003927D01*
G37*
G36*
X208361000Y-81801000D02*
G01*
X206559000Y-81801000D01*
X206559000Y-79999000D01*
X208361000Y-79999000D01*
X208361000Y-81801000D01*
G37*
G36*
X122113512Y-79103927D02*
G01*
X122262812Y-79133624D01*
X122426784Y-79201544D01*
X122574354Y-79300147D01*
X122699853Y-79425646D01*
X122798456Y-79573216D01*
X122866376Y-79737188D01*
X122901000Y-79911259D01*
X122901000Y-80088741D01*
X122866376Y-80262812D01*
X122798456Y-80426784D01*
X122699853Y-80574354D01*
X122574354Y-80699853D01*
X122426784Y-80798456D01*
X122262812Y-80866376D01*
X122113512Y-80896073D01*
X122088742Y-80901000D01*
X121911258Y-80901000D01*
X121886488Y-80896073D01*
X121737188Y-80866376D01*
X121573216Y-80798456D01*
X121425646Y-80699853D01*
X121300147Y-80574354D01*
X121201544Y-80426784D01*
X121133624Y-80262812D01*
X121099000Y-80088741D01*
X121099000Y-79911259D01*
X121133624Y-79737188D01*
X121201544Y-79573216D01*
X121300147Y-79425646D01*
X121425646Y-79300147D01*
X121573216Y-79201544D01*
X121737188Y-79133624D01*
X121886488Y-79103927D01*
X121911258Y-79099000D01*
X122088742Y-79099000D01*
X122113512Y-79103927D01*
G37*
G36*
X210113512Y-76103927D02*
G01*
X210262812Y-76133624D01*
X210426784Y-76201544D01*
X210574354Y-76300147D01*
X210699853Y-76425646D01*
X210798456Y-76573216D01*
X210866376Y-76737188D01*
X210901000Y-76911259D01*
X210901000Y-77088741D01*
X210866376Y-77262812D01*
X210798456Y-77426784D01*
X210699853Y-77574354D01*
X210574354Y-77699853D01*
X210426784Y-77798456D01*
X210262812Y-77866376D01*
X210113512Y-77896073D01*
X210088742Y-77901000D01*
X209911258Y-77901000D01*
X209886488Y-77896073D01*
X209737188Y-77866376D01*
X209573216Y-77798456D01*
X209425646Y-77699853D01*
X209300147Y-77574354D01*
X209201544Y-77426784D01*
X209133624Y-77262812D01*
X209099000Y-77088741D01*
X209099000Y-76911259D01*
X209133624Y-76737188D01*
X209201544Y-76573216D01*
X209300147Y-76425646D01*
X209425646Y-76300147D01*
X209573216Y-76201544D01*
X209737188Y-76133624D01*
X209886488Y-76103927D01*
X209911258Y-76099000D01*
X210088742Y-76099000D01*
X210113512Y-76103927D01*
G37*
G36*
X208361000Y-77901000D02*
G01*
X206559000Y-77901000D01*
X206559000Y-76099000D01*
X208361000Y-76099000D01*
X208361000Y-77901000D01*
G37*
G36*
X189879393Y-72559304D02*
G01*
X190116101Y-72657352D01*
X190116103Y-72657353D01*
X190329135Y-72799696D01*
X190510304Y-72980865D01*
X190652647Y-73193897D01*
X190652648Y-73193899D01*
X190750696Y-73430607D01*
X190800680Y-73681893D01*
X190800680Y-73938107D01*
X190750696Y-74189393D01*
X190677501Y-74366101D01*
X190652647Y-74426103D01*
X190510304Y-74639135D01*
X190329135Y-74820304D01*
X190116103Y-74962647D01*
X190116102Y-74962648D01*
X190116101Y-74962648D01*
X189879393Y-75060696D01*
X189628107Y-75110680D01*
X189371893Y-75110680D01*
X189120607Y-75060696D01*
X188883899Y-74962648D01*
X188883898Y-74962648D01*
X188883897Y-74962647D01*
X188670865Y-74820304D01*
X188489696Y-74639135D01*
X188347353Y-74426103D01*
X188322499Y-74366101D01*
X188249304Y-74189393D01*
X188199320Y-73938107D01*
X188199320Y-73681893D01*
X188249304Y-73430607D01*
X188347352Y-73193899D01*
X188347353Y-73193897D01*
X188489696Y-72980865D01*
X188670865Y-72799696D01*
X188883897Y-72657353D01*
X188883899Y-72657352D01*
X189120607Y-72559304D01*
X189371893Y-72509320D01*
X189628107Y-72509320D01*
X189879393Y-72559304D01*
G37*
G36*
X181569393Y-72499304D02*
G01*
X181806101Y-72597352D01*
X181806103Y-72597353D01*
X182019135Y-72739696D01*
X182200304Y-72920865D01*
X182342647Y-73133897D01*
X182342648Y-73133899D01*
X182440696Y-73370607D01*
X182490680Y-73621893D01*
X182490680Y-73878107D01*
X182440696Y-74129393D01*
X182342648Y-74366101D01*
X182342647Y-74366103D01*
X182200304Y-74579135D01*
X182019135Y-74760304D01*
X181806103Y-74902647D01*
X181806102Y-74902648D01*
X181806101Y-74902648D01*
X181569393Y-75000696D01*
X181318107Y-75050680D01*
X181061893Y-75050680D01*
X180810607Y-75000696D01*
X180573899Y-74902648D01*
X180573898Y-74902648D01*
X180573897Y-74902647D01*
X180360865Y-74760304D01*
X180179696Y-74579135D01*
X180037353Y-74366103D01*
X180037352Y-74366101D01*
X179939304Y-74129393D01*
X179889320Y-73878107D01*
X179889320Y-73621893D01*
X179939304Y-73370607D01*
X180037352Y-73133899D01*
X180037353Y-73133897D01*
X180179696Y-72920865D01*
X180360865Y-72739696D01*
X180573897Y-72597353D01*
X180573899Y-72597352D01*
X180810607Y-72499304D01*
X181061893Y-72449320D01*
X181318107Y-72449320D01*
X181569393Y-72499304D01*
G37*
G36*
X186300680Y-75050680D02*
G01*
X183699320Y-75050680D01*
X183699320Y-72449320D01*
X186300680Y-72449320D01*
X186300680Y-75050680D01*
G37*
G36*
X208361000Y-74001000D02*
G01*
X206559000Y-74001000D01*
X206559000Y-72199000D01*
X208361000Y-72199000D01*
X208361000Y-74001000D01*
G37*
G36*
X210113512Y-72203927D02*
G01*
X210262812Y-72233624D01*
X210426784Y-72301544D01*
X210574354Y-72400147D01*
X210699853Y-72525646D01*
X210798456Y-72673216D01*
X210866376Y-72837188D01*
X210894954Y-72980865D01*
X210901000Y-73011258D01*
X210901000Y-73188742D01*
X210899974Y-73193899D01*
X210866376Y-73362812D01*
X210798456Y-73526784D01*
X210699853Y-73674354D01*
X210574354Y-73799853D01*
X210426784Y-73898456D01*
X210262812Y-73966376D01*
X210113512Y-73996073D01*
X210088742Y-74001000D01*
X209911258Y-74001000D01*
X209886488Y-73996073D01*
X209737188Y-73966376D01*
X209573216Y-73898456D01*
X209425646Y-73799853D01*
X209300147Y-73674354D01*
X209201544Y-73526784D01*
X209133624Y-73362812D01*
X209100026Y-73193899D01*
X209099000Y-73188742D01*
X209099000Y-73011258D01*
X209105046Y-72980865D01*
X209133624Y-72837188D01*
X209201544Y-72673216D01*
X209300147Y-72525646D01*
X209425646Y-72400147D01*
X209573216Y-72301544D01*
X209737188Y-72233624D01*
X209886488Y-72203927D01*
X209911258Y-72199000D01*
X210088742Y-72199000D01*
X210113512Y-72203927D01*
G37*
G36*
X194113512Y-71643927D02*
G01*
X194262812Y-71673624D01*
X194426784Y-71741544D01*
X194574354Y-71840147D01*
X194699853Y-71965646D01*
X194798456Y-72113216D01*
X194866376Y-72277188D01*
X194896073Y-72426488D01*
X194900615Y-72449320D01*
X194901000Y-72451259D01*
X194901000Y-72628741D01*
X194866376Y-72802812D01*
X194798456Y-72966784D01*
X194699853Y-73114354D01*
X194574354Y-73239853D01*
X194426784Y-73338456D01*
X194262812Y-73406376D01*
X194113512Y-73436073D01*
X194088742Y-73441000D01*
X193911258Y-73441000D01*
X193886488Y-73436073D01*
X193737188Y-73406376D01*
X193573216Y-73338456D01*
X193425646Y-73239853D01*
X193300147Y-73114354D01*
X193201544Y-72966784D01*
X193133624Y-72802812D01*
X193099000Y-72628741D01*
X193099000Y-72451259D01*
X193099386Y-72449320D01*
X193103927Y-72426488D01*
X193133624Y-72277188D01*
X193201544Y-72113216D01*
X193300147Y-71965646D01*
X193425646Y-71840147D01*
X193573216Y-71741544D01*
X193737188Y-71673624D01*
X193886488Y-71643927D01*
X193911258Y-71639000D01*
X194088742Y-71639000D01*
X194113512Y-71643927D01*
G37*
G36*
X190800680Y-71300680D02*
G01*
X188199320Y-71300680D01*
X188199320Y-68699320D01*
X190800680Y-68699320D01*
X190800680Y-71300680D01*
G37*
G36*
X194901000Y-70901000D02*
G01*
X193099000Y-70901000D01*
X193099000Y-69099000D01*
X194901000Y-69099000D01*
X194901000Y-70901000D01*
G37*
G36*
X186248228Y-69181703D02*
G01*
X186403100Y-69245853D01*
X186542481Y-69338985D01*
X186661015Y-69457519D01*
X186754147Y-69596900D01*
X186818297Y-69751772D01*
X186851000Y-69916184D01*
X186851000Y-70083816D01*
X186818297Y-70248228D01*
X186754147Y-70403100D01*
X186661015Y-70542481D01*
X186542481Y-70661015D01*
X186403100Y-70754147D01*
X186248228Y-70818297D01*
X186083816Y-70851000D01*
X185916184Y-70851000D01*
X185751772Y-70818297D01*
X185596900Y-70754147D01*
X185457519Y-70661015D01*
X185338985Y-70542481D01*
X185245853Y-70403100D01*
X185181703Y-70248228D01*
X185149000Y-70083816D01*
X185149000Y-69916184D01*
X185181703Y-69751772D01*
X185245853Y-69596900D01*
X185338985Y-69457519D01*
X185457519Y-69338985D01*
X185596900Y-69245853D01*
X185751772Y-69181703D01*
X185916184Y-69149000D01*
X186083816Y-69149000D01*
X186248228Y-69181703D01*
G37*
G36*
X183748228Y-69181703D02*
G01*
X183903100Y-69245853D01*
X184042481Y-69338985D01*
X184161015Y-69457519D01*
X184254147Y-69596900D01*
X184318297Y-69751772D01*
X184351000Y-69916184D01*
X184351000Y-70083816D01*
X184318297Y-70248228D01*
X184254147Y-70403100D01*
X184161015Y-70542481D01*
X184042481Y-70661015D01*
X183903100Y-70754147D01*
X183748228Y-70818297D01*
X183583816Y-70851000D01*
X183416184Y-70851000D01*
X183251772Y-70818297D01*
X183096900Y-70754147D01*
X182957519Y-70661015D01*
X182838985Y-70542481D01*
X182745853Y-70403100D01*
X182681703Y-70248228D01*
X182649000Y-70083816D01*
X182649000Y-69916184D01*
X182681703Y-69751772D01*
X182745853Y-69596900D01*
X182838985Y-69457519D01*
X182957519Y-69338985D01*
X183096900Y-69245853D01*
X183251772Y-69181703D01*
X183416184Y-69149000D01*
X183583816Y-69149000D01*
X183748228Y-69181703D01*
G37*
G36*
X210113512Y-68303927D02*
G01*
X210262812Y-68333624D01*
X210426784Y-68401544D01*
X210574354Y-68500147D01*
X210699853Y-68625646D01*
X210798456Y-68773216D01*
X210866376Y-68937188D01*
X210901000Y-69111259D01*
X210901000Y-69288741D01*
X210866376Y-69462812D01*
X210798456Y-69626784D01*
X210699853Y-69774354D01*
X210574354Y-69899853D01*
X210426784Y-69998456D01*
X210262812Y-70066376D01*
X210113512Y-70096073D01*
X210088742Y-70101000D01*
X209911258Y-70101000D01*
X209886488Y-70096073D01*
X209737188Y-70066376D01*
X209573216Y-69998456D01*
X209425646Y-69899853D01*
X209300147Y-69774354D01*
X209201544Y-69626784D01*
X209133624Y-69462812D01*
X209099000Y-69288741D01*
X209099000Y-69111259D01*
X209133624Y-68937188D01*
X209201544Y-68773216D01*
X209300147Y-68625646D01*
X209425646Y-68500147D01*
X209573216Y-68401544D01*
X209737188Y-68333624D01*
X209886488Y-68303927D01*
X209911258Y-68299000D01*
X210088742Y-68299000D01*
X210113512Y-68303927D01*
G37*
G36*
X208361000Y-70101000D02*
G01*
X206559000Y-70101000D01*
X206559000Y-68299000D01*
X208361000Y-68299000D01*
X208361000Y-70101000D01*
G37*
G36*
X208361000Y-66201000D02*
G01*
X206559000Y-66201000D01*
X206559000Y-64399000D01*
X208361000Y-64399000D01*
X208361000Y-66201000D01*
G37*
G36*
X210113512Y-64403927D02*
G01*
X210262812Y-64433624D01*
X210426784Y-64501544D01*
X210574354Y-64600147D01*
X210699853Y-64725646D01*
X210798456Y-64873216D01*
X210866376Y-65037188D01*
X210901000Y-65211259D01*
X210901000Y-65388741D01*
X210866376Y-65562812D01*
X210798456Y-65726784D01*
X210699853Y-65874354D01*
X210574354Y-65999853D01*
X210426784Y-66098456D01*
X210262812Y-66166376D01*
X210113512Y-66196073D01*
X210088742Y-66201000D01*
X209911258Y-66201000D01*
X209886488Y-66196073D01*
X209737188Y-66166376D01*
X209573216Y-66098456D01*
X209425646Y-65999853D01*
X209300147Y-65874354D01*
X209201544Y-65726784D01*
X209133624Y-65562812D01*
X209099000Y-65388741D01*
X209099000Y-65211259D01*
X209133624Y-65037188D01*
X209201544Y-64873216D01*
X209300147Y-64725646D01*
X209425646Y-64600147D01*
X209573216Y-64501544D01*
X209737188Y-64433624D01*
X209886488Y-64403927D01*
X209911258Y-64399000D01*
X210088742Y-64399000D01*
X210113512Y-64403927D01*
G37*
G36*
X208361000Y-62301000D02*
G01*
X206559000Y-62301000D01*
X206559000Y-60499000D01*
X208361000Y-60499000D01*
X208361000Y-62301000D01*
G37*
G36*
X210113512Y-60503927D02*
G01*
X210262812Y-60533624D01*
X210426784Y-60601544D01*
X210574354Y-60700147D01*
X210699853Y-60825646D01*
X210798456Y-60973216D01*
X210866376Y-61137188D01*
X210901000Y-61311259D01*
X210901000Y-61488741D01*
X210866376Y-61662812D01*
X210798456Y-61826784D01*
X210699853Y-61974354D01*
X210574354Y-62099853D01*
X210426784Y-62198456D01*
X210262812Y-62266376D01*
X210113512Y-62296073D01*
X210088742Y-62301000D01*
X209911258Y-62301000D01*
X209886488Y-62296073D01*
X209737188Y-62266376D01*
X209573216Y-62198456D01*
X209425646Y-62099853D01*
X209300147Y-61974354D01*
X209201544Y-61826784D01*
X209133624Y-61662812D01*
X209099000Y-61488741D01*
X209099000Y-61311259D01*
X209133624Y-61137188D01*
X209201544Y-60973216D01*
X209300147Y-60825646D01*
X209425646Y-60700147D01*
X209573216Y-60601544D01*
X209737188Y-60533624D01*
X209886488Y-60503927D01*
X209911258Y-60499000D01*
X210088742Y-60499000D01*
X210113512Y-60503927D01*
G37*
G36*
X210113512Y-56603927D02*
G01*
X210262812Y-56633624D01*
X210426784Y-56701544D01*
X210574354Y-56800147D01*
X210699853Y-56925646D01*
X210798456Y-57073216D01*
X210866376Y-57237188D01*
X210901000Y-57411259D01*
X210901000Y-57588741D01*
X210866376Y-57762812D01*
X210798456Y-57926784D01*
X210699853Y-58074354D01*
X210574354Y-58199853D01*
X210426784Y-58298456D01*
X210262812Y-58366376D01*
X210113512Y-58396073D01*
X210088742Y-58401000D01*
X209911258Y-58401000D01*
X209886488Y-58396073D01*
X209737188Y-58366376D01*
X209573216Y-58298456D01*
X209425646Y-58199853D01*
X209300147Y-58074354D01*
X209201544Y-57926784D01*
X209133624Y-57762812D01*
X209099000Y-57588741D01*
X209099000Y-57411259D01*
X209133624Y-57237188D01*
X209201544Y-57073216D01*
X209300147Y-56925646D01*
X209425646Y-56800147D01*
X209573216Y-56701544D01*
X209737188Y-56633624D01*
X209886488Y-56603927D01*
X209911258Y-56599000D01*
X210088742Y-56599000D01*
X210113512Y-56603927D01*
G37*
G36*
X208361000Y-58401000D02*
G01*
X206559000Y-58401000D01*
X206559000Y-56599000D01*
X208361000Y-56599000D01*
X208361000Y-58401000D01*
G37*
G36*
X210113512Y-52803927D02*
G01*
X210262812Y-52833624D01*
X210426784Y-52901544D01*
X210574354Y-53000147D01*
X210699853Y-53125646D01*
X210798456Y-53273216D01*
X210866376Y-53437188D01*
X210901000Y-53611259D01*
X210901000Y-53788741D01*
X210866376Y-53962812D01*
X210798456Y-54126784D01*
X210699853Y-54274354D01*
X210574354Y-54399853D01*
X210426784Y-54498456D01*
X210262812Y-54566376D01*
X210113512Y-54596073D01*
X210088742Y-54601000D01*
X209911258Y-54601000D01*
X209886488Y-54596073D01*
X209737188Y-54566376D01*
X209573216Y-54498456D01*
X209425646Y-54399853D01*
X209300147Y-54274354D01*
X209201544Y-54126784D01*
X209133624Y-53962812D01*
X209099000Y-53788741D01*
X209099000Y-53611259D01*
X209133624Y-53437188D01*
X209201544Y-53273216D01*
X209300147Y-53125646D01*
X209425646Y-53000147D01*
X209573216Y-52901544D01*
X209737188Y-52833624D01*
X209886488Y-52803927D01*
X209911258Y-52799000D01*
X210088742Y-52799000D01*
X210113512Y-52803927D01*
G37*
G36*
X208361000Y-54601000D02*
G01*
X206559000Y-54601000D01*
X206559000Y-52799000D01*
X208361000Y-52799000D01*
X208361000Y-54601000D01*
G37*
G36*
X210113512Y-48803927D02*
G01*
X210262812Y-48833624D01*
X210426784Y-48901544D01*
X210574354Y-49000147D01*
X210699853Y-49125646D01*
X210798456Y-49273216D01*
X210866376Y-49437188D01*
X210901000Y-49611259D01*
X210901000Y-49788741D01*
X210866376Y-49962812D01*
X210798456Y-50126784D01*
X210699853Y-50274354D01*
X210574354Y-50399853D01*
X210426784Y-50498456D01*
X210262812Y-50566376D01*
X210113512Y-50596073D01*
X210088742Y-50601000D01*
X209911258Y-50601000D01*
X209886488Y-50596073D01*
X209737188Y-50566376D01*
X209573216Y-50498456D01*
X209425646Y-50399853D01*
X209300147Y-50274354D01*
X209201544Y-50126784D01*
X209133624Y-49962812D01*
X209099000Y-49788741D01*
X209099000Y-49611259D01*
X209133624Y-49437188D01*
X209201544Y-49273216D01*
X209300147Y-49125646D01*
X209425646Y-49000147D01*
X209573216Y-48901544D01*
X209737188Y-48833624D01*
X209886488Y-48803927D01*
X209911258Y-48799000D01*
X210088742Y-48799000D01*
X210113512Y-48803927D01*
G37*
G36*
X208361000Y-50601000D02*
G01*
X206559000Y-50601000D01*
X206559000Y-48799000D01*
X208361000Y-48799000D01*
X208361000Y-50601000D01*
G37*
G36*
X171901000Y-32401000D02*
G01*
X170099000Y-32401000D01*
X170099000Y-30599000D01*
X171901000Y-30599000D01*
X171901000Y-32401000D01*
G37*
G36*
X166719059Y-30777860D02*
G01*
X166855732Y-30834472D01*
X166978735Y-30916660D01*
X167083340Y-31021265D01*
X167165528Y-31144268D01*
X167222140Y-31280941D01*
X167251000Y-31426033D01*
X167251000Y-31573967D01*
X167222140Y-31719059D01*
X167165528Y-31855732D01*
X167083340Y-31978735D01*
X166978735Y-32083340D01*
X166855732Y-32165528D01*
X166855731Y-32165529D01*
X166855730Y-32165529D01*
X166719059Y-32222140D01*
X166573968Y-32251000D01*
X166426032Y-32251000D01*
X166280941Y-32222140D01*
X166144270Y-32165529D01*
X166144269Y-32165529D01*
X166144268Y-32165528D01*
X166021265Y-32083340D01*
X165916660Y-31978735D01*
X165834472Y-31855732D01*
X165777860Y-31719059D01*
X165749000Y-31573967D01*
X165749000Y-31426033D01*
X165777860Y-31280941D01*
X165834472Y-31144268D01*
X165916660Y-31021265D01*
X166021265Y-30916660D01*
X166144268Y-30834472D01*
X166280941Y-30777860D01*
X166426032Y-30749000D01*
X166573968Y-30749000D01*
X166719059Y-30777860D01*
G37*
G36*
X171113512Y-28063927D02*
G01*
X171262812Y-28093624D01*
X171426784Y-28161544D01*
X171574354Y-28260147D01*
X171699853Y-28385646D01*
X171798456Y-28533216D01*
X171866376Y-28697188D01*
X171901000Y-28871259D01*
X171901000Y-29048741D01*
X171866376Y-29222812D01*
X171798456Y-29386784D01*
X171699853Y-29534354D01*
X171574354Y-29659853D01*
X171426784Y-29758456D01*
X171262812Y-29826376D01*
X171113512Y-29856073D01*
X171088742Y-29861000D01*
X170911258Y-29861000D01*
X170886488Y-29856073D01*
X170737188Y-29826376D01*
X170573216Y-29758456D01*
X170425646Y-29659853D01*
X170300147Y-29534354D01*
X170201544Y-29386784D01*
X170133624Y-29222812D01*
X170099000Y-29048741D01*
X170099000Y-28871259D01*
X170133624Y-28697188D01*
X170201544Y-28533216D01*
X170300147Y-28385646D01*
X170425646Y-28260147D01*
X170573216Y-28161544D01*
X170737188Y-28093624D01*
X170886488Y-28063927D01*
X170911258Y-28059000D01*
X171088742Y-28059000D01*
X171113512Y-28063927D01*
G37*
G36*
X166719059Y-28237860D02*
G01*
X166772865Y-28260147D01*
X166855732Y-28294472D01*
X166978735Y-28376660D01*
X167083340Y-28481265D01*
X167118054Y-28533218D01*
X167165529Y-28604270D01*
X167222140Y-28740941D01*
X167251000Y-28886032D01*
X167251000Y-29033968D01*
X167248061Y-29048742D01*
X167222140Y-29179059D01*
X167165528Y-29315732D01*
X167083340Y-29438735D01*
X166978735Y-29543340D01*
X166855732Y-29625528D01*
X166855731Y-29625529D01*
X166855730Y-29625529D01*
X166719059Y-29682140D01*
X166573968Y-29711000D01*
X166426032Y-29711000D01*
X166280941Y-29682140D01*
X166144270Y-29625529D01*
X166144269Y-29625529D01*
X166144268Y-29625528D01*
X166021265Y-29543340D01*
X165916660Y-29438735D01*
X165834472Y-29315732D01*
X165777860Y-29179059D01*
X165751939Y-29048742D01*
X165749000Y-29033968D01*
X165749000Y-28886032D01*
X165777860Y-28740941D01*
X165834471Y-28604270D01*
X165881946Y-28533218D01*
X165916660Y-28481265D01*
X166021265Y-28376660D01*
X166144268Y-28294472D01*
X166227136Y-28260147D01*
X166280941Y-28237860D01*
X166426032Y-28209000D01*
X166573968Y-28209000D01*
X166719059Y-28237860D01*
G37*
M02*
