G04 #@! TF.GenerationSoftware,KiCad,Pcbnew,(5.1.5)-3*
G04 #@! TF.CreationDate,2020-06-02T16:47:02-04:00*
G04 #@! TF.ProjectId,LT3081-TESTING,4c543330-3831-42d5-9445-5354494e472e,rev?*
G04 #@! TF.SameCoordinates,Original*
G04 #@! TF.FileFunction,Soldermask,Top*
G04 #@! TF.FilePolarity,Negative*
%FSLAX46Y46*%
G04 Gerber Fmt 4.6, Leading zero omitted, Abs format (unit mm)*
G04 Created by KiCad (PCBNEW (5.1.5)-3) date 2020-06-02 16:47:02*
%MOMM*%
%LPD*%
G04 APERTURE LIST*
%ADD10C,1.000000*%
%ADD11C,0.100000*%
G04 APERTURE END LIST*
D10*
X134000000Y-76000000D02*
X135000000Y-77000000D01*
X134000000Y-72500000D02*
X134000000Y-76000000D01*
X134000000Y-63500000D02*
X134000000Y-72500000D01*
X134000000Y-59000000D02*
X134000000Y-63500000D01*
X135000000Y-58000000D02*
X134000000Y-59000000D01*
X196000000Y-77000000D02*
X135000000Y-77000000D01*
X197000000Y-76000000D02*
X196000000Y-77000000D01*
X197000000Y-59000000D02*
X197000000Y-76000000D01*
X196000000Y-58000000D02*
X197000000Y-59000000D01*
X135000000Y-58000000D02*
X196000000Y-58000000D01*
D11*
G36*
X210113512Y-83903927D02*
G01*
X210262812Y-83933624D01*
X210426784Y-84001544D01*
X210574354Y-84100147D01*
X210699853Y-84225646D01*
X210798456Y-84373216D01*
X210866376Y-84537188D01*
X210901000Y-84711259D01*
X210901000Y-84888741D01*
X210866376Y-85062812D01*
X210798456Y-85226784D01*
X210699853Y-85374354D01*
X210574354Y-85499853D01*
X210426784Y-85598456D01*
X210262812Y-85666376D01*
X210113512Y-85696073D01*
X210088742Y-85701000D01*
X209911258Y-85701000D01*
X209886488Y-85696073D01*
X209737188Y-85666376D01*
X209573216Y-85598456D01*
X209425646Y-85499853D01*
X209300147Y-85374354D01*
X209201544Y-85226784D01*
X209133624Y-85062812D01*
X209099000Y-84888741D01*
X209099000Y-84711259D01*
X209133624Y-84537188D01*
X209201544Y-84373216D01*
X209300147Y-84225646D01*
X209425646Y-84100147D01*
X209573216Y-84001544D01*
X209737188Y-83933624D01*
X209886488Y-83903927D01*
X209911258Y-83899000D01*
X210088742Y-83899000D01*
X210113512Y-83903927D01*
G37*
G36*
X208361000Y-85701000D02*
G01*
X206559000Y-85701000D01*
X206559000Y-83899000D01*
X208361000Y-83899000D01*
X208361000Y-85701000D01*
G37*
G36*
X202596968Y-84053565D02*
G01*
X202635638Y-84065296D01*
X202671277Y-84084346D01*
X202702517Y-84109983D01*
X202728154Y-84141223D01*
X202747204Y-84176862D01*
X202758935Y-84215532D01*
X202763500Y-84261888D01*
X202763500Y-85338112D01*
X202758935Y-85384468D01*
X202747204Y-85423138D01*
X202728154Y-85458777D01*
X202702517Y-85490017D01*
X202671277Y-85515654D01*
X202635638Y-85534704D01*
X202596968Y-85546435D01*
X202550612Y-85551000D01*
X201899388Y-85551000D01*
X201853032Y-85546435D01*
X201814362Y-85534704D01*
X201778723Y-85515654D01*
X201747483Y-85490017D01*
X201721846Y-85458777D01*
X201702796Y-85423138D01*
X201691065Y-85384468D01*
X201686500Y-85338112D01*
X201686500Y-84261888D01*
X201691065Y-84215532D01*
X201702796Y-84176862D01*
X201721846Y-84141223D01*
X201747483Y-84109983D01*
X201778723Y-84084346D01*
X201814362Y-84065296D01*
X201853032Y-84053565D01*
X201899388Y-84049000D01*
X202550612Y-84049000D01*
X202596968Y-84053565D01*
G37*
G36*
X204471968Y-84053565D02*
G01*
X204510638Y-84065296D01*
X204546277Y-84084346D01*
X204577517Y-84109983D01*
X204603154Y-84141223D01*
X204622204Y-84176862D01*
X204633935Y-84215532D01*
X204638500Y-84261888D01*
X204638500Y-85338112D01*
X204633935Y-85384468D01*
X204622204Y-85423138D01*
X204603154Y-85458777D01*
X204577517Y-85490017D01*
X204546277Y-85515654D01*
X204510638Y-85534704D01*
X204471968Y-85546435D01*
X204425612Y-85551000D01*
X203774388Y-85551000D01*
X203728032Y-85546435D01*
X203689362Y-85534704D01*
X203653723Y-85515654D01*
X203622483Y-85490017D01*
X203596846Y-85458777D01*
X203577796Y-85423138D01*
X203566065Y-85384468D01*
X203561500Y-85338112D01*
X203561500Y-84261888D01*
X203566065Y-84215532D01*
X203577796Y-84176862D01*
X203596846Y-84141223D01*
X203622483Y-84109983D01*
X203653723Y-84084346D01*
X203689362Y-84065296D01*
X203728032Y-84053565D01*
X203774388Y-84049000D01*
X204425612Y-84049000D01*
X204471968Y-84053565D01*
G37*
G36*
X122901000Y-83441000D02*
G01*
X121099000Y-83441000D01*
X121099000Y-81639000D01*
X122901000Y-81639000D01*
X122901000Y-83441000D01*
G37*
G36*
X128588674Y-81428465D02*
G01*
X128626367Y-81439899D01*
X128661103Y-81458466D01*
X128691548Y-81483452D01*
X128716534Y-81513897D01*
X128735101Y-81548633D01*
X128746535Y-81586326D01*
X128751000Y-81631661D01*
X128751000Y-82468339D01*
X128746535Y-82513674D01*
X128735101Y-82551367D01*
X128716534Y-82586103D01*
X128691548Y-82616548D01*
X128661103Y-82641534D01*
X128626367Y-82660101D01*
X128588674Y-82671535D01*
X128543339Y-82676000D01*
X127456661Y-82676000D01*
X127411326Y-82671535D01*
X127373633Y-82660101D01*
X127338897Y-82641534D01*
X127308452Y-82616548D01*
X127283466Y-82586103D01*
X127264899Y-82551367D01*
X127253465Y-82513674D01*
X127249000Y-82468339D01*
X127249000Y-81631661D01*
X127253465Y-81586326D01*
X127264899Y-81548633D01*
X127283466Y-81513897D01*
X127308452Y-81483452D01*
X127338897Y-81458466D01*
X127373633Y-81439899D01*
X127411326Y-81428465D01*
X127456661Y-81424000D01*
X128543339Y-81424000D01*
X128588674Y-81428465D01*
G37*
G36*
X208361000Y-81801000D02*
G01*
X206559000Y-81801000D01*
X206559000Y-79999000D01*
X208361000Y-79999000D01*
X208361000Y-81801000D01*
G37*
G36*
X210113512Y-80003927D02*
G01*
X210262812Y-80033624D01*
X210426784Y-80101544D01*
X210574354Y-80200147D01*
X210699853Y-80325646D01*
X210798456Y-80473216D01*
X210866376Y-80637188D01*
X210901000Y-80811259D01*
X210901000Y-80988741D01*
X210866376Y-81162812D01*
X210798456Y-81326784D01*
X210699853Y-81474354D01*
X210574354Y-81599853D01*
X210426784Y-81698456D01*
X210262812Y-81766376D01*
X210113512Y-81796073D01*
X210088742Y-81801000D01*
X209911258Y-81801000D01*
X209886488Y-81796073D01*
X209737188Y-81766376D01*
X209573216Y-81698456D01*
X209425646Y-81599853D01*
X209300147Y-81474354D01*
X209201544Y-81326784D01*
X209133624Y-81162812D01*
X209099000Y-80988741D01*
X209099000Y-80811259D01*
X209133624Y-80637188D01*
X209201544Y-80473216D01*
X209300147Y-80325646D01*
X209425646Y-80200147D01*
X209573216Y-80101544D01*
X209737188Y-80033624D01*
X209886488Y-80003927D01*
X209911258Y-79999000D01*
X210088742Y-79999000D01*
X210113512Y-80003927D01*
G37*
G36*
X202596968Y-80153565D02*
G01*
X202635638Y-80165296D01*
X202671277Y-80184346D01*
X202702517Y-80209983D01*
X202728154Y-80241223D01*
X202747204Y-80276862D01*
X202758935Y-80315532D01*
X202763500Y-80361888D01*
X202763500Y-81438112D01*
X202758935Y-81484468D01*
X202747204Y-81523138D01*
X202728154Y-81558777D01*
X202702517Y-81590017D01*
X202671277Y-81615654D01*
X202635638Y-81634704D01*
X202596968Y-81646435D01*
X202550612Y-81651000D01*
X201899388Y-81651000D01*
X201853032Y-81646435D01*
X201814362Y-81634704D01*
X201778723Y-81615654D01*
X201747483Y-81590017D01*
X201721846Y-81558777D01*
X201702796Y-81523138D01*
X201691065Y-81484468D01*
X201686500Y-81438112D01*
X201686500Y-80361888D01*
X201691065Y-80315532D01*
X201702796Y-80276862D01*
X201721846Y-80241223D01*
X201747483Y-80209983D01*
X201778723Y-80184346D01*
X201814362Y-80165296D01*
X201853032Y-80153565D01*
X201899388Y-80149000D01*
X202550612Y-80149000D01*
X202596968Y-80153565D01*
G37*
G36*
X204471968Y-80153565D02*
G01*
X204510638Y-80165296D01*
X204546277Y-80184346D01*
X204577517Y-80209983D01*
X204603154Y-80241223D01*
X204622204Y-80276862D01*
X204633935Y-80315532D01*
X204638500Y-80361888D01*
X204638500Y-81438112D01*
X204633935Y-81484468D01*
X204622204Y-81523138D01*
X204603154Y-81558777D01*
X204577517Y-81590017D01*
X204546277Y-81615654D01*
X204510638Y-81634704D01*
X204471968Y-81646435D01*
X204425612Y-81651000D01*
X203774388Y-81651000D01*
X203728032Y-81646435D01*
X203689362Y-81634704D01*
X203653723Y-81615654D01*
X203622483Y-81590017D01*
X203596846Y-81558777D01*
X203577796Y-81523138D01*
X203566065Y-81484468D01*
X203561500Y-81438112D01*
X203561500Y-80361888D01*
X203566065Y-80315532D01*
X203577796Y-80276862D01*
X203596846Y-80241223D01*
X203622483Y-80209983D01*
X203653723Y-80184346D01*
X203689362Y-80165296D01*
X203728032Y-80153565D01*
X203774388Y-80149000D01*
X204425612Y-80149000D01*
X204471968Y-80153565D01*
G37*
G36*
X122113512Y-79103927D02*
G01*
X122262812Y-79133624D01*
X122426784Y-79201544D01*
X122574354Y-79300147D01*
X122699853Y-79425646D01*
X122798456Y-79573216D01*
X122866376Y-79737188D01*
X122901000Y-79911259D01*
X122901000Y-80088741D01*
X122866376Y-80262812D01*
X122798456Y-80426784D01*
X122699853Y-80574354D01*
X122574354Y-80699853D01*
X122426784Y-80798456D01*
X122262812Y-80866376D01*
X122113512Y-80896073D01*
X122088742Y-80901000D01*
X121911258Y-80901000D01*
X121886488Y-80896073D01*
X121737188Y-80866376D01*
X121573216Y-80798456D01*
X121425646Y-80699853D01*
X121300147Y-80574354D01*
X121201544Y-80426784D01*
X121133624Y-80262812D01*
X121099000Y-80088741D01*
X121099000Y-79911259D01*
X121133624Y-79737188D01*
X121201544Y-79573216D01*
X121300147Y-79425646D01*
X121425646Y-79300147D01*
X121573216Y-79201544D01*
X121737188Y-79133624D01*
X121886488Y-79103927D01*
X121911258Y-79099000D01*
X122088742Y-79099000D01*
X122113512Y-79103927D01*
G37*
G36*
X128588674Y-79378465D02*
G01*
X128626367Y-79389899D01*
X128661103Y-79408466D01*
X128691548Y-79433452D01*
X128716534Y-79463897D01*
X128735101Y-79498633D01*
X128746535Y-79536326D01*
X128751000Y-79581661D01*
X128751000Y-80418339D01*
X128746535Y-80463674D01*
X128735101Y-80501367D01*
X128716534Y-80536103D01*
X128691548Y-80566548D01*
X128661103Y-80591534D01*
X128626367Y-80610101D01*
X128588674Y-80621535D01*
X128543339Y-80626000D01*
X127456661Y-80626000D01*
X127411326Y-80621535D01*
X127373633Y-80610101D01*
X127338897Y-80591534D01*
X127308452Y-80566548D01*
X127283466Y-80536103D01*
X127264899Y-80501367D01*
X127253465Y-80463674D01*
X127249000Y-80418339D01*
X127249000Y-79581661D01*
X127253465Y-79536326D01*
X127264899Y-79498633D01*
X127283466Y-79463897D01*
X127308452Y-79433452D01*
X127338897Y-79408466D01*
X127373633Y-79389899D01*
X127411326Y-79378465D01*
X127456661Y-79374000D01*
X128543339Y-79374000D01*
X128588674Y-79378465D01*
G37*
G36*
X210113512Y-76103927D02*
G01*
X210262812Y-76133624D01*
X210426784Y-76201544D01*
X210574354Y-76300147D01*
X210699853Y-76425646D01*
X210798456Y-76573216D01*
X210866376Y-76737188D01*
X210901000Y-76911259D01*
X210901000Y-77088741D01*
X210866376Y-77262812D01*
X210798456Y-77426784D01*
X210699853Y-77574354D01*
X210574354Y-77699853D01*
X210426784Y-77798456D01*
X210262812Y-77866376D01*
X210113512Y-77896073D01*
X210088742Y-77901000D01*
X209911258Y-77901000D01*
X209886488Y-77896073D01*
X209737188Y-77866376D01*
X209573216Y-77798456D01*
X209425646Y-77699853D01*
X209300147Y-77574354D01*
X209201544Y-77426784D01*
X209133624Y-77262812D01*
X209099000Y-77088741D01*
X209099000Y-76911259D01*
X209133624Y-76737188D01*
X209201544Y-76573216D01*
X209300147Y-76425646D01*
X209425646Y-76300147D01*
X209573216Y-76201544D01*
X209737188Y-76133624D01*
X209886488Y-76103927D01*
X209911258Y-76099000D01*
X210088742Y-76099000D01*
X210113512Y-76103927D01*
G37*
G36*
X208361000Y-77901000D02*
G01*
X206559000Y-77901000D01*
X206559000Y-76099000D01*
X208361000Y-76099000D01*
X208361000Y-77901000D01*
G37*
G36*
X202596968Y-76253565D02*
G01*
X202635638Y-76265296D01*
X202671277Y-76284346D01*
X202702517Y-76309983D01*
X202728154Y-76341223D01*
X202747204Y-76376862D01*
X202758935Y-76415532D01*
X202763500Y-76461888D01*
X202763500Y-77538112D01*
X202758935Y-77584468D01*
X202747204Y-77623138D01*
X202728154Y-77658777D01*
X202702517Y-77690017D01*
X202671277Y-77715654D01*
X202635638Y-77734704D01*
X202596968Y-77746435D01*
X202550612Y-77751000D01*
X201899388Y-77751000D01*
X201853032Y-77746435D01*
X201814362Y-77734704D01*
X201778723Y-77715654D01*
X201747483Y-77690017D01*
X201721846Y-77658777D01*
X201702796Y-77623138D01*
X201691065Y-77584468D01*
X201686500Y-77538112D01*
X201686500Y-76461888D01*
X201691065Y-76415532D01*
X201702796Y-76376862D01*
X201721846Y-76341223D01*
X201747483Y-76309983D01*
X201778723Y-76284346D01*
X201814362Y-76265296D01*
X201853032Y-76253565D01*
X201899388Y-76249000D01*
X202550612Y-76249000D01*
X202596968Y-76253565D01*
G37*
G36*
X204471968Y-76253565D02*
G01*
X204510638Y-76265296D01*
X204546277Y-76284346D01*
X204577517Y-76309983D01*
X204603154Y-76341223D01*
X204622204Y-76376862D01*
X204633935Y-76415532D01*
X204638500Y-76461888D01*
X204638500Y-77538112D01*
X204633935Y-77584468D01*
X204622204Y-77623138D01*
X204603154Y-77658777D01*
X204577517Y-77690017D01*
X204546277Y-77715654D01*
X204510638Y-77734704D01*
X204471968Y-77746435D01*
X204425612Y-77751000D01*
X203774388Y-77751000D01*
X203728032Y-77746435D01*
X203689362Y-77734704D01*
X203653723Y-77715654D01*
X203622483Y-77690017D01*
X203596846Y-77658777D01*
X203577796Y-77623138D01*
X203566065Y-77584468D01*
X203561500Y-77538112D01*
X203561500Y-76461888D01*
X203566065Y-76415532D01*
X203577796Y-76376862D01*
X203596846Y-76341223D01*
X203622483Y-76309983D01*
X203653723Y-76284346D01*
X203689362Y-76265296D01*
X203728032Y-76253565D01*
X203774388Y-76249000D01*
X204425612Y-76249000D01*
X204471968Y-76253565D01*
G37*
G36*
X189879393Y-72559304D02*
G01*
X190116101Y-72657352D01*
X190116103Y-72657353D01*
X190329135Y-72799696D01*
X190510304Y-72980865D01*
X190652647Y-73193897D01*
X190652648Y-73193899D01*
X190750696Y-73430607D01*
X190800680Y-73681893D01*
X190800680Y-73938107D01*
X190750696Y-74189393D01*
X190677501Y-74366101D01*
X190652647Y-74426103D01*
X190510304Y-74639135D01*
X190329135Y-74820304D01*
X190116103Y-74962647D01*
X190116102Y-74962648D01*
X190116101Y-74962648D01*
X189879393Y-75060696D01*
X189628107Y-75110680D01*
X189371893Y-75110680D01*
X189120607Y-75060696D01*
X188883899Y-74962648D01*
X188883898Y-74962648D01*
X188883897Y-74962647D01*
X188670865Y-74820304D01*
X188489696Y-74639135D01*
X188347353Y-74426103D01*
X188322499Y-74366101D01*
X188249304Y-74189393D01*
X188199320Y-73938107D01*
X188199320Y-73681893D01*
X188249304Y-73430607D01*
X188347352Y-73193899D01*
X188347353Y-73193897D01*
X188489696Y-72980865D01*
X188670865Y-72799696D01*
X188883897Y-72657353D01*
X188883899Y-72657352D01*
X189120607Y-72559304D01*
X189371893Y-72509320D01*
X189628107Y-72509320D01*
X189879393Y-72559304D01*
G37*
G36*
X181569393Y-72499304D02*
G01*
X181806101Y-72597352D01*
X181806103Y-72597353D01*
X182019135Y-72739696D01*
X182200304Y-72920865D01*
X182342647Y-73133897D01*
X182342648Y-73133899D01*
X182440696Y-73370607D01*
X182490680Y-73621893D01*
X182490680Y-73878107D01*
X182440696Y-74129393D01*
X182342648Y-74366101D01*
X182342647Y-74366103D01*
X182200304Y-74579135D01*
X182019135Y-74760304D01*
X181806103Y-74902647D01*
X181806102Y-74902648D01*
X181806101Y-74902648D01*
X181569393Y-75000696D01*
X181318107Y-75050680D01*
X181061893Y-75050680D01*
X180810607Y-75000696D01*
X180573899Y-74902648D01*
X180573898Y-74902648D01*
X180573897Y-74902647D01*
X180360865Y-74760304D01*
X180179696Y-74579135D01*
X180037353Y-74366103D01*
X180037352Y-74366101D01*
X179939304Y-74129393D01*
X179889320Y-73878107D01*
X179889320Y-73621893D01*
X179939304Y-73370607D01*
X180037352Y-73133899D01*
X180037353Y-73133897D01*
X180179696Y-72920865D01*
X180360865Y-72739696D01*
X180573897Y-72597353D01*
X180573899Y-72597352D01*
X180810607Y-72499304D01*
X181061893Y-72449320D01*
X181318107Y-72449320D01*
X181569393Y-72499304D01*
G37*
G36*
X186300680Y-75050680D02*
G01*
X183699320Y-75050680D01*
X183699320Y-72449320D01*
X186300680Y-72449320D01*
X186300680Y-75050680D01*
G37*
G36*
X210113512Y-72203927D02*
G01*
X210262812Y-72233624D01*
X210426784Y-72301544D01*
X210574354Y-72400147D01*
X210699853Y-72525646D01*
X210798456Y-72673216D01*
X210866376Y-72837188D01*
X210894954Y-72980865D01*
X210901000Y-73011258D01*
X210901000Y-73188742D01*
X210899974Y-73193899D01*
X210866376Y-73362812D01*
X210798456Y-73526784D01*
X210699853Y-73674354D01*
X210574354Y-73799853D01*
X210426784Y-73898456D01*
X210262812Y-73966376D01*
X210113512Y-73996073D01*
X210088742Y-74001000D01*
X209911258Y-74001000D01*
X209886488Y-73996073D01*
X209737188Y-73966376D01*
X209573216Y-73898456D01*
X209425646Y-73799853D01*
X209300147Y-73674354D01*
X209201544Y-73526784D01*
X209133624Y-73362812D01*
X209100026Y-73193899D01*
X209099000Y-73188742D01*
X209099000Y-73011258D01*
X209105046Y-72980865D01*
X209133624Y-72837188D01*
X209201544Y-72673216D01*
X209300147Y-72525646D01*
X209425646Y-72400147D01*
X209573216Y-72301544D01*
X209737188Y-72233624D01*
X209886488Y-72203927D01*
X209911258Y-72199000D01*
X210088742Y-72199000D01*
X210113512Y-72203927D01*
G37*
G36*
X208361000Y-74001000D02*
G01*
X206559000Y-74001000D01*
X206559000Y-72199000D01*
X208361000Y-72199000D01*
X208361000Y-74001000D01*
G37*
G36*
X202596968Y-72353565D02*
G01*
X202635638Y-72365296D01*
X202671277Y-72384346D01*
X202702517Y-72409983D01*
X202728154Y-72441223D01*
X202747204Y-72476862D01*
X202758935Y-72515532D01*
X202763500Y-72561888D01*
X202763500Y-73638112D01*
X202758935Y-73684468D01*
X202747204Y-73723138D01*
X202728154Y-73758777D01*
X202702517Y-73790017D01*
X202671277Y-73815654D01*
X202635638Y-73834704D01*
X202596968Y-73846435D01*
X202550612Y-73851000D01*
X201899388Y-73851000D01*
X201853032Y-73846435D01*
X201814362Y-73834704D01*
X201778723Y-73815654D01*
X201747483Y-73790017D01*
X201721846Y-73758777D01*
X201702796Y-73723138D01*
X201691065Y-73684468D01*
X201686500Y-73638112D01*
X201686500Y-72561888D01*
X201691065Y-72515532D01*
X201702796Y-72476862D01*
X201721846Y-72441223D01*
X201747483Y-72409983D01*
X201778723Y-72384346D01*
X201814362Y-72365296D01*
X201853032Y-72353565D01*
X201899388Y-72349000D01*
X202550612Y-72349000D01*
X202596968Y-72353565D01*
G37*
G36*
X204471968Y-72353565D02*
G01*
X204510638Y-72365296D01*
X204546277Y-72384346D01*
X204577517Y-72409983D01*
X204603154Y-72441223D01*
X204622204Y-72476862D01*
X204633935Y-72515532D01*
X204638500Y-72561888D01*
X204638500Y-73638112D01*
X204633935Y-73684468D01*
X204622204Y-73723138D01*
X204603154Y-73758777D01*
X204577517Y-73790017D01*
X204546277Y-73815654D01*
X204510638Y-73834704D01*
X204471968Y-73846435D01*
X204425612Y-73851000D01*
X203774388Y-73851000D01*
X203728032Y-73846435D01*
X203689362Y-73834704D01*
X203653723Y-73815654D01*
X203622483Y-73790017D01*
X203596846Y-73758777D01*
X203577796Y-73723138D01*
X203566065Y-73684468D01*
X203561500Y-73638112D01*
X203561500Y-72561888D01*
X203566065Y-72515532D01*
X203577796Y-72476862D01*
X203596846Y-72441223D01*
X203622483Y-72409983D01*
X203653723Y-72384346D01*
X203689362Y-72365296D01*
X203728032Y-72353565D01*
X203774388Y-72349000D01*
X204425612Y-72349000D01*
X204471968Y-72353565D01*
G37*
G36*
X194113512Y-71643927D02*
G01*
X194262812Y-71673624D01*
X194426784Y-71741544D01*
X194574354Y-71840147D01*
X194699853Y-71965646D01*
X194798456Y-72113216D01*
X194866376Y-72277188D01*
X194892790Y-72409983D01*
X194900615Y-72449320D01*
X194901000Y-72451259D01*
X194901000Y-72628741D01*
X194866376Y-72802812D01*
X194798456Y-72966784D01*
X194699853Y-73114354D01*
X194574354Y-73239853D01*
X194426784Y-73338456D01*
X194262812Y-73406376D01*
X194113512Y-73436073D01*
X194088742Y-73441000D01*
X193911258Y-73441000D01*
X193886488Y-73436073D01*
X193737188Y-73406376D01*
X193573216Y-73338456D01*
X193425646Y-73239853D01*
X193300147Y-73114354D01*
X193201544Y-72966784D01*
X193133624Y-72802812D01*
X193099000Y-72628741D01*
X193099000Y-72451259D01*
X193099386Y-72449320D01*
X193107210Y-72409983D01*
X193133624Y-72277188D01*
X193201544Y-72113216D01*
X193300147Y-71965646D01*
X193425646Y-71840147D01*
X193573216Y-71741544D01*
X193737188Y-71673624D01*
X193886488Y-71643927D01*
X193911258Y-71639000D01*
X194088742Y-71639000D01*
X194113512Y-71643927D01*
G37*
G36*
X190800680Y-71300680D02*
G01*
X188199320Y-71300680D01*
X188199320Y-68699320D01*
X190800680Y-68699320D01*
X190800680Y-71300680D01*
G37*
G36*
X194901000Y-70901000D02*
G01*
X193099000Y-70901000D01*
X193099000Y-69099000D01*
X194901000Y-69099000D01*
X194901000Y-70901000D01*
G37*
G36*
X186248228Y-69181703D02*
G01*
X186403100Y-69245853D01*
X186542481Y-69338985D01*
X186661015Y-69457519D01*
X186754147Y-69596900D01*
X186818297Y-69751772D01*
X186851000Y-69916184D01*
X186851000Y-70083816D01*
X186818297Y-70248228D01*
X186754147Y-70403100D01*
X186661015Y-70542481D01*
X186542481Y-70661015D01*
X186403100Y-70754147D01*
X186248228Y-70818297D01*
X186083816Y-70851000D01*
X185916184Y-70851000D01*
X185751772Y-70818297D01*
X185596900Y-70754147D01*
X185457519Y-70661015D01*
X185338985Y-70542481D01*
X185245853Y-70403100D01*
X185181703Y-70248228D01*
X185149000Y-70083816D01*
X185149000Y-69916184D01*
X185181703Y-69751772D01*
X185245853Y-69596900D01*
X185338985Y-69457519D01*
X185457519Y-69338985D01*
X185596900Y-69245853D01*
X185751772Y-69181703D01*
X185916184Y-69149000D01*
X186083816Y-69149000D01*
X186248228Y-69181703D01*
G37*
G36*
X183748228Y-69181703D02*
G01*
X183903100Y-69245853D01*
X184042481Y-69338985D01*
X184161015Y-69457519D01*
X184254147Y-69596900D01*
X184318297Y-69751772D01*
X184351000Y-69916184D01*
X184351000Y-70083816D01*
X184318297Y-70248228D01*
X184254147Y-70403100D01*
X184161015Y-70542481D01*
X184042481Y-70661015D01*
X183903100Y-70754147D01*
X183748228Y-70818297D01*
X183583816Y-70851000D01*
X183416184Y-70851000D01*
X183251772Y-70818297D01*
X183096900Y-70754147D01*
X182957519Y-70661015D01*
X182838985Y-70542481D01*
X182745853Y-70403100D01*
X182681703Y-70248228D01*
X182649000Y-70083816D01*
X182649000Y-69916184D01*
X182681703Y-69751772D01*
X182745853Y-69596900D01*
X182838985Y-69457519D01*
X182957519Y-69338985D01*
X183096900Y-69245853D01*
X183251772Y-69181703D01*
X183416184Y-69149000D01*
X183583816Y-69149000D01*
X183748228Y-69181703D01*
G37*
G36*
X210113512Y-68303927D02*
G01*
X210262812Y-68333624D01*
X210426784Y-68401544D01*
X210574354Y-68500147D01*
X210699853Y-68625646D01*
X210798456Y-68773216D01*
X210866376Y-68937188D01*
X210901000Y-69111259D01*
X210901000Y-69288741D01*
X210866376Y-69462812D01*
X210798456Y-69626784D01*
X210699853Y-69774354D01*
X210574354Y-69899853D01*
X210426784Y-69998456D01*
X210262812Y-70066376D01*
X210113512Y-70096073D01*
X210088742Y-70101000D01*
X209911258Y-70101000D01*
X209886488Y-70096073D01*
X209737188Y-70066376D01*
X209573216Y-69998456D01*
X209425646Y-69899853D01*
X209300147Y-69774354D01*
X209201544Y-69626784D01*
X209133624Y-69462812D01*
X209099000Y-69288741D01*
X209099000Y-69111259D01*
X209133624Y-68937188D01*
X209201544Y-68773216D01*
X209300147Y-68625646D01*
X209425646Y-68500147D01*
X209573216Y-68401544D01*
X209737188Y-68333624D01*
X209886488Y-68303927D01*
X209911258Y-68299000D01*
X210088742Y-68299000D01*
X210113512Y-68303927D01*
G37*
G36*
X208361000Y-70101000D02*
G01*
X206559000Y-70101000D01*
X206559000Y-68299000D01*
X208361000Y-68299000D01*
X208361000Y-70101000D01*
G37*
G36*
X204471968Y-68453565D02*
G01*
X204510638Y-68465296D01*
X204546277Y-68484346D01*
X204577517Y-68509983D01*
X204603154Y-68541223D01*
X204622204Y-68576862D01*
X204633935Y-68615532D01*
X204638500Y-68661888D01*
X204638500Y-69738112D01*
X204633935Y-69784468D01*
X204622204Y-69823138D01*
X204603154Y-69858777D01*
X204577517Y-69890017D01*
X204546277Y-69915654D01*
X204510638Y-69934704D01*
X204471968Y-69946435D01*
X204425612Y-69951000D01*
X203774388Y-69951000D01*
X203728032Y-69946435D01*
X203689362Y-69934704D01*
X203653723Y-69915654D01*
X203622483Y-69890017D01*
X203596846Y-69858777D01*
X203577796Y-69823138D01*
X203566065Y-69784468D01*
X203561500Y-69738112D01*
X203561500Y-68661888D01*
X203566065Y-68615532D01*
X203577796Y-68576862D01*
X203596846Y-68541223D01*
X203622483Y-68509983D01*
X203653723Y-68484346D01*
X203689362Y-68465296D01*
X203728032Y-68453565D01*
X203774388Y-68449000D01*
X204425612Y-68449000D01*
X204471968Y-68453565D01*
G37*
G36*
X202596968Y-68453565D02*
G01*
X202635638Y-68465296D01*
X202671277Y-68484346D01*
X202702517Y-68509983D01*
X202728154Y-68541223D01*
X202747204Y-68576862D01*
X202758935Y-68615532D01*
X202763500Y-68661888D01*
X202763500Y-69738112D01*
X202758935Y-69784468D01*
X202747204Y-69823138D01*
X202728154Y-69858777D01*
X202702517Y-69890017D01*
X202671277Y-69915654D01*
X202635638Y-69934704D01*
X202596968Y-69946435D01*
X202550612Y-69951000D01*
X201899388Y-69951000D01*
X201853032Y-69946435D01*
X201814362Y-69934704D01*
X201778723Y-69915654D01*
X201747483Y-69890017D01*
X201721846Y-69858777D01*
X201702796Y-69823138D01*
X201691065Y-69784468D01*
X201686500Y-69738112D01*
X201686500Y-68661888D01*
X201691065Y-68615532D01*
X201702796Y-68576862D01*
X201721846Y-68541223D01*
X201747483Y-68509983D01*
X201778723Y-68484346D01*
X201814362Y-68465296D01*
X201853032Y-68453565D01*
X201899388Y-68449000D01*
X202550612Y-68449000D01*
X202596968Y-68453565D01*
G37*
G36*
X210113512Y-64403927D02*
G01*
X210262812Y-64433624D01*
X210426784Y-64501544D01*
X210574354Y-64600147D01*
X210699853Y-64725646D01*
X210798456Y-64873216D01*
X210866376Y-65037188D01*
X210901000Y-65211259D01*
X210901000Y-65388741D01*
X210866376Y-65562812D01*
X210798456Y-65726784D01*
X210699853Y-65874354D01*
X210574354Y-65999853D01*
X210426784Y-66098456D01*
X210262812Y-66166376D01*
X210113512Y-66196073D01*
X210088742Y-66201000D01*
X209911258Y-66201000D01*
X209886488Y-66196073D01*
X209737188Y-66166376D01*
X209573216Y-66098456D01*
X209425646Y-65999853D01*
X209300147Y-65874354D01*
X209201544Y-65726784D01*
X209133624Y-65562812D01*
X209099000Y-65388741D01*
X209099000Y-65211259D01*
X209133624Y-65037188D01*
X209201544Y-64873216D01*
X209300147Y-64725646D01*
X209425646Y-64600147D01*
X209573216Y-64501544D01*
X209737188Y-64433624D01*
X209886488Y-64403927D01*
X209911258Y-64399000D01*
X210088742Y-64399000D01*
X210113512Y-64403927D01*
G37*
G36*
X208361000Y-66201000D02*
G01*
X206559000Y-66201000D01*
X206559000Y-64399000D01*
X208361000Y-64399000D01*
X208361000Y-66201000D01*
G37*
G36*
X204471968Y-64553565D02*
G01*
X204510638Y-64565296D01*
X204546277Y-64584346D01*
X204577517Y-64609983D01*
X204603154Y-64641223D01*
X204622204Y-64676862D01*
X204633935Y-64715532D01*
X204638500Y-64761888D01*
X204638500Y-65838112D01*
X204633935Y-65884468D01*
X204622204Y-65923138D01*
X204603154Y-65958777D01*
X204577517Y-65990017D01*
X204546277Y-66015654D01*
X204510638Y-66034704D01*
X204471968Y-66046435D01*
X204425612Y-66051000D01*
X203774388Y-66051000D01*
X203728032Y-66046435D01*
X203689362Y-66034704D01*
X203653723Y-66015654D01*
X203622483Y-65990017D01*
X203596846Y-65958777D01*
X203577796Y-65923138D01*
X203566065Y-65884468D01*
X203561500Y-65838112D01*
X203561500Y-64761888D01*
X203566065Y-64715532D01*
X203577796Y-64676862D01*
X203596846Y-64641223D01*
X203622483Y-64609983D01*
X203653723Y-64584346D01*
X203689362Y-64565296D01*
X203728032Y-64553565D01*
X203774388Y-64549000D01*
X204425612Y-64549000D01*
X204471968Y-64553565D01*
G37*
G36*
X202596968Y-64553565D02*
G01*
X202635638Y-64565296D01*
X202671277Y-64584346D01*
X202702517Y-64609983D01*
X202728154Y-64641223D01*
X202747204Y-64676862D01*
X202758935Y-64715532D01*
X202763500Y-64761888D01*
X202763500Y-65838112D01*
X202758935Y-65884468D01*
X202747204Y-65923138D01*
X202728154Y-65958777D01*
X202702517Y-65990017D01*
X202671277Y-66015654D01*
X202635638Y-66034704D01*
X202596968Y-66046435D01*
X202550612Y-66051000D01*
X201899388Y-66051000D01*
X201853032Y-66046435D01*
X201814362Y-66034704D01*
X201778723Y-66015654D01*
X201747483Y-65990017D01*
X201721846Y-65958777D01*
X201702796Y-65923138D01*
X201691065Y-65884468D01*
X201686500Y-65838112D01*
X201686500Y-64761888D01*
X201691065Y-64715532D01*
X201702796Y-64676862D01*
X201721846Y-64641223D01*
X201747483Y-64609983D01*
X201778723Y-64584346D01*
X201814362Y-64565296D01*
X201853032Y-64553565D01*
X201899388Y-64549000D01*
X202550612Y-64549000D01*
X202596968Y-64553565D01*
G37*
G36*
X187911000Y-64001000D02*
G01*
X187009000Y-64001000D01*
X187009000Y-59299000D01*
X187911000Y-59299000D01*
X187911000Y-64001000D01*
G37*
G36*
X167991000Y-64001000D02*
G01*
X167089000Y-64001000D01*
X167089000Y-59299000D01*
X167991000Y-59299000D01*
X167991000Y-64001000D01*
G37*
G36*
X189181000Y-64001000D02*
G01*
X188279000Y-64001000D01*
X188279000Y-59299000D01*
X189181000Y-59299000D01*
X189181000Y-64001000D01*
G37*
G36*
X190451000Y-64001000D02*
G01*
X189549000Y-64001000D01*
X189549000Y-59299000D01*
X190451000Y-59299000D01*
X190451000Y-64001000D01*
G37*
G36*
X191721000Y-64001000D02*
G01*
X190819000Y-64001000D01*
X190819000Y-59299000D01*
X191721000Y-59299000D01*
X191721000Y-64001000D01*
G37*
G36*
X192991000Y-64001000D02*
G01*
X192089000Y-64001000D01*
X192089000Y-59299000D01*
X192991000Y-59299000D01*
X192991000Y-64001000D01*
G37*
G36*
X194261000Y-64001000D02*
G01*
X193359000Y-64001000D01*
X193359000Y-59299000D01*
X194261000Y-59299000D01*
X194261000Y-64001000D01*
G37*
G36*
X177951000Y-64001000D02*
G01*
X177049000Y-64001000D01*
X177049000Y-59299000D01*
X177951000Y-59299000D01*
X177951000Y-64001000D01*
G37*
G36*
X174141000Y-64001000D02*
G01*
X173239000Y-64001000D01*
X173239000Y-59299000D01*
X174141000Y-59299000D01*
X174141000Y-64001000D01*
G37*
G36*
X186641000Y-64001000D02*
G01*
X185739000Y-64001000D01*
X185739000Y-59299000D01*
X186641000Y-59299000D01*
X186641000Y-64001000D01*
G37*
G36*
X181761000Y-64001000D02*
G01*
X180859000Y-64001000D01*
X180859000Y-59299000D01*
X181761000Y-59299000D01*
X181761000Y-64001000D01*
G37*
G36*
X180491000Y-64001000D02*
G01*
X179589000Y-64001000D01*
X179589000Y-59299000D01*
X180491000Y-59299000D01*
X180491000Y-64001000D01*
G37*
G36*
X179221000Y-64001000D02*
G01*
X178319000Y-64001000D01*
X178319000Y-59299000D01*
X179221000Y-59299000D01*
X179221000Y-64001000D01*
G37*
G36*
X137911000Y-64001000D02*
G01*
X137009000Y-64001000D01*
X137009000Y-59299000D01*
X137911000Y-59299000D01*
X137911000Y-64001000D01*
G37*
G36*
X176681000Y-64001000D02*
G01*
X175779000Y-64001000D01*
X175779000Y-59299000D01*
X176681000Y-59299000D01*
X176681000Y-64001000D01*
G37*
G36*
X154221000Y-64001000D02*
G01*
X153319000Y-64001000D01*
X153319000Y-59299000D01*
X154221000Y-59299000D01*
X154221000Y-64001000D01*
G37*
G36*
X175411000Y-64001000D02*
G01*
X174509000Y-64001000D01*
X174509000Y-59299000D01*
X175411000Y-59299000D01*
X175411000Y-64001000D01*
G37*
G36*
X136641000Y-64001000D02*
G01*
X135739000Y-64001000D01*
X135739000Y-59299000D01*
X136641000Y-59299000D01*
X136641000Y-64001000D01*
G37*
G36*
X144261000Y-64001000D02*
G01*
X143359000Y-64001000D01*
X143359000Y-59299000D01*
X144261000Y-59299000D01*
X144261000Y-64001000D01*
G37*
G36*
X166721000Y-64001000D02*
G01*
X165819000Y-64001000D01*
X165819000Y-59299000D01*
X166721000Y-59299000D01*
X166721000Y-64001000D01*
G37*
G36*
X164181000Y-64001000D02*
G01*
X163279000Y-64001000D01*
X163279000Y-59299000D01*
X164181000Y-59299000D01*
X164181000Y-64001000D01*
G37*
G36*
X139181000Y-64001000D02*
G01*
X138279000Y-64001000D01*
X138279000Y-59299000D01*
X139181000Y-59299000D01*
X139181000Y-64001000D01*
G37*
G36*
X140451000Y-64001000D02*
G01*
X139549000Y-64001000D01*
X139549000Y-59299000D01*
X140451000Y-59299000D01*
X140451000Y-64001000D01*
G37*
G36*
X141721000Y-64001000D02*
G01*
X140819000Y-64001000D01*
X140819000Y-59299000D01*
X141721000Y-59299000D01*
X141721000Y-64001000D01*
G37*
G36*
X142991000Y-64001000D02*
G01*
X142089000Y-64001000D01*
X142089000Y-59299000D01*
X142991000Y-59299000D01*
X142991000Y-64001000D01*
G37*
G36*
X149141000Y-64001000D02*
G01*
X148239000Y-64001000D01*
X148239000Y-59299000D01*
X149141000Y-59299000D01*
X149141000Y-64001000D01*
G37*
G36*
X150411000Y-64001000D02*
G01*
X149509000Y-64001000D01*
X149509000Y-59299000D01*
X150411000Y-59299000D01*
X150411000Y-64001000D01*
G37*
G36*
X151681000Y-64001000D02*
G01*
X150779000Y-64001000D01*
X150779000Y-59299000D01*
X151681000Y-59299000D01*
X151681000Y-64001000D01*
G37*
G36*
X152951000Y-64001000D02*
G01*
X152049000Y-64001000D01*
X152049000Y-59299000D01*
X152951000Y-59299000D01*
X152951000Y-64001000D01*
G37*
G36*
X169261000Y-64001000D02*
G01*
X168359000Y-64001000D01*
X168359000Y-59299000D01*
X169261000Y-59299000D01*
X169261000Y-64001000D01*
G37*
G36*
X155491000Y-64001000D02*
G01*
X154589000Y-64001000D01*
X154589000Y-59299000D01*
X155491000Y-59299000D01*
X155491000Y-64001000D01*
G37*
G36*
X156761000Y-64001000D02*
G01*
X155859000Y-64001000D01*
X155859000Y-59299000D01*
X156761000Y-59299000D01*
X156761000Y-64001000D01*
G37*
G36*
X161641000Y-64001000D02*
G01*
X160739000Y-64001000D01*
X160739000Y-59299000D01*
X161641000Y-59299000D01*
X161641000Y-64001000D01*
G37*
G36*
X162911000Y-64001000D02*
G01*
X162009000Y-64001000D01*
X162009000Y-59299000D01*
X162911000Y-59299000D01*
X162911000Y-64001000D01*
G37*
G36*
X165451000Y-64001000D02*
G01*
X164549000Y-64001000D01*
X164549000Y-59299000D01*
X165451000Y-59299000D01*
X165451000Y-64001000D01*
G37*
G36*
X210113512Y-60503927D02*
G01*
X210262812Y-60533624D01*
X210426784Y-60601544D01*
X210574354Y-60700147D01*
X210699853Y-60825646D01*
X210798456Y-60973216D01*
X210866376Y-61137188D01*
X210901000Y-61311259D01*
X210901000Y-61488741D01*
X210866376Y-61662812D01*
X210798456Y-61826784D01*
X210699853Y-61974354D01*
X210574354Y-62099853D01*
X210426784Y-62198456D01*
X210262812Y-62266376D01*
X210113512Y-62296073D01*
X210088742Y-62301000D01*
X209911258Y-62301000D01*
X209886488Y-62296073D01*
X209737188Y-62266376D01*
X209573216Y-62198456D01*
X209425646Y-62099853D01*
X209300147Y-61974354D01*
X209201544Y-61826784D01*
X209133624Y-61662812D01*
X209099000Y-61488741D01*
X209099000Y-61311259D01*
X209133624Y-61137188D01*
X209201544Y-60973216D01*
X209300147Y-60825646D01*
X209425646Y-60700147D01*
X209573216Y-60601544D01*
X209737188Y-60533624D01*
X209886488Y-60503927D01*
X209911258Y-60499000D01*
X210088742Y-60499000D01*
X210113512Y-60503927D01*
G37*
G36*
X208361000Y-62301000D02*
G01*
X206559000Y-62301000D01*
X206559000Y-60499000D01*
X208361000Y-60499000D01*
X208361000Y-62301000D01*
G37*
G36*
X204471968Y-60653565D02*
G01*
X204510638Y-60665296D01*
X204546277Y-60684346D01*
X204577517Y-60709983D01*
X204603154Y-60741223D01*
X204622204Y-60776862D01*
X204633935Y-60815532D01*
X204638500Y-60861888D01*
X204638500Y-61938112D01*
X204633935Y-61984468D01*
X204622204Y-62023138D01*
X204603154Y-62058777D01*
X204577517Y-62090017D01*
X204546277Y-62115654D01*
X204510638Y-62134704D01*
X204471968Y-62146435D01*
X204425612Y-62151000D01*
X203774388Y-62151000D01*
X203728032Y-62146435D01*
X203689362Y-62134704D01*
X203653723Y-62115654D01*
X203622483Y-62090017D01*
X203596846Y-62058777D01*
X203577796Y-62023138D01*
X203566065Y-61984468D01*
X203561500Y-61938112D01*
X203561500Y-60861888D01*
X203566065Y-60815532D01*
X203577796Y-60776862D01*
X203596846Y-60741223D01*
X203622483Y-60709983D01*
X203653723Y-60684346D01*
X203689362Y-60665296D01*
X203728032Y-60653565D01*
X203774388Y-60649000D01*
X204425612Y-60649000D01*
X204471968Y-60653565D01*
G37*
G36*
X202596968Y-60653565D02*
G01*
X202635638Y-60665296D01*
X202671277Y-60684346D01*
X202702517Y-60709983D01*
X202728154Y-60741223D01*
X202747204Y-60776862D01*
X202758935Y-60815532D01*
X202763500Y-60861888D01*
X202763500Y-61938112D01*
X202758935Y-61984468D01*
X202747204Y-62023138D01*
X202728154Y-62058777D01*
X202702517Y-62090017D01*
X202671277Y-62115654D01*
X202635638Y-62134704D01*
X202596968Y-62146435D01*
X202550612Y-62151000D01*
X201899388Y-62151000D01*
X201853032Y-62146435D01*
X201814362Y-62134704D01*
X201778723Y-62115654D01*
X201747483Y-62090017D01*
X201721846Y-62058777D01*
X201702796Y-62023138D01*
X201691065Y-61984468D01*
X201686500Y-61938112D01*
X201686500Y-60861888D01*
X201691065Y-60815532D01*
X201702796Y-60776862D01*
X201721846Y-60741223D01*
X201747483Y-60709983D01*
X201778723Y-60684346D01*
X201814362Y-60665296D01*
X201853032Y-60653565D01*
X201899388Y-60649000D01*
X202550612Y-60649000D01*
X202596968Y-60653565D01*
G37*
G36*
X210113512Y-56603927D02*
G01*
X210262812Y-56633624D01*
X210426784Y-56701544D01*
X210574354Y-56800147D01*
X210699853Y-56925646D01*
X210798456Y-57073216D01*
X210866376Y-57237188D01*
X210901000Y-57411259D01*
X210901000Y-57588741D01*
X210866376Y-57762812D01*
X210798456Y-57926784D01*
X210699853Y-58074354D01*
X210574354Y-58199853D01*
X210426784Y-58298456D01*
X210262812Y-58366376D01*
X210113512Y-58396073D01*
X210088742Y-58401000D01*
X209911258Y-58401000D01*
X209886488Y-58396073D01*
X209737188Y-58366376D01*
X209573216Y-58298456D01*
X209425646Y-58199853D01*
X209300147Y-58074354D01*
X209201544Y-57926784D01*
X209133624Y-57762812D01*
X209099000Y-57588741D01*
X209099000Y-57411259D01*
X209133624Y-57237188D01*
X209201544Y-57073216D01*
X209300147Y-56925646D01*
X209425646Y-56800147D01*
X209573216Y-56701544D01*
X209737188Y-56633624D01*
X209886488Y-56603927D01*
X209911258Y-56599000D01*
X210088742Y-56599000D01*
X210113512Y-56603927D01*
G37*
G36*
X208361000Y-58401000D02*
G01*
X206559000Y-58401000D01*
X206559000Y-56599000D01*
X208361000Y-56599000D01*
X208361000Y-58401000D01*
G37*
G36*
X204471968Y-56753565D02*
G01*
X204510638Y-56765296D01*
X204546277Y-56784346D01*
X204577517Y-56809983D01*
X204603154Y-56841223D01*
X204622204Y-56876862D01*
X204633935Y-56915532D01*
X204638500Y-56961888D01*
X204638500Y-58038112D01*
X204633935Y-58084468D01*
X204622204Y-58123138D01*
X204603154Y-58158777D01*
X204577517Y-58190017D01*
X204546277Y-58215654D01*
X204510638Y-58234704D01*
X204471968Y-58246435D01*
X204425612Y-58251000D01*
X203774388Y-58251000D01*
X203728032Y-58246435D01*
X203689362Y-58234704D01*
X203653723Y-58215654D01*
X203622483Y-58190017D01*
X203596846Y-58158777D01*
X203577796Y-58123138D01*
X203566065Y-58084468D01*
X203561500Y-58038112D01*
X203561500Y-56961888D01*
X203566065Y-56915532D01*
X203577796Y-56876862D01*
X203596846Y-56841223D01*
X203622483Y-56809983D01*
X203653723Y-56784346D01*
X203689362Y-56765296D01*
X203728032Y-56753565D01*
X203774388Y-56749000D01*
X204425612Y-56749000D01*
X204471968Y-56753565D01*
G37*
G36*
X202596968Y-56753565D02*
G01*
X202635638Y-56765296D01*
X202671277Y-56784346D01*
X202702517Y-56809983D01*
X202728154Y-56841223D01*
X202747204Y-56876862D01*
X202758935Y-56915532D01*
X202763500Y-56961888D01*
X202763500Y-58038112D01*
X202758935Y-58084468D01*
X202747204Y-58123138D01*
X202728154Y-58158777D01*
X202702517Y-58190017D01*
X202671277Y-58215654D01*
X202635638Y-58234704D01*
X202596968Y-58246435D01*
X202550612Y-58251000D01*
X201899388Y-58251000D01*
X201853032Y-58246435D01*
X201814362Y-58234704D01*
X201778723Y-58215654D01*
X201747483Y-58190017D01*
X201721846Y-58158777D01*
X201702796Y-58123138D01*
X201691065Y-58084468D01*
X201686500Y-58038112D01*
X201686500Y-56961888D01*
X201691065Y-56915532D01*
X201702796Y-56876862D01*
X201721846Y-56841223D01*
X201747483Y-56809983D01*
X201778723Y-56784346D01*
X201814362Y-56765296D01*
X201853032Y-56753565D01*
X201899388Y-56749000D01*
X202550612Y-56749000D01*
X202596968Y-56753565D01*
G37*
G36*
X170451000Y-57251000D02*
G01*
X159549000Y-57251000D01*
X159549000Y-47749000D01*
X170451000Y-47749000D01*
X170451000Y-57251000D01*
G37*
G36*
X182951000Y-57251000D02*
G01*
X172049000Y-57251000D01*
X172049000Y-47749000D01*
X182951000Y-47749000D01*
X182951000Y-57251000D01*
G37*
G36*
X157951000Y-57251000D02*
G01*
X147049000Y-57251000D01*
X147049000Y-47749000D01*
X157951000Y-47749000D01*
X157951000Y-57251000D01*
G37*
G36*
X195451000Y-57251000D02*
G01*
X184549000Y-57251000D01*
X184549000Y-47749000D01*
X195451000Y-47749000D01*
X195451000Y-57251000D01*
G37*
G36*
X145451000Y-57251000D02*
G01*
X134549000Y-57251000D01*
X134549000Y-47749000D01*
X145451000Y-47749000D01*
X145451000Y-57251000D01*
G37*
G36*
X210113512Y-52803927D02*
G01*
X210262812Y-52833624D01*
X210426784Y-52901544D01*
X210574354Y-53000147D01*
X210699853Y-53125646D01*
X210798456Y-53273216D01*
X210866376Y-53437188D01*
X210901000Y-53611259D01*
X210901000Y-53788741D01*
X210866376Y-53962812D01*
X210798456Y-54126784D01*
X210699853Y-54274354D01*
X210574354Y-54399853D01*
X210426784Y-54498456D01*
X210262812Y-54566376D01*
X210113512Y-54596073D01*
X210088742Y-54601000D01*
X209911258Y-54601000D01*
X209886488Y-54596073D01*
X209737188Y-54566376D01*
X209573216Y-54498456D01*
X209425646Y-54399853D01*
X209300147Y-54274354D01*
X209201544Y-54126784D01*
X209133624Y-53962812D01*
X209099000Y-53788741D01*
X209099000Y-53611259D01*
X209133624Y-53437188D01*
X209201544Y-53273216D01*
X209300147Y-53125646D01*
X209425646Y-53000147D01*
X209573216Y-52901544D01*
X209737188Y-52833624D01*
X209886488Y-52803927D01*
X209911258Y-52799000D01*
X210088742Y-52799000D01*
X210113512Y-52803927D01*
G37*
G36*
X208361000Y-54601000D02*
G01*
X206559000Y-54601000D01*
X206559000Y-52799000D01*
X208361000Y-52799000D01*
X208361000Y-54601000D01*
G37*
G36*
X204471968Y-52953565D02*
G01*
X204510638Y-52965296D01*
X204546277Y-52984346D01*
X204577517Y-53009983D01*
X204603154Y-53041223D01*
X204622204Y-53076862D01*
X204633935Y-53115532D01*
X204638500Y-53161888D01*
X204638500Y-54238112D01*
X204633935Y-54284468D01*
X204622204Y-54323138D01*
X204603154Y-54358777D01*
X204577517Y-54390017D01*
X204546277Y-54415654D01*
X204510638Y-54434704D01*
X204471968Y-54446435D01*
X204425612Y-54451000D01*
X203774388Y-54451000D01*
X203728032Y-54446435D01*
X203689362Y-54434704D01*
X203653723Y-54415654D01*
X203622483Y-54390017D01*
X203596846Y-54358777D01*
X203577796Y-54323138D01*
X203566065Y-54284468D01*
X203561500Y-54238112D01*
X203561500Y-53161888D01*
X203566065Y-53115532D01*
X203577796Y-53076862D01*
X203596846Y-53041223D01*
X203622483Y-53009983D01*
X203653723Y-52984346D01*
X203689362Y-52965296D01*
X203728032Y-52953565D01*
X203774388Y-52949000D01*
X204425612Y-52949000D01*
X204471968Y-52953565D01*
G37*
G36*
X202596968Y-52953565D02*
G01*
X202635638Y-52965296D01*
X202671277Y-52984346D01*
X202702517Y-53009983D01*
X202728154Y-53041223D01*
X202747204Y-53076862D01*
X202758935Y-53115532D01*
X202763500Y-53161888D01*
X202763500Y-54238112D01*
X202758935Y-54284468D01*
X202747204Y-54323138D01*
X202728154Y-54358777D01*
X202702517Y-54390017D01*
X202671277Y-54415654D01*
X202635638Y-54434704D01*
X202596968Y-54446435D01*
X202550612Y-54451000D01*
X201899388Y-54451000D01*
X201853032Y-54446435D01*
X201814362Y-54434704D01*
X201778723Y-54415654D01*
X201747483Y-54390017D01*
X201721846Y-54358777D01*
X201702796Y-54323138D01*
X201691065Y-54284468D01*
X201686500Y-54238112D01*
X201686500Y-53161888D01*
X201691065Y-53115532D01*
X201702796Y-53076862D01*
X201721846Y-53041223D01*
X201747483Y-53009983D01*
X201778723Y-52984346D01*
X201814362Y-52965296D01*
X201853032Y-52953565D01*
X201899388Y-52949000D01*
X202550612Y-52949000D01*
X202596968Y-52953565D01*
G37*
G36*
X208361000Y-50601000D02*
G01*
X206559000Y-50601000D01*
X206559000Y-48799000D01*
X208361000Y-48799000D01*
X208361000Y-50601000D01*
G37*
G36*
X210113512Y-48803927D02*
G01*
X210262812Y-48833624D01*
X210426784Y-48901544D01*
X210574354Y-49000147D01*
X210699853Y-49125646D01*
X210798456Y-49273216D01*
X210866376Y-49437188D01*
X210901000Y-49611259D01*
X210901000Y-49788741D01*
X210866376Y-49962812D01*
X210798456Y-50126784D01*
X210699853Y-50274354D01*
X210574354Y-50399853D01*
X210426784Y-50498456D01*
X210262812Y-50566376D01*
X210113512Y-50596073D01*
X210088742Y-50601000D01*
X209911258Y-50601000D01*
X209886488Y-50596073D01*
X209737188Y-50566376D01*
X209573216Y-50498456D01*
X209425646Y-50399853D01*
X209300147Y-50274354D01*
X209201544Y-50126784D01*
X209133624Y-49962812D01*
X209099000Y-49788741D01*
X209099000Y-49611259D01*
X209133624Y-49437188D01*
X209201544Y-49273216D01*
X209300147Y-49125646D01*
X209425646Y-49000147D01*
X209573216Y-48901544D01*
X209737188Y-48833624D01*
X209886488Y-48803927D01*
X209911258Y-48799000D01*
X210088742Y-48799000D01*
X210113512Y-48803927D01*
G37*
G36*
X204471968Y-48953565D02*
G01*
X204510638Y-48965296D01*
X204546277Y-48984346D01*
X204577517Y-49009983D01*
X204603154Y-49041223D01*
X204622204Y-49076862D01*
X204633935Y-49115532D01*
X204638500Y-49161888D01*
X204638500Y-50238112D01*
X204633935Y-50284468D01*
X204622204Y-50323138D01*
X204603154Y-50358777D01*
X204577517Y-50390017D01*
X204546277Y-50415654D01*
X204510638Y-50434704D01*
X204471968Y-50446435D01*
X204425612Y-50451000D01*
X203774388Y-50451000D01*
X203728032Y-50446435D01*
X203689362Y-50434704D01*
X203653723Y-50415654D01*
X203622483Y-50390017D01*
X203596846Y-50358777D01*
X203577796Y-50323138D01*
X203566065Y-50284468D01*
X203561500Y-50238112D01*
X203561500Y-49161888D01*
X203566065Y-49115532D01*
X203577796Y-49076862D01*
X203596846Y-49041223D01*
X203622483Y-49009983D01*
X203653723Y-48984346D01*
X203689362Y-48965296D01*
X203728032Y-48953565D01*
X203774388Y-48949000D01*
X204425612Y-48949000D01*
X204471968Y-48953565D01*
G37*
G36*
X202596968Y-48953565D02*
G01*
X202635638Y-48965296D01*
X202671277Y-48984346D01*
X202702517Y-49009983D01*
X202728154Y-49041223D01*
X202747204Y-49076862D01*
X202758935Y-49115532D01*
X202763500Y-49161888D01*
X202763500Y-50238112D01*
X202758935Y-50284468D01*
X202747204Y-50323138D01*
X202728154Y-50358777D01*
X202702517Y-50390017D01*
X202671277Y-50415654D01*
X202635638Y-50434704D01*
X202596968Y-50446435D01*
X202550612Y-50451000D01*
X201899388Y-50451000D01*
X201853032Y-50446435D01*
X201814362Y-50434704D01*
X201778723Y-50415654D01*
X201747483Y-50390017D01*
X201721846Y-50358777D01*
X201702796Y-50323138D01*
X201691065Y-50284468D01*
X201686500Y-50238112D01*
X201686500Y-49161888D01*
X201691065Y-49115532D01*
X201702796Y-49076862D01*
X201721846Y-49041223D01*
X201747483Y-49009983D01*
X201778723Y-48984346D01*
X201814362Y-48965296D01*
X201853032Y-48953565D01*
X201899388Y-48949000D01*
X202550612Y-48949000D01*
X202596968Y-48953565D01*
G37*
G36*
X171901000Y-32401000D02*
G01*
X170099000Y-32401000D01*
X170099000Y-30599000D01*
X171901000Y-30599000D01*
X171901000Y-32401000D01*
G37*
G36*
X163775562Y-30740681D02*
G01*
X163810481Y-30751274D01*
X163842663Y-30768476D01*
X163870873Y-30791627D01*
X163894024Y-30819837D01*
X163911226Y-30852019D01*
X163921819Y-30886938D01*
X163926000Y-30929395D01*
X163926000Y-32070605D01*
X163921819Y-32113062D01*
X163911226Y-32147981D01*
X163894024Y-32180163D01*
X163870873Y-32208373D01*
X163842663Y-32231524D01*
X163810481Y-32248726D01*
X163775562Y-32259319D01*
X163733105Y-32263500D01*
X162266895Y-32263500D01*
X162224438Y-32259319D01*
X162189519Y-32248726D01*
X162157337Y-32231524D01*
X162129127Y-32208373D01*
X162105976Y-32180163D01*
X162088774Y-32147981D01*
X162078181Y-32113062D01*
X162074000Y-32070605D01*
X162074000Y-30929395D01*
X162078181Y-30886938D01*
X162088774Y-30852019D01*
X162105976Y-30819837D01*
X162129127Y-30791627D01*
X162157337Y-30768476D01*
X162189519Y-30751274D01*
X162224438Y-30740681D01*
X162266895Y-30736500D01*
X163733105Y-30736500D01*
X163775562Y-30740681D01*
G37*
G36*
X166719059Y-30777860D02*
G01*
X166855732Y-30834472D01*
X166978735Y-30916660D01*
X167083340Y-31021265D01*
X167165528Y-31144268D01*
X167222140Y-31280941D01*
X167251000Y-31426033D01*
X167251000Y-31573967D01*
X167222140Y-31719059D01*
X167165528Y-31855732D01*
X167083340Y-31978735D01*
X166978735Y-32083340D01*
X166855732Y-32165528D01*
X166855731Y-32165529D01*
X166855730Y-32165529D01*
X166719059Y-32222140D01*
X166573968Y-32251000D01*
X166426032Y-32251000D01*
X166280941Y-32222140D01*
X166144270Y-32165529D01*
X166144269Y-32165529D01*
X166144268Y-32165528D01*
X166021265Y-32083340D01*
X165916660Y-31978735D01*
X165834472Y-31855732D01*
X165777860Y-31719059D01*
X165749000Y-31573967D01*
X165749000Y-31426033D01*
X165777860Y-31280941D01*
X165834472Y-31144268D01*
X165916660Y-31021265D01*
X166021265Y-30916660D01*
X166144268Y-30834472D01*
X166280941Y-30777860D01*
X166426032Y-30749000D01*
X166573968Y-30749000D01*
X166719059Y-30777860D01*
G37*
G36*
X171113512Y-28063927D02*
G01*
X171262812Y-28093624D01*
X171426784Y-28161544D01*
X171574354Y-28260147D01*
X171699853Y-28385646D01*
X171798456Y-28533216D01*
X171866376Y-28697188D01*
X171901000Y-28871259D01*
X171901000Y-29048741D01*
X171866376Y-29222812D01*
X171798456Y-29386784D01*
X171699853Y-29534354D01*
X171574354Y-29659853D01*
X171426784Y-29758456D01*
X171262812Y-29826376D01*
X171113512Y-29856073D01*
X171088742Y-29861000D01*
X170911258Y-29861000D01*
X170886488Y-29856073D01*
X170737188Y-29826376D01*
X170573216Y-29758456D01*
X170425646Y-29659853D01*
X170300147Y-29534354D01*
X170201544Y-29386784D01*
X170133624Y-29222812D01*
X170099000Y-29048741D01*
X170099000Y-28871259D01*
X170133624Y-28697188D01*
X170201544Y-28533216D01*
X170300147Y-28385646D01*
X170425646Y-28260147D01*
X170573216Y-28161544D01*
X170737188Y-28093624D01*
X170886488Y-28063927D01*
X170911258Y-28059000D01*
X171088742Y-28059000D01*
X171113512Y-28063927D01*
G37*
G36*
X166719059Y-28237860D02*
G01*
X166772865Y-28260147D01*
X166855732Y-28294472D01*
X166978735Y-28376660D01*
X167083340Y-28481265D01*
X167118054Y-28533218D01*
X167165529Y-28604270D01*
X167222140Y-28740941D01*
X167251000Y-28886032D01*
X167251000Y-29033968D01*
X167223349Y-29172981D01*
X167222140Y-29179059D01*
X167165528Y-29315732D01*
X167083340Y-29438735D01*
X166978735Y-29543340D01*
X166855732Y-29625528D01*
X166855731Y-29625529D01*
X166855730Y-29625529D01*
X166719059Y-29682140D01*
X166573968Y-29711000D01*
X166426032Y-29711000D01*
X166280941Y-29682140D01*
X166144270Y-29625529D01*
X166144269Y-29625529D01*
X166144268Y-29625528D01*
X166021265Y-29543340D01*
X165916660Y-29438735D01*
X165834472Y-29315732D01*
X165777860Y-29179059D01*
X165776651Y-29172981D01*
X165749000Y-29033968D01*
X165749000Y-28886032D01*
X165777860Y-28740941D01*
X165834471Y-28604270D01*
X165881946Y-28533218D01*
X165916660Y-28481265D01*
X166021265Y-28376660D01*
X166144268Y-28294472D01*
X166227136Y-28260147D01*
X166280941Y-28237860D01*
X166426032Y-28209000D01*
X166573968Y-28209000D01*
X166719059Y-28237860D01*
G37*
G36*
X163775562Y-27765681D02*
G01*
X163810481Y-27776274D01*
X163842663Y-27793476D01*
X163870873Y-27816627D01*
X163894024Y-27844837D01*
X163911226Y-27877019D01*
X163921819Y-27911938D01*
X163926000Y-27954395D01*
X163926000Y-29095605D01*
X163921819Y-29138062D01*
X163911226Y-29172981D01*
X163894024Y-29205163D01*
X163870873Y-29233373D01*
X163842663Y-29256524D01*
X163810481Y-29273726D01*
X163775562Y-29284319D01*
X163733105Y-29288500D01*
X162266895Y-29288500D01*
X162224438Y-29284319D01*
X162189519Y-29273726D01*
X162157337Y-29256524D01*
X162129127Y-29233373D01*
X162105976Y-29205163D01*
X162088774Y-29172981D01*
X162078181Y-29138062D01*
X162074000Y-29095605D01*
X162074000Y-27954395D01*
X162078181Y-27911938D01*
X162088774Y-27877019D01*
X162105976Y-27844837D01*
X162129127Y-27816627D01*
X162157337Y-27793476D01*
X162189519Y-27776274D01*
X162224438Y-27765681D01*
X162266895Y-27761500D01*
X163733105Y-27761500D01*
X163775562Y-27765681D01*
G37*
M02*
