G04 #@! TF.GenerationSoftware,KiCad,Pcbnew,(5.1.5)-3*
G04 #@! TF.CreationDate,2020-05-05T15:59:45-04:00*
G04 #@! TF.ProjectId,FullRangeSpeakerDriver,46756c6c-5261-46e6-9765-537065616b65,rev?*
G04 #@! TF.SameCoordinates,Original*
G04 #@! TF.FileFunction,Legend,Top*
G04 #@! TF.FilePolarity,Positive*
%FSLAX46Y46*%
G04 Gerber Fmt 4.6, Leading zero omitted, Abs format (unit mm)*
G04 Created by KiCad (PCBNEW (5.1.5)-3) date 2020-05-05 15:59:45*
%MOMM*%
%LPD*%
G04 APERTURE LIST*
%ADD10C,0.150000*%
%ADD11C,0.120000*%
G04 APERTURE END LIST*
D10*
X191516047Y-84907428D02*
X192277952Y-84907428D01*
X191897000Y-85288380D02*
X191897000Y-84526476D01*
X191643047Y-77922428D02*
X192404952Y-77922428D01*
X210661285Y-83589761D02*
X210804142Y-83637380D01*
X211042238Y-83637380D01*
X211137476Y-83589761D01*
X211185095Y-83542142D01*
X211232714Y-83446904D01*
X211232714Y-83351666D01*
X211185095Y-83256428D01*
X211137476Y-83208809D01*
X211042238Y-83161190D01*
X210851761Y-83113571D01*
X210756523Y-83065952D01*
X210708904Y-83018333D01*
X210661285Y-82923095D01*
X210661285Y-82827857D01*
X210708904Y-82732619D01*
X210756523Y-82685000D01*
X210851761Y-82637380D01*
X211089857Y-82637380D01*
X211232714Y-82685000D01*
X211256523Y-80970380D02*
X210923190Y-80494190D01*
X210685095Y-80970380D02*
X210685095Y-79970380D01*
X211066047Y-79970380D01*
X211161285Y-80018000D01*
X211208904Y-80065619D01*
X211256523Y-80160857D01*
X211256523Y-80303714D01*
X211208904Y-80398952D01*
X211161285Y-80446571D01*
X211066047Y-80494190D01*
X210685095Y-80494190D01*
X210661285Y-77430380D02*
X211232714Y-77430380D01*
X210947000Y-78430380D02*
X210947000Y-77430380D01*
D11*
X190910000Y-59970000D02*
X190910000Y-61970000D01*
X190910000Y-61970000D02*
X203410000Y-61970000D01*
X203410000Y-61970000D02*
X203410000Y-59970000D01*
X201160000Y-62220000D02*
X200160000Y-62220000D01*
X203708000Y-73636000D02*
X203708000Y-72866000D01*
X203708000Y-65556000D02*
X203708000Y-66326000D01*
X205078000Y-72866000D02*
X205078000Y-66326000D01*
X202338000Y-72866000D02*
X205078000Y-72866000D01*
X202338000Y-66326000D02*
X202338000Y-72866000D01*
X205078000Y-66326000D02*
X202338000Y-66326000D01*
X205705225Y-71427000D02*
X205705225Y-71927000D01*
X205455225Y-71677000D02*
X205955225Y-71677000D01*
X210861000Y-72868000D02*
X210861000Y-73436000D01*
X210821000Y-72634000D02*
X210821000Y-73670000D01*
X210781000Y-72475000D02*
X210781000Y-73829000D01*
X210741000Y-72347000D02*
X210741000Y-73957000D01*
X210701000Y-72237000D02*
X210701000Y-74067000D01*
X210661000Y-72141000D02*
X210661000Y-74163000D01*
X210621000Y-72054000D02*
X210621000Y-74250000D01*
X210581000Y-71974000D02*
X210581000Y-74330000D01*
X210541000Y-74192000D02*
X210541000Y-74403000D01*
X210541000Y-71901000D02*
X210541000Y-72112000D01*
X210501000Y-74192000D02*
X210501000Y-74471000D01*
X210501000Y-71833000D02*
X210501000Y-72112000D01*
X210461000Y-74192000D02*
X210461000Y-74535000D01*
X210461000Y-71769000D02*
X210461000Y-72112000D01*
X210421000Y-74192000D02*
X210421000Y-74595000D01*
X210421000Y-71709000D02*
X210421000Y-72112000D01*
X210381000Y-74192000D02*
X210381000Y-74652000D01*
X210381000Y-71652000D02*
X210381000Y-72112000D01*
X210341000Y-74192000D02*
X210341000Y-74706000D01*
X210341000Y-71598000D02*
X210341000Y-72112000D01*
X210301000Y-74192000D02*
X210301000Y-74757000D01*
X210301000Y-71547000D02*
X210301000Y-72112000D01*
X210261000Y-74192000D02*
X210261000Y-74805000D01*
X210261000Y-71499000D02*
X210261000Y-72112000D01*
X210221000Y-74192000D02*
X210221000Y-74851000D01*
X210221000Y-71453000D02*
X210221000Y-72112000D01*
X210181000Y-74192000D02*
X210181000Y-74895000D01*
X210181000Y-71409000D02*
X210181000Y-72112000D01*
X210141000Y-74192000D02*
X210141000Y-74937000D01*
X210141000Y-71367000D02*
X210141000Y-72112000D01*
X210101000Y-74192000D02*
X210101000Y-74978000D01*
X210101000Y-71326000D02*
X210101000Y-72112000D01*
X210061000Y-74192000D02*
X210061000Y-75016000D01*
X210061000Y-71288000D02*
X210061000Y-72112000D01*
X210021000Y-74192000D02*
X210021000Y-75053000D01*
X210021000Y-71251000D02*
X210021000Y-72112000D01*
X209981000Y-74192000D02*
X209981000Y-75089000D01*
X209981000Y-71215000D02*
X209981000Y-72112000D01*
X209941000Y-74192000D02*
X209941000Y-75123000D01*
X209941000Y-71181000D02*
X209941000Y-72112000D01*
X209901000Y-74192000D02*
X209901000Y-75156000D01*
X209901000Y-71148000D02*
X209901000Y-72112000D01*
X209861000Y-74192000D02*
X209861000Y-75187000D01*
X209861000Y-71117000D02*
X209861000Y-72112000D01*
X209821000Y-74192000D02*
X209821000Y-75217000D01*
X209821000Y-71087000D02*
X209821000Y-72112000D01*
X209781000Y-74192000D02*
X209781000Y-75247000D01*
X209781000Y-71057000D02*
X209781000Y-72112000D01*
X209741000Y-74192000D02*
X209741000Y-75274000D01*
X209741000Y-71030000D02*
X209741000Y-72112000D01*
X209701000Y-74192000D02*
X209701000Y-75301000D01*
X209701000Y-71003000D02*
X209701000Y-72112000D01*
X209661000Y-74192000D02*
X209661000Y-75327000D01*
X209661000Y-70977000D02*
X209661000Y-72112000D01*
X209621000Y-74192000D02*
X209621000Y-75352000D01*
X209621000Y-70952000D02*
X209621000Y-72112000D01*
X209581000Y-74192000D02*
X209581000Y-75376000D01*
X209581000Y-70928000D02*
X209581000Y-72112000D01*
X209541000Y-74192000D02*
X209541000Y-75399000D01*
X209541000Y-70905000D02*
X209541000Y-72112000D01*
X209501000Y-74192000D02*
X209501000Y-75420000D01*
X209501000Y-70884000D02*
X209501000Y-72112000D01*
X209461000Y-74192000D02*
X209461000Y-75442000D01*
X209461000Y-70862000D02*
X209461000Y-72112000D01*
X209421000Y-74192000D02*
X209421000Y-75462000D01*
X209421000Y-70842000D02*
X209421000Y-72112000D01*
X209381000Y-74192000D02*
X209381000Y-75481000D01*
X209381000Y-70823000D02*
X209381000Y-72112000D01*
X209341000Y-74192000D02*
X209341000Y-75500000D01*
X209341000Y-70804000D02*
X209341000Y-72112000D01*
X209301000Y-74192000D02*
X209301000Y-75517000D01*
X209301000Y-70787000D02*
X209301000Y-72112000D01*
X209261000Y-74192000D02*
X209261000Y-75534000D01*
X209261000Y-70770000D02*
X209261000Y-72112000D01*
X209221000Y-74192000D02*
X209221000Y-75550000D01*
X209221000Y-70754000D02*
X209221000Y-72112000D01*
X209181000Y-74192000D02*
X209181000Y-75566000D01*
X209181000Y-70738000D02*
X209181000Y-72112000D01*
X209141000Y-74192000D02*
X209141000Y-75580000D01*
X209141000Y-70724000D02*
X209141000Y-72112000D01*
X209101000Y-74192000D02*
X209101000Y-75594000D01*
X209101000Y-70710000D02*
X209101000Y-72112000D01*
X209061000Y-74192000D02*
X209061000Y-75607000D01*
X209061000Y-70697000D02*
X209061000Y-72112000D01*
X209021000Y-74192000D02*
X209021000Y-75620000D01*
X209021000Y-70684000D02*
X209021000Y-72112000D01*
X208981000Y-74192000D02*
X208981000Y-75632000D01*
X208981000Y-70672000D02*
X208981000Y-72112000D01*
X208940000Y-74192000D02*
X208940000Y-75643000D01*
X208940000Y-70661000D02*
X208940000Y-72112000D01*
X208900000Y-74192000D02*
X208900000Y-75653000D01*
X208900000Y-70651000D02*
X208900000Y-72112000D01*
X208860000Y-74192000D02*
X208860000Y-75663000D01*
X208860000Y-70641000D02*
X208860000Y-72112000D01*
X208820000Y-74192000D02*
X208820000Y-75672000D01*
X208820000Y-70632000D02*
X208820000Y-72112000D01*
X208780000Y-74192000D02*
X208780000Y-75680000D01*
X208780000Y-70624000D02*
X208780000Y-72112000D01*
X208740000Y-74192000D02*
X208740000Y-75688000D01*
X208740000Y-70616000D02*
X208740000Y-72112000D01*
X208700000Y-74192000D02*
X208700000Y-75695000D01*
X208700000Y-70609000D02*
X208700000Y-72112000D01*
X208660000Y-74192000D02*
X208660000Y-75702000D01*
X208660000Y-70602000D02*
X208660000Y-72112000D01*
X208620000Y-74192000D02*
X208620000Y-75708000D01*
X208620000Y-70596000D02*
X208620000Y-72112000D01*
X208580000Y-74192000D02*
X208580000Y-75713000D01*
X208580000Y-70591000D02*
X208580000Y-72112000D01*
X208540000Y-74192000D02*
X208540000Y-75717000D01*
X208540000Y-70587000D02*
X208540000Y-72112000D01*
X208500000Y-74192000D02*
X208500000Y-75721000D01*
X208500000Y-70583000D02*
X208500000Y-72112000D01*
X208460000Y-70579000D02*
X208460000Y-75725000D01*
X208420000Y-70576000D02*
X208420000Y-75728000D01*
X208380000Y-70574000D02*
X208380000Y-75730000D01*
X208340000Y-70573000D02*
X208340000Y-75731000D01*
X208300000Y-70572000D02*
X208300000Y-75732000D01*
X208260000Y-70572000D02*
X208260000Y-75732000D01*
X210880000Y-73152000D02*
G75*
G03X210880000Y-73152000I-2620000J0D01*
G01*
X189306200Y-81002000D02*
X189306200Y-80232000D01*
X189306200Y-72922000D02*
X189306200Y-73692000D01*
X190676200Y-80232000D02*
X190676200Y-73692000D01*
X187936200Y-80232000D02*
X190676200Y-80232000D01*
X187936200Y-73692000D02*
X187936200Y-80232000D01*
X190676200Y-73692000D02*
X187936200Y-73692000D01*
X199500000Y-65472000D02*
X197850000Y-65472000D01*
X199500000Y-75752000D02*
X199500000Y-65472000D01*
X194200000Y-75752000D02*
X199500000Y-75752000D01*
X194200000Y-65472000D02*
X194200000Y-75752000D01*
X195850000Y-65472000D02*
X194200000Y-65472000D01*
X197850000Y-65472000D02*
G75*
G02X195850000Y-65472000I-1000000J0D01*
G01*
X186258200Y-81002000D02*
X186258200Y-80232000D01*
X186258200Y-72922000D02*
X186258200Y-73692000D01*
X187628200Y-80232000D02*
X187628200Y-73692000D01*
X184888200Y-80232000D02*
X187628200Y-80232000D01*
X184888200Y-73692000D02*
X184888200Y-80232000D01*
X187628200Y-73692000D02*
X184888200Y-73692000D01*
X193040000Y-83880000D02*
X191710000Y-83880000D01*
X191710000Y-83880000D02*
X191710000Y-82550000D01*
X191710000Y-81280000D02*
X191710000Y-78680000D01*
X194370000Y-78680000D02*
X191710000Y-78680000D01*
X194370000Y-81280000D02*
X194370000Y-78680000D01*
X194370000Y-81280000D02*
X191710000Y-81280000D01*
X208280000Y-84388000D02*
X206950000Y-84388000D01*
X206950000Y-84388000D02*
X206950000Y-83058000D01*
X206950000Y-81788000D02*
X206950000Y-76648000D01*
X209610000Y-76648000D02*
X206950000Y-76648000D01*
X209610000Y-81788000D02*
X209610000Y-76648000D01*
X209610000Y-81788000D02*
X206950000Y-81788000D01*
X190788775Y-68781000D02*
X190788775Y-68281000D01*
X191038775Y-68531000D02*
X190538775Y-68531000D01*
X185633000Y-67340000D02*
X185633000Y-66772000D01*
X185673000Y-67574000D02*
X185673000Y-66538000D01*
X185713000Y-67733000D02*
X185713000Y-66379000D01*
X185753000Y-67861000D02*
X185753000Y-66251000D01*
X185793000Y-67971000D02*
X185793000Y-66141000D01*
X185833000Y-68067000D02*
X185833000Y-66045000D01*
X185873000Y-68154000D02*
X185873000Y-65958000D01*
X185913000Y-68234000D02*
X185913000Y-65878000D01*
X185953000Y-66016000D02*
X185953000Y-65805000D01*
X185953000Y-68307000D02*
X185953000Y-68096000D01*
X185993000Y-66016000D02*
X185993000Y-65737000D01*
X185993000Y-68375000D02*
X185993000Y-68096000D01*
X186033000Y-66016000D02*
X186033000Y-65673000D01*
X186033000Y-68439000D02*
X186033000Y-68096000D01*
X186073000Y-66016000D02*
X186073000Y-65613000D01*
X186073000Y-68499000D02*
X186073000Y-68096000D01*
X186113000Y-66016000D02*
X186113000Y-65556000D01*
X186113000Y-68556000D02*
X186113000Y-68096000D01*
X186153000Y-66016000D02*
X186153000Y-65502000D01*
X186153000Y-68610000D02*
X186153000Y-68096000D01*
X186193000Y-66016000D02*
X186193000Y-65451000D01*
X186193000Y-68661000D02*
X186193000Y-68096000D01*
X186233000Y-66016000D02*
X186233000Y-65403000D01*
X186233000Y-68709000D02*
X186233000Y-68096000D01*
X186273000Y-66016000D02*
X186273000Y-65357000D01*
X186273000Y-68755000D02*
X186273000Y-68096000D01*
X186313000Y-66016000D02*
X186313000Y-65313000D01*
X186313000Y-68799000D02*
X186313000Y-68096000D01*
X186353000Y-66016000D02*
X186353000Y-65271000D01*
X186353000Y-68841000D02*
X186353000Y-68096000D01*
X186393000Y-66016000D02*
X186393000Y-65230000D01*
X186393000Y-68882000D02*
X186393000Y-68096000D01*
X186433000Y-66016000D02*
X186433000Y-65192000D01*
X186433000Y-68920000D02*
X186433000Y-68096000D01*
X186473000Y-66016000D02*
X186473000Y-65155000D01*
X186473000Y-68957000D02*
X186473000Y-68096000D01*
X186513000Y-66016000D02*
X186513000Y-65119000D01*
X186513000Y-68993000D02*
X186513000Y-68096000D01*
X186553000Y-66016000D02*
X186553000Y-65085000D01*
X186553000Y-69027000D02*
X186553000Y-68096000D01*
X186593000Y-66016000D02*
X186593000Y-65052000D01*
X186593000Y-69060000D02*
X186593000Y-68096000D01*
X186633000Y-66016000D02*
X186633000Y-65021000D01*
X186633000Y-69091000D02*
X186633000Y-68096000D01*
X186673000Y-66016000D02*
X186673000Y-64991000D01*
X186673000Y-69121000D02*
X186673000Y-68096000D01*
X186713000Y-66016000D02*
X186713000Y-64961000D01*
X186713000Y-69151000D02*
X186713000Y-68096000D01*
X186753000Y-66016000D02*
X186753000Y-64934000D01*
X186753000Y-69178000D02*
X186753000Y-68096000D01*
X186793000Y-66016000D02*
X186793000Y-64907000D01*
X186793000Y-69205000D02*
X186793000Y-68096000D01*
X186833000Y-66016000D02*
X186833000Y-64881000D01*
X186833000Y-69231000D02*
X186833000Y-68096000D01*
X186873000Y-66016000D02*
X186873000Y-64856000D01*
X186873000Y-69256000D02*
X186873000Y-68096000D01*
X186913000Y-66016000D02*
X186913000Y-64832000D01*
X186913000Y-69280000D02*
X186913000Y-68096000D01*
X186953000Y-66016000D02*
X186953000Y-64809000D01*
X186953000Y-69303000D02*
X186953000Y-68096000D01*
X186993000Y-66016000D02*
X186993000Y-64788000D01*
X186993000Y-69324000D02*
X186993000Y-68096000D01*
X187033000Y-66016000D02*
X187033000Y-64766000D01*
X187033000Y-69346000D02*
X187033000Y-68096000D01*
X187073000Y-66016000D02*
X187073000Y-64746000D01*
X187073000Y-69366000D02*
X187073000Y-68096000D01*
X187113000Y-66016000D02*
X187113000Y-64727000D01*
X187113000Y-69385000D02*
X187113000Y-68096000D01*
X187153000Y-66016000D02*
X187153000Y-64708000D01*
X187153000Y-69404000D02*
X187153000Y-68096000D01*
X187193000Y-66016000D02*
X187193000Y-64691000D01*
X187193000Y-69421000D02*
X187193000Y-68096000D01*
X187233000Y-66016000D02*
X187233000Y-64674000D01*
X187233000Y-69438000D02*
X187233000Y-68096000D01*
X187273000Y-66016000D02*
X187273000Y-64658000D01*
X187273000Y-69454000D02*
X187273000Y-68096000D01*
X187313000Y-66016000D02*
X187313000Y-64642000D01*
X187313000Y-69470000D02*
X187313000Y-68096000D01*
X187353000Y-66016000D02*
X187353000Y-64628000D01*
X187353000Y-69484000D02*
X187353000Y-68096000D01*
X187393000Y-66016000D02*
X187393000Y-64614000D01*
X187393000Y-69498000D02*
X187393000Y-68096000D01*
X187433000Y-66016000D02*
X187433000Y-64601000D01*
X187433000Y-69511000D02*
X187433000Y-68096000D01*
X187473000Y-66016000D02*
X187473000Y-64588000D01*
X187473000Y-69524000D02*
X187473000Y-68096000D01*
X187513000Y-66016000D02*
X187513000Y-64576000D01*
X187513000Y-69536000D02*
X187513000Y-68096000D01*
X187554000Y-66016000D02*
X187554000Y-64565000D01*
X187554000Y-69547000D02*
X187554000Y-68096000D01*
X187594000Y-66016000D02*
X187594000Y-64555000D01*
X187594000Y-69557000D02*
X187594000Y-68096000D01*
X187634000Y-66016000D02*
X187634000Y-64545000D01*
X187634000Y-69567000D02*
X187634000Y-68096000D01*
X187674000Y-66016000D02*
X187674000Y-64536000D01*
X187674000Y-69576000D02*
X187674000Y-68096000D01*
X187714000Y-66016000D02*
X187714000Y-64528000D01*
X187714000Y-69584000D02*
X187714000Y-68096000D01*
X187754000Y-66016000D02*
X187754000Y-64520000D01*
X187754000Y-69592000D02*
X187754000Y-68096000D01*
X187794000Y-66016000D02*
X187794000Y-64513000D01*
X187794000Y-69599000D02*
X187794000Y-68096000D01*
X187834000Y-66016000D02*
X187834000Y-64506000D01*
X187834000Y-69606000D02*
X187834000Y-68096000D01*
X187874000Y-66016000D02*
X187874000Y-64500000D01*
X187874000Y-69612000D02*
X187874000Y-68096000D01*
X187914000Y-66016000D02*
X187914000Y-64495000D01*
X187914000Y-69617000D02*
X187914000Y-68096000D01*
X187954000Y-66016000D02*
X187954000Y-64491000D01*
X187954000Y-69621000D02*
X187954000Y-68096000D01*
X187994000Y-66016000D02*
X187994000Y-64487000D01*
X187994000Y-69625000D02*
X187994000Y-68096000D01*
X188034000Y-69629000D02*
X188034000Y-64483000D01*
X188074000Y-69632000D02*
X188074000Y-64480000D01*
X188114000Y-69634000D02*
X188114000Y-64478000D01*
X188154000Y-69635000D02*
X188154000Y-64477000D01*
X188194000Y-69636000D02*
X188194000Y-64476000D01*
X188234000Y-69636000D02*
X188234000Y-64476000D01*
X190854000Y-67056000D02*
G75*
G03X190854000Y-67056000I-2620000J0D01*
G01*
X205705225Y-65077000D02*
X205705225Y-65577000D01*
X205455225Y-65327000D02*
X205955225Y-65327000D01*
X210861000Y-66518000D02*
X210861000Y-67086000D01*
X210821000Y-66284000D02*
X210821000Y-67320000D01*
X210781000Y-66125000D02*
X210781000Y-67479000D01*
X210741000Y-65997000D02*
X210741000Y-67607000D01*
X210701000Y-65887000D02*
X210701000Y-67717000D01*
X210661000Y-65791000D02*
X210661000Y-67813000D01*
X210621000Y-65704000D02*
X210621000Y-67900000D01*
X210581000Y-65624000D02*
X210581000Y-67980000D01*
X210541000Y-67842000D02*
X210541000Y-68053000D01*
X210541000Y-65551000D02*
X210541000Y-65762000D01*
X210501000Y-67842000D02*
X210501000Y-68121000D01*
X210501000Y-65483000D02*
X210501000Y-65762000D01*
X210461000Y-67842000D02*
X210461000Y-68185000D01*
X210461000Y-65419000D02*
X210461000Y-65762000D01*
X210421000Y-67842000D02*
X210421000Y-68245000D01*
X210421000Y-65359000D02*
X210421000Y-65762000D01*
X210381000Y-67842000D02*
X210381000Y-68302000D01*
X210381000Y-65302000D02*
X210381000Y-65762000D01*
X210341000Y-67842000D02*
X210341000Y-68356000D01*
X210341000Y-65248000D02*
X210341000Y-65762000D01*
X210301000Y-67842000D02*
X210301000Y-68407000D01*
X210301000Y-65197000D02*
X210301000Y-65762000D01*
X210261000Y-67842000D02*
X210261000Y-68455000D01*
X210261000Y-65149000D02*
X210261000Y-65762000D01*
X210221000Y-67842000D02*
X210221000Y-68501000D01*
X210221000Y-65103000D02*
X210221000Y-65762000D01*
X210181000Y-67842000D02*
X210181000Y-68545000D01*
X210181000Y-65059000D02*
X210181000Y-65762000D01*
X210141000Y-67842000D02*
X210141000Y-68587000D01*
X210141000Y-65017000D02*
X210141000Y-65762000D01*
X210101000Y-67842000D02*
X210101000Y-68628000D01*
X210101000Y-64976000D02*
X210101000Y-65762000D01*
X210061000Y-67842000D02*
X210061000Y-68666000D01*
X210061000Y-64938000D02*
X210061000Y-65762000D01*
X210021000Y-67842000D02*
X210021000Y-68703000D01*
X210021000Y-64901000D02*
X210021000Y-65762000D01*
X209981000Y-67842000D02*
X209981000Y-68739000D01*
X209981000Y-64865000D02*
X209981000Y-65762000D01*
X209941000Y-67842000D02*
X209941000Y-68773000D01*
X209941000Y-64831000D02*
X209941000Y-65762000D01*
X209901000Y-67842000D02*
X209901000Y-68806000D01*
X209901000Y-64798000D02*
X209901000Y-65762000D01*
X209861000Y-67842000D02*
X209861000Y-68837000D01*
X209861000Y-64767000D02*
X209861000Y-65762000D01*
X209821000Y-67842000D02*
X209821000Y-68867000D01*
X209821000Y-64737000D02*
X209821000Y-65762000D01*
X209781000Y-67842000D02*
X209781000Y-68897000D01*
X209781000Y-64707000D02*
X209781000Y-65762000D01*
X209741000Y-67842000D02*
X209741000Y-68924000D01*
X209741000Y-64680000D02*
X209741000Y-65762000D01*
X209701000Y-67842000D02*
X209701000Y-68951000D01*
X209701000Y-64653000D02*
X209701000Y-65762000D01*
X209661000Y-67842000D02*
X209661000Y-68977000D01*
X209661000Y-64627000D02*
X209661000Y-65762000D01*
X209621000Y-67842000D02*
X209621000Y-69002000D01*
X209621000Y-64602000D02*
X209621000Y-65762000D01*
X209581000Y-67842000D02*
X209581000Y-69026000D01*
X209581000Y-64578000D02*
X209581000Y-65762000D01*
X209541000Y-67842000D02*
X209541000Y-69049000D01*
X209541000Y-64555000D02*
X209541000Y-65762000D01*
X209501000Y-67842000D02*
X209501000Y-69070000D01*
X209501000Y-64534000D02*
X209501000Y-65762000D01*
X209461000Y-67842000D02*
X209461000Y-69092000D01*
X209461000Y-64512000D02*
X209461000Y-65762000D01*
X209421000Y-67842000D02*
X209421000Y-69112000D01*
X209421000Y-64492000D02*
X209421000Y-65762000D01*
X209381000Y-67842000D02*
X209381000Y-69131000D01*
X209381000Y-64473000D02*
X209381000Y-65762000D01*
X209341000Y-67842000D02*
X209341000Y-69150000D01*
X209341000Y-64454000D02*
X209341000Y-65762000D01*
X209301000Y-67842000D02*
X209301000Y-69167000D01*
X209301000Y-64437000D02*
X209301000Y-65762000D01*
X209261000Y-67842000D02*
X209261000Y-69184000D01*
X209261000Y-64420000D02*
X209261000Y-65762000D01*
X209221000Y-67842000D02*
X209221000Y-69200000D01*
X209221000Y-64404000D02*
X209221000Y-65762000D01*
X209181000Y-67842000D02*
X209181000Y-69216000D01*
X209181000Y-64388000D02*
X209181000Y-65762000D01*
X209141000Y-67842000D02*
X209141000Y-69230000D01*
X209141000Y-64374000D02*
X209141000Y-65762000D01*
X209101000Y-67842000D02*
X209101000Y-69244000D01*
X209101000Y-64360000D02*
X209101000Y-65762000D01*
X209061000Y-67842000D02*
X209061000Y-69257000D01*
X209061000Y-64347000D02*
X209061000Y-65762000D01*
X209021000Y-67842000D02*
X209021000Y-69270000D01*
X209021000Y-64334000D02*
X209021000Y-65762000D01*
X208981000Y-67842000D02*
X208981000Y-69282000D01*
X208981000Y-64322000D02*
X208981000Y-65762000D01*
X208940000Y-67842000D02*
X208940000Y-69293000D01*
X208940000Y-64311000D02*
X208940000Y-65762000D01*
X208900000Y-67842000D02*
X208900000Y-69303000D01*
X208900000Y-64301000D02*
X208900000Y-65762000D01*
X208860000Y-67842000D02*
X208860000Y-69313000D01*
X208860000Y-64291000D02*
X208860000Y-65762000D01*
X208820000Y-67842000D02*
X208820000Y-69322000D01*
X208820000Y-64282000D02*
X208820000Y-65762000D01*
X208780000Y-67842000D02*
X208780000Y-69330000D01*
X208780000Y-64274000D02*
X208780000Y-65762000D01*
X208740000Y-67842000D02*
X208740000Y-69338000D01*
X208740000Y-64266000D02*
X208740000Y-65762000D01*
X208700000Y-67842000D02*
X208700000Y-69345000D01*
X208700000Y-64259000D02*
X208700000Y-65762000D01*
X208660000Y-67842000D02*
X208660000Y-69352000D01*
X208660000Y-64252000D02*
X208660000Y-65762000D01*
X208620000Y-67842000D02*
X208620000Y-69358000D01*
X208620000Y-64246000D02*
X208620000Y-65762000D01*
X208580000Y-67842000D02*
X208580000Y-69363000D01*
X208580000Y-64241000D02*
X208580000Y-65762000D01*
X208540000Y-67842000D02*
X208540000Y-69367000D01*
X208540000Y-64237000D02*
X208540000Y-65762000D01*
X208500000Y-67842000D02*
X208500000Y-69371000D01*
X208500000Y-64233000D02*
X208500000Y-65762000D01*
X208460000Y-64229000D02*
X208460000Y-69375000D01*
X208420000Y-64226000D02*
X208420000Y-69378000D01*
X208380000Y-64224000D02*
X208380000Y-69380000D01*
X208340000Y-64223000D02*
X208340000Y-69381000D01*
X208300000Y-64222000D02*
X208300000Y-69382000D01*
X208260000Y-64222000D02*
X208260000Y-69382000D01*
X210880000Y-66802000D02*
G75*
G03X210880000Y-66802000I-2620000J0D01*
G01*
X204035000Y-76768354D02*
X203035000Y-76768354D01*
X203535000Y-76268354D02*
X203535000Y-77268354D01*
X201259000Y-86829000D02*
X200061000Y-86829000D01*
X201522000Y-86789000D02*
X199798000Y-86789000D01*
X201722000Y-86749000D02*
X199598000Y-86749000D01*
X201890000Y-86709000D02*
X199430000Y-86709000D01*
X202038000Y-86669000D02*
X199282000Y-86669000D01*
X202170000Y-86629000D02*
X199150000Y-86629000D01*
X202290000Y-86589000D02*
X199030000Y-86589000D01*
X202402000Y-86549000D02*
X198918000Y-86549000D01*
X202506000Y-86509000D02*
X198814000Y-86509000D01*
X202604000Y-86469000D02*
X198716000Y-86469000D01*
X202697000Y-86429000D02*
X198623000Y-86429000D01*
X202785000Y-86389000D02*
X198535000Y-86389000D01*
X202869000Y-86349000D02*
X198451000Y-86349000D01*
X202949000Y-86309000D02*
X198371000Y-86309000D01*
X203025000Y-86269000D02*
X198295000Y-86269000D01*
X203099000Y-86229000D02*
X198221000Y-86229000D01*
X203170000Y-86189000D02*
X198150000Y-86189000D01*
X203239000Y-86149000D02*
X198081000Y-86149000D01*
X203305000Y-86109000D02*
X198015000Y-86109000D01*
X203369000Y-86069000D02*
X197951000Y-86069000D01*
X203430000Y-86029000D02*
X197890000Y-86029000D01*
X203490000Y-85989000D02*
X197830000Y-85989000D01*
X203549000Y-85949000D02*
X197771000Y-85949000D01*
X203605000Y-85909000D02*
X197715000Y-85909000D01*
X203660000Y-85869000D02*
X197660000Y-85869000D01*
X203714000Y-85829000D02*
X197606000Y-85829000D01*
X203766000Y-85789000D02*
X197554000Y-85789000D01*
X203816000Y-85749000D02*
X197504000Y-85749000D01*
X203866000Y-85709000D02*
X197454000Y-85709000D01*
X203914000Y-85669000D02*
X197406000Y-85669000D01*
X203961000Y-85629000D02*
X197359000Y-85629000D01*
X204007000Y-85589000D02*
X197313000Y-85589000D01*
X204052000Y-85549000D02*
X197268000Y-85549000D01*
X204096000Y-85509000D02*
X197224000Y-85509000D01*
X199419000Y-85469000D02*
X197182000Y-85469000D01*
X204138000Y-85469000D02*
X201901000Y-85469000D01*
X199419000Y-85429000D02*
X197140000Y-85429000D01*
X204180000Y-85429000D02*
X201901000Y-85429000D01*
X199419000Y-85389000D02*
X197099000Y-85389000D01*
X204221000Y-85389000D02*
X201901000Y-85389000D01*
X199419000Y-85349000D02*
X197059000Y-85349000D01*
X204261000Y-85349000D02*
X201901000Y-85349000D01*
X199419000Y-85309000D02*
X197020000Y-85309000D01*
X204300000Y-85309000D02*
X201901000Y-85309000D01*
X199419000Y-85269000D02*
X196981000Y-85269000D01*
X204339000Y-85269000D02*
X201901000Y-85269000D01*
X199419000Y-85229000D02*
X196944000Y-85229000D01*
X204376000Y-85229000D02*
X201901000Y-85229000D01*
X199419000Y-85189000D02*
X196907000Y-85189000D01*
X204413000Y-85189000D02*
X201901000Y-85189000D01*
X199419000Y-85149000D02*
X196871000Y-85149000D01*
X204449000Y-85149000D02*
X201901000Y-85149000D01*
X199419000Y-85109000D02*
X196836000Y-85109000D01*
X204484000Y-85109000D02*
X201901000Y-85109000D01*
X199419000Y-85069000D02*
X196802000Y-85069000D01*
X204518000Y-85069000D02*
X201901000Y-85069000D01*
X199419000Y-85029000D02*
X196768000Y-85029000D01*
X204552000Y-85029000D02*
X201901000Y-85029000D01*
X199419000Y-84989000D02*
X196735000Y-84989000D01*
X204585000Y-84989000D02*
X201901000Y-84989000D01*
X199419000Y-84949000D02*
X196703000Y-84949000D01*
X204617000Y-84949000D02*
X201901000Y-84949000D01*
X199419000Y-84909000D02*
X196671000Y-84909000D01*
X204649000Y-84909000D02*
X201901000Y-84909000D01*
X199419000Y-84869000D02*
X196640000Y-84869000D01*
X204680000Y-84869000D02*
X201901000Y-84869000D01*
X199419000Y-84829000D02*
X196610000Y-84829000D01*
X204710000Y-84829000D02*
X201901000Y-84829000D01*
X199419000Y-84789000D02*
X196580000Y-84789000D01*
X204740000Y-84789000D02*
X201901000Y-84789000D01*
X199419000Y-84749000D02*
X196550000Y-84749000D01*
X204770000Y-84749000D02*
X201901000Y-84749000D01*
X199419000Y-84709000D02*
X196522000Y-84709000D01*
X204798000Y-84709000D02*
X201901000Y-84709000D01*
X199419000Y-84669000D02*
X196494000Y-84669000D01*
X204826000Y-84669000D02*
X201901000Y-84669000D01*
X199419000Y-84629000D02*
X196466000Y-84629000D01*
X204854000Y-84629000D02*
X201901000Y-84629000D01*
X199419000Y-84589000D02*
X196439000Y-84589000D01*
X204881000Y-84589000D02*
X201901000Y-84589000D01*
X199419000Y-84549000D02*
X196413000Y-84549000D01*
X204907000Y-84549000D02*
X201901000Y-84549000D01*
X199419000Y-84509000D02*
X196387000Y-84509000D01*
X204933000Y-84509000D02*
X201901000Y-84509000D01*
X199419000Y-84469000D02*
X196362000Y-84469000D01*
X204958000Y-84469000D02*
X201901000Y-84469000D01*
X199419000Y-84429000D02*
X196337000Y-84429000D01*
X204983000Y-84429000D02*
X201901000Y-84429000D01*
X199419000Y-84389000D02*
X196313000Y-84389000D01*
X205007000Y-84389000D02*
X201901000Y-84389000D01*
X199419000Y-84349000D02*
X196289000Y-84349000D01*
X205031000Y-84349000D02*
X201901000Y-84349000D01*
X199419000Y-84309000D02*
X196265000Y-84309000D01*
X205055000Y-84309000D02*
X201901000Y-84309000D01*
X199419000Y-84269000D02*
X196243000Y-84269000D01*
X205077000Y-84269000D02*
X201901000Y-84269000D01*
X199419000Y-84229000D02*
X196220000Y-84229000D01*
X205100000Y-84229000D02*
X201901000Y-84229000D01*
X199419000Y-84189000D02*
X196198000Y-84189000D01*
X205122000Y-84189000D02*
X201901000Y-84189000D01*
X199419000Y-84149000D02*
X196177000Y-84149000D01*
X205143000Y-84149000D02*
X201901000Y-84149000D01*
X199419000Y-84109000D02*
X196156000Y-84109000D01*
X205164000Y-84109000D02*
X201901000Y-84109000D01*
X199419000Y-84069000D02*
X196135000Y-84069000D01*
X205185000Y-84069000D02*
X201901000Y-84069000D01*
X199419000Y-84029000D02*
X196115000Y-84029000D01*
X205205000Y-84029000D02*
X201901000Y-84029000D01*
X199419000Y-83989000D02*
X196096000Y-83989000D01*
X205224000Y-83989000D02*
X201901000Y-83989000D01*
X199419000Y-83949000D02*
X196076000Y-83949000D01*
X205244000Y-83949000D02*
X201901000Y-83949000D01*
X199419000Y-83909000D02*
X196057000Y-83909000D01*
X205263000Y-83909000D02*
X201901000Y-83909000D01*
X199419000Y-83869000D02*
X196039000Y-83869000D01*
X205281000Y-83869000D02*
X201901000Y-83869000D01*
X199419000Y-83829000D02*
X196021000Y-83829000D01*
X205299000Y-83829000D02*
X201901000Y-83829000D01*
X199419000Y-83789000D02*
X196003000Y-83789000D01*
X205317000Y-83789000D02*
X201901000Y-83789000D01*
X199419000Y-83749000D02*
X195986000Y-83749000D01*
X205334000Y-83749000D02*
X201901000Y-83749000D01*
X199419000Y-83709000D02*
X195970000Y-83709000D01*
X205350000Y-83709000D02*
X201901000Y-83709000D01*
X199419000Y-83669000D02*
X195953000Y-83669000D01*
X205367000Y-83669000D02*
X201901000Y-83669000D01*
X199419000Y-83629000D02*
X195937000Y-83629000D01*
X205383000Y-83629000D02*
X201901000Y-83629000D01*
X199419000Y-83589000D02*
X195922000Y-83589000D01*
X205398000Y-83589000D02*
X201901000Y-83589000D01*
X199419000Y-83549000D02*
X195906000Y-83549000D01*
X205414000Y-83549000D02*
X201901000Y-83549000D01*
X199419000Y-83509000D02*
X195892000Y-83509000D01*
X205428000Y-83509000D02*
X201901000Y-83509000D01*
X199419000Y-83469000D02*
X195877000Y-83469000D01*
X205443000Y-83469000D02*
X201901000Y-83469000D01*
X199419000Y-83429000D02*
X195863000Y-83429000D01*
X205457000Y-83429000D02*
X201901000Y-83429000D01*
X199419000Y-83389000D02*
X195849000Y-83389000D01*
X205471000Y-83389000D02*
X201901000Y-83389000D01*
X199419000Y-83349000D02*
X195836000Y-83349000D01*
X205484000Y-83349000D02*
X201901000Y-83349000D01*
X199419000Y-83309000D02*
X195823000Y-83309000D01*
X205497000Y-83309000D02*
X201901000Y-83309000D01*
X199419000Y-83269000D02*
X195810000Y-83269000D01*
X205510000Y-83269000D02*
X201901000Y-83269000D01*
X199419000Y-83229000D02*
X195798000Y-83229000D01*
X205522000Y-83229000D02*
X201901000Y-83229000D01*
X199419000Y-83189000D02*
X195786000Y-83189000D01*
X205534000Y-83189000D02*
X201901000Y-83189000D01*
X199419000Y-83149000D02*
X195775000Y-83149000D01*
X205545000Y-83149000D02*
X201901000Y-83149000D01*
X199419000Y-83109000D02*
X195763000Y-83109000D01*
X205557000Y-83109000D02*
X201901000Y-83109000D01*
X199419000Y-83069000D02*
X195753000Y-83069000D01*
X205567000Y-83069000D02*
X201901000Y-83069000D01*
X199419000Y-83029000D02*
X195742000Y-83029000D01*
X205578000Y-83029000D02*
X201901000Y-83029000D01*
X205588000Y-82989000D02*
X195732000Y-82989000D01*
X205598000Y-82949000D02*
X195722000Y-82949000D01*
X205607000Y-82909000D02*
X195713000Y-82909000D01*
X205616000Y-82869000D02*
X195704000Y-82869000D01*
X205625000Y-82829000D02*
X195695000Y-82829000D01*
X205634000Y-82789000D02*
X195686000Y-82789000D01*
X205642000Y-82749000D02*
X195678000Y-82749000D01*
X205650000Y-82709000D02*
X195670000Y-82709000D01*
X205657000Y-82669000D02*
X195663000Y-82669000D01*
X205664000Y-82629000D02*
X195656000Y-82629000D01*
X205671000Y-82589000D02*
X195649000Y-82589000D01*
X205678000Y-82549000D02*
X195642000Y-82549000D01*
X205684000Y-82509000D02*
X195636000Y-82509000D01*
X205690000Y-82469000D02*
X195630000Y-82469000D01*
X205695000Y-82428000D02*
X195625000Y-82428000D01*
X205700000Y-82388000D02*
X195620000Y-82388000D01*
X205705000Y-82348000D02*
X195615000Y-82348000D01*
X205710000Y-82308000D02*
X195610000Y-82308000D01*
X205714000Y-82268000D02*
X195606000Y-82268000D01*
X205718000Y-82228000D02*
X195602000Y-82228000D01*
X205722000Y-82188000D02*
X195598000Y-82188000D01*
X205725000Y-82148000D02*
X195595000Y-82148000D01*
X205728000Y-82108000D02*
X195592000Y-82108000D01*
X205730000Y-82068000D02*
X195590000Y-82068000D01*
X205733000Y-82028000D02*
X195587000Y-82028000D01*
X205735000Y-81988000D02*
X195585000Y-81988000D01*
X205737000Y-81948000D02*
X195583000Y-81948000D01*
X205738000Y-81908000D02*
X195582000Y-81908000D01*
X205739000Y-81868000D02*
X195581000Y-81868000D01*
X205740000Y-81828000D02*
X195580000Y-81828000D01*
X205740000Y-81788000D02*
X195580000Y-81788000D01*
X205740000Y-81748000D02*
X195580000Y-81748000D01*
X205780000Y-81748000D02*
G75*
G03X205780000Y-81748000I-5120000J0D01*
G01*
D10*
X196826666Y-62672380D02*
X196826666Y-63386666D01*
X196779047Y-63529523D01*
X196683809Y-63624761D01*
X196540952Y-63672380D01*
X196445714Y-63672380D01*
X197255238Y-62767619D02*
X197302857Y-62720000D01*
X197398095Y-62672380D01*
X197636190Y-62672380D01*
X197731428Y-62720000D01*
X197779047Y-62767619D01*
X197826666Y-62862857D01*
X197826666Y-62958095D01*
X197779047Y-63100952D01*
X197207619Y-63672380D01*
X197826666Y-63672380D01*
X201255333Y-64714380D02*
X200922000Y-64238190D01*
X200683904Y-64714380D02*
X200683904Y-63714380D01*
X201064857Y-63714380D01*
X201160095Y-63762000D01*
X201207714Y-63809619D01*
X201255333Y-63904857D01*
X201255333Y-64047714D01*
X201207714Y-64142952D01*
X201160095Y-64190571D01*
X201064857Y-64238190D01*
X200683904Y-64238190D01*
X202207714Y-64714380D02*
X201636285Y-64714380D01*
X201922000Y-64714380D02*
X201922000Y-63714380D01*
X201826761Y-63857238D01*
X201731523Y-63952476D01*
X201636285Y-64000095D01*
X206081333Y-70461142D02*
X206033714Y-70508761D01*
X205890857Y-70556380D01*
X205795619Y-70556380D01*
X205652761Y-70508761D01*
X205557523Y-70413523D01*
X205509904Y-70318285D01*
X205462285Y-70127809D01*
X205462285Y-69984952D01*
X205509904Y-69794476D01*
X205557523Y-69699238D01*
X205652761Y-69604000D01*
X205795619Y-69556380D01*
X205890857Y-69556380D01*
X206033714Y-69604000D01*
X206081333Y-69651619D01*
X206462285Y-69651619D02*
X206509904Y-69604000D01*
X206605142Y-69556380D01*
X206843238Y-69556380D01*
X206938476Y-69604000D01*
X206986095Y-69651619D01*
X207033714Y-69746857D01*
X207033714Y-69842095D01*
X206986095Y-69984952D01*
X206414666Y-70556380D01*
X207033714Y-70556380D01*
X189063333Y-84272380D02*
X188730000Y-83796190D01*
X188491904Y-84272380D02*
X188491904Y-83272380D01*
X188872857Y-83272380D01*
X188968095Y-83320000D01*
X189015714Y-83367619D01*
X189063333Y-83462857D01*
X189063333Y-83605714D01*
X189015714Y-83700952D01*
X188968095Y-83748571D01*
X188872857Y-83796190D01*
X188491904Y-83796190D01*
X189444285Y-83367619D02*
X189491904Y-83320000D01*
X189587142Y-83272380D01*
X189825238Y-83272380D01*
X189920476Y-83320000D01*
X189968095Y-83367619D01*
X190015714Y-83462857D01*
X190015714Y-83558095D01*
X189968095Y-83700952D01*
X189396666Y-84272380D01*
X190015714Y-84272380D01*
X196088095Y-63924380D02*
X196088095Y-64733904D01*
X196135714Y-64829142D01*
X196183333Y-64876761D01*
X196278571Y-64924380D01*
X196469047Y-64924380D01*
X196564285Y-64876761D01*
X196611904Y-64829142D01*
X196659523Y-64733904D01*
X196659523Y-63924380D01*
X197659523Y-64924380D02*
X197088095Y-64924380D01*
X197373809Y-64924380D02*
X197373809Y-63924380D01*
X197278571Y-64067238D01*
X197183333Y-64162476D01*
X197088095Y-64210095D01*
X186015333Y-84272380D02*
X185682000Y-83796190D01*
X185443904Y-84272380D02*
X185443904Y-83272380D01*
X185824857Y-83272380D01*
X185920095Y-83320000D01*
X185967714Y-83367619D01*
X186015333Y-83462857D01*
X186015333Y-83605714D01*
X185967714Y-83700952D01*
X185920095Y-83748571D01*
X185824857Y-83796190D01*
X185443904Y-83796190D01*
X186348666Y-83272380D02*
X186967714Y-83272380D01*
X186634380Y-83653333D01*
X186777238Y-83653333D01*
X186872476Y-83700952D01*
X186920095Y-83748571D01*
X186967714Y-83843809D01*
X186967714Y-84081904D01*
X186920095Y-84177142D01*
X186872476Y-84224761D01*
X186777238Y-84272380D01*
X186491523Y-84272380D01*
X186396285Y-84224761D01*
X186348666Y-84177142D01*
X193413142Y-77922380D02*
X192936952Y-77922380D01*
X192936952Y-76922380D01*
X193698857Y-77874761D02*
X193841714Y-77922380D01*
X194079809Y-77922380D01*
X194175047Y-77874761D01*
X194222666Y-77827142D01*
X194270285Y-77731904D01*
X194270285Y-77636666D01*
X194222666Y-77541428D01*
X194175047Y-77493809D01*
X194079809Y-77446190D01*
X193889333Y-77398571D01*
X193794095Y-77350952D01*
X193746476Y-77303333D01*
X193698857Y-77208095D01*
X193698857Y-77112857D01*
X193746476Y-77017619D01*
X193794095Y-76970000D01*
X193889333Y-76922380D01*
X194127428Y-76922380D01*
X194270285Y-76970000D01*
X195222666Y-77922380D02*
X194651238Y-77922380D01*
X194936952Y-77922380D02*
X194936952Y-76922380D01*
X194841714Y-77065238D01*
X194746476Y-77160476D01*
X194651238Y-77208095D01*
X207946666Y-84796380D02*
X207946666Y-85510666D01*
X207899047Y-85653523D01*
X207803809Y-85748761D01*
X207660952Y-85796380D01*
X207565714Y-85796380D01*
X208946666Y-85796380D02*
X208375238Y-85796380D01*
X208660952Y-85796380D02*
X208660952Y-84796380D01*
X208565714Y-84939238D01*
X208470476Y-85034476D01*
X208375238Y-85082095D01*
X190333333Y-70461142D02*
X190285714Y-70508761D01*
X190142857Y-70556380D01*
X190047619Y-70556380D01*
X189904761Y-70508761D01*
X189809523Y-70413523D01*
X189761904Y-70318285D01*
X189714285Y-70127809D01*
X189714285Y-69984952D01*
X189761904Y-69794476D01*
X189809523Y-69699238D01*
X189904761Y-69604000D01*
X190047619Y-69556380D01*
X190142857Y-69556380D01*
X190285714Y-69604000D01*
X190333333Y-69651619D01*
X191190476Y-69889714D02*
X191190476Y-70556380D01*
X190952380Y-69508761D02*
X190714285Y-70223047D01*
X191333333Y-70223047D01*
X206081333Y-64111142D02*
X206033714Y-64158761D01*
X205890857Y-64206380D01*
X205795619Y-64206380D01*
X205652761Y-64158761D01*
X205557523Y-64063523D01*
X205509904Y-63968285D01*
X205462285Y-63777809D01*
X205462285Y-63634952D01*
X205509904Y-63444476D01*
X205557523Y-63349238D01*
X205652761Y-63254000D01*
X205795619Y-63206380D01*
X205890857Y-63206380D01*
X206033714Y-63254000D01*
X206081333Y-63301619D01*
X206414666Y-63206380D02*
X207033714Y-63206380D01*
X206700380Y-63587333D01*
X206843238Y-63587333D01*
X206938476Y-63634952D01*
X206986095Y-63682571D01*
X207033714Y-63777809D01*
X207033714Y-64015904D01*
X206986095Y-64111142D01*
X206938476Y-64158761D01*
X206843238Y-64206380D01*
X206557523Y-64206380D01*
X206462285Y-64158761D01*
X206414666Y-64111142D01*
X204811333Y-77573142D02*
X204763714Y-77620761D01*
X204620857Y-77668380D01*
X204525619Y-77668380D01*
X204382761Y-77620761D01*
X204287523Y-77525523D01*
X204239904Y-77430285D01*
X204192285Y-77239809D01*
X204192285Y-77096952D01*
X204239904Y-76906476D01*
X204287523Y-76811238D01*
X204382761Y-76716000D01*
X204525619Y-76668380D01*
X204620857Y-76668380D01*
X204763714Y-76716000D01*
X204811333Y-76763619D01*
X205763714Y-77668380D02*
X205192285Y-77668380D01*
X205478000Y-77668380D02*
X205478000Y-76668380D01*
X205382761Y-76811238D01*
X205287523Y-76906476D01*
X205192285Y-76954095D01*
M02*
