M48
; DRILL file {KiCad (5.1.5)-3} date 5/5/2020 3:59:43 PM
; FORMAT={-:-/ absolute / inch / decimal}
; #@! TF.CreationDate,2020-05-05T15:59:43-04:00
; #@! TF.GenerationSoftware,Kicad,Pcbnew,(5.1.5)-3
FMAT,2
INCH
T1C0.0315
T2C0.0362
T3C0.0394
T4C0.0906
%
G90
G05
T1
X8.15Y-2.63
X8.2484Y-2.63
X7.6Y-2.63
X7.6Y-2.73
X7.6Y-2.83
X7.6Y-2.93
X7.9Y-2.63
X7.9Y-2.73
X7.9Y-2.83
X7.9Y-2.93
X8.02Y-2.54
X8.02Y-2.94
X7.333Y-2.83
X7.333Y-3.23
X7.453Y-2.83
X7.453Y-3.23
X8.15Y-2.88
X8.2484Y-2.88
X7.3616Y-2.64
X7.46Y-2.64
T2
X7.6244Y-2.4
X7.7228Y-2.4
X7.8016Y-2.4
X7.9Y-2.4
T3
X8.2Y-3.07
X8.2Y-3.17
X8.2Y-3.27
X7.6Y-3.15
X7.6Y-3.25
X7.9Y-3.12
X7.9Y-3.3169
T4
X7.5035Y-2.2933
X8.0209Y-2.2933
T0
M30
