G04 #@! TF.GenerationSoftware,KiCad,Pcbnew,(5.1.5)-3*
G04 #@! TF.CreationDate,2021-07-01T17:41:49-04:00*
G04 #@! TF.ProjectId,AM Mixer and LO Test Board,414d204d-6978-4657-9220-616e64204c4f,rev?*
G04 #@! TF.SameCoordinates,Original*
G04 #@! TF.FileFunction,Legend,Top*
G04 #@! TF.FilePolarity,Positive*
%FSLAX46Y46*%
G04 Gerber Fmt 4.6, Leading zero omitted, Abs format (unit mm)*
G04 Created by KiCad (PCBNEW (5.1.5)-3) date 2021-07-01 17:41:49*
%MOMM*%
%LPD*%
G04 APERTURE LIST*
%ADD10C,0.150000*%
%ADD11C,0.127000*%
%ADD12C,0.120000*%
%ADD13C,0.152400*%
%ADD14C,0.125000*%
G04 APERTURE END LIST*
D10*
X113578095Y-147248571D02*
X113244761Y-147248571D01*
X113244761Y-147772380D02*
X113244761Y-146772380D01*
X113720952Y-146772380D01*
X114101904Y-147772380D02*
X114101904Y-147105714D01*
X114101904Y-146772380D02*
X114054285Y-146820000D01*
X114101904Y-146867619D01*
X114149523Y-146820000D01*
X114101904Y-146772380D01*
X114101904Y-146867619D01*
X114720952Y-147772380D02*
X114625714Y-147724761D01*
X114578095Y-147629523D01*
X114578095Y-146772380D01*
X114959047Y-147105714D02*
X115340000Y-147105714D01*
X115101904Y-146772380D02*
X115101904Y-147629523D01*
X115149523Y-147724761D01*
X115244761Y-147772380D01*
X115340000Y-147772380D01*
X116054285Y-147724761D02*
X115959047Y-147772380D01*
X115768571Y-147772380D01*
X115673333Y-147724761D01*
X115625714Y-147629523D01*
X115625714Y-147248571D01*
X115673333Y-147153333D01*
X115768571Y-147105714D01*
X115959047Y-147105714D01*
X116054285Y-147153333D01*
X116101904Y-147248571D01*
X116101904Y-147343809D01*
X115625714Y-147439047D01*
X116530476Y-147772380D02*
X116530476Y-147105714D01*
X116530476Y-147296190D02*
X116578095Y-147200952D01*
X116625714Y-147153333D01*
X116720952Y-147105714D01*
X116816190Y-147105714D01*
X117768571Y-146772380D02*
X118340000Y-146772380D01*
X118054285Y-147772380D02*
X118054285Y-146772380D01*
X119054285Y-147724761D02*
X118959047Y-147772380D01*
X118768571Y-147772380D01*
X118673333Y-147724761D01*
X118625714Y-147629523D01*
X118625714Y-147248571D01*
X118673333Y-147153333D01*
X118768571Y-147105714D01*
X118959047Y-147105714D01*
X119054285Y-147153333D01*
X119101904Y-147248571D01*
X119101904Y-147343809D01*
X118625714Y-147439047D01*
X119482857Y-147724761D02*
X119578095Y-147772380D01*
X119768571Y-147772380D01*
X119863809Y-147724761D01*
X119911428Y-147629523D01*
X119911428Y-147581904D01*
X119863809Y-147486666D01*
X119768571Y-147439047D01*
X119625714Y-147439047D01*
X119530476Y-147391428D01*
X119482857Y-147296190D01*
X119482857Y-147248571D01*
X119530476Y-147153333D01*
X119625714Y-147105714D01*
X119768571Y-147105714D01*
X119863809Y-147153333D01*
X120197142Y-147105714D02*
X120578095Y-147105714D01*
X120340000Y-146772380D02*
X120340000Y-147629523D01*
X120387619Y-147724761D01*
X120482857Y-147772380D01*
X120578095Y-147772380D01*
X114379523Y-112212380D02*
X114046190Y-111736190D01*
X113808095Y-112212380D02*
X113808095Y-111212380D01*
X114189047Y-111212380D01*
X114284285Y-111260000D01*
X114331904Y-111307619D01*
X114379523Y-111402857D01*
X114379523Y-111545714D01*
X114331904Y-111640952D01*
X114284285Y-111688571D01*
X114189047Y-111736190D01*
X113808095Y-111736190D01*
X115141428Y-111688571D02*
X114808095Y-111688571D01*
X114808095Y-112212380D02*
X114808095Y-111212380D01*
X115284285Y-111212380D01*
X116427142Y-112212380D02*
X116427142Y-111212380D01*
X116903333Y-111545714D02*
X116903333Y-112212380D01*
X116903333Y-111640952D02*
X116950952Y-111593333D01*
X117046190Y-111545714D01*
X117189047Y-111545714D01*
X117284285Y-111593333D01*
X117331904Y-111688571D01*
X117331904Y-112212380D01*
X113673571Y-126182380D02*
X113673571Y-125182380D01*
X114483095Y-125658571D02*
X114149761Y-125658571D01*
X114149761Y-126182380D02*
X114149761Y-125182380D01*
X114625952Y-125182380D01*
X115911666Y-126182380D02*
X115816428Y-126134761D01*
X115768809Y-126087142D01*
X115721190Y-125991904D01*
X115721190Y-125706190D01*
X115768809Y-125610952D01*
X115816428Y-125563333D01*
X115911666Y-125515714D01*
X116054523Y-125515714D01*
X116149761Y-125563333D01*
X116197380Y-125610952D01*
X116245000Y-125706190D01*
X116245000Y-125991904D01*
X116197380Y-126087142D01*
X116149761Y-126134761D01*
X116054523Y-126182380D01*
X115911666Y-126182380D01*
X117102142Y-125515714D02*
X117102142Y-126182380D01*
X116673571Y-125515714D02*
X116673571Y-126039523D01*
X116721190Y-126134761D01*
X116816428Y-126182380D01*
X116959285Y-126182380D01*
X117054523Y-126134761D01*
X117102142Y-126087142D01*
X117435476Y-125515714D02*
X117816428Y-125515714D01*
X117578333Y-125182380D02*
X117578333Y-126039523D01*
X117625952Y-126134761D01*
X117721190Y-126182380D01*
X117816428Y-126182380D01*
X118768809Y-125515714D02*
X119149761Y-125515714D01*
X118911666Y-126182380D02*
X118911666Y-125325238D01*
X118959285Y-125230000D01*
X119054523Y-125182380D01*
X119149761Y-125182380D01*
X119483095Y-126182380D02*
X119483095Y-125515714D01*
X119483095Y-125182380D02*
X119435476Y-125230000D01*
X119483095Y-125277619D01*
X119530714Y-125230000D01*
X119483095Y-125182380D01*
X119483095Y-125277619D01*
X120102142Y-126182380D02*
X120006904Y-126134761D01*
X119959285Y-126039523D01*
X119959285Y-125182380D01*
X120340238Y-125515714D02*
X120721190Y-125515714D01*
X120483095Y-125182380D02*
X120483095Y-126039523D01*
X120530714Y-126134761D01*
X120625952Y-126182380D01*
X120721190Y-126182380D01*
X121435476Y-126134761D02*
X121340238Y-126182380D01*
X121149761Y-126182380D01*
X121054523Y-126134761D01*
X121006904Y-126039523D01*
X121006904Y-125658571D01*
X121054523Y-125563333D01*
X121149761Y-125515714D01*
X121340238Y-125515714D01*
X121435476Y-125563333D01*
X121483095Y-125658571D01*
X121483095Y-125753809D01*
X121006904Y-125849047D01*
X121911666Y-126182380D02*
X121911666Y-125515714D01*
X121911666Y-125706190D02*
X121959285Y-125610952D01*
X122006904Y-125563333D01*
X122102142Y-125515714D01*
X122197380Y-125515714D01*
X122911666Y-126134761D02*
X122816428Y-126182380D01*
X122625952Y-126182380D01*
X122530714Y-126134761D01*
X122483095Y-126039523D01*
X122483095Y-125658571D01*
X122530714Y-125563333D01*
X122625952Y-125515714D01*
X122816428Y-125515714D01*
X122911666Y-125563333D01*
X122959285Y-125658571D01*
X122959285Y-125753809D01*
X122483095Y-125849047D01*
X123816428Y-126182380D02*
X123816428Y-125182380D01*
X123816428Y-126134761D02*
X123721190Y-126182380D01*
X123530714Y-126182380D01*
X123435476Y-126134761D01*
X123387857Y-126087142D01*
X123340238Y-125991904D01*
X123340238Y-125706190D01*
X123387857Y-125610952D01*
X123435476Y-125563333D01*
X123530714Y-125515714D01*
X123721190Y-125515714D01*
X123816428Y-125563333D01*
X161568571Y-129992380D02*
X161568571Y-128992380D01*
X162378095Y-129468571D02*
X162044761Y-129468571D01*
X162044761Y-129992380D02*
X162044761Y-128992380D01*
X162520952Y-128992380D01*
X163854285Y-128992380D02*
X164044761Y-128992380D01*
X164140000Y-129040000D01*
X164235238Y-129135238D01*
X164282857Y-129325714D01*
X164282857Y-129659047D01*
X164235238Y-129849523D01*
X164140000Y-129944761D01*
X164044761Y-129992380D01*
X163854285Y-129992380D01*
X163759047Y-129944761D01*
X163663809Y-129849523D01*
X163616190Y-129659047D01*
X163616190Y-129325714D01*
X163663809Y-129135238D01*
X163759047Y-129040000D01*
X163854285Y-128992380D01*
X165140000Y-129325714D02*
X165140000Y-129992380D01*
X164711428Y-129325714D02*
X164711428Y-129849523D01*
X164759047Y-129944761D01*
X164854285Y-129992380D01*
X164997142Y-129992380D01*
X165092380Y-129944761D01*
X165140000Y-129897142D01*
X165473333Y-129325714D02*
X165854285Y-129325714D01*
X165616190Y-128992380D02*
X165616190Y-129849523D01*
X165663809Y-129944761D01*
X165759047Y-129992380D01*
X165854285Y-129992380D01*
X166949523Y-129325714D02*
X166949523Y-130325714D01*
X166949523Y-129373333D02*
X167044761Y-129325714D01*
X167235238Y-129325714D01*
X167330476Y-129373333D01*
X167378095Y-129420952D01*
X167425714Y-129516190D01*
X167425714Y-129801904D01*
X167378095Y-129897142D01*
X167330476Y-129944761D01*
X167235238Y-129992380D01*
X167044761Y-129992380D01*
X166949523Y-129944761D01*
X167854285Y-129992380D02*
X167854285Y-129325714D01*
X167854285Y-129516190D02*
X167901904Y-129420952D01*
X167949523Y-129373333D01*
X168044761Y-129325714D01*
X168140000Y-129325714D01*
X168854285Y-129944761D02*
X168759047Y-129992380D01*
X168568571Y-129992380D01*
X168473333Y-129944761D01*
X168425714Y-129849523D01*
X168425714Y-129468571D01*
X168473333Y-129373333D01*
X168568571Y-129325714D01*
X168759047Y-129325714D01*
X168854285Y-129373333D01*
X168901904Y-129468571D01*
X168901904Y-129563809D01*
X168425714Y-129659047D01*
X169330476Y-129611428D02*
X170092380Y-129611428D01*
X170425714Y-129325714D02*
X170806666Y-129325714D01*
X170568571Y-129992380D02*
X170568571Y-129135238D01*
X170616190Y-129040000D01*
X170711428Y-128992380D01*
X170806666Y-128992380D01*
X171140000Y-129992380D02*
X171140000Y-129325714D01*
X171140000Y-128992380D02*
X171092380Y-129040000D01*
X171140000Y-129087619D01*
X171187619Y-129040000D01*
X171140000Y-128992380D01*
X171140000Y-129087619D01*
X171759047Y-129992380D02*
X171663809Y-129944761D01*
X171616190Y-129849523D01*
X171616190Y-128992380D01*
X171997142Y-129325714D02*
X172378095Y-129325714D01*
X172140000Y-128992380D02*
X172140000Y-129849523D01*
X172187619Y-129944761D01*
X172282857Y-129992380D01*
X172378095Y-129992380D01*
X173092380Y-129944761D02*
X172997142Y-129992380D01*
X172806666Y-129992380D01*
X172711428Y-129944761D01*
X172663809Y-129849523D01*
X172663809Y-129468571D01*
X172711428Y-129373333D01*
X172806666Y-129325714D01*
X172997142Y-129325714D01*
X173092380Y-129373333D01*
X173140000Y-129468571D01*
X173140000Y-129563809D01*
X172663809Y-129659047D01*
X173568571Y-129992380D02*
X173568571Y-129325714D01*
X173568571Y-129516190D02*
X173616190Y-129420952D01*
X173663809Y-129373333D01*
X173759047Y-129325714D01*
X173854285Y-129325714D01*
X170799285Y-112212380D02*
X170323095Y-112212380D01*
X170323095Y-111212380D01*
X171323095Y-111212380D02*
X171513571Y-111212380D01*
X171608809Y-111260000D01*
X171704047Y-111355238D01*
X171751666Y-111545714D01*
X171751666Y-111879047D01*
X171704047Y-112069523D01*
X171608809Y-112164761D01*
X171513571Y-112212380D01*
X171323095Y-112212380D01*
X171227857Y-112164761D01*
X171132619Y-112069523D01*
X171085000Y-111879047D01*
X171085000Y-111545714D01*
X171132619Y-111355238D01*
X171227857Y-111260000D01*
X171323095Y-111212380D01*
X172942142Y-112212380D02*
X172942142Y-111212380D01*
X173418333Y-111545714D02*
X173418333Y-112212380D01*
X173418333Y-111640952D02*
X173465952Y-111593333D01*
X173561190Y-111545714D01*
X173704047Y-111545714D01*
X173799285Y-111593333D01*
X173846904Y-111688571D01*
X173846904Y-112212380D01*
X100377857Y-91892380D02*
X99901666Y-91892380D01*
X99901666Y-90892380D01*
X100901666Y-90892380D02*
X101092142Y-90892380D01*
X101187380Y-90940000D01*
X101282619Y-91035238D01*
X101330238Y-91225714D01*
X101330238Y-91559047D01*
X101282619Y-91749523D01*
X101187380Y-91844761D01*
X101092142Y-91892380D01*
X100901666Y-91892380D01*
X100806428Y-91844761D01*
X100711190Y-91749523D01*
X100663571Y-91559047D01*
X100663571Y-91225714D01*
X100711190Y-91035238D01*
X100806428Y-90940000D01*
X100901666Y-90892380D01*
X102711190Y-90892380D02*
X102901666Y-90892380D01*
X102996904Y-90940000D01*
X103092142Y-91035238D01*
X103139761Y-91225714D01*
X103139761Y-91559047D01*
X103092142Y-91749523D01*
X102996904Y-91844761D01*
X102901666Y-91892380D01*
X102711190Y-91892380D01*
X102615952Y-91844761D01*
X102520714Y-91749523D01*
X102473095Y-91559047D01*
X102473095Y-91225714D01*
X102520714Y-91035238D01*
X102615952Y-90940000D01*
X102711190Y-90892380D01*
X103996904Y-91225714D02*
X103996904Y-91892380D01*
X103568333Y-91225714D02*
X103568333Y-91749523D01*
X103615952Y-91844761D01*
X103711190Y-91892380D01*
X103854047Y-91892380D01*
X103949285Y-91844761D01*
X103996904Y-91797142D01*
X104330238Y-91225714D02*
X104711190Y-91225714D01*
X104473095Y-90892380D02*
X104473095Y-91749523D01*
X104520714Y-91844761D01*
X104615952Y-91892380D01*
X104711190Y-91892380D01*
X99663809Y-86812380D02*
X99663809Y-85812380D01*
X100473333Y-86288571D02*
X100140000Y-86288571D01*
X100140000Y-86812380D02*
X100140000Y-85812380D01*
X100616190Y-85812380D01*
X101759047Y-85812380D02*
X101759047Y-86621904D01*
X101806666Y-86717142D01*
X101854285Y-86764761D01*
X101949523Y-86812380D01*
X102140000Y-86812380D01*
X102235238Y-86764761D01*
X102282857Y-86717142D01*
X102330476Y-86621904D01*
X102330476Y-85812380D01*
X102806666Y-86145714D02*
X102806666Y-86812380D01*
X102806666Y-86240952D02*
X102854285Y-86193333D01*
X102949523Y-86145714D01*
X103092380Y-86145714D01*
X103187619Y-86193333D01*
X103235238Y-86288571D01*
X103235238Y-86812380D01*
X103568571Y-86145714D02*
X103949523Y-86145714D01*
X103711428Y-86812380D02*
X103711428Y-85955238D01*
X103759047Y-85860000D01*
X103854285Y-85812380D01*
X103949523Y-85812380D01*
X104282857Y-86812380D02*
X104282857Y-86145714D01*
X104282857Y-85812380D02*
X104235238Y-85860000D01*
X104282857Y-85907619D01*
X104330476Y-85860000D01*
X104282857Y-85812380D01*
X104282857Y-85907619D01*
X104901904Y-86812380D02*
X104806666Y-86764761D01*
X104759047Y-86669523D01*
X104759047Y-85812380D01*
X105140000Y-86145714D02*
X105520952Y-86145714D01*
X105282857Y-85812380D02*
X105282857Y-86669523D01*
X105330476Y-86764761D01*
X105425714Y-86812380D01*
X105520952Y-86812380D01*
X106235238Y-86764761D02*
X106140000Y-86812380D01*
X105949523Y-86812380D01*
X105854285Y-86764761D01*
X105806666Y-86669523D01*
X105806666Y-86288571D01*
X105854285Y-86193333D01*
X105949523Y-86145714D01*
X106140000Y-86145714D01*
X106235238Y-86193333D01*
X106282857Y-86288571D01*
X106282857Y-86383809D01*
X105806666Y-86479047D01*
X106711428Y-86812380D02*
X106711428Y-86145714D01*
X106711428Y-86336190D02*
X106759047Y-86240952D01*
X106806666Y-86193333D01*
X106901904Y-86145714D01*
X106997142Y-86145714D01*
X107711428Y-86764761D02*
X107616190Y-86812380D01*
X107425714Y-86812380D01*
X107330476Y-86764761D01*
X107282857Y-86669523D01*
X107282857Y-86288571D01*
X107330476Y-86193333D01*
X107425714Y-86145714D01*
X107616190Y-86145714D01*
X107711428Y-86193333D01*
X107759047Y-86288571D01*
X107759047Y-86383809D01*
X107282857Y-86479047D01*
X108616190Y-86812380D02*
X108616190Y-85812380D01*
X108616190Y-86764761D02*
X108520952Y-86812380D01*
X108330476Y-86812380D01*
X108235238Y-86764761D01*
X108187619Y-86717142D01*
X108140000Y-86621904D01*
X108140000Y-86336190D01*
X108187619Y-86240952D01*
X108235238Y-86193333D01*
X108330476Y-86145714D01*
X108520952Y-86145714D01*
X108616190Y-86193333D01*
X100013095Y-81732380D02*
X99536904Y-81732380D01*
X99536904Y-80732380D01*
X100536904Y-80732380D02*
X100727380Y-80732380D01*
X100822619Y-80780000D01*
X100917857Y-80875238D01*
X100965476Y-81065714D01*
X100965476Y-81399047D01*
X100917857Y-81589523D01*
X100822619Y-81684761D01*
X100727380Y-81732380D01*
X100536904Y-81732380D01*
X100441666Y-81684761D01*
X100346428Y-81589523D01*
X100298809Y-81399047D01*
X100298809Y-81065714D01*
X100346428Y-80875238D01*
X100441666Y-80780000D01*
X100536904Y-80732380D01*
X102155952Y-81732380D02*
X102155952Y-80732380D01*
X102536904Y-80732380D01*
X102632142Y-80780000D01*
X102679761Y-80827619D01*
X102727380Y-80922857D01*
X102727380Y-81065714D01*
X102679761Y-81160952D01*
X102632142Y-81208571D01*
X102536904Y-81256190D01*
X102155952Y-81256190D01*
X103298809Y-81732380D02*
X103203571Y-81684761D01*
X103155952Y-81637142D01*
X103108333Y-81541904D01*
X103108333Y-81256190D01*
X103155952Y-81160952D01*
X103203571Y-81113333D01*
X103298809Y-81065714D01*
X103441666Y-81065714D01*
X103536904Y-81113333D01*
X103584523Y-81160952D01*
X103632142Y-81256190D01*
X103632142Y-81541904D01*
X103584523Y-81637142D01*
X103536904Y-81684761D01*
X103441666Y-81732380D01*
X103298809Y-81732380D01*
X103917857Y-81065714D02*
X104298809Y-81065714D01*
X104060714Y-80732380D02*
X104060714Y-81589523D01*
X104108333Y-81684761D01*
X104203571Y-81732380D01*
X104298809Y-81732380D01*
X105394047Y-81732380D02*
X105394047Y-80732380D01*
X105632142Y-80732380D01*
X105775000Y-80780000D01*
X105870238Y-80875238D01*
X105917857Y-80970476D01*
X105965476Y-81160952D01*
X105965476Y-81303809D01*
X105917857Y-81494285D01*
X105870238Y-81589523D01*
X105775000Y-81684761D01*
X105632142Y-81732380D01*
X105394047Y-81732380D01*
X106394047Y-81732380D02*
X106394047Y-81065714D01*
X106394047Y-80732380D02*
X106346428Y-80780000D01*
X106394047Y-80827619D01*
X106441666Y-80780000D01*
X106394047Y-80732380D01*
X106394047Y-80827619D01*
X106775000Y-81065714D02*
X107013095Y-81732380D01*
X107251190Y-81065714D01*
X107632142Y-81732380D02*
X107632142Y-81065714D01*
X107632142Y-80732380D02*
X107584523Y-80780000D01*
X107632142Y-80827619D01*
X107679761Y-80780000D01*
X107632142Y-80732380D01*
X107632142Y-80827619D01*
X108536904Y-81732380D02*
X108536904Y-80732380D01*
X108536904Y-81684761D02*
X108441666Y-81732380D01*
X108251190Y-81732380D01*
X108155952Y-81684761D01*
X108108333Y-81637142D01*
X108060714Y-81541904D01*
X108060714Y-81256190D01*
X108108333Y-81160952D01*
X108155952Y-81113333D01*
X108251190Y-81065714D01*
X108441666Y-81065714D01*
X108536904Y-81113333D01*
X109394047Y-81684761D02*
X109298809Y-81732380D01*
X109108333Y-81732380D01*
X109013095Y-81684761D01*
X108965476Y-81589523D01*
X108965476Y-81208571D01*
X109013095Y-81113333D01*
X109108333Y-81065714D01*
X109298809Y-81065714D01*
X109394047Y-81113333D01*
X109441666Y-81208571D01*
X109441666Y-81303809D01*
X108965476Y-81399047D01*
X109870238Y-81732380D02*
X109870238Y-81065714D01*
X109870238Y-81256190D02*
X109917857Y-81160952D01*
X109965476Y-81113333D01*
X110060714Y-81065714D01*
X110155952Y-81065714D01*
X99719523Y-76652380D02*
X99243333Y-76652380D01*
X99243333Y-75652380D01*
X100243333Y-75652380D02*
X100433809Y-75652380D01*
X100529047Y-75700000D01*
X100624285Y-75795238D01*
X100671904Y-75985714D01*
X100671904Y-76319047D01*
X100624285Y-76509523D01*
X100529047Y-76604761D01*
X100433809Y-76652380D01*
X100243333Y-76652380D01*
X100148095Y-76604761D01*
X100052857Y-76509523D01*
X100005238Y-76319047D01*
X100005238Y-75985714D01*
X100052857Y-75795238D01*
X100148095Y-75700000D01*
X100243333Y-75652380D01*
X101814761Y-76604761D02*
X101957619Y-76652380D01*
X102195714Y-76652380D01*
X102290952Y-76604761D01*
X102338571Y-76557142D01*
X102386190Y-76461904D01*
X102386190Y-76366666D01*
X102338571Y-76271428D01*
X102290952Y-76223809D01*
X102195714Y-76176190D01*
X102005238Y-76128571D01*
X101910000Y-76080952D01*
X101862380Y-76033333D01*
X101814761Y-75938095D01*
X101814761Y-75842857D01*
X101862380Y-75747619D01*
X101910000Y-75700000D01*
X102005238Y-75652380D01*
X102243333Y-75652380D01*
X102386190Y-75700000D01*
X102671904Y-75985714D02*
X103052857Y-75985714D01*
X102814761Y-75652380D02*
X102814761Y-76509523D01*
X102862380Y-76604761D01*
X102957619Y-76652380D01*
X103052857Y-76652380D01*
X103814761Y-76652380D02*
X103814761Y-76128571D01*
X103767142Y-76033333D01*
X103671904Y-75985714D01*
X103481428Y-75985714D01*
X103386190Y-76033333D01*
X103814761Y-76604761D02*
X103719523Y-76652380D01*
X103481428Y-76652380D01*
X103386190Y-76604761D01*
X103338571Y-76509523D01*
X103338571Y-76414285D01*
X103386190Y-76319047D01*
X103481428Y-76271428D01*
X103719523Y-76271428D01*
X103814761Y-76223809D01*
X104148095Y-75985714D02*
X104529047Y-75985714D01*
X104290952Y-75652380D02*
X104290952Y-76509523D01*
X104338571Y-76604761D01*
X104433809Y-76652380D01*
X104529047Y-76652380D01*
X104862380Y-76652380D02*
X104862380Y-75985714D01*
X104862380Y-75652380D02*
X104814761Y-75700000D01*
X104862380Y-75747619D01*
X104910000Y-75700000D01*
X104862380Y-75652380D01*
X104862380Y-75747619D01*
X105767142Y-76604761D02*
X105671904Y-76652380D01*
X105481428Y-76652380D01*
X105386190Y-76604761D01*
X105338571Y-76557142D01*
X105290952Y-76461904D01*
X105290952Y-76176190D01*
X105338571Y-76080952D01*
X105386190Y-76033333D01*
X105481428Y-75985714D01*
X105671904Y-75985714D01*
X105767142Y-76033333D01*
X106957619Y-76652380D02*
X106957619Y-75652380D01*
X107195714Y-75652380D01*
X107338571Y-75700000D01*
X107433809Y-75795238D01*
X107481428Y-75890476D01*
X107529047Y-76080952D01*
X107529047Y-76223809D01*
X107481428Y-76414285D01*
X107433809Y-76509523D01*
X107338571Y-76604761D01*
X107195714Y-76652380D01*
X106957619Y-76652380D01*
X107957619Y-76652380D02*
X107957619Y-75985714D01*
X107957619Y-75652380D02*
X107910000Y-75700000D01*
X107957619Y-75747619D01*
X108005238Y-75700000D01*
X107957619Y-75652380D01*
X107957619Y-75747619D01*
X108338571Y-75985714D02*
X108576666Y-76652380D01*
X108814761Y-75985714D01*
X109195714Y-76652380D02*
X109195714Y-75985714D01*
X109195714Y-75652380D02*
X109148095Y-75700000D01*
X109195714Y-75747619D01*
X109243333Y-75700000D01*
X109195714Y-75652380D01*
X109195714Y-75747619D01*
X110100476Y-76652380D02*
X110100476Y-75652380D01*
X110100476Y-76604761D02*
X110005238Y-76652380D01*
X109814761Y-76652380D01*
X109719523Y-76604761D01*
X109671904Y-76557142D01*
X109624285Y-76461904D01*
X109624285Y-76176190D01*
X109671904Y-76080952D01*
X109719523Y-76033333D01*
X109814761Y-75985714D01*
X110005238Y-75985714D01*
X110100476Y-76033333D01*
X110957619Y-76604761D02*
X110862380Y-76652380D01*
X110671904Y-76652380D01*
X110576666Y-76604761D01*
X110529047Y-76509523D01*
X110529047Y-76128571D01*
X110576666Y-76033333D01*
X110671904Y-75985714D01*
X110862380Y-75985714D01*
X110957619Y-76033333D01*
X111005238Y-76128571D01*
X111005238Y-76223809D01*
X110529047Y-76319047D01*
X111433809Y-76652380D02*
X111433809Y-75985714D01*
X111433809Y-76176190D02*
X111481428Y-76080952D01*
X111529047Y-76033333D01*
X111624285Y-75985714D01*
X111719523Y-75985714D01*
X95438095Y-53271428D02*
X96200000Y-53271428D01*
X97200000Y-53652380D02*
X96628571Y-53652380D01*
X96914285Y-53652380D02*
X96914285Y-52652380D01*
X96819047Y-52795238D01*
X96723809Y-52890476D01*
X96628571Y-52938095D01*
X97580952Y-52747619D02*
X97628571Y-52700000D01*
X97723809Y-52652380D01*
X97961904Y-52652380D01*
X98057142Y-52700000D01*
X98104761Y-52747619D01*
X98152380Y-52842857D01*
X98152380Y-52938095D01*
X98104761Y-53080952D01*
X97533333Y-53652380D01*
X98152380Y-53652380D01*
X98438095Y-52652380D02*
X98771428Y-53652380D01*
X99104761Y-52652380D01*
X92638095Y-57900000D02*
X92542857Y-57852380D01*
X92400000Y-57852380D01*
X92257142Y-57900000D01*
X92161904Y-57995238D01*
X92114285Y-58090476D01*
X92066666Y-58280952D01*
X92066666Y-58423809D01*
X92114285Y-58614285D01*
X92161904Y-58709523D01*
X92257142Y-58804761D01*
X92400000Y-58852380D01*
X92495238Y-58852380D01*
X92638095Y-58804761D01*
X92685714Y-58757142D01*
X92685714Y-58423809D01*
X92495238Y-58423809D01*
X93114285Y-58852380D02*
X93114285Y-57852380D01*
X93685714Y-58852380D01*
X93685714Y-57852380D01*
X94161904Y-58852380D02*
X94161904Y-57852380D01*
X94400000Y-57852380D01*
X94542857Y-57900000D01*
X94638095Y-57995238D01*
X94685714Y-58090476D01*
X94733333Y-58280952D01*
X94733333Y-58423809D01*
X94685714Y-58614285D01*
X94638095Y-58709523D01*
X94542857Y-58804761D01*
X94400000Y-58852380D01*
X94161904Y-58852380D01*
X186638095Y-57900000D02*
X186542857Y-57852380D01*
X186400000Y-57852380D01*
X186257142Y-57900000D01*
X186161904Y-57995238D01*
X186114285Y-58090476D01*
X186066666Y-58280952D01*
X186066666Y-58423809D01*
X186114285Y-58614285D01*
X186161904Y-58709523D01*
X186257142Y-58804761D01*
X186400000Y-58852380D01*
X186495238Y-58852380D01*
X186638095Y-58804761D01*
X186685714Y-58757142D01*
X186685714Y-58423809D01*
X186495238Y-58423809D01*
X187114285Y-58852380D02*
X187114285Y-57852380D01*
X187685714Y-58852380D01*
X187685714Y-57852380D01*
X188161904Y-58852380D02*
X188161904Y-57852380D01*
X188400000Y-57852380D01*
X188542857Y-57900000D01*
X188638095Y-57995238D01*
X188685714Y-58090476D01*
X188733333Y-58280952D01*
X188733333Y-58423809D01*
X188685714Y-58614285D01*
X188638095Y-58709523D01*
X188542857Y-58804761D01*
X188400000Y-58852380D01*
X188161904Y-58852380D01*
X181638095Y-53471428D02*
X182400000Y-53471428D01*
X182019047Y-53852380D02*
X182019047Y-53090476D01*
X183400000Y-53852380D02*
X182828571Y-53852380D01*
X183114285Y-53852380D02*
X183114285Y-52852380D01*
X183019047Y-52995238D01*
X182923809Y-53090476D01*
X182828571Y-53138095D01*
X183780952Y-52947619D02*
X183828571Y-52900000D01*
X183923809Y-52852380D01*
X184161904Y-52852380D01*
X184257142Y-52900000D01*
X184304761Y-52947619D01*
X184352380Y-53042857D01*
X184352380Y-53138095D01*
X184304761Y-53280952D01*
X183733333Y-53852380D01*
X184352380Y-53852380D01*
X184638095Y-52852380D02*
X184971428Y-53852380D01*
X185304761Y-52852380D01*
D11*
X107060400Y-140249600D02*
G75*
G02X107086400Y-145491200I-4815290J-2644750D01*
G01*
X104935000Y-147675000D02*
G75*
G02X99589000Y-147702000I-2697871J4910957D01*
G01*
X97435000Y-145575000D02*
G75*
G02X97408000Y-140229000I4910957J2697871D01*
G01*
X99618800Y-138023600D02*
G75*
G02X104881000Y-138048000I2608826J-4815992D01*
G01*
X135635400Y-140249600D02*
G75*
G02X135661400Y-145491200I-4815290J-2644750D01*
G01*
X133510000Y-147675000D02*
G75*
G02X128164000Y-147702000I-2697871J4910957D01*
G01*
X126010000Y-145575000D02*
G75*
G02X125983000Y-140229000I4910957J2697871D01*
G01*
X128193800Y-138023600D02*
G75*
G02X133456000Y-138048000I2608826J-4815992D01*
G01*
D12*
X122840000Y-136835000D02*
X122840000Y-144335000D01*
X110840000Y-144335000D02*
X110840000Y-136835000D01*
X110840000Y-136835000D02*
X112840000Y-136835000D01*
X115340000Y-136835000D02*
X118340000Y-136835000D01*
X120840000Y-136835000D02*
X122840000Y-136835000D01*
X122840000Y-144335000D02*
X120840000Y-144335000D01*
X118340000Y-144335000D02*
X115340000Y-144335000D01*
X112840000Y-144335000D02*
X110840000Y-144335000D01*
X110840000Y-144335000D02*
X110840000Y-136835000D01*
X188270000Y-73420000D02*
X188270000Y-83660000D01*
X183629000Y-73420000D02*
X183629000Y-83660000D01*
X188270000Y-73420000D02*
X183629000Y-73420000D01*
X188270000Y-83660000D02*
X183629000Y-83660000D01*
X186760000Y-73420000D02*
X186760000Y-83660000D01*
X188270000Y-76690000D02*
X186760000Y-76690000D01*
X188270000Y-80391000D02*
X186760000Y-80391000D01*
X179080000Y-69300000D02*
X182920000Y-69300000D01*
X182920000Y-69300000D02*
X182920000Y-61460000D01*
X182920000Y-61460000D02*
X179080000Y-61460000D01*
X179080000Y-61460000D02*
X179080000Y-69300000D01*
X181000000Y-71560000D02*
X181000000Y-69300000D01*
X181000000Y-59200000D02*
X181000000Y-61460000D01*
X179080000Y-68040000D02*
X182920000Y-68040000D01*
X179080000Y-67920000D02*
X182920000Y-67920000D01*
X179080000Y-68160000D02*
X182920000Y-68160000D01*
X184236252Y-85710000D02*
X183713748Y-85710000D01*
X184236252Y-84290000D02*
X183713748Y-84290000D01*
X182710000Y-78763748D02*
X182710000Y-79286252D01*
X181290000Y-78763748D02*
X181290000Y-79286252D01*
X125289000Y-74362000D02*
X126619000Y-74362000D01*
X125289000Y-75692000D02*
X125289000Y-74362000D01*
X125289000Y-76962000D02*
X127949000Y-76962000D01*
X127949000Y-76962000D02*
X127949000Y-82102000D01*
X125289000Y-76962000D02*
X125289000Y-82102000D01*
X125289000Y-82102000D02*
X127949000Y-82102000D01*
X92015000Y-52010000D02*
X93345000Y-52010000D01*
X92015000Y-53340000D02*
X92015000Y-52010000D01*
X92015000Y-54610000D02*
X94675000Y-54610000D01*
X94675000Y-54610000D02*
X94675000Y-57210000D01*
X92015000Y-54610000D02*
X92015000Y-57210000D01*
X92015000Y-57210000D02*
X94675000Y-57210000D01*
X185995000Y-52010000D02*
X187325000Y-52010000D01*
X185995000Y-53340000D02*
X185995000Y-52010000D01*
X185995000Y-54610000D02*
X188655000Y-54610000D01*
X188655000Y-54610000D02*
X188655000Y-57210000D01*
X185995000Y-54610000D02*
X185995000Y-57210000D01*
X185995000Y-57210000D02*
X188655000Y-57210000D01*
X120995000Y-58995000D02*
X119745000Y-58995000D01*
X120995000Y-69275000D02*
X120995000Y-58995000D01*
X116495000Y-69275000D02*
X120995000Y-69275000D01*
X116495000Y-58995000D02*
X116495000Y-69275000D01*
X117745000Y-58995000D02*
X116495000Y-58995000D01*
X119745000Y-58995000D02*
G75*
G02X117745000Y-58995000I-1000000J0D01*
G01*
X136870000Y-59122000D02*
X135620000Y-59122000D01*
X136870000Y-69402000D02*
X136870000Y-59122000D01*
X132370000Y-69402000D02*
X136870000Y-69402000D01*
X132370000Y-59122000D02*
X132370000Y-69402000D01*
X133620000Y-59122000D02*
X132370000Y-59122000D01*
X135620000Y-59122000D02*
G75*
G02X133620000Y-59122000I-1000000J0D01*
G01*
X183352000Y-87570000D02*
X182102000Y-87570000D01*
X183352000Y-97850000D02*
X183352000Y-87570000D01*
X178852000Y-97850000D02*
X183352000Y-97850000D01*
X178852000Y-87570000D02*
X178852000Y-97850000D01*
X180102000Y-87570000D02*
X178852000Y-87570000D01*
X182102000Y-87570000D02*
G75*
G02X180102000Y-87570000I-1000000J0D01*
G01*
X95070000Y-77650000D02*
X95070000Y-74750000D01*
X97970000Y-77650000D02*
X95070000Y-77650000D01*
X97970000Y-74750000D02*
X97970000Y-77650000D01*
X95070000Y-74750000D02*
X97970000Y-74750000D01*
X95070000Y-92890000D02*
X95070000Y-89990000D01*
X97970000Y-92890000D02*
X95070000Y-92890000D01*
X97970000Y-89990000D02*
X97970000Y-92890000D01*
X95070000Y-89990000D02*
X97970000Y-89990000D01*
X95070000Y-82730000D02*
X95070000Y-79830000D01*
X97970000Y-82730000D02*
X95070000Y-82730000D01*
X97970000Y-79830000D02*
X97970000Y-82730000D01*
X95070000Y-79830000D02*
X97970000Y-79830000D01*
X95070000Y-87810000D02*
X95070000Y-84910000D01*
X97970000Y-87810000D02*
X95070000Y-87810000D01*
X97970000Y-84910000D02*
X97970000Y-87810000D01*
X95070000Y-84910000D02*
X97970000Y-84910000D01*
X131884000Y-121700000D02*
X125084000Y-121700000D01*
X131884000Y-106700000D02*
X131884000Y-121700000D01*
X125084000Y-106800000D02*
X131884000Y-106700000D01*
X125084000Y-121700000D02*
X125084000Y-106800000D01*
X152596000Y-106900000D02*
X159396000Y-106900000D01*
X152596000Y-121900000D02*
X152596000Y-106900000D01*
X159396000Y-121800000D02*
X152596000Y-121900000D01*
X159396000Y-106900000D02*
X159396000Y-121800000D01*
X95420000Y-65405000D02*
X96530000Y-65405000D01*
X107780000Y-65405000D02*
X106670000Y-65405000D01*
X96530000Y-67325000D02*
X106670000Y-67325000D01*
X96530000Y-63485000D02*
X96530000Y-67325000D01*
X106670000Y-63485000D02*
X96530000Y-63485000D01*
X106670000Y-67325000D02*
X106670000Y-63485000D01*
X107780000Y-69850000D02*
X106670000Y-69850000D01*
X95420000Y-69850000D02*
X96530000Y-69850000D01*
X106670000Y-67930000D02*
X96530000Y-67930000D01*
X106670000Y-71770000D02*
X106670000Y-67930000D01*
X96530000Y-71770000D02*
X106670000Y-71770000D01*
X96530000Y-67930000D02*
X96530000Y-71770000D01*
X145204000Y-65532000D02*
X146314000Y-65532000D01*
X157564000Y-65532000D02*
X156454000Y-65532000D01*
X146314000Y-67452000D02*
X156454000Y-67452000D01*
X146314000Y-63612000D02*
X146314000Y-67452000D01*
X156454000Y-63612000D02*
X146314000Y-63612000D01*
X156454000Y-67452000D02*
X156454000Y-63612000D01*
X165100000Y-66124000D02*
X165100000Y-65014000D01*
X165100000Y-53764000D02*
X165100000Y-54874000D01*
X167020000Y-65014000D02*
X167020000Y-54874000D01*
X163180000Y-65014000D02*
X167020000Y-65014000D01*
X163180000Y-54874000D02*
X163180000Y-65014000D01*
X167020000Y-54874000D02*
X163180000Y-54874000D01*
X162052000Y-75608000D02*
X162052000Y-76718000D01*
X162052000Y-87968000D02*
X162052000Y-86858000D01*
X160132000Y-76718000D02*
X160132000Y-86858000D01*
X163972000Y-76718000D02*
X160132000Y-76718000D01*
X163972000Y-86858000D02*
X163972000Y-76718000D01*
X160132000Y-86858000D02*
X163972000Y-86858000D01*
X143764000Y-75608000D02*
X143764000Y-76718000D01*
X143764000Y-87968000D02*
X143764000Y-86858000D01*
X141844000Y-76718000D02*
X141844000Y-86858000D01*
X145684000Y-76718000D02*
X141844000Y-76718000D01*
X145684000Y-86858000D02*
X145684000Y-76718000D01*
X141844000Y-86858000D02*
X145684000Y-86858000D01*
X157480000Y-75608000D02*
X157480000Y-76718000D01*
X157480000Y-87968000D02*
X157480000Y-86858000D01*
X155560000Y-76718000D02*
X155560000Y-86858000D01*
X159400000Y-76718000D02*
X155560000Y-76718000D01*
X159400000Y-86858000D02*
X159400000Y-76718000D01*
X155560000Y-86858000D02*
X159400000Y-86858000D01*
X148336000Y-75608000D02*
X148336000Y-76718000D01*
X148336000Y-87968000D02*
X148336000Y-86858000D01*
X146416000Y-76718000D02*
X146416000Y-86858000D01*
X150256000Y-76718000D02*
X146416000Y-76718000D01*
X150256000Y-86858000D02*
X150256000Y-76718000D01*
X146416000Y-86858000D02*
X150256000Y-86858000D01*
X152908000Y-75608000D02*
X152908000Y-76718000D01*
X152908000Y-87968000D02*
X152908000Y-86858000D01*
X150988000Y-76718000D02*
X150988000Y-86858000D01*
X154828000Y-76718000D02*
X150988000Y-76718000D01*
X154828000Y-86858000D02*
X154828000Y-76718000D01*
X150988000Y-86858000D02*
X154828000Y-86858000D01*
X149838000Y-56714000D02*
X153438000Y-56714000D01*
X153446445Y-56691684D02*
G75*
G03X152418000Y-52414000I-1808445J1827684D01*
G01*
X149826547Y-56706156D02*
G75*
G02X150818000Y-52414000I1811453J1842156D01*
G01*
X142726000Y-56714000D02*
X146326000Y-56714000D01*
X146334445Y-56691684D02*
G75*
G03X145306000Y-52414000I-1808445J1827684D01*
G01*
X142714547Y-56706156D02*
G75*
G02X143706000Y-52414000I1811453J1842156D01*
G01*
X167618000Y-95322000D02*
X171218000Y-95322000D01*
X171226445Y-95299684D02*
G75*
G03X170198000Y-91022000I-1808445J1827684D01*
G01*
X167606547Y-95314156D02*
G75*
G02X168598000Y-91022000I1811453J1842156D01*
G01*
X171704000Y-81564000D02*
X171704000Y-79684000D01*
X171704000Y-53564000D02*
X171704000Y-55444000D01*
X175374000Y-79684000D02*
X175374000Y-55444000D01*
X168034000Y-79684000D02*
X175374000Y-79684000D01*
X168034000Y-55444000D02*
X168034000Y-79684000D01*
X175374000Y-55444000D02*
X168034000Y-55444000D01*
D11*
X185165400Y-109134600D02*
G75*
G02X185191400Y-114376200I-4815290J-2644750D01*
G01*
X183040000Y-116560000D02*
G75*
G02X177694000Y-116587000I-2697871J4910957D01*
G01*
X175540000Y-114460000D02*
G75*
G02X175513000Y-109114000I4910957J2697871D01*
G01*
X177723800Y-106908600D02*
G75*
G02X182986000Y-106933000I2608826J-4815992D01*
G01*
X185165400Y-126914600D02*
G75*
G02X185191400Y-132156200I-4815290J-2644750D01*
G01*
X183040000Y-134340000D02*
G75*
G02X177694000Y-134367000I-2697871J4910957D01*
G01*
X175540000Y-132240000D02*
G75*
G02X175513000Y-126894000I4910957J2697871D01*
G01*
X177723800Y-124688600D02*
G75*
G02X182986000Y-124713000I2608826J-4815992D01*
G01*
X111505400Y-123104600D02*
G75*
G02X111531400Y-128346200I-4815290J-2644750D01*
G01*
X109380000Y-130530000D02*
G75*
G02X104034000Y-130557000I-2697871J4910957D01*
G01*
X101880000Y-128430000D02*
G75*
G02X101853000Y-123084000I4910957J2697871D01*
G01*
X104063800Y-120878600D02*
G75*
G02X109326000Y-120903000I2608826J-4815992D01*
G01*
X104054600Y-106934600D02*
G75*
G02X109296200Y-106908600I2644750J-4815290D01*
G01*
X111480000Y-109060000D02*
G75*
G02X111507000Y-114406000I-4910957J-2697871D01*
G01*
X109380000Y-116560000D02*
G75*
G02X104034000Y-116587000I-2697871J4910957D01*
G01*
X101828600Y-114376200D02*
G75*
G02X101853000Y-109114000I4815992J2608826D01*
G01*
D12*
X149764000Y-131636000D02*
X149764000Y-139136000D01*
X147764000Y-131636000D02*
X149764000Y-131636000D01*
X142264000Y-131636000D02*
X145264000Y-131636000D01*
X137764000Y-131636000D02*
X139764000Y-131636000D01*
X139764000Y-139136000D02*
X137764000Y-139136000D01*
X145264000Y-139136000D02*
X142264000Y-139136000D01*
X149764000Y-139136000D02*
X147764000Y-139136000D01*
X149764000Y-131636000D02*
X149764000Y-139136000D01*
X137764000Y-139136000D02*
X137764000Y-131636000D01*
D10*
X143497000Y-115816000D02*
X143697000Y-115816000D01*
X143497000Y-114816000D02*
X143697000Y-114816000D01*
X143343000Y-115570000D02*
X143343000Y-115062000D01*
X143697000Y-112623000D02*
X143497000Y-112623000D01*
X143697000Y-113623000D02*
X143497000Y-113623000D01*
X143851000Y-112869000D02*
X143851000Y-113377000D01*
X140713999Y-115816000D02*
X140913999Y-115816000D01*
X140713999Y-114816000D02*
X140913999Y-114816000D01*
X140559999Y-115570000D02*
X140559999Y-115062000D01*
X140913999Y-112623000D02*
X140713999Y-112623000D01*
X140913999Y-113623000D02*
X140713999Y-113623000D01*
X141067999Y-112869000D02*
X141067999Y-113377000D01*
D12*
X114225000Y-74913748D02*
X114225000Y-75436252D01*
X115645000Y-74913748D02*
X115645000Y-75436252D01*
X130100000Y-74913748D02*
X130100000Y-75436252D01*
X131520000Y-74913748D02*
X131520000Y-75436252D01*
X137720000Y-74913748D02*
X137720000Y-75436252D01*
X139140000Y-74913748D02*
X139140000Y-75436252D01*
X121845000Y-74913748D02*
X121845000Y-75436252D01*
X123265000Y-74913748D02*
X123265000Y-75436252D01*
X176582000Y-101846748D02*
X176582000Y-102369252D01*
X178002000Y-101846748D02*
X178002000Y-102369252D01*
X162847000Y-92234000D02*
X163472000Y-92234000D01*
X160632000Y-92234000D02*
X161257000Y-92234000D01*
X162847000Y-96274000D02*
X163472000Y-96274000D01*
X160632000Y-96274000D02*
X161257000Y-96274000D01*
X163472000Y-96274000D02*
X163472000Y-92234000D01*
X160632000Y-96274000D02*
X160632000Y-92234000D01*
X157701000Y-58642000D02*
X157076000Y-58642000D01*
X159916000Y-58642000D02*
X159291000Y-58642000D01*
X157701000Y-54602000D02*
X157076000Y-54602000D01*
X159916000Y-54602000D02*
X159291000Y-54602000D01*
X157076000Y-54602000D02*
X157076000Y-58642000D01*
X159916000Y-54602000D02*
X159916000Y-58642000D01*
X144559000Y-92234000D02*
X145184000Y-92234000D01*
X142344000Y-92234000D02*
X142969000Y-92234000D01*
X144559000Y-96274000D02*
X145184000Y-96274000D01*
X142344000Y-96274000D02*
X142969000Y-96274000D01*
X145184000Y-96274000D02*
X145184000Y-92234000D01*
X142344000Y-96274000D02*
X142344000Y-92234000D01*
X158275000Y-92234000D02*
X158900000Y-92234000D01*
X156060000Y-92234000D02*
X156685000Y-92234000D01*
X158275000Y-96274000D02*
X158900000Y-96274000D01*
X156060000Y-96274000D02*
X156685000Y-96274000D01*
X158900000Y-96274000D02*
X158900000Y-92234000D01*
X156060000Y-96274000D02*
X156060000Y-92234000D01*
X149131000Y-92234000D02*
X149756000Y-92234000D01*
X146916000Y-92234000D02*
X147541000Y-92234000D01*
X149131000Y-96274000D02*
X149756000Y-96274000D01*
X146916000Y-96274000D02*
X147541000Y-96274000D01*
X149756000Y-96274000D02*
X149756000Y-92234000D01*
X146916000Y-96274000D02*
X146916000Y-92234000D01*
X153703000Y-92194000D02*
X154328000Y-92194000D01*
X151488000Y-92194000D02*
X152113000Y-92194000D01*
X153703000Y-96234000D02*
X154328000Y-96234000D01*
X151488000Y-96234000D02*
X152113000Y-96234000D01*
X154328000Y-96234000D02*
X154328000Y-92194000D01*
X151488000Y-96234000D02*
X151488000Y-92194000D01*
X184202000Y-101837748D02*
X184202000Y-102360252D01*
X185622000Y-101837748D02*
X185622000Y-102360252D01*
D13*
X101896333Y-135452529D02*
X101896333Y-136178243D01*
X101847952Y-136323386D01*
X101751190Y-136420148D01*
X101606047Y-136468529D01*
X101509285Y-136468529D01*
X102283380Y-135452529D02*
X102960714Y-135452529D01*
X102525285Y-136468529D01*
X129930703Y-135452529D02*
X129930703Y-136178243D01*
X129882322Y-136323386D01*
X129785560Y-136420148D01*
X129640417Y-136468529D01*
X129543655Y-136468529D01*
X130559655Y-135887957D02*
X130462893Y-135839576D01*
X130414512Y-135791195D01*
X130366131Y-135694433D01*
X130366131Y-135646052D01*
X130414512Y-135549290D01*
X130462893Y-135500910D01*
X130559655Y-135452529D01*
X130753179Y-135452529D01*
X130849941Y-135500910D01*
X130898322Y-135549290D01*
X130946703Y-135646052D01*
X130946703Y-135694433D01*
X130898322Y-135791195D01*
X130849941Y-135839576D01*
X130753179Y-135887957D01*
X130559655Y-135887957D01*
X130462893Y-135936338D01*
X130414512Y-135984719D01*
X130366131Y-136081481D01*
X130366131Y-136275005D01*
X130414512Y-136371767D01*
X130462893Y-136420148D01*
X130559655Y-136468529D01*
X130753179Y-136468529D01*
X130849941Y-136420148D01*
X130898322Y-136371767D01*
X130946703Y-136275005D01*
X130946703Y-136081481D01*
X130898322Y-135984719D01*
X130849941Y-135936338D01*
X130753179Y-135887957D01*
D10*
X116101904Y-134263571D02*
X115768571Y-134263571D01*
X115768571Y-134787380D02*
X115768571Y-133787380D01*
X116244761Y-133787380D01*
X117101904Y-134787380D02*
X116625714Y-134787380D01*
X116625714Y-133787380D01*
X117387619Y-133882619D02*
X117435238Y-133835000D01*
X117530476Y-133787380D01*
X117768571Y-133787380D01*
X117863809Y-133835000D01*
X117911428Y-133882619D01*
X117959047Y-133977857D01*
X117959047Y-134073095D01*
X117911428Y-134215952D01*
X117340000Y-134787380D01*
X117959047Y-134787380D01*
X121506666Y-135287380D02*
X122125714Y-135287380D01*
X121792380Y-135668333D01*
X121935238Y-135668333D01*
X122030476Y-135715952D01*
X122078095Y-135763571D01*
X122125714Y-135858809D01*
X122125714Y-136096904D01*
X122078095Y-136192142D01*
X122030476Y-136239761D01*
X121935238Y-136287380D01*
X121649523Y-136287380D01*
X121554285Y-136239761D01*
X121506666Y-136192142D01*
X112030476Y-135620714D02*
X112030476Y-136287380D01*
X111792380Y-135239761D02*
X111554285Y-135954047D01*
X112173333Y-135954047D01*
X121554285Y-144882619D02*
X121601904Y-144835000D01*
X121697142Y-144787380D01*
X121935238Y-144787380D01*
X122030476Y-144835000D01*
X122078095Y-144882619D01*
X122125714Y-144977857D01*
X122125714Y-145073095D01*
X122078095Y-145215952D01*
X121506666Y-145787380D01*
X122125714Y-145787380D01*
X112125714Y-145787380D02*
X111554285Y-145787380D01*
X111840000Y-145787380D02*
X111840000Y-144787380D01*
X111744761Y-144930238D01*
X111649523Y-145025476D01*
X111554285Y-145073095D01*
X183690476Y-71452380D02*
X184023809Y-72452380D01*
X184357142Y-71452380D01*
X185261904Y-72452380D02*
X184928571Y-71976190D01*
X184690476Y-72452380D02*
X184690476Y-71452380D01*
X185071428Y-71452380D01*
X185166666Y-71500000D01*
X185214285Y-71547619D01*
X185261904Y-71642857D01*
X185261904Y-71785714D01*
X185214285Y-71880952D01*
X185166666Y-71928571D01*
X185071428Y-71976190D01*
X184690476Y-71976190D01*
X186214285Y-72452380D02*
X185642857Y-72452380D01*
X185928571Y-72452380D02*
X185928571Y-71452380D01*
X185833333Y-71595238D01*
X185738095Y-71690476D01*
X185642857Y-71738095D01*
X178661904Y-56052380D02*
X178661904Y-55052380D01*
X178900000Y-55052380D01*
X179042857Y-55100000D01*
X179138095Y-55195238D01*
X179185714Y-55290476D01*
X179233333Y-55480952D01*
X179233333Y-55623809D01*
X179185714Y-55814285D01*
X179138095Y-55909523D01*
X179042857Y-56004761D01*
X178900000Y-56052380D01*
X178661904Y-56052380D01*
X179566666Y-55052380D02*
X180233333Y-55052380D01*
X179804761Y-56052380D01*
X178538095Y-73452380D02*
X178538095Y-72452380D01*
X179109523Y-73452380D02*
X178680952Y-72880952D01*
X179109523Y-72452380D02*
X178538095Y-73023809D01*
X186607142Y-85357142D02*
X186559523Y-85404761D01*
X186416666Y-85452380D01*
X186321428Y-85452380D01*
X186178571Y-85404761D01*
X186083333Y-85309523D01*
X186035714Y-85214285D01*
X185988095Y-85023809D01*
X185988095Y-84880952D01*
X186035714Y-84690476D01*
X186083333Y-84595238D01*
X186178571Y-84500000D01*
X186321428Y-84452380D01*
X186416666Y-84452380D01*
X186559523Y-84500000D01*
X186607142Y-84547619D01*
X187559523Y-85452380D02*
X186988095Y-85452380D01*
X187273809Y-85452380D02*
X187273809Y-84452380D01*
X187178571Y-84595238D01*
X187083333Y-84690476D01*
X186988095Y-84738095D01*
X188416666Y-84785714D02*
X188416666Y-85452380D01*
X188178571Y-84404761D02*
X187940476Y-85119047D01*
X188559523Y-85119047D01*
X181357142Y-82357142D02*
X181309523Y-82404761D01*
X181166666Y-82452380D01*
X181071428Y-82452380D01*
X180928571Y-82404761D01*
X180833333Y-82309523D01*
X180785714Y-82214285D01*
X180738095Y-82023809D01*
X180738095Y-81880952D01*
X180785714Y-81690476D01*
X180833333Y-81595238D01*
X180928571Y-81500000D01*
X181071428Y-81452380D01*
X181166666Y-81452380D01*
X181309523Y-81500000D01*
X181357142Y-81547619D01*
X182309523Y-82452380D02*
X181738095Y-82452380D01*
X182023809Y-82452380D02*
X182023809Y-81452380D01*
X181928571Y-81595238D01*
X181833333Y-81690476D01*
X181738095Y-81738095D01*
X182642857Y-81452380D02*
X183261904Y-81452380D01*
X182928571Y-81833333D01*
X183071428Y-81833333D01*
X183166666Y-81880952D01*
X183214285Y-81928571D01*
X183261904Y-82023809D01*
X183261904Y-82261904D01*
X183214285Y-82357142D01*
X183166666Y-82404761D01*
X183071428Y-82452380D01*
X182785714Y-82452380D01*
X182690476Y-82404761D01*
X182642857Y-82357142D01*
X126023761Y-73814380D02*
X125690428Y-73338190D01*
X125452333Y-73814380D02*
X125452333Y-72814380D01*
X125833285Y-72814380D01*
X125928523Y-72862000D01*
X125976142Y-72909619D01*
X126023761Y-73004857D01*
X126023761Y-73147714D01*
X125976142Y-73242952D01*
X125928523Y-73290571D01*
X125833285Y-73338190D01*
X125452333Y-73338190D01*
X126309476Y-72814380D02*
X126642809Y-73814380D01*
X126976142Y-72814380D01*
X127833285Y-73814380D02*
X127261857Y-73814380D01*
X127547571Y-73814380D02*
X127547571Y-72814380D01*
X127452333Y-72957238D01*
X127357095Y-73052476D01*
X127261857Y-73100095D01*
X93011666Y-50462380D02*
X93011666Y-51176666D01*
X92964047Y-51319523D01*
X92868809Y-51414761D01*
X92725952Y-51462380D01*
X92630714Y-51462380D01*
X93916428Y-50462380D02*
X93725952Y-50462380D01*
X93630714Y-50510000D01*
X93583095Y-50557619D01*
X93487857Y-50700476D01*
X93440238Y-50890952D01*
X93440238Y-51271904D01*
X93487857Y-51367142D01*
X93535476Y-51414761D01*
X93630714Y-51462380D01*
X93821190Y-51462380D01*
X93916428Y-51414761D01*
X93964047Y-51367142D01*
X94011666Y-51271904D01*
X94011666Y-51033809D01*
X93964047Y-50938571D01*
X93916428Y-50890952D01*
X93821190Y-50843333D01*
X93630714Y-50843333D01*
X93535476Y-50890952D01*
X93487857Y-50938571D01*
X93440238Y-51033809D01*
X186991666Y-50462380D02*
X186991666Y-51176666D01*
X186944047Y-51319523D01*
X186848809Y-51414761D01*
X186705952Y-51462380D01*
X186610714Y-51462380D01*
X187944047Y-50462380D02*
X187467857Y-50462380D01*
X187420238Y-50938571D01*
X187467857Y-50890952D01*
X187563095Y-50843333D01*
X187801190Y-50843333D01*
X187896428Y-50890952D01*
X187944047Y-50938571D01*
X187991666Y-51033809D01*
X187991666Y-51271904D01*
X187944047Y-51367142D01*
X187896428Y-51414761D01*
X187801190Y-51462380D01*
X187563095Y-51462380D01*
X187467857Y-51414761D01*
X187420238Y-51367142D01*
X117983095Y-57447380D02*
X117983095Y-58256904D01*
X118030714Y-58352142D01*
X118078333Y-58399761D01*
X118173571Y-58447380D01*
X118364047Y-58447380D01*
X118459285Y-58399761D01*
X118506904Y-58352142D01*
X118554523Y-58256904D01*
X118554523Y-57447380D01*
X118935476Y-57447380D02*
X119554523Y-57447380D01*
X119221190Y-57828333D01*
X119364047Y-57828333D01*
X119459285Y-57875952D01*
X119506904Y-57923571D01*
X119554523Y-58018809D01*
X119554523Y-58256904D01*
X119506904Y-58352142D01*
X119459285Y-58399761D01*
X119364047Y-58447380D01*
X119078333Y-58447380D01*
X118983095Y-58399761D01*
X118935476Y-58352142D01*
X133858095Y-57574380D02*
X133858095Y-58383904D01*
X133905714Y-58479142D01*
X133953333Y-58526761D01*
X134048571Y-58574380D01*
X134239047Y-58574380D01*
X134334285Y-58526761D01*
X134381904Y-58479142D01*
X134429523Y-58383904D01*
X134429523Y-57574380D01*
X134858095Y-57669619D02*
X134905714Y-57622000D01*
X135000952Y-57574380D01*
X135239047Y-57574380D01*
X135334285Y-57622000D01*
X135381904Y-57669619D01*
X135429523Y-57764857D01*
X135429523Y-57860095D01*
X135381904Y-58002952D01*
X134810476Y-58574380D01*
X135429523Y-58574380D01*
X180340095Y-86022380D02*
X180340095Y-86831904D01*
X180387714Y-86927142D01*
X180435333Y-86974761D01*
X180530571Y-87022380D01*
X180721047Y-87022380D01*
X180816285Y-86974761D01*
X180863904Y-86927142D01*
X180911523Y-86831904D01*
X180911523Y-86022380D01*
X181911523Y-87022380D02*
X181340095Y-87022380D01*
X181625809Y-87022380D02*
X181625809Y-86022380D01*
X181530571Y-86165238D01*
X181435333Y-86260476D01*
X181340095Y-86308095D01*
X95258095Y-73504380D02*
X95829523Y-73504380D01*
X95543809Y-74504380D02*
X95543809Y-73504380D01*
X96162857Y-74504380D02*
X96162857Y-73504380D01*
X96543809Y-73504380D01*
X96639047Y-73552000D01*
X96686666Y-73599619D01*
X96734285Y-73694857D01*
X96734285Y-73837714D01*
X96686666Y-73932952D01*
X96639047Y-73980571D01*
X96543809Y-74028190D01*
X96162857Y-74028190D01*
X97591428Y-73837714D02*
X97591428Y-74504380D01*
X97353333Y-73456761D02*
X97115238Y-74171047D01*
X97734285Y-74171047D01*
X95258095Y-88744380D02*
X95829523Y-88744380D01*
X95543809Y-89744380D02*
X95543809Y-88744380D01*
X96162857Y-89744380D02*
X96162857Y-88744380D01*
X96543809Y-88744380D01*
X96639047Y-88792000D01*
X96686666Y-88839619D01*
X96734285Y-88934857D01*
X96734285Y-89077714D01*
X96686666Y-89172952D01*
X96639047Y-89220571D01*
X96543809Y-89268190D01*
X96162857Y-89268190D01*
X97067619Y-88744380D02*
X97686666Y-88744380D01*
X97353333Y-89125333D01*
X97496190Y-89125333D01*
X97591428Y-89172952D01*
X97639047Y-89220571D01*
X97686666Y-89315809D01*
X97686666Y-89553904D01*
X97639047Y-89649142D01*
X97591428Y-89696761D01*
X97496190Y-89744380D01*
X97210476Y-89744380D01*
X97115238Y-89696761D01*
X97067619Y-89649142D01*
X95258095Y-78584380D02*
X95829523Y-78584380D01*
X95543809Y-79584380D02*
X95543809Y-78584380D01*
X96162857Y-79584380D02*
X96162857Y-78584380D01*
X96543809Y-78584380D01*
X96639047Y-78632000D01*
X96686666Y-78679619D01*
X96734285Y-78774857D01*
X96734285Y-78917714D01*
X96686666Y-79012952D01*
X96639047Y-79060571D01*
X96543809Y-79108190D01*
X96162857Y-79108190D01*
X97115238Y-78679619D02*
X97162857Y-78632000D01*
X97258095Y-78584380D01*
X97496190Y-78584380D01*
X97591428Y-78632000D01*
X97639047Y-78679619D01*
X97686666Y-78774857D01*
X97686666Y-78870095D01*
X97639047Y-79012952D01*
X97067619Y-79584380D01*
X97686666Y-79584380D01*
X95258095Y-83664380D02*
X95829523Y-83664380D01*
X95543809Y-84664380D02*
X95543809Y-83664380D01*
X96162857Y-84664380D02*
X96162857Y-83664380D01*
X96543809Y-83664380D01*
X96639047Y-83712000D01*
X96686666Y-83759619D01*
X96734285Y-83854857D01*
X96734285Y-83997714D01*
X96686666Y-84092952D01*
X96639047Y-84140571D01*
X96543809Y-84188190D01*
X96162857Y-84188190D01*
X97686666Y-84664380D02*
X97115238Y-84664380D01*
X97400952Y-84664380D02*
X97400952Y-83664380D01*
X97305714Y-83807238D01*
X97210476Y-83902476D01*
X97115238Y-83950095D01*
X127762095Y-122134380D02*
X128333523Y-122134380D01*
X128047809Y-123134380D02*
X128047809Y-122134380D01*
X128619238Y-122229619D02*
X128666857Y-122182000D01*
X128762095Y-122134380D01*
X129000190Y-122134380D01*
X129095428Y-122182000D01*
X129143047Y-122229619D01*
X129190666Y-122324857D01*
X129190666Y-122420095D01*
X129143047Y-122562952D01*
X128571619Y-123134380D01*
X129190666Y-123134380D01*
X124236380Y-120100000D02*
X124474476Y-120100000D01*
X124379238Y-120338095D02*
X124474476Y-120100000D01*
X124379238Y-119861904D01*
X124664952Y-120242857D02*
X124474476Y-120100000D01*
X124664952Y-119957142D01*
X155238095Y-122452380D02*
X155809523Y-122452380D01*
X155523809Y-123452380D02*
X155523809Y-122452380D01*
X156666666Y-123452380D02*
X156095238Y-123452380D01*
X156380952Y-123452380D02*
X156380952Y-122452380D01*
X156285714Y-122595238D01*
X156190476Y-122690476D01*
X156095238Y-122738095D01*
X159148380Y-108500000D02*
X159386476Y-108500000D01*
X159291238Y-108738095D02*
X159386476Y-108500000D01*
X159291238Y-108261904D01*
X159576952Y-108642857D02*
X159386476Y-108500000D01*
X159576952Y-108357142D01*
X101333333Y-62952380D02*
X101000000Y-62476190D01*
X100761904Y-62952380D02*
X100761904Y-61952380D01*
X101142857Y-61952380D01*
X101238095Y-62000000D01*
X101285714Y-62047619D01*
X101333333Y-62142857D01*
X101333333Y-62285714D01*
X101285714Y-62380952D01*
X101238095Y-62428571D01*
X101142857Y-62476190D01*
X100761904Y-62476190D01*
X101809523Y-62952380D02*
X102000000Y-62952380D01*
X102095238Y-62904761D01*
X102142857Y-62857142D01*
X102238095Y-62714285D01*
X102285714Y-62523809D01*
X102285714Y-62142857D01*
X102238095Y-62047619D01*
X102190476Y-62000000D01*
X102095238Y-61952380D01*
X101904761Y-61952380D01*
X101809523Y-62000000D01*
X101761904Y-62047619D01*
X101714285Y-62142857D01*
X101714285Y-62380952D01*
X101761904Y-62476190D01*
X101809523Y-62523809D01*
X101904761Y-62571428D01*
X102095238Y-62571428D01*
X102190476Y-62523809D01*
X102238095Y-62476190D01*
X102285714Y-62380952D01*
X101433333Y-73452380D02*
X101100000Y-72976190D01*
X100861904Y-73452380D02*
X100861904Y-72452380D01*
X101242857Y-72452380D01*
X101338095Y-72500000D01*
X101385714Y-72547619D01*
X101433333Y-72642857D01*
X101433333Y-72785714D01*
X101385714Y-72880952D01*
X101338095Y-72928571D01*
X101242857Y-72976190D01*
X100861904Y-72976190D01*
X102004761Y-72880952D02*
X101909523Y-72833333D01*
X101861904Y-72785714D01*
X101814285Y-72690476D01*
X101814285Y-72642857D01*
X101861904Y-72547619D01*
X101909523Y-72500000D01*
X102004761Y-72452380D01*
X102195238Y-72452380D01*
X102290476Y-72500000D01*
X102338095Y-72547619D01*
X102385714Y-72642857D01*
X102385714Y-72690476D01*
X102338095Y-72785714D01*
X102290476Y-72833333D01*
X102195238Y-72880952D01*
X102004761Y-72880952D01*
X101909523Y-72928571D01*
X101861904Y-72976190D01*
X101814285Y-73071428D01*
X101814285Y-73261904D01*
X101861904Y-73357142D01*
X101909523Y-73404761D01*
X102004761Y-73452380D01*
X102195238Y-73452380D01*
X102290476Y-73404761D01*
X102338095Y-73357142D01*
X102385714Y-73261904D01*
X102385714Y-73071428D01*
X102338095Y-72976190D01*
X102290476Y-72928571D01*
X102195238Y-72880952D01*
X151217333Y-68904380D02*
X150884000Y-68428190D01*
X150645904Y-68904380D02*
X150645904Y-67904380D01*
X151026857Y-67904380D01*
X151122095Y-67952000D01*
X151169714Y-67999619D01*
X151217333Y-68094857D01*
X151217333Y-68237714D01*
X151169714Y-68332952D01*
X151122095Y-68380571D01*
X151026857Y-68428190D01*
X150645904Y-68428190D01*
X151550666Y-67904380D02*
X152217333Y-67904380D01*
X151788761Y-68904380D01*
X164933333Y-70302380D02*
X164600000Y-69826190D01*
X164361904Y-70302380D02*
X164361904Y-69302380D01*
X164742857Y-69302380D01*
X164838095Y-69350000D01*
X164885714Y-69397619D01*
X164933333Y-69492857D01*
X164933333Y-69635714D01*
X164885714Y-69730952D01*
X164838095Y-69778571D01*
X164742857Y-69826190D01*
X164361904Y-69826190D01*
X165790476Y-69302380D02*
X165600000Y-69302380D01*
X165504761Y-69350000D01*
X165457142Y-69397619D01*
X165361904Y-69540476D01*
X165314285Y-69730952D01*
X165314285Y-70111904D01*
X165361904Y-70207142D01*
X165409523Y-70254761D01*
X165504761Y-70302380D01*
X165695238Y-70302380D01*
X165790476Y-70254761D01*
X165838095Y-70207142D01*
X165885714Y-70111904D01*
X165885714Y-69873809D01*
X165838095Y-69778571D01*
X165790476Y-69730952D01*
X165695238Y-69683333D01*
X165504761Y-69683333D01*
X165409523Y-69730952D01*
X165361904Y-69778571D01*
X165314285Y-69873809D01*
X161833333Y-71952380D02*
X161500000Y-71476190D01*
X161261904Y-71952380D02*
X161261904Y-70952380D01*
X161642857Y-70952380D01*
X161738095Y-71000000D01*
X161785714Y-71047619D01*
X161833333Y-71142857D01*
X161833333Y-71285714D01*
X161785714Y-71380952D01*
X161738095Y-71428571D01*
X161642857Y-71476190D01*
X161261904Y-71476190D01*
X162738095Y-70952380D02*
X162261904Y-70952380D01*
X162214285Y-71428571D01*
X162261904Y-71380952D01*
X162357142Y-71333333D01*
X162595238Y-71333333D01*
X162690476Y-71380952D01*
X162738095Y-71428571D01*
X162785714Y-71523809D01*
X162785714Y-71761904D01*
X162738095Y-71857142D01*
X162690476Y-71904761D01*
X162595238Y-71952380D01*
X162357142Y-71952380D01*
X162261904Y-71904761D01*
X162214285Y-71857142D01*
X141833333Y-72452380D02*
X141500000Y-71976190D01*
X141261904Y-72452380D02*
X141261904Y-71452380D01*
X141642857Y-71452380D01*
X141738095Y-71500000D01*
X141785714Y-71547619D01*
X141833333Y-71642857D01*
X141833333Y-71785714D01*
X141785714Y-71880952D01*
X141738095Y-71928571D01*
X141642857Y-71976190D01*
X141261904Y-71976190D01*
X142690476Y-71785714D02*
X142690476Y-72452380D01*
X142452380Y-71404761D02*
X142214285Y-72119047D01*
X142833333Y-72119047D01*
X157333333Y-72452380D02*
X157000000Y-71976190D01*
X156761904Y-72452380D02*
X156761904Y-71452380D01*
X157142857Y-71452380D01*
X157238095Y-71500000D01*
X157285714Y-71547619D01*
X157333333Y-71642857D01*
X157333333Y-71785714D01*
X157285714Y-71880952D01*
X157238095Y-71928571D01*
X157142857Y-71976190D01*
X156761904Y-71976190D01*
X157666666Y-71452380D02*
X158285714Y-71452380D01*
X157952380Y-71833333D01*
X158095238Y-71833333D01*
X158190476Y-71880952D01*
X158238095Y-71928571D01*
X158285714Y-72023809D01*
X158285714Y-72261904D01*
X158238095Y-72357142D01*
X158190476Y-72404761D01*
X158095238Y-72452380D01*
X157809523Y-72452380D01*
X157714285Y-72404761D01*
X157666666Y-72357142D01*
X148333333Y-72452380D02*
X148000000Y-71976190D01*
X147761904Y-72452380D02*
X147761904Y-71452380D01*
X148142857Y-71452380D01*
X148238095Y-71500000D01*
X148285714Y-71547619D01*
X148333333Y-71642857D01*
X148333333Y-71785714D01*
X148285714Y-71880952D01*
X148238095Y-71928571D01*
X148142857Y-71976190D01*
X147761904Y-71976190D01*
X148714285Y-71547619D02*
X148761904Y-71500000D01*
X148857142Y-71452380D01*
X149095238Y-71452380D01*
X149190476Y-71500000D01*
X149238095Y-71547619D01*
X149285714Y-71642857D01*
X149285714Y-71738095D01*
X149238095Y-71880952D01*
X148666666Y-72452380D01*
X149285714Y-72452380D01*
X152833333Y-72452380D02*
X152500000Y-71976190D01*
X152261904Y-72452380D02*
X152261904Y-71452380D01*
X152642857Y-71452380D01*
X152738095Y-71500000D01*
X152785714Y-71547619D01*
X152833333Y-71642857D01*
X152833333Y-71785714D01*
X152785714Y-71880952D01*
X152738095Y-71928571D01*
X152642857Y-71976190D01*
X152261904Y-71976190D01*
X153785714Y-72452380D02*
X153214285Y-72452380D01*
X153500000Y-72452380D02*
X153500000Y-71452380D01*
X153404761Y-71595238D01*
X153309523Y-71690476D01*
X153214285Y-71738095D01*
X151542761Y-51611619D02*
X151447523Y-51564000D01*
X151352285Y-51468761D01*
X151209428Y-51325904D01*
X151114190Y-51278285D01*
X151018952Y-51278285D01*
X151066571Y-51516380D02*
X150971333Y-51468761D01*
X150876095Y-51373523D01*
X150828476Y-51183047D01*
X150828476Y-50849714D01*
X150876095Y-50659238D01*
X150971333Y-50564000D01*
X151066571Y-50516380D01*
X151257047Y-50516380D01*
X151352285Y-50564000D01*
X151447523Y-50659238D01*
X151495142Y-50849714D01*
X151495142Y-51183047D01*
X151447523Y-51373523D01*
X151352285Y-51468761D01*
X151257047Y-51516380D01*
X151066571Y-51516380D01*
X151828476Y-50516380D02*
X152447523Y-50516380D01*
X152114190Y-50897333D01*
X152257047Y-50897333D01*
X152352285Y-50944952D01*
X152399904Y-50992571D01*
X152447523Y-51087809D01*
X152447523Y-51325904D01*
X152399904Y-51421142D01*
X152352285Y-51468761D01*
X152257047Y-51516380D01*
X151971333Y-51516380D01*
X151876095Y-51468761D01*
X151828476Y-51421142D01*
X144430761Y-51611619D02*
X144335523Y-51564000D01*
X144240285Y-51468761D01*
X144097428Y-51325904D01*
X144002190Y-51278285D01*
X143906952Y-51278285D01*
X143954571Y-51516380D02*
X143859333Y-51468761D01*
X143764095Y-51373523D01*
X143716476Y-51183047D01*
X143716476Y-50849714D01*
X143764095Y-50659238D01*
X143859333Y-50564000D01*
X143954571Y-50516380D01*
X144145047Y-50516380D01*
X144240285Y-50564000D01*
X144335523Y-50659238D01*
X144383142Y-50849714D01*
X144383142Y-51183047D01*
X144335523Y-51373523D01*
X144240285Y-51468761D01*
X144145047Y-51516380D01*
X143954571Y-51516380D01*
X144764095Y-50611619D02*
X144811714Y-50564000D01*
X144906952Y-50516380D01*
X145145047Y-50516380D01*
X145240285Y-50564000D01*
X145287904Y-50611619D01*
X145335523Y-50706857D01*
X145335523Y-50802095D01*
X145287904Y-50944952D01*
X144716476Y-51516380D01*
X145335523Y-51516380D01*
X169322761Y-90219619D02*
X169227523Y-90172000D01*
X169132285Y-90076761D01*
X168989428Y-89933904D01*
X168894190Y-89886285D01*
X168798952Y-89886285D01*
X168846571Y-90124380D02*
X168751333Y-90076761D01*
X168656095Y-89981523D01*
X168608476Y-89791047D01*
X168608476Y-89457714D01*
X168656095Y-89267238D01*
X168751333Y-89172000D01*
X168846571Y-89124380D01*
X169037047Y-89124380D01*
X169132285Y-89172000D01*
X169227523Y-89267238D01*
X169275142Y-89457714D01*
X169275142Y-89791047D01*
X169227523Y-89981523D01*
X169132285Y-90076761D01*
X169037047Y-90124380D01*
X168846571Y-90124380D01*
X170227523Y-90124380D02*
X169656095Y-90124380D01*
X169941809Y-90124380D02*
X169941809Y-89124380D01*
X169846571Y-89267238D01*
X169751333Y-89362476D01*
X169656095Y-89410095D01*
X127635142Y-51576380D02*
X127635142Y-50576380D01*
X128206571Y-51576380D01*
X128206571Y-50576380D01*
X128539904Y-50576380D02*
X129111333Y-50576380D01*
X128825619Y-51576380D02*
X128825619Y-50576380D01*
X129968476Y-51576380D02*
X129397047Y-51576380D01*
X129682761Y-51576380D02*
X129682761Y-50576380D01*
X129587523Y-50719238D01*
X129492285Y-50814476D01*
X129397047Y-50862095D01*
X168833333Y-85452380D02*
X168357142Y-85452380D01*
X168357142Y-84452380D01*
X169690476Y-85452380D02*
X169119047Y-85452380D01*
X169404761Y-85452380D02*
X169404761Y-84452380D01*
X169309523Y-84595238D01*
X169214285Y-84690476D01*
X169119047Y-84738095D01*
X179936666Y-104346290D02*
X179936666Y-105060576D01*
X179889047Y-105203433D01*
X179793809Y-105298671D01*
X179650952Y-105346290D01*
X179555714Y-105346290D01*
X180841428Y-104679624D02*
X180841428Y-105346290D01*
X180603333Y-104298671D02*
X180365238Y-105012957D01*
X180984285Y-105012957D01*
D13*
X180006666Y-122126290D02*
X180006666Y-122840576D01*
X179959047Y-122983433D01*
X179863809Y-123078671D01*
X179720952Y-123126290D01*
X179625714Y-123126290D01*
X180387619Y-122126290D02*
X181006666Y-122126290D01*
X180673333Y-122507243D01*
X180816190Y-122507243D01*
X180911428Y-122554862D01*
X180959047Y-122602481D01*
X181006666Y-122697719D01*
X181006666Y-122935814D01*
X180959047Y-123031052D01*
X180911428Y-123078671D01*
X180816190Y-123126290D01*
X180530476Y-123126290D01*
X180435238Y-123078671D01*
X180387619Y-123031052D01*
D10*
X106346666Y-118316290D02*
X106346666Y-119030576D01*
X106299047Y-119173433D01*
X106203809Y-119268671D01*
X106060952Y-119316290D01*
X105965714Y-119316290D01*
X106775238Y-118411529D02*
X106822857Y-118363910D01*
X106918095Y-118316290D01*
X107156190Y-118316290D01*
X107251428Y-118363910D01*
X107299047Y-118411529D01*
X107346666Y-118506767D01*
X107346666Y-118602005D01*
X107299047Y-118744862D01*
X106727619Y-119316290D01*
X107346666Y-119316290D01*
X106346666Y-104227380D02*
X106346666Y-104941666D01*
X106299047Y-105084523D01*
X106203809Y-105179761D01*
X106060952Y-105227380D01*
X105965714Y-105227380D01*
X107346666Y-105227380D02*
X106775238Y-105227380D01*
X107060952Y-105227380D02*
X107060952Y-104227380D01*
X106965714Y-104370238D01*
X106870476Y-104465476D01*
X106775238Y-104513095D01*
X143025904Y-141564571D02*
X142692571Y-141564571D01*
X142692571Y-142088380D02*
X142692571Y-141088380D01*
X143168761Y-141088380D01*
X144025904Y-142088380D02*
X143549714Y-142088380D01*
X143549714Y-141088380D01*
X144883047Y-142088380D02*
X144311619Y-142088380D01*
X144597333Y-142088380D02*
X144597333Y-141088380D01*
X144502095Y-141231238D01*
X144406857Y-141326476D01*
X144311619Y-141374095D01*
X138430666Y-139588380D02*
X139049714Y-139588380D01*
X138716380Y-139969333D01*
X138859238Y-139969333D01*
X138954476Y-140016952D01*
X139002095Y-140064571D01*
X139049714Y-140159809D01*
X139049714Y-140397904D01*
X139002095Y-140493142D01*
X138954476Y-140540761D01*
X138859238Y-140588380D01*
X138573523Y-140588380D01*
X138478285Y-140540761D01*
X138430666Y-140493142D01*
X148954476Y-139921714D02*
X148954476Y-140588380D01*
X148716380Y-139540761D02*
X148478285Y-140255047D01*
X149097333Y-140255047D01*
X138478285Y-130183619D02*
X138525904Y-130136000D01*
X138621142Y-130088380D01*
X138859238Y-130088380D01*
X138954476Y-130136000D01*
X139002095Y-130183619D01*
X139049714Y-130278857D01*
X139049714Y-130374095D01*
X139002095Y-130516952D01*
X138430666Y-131088380D01*
X139049714Y-131088380D01*
X149049714Y-131088380D02*
X148478285Y-131088380D01*
X148764000Y-131088380D02*
X148764000Y-130088380D01*
X148668761Y-130231238D01*
X148573523Y-130326476D01*
X148478285Y-130374095D01*
D14*
X143227952Y-116500190D02*
X143227952Y-116000190D01*
X143347000Y-116000190D01*
X143418428Y-116024000D01*
X143466047Y-116071619D01*
X143489857Y-116119238D01*
X143513666Y-116214476D01*
X143513666Y-116285904D01*
X143489857Y-116381142D01*
X143466047Y-116428761D01*
X143418428Y-116476380D01*
X143347000Y-116500190D01*
X143227952Y-116500190D01*
X143942238Y-116000190D02*
X143847000Y-116000190D01*
X143799380Y-116024000D01*
X143775571Y-116047809D01*
X143727952Y-116119238D01*
X143704142Y-116214476D01*
X143704142Y-116404952D01*
X143727952Y-116452571D01*
X143751761Y-116476380D01*
X143799380Y-116500190D01*
X143894619Y-116500190D01*
X143942238Y-116476380D01*
X143966047Y-116452571D01*
X143989857Y-116404952D01*
X143989857Y-116285904D01*
X143966047Y-116238285D01*
X143942238Y-116214476D01*
X143894619Y-116190666D01*
X143799380Y-116190666D01*
X143751761Y-116214476D01*
X143727952Y-116238285D01*
X143704142Y-116285904D01*
X142871047Y-114526190D02*
X142871047Y-114026190D01*
X142990095Y-114026190D01*
X143061523Y-114050000D01*
X143109142Y-114097619D01*
X143132952Y-114145238D01*
X143156761Y-114240476D01*
X143156761Y-114311904D01*
X143132952Y-114407142D01*
X143109142Y-114454761D01*
X143061523Y-114502380D01*
X142990095Y-114526190D01*
X142871047Y-114526190D01*
X143227952Y-112255190D02*
X143227952Y-111755190D01*
X143347000Y-111755190D01*
X143418428Y-111779000D01*
X143466047Y-111826619D01*
X143489857Y-111874238D01*
X143513666Y-111969476D01*
X143513666Y-112040904D01*
X143489857Y-112136142D01*
X143466047Y-112183761D01*
X143418428Y-112231380D01*
X143347000Y-112255190D01*
X143227952Y-112255190D01*
X143966047Y-111755190D02*
X143727952Y-111755190D01*
X143704142Y-111993285D01*
X143727952Y-111969476D01*
X143775571Y-111945666D01*
X143894619Y-111945666D01*
X143942238Y-111969476D01*
X143966047Y-111993285D01*
X143989857Y-112040904D01*
X143989857Y-112159952D01*
X143966047Y-112207571D01*
X143942238Y-112231380D01*
X143894619Y-112255190D01*
X143775571Y-112255190D01*
X143727952Y-112231380D01*
X143704142Y-112207571D01*
X143466047Y-114526190D02*
X143466047Y-114026190D01*
X143585095Y-114026190D01*
X143656523Y-114050000D01*
X143704142Y-114097619D01*
X143727952Y-114145238D01*
X143751761Y-114240476D01*
X143751761Y-114311904D01*
X143727952Y-114407142D01*
X143704142Y-114454761D01*
X143656523Y-114502380D01*
X143585095Y-114526190D01*
X143466047Y-114526190D01*
X140444951Y-116558190D02*
X140444951Y-116058190D01*
X140563999Y-116058190D01*
X140635427Y-116082000D01*
X140683046Y-116129619D01*
X140706856Y-116177238D01*
X140730665Y-116272476D01*
X140730665Y-116343904D01*
X140706856Y-116439142D01*
X140683046Y-116486761D01*
X140635427Y-116534380D01*
X140563999Y-116558190D01*
X140444951Y-116558190D01*
X141159237Y-116224857D02*
X141159237Y-116558190D01*
X141040189Y-116034380D02*
X140921141Y-116391523D01*
X141230665Y-116391523D01*
X140683046Y-114526190D02*
X140683046Y-114026190D01*
X140802094Y-114026190D01*
X140873522Y-114050000D01*
X140921141Y-114097619D01*
X140944951Y-114145238D01*
X140968760Y-114240476D01*
X140968760Y-114311904D01*
X140944951Y-114407142D01*
X140921141Y-114454761D01*
X140873522Y-114502380D01*
X140802094Y-114526190D01*
X140683046Y-114526190D01*
X140444951Y-112255190D02*
X140444951Y-111755190D01*
X140563999Y-111755190D01*
X140635427Y-111779000D01*
X140683046Y-111826619D01*
X140706856Y-111874238D01*
X140730665Y-111969476D01*
X140730665Y-112040904D01*
X140706856Y-112136142D01*
X140683046Y-112183761D01*
X140635427Y-112231380D01*
X140563999Y-112255190D01*
X140444951Y-112255190D01*
X140897332Y-111755190D02*
X141206856Y-111755190D01*
X141040189Y-111945666D01*
X141111618Y-111945666D01*
X141159237Y-111969476D01*
X141183046Y-111993285D01*
X141206856Y-112040904D01*
X141206856Y-112159952D01*
X141183046Y-112207571D01*
X141159237Y-112231380D01*
X141111618Y-112255190D01*
X140968760Y-112255190D01*
X140921141Y-112231380D01*
X140897332Y-112207571D01*
X141347047Y-114526190D02*
X141347047Y-114026190D01*
X141466095Y-114026190D01*
X141537523Y-114050000D01*
X141585142Y-114097619D01*
X141608952Y-114145238D01*
X141632761Y-114240476D01*
X141632761Y-114311904D01*
X141608952Y-114407142D01*
X141585142Y-114454761D01*
X141537523Y-114502380D01*
X141466095Y-114526190D01*
X141347047Y-114526190D01*
D10*
X147261904Y-61952380D02*
X147261904Y-60952380D01*
X147500000Y-60952380D01*
X147642857Y-61000000D01*
X147738095Y-61095238D01*
X147785714Y-61190476D01*
X147833333Y-61380952D01*
X147833333Y-61523809D01*
X147785714Y-61714285D01*
X147738095Y-61809523D01*
X147642857Y-61904761D01*
X147500000Y-61952380D01*
X147261904Y-61952380D01*
X148214285Y-61047619D02*
X148261904Y-61000000D01*
X148357142Y-60952380D01*
X148595238Y-60952380D01*
X148690476Y-61000000D01*
X148738095Y-61047619D01*
X148785714Y-61142857D01*
X148785714Y-61238095D01*
X148738095Y-61380952D01*
X148166666Y-61952380D01*
X148785714Y-61952380D01*
X155261904Y-61952380D02*
X155261904Y-60952380D01*
X155500000Y-60952380D01*
X155642857Y-61000000D01*
X155738095Y-61095238D01*
X155785714Y-61190476D01*
X155833333Y-61380952D01*
X155833333Y-61523809D01*
X155785714Y-61714285D01*
X155738095Y-61809523D01*
X155642857Y-61904761D01*
X155500000Y-61952380D01*
X155261904Y-61952380D01*
X156785714Y-61952380D02*
X156214285Y-61952380D01*
X156500000Y-61952380D02*
X156500000Y-60952380D01*
X156404761Y-61095238D01*
X156309523Y-61190476D01*
X156214285Y-61238095D01*
X114357142Y-78357142D02*
X114309523Y-78404761D01*
X114166666Y-78452380D01*
X114071428Y-78452380D01*
X113928571Y-78404761D01*
X113833333Y-78309523D01*
X113785714Y-78214285D01*
X113738095Y-78023809D01*
X113738095Y-77880952D01*
X113785714Y-77690476D01*
X113833333Y-77595238D01*
X113928571Y-77500000D01*
X114071428Y-77452380D01*
X114166666Y-77452380D01*
X114309523Y-77500000D01*
X114357142Y-77547619D01*
X115309523Y-78452380D02*
X114738095Y-78452380D01*
X115023809Y-78452380D02*
X115023809Y-77452380D01*
X114928571Y-77595238D01*
X114833333Y-77690476D01*
X114738095Y-77738095D01*
X115690476Y-77547619D02*
X115738095Y-77500000D01*
X115833333Y-77452380D01*
X116071428Y-77452380D01*
X116166666Y-77500000D01*
X116214285Y-77547619D01*
X116261904Y-77642857D01*
X116261904Y-77738095D01*
X116214285Y-77880952D01*
X115642857Y-78452380D01*
X116261904Y-78452380D01*
X130107142Y-78357142D02*
X130059523Y-78404761D01*
X129916666Y-78452380D01*
X129821428Y-78452380D01*
X129678571Y-78404761D01*
X129583333Y-78309523D01*
X129535714Y-78214285D01*
X129488095Y-78023809D01*
X129488095Y-77880952D01*
X129535714Y-77690476D01*
X129583333Y-77595238D01*
X129678571Y-77500000D01*
X129821428Y-77452380D01*
X129916666Y-77452380D01*
X130059523Y-77500000D01*
X130107142Y-77547619D01*
X131059523Y-78452380D02*
X130488095Y-78452380D01*
X130773809Y-78452380D02*
X130773809Y-77452380D01*
X130678571Y-77595238D01*
X130583333Y-77690476D01*
X130488095Y-77738095D01*
X132011904Y-78452380D02*
X131440476Y-78452380D01*
X131726190Y-78452380D02*
X131726190Y-77452380D01*
X131630952Y-77595238D01*
X131535714Y-77690476D01*
X131440476Y-77738095D01*
X137857142Y-78357142D02*
X137809523Y-78404761D01*
X137666666Y-78452380D01*
X137571428Y-78452380D01*
X137428571Y-78404761D01*
X137333333Y-78309523D01*
X137285714Y-78214285D01*
X137238095Y-78023809D01*
X137238095Y-77880952D01*
X137285714Y-77690476D01*
X137333333Y-77595238D01*
X137428571Y-77500000D01*
X137571428Y-77452380D01*
X137666666Y-77452380D01*
X137809523Y-77500000D01*
X137857142Y-77547619D01*
X138809523Y-78452380D02*
X138238095Y-78452380D01*
X138523809Y-78452380D02*
X138523809Y-77452380D01*
X138428571Y-77595238D01*
X138333333Y-77690476D01*
X138238095Y-77738095D01*
X139428571Y-77452380D02*
X139523809Y-77452380D01*
X139619047Y-77500000D01*
X139666666Y-77547619D01*
X139714285Y-77642857D01*
X139761904Y-77833333D01*
X139761904Y-78071428D01*
X139714285Y-78261904D01*
X139666666Y-78357142D01*
X139619047Y-78404761D01*
X139523809Y-78452380D01*
X139428571Y-78452380D01*
X139333333Y-78404761D01*
X139285714Y-78357142D01*
X139238095Y-78261904D01*
X139190476Y-78071428D01*
X139190476Y-77833333D01*
X139238095Y-77642857D01*
X139285714Y-77547619D01*
X139333333Y-77500000D01*
X139428571Y-77452380D01*
X122333333Y-78357142D02*
X122285714Y-78404761D01*
X122142857Y-78452380D01*
X122047619Y-78452380D01*
X121904761Y-78404761D01*
X121809523Y-78309523D01*
X121761904Y-78214285D01*
X121714285Y-78023809D01*
X121714285Y-77880952D01*
X121761904Y-77690476D01*
X121809523Y-77595238D01*
X121904761Y-77500000D01*
X122047619Y-77452380D01*
X122142857Y-77452380D01*
X122285714Y-77500000D01*
X122333333Y-77547619D01*
X122809523Y-78452380D02*
X123000000Y-78452380D01*
X123095238Y-78404761D01*
X123142857Y-78357142D01*
X123238095Y-78214285D01*
X123285714Y-78023809D01*
X123285714Y-77642857D01*
X123238095Y-77547619D01*
X123190476Y-77500000D01*
X123095238Y-77452380D01*
X122904761Y-77452380D01*
X122809523Y-77500000D01*
X122761904Y-77547619D01*
X122714285Y-77642857D01*
X122714285Y-77880952D01*
X122761904Y-77976190D01*
X122809523Y-78023809D01*
X122904761Y-78071428D01*
X123095238Y-78071428D01*
X123190476Y-78023809D01*
X123238095Y-77976190D01*
X123285714Y-77880952D01*
X177125333Y-105005142D02*
X177077714Y-105052761D01*
X176934857Y-105100380D01*
X176839619Y-105100380D01*
X176696761Y-105052761D01*
X176601523Y-104957523D01*
X176553904Y-104862285D01*
X176506285Y-104671809D01*
X176506285Y-104528952D01*
X176553904Y-104338476D01*
X176601523Y-104243238D01*
X176696761Y-104148000D01*
X176839619Y-104100380D01*
X176934857Y-104100380D01*
X177077714Y-104148000D01*
X177125333Y-104195619D01*
X177696761Y-104528952D02*
X177601523Y-104481333D01*
X177553904Y-104433714D01*
X177506285Y-104338476D01*
X177506285Y-104290857D01*
X177553904Y-104195619D01*
X177601523Y-104148000D01*
X177696761Y-104100380D01*
X177887238Y-104100380D01*
X177982476Y-104148000D01*
X178030095Y-104195619D01*
X178077714Y-104290857D01*
X178077714Y-104338476D01*
X178030095Y-104433714D01*
X177982476Y-104481333D01*
X177887238Y-104528952D01*
X177696761Y-104528952D01*
X177601523Y-104576571D01*
X177553904Y-104624190D01*
X177506285Y-104719428D01*
X177506285Y-104909904D01*
X177553904Y-105005142D01*
X177601523Y-105052761D01*
X177696761Y-105100380D01*
X177887238Y-105100380D01*
X177982476Y-105052761D01*
X178030095Y-105005142D01*
X178077714Y-104909904D01*
X178077714Y-104719428D01*
X178030095Y-104624190D01*
X177982476Y-104576571D01*
X177887238Y-104528952D01*
X161833333Y-97857142D02*
X161785714Y-97904761D01*
X161642857Y-97952380D01*
X161547619Y-97952380D01*
X161404761Y-97904761D01*
X161309523Y-97809523D01*
X161261904Y-97714285D01*
X161214285Y-97523809D01*
X161214285Y-97380952D01*
X161261904Y-97190476D01*
X161309523Y-97095238D01*
X161404761Y-97000000D01*
X161547619Y-96952380D01*
X161642857Y-96952380D01*
X161785714Y-97000000D01*
X161833333Y-97047619D01*
X162166666Y-96952380D02*
X162833333Y-96952380D01*
X162404761Y-97952380D01*
X158583333Y-53697142D02*
X158535714Y-53744761D01*
X158392857Y-53792380D01*
X158297619Y-53792380D01*
X158154761Y-53744761D01*
X158059523Y-53649523D01*
X158011904Y-53554285D01*
X157964285Y-53363809D01*
X157964285Y-53220952D01*
X158011904Y-53030476D01*
X158059523Y-52935238D01*
X158154761Y-52840000D01*
X158297619Y-52792380D01*
X158392857Y-52792380D01*
X158535714Y-52840000D01*
X158583333Y-52887619D01*
X159440476Y-52792380D02*
X159250000Y-52792380D01*
X159154761Y-52840000D01*
X159107142Y-52887619D01*
X159011904Y-53030476D01*
X158964285Y-53220952D01*
X158964285Y-53601904D01*
X159011904Y-53697142D01*
X159059523Y-53744761D01*
X159154761Y-53792380D01*
X159345238Y-53792380D01*
X159440476Y-53744761D01*
X159488095Y-53697142D01*
X159535714Y-53601904D01*
X159535714Y-53363809D01*
X159488095Y-53268571D01*
X159440476Y-53220952D01*
X159345238Y-53173333D01*
X159154761Y-53173333D01*
X159059523Y-53220952D01*
X159011904Y-53268571D01*
X158964285Y-53363809D01*
X143333333Y-97857142D02*
X143285714Y-97904761D01*
X143142857Y-97952380D01*
X143047619Y-97952380D01*
X142904761Y-97904761D01*
X142809523Y-97809523D01*
X142761904Y-97714285D01*
X142714285Y-97523809D01*
X142714285Y-97380952D01*
X142761904Y-97190476D01*
X142809523Y-97095238D01*
X142904761Y-97000000D01*
X143047619Y-96952380D01*
X143142857Y-96952380D01*
X143285714Y-97000000D01*
X143333333Y-97047619D01*
X144238095Y-96952380D02*
X143761904Y-96952380D01*
X143714285Y-97428571D01*
X143761904Y-97380952D01*
X143857142Y-97333333D01*
X144095238Y-97333333D01*
X144190476Y-97380952D01*
X144238095Y-97428571D01*
X144285714Y-97523809D01*
X144285714Y-97761904D01*
X144238095Y-97857142D01*
X144190476Y-97904761D01*
X144095238Y-97952380D01*
X143857142Y-97952380D01*
X143761904Y-97904761D01*
X143714285Y-97857142D01*
X157333333Y-97857142D02*
X157285714Y-97904761D01*
X157142857Y-97952380D01*
X157047619Y-97952380D01*
X156904761Y-97904761D01*
X156809523Y-97809523D01*
X156761904Y-97714285D01*
X156714285Y-97523809D01*
X156714285Y-97380952D01*
X156761904Y-97190476D01*
X156809523Y-97095238D01*
X156904761Y-97000000D01*
X157047619Y-96952380D01*
X157142857Y-96952380D01*
X157285714Y-97000000D01*
X157333333Y-97047619D01*
X158190476Y-97285714D02*
X158190476Y-97952380D01*
X157952380Y-96904761D02*
X157714285Y-97619047D01*
X158333333Y-97619047D01*
X147833333Y-97857142D02*
X147785714Y-97904761D01*
X147642857Y-97952380D01*
X147547619Y-97952380D01*
X147404761Y-97904761D01*
X147309523Y-97809523D01*
X147261904Y-97714285D01*
X147214285Y-97523809D01*
X147214285Y-97380952D01*
X147261904Y-97190476D01*
X147309523Y-97095238D01*
X147404761Y-97000000D01*
X147547619Y-96952380D01*
X147642857Y-96952380D01*
X147785714Y-97000000D01*
X147833333Y-97047619D01*
X148166666Y-96952380D02*
X148785714Y-96952380D01*
X148452380Y-97333333D01*
X148595238Y-97333333D01*
X148690476Y-97380952D01*
X148738095Y-97428571D01*
X148785714Y-97523809D01*
X148785714Y-97761904D01*
X148738095Y-97857142D01*
X148690476Y-97904761D01*
X148595238Y-97952380D01*
X148309523Y-97952380D01*
X148214285Y-97904761D01*
X148166666Y-97857142D01*
X152333333Y-97857142D02*
X152285714Y-97904761D01*
X152142857Y-97952380D01*
X152047619Y-97952380D01*
X151904761Y-97904761D01*
X151809523Y-97809523D01*
X151761904Y-97714285D01*
X151714285Y-97523809D01*
X151714285Y-97380952D01*
X151761904Y-97190476D01*
X151809523Y-97095238D01*
X151904761Y-97000000D01*
X152047619Y-96952380D01*
X152142857Y-96952380D01*
X152285714Y-97000000D01*
X152333333Y-97047619D01*
X152714285Y-97047619D02*
X152761904Y-97000000D01*
X152857142Y-96952380D01*
X153095238Y-96952380D01*
X153190476Y-97000000D01*
X153238095Y-97047619D01*
X153285714Y-97142857D01*
X153285714Y-97238095D01*
X153238095Y-97380952D01*
X152666666Y-97952380D01*
X153285714Y-97952380D01*
X184745333Y-105005142D02*
X184697714Y-105052761D01*
X184554857Y-105100380D01*
X184459619Y-105100380D01*
X184316761Y-105052761D01*
X184221523Y-104957523D01*
X184173904Y-104862285D01*
X184126285Y-104671809D01*
X184126285Y-104528952D01*
X184173904Y-104338476D01*
X184221523Y-104243238D01*
X184316761Y-104148000D01*
X184459619Y-104100380D01*
X184554857Y-104100380D01*
X184697714Y-104148000D01*
X184745333Y-104195619D01*
X185697714Y-105100380D02*
X185126285Y-105100380D01*
X185412000Y-105100380D02*
X185412000Y-104100380D01*
X185316761Y-104243238D01*
X185221523Y-104338476D01*
X185126285Y-104386095D01*
M02*
