M48
; DRILL file {KiCad (5.1.5)-3} date 7/1/2021 5:41:45 PM
; FORMAT={-:-/ absolute / inch / decimal}
; #@! TF.CreationDate,2021-07-01T17:41:45-04:00
; #@! TF.GenerationSoftware,Kicad,Pcbnew,(5.1.5)-3
FMAT,2
INCH
T1C0.0200
T2C0.0295
T3C0.0300
T4C0.0315
T5C0.0394
T6C0.0433
T7C0.0472
T8C0.0630
%
G90
G05
T1
X4.33Y-3.6
X5.31Y-4.31
X5.63Y-4.62
X5.64Y-2.39
X5.66Y-2.8
X5.99Y-2.32
X6.01Y-4.01
X6.17Y-2.36
X6.26Y-2.45
T2
X5.92Y-2.16
X5.97Y-2.11
X6.02Y-2.16
X6.62Y-3.68
X6.67Y-3.63
X6.72Y-3.68
X5.64Y-2.16
X5.69Y-2.11
X5.74Y-2.16
T3
X4.68Y-3.0
X4.99Y-2.06
X5.15Y-2.06
X5.3Y-3.0
X7.0079Y-3.189
X7.13Y-4.06
T4
X5.15Y-2.38
X5.15Y-2.48
X5.15Y-2.58
X5.15Y-2.68
X5.45Y-2.38
X5.45Y-2.48
X5.45Y-2.58
X5.45Y-2.68
X5.84Y-3.6616
X5.84Y-3.76
X6.38Y-3.6616
X6.38Y-3.76
X5.66Y-3.6616
X5.66Y-3.76
X6.98Y-3.5
X6.98Y-3.6
X6.98Y-3.7
X6.98Y-3.8
X7.28Y-3.5
X7.28Y-3.6
X7.28Y-3.7
X7.28Y-3.8
X6.02Y-3.66
X6.02Y-3.7584
X6.2Y-3.6616
X6.2Y-3.76
X4.525Y-2.375
X4.525Y-2.475
X4.525Y-2.575
X4.525Y-2.675
X4.825Y-2.375
X4.825Y-2.475
X4.825Y-2.575
X4.825Y-2.675
X6.24Y-2.18
X6.24Y-2.2784
T5
X3.675Y-2.1
X3.675Y-2.2
X7.375Y-2.1
X7.375Y-2.2
X4.985Y-2.98
X4.985Y-3.08
X4.985Y-3.18
X6.76Y-2.06
X6.76Y-3.26
T6
X4.025Y-5.625
X7.1Y-4.4
X4.2Y-4.95
X7.1Y-5.1
X7.2835Y-2.9921
X7.2835Y-3.0921
X7.2835Y-3.1921
X5.15Y-5.625
X4.2Y-4.4
T7
X5.66Y-2.58
X6.26Y-2.58
X5.84Y-2.92
X5.84Y-3.52
X6.02Y-2.92
X6.02Y-3.52
X6.2Y-2.92
X6.2Y-3.52
X6.38Y-2.92
X6.38Y-3.52
X5.66Y-2.92
X5.66Y-3.52
X6.5Y-2.06
X6.5Y-2.66
X7.126Y-2.274
X7.126Y-2.874
X3.7Y-2.575
X4.3Y-2.575
X3.7Y-2.75
X4.3Y-2.75
T8
X5.0268Y-5.5018
X5.0268Y-5.7482
X5.2732Y-5.5018
X5.2732Y-5.7482
X4.0768Y-4.2768
X4.0768Y-4.5232
X4.3232Y-4.2768
X4.3232Y-4.5232
X3.9018Y-5.5018
X3.9018Y-5.7482
X4.1482Y-5.5018
X4.1482Y-5.7482
X6.9768Y-4.2768
X6.9768Y-4.5232
X7.2232Y-4.2768
X7.2232Y-4.5232
X4.0768Y-4.8268
X4.0768Y-5.0732
X4.3232Y-4.8268
X4.3232Y-5.0732
X6.9768Y-4.9768
X6.9768Y-5.2232
X7.2232Y-4.9768
X7.2232Y-5.2232
T0
M30
