G04 #@! TF.GenerationSoftware,KiCad,Pcbnew,(5.1.5)-3*
G04 #@! TF.CreationDate,2020-05-07T21:48:57-04:00*
G04 #@! TF.ProjectId,MOSFET Dummyload,4d4f5346-4554-4204-9475-6d6d796c6f61,rev?*
G04 #@! TF.SameCoordinates,Original*
G04 #@! TF.FileFunction,Legend,Top*
G04 #@! TF.FilePolarity,Positive*
%FSLAX46Y46*%
G04 Gerber Fmt 4.6, Leading zero omitted, Abs format (unit mm)*
G04 Created by KiCad (PCBNEW (5.1.5)-3) date 2020-05-07 21:48:57*
%MOMM*%
%LPD*%
G04 APERTURE LIST*
%ADD10C,0.120000*%
%ADD11C,2.000000*%
%ADD12C,0.150000*%
G04 APERTURE END LIST*
D10*
X91270000Y-89630000D02*
X92600000Y-89630000D01*
X91270000Y-90960000D02*
X91270000Y-89630000D01*
X91270000Y-92230000D02*
X93930000Y-92230000D01*
X93930000Y-92230000D02*
X93930000Y-102450000D01*
X91270000Y-92230000D02*
X91270000Y-102450000D01*
X91270000Y-102450000D02*
X93930000Y-102450000D01*
X128991000Y-94430000D02*
X128991000Y-95940000D01*
X125290000Y-94430000D02*
X125290000Y-95940000D01*
X122020000Y-95940000D02*
X132260000Y-95940000D01*
X132260000Y-94430000D02*
X132260000Y-99071000D01*
X122020000Y-94430000D02*
X122020000Y-99071000D01*
X122020000Y-99071000D02*
X132260000Y-99071000D01*
X122020000Y-94430000D02*
X132260000Y-94430000D01*
X129670000Y-107830000D02*
X129670000Y-106500000D01*
X131000000Y-107830000D02*
X129670000Y-107830000D01*
X132270000Y-107830000D02*
X132270000Y-105170000D01*
X132270000Y-105170000D02*
X142490000Y-105170000D01*
X132270000Y-107830000D02*
X142490000Y-107830000D01*
X142490000Y-107830000D02*
X142490000Y-105170000D01*
X125930000Y-114100000D02*
X125930000Y-115430000D01*
X125930000Y-115430000D02*
X124600000Y-115430000D01*
X123330000Y-115430000D02*
X120730000Y-115430000D01*
X120730000Y-112770000D02*
X120730000Y-115430000D01*
X123330000Y-112770000D02*
X120730000Y-112770000D01*
X123330000Y-112770000D02*
X123330000Y-115430000D01*
D11*
X145700000Y-93500000D02*
X109700000Y-93500000D01*
D10*
X122700000Y-81000000D02*
X122700000Y-93500000D01*
X108200000Y-81000000D02*
X122700000Y-81000000D01*
X132200000Y-81000000D02*
X132200000Y-93500000D01*
X157700000Y-81000000D02*
X132200000Y-81000000D01*
X109700000Y-106000000D02*
X109700000Y-93500000D01*
X97700000Y-81000000D02*
X97700000Y-106000000D01*
X108200000Y-81000000D02*
X97700000Y-81000000D01*
X97700000Y-106000000D02*
X109700000Y-106000000D01*
X145700000Y-106000000D02*
X157700000Y-106000000D01*
X145700000Y-93500000D02*
X145700000Y-106000000D01*
X157700000Y-106000000D02*
X157700000Y-81000000D01*
D12*
X94966666Y-90412380D02*
X94966666Y-91126666D01*
X94919047Y-91269523D01*
X94823809Y-91364761D01*
X94680952Y-91412380D01*
X94585714Y-91412380D01*
X95347619Y-90412380D02*
X95966666Y-90412380D01*
X95633333Y-90793333D01*
X95776190Y-90793333D01*
X95871428Y-90840952D01*
X95919047Y-90888571D01*
X95966666Y-90983809D01*
X95966666Y-91221904D01*
X95919047Y-91317142D01*
X95871428Y-91364761D01*
X95776190Y-91412380D01*
X95490476Y-91412380D01*
X95395238Y-91364761D01*
X95347619Y-91317142D01*
X127104761Y-100547619D02*
X127009523Y-100500000D01*
X126914285Y-100404761D01*
X126771428Y-100261904D01*
X126676190Y-100214285D01*
X126580952Y-100214285D01*
X126628571Y-100452380D02*
X126533333Y-100404761D01*
X126438095Y-100309523D01*
X126390476Y-100119047D01*
X126390476Y-99785714D01*
X126438095Y-99595238D01*
X126533333Y-99500000D01*
X126628571Y-99452380D01*
X126819047Y-99452380D01*
X126914285Y-99500000D01*
X127009523Y-99595238D01*
X127057142Y-99785714D01*
X127057142Y-100119047D01*
X127009523Y-100309523D01*
X126914285Y-100404761D01*
X126819047Y-100452380D01*
X126628571Y-100452380D01*
X128009523Y-100452380D02*
X127438095Y-100452380D01*
X127723809Y-100452380D02*
X127723809Y-99452380D01*
X127628571Y-99595238D01*
X127533333Y-99690476D01*
X127438095Y-99738095D01*
X127866666Y-105952380D02*
X127866666Y-106666666D01*
X127819047Y-106809523D01*
X127723809Y-106904761D01*
X127580952Y-106952380D01*
X127485714Y-106952380D01*
X128295238Y-106047619D02*
X128342857Y-106000000D01*
X128438095Y-105952380D01*
X128676190Y-105952380D01*
X128771428Y-106000000D01*
X128819047Y-106047619D01*
X128866666Y-106142857D01*
X128866666Y-106238095D01*
X128819047Y-106380952D01*
X128247619Y-106952380D01*
X128866666Y-106952380D01*
X127036666Y-113552380D02*
X127036666Y-114266666D01*
X126989047Y-114409523D01*
X126893809Y-114504761D01*
X126750952Y-114552380D01*
X126655714Y-114552380D01*
X128036666Y-114552380D02*
X127465238Y-114552380D01*
X127750952Y-114552380D02*
X127750952Y-113552380D01*
X127655714Y-113695238D01*
X127560476Y-113790476D01*
X127465238Y-113838095D01*
M02*
