G04 #@! TF.GenerationSoftware,KiCad,Pcbnew,(5.1.5)-3*
G04 #@! TF.CreationDate,2020-05-07T21:48:57-04:00*
G04 #@! TF.ProjectId,MOSFET Dummyload,4d4f5346-4554-4204-9475-6d6d796c6f61,rev?*
G04 #@! TF.SameCoordinates,Original*
G04 #@! TF.FileFunction,Copper,L2,Bot*
G04 #@! TF.FilePolarity,Positive*
%FSLAX46Y46*%
G04 Gerber Fmt 4.6, Leading zero omitted, Abs format (unit mm)*
G04 Created by KiCad (PCBNEW (5.1.5)-3) date 2020-05-07 21:48:57*
%MOMM*%
%LPD*%
G04 APERTURE LIST*
%ADD10C,0.800000*%
%ADD11C,5.000000*%
%ADD12C,4.500000*%
%ADD13O,1.700000X1.700000*%
%ADD14R,1.700000X1.700000*%
%ADD15O,1.905000X2.000000*%
%ADD16R,1.905000X2.000000*%
%ADD17C,3.000000*%
%ADD18C,0.500000*%
G04 APERTURE END LIST*
D10*
X147225825Y-76174175D03*
X145900000Y-75625000D03*
X144574175Y-76174175D03*
X144025000Y-77500000D03*
X144574175Y-78825825D03*
X145900000Y-79375000D03*
X147225825Y-78825825D03*
X147775000Y-77500000D03*
D11*
X145900000Y-77500000D03*
D10*
X153725825Y-108674175D03*
X152400000Y-108125000D03*
X151074175Y-108674175D03*
X150525000Y-110000000D03*
X151074175Y-111325825D03*
X152400000Y-111875000D03*
X153725825Y-111325825D03*
X154275000Y-110000000D03*
D11*
X152400000Y-110000000D03*
D10*
X101325825Y-108674175D03*
X100000000Y-108125000D03*
X98674175Y-108674175D03*
X98125000Y-110000000D03*
X98674175Y-111325825D03*
X100000000Y-111875000D03*
X101325825Y-111325825D03*
X101875000Y-110000000D03*
D11*
X100000000Y-110000000D03*
D10*
X147225825Y-108674175D03*
X145900000Y-108125000D03*
X144574175Y-108674175D03*
X144025000Y-110000000D03*
X144574175Y-111325825D03*
X145900000Y-111875000D03*
X147225825Y-111325825D03*
X147775000Y-110000000D03*
D11*
X145900000Y-110000000D03*
D10*
X105174175Y-108674175D03*
X104625000Y-110000000D03*
X105174175Y-111325825D03*
X106500000Y-111875000D03*
X107825825Y-111325825D03*
X108375000Y-110000000D03*
X107825825Y-108674175D03*
X106500000Y-108125000D03*
D11*
X106500000Y-110000000D03*
D10*
X153725825Y-76174175D03*
X152400000Y-75625000D03*
X151074175Y-76174175D03*
X150525000Y-77500000D03*
X151074175Y-78825825D03*
X152400000Y-79375000D03*
X153725825Y-78825825D03*
X154275000Y-77500000D03*
D11*
X152400000Y-77500000D03*
D10*
X101325825Y-76274175D03*
X100000000Y-75725000D03*
X98674175Y-76274175D03*
X98125000Y-77600000D03*
X98674175Y-78925825D03*
X100000000Y-79475000D03*
X101325825Y-78925825D03*
X101875000Y-77600000D03*
D11*
X100000000Y-77600000D03*
D10*
X107825825Y-76274175D03*
X106500000Y-75725000D03*
X105174175Y-76274175D03*
X104625000Y-77600000D03*
X105174175Y-78925825D03*
X106500000Y-79475000D03*
X107825825Y-78925825D03*
X108375000Y-77600000D03*
D11*
X106500000Y-77600000D03*
D12*
X113500000Y-114100000D03*
X138900000Y-114100000D03*
X138900000Y-76000000D03*
X113500000Y-76000000D03*
D13*
X92600000Y-101120000D03*
X92600000Y-98580000D03*
X92600000Y-96040000D03*
X92600000Y-93500000D03*
D14*
X92600000Y-90960000D03*
D15*
X129680000Y-97700000D03*
X127140000Y-97700000D03*
D16*
X124600000Y-97700000D03*
D13*
X141160000Y-106500000D03*
X138620000Y-106500000D03*
X136080000Y-106500000D03*
X133540000Y-106500000D03*
D14*
X131000000Y-106500000D03*
D13*
X122060000Y-114100000D03*
D14*
X124600000Y-114100000D03*
D17*
X106200000Y-93500000D03*
X149200000Y-93500000D03*
D18*
G36*
X135173147Y-73333810D02*
G01*
X135620727Y-73781390D01*
X134851640Y-73985746D01*
X134536466Y-74814245D01*
X134388980Y-75688312D01*
X134414851Y-76574357D01*
X134613084Y-77438331D01*
X134851640Y-78014254D01*
X135620729Y-78218610D01*
X137839340Y-76000000D01*
X137825197Y-75985858D01*
X138885858Y-74925197D01*
X138900000Y-74939340D01*
X138914142Y-74925197D01*
X139974803Y-75985858D01*
X139960660Y-76000000D01*
X139974803Y-76014143D01*
X138914142Y-77074803D01*
X138900000Y-77060660D01*
X136681390Y-79279271D01*
X136885746Y-80048360D01*
X137714245Y-80363534D01*
X138588312Y-80511020D01*
X139474357Y-80485149D01*
X140338331Y-80286916D01*
X140914254Y-80048360D01*
X141118610Y-79279273D01*
X141566190Y-79726853D01*
X141640862Y-79652181D01*
X141645706Y-79663874D01*
X142103771Y-79799649D01*
X142131823Y-79886738D01*
X142335160Y-80267155D01*
X142986749Y-80201119D01*
X143174665Y-80013203D01*
X143336318Y-80059239D01*
X143389083Y-80223049D01*
X143198881Y-80413251D01*
X143132845Y-81064840D01*
X143597350Y-81303007D01*
X143602822Y-81304565D01*
X143736126Y-81754294D01*
X144607675Y-82094700D01*
X145528888Y-82258534D01*
X146464363Y-82239501D01*
X147378149Y-82038331D01*
X148063874Y-81754294D01*
X148199649Y-81296229D01*
X148286738Y-81268177D01*
X148667155Y-81064840D01*
X148601119Y-80413251D01*
X148413203Y-80225335D01*
X148459239Y-80063682D01*
X148623049Y-80010917D01*
X148784490Y-80172358D01*
X148835160Y-80267155D01*
X149150000Y-80235247D01*
X149464840Y-80267155D01*
X149511273Y-80176595D01*
X149674665Y-80013203D01*
X149836318Y-80059239D01*
X149889083Y-80223049D01*
X149698881Y-80413251D01*
X149632845Y-81064840D01*
X150097350Y-81303007D01*
X150102822Y-81304565D01*
X150236126Y-81754294D01*
X151107675Y-82094700D01*
X152028888Y-82258534D01*
X152964363Y-82239501D01*
X153878149Y-82038331D01*
X154563874Y-81754294D01*
X154699649Y-81296229D01*
X154786738Y-81268177D01*
X155167155Y-81064840D01*
X155101119Y-80413251D01*
X154913203Y-80225335D01*
X154959239Y-80063682D01*
X155123049Y-80010917D01*
X155313251Y-80201119D01*
X155964840Y-80267155D01*
X156203007Y-79802650D01*
X156204565Y-79797178D01*
X156654294Y-79663874D01*
X156994700Y-78792325D01*
X157080365Y-78310645D01*
X157165804Y-78565661D01*
X157174794Y-78586816D01*
X157217968Y-78688417D01*
X157678416Y-79572080D01*
X157734013Y-79660975D01*
X157749142Y-79685165D01*
X158342157Y-80485920D01*
X158429702Y-80586549D01*
X159140676Y-81284669D01*
X159140682Y-81284676D01*
X159242891Y-81370371D01*
X160054328Y-81948681D01*
X160168684Y-82017331D01*
X161060600Y-82461586D01*
X161184287Y-82511502D01*
X161184291Y-82511503D01*
X162059170Y-82786972D01*
X162063145Y-82789097D01*
X162223371Y-82837700D01*
X162348251Y-82850000D01*
X165731001Y-82850000D01*
X165731000Y-107261442D01*
X162348251Y-107261442D01*
X162306840Y-107265521D01*
X162306828Y-107265521D01*
X162306816Y-107265523D01*
X162223371Y-107273742D01*
X162159328Y-107293169D01*
X161824237Y-107380549D01*
X161781229Y-107395455D01*
X161737519Y-107408198D01*
X160805744Y-107761281D01*
X160691511Y-107815166D01*
X160685111Y-107818185D01*
X159820041Y-108312683D01*
X159709795Y-108387756D01*
X159709788Y-108387763D01*
X158932732Y-109011494D01*
X158835587Y-109102889D01*
X158165665Y-109840505D01*
X158165664Y-109840506D01*
X158084013Y-109945973D01*
X157537728Y-110779309D01*
X157483601Y-110877984D01*
X157473581Y-110896250D01*
X157064383Y-111804782D01*
X157019319Y-111930319D01*
X156757285Y-112891678D01*
X156757285Y-112891679D01*
X156732414Y-113022719D01*
X156632597Y-113934653D01*
X156631251Y-113939091D01*
X156618951Y-114063971D01*
X156618950Y-117268921D01*
X142124122Y-117268921D01*
X142626853Y-116766190D01*
X142179273Y-116318610D01*
X142948360Y-116114254D01*
X143263534Y-115285755D01*
X143411020Y-114411688D01*
X143390146Y-113696766D01*
X143597350Y-113803007D01*
X143602822Y-113804565D01*
X143736126Y-114254294D01*
X144607675Y-114594700D01*
X145528888Y-114758534D01*
X146464363Y-114739501D01*
X147378149Y-114538331D01*
X148063874Y-114254294D01*
X148199649Y-113796229D01*
X148286738Y-113768177D01*
X148667155Y-113564840D01*
X148601119Y-112913251D01*
X148413203Y-112725335D01*
X148459239Y-112563682D01*
X148623049Y-112510917D01*
X148784490Y-112672358D01*
X148835160Y-112767155D01*
X149150000Y-112735247D01*
X149464840Y-112767155D01*
X149511273Y-112676595D01*
X149674665Y-112513203D01*
X149836318Y-112559239D01*
X149889083Y-112723049D01*
X149698881Y-112913251D01*
X149632845Y-113564840D01*
X150097350Y-113803007D01*
X150102822Y-113804565D01*
X150236126Y-114254294D01*
X151107675Y-114594700D01*
X152028888Y-114758534D01*
X152964363Y-114739501D01*
X153878149Y-114538331D01*
X154563874Y-114254294D01*
X154699649Y-113796229D01*
X154786738Y-113768177D01*
X155167155Y-113564840D01*
X155101119Y-112913251D01*
X154913203Y-112725335D01*
X154959239Y-112563682D01*
X155123049Y-112510917D01*
X155313251Y-112701119D01*
X155964840Y-112767155D01*
X156203007Y-112302650D01*
X156204565Y-112297178D01*
X156654294Y-112163874D01*
X156994700Y-111292325D01*
X157158534Y-110371112D01*
X157139501Y-109435637D01*
X156938331Y-108521851D01*
X156654294Y-107836126D01*
X156196229Y-107700351D01*
X156168177Y-107613262D01*
X155964840Y-107232845D01*
X155313251Y-107298881D01*
X155125335Y-107486797D01*
X154963682Y-107440761D01*
X154910917Y-107276951D01*
X155101119Y-107086749D01*
X155167155Y-106435160D01*
X154702650Y-106196993D01*
X154697178Y-106195435D01*
X154563874Y-105745706D01*
X153692325Y-105405300D01*
X152771112Y-105241466D01*
X151835637Y-105260499D01*
X150921851Y-105461669D01*
X150236126Y-105745706D01*
X150100351Y-106203771D01*
X150013262Y-106231823D01*
X149632845Y-106435160D01*
X149698881Y-107086749D01*
X149886797Y-107274665D01*
X149840761Y-107436318D01*
X149676951Y-107489083D01*
X149515510Y-107327642D01*
X149464840Y-107232845D01*
X149150000Y-107264753D01*
X148835160Y-107232845D01*
X148788727Y-107323405D01*
X148625335Y-107486797D01*
X148463682Y-107440761D01*
X148410917Y-107276951D01*
X148601119Y-107086749D01*
X148667155Y-106435160D01*
X148202650Y-106196993D01*
X148197178Y-106195435D01*
X148063874Y-105745706D01*
X147192325Y-105405300D01*
X146271112Y-105241466D01*
X145335637Y-105260499D01*
X144421851Y-105461669D01*
X143736126Y-105745706D01*
X143600351Y-106203771D01*
X143513262Y-106231823D01*
X143304221Y-106343558D01*
X143056178Y-106095515D01*
X142760000Y-106391693D01*
X142760000Y-106342414D01*
X142698513Y-106033297D01*
X142577902Y-105742116D01*
X142402801Y-105480059D01*
X142179941Y-105257199D01*
X141917884Y-105082098D01*
X141626703Y-104961487D01*
X141317586Y-104900000D01*
X141002414Y-104900000D01*
X140693297Y-104961487D01*
X140402116Y-105082098D01*
X140140059Y-105257199D01*
X139917199Y-105480059D01*
X139890000Y-105520765D01*
X139862801Y-105480059D01*
X139639941Y-105257199D01*
X139377884Y-105082098D01*
X139086703Y-104961487D01*
X138777586Y-104900000D01*
X138462414Y-104900000D01*
X138153297Y-104961487D01*
X137862116Y-105082098D01*
X137600059Y-105257199D01*
X137377199Y-105480059D01*
X137350000Y-105520765D01*
X137322801Y-105480059D01*
X137099941Y-105257199D01*
X136837884Y-105082098D01*
X136546703Y-104961487D01*
X136237586Y-104900000D01*
X135922414Y-104900000D01*
X135613297Y-104961487D01*
X135322116Y-105082098D01*
X135060059Y-105257199D01*
X134837199Y-105480059D01*
X134810000Y-105520765D01*
X134782801Y-105480059D01*
X134559941Y-105257199D01*
X134297884Y-105082098D01*
X134006703Y-104961487D01*
X133697586Y-104900000D01*
X133382414Y-104900000D01*
X133073297Y-104961487D01*
X132782116Y-105082098D01*
X132520059Y-105257199D01*
X132500769Y-105276489D01*
X132476619Y-105231307D01*
X132382895Y-105117105D01*
X132268693Y-105023381D01*
X132138401Y-104953739D01*
X131997026Y-104910853D01*
X131850000Y-104896372D01*
X130150000Y-104896372D01*
X130002974Y-104910853D01*
X129861599Y-104953739D01*
X129731307Y-105023381D01*
X129617105Y-105117105D01*
X129523381Y-105231307D01*
X129453739Y-105361599D01*
X129410853Y-105502974D01*
X129396372Y-105650000D01*
X129396372Y-107350000D01*
X129410853Y-107497026D01*
X129453739Y-107638401D01*
X129523381Y-107768693D01*
X129617105Y-107882895D01*
X129731307Y-107976619D01*
X129861599Y-108046261D01*
X130002974Y-108089147D01*
X130150000Y-108103628D01*
X131850000Y-108103628D01*
X131997026Y-108089147D01*
X132138401Y-108046261D01*
X132268693Y-107976619D01*
X132382895Y-107882895D01*
X132476619Y-107768693D01*
X132500769Y-107723511D01*
X132520059Y-107742801D01*
X132782116Y-107917902D01*
X133073297Y-108038513D01*
X133382414Y-108100000D01*
X133697586Y-108100000D01*
X134006703Y-108038513D01*
X134297884Y-107917902D01*
X134559941Y-107742801D01*
X134782801Y-107519941D01*
X134810000Y-107479235D01*
X134837199Y-107519941D01*
X135060059Y-107742801D01*
X135322116Y-107917902D01*
X135613297Y-108038513D01*
X135922414Y-108100000D01*
X136237586Y-108100000D01*
X136546703Y-108038513D01*
X136837884Y-107917902D01*
X137099941Y-107742801D01*
X137322801Y-107519941D01*
X137350000Y-107479235D01*
X137377199Y-107519941D01*
X137600059Y-107742801D01*
X137862116Y-107917902D01*
X138153297Y-108038513D01*
X138462414Y-108100000D01*
X138777586Y-108100000D01*
X139086703Y-108038513D01*
X139377884Y-107917902D01*
X139639941Y-107742801D01*
X139862801Y-107519941D01*
X139890000Y-107479235D01*
X139917199Y-107519941D01*
X140140059Y-107742801D01*
X140402116Y-107917902D01*
X140693297Y-108038513D01*
X141002414Y-108100000D01*
X141317586Y-108100000D01*
X141561601Y-108051463D01*
X141305300Y-108707675D01*
X141141466Y-109628888D01*
X141160499Y-110564363D01*
X141199196Y-110740141D01*
X141118610Y-110820727D01*
X140914254Y-110051640D01*
X140085755Y-109736466D01*
X139211688Y-109588980D01*
X138325643Y-109614851D01*
X137461669Y-109813084D01*
X136885746Y-110051640D01*
X136681390Y-110820729D01*
X138900000Y-113039340D01*
X138914142Y-113025197D01*
X139974803Y-114085858D01*
X139960660Y-114100000D01*
X139974803Y-114114142D01*
X138914142Y-115174803D01*
X138900000Y-115160660D01*
X138885858Y-115174803D01*
X137825197Y-114114142D01*
X137839340Y-114100000D01*
X135620729Y-111881390D01*
X134851640Y-112085746D01*
X134536466Y-112914245D01*
X134388980Y-113788312D01*
X134414851Y-114674357D01*
X134613084Y-115538331D01*
X134851640Y-116114254D01*
X135620727Y-116318610D01*
X135173147Y-116766190D01*
X135675878Y-117268921D01*
X116724122Y-117268921D01*
X117226853Y-116766190D01*
X116779273Y-116318610D01*
X117548360Y-116114254D01*
X117863534Y-115285755D01*
X117883337Y-115168392D01*
X119149913Y-115168392D01*
X119414262Y-115715593D01*
X119780286Y-116200708D01*
X120233918Y-116605094D01*
X120757725Y-116913210D01*
X120991610Y-117010076D01*
X121460000Y-116565544D01*
X121460000Y-114700000D01*
X119581108Y-114700000D01*
X119149913Y-115168392D01*
X117883337Y-115168392D01*
X118011020Y-114411688D01*
X117985149Y-113525643D01*
X117871797Y-113031608D01*
X119149913Y-113031608D01*
X119581108Y-113500000D01*
X121460000Y-113500000D01*
X121460000Y-111634456D01*
X122660000Y-111634456D01*
X122660000Y-113500000D01*
X122830000Y-113500000D01*
X122830000Y-114700000D01*
X122660000Y-114700000D01*
X122660000Y-116565544D01*
X123128390Y-117010076D01*
X123362275Y-116913210D01*
X123886082Y-116605094D01*
X124339714Y-116200708D01*
X124705738Y-115715593D01*
X124711518Y-115703628D01*
X125450000Y-115703628D01*
X125597026Y-115689147D01*
X125738401Y-115646261D01*
X125868693Y-115576619D01*
X125982895Y-115482895D01*
X126076619Y-115368693D01*
X126146261Y-115238401D01*
X126189147Y-115097026D01*
X126203628Y-114950000D01*
X126203628Y-113250000D01*
X126189147Y-113102974D01*
X126146261Y-112961599D01*
X126076619Y-112831307D01*
X125982895Y-112717105D01*
X125868693Y-112623381D01*
X125738401Y-112553739D01*
X125597026Y-112510853D01*
X125450000Y-112496372D01*
X124711518Y-112496372D01*
X124705738Y-112484407D01*
X124339714Y-111999292D01*
X123886082Y-111594906D01*
X123362275Y-111286790D01*
X123128390Y-111189924D01*
X122660000Y-111634456D01*
X121460000Y-111634456D01*
X120991610Y-111189924D01*
X120757725Y-111286790D01*
X120233918Y-111594906D01*
X119780286Y-111999292D01*
X119414262Y-112484407D01*
X119149913Y-113031608D01*
X117871797Y-113031608D01*
X117786916Y-112661669D01*
X117548360Y-112085746D01*
X116779271Y-111881390D01*
X114560660Y-114100000D01*
X114574803Y-114114142D01*
X113514142Y-115174803D01*
X113500000Y-115160660D01*
X113485858Y-115174803D01*
X112425197Y-114114142D01*
X112439340Y-114100000D01*
X112425197Y-114085858D01*
X113485858Y-113025197D01*
X113500000Y-113039340D01*
X115718610Y-110820729D01*
X115514254Y-110051640D01*
X114685755Y-109736466D01*
X113811688Y-109588980D01*
X112925643Y-109614851D01*
X112061669Y-109813084D01*
X111485746Y-110051640D01*
X111281390Y-110820727D01*
X111194097Y-110733434D01*
X111258534Y-110371112D01*
X111239501Y-109435637D01*
X111038331Y-108521851D01*
X110754294Y-107836126D01*
X110296229Y-107700351D01*
X110268177Y-107613262D01*
X110064840Y-107232845D01*
X109413251Y-107298881D01*
X109225335Y-107486797D01*
X109063682Y-107440761D01*
X109010917Y-107276951D01*
X109201119Y-107086749D01*
X109267155Y-106435160D01*
X108802650Y-106196993D01*
X108797178Y-106195435D01*
X108663874Y-105745706D01*
X107792325Y-105405300D01*
X106871112Y-105241466D01*
X105935637Y-105260499D01*
X105021851Y-105461669D01*
X104336126Y-105745706D01*
X104200351Y-106203771D01*
X104113262Y-106231823D01*
X103732845Y-106435160D01*
X103798881Y-107086749D01*
X103986797Y-107274665D01*
X103940761Y-107436318D01*
X103776951Y-107489083D01*
X103615510Y-107327642D01*
X103564840Y-107232845D01*
X103250000Y-107264753D01*
X102935160Y-107232845D01*
X102888727Y-107323405D01*
X102725335Y-107486797D01*
X102563682Y-107440761D01*
X102510917Y-107276951D01*
X102701119Y-107086749D01*
X102767155Y-106435160D01*
X102302650Y-106196993D01*
X102297178Y-106195435D01*
X102163874Y-105745706D01*
X101292325Y-105405300D01*
X100371112Y-105241466D01*
X99435637Y-105260499D01*
X98521851Y-105461669D01*
X97836126Y-105745706D01*
X97700351Y-106203771D01*
X97613262Y-106231823D01*
X97232845Y-106435160D01*
X97298881Y-107086749D01*
X97486797Y-107274665D01*
X97440761Y-107436318D01*
X97276951Y-107489083D01*
X97086749Y-107298881D01*
X96435160Y-107232845D01*
X96196993Y-107697350D01*
X96195435Y-107702822D01*
X95745706Y-107836126D01*
X95405300Y-108707675D01*
X95241466Y-109628888D01*
X95260499Y-110564363D01*
X95461669Y-111478149D01*
X95745706Y-112163874D01*
X96203771Y-112299649D01*
X96231823Y-112386738D01*
X96435160Y-112767155D01*
X97086749Y-112701119D01*
X97274665Y-112513203D01*
X97436318Y-112559239D01*
X97489083Y-112723049D01*
X97298881Y-112913251D01*
X97232845Y-113564840D01*
X97697350Y-113803007D01*
X97702822Y-113804565D01*
X97836126Y-114254294D01*
X98707675Y-114594700D01*
X99628888Y-114758534D01*
X100564363Y-114739501D01*
X101478149Y-114538331D01*
X102163874Y-114254294D01*
X102299649Y-113796229D01*
X102386738Y-113768177D01*
X102767155Y-113564840D01*
X102701119Y-112913251D01*
X102513203Y-112725335D01*
X102559239Y-112563682D01*
X102723049Y-112510917D01*
X102884490Y-112672358D01*
X102935160Y-112767155D01*
X103250000Y-112735247D01*
X103564840Y-112767155D01*
X103611273Y-112676595D01*
X103774665Y-112513203D01*
X103936318Y-112559239D01*
X103989083Y-112723049D01*
X103798881Y-112913251D01*
X103732845Y-113564840D01*
X104197350Y-113803007D01*
X104202822Y-113804565D01*
X104336126Y-114254294D01*
X105207675Y-114594700D01*
X106128888Y-114758534D01*
X107064363Y-114739501D01*
X107978149Y-114538331D01*
X108663874Y-114254294D01*
X108799649Y-113796229D01*
X108886738Y-113768177D01*
X109002850Y-113706114D01*
X108988980Y-113788312D01*
X109014851Y-114674357D01*
X109213084Y-115538331D01*
X109451640Y-116114254D01*
X110220727Y-116318610D01*
X109773147Y-116766190D01*
X110275878Y-117268921D01*
X95771050Y-117268921D01*
X95771050Y-114063971D01*
X95768587Y-114038960D01*
X95748134Y-113693139D01*
X95741889Y-113648044D01*
X95737904Y-113602702D01*
X95573060Y-112620002D01*
X95544424Y-112505341D01*
X95540741Y-112490595D01*
X95224196Y-111545781D01*
X95178401Y-111438014D01*
X95172032Y-111423025D01*
X94711584Y-110539362D01*
X94640858Y-110426277D01*
X94047847Y-109625528D01*
X94047843Y-109625522D01*
X93960298Y-109524893D01*
X93249318Y-108826766D01*
X93147109Y-108741071D01*
X92335672Y-108162761D01*
X92250185Y-108111442D01*
X92221316Y-108094111D01*
X91329405Y-107649859D01*
X91329400Y-107649856D01*
X91205713Y-107599940D01*
X90330830Y-107324470D01*
X90326855Y-107322345D01*
X90166629Y-107273742D01*
X90041749Y-107261442D01*
X86659000Y-107261442D01*
X86659000Y-102188390D01*
X89689924Y-102188390D01*
X89786790Y-102422275D01*
X90094906Y-102946082D01*
X90499292Y-103399714D01*
X90984407Y-103765738D01*
X91531608Y-104030087D01*
X92000000Y-103598892D01*
X92000000Y-101720000D01*
X93200000Y-101720000D01*
X93200000Y-103598892D01*
X93668392Y-104030087D01*
X94215593Y-103765738D01*
X94700708Y-103399714D01*
X95105094Y-102946082D01*
X95413210Y-102422275D01*
X95510076Y-102188390D01*
X95065544Y-101720000D01*
X93200000Y-101720000D01*
X92000000Y-101720000D01*
X90134456Y-101720000D01*
X89689924Y-102188390D01*
X86659000Y-102188390D01*
X86659000Y-92122500D01*
X89500000Y-92122500D01*
X89599483Y-92507772D01*
X89776933Y-92913909D01*
X90030207Y-93277624D01*
X90349571Y-93584939D01*
X90556213Y-93717338D01*
X90499292Y-93760286D01*
X90196457Y-94100000D01*
X90134456Y-94100000D01*
X89689924Y-94568390D01*
X89773423Y-94770000D01*
X89689924Y-94971610D01*
X90134456Y-95440000D01*
X90196457Y-95440000D01*
X90499292Y-95779714D01*
X90844266Y-96040000D01*
X90499292Y-96300286D01*
X90196457Y-96640000D01*
X90134456Y-96640000D01*
X89689924Y-97108390D01*
X89773423Y-97310000D01*
X89689924Y-97511610D01*
X90134456Y-97980000D01*
X90196457Y-97980000D01*
X90499292Y-98319714D01*
X90844266Y-98580000D01*
X90499292Y-98840286D01*
X90196457Y-99180000D01*
X90134456Y-99180000D01*
X89689924Y-99648390D01*
X89773423Y-99850000D01*
X89689924Y-100051610D01*
X90134456Y-100520000D01*
X90196457Y-100520000D01*
X90499292Y-100859714D01*
X90984407Y-101225738D01*
X91531608Y-101490087D01*
X92000000Y-101058892D01*
X92000000Y-98641108D01*
X91933621Y-98580000D01*
X92000000Y-98518892D01*
X92000000Y-96101108D01*
X91933621Y-96040000D01*
X92000000Y-95978892D01*
X92000000Y-93561108D01*
X91966881Y-93530619D01*
X92000000Y-93497500D01*
X92000000Y-91021108D01*
X93200000Y-91021108D01*
X93200000Y-93497500D01*
X93233119Y-93530619D01*
X93200000Y-93561108D01*
X93200000Y-95978892D01*
X93266379Y-96040000D01*
X93200000Y-96101108D01*
X93200000Y-98518892D01*
X93266379Y-98580000D01*
X93200000Y-98641108D01*
X93200000Y-101058892D01*
X93668392Y-101490087D01*
X94215593Y-101225738D01*
X94700708Y-100859714D01*
X95003543Y-100520000D01*
X95065544Y-100520000D01*
X95510076Y-100051610D01*
X95426577Y-99850000D01*
X95510076Y-99648390D01*
X95065544Y-99180000D01*
X95003543Y-99180000D01*
X94700708Y-98840286D01*
X94355734Y-98580000D01*
X94700708Y-98319714D01*
X95003543Y-97980000D01*
X95065544Y-97980000D01*
X95510076Y-97511610D01*
X95426577Y-97310000D01*
X95510076Y-97108390D01*
X95065544Y-96640000D01*
X95003543Y-96640000D01*
X94700708Y-96300286D01*
X94613055Y-96234151D01*
X104526509Y-96234151D01*
X104636218Y-96928338D01*
X105335101Y-97167542D01*
X106067222Y-97265805D01*
X106804445Y-97219351D01*
X107518439Y-97029963D01*
X107763782Y-96928338D01*
X107799868Y-96700000D01*
X122893872Y-96700000D01*
X122893872Y-98700000D01*
X122908353Y-98847026D01*
X122951239Y-98988401D01*
X123020881Y-99118693D01*
X123114605Y-99232895D01*
X123228807Y-99326619D01*
X123359099Y-99396261D01*
X123500474Y-99439147D01*
X123647500Y-99453628D01*
X125552500Y-99453628D01*
X125699526Y-99439147D01*
X125840901Y-99396261D01*
X125971193Y-99326619D01*
X126085395Y-99232895D01*
X126158199Y-99144184D01*
X126189566Y-99169926D01*
X126485330Y-99328015D01*
X126806253Y-99425366D01*
X126973888Y-99441877D01*
X126996770Y-99486176D01*
X127387526Y-99976240D01*
X127866381Y-100380655D01*
X128414932Y-100683879D01*
X128497369Y-100723637D01*
X128977500Y-100292317D01*
X128977500Y-98450000D01*
X130382500Y-98450000D01*
X130382500Y-100292317D01*
X130862631Y-100723637D01*
X130945068Y-100683879D01*
X131493619Y-100380655D01*
X131972474Y-99976240D01*
X132363230Y-99486176D01*
X132650871Y-98929296D01*
X132236668Y-98450000D01*
X130382500Y-98450000D01*
X128977500Y-98450000D01*
X128910000Y-98450000D01*
X128910000Y-96950000D01*
X128977500Y-96950000D01*
X128977500Y-95107683D01*
X130382500Y-95107683D01*
X130382500Y-96950000D01*
X132236668Y-96950000D01*
X132650871Y-96470704D01*
X132528687Y-96234151D01*
X147526509Y-96234151D01*
X147636218Y-96928338D01*
X148335101Y-97167542D01*
X149067222Y-97265805D01*
X149804445Y-97219351D01*
X150518439Y-97029963D01*
X150763782Y-96928338D01*
X150873491Y-96234151D01*
X149200000Y-94560660D01*
X147526509Y-96234151D01*
X132528687Y-96234151D01*
X132363230Y-95913824D01*
X131972474Y-95423760D01*
X131493619Y-95019345D01*
X130945068Y-94716121D01*
X130862631Y-94676363D01*
X130382500Y-95107683D01*
X128977500Y-95107683D01*
X128497369Y-94676363D01*
X128414932Y-94716121D01*
X127866381Y-95019345D01*
X127387526Y-95423760D01*
X126996770Y-95913824D01*
X126973888Y-95958123D01*
X126806252Y-95974634D01*
X126485329Y-96071985D01*
X126189565Y-96230074D01*
X126158199Y-96255816D01*
X126085395Y-96167105D01*
X125971193Y-96073381D01*
X125840901Y-96003739D01*
X125699526Y-95960853D01*
X125552500Y-95946372D01*
X123647500Y-95946372D01*
X123500474Y-95960853D01*
X123359099Y-96003739D01*
X123228807Y-96073381D01*
X123114605Y-96167105D01*
X123020881Y-96281307D01*
X122951239Y-96411599D01*
X122908353Y-96552974D01*
X122893872Y-96700000D01*
X107799868Y-96700000D01*
X107873491Y-96234151D01*
X106200000Y-94560660D01*
X104526509Y-96234151D01*
X94613055Y-96234151D01*
X94355734Y-96040000D01*
X94700708Y-95779714D01*
X95003543Y-95440000D01*
X95065544Y-95440000D01*
X95510076Y-94971610D01*
X95426577Y-94770000D01*
X95510076Y-94568390D01*
X95065544Y-94100000D01*
X95003543Y-94100000D01*
X94700708Y-93760286D01*
X94643787Y-93717338D01*
X94850429Y-93584939D01*
X95076682Y-93367222D01*
X102434195Y-93367222D01*
X102480649Y-94104445D01*
X102670037Y-94818439D01*
X102771662Y-95063782D01*
X103465849Y-95173491D01*
X105139340Y-93500000D01*
X107260660Y-93500000D01*
X108934151Y-95173491D01*
X109628338Y-95063782D01*
X109867542Y-94364899D01*
X109965805Y-93632778D01*
X109949072Y-93367222D01*
X145434195Y-93367222D01*
X145480649Y-94104445D01*
X145670037Y-94818439D01*
X145771662Y-95063782D01*
X146465849Y-95173491D01*
X148139340Y-93500000D01*
X150260660Y-93500000D01*
X151934151Y-95173491D01*
X152628338Y-95063782D01*
X152867542Y-94364899D01*
X152965805Y-93632778D01*
X152919351Y-92895555D01*
X152729963Y-92181561D01*
X152628338Y-91936218D01*
X151934151Y-91826509D01*
X150260660Y-93500000D01*
X148139340Y-93500000D01*
X146465849Y-91826509D01*
X145771662Y-91936218D01*
X145532458Y-92635101D01*
X145434195Y-93367222D01*
X109949072Y-93367222D01*
X109919351Y-92895555D01*
X109729963Y-92181561D01*
X109628338Y-91936218D01*
X108934151Y-91826509D01*
X107260660Y-93500000D01*
X105139340Y-93500000D01*
X103465849Y-91826509D01*
X102771662Y-91936218D01*
X102532458Y-92635101D01*
X102434195Y-93367222D01*
X95076682Y-93367222D01*
X95169793Y-93277624D01*
X95423067Y-92913909D01*
X95600517Y-92507772D01*
X95700000Y-92122500D01*
X95137500Y-91560000D01*
X95003543Y-91560000D01*
X94700708Y-91220286D01*
X94215593Y-90854262D01*
X94032579Y-90765849D01*
X104526509Y-90765849D01*
X106200000Y-92439340D01*
X107873491Y-90765849D01*
X147526509Y-90765849D01*
X149200000Y-92439340D01*
X150873491Y-90765849D01*
X150763782Y-90071662D01*
X150064899Y-89832458D01*
X149332778Y-89734195D01*
X148595555Y-89780649D01*
X147881561Y-89970037D01*
X147636218Y-90071662D01*
X147526509Y-90765849D01*
X107873491Y-90765849D01*
X107763782Y-90071662D01*
X107064899Y-89832458D01*
X106332778Y-89734195D01*
X105595555Y-89780649D01*
X104881561Y-89970037D01*
X104636218Y-90071662D01*
X104526509Y-90765849D01*
X94032579Y-90765849D01*
X93668392Y-90589913D01*
X93200000Y-91021108D01*
X92000000Y-91021108D01*
X91531608Y-90589913D01*
X90984407Y-90854262D01*
X90499292Y-91220286D01*
X90196457Y-91560000D01*
X90062500Y-91560000D01*
X89500000Y-92122500D01*
X86659000Y-92122500D01*
X86659000Y-89797500D01*
X89500000Y-89797500D01*
X90062500Y-90360000D01*
X92000000Y-90360000D01*
X92000000Y-88422500D01*
X93200000Y-88422500D01*
X93200000Y-90360000D01*
X95137500Y-90360000D01*
X95700000Y-89797500D01*
X95600517Y-89412228D01*
X95423067Y-89006091D01*
X95169793Y-88642376D01*
X94850429Y-88335061D01*
X94477246Y-88095956D01*
X94064588Y-87934249D01*
X93762500Y-87860000D01*
X93200000Y-88422500D01*
X92000000Y-88422500D01*
X91437500Y-87860000D01*
X91135412Y-87934249D01*
X90722754Y-88095956D01*
X90349571Y-88335061D01*
X90030207Y-88642376D01*
X89776933Y-89006091D01*
X89599483Y-89412228D01*
X89500000Y-89797500D01*
X86659000Y-89797500D01*
X86659000Y-82850000D01*
X90041749Y-82850000D01*
X90083160Y-82845921D01*
X90083171Y-82845921D01*
X90083182Y-82845919D01*
X90166629Y-82837700D01*
X90230672Y-82818273D01*
X90565763Y-82730893D01*
X90608769Y-82715988D01*
X90652481Y-82703244D01*
X91584256Y-82350160D01*
X91704889Y-82293257D01*
X92569959Y-81798759D01*
X92680205Y-81723685D01*
X93457268Y-81099948D01*
X93480410Y-81078176D01*
X93554413Y-81008553D01*
X94224335Y-80270937D01*
X94228181Y-80265970D01*
X94266972Y-80215863D01*
X94305986Y-80165470D01*
X94305988Y-80165467D01*
X94852272Y-79332133D01*
X94882167Y-79277634D01*
X94916419Y-79215192D01*
X95302920Y-78357054D01*
X95461669Y-79078149D01*
X95745706Y-79763874D01*
X96203771Y-79899649D01*
X96231823Y-79986738D01*
X96435160Y-80367155D01*
X97086749Y-80301119D01*
X97274665Y-80113203D01*
X97436318Y-80159239D01*
X97489083Y-80323049D01*
X97298881Y-80513251D01*
X97232845Y-81164840D01*
X97697350Y-81403007D01*
X97702822Y-81404565D01*
X97836126Y-81854294D01*
X98707675Y-82194700D01*
X99628888Y-82358534D01*
X100564363Y-82339501D01*
X101478149Y-82138331D01*
X102163874Y-81854294D01*
X102299649Y-81396229D01*
X102386738Y-81368177D01*
X102767155Y-81164840D01*
X102701119Y-80513251D01*
X102513203Y-80325335D01*
X102559239Y-80163682D01*
X102723049Y-80110917D01*
X102884490Y-80272358D01*
X102935160Y-80367155D01*
X103250000Y-80335247D01*
X103564840Y-80367155D01*
X103611273Y-80276595D01*
X103774665Y-80113203D01*
X103936318Y-80159239D01*
X103989083Y-80323049D01*
X103798881Y-80513251D01*
X103732845Y-81164840D01*
X104197350Y-81403007D01*
X104202822Y-81404565D01*
X104336126Y-81854294D01*
X105207675Y-82194700D01*
X106128888Y-82358534D01*
X107064363Y-82339501D01*
X107978149Y-82138331D01*
X108663874Y-81854294D01*
X108799649Y-81396229D01*
X108886738Y-81368177D01*
X109267155Y-81164840D01*
X109201119Y-80513251D01*
X109013203Y-80325335D01*
X109059239Y-80163682D01*
X109223049Y-80110917D01*
X109413251Y-80301119D01*
X110064840Y-80367155D01*
X110303007Y-79902650D01*
X110304565Y-79897178D01*
X110754294Y-79763874D01*
X110787026Y-79680069D01*
X110833810Y-79726853D01*
X111281390Y-79279273D01*
X111485746Y-80048360D01*
X112314245Y-80363534D01*
X113188312Y-80511020D01*
X114074357Y-80485149D01*
X114938331Y-80286916D01*
X115514254Y-80048360D01*
X115718610Y-79279271D01*
X113500000Y-77060660D01*
X113485858Y-77074803D01*
X112425197Y-76014142D01*
X112439340Y-76000000D01*
X112425197Y-75985858D01*
X113485858Y-74925197D01*
X113500000Y-74939340D01*
X113514142Y-74925197D01*
X114574803Y-75985858D01*
X114560660Y-76000000D01*
X116779271Y-78218610D01*
X117548360Y-78014254D01*
X117863534Y-77185755D01*
X118011020Y-76311688D01*
X117985149Y-75425643D01*
X117786916Y-74561669D01*
X117548360Y-73985746D01*
X116779273Y-73781390D01*
X117226853Y-73333810D01*
X116735564Y-72842521D01*
X135664436Y-72842521D01*
X135173147Y-73333810D01*
G37*
X135173147Y-73333810D02*
X135620727Y-73781390D01*
X134851640Y-73985746D01*
X134536466Y-74814245D01*
X134388980Y-75688312D01*
X134414851Y-76574357D01*
X134613084Y-77438331D01*
X134851640Y-78014254D01*
X135620729Y-78218610D01*
X137839340Y-76000000D01*
X137825197Y-75985858D01*
X138885858Y-74925197D01*
X138900000Y-74939340D01*
X138914142Y-74925197D01*
X139974803Y-75985858D01*
X139960660Y-76000000D01*
X139974803Y-76014143D01*
X138914142Y-77074803D01*
X138900000Y-77060660D01*
X136681390Y-79279271D01*
X136885746Y-80048360D01*
X137714245Y-80363534D01*
X138588312Y-80511020D01*
X139474357Y-80485149D01*
X140338331Y-80286916D01*
X140914254Y-80048360D01*
X141118610Y-79279273D01*
X141566190Y-79726853D01*
X141640862Y-79652181D01*
X141645706Y-79663874D01*
X142103771Y-79799649D01*
X142131823Y-79886738D01*
X142335160Y-80267155D01*
X142986749Y-80201119D01*
X143174665Y-80013203D01*
X143336318Y-80059239D01*
X143389083Y-80223049D01*
X143198881Y-80413251D01*
X143132845Y-81064840D01*
X143597350Y-81303007D01*
X143602822Y-81304565D01*
X143736126Y-81754294D01*
X144607675Y-82094700D01*
X145528888Y-82258534D01*
X146464363Y-82239501D01*
X147378149Y-82038331D01*
X148063874Y-81754294D01*
X148199649Y-81296229D01*
X148286738Y-81268177D01*
X148667155Y-81064840D01*
X148601119Y-80413251D01*
X148413203Y-80225335D01*
X148459239Y-80063682D01*
X148623049Y-80010917D01*
X148784490Y-80172358D01*
X148835160Y-80267155D01*
X149150000Y-80235247D01*
X149464840Y-80267155D01*
X149511273Y-80176595D01*
X149674665Y-80013203D01*
X149836318Y-80059239D01*
X149889083Y-80223049D01*
X149698881Y-80413251D01*
X149632845Y-81064840D01*
X150097350Y-81303007D01*
X150102822Y-81304565D01*
X150236126Y-81754294D01*
X151107675Y-82094700D01*
X152028888Y-82258534D01*
X152964363Y-82239501D01*
X153878149Y-82038331D01*
X154563874Y-81754294D01*
X154699649Y-81296229D01*
X154786738Y-81268177D01*
X155167155Y-81064840D01*
X155101119Y-80413251D01*
X154913203Y-80225335D01*
X154959239Y-80063682D01*
X155123049Y-80010917D01*
X155313251Y-80201119D01*
X155964840Y-80267155D01*
X156203007Y-79802650D01*
X156204565Y-79797178D01*
X156654294Y-79663874D01*
X156994700Y-78792325D01*
X157080365Y-78310645D01*
X157165804Y-78565661D01*
X157174794Y-78586816D01*
X157217968Y-78688417D01*
X157678416Y-79572080D01*
X157734013Y-79660975D01*
X157749142Y-79685165D01*
X158342157Y-80485920D01*
X158429702Y-80586549D01*
X159140676Y-81284669D01*
X159140682Y-81284676D01*
X159242891Y-81370371D01*
X160054328Y-81948681D01*
X160168684Y-82017331D01*
X161060600Y-82461586D01*
X161184287Y-82511502D01*
X161184291Y-82511503D01*
X162059170Y-82786972D01*
X162063145Y-82789097D01*
X162223371Y-82837700D01*
X162348251Y-82850000D01*
X165731001Y-82850000D01*
X165731000Y-107261442D01*
X162348251Y-107261442D01*
X162306840Y-107265521D01*
X162306828Y-107265521D01*
X162306816Y-107265523D01*
X162223371Y-107273742D01*
X162159328Y-107293169D01*
X161824237Y-107380549D01*
X161781229Y-107395455D01*
X161737519Y-107408198D01*
X160805744Y-107761281D01*
X160691511Y-107815166D01*
X160685111Y-107818185D01*
X159820041Y-108312683D01*
X159709795Y-108387756D01*
X159709788Y-108387763D01*
X158932732Y-109011494D01*
X158835587Y-109102889D01*
X158165665Y-109840505D01*
X158165664Y-109840506D01*
X158084013Y-109945973D01*
X157537728Y-110779309D01*
X157483601Y-110877984D01*
X157473581Y-110896250D01*
X157064383Y-111804782D01*
X157019319Y-111930319D01*
X156757285Y-112891678D01*
X156757285Y-112891679D01*
X156732414Y-113022719D01*
X156632597Y-113934653D01*
X156631251Y-113939091D01*
X156618951Y-114063971D01*
X156618950Y-117268921D01*
X142124122Y-117268921D01*
X142626853Y-116766190D01*
X142179273Y-116318610D01*
X142948360Y-116114254D01*
X143263534Y-115285755D01*
X143411020Y-114411688D01*
X143390146Y-113696766D01*
X143597350Y-113803007D01*
X143602822Y-113804565D01*
X143736126Y-114254294D01*
X144607675Y-114594700D01*
X145528888Y-114758534D01*
X146464363Y-114739501D01*
X147378149Y-114538331D01*
X148063874Y-114254294D01*
X148199649Y-113796229D01*
X148286738Y-113768177D01*
X148667155Y-113564840D01*
X148601119Y-112913251D01*
X148413203Y-112725335D01*
X148459239Y-112563682D01*
X148623049Y-112510917D01*
X148784490Y-112672358D01*
X148835160Y-112767155D01*
X149150000Y-112735247D01*
X149464840Y-112767155D01*
X149511273Y-112676595D01*
X149674665Y-112513203D01*
X149836318Y-112559239D01*
X149889083Y-112723049D01*
X149698881Y-112913251D01*
X149632845Y-113564840D01*
X150097350Y-113803007D01*
X150102822Y-113804565D01*
X150236126Y-114254294D01*
X151107675Y-114594700D01*
X152028888Y-114758534D01*
X152964363Y-114739501D01*
X153878149Y-114538331D01*
X154563874Y-114254294D01*
X154699649Y-113796229D01*
X154786738Y-113768177D01*
X155167155Y-113564840D01*
X155101119Y-112913251D01*
X154913203Y-112725335D01*
X154959239Y-112563682D01*
X155123049Y-112510917D01*
X155313251Y-112701119D01*
X155964840Y-112767155D01*
X156203007Y-112302650D01*
X156204565Y-112297178D01*
X156654294Y-112163874D01*
X156994700Y-111292325D01*
X157158534Y-110371112D01*
X157139501Y-109435637D01*
X156938331Y-108521851D01*
X156654294Y-107836126D01*
X156196229Y-107700351D01*
X156168177Y-107613262D01*
X155964840Y-107232845D01*
X155313251Y-107298881D01*
X155125335Y-107486797D01*
X154963682Y-107440761D01*
X154910917Y-107276951D01*
X155101119Y-107086749D01*
X155167155Y-106435160D01*
X154702650Y-106196993D01*
X154697178Y-106195435D01*
X154563874Y-105745706D01*
X153692325Y-105405300D01*
X152771112Y-105241466D01*
X151835637Y-105260499D01*
X150921851Y-105461669D01*
X150236126Y-105745706D01*
X150100351Y-106203771D01*
X150013262Y-106231823D01*
X149632845Y-106435160D01*
X149698881Y-107086749D01*
X149886797Y-107274665D01*
X149840761Y-107436318D01*
X149676951Y-107489083D01*
X149515510Y-107327642D01*
X149464840Y-107232845D01*
X149150000Y-107264753D01*
X148835160Y-107232845D01*
X148788727Y-107323405D01*
X148625335Y-107486797D01*
X148463682Y-107440761D01*
X148410917Y-107276951D01*
X148601119Y-107086749D01*
X148667155Y-106435160D01*
X148202650Y-106196993D01*
X148197178Y-106195435D01*
X148063874Y-105745706D01*
X147192325Y-105405300D01*
X146271112Y-105241466D01*
X145335637Y-105260499D01*
X144421851Y-105461669D01*
X143736126Y-105745706D01*
X143600351Y-106203771D01*
X143513262Y-106231823D01*
X143304221Y-106343558D01*
X143056178Y-106095515D01*
X142760000Y-106391693D01*
X142760000Y-106342414D01*
X142698513Y-106033297D01*
X142577902Y-105742116D01*
X142402801Y-105480059D01*
X142179941Y-105257199D01*
X141917884Y-105082098D01*
X141626703Y-104961487D01*
X141317586Y-104900000D01*
X141002414Y-104900000D01*
X140693297Y-104961487D01*
X140402116Y-105082098D01*
X140140059Y-105257199D01*
X139917199Y-105480059D01*
X139890000Y-105520765D01*
X139862801Y-105480059D01*
X139639941Y-105257199D01*
X139377884Y-105082098D01*
X139086703Y-104961487D01*
X138777586Y-104900000D01*
X138462414Y-104900000D01*
X138153297Y-104961487D01*
X137862116Y-105082098D01*
X137600059Y-105257199D01*
X137377199Y-105480059D01*
X137350000Y-105520765D01*
X137322801Y-105480059D01*
X137099941Y-105257199D01*
X136837884Y-105082098D01*
X136546703Y-104961487D01*
X136237586Y-104900000D01*
X135922414Y-104900000D01*
X135613297Y-104961487D01*
X135322116Y-105082098D01*
X135060059Y-105257199D01*
X134837199Y-105480059D01*
X134810000Y-105520765D01*
X134782801Y-105480059D01*
X134559941Y-105257199D01*
X134297884Y-105082098D01*
X134006703Y-104961487D01*
X133697586Y-104900000D01*
X133382414Y-104900000D01*
X133073297Y-104961487D01*
X132782116Y-105082098D01*
X132520059Y-105257199D01*
X132500769Y-105276489D01*
X132476619Y-105231307D01*
X132382895Y-105117105D01*
X132268693Y-105023381D01*
X132138401Y-104953739D01*
X131997026Y-104910853D01*
X131850000Y-104896372D01*
X130150000Y-104896372D01*
X130002974Y-104910853D01*
X129861599Y-104953739D01*
X129731307Y-105023381D01*
X129617105Y-105117105D01*
X129523381Y-105231307D01*
X129453739Y-105361599D01*
X129410853Y-105502974D01*
X129396372Y-105650000D01*
X129396372Y-107350000D01*
X129410853Y-107497026D01*
X129453739Y-107638401D01*
X129523381Y-107768693D01*
X129617105Y-107882895D01*
X129731307Y-107976619D01*
X129861599Y-108046261D01*
X130002974Y-108089147D01*
X130150000Y-108103628D01*
X131850000Y-108103628D01*
X131997026Y-108089147D01*
X132138401Y-108046261D01*
X132268693Y-107976619D01*
X132382895Y-107882895D01*
X132476619Y-107768693D01*
X132500769Y-107723511D01*
X132520059Y-107742801D01*
X132782116Y-107917902D01*
X133073297Y-108038513D01*
X133382414Y-108100000D01*
X133697586Y-108100000D01*
X134006703Y-108038513D01*
X134297884Y-107917902D01*
X134559941Y-107742801D01*
X134782801Y-107519941D01*
X134810000Y-107479235D01*
X134837199Y-107519941D01*
X135060059Y-107742801D01*
X135322116Y-107917902D01*
X135613297Y-108038513D01*
X135922414Y-108100000D01*
X136237586Y-108100000D01*
X136546703Y-108038513D01*
X136837884Y-107917902D01*
X137099941Y-107742801D01*
X137322801Y-107519941D01*
X137350000Y-107479235D01*
X137377199Y-107519941D01*
X137600059Y-107742801D01*
X137862116Y-107917902D01*
X138153297Y-108038513D01*
X138462414Y-108100000D01*
X138777586Y-108100000D01*
X139086703Y-108038513D01*
X139377884Y-107917902D01*
X139639941Y-107742801D01*
X139862801Y-107519941D01*
X139890000Y-107479235D01*
X139917199Y-107519941D01*
X140140059Y-107742801D01*
X140402116Y-107917902D01*
X140693297Y-108038513D01*
X141002414Y-108100000D01*
X141317586Y-108100000D01*
X141561601Y-108051463D01*
X141305300Y-108707675D01*
X141141466Y-109628888D01*
X141160499Y-110564363D01*
X141199196Y-110740141D01*
X141118610Y-110820727D01*
X140914254Y-110051640D01*
X140085755Y-109736466D01*
X139211688Y-109588980D01*
X138325643Y-109614851D01*
X137461669Y-109813084D01*
X136885746Y-110051640D01*
X136681390Y-110820729D01*
X138900000Y-113039340D01*
X138914142Y-113025197D01*
X139974803Y-114085858D01*
X139960660Y-114100000D01*
X139974803Y-114114142D01*
X138914142Y-115174803D01*
X138900000Y-115160660D01*
X138885858Y-115174803D01*
X137825197Y-114114142D01*
X137839340Y-114100000D01*
X135620729Y-111881390D01*
X134851640Y-112085746D01*
X134536466Y-112914245D01*
X134388980Y-113788312D01*
X134414851Y-114674357D01*
X134613084Y-115538331D01*
X134851640Y-116114254D01*
X135620727Y-116318610D01*
X135173147Y-116766190D01*
X135675878Y-117268921D01*
X116724122Y-117268921D01*
X117226853Y-116766190D01*
X116779273Y-116318610D01*
X117548360Y-116114254D01*
X117863534Y-115285755D01*
X117883337Y-115168392D01*
X119149913Y-115168392D01*
X119414262Y-115715593D01*
X119780286Y-116200708D01*
X120233918Y-116605094D01*
X120757725Y-116913210D01*
X120991610Y-117010076D01*
X121460000Y-116565544D01*
X121460000Y-114700000D01*
X119581108Y-114700000D01*
X119149913Y-115168392D01*
X117883337Y-115168392D01*
X118011020Y-114411688D01*
X117985149Y-113525643D01*
X117871797Y-113031608D01*
X119149913Y-113031608D01*
X119581108Y-113500000D01*
X121460000Y-113500000D01*
X121460000Y-111634456D01*
X122660000Y-111634456D01*
X122660000Y-113500000D01*
X122830000Y-113500000D01*
X122830000Y-114700000D01*
X122660000Y-114700000D01*
X122660000Y-116565544D01*
X123128390Y-117010076D01*
X123362275Y-116913210D01*
X123886082Y-116605094D01*
X124339714Y-116200708D01*
X124705738Y-115715593D01*
X124711518Y-115703628D01*
X125450000Y-115703628D01*
X125597026Y-115689147D01*
X125738401Y-115646261D01*
X125868693Y-115576619D01*
X125982895Y-115482895D01*
X126076619Y-115368693D01*
X126146261Y-115238401D01*
X126189147Y-115097026D01*
X126203628Y-114950000D01*
X126203628Y-113250000D01*
X126189147Y-113102974D01*
X126146261Y-112961599D01*
X126076619Y-112831307D01*
X125982895Y-112717105D01*
X125868693Y-112623381D01*
X125738401Y-112553739D01*
X125597026Y-112510853D01*
X125450000Y-112496372D01*
X124711518Y-112496372D01*
X124705738Y-112484407D01*
X124339714Y-111999292D01*
X123886082Y-111594906D01*
X123362275Y-111286790D01*
X123128390Y-111189924D01*
X122660000Y-111634456D01*
X121460000Y-111634456D01*
X120991610Y-111189924D01*
X120757725Y-111286790D01*
X120233918Y-111594906D01*
X119780286Y-111999292D01*
X119414262Y-112484407D01*
X119149913Y-113031608D01*
X117871797Y-113031608D01*
X117786916Y-112661669D01*
X117548360Y-112085746D01*
X116779271Y-111881390D01*
X114560660Y-114100000D01*
X114574803Y-114114142D01*
X113514142Y-115174803D01*
X113500000Y-115160660D01*
X113485858Y-115174803D01*
X112425197Y-114114142D01*
X112439340Y-114100000D01*
X112425197Y-114085858D01*
X113485858Y-113025197D01*
X113500000Y-113039340D01*
X115718610Y-110820729D01*
X115514254Y-110051640D01*
X114685755Y-109736466D01*
X113811688Y-109588980D01*
X112925643Y-109614851D01*
X112061669Y-109813084D01*
X111485746Y-110051640D01*
X111281390Y-110820727D01*
X111194097Y-110733434D01*
X111258534Y-110371112D01*
X111239501Y-109435637D01*
X111038331Y-108521851D01*
X110754294Y-107836126D01*
X110296229Y-107700351D01*
X110268177Y-107613262D01*
X110064840Y-107232845D01*
X109413251Y-107298881D01*
X109225335Y-107486797D01*
X109063682Y-107440761D01*
X109010917Y-107276951D01*
X109201119Y-107086749D01*
X109267155Y-106435160D01*
X108802650Y-106196993D01*
X108797178Y-106195435D01*
X108663874Y-105745706D01*
X107792325Y-105405300D01*
X106871112Y-105241466D01*
X105935637Y-105260499D01*
X105021851Y-105461669D01*
X104336126Y-105745706D01*
X104200351Y-106203771D01*
X104113262Y-106231823D01*
X103732845Y-106435160D01*
X103798881Y-107086749D01*
X103986797Y-107274665D01*
X103940761Y-107436318D01*
X103776951Y-107489083D01*
X103615510Y-107327642D01*
X103564840Y-107232845D01*
X103250000Y-107264753D01*
X102935160Y-107232845D01*
X102888727Y-107323405D01*
X102725335Y-107486797D01*
X102563682Y-107440761D01*
X102510917Y-107276951D01*
X102701119Y-107086749D01*
X102767155Y-106435160D01*
X102302650Y-106196993D01*
X102297178Y-106195435D01*
X102163874Y-105745706D01*
X101292325Y-105405300D01*
X100371112Y-105241466D01*
X99435637Y-105260499D01*
X98521851Y-105461669D01*
X97836126Y-105745706D01*
X97700351Y-106203771D01*
X97613262Y-106231823D01*
X97232845Y-106435160D01*
X97298881Y-107086749D01*
X97486797Y-107274665D01*
X97440761Y-107436318D01*
X97276951Y-107489083D01*
X97086749Y-107298881D01*
X96435160Y-107232845D01*
X96196993Y-107697350D01*
X96195435Y-107702822D01*
X95745706Y-107836126D01*
X95405300Y-108707675D01*
X95241466Y-109628888D01*
X95260499Y-110564363D01*
X95461669Y-111478149D01*
X95745706Y-112163874D01*
X96203771Y-112299649D01*
X96231823Y-112386738D01*
X96435160Y-112767155D01*
X97086749Y-112701119D01*
X97274665Y-112513203D01*
X97436318Y-112559239D01*
X97489083Y-112723049D01*
X97298881Y-112913251D01*
X97232845Y-113564840D01*
X97697350Y-113803007D01*
X97702822Y-113804565D01*
X97836126Y-114254294D01*
X98707675Y-114594700D01*
X99628888Y-114758534D01*
X100564363Y-114739501D01*
X101478149Y-114538331D01*
X102163874Y-114254294D01*
X102299649Y-113796229D01*
X102386738Y-113768177D01*
X102767155Y-113564840D01*
X102701119Y-112913251D01*
X102513203Y-112725335D01*
X102559239Y-112563682D01*
X102723049Y-112510917D01*
X102884490Y-112672358D01*
X102935160Y-112767155D01*
X103250000Y-112735247D01*
X103564840Y-112767155D01*
X103611273Y-112676595D01*
X103774665Y-112513203D01*
X103936318Y-112559239D01*
X103989083Y-112723049D01*
X103798881Y-112913251D01*
X103732845Y-113564840D01*
X104197350Y-113803007D01*
X104202822Y-113804565D01*
X104336126Y-114254294D01*
X105207675Y-114594700D01*
X106128888Y-114758534D01*
X107064363Y-114739501D01*
X107978149Y-114538331D01*
X108663874Y-114254294D01*
X108799649Y-113796229D01*
X108886738Y-113768177D01*
X109002850Y-113706114D01*
X108988980Y-113788312D01*
X109014851Y-114674357D01*
X109213084Y-115538331D01*
X109451640Y-116114254D01*
X110220727Y-116318610D01*
X109773147Y-116766190D01*
X110275878Y-117268921D01*
X95771050Y-117268921D01*
X95771050Y-114063971D01*
X95768587Y-114038960D01*
X95748134Y-113693139D01*
X95741889Y-113648044D01*
X95737904Y-113602702D01*
X95573060Y-112620002D01*
X95544424Y-112505341D01*
X95540741Y-112490595D01*
X95224196Y-111545781D01*
X95178401Y-111438014D01*
X95172032Y-111423025D01*
X94711584Y-110539362D01*
X94640858Y-110426277D01*
X94047847Y-109625528D01*
X94047843Y-109625522D01*
X93960298Y-109524893D01*
X93249318Y-108826766D01*
X93147109Y-108741071D01*
X92335672Y-108162761D01*
X92250185Y-108111442D01*
X92221316Y-108094111D01*
X91329405Y-107649859D01*
X91329400Y-107649856D01*
X91205713Y-107599940D01*
X90330830Y-107324470D01*
X90326855Y-107322345D01*
X90166629Y-107273742D01*
X90041749Y-107261442D01*
X86659000Y-107261442D01*
X86659000Y-102188390D01*
X89689924Y-102188390D01*
X89786790Y-102422275D01*
X90094906Y-102946082D01*
X90499292Y-103399714D01*
X90984407Y-103765738D01*
X91531608Y-104030087D01*
X92000000Y-103598892D01*
X92000000Y-101720000D01*
X93200000Y-101720000D01*
X93200000Y-103598892D01*
X93668392Y-104030087D01*
X94215593Y-103765738D01*
X94700708Y-103399714D01*
X95105094Y-102946082D01*
X95413210Y-102422275D01*
X95510076Y-102188390D01*
X95065544Y-101720000D01*
X93200000Y-101720000D01*
X92000000Y-101720000D01*
X90134456Y-101720000D01*
X89689924Y-102188390D01*
X86659000Y-102188390D01*
X86659000Y-92122500D01*
X89500000Y-92122500D01*
X89599483Y-92507772D01*
X89776933Y-92913909D01*
X90030207Y-93277624D01*
X90349571Y-93584939D01*
X90556213Y-93717338D01*
X90499292Y-93760286D01*
X90196457Y-94100000D01*
X90134456Y-94100000D01*
X89689924Y-94568390D01*
X89773423Y-94770000D01*
X89689924Y-94971610D01*
X90134456Y-95440000D01*
X90196457Y-95440000D01*
X90499292Y-95779714D01*
X90844266Y-96040000D01*
X90499292Y-96300286D01*
X90196457Y-96640000D01*
X90134456Y-96640000D01*
X89689924Y-97108390D01*
X89773423Y-97310000D01*
X89689924Y-97511610D01*
X90134456Y-97980000D01*
X90196457Y-97980000D01*
X90499292Y-98319714D01*
X90844266Y-98580000D01*
X90499292Y-98840286D01*
X90196457Y-99180000D01*
X90134456Y-99180000D01*
X89689924Y-99648390D01*
X89773423Y-99850000D01*
X89689924Y-100051610D01*
X90134456Y-100520000D01*
X90196457Y-100520000D01*
X90499292Y-100859714D01*
X90984407Y-101225738D01*
X91531608Y-101490087D01*
X92000000Y-101058892D01*
X92000000Y-98641108D01*
X91933621Y-98580000D01*
X92000000Y-98518892D01*
X92000000Y-96101108D01*
X91933621Y-96040000D01*
X92000000Y-95978892D01*
X92000000Y-93561108D01*
X91966881Y-93530619D01*
X92000000Y-93497500D01*
X92000000Y-91021108D01*
X93200000Y-91021108D01*
X93200000Y-93497500D01*
X93233119Y-93530619D01*
X93200000Y-93561108D01*
X93200000Y-95978892D01*
X93266379Y-96040000D01*
X93200000Y-96101108D01*
X93200000Y-98518892D01*
X93266379Y-98580000D01*
X93200000Y-98641108D01*
X93200000Y-101058892D01*
X93668392Y-101490087D01*
X94215593Y-101225738D01*
X94700708Y-100859714D01*
X95003543Y-100520000D01*
X95065544Y-100520000D01*
X95510076Y-100051610D01*
X95426577Y-99850000D01*
X95510076Y-99648390D01*
X95065544Y-99180000D01*
X95003543Y-99180000D01*
X94700708Y-98840286D01*
X94355734Y-98580000D01*
X94700708Y-98319714D01*
X95003543Y-97980000D01*
X95065544Y-97980000D01*
X95510076Y-97511610D01*
X95426577Y-97310000D01*
X95510076Y-97108390D01*
X95065544Y-96640000D01*
X95003543Y-96640000D01*
X94700708Y-96300286D01*
X94613055Y-96234151D01*
X104526509Y-96234151D01*
X104636218Y-96928338D01*
X105335101Y-97167542D01*
X106067222Y-97265805D01*
X106804445Y-97219351D01*
X107518439Y-97029963D01*
X107763782Y-96928338D01*
X107799868Y-96700000D01*
X122893872Y-96700000D01*
X122893872Y-98700000D01*
X122908353Y-98847026D01*
X122951239Y-98988401D01*
X123020881Y-99118693D01*
X123114605Y-99232895D01*
X123228807Y-99326619D01*
X123359099Y-99396261D01*
X123500474Y-99439147D01*
X123647500Y-99453628D01*
X125552500Y-99453628D01*
X125699526Y-99439147D01*
X125840901Y-99396261D01*
X125971193Y-99326619D01*
X126085395Y-99232895D01*
X126158199Y-99144184D01*
X126189566Y-99169926D01*
X126485330Y-99328015D01*
X126806253Y-99425366D01*
X126973888Y-99441877D01*
X126996770Y-99486176D01*
X127387526Y-99976240D01*
X127866381Y-100380655D01*
X128414932Y-100683879D01*
X128497369Y-100723637D01*
X128977500Y-100292317D01*
X128977500Y-98450000D01*
X130382500Y-98450000D01*
X130382500Y-100292317D01*
X130862631Y-100723637D01*
X130945068Y-100683879D01*
X131493619Y-100380655D01*
X131972474Y-99976240D01*
X132363230Y-99486176D01*
X132650871Y-98929296D01*
X132236668Y-98450000D01*
X130382500Y-98450000D01*
X128977500Y-98450000D01*
X128910000Y-98450000D01*
X128910000Y-96950000D01*
X128977500Y-96950000D01*
X128977500Y-95107683D01*
X130382500Y-95107683D01*
X130382500Y-96950000D01*
X132236668Y-96950000D01*
X132650871Y-96470704D01*
X132528687Y-96234151D01*
X147526509Y-96234151D01*
X147636218Y-96928338D01*
X148335101Y-97167542D01*
X149067222Y-97265805D01*
X149804445Y-97219351D01*
X150518439Y-97029963D01*
X150763782Y-96928338D01*
X150873491Y-96234151D01*
X149200000Y-94560660D01*
X147526509Y-96234151D01*
X132528687Y-96234151D01*
X132363230Y-95913824D01*
X131972474Y-95423760D01*
X131493619Y-95019345D01*
X130945068Y-94716121D01*
X130862631Y-94676363D01*
X130382500Y-95107683D01*
X128977500Y-95107683D01*
X128497369Y-94676363D01*
X128414932Y-94716121D01*
X127866381Y-95019345D01*
X127387526Y-95423760D01*
X126996770Y-95913824D01*
X126973888Y-95958123D01*
X126806252Y-95974634D01*
X126485329Y-96071985D01*
X126189565Y-96230074D01*
X126158199Y-96255816D01*
X126085395Y-96167105D01*
X125971193Y-96073381D01*
X125840901Y-96003739D01*
X125699526Y-95960853D01*
X125552500Y-95946372D01*
X123647500Y-95946372D01*
X123500474Y-95960853D01*
X123359099Y-96003739D01*
X123228807Y-96073381D01*
X123114605Y-96167105D01*
X123020881Y-96281307D01*
X122951239Y-96411599D01*
X122908353Y-96552974D01*
X122893872Y-96700000D01*
X107799868Y-96700000D01*
X107873491Y-96234151D01*
X106200000Y-94560660D01*
X104526509Y-96234151D01*
X94613055Y-96234151D01*
X94355734Y-96040000D01*
X94700708Y-95779714D01*
X95003543Y-95440000D01*
X95065544Y-95440000D01*
X95510076Y-94971610D01*
X95426577Y-94770000D01*
X95510076Y-94568390D01*
X95065544Y-94100000D01*
X95003543Y-94100000D01*
X94700708Y-93760286D01*
X94643787Y-93717338D01*
X94850429Y-93584939D01*
X95076682Y-93367222D01*
X102434195Y-93367222D01*
X102480649Y-94104445D01*
X102670037Y-94818439D01*
X102771662Y-95063782D01*
X103465849Y-95173491D01*
X105139340Y-93500000D01*
X107260660Y-93500000D01*
X108934151Y-95173491D01*
X109628338Y-95063782D01*
X109867542Y-94364899D01*
X109965805Y-93632778D01*
X109949072Y-93367222D01*
X145434195Y-93367222D01*
X145480649Y-94104445D01*
X145670037Y-94818439D01*
X145771662Y-95063782D01*
X146465849Y-95173491D01*
X148139340Y-93500000D01*
X150260660Y-93500000D01*
X151934151Y-95173491D01*
X152628338Y-95063782D01*
X152867542Y-94364899D01*
X152965805Y-93632778D01*
X152919351Y-92895555D01*
X152729963Y-92181561D01*
X152628338Y-91936218D01*
X151934151Y-91826509D01*
X150260660Y-93500000D01*
X148139340Y-93500000D01*
X146465849Y-91826509D01*
X145771662Y-91936218D01*
X145532458Y-92635101D01*
X145434195Y-93367222D01*
X109949072Y-93367222D01*
X109919351Y-92895555D01*
X109729963Y-92181561D01*
X109628338Y-91936218D01*
X108934151Y-91826509D01*
X107260660Y-93500000D01*
X105139340Y-93500000D01*
X103465849Y-91826509D01*
X102771662Y-91936218D01*
X102532458Y-92635101D01*
X102434195Y-93367222D01*
X95076682Y-93367222D01*
X95169793Y-93277624D01*
X95423067Y-92913909D01*
X95600517Y-92507772D01*
X95700000Y-92122500D01*
X95137500Y-91560000D01*
X95003543Y-91560000D01*
X94700708Y-91220286D01*
X94215593Y-90854262D01*
X94032579Y-90765849D01*
X104526509Y-90765849D01*
X106200000Y-92439340D01*
X107873491Y-90765849D01*
X147526509Y-90765849D01*
X149200000Y-92439340D01*
X150873491Y-90765849D01*
X150763782Y-90071662D01*
X150064899Y-89832458D01*
X149332778Y-89734195D01*
X148595555Y-89780649D01*
X147881561Y-89970037D01*
X147636218Y-90071662D01*
X147526509Y-90765849D01*
X107873491Y-90765849D01*
X107763782Y-90071662D01*
X107064899Y-89832458D01*
X106332778Y-89734195D01*
X105595555Y-89780649D01*
X104881561Y-89970037D01*
X104636218Y-90071662D01*
X104526509Y-90765849D01*
X94032579Y-90765849D01*
X93668392Y-90589913D01*
X93200000Y-91021108D01*
X92000000Y-91021108D01*
X91531608Y-90589913D01*
X90984407Y-90854262D01*
X90499292Y-91220286D01*
X90196457Y-91560000D01*
X90062500Y-91560000D01*
X89500000Y-92122500D01*
X86659000Y-92122500D01*
X86659000Y-89797500D01*
X89500000Y-89797500D01*
X90062500Y-90360000D01*
X92000000Y-90360000D01*
X92000000Y-88422500D01*
X93200000Y-88422500D01*
X93200000Y-90360000D01*
X95137500Y-90360000D01*
X95700000Y-89797500D01*
X95600517Y-89412228D01*
X95423067Y-89006091D01*
X95169793Y-88642376D01*
X94850429Y-88335061D01*
X94477246Y-88095956D01*
X94064588Y-87934249D01*
X93762500Y-87860000D01*
X93200000Y-88422500D01*
X92000000Y-88422500D01*
X91437500Y-87860000D01*
X91135412Y-87934249D01*
X90722754Y-88095956D01*
X90349571Y-88335061D01*
X90030207Y-88642376D01*
X89776933Y-89006091D01*
X89599483Y-89412228D01*
X89500000Y-89797500D01*
X86659000Y-89797500D01*
X86659000Y-82850000D01*
X90041749Y-82850000D01*
X90083160Y-82845921D01*
X90083171Y-82845921D01*
X90083182Y-82845919D01*
X90166629Y-82837700D01*
X90230672Y-82818273D01*
X90565763Y-82730893D01*
X90608769Y-82715988D01*
X90652481Y-82703244D01*
X91584256Y-82350160D01*
X91704889Y-82293257D01*
X92569959Y-81798759D01*
X92680205Y-81723685D01*
X93457268Y-81099948D01*
X93480410Y-81078176D01*
X93554413Y-81008553D01*
X94224335Y-80270937D01*
X94228181Y-80265970D01*
X94266972Y-80215863D01*
X94305986Y-80165470D01*
X94305988Y-80165467D01*
X94852272Y-79332133D01*
X94882167Y-79277634D01*
X94916419Y-79215192D01*
X95302920Y-78357054D01*
X95461669Y-79078149D01*
X95745706Y-79763874D01*
X96203771Y-79899649D01*
X96231823Y-79986738D01*
X96435160Y-80367155D01*
X97086749Y-80301119D01*
X97274665Y-80113203D01*
X97436318Y-80159239D01*
X97489083Y-80323049D01*
X97298881Y-80513251D01*
X97232845Y-81164840D01*
X97697350Y-81403007D01*
X97702822Y-81404565D01*
X97836126Y-81854294D01*
X98707675Y-82194700D01*
X99628888Y-82358534D01*
X100564363Y-82339501D01*
X101478149Y-82138331D01*
X102163874Y-81854294D01*
X102299649Y-81396229D01*
X102386738Y-81368177D01*
X102767155Y-81164840D01*
X102701119Y-80513251D01*
X102513203Y-80325335D01*
X102559239Y-80163682D01*
X102723049Y-80110917D01*
X102884490Y-80272358D01*
X102935160Y-80367155D01*
X103250000Y-80335247D01*
X103564840Y-80367155D01*
X103611273Y-80276595D01*
X103774665Y-80113203D01*
X103936318Y-80159239D01*
X103989083Y-80323049D01*
X103798881Y-80513251D01*
X103732845Y-81164840D01*
X104197350Y-81403007D01*
X104202822Y-81404565D01*
X104336126Y-81854294D01*
X105207675Y-82194700D01*
X106128888Y-82358534D01*
X107064363Y-82339501D01*
X107978149Y-82138331D01*
X108663874Y-81854294D01*
X108799649Y-81396229D01*
X108886738Y-81368177D01*
X109267155Y-81164840D01*
X109201119Y-80513251D01*
X109013203Y-80325335D01*
X109059239Y-80163682D01*
X109223049Y-80110917D01*
X109413251Y-80301119D01*
X110064840Y-80367155D01*
X110303007Y-79902650D01*
X110304565Y-79897178D01*
X110754294Y-79763874D01*
X110787026Y-79680069D01*
X110833810Y-79726853D01*
X111281390Y-79279273D01*
X111485746Y-80048360D01*
X112314245Y-80363534D01*
X113188312Y-80511020D01*
X114074357Y-80485149D01*
X114938331Y-80286916D01*
X115514254Y-80048360D01*
X115718610Y-79279271D01*
X113500000Y-77060660D01*
X113485858Y-77074803D01*
X112425197Y-76014142D01*
X112439340Y-76000000D01*
X112425197Y-75985858D01*
X113485858Y-74925197D01*
X113500000Y-74939340D01*
X113514142Y-74925197D01*
X114574803Y-75985858D01*
X114560660Y-76000000D01*
X116779271Y-78218610D01*
X117548360Y-78014254D01*
X117863534Y-77185755D01*
X118011020Y-76311688D01*
X117985149Y-75425643D01*
X117786916Y-74561669D01*
X117548360Y-73985746D01*
X116779273Y-73781390D01*
X117226853Y-73333810D01*
X116735564Y-72842521D01*
X135664436Y-72842521D01*
X135173147Y-73333810D01*
M02*
