M48
; DRILL file {KiCad (5.1.5)-3} date 05/07/20 21:49:00
; FORMAT={-:-/ absolute / inch / decimal}
; #@! TF.CreationDate,2020-05-07T21:49:00-04:00
; #@! TF.GenerationSoftware,Kicad,Pcbnew,(5.1.5)-3
FMAT,2
INCH
T1C0.0197
T2C0.0394
T3C0.0433
T4C0.0925
T5C0.0984
T6C0.1250
%
G90
G05
T1
X5.6703Y-3.0512
X5.6919Y-2.999
X5.6919Y-3.1034
X5.7441Y-2.9774
X5.7441Y-3.125
X5.7963Y-2.999
X5.7963Y-3.1034
X5.8179Y-3.0512
X3.8632Y-3.0551
X3.8848Y-3.0029
X3.8848Y-3.1073
X3.937Y-2.9813
X3.937Y-3.1289
X3.9892Y-3.0029
X3.9892Y-3.1073
X4.0108Y-3.0551
X5.6703Y-4.3307
X5.6919Y-4.2785
X5.6919Y-4.3829
X5.7441Y-4.2569
X5.7441Y-4.4045
X5.7963Y-4.2785
X5.7963Y-4.3829
X5.8179Y-4.3307
X5.9262Y-3.0512
X5.9478Y-2.999
X5.9478Y-3.1034
X6.0Y-2.9774
X6.0Y-3.125
X6.0522Y-2.999
X6.0522Y-3.1034
X6.0738Y-3.0512
X4.1191Y-3.0551
X4.1407Y-3.0029
X4.1407Y-3.1073
X4.1929Y-2.9813
X4.1929Y-3.1289
X4.2451Y-3.0029
X4.2451Y-3.1073
X4.2667Y-3.0551
X4.1191Y-4.3307
X4.1407Y-4.2785
X4.1407Y-4.3829
X4.1929Y-4.2569
X4.1929Y-4.4045
X4.2451Y-4.2785
X4.2451Y-4.3829
X4.2667Y-4.3307
X3.8632Y-4.3307
X3.8848Y-4.2785
X3.8848Y-4.3829
X3.937Y-4.2569
X3.937Y-4.4045
X3.9892Y-4.2785
X3.9892Y-4.3829
X4.0108Y-4.3307
X5.9262Y-4.3307
X5.9478Y-4.2785
X5.9478Y-4.3829
X6.0Y-4.2569
X6.0Y-4.4045
X6.0522Y-4.2785
X6.0522Y-4.3829
X6.0738Y-4.3307
T2
X4.8055Y-4.4921
X4.9055Y-4.4921
X5.1575Y-4.1929
X5.2575Y-4.1929
X5.3575Y-4.1929
X5.4575Y-4.1929
X5.5575Y-4.1929
X3.6457Y-3.5811
X3.6457Y-3.6811
X3.6457Y-3.7811
X3.6457Y-3.8811
X3.6457Y-3.9811
T3
X4.9055Y-3.8465
X5.0055Y-3.8465
X5.1055Y-3.8465
T4
X4.1811Y-3.6811
X5.874Y-3.6811
T5
X5.7441Y-4.3307
X6.0Y-3.0512
X4.1929Y-3.0551
X4.1929Y-4.3307
X3.937Y-4.3307
X6.0Y-4.3307
X5.7441Y-3.0512
X3.937Y-3.0551
T6
X5.4685Y-4.4921
X4.4685Y-2.9921
X5.4685Y-2.9921
X4.4685Y-4.4921
T0
M30
