G04 #@! TF.GenerationSoftware,KiCad,Pcbnew,(5.1.5)-3*
G04 #@! TF.CreationDate,2020-05-07T21:48:57-04:00*
G04 #@! TF.ProjectId,MOSFET Dummyload,4d4f5346-4554-4204-9475-6d6d796c6f61,rev?*
G04 #@! TF.SameCoordinates,Original*
G04 #@! TF.FileFunction,Copper,L1,Top*
G04 #@! TF.FilePolarity,Positive*
%FSLAX46Y46*%
G04 Gerber Fmt 4.6, Leading zero omitted, Abs format (unit mm)*
G04 Created by KiCad (PCBNEW (5.1.5)-3) date 2020-05-07 21:48:57*
%MOMM*%
%LPD*%
G04 APERTURE LIST*
%ADD10C,0.800000*%
%ADD11C,5.000000*%
%ADD12C,4.500000*%
%ADD13O,1.700000X1.700000*%
%ADD14R,1.700000X1.700000*%
%ADD15O,1.905000X2.000000*%
%ADD16R,1.905000X2.000000*%
%ADD17C,3.000000*%
%ADD18C,2.000000*%
%ADD19C,0.500000*%
G04 APERTURE END LIST*
D10*
X147225825Y-76174175D03*
X145900000Y-75625000D03*
X144574175Y-76174175D03*
X144025000Y-77500000D03*
X144574175Y-78825825D03*
X145900000Y-79375000D03*
X147225825Y-78825825D03*
X147775000Y-77500000D03*
D11*
X145900000Y-77500000D03*
D10*
X153725825Y-108674175D03*
X152400000Y-108125000D03*
X151074175Y-108674175D03*
X150525000Y-110000000D03*
X151074175Y-111325825D03*
X152400000Y-111875000D03*
X153725825Y-111325825D03*
X154275000Y-110000000D03*
D11*
X152400000Y-110000000D03*
D10*
X101325825Y-108674175D03*
X100000000Y-108125000D03*
X98674175Y-108674175D03*
X98125000Y-110000000D03*
X98674175Y-111325825D03*
X100000000Y-111875000D03*
X101325825Y-111325825D03*
X101875000Y-110000000D03*
D11*
X100000000Y-110000000D03*
D10*
X147225825Y-108674175D03*
X145900000Y-108125000D03*
X144574175Y-108674175D03*
X144025000Y-110000000D03*
X144574175Y-111325825D03*
X145900000Y-111875000D03*
X147225825Y-111325825D03*
X147775000Y-110000000D03*
D11*
X145900000Y-110000000D03*
D10*
X105174175Y-108674175D03*
X104625000Y-110000000D03*
X105174175Y-111325825D03*
X106500000Y-111875000D03*
X107825825Y-111325825D03*
X108375000Y-110000000D03*
X107825825Y-108674175D03*
X106500000Y-108125000D03*
D11*
X106500000Y-110000000D03*
D10*
X153725825Y-76174175D03*
X152400000Y-75625000D03*
X151074175Y-76174175D03*
X150525000Y-77500000D03*
X151074175Y-78825825D03*
X152400000Y-79375000D03*
X153725825Y-78825825D03*
X154275000Y-77500000D03*
D11*
X152400000Y-77500000D03*
D10*
X101325825Y-76274175D03*
X100000000Y-75725000D03*
X98674175Y-76274175D03*
X98125000Y-77600000D03*
X98674175Y-78925825D03*
X100000000Y-79475000D03*
X101325825Y-78925825D03*
X101875000Y-77600000D03*
D11*
X100000000Y-77600000D03*
D10*
X107825825Y-76274175D03*
X106500000Y-75725000D03*
X105174175Y-76274175D03*
X104625000Y-77600000D03*
X105174175Y-78925825D03*
X106500000Y-79475000D03*
X107825825Y-78925825D03*
X108375000Y-77600000D03*
D11*
X106500000Y-77600000D03*
D12*
X113500000Y-114100000D03*
X138900000Y-114100000D03*
X138900000Y-76000000D03*
X113500000Y-76000000D03*
D13*
X92600000Y-101120000D03*
X92600000Y-98580000D03*
X92600000Y-96040000D03*
X92600000Y-93500000D03*
D14*
X92600000Y-90960000D03*
D15*
X129680000Y-97700000D03*
X127140000Y-97700000D03*
D16*
X124600000Y-97700000D03*
D13*
X141160000Y-106500000D03*
X138620000Y-106500000D03*
X136080000Y-106500000D03*
X133540000Y-106500000D03*
D14*
X131000000Y-106500000D03*
D13*
X122060000Y-114100000D03*
D14*
X124600000Y-114100000D03*
D17*
X106200000Y-93500000D03*
X149200000Y-93500000D03*
D18*
X124600000Y-103300000D02*
X124600000Y-97900000D01*
X124600000Y-114100000D02*
X124600000Y-103300000D01*
X131000000Y-106500000D02*
X131000000Y-104600000D01*
X131000000Y-104600000D02*
X131000000Y-103360000D01*
X131000000Y-106500000D02*
X141160000Y-106500000D01*
X131000000Y-103360000D02*
X140660000Y-103360000D01*
X141160000Y-103860000D02*
X141160000Y-106500000D01*
X140660000Y-103360000D02*
X141160000Y-103860000D01*
X131000000Y-104600000D02*
X139900000Y-104600000D01*
X127140000Y-100900000D02*
X127140000Y-97900000D01*
X129600000Y-103360000D02*
X127140000Y-100900000D01*
X131000000Y-103360000D02*
X129600000Y-103360000D01*
D19*
G36*
X156618950Y-76047470D02*
G01*
X156621413Y-76072480D01*
X156641866Y-76418303D01*
X156648108Y-76463378D01*
X156652095Y-76508740D01*
X156816940Y-77491440D01*
X156826149Y-77528313D01*
X156849259Y-77620847D01*
X157165804Y-78565661D01*
X157179730Y-78598432D01*
X157217968Y-78688417D01*
X157678416Y-79572080D01*
X157734013Y-79660975D01*
X157749142Y-79685165D01*
X158342157Y-80485920D01*
X158429702Y-80586549D01*
X159140676Y-81284669D01*
X159140682Y-81284676D01*
X159242891Y-81370371D01*
X160054328Y-81948681D01*
X160168684Y-82017331D01*
X161060600Y-82461586D01*
X161184287Y-82511502D01*
X161184291Y-82511503D01*
X162059170Y-82786972D01*
X162063145Y-82789097D01*
X162223371Y-82837700D01*
X162348251Y-82850000D01*
X165731001Y-82850000D01*
X165731000Y-107261442D01*
X162348251Y-107261442D01*
X162306840Y-107265521D01*
X162306828Y-107265521D01*
X162306816Y-107265523D01*
X162223371Y-107273742D01*
X162159328Y-107293169D01*
X161824237Y-107380549D01*
X161781229Y-107395455D01*
X161737519Y-107408198D01*
X160805744Y-107761281D01*
X160691511Y-107815166D01*
X160685111Y-107818185D01*
X159820041Y-108312683D01*
X159709795Y-108387756D01*
X159709788Y-108387763D01*
X158932732Y-109011494D01*
X158835587Y-109102889D01*
X158165665Y-109840505D01*
X158165664Y-109840506D01*
X158084013Y-109945973D01*
X157537728Y-110779309D01*
X157483601Y-110877984D01*
X157473581Y-110896250D01*
X157064383Y-111804782D01*
X157019319Y-111930319D01*
X156757285Y-112891678D01*
X156757285Y-112891679D01*
X156732414Y-113022719D01*
X156632597Y-113934653D01*
X156631251Y-113939091D01*
X156618951Y-114063971D01*
X156618950Y-117268921D01*
X95771050Y-117268921D01*
X95771050Y-116557701D01*
X112102959Y-116557701D01*
X112390590Y-116902947D01*
X112958736Y-117065525D01*
X113547681Y-117114138D01*
X114134794Y-117046920D01*
X114609410Y-116902947D01*
X114897041Y-116557701D01*
X137502959Y-116557701D01*
X137790590Y-116902947D01*
X138358736Y-117065525D01*
X138947681Y-117114138D01*
X139534794Y-117046920D01*
X140009410Y-116902947D01*
X140297041Y-116557701D01*
X138900000Y-115160660D01*
X137502959Y-116557701D01*
X114897041Y-116557701D01*
X113500000Y-115160660D01*
X112102959Y-116557701D01*
X95771050Y-116557701D01*
X95771050Y-114147681D01*
X110485862Y-114147681D01*
X110553080Y-114734794D01*
X110697053Y-115209410D01*
X111042299Y-115497041D01*
X112439340Y-114100000D01*
X114560660Y-114100000D01*
X115957701Y-115497041D01*
X116302947Y-115209410D01*
X116384433Y-114924646D01*
X120688860Y-114924646D01*
X120876087Y-115176297D01*
X121108811Y-115386586D01*
X121235357Y-115471118D01*
X121460000Y-115378732D01*
X121460000Y-114700000D01*
X120764238Y-114700000D01*
X120688860Y-114924646D01*
X116384433Y-114924646D01*
X116465525Y-114641264D01*
X116514138Y-114052319D01*
X116446920Y-113465206D01*
X116389330Y-113275354D01*
X120688860Y-113275354D01*
X120764238Y-113500000D01*
X121460000Y-113500000D01*
X121460000Y-112821268D01*
X122660000Y-112821268D01*
X122660000Y-113500000D01*
X122830000Y-113500000D01*
X122830000Y-114700000D01*
X122660000Y-114700000D01*
X122660000Y-115378732D01*
X122884643Y-115471118D01*
X123011189Y-115386586D01*
X123093291Y-115312399D01*
X123123381Y-115368693D01*
X123217105Y-115482895D01*
X123331307Y-115576619D01*
X123461599Y-115646261D01*
X123602974Y-115689147D01*
X123750000Y-115703628D01*
X123887806Y-115703628D01*
X123927064Y-115724612D01*
X124256940Y-115824679D01*
X124600000Y-115858467D01*
X124943059Y-115824679D01*
X125272935Y-115724612D01*
X125312193Y-115703628D01*
X125450000Y-115703628D01*
X125597026Y-115689147D01*
X125738401Y-115646261D01*
X125868693Y-115576619D01*
X125982895Y-115482895D01*
X126076619Y-115368693D01*
X126146261Y-115238401D01*
X126189147Y-115097026D01*
X126203628Y-114950000D01*
X126203628Y-114812194D01*
X126224612Y-114772936D01*
X126324679Y-114443060D01*
X126350000Y-114185968D01*
X126350000Y-114147681D01*
X135885862Y-114147681D01*
X135953080Y-114734794D01*
X136097053Y-115209410D01*
X136442299Y-115497041D01*
X137839340Y-114100000D01*
X139960660Y-114100000D01*
X141357701Y-115497041D01*
X141702947Y-115209410D01*
X141865525Y-114641264D01*
X141914138Y-114052319D01*
X141846920Y-113465206D01*
X141702947Y-112990590D01*
X141357701Y-112702959D01*
X139960660Y-114100000D01*
X137839340Y-114100000D01*
X136442299Y-112702959D01*
X136097053Y-112990590D01*
X135934475Y-113558736D01*
X135885862Y-114147681D01*
X126350000Y-114147681D01*
X126350000Y-111642299D01*
X137502959Y-111642299D01*
X138900000Y-113039340D01*
X139831192Y-112108148D01*
X144003984Y-112108148D01*
X144022051Y-112340954D01*
X144230701Y-112429163D01*
X144452552Y-112474970D01*
X144485451Y-112475209D01*
X144319291Y-112641369D01*
X144638524Y-113012248D01*
X145250423Y-113200470D01*
X145887286Y-113265700D01*
X146524636Y-113205430D01*
X147137982Y-113021979D01*
X147161476Y-113012248D01*
X147480709Y-112641369D01*
X147315849Y-112476509D01*
X147330726Y-112476617D01*
X147553218Y-112434040D01*
X147763130Y-112348874D01*
X147777949Y-112340954D01*
X147796016Y-112108148D01*
X150503984Y-112108148D01*
X150522051Y-112340954D01*
X150730701Y-112429163D01*
X150952552Y-112474970D01*
X150985451Y-112475209D01*
X150819291Y-112641369D01*
X151138524Y-113012248D01*
X151750423Y-113200470D01*
X152387286Y-113265700D01*
X153024636Y-113205430D01*
X153637982Y-113021979D01*
X153661476Y-113012248D01*
X153980709Y-112641369D01*
X153815849Y-112476509D01*
X153830726Y-112476617D01*
X154053218Y-112434040D01*
X154263130Y-112348874D01*
X154277949Y-112340954D01*
X154296016Y-112108148D01*
X153725825Y-111537957D01*
X153710644Y-111553139D01*
X153498512Y-111341007D01*
X153513693Y-111325825D01*
X152943502Y-110755634D01*
X152915326Y-110757821D01*
X152685921Y-110528416D01*
X152488721Y-110725616D01*
X152309979Y-110724316D01*
X152114079Y-110528416D01*
X151884674Y-110757821D01*
X151856498Y-110755634D01*
X151286307Y-111325825D01*
X151301489Y-111341007D01*
X151089357Y-111553139D01*
X151074175Y-111537957D01*
X150503984Y-112108148D01*
X147796016Y-112108148D01*
X147225825Y-111537957D01*
X147210644Y-111553139D01*
X146998512Y-111341007D01*
X147013693Y-111325825D01*
X146443502Y-110755634D01*
X146415326Y-110757821D01*
X146185921Y-110528416D01*
X145988721Y-110725616D01*
X145809979Y-110724316D01*
X145614079Y-110528416D01*
X145384674Y-110757821D01*
X145356498Y-110755634D01*
X144786307Y-111325825D01*
X144801489Y-111341007D01*
X144589357Y-111553139D01*
X144574175Y-111537957D01*
X144003984Y-112108148D01*
X139831192Y-112108148D01*
X140297041Y-111642299D01*
X140009410Y-111297053D01*
X139441264Y-111134475D01*
X138852319Y-111085862D01*
X138265206Y-111153080D01*
X137790590Y-111297053D01*
X137502959Y-111642299D01*
X126350000Y-111642299D01*
X126350000Y-109987286D01*
X142634300Y-109987286D01*
X142694570Y-110624636D01*
X142878021Y-111237982D01*
X142887752Y-111261476D01*
X143258631Y-111580709D01*
X143423491Y-111415849D01*
X143423383Y-111430726D01*
X143465960Y-111653218D01*
X143551126Y-111863130D01*
X143559046Y-111877949D01*
X143791852Y-111896016D01*
X144362043Y-111325825D01*
X144346862Y-111310644D01*
X144558994Y-111098512D01*
X144574175Y-111113693D01*
X145144366Y-110543502D01*
X145142179Y-110515326D01*
X145371584Y-110285921D01*
X145174384Y-110088721D01*
X145175684Y-109909979D01*
X145371584Y-109714079D01*
X146428416Y-109714079D01*
X146625616Y-109911279D01*
X146624316Y-110090021D01*
X146428416Y-110285921D01*
X146657821Y-110515326D01*
X146655634Y-110543502D01*
X147225825Y-111113693D01*
X147241007Y-111098512D01*
X147453139Y-111310644D01*
X147437957Y-111325825D01*
X148008148Y-111896016D01*
X148240954Y-111877949D01*
X148329163Y-111669299D01*
X148374970Y-111447448D01*
X148375209Y-111414549D01*
X148541369Y-111580709D01*
X148912248Y-111261476D01*
X149100470Y-110649577D01*
X149150624Y-110159908D01*
X149194570Y-110624636D01*
X149378021Y-111237982D01*
X149387752Y-111261476D01*
X149758631Y-111580709D01*
X149923491Y-111415849D01*
X149923383Y-111430726D01*
X149965960Y-111653218D01*
X150051126Y-111863130D01*
X150059046Y-111877949D01*
X150291852Y-111896016D01*
X150862043Y-111325825D01*
X150846862Y-111310644D01*
X151058994Y-111098512D01*
X151074175Y-111113693D01*
X151644366Y-110543502D01*
X151642179Y-110515326D01*
X151871584Y-110285921D01*
X151674384Y-110088721D01*
X151675684Y-109909979D01*
X151871584Y-109714079D01*
X152928416Y-109714079D01*
X153125616Y-109911279D01*
X153124316Y-110090021D01*
X152928416Y-110285921D01*
X153157821Y-110515326D01*
X153155634Y-110543502D01*
X153725825Y-111113693D01*
X153741007Y-111098512D01*
X153953139Y-111310644D01*
X153937957Y-111325825D01*
X154508148Y-111896016D01*
X154740954Y-111877949D01*
X154829163Y-111669299D01*
X154874970Y-111447448D01*
X154875209Y-111414549D01*
X155041369Y-111580709D01*
X155412248Y-111261476D01*
X155600470Y-110649577D01*
X155665700Y-110012714D01*
X155605430Y-109375364D01*
X155421979Y-108762018D01*
X155412248Y-108738524D01*
X155041369Y-108419291D01*
X154876509Y-108584151D01*
X154876617Y-108569274D01*
X154834040Y-108346782D01*
X154748874Y-108136870D01*
X154740954Y-108122051D01*
X154508148Y-108103984D01*
X153937957Y-108674175D01*
X153953139Y-108689357D01*
X153741007Y-108901489D01*
X153725825Y-108886307D01*
X153155634Y-109456498D01*
X153157821Y-109484674D01*
X152928416Y-109714079D01*
X151871584Y-109714079D01*
X151642179Y-109484674D01*
X151644366Y-109456498D01*
X151074175Y-108886307D01*
X151058994Y-108901489D01*
X150846862Y-108689357D01*
X150862043Y-108674175D01*
X150291852Y-108103984D01*
X150059046Y-108122051D01*
X149970837Y-108330701D01*
X149925030Y-108552552D01*
X149924791Y-108585451D01*
X149758631Y-108419291D01*
X149387752Y-108738524D01*
X149199530Y-109350423D01*
X149149376Y-109840092D01*
X149105430Y-109375364D01*
X148921979Y-108762018D01*
X148912248Y-108738524D01*
X148541369Y-108419291D01*
X148376509Y-108584151D01*
X148376617Y-108569274D01*
X148334040Y-108346782D01*
X148248874Y-108136870D01*
X148240954Y-108122051D01*
X148008148Y-108103984D01*
X147437957Y-108674175D01*
X147453139Y-108689357D01*
X147241007Y-108901489D01*
X147225825Y-108886307D01*
X146655634Y-109456498D01*
X146657821Y-109484674D01*
X146428416Y-109714079D01*
X145371584Y-109714079D01*
X145142179Y-109484674D01*
X145144366Y-109456498D01*
X144574175Y-108886307D01*
X144558994Y-108901489D01*
X144346862Y-108689357D01*
X144362043Y-108674175D01*
X143791852Y-108103984D01*
X143559046Y-108122051D01*
X143470837Y-108330701D01*
X143425030Y-108552552D01*
X143424791Y-108585451D01*
X143258631Y-108419291D01*
X142887752Y-108738524D01*
X142699530Y-109350423D01*
X142634300Y-109987286D01*
X126350000Y-109987286D01*
X126350000Y-102584873D01*
X128301774Y-104536648D01*
X128356576Y-104603424D01*
X128423350Y-104658224D01*
X128423351Y-104658225D01*
X128623047Y-104822112D01*
X128768766Y-104900000D01*
X128927064Y-104984612D01*
X129250001Y-105082574D01*
X129250000Y-106414031D01*
X129241533Y-106500000D01*
X129275321Y-106843060D01*
X129375388Y-107172936D01*
X129396372Y-107212194D01*
X129396372Y-107350000D01*
X129410853Y-107497026D01*
X129453739Y-107638401D01*
X129523381Y-107768693D01*
X129617105Y-107882895D01*
X129731307Y-107976619D01*
X129861599Y-108046261D01*
X130002974Y-108089147D01*
X130150000Y-108103628D01*
X130287806Y-108103628D01*
X130327064Y-108124612D01*
X130656940Y-108224679D01*
X131000000Y-108258467D01*
X131085968Y-108250000D01*
X141074032Y-108250000D01*
X141160000Y-108258467D01*
X141245968Y-108250000D01*
X141503060Y-108224679D01*
X141832936Y-108124612D01*
X142136952Y-107962112D01*
X142222564Y-107891852D01*
X144003984Y-107891852D01*
X144574175Y-108462043D01*
X144589357Y-108446862D01*
X144801489Y-108658994D01*
X144786307Y-108674175D01*
X145356498Y-109244366D01*
X145384674Y-109242179D01*
X145614079Y-109471584D01*
X145811279Y-109274384D01*
X145990021Y-109275684D01*
X146185921Y-109471584D01*
X146415326Y-109242179D01*
X146443502Y-109244366D01*
X147013693Y-108674175D01*
X146998512Y-108658994D01*
X147210644Y-108446862D01*
X147225825Y-108462043D01*
X147796016Y-107891852D01*
X150503984Y-107891852D01*
X151074175Y-108462043D01*
X151089357Y-108446862D01*
X151301489Y-108658994D01*
X151286307Y-108674175D01*
X151856498Y-109244366D01*
X151884674Y-109242179D01*
X152114079Y-109471584D01*
X152311279Y-109274384D01*
X152490021Y-109275684D01*
X152685921Y-109471584D01*
X152915326Y-109242179D01*
X152943502Y-109244366D01*
X153513693Y-108674175D01*
X153498512Y-108658994D01*
X153710644Y-108446862D01*
X153725825Y-108462043D01*
X154296016Y-107891852D01*
X154277949Y-107659046D01*
X154069299Y-107570837D01*
X153847448Y-107525030D01*
X153814549Y-107524791D01*
X153980709Y-107358631D01*
X153661476Y-106987752D01*
X153049577Y-106799530D01*
X152412714Y-106734300D01*
X151775364Y-106794570D01*
X151162018Y-106978021D01*
X151138524Y-106987752D01*
X150819291Y-107358631D01*
X150984151Y-107523491D01*
X150969274Y-107523383D01*
X150746782Y-107565960D01*
X150536870Y-107651126D01*
X150522051Y-107659046D01*
X150503984Y-107891852D01*
X147796016Y-107891852D01*
X147777949Y-107659046D01*
X147569299Y-107570837D01*
X147347448Y-107525030D01*
X147314549Y-107524791D01*
X147480709Y-107358631D01*
X147161476Y-106987752D01*
X146549577Y-106799530D01*
X145912714Y-106734300D01*
X145275364Y-106794570D01*
X144662018Y-106978021D01*
X144638524Y-106987752D01*
X144319291Y-107358631D01*
X144484151Y-107523491D01*
X144469274Y-107523383D01*
X144246782Y-107565960D01*
X144036870Y-107651126D01*
X144022051Y-107659046D01*
X144003984Y-107891852D01*
X142222564Y-107891852D01*
X142403424Y-107743424D01*
X142622112Y-107476952D01*
X142784612Y-107172936D01*
X142884679Y-106843060D01*
X142918467Y-106500000D01*
X142910000Y-106414032D01*
X142910000Y-103945966D01*
X142918467Y-103860000D01*
X142903010Y-103703060D01*
X142884679Y-103516940D01*
X142784612Y-103187064D01*
X142622112Y-102883048D01*
X142403424Y-102616576D01*
X142336645Y-102561772D01*
X141958229Y-102183356D01*
X141903424Y-102116576D01*
X141636952Y-101897888D01*
X141332936Y-101735388D01*
X141003060Y-101635321D01*
X140745968Y-101610000D01*
X140745965Y-101610000D01*
X140660000Y-101601533D01*
X140574035Y-101610000D01*
X131085968Y-101610000D01*
X131000000Y-101601533D01*
X130914032Y-101610000D01*
X130324874Y-101610000D01*
X128890000Y-100175127D01*
X128890000Y-99119529D01*
X128977500Y-99089781D01*
X128977500Y-98450000D01*
X130382500Y-98450000D01*
X130382500Y-99089781D01*
X130616451Y-99169318D01*
X130626041Y-99151146D01*
X130881701Y-98939612D01*
X131091180Y-98682266D01*
X131032536Y-98450000D01*
X130382500Y-98450000D01*
X128977500Y-98450000D01*
X128910000Y-98450000D01*
X128910000Y-96950000D01*
X128977500Y-96950000D01*
X128977500Y-96310219D01*
X130382500Y-96310219D01*
X130382500Y-96950000D01*
X131032536Y-96950000D01*
X131091180Y-96717734D01*
X130881701Y-96460388D01*
X130626041Y-96248854D01*
X130616451Y-96230682D01*
X130382500Y-96310219D01*
X128977500Y-96310219D01*
X128743549Y-96230682D01*
X128733959Y-96248854D01*
X128478299Y-96460388D01*
X128421426Y-96530256D01*
X128349674Y-96442826D01*
X128090434Y-96230074D01*
X127794670Y-96071985D01*
X127473747Y-95974634D01*
X127140000Y-95941763D01*
X126806252Y-95974634D01*
X126485329Y-96071985D01*
X126189565Y-96230074D01*
X126158199Y-96255816D01*
X126085395Y-96167105D01*
X125971193Y-96073381D01*
X125840901Y-96003739D01*
X125699526Y-95960853D01*
X125552500Y-95946372D01*
X123647500Y-95946372D01*
X123500474Y-95960853D01*
X123359099Y-96003739D01*
X123228807Y-96073381D01*
X123114605Y-96167105D01*
X123020881Y-96281307D01*
X122951239Y-96411599D01*
X122908353Y-96552974D01*
X122893872Y-96700000D01*
X122893872Y-97495789D01*
X122875322Y-97556940D01*
X122850001Y-97814032D01*
X122850000Y-103385967D01*
X122850001Y-103385977D01*
X122850000Y-112743129D01*
X122660000Y-112821268D01*
X121460000Y-112821268D01*
X121235357Y-112728882D01*
X121108811Y-112813414D01*
X120876087Y-113023703D01*
X120688860Y-113275354D01*
X116389330Y-113275354D01*
X116302947Y-112990590D01*
X115957701Y-112702959D01*
X114560660Y-114100000D01*
X112439340Y-114100000D01*
X111042299Y-112702959D01*
X110697053Y-112990590D01*
X110534475Y-113558736D01*
X110485862Y-114147681D01*
X95771050Y-114147681D01*
X95771050Y-114063971D01*
X95768587Y-114038960D01*
X95748134Y-113693139D01*
X95741889Y-113648044D01*
X95737904Y-113602702D01*
X95573060Y-112620002D01*
X95544424Y-112505341D01*
X95540741Y-112490595D01*
X95412609Y-112108148D01*
X98103984Y-112108148D01*
X98122051Y-112340954D01*
X98330701Y-112429163D01*
X98552552Y-112474970D01*
X98585451Y-112475209D01*
X98419291Y-112641369D01*
X98738524Y-113012248D01*
X99350423Y-113200470D01*
X99987286Y-113265700D01*
X100624636Y-113205430D01*
X101237982Y-113021979D01*
X101261476Y-113012248D01*
X101580709Y-112641369D01*
X101415849Y-112476509D01*
X101430726Y-112476617D01*
X101653218Y-112434040D01*
X101863130Y-112348874D01*
X101877949Y-112340954D01*
X101896016Y-112108148D01*
X104603984Y-112108148D01*
X104622051Y-112340954D01*
X104830701Y-112429163D01*
X105052552Y-112474970D01*
X105085451Y-112475209D01*
X104919291Y-112641369D01*
X105238524Y-113012248D01*
X105850423Y-113200470D01*
X106487286Y-113265700D01*
X107124636Y-113205430D01*
X107737982Y-113021979D01*
X107761476Y-113012248D01*
X108080709Y-112641369D01*
X107915849Y-112476509D01*
X107930726Y-112476617D01*
X108153218Y-112434040D01*
X108363130Y-112348874D01*
X108377949Y-112340954D01*
X108396016Y-112108148D01*
X107825825Y-111537957D01*
X107810644Y-111553139D01*
X107598512Y-111341007D01*
X107613693Y-111325825D01*
X107043502Y-110755634D01*
X107015326Y-110757821D01*
X106785921Y-110528416D01*
X106588721Y-110725616D01*
X106409979Y-110724316D01*
X106214079Y-110528416D01*
X105984674Y-110757821D01*
X105956498Y-110755634D01*
X105386307Y-111325825D01*
X105401489Y-111341007D01*
X105189357Y-111553139D01*
X105174175Y-111537957D01*
X104603984Y-112108148D01*
X101896016Y-112108148D01*
X101325825Y-111537957D01*
X101310644Y-111553139D01*
X101098512Y-111341007D01*
X101113693Y-111325825D01*
X100543502Y-110755634D01*
X100515326Y-110757821D01*
X100285921Y-110528416D01*
X100088721Y-110725616D01*
X99909979Y-110724316D01*
X99714079Y-110528416D01*
X99484674Y-110757821D01*
X99456498Y-110755634D01*
X98886307Y-111325825D01*
X98901489Y-111341007D01*
X98689357Y-111553139D01*
X98674175Y-111537957D01*
X98103984Y-112108148D01*
X95412609Y-112108148D01*
X95224196Y-111545781D01*
X95178401Y-111438014D01*
X95172032Y-111423025D01*
X94711584Y-110539362D01*
X94640858Y-110426277D01*
X94315755Y-109987286D01*
X96734300Y-109987286D01*
X96794570Y-110624636D01*
X96978021Y-111237982D01*
X96987752Y-111261476D01*
X97358631Y-111580709D01*
X97523491Y-111415849D01*
X97523383Y-111430726D01*
X97565960Y-111653218D01*
X97651126Y-111863130D01*
X97659046Y-111877949D01*
X97891852Y-111896016D01*
X98462043Y-111325825D01*
X98446862Y-111310644D01*
X98658994Y-111098512D01*
X98674175Y-111113693D01*
X99244366Y-110543502D01*
X99242179Y-110515326D01*
X99471584Y-110285921D01*
X99274384Y-110088721D01*
X99275684Y-109909979D01*
X99471584Y-109714079D01*
X100528416Y-109714079D01*
X100725616Y-109911279D01*
X100724316Y-110090021D01*
X100528416Y-110285921D01*
X100757821Y-110515326D01*
X100755634Y-110543502D01*
X101325825Y-111113693D01*
X101341007Y-111098512D01*
X101553139Y-111310644D01*
X101537957Y-111325825D01*
X102108148Y-111896016D01*
X102340954Y-111877949D01*
X102429163Y-111669299D01*
X102474970Y-111447448D01*
X102475209Y-111414549D01*
X102641369Y-111580709D01*
X103012248Y-111261476D01*
X103200470Y-110649577D01*
X103250624Y-110159908D01*
X103294570Y-110624636D01*
X103478021Y-111237982D01*
X103487752Y-111261476D01*
X103858631Y-111580709D01*
X104023491Y-111415849D01*
X104023383Y-111430726D01*
X104065960Y-111653218D01*
X104151126Y-111863130D01*
X104159046Y-111877949D01*
X104391852Y-111896016D01*
X104962043Y-111325825D01*
X104946862Y-111310644D01*
X105158994Y-111098512D01*
X105174175Y-111113693D01*
X105744366Y-110543502D01*
X105742179Y-110515326D01*
X105971584Y-110285921D01*
X105774384Y-110088721D01*
X105775684Y-109909979D01*
X105971584Y-109714079D01*
X107028416Y-109714079D01*
X107225616Y-109911279D01*
X107224316Y-110090021D01*
X107028416Y-110285921D01*
X107257821Y-110515326D01*
X107255634Y-110543502D01*
X107825825Y-111113693D01*
X107841007Y-111098512D01*
X108053139Y-111310644D01*
X108037957Y-111325825D01*
X108608148Y-111896016D01*
X108840954Y-111877949D01*
X108929163Y-111669299D01*
X108934737Y-111642299D01*
X112102959Y-111642299D01*
X113500000Y-113039340D01*
X114897041Y-111642299D01*
X114609410Y-111297053D01*
X114041264Y-111134475D01*
X113452319Y-111085862D01*
X112865206Y-111153080D01*
X112390590Y-111297053D01*
X112102959Y-111642299D01*
X108934737Y-111642299D01*
X108974970Y-111447448D01*
X108975209Y-111414549D01*
X109141369Y-111580709D01*
X109512248Y-111261476D01*
X109700470Y-110649577D01*
X109765700Y-110012714D01*
X109705430Y-109375364D01*
X109521979Y-108762018D01*
X109512248Y-108738524D01*
X109141369Y-108419291D01*
X108976509Y-108584151D01*
X108976617Y-108569274D01*
X108934040Y-108346782D01*
X108848874Y-108136870D01*
X108840954Y-108122051D01*
X108608148Y-108103984D01*
X108037957Y-108674175D01*
X108053139Y-108689357D01*
X107841007Y-108901489D01*
X107825825Y-108886307D01*
X107255634Y-109456498D01*
X107257821Y-109484674D01*
X107028416Y-109714079D01*
X105971584Y-109714079D01*
X105742179Y-109484674D01*
X105744366Y-109456498D01*
X105174175Y-108886307D01*
X105158994Y-108901489D01*
X104946862Y-108689357D01*
X104962043Y-108674175D01*
X104391852Y-108103984D01*
X104159046Y-108122051D01*
X104070837Y-108330701D01*
X104025030Y-108552552D01*
X104024791Y-108585451D01*
X103858631Y-108419291D01*
X103487752Y-108738524D01*
X103299530Y-109350423D01*
X103249376Y-109840092D01*
X103205430Y-109375364D01*
X103021979Y-108762018D01*
X103012248Y-108738524D01*
X102641369Y-108419291D01*
X102476509Y-108584151D01*
X102476617Y-108569274D01*
X102434040Y-108346782D01*
X102348874Y-108136870D01*
X102340954Y-108122051D01*
X102108148Y-108103984D01*
X101537957Y-108674175D01*
X101553139Y-108689357D01*
X101341007Y-108901489D01*
X101325825Y-108886307D01*
X100755634Y-109456498D01*
X100757821Y-109484674D01*
X100528416Y-109714079D01*
X99471584Y-109714079D01*
X99242179Y-109484674D01*
X99244366Y-109456498D01*
X98674175Y-108886307D01*
X98658994Y-108901489D01*
X98446862Y-108689357D01*
X98462043Y-108674175D01*
X97891852Y-108103984D01*
X97659046Y-108122051D01*
X97570837Y-108330701D01*
X97525030Y-108552552D01*
X97524791Y-108585451D01*
X97358631Y-108419291D01*
X96987752Y-108738524D01*
X96799530Y-109350423D01*
X96734300Y-109987286D01*
X94315755Y-109987286D01*
X94047847Y-109625528D01*
X94047843Y-109625522D01*
X93960298Y-109524893D01*
X93249318Y-108826766D01*
X93147109Y-108741071D01*
X92335672Y-108162761D01*
X92250185Y-108111442D01*
X92221316Y-108094111D01*
X91815247Y-107891852D01*
X98103984Y-107891852D01*
X98674175Y-108462043D01*
X98689357Y-108446862D01*
X98901489Y-108658994D01*
X98886307Y-108674175D01*
X99456498Y-109244366D01*
X99484674Y-109242179D01*
X99714079Y-109471584D01*
X99911279Y-109274384D01*
X100090021Y-109275684D01*
X100285921Y-109471584D01*
X100515326Y-109242179D01*
X100543502Y-109244366D01*
X101113693Y-108674175D01*
X101098512Y-108658994D01*
X101310644Y-108446862D01*
X101325825Y-108462043D01*
X101896016Y-107891852D01*
X104603984Y-107891852D01*
X105174175Y-108462043D01*
X105189357Y-108446862D01*
X105401489Y-108658994D01*
X105386307Y-108674175D01*
X105956498Y-109244366D01*
X105984674Y-109242179D01*
X106214079Y-109471584D01*
X106411279Y-109274384D01*
X106590021Y-109275684D01*
X106785921Y-109471584D01*
X107015326Y-109242179D01*
X107043502Y-109244366D01*
X107613693Y-108674175D01*
X107598512Y-108658994D01*
X107810644Y-108446862D01*
X107825825Y-108462043D01*
X108396016Y-107891852D01*
X108377949Y-107659046D01*
X108169299Y-107570837D01*
X107947448Y-107525030D01*
X107914549Y-107524791D01*
X108080709Y-107358631D01*
X107761476Y-106987752D01*
X107149577Y-106799530D01*
X106512714Y-106734300D01*
X105875364Y-106794570D01*
X105262018Y-106978021D01*
X105238524Y-106987752D01*
X104919291Y-107358631D01*
X105084151Y-107523491D01*
X105069274Y-107523383D01*
X104846782Y-107565960D01*
X104636870Y-107651126D01*
X104622051Y-107659046D01*
X104603984Y-107891852D01*
X101896016Y-107891852D01*
X101877949Y-107659046D01*
X101669299Y-107570837D01*
X101447448Y-107525030D01*
X101414549Y-107524791D01*
X101580709Y-107358631D01*
X101261476Y-106987752D01*
X100649577Y-106799530D01*
X100012714Y-106734300D01*
X99375364Y-106794570D01*
X98762018Y-106978021D01*
X98738524Y-106987752D01*
X98419291Y-107358631D01*
X98584151Y-107523491D01*
X98569274Y-107523383D01*
X98346782Y-107565960D01*
X98136870Y-107651126D01*
X98122051Y-107659046D01*
X98103984Y-107891852D01*
X91815247Y-107891852D01*
X91329405Y-107649859D01*
X91329400Y-107649856D01*
X91205713Y-107599940D01*
X90330830Y-107324470D01*
X90326855Y-107322345D01*
X90166629Y-107273742D01*
X90041749Y-107261442D01*
X86659000Y-107261442D01*
X86659000Y-101944643D01*
X91228882Y-101944643D01*
X91313414Y-102071189D01*
X91523703Y-102303913D01*
X91775354Y-102491140D01*
X92000000Y-102415762D01*
X92000000Y-101720000D01*
X93200000Y-101720000D01*
X93200000Y-102415762D01*
X93424646Y-102491140D01*
X93676297Y-102303913D01*
X93886586Y-102071189D01*
X93971118Y-101944643D01*
X93878732Y-101720000D01*
X93200000Y-101720000D01*
X92000000Y-101720000D01*
X91321268Y-101720000D01*
X91228882Y-101944643D01*
X86659000Y-101944643D01*
X86659000Y-99404643D01*
X91228882Y-99404643D01*
X91313414Y-99531189D01*
X91523703Y-99763913D01*
X91639412Y-99850000D01*
X91523703Y-99936087D01*
X91313414Y-100168811D01*
X91228882Y-100295357D01*
X91321268Y-100520000D01*
X92000000Y-100520000D01*
X92000000Y-99180000D01*
X93200000Y-99180000D01*
X93200000Y-100520000D01*
X93878732Y-100520000D01*
X93971118Y-100295357D01*
X93886586Y-100168811D01*
X93676297Y-99936087D01*
X93560588Y-99850000D01*
X93676297Y-99763913D01*
X93886586Y-99531189D01*
X93971118Y-99404643D01*
X93878732Y-99180000D01*
X93200000Y-99180000D01*
X92000000Y-99180000D01*
X91321268Y-99180000D01*
X91228882Y-99404643D01*
X86659000Y-99404643D01*
X86659000Y-96864643D01*
X91228882Y-96864643D01*
X91313414Y-96991189D01*
X91523703Y-97223913D01*
X91639412Y-97310000D01*
X91523703Y-97396087D01*
X91313414Y-97628811D01*
X91228882Y-97755357D01*
X91321268Y-97980000D01*
X92000000Y-97980000D01*
X92000000Y-96640000D01*
X93200000Y-96640000D01*
X93200000Y-97980000D01*
X93878732Y-97980000D01*
X93971118Y-97755357D01*
X93886586Y-97628811D01*
X93676297Y-97396087D01*
X93560588Y-97310000D01*
X93676297Y-97223913D01*
X93886586Y-96991189D01*
X93971118Y-96864643D01*
X93878732Y-96640000D01*
X93200000Y-96640000D01*
X92000000Y-96640000D01*
X91321268Y-96640000D01*
X91228882Y-96864643D01*
X86659000Y-96864643D01*
X86659000Y-94324643D01*
X91228882Y-94324643D01*
X91313414Y-94451189D01*
X91523703Y-94683913D01*
X91639412Y-94770000D01*
X91523703Y-94856087D01*
X91313414Y-95088811D01*
X91228882Y-95215357D01*
X91321268Y-95440000D01*
X92000000Y-95440000D01*
X92000000Y-94100000D01*
X93200000Y-94100000D01*
X93200000Y-95440000D01*
X93878732Y-95440000D01*
X93896351Y-95397158D01*
X105363503Y-95397158D01*
X105553097Y-95666362D01*
X105988163Y-95750941D01*
X106431370Y-95749017D01*
X106846903Y-95666362D01*
X107036497Y-95397158D01*
X148363503Y-95397158D01*
X148553097Y-95666362D01*
X148988163Y-95750941D01*
X149431370Y-95749017D01*
X149846903Y-95666362D01*
X150036497Y-95397158D01*
X149200000Y-94560660D01*
X148363503Y-95397158D01*
X107036497Y-95397158D01*
X106200000Y-94560660D01*
X105363503Y-95397158D01*
X93896351Y-95397158D01*
X93971118Y-95215357D01*
X93886586Y-95088811D01*
X93676297Y-94856087D01*
X93560588Y-94770000D01*
X93676297Y-94683913D01*
X93886586Y-94451189D01*
X93971118Y-94324643D01*
X93878732Y-94100000D01*
X93200000Y-94100000D01*
X92000000Y-94100000D01*
X91321268Y-94100000D01*
X91228882Y-94324643D01*
X86659000Y-94324643D01*
X86659000Y-93288163D01*
X103949059Y-93288163D01*
X103950983Y-93731370D01*
X104033638Y-94146903D01*
X104302842Y-94336497D01*
X105139340Y-93500000D01*
X107260660Y-93500000D01*
X108097158Y-94336497D01*
X108366362Y-94146903D01*
X108450941Y-93711837D01*
X108449102Y-93288163D01*
X146949059Y-93288163D01*
X146950983Y-93731370D01*
X147033638Y-94146903D01*
X147302842Y-94336497D01*
X148139340Y-93500000D01*
X150260660Y-93500000D01*
X151097158Y-94336497D01*
X151366362Y-94146903D01*
X151450941Y-93711837D01*
X151449017Y-93268630D01*
X151366362Y-92853097D01*
X151097158Y-92663503D01*
X150260660Y-93500000D01*
X148139340Y-93500000D01*
X147302842Y-92663503D01*
X147033638Y-92853097D01*
X146949059Y-93288163D01*
X108449102Y-93288163D01*
X108449017Y-93268630D01*
X108366362Y-92853097D01*
X108097158Y-92663503D01*
X107260660Y-93500000D01*
X105139340Y-93500000D01*
X104302842Y-92663503D01*
X104033638Y-92853097D01*
X103949059Y-93288163D01*
X86659000Y-93288163D01*
X86659000Y-91810000D01*
X90996371Y-91810000D01*
X91010852Y-91957026D01*
X91053738Y-92098401D01*
X91123380Y-92228694D01*
X91217104Y-92342896D01*
X91331306Y-92436620D01*
X91387601Y-92466710D01*
X91313414Y-92548811D01*
X91228882Y-92675357D01*
X91321268Y-92900000D01*
X92000000Y-92900000D01*
X92000000Y-91560000D01*
X93200000Y-91560000D01*
X93200000Y-92900000D01*
X93878732Y-92900000D01*
X93971118Y-92675357D01*
X93886586Y-92548811D01*
X93812399Y-92466710D01*
X93868694Y-92436620D01*
X93982896Y-92342896D01*
X94076620Y-92228694D01*
X94146262Y-92098401D01*
X94189148Y-91957026D01*
X94203629Y-91810000D01*
X94200000Y-91747500D01*
X94055342Y-91602842D01*
X105363503Y-91602842D01*
X106200000Y-92439340D01*
X107036497Y-91602842D01*
X148363503Y-91602842D01*
X149200000Y-92439340D01*
X150036497Y-91602842D01*
X149846903Y-91333638D01*
X149411837Y-91249059D01*
X148968630Y-91250983D01*
X148553097Y-91333638D01*
X148363503Y-91602842D01*
X107036497Y-91602842D01*
X106846903Y-91333638D01*
X106411837Y-91249059D01*
X105968630Y-91250983D01*
X105553097Y-91333638D01*
X105363503Y-91602842D01*
X94055342Y-91602842D01*
X94012500Y-91560000D01*
X93200000Y-91560000D01*
X92000000Y-91560000D01*
X91187500Y-91560000D01*
X91000000Y-91747500D01*
X90996371Y-91810000D01*
X86659000Y-91810000D01*
X86659000Y-90110000D01*
X90996371Y-90110000D01*
X91000000Y-90172500D01*
X91187500Y-90360000D01*
X92000000Y-90360000D01*
X92000000Y-89547500D01*
X93200000Y-89547500D01*
X93200000Y-90360000D01*
X94012500Y-90360000D01*
X94200000Y-90172500D01*
X94203629Y-90110000D01*
X94189148Y-89962974D01*
X94146262Y-89821599D01*
X94076620Y-89691306D01*
X93982896Y-89577104D01*
X93868694Y-89483380D01*
X93738401Y-89413738D01*
X93597026Y-89370852D01*
X93450000Y-89356371D01*
X93387500Y-89360000D01*
X93200000Y-89547500D01*
X92000000Y-89547500D01*
X91812500Y-89360000D01*
X91750000Y-89356371D01*
X91602974Y-89370852D01*
X91461599Y-89413738D01*
X91331306Y-89483380D01*
X91217104Y-89577104D01*
X91123380Y-89691306D01*
X91053738Y-89821599D01*
X91010852Y-89962974D01*
X90996371Y-90110000D01*
X86659000Y-90110000D01*
X86659000Y-82850000D01*
X90041749Y-82850000D01*
X90083160Y-82845921D01*
X90083171Y-82845921D01*
X90083182Y-82845919D01*
X90166629Y-82837700D01*
X90230672Y-82818273D01*
X90565763Y-82730893D01*
X90608769Y-82715988D01*
X90652481Y-82703244D01*
X91584256Y-82350160D01*
X91704889Y-82293257D01*
X92569959Y-81798759D01*
X92680205Y-81723685D01*
X93457268Y-81099948D01*
X93480410Y-81078176D01*
X93554413Y-81008553D01*
X94224335Y-80270937D01*
X94228181Y-80265970D01*
X94266972Y-80215863D01*
X94305986Y-80165470D01*
X94305988Y-80165467D01*
X94605779Y-79708148D01*
X98103984Y-79708148D01*
X98122051Y-79940954D01*
X98330701Y-80029163D01*
X98552552Y-80074970D01*
X98585451Y-80075209D01*
X98419291Y-80241369D01*
X98738524Y-80612248D01*
X99350423Y-80800470D01*
X99987286Y-80865700D01*
X100624636Y-80805430D01*
X101237982Y-80621979D01*
X101261476Y-80612248D01*
X101580709Y-80241369D01*
X101415849Y-80076509D01*
X101430726Y-80076617D01*
X101653218Y-80034040D01*
X101863130Y-79948874D01*
X101877949Y-79940954D01*
X101896016Y-79708148D01*
X104603984Y-79708148D01*
X104622051Y-79940954D01*
X104830701Y-80029163D01*
X105052552Y-80074970D01*
X105085451Y-80075209D01*
X104919291Y-80241369D01*
X105238524Y-80612248D01*
X105850423Y-80800470D01*
X106487286Y-80865700D01*
X107124636Y-80805430D01*
X107737982Y-80621979D01*
X107761476Y-80612248D01*
X108080709Y-80241369D01*
X107915849Y-80076509D01*
X107930726Y-80076617D01*
X108153218Y-80034040D01*
X108363130Y-79948874D01*
X108377949Y-79940954D01*
X108396016Y-79708148D01*
X108296016Y-79608148D01*
X144003984Y-79608148D01*
X144022051Y-79840954D01*
X144230701Y-79929163D01*
X144452552Y-79974970D01*
X144485451Y-79975209D01*
X144319291Y-80141369D01*
X144638524Y-80512248D01*
X145250423Y-80700470D01*
X145887286Y-80765700D01*
X146524636Y-80705430D01*
X147137982Y-80521979D01*
X147161476Y-80512248D01*
X147480709Y-80141369D01*
X147315849Y-79976509D01*
X147330726Y-79976617D01*
X147553218Y-79934040D01*
X147763130Y-79848874D01*
X147777949Y-79840954D01*
X147796016Y-79608148D01*
X150503984Y-79608148D01*
X150522051Y-79840954D01*
X150730701Y-79929163D01*
X150952552Y-79974970D01*
X150985451Y-79975209D01*
X150819291Y-80141369D01*
X151138524Y-80512248D01*
X151750423Y-80700470D01*
X152387286Y-80765700D01*
X153024636Y-80705430D01*
X153637982Y-80521979D01*
X153661476Y-80512248D01*
X153980709Y-80141369D01*
X153815849Y-79976509D01*
X153830726Y-79976617D01*
X154053218Y-79934040D01*
X154263130Y-79848874D01*
X154277949Y-79840954D01*
X154296016Y-79608148D01*
X153725825Y-79037957D01*
X153710644Y-79053139D01*
X153498512Y-78841007D01*
X153513693Y-78825825D01*
X152943502Y-78255634D01*
X152915326Y-78257821D01*
X152685921Y-78028416D01*
X152488721Y-78225616D01*
X152309979Y-78224316D01*
X152114079Y-78028416D01*
X151884674Y-78257821D01*
X151856498Y-78255634D01*
X151286307Y-78825825D01*
X151301489Y-78841007D01*
X151089357Y-79053139D01*
X151074175Y-79037957D01*
X150503984Y-79608148D01*
X147796016Y-79608148D01*
X147225825Y-79037957D01*
X147210644Y-79053139D01*
X146998512Y-78841007D01*
X147013693Y-78825825D01*
X146443502Y-78255634D01*
X146415326Y-78257821D01*
X146185921Y-78028416D01*
X145988721Y-78225616D01*
X145809979Y-78224316D01*
X145614079Y-78028416D01*
X145384674Y-78257821D01*
X145356498Y-78255634D01*
X144786307Y-78825825D01*
X144801489Y-78841007D01*
X144589357Y-79053139D01*
X144574175Y-79037957D01*
X144003984Y-79608148D01*
X108296016Y-79608148D01*
X107825825Y-79137957D01*
X107810644Y-79153139D01*
X107598512Y-78941007D01*
X107613693Y-78925825D01*
X107043502Y-78355634D01*
X107015326Y-78357821D01*
X106785921Y-78128416D01*
X106588721Y-78325616D01*
X106409979Y-78324316D01*
X106214079Y-78128416D01*
X105984674Y-78357821D01*
X105956498Y-78355634D01*
X105386307Y-78925825D01*
X105401489Y-78941007D01*
X105189357Y-79153139D01*
X105174175Y-79137957D01*
X104603984Y-79708148D01*
X101896016Y-79708148D01*
X101325825Y-79137957D01*
X101310644Y-79153139D01*
X101098512Y-78941007D01*
X101113693Y-78925825D01*
X100543502Y-78355634D01*
X100515326Y-78357821D01*
X100285921Y-78128416D01*
X100088721Y-78325616D01*
X99909979Y-78324316D01*
X99714079Y-78128416D01*
X99484674Y-78357821D01*
X99456498Y-78355634D01*
X98886307Y-78925825D01*
X98901489Y-78941007D01*
X98689357Y-79153139D01*
X98674175Y-79137957D01*
X98103984Y-79708148D01*
X94605779Y-79708148D01*
X94852272Y-79332133D01*
X94886739Y-79269299D01*
X94916419Y-79215192D01*
X95325617Y-78306661D01*
X95350656Y-78236907D01*
X95370681Y-78181123D01*
X95532540Y-77587286D01*
X96734300Y-77587286D01*
X96794570Y-78224636D01*
X96978021Y-78837982D01*
X96987752Y-78861476D01*
X97358631Y-79180709D01*
X97523491Y-79015849D01*
X97523383Y-79030726D01*
X97565960Y-79253218D01*
X97651126Y-79463130D01*
X97659046Y-79477949D01*
X97891852Y-79496016D01*
X98462043Y-78925825D01*
X98446862Y-78910644D01*
X98658994Y-78698512D01*
X98674175Y-78713693D01*
X99244366Y-78143502D01*
X99242179Y-78115326D01*
X99471584Y-77885921D01*
X99274384Y-77688721D01*
X99275684Y-77509979D01*
X99471584Y-77314079D01*
X100528416Y-77314079D01*
X100725616Y-77511279D01*
X100724316Y-77690021D01*
X100528416Y-77885921D01*
X100757821Y-78115326D01*
X100755634Y-78143502D01*
X101325825Y-78713693D01*
X101341007Y-78698512D01*
X101553139Y-78910644D01*
X101537957Y-78925825D01*
X102108148Y-79496016D01*
X102340954Y-79477949D01*
X102429163Y-79269299D01*
X102474970Y-79047448D01*
X102475209Y-79014549D01*
X102641369Y-79180709D01*
X103012248Y-78861476D01*
X103200470Y-78249577D01*
X103250624Y-77759908D01*
X103294570Y-78224636D01*
X103478021Y-78837982D01*
X103487752Y-78861476D01*
X103858631Y-79180709D01*
X104023491Y-79015849D01*
X104023383Y-79030726D01*
X104065960Y-79253218D01*
X104151126Y-79463130D01*
X104159046Y-79477949D01*
X104391852Y-79496016D01*
X104962043Y-78925825D01*
X104946862Y-78910644D01*
X105158994Y-78698512D01*
X105174175Y-78713693D01*
X105744366Y-78143502D01*
X105742179Y-78115326D01*
X105971584Y-77885921D01*
X105774384Y-77688721D01*
X105775684Y-77509979D01*
X105971584Y-77314079D01*
X107028416Y-77314079D01*
X107225616Y-77511279D01*
X107224316Y-77690021D01*
X107028416Y-77885921D01*
X107257821Y-78115326D01*
X107255634Y-78143502D01*
X107825825Y-78713693D01*
X107841007Y-78698512D01*
X108053139Y-78910644D01*
X108037957Y-78925825D01*
X108608148Y-79496016D01*
X108840954Y-79477949D01*
X108929163Y-79269299D01*
X108974970Y-79047448D01*
X108975209Y-79014549D01*
X109141369Y-79180709D01*
X109512248Y-78861476D01*
X109636450Y-78457701D01*
X112102959Y-78457701D01*
X112390590Y-78802947D01*
X112958736Y-78965525D01*
X113547681Y-79014138D01*
X114134794Y-78946920D01*
X114609410Y-78802947D01*
X114897041Y-78457701D01*
X137502959Y-78457701D01*
X137790590Y-78802947D01*
X138358736Y-78965525D01*
X138947681Y-79014138D01*
X139534794Y-78946920D01*
X140009410Y-78802947D01*
X140297041Y-78457701D01*
X139326626Y-77487286D01*
X142634300Y-77487286D01*
X142694570Y-78124636D01*
X142878021Y-78737982D01*
X142887752Y-78761476D01*
X143258631Y-79080709D01*
X143423491Y-78915849D01*
X143423383Y-78930726D01*
X143465960Y-79153218D01*
X143551126Y-79363130D01*
X143559046Y-79377949D01*
X143791852Y-79396016D01*
X144362043Y-78825825D01*
X144346862Y-78810644D01*
X144558994Y-78598512D01*
X144574175Y-78613693D01*
X145144366Y-78043502D01*
X145142179Y-78015326D01*
X145371584Y-77785921D01*
X145174384Y-77588721D01*
X145175684Y-77409979D01*
X145371584Y-77214079D01*
X146428416Y-77214079D01*
X146625616Y-77411279D01*
X146624316Y-77590021D01*
X146428416Y-77785921D01*
X146657821Y-78015326D01*
X146655634Y-78043502D01*
X147225825Y-78613693D01*
X147241007Y-78598512D01*
X147453139Y-78810644D01*
X147437957Y-78825825D01*
X148008148Y-79396016D01*
X148240954Y-79377949D01*
X148329163Y-79169299D01*
X148374970Y-78947448D01*
X148375209Y-78914549D01*
X148541369Y-79080709D01*
X148912248Y-78761476D01*
X149100470Y-78149577D01*
X149150624Y-77659908D01*
X149194570Y-78124636D01*
X149378021Y-78737982D01*
X149387752Y-78761476D01*
X149758631Y-79080709D01*
X149923491Y-78915849D01*
X149923383Y-78930726D01*
X149965960Y-79153218D01*
X150051126Y-79363130D01*
X150059046Y-79377949D01*
X150291852Y-79396016D01*
X150862043Y-78825825D01*
X150846862Y-78810644D01*
X151058994Y-78598512D01*
X151074175Y-78613693D01*
X151644366Y-78043502D01*
X151642179Y-78015326D01*
X151871584Y-77785921D01*
X151674384Y-77588721D01*
X151675684Y-77409979D01*
X151871584Y-77214079D01*
X152928416Y-77214079D01*
X153125616Y-77411279D01*
X153124316Y-77590021D01*
X152928416Y-77785921D01*
X153157821Y-78015326D01*
X153155634Y-78043502D01*
X153725825Y-78613693D01*
X153741007Y-78598512D01*
X153953139Y-78810644D01*
X153937957Y-78825825D01*
X154508148Y-79396016D01*
X154740954Y-79377949D01*
X154829163Y-79169299D01*
X154874970Y-78947448D01*
X154875209Y-78914549D01*
X155041369Y-79080709D01*
X155412248Y-78761476D01*
X155600470Y-78149577D01*
X155665700Y-77512714D01*
X155605430Y-76875364D01*
X155421979Y-76262018D01*
X155412248Y-76238524D01*
X155041369Y-75919291D01*
X154876509Y-76084151D01*
X154876617Y-76069274D01*
X154834040Y-75846782D01*
X154748874Y-75636870D01*
X154740954Y-75622051D01*
X154508148Y-75603984D01*
X153937957Y-76174175D01*
X153953139Y-76189357D01*
X153741007Y-76401489D01*
X153725825Y-76386307D01*
X153155634Y-76956498D01*
X153157821Y-76984674D01*
X152928416Y-77214079D01*
X151871584Y-77214079D01*
X151642179Y-76984674D01*
X151644366Y-76956498D01*
X151074175Y-76386307D01*
X151058994Y-76401489D01*
X150846862Y-76189357D01*
X150862043Y-76174175D01*
X150291852Y-75603984D01*
X150059046Y-75622051D01*
X149970837Y-75830701D01*
X149925030Y-76052552D01*
X149924791Y-76085451D01*
X149758631Y-75919291D01*
X149387752Y-76238524D01*
X149199530Y-76850423D01*
X149149376Y-77340092D01*
X149105430Y-76875364D01*
X148921979Y-76262018D01*
X148912248Y-76238524D01*
X148541369Y-75919291D01*
X148376509Y-76084151D01*
X148376617Y-76069274D01*
X148334040Y-75846782D01*
X148248874Y-75636870D01*
X148240954Y-75622051D01*
X148008148Y-75603984D01*
X147437957Y-76174175D01*
X147453139Y-76189357D01*
X147241007Y-76401489D01*
X147225825Y-76386307D01*
X146655634Y-76956498D01*
X146657821Y-76984674D01*
X146428416Y-77214079D01*
X145371584Y-77214079D01*
X145142179Y-76984674D01*
X145144366Y-76956498D01*
X144574175Y-76386307D01*
X144558994Y-76401489D01*
X144346862Y-76189357D01*
X144362043Y-76174175D01*
X143791852Y-75603984D01*
X143559046Y-75622051D01*
X143470837Y-75830701D01*
X143425030Y-76052552D01*
X143424791Y-76085451D01*
X143258631Y-75919291D01*
X142887752Y-76238524D01*
X142699530Y-76850423D01*
X142634300Y-77487286D01*
X139326626Y-77487286D01*
X138900000Y-77060660D01*
X137502959Y-78457701D01*
X114897041Y-78457701D01*
X113500000Y-77060660D01*
X112102959Y-78457701D01*
X109636450Y-78457701D01*
X109700470Y-78249577D01*
X109765700Y-77612714D01*
X109705430Y-76975364D01*
X109521979Y-76362018D01*
X109512248Y-76338524D01*
X109174352Y-76047681D01*
X110485862Y-76047681D01*
X110553080Y-76634794D01*
X110697053Y-77109410D01*
X111042299Y-77397041D01*
X112439340Y-76000000D01*
X114560660Y-76000000D01*
X115957701Y-77397041D01*
X116302947Y-77109410D01*
X116465525Y-76541264D01*
X116506266Y-76047681D01*
X135885862Y-76047681D01*
X135953080Y-76634794D01*
X136097053Y-77109410D01*
X136442299Y-77397041D01*
X137839340Y-76000000D01*
X139960660Y-76000000D01*
X141357701Y-77397041D01*
X141702947Y-77109410D01*
X141865525Y-76541264D01*
X141914138Y-75952319D01*
X141849971Y-75391852D01*
X144003984Y-75391852D01*
X144574175Y-75962043D01*
X144589357Y-75946862D01*
X144801489Y-76158994D01*
X144786307Y-76174175D01*
X145356498Y-76744366D01*
X145384674Y-76742179D01*
X145614079Y-76971584D01*
X145811279Y-76774384D01*
X145990021Y-76775684D01*
X146185921Y-76971584D01*
X146415326Y-76742179D01*
X146443502Y-76744366D01*
X147013693Y-76174175D01*
X146998512Y-76158994D01*
X147210644Y-75946862D01*
X147225825Y-75962043D01*
X147796016Y-75391852D01*
X150503984Y-75391852D01*
X151074175Y-75962043D01*
X151089357Y-75946862D01*
X151301489Y-76158994D01*
X151286307Y-76174175D01*
X151856498Y-76744366D01*
X151884674Y-76742179D01*
X152114079Y-76971584D01*
X152311279Y-76774384D01*
X152490021Y-76775684D01*
X152685921Y-76971584D01*
X152915326Y-76742179D01*
X152943502Y-76744366D01*
X153513693Y-76174175D01*
X153498512Y-76158994D01*
X153710644Y-75946862D01*
X153725825Y-75962043D01*
X154296016Y-75391852D01*
X154277949Y-75159046D01*
X154069299Y-75070837D01*
X153847448Y-75025030D01*
X153814549Y-75024791D01*
X153980709Y-74858631D01*
X153661476Y-74487752D01*
X153049577Y-74299530D01*
X152412714Y-74234300D01*
X151775364Y-74294570D01*
X151162018Y-74478021D01*
X151138524Y-74487752D01*
X150819291Y-74858631D01*
X150984151Y-75023491D01*
X150969274Y-75023383D01*
X150746782Y-75065960D01*
X150536870Y-75151126D01*
X150522051Y-75159046D01*
X150503984Y-75391852D01*
X147796016Y-75391852D01*
X147777949Y-75159046D01*
X147569299Y-75070837D01*
X147347448Y-75025030D01*
X147314549Y-75024791D01*
X147480709Y-74858631D01*
X147161476Y-74487752D01*
X146549577Y-74299530D01*
X145912714Y-74234300D01*
X145275364Y-74294570D01*
X144662018Y-74478021D01*
X144638524Y-74487752D01*
X144319291Y-74858631D01*
X144484151Y-75023491D01*
X144469274Y-75023383D01*
X144246782Y-75065960D01*
X144036870Y-75151126D01*
X144022051Y-75159046D01*
X144003984Y-75391852D01*
X141849971Y-75391852D01*
X141846920Y-75365206D01*
X141702947Y-74890590D01*
X141357701Y-74602959D01*
X139960660Y-76000000D01*
X137839340Y-76000000D01*
X136442299Y-74602959D01*
X136097053Y-74890590D01*
X135934475Y-75458736D01*
X135885862Y-76047681D01*
X116506266Y-76047681D01*
X116514138Y-75952319D01*
X116446920Y-75365206D01*
X116302947Y-74890590D01*
X115957701Y-74602959D01*
X114560660Y-76000000D01*
X112439340Y-76000000D01*
X111042299Y-74602959D01*
X110697053Y-74890590D01*
X110534475Y-75458736D01*
X110485862Y-76047681D01*
X109174352Y-76047681D01*
X109141369Y-76019291D01*
X108976509Y-76184151D01*
X108976617Y-76169274D01*
X108934040Y-75946782D01*
X108848874Y-75736870D01*
X108840954Y-75722051D01*
X108608148Y-75703984D01*
X108037957Y-76274175D01*
X108053139Y-76289357D01*
X107841007Y-76501489D01*
X107825825Y-76486307D01*
X107255634Y-77056498D01*
X107257821Y-77084674D01*
X107028416Y-77314079D01*
X105971584Y-77314079D01*
X105742179Y-77084674D01*
X105744366Y-77056498D01*
X105174175Y-76486307D01*
X105158994Y-76501489D01*
X104946862Y-76289357D01*
X104962043Y-76274175D01*
X104391852Y-75703984D01*
X104159046Y-75722051D01*
X104070837Y-75930701D01*
X104025030Y-76152552D01*
X104024791Y-76185451D01*
X103858631Y-76019291D01*
X103487752Y-76338524D01*
X103299530Y-76950423D01*
X103249376Y-77440092D01*
X103205430Y-76975364D01*
X103021979Y-76362018D01*
X103012248Y-76338524D01*
X102641369Y-76019291D01*
X102476509Y-76184151D01*
X102476617Y-76169274D01*
X102434040Y-75946782D01*
X102348874Y-75736870D01*
X102340954Y-75722051D01*
X102108148Y-75703984D01*
X101537957Y-76274175D01*
X101553139Y-76289357D01*
X101341007Y-76501489D01*
X101325825Y-76486307D01*
X100755634Y-77056498D01*
X100757821Y-77084674D01*
X100528416Y-77314079D01*
X99471584Y-77314079D01*
X99242179Y-77084674D01*
X99244366Y-77056498D01*
X98674175Y-76486307D01*
X98658994Y-76501489D01*
X98446862Y-76289357D01*
X98462043Y-76274175D01*
X97891852Y-75703984D01*
X97659046Y-75722051D01*
X97570837Y-75930701D01*
X97525030Y-76152552D01*
X97524791Y-76185451D01*
X97358631Y-76019291D01*
X96987752Y-76338524D01*
X96799530Y-76950423D01*
X96734300Y-77587286D01*
X95532540Y-77587286D01*
X95632715Y-77219764D01*
X95638496Y-77189304D01*
X95657586Y-77088722D01*
X95757402Y-76176794D01*
X95758750Y-76172351D01*
X95771050Y-76047471D01*
X95771050Y-75491852D01*
X98103984Y-75491852D01*
X98674175Y-76062043D01*
X98689357Y-76046862D01*
X98901489Y-76258994D01*
X98886307Y-76274175D01*
X99456498Y-76844366D01*
X99484674Y-76842179D01*
X99714079Y-77071584D01*
X99911279Y-76874384D01*
X100090021Y-76875684D01*
X100285921Y-77071584D01*
X100515326Y-76842179D01*
X100543502Y-76844366D01*
X101113693Y-76274175D01*
X101098512Y-76258994D01*
X101310644Y-76046862D01*
X101325825Y-76062043D01*
X101896016Y-75491852D01*
X104603984Y-75491852D01*
X105174175Y-76062043D01*
X105189357Y-76046862D01*
X105401489Y-76258994D01*
X105386307Y-76274175D01*
X105956498Y-76844366D01*
X105984674Y-76842179D01*
X106214079Y-77071584D01*
X106411279Y-76874384D01*
X106590021Y-76875684D01*
X106785921Y-77071584D01*
X107015326Y-76842179D01*
X107043502Y-76844366D01*
X107613693Y-76274175D01*
X107598512Y-76258994D01*
X107810644Y-76046862D01*
X107825825Y-76062043D01*
X108396016Y-75491852D01*
X108377949Y-75259046D01*
X108169299Y-75170837D01*
X107947448Y-75125030D01*
X107914549Y-75124791D01*
X108080709Y-74958631D01*
X107761476Y-74587752D01*
X107149577Y-74399530D01*
X106512714Y-74334300D01*
X105875364Y-74394570D01*
X105262018Y-74578021D01*
X105238524Y-74587752D01*
X104919291Y-74958631D01*
X105084151Y-75123491D01*
X105069274Y-75123383D01*
X104846782Y-75165960D01*
X104636870Y-75251126D01*
X104622051Y-75259046D01*
X104603984Y-75491852D01*
X101896016Y-75491852D01*
X101877949Y-75259046D01*
X101669299Y-75170837D01*
X101447448Y-75125030D01*
X101414549Y-75124791D01*
X101580709Y-74958631D01*
X101261476Y-74587752D01*
X100649577Y-74399530D01*
X100012714Y-74334300D01*
X99375364Y-74394570D01*
X98762018Y-74578021D01*
X98738524Y-74587752D01*
X98419291Y-74958631D01*
X98584151Y-75123491D01*
X98569274Y-75123383D01*
X98346782Y-75165960D01*
X98136870Y-75251126D01*
X98122051Y-75259046D01*
X98103984Y-75491852D01*
X95771050Y-75491852D01*
X95771050Y-73542299D01*
X112102959Y-73542299D01*
X113500000Y-74939340D01*
X114897041Y-73542299D01*
X137502959Y-73542299D01*
X138900000Y-74939340D01*
X140297041Y-73542299D01*
X140009410Y-73197053D01*
X139441264Y-73034475D01*
X138852319Y-72985862D01*
X138265206Y-73053080D01*
X137790590Y-73197053D01*
X137502959Y-73542299D01*
X114897041Y-73542299D01*
X114609410Y-73197053D01*
X114041264Y-73034475D01*
X113452319Y-72985862D01*
X112865206Y-73053080D01*
X112390590Y-73197053D01*
X112102959Y-73542299D01*
X95771050Y-73542299D01*
X95771050Y-72842521D01*
X156618951Y-72842521D01*
X156618950Y-76047470D01*
G37*
X156618950Y-76047470D02*
X156621413Y-76072480D01*
X156641866Y-76418303D01*
X156648108Y-76463378D01*
X156652095Y-76508740D01*
X156816940Y-77491440D01*
X156826149Y-77528313D01*
X156849259Y-77620847D01*
X157165804Y-78565661D01*
X157179730Y-78598432D01*
X157217968Y-78688417D01*
X157678416Y-79572080D01*
X157734013Y-79660975D01*
X157749142Y-79685165D01*
X158342157Y-80485920D01*
X158429702Y-80586549D01*
X159140676Y-81284669D01*
X159140682Y-81284676D01*
X159242891Y-81370371D01*
X160054328Y-81948681D01*
X160168684Y-82017331D01*
X161060600Y-82461586D01*
X161184287Y-82511502D01*
X161184291Y-82511503D01*
X162059170Y-82786972D01*
X162063145Y-82789097D01*
X162223371Y-82837700D01*
X162348251Y-82850000D01*
X165731001Y-82850000D01*
X165731000Y-107261442D01*
X162348251Y-107261442D01*
X162306840Y-107265521D01*
X162306828Y-107265521D01*
X162306816Y-107265523D01*
X162223371Y-107273742D01*
X162159328Y-107293169D01*
X161824237Y-107380549D01*
X161781229Y-107395455D01*
X161737519Y-107408198D01*
X160805744Y-107761281D01*
X160691511Y-107815166D01*
X160685111Y-107818185D01*
X159820041Y-108312683D01*
X159709795Y-108387756D01*
X159709788Y-108387763D01*
X158932732Y-109011494D01*
X158835587Y-109102889D01*
X158165665Y-109840505D01*
X158165664Y-109840506D01*
X158084013Y-109945973D01*
X157537728Y-110779309D01*
X157483601Y-110877984D01*
X157473581Y-110896250D01*
X157064383Y-111804782D01*
X157019319Y-111930319D01*
X156757285Y-112891678D01*
X156757285Y-112891679D01*
X156732414Y-113022719D01*
X156632597Y-113934653D01*
X156631251Y-113939091D01*
X156618951Y-114063971D01*
X156618950Y-117268921D01*
X95771050Y-117268921D01*
X95771050Y-116557701D01*
X112102959Y-116557701D01*
X112390590Y-116902947D01*
X112958736Y-117065525D01*
X113547681Y-117114138D01*
X114134794Y-117046920D01*
X114609410Y-116902947D01*
X114897041Y-116557701D01*
X137502959Y-116557701D01*
X137790590Y-116902947D01*
X138358736Y-117065525D01*
X138947681Y-117114138D01*
X139534794Y-117046920D01*
X140009410Y-116902947D01*
X140297041Y-116557701D01*
X138900000Y-115160660D01*
X137502959Y-116557701D01*
X114897041Y-116557701D01*
X113500000Y-115160660D01*
X112102959Y-116557701D01*
X95771050Y-116557701D01*
X95771050Y-114147681D01*
X110485862Y-114147681D01*
X110553080Y-114734794D01*
X110697053Y-115209410D01*
X111042299Y-115497041D01*
X112439340Y-114100000D01*
X114560660Y-114100000D01*
X115957701Y-115497041D01*
X116302947Y-115209410D01*
X116384433Y-114924646D01*
X120688860Y-114924646D01*
X120876087Y-115176297D01*
X121108811Y-115386586D01*
X121235357Y-115471118D01*
X121460000Y-115378732D01*
X121460000Y-114700000D01*
X120764238Y-114700000D01*
X120688860Y-114924646D01*
X116384433Y-114924646D01*
X116465525Y-114641264D01*
X116514138Y-114052319D01*
X116446920Y-113465206D01*
X116389330Y-113275354D01*
X120688860Y-113275354D01*
X120764238Y-113500000D01*
X121460000Y-113500000D01*
X121460000Y-112821268D01*
X122660000Y-112821268D01*
X122660000Y-113500000D01*
X122830000Y-113500000D01*
X122830000Y-114700000D01*
X122660000Y-114700000D01*
X122660000Y-115378732D01*
X122884643Y-115471118D01*
X123011189Y-115386586D01*
X123093291Y-115312399D01*
X123123381Y-115368693D01*
X123217105Y-115482895D01*
X123331307Y-115576619D01*
X123461599Y-115646261D01*
X123602974Y-115689147D01*
X123750000Y-115703628D01*
X123887806Y-115703628D01*
X123927064Y-115724612D01*
X124256940Y-115824679D01*
X124600000Y-115858467D01*
X124943059Y-115824679D01*
X125272935Y-115724612D01*
X125312193Y-115703628D01*
X125450000Y-115703628D01*
X125597026Y-115689147D01*
X125738401Y-115646261D01*
X125868693Y-115576619D01*
X125982895Y-115482895D01*
X126076619Y-115368693D01*
X126146261Y-115238401D01*
X126189147Y-115097026D01*
X126203628Y-114950000D01*
X126203628Y-114812194D01*
X126224612Y-114772936D01*
X126324679Y-114443060D01*
X126350000Y-114185968D01*
X126350000Y-114147681D01*
X135885862Y-114147681D01*
X135953080Y-114734794D01*
X136097053Y-115209410D01*
X136442299Y-115497041D01*
X137839340Y-114100000D01*
X139960660Y-114100000D01*
X141357701Y-115497041D01*
X141702947Y-115209410D01*
X141865525Y-114641264D01*
X141914138Y-114052319D01*
X141846920Y-113465206D01*
X141702947Y-112990590D01*
X141357701Y-112702959D01*
X139960660Y-114100000D01*
X137839340Y-114100000D01*
X136442299Y-112702959D01*
X136097053Y-112990590D01*
X135934475Y-113558736D01*
X135885862Y-114147681D01*
X126350000Y-114147681D01*
X126350000Y-111642299D01*
X137502959Y-111642299D01*
X138900000Y-113039340D01*
X139831192Y-112108148D01*
X144003984Y-112108148D01*
X144022051Y-112340954D01*
X144230701Y-112429163D01*
X144452552Y-112474970D01*
X144485451Y-112475209D01*
X144319291Y-112641369D01*
X144638524Y-113012248D01*
X145250423Y-113200470D01*
X145887286Y-113265700D01*
X146524636Y-113205430D01*
X147137982Y-113021979D01*
X147161476Y-113012248D01*
X147480709Y-112641369D01*
X147315849Y-112476509D01*
X147330726Y-112476617D01*
X147553218Y-112434040D01*
X147763130Y-112348874D01*
X147777949Y-112340954D01*
X147796016Y-112108148D01*
X150503984Y-112108148D01*
X150522051Y-112340954D01*
X150730701Y-112429163D01*
X150952552Y-112474970D01*
X150985451Y-112475209D01*
X150819291Y-112641369D01*
X151138524Y-113012248D01*
X151750423Y-113200470D01*
X152387286Y-113265700D01*
X153024636Y-113205430D01*
X153637982Y-113021979D01*
X153661476Y-113012248D01*
X153980709Y-112641369D01*
X153815849Y-112476509D01*
X153830726Y-112476617D01*
X154053218Y-112434040D01*
X154263130Y-112348874D01*
X154277949Y-112340954D01*
X154296016Y-112108148D01*
X153725825Y-111537957D01*
X153710644Y-111553139D01*
X153498512Y-111341007D01*
X153513693Y-111325825D01*
X152943502Y-110755634D01*
X152915326Y-110757821D01*
X152685921Y-110528416D01*
X152488721Y-110725616D01*
X152309979Y-110724316D01*
X152114079Y-110528416D01*
X151884674Y-110757821D01*
X151856498Y-110755634D01*
X151286307Y-111325825D01*
X151301489Y-111341007D01*
X151089357Y-111553139D01*
X151074175Y-111537957D01*
X150503984Y-112108148D01*
X147796016Y-112108148D01*
X147225825Y-111537957D01*
X147210644Y-111553139D01*
X146998512Y-111341007D01*
X147013693Y-111325825D01*
X146443502Y-110755634D01*
X146415326Y-110757821D01*
X146185921Y-110528416D01*
X145988721Y-110725616D01*
X145809979Y-110724316D01*
X145614079Y-110528416D01*
X145384674Y-110757821D01*
X145356498Y-110755634D01*
X144786307Y-111325825D01*
X144801489Y-111341007D01*
X144589357Y-111553139D01*
X144574175Y-111537957D01*
X144003984Y-112108148D01*
X139831192Y-112108148D01*
X140297041Y-111642299D01*
X140009410Y-111297053D01*
X139441264Y-111134475D01*
X138852319Y-111085862D01*
X138265206Y-111153080D01*
X137790590Y-111297053D01*
X137502959Y-111642299D01*
X126350000Y-111642299D01*
X126350000Y-109987286D01*
X142634300Y-109987286D01*
X142694570Y-110624636D01*
X142878021Y-111237982D01*
X142887752Y-111261476D01*
X143258631Y-111580709D01*
X143423491Y-111415849D01*
X143423383Y-111430726D01*
X143465960Y-111653218D01*
X143551126Y-111863130D01*
X143559046Y-111877949D01*
X143791852Y-111896016D01*
X144362043Y-111325825D01*
X144346862Y-111310644D01*
X144558994Y-111098512D01*
X144574175Y-111113693D01*
X145144366Y-110543502D01*
X145142179Y-110515326D01*
X145371584Y-110285921D01*
X145174384Y-110088721D01*
X145175684Y-109909979D01*
X145371584Y-109714079D01*
X146428416Y-109714079D01*
X146625616Y-109911279D01*
X146624316Y-110090021D01*
X146428416Y-110285921D01*
X146657821Y-110515326D01*
X146655634Y-110543502D01*
X147225825Y-111113693D01*
X147241007Y-111098512D01*
X147453139Y-111310644D01*
X147437957Y-111325825D01*
X148008148Y-111896016D01*
X148240954Y-111877949D01*
X148329163Y-111669299D01*
X148374970Y-111447448D01*
X148375209Y-111414549D01*
X148541369Y-111580709D01*
X148912248Y-111261476D01*
X149100470Y-110649577D01*
X149150624Y-110159908D01*
X149194570Y-110624636D01*
X149378021Y-111237982D01*
X149387752Y-111261476D01*
X149758631Y-111580709D01*
X149923491Y-111415849D01*
X149923383Y-111430726D01*
X149965960Y-111653218D01*
X150051126Y-111863130D01*
X150059046Y-111877949D01*
X150291852Y-111896016D01*
X150862043Y-111325825D01*
X150846862Y-111310644D01*
X151058994Y-111098512D01*
X151074175Y-111113693D01*
X151644366Y-110543502D01*
X151642179Y-110515326D01*
X151871584Y-110285921D01*
X151674384Y-110088721D01*
X151675684Y-109909979D01*
X151871584Y-109714079D01*
X152928416Y-109714079D01*
X153125616Y-109911279D01*
X153124316Y-110090021D01*
X152928416Y-110285921D01*
X153157821Y-110515326D01*
X153155634Y-110543502D01*
X153725825Y-111113693D01*
X153741007Y-111098512D01*
X153953139Y-111310644D01*
X153937957Y-111325825D01*
X154508148Y-111896016D01*
X154740954Y-111877949D01*
X154829163Y-111669299D01*
X154874970Y-111447448D01*
X154875209Y-111414549D01*
X155041369Y-111580709D01*
X155412248Y-111261476D01*
X155600470Y-110649577D01*
X155665700Y-110012714D01*
X155605430Y-109375364D01*
X155421979Y-108762018D01*
X155412248Y-108738524D01*
X155041369Y-108419291D01*
X154876509Y-108584151D01*
X154876617Y-108569274D01*
X154834040Y-108346782D01*
X154748874Y-108136870D01*
X154740954Y-108122051D01*
X154508148Y-108103984D01*
X153937957Y-108674175D01*
X153953139Y-108689357D01*
X153741007Y-108901489D01*
X153725825Y-108886307D01*
X153155634Y-109456498D01*
X153157821Y-109484674D01*
X152928416Y-109714079D01*
X151871584Y-109714079D01*
X151642179Y-109484674D01*
X151644366Y-109456498D01*
X151074175Y-108886307D01*
X151058994Y-108901489D01*
X150846862Y-108689357D01*
X150862043Y-108674175D01*
X150291852Y-108103984D01*
X150059046Y-108122051D01*
X149970837Y-108330701D01*
X149925030Y-108552552D01*
X149924791Y-108585451D01*
X149758631Y-108419291D01*
X149387752Y-108738524D01*
X149199530Y-109350423D01*
X149149376Y-109840092D01*
X149105430Y-109375364D01*
X148921979Y-108762018D01*
X148912248Y-108738524D01*
X148541369Y-108419291D01*
X148376509Y-108584151D01*
X148376617Y-108569274D01*
X148334040Y-108346782D01*
X148248874Y-108136870D01*
X148240954Y-108122051D01*
X148008148Y-108103984D01*
X147437957Y-108674175D01*
X147453139Y-108689357D01*
X147241007Y-108901489D01*
X147225825Y-108886307D01*
X146655634Y-109456498D01*
X146657821Y-109484674D01*
X146428416Y-109714079D01*
X145371584Y-109714079D01*
X145142179Y-109484674D01*
X145144366Y-109456498D01*
X144574175Y-108886307D01*
X144558994Y-108901489D01*
X144346862Y-108689357D01*
X144362043Y-108674175D01*
X143791852Y-108103984D01*
X143559046Y-108122051D01*
X143470837Y-108330701D01*
X143425030Y-108552552D01*
X143424791Y-108585451D01*
X143258631Y-108419291D01*
X142887752Y-108738524D01*
X142699530Y-109350423D01*
X142634300Y-109987286D01*
X126350000Y-109987286D01*
X126350000Y-102584873D01*
X128301774Y-104536648D01*
X128356576Y-104603424D01*
X128423350Y-104658224D01*
X128423351Y-104658225D01*
X128623047Y-104822112D01*
X128768766Y-104900000D01*
X128927064Y-104984612D01*
X129250001Y-105082574D01*
X129250000Y-106414031D01*
X129241533Y-106500000D01*
X129275321Y-106843060D01*
X129375388Y-107172936D01*
X129396372Y-107212194D01*
X129396372Y-107350000D01*
X129410853Y-107497026D01*
X129453739Y-107638401D01*
X129523381Y-107768693D01*
X129617105Y-107882895D01*
X129731307Y-107976619D01*
X129861599Y-108046261D01*
X130002974Y-108089147D01*
X130150000Y-108103628D01*
X130287806Y-108103628D01*
X130327064Y-108124612D01*
X130656940Y-108224679D01*
X131000000Y-108258467D01*
X131085968Y-108250000D01*
X141074032Y-108250000D01*
X141160000Y-108258467D01*
X141245968Y-108250000D01*
X141503060Y-108224679D01*
X141832936Y-108124612D01*
X142136952Y-107962112D01*
X142222564Y-107891852D01*
X144003984Y-107891852D01*
X144574175Y-108462043D01*
X144589357Y-108446862D01*
X144801489Y-108658994D01*
X144786307Y-108674175D01*
X145356498Y-109244366D01*
X145384674Y-109242179D01*
X145614079Y-109471584D01*
X145811279Y-109274384D01*
X145990021Y-109275684D01*
X146185921Y-109471584D01*
X146415326Y-109242179D01*
X146443502Y-109244366D01*
X147013693Y-108674175D01*
X146998512Y-108658994D01*
X147210644Y-108446862D01*
X147225825Y-108462043D01*
X147796016Y-107891852D01*
X150503984Y-107891852D01*
X151074175Y-108462043D01*
X151089357Y-108446862D01*
X151301489Y-108658994D01*
X151286307Y-108674175D01*
X151856498Y-109244366D01*
X151884674Y-109242179D01*
X152114079Y-109471584D01*
X152311279Y-109274384D01*
X152490021Y-109275684D01*
X152685921Y-109471584D01*
X152915326Y-109242179D01*
X152943502Y-109244366D01*
X153513693Y-108674175D01*
X153498512Y-108658994D01*
X153710644Y-108446862D01*
X153725825Y-108462043D01*
X154296016Y-107891852D01*
X154277949Y-107659046D01*
X154069299Y-107570837D01*
X153847448Y-107525030D01*
X153814549Y-107524791D01*
X153980709Y-107358631D01*
X153661476Y-106987752D01*
X153049577Y-106799530D01*
X152412714Y-106734300D01*
X151775364Y-106794570D01*
X151162018Y-106978021D01*
X151138524Y-106987752D01*
X150819291Y-107358631D01*
X150984151Y-107523491D01*
X150969274Y-107523383D01*
X150746782Y-107565960D01*
X150536870Y-107651126D01*
X150522051Y-107659046D01*
X150503984Y-107891852D01*
X147796016Y-107891852D01*
X147777949Y-107659046D01*
X147569299Y-107570837D01*
X147347448Y-107525030D01*
X147314549Y-107524791D01*
X147480709Y-107358631D01*
X147161476Y-106987752D01*
X146549577Y-106799530D01*
X145912714Y-106734300D01*
X145275364Y-106794570D01*
X144662018Y-106978021D01*
X144638524Y-106987752D01*
X144319291Y-107358631D01*
X144484151Y-107523491D01*
X144469274Y-107523383D01*
X144246782Y-107565960D01*
X144036870Y-107651126D01*
X144022051Y-107659046D01*
X144003984Y-107891852D01*
X142222564Y-107891852D01*
X142403424Y-107743424D01*
X142622112Y-107476952D01*
X142784612Y-107172936D01*
X142884679Y-106843060D01*
X142918467Y-106500000D01*
X142910000Y-106414032D01*
X142910000Y-103945966D01*
X142918467Y-103860000D01*
X142903010Y-103703060D01*
X142884679Y-103516940D01*
X142784612Y-103187064D01*
X142622112Y-102883048D01*
X142403424Y-102616576D01*
X142336645Y-102561772D01*
X141958229Y-102183356D01*
X141903424Y-102116576D01*
X141636952Y-101897888D01*
X141332936Y-101735388D01*
X141003060Y-101635321D01*
X140745968Y-101610000D01*
X140745965Y-101610000D01*
X140660000Y-101601533D01*
X140574035Y-101610000D01*
X131085968Y-101610000D01*
X131000000Y-101601533D01*
X130914032Y-101610000D01*
X130324874Y-101610000D01*
X128890000Y-100175127D01*
X128890000Y-99119529D01*
X128977500Y-99089781D01*
X128977500Y-98450000D01*
X130382500Y-98450000D01*
X130382500Y-99089781D01*
X130616451Y-99169318D01*
X130626041Y-99151146D01*
X130881701Y-98939612D01*
X131091180Y-98682266D01*
X131032536Y-98450000D01*
X130382500Y-98450000D01*
X128977500Y-98450000D01*
X128910000Y-98450000D01*
X128910000Y-96950000D01*
X128977500Y-96950000D01*
X128977500Y-96310219D01*
X130382500Y-96310219D01*
X130382500Y-96950000D01*
X131032536Y-96950000D01*
X131091180Y-96717734D01*
X130881701Y-96460388D01*
X130626041Y-96248854D01*
X130616451Y-96230682D01*
X130382500Y-96310219D01*
X128977500Y-96310219D01*
X128743549Y-96230682D01*
X128733959Y-96248854D01*
X128478299Y-96460388D01*
X128421426Y-96530256D01*
X128349674Y-96442826D01*
X128090434Y-96230074D01*
X127794670Y-96071985D01*
X127473747Y-95974634D01*
X127140000Y-95941763D01*
X126806252Y-95974634D01*
X126485329Y-96071985D01*
X126189565Y-96230074D01*
X126158199Y-96255816D01*
X126085395Y-96167105D01*
X125971193Y-96073381D01*
X125840901Y-96003739D01*
X125699526Y-95960853D01*
X125552500Y-95946372D01*
X123647500Y-95946372D01*
X123500474Y-95960853D01*
X123359099Y-96003739D01*
X123228807Y-96073381D01*
X123114605Y-96167105D01*
X123020881Y-96281307D01*
X122951239Y-96411599D01*
X122908353Y-96552974D01*
X122893872Y-96700000D01*
X122893872Y-97495789D01*
X122875322Y-97556940D01*
X122850001Y-97814032D01*
X122850000Y-103385967D01*
X122850001Y-103385977D01*
X122850000Y-112743129D01*
X122660000Y-112821268D01*
X121460000Y-112821268D01*
X121235357Y-112728882D01*
X121108811Y-112813414D01*
X120876087Y-113023703D01*
X120688860Y-113275354D01*
X116389330Y-113275354D01*
X116302947Y-112990590D01*
X115957701Y-112702959D01*
X114560660Y-114100000D01*
X112439340Y-114100000D01*
X111042299Y-112702959D01*
X110697053Y-112990590D01*
X110534475Y-113558736D01*
X110485862Y-114147681D01*
X95771050Y-114147681D01*
X95771050Y-114063971D01*
X95768587Y-114038960D01*
X95748134Y-113693139D01*
X95741889Y-113648044D01*
X95737904Y-113602702D01*
X95573060Y-112620002D01*
X95544424Y-112505341D01*
X95540741Y-112490595D01*
X95412609Y-112108148D01*
X98103984Y-112108148D01*
X98122051Y-112340954D01*
X98330701Y-112429163D01*
X98552552Y-112474970D01*
X98585451Y-112475209D01*
X98419291Y-112641369D01*
X98738524Y-113012248D01*
X99350423Y-113200470D01*
X99987286Y-113265700D01*
X100624636Y-113205430D01*
X101237982Y-113021979D01*
X101261476Y-113012248D01*
X101580709Y-112641369D01*
X101415849Y-112476509D01*
X101430726Y-112476617D01*
X101653218Y-112434040D01*
X101863130Y-112348874D01*
X101877949Y-112340954D01*
X101896016Y-112108148D01*
X104603984Y-112108148D01*
X104622051Y-112340954D01*
X104830701Y-112429163D01*
X105052552Y-112474970D01*
X105085451Y-112475209D01*
X104919291Y-112641369D01*
X105238524Y-113012248D01*
X105850423Y-113200470D01*
X106487286Y-113265700D01*
X107124636Y-113205430D01*
X107737982Y-113021979D01*
X107761476Y-113012248D01*
X108080709Y-112641369D01*
X107915849Y-112476509D01*
X107930726Y-112476617D01*
X108153218Y-112434040D01*
X108363130Y-112348874D01*
X108377949Y-112340954D01*
X108396016Y-112108148D01*
X107825825Y-111537957D01*
X107810644Y-111553139D01*
X107598512Y-111341007D01*
X107613693Y-111325825D01*
X107043502Y-110755634D01*
X107015326Y-110757821D01*
X106785921Y-110528416D01*
X106588721Y-110725616D01*
X106409979Y-110724316D01*
X106214079Y-110528416D01*
X105984674Y-110757821D01*
X105956498Y-110755634D01*
X105386307Y-111325825D01*
X105401489Y-111341007D01*
X105189357Y-111553139D01*
X105174175Y-111537957D01*
X104603984Y-112108148D01*
X101896016Y-112108148D01*
X101325825Y-111537957D01*
X101310644Y-111553139D01*
X101098512Y-111341007D01*
X101113693Y-111325825D01*
X100543502Y-110755634D01*
X100515326Y-110757821D01*
X100285921Y-110528416D01*
X100088721Y-110725616D01*
X99909979Y-110724316D01*
X99714079Y-110528416D01*
X99484674Y-110757821D01*
X99456498Y-110755634D01*
X98886307Y-111325825D01*
X98901489Y-111341007D01*
X98689357Y-111553139D01*
X98674175Y-111537957D01*
X98103984Y-112108148D01*
X95412609Y-112108148D01*
X95224196Y-111545781D01*
X95178401Y-111438014D01*
X95172032Y-111423025D01*
X94711584Y-110539362D01*
X94640858Y-110426277D01*
X94315755Y-109987286D01*
X96734300Y-109987286D01*
X96794570Y-110624636D01*
X96978021Y-111237982D01*
X96987752Y-111261476D01*
X97358631Y-111580709D01*
X97523491Y-111415849D01*
X97523383Y-111430726D01*
X97565960Y-111653218D01*
X97651126Y-111863130D01*
X97659046Y-111877949D01*
X97891852Y-111896016D01*
X98462043Y-111325825D01*
X98446862Y-111310644D01*
X98658994Y-111098512D01*
X98674175Y-111113693D01*
X99244366Y-110543502D01*
X99242179Y-110515326D01*
X99471584Y-110285921D01*
X99274384Y-110088721D01*
X99275684Y-109909979D01*
X99471584Y-109714079D01*
X100528416Y-109714079D01*
X100725616Y-109911279D01*
X100724316Y-110090021D01*
X100528416Y-110285921D01*
X100757821Y-110515326D01*
X100755634Y-110543502D01*
X101325825Y-111113693D01*
X101341007Y-111098512D01*
X101553139Y-111310644D01*
X101537957Y-111325825D01*
X102108148Y-111896016D01*
X102340954Y-111877949D01*
X102429163Y-111669299D01*
X102474970Y-111447448D01*
X102475209Y-111414549D01*
X102641369Y-111580709D01*
X103012248Y-111261476D01*
X103200470Y-110649577D01*
X103250624Y-110159908D01*
X103294570Y-110624636D01*
X103478021Y-111237982D01*
X103487752Y-111261476D01*
X103858631Y-111580709D01*
X104023491Y-111415849D01*
X104023383Y-111430726D01*
X104065960Y-111653218D01*
X104151126Y-111863130D01*
X104159046Y-111877949D01*
X104391852Y-111896016D01*
X104962043Y-111325825D01*
X104946862Y-111310644D01*
X105158994Y-111098512D01*
X105174175Y-111113693D01*
X105744366Y-110543502D01*
X105742179Y-110515326D01*
X105971584Y-110285921D01*
X105774384Y-110088721D01*
X105775684Y-109909979D01*
X105971584Y-109714079D01*
X107028416Y-109714079D01*
X107225616Y-109911279D01*
X107224316Y-110090021D01*
X107028416Y-110285921D01*
X107257821Y-110515326D01*
X107255634Y-110543502D01*
X107825825Y-111113693D01*
X107841007Y-111098512D01*
X108053139Y-111310644D01*
X108037957Y-111325825D01*
X108608148Y-111896016D01*
X108840954Y-111877949D01*
X108929163Y-111669299D01*
X108934737Y-111642299D01*
X112102959Y-111642299D01*
X113500000Y-113039340D01*
X114897041Y-111642299D01*
X114609410Y-111297053D01*
X114041264Y-111134475D01*
X113452319Y-111085862D01*
X112865206Y-111153080D01*
X112390590Y-111297053D01*
X112102959Y-111642299D01*
X108934737Y-111642299D01*
X108974970Y-111447448D01*
X108975209Y-111414549D01*
X109141369Y-111580709D01*
X109512248Y-111261476D01*
X109700470Y-110649577D01*
X109765700Y-110012714D01*
X109705430Y-109375364D01*
X109521979Y-108762018D01*
X109512248Y-108738524D01*
X109141369Y-108419291D01*
X108976509Y-108584151D01*
X108976617Y-108569274D01*
X108934040Y-108346782D01*
X108848874Y-108136870D01*
X108840954Y-108122051D01*
X108608148Y-108103984D01*
X108037957Y-108674175D01*
X108053139Y-108689357D01*
X107841007Y-108901489D01*
X107825825Y-108886307D01*
X107255634Y-109456498D01*
X107257821Y-109484674D01*
X107028416Y-109714079D01*
X105971584Y-109714079D01*
X105742179Y-109484674D01*
X105744366Y-109456498D01*
X105174175Y-108886307D01*
X105158994Y-108901489D01*
X104946862Y-108689357D01*
X104962043Y-108674175D01*
X104391852Y-108103984D01*
X104159046Y-108122051D01*
X104070837Y-108330701D01*
X104025030Y-108552552D01*
X104024791Y-108585451D01*
X103858631Y-108419291D01*
X103487752Y-108738524D01*
X103299530Y-109350423D01*
X103249376Y-109840092D01*
X103205430Y-109375364D01*
X103021979Y-108762018D01*
X103012248Y-108738524D01*
X102641369Y-108419291D01*
X102476509Y-108584151D01*
X102476617Y-108569274D01*
X102434040Y-108346782D01*
X102348874Y-108136870D01*
X102340954Y-108122051D01*
X102108148Y-108103984D01*
X101537957Y-108674175D01*
X101553139Y-108689357D01*
X101341007Y-108901489D01*
X101325825Y-108886307D01*
X100755634Y-109456498D01*
X100757821Y-109484674D01*
X100528416Y-109714079D01*
X99471584Y-109714079D01*
X99242179Y-109484674D01*
X99244366Y-109456498D01*
X98674175Y-108886307D01*
X98658994Y-108901489D01*
X98446862Y-108689357D01*
X98462043Y-108674175D01*
X97891852Y-108103984D01*
X97659046Y-108122051D01*
X97570837Y-108330701D01*
X97525030Y-108552552D01*
X97524791Y-108585451D01*
X97358631Y-108419291D01*
X96987752Y-108738524D01*
X96799530Y-109350423D01*
X96734300Y-109987286D01*
X94315755Y-109987286D01*
X94047847Y-109625528D01*
X94047843Y-109625522D01*
X93960298Y-109524893D01*
X93249318Y-108826766D01*
X93147109Y-108741071D01*
X92335672Y-108162761D01*
X92250185Y-108111442D01*
X92221316Y-108094111D01*
X91815247Y-107891852D01*
X98103984Y-107891852D01*
X98674175Y-108462043D01*
X98689357Y-108446862D01*
X98901489Y-108658994D01*
X98886307Y-108674175D01*
X99456498Y-109244366D01*
X99484674Y-109242179D01*
X99714079Y-109471584D01*
X99911279Y-109274384D01*
X100090021Y-109275684D01*
X100285921Y-109471584D01*
X100515326Y-109242179D01*
X100543502Y-109244366D01*
X101113693Y-108674175D01*
X101098512Y-108658994D01*
X101310644Y-108446862D01*
X101325825Y-108462043D01*
X101896016Y-107891852D01*
X104603984Y-107891852D01*
X105174175Y-108462043D01*
X105189357Y-108446862D01*
X105401489Y-108658994D01*
X105386307Y-108674175D01*
X105956498Y-109244366D01*
X105984674Y-109242179D01*
X106214079Y-109471584D01*
X106411279Y-109274384D01*
X106590021Y-109275684D01*
X106785921Y-109471584D01*
X107015326Y-109242179D01*
X107043502Y-109244366D01*
X107613693Y-108674175D01*
X107598512Y-108658994D01*
X107810644Y-108446862D01*
X107825825Y-108462043D01*
X108396016Y-107891852D01*
X108377949Y-107659046D01*
X108169299Y-107570837D01*
X107947448Y-107525030D01*
X107914549Y-107524791D01*
X108080709Y-107358631D01*
X107761476Y-106987752D01*
X107149577Y-106799530D01*
X106512714Y-106734300D01*
X105875364Y-106794570D01*
X105262018Y-106978021D01*
X105238524Y-106987752D01*
X104919291Y-107358631D01*
X105084151Y-107523491D01*
X105069274Y-107523383D01*
X104846782Y-107565960D01*
X104636870Y-107651126D01*
X104622051Y-107659046D01*
X104603984Y-107891852D01*
X101896016Y-107891852D01*
X101877949Y-107659046D01*
X101669299Y-107570837D01*
X101447448Y-107525030D01*
X101414549Y-107524791D01*
X101580709Y-107358631D01*
X101261476Y-106987752D01*
X100649577Y-106799530D01*
X100012714Y-106734300D01*
X99375364Y-106794570D01*
X98762018Y-106978021D01*
X98738524Y-106987752D01*
X98419291Y-107358631D01*
X98584151Y-107523491D01*
X98569274Y-107523383D01*
X98346782Y-107565960D01*
X98136870Y-107651126D01*
X98122051Y-107659046D01*
X98103984Y-107891852D01*
X91815247Y-107891852D01*
X91329405Y-107649859D01*
X91329400Y-107649856D01*
X91205713Y-107599940D01*
X90330830Y-107324470D01*
X90326855Y-107322345D01*
X90166629Y-107273742D01*
X90041749Y-107261442D01*
X86659000Y-107261442D01*
X86659000Y-101944643D01*
X91228882Y-101944643D01*
X91313414Y-102071189D01*
X91523703Y-102303913D01*
X91775354Y-102491140D01*
X92000000Y-102415762D01*
X92000000Y-101720000D01*
X93200000Y-101720000D01*
X93200000Y-102415762D01*
X93424646Y-102491140D01*
X93676297Y-102303913D01*
X93886586Y-102071189D01*
X93971118Y-101944643D01*
X93878732Y-101720000D01*
X93200000Y-101720000D01*
X92000000Y-101720000D01*
X91321268Y-101720000D01*
X91228882Y-101944643D01*
X86659000Y-101944643D01*
X86659000Y-99404643D01*
X91228882Y-99404643D01*
X91313414Y-99531189D01*
X91523703Y-99763913D01*
X91639412Y-99850000D01*
X91523703Y-99936087D01*
X91313414Y-100168811D01*
X91228882Y-100295357D01*
X91321268Y-100520000D01*
X92000000Y-100520000D01*
X92000000Y-99180000D01*
X93200000Y-99180000D01*
X93200000Y-100520000D01*
X93878732Y-100520000D01*
X93971118Y-100295357D01*
X93886586Y-100168811D01*
X93676297Y-99936087D01*
X93560588Y-99850000D01*
X93676297Y-99763913D01*
X93886586Y-99531189D01*
X93971118Y-99404643D01*
X93878732Y-99180000D01*
X93200000Y-99180000D01*
X92000000Y-99180000D01*
X91321268Y-99180000D01*
X91228882Y-99404643D01*
X86659000Y-99404643D01*
X86659000Y-96864643D01*
X91228882Y-96864643D01*
X91313414Y-96991189D01*
X91523703Y-97223913D01*
X91639412Y-97310000D01*
X91523703Y-97396087D01*
X91313414Y-97628811D01*
X91228882Y-97755357D01*
X91321268Y-97980000D01*
X92000000Y-97980000D01*
X92000000Y-96640000D01*
X93200000Y-96640000D01*
X93200000Y-97980000D01*
X93878732Y-97980000D01*
X93971118Y-97755357D01*
X93886586Y-97628811D01*
X93676297Y-97396087D01*
X93560588Y-97310000D01*
X93676297Y-97223913D01*
X93886586Y-96991189D01*
X93971118Y-96864643D01*
X93878732Y-96640000D01*
X93200000Y-96640000D01*
X92000000Y-96640000D01*
X91321268Y-96640000D01*
X91228882Y-96864643D01*
X86659000Y-96864643D01*
X86659000Y-94324643D01*
X91228882Y-94324643D01*
X91313414Y-94451189D01*
X91523703Y-94683913D01*
X91639412Y-94770000D01*
X91523703Y-94856087D01*
X91313414Y-95088811D01*
X91228882Y-95215357D01*
X91321268Y-95440000D01*
X92000000Y-95440000D01*
X92000000Y-94100000D01*
X93200000Y-94100000D01*
X93200000Y-95440000D01*
X93878732Y-95440000D01*
X93896351Y-95397158D01*
X105363503Y-95397158D01*
X105553097Y-95666362D01*
X105988163Y-95750941D01*
X106431370Y-95749017D01*
X106846903Y-95666362D01*
X107036497Y-95397158D01*
X148363503Y-95397158D01*
X148553097Y-95666362D01*
X148988163Y-95750941D01*
X149431370Y-95749017D01*
X149846903Y-95666362D01*
X150036497Y-95397158D01*
X149200000Y-94560660D01*
X148363503Y-95397158D01*
X107036497Y-95397158D01*
X106200000Y-94560660D01*
X105363503Y-95397158D01*
X93896351Y-95397158D01*
X93971118Y-95215357D01*
X93886586Y-95088811D01*
X93676297Y-94856087D01*
X93560588Y-94770000D01*
X93676297Y-94683913D01*
X93886586Y-94451189D01*
X93971118Y-94324643D01*
X93878732Y-94100000D01*
X93200000Y-94100000D01*
X92000000Y-94100000D01*
X91321268Y-94100000D01*
X91228882Y-94324643D01*
X86659000Y-94324643D01*
X86659000Y-93288163D01*
X103949059Y-93288163D01*
X103950983Y-93731370D01*
X104033638Y-94146903D01*
X104302842Y-94336497D01*
X105139340Y-93500000D01*
X107260660Y-93500000D01*
X108097158Y-94336497D01*
X108366362Y-94146903D01*
X108450941Y-93711837D01*
X108449102Y-93288163D01*
X146949059Y-93288163D01*
X146950983Y-93731370D01*
X147033638Y-94146903D01*
X147302842Y-94336497D01*
X148139340Y-93500000D01*
X150260660Y-93500000D01*
X151097158Y-94336497D01*
X151366362Y-94146903D01*
X151450941Y-93711837D01*
X151449017Y-93268630D01*
X151366362Y-92853097D01*
X151097158Y-92663503D01*
X150260660Y-93500000D01*
X148139340Y-93500000D01*
X147302842Y-92663503D01*
X147033638Y-92853097D01*
X146949059Y-93288163D01*
X108449102Y-93288163D01*
X108449017Y-93268630D01*
X108366362Y-92853097D01*
X108097158Y-92663503D01*
X107260660Y-93500000D01*
X105139340Y-93500000D01*
X104302842Y-92663503D01*
X104033638Y-92853097D01*
X103949059Y-93288163D01*
X86659000Y-93288163D01*
X86659000Y-91810000D01*
X90996371Y-91810000D01*
X91010852Y-91957026D01*
X91053738Y-92098401D01*
X91123380Y-92228694D01*
X91217104Y-92342896D01*
X91331306Y-92436620D01*
X91387601Y-92466710D01*
X91313414Y-92548811D01*
X91228882Y-92675357D01*
X91321268Y-92900000D01*
X92000000Y-92900000D01*
X92000000Y-91560000D01*
X93200000Y-91560000D01*
X93200000Y-92900000D01*
X93878732Y-92900000D01*
X93971118Y-92675357D01*
X93886586Y-92548811D01*
X93812399Y-92466710D01*
X93868694Y-92436620D01*
X93982896Y-92342896D01*
X94076620Y-92228694D01*
X94146262Y-92098401D01*
X94189148Y-91957026D01*
X94203629Y-91810000D01*
X94200000Y-91747500D01*
X94055342Y-91602842D01*
X105363503Y-91602842D01*
X106200000Y-92439340D01*
X107036497Y-91602842D01*
X148363503Y-91602842D01*
X149200000Y-92439340D01*
X150036497Y-91602842D01*
X149846903Y-91333638D01*
X149411837Y-91249059D01*
X148968630Y-91250983D01*
X148553097Y-91333638D01*
X148363503Y-91602842D01*
X107036497Y-91602842D01*
X106846903Y-91333638D01*
X106411837Y-91249059D01*
X105968630Y-91250983D01*
X105553097Y-91333638D01*
X105363503Y-91602842D01*
X94055342Y-91602842D01*
X94012500Y-91560000D01*
X93200000Y-91560000D01*
X92000000Y-91560000D01*
X91187500Y-91560000D01*
X91000000Y-91747500D01*
X90996371Y-91810000D01*
X86659000Y-91810000D01*
X86659000Y-90110000D01*
X90996371Y-90110000D01*
X91000000Y-90172500D01*
X91187500Y-90360000D01*
X92000000Y-90360000D01*
X92000000Y-89547500D01*
X93200000Y-89547500D01*
X93200000Y-90360000D01*
X94012500Y-90360000D01*
X94200000Y-90172500D01*
X94203629Y-90110000D01*
X94189148Y-89962974D01*
X94146262Y-89821599D01*
X94076620Y-89691306D01*
X93982896Y-89577104D01*
X93868694Y-89483380D01*
X93738401Y-89413738D01*
X93597026Y-89370852D01*
X93450000Y-89356371D01*
X93387500Y-89360000D01*
X93200000Y-89547500D01*
X92000000Y-89547500D01*
X91812500Y-89360000D01*
X91750000Y-89356371D01*
X91602974Y-89370852D01*
X91461599Y-89413738D01*
X91331306Y-89483380D01*
X91217104Y-89577104D01*
X91123380Y-89691306D01*
X91053738Y-89821599D01*
X91010852Y-89962974D01*
X90996371Y-90110000D01*
X86659000Y-90110000D01*
X86659000Y-82850000D01*
X90041749Y-82850000D01*
X90083160Y-82845921D01*
X90083171Y-82845921D01*
X90083182Y-82845919D01*
X90166629Y-82837700D01*
X90230672Y-82818273D01*
X90565763Y-82730893D01*
X90608769Y-82715988D01*
X90652481Y-82703244D01*
X91584256Y-82350160D01*
X91704889Y-82293257D01*
X92569959Y-81798759D01*
X92680205Y-81723685D01*
X93457268Y-81099948D01*
X93480410Y-81078176D01*
X93554413Y-81008553D01*
X94224335Y-80270937D01*
X94228181Y-80265970D01*
X94266972Y-80215863D01*
X94305986Y-80165470D01*
X94305988Y-80165467D01*
X94605779Y-79708148D01*
X98103984Y-79708148D01*
X98122051Y-79940954D01*
X98330701Y-80029163D01*
X98552552Y-80074970D01*
X98585451Y-80075209D01*
X98419291Y-80241369D01*
X98738524Y-80612248D01*
X99350423Y-80800470D01*
X99987286Y-80865700D01*
X100624636Y-80805430D01*
X101237982Y-80621979D01*
X101261476Y-80612248D01*
X101580709Y-80241369D01*
X101415849Y-80076509D01*
X101430726Y-80076617D01*
X101653218Y-80034040D01*
X101863130Y-79948874D01*
X101877949Y-79940954D01*
X101896016Y-79708148D01*
X104603984Y-79708148D01*
X104622051Y-79940954D01*
X104830701Y-80029163D01*
X105052552Y-80074970D01*
X105085451Y-80075209D01*
X104919291Y-80241369D01*
X105238524Y-80612248D01*
X105850423Y-80800470D01*
X106487286Y-80865700D01*
X107124636Y-80805430D01*
X107737982Y-80621979D01*
X107761476Y-80612248D01*
X108080709Y-80241369D01*
X107915849Y-80076509D01*
X107930726Y-80076617D01*
X108153218Y-80034040D01*
X108363130Y-79948874D01*
X108377949Y-79940954D01*
X108396016Y-79708148D01*
X108296016Y-79608148D01*
X144003984Y-79608148D01*
X144022051Y-79840954D01*
X144230701Y-79929163D01*
X144452552Y-79974970D01*
X144485451Y-79975209D01*
X144319291Y-80141369D01*
X144638524Y-80512248D01*
X145250423Y-80700470D01*
X145887286Y-80765700D01*
X146524636Y-80705430D01*
X147137982Y-80521979D01*
X147161476Y-80512248D01*
X147480709Y-80141369D01*
X147315849Y-79976509D01*
X147330726Y-79976617D01*
X147553218Y-79934040D01*
X147763130Y-79848874D01*
X147777949Y-79840954D01*
X147796016Y-79608148D01*
X150503984Y-79608148D01*
X150522051Y-79840954D01*
X150730701Y-79929163D01*
X150952552Y-79974970D01*
X150985451Y-79975209D01*
X150819291Y-80141369D01*
X151138524Y-80512248D01*
X151750423Y-80700470D01*
X152387286Y-80765700D01*
X153024636Y-80705430D01*
X153637982Y-80521979D01*
X153661476Y-80512248D01*
X153980709Y-80141369D01*
X153815849Y-79976509D01*
X153830726Y-79976617D01*
X154053218Y-79934040D01*
X154263130Y-79848874D01*
X154277949Y-79840954D01*
X154296016Y-79608148D01*
X153725825Y-79037957D01*
X153710644Y-79053139D01*
X153498512Y-78841007D01*
X153513693Y-78825825D01*
X152943502Y-78255634D01*
X152915326Y-78257821D01*
X152685921Y-78028416D01*
X152488721Y-78225616D01*
X152309979Y-78224316D01*
X152114079Y-78028416D01*
X151884674Y-78257821D01*
X151856498Y-78255634D01*
X151286307Y-78825825D01*
X151301489Y-78841007D01*
X151089357Y-79053139D01*
X151074175Y-79037957D01*
X150503984Y-79608148D01*
X147796016Y-79608148D01*
X147225825Y-79037957D01*
X147210644Y-79053139D01*
X146998512Y-78841007D01*
X147013693Y-78825825D01*
X146443502Y-78255634D01*
X146415326Y-78257821D01*
X146185921Y-78028416D01*
X145988721Y-78225616D01*
X145809979Y-78224316D01*
X145614079Y-78028416D01*
X145384674Y-78257821D01*
X145356498Y-78255634D01*
X144786307Y-78825825D01*
X144801489Y-78841007D01*
X144589357Y-79053139D01*
X144574175Y-79037957D01*
X144003984Y-79608148D01*
X108296016Y-79608148D01*
X107825825Y-79137957D01*
X107810644Y-79153139D01*
X107598512Y-78941007D01*
X107613693Y-78925825D01*
X107043502Y-78355634D01*
X107015326Y-78357821D01*
X106785921Y-78128416D01*
X106588721Y-78325616D01*
X106409979Y-78324316D01*
X106214079Y-78128416D01*
X105984674Y-78357821D01*
X105956498Y-78355634D01*
X105386307Y-78925825D01*
X105401489Y-78941007D01*
X105189357Y-79153139D01*
X105174175Y-79137957D01*
X104603984Y-79708148D01*
X101896016Y-79708148D01*
X101325825Y-79137957D01*
X101310644Y-79153139D01*
X101098512Y-78941007D01*
X101113693Y-78925825D01*
X100543502Y-78355634D01*
X100515326Y-78357821D01*
X100285921Y-78128416D01*
X100088721Y-78325616D01*
X99909979Y-78324316D01*
X99714079Y-78128416D01*
X99484674Y-78357821D01*
X99456498Y-78355634D01*
X98886307Y-78925825D01*
X98901489Y-78941007D01*
X98689357Y-79153139D01*
X98674175Y-79137957D01*
X98103984Y-79708148D01*
X94605779Y-79708148D01*
X94852272Y-79332133D01*
X94886739Y-79269299D01*
X94916419Y-79215192D01*
X95325617Y-78306661D01*
X95350656Y-78236907D01*
X95370681Y-78181123D01*
X95532540Y-77587286D01*
X96734300Y-77587286D01*
X96794570Y-78224636D01*
X96978021Y-78837982D01*
X96987752Y-78861476D01*
X97358631Y-79180709D01*
X97523491Y-79015849D01*
X97523383Y-79030726D01*
X97565960Y-79253218D01*
X97651126Y-79463130D01*
X97659046Y-79477949D01*
X97891852Y-79496016D01*
X98462043Y-78925825D01*
X98446862Y-78910644D01*
X98658994Y-78698512D01*
X98674175Y-78713693D01*
X99244366Y-78143502D01*
X99242179Y-78115326D01*
X99471584Y-77885921D01*
X99274384Y-77688721D01*
X99275684Y-77509979D01*
X99471584Y-77314079D01*
X100528416Y-77314079D01*
X100725616Y-77511279D01*
X100724316Y-77690021D01*
X100528416Y-77885921D01*
X100757821Y-78115326D01*
X100755634Y-78143502D01*
X101325825Y-78713693D01*
X101341007Y-78698512D01*
X101553139Y-78910644D01*
X101537957Y-78925825D01*
X102108148Y-79496016D01*
X102340954Y-79477949D01*
X102429163Y-79269299D01*
X102474970Y-79047448D01*
X102475209Y-79014549D01*
X102641369Y-79180709D01*
X103012248Y-78861476D01*
X103200470Y-78249577D01*
X103250624Y-77759908D01*
X103294570Y-78224636D01*
X103478021Y-78837982D01*
X103487752Y-78861476D01*
X103858631Y-79180709D01*
X104023491Y-79015849D01*
X104023383Y-79030726D01*
X104065960Y-79253218D01*
X104151126Y-79463130D01*
X104159046Y-79477949D01*
X104391852Y-79496016D01*
X104962043Y-78925825D01*
X104946862Y-78910644D01*
X105158994Y-78698512D01*
X105174175Y-78713693D01*
X105744366Y-78143502D01*
X105742179Y-78115326D01*
X105971584Y-77885921D01*
X105774384Y-77688721D01*
X105775684Y-77509979D01*
X105971584Y-77314079D01*
X107028416Y-77314079D01*
X107225616Y-77511279D01*
X107224316Y-77690021D01*
X107028416Y-77885921D01*
X107257821Y-78115326D01*
X107255634Y-78143502D01*
X107825825Y-78713693D01*
X107841007Y-78698512D01*
X108053139Y-78910644D01*
X108037957Y-78925825D01*
X108608148Y-79496016D01*
X108840954Y-79477949D01*
X108929163Y-79269299D01*
X108974970Y-79047448D01*
X108975209Y-79014549D01*
X109141369Y-79180709D01*
X109512248Y-78861476D01*
X109636450Y-78457701D01*
X112102959Y-78457701D01*
X112390590Y-78802947D01*
X112958736Y-78965525D01*
X113547681Y-79014138D01*
X114134794Y-78946920D01*
X114609410Y-78802947D01*
X114897041Y-78457701D01*
X137502959Y-78457701D01*
X137790590Y-78802947D01*
X138358736Y-78965525D01*
X138947681Y-79014138D01*
X139534794Y-78946920D01*
X140009410Y-78802947D01*
X140297041Y-78457701D01*
X139326626Y-77487286D01*
X142634300Y-77487286D01*
X142694570Y-78124636D01*
X142878021Y-78737982D01*
X142887752Y-78761476D01*
X143258631Y-79080709D01*
X143423491Y-78915849D01*
X143423383Y-78930726D01*
X143465960Y-79153218D01*
X143551126Y-79363130D01*
X143559046Y-79377949D01*
X143791852Y-79396016D01*
X144362043Y-78825825D01*
X144346862Y-78810644D01*
X144558994Y-78598512D01*
X144574175Y-78613693D01*
X145144366Y-78043502D01*
X145142179Y-78015326D01*
X145371584Y-77785921D01*
X145174384Y-77588721D01*
X145175684Y-77409979D01*
X145371584Y-77214079D01*
X146428416Y-77214079D01*
X146625616Y-77411279D01*
X146624316Y-77590021D01*
X146428416Y-77785921D01*
X146657821Y-78015326D01*
X146655634Y-78043502D01*
X147225825Y-78613693D01*
X147241007Y-78598512D01*
X147453139Y-78810644D01*
X147437957Y-78825825D01*
X148008148Y-79396016D01*
X148240954Y-79377949D01*
X148329163Y-79169299D01*
X148374970Y-78947448D01*
X148375209Y-78914549D01*
X148541369Y-79080709D01*
X148912248Y-78761476D01*
X149100470Y-78149577D01*
X149150624Y-77659908D01*
X149194570Y-78124636D01*
X149378021Y-78737982D01*
X149387752Y-78761476D01*
X149758631Y-79080709D01*
X149923491Y-78915849D01*
X149923383Y-78930726D01*
X149965960Y-79153218D01*
X150051126Y-79363130D01*
X150059046Y-79377949D01*
X150291852Y-79396016D01*
X150862043Y-78825825D01*
X150846862Y-78810644D01*
X151058994Y-78598512D01*
X151074175Y-78613693D01*
X151644366Y-78043502D01*
X151642179Y-78015326D01*
X151871584Y-77785921D01*
X151674384Y-77588721D01*
X151675684Y-77409979D01*
X151871584Y-77214079D01*
X152928416Y-77214079D01*
X153125616Y-77411279D01*
X153124316Y-77590021D01*
X152928416Y-77785921D01*
X153157821Y-78015326D01*
X153155634Y-78043502D01*
X153725825Y-78613693D01*
X153741007Y-78598512D01*
X153953139Y-78810644D01*
X153937957Y-78825825D01*
X154508148Y-79396016D01*
X154740954Y-79377949D01*
X154829163Y-79169299D01*
X154874970Y-78947448D01*
X154875209Y-78914549D01*
X155041369Y-79080709D01*
X155412248Y-78761476D01*
X155600470Y-78149577D01*
X155665700Y-77512714D01*
X155605430Y-76875364D01*
X155421979Y-76262018D01*
X155412248Y-76238524D01*
X155041369Y-75919291D01*
X154876509Y-76084151D01*
X154876617Y-76069274D01*
X154834040Y-75846782D01*
X154748874Y-75636870D01*
X154740954Y-75622051D01*
X154508148Y-75603984D01*
X153937957Y-76174175D01*
X153953139Y-76189357D01*
X153741007Y-76401489D01*
X153725825Y-76386307D01*
X153155634Y-76956498D01*
X153157821Y-76984674D01*
X152928416Y-77214079D01*
X151871584Y-77214079D01*
X151642179Y-76984674D01*
X151644366Y-76956498D01*
X151074175Y-76386307D01*
X151058994Y-76401489D01*
X150846862Y-76189357D01*
X150862043Y-76174175D01*
X150291852Y-75603984D01*
X150059046Y-75622051D01*
X149970837Y-75830701D01*
X149925030Y-76052552D01*
X149924791Y-76085451D01*
X149758631Y-75919291D01*
X149387752Y-76238524D01*
X149199530Y-76850423D01*
X149149376Y-77340092D01*
X149105430Y-76875364D01*
X148921979Y-76262018D01*
X148912248Y-76238524D01*
X148541369Y-75919291D01*
X148376509Y-76084151D01*
X148376617Y-76069274D01*
X148334040Y-75846782D01*
X148248874Y-75636870D01*
X148240954Y-75622051D01*
X148008148Y-75603984D01*
X147437957Y-76174175D01*
X147453139Y-76189357D01*
X147241007Y-76401489D01*
X147225825Y-76386307D01*
X146655634Y-76956498D01*
X146657821Y-76984674D01*
X146428416Y-77214079D01*
X145371584Y-77214079D01*
X145142179Y-76984674D01*
X145144366Y-76956498D01*
X144574175Y-76386307D01*
X144558994Y-76401489D01*
X144346862Y-76189357D01*
X144362043Y-76174175D01*
X143791852Y-75603984D01*
X143559046Y-75622051D01*
X143470837Y-75830701D01*
X143425030Y-76052552D01*
X143424791Y-76085451D01*
X143258631Y-75919291D01*
X142887752Y-76238524D01*
X142699530Y-76850423D01*
X142634300Y-77487286D01*
X139326626Y-77487286D01*
X138900000Y-77060660D01*
X137502959Y-78457701D01*
X114897041Y-78457701D01*
X113500000Y-77060660D01*
X112102959Y-78457701D01*
X109636450Y-78457701D01*
X109700470Y-78249577D01*
X109765700Y-77612714D01*
X109705430Y-76975364D01*
X109521979Y-76362018D01*
X109512248Y-76338524D01*
X109174352Y-76047681D01*
X110485862Y-76047681D01*
X110553080Y-76634794D01*
X110697053Y-77109410D01*
X111042299Y-77397041D01*
X112439340Y-76000000D01*
X114560660Y-76000000D01*
X115957701Y-77397041D01*
X116302947Y-77109410D01*
X116465525Y-76541264D01*
X116506266Y-76047681D01*
X135885862Y-76047681D01*
X135953080Y-76634794D01*
X136097053Y-77109410D01*
X136442299Y-77397041D01*
X137839340Y-76000000D01*
X139960660Y-76000000D01*
X141357701Y-77397041D01*
X141702947Y-77109410D01*
X141865525Y-76541264D01*
X141914138Y-75952319D01*
X141849971Y-75391852D01*
X144003984Y-75391852D01*
X144574175Y-75962043D01*
X144589357Y-75946862D01*
X144801489Y-76158994D01*
X144786307Y-76174175D01*
X145356498Y-76744366D01*
X145384674Y-76742179D01*
X145614079Y-76971584D01*
X145811279Y-76774384D01*
X145990021Y-76775684D01*
X146185921Y-76971584D01*
X146415326Y-76742179D01*
X146443502Y-76744366D01*
X147013693Y-76174175D01*
X146998512Y-76158994D01*
X147210644Y-75946862D01*
X147225825Y-75962043D01*
X147796016Y-75391852D01*
X150503984Y-75391852D01*
X151074175Y-75962043D01*
X151089357Y-75946862D01*
X151301489Y-76158994D01*
X151286307Y-76174175D01*
X151856498Y-76744366D01*
X151884674Y-76742179D01*
X152114079Y-76971584D01*
X152311279Y-76774384D01*
X152490021Y-76775684D01*
X152685921Y-76971584D01*
X152915326Y-76742179D01*
X152943502Y-76744366D01*
X153513693Y-76174175D01*
X153498512Y-76158994D01*
X153710644Y-75946862D01*
X153725825Y-75962043D01*
X154296016Y-75391852D01*
X154277949Y-75159046D01*
X154069299Y-75070837D01*
X153847448Y-75025030D01*
X153814549Y-75024791D01*
X153980709Y-74858631D01*
X153661476Y-74487752D01*
X153049577Y-74299530D01*
X152412714Y-74234300D01*
X151775364Y-74294570D01*
X151162018Y-74478021D01*
X151138524Y-74487752D01*
X150819291Y-74858631D01*
X150984151Y-75023491D01*
X150969274Y-75023383D01*
X150746782Y-75065960D01*
X150536870Y-75151126D01*
X150522051Y-75159046D01*
X150503984Y-75391852D01*
X147796016Y-75391852D01*
X147777949Y-75159046D01*
X147569299Y-75070837D01*
X147347448Y-75025030D01*
X147314549Y-75024791D01*
X147480709Y-74858631D01*
X147161476Y-74487752D01*
X146549577Y-74299530D01*
X145912714Y-74234300D01*
X145275364Y-74294570D01*
X144662018Y-74478021D01*
X144638524Y-74487752D01*
X144319291Y-74858631D01*
X144484151Y-75023491D01*
X144469274Y-75023383D01*
X144246782Y-75065960D01*
X144036870Y-75151126D01*
X144022051Y-75159046D01*
X144003984Y-75391852D01*
X141849971Y-75391852D01*
X141846920Y-75365206D01*
X141702947Y-74890590D01*
X141357701Y-74602959D01*
X139960660Y-76000000D01*
X137839340Y-76000000D01*
X136442299Y-74602959D01*
X136097053Y-74890590D01*
X135934475Y-75458736D01*
X135885862Y-76047681D01*
X116506266Y-76047681D01*
X116514138Y-75952319D01*
X116446920Y-75365206D01*
X116302947Y-74890590D01*
X115957701Y-74602959D01*
X114560660Y-76000000D01*
X112439340Y-76000000D01*
X111042299Y-74602959D01*
X110697053Y-74890590D01*
X110534475Y-75458736D01*
X110485862Y-76047681D01*
X109174352Y-76047681D01*
X109141369Y-76019291D01*
X108976509Y-76184151D01*
X108976617Y-76169274D01*
X108934040Y-75946782D01*
X108848874Y-75736870D01*
X108840954Y-75722051D01*
X108608148Y-75703984D01*
X108037957Y-76274175D01*
X108053139Y-76289357D01*
X107841007Y-76501489D01*
X107825825Y-76486307D01*
X107255634Y-77056498D01*
X107257821Y-77084674D01*
X107028416Y-77314079D01*
X105971584Y-77314079D01*
X105742179Y-77084674D01*
X105744366Y-77056498D01*
X105174175Y-76486307D01*
X105158994Y-76501489D01*
X104946862Y-76289357D01*
X104962043Y-76274175D01*
X104391852Y-75703984D01*
X104159046Y-75722051D01*
X104070837Y-75930701D01*
X104025030Y-76152552D01*
X104024791Y-76185451D01*
X103858631Y-76019291D01*
X103487752Y-76338524D01*
X103299530Y-76950423D01*
X103249376Y-77440092D01*
X103205430Y-76975364D01*
X103021979Y-76362018D01*
X103012248Y-76338524D01*
X102641369Y-76019291D01*
X102476509Y-76184151D01*
X102476617Y-76169274D01*
X102434040Y-75946782D01*
X102348874Y-75736870D01*
X102340954Y-75722051D01*
X102108148Y-75703984D01*
X101537957Y-76274175D01*
X101553139Y-76289357D01*
X101341007Y-76501489D01*
X101325825Y-76486307D01*
X100755634Y-77056498D01*
X100757821Y-77084674D01*
X100528416Y-77314079D01*
X99471584Y-77314079D01*
X99242179Y-77084674D01*
X99244366Y-77056498D01*
X98674175Y-76486307D01*
X98658994Y-76501489D01*
X98446862Y-76289357D01*
X98462043Y-76274175D01*
X97891852Y-75703984D01*
X97659046Y-75722051D01*
X97570837Y-75930701D01*
X97525030Y-76152552D01*
X97524791Y-76185451D01*
X97358631Y-76019291D01*
X96987752Y-76338524D01*
X96799530Y-76950423D01*
X96734300Y-77587286D01*
X95532540Y-77587286D01*
X95632715Y-77219764D01*
X95638496Y-77189304D01*
X95657586Y-77088722D01*
X95757402Y-76176794D01*
X95758750Y-76172351D01*
X95771050Y-76047471D01*
X95771050Y-75491852D01*
X98103984Y-75491852D01*
X98674175Y-76062043D01*
X98689357Y-76046862D01*
X98901489Y-76258994D01*
X98886307Y-76274175D01*
X99456498Y-76844366D01*
X99484674Y-76842179D01*
X99714079Y-77071584D01*
X99911279Y-76874384D01*
X100090021Y-76875684D01*
X100285921Y-77071584D01*
X100515326Y-76842179D01*
X100543502Y-76844366D01*
X101113693Y-76274175D01*
X101098512Y-76258994D01*
X101310644Y-76046862D01*
X101325825Y-76062043D01*
X101896016Y-75491852D01*
X104603984Y-75491852D01*
X105174175Y-76062043D01*
X105189357Y-76046862D01*
X105401489Y-76258994D01*
X105386307Y-76274175D01*
X105956498Y-76844366D01*
X105984674Y-76842179D01*
X106214079Y-77071584D01*
X106411279Y-76874384D01*
X106590021Y-76875684D01*
X106785921Y-77071584D01*
X107015326Y-76842179D01*
X107043502Y-76844366D01*
X107613693Y-76274175D01*
X107598512Y-76258994D01*
X107810644Y-76046862D01*
X107825825Y-76062043D01*
X108396016Y-75491852D01*
X108377949Y-75259046D01*
X108169299Y-75170837D01*
X107947448Y-75125030D01*
X107914549Y-75124791D01*
X108080709Y-74958631D01*
X107761476Y-74587752D01*
X107149577Y-74399530D01*
X106512714Y-74334300D01*
X105875364Y-74394570D01*
X105262018Y-74578021D01*
X105238524Y-74587752D01*
X104919291Y-74958631D01*
X105084151Y-75123491D01*
X105069274Y-75123383D01*
X104846782Y-75165960D01*
X104636870Y-75251126D01*
X104622051Y-75259046D01*
X104603984Y-75491852D01*
X101896016Y-75491852D01*
X101877949Y-75259046D01*
X101669299Y-75170837D01*
X101447448Y-75125030D01*
X101414549Y-75124791D01*
X101580709Y-74958631D01*
X101261476Y-74587752D01*
X100649577Y-74399530D01*
X100012714Y-74334300D01*
X99375364Y-74394570D01*
X98762018Y-74578021D01*
X98738524Y-74587752D01*
X98419291Y-74958631D01*
X98584151Y-75123491D01*
X98569274Y-75123383D01*
X98346782Y-75165960D01*
X98136870Y-75251126D01*
X98122051Y-75259046D01*
X98103984Y-75491852D01*
X95771050Y-75491852D01*
X95771050Y-73542299D01*
X112102959Y-73542299D01*
X113500000Y-74939340D01*
X114897041Y-73542299D01*
X137502959Y-73542299D01*
X138900000Y-74939340D01*
X140297041Y-73542299D01*
X140009410Y-73197053D01*
X139441264Y-73034475D01*
X138852319Y-72985862D01*
X138265206Y-73053080D01*
X137790590Y-73197053D01*
X137502959Y-73542299D01*
X114897041Y-73542299D01*
X114609410Y-73197053D01*
X114041264Y-73034475D01*
X113452319Y-72985862D01*
X112865206Y-73053080D01*
X112390590Y-73197053D01*
X112102959Y-73542299D01*
X95771050Y-73542299D01*
X95771050Y-72842521D01*
X156618951Y-72842521D01*
X156618950Y-76047470D01*
M02*
