G04 #@! TF.GenerationSoftware,KiCad,Pcbnew,(5.1.5)-3*
G04 #@! TF.CreationDate,2020-06-22T22:14:50-04:00*
G04 #@! TF.ProjectId,74X273 Simplified pinout,37345832-3733-4205-9369-6d706c696669,rev?*
G04 #@! TF.SameCoordinates,Original*
G04 #@! TF.FileFunction,Soldermask,Bot*
G04 #@! TF.FilePolarity,Negative*
%FSLAX46Y46*%
G04 Gerber Fmt 4.6, Leading zero omitted, Abs format (unit mm)*
G04 Created by KiCad (PCBNEW (5.1.5)-3) date 2020-06-22 22:14:50*
%MOMM*%
%LPD*%
G04 APERTURE LIST*
%ADD10C,0.100000*%
G04 APERTURE END LIST*
D10*
G36*
X167013512Y-99463927D02*
G01*
X167162812Y-99493624D01*
X167326784Y-99561544D01*
X167474354Y-99660147D01*
X167599853Y-99785646D01*
X167698456Y-99933216D01*
X167766376Y-100097188D01*
X167801000Y-100271259D01*
X167801000Y-100448741D01*
X167766376Y-100622812D01*
X167698456Y-100786784D01*
X167599853Y-100934354D01*
X167474354Y-101059853D01*
X167326784Y-101158456D01*
X167162812Y-101226376D01*
X167013512Y-101256073D01*
X166988742Y-101261000D01*
X166811258Y-101261000D01*
X166786488Y-101256073D01*
X166637188Y-101226376D01*
X166473216Y-101158456D01*
X166325646Y-101059853D01*
X166200147Y-100934354D01*
X166101544Y-100786784D01*
X166033624Y-100622812D01*
X165999000Y-100448741D01*
X165999000Y-100271259D01*
X166033624Y-100097188D01*
X166101544Y-99933216D01*
X166200147Y-99785646D01*
X166325646Y-99660147D01*
X166473216Y-99561544D01*
X166637188Y-99493624D01*
X166786488Y-99463927D01*
X166811258Y-99459000D01*
X166988742Y-99459000D01*
X167013512Y-99463927D01*
G37*
G36*
X150113512Y-99463927D02*
G01*
X150262812Y-99493624D01*
X150426784Y-99561544D01*
X150574354Y-99660147D01*
X150699853Y-99785646D01*
X150798456Y-99933216D01*
X150866376Y-100097188D01*
X150901000Y-100271259D01*
X150901000Y-100448741D01*
X150866376Y-100622812D01*
X150798456Y-100786784D01*
X150699853Y-100934354D01*
X150574354Y-101059853D01*
X150426784Y-101158456D01*
X150262812Y-101226376D01*
X150113512Y-101256073D01*
X150088742Y-101261000D01*
X149911258Y-101261000D01*
X149886488Y-101256073D01*
X149737188Y-101226376D01*
X149573216Y-101158456D01*
X149425646Y-101059853D01*
X149300147Y-100934354D01*
X149201544Y-100786784D01*
X149133624Y-100622812D01*
X149099000Y-100448741D01*
X149099000Y-100271259D01*
X149133624Y-100097188D01*
X149201544Y-99933216D01*
X149300147Y-99785646D01*
X149425646Y-99660147D01*
X149573216Y-99561544D01*
X149737188Y-99493624D01*
X149886488Y-99463927D01*
X149911258Y-99459000D01*
X150088742Y-99459000D01*
X150113512Y-99463927D01*
G37*
G36*
X150113512Y-96923927D02*
G01*
X150262812Y-96953624D01*
X150426784Y-97021544D01*
X150574354Y-97120147D01*
X150699853Y-97245646D01*
X150798456Y-97393216D01*
X150866376Y-97557188D01*
X150901000Y-97731259D01*
X150901000Y-97908741D01*
X150866376Y-98082812D01*
X150798456Y-98246784D01*
X150699853Y-98394354D01*
X150574354Y-98519853D01*
X150426784Y-98618456D01*
X150262812Y-98686376D01*
X150113512Y-98716073D01*
X150088742Y-98721000D01*
X149911258Y-98721000D01*
X149886488Y-98716073D01*
X149737188Y-98686376D01*
X149573216Y-98618456D01*
X149425646Y-98519853D01*
X149300147Y-98394354D01*
X149201544Y-98246784D01*
X149133624Y-98082812D01*
X149099000Y-97908741D01*
X149099000Y-97731259D01*
X149133624Y-97557188D01*
X149201544Y-97393216D01*
X149300147Y-97245646D01*
X149425646Y-97120147D01*
X149573216Y-97021544D01*
X149737188Y-96953624D01*
X149886488Y-96923927D01*
X149911258Y-96919000D01*
X150088742Y-96919000D01*
X150113512Y-96923927D01*
G37*
G36*
X167013512Y-96923927D02*
G01*
X167162812Y-96953624D01*
X167326784Y-97021544D01*
X167474354Y-97120147D01*
X167599853Y-97245646D01*
X167698456Y-97393216D01*
X167766376Y-97557188D01*
X167801000Y-97731259D01*
X167801000Y-97908741D01*
X167766376Y-98082812D01*
X167698456Y-98246784D01*
X167599853Y-98394354D01*
X167474354Y-98519853D01*
X167326784Y-98618456D01*
X167162812Y-98686376D01*
X167013512Y-98716073D01*
X166988742Y-98721000D01*
X166811258Y-98721000D01*
X166786488Y-98716073D01*
X166637188Y-98686376D01*
X166473216Y-98618456D01*
X166325646Y-98519853D01*
X166200147Y-98394354D01*
X166101544Y-98246784D01*
X166033624Y-98082812D01*
X165999000Y-97908741D01*
X165999000Y-97731259D01*
X166033624Y-97557188D01*
X166101544Y-97393216D01*
X166200147Y-97245646D01*
X166325646Y-97120147D01*
X166473216Y-97021544D01*
X166637188Y-96953624D01*
X166786488Y-96923927D01*
X166811258Y-96919000D01*
X166988742Y-96919000D01*
X167013512Y-96923927D01*
G37*
G36*
X167013512Y-94383927D02*
G01*
X167162812Y-94413624D01*
X167326784Y-94481544D01*
X167474354Y-94580147D01*
X167599853Y-94705646D01*
X167698456Y-94853216D01*
X167766376Y-95017188D01*
X167801000Y-95191259D01*
X167801000Y-95368741D01*
X167766376Y-95542812D01*
X167698456Y-95706784D01*
X167599853Y-95854354D01*
X167474354Y-95979853D01*
X167326784Y-96078456D01*
X167162812Y-96146376D01*
X167013512Y-96176073D01*
X166988742Y-96181000D01*
X166811258Y-96181000D01*
X166786488Y-96176073D01*
X166637188Y-96146376D01*
X166473216Y-96078456D01*
X166325646Y-95979853D01*
X166200147Y-95854354D01*
X166101544Y-95706784D01*
X166033624Y-95542812D01*
X165999000Y-95368741D01*
X165999000Y-95191259D01*
X166033624Y-95017188D01*
X166101544Y-94853216D01*
X166200147Y-94705646D01*
X166325646Y-94580147D01*
X166473216Y-94481544D01*
X166637188Y-94413624D01*
X166786488Y-94383927D01*
X166811258Y-94379000D01*
X166988742Y-94379000D01*
X167013512Y-94383927D01*
G37*
G36*
X150113512Y-94383927D02*
G01*
X150262812Y-94413624D01*
X150426784Y-94481544D01*
X150574354Y-94580147D01*
X150699853Y-94705646D01*
X150798456Y-94853216D01*
X150866376Y-95017188D01*
X150901000Y-95191259D01*
X150901000Y-95368741D01*
X150866376Y-95542812D01*
X150798456Y-95706784D01*
X150699853Y-95854354D01*
X150574354Y-95979853D01*
X150426784Y-96078456D01*
X150262812Y-96146376D01*
X150113512Y-96176073D01*
X150088742Y-96181000D01*
X149911258Y-96181000D01*
X149886488Y-96176073D01*
X149737188Y-96146376D01*
X149573216Y-96078456D01*
X149425646Y-95979853D01*
X149300147Y-95854354D01*
X149201544Y-95706784D01*
X149133624Y-95542812D01*
X149099000Y-95368741D01*
X149099000Y-95191259D01*
X149133624Y-95017188D01*
X149201544Y-94853216D01*
X149300147Y-94705646D01*
X149425646Y-94580147D01*
X149573216Y-94481544D01*
X149737188Y-94413624D01*
X149886488Y-94383927D01*
X149911258Y-94379000D01*
X150088742Y-94379000D01*
X150113512Y-94383927D01*
G37*
G36*
X150113512Y-91843927D02*
G01*
X150262812Y-91873624D01*
X150426784Y-91941544D01*
X150574354Y-92040147D01*
X150699853Y-92165646D01*
X150798456Y-92313216D01*
X150866376Y-92477188D01*
X150901000Y-92651259D01*
X150901000Y-92828741D01*
X150866376Y-93002812D01*
X150798456Y-93166784D01*
X150699853Y-93314354D01*
X150574354Y-93439853D01*
X150426784Y-93538456D01*
X150262812Y-93606376D01*
X150113512Y-93636073D01*
X150088742Y-93641000D01*
X149911258Y-93641000D01*
X149886488Y-93636073D01*
X149737188Y-93606376D01*
X149573216Y-93538456D01*
X149425646Y-93439853D01*
X149300147Y-93314354D01*
X149201544Y-93166784D01*
X149133624Y-93002812D01*
X149099000Y-92828741D01*
X149099000Y-92651259D01*
X149133624Y-92477188D01*
X149201544Y-92313216D01*
X149300147Y-92165646D01*
X149425646Y-92040147D01*
X149573216Y-91941544D01*
X149737188Y-91873624D01*
X149886488Y-91843927D01*
X149911258Y-91839000D01*
X150088742Y-91839000D01*
X150113512Y-91843927D01*
G37*
G36*
X167013512Y-91843927D02*
G01*
X167162812Y-91873624D01*
X167326784Y-91941544D01*
X167474354Y-92040147D01*
X167599853Y-92165646D01*
X167698456Y-92313216D01*
X167766376Y-92477188D01*
X167801000Y-92651259D01*
X167801000Y-92828741D01*
X167766376Y-93002812D01*
X167698456Y-93166784D01*
X167599853Y-93314354D01*
X167474354Y-93439853D01*
X167326784Y-93538456D01*
X167162812Y-93606376D01*
X167013512Y-93636073D01*
X166988742Y-93641000D01*
X166811258Y-93641000D01*
X166786488Y-93636073D01*
X166637188Y-93606376D01*
X166473216Y-93538456D01*
X166325646Y-93439853D01*
X166200147Y-93314354D01*
X166101544Y-93166784D01*
X166033624Y-93002812D01*
X165999000Y-92828741D01*
X165999000Y-92651259D01*
X166033624Y-92477188D01*
X166101544Y-92313216D01*
X166200147Y-92165646D01*
X166325646Y-92040147D01*
X166473216Y-91941544D01*
X166637188Y-91873624D01*
X166786488Y-91843927D01*
X166811258Y-91839000D01*
X166988742Y-91839000D01*
X167013512Y-91843927D01*
G37*
G36*
X150113512Y-89303927D02*
G01*
X150262812Y-89333624D01*
X150426784Y-89401544D01*
X150574354Y-89500147D01*
X150699853Y-89625646D01*
X150798456Y-89773216D01*
X150866376Y-89937188D01*
X150901000Y-90111259D01*
X150901000Y-90288741D01*
X150866376Y-90462812D01*
X150798456Y-90626784D01*
X150699853Y-90774354D01*
X150574354Y-90899853D01*
X150426784Y-90998456D01*
X150262812Y-91066376D01*
X150113512Y-91096073D01*
X150088742Y-91101000D01*
X149911258Y-91101000D01*
X149886488Y-91096073D01*
X149737188Y-91066376D01*
X149573216Y-90998456D01*
X149425646Y-90899853D01*
X149300147Y-90774354D01*
X149201544Y-90626784D01*
X149133624Y-90462812D01*
X149099000Y-90288741D01*
X149099000Y-90111259D01*
X149133624Y-89937188D01*
X149201544Y-89773216D01*
X149300147Y-89625646D01*
X149425646Y-89500147D01*
X149573216Y-89401544D01*
X149737188Y-89333624D01*
X149886488Y-89303927D01*
X149911258Y-89299000D01*
X150088742Y-89299000D01*
X150113512Y-89303927D01*
G37*
G36*
X167013512Y-89303927D02*
G01*
X167162812Y-89333624D01*
X167326784Y-89401544D01*
X167474354Y-89500147D01*
X167599853Y-89625646D01*
X167698456Y-89773216D01*
X167766376Y-89937188D01*
X167801000Y-90111259D01*
X167801000Y-90288741D01*
X167766376Y-90462812D01*
X167698456Y-90626784D01*
X167599853Y-90774354D01*
X167474354Y-90899853D01*
X167326784Y-90998456D01*
X167162812Y-91066376D01*
X167013512Y-91096073D01*
X166988742Y-91101000D01*
X166811258Y-91101000D01*
X166786488Y-91096073D01*
X166637188Y-91066376D01*
X166473216Y-90998456D01*
X166325646Y-90899853D01*
X166200147Y-90774354D01*
X166101544Y-90626784D01*
X166033624Y-90462812D01*
X165999000Y-90288741D01*
X165999000Y-90111259D01*
X166033624Y-89937188D01*
X166101544Y-89773216D01*
X166200147Y-89625646D01*
X166325646Y-89500147D01*
X166473216Y-89401544D01*
X166637188Y-89333624D01*
X166786488Y-89303927D01*
X166811258Y-89299000D01*
X166988742Y-89299000D01*
X167013512Y-89303927D01*
G37*
G36*
X150113512Y-86763927D02*
G01*
X150262812Y-86793624D01*
X150426784Y-86861544D01*
X150574354Y-86960147D01*
X150699853Y-87085646D01*
X150798456Y-87233216D01*
X150866376Y-87397188D01*
X150901000Y-87571259D01*
X150901000Y-87748741D01*
X150866376Y-87922812D01*
X150798456Y-88086784D01*
X150699853Y-88234354D01*
X150574354Y-88359853D01*
X150426784Y-88458456D01*
X150262812Y-88526376D01*
X150113512Y-88556073D01*
X150088742Y-88561000D01*
X149911258Y-88561000D01*
X149886488Y-88556073D01*
X149737188Y-88526376D01*
X149573216Y-88458456D01*
X149425646Y-88359853D01*
X149300147Y-88234354D01*
X149201544Y-88086784D01*
X149133624Y-87922812D01*
X149099000Y-87748741D01*
X149099000Y-87571259D01*
X149133624Y-87397188D01*
X149201544Y-87233216D01*
X149300147Y-87085646D01*
X149425646Y-86960147D01*
X149573216Y-86861544D01*
X149737188Y-86793624D01*
X149886488Y-86763927D01*
X149911258Y-86759000D01*
X150088742Y-86759000D01*
X150113512Y-86763927D01*
G37*
G36*
X167013512Y-86763927D02*
G01*
X167162812Y-86793624D01*
X167326784Y-86861544D01*
X167474354Y-86960147D01*
X167599853Y-87085646D01*
X167698456Y-87233216D01*
X167766376Y-87397188D01*
X167801000Y-87571259D01*
X167801000Y-87748741D01*
X167766376Y-87922812D01*
X167698456Y-88086784D01*
X167599853Y-88234354D01*
X167474354Y-88359853D01*
X167326784Y-88458456D01*
X167162812Y-88526376D01*
X167013512Y-88556073D01*
X166988742Y-88561000D01*
X166811258Y-88561000D01*
X166786488Y-88556073D01*
X166637188Y-88526376D01*
X166473216Y-88458456D01*
X166325646Y-88359853D01*
X166200147Y-88234354D01*
X166101544Y-88086784D01*
X166033624Y-87922812D01*
X165999000Y-87748741D01*
X165999000Y-87571259D01*
X166033624Y-87397188D01*
X166101544Y-87233216D01*
X166200147Y-87085646D01*
X166325646Y-86960147D01*
X166473216Y-86861544D01*
X166637188Y-86793624D01*
X166786488Y-86763927D01*
X166811258Y-86759000D01*
X166988742Y-86759000D01*
X167013512Y-86763927D01*
G37*
G36*
X167013512Y-84223927D02*
G01*
X167162812Y-84253624D01*
X167326784Y-84321544D01*
X167474354Y-84420147D01*
X167599853Y-84545646D01*
X167698456Y-84693216D01*
X167766376Y-84857188D01*
X167801000Y-85031259D01*
X167801000Y-85208741D01*
X167766376Y-85382812D01*
X167698456Y-85546784D01*
X167599853Y-85694354D01*
X167474354Y-85819853D01*
X167326784Y-85918456D01*
X167162812Y-85986376D01*
X167013512Y-86016073D01*
X166988742Y-86021000D01*
X166811258Y-86021000D01*
X166786488Y-86016073D01*
X166637188Y-85986376D01*
X166473216Y-85918456D01*
X166325646Y-85819853D01*
X166200147Y-85694354D01*
X166101544Y-85546784D01*
X166033624Y-85382812D01*
X165999000Y-85208741D01*
X165999000Y-85031259D01*
X166033624Y-84857188D01*
X166101544Y-84693216D01*
X166200147Y-84545646D01*
X166325646Y-84420147D01*
X166473216Y-84321544D01*
X166637188Y-84253624D01*
X166786488Y-84223927D01*
X166811258Y-84219000D01*
X166988742Y-84219000D01*
X167013512Y-84223927D01*
G37*
G36*
X150113512Y-84223927D02*
G01*
X150262812Y-84253624D01*
X150426784Y-84321544D01*
X150574354Y-84420147D01*
X150699853Y-84545646D01*
X150798456Y-84693216D01*
X150866376Y-84857188D01*
X150901000Y-85031259D01*
X150901000Y-85208741D01*
X150866376Y-85382812D01*
X150798456Y-85546784D01*
X150699853Y-85694354D01*
X150574354Y-85819853D01*
X150426784Y-85918456D01*
X150262812Y-85986376D01*
X150113512Y-86016073D01*
X150088742Y-86021000D01*
X149911258Y-86021000D01*
X149886488Y-86016073D01*
X149737188Y-85986376D01*
X149573216Y-85918456D01*
X149425646Y-85819853D01*
X149300147Y-85694354D01*
X149201544Y-85546784D01*
X149133624Y-85382812D01*
X149099000Y-85208741D01*
X149099000Y-85031259D01*
X149133624Y-84857188D01*
X149201544Y-84693216D01*
X149300147Y-84545646D01*
X149425646Y-84420147D01*
X149573216Y-84321544D01*
X149737188Y-84253624D01*
X149886488Y-84223927D01*
X149911258Y-84219000D01*
X150088742Y-84219000D01*
X150113512Y-84223927D01*
G37*
G36*
X167013512Y-81683927D02*
G01*
X167162812Y-81713624D01*
X167326784Y-81781544D01*
X167474354Y-81880147D01*
X167599853Y-82005646D01*
X167698456Y-82153216D01*
X167766376Y-82317188D01*
X167801000Y-82491259D01*
X167801000Y-82668741D01*
X167766376Y-82842812D01*
X167698456Y-83006784D01*
X167599853Y-83154354D01*
X167474354Y-83279853D01*
X167326784Y-83378456D01*
X167162812Y-83446376D01*
X167013512Y-83476073D01*
X166988742Y-83481000D01*
X166811258Y-83481000D01*
X166786488Y-83476073D01*
X166637188Y-83446376D01*
X166473216Y-83378456D01*
X166325646Y-83279853D01*
X166200147Y-83154354D01*
X166101544Y-83006784D01*
X166033624Y-82842812D01*
X165999000Y-82668741D01*
X165999000Y-82491259D01*
X166033624Y-82317188D01*
X166101544Y-82153216D01*
X166200147Y-82005646D01*
X166325646Y-81880147D01*
X166473216Y-81781544D01*
X166637188Y-81713624D01*
X166786488Y-81683927D01*
X166811258Y-81679000D01*
X166988742Y-81679000D01*
X167013512Y-81683927D01*
G37*
G36*
X150113512Y-81683927D02*
G01*
X150262812Y-81713624D01*
X150426784Y-81781544D01*
X150574354Y-81880147D01*
X150699853Y-82005646D01*
X150798456Y-82153216D01*
X150866376Y-82317188D01*
X150901000Y-82491259D01*
X150901000Y-82668741D01*
X150866376Y-82842812D01*
X150798456Y-83006784D01*
X150699853Y-83154354D01*
X150574354Y-83279853D01*
X150426784Y-83378456D01*
X150262812Y-83446376D01*
X150113512Y-83476073D01*
X150088742Y-83481000D01*
X149911258Y-83481000D01*
X149886488Y-83476073D01*
X149737188Y-83446376D01*
X149573216Y-83378456D01*
X149425646Y-83279853D01*
X149300147Y-83154354D01*
X149201544Y-83006784D01*
X149133624Y-82842812D01*
X149099000Y-82668741D01*
X149099000Y-82491259D01*
X149133624Y-82317188D01*
X149201544Y-82153216D01*
X149300147Y-82005646D01*
X149425646Y-81880147D01*
X149573216Y-81781544D01*
X149737188Y-81713624D01*
X149886488Y-81683927D01*
X149911258Y-81679000D01*
X150088742Y-81679000D01*
X150113512Y-81683927D01*
G37*
G36*
X167013512Y-79143927D02*
G01*
X167162812Y-79173624D01*
X167326784Y-79241544D01*
X167474354Y-79340147D01*
X167599853Y-79465646D01*
X167698456Y-79613216D01*
X167766376Y-79777188D01*
X167801000Y-79951259D01*
X167801000Y-80128741D01*
X167766376Y-80302812D01*
X167698456Y-80466784D01*
X167599853Y-80614354D01*
X167474354Y-80739853D01*
X167326784Y-80838456D01*
X167162812Y-80906376D01*
X167013512Y-80936073D01*
X166988742Y-80941000D01*
X166811258Y-80941000D01*
X166786488Y-80936073D01*
X166637188Y-80906376D01*
X166473216Y-80838456D01*
X166325646Y-80739853D01*
X166200147Y-80614354D01*
X166101544Y-80466784D01*
X166033624Y-80302812D01*
X165999000Y-80128741D01*
X165999000Y-79951259D01*
X166033624Y-79777188D01*
X166101544Y-79613216D01*
X166200147Y-79465646D01*
X166325646Y-79340147D01*
X166473216Y-79241544D01*
X166637188Y-79173624D01*
X166786488Y-79143927D01*
X166811258Y-79139000D01*
X166988742Y-79139000D01*
X167013512Y-79143927D01*
G37*
G36*
X150113512Y-79143927D02*
G01*
X150262812Y-79173624D01*
X150426784Y-79241544D01*
X150574354Y-79340147D01*
X150699853Y-79465646D01*
X150798456Y-79613216D01*
X150866376Y-79777188D01*
X150901000Y-79951259D01*
X150901000Y-80128741D01*
X150866376Y-80302812D01*
X150798456Y-80466784D01*
X150699853Y-80614354D01*
X150574354Y-80739853D01*
X150426784Y-80838456D01*
X150262812Y-80906376D01*
X150113512Y-80936073D01*
X150088742Y-80941000D01*
X149911258Y-80941000D01*
X149886488Y-80936073D01*
X149737188Y-80906376D01*
X149573216Y-80838456D01*
X149425646Y-80739853D01*
X149300147Y-80614354D01*
X149201544Y-80466784D01*
X149133624Y-80302812D01*
X149099000Y-80128741D01*
X149099000Y-79951259D01*
X149133624Y-79777188D01*
X149201544Y-79613216D01*
X149300147Y-79465646D01*
X149425646Y-79340147D01*
X149573216Y-79241544D01*
X149737188Y-79173624D01*
X149886488Y-79143927D01*
X149911258Y-79139000D01*
X150088742Y-79139000D01*
X150113512Y-79143927D01*
G37*
G36*
X167801000Y-78401000D02*
G01*
X165999000Y-78401000D01*
X165999000Y-76599000D01*
X167801000Y-76599000D01*
X167801000Y-78401000D01*
G37*
G36*
X150901000Y-78401000D02*
G01*
X149099000Y-78401000D01*
X149099000Y-76599000D01*
X150901000Y-76599000D01*
X150901000Y-78401000D01*
G37*
M02*
