G04 #@! TF.GenerationSoftware,KiCad,Pcbnew,(5.1.5)-3*
G04 #@! TF.CreationDate,2020-06-22T22:14:50-04:00*
G04 #@! TF.ProjectId,74X273 Simplified pinout,37345832-3733-4205-9369-6d706c696669,rev?*
G04 #@! TF.SameCoordinates,Original*
G04 #@! TF.FileFunction,Soldermask,Top*
G04 #@! TF.FilePolarity,Negative*
%FSLAX46Y46*%
G04 Gerber Fmt 4.6, Leading zero omitted, Abs format (unit mm)*
G04 Created by KiCad (PCBNEW (5.1.5)-3) date 2020-06-22 22:14:50*
%MOMM*%
%LPD*%
G04 APERTURE LIST*
%ADD10C,0.100000*%
G04 APERTURE END LIST*
D10*
G36*
X167013512Y-99463927D02*
G01*
X167162812Y-99493624D01*
X167326784Y-99561544D01*
X167474354Y-99660147D01*
X167599853Y-99785646D01*
X167698456Y-99933216D01*
X167766376Y-100097188D01*
X167801000Y-100271259D01*
X167801000Y-100448741D01*
X167766376Y-100622812D01*
X167698456Y-100786784D01*
X167599853Y-100934354D01*
X167474354Y-101059853D01*
X167326784Y-101158456D01*
X167162812Y-101226376D01*
X167013512Y-101256073D01*
X166988742Y-101261000D01*
X166811258Y-101261000D01*
X166786488Y-101256073D01*
X166637188Y-101226376D01*
X166473216Y-101158456D01*
X166325646Y-101059853D01*
X166200147Y-100934354D01*
X166101544Y-100786784D01*
X166033624Y-100622812D01*
X165999000Y-100448741D01*
X165999000Y-100271259D01*
X166033624Y-100097188D01*
X166101544Y-99933216D01*
X166200147Y-99785646D01*
X166325646Y-99660147D01*
X166473216Y-99561544D01*
X166637188Y-99493624D01*
X166786488Y-99463927D01*
X166811258Y-99459000D01*
X166988742Y-99459000D01*
X167013512Y-99463927D01*
G37*
G36*
X150113512Y-99463927D02*
G01*
X150262812Y-99493624D01*
X150426784Y-99561544D01*
X150574354Y-99660147D01*
X150699853Y-99785646D01*
X150798456Y-99933216D01*
X150866376Y-100097188D01*
X150901000Y-100271259D01*
X150901000Y-100448741D01*
X150866376Y-100622812D01*
X150798456Y-100786784D01*
X150699853Y-100934354D01*
X150574354Y-101059853D01*
X150426784Y-101158456D01*
X150262812Y-101226376D01*
X150113512Y-101256073D01*
X150088742Y-101261000D01*
X149911258Y-101261000D01*
X149886488Y-101256073D01*
X149737188Y-101226376D01*
X149573216Y-101158456D01*
X149425646Y-101059853D01*
X149300147Y-100934354D01*
X149201544Y-100786784D01*
X149133624Y-100622812D01*
X149099000Y-100448741D01*
X149099000Y-100271259D01*
X149133624Y-100097188D01*
X149201544Y-99933216D01*
X149300147Y-99785646D01*
X149425646Y-99660147D01*
X149573216Y-99561544D01*
X149737188Y-99493624D01*
X149886488Y-99463927D01*
X149911258Y-99459000D01*
X150088742Y-99459000D01*
X150113512Y-99463927D01*
G37*
G36*
X150113512Y-96923927D02*
G01*
X150262812Y-96953624D01*
X150426784Y-97021544D01*
X150574354Y-97120147D01*
X150699853Y-97245646D01*
X150798456Y-97393216D01*
X150866376Y-97557188D01*
X150901000Y-97731259D01*
X150901000Y-97908741D01*
X150866376Y-98082812D01*
X150798456Y-98246784D01*
X150699853Y-98394354D01*
X150574354Y-98519853D01*
X150426784Y-98618456D01*
X150262812Y-98686376D01*
X150113512Y-98716073D01*
X150088742Y-98721000D01*
X149911258Y-98721000D01*
X149886488Y-98716073D01*
X149737188Y-98686376D01*
X149573216Y-98618456D01*
X149425646Y-98519853D01*
X149300147Y-98394354D01*
X149201544Y-98246784D01*
X149133624Y-98082812D01*
X149099000Y-97908741D01*
X149099000Y-97731259D01*
X149133624Y-97557188D01*
X149201544Y-97393216D01*
X149300147Y-97245646D01*
X149425646Y-97120147D01*
X149573216Y-97021544D01*
X149737188Y-96953624D01*
X149886488Y-96923927D01*
X149911258Y-96919000D01*
X150088742Y-96919000D01*
X150113512Y-96923927D01*
G37*
G36*
X167013512Y-96923927D02*
G01*
X167162812Y-96953624D01*
X167326784Y-97021544D01*
X167474354Y-97120147D01*
X167599853Y-97245646D01*
X167698456Y-97393216D01*
X167766376Y-97557188D01*
X167801000Y-97731259D01*
X167801000Y-97908741D01*
X167766376Y-98082812D01*
X167698456Y-98246784D01*
X167599853Y-98394354D01*
X167474354Y-98519853D01*
X167326784Y-98618456D01*
X167162812Y-98686376D01*
X167013512Y-98716073D01*
X166988742Y-98721000D01*
X166811258Y-98721000D01*
X166786488Y-98716073D01*
X166637188Y-98686376D01*
X166473216Y-98618456D01*
X166325646Y-98519853D01*
X166200147Y-98394354D01*
X166101544Y-98246784D01*
X166033624Y-98082812D01*
X165999000Y-97908741D01*
X165999000Y-97731259D01*
X166033624Y-97557188D01*
X166101544Y-97393216D01*
X166200147Y-97245646D01*
X166325646Y-97120147D01*
X166473216Y-97021544D01*
X166637188Y-96953624D01*
X166786488Y-96923927D01*
X166811258Y-96919000D01*
X166988742Y-96919000D01*
X167013512Y-96923927D01*
G37*
G36*
X150113512Y-94383927D02*
G01*
X150262812Y-94413624D01*
X150426784Y-94481544D01*
X150574354Y-94580147D01*
X150699853Y-94705646D01*
X150798456Y-94853216D01*
X150866376Y-95017188D01*
X150901000Y-95191259D01*
X150901000Y-95368741D01*
X150866376Y-95542812D01*
X150798456Y-95706784D01*
X150699853Y-95854354D01*
X150574354Y-95979853D01*
X150426784Y-96078456D01*
X150262812Y-96146376D01*
X150113512Y-96176073D01*
X150088742Y-96181000D01*
X149911258Y-96181000D01*
X149886488Y-96176073D01*
X149737188Y-96146376D01*
X149573216Y-96078456D01*
X149425646Y-95979853D01*
X149300147Y-95854354D01*
X149201544Y-95706784D01*
X149133624Y-95542812D01*
X149099000Y-95368741D01*
X149099000Y-95191259D01*
X149133624Y-95017188D01*
X149201544Y-94853216D01*
X149300147Y-94705646D01*
X149425646Y-94580147D01*
X149573216Y-94481544D01*
X149737188Y-94413624D01*
X149886488Y-94383927D01*
X149911258Y-94379000D01*
X150088742Y-94379000D01*
X150113512Y-94383927D01*
G37*
G36*
X167013512Y-94383927D02*
G01*
X167162812Y-94413624D01*
X167326784Y-94481544D01*
X167474354Y-94580147D01*
X167599853Y-94705646D01*
X167698456Y-94853216D01*
X167766376Y-95017188D01*
X167801000Y-95191259D01*
X167801000Y-95368741D01*
X167766376Y-95542812D01*
X167698456Y-95706784D01*
X167599853Y-95854354D01*
X167474354Y-95979853D01*
X167326784Y-96078456D01*
X167162812Y-96146376D01*
X167013512Y-96176073D01*
X166988742Y-96181000D01*
X166811258Y-96181000D01*
X166786488Y-96176073D01*
X166637188Y-96146376D01*
X166473216Y-96078456D01*
X166325646Y-95979853D01*
X166200147Y-95854354D01*
X166101544Y-95706784D01*
X166033624Y-95542812D01*
X165999000Y-95368741D01*
X165999000Y-95191259D01*
X166033624Y-95017188D01*
X166101544Y-94853216D01*
X166200147Y-94705646D01*
X166325646Y-94580147D01*
X166473216Y-94481544D01*
X166637188Y-94413624D01*
X166786488Y-94383927D01*
X166811258Y-94379000D01*
X166988742Y-94379000D01*
X167013512Y-94383927D01*
G37*
G36*
X167013512Y-91843927D02*
G01*
X167162812Y-91873624D01*
X167326784Y-91941544D01*
X167474354Y-92040147D01*
X167599853Y-92165646D01*
X167698456Y-92313216D01*
X167766376Y-92477188D01*
X167801000Y-92651259D01*
X167801000Y-92828741D01*
X167766376Y-93002812D01*
X167698456Y-93166784D01*
X167599853Y-93314354D01*
X167474354Y-93439853D01*
X167326784Y-93538456D01*
X167162812Y-93606376D01*
X167013512Y-93636073D01*
X166988742Y-93641000D01*
X166811258Y-93641000D01*
X166786488Y-93636073D01*
X166637188Y-93606376D01*
X166473216Y-93538456D01*
X166325646Y-93439853D01*
X166200147Y-93314354D01*
X166101544Y-93166784D01*
X166033624Y-93002812D01*
X165999000Y-92828741D01*
X165999000Y-92651259D01*
X166033624Y-92477188D01*
X166101544Y-92313216D01*
X166200147Y-92165646D01*
X166325646Y-92040147D01*
X166473216Y-91941544D01*
X166637188Y-91873624D01*
X166786488Y-91843927D01*
X166811258Y-91839000D01*
X166988742Y-91839000D01*
X167013512Y-91843927D01*
G37*
G36*
X150113512Y-91843927D02*
G01*
X150262812Y-91873624D01*
X150426784Y-91941544D01*
X150574354Y-92040147D01*
X150699853Y-92165646D01*
X150798456Y-92313216D01*
X150866376Y-92477188D01*
X150901000Y-92651259D01*
X150901000Y-92828741D01*
X150866376Y-93002812D01*
X150798456Y-93166784D01*
X150699853Y-93314354D01*
X150574354Y-93439853D01*
X150426784Y-93538456D01*
X150262812Y-93606376D01*
X150113512Y-93636073D01*
X150088742Y-93641000D01*
X149911258Y-93641000D01*
X149886488Y-93636073D01*
X149737188Y-93606376D01*
X149573216Y-93538456D01*
X149425646Y-93439853D01*
X149300147Y-93314354D01*
X149201544Y-93166784D01*
X149133624Y-93002812D01*
X149099000Y-92828741D01*
X149099000Y-92651259D01*
X149133624Y-92477188D01*
X149201544Y-92313216D01*
X149300147Y-92165646D01*
X149425646Y-92040147D01*
X149573216Y-91941544D01*
X149737188Y-91873624D01*
X149886488Y-91843927D01*
X149911258Y-91839000D01*
X150088742Y-91839000D01*
X150113512Y-91843927D01*
G37*
G36*
X167013512Y-89303927D02*
G01*
X167162812Y-89333624D01*
X167326784Y-89401544D01*
X167474354Y-89500147D01*
X167599853Y-89625646D01*
X167698456Y-89773216D01*
X167766376Y-89937188D01*
X167801000Y-90111259D01*
X167801000Y-90288741D01*
X167766376Y-90462812D01*
X167698456Y-90626784D01*
X167599853Y-90774354D01*
X167474354Y-90899853D01*
X167326784Y-90998456D01*
X167162812Y-91066376D01*
X167013512Y-91096073D01*
X166988742Y-91101000D01*
X166811258Y-91101000D01*
X166786488Y-91096073D01*
X166637188Y-91066376D01*
X166473216Y-90998456D01*
X166325646Y-90899853D01*
X166200147Y-90774354D01*
X166101544Y-90626784D01*
X166033624Y-90462812D01*
X165999000Y-90288741D01*
X165999000Y-90111259D01*
X166033624Y-89937188D01*
X166101544Y-89773216D01*
X166200147Y-89625646D01*
X166325646Y-89500147D01*
X166473216Y-89401544D01*
X166637188Y-89333624D01*
X166786488Y-89303927D01*
X166811258Y-89299000D01*
X166988742Y-89299000D01*
X167013512Y-89303927D01*
G37*
G36*
X150113512Y-89303927D02*
G01*
X150262812Y-89333624D01*
X150426784Y-89401544D01*
X150574354Y-89500147D01*
X150699853Y-89625646D01*
X150798456Y-89773216D01*
X150866376Y-89937188D01*
X150901000Y-90111259D01*
X150901000Y-90288741D01*
X150866376Y-90462812D01*
X150798456Y-90626784D01*
X150699853Y-90774354D01*
X150574354Y-90899853D01*
X150426784Y-90998456D01*
X150262812Y-91066376D01*
X150113512Y-91096073D01*
X150088742Y-91101000D01*
X149911258Y-91101000D01*
X149886488Y-91096073D01*
X149737188Y-91066376D01*
X149573216Y-90998456D01*
X149425646Y-90899853D01*
X149300147Y-90774354D01*
X149201544Y-90626784D01*
X149133624Y-90462812D01*
X149099000Y-90288741D01*
X149099000Y-90111259D01*
X149133624Y-89937188D01*
X149201544Y-89773216D01*
X149300147Y-89625646D01*
X149425646Y-89500147D01*
X149573216Y-89401544D01*
X149737188Y-89333624D01*
X149886488Y-89303927D01*
X149911258Y-89299000D01*
X150088742Y-89299000D01*
X150113512Y-89303927D01*
G37*
G36*
X164084928Y-88581764D02*
G01*
X164106009Y-88588160D01*
X164125445Y-88598548D01*
X164142476Y-88612524D01*
X164156452Y-88629555D01*
X164166840Y-88648991D01*
X164173236Y-88670072D01*
X164176000Y-88698140D01*
X164176000Y-89161860D01*
X164173236Y-89189928D01*
X164166840Y-89211009D01*
X164156452Y-89230445D01*
X164142476Y-89247476D01*
X164125445Y-89261452D01*
X164106009Y-89271840D01*
X164084928Y-89278236D01*
X164056860Y-89281000D01*
X162143140Y-89281000D01*
X162115072Y-89278236D01*
X162093991Y-89271840D01*
X162074555Y-89261452D01*
X162057524Y-89247476D01*
X162043548Y-89230445D01*
X162033160Y-89211009D01*
X162026764Y-89189928D01*
X162024000Y-89161860D01*
X162024000Y-88698140D01*
X162026764Y-88670072D01*
X162033160Y-88648991D01*
X162043548Y-88629555D01*
X162057524Y-88612524D01*
X162074555Y-88598548D01*
X162093991Y-88588160D01*
X162115072Y-88581764D01*
X162143140Y-88579000D01*
X164056860Y-88579000D01*
X164084928Y-88581764D01*
G37*
G36*
X154784928Y-88581764D02*
G01*
X154806009Y-88588160D01*
X154825445Y-88598548D01*
X154842476Y-88612524D01*
X154856452Y-88629555D01*
X154866840Y-88648991D01*
X154873236Y-88670072D01*
X154876000Y-88698140D01*
X154876000Y-89161860D01*
X154873236Y-89189928D01*
X154866840Y-89211009D01*
X154856452Y-89230445D01*
X154842476Y-89247476D01*
X154825445Y-89261452D01*
X154806009Y-89271840D01*
X154784928Y-89278236D01*
X154756860Y-89281000D01*
X152843140Y-89281000D01*
X152815072Y-89278236D01*
X152793991Y-89271840D01*
X152774555Y-89261452D01*
X152757524Y-89247476D01*
X152743548Y-89230445D01*
X152733160Y-89211009D01*
X152726764Y-89189928D01*
X152724000Y-89161860D01*
X152724000Y-88698140D01*
X152726764Y-88670072D01*
X152733160Y-88648991D01*
X152743548Y-88629555D01*
X152757524Y-88612524D01*
X152774555Y-88598548D01*
X152793991Y-88588160D01*
X152815072Y-88581764D01*
X152843140Y-88579000D01*
X154756860Y-88579000D01*
X154784928Y-88581764D01*
G37*
G36*
X150113512Y-86763927D02*
G01*
X150262812Y-86793624D01*
X150426784Y-86861544D01*
X150574354Y-86960147D01*
X150699853Y-87085646D01*
X150798456Y-87233216D01*
X150866376Y-87397188D01*
X150901000Y-87571259D01*
X150901000Y-87748741D01*
X150866376Y-87922812D01*
X150798456Y-88086784D01*
X150699853Y-88234354D01*
X150574354Y-88359853D01*
X150426784Y-88458456D01*
X150262812Y-88526376D01*
X150113512Y-88556073D01*
X150088742Y-88561000D01*
X149911258Y-88561000D01*
X149886488Y-88556073D01*
X149737188Y-88526376D01*
X149573216Y-88458456D01*
X149425646Y-88359853D01*
X149300147Y-88234354D01*
X149201544Y-88086784D01*
X149133624Y-87922812D01*
X149099000Y-87748741D01*
X149099000Y-87571259D01*
X149133624Y-87397188D01*
X149201544Y-87233216D01*
X149300147Y-87085646D01*
X149425646Y-86960147D01*
X149573216Y-86861544D01*
X149737188Y-86793624D01*
X149886488Y-86763927D01*
X149911258Y-86759000D01*
X150088742Y-86759000D01*
X150113512Y-86763927D01*
G37*
G36*
X167013512Y-86763927D02*
G01*
X167162812Y-86793624D01*
X167326784Y-86861544D01*
X167474354Y-86960147D01*
X167599853Y-87085646D01*
X167698456Y-87233216D01*
X167766376Y-87397188D01*
X167801000Y-87571259D01*
X167801000Y-87748741D01*
X167766376Y-87922812D01*
X167698456Y-88086784D01*
X167599853Y-88234354D01*
X167474354Y-88359853D01*
X167326784Y-88458456D01*
X167162812Y-88526376D01*
X167013512Y-88556073D01*
X166988742Y-88561000D01*
X166811258Y-88561000D01*
X166786488Y-88556073D01*
X166637188Y-88526376D01*
X166473216Y-88458456D01*
X166325646Y-88359853D01*
X166200147Y-88234354D01*
X166101544Y-88086784D01*
X166033624Y-87922812D01*
X165999000Y-87748741D01*
X165999000Y-87571259D01*
X166033624Y-87397188D01*
X166101544Y-87233216D01*
X166200147Y-87085646D01*
X166325646Y-86960147D01*
X166473216Y-86861544D01*
X166637188Y-86793624D01*
X166786488Y-86763927D01*
X166811258Y-86759000D01*
X166988742Y-86759000D01*
X167013512Y-86763927D01*
G37*
G36*
X164084928Y-87311764D02*
G01*
X164106009Y-87318160D01*
X164125445Y-87328548D01*
X164142476Y-87342524D01*
X164156452Y-87359555D01*
X164166840Y-87378991D01*
X164173236Y-87400072D01*
X164176000Y-87428140D01*
X164176000Y-87891860D01*
X164173236Y-87919928D01*
X164166840Y-87941009D01*
X164156452Y-87960445D01*
X164142476Y-87977476D01*
X164125445Y-87991452D01*
X164106009Y-88001840D01*
X164084928Y-88008236D01*
X164056860Y-88011000D01*
X162143140Y-88011000D01*
X162115072Y-88008236D01*
X162093991Y-88001840D01*
X162074555Y-87991452D01*
X162057524Y-87977476D01*
X162043548Y-87960445D01*
X162033160Y-87941009D01*
X162026764Y-87919928D01*
X162024000Y-87891860D01*
X162024000Y-87428140D01*
X162026764Y-87400072D01*
X162033160Y-87378991D01*
X162043548Y-87359555D01*
X162057524Y-87342524D01*
X162074555Y-87328548D01*
X162093991Y-87318160D01*
X162115072Y-87311764D01*
X162143140Y-87309000D01*
X164056860Y-87309000D01*
X164084928Y-87311764D01*
G37*
G36*
X154784928Y-87311764D02*
G01*
X154806009Y-87318160D01*
X154825445Y-87328548D01*
X154842476Y-87342524D01*
X154856452Y-87359555D01*
X154866840Y-87378991D01*
X154873236Y-87400072D01*
X154876000Y-87428140D01*
X154876000Y-87891860D01*
X154873236Y-87919928D01*
X154866840Y-87941009D01*
X154856452Y-87960445D01*
X154842476Y-87977476D01*
X154825445Y-87991452D01*
X154806009Y-88001840D01*
X154784928Y-88008236D01*
X154756860Y-88011000D01*
X152843140Y-88011000D01*
X152815072Y-88008236D01*
X152793991Y-88001840D01*
X152774555Y-87991452D01*
X152757524Y-87977476D01*
X152743548Y-87960445D01*
X152733160Y-87941009D01*
X152726764Y-87919928D01*
X152724000Y-87891860D01*
X152724000Y-87428140D01*
X152726764Y-87400072D01*
X152733160Y-87378991D01*
X152743548Y-87359555D01*
X152757524Y-87342524D01*
X152774555Y-87328548D01*
X152793991Y-87318160D01*
X152815072Y-87311764D01*
X152843140Y-87309000D01*
X154756860Y-87309000D01*
X154784928Y-87311764D01*
G37*
G36*
X164084928Y-86041764D02*
G01*
X164106009Y-86048160D01*
X164125445Y-86058548D01*
X164142476Y-86072524D01*
X164156452Y-86089555D01*
X164166840Y-86108991D01*
X164173236Y-86130072D01*
X164176000Y-86158140D01*
X164176000Y-86621860D01*
X164173236Y-86649928D01*
X164166840Y-86671009D01*
X164156452Y-86690445D01*
X164142476Y-86707476D01*
X164125445Y-86721452D01*
X164106009Y-86731840D01*
X164084928Y-86738236D01*
X164056860Y-86741000D01*
X162143140Y-86741000D01*
X162115072Y-86738236D01*
X162093991Y-86731840D01*
X162074555Y-86721452D01*
X162057524Y-86707476D01*
X162043548Y-86690445D01*
X162033160Y-86671009D01*
X162026764Y-86649928D01*
X162024000Y-86621860D01*
X162024000Y-86158140D01*
X162026764Y-86130072D01*
X162033160Y-86108991D01*
X162043548Y-86089555D01*
X162057524Y-86072524D01*
X162074555Y-86058548D01*
X162093991Y-86048160D01*
X162115072Y-86041764D01*
X162143140Y-86039000D01*
X164056860Y-86039000D01*
X164084928Y-86041764D01*
G37*
G36*
X154784928Y-86041764D02*
G01*
X154806009Y-86048160D01*
X154825445Y-86058548D01*
X154842476Y-86072524D01*
X154856452Y-86089555D01*
X154866840Y-86108991D01*
X154873236Y-86130072D01*
X154876000Y-86158140D01*
X154876000Y-86621860D01*
X154873236Y-86649928D01*
X154866840Y-86671009D01*
X154856452Y-86690445D01*
X154842476Y-86707476D01*
X154825445Y-86721452D01*
X154806009Y-86731840D01*
X154784928Y-86738236D01*
X154756860Y-86741000D01*
X152843140Y-86741000D01*
X152815072Y-86738236D01*
X152793991Y-86731840D01*
X152774555Y-86721452D01*
X152757524Y-86707476D01*
X152743548Y-86690445D01*
X152733160Y-86671009D01*
X152726764Y-86649928D01*
X152724000Y-86621860D01*
X152724000Y-86158140D01*
X152726764Y-86130072D01*
X152733160Y-86108991D01*
X152743548Y-86089555D01*
X152757524Y-86072524D01*
X152774555Y-86058548D01*
X152793991Y-86048160D01*
X152815072Y-86041764D01*
X152843140Y-86039000D01*
X154756860Y-86039000D01*
X154784928Y-86041764D01*
G37*
G36*
X167013512Y-84223927D02*
G01*
X167162812Y-84253624D01*
X167326784Y-84321544D01*
X167474354Y-84420147D01*
X167599853Y-84545646D01*
X167698456Y-84693216D01*
X167766376Y-84857188D01*
X167801000Y-85031259D01*
X167801000Y-85208741D01*
X167766376Y-85382812D01*
X167698456Y-85546784D01*
X167599853Y-85694354D01*
X167474354Y-85819853D01*
X167326784Y-85918456D01*
X167162812Y-85986376D01*
X167013512Y-86016073D01*
X166988742Y-86021000D01*
X166811258Y-86021000D01*
X166786488Y-86016073D01*
X166637188Y-85986376D01*
X166473216Y-85918456D01*
X166325646Y-85819853D01*
X166200147Y-85694354D01*
X166101544Y-85546784D01*
X166033624Y-85382812D01*
X165999000Y-85208741D01*
X165999000Y-85031259D01*
X166033624Y-84857188D01*
X166101544Y-84693216D01*
X166200147Y-84545646D01*
X166325646Y-84420147D01*
X166473216Y-84321544D01*
X166637188Y-84253624D01*
X166786488Y-84223927D01*
X166811258Y-84219000D01*
X166988742Y-84219000D01*
X167013512Y-84223927D01*
G37*
G36*
X150113512Y-84223927D02*
G01*
X150262812Y-84253624D01*
X150426784Y-84321544D01*
X150574354Y-84420147D01*
X150699853Y-84545646D01*
X150798456Y-84693216D01*
X150866376Y-84857188D01*
X150901000Y-85031259D01*
X150901000Y-85208741D01*
X150866376Y-85382812D01*
X150798456Y-85546784D01*
X150699853Y-85694354D01*
X150574354Y-85819853D01*
X150426784Y-85918456D01*
X150262812Y-85986376D01*
X150113512Y-86016073D01*
X150088742Y-86021000D01*
X149911258Y-86021000D01*
X149886488Y-86016073D01*
X149737188Y-85986376D01*
X149573216Y-85918456D01*
X149425646Y-85819853D01*
X149300147Y-85694354D01*
X149201544Y-85546784D01*
X149133624Y-85382812D01*
X149099000Y-85208741D01*
X149099000Y-85031259D01*
X149133624Y-84857188D01*
X149201544Y-84693216D01*
X149300147Y-84545646D01*
X149425646Y-84420147D01*
X149573216Y-84321544D01*
X149737188Y-84253624D01*
X149886488Y-84223927D01*
X149911258Y-84219000D01*
X150088742Y-84219000D01*
X150113512Y-84223927D01*
G37*
G36*
X154784928Y-84771764D02*
G01*
X154806009Y-84778160D01*
X154825445Y-84788548D01*
X154842476Y-84802524D01*
X154856452Y-84819555D01*
X154866840Y-84838991D01*
X154873236Y-84860072D01*
X154876000Y-84888140D01*
X154876000Y-85351860D01*
X154873236Y-85379928D01*
X154866840Y-85401009D01*
X154856452Y-85420445D01*
X154842476Y-85437476D01*
X154825445Y-85451452D01*
X154806009Y-85461840D01*
X154784928Y-85468236D01*
X154756860Y-85471000D01*
X152843140Y-85471000D01*
X152815072Y-85468236D01*
X152793991Y-85461840D01*
X152774555Y-85451452D01*
X152757524Y-85437476D01*
X152743548Y-85420445D01*
X152733160Y-85401009D01*
X152726764Y-85379928D01*
X152724000Y-85351860D01*
X152724000Y-84888140D01*
X152726764Y-84860072D01*
X152733160Y-84838991D01*
X152743548Y-84819555D01*
X152757524Y-84802524D01*
X152774555Y-84788548D01*
X152793991Y-84778160D01*
X152815072Y-84771764D01*
X152843140Y-84769000D01*
X154756860Y-84769000D01*
X154784928Y-84771764D01*
G37*
G36*
X164084928Y-84771764D02*
G01*
X164106009Y-84778160D01*
X164125445Y-84788548D01*
X164142476Y-84802524D01*
X164156452Y-84819555D01*
X164166840Y-84838991D01*
X164173236Y-84860072D01*
X164176000Y-84888140D01*
X164176000Y-85351860D01*
X164173236Y-85379928D01*
X164166840Y-85401009D01*
X164156452Y-85420445D01*
X164142476Y-85437476D01*
X164125445Y-85451452D01*
X164106009Y-85461840D01*
X164084928Y-85468236D01*
X164056860Y-85471000D01*
X162143140Y-85471000D01*
X162115072Y-85468236D01*
X162093991Y-85461840D01*
X162074555Y-85451452D01*
X162057524Y-85437476D01*
X162043548Y-85420445D01*
X162033160Y-85401009D01*
X162026764Y-85379928D01*
X162024000Y-85351860D01*
X162024000Y-84888140D01*
X162026764Y-84860072D01*
X162033160Y-84838991D01*
X162043548Y-84819555D01*
X162057524Y-84802524D01*
X162074555Y-84788548D01*
X162093991Y-84778160D01*
X162115072Y-84771764D01*
X162143140Y-84769000D01*
X164056860Y-84769000D01*
X164084928Y-84771764D01*
G37*
G36*
X164084928Y-83501764D02*
G01*
X164106009Y-83508160D01*
X164125445Y-83518548D01*
X164142476Y-83532524D01*
X164156452Y-83549555D01*
X164166840Y-83568991D01*
X164173236Y-83590072D01*
X164176000Y-83618140D01*
X164176000Y-84081860D01*
X164173236Y-84109928D01*
X164166840Y-84131009D01*
X164156452Y-84150445D01*
X164142476Y-84167476D01*
X164125445Y-84181452D01*
X164106009Y-84191840D01*
X164084928Y-84198236D01*
X164056860Y-84201000D01*
X162143140Y-84201000D01*
X162115072Y-84198236D01*
X162093991Y-84191840D01*
X162074555Y-84181452D01*
X162057524Y-84167476D01*
X162043548Y-84150445D01*
X162033160Y-84131009D01*
X162026764Y-84109928D01*
X162024000Y-84081860D01*
X162024000Y-83618140D01*
X162026764Y-83590072D01*
X162033160Y-83568991D01*
X162043548Y-83549555D01*
X162057524Y-83532524D01*
X162074555Y-83518548D01*
X162093991Y-83508160D01*
X162115072Y-83501764D01*
X162143140Y-83499000D01*
X164056860Y-83499000D01*
X164084928Y-83501764D01*
G37*
G36*
X154784928Y-83501764D02*
G01*
X154806009Y-83508160D01*
X154825445Y-83518548D01*
X154842476Y-83532524D01*
X154856452Y-83549555D01*
X154866840Y-83568991D01*
X154873236Y-83590072D01*
X154876000Y-83618140D01*
X154876000Y-84081860D01*
X154873236Y-84109928D01*
X154866840Y-84131009D01*
X154856452Y-84150445D01*
X154842476Y-84167476D01*
X154825445Y-84181452D01*
X154806009Y-84191840D01*
X154784928Y-84198236D01*
X154756860Y-84201000D01*
X152843140Y-84201000D01*
X152815072Y-84198236D01*
X152793991Y-84191840D01*
X152774555Y-84181452D01*
X152757524Y-84167476D01*
X152743548Y-84150445D01*
X152733160Y-84131009D01*
X152726764Y-84109928D01*
X152724000Y-84081860D01*
X152724000Y-83618140D01*
X152726764Y-83590072D01*
X152733160Y-83568991D01*
X152743548Y-83549555D01*
X152757524Y-83532524D01*
X152774555Y-83518548D01*
X152793991Y-83508160D01*
X152815072Y-83501764D01*
X152843140Y-83499000D01*
X154756860Y-83499000D01*
X154784928Y-83501764D01*
G37*
G36*
X167013512Y-81683927D02*
G01*
X167162812Y-81713624D01*
X167326784Y-81781544D01*
X167474354Y-81880147D01*
X167599853Y-82005646D01*
X167698456Y-82153216D01*
X167766376Y-82317188D01*
X167801000Y-82491259D01*
X167801000Y-82668741D01*
X167766376Y-82842812D01*
X167698456Y-83006784D01*
X167599853Y-83154354D01*
X167474354Y-83279853D01*
X167326784Y-83378456D01*
X167162812Y-83446376D01*
X167013512Y-83476073D01*
X166988742Y-83481000D01*
X166811258Y-83481000D01*
X166786488Y-83476073D01*
X166637188Y-83446376D01*
X166473216Y-83378456D01*
X166325646Y-83279853D01*
X166200147Y-83154354D01*
X166101544Y-83006784D01*
X166033624Y-82842812D01*
X165999000Y-82668741D01*
X165999000Y-82491259D01*
X166033624Y-82317188D01*
X166101544Y-82153216D01*
X166200147Y-82005646D01*
X166325646Y-81880147D01*
X166473216Y-81781544D01*
X166637188Y-81713624D01*
X166786488Y-81683927D01*
X166811258Y-81679000D01*
X166988742Y-81679000D01*
X167013512Y-81683927D01*
G37*
G36*
X150113512Y-81683927D02*
G01*
X150262812Y-81713624D01*
X150426784Y-81781544D01*
X150574354Y-81880147D01*
X150699853Y-82005646D01*
X150798456Y-82153216D01*
X150866376Y-82317188D01*
X150901000Y-82491259D01*
X150901000Y-82668741D01*
X150866376Y-82842812D01*
X150798456Y-83006784D01*
X150699853Y-83154354D01*
X150574354Y-83279853D01*
X150426784Y-83378456D01*
X150262812Y-83446376D01*
X150113512Y-83476073D01*
X150088742Y-83481000D01*
X149911258Y-83481000D01*
X149886488Y-83476073D01*
X149737188Y-83446376D01*
X149573216Y-83378456D01*
X149425646Y-83279853D01*
X149300147Y-83154354D01*
X149201544Y-83006784D01*
X149133624Y-82842812D01*
X149099000Y-82668741D01*
X149099000Y-82491259D01*
X149133624Y-82317188D01*
X149201544Y-82153216D01*
X149300147Y-82005646D01*
X149425646Y-81880147D01*
X149573216Y-81781544D01*
X149737188Y-81713624D01*
X149886488Y-81683927D01*
X149911258Y-81679000D01*
X150088742Y-81679000D01*
X150113512Y-81683927D01*
G37*
G36*
X154784928Y-82231764D02*
G01*
X154806009Y-82238160D01*
X154825445Y-82248548D01*
X154842476Y-82262524D01*
X154856452Y-82279555D01*
X154866840Y-82298991D01*
X154873236Y-82320072D01*
X154876000Y-82348140D01*
X154876000Y-82811860D01*
X154873236Y-82839928D01*
X154866840Y-82861009D01*
X154856452Y-82880445D01*
X154842476Y-82897476D01*
X154825445Y-82911452D01*
X154806009Y-82921840D01*
X154784928Y-82928236D01*
X154756860Y-82931000D01*
X152843140Y-82931000D01*
X152815072Y-82928236D01*
X152793991Y-82921840D01*
X152774555Y-82911452D01*
X152757524Y-82897476D01*
X152743548Y-82880445D01*
X152733160Y-82861009D01*
X152726764Y-82839928D01*
X152724000Y-82811860D01*
X152724000Y-82348140D01*
X152726764Y-82320072D01*
X152733160Y-82298991D01*
X152743548Y-82279555D01*
X152757524Y-82262524D01*
X152774555Y-82248548D01*
X152793991Y-82238160D01*
X152815072Y-82231764D01*
X152843140Y-82229000D01*
X154756860Y-82229000D01*
X154784928Y-82231764D01*
G37*
G36*
X164084928Y-82231764D02*
G01*
X164106009Y-82238160D01*
X164125445Y-82248548D01*
X164142476Y-82262524D01*
X164156452Y-82279555D01*
X164166840Y-82298991D01*
X164173236Y-82320072D01*
X164176000Y-82348140D01*
X164176000Y-82811860D01*
X164173236Y-82839928D01*
X164166840Y-82861009D01*
X164156452Y-82880445D01*
X164142476Y-82897476D01*
X164125445Y-82911452D01*
X164106009Y-82921840D01*
X164084928Y-82928236D01*
X164056860Y-82931000D01*
X162143140Y-82931000D01*
X162115072Y-82928236D01*
X162093991Y-82921840D01*
X162074555Y-82911452D01*
X162057524Y-82897476D01*
X162043548Y-82880445D01*
X162033160Y-82861009D01*
X162026764Y-82839928D01*
X162024000Y-82811860D01*
X162024000Y-82348140D01*
X162026764Y-82320072D01*
X162033160Y-82298991D01*
X162043548Y-82279555D01*
X162057524Y-82262524D01*
X162074555Y-82248548D01*
X162093991Y-82238160D01*
X162115072Y-82231764D01*
X162143140Y-82229000D01*
X164056860Y-82229000D01*
X164084928Y-82231764D01*
G37*
G36*
X164084928Y-80961764D02*
G01*
X164106009Y-80968160D01*
X164125445Y-80978548D01*
X164142476Y-80992524D01*
X164156452Y-81009555D01*
X164166840Y-81028991D01*
X164173236Y-81050072D01*
X164176000Y-81078140D01*
X164176000Y-81541860D01*
X164173236Y-81569928D01*
X164166840Y-81591009D01*
X164156452Y-81610445D01*
X164142476Y-81627476D01*
X164125445Y-81641452D01*
X164106009Y-81651840D01*
X164084928Y-81658236D01*
X164056860Y-81661000D01*
X162143140Y-81661000D01*
X162115072Y-81658236D01*
X162093991Y-81651840D01*
X162074555Y-81641452D01*
X162057524Y-81627476D01*
X162043548Y-81610445D01*
X162033160Y-81591009D01*
X162026764Y-81569928D01*
X162024000Y-81541860D01*
X162024000Y-81078140D01*
X162026764Y-81050072D01*
X162033160Y-81028991D01*
X162043548Y-81009555D01*
X162057524Y-80992524D01*
X162074555Y-80978548D01*
X162093991Y-80968160D01*
X162115072Y-80961764D01*
X162143140Y-80959000D01*
X164056860Y-80959000D01*
X164084928Y-80961764D01*
G37*
G36*
X154784928Y-80961764D02*
G01*
X154806009Y-80968160D01*
X154825445Y-80978548D01*
X154842476Y-80992524D01*
X154856452Y-81009555D01*
X154866840Y-81028991D01*
X154873236Y-81050072D01*
X154876000Y-81078140D01*
X154876000Y-81541860D01*
X154873236Y-81569928D01*
X154866840Y-81591009D01*
X154856452Y-81610445D01*
X154842476Y-81627476D01*
X154825445Y-81641452D01*
X154806009Y-81651840D01*
X154784928Y-81658236D01*
X154756860Y-81661000D01*
X152843140Y-81661000D01*
X152815072Y-81658236D01*
X152793991Y-81651840D01*
X152774555Y-81641452D01*
X152757524Y-81627476D01*
X152743548Y-81610445D01*
X152733160Y-81591009D01*
X152726764Y-81569928D01*
X152724000Y-81541860D01*
X152724000Y-81078140D01*
X152726764Y-81050072D01*
X152733160Y-81028991D01*
X152743548Y-81009555D01*
X152757524Y-80992524D01*
X152774555Y-80978548D01*
X152793991Y-80968160D01*
X152815072Y-80961764D01*
X152843140Y-80959000D01*
X154756860Y-80959000D01*
X154784928Y-80961764D01*
G37*
G36*
X167013512Y-79143927D02*
G01*
X167162812Y-79173624D01*
X167326784Y-79241544D01*
X167474354Y-79340147D01*
X167599853Y-79465646D01*
X167698456Y-79613216D01*
X167766376Y-79777188D01*
X167801000Y-79951259D01*
X167801000Y-80128741D01*
X167766376Y-80302812D01*
X167698456Y-80466784D01*
X167599853Y-80614354D01*
X167474354Y-80739853D01*
X167326784Y-80838456D01*
X167162812Y-80906376D01*
X167013512Y-80936073D01*
X166988742Y-80941000D01*
X166811258Y-80941000D01*
X166786488Y-80936073D01*
X166637188Y-80906376D01*
X166473216Y-80838456D01*
X166325646Y-80739853D01*
X166200147Y-80614354D01*
X166101544Y-80466784D01*
X166033624Y-80302812D01*
X165999000Y-80128741D01*
X165999000Y-79951259D01*
X166033624Y-79777188D01*
X166101544Y-79613216D01*
X166200147Y-79465646D01*
X166325646Y-79340147D01*
X166473216Y-79241544D01*
X166637188Y-79173624D01*
X166786488Y-79143927D01*
X166811258Y-79139000D01*
X166988742Y-79139000D01*
X167013512Y-79143927D01*
G37*
G36*
X150113512Y-79143927D02*
G01*
X150262812Y-79173624D01*
X150426784Y-79241544D01*
X150574354Y-79340147D01*
X150699853Y-79465646D01*
X150798456Y-79613216D01*
X150866376Y-79777188D01*
X150901000Y-79951259D01*
X150901000Y-80128741D01*
X150866376Y-80302812D01*
X150798456Y-80466784D01*
X150699853Y-80614354D01*
X150574354Y-80739853D01*
X150426784Y-80838456D01*
X150262812Y-80906376D01*
X150113512Y-80936073D01*
X150088742Y-80941000D01*
X149911258Y-80941000D01*
X149886488Y-80936073D01*
X149737188Y-80906376D01*
X149573216Y-80838456D01*
X149425646Y-80739853D01*
X149300147Y-80614354D01*
X149201544Y-80466784D01*
X149133624Y-80302812D01*
X149099000Y-80128741D01*
X149099000Y-79951259D01*
X149133624Y-79777188D01*
X149201544Y-79613216D01*
X149300147Y-79465646D01*
X149425646Y-79340147D01*
X149573216Y-79241544D01*
X149737188Y-79173624D01*
X149886488Y-79143927D01*
X149911258Y-79139000D01*
X150088742Y-79139000D01*
X150113512Y-79143927D01*
G37*
G36*
X164084928Y-79691764D02*
G01*
X164106009Y-79698160D01*
X164125445Y-79708548D01*
X164142476Y-79722524D01*
X164156452Y-79739555D01*
X164166840Y-79758991D01*
X164173236Y-79780072D01*
X164176000Y-79808140D01*
X164176000Y-80271860D01*
X164173236Y-80299928D01*
X164166840Y-80321009D01*
X164156452Y-80340445D01*
X164142476Y-80357476D01*
X164125445Y-80371452D01*
X164106009Y-80381840D01*
X164084928Y-80388236D01*
X164056860Y-80391000D01*
X162143140Y-80391000D01*
X162115072Y-80388236D01*
X162093991Y-80381840D01*
X162074555Y-80371452D01*
X162057524Y-80357476D01*
X162043548Y-80340445D01*
X162033160Y-80321009D01*
X162026764Y-80299928D01*
X162024000Y-80271860D01*
X162024000Y-79808140D01*
X162026764Y-79780072D01*
X162033160Y-79758991D01*
X162043548Y-79739555D01*
X162057524Y-79722524D01*
X162074555Y-79708548D01*
X162093991Y-79698160D01*
X162115072Y-79691764D01*
X162143140Y-79689000D01*
X164056860Y-79689000D01*
X164084928Y-79691764D01*
G37*
G36*
X154784928Y-79691764D02*
G01*
X154806009Y-79698160D01*
X154825445Y-79708548D01*
X154842476Y-79722524D01*
X154856452Y-79739555D01*
X154866840Y-79758991D01*
X154873236Y-79780072D01*
X154876000Y-79808140D01*
X154876000Y-80271860D01*
X154873236Y-80299928D01*
X154866840Y-80321009D01*
X154856452Y-80340445D01*
X154842476Y-80357476D01*
X154825445Y-80371452D01*
X154806009Y-80381840D01*
X154784928Y-80388236D01*
X154756860Y-80391000D01*
X152843140Y-80391000D01*
X152815072Y-80388236D01*
X152793991Y-80381840D01*
X152774555Y-80371452D01*
X152757524Y-80357476D01*
X152743548Y-80340445D01*
X152733160Y-80321009D01*
X152726764Y-80299928D01*
X152724000Y-80271860D01*
X152724000Y-79808140D01*
X152726764Y-79780072D01*
X152733160Y-79758991D01*
X152743548Y-79739555D01*
X152757524Y-79722524D01*
X152774555Y-79708548D01*
X152793991Y-79698160D01*
X152815072Y-79691764D01*
X152843140Y-79689000D01*
X154756860Y-79689000D01*
X154784928Y-79691764D01*
G37*
G36*
X164084928Y-78421764D02*
G01*
X164106009Y-78428160D01*
X164125445Y-78438548D01*
X164142476Y-78452524D01*
X164156452Y-78469555D01*
X164166840Y-78488991D01*
X164173236Y-78510072D01*
X164176000Y-78538140D01*
X164176000Y-79001860D01*
X164173236Y-79029928D01*
X164166840Y-79051009D01*
X164156452Y-79070445D01*
X164142476Y-79087476D01*
X164125445Y-79101452D01*
X164106009Y-79111840D01*
X164084928Y-79118236D01*
X164056860Y-79121000D01*
X162143140Y-79121000D01*
X162115072Y-79118236D01*
X162093991Y-79111840D01*
X162074555Y-79101452D01*
X162057524Y-79087476D01*
X162043548Y-79070445D01*
X162033160Y-79051009D01*
X162026764Y-79029928D01*
X162024000Y-79001860D01*
X162024000Y-78538140D01*
X162026764Y-78510072D01*
X162033160Y-78488991D01*
X162043548Y-78469555D01*
X162057524Y-78452524D01*
X162074555Y-78438548D01*
X162093991Y-78428160D01*
X162115072Y-78421764D01*
X162143140Y-78419000D01*
X164056860Y-78419000D01*
X164084928Y-78421764D01*
G37*
G36*
X154784928Y-78421764D02*
G01*
X154806009Y-78428160D01*
X154825445Y-78438548D01*
X154842476Y-78452524D01*
X154856452Y-78469555D01*
X154866840Y-78488991D01*
X154873236Y-78510072D01*
X154876000Y-78538140D01*
X154876000Y-79001860D01*
X154873236Y-79029928D01*
X154866840Y-79051009D01*
X154856452Y-79070445D01*
X154842476Y-79087476D01*
X154825445Y-79101452D01*
X154806009Y-79111840D01*
X154784928Y-79118236D01*
X154756860Y-79121000D01*
X152843140Y-79121000D01*
X152815072Y-79118236D01*
X152793991Y-79111840D01*
X152774555Y-79101452D01*
X152757524Y-79087476D01*
X152743548Y-79070445D01*
X152733160Y-79051009D01*
X152726764Y-79029928D01*
X152724000Y-79001860D01*
X152724000Y-78538140D01*
X152726764Y-78510072D01*
X152733160Y-78488991D01*
X152743548Y-78469555D01*
X152757524Y-78452524D01*
X152774555Y-78438548D01*
X152793991Y-78428160D01*
X152815072Y-78421764D01*
X152843140Y-78419000D01*
X154756860Y-78419000D01*
X154784928Y-78421764D01*
G37*
G36*
X167801000Y-78401000D02*
G01*
X165999000Y-78401000D01*
X165999000Y-76599000D01*
X167801000Y-76599000D01*
X167801000Y-78401000D01*
G37*
G36*
X150901000Y-78401000D02*
G01*
X149099000Y-78401000D01*
X149099000Y-76599000D01*
X150901000Y-76599000D01*
X150901000Y-78401000D01*
G37*
G36*
X164084928Y-77151764D02*
G01*
X164106009Y-77158160D01*
X164125445Y-77168548D01*
X164142476Y-77182524D01*
X164156452Y-77199555D01*
X164166840Y-77218991D01*
X164173236Y-77240072D01*
X164176000Y-77268140D01*
X164176000Y-77731860D01*
X164173236Y-77759928D01*
X164166840Y-77781009D01*
X164156452Y-77800445D01*
X164142476Y-77817476D01*
X164125445Y-77831452D01*
X164106009Y-77841840D01*
X164084928Y-77848236D01*
X164056860Y-77851000D01*
X162143140Y-77851000D01*
X162115072Y-77848236D01*
X162093991Y-77841840D01*
X162074555Y-77831452D01*
X162057524Y-77817476D01*
X162043548Y-77800445D01*
X162033160Y-77781009D01*
X162026764Y-77759928D01*
X162024000Y-77731860D01*
X162024000Y-77268140D01*
X162026764Y-77240072D01*
X162033160Y-77218991D01*
X162043548Y-77199555D01*
X162057524Y-77182524D01*
X162074555Y-77168548D01*
X162093991Y-77158160D01*
X162115072Y-77151764D01*
X162143140Y-77149000D01*
X164056860Y-77149000D01*
X164084928Y-77151764D01*
G37*
G36*
X154784928Y-77151764D02*
G01*
X154806009Y-77158160D01*
X154825445Y-77168548D01*
X154842476Y-77182524D01*
X154856452Y-77199555D01*
X154866840Y-77218991D01*
X154873236Y-77240072D01*
X154876000Y-77268140D01*
X154876000Y-77731860D01*
X154873236Y-77759928D01*
X154866840Y-77781009D01*
X154856452Y-77800445D01*
X154842476Y-77817476D01*
X154825445Y-77831452D01*
X154806009Y-77841840D01*
X154784928Y-77848236D01*
X154756860Y-77851000D01*
X152843140Y-77851000D01*
X152815072Y-77848236D01*
X152793991Y-77841840D01*
X152774555Y-77831452D01*
X152757524Y-77817476D01*
X152743548Y-77800445D01*
X152733160Y-77781009D01*
X152726764Y-77759928D01*
X152724000Y-77731860D01*
X152724000Y-77268140D01*
X152726764Y-77240072D01*
X152733160Y-77218991D01*
X152743548Y-77199555D01*
X152757524Y-77182524D01*
X152774555Y-77168548D01*
X152793991Y-77158160D01*
X152815072Y-77151764D01*
X152843140Y-77149000D01*
X154756860Y-77149000D01*
X154784928Y-77151764D01*
G37*
G36*
X163688674Y-74478465D02*
G01*
X163726367Y-74489899D01*
X163761103Y-74508466D01*
X163791548Y-74533452D01*
X163816534Y-74563897D01*
X163835101Y-74598633D01*
X163846535Y-74636326D01*
X163851000Y-74681661D01*
X163851000Y-75518339D01*
X163846535Y-75563674D01*
X163835101Y-75601367D01*
X163816534Y-75636103D01*
X163791548Y-75666548D01*
X163761103Y-75691534D01*
X163726367Y-75710101D01*
X163688674Y-75721535D01*
X163643339Y-75726000D01*
X162556661Y-75726000D01*
X162511326Y-75721535D01*
X162473633Y-75710101D01*
X162438897Y-75691534D01*
X162408452Y-75666548D01*
X162383466Y-75636103D01*
X162364899Y-75601367D01*
X162353465Y-75563674D01*
X162349000Y-75518339D01*
X162349000Y-74681661D01*
X162353465Y-74636326D01*
X162364899Y-74598633D01*
X162383466Y-74563897D01*
X162408452Y-74533452D01*
X162438897Y-74508466D01*
X162473633Y-74489899D01*
X162511326Y-74478465D01*
X162556661Y-74474000D01*
X163643339Y-74474000D01*
X163688674Y-74478465D01*
G37*
G36*
X165688674Y-74478465D02*
G01*
X165726367Y-74489899D01*
X165761103Y-74508466D01*
X165791548Y-74533452D01*
X165816534Y-74563897D01*
X165835101Y-74598633D01*
X165846535Y-74636326D01*
X165851000Y-74681661D01*
X165851000Y-75518339D01*
X165846535Y-75563674D01*
X165835101Y-75601367D01*
X165816534Y-75636103D01*
X165791548Y-75666548D01*
X165761103Y-75691534D01*
X165726367Y-75710101D01*
X165688674Y-75721535D01*
X165643339Y-75726000D01*
X164556661Y-75726000D01*
X164511326Y-75721535D01*
X164473633Y-75710101D01*
X164438897Y-75691534D01*
X164408452Y-75666548D01*
X164383466Y-75636103D01*
X164364899Y-75601367D01*
X164353465Y-75563674D01*
X164349000Y-75518339D01*
X164349000Y-74681661D01*
X164353465Y-74636326D01*
X164364899Y-74598633D01*
X164383466Y-74563897D01*
X164408452Y-74533452D01*
X164438897Y-74508466D01*
X164473633Y-74489899D01*
X164511326Y-74478465D01*
X164556661Y-74474000D01*
X165643339Y-74474000D01*
X165688674Y-74478465D01*
G37*
G36*
X161688674Y-74478465D02*
G01*
X161726367Y-74489899D01*
X161761103Y-74508466D01*
X161791548Y-74533452D01*
X161816534Y-74563897D01*
X161835101Y-74598633D01*
X161846535Y-74636326D01*
X161851000Y-74681661D01*
X161851000Y-75518339D01*
X161846535Y-75563674D01*
X161835101Y-75601367D01*
X161816534Y-75636103D01*
X161791548Y-75666548D01*
X161761103Y-75691534D01*
X161726367Y-75710101D01*
X161688674Y-75721535D01*
X161643339Y-75726000D01*
X160556661Y-75726000D01*
X160511326Y-75721535D01*
X160473633Y-75710101D01*
X160438897Y-75691534D01*
X160408452Y-75666548D01*
X160383466Y-75636103D01*
X160364899Y-75601367D01*
X160353465Y-75563674D01*
X160349000Y-75518339D01*
X160349000Y-74681661D01*
X160353465Y-74636326D01*
X160364899Y-74598633D01*
X160383466Y-74563897D01*
X160408452Y-74533452D01*
X160438897Y-74508466D01*
X160473633Y-74489899D01*
X160511326Y-74478465D01*
X160556661Y-74474000D01*
X161643339Y-74474000D01*
X161688674Y-74478465D01*
G37*
G36*
X165688674Y-72428465D02*
G01*
X165726367Y-72439899D01*
X165761103Y-72458466D01*
X165791548Y-72483452D01*
X165816534Y-72513897D01*
X165835101Y-72548633D01*
X165846535Y-72586326D01*
X165851000Y-72631661D01*
X165851000Y-73468339D01*
X165846535Y-73513674D01*
X165835101Y-73551367D01*
X165816534Y-73586103D01*
X165791548Y-73616548D01*
X165761103Y-73641534D01*
X165726367Y-73660101D01*
X165688674Y-73671535D01*
X165643339Y-73676000D01*
X164556661Y-73676000D01*
X164511326Y-73671535D01*
X164473633Y-73660101D01*
X164438897Y-73641534D01*
X164408452Y-73616548D01*
X164383466Y-73586103D01*
X164364899Y-73551367D01*
X164353465Y-73513674D01*
X164349000Y-73468339D01*
X164349000Y-72631661D01*
X164353465Y-72586326D01*
X164364899Y-72548633D01*
X164383466Y-72513897D01*
X164408452Y-72483452D01*
X164438897Y-72458466D01*
X164473633Y-72439899D01*
X164511326Y-72428465D01*
X164556661Y-72424000D01*
X165643339Y-72424000D01*
X165688674Y-72428465D01*
G37*
G36*
X161688674Y-72428465D02*
G01*
X161726367Y-72439899D01*
X161761103Y-72458466D01*
X161791548Y-72483452D01*
X161816534Y-72513897D01*
X161835101Y-72548633D01*
X161846535Y-72586326D01*
X161851000Y-72631661D01*
X161851000Y-73468339D01*
X161846535Y-73513674D01*
X161835101Y-73551367D01*
X161816534Y-73586103D01*
X161791548Y-73616548D01*
X161761103Y-73641534D01*
X161726367Y-73660101D01*
X161688674Y-73671535D01*
X161643339Y-73676000D01*
X160556661Y-73676000D01*
X160511326Y-73671535D01*
X160473633Y-73660101D01*
X160438897Y-73641534D01*
X160408452Y-73616548D01*
X160383466Y-73586103D01*
X160364899Y-73551367D01*
X160353465Y-73513674D01*
X160349000Y-73468339D01*
X160349000Y-72631661D01*
X160353465Y-72586326D01*
X160364899Y-72548633D01*
X160383466Y-72513897D01*
X160408452Y-72483452D01*
X160438897Y-72458466D01*
X160473633Y-72439899D01*
X160511326Y-72428465D01*
X160556661Y-72424000D01*
X161643339Y-72424000D01*
X161688674Y-72428465D01*
G37*
G36*
X163688674Y-72428465D02*
G01*
X163726367Y-72439899D01*
X163761103Y-72458466D01*
X163791548Y-72483452D01*
X163816534Y-72513897D01*
X163835101Y-72548633D01*
X163846535Y-72586326D01*
X163851000Y-72631661D01*
X163851000Y-73468339D01*
X163846535Y-73513674D01*
X163835101Y-73551367D01*
X163816534Y-73586103D01*
X163791548Y-73616548D01*
X163761103Y-73641534D01*
X163726367Y-73660101D01*
X163688674Y-73671535D01*
X163643339Y-73676000D01*
X162556661Y-73676000D01*
X162511326Y-73671535D01*
X162473633Y-73660101D01*
X162438897Y-73641534D01*
X162408452Y-73616548D01*
X162383466Y-73586103D01*
X162364899Y-73551367D01*
X162353465Y-73513674D01*
X162349000Y-73468339D01*
X162349000Y-72631661D01*
X162353465Y-72586326D01*
X162364899Y-72548633D01*
X162383466Y-72513897D01*
X162408452Y-72483452D01*
X162438897Y-72458466D01*
X162473633Y-72439899D01*
X162511326Y-72428465D01*
X162556661Y-72424000D01*
X163643339Y-72424000D01*
X163688674Y-72428465D01*
G37*
M02*
