M48
; DRILL file {KiCad (5.1.5)-3} date 6/21/2020 2:10:06 PM
; FORMAT={-:-/ absolute / inch / decimal}
; #@! TF.CreationDate,2020-06-21T14:10:06-04:00
; #@! TF.GenerationSoftware,Kicad,Pcbnew,(5.1.5)-3
FMAT,2
INCH
T1C0.0118
T2C0.0138
T3C0.0295
T4C0.0394
%
G90
G05
T1
X6.4498Y-3.501
T2
X5.9902Y-3.0177
X6.0551Y-3.5906
X6.1264Y-3.1512
X6.1264Y-3.7512
X6.1713Y-3.3504
X6.1713Y-3.5512
X6.1988Y-3.2008
X6.1988Y-3.6516
X6.2697Y-3.126
X6.2697Y-3.8071
X6.2992Y-3.2766
X6.2992Y-3.751
X6.3248Y-3.3258
X6.3248Y-3.6516
X6.3504Y-3.3012
X6.4498Y-3.8504
T3
X5.9252Y-2.8543
X6.0433Y-3.9567
X6.437Y-3.9567
X6.5748Y-2.8543
T4
X6.5709Y-3.0512
X6.5709Y-3.1512
X6.5709Y-3.2512
X6.5709Y-3.3512
X6.5709Y-3.4512
X6.5709Y-3.5512
X6.5709Y-3.6512
X6.5709Y-3.7512
X6.5709Y-3.8512
X6.5709Y-3.9512
X5.9055Y-3.0512
X5.9055Y-3.1512
X5.9055Y-3.2512
X5.9055Y-3.3512
X5.9055Y-3.4512
X5.9055Y-3.5512
X5.9055Y-3.6512
X5.9055Y-3.7512
X5.9055Y-3.8512
X5.9055Y-3.9512
T0
M30
