G04 #@! TF.GenerationSoftware,KiCad,Pcbnew,(5.1.5)-3*
G04 #@! TF.CreationDate,2020-06-22T22:14:50-04:00*
G04 #@! TF.ProjectId,74X273 Simplified pinout,37345832-3733-4205-9369-6d706c696669,rev?*
G04 #@! TF.SameCoordinates,Original*
G04 #@! TF.FileFunction,Copper,L1,Top*
G04 #@! TF.FilePolarity,Positive*
%FSLAX46Y46*%
G04 Gerber Fmt 4.6, Leading zero omitted, Abs format (unit mm)*
G04 Created by KiCad (PCBNEW (5.1.5)-3) date 2020-06-22 22:14:50*
%MOMM*%
%LPD*%
G04 APERTURE LIST*
%ADD10C,0.100000*%
%ADD11O,1.700000X1.700000*%
%ADD12R,1.700000X1.700000*%
%ADD13C,1.000000*%
%ADD14C,0.650000*%
%ADD15C,0.600000*%
%ADD16C,0.254000*%
%ADD17C,0.139700*%
G04 APERTURE END LIST*
G04 #@! TA.AperFunction,SMDPad,CuDef*
D10*
G36*
X165574505Y-74526204D02*
G01*
X165598773Y-74529804D01*
X165622572Y-74535765D01*
X165645671Y-74544030D01*
X165667850Y-74554520D01*
X165688893Y-74567132D01*
X165708599Y-74581747D01*
X165726777Y-74598223D01*
X165743253Y-74616401D01*
X165757868Y-74636107D01*
X165770480Y-74657150D01*
X165780970Y-74679329D01*
X165789235Y-74702428D01*
X165795196Y-74726227D01*
X165798796Y-74750495D01*
X165800000Y-74774999D01*
X165800000Y-75425001D01*
X165798796Y-75449505D01*
X165795196Y-75473773D01*
X165789235Y-75497572D01*
X165780970Y-75520671D01*
X165770480Y-75542850D01*
X165757868Y-75563893D01*
X165743253Y-75583599D01*
X165726777Y-75601777D01*
X165708599Y-75618253D01*
X165688893Y-75632868D01*
X165667850Y-75645480D01*
X165645671Y-75655970D01*
X165622572Y-75664235D01*
X165598773Y-75670196D01*
X165574505Y-75673796D01*
X165550001Y-75675000D01*
X164649999Y-75675000D01*
X164625495Y-75673796D01*
X164601227Y-75670196D01*
X164577428Y-75664235D01*
X164554329Y-75655970D01*
X164532150Y-75645480D01*
X164511107Y-75632868D01*
X164491401Y-75618253D01*
X164473223Y-75601777D01*
X164456747Y-75583599D01*
X164442132Y-75563893D01*
X164429520Y-75542850D01*
X164419030Y-75520671D01*
X164410765Y-75497572D01*
X164404804Y-75473773D01*
X164401204Y-75449505D01*
X164400000Y-75425001D01*
X164400000Y-74774999D01*
X164401204Y-74750495D01*
X164404804Y-74726227D01*
X164410765Y-74702428D01*
X164419030Y-74679329D01*
X164429520Y-74657150D01*
X164442132Y-74636107D01*
X164456747Y-74616401D01*
X164473223Y-74598223D01*
X164491401Y-74581747D01*
X164511107Y-74567132D01*
X164532150Y-74554520D01*
X164554329Y-74544030D01*
X164577428Y-74535765D01*
X164601227Y-74529804D01*
X164625495Y-74526204D01*
X164649999Y-74525000D01*
X165550001Y-74525000D01*
X165574505Y-74526204D01*
G37*
G04 #@! TD.AperFunction*
G04 #@! TA.AperFunction,SMDPad,CuDef*
G36*
X165574505Y-72476204D02*
G01*
X165598773Y-72479804D01*
X165622572Y-72485765D01*
X165645671Y-72494030D01*
X165667850Y-72504520D01*
X165688893Y-72517132D01*
X165708599Y-72531747D01*
X165726777Y-72548223D01*
X165743253Y-72566401D01*
X165757868Y-72586107D01*
X165770480Y-72607150D01*
X165780970Y-72629329D01*
X165789235Y-72652428D01*
X165795196Y-72676227D01*
X165798796Y-72700495D01*
X165800000Y-72724999D01*
X165800000Y-73375001D01*
X165798796Y-73399505D01*
X165795196Y-73423773D01*
X165789235Y-73447572D01*
X165780970Y-73470671D01*
X165770480Y-73492850D01*
X165757868Y-73513893D01*
X165743253Y-73533599D01*
X165726777Y-73551777D01*
X165708599Y-73568253D01*
X165688893Y-73582868D01*
X165667850Y-73595480D01*
X165645671Y-73605970D01*
X165622572Y-73614235D01*
X165598773Y-73620196D01*
X165574505Y-73623796D01*
X165550001Y-73625000D01*
X164649999Y-73625000D01*
X164625495Y-73623796D01*
X164601227Y-73620196D01*
X164577428Y-73614235D01*
X164554329Y-73605970D01*
X164532150Y-73595480D01*
X164511107Y-73582868D01*
X164491401Y-73568253D01*
X164473223Y-73551777D01*
X164456747Y-73533599D01*
X164442132Y-73513893D01*
X164429520Y-73492850D01*
X164419030Y-73470671D01*
X164410765Y-73447572D01*
X164404804Y-73423773D01*
X164401204Y-73399505D01*
X164400000Y-73375001D01*
X164400000Y-72724999D01*
X164401204Y-72700495D01*
X164404804Y-72676227D01*
X164410765Y-72652428D01*
X164419030Y-72629329D01*
X164429520Y-72607150D01*
X164442132Y-72586107D01*
X164456747Y-72566401D01*
X164473223Y-72548223D01*
X164491401Y-72531747D01*
X164511107Y-72517132D01*
X164532150Y-72504520D01*
X164554329Y-72494030D01*
X164577428Y-72485765D01*
X164601227Y-72479804D01*
X164625495Y-72476204D01*
X164649999Y-72475000D01*
X165550001Y-72475000D01*
X165574505Y-72476204D01*
G37*
G04 #@! TD.AperFunction*
G04 #@! TA.AperFunction,SMDPad,CuDef*
G36*
X163574505Y-74526204D02*
G01*
X163598773Y-74529804D01*
X163622572Y-74535765D01*
X163645671Y-74544030D01*
X163667850Y-74554520D01*
X163688893Y-74567132D01*
X163708599Y-74581747D01*
X163726777Y-74598223D01*
X163743253Y-74616401D01*
X163757868Y-74636107D01*
X163770480Y-74657150D01*
X163780970Y-74679329D01*
X163789235Y-74702428D01*
X163795196Y-74726227D01*
X163798796Y-74750495D01*
X163800000Y-74774999D01*
X163800000Y-75425001D01*
X163798796Y-75449505D01*
X163795196Y-75473773D01*
X163789235Y-75497572D01*
X163780970Y-75520671D01*
X163770480Y-75542850D01*
X163757868Y-75563893D01*
X163743253Y-75583599D01*
X163726777Y-75601777D01*
X163708599Y-75618253D01*
X163688893Y-75632868D01*
X163667850Y-75645480D01*
X163645671Y-75655970D01*
X163622572Y-75664235D01*
X163598773Y-75670196D01*
X163574505Y-75673796D01*
X163550001Y-75675000D01*
X162649999Y-75675000D01*
X162625495Y-75673796D01*
X162601227Y-75670196D01*
X162577428Y-75664235D01*
X162554329Y-75655970D01*
X162532150Y-75645480D01*
X162511107Y-75632868D01*
X162491401Y-75618253D01*
X162473223Y-75601777D01*
X162456747Y-75583599D01*
X162442132Y-75563893D01*
X162429520Y-75542850D01*
X162419030Y-75520671D01*
X162410765Y-75497572D01*
X162404804Y-75473773D01*
X162401204Y-75449505D01*
X162400000Y-75425001D01*
X162400000Y-74774999D01*
X162401204Y-74750495D01*
X162404804Y-74726227D01*
X162410765Y-74702428D01*
X162419030Y-74679329D01*
X162429520Y-74657150D01*
X162442132Y-74636107D01*
X162456747Y-74616401D01*
X162473223Y-74598223D01*
X162491401Y-74581747D01*
X162511107Y-74567132D01*
X162532150Y-74554520D01*
X162554329Y-74544030D01*
X162577428Y-74535765D01*
X162601227Y-74529804D01*
X162625495Y-74526204D01*
X162649999Y-74525000D01*
X163550001Y-74525000D01*
X163574505Y-74526204D01*
G37*
G04 #@! TD.AperFunction*
G04 #@! TA.AperFunction,SMDPad,CuDef*
G36*
X163574505Y-72476204D02*
G01*
X163598773Y-72479804D01*
X163622572Y-72485765D01*
X163645671Y-72494030D01*
X163667850Y-72504520D01*
X163688893Y-72517132D01*
X163708599Y-72531747D01*
X163726777Y-72548223D01*
X163743253Y-72566401D01*
X163757868Y-72586107D01*
X163770480Y-72607150D01*
X163780970Y-72629329D01*
X163789235Y-72652428D01*
X163795196Y-72676227D01*
X163798796Y-72700495D01*
X163800000Y-72724999D01*
X163800000Y-73375001D01*
X163798796Y-73399505D01*
X163795196Y-73423773D01*
X163789235Y-73447572D01*
X163780970Y-73470671D01*
X163770480Y-73492850D01*
X163757868Y-73513893D01*
X163743253Y-73533599D01*
X163726777Y-73551777D01*
X163708599Y-73568253D01*
X163688893Y-73582868D01*
X163667850Y-73595480D01*
X163645671Y-73605970D01*
X163622572Y-73614235D01*
X163598773Y-73620196D01*
X163574505Y-73623796D01*
X163550001Y-73625000D01*
X162649999Y-73625000D01*
X162625495Y-73623796D01*
X162601227Y-73620196D01*
X162577428Y-73614235D01*
X162554329Y-73605970D01*
X162532150Y-73595480D01*
X162511107Y-73582868D01*
X162491401Y-73568253D01*
X162473223Y-73551777D01*
X162456747Y-73533599D01*
X162442132Y-73513893D01*
X162429520Y-73492850D01*
X162419030Y-73470671D01*
X162410765Y-73447572D01*
X162404804Y-73423773D01*
X162401204Y-73399505D01*
X162400000Y-73375001D01*
X162400000Y-72724999D01*
X162401204Y-72700495D01*
X162404804Y-72676227D01*
X162410765Y-72652428D01*
X162419030Y-72629329D01*
X162429520Y-72607150D01*
X162442132Y-72586107D01*
X162456747Y-72566401D01*
X162473223Y-72548223D01*
X162491401Y-72531747D01*
X162511107Y-72517132D01*
X162532150Y-72504520D01*
X162554329Y-72494030D01*
X162577428Y-72485765D01*
X162601227Y-72479804D01*
X162625495Y-72476204D01*
X162649999Y-72475000D01*
X163550001Y-72475000D01*
X163574505Y-72476204D01*
G37*
G04 #@! TD.AperFunction*
G04 #@! TA.AperFunction,SMDPad,CuDef*
G36*
X161574505Y-74526204D02*
G01*
X161598773Y-74529804D01*
X161622572Y-74535765D01*
X161645671Y-74544030D01*
X161667850Y-74554520D01*
X161688893Y-74567132D01*
X161708599Y-74581747D01*
X161726777Y-74598223D01*
X161743253Y-74616401D01*
X161757868Y-74636107D01*
X161770480Y-74657150D01*
X161780970Y-74679329D01*
X161789235Y-74702428D01*
X161795196Y-74726227D01*
X161798796Y-74750495D01*
X161800000Y-74774999D01*
X161800000Y-75425001D01*
X161798796Y-75449505D01*
X161795196Y-75473773D01*
X161789235Y-75497572D01*
X161780970Y-75520671D01*
X161770480Y-75542850D01*
X161757868Y-75563893D01*
X161743253Y-75583599D01*
X161726777Y-75601777D01*
X161708599Y-75618253D01*
X161688893Y-75632868D01*
X161667850Y-75645480D01*
X161645671Y-75655970D01*
X161622572Y-75664235D01*
X161598773Y-75670196D01*
X161574505Y-75673796D01*
X161550001Y-75675000D01*
X160649999Y-75675000D01*
X160625495Y-75673796D01*
X160601227Y-75670196D01*
X160577428Y-75664235D01*
X160554329Y-75655970D01*
X160532150Y-75645480D01*
X160511107Y-75632868D01*
X160491401Y-75618253D01*
X160473223Y-75601777D01*
X160456747Y-75583599D01*
X160442132Y-75563893D01*
X160429520Y-75542850D01*
X160419030Y-75520671D01*
X160410765Y-75497572D01*
X160404804Y-75473773D01*
X160401204Y-75449505D01*
X160400000Y-75425001D01*
X160400000Y-74774999D01*
X160401204Y-74750495D01*
X160404804Y-74726227D01*
X160410765Y-74702428D01*
X160419030Y-74679329D01*
X160429520Y-74657150D01*
X160442132Y-74636107D01*
X160456747Y-74616401D01*
X160473223Y-74598223D01*
X160491401Y-74581747D01*
X160511107Y-74567132D01*
X160532150Y-74554520D01*
X160554329Y-74544030D01*
X160577428Y-74535765D01*
X160601227Y-74529804D01*
X160625495Y-74526204D01*
X160649999Y-74525000D01*
X161550001Y-74525000D01*
X161574505Y-74526204D01*
G37*
G04 #@! TD.AperFunction*
G04 #@! TA.AperFunction,SMDPad,CuDef*
G36*
X161574505Y-72476204D02*
G01*
X161598773Y-72479804D01*
X161622572Y-72485765D01*
X161645671Y-72494030D01*
X161667850Y-72504520D01*
X161688893Y-72517132D01*
X161708599Y-72531747D01*
X161726777Y-72548223D01*
X161743253Y-72566401D01*
X161757868Y-72586107D01*
X161770480Y-72607150D01*
X161780970Y-72629329D01*
X161789235Y-72652428D01*
X161795196Y-72676227D01*
X161798796Y-72700495D01*
X161800000Y-72724999D01*
X161800000Y-73375001D01*
X161798796Y-73399505D01*
X161795196Y-73423773D01*
X161789235Y-73447572D01*
X161780970Y-73470671D01*
X161770480Y-73492850D01*
X161757868Y-73513893D01*
X161743253Y-73533599D01*
X161726777Y-73551777D01*
X161708599Y-73568253D01*
X161688893Y-73582868D01*
X161667850Y-73595480D01*
X161645671Y-73605970D01*
X161622572Y-73614235D01*
X161598773Y-73620196D01*
X161574505Y-73623796D01*
X161550001Y-73625000D01*
X160649999Y-73625000D01*
X160625495Y-73623796D01*
X160601227Y-73620196D01*
X160577428Y-73614235D01*
X160554329Y-73605970D01*
X160532150Y-73595480D01*
X160511107Y-73582868D01*
X160491401Y-73568253D01*
X160473223Y-73551777D01*
X160456747Y-73533599D01*
X160442132Y-73513893D01*
X160429520Y-73492850D01*
X160419030Y-73470671D01*
X160410765Y-73447572D01*
X160404804Y-73423773D01*
X160401204Y-73399505D01*
X160400000Y-73375001D01*
X160400000Y-72724999D01*
X160401204Y-72700495D01*
X160404804Y-72676227D01*
X160410765Y-72652428D01*
X160419030Y-72629329D01*
X160429520Y-72607150D01*
X160442132Y-72586107D01*
X160456747Y-72566401D01*
X160473223Y-72548223D01*
X160491401Y-72531747D01*
X160511107Y-72517132D01*
X160532150Y-72504520D01*
X160554329Y-72494030D01*
X160577428Y-72485765D01*
X160601227Y-72479804D01*
X160625495Y-72476204D01*
X160649999Y-72475000D01*
X161550001Y-72475000D01*
X161574505Y-72476204D01*
G37*
G04 #@! TD.AperFunction*
G04 #@! TA.AperFunction,SMDPad,CuDef*
G36*
X163989703Y-77200722D02*
G01*
X164004264Y-77202882D01*
X164018543Y-77206459D01*
X164032403Y-77211418D01*
X164045710Y-77217712D01*
X164058336Y-77225280D01*
X164070159Y-77234048D01*
X164081066Y-77243934D01*
X164090952Y-77254841D01*
X164099720Y-77266664D01*
X164107288Y-77279290D01*
X164113582Y-77292597D01*
X164118541Y-77306457D01*
X164122118Y-77320736D01*
X164124278Y-77335297D01*
X164125000Y-77350000D01*
X164125000Y-77650000D01*
X164124278Y-77664703D01*
X164122118Y-77679264D01*
X164118541Y-77693543D01*
X164113582Y-77707403D01*
X164107288Y-77720710D01*
X164099720Y-77733336D01*
X164090952Y-77745159D01*
X164081066Y-77756066D01*
X164070159Y-77765952D01*
X164058336Y-77774720D01*
X164045710Y-77782288D01*
X164032403Y-77788582D01*
X164018543Y-77793541D01*
X164004264Y-77797118D01*
X163989703Y-77799278D01*
X163975000Y-77800000D01*
X162225000Y-77800000D01*
X162210297Y-77799278D01*
X162195736Y-77797118D01*
X162181457Y-77793541D01*
X162167597Y-77788582D01*
X162154290Y-77782288D01*
X162141664Y-77774720D01*
X162129841Y-77765952D01*
X162118934Y-77756066D01*
X162109048Y-77745159D01*
X162100280Y-77733336D01*
X162092712Y-77720710D01*
X162086418Y-77707403D01*
X162081459Y-77693543D01*
X162077882Y-77679264D01*
X162075722Y-77664703D01*
X162075000Y-77650000D01*
X162075000Y-77350000D01*
X162075722Y-77335297D01*
X162077882Y-77320736D01*
X162081459Y-77306457D01*
X162086418Y-77292597D01*
X162092712Y-77279290D01*
X162100280Y-77266664D01*
X162109048Y-77254841D01*
X162118934Y-77243934D01*
X162129841Y-77234048D01*
X162141664Y-77225280D01*
X162154290Y-77217712D01*
X162167597Y-77211418D01*
X162181457Y-77206459D01*
X162195736Y-77202882D01*
X162210297Y-77200722D01*
X162225000Y-77200000D01*
X163975000Y-77200000D01*
X163989703Y-77200722D01*
G37*
G04 #@! TD.AperFunction*
G04 #@! TA.AperFunction,SMDPad,CuDef*
G36*
X163989703Y-78470722D02*
G01*
X164004264Y-78472882D01*
X164018543Y-78476459D01*
X164032403Y-78481418D01*
X164045710Y-78487712D01*
X164058336Y-78495280D01*
X164070159Y-78504048D01*
X164081066Y-78513934D01*
X164090952Y-78524841D01*
X164099720Y-78536664D01*
X164107288Y-78549290D01*
X164113582Y-78562597D01*
X164118541Y-78576457D01*
X164122118Y-78590736D01*
X164124278Y-78605297D01*
X164125000Y-78620000D01*
X164125000Y-78920000D01*
X164124278Y-78934703D01*
X164122118Y-78949264D01*
X164118541Y-78963543D01*
X164113582Y-78977403D01*
X164107288Y-78990710D01*
X164099720Y-79003336D01*
X164090952Y-79015159D01*
X164081066Y-79026066D01*
X164070159Y-79035952D01*
X164058336Y-79044720D01*
X164045710Y-79052288D01*
X164032403Y-79058582D01*
X164018543Y-79063541D01*
X164004264Y-79067118D01*
X163989703Y-79069278D01*
X163975000Y-79070000D01*
X162225000Y-79070000D01*
X162210297Y-79069278D01*
X162195736Y-79067118D01*
X162181457Y-79063541D01*
X162167597Y-79058582D01*
X162154290Y-79052288D01*
X162141664Y-79044720D01*
X162129841Y-79035952D01*
X162118934Y-79026066D01*
X162109048Y-79015159D01*
X162100280Y-79003336D01*
X162092712Y-78990710D01*
X162086418Y-78977403D01*
X162081459Y-78963543D01*
X162077882Y-78949264D01*
X162075722Y-78934703D01*
X162075000Y-78920000D01*
X162075000Y-78620000D01*
X162075722Y-78605297D01*
X162077882Y-78590736D01*
X162081459Y-78576457D01*
X162086418Y-78562597D01*
X162092712Y-78549290D01*
X162100280Y-78536664D01*
X162109048Y-78524841D01*
X162118934Y-78513934D01*
X162129841Y-78504048D01*
X162141664Y-78495280D01*
X162154290Y-78487712D01*
X162167597Y-78481418D01*
X162181457Y-78476459D01*
X162195736Y-78472882D01*
X162210297Y-78470722D01*
X162225000Y-78470000D01*
X163975000Y-78470000D01*
X163989703Y-78470722D01*
G37*
G04 #@! TD.AperFunction*
G04 #@! TA.AperFunction,SMDPad,CuDef*
G36*
X163989703Y-79740722D02*
G01*
X164004264Y-79742882D01*
X164018543Y-79746459D01*
X164032403Y-79751418D01*
X164045710Y-79757712D01*
X164058336Y-79765280D01*
X164070159Y-79774048D01*
X164081066Y-79783934D01*
X164090952Y-79794841D01*
X164099720Y-79806664D01*
X164107288Y-79819290D01*
X164113582Y-79832597D01*
X164118541Y-79846457D01*
X164122118Y-79860736D01*
X164124278Y-79875297D01*
X164125000Y-79890000D01*
X164125000Y-80190000D01*
X164124278Y-80204703D01*
X164122118Y-80219264D01*
X164118541Y-80233543D01*
X164113582Y-80247403D01*
X164107288Y-80260710D01*
X164099720Y-80273336D01*
X164090952Y-80285159D01*
X164081066Y-80296066D01*
X164070159Y-80305952D01*
X164058336Y-80314720D01*
X164045710Y-80322288D01*
X164032403Y-80328582D01*
X164018543Y-80333541D01*
X164004264Y-80337118D01*
X163989703Y-80339278D01*
X163975000Y-80340000D01*
X162225000Y-80340000D01*
X162210297Y-80339278D01*
X162195736Y-80337118D01*
X162181457Y-80333541D01*
X162167597Y-80328582D01*
X162154290Y-80322288D01*
X162141664Y-80314720D01*
X162129841Y-80305952D01*
X162118934Y-80296066D01*
X162109048Y-80285159D01*
X162100280Y-80273336D01*
X162092712Y-80260710D01*
X162086418Y-80247403D01*
X162081459Y-80233543D01*
X162077882Y-80219264D01*
X162075722Y-80204703D01*
X162075000Y-80190000D01*
X162075000Y-79890000D01*
X162075722Y-79875297D01*
X162077882Y-79860736D01*
X162081459Y-79846457D01*
X162086418Y-79832597D01*
X162092712Y-79819290D01*
X162100280Y-79806664D01*
X162109048Y-79794841D01*
X162118934Y-79783934D01*
X162129841Y-79774048D01*
X162141664Y-79765280D01*
X162154290Y-79757712D01*
X162167597Y-79751418D01*
X162181457Y-79746459D01*
X162195736Y-79742882D01*
X162210297Y-79740722D01*
X162225000Y-79740000D01*
X163975000Y-79740000D01*
X163989703Y-79740722D01*
G37*
G04 #@! TD.AperFunction*
G04 #@! TA.AperFunction,SMDPad,CuDef*
G36*
X163989703Y-81010722D02*
G01*
X164004264Y-81012882D01*
X164018543Y-81016459D01*
X164032403Y-81021418D01*
X164045710Y-81027712D01*
X164058336Y-81035280D01*
X164070159Y-81044048D01*
X164081066Y-81053934D01*
X164090952Y-81064841D01*
X164099720Y-81076664D01*
X164107288Y-81089290D01*
X164113582Y-81102597D01*
X164118541Y-81116457D01*
X164122118Y-81130736D01*
X164124278Y-81145297D01*
X164125000Y-81160000D01*
X164125000Y-81460000D01*
X164124278Y-81474703D01*
X164122118Y-81489264D01*
X164118541Y-81503543D01*
X164113582Y-81517403D01*
X164107288Y-81530710D01*
X164099720Y-81543336D01*
X164090952Y-81555159D01*
X164081066Y-81566066D01*
X164070159Y-81575952D01*
X164058336Y-81584720D01*
X164045710Y-81592288D01*
X164032403Y-81598582D01*
X164018543Y-81603541D01*
X164004264Y-81607118D01*
X163989703Y-81609278D01*
X163975000Y-81610000D01*
X162225000Y-81610000D01*
X162210297Y-81609278D01*
X162195736Y-81607118D01*
X162181457Y-81603541D01*
X162167597Y-81598582D01*
X162154290Y-81592288D01*
X162141664Y-81584720D01*
X162129841Y-81575952D01*
X162118934Y-81566066D01*
X162109048Y-81555159D01*
X162100280Y-81543336D01*
X162092712Y-81530710D01*
X162086418Y-81517403D01*
X162081459Y-81503543D01*
X162077882Y-81489264D01*
X162075722Y-81474703D01*
X162075000Y-81460000D01*
X162075000Y-81160000D01*
X162075722Y-81145297D01*
X162077882Y-81130736D01*
X162081459Y-81116457D01*
X162086418Y-81102597D01*
X162092712Y-81089290D01*
X162100280Y-81076664D01*
X162109048Y-81064841D01*
X162118934Y-81053934D01*
X162129841Y-81044048D01*
X162141664Y-81035280D01*
X162154290Y-81027712D01*
X162167597Y-81021418D01*
X162181457Y-81016459D01*
X162195736Y-81012882D01*
X162210297Y-81010722D01*
X162225000Y-81010000D01*
X163975000Y-81010000D01*
X163989703Y-81010722D01*
G37*
G04 #@! TD.AperFunction*
G04 #@! TA.AperFunction,SMDPad,CuDef*
G36*
X163989703Y-82280722D02*
G01*
X164004264Y-82282882D01*
X164018543Y-82286459D01*
X164032403Y-82291418D01*
X164045710Y-82297712D01*
X164058336Y-82305280D01*
X164070159Y-82314048D01*
X164081066Y-82323934D01*
X164090952Y-82334841D01*
X164099720Y-82346664D01*
X164107288Y-82359290D01*
X164113582Y-82372597D01*
X164118541Y-82386457D01*
X164122118Y-82400736D01*
X164124278Y-82415297D01*
X164125000Y-82430000D01*
X164125000Y-82730000D01*
X164124278Y-82744703D01*
X164122118Y-82759264D01*
X164118541Y-82773543D01*
X164113582Y-82787403D01*
X164107288Y-82800710D01*
X164099720Y-82813336D01*
X164090952Y-82825159D01*
X164081066Y-82836066D01*
X164070159Y-82845952D01*
X164058336Y-82854720D01*
X164045710Y-82862288D01*
X164032403Y-82868582D01*
X164018543Y-82873541D01*
X164004264Y-82877118D01*
X163989703Y-82879278D01*
X163975000Y-82880000D01*
X162225000Y-82880000D01*
X162210297Y-82879278D01*
X162195736Y-82877118D01*
X162181457Y-82873541D01*
X162167597Y-82868582D01*
X162154290Y-82862288D01*
X162141664Y-82854720D01*
X162129841Y-82845952D01*
X162118934Y-82836066D01*
X162109048Y-82825159D01*
X162100280Y-82813336D01*
X162092712Y-82800710D01*
X162086418Y-82787403D01*
X162081459Y-82773543D01*
X162077882Y-82759264D01*
X162075722Y-82744703D01*
X162075000Y-82730000D01*
X162075000Y-82430000D01*
X162075722Y-82415297D01*
X162077882Y-82400736D01*
X162081459Y-82386457D01*
X162086418Y-82372597D01*
X162092712Y-82359290D01*
X162100280Y-82346664D01*
X162109048Y-82334841D01*
X162118934Y-82323934D01*
X162129841Y-82314048D01*
X162141664Y-82305280D01*
X162154290Y-82297712D01*
X162167597Y-82291418D01*
X162181457Y-82286459D01*
X162195736Y-82282882D01*
X162210297Y-82280722D01*
X162225000Y-82280000D01*
X163975000Y-82280000D01*
X163989703Y-82280722D01*
G37*
G04 #@! TD.AperFunction*
G04 #@! TA.AperFunction,SMDPad,CuDef*
G36*
X163989703Y-83550722D02*
G01*
X164004264Y-83552882D01*
X164018543Y-83556459D01*
X164032403Y-83561418D01*
X164045710Y-83567712D01*
X164058336Y-83575280D01*
X164070159Y-83584048D01*
X164081066Y-83593934D01*
X164090952Y-83604841D01*
X164099720Y-83616664D01*
X164107288Y-83629290D01*
X164113582Y-83642597D01*
X164118541Y-83656457D01*
X164122118Y-83670736D01*
X164124278Y-83685297D01*
X164125000Y-83700000D01*
X164125000Y-84000000D01*
X164124278Y-84014703D01*
X164122118Y-84029264D01*
X164118541Y-84043543D01*
X164113582Y-84057403D01*
X164107288Y-84070710D01*
X164099720Y-84083336D01*
X164090952Y-84095159D01*
X164081066Y-84106066D01*
X164070159Y-84115952D01*
X164058336Y-84124720D01*
X164045710Y-84132288D01*
X164032403Y-84138582D01*
X164018543Y-84143541D01*
X164004264Y-84147118D01*
X163989703Y-84149278D01*
X163975000Y-84150000D01*
X162225000Y-84150000D01*
X162210297Y-84149278D01*
X162195736Y-84147118D01*
X162181457Y-84143541D01*
X162167597Y-84138582D01*
X162154290Y-84132288D01*
X162141664Y-84124720D01*
X162129841Y-84115952D01*
X162118934Y-84106066D01*
X162109048Y-84095159D01*
X162100280Y-84083336D01*
X162092712Y-84070710D01*
X162086418Y-84057403D01*
X162081459Y-84043543D01*
X162077882Y-84029264D01*
X162075722Y-84014703D01*
X162075000Y-84000000D01*
X162075000Y-83700000D01*
X162075722Y-83685297D01*
X162077882Y-83670736D01*
X162081459Y-83656457D01*
X162086418Y-83642597D01*
X162092712Y-83629290D01*
X162100280Y-83616664D01*
X162109048Y-83604841D01*
X162118934Y-83593934D01*
X162129841Y-83584048D01*
X162141664Y-83575280D01*
X162154290Y-83567712D01*
X162167597Y-83561418D01*
X162181457Y-83556459D01*
X162195736Y-83552882D01*
X162210297Y-83550722D01*
X162225000Y-83550000D01*
X163975000Y-83550000D01*
X163989703Y-83550722D01*
G37*
G04 #@! TD.AperFunction*
G04 #@! TA.AperFunction,SMDPad,CuDef*
G36*
X163989703Y-84820722D02*
G01*
X164004264Y-84822882D01*
X164018543Y-84826459D01*
X164032403Y-84831418D01*
X164045710Y-84837712D01*
X164058336Y-84845280D01*
X164070159Y-84854048D01*
X164081066Y-84863934D01*
X164090952Y-84874841D01*
X164099720Y-84886664D01*
X164107288Y-84899290D01*
X164113582Y-84912597D01*
X164118541Y-84926457D01*
X164122118Y-84940736D01*
X164124278Y-84955297D01*
X164125000Y-84970000D01*
X164125000Y-85270000D01*
X164124278Y-85284703D01*
X164122118Y-85299264D01*
X164118541Y-85313543D01*
X164113582Y-85327403D01*
X164107288Y-85340710D01*
X164099720Y-85353336D01*
X164090952Y-85365159D01*
X164081066Y-85376066D01*
X164070159Y-85385952D01*
X164058336Y-85394720D01*
X164045710Y-85402288D01*
X164032403Y-85408582D01*
X164018543Y-85413541D01*
X164004264Y-85417118D01*
X163989703Y-85419278D01*
X163975000Y-85420000D01*
X162225000Y-85420000D01*
X162210297Y-85419278D01*
X162195736Y-85417118D01*
X162181457Y-85413541D01*
X162167597Y-85408582D01*
X162154290Y-85402288D01*
X162141664Y-85394720D01*
X162129841Y-85385952D01*
X162118934Y-85376066D01*
X162109048Y-85365159D01*
X162100280Y-85353336D01*
X162092712Y-85340710D01*
X162086418Y-85327403D01*
X162081459Y-85313543D01*
X162077882Y-85299264D01*
X162075722Y-85284703D01*
X162075000Y-85270000D01*
X162075000Y-84970000D01*
X162075722Y-84955297D01*
X162077882Y-84940736D01*
X162081459Y-84926457D01*
X162086418Y-84912597D01*
X162092712Y-84899290D01*
X162100280Y-84886664D01*
X162109048Y-84874841D01*
X162118934Y-84863934D01*
X162129841Y-84854048D01*
X162141664Y-84845280D01*
X162154290Y-84837712D01*
X162167597Y-84831418D01*
X162181457Y-84826459D01*
X162195736Y-84822882D01*
X162210297Y-84820722D01*
X162225000Y-84820000D01*
X163975000Y-84820000D01*
X163989703Y-84820722D01*
G37*
G04 #@! TD.AperFunction*
G04 #@! TA.AperFunction,SMDPad,CuDef*
G36*
X163989703Y-86090722D02*
G01*
X164004264Y-86092882D01*
X164018543Y-86096459D01*
X164032403Y-86101418D01*
X164045710Y-86107712D01*
X164058336Y-86115280D01*
X164070159Y-86124048D01*
X164081066Y-86133934D01*
X164090952Y-86144841D01*
X164099720Y-86156664D01*
X164107288Y-86169290D01*
X164113582Y-86182597D01*
X164118541Y-86196457D01*
X164122118Y-86210736D01*
X164124278Y-86225297D01*
X164125000Y-86240000D01*
X164125000Y-86540000D01*
X164124278Y-86554703D01*
X164122118Y-86569264D01*
X164118541Y-86583543D01*
X164113582Y-86597403D01*
X164107288Y-86610710D01*
X164099720Y-86623336D01*
X164090952Y-86635159D01*
X164081066Y-86646066D01*
X164070159Y-86655952D01*
X164058336Y-86664720D01*
X164045710Y-86672288D01*
X164032403Y-86678582D01*
X164018543Y-86683541D01*
X164004264Y-86687118D01*
X163989703Y-86689278D01*
X163975000Y-86690000D01*
X162225000Y-86690000D01*
X162210297Y-86689278D01*
X162195736Y-86687118D01*
X162181457Y-86683541D01*
X162167597Y-86678582D01*
X162154290Y-86672288D01*
X162141664Y-86664720D01*
X162129841Y-86655952D01*
X162118934Y-86646066D01*
X162109048Y-86635159D01*
X162100280Y-86623336D01*
X162092712Y-86610710D01*
X162086418Y-86597403D01*
X162081459Y-86583543D01*
X162077882Y-86569264D01*
X162075722Y-86554703D01*
X162075000Y-86540000D01*
X162075000Y-86240000D01*
X162075722Y-86225297D01*
X162077882Y-86210736D01*
X162081459Y-86196457D01*
X162086418Y-86182597D01*
X162092712Y-86169290D01*
X162100280Y-86156664D01*
X162109048Y-86144841D01*
X162118934Y-86133934D01*
X162129841Y-86124048D01*
X162141664Y-86115280D01*
X162154290Y-86107712D01*
X162167597Y-86101418D01*
X162181457Y-86096459D01*
X162195736Y-86092882D01*
X162210297Y-86090722D01*
X162225000Y-86090000D01*
X163975000Y-86090000D01*
X163989703Y-86090722D01*
G37*
G04 #@! TD.AperFunction*
G04 #@! TA.AperFunction,SMDPad,CuDef*
G36*
X163989703Y-87360722D02*
G01*
X164004264Y-87362882D01*
X164018543Y-87366459D01*
X164032403Y-87371418D01*
X164045710Y-87377712D01*
X164058336Y-87385280D01*
X164070159Y-87394048D01*
X164081066Y-87403934D01*
X164090952Y-87414841D01*
X164099720Y-87426664D01*
X164107288Y-87439290D01*
X164113582Y-87452597D01*
X164118541Y-87466457D01*
X164122118Y-87480736D01*
X164124278Y-87495297D01*
X164125000Y-87510000D01*
X164125000Y-87810000D01*
X164124278Y-87824703D01*
X164122118Y-87839264D01*
X164118541Y-87853543D01*
X164113582Y-87867403D01*
X164107288Y-87880710D01*
X164099720Y-87893336D01*
X164090952Y-87905159D01*
X164081066Y-87916066D01*
X164070159Y-87925952D01*
X164058336Y-87934720D01*
X164045710Y-87942288D01*
X164032403Y-87948582D01*
X164018543Y-87953541D01*
X164004264Y-87957118D01*
X163989703Y-87959278D01*
X163975000Y-87960000D01*
X162225000Y-87960000D01*
X162210297Y-87959278D01*
X162195736Y-87957118D01*
X162181457Y-87953541D01*
X162167597Y-87948582D01*
X162154290Y-87942288D01*
X162141664Y-87934720D01*
X162129841Y-87925952D01*
X162118934Y-87916066D01*
X162109048Y-87905159D01*
X162100280Y-87893336D01*
X162092712Y-87880710D01*
X162086418Y-87867403D01*
X162081459Y-87853543D01*
X162077882Y-87839264D01*
X162075722Y-87824703D01*
X162075000Y-87810000D01*
X162075000Y-87510000D01*
X162075722Y-87495297D01*
X162077882Y-87480736D01*
X162081459Y-87466457D01*
X162086418Y-87452597D01*
X162092712Y-87439290D01*
X162100280Y-87426664D01*
X162109048Y-87414841D01*
X162118934Y-87403934D01*
X162129841Y-87394048D01*
X162141664Y-87385280D01*
X162154290Y-87377712D01*
X162167597Y-87371418D01*
X162181457Y-87366459D01*
X162195736Y-87362882D01*
X162210297Y-87360722D01*
X162225000Y-87360000D01*
X163975000Y-87360000D01*
X163989703Y-87360722D01*
G37*
G04 #@! TD.AperFunction*
G04 #@! TA.AperFunction,SMDPad,CuDef*
G36*
X163989703Y-88630722D02*
G01*
X164004264Y-88632882D01*
X164018543Y-88636459D01*
X164032403Y-88641418D01*
X164045710Y-88647712D01*
X164058336Y-88655280D01*
X164070159Y-88664048D01*
X164081066Y-88673934D01*
X164090952Y-88684841D01*
X164099720Y-88696664D01*
X164107288Y-88709290D01*
X164113582Y-88722597D01*
X164118541Y-88736457D01*
X164122118Y-88750736D01*
X164124278Y-88765297D01*
X164125000Y-88780000D01*
X164125000Y-89080000D01*
X164124278Y-89094703D01*
X164122118Y-89109264D01*
X164118541Y-89123543D01*
X164113582Y-89137403D01*
X164107288Y-89150710D01*
X164099720Y-89163336D01*
X164090952Y-89175159D01*
X164081066Y-89186066D01*
X164070159Y-89195952D01*
X164058336Y-89204720D01*
X164045710Y-89212288D01*
X164032403Y-89218582D01*
X164018543Y-89223541D01*
X164004264Y-89227118D01*
X163989703Y-89229278D01*
X163975000Y-89230000D01*
X162225000Y-89230000D01*
X162210297Y-89229278D01*
X162195736Y-89227118D01*
X162181457Y-89223541D01*
X162167597Y-89218582D01*
X162154290Y-89212288D01*
X162141664Y-89204720D01*
X162129841Y-89195952D01*
X162118934Y-89186066D01*
X162109048Y-89175159D01*
X162100280Y-89163336D01*
X162092712Y-89150710D01*
X162086418Y-89137403D01*
X162081459Y-89123543D01*
X162077882Y-89109264D01*
X162075722Y-89094703D01*
X162075000Y-89080000D01*
X162075000Y-88780000D01*
X162075722Y-88765297D01*
X162077882Y-88750736D01*
X162081459Y-88736457D01*
X162086418Y-88722597D01*
X162092712Y-88709290D01*
X162100280Y-88696664D01*
X162109048Y-88684841D01*
X162118934Y-88673934D01*
X162129841Y-88664048D01*
X162141664Y-88655280D01*
X162154290Y-88647712D01*
X162167597Y-88641418D01*
X162181457Y-88636459D01*
X162195736Y-88632882D01*
X162210297Y-88630722D01*
X162225000Y-88630000D01*
X163975000Y-88630000D01*
X163989703Y-88630722D01*
G37*
G04 #@! TD.AperFunction*
G04 #@! TA.AperFunction,SMDPad,CuDef*
G36*
X154689703Y-88630722D02*
G01*
X154704264Y-88632882D01*
X154718543Y-88636459D01*
X154732403Y-88641418D01*
X154745710Y-88647712D01*
X154758336Y-88655280D01*
X154770159Y-88664048D01*
X154781066Y-88673934D01*
X154790952Y-88684841D01*
X154799720Y-88696664D01*
X154807288Y-88709290D01*
X154813582Y-88722597D01*
X154818541Y-88736457D01*
X154822118Y-88750736D01*
X154824278Y-88765297D01*
X154825000Y-88780000D01*
X154825000Y-89080000D01*
X154824278Y-89094703D01*
X154822118Y-89109264D01*
X154818541Y-89123543D01*
X154813582Y-89137403D01*
X154807288Y-89150710D01*
X154799720Y-89163336D01*
X154790952Y-89175159D01*
X154781066Y-89186066D01*
X154770159Y-89195952D01*
X154758336Y-89204720D01*
X154745710Y-89212288D01*
X154732403Y-89218582D01*
X154718543Y-89223541D01*
X154704264Y-89227118D01*
X154689703Y-89229278D01*
X154675000Y-89230000D01*
X152925000Y-89230000D01*
X152910297Y-89229278D01*
X152895736Y-89227118D01*
X152881457Y-89223541D01*
X152867597Y-89218582D01*
X152854290Y-89212288D01*
X152841664Y-89204720D01*
X152829841Y-89195952D01*
X152818934Y-89186066D01*
X152809048Y-89175159D01*
X152800280Y-89163336D01*
X152792712Y-89150710D01*
X152786418Y-89137403D01*
X152781459Y-89123543D01*
X152777882Y-89109264D01*
X152775722Y-89094703D01*
X152775000Y-89080000D01*
X152775000Y-88780000D01*
X152775722Y-88765297D01*
X152777882Y-88750736D01*
X152781459Y-88736457D01*
X152786418Y-88722597D01*
X152792712Y-88709290D01*
X152800280Y-88696664D01*
X152809048Y-88684841D01*
X152818934Y-88673934D01*
X152829841Y-88664048D01*
X152841664Y-88655280D01*
X152854290Y-88647712D01*
X152867597Y-88641418D01*
X152881457Y-88636459D01*
X152895736Y-88632882D01*
X152910297Y-88630722D01*
X152925000Y-88630000D01*
X154675000Y-88630000D01*
X154689703Y-88630722D01*
G37*
G04 #@! TD.AperFunction*
G04 #@! TA.AperFunction,SMDPad,CuDef*
G36*
X154689703Y-87360722D02*
G01*
X154704264Y-87362882D01*
X154718543Y-87366459D01*
X154732403Y-87371418D01*
X154745710Y-87377712D01*
X154758336Y-87385280D01*
X154770159Y-87394048D01*
X154781066Y-87403934D01*
X154790952Y-87414841D01*
X154799720Y-87426664D01*
X154807288Y-87439290D01*
X154813582Y-87452597D01*
X154818541Y-87466457D01*
X154822118Y-87480736D01*
X154824278Y-87495297D01*
X154825000Y-87510000D01*
X154825000Y-87810000D01*
X154824278Y-87824703D01*
X154822118Y-87839264D01*
X154818541Y-87853543D01*
X154813582Y-87867403D01*
X154807288Y-87880710D01*
X154799720Y-87893336D01*
X154790952Y-87905159D01*
X154781066Y-87916066D01*
X154770159Y-87925952D01*
X154758336Y-87934720D01*
X154745710Y-87942288D01*
X154732403Y-87948582D01*
X154718543Y-87953541D01*
X154704264Y-87957118D01*
X154689703Y-87959278D01*
X154675000Y-87960000D01*
X152925000Y-87960000D01*
X152910297Y-87959278D01*
X152895736Y-87957118D01*
X152881457Y-87953541D01*
X152867597Y-87948582D01*
X152854290Y-87942288D01*
X152841664Y-87934720D01*
X152829841Y-87925952D01*
X152818934Y-87916066D01*
X152809048Y-87905159D01*
X152800280Y-87893336D01*
X152792712Y-87880710D01*
X152786418Y-87867403D01*
X152781459Y-87853543D01*
X152777882Y-87839264D01*
X152775722Y-87824703D01*
X152775000Y-87810000D01*
X152775000Y-87510000D01*
X152775722Y-87495297D01*
X152777882Y-87480736D01*
X152781459Y-87466457D01*
X152786418Y-87452597D01*
X152792712Y-87439290D01*
X152800280Y-87426664D01*
X152809048Y-87414841D01*
X152818934Y-87403934D01*
X152829841Y-87394048D01*
X152841664Y-87385280D01*
X152854290Y-87377712D01*
X152867597Y-87371418D01*
X152881457Y-87366459D01*
X152895736Y-87362882D01*
X152910297Y-87360722D01*
X152925000Y-87360000D01*
X154675000Y-87360000D01*
X154689703Y-87360722D01*
G37*
G04 #@! TD.AperFunction*
G04 #@! TA.AperFunction,SMDPad,CuDef*
G36*
X154689703Y-86090722D02*
G01*
X154704264Y-86092882D01*
X154718543Y-86096459D01*
X154732403Y-86101418D01*
X154745710Y-86107712D01*
X154758336Y-86115280D01*
X154770159Y-86124048D01*
X154781066Y-86133934D01*
X154790952Y-86144841D01*
X154799720Y-86156664D01*
X154807288Y-86169290D01*
X154813582Y-86182597D01*
X154818541Y-86196457D01*
X154822118Y-86210736D01*
X154824278Y-86225297D01*
X154825000Y-86240000D01*
X154825000Y-86540000D01*
X154824278Y-86554703D01*
X154822118Y-86569264D01*
X154818541Y-86583543D01*
X154813582Y-86597403D01*
X154807288Y-86610710D01*
X154799720Y-86623336D01*
X154790952Y-86635159D01*
X154781066Y-86646066D01*
X154770159Y-86655952D01*
X154758336Y-86664720D01*
X154745710Y-86672288D01*
X154732403Y-86678582D01*
X154718543Y-86683541D01*
X154704264Y-86687118D01*
X154689703Y-86689278D01*
X154675000Y-86690000D01*
X152925000Y-86690000D01*
X152910297Y-86689278D01*
X152895736Y-86687118D01*
X152881457Y-86683541D01*
X152867597Y-86678582D01*
X152854290Y-86672288D01*
X152841664Y-86664720D01*
X152829841Y-86655952D01*
X152818934Y-86646066D01*
X152809048Y-86635159D01*
X152800280Y-86623336D01*
X152792712Y-86610710D01*
X152786418Y-86597403D01*
X152781459Y-86583543D01*
X152777882Y-86569264D01*
X152775722Y-86554703D01*
X152775000Y-86540000D01*
X152775000Y-86240000D01*
X152775722Y-86225297D01*
X152777882Y-86210736D01*
X152781459Y-86196457D01*
X152786418Y-86182597D01*
X152792712Y-86169290D01*
X152800280Y-86156664D01*
X152809048Y-86144841D01*
X152818934Y-86133934D01*
X152829841Y-86124048D01*
X152841664Y-86115280D01*
X152854290Y-86107712D01*
X152867597Y-86101418D01*
X152881457Y-86096459D01*
X152895736Y-86092882D01*
X152910297Y-86090722D01*
X152925000Y-86090000D01*
X154675000Y-86090000D01*
X154689703Y-86090722D01*
G37*
G04 #@! TD.AperFunction*
G04 #@! TA.AperFunction,SMDPad,CuDef*
G36*
X154689703Y-84820722D02*
G01*
X154704264Y-84822882D01*
X154718543Y-84826459D01*
X154732403Y-84831418D01*
X154745710Y-84837712D01*
X154758336Y-84845280D01*
X154770159Y-84854048D01*
X154781066Y-84863934D01*
X154790952Y-84874841D01*
X154799720Y-84886664D01*
X154807288Y-84899290D01*
X154813582Y-84912597D01*
X154818541Y-84926457D01*
X154822118Y-84940736D01*
X154824278Y-84955297D01*
X154825000Y-84970000D01*
X154825000Y-85270000D01*
X154824278Y-85284703D01*
X154822118Y-85299264D01*
X154818541Y-85313543D01*
X154813582Y-85327403D01*
X154807288Y-85340710D01*
X154799720Y-85353336D01*
X154790952Y-85365159D01*
X154781066Y-85376066D01*
X154770159Y-85385952D01*
X154758336Y-85394720D01*
X154745710Y-85402288D01*
X154732403Y-85408582D01*
X154718543Y-85413541D01*
X154704264Y-85417118D01*
X154689703Y-85419278D01*
X154675000Y-85420000D01*
X152925000Y-85420000D01*
X152910297Y-85419278D01*
X152895736Y-85417118D01*
X152881457Y-85413541D01*
X152867597Y-85408582D01*
X152854290Y-85402288D01*
X152841664Y-85394720D01*
X152829841Y-85385952D01*
X152818934Y-85376066D01*
X152809048Y-85365159D01*
X152800280Y-85353336D01*
X152792712Y-85340710D01*
X152786418Y-85327403D01*
X152781459Y-85313543D01*
X152777882Y-85299264D01*
X152775722Y-85284703D01*
X152775000Y-85270000D01*
X152775000Y-84970000D01*
X152775722Y-84955297D01*
X152777882Y-84940736D01*
X152781459Y-84926457D01*
X152786418Y-84912597D01*
X152792712Y-84899290D01*
X152800280Y-84886664D01*
X152809048Y-84874841D01*
X152818934Y-84863934D01*
X152829841Y-84854048D01*
X152841664Y-84845280D01*
X152854290Y-84837712D01*
X152867597Y-84831418D01*
X152881457Y-84826459D01*
X152895736Y-84822882D01*
X152910297Y-84820722D01*
X152925000Y-84820000D01*
X154675000Y-84820000D01*
X154689703Y-84820722D01*
G37*
G04 #@! TD.AperFunction*
G04 #@! TA.AperFunction,SMDPad,CuDef*
G36*
X154689703Y-83550722D02*
G01*
X154704264Y-83552882D01*
X154718543Y-83556459D01*
X154732403Y-83561418D01*
X154745710Y-83567712D01*
X154758336Y-83575280D01*
X154770159Y-83584048D01*
X154781066Y-83593934D01*
X154790952Y-83604841D01*
X154799720Y-83616664D01*
X154807288Y-83629290D01*
X154813582Y-83642597D01*
X154818541Y-83656457D01*
X154822118Y-83670736D01*
X154824278Y-83685297D01*
X154825000Y-83700000D01*
X154825000Y-84000000D01*
X154824278Y-84014703D01*
X154822118Y-84029264D01*
X154818541Y-84043543D01*
X154813582Y-84057403D01*
X154807288Y-84070710D01*
X154799720Y-84083336D01*
X154790952Y-84095159D01*
X154781066Y-84106066D01*
X154770159Y-84115952D01*
X154758336Y-84124720D01*
X154745710Y-84132288D01*
X154732403Y-84138582D01*
X154718543Y-84143541D01*
X154704264Y-84147118D01*
X154689703Y-84149278D01*
X154675000Y-84150000D01*
X152925000Y-84150000D01*
X152910297Y-84149278D01*
X152895736Y-84147118D01*
X152881457Y-84143541D01*
X152867597Y-84138582D01*
X152854290Y-84132288D01*
X152841664Y-84124720D01*
X152829841Y-84115952D01*
X152818934Y-84106066D01*
X152809048Y-84095159D01*
X152800280Y-84083336D01*
X152792712Y-84070710D01*
X152786418Y-84057403D01*
X152781459Y-84043543D01*
X152777882Y-84029264D01*
X152775722Y-84014703D01*
X152775000Y-84000000D01*
X152775000Y-83700000D01*
X152775722Y-83685297D01*
X152777882Y-83670736D01*
X152781459Y-83656457D01*
X152786418Y-83642597D01*
X152792712Y-83629290D01*
X152800280Y-83616664D01*
X152809048Y-83604841D01*
X152818934Y-83593934D01*
X152829841Y-83584048D01*
X152841664Y-83575280D01*
X152854290Y-83567712D01*
X152867597Y-83561418D01*
X152881457Y-83556459D01*
X152895736Y-83552882D01*
X152910297Y-83550722D01*
X152925000Y-83550000D01*
X154675000Y-83550000D01*
X154689703Y-83550722D01*
G37*
G04 #@! TD.AperFunction*
G04 #@! TA.AperFunction,SMDPad,CuDef*
G36*
X154689703Y-82280722D02*
G01*
X154704264Y-82282882D01*
X154718543Y-82286459D01*
X154732403Y-82291418D01*
X154745710Y-82297712D01*
X154758336Y-82305280D01*
X154770159Y-82314048D01*
X154781066Y-82323934D01*
X154790952Y-82334841D01*
X154799720Y-82346664D01*
X154807288Y-82359290D01*
X154813582Y-82372597D01*
X154818541Y-82386457D01*
X154822118Y-82400736D01*
X154824278Y-82415297D01*
X154825000Y-82430000D01*
X154825000Y-82730000D01*
X154824278Y-82744703D01*
X154822118Y-82759264D01*
X154818541Y-82773543D01*
X154813582Y-82787403D01*
X154807288Y-82800710D01*
X154799720Y-82813336D01*
X154790952Y-82825159D01*
X154781066Y-82836066D01*
X154770159Y-82845952D01*
X154758336Y-82854720D01*
X154745710Y-82862288D01*
X154732403Y-82868582D01*
X154718543Y-82873541D01*
X154704264Y-82877118D01*
X154689703Y-82879278D01*
X154675000Y-82880000D01*
X152925000Y-82880000D01*
X152910297Y-82879278D01*
X152895736Y-82877118D01*
X152881457Y-82873541D01*
X152867597Y-82868582D01*
X152854290Y-82862288D01*
X152841664Y-82854720D01*
X152829841Y-82845952D01*
X152818934Y-82836066D01*
X152809048Y-82825159D01*
X152800280Y-82813336D01*
X152792712Y-82800710D01*
X152786418Y-82787403D01*
X152781459Y-82773543D01*
X152777882Y-82759264D01*
X152775722Y-82744703D01*
X152775000Y-82730000D01*
X152775000Y-82430000D01*
X152775722Y-82415297D01*
X152777882Y-82400736D01*
X152781459Y-82386457D01*
X152786418Y-82372597D01*
X152792712Y-82359290D01*
X152800280Y-82346664D01*
X152809048Y-82334841D01*
X152818934Y-82323934D01*
X152829841Y-82314048D01*
X152841664Y-82305280D01*
X152854290Y-82297712D01*
X152867597Y-82291418D01*
X152881457Y-82286459D01*
X152895736Y-82282882D01*
X152910297Y-82280722D01*
X152925000Y-82280000D01*
X154675000Y-82280000D01*
X154689703Y-82280722D01*
G37*
G04 #@! TD.AperFunction*
G04 #@! TA.AperFunction,SMDPad,CuDef*
G36*
X154689703Y-81010722D02*
G01*
X154704264Y-81012882D01*
X154718543Y-81016459D01*
X154732403Y-81021418D01*
X154745710Y-81027712D01*
X154758336Y-81035280D01*
X154770159Y-81044048D01*
X154781066Y-81053934D01*
X154790952Y-81064841D01*
X154799720Y-81076664D01*
X154807288Y-81089290D01*
X154813582Y-81102597D01*
X154818541Y-81116457D01*
X154822118Y-81130736D01*
X154824278Y-81145297D01*
X154825000Y-81160000D01*
X154825000Y-81460000D01*
X154824278Y-81474703D01*
X154822118Y-81489264D01*
X154818541Y-81503543D01*
X154813582Y-81517403D01*
X154807288Y-81530710D01*
X154799720Y-81543336D01*
X154790952Y-81555159D01*
X154781066Y-81566066D01*
X154770159Y-81575952D01*
X154758336Y-81584720D01*
X154745710Y-81592288D01*
X154732403Y-81598582D01*
X154718543Y-81603541D01*
X154704264Y-81607118D01*
X154689703Y-81609278D01*
X154675000Y-81610000D01*
X152925000Y-81610000D01*
X152910297Y-81609278D01*
X152895736Y-81607118D01*
X152881457Y-81603541D01*
X152867597Y-81598582D01*
X152854290Y-81592288D01*
X152841664Y-81584720D01*
X152829841Y-81575952D01*
X152818934Y-81566066D01*
X152809048Y-81555159D01*
X152800280Y-81543336D01*
X152792712Y-81530710D01*
X152786418Y-81517403D01*
X152781459Y-81503543D01*
X152777882Y-81489264D01*
X152775722Y-81474703D01*
X152775000Y-81460000D01*
X152775000Y-81160000D01*
X152775722Y-81145297D01*
X152777882Y-81130736D01*
X152781459Y-81116457D01*
X152786418Y-81102597D01*
X152792712Y-81089290D01*
X152800280Y-81076664D01*
X152809048Y-81064841D01*
X152818934Y-81053934D01*
X152829841Y-81044048D01*
X152841664Y-81035280D01*
X152854290Y-81027712D01*
X152867597Y-81021418D01*
X152881457Y-81016459D01*
X152895736Y-81012882D01*
X152910297Y-81010722D01*
X152925000Y-81010000D01*
X154675000Y-81010000D01*
X154689703Y-81010722D01*
G37*
G04 #@! TD.AperFunction*
G04 #@! TA.AperFunction,SMDPad,CuDef*
G36*
X154689703Y-79740722D02*
G01*
X154704264Y-79742882D01*
X154718543Y-79746459D01*
X154732403Y-79751418D01*
X154745710Y-79757712D01*
X154758336Y-79765280D01*
X154770159Y-79774048D01*
X154781066Y-79783934D01*
X154790952Y-79794841D01*
X154799720Y-79806664D01*
X154807288Y-79819290D01*
X154813582Y-79832597D01*
X154818541Y-79846457D01*
X154822118Y-79860736D01*
X154824278Y-79875297D01*
X154825000Y-79890000D01*
X154825000Y-80190000D01*
X154824278Y-80204703D01*
X154822118Y-80219264D01*
X154818541Y-80233543D01*
X154813582Y-80247403D01*
X154807288Y-80260710D01*
X154799720Y-80273336D01*
X154790952Y-80285159D01*
X154781066Y-80296066D01*
X154770159Y-80305952D01*
X154758336Y-80314720D01*
X154745710Y-80322288D01*
X154732403Y-80328582D01*
X154718543Y-80333541D01*
X154704264Y-80337118D01*
X154689703Y-80339278D01*
X154675000Y-80340000D01*
X152925000Y-80340000D01*
X152910297Y-80339278D01*
X152895736Y-80337118D01*
X152881457Y-80333541D01*
X152867597Y-80328582D01*
X152854290Y-80322288D01*
X152841664Y-80314720D01*
X152829841Y-80305952D01*
X152818934Y-80296066D01*
X152809048Y-80285159D01*
X152800280Y-80273336D01*
X152792712Y-80260710D01*
X152786418Y-80247403D01*
X152781459Y-80233543D01*
X152777882Y-80219264D01*
X152775722Y-80204703D01*
X152775000Y-80190000D01*
X152775000Y-79890000D01*
X152775722Y-79875297D01*
X152777882Y-79860736D01*
X152781459Y-79846457D01*
X152786418Y-79832597D01*
X152792712Y-79819290D01*
X152800280Y-79806664D01*
X152809048Y-79794841D01*
X152818934Y-79783934D01*
X152829841Y-79774048D01*
X152841664Y-79765280D01*
X152854290Y-79757712D01*
X152867597Y-79751418D01*
X152881457Y-79746459D01*
X152895736Y-79742882D01*
X152910297Y-79740722D01*
X152925000Y-79740000D01*
X154675000Y-79740000D01*
X154689703Y-79740722D01*
G37*
G04 #@! TD.AperFunction*
G04 #@! TA.AperFunction,SMDPad,CuDef*
G36*
X154689703Y-78470722D02*
G01*
X154704264Y-78472882D01*
X154718543Y-78476459D01*
X154732403Y-78481418D01*
X154745710Y-78487712D01*
X154758336Y-78495280D01*
X154770159Y-78504048D01*
X154781066Y-78513934D01*
X154790952Y-78524841D01*
X154799720Y-78536664D01*
X154807288Y-78549290D01*
X154813582Y-78562597D01*
X154818541Y-78576457D01*
X154822118Y-78590736D01*
X154824278Y-78605297D01*
X154825000Y-78620000D01*
X154825000Y-78920000D01*
X154824278Y-78934703D01*
X154822118Y-78949264D01*
X154818541Y-78963543D01*
X154813582Y-78977403D01*
X154807288Y-78990710D01*
X154799720Y-79003336D01*
X154790952Y-79015159D01*
X154781066Y-79026066D01*
X154770159Y-79035952D01*
X154758336Y-79044720D01*
X154745710Y-79052288D01*
X154732403Y-79058582D01*
X154718543Y-79063541D01*
X154704264Y-79067118D01*
X154689703Y-79069278D01*
X154675000Y-79070000D01*
X152925000Y-79070000D01*
X152910297Y-79069278D01*
X152895736Y-79067118D01*
X152881457Y-79063541D01*
X152867597Y-79058582D01*
X152854290Y-79052288D01*
X152841664Y-79044720D01*
X152829841Y-79035952D01*
X152818934Y-79026066D01*
X152809048Y-79015159D01*
X152800280Y-79003336D01*
X152792712Y-78990710D01*
X152786418Y-78977403D01*
X152781459Y-78963543D01*
X152777882Y-78949264D01*
X152775722Y-78934703D01*
X152775000Y-78920000D01*
X152775000Y-78620000D01*
X152775722Y-78605297D01*
X152777882Y-78590736D01*
X152781459Y-78576457D01*
X152786418Y-78562597D01*
X152792712Y-78549290D01*
X152800280Y-78536664D01*
X152809048Y-78524841D01*
X152818934Y-78513934D01*
X152829841Y-78504048D01*
X152841664Y-78495280D01*
X152854290Y-78487712D01*
X152867597Y-78481418D01*
X152881457Y-78476459D01*
X152895736Y-78472882D01*
X152910297Y-78470722D01*
X152925000Y-78470000D01*
X154675000Y-78470000D01*
X154689703Y-78470722D01*
G37*
G04 #@! TD.AperFunction*
G04 #@! TA.AperFunction,SMDPad,CuDef*
G36*
X154689703Y-77200722D02*
G01*
X154704264Y-77202882D01*
X154718543Y-77206459D01*
X154732403Y-77211418D01*
X154745710Y-77217712D01*
X154758336Y-77225280D01*
X154770159Y-77234048D01*
X154781066Y-77243934D01*
X154790952Y-77254841D01*
X154799720Y-77266664D01*
X154807288Y-77279290D01*
X154813582Y-77292597D01*
X154818541Y-77306457D01*
X154822118Y-77320736D01*
X154824278Y-77335297D01*
X154825000Y-77350000D01*
X154825000Y-77650000D01*
X154824278Y-77664703D01*
X154822118Y-77679264D01*
X154818541Y-77693543D01*
X154813582Y-77707403D01*
X154807288Y-77720710D01*
X154799720Y-77733336D01*
X154790952Y-77745159D01*
X154781066Y-77756066D01*
X154770159Y-77765952D01*
X154758336Y-77774720D01*
X154745710Y-77782288D01*
X154732403Y-77788582D01*
X154718543Y-77793541D01*
X154704264Y-77797118D01*
X154689703Y-77799278D01*
X154675000Y-77800000D01*
X152925000Y-77800000D01*
X152910297Y-77799278D01*
X152895736Y-77797118D01*
X152881457Y-77793541D01*
X152867597Y-77788582D01*
X152854290Y-77782288D01*
X152841664Y-77774720D01*
X152829841Y-77765952D01*
X152818934Y-77756066D01*
X152809048Y-77745159D01*
X152800280Y-77733336D01*
X152792712Y-77720710D01*
X152786418Y-77707403D01*
X152781459Y-77693543D01*
X152777882Y-77679264D01*
X152775722Y-77664703D01*
X152775000Y-77650000D01*
X152775000Y-77350000D01*
X152775722Y-77335297D01*
X152777882Y-77320736D01*
X152781459Y-77306457D01*
X152786418Y-77292597D01*
X152792712Y-77279290D01*
X152800280Y-77266664D01*
X152809048Y-77254841D01*
X152818934Y-77243934D01*
X152829841Y-77234048D01*
X152841664Y-77225280D01*
X152854290Y-77217712D01*
X152867597Y-77211418D01*
X152881457Y-77206459D01*
X152895736Y-77202882D01*
X152910297Y-77200722D01*
X152925000Y-77200000D01*
X154675000Y-77200000D01*
X154689703Y-77200722D01*
G37*
G04 #@! TD.AperFunction*
D11*
X166900000Y-100360000D03*
X166900000Y-97820000D03*
X166900000Y-95280000D03*
X166900000Y-92740000D03*
X166900000Y-90200000D03*
X166900000Y-87660000D03*
X166900000Y-85120000D03*
X166900000Y-82580000D03*
X166900000Y-80040000D03*
D12*
X166900000Y-77500000D03*
D11*
X150000000Y-100360000D03*
X150000000Y-97820000D03*
X150000000Y-95280000D03*
X150000000Y-92740000D03*
X150000000Y-90200000D03*
X150000000Y-87660000D03*
X150000000Y-85120000D03*
X150000000Y-82580000D03*
X150000000Y-80040000D03*
D12*
X150000000Y-77500000D03*
D13*
X150500000Y-72500000D03*
X167000000Y-72500000D03*
X163500000Y-100500000D03*
X153500000Y-100500000D03*
D14*
X153800000Y-91200000D03*
X152150000Y-76650000D03*
D15*
X163825000Y-88925000D03*
D14*
X163824982Y-97800000D03*
X155610000Y-80040000D03*
X155610000Y-95280000D03*
X157450000Y-92750000D03*
X157450000Y-81300000D03*
X156750000Y-85100000D03*
X156750000Y-90200000D03*
X159250000Y-79400000D03*
X159250000Y-96700000D03*
X160000000Y-83225000D03*
X160000000Y-95275000D03*
X160650000Y-84475000D03*
X160650000Y-92750000D03*
X161300000Y-83850000D03*
D16*
X163100000Y-77500000D02*
X161600000Y-77500000D01*
X161100000Y-77000000D02*
X161100000Y-75100000D01*
X161600000Y-77500000D02*
X161100000Y-77000000D01*
X163100000Y-77500000D02*
X163100000Y-75100000D01*
X164900000Y-77500000D02*
X165100000Y-77300000D01*
X164800000Y-77500000D02*
X165100000Y-77500000D01*
X163100000Y-77500000D02*
X164800000Y-77500000D01*
X165100000Y-77500000D02*
X165100000Y-77300000D01*
X165100000Y-77300000D02*
X165100000Y-75100000D01*
X164800000Y-77500000D02*
X164900000Y-77500000D01*
X165300000Y-77500000D02*
X165100000Y-77300000D01*
X165400000Y-77500000D02*
X165300000Y-77500000D01*
X165100000Y-77500000D02*
X165400000Y-77500000D01*
X165400000Y-77500000D02*
X166900000Y-77500000D01*
D17*
X153800000Y-77200000D02*
X153800000Y-77500000D01*
X153800000Y-76600000D02*
X153800000Y-77200000D01*
X153250000Y-76050000D02*
X153800000Y-76600000D01*
X152150000Y-76650000D02*
X152750000Y-76050000D01*
X152750000Y-76050000D02*
X153250000Y-76050000D01*
D16*
X163804982Y-97820000D02*
X163824982Y-97800000D01*
D17*
X150000000Y-97820000D02*
X163804982Y-97820000D01*
X163100000Y-80040000D02*
X155610000Y-80040000D01*
X155150381Y-95280000D02*
X150000000Y-95280000D01*
X155610000Y-95280000D02*
X155150381Y-95280000D01*
X150000000Y-92740000D02*
X157440000Y-92740000D01*
X157440000Y-92740000D02*
X157450000Y-92750000D01*
X163090000Y-81300000D02*
X163100000Y-81310000D01*
X157450000Y-81300000D02*
X163090000Y-81300000D01*
X163100000Y-85120000D02*
X156770000Y-85120000D01*
X156770000Y-85120000D02*
X156750000Y-85100000D01*
X156750000Y-90200000D02*
X150000000Y-90200000D01*
X151840000Y-87660000D02*
X150000000Y-87660000D01*
X152500000Y-87000000D02*
X151840000Y-87660000D01*
X161000000Y-87000000D02*
X152500000Y-87000000D01*
X163100000Y-86390000D02*
X161610000Y-86390000D01*
X161610000Y-86390000D02*
X161000000Y-87000000D01*
X152010000Y-85120000D02*
X150000000Y-85120000D01*
X152480000Y-85590000D02*
X152010000Y-85120000D01*
X153800000Y-86390000D02*
X152620000Y-86390000D01*
X152480000Y-86250000D02*
X152480000Y-85590000D01*
X152620000Y-86390000D02*
X152480000Y-86250000D01*
X152005000Y-82580000D02*
X150000000Y-82580000D01*
X152475000Y-83050000D02*
X152005000Y-82580000D01*
X152475000Y-84985000D02*
X152475000Y-83050000D01*
X153800000Y-85120000D02*
X152610000Y-85120000D01*
X152610000Y-85120000D02*
X152475000Y-84985000D01*
X152475000Y-80525000D02*
X151990000Y-80040000D01*
X151990000Y-80040000D02*
X150000000Y-80040000D01*
X152475000Y-81175000D02*
X152475000Y-80525000D01*
X153800000Y-81310000D02*
X152610000Y-81310000D01*
X152610000Y-81310000D02*
X152475000Y-81175000D01*
X152775000Y-80040000D02*
X152475000Y-79740000D01*
X153800000Y-80040000D02*
X152775000Y-80040000D01*
X152475000Y-79740000D02*
X152475000Y-77975000D01*
X152000000Y-77500000D02*
X150000000Y-77500000D01*
X152475000Y-77975000D02*
X152000000Y-77500000D01*
X163100000Y-78770000D02*
X161830000Y-78770000D01*
X161830000Y-78770000D02*
X161200000Y-79400000D01*
X161200000Y-79400000D02*
X159250000Y-79400000D01*
X159250000Y-96700000D02*
X163800000Y-96700000D01*
X164920000Y-97820000D02*
X166900000Y-97820000D01*
X163800000Y-96700000D02*
X164920000Y-97820000D01*
X162075000Y-82580000D02*
X162070000Y-82575000D01*
X163100000Y-82580000D02*
X162075000Y-82580000D01*
X162070000Y-82575000D02*
X161825000Y-82575000D01*
X161825000Y-82575000D02*
X161175000Y-83225000D01*
X161175000Y-83225000D02*
X160000000Y-83225000D01*
X166895000Y-95275000D02*
X166900000Y-95280000D01*
X160000000Y-95275000D02*
X166895000Y-95275000D01*
X166890000Y-92750000D02*
X166900000Y-92740000D01*
X160650000Y-92750000D02*
X166890000Y-92750000D01*
X162925000Y-84475000D02*
X160650000Y-84475000D01*
X163100000Y-83850000D02*
X163100000Y-84300000D01*
X163100000Y-84300000D02*
X162925000Y-84475000D01*
X164360000Y-87660000D02*
X166900000Y-90200000D01*
X163100000Y-87660000D02*
X164360000Y-87660000D01*
X154825000Y-87660000D02*
X154835000Y-87650000D01*
X153800000Y-87660000D02*
X154825000Y-87660000D01*
X154835000Y-87650000D02*
X161150000Y-87650000D01*
X161150000Y-87650000D02*
X161800000Y-87000000D01*
X161800000Y-87000000D02*
X164300000Y-87000000D01*
X164960000Y-87660000D02*
X166900000Y-87660000D01*
X164300000Y-87000000D02*
X164960000Y-87660000D01*
X153800000Y-83850000D02*
X161300000Y-83850000D01*
X161020000Y-82580000D02*
X161650000Y-81950000D01*
X153800000Y-82580000D02*
X161020000Y-82580000D01*
X161650000Y-81950000D02*
X164850000Y-81950000D01*
X165480000Y-82580000D02*
X166900000Y-82580000D01*
X164850000Y-81950000D02*
X165480000Y-82580000D01*
X153800000Y-78770000D02*
X161130000Y-78770000D01*
X161130000Y-78770000D02*
X161700000Y-78200000D01*
X165060000Y-78200000D02*
X166900000Y-80040000D01*
X161700000Y-78200000D02*
X165060000Y-78200000D01*
D10*
G36*
X164645635Y-98068682D02*
G01*
X164657212Y-98082788D01*
X164671317Y-98094364D01*
X164671320Y-98094367D01*
X164684408Y-98105108D01*
X164713528Y-98129007D01*
X164777780Y-98163350D01*
X164821971Y-98176755D01*
X164847496Y-98184498D01*
X164854476Y-98185185D01*
X164901836Y-98189850D01*
X164901843Y-98189850D01*
X164919999Y-98191638D01*
X164938155Y-98189850D01*
X165808446Y-98189850D01*
X165880884Y-98364729D01*
X166006737Y-98553082D01*
X166166918Y-98713263D01*
X166355271Y-98839116D01*
X166564557Y-98925806D01*
X166696243Y-98952000D01*
X166695998Y-98952000D01*
X166695998Y-99106348D01*
X166480575Y-99015914D01*
X166226416Y-99123566D01*
X165998142Y-99278733D01*
X165804526Y-99475453D01*
X165653009Y-99706166D01*
X165555922Y-99940576D01*
X165648011Y-100156000D01*
X166696000Y-100156000D01*
X166696000Y-100136000D01*
X167104000Y-100136000D01*
X167104000Y-100156000D01*
X167124000Y-100156000D01*
X167124000Y-100564000D01*
X167104000Y-100564000D01*
X167104000Y-100584000D01*
X166696000Y-100584000D01*
X166696000Y-100564000D01*
X165648011Y-100564000D01*
X165555922Y-100779424D01*
X165653009Y-101013834D01*
X165804526Y-101244547D01*
X165982132Y-101425000D01*
X150433956Y-101425000D01*
X150544729Y-101379116D01*
X150733082Y-101253263D01*
X150893263Y-101093082D01*
X151019116Y-100904729D01*
X151105806Y-100695443D01*
X151150000Y-100473265D01*
X151150000Y-100246735D01*
X151105806Y-100024557D01*
X151019116Y-99815271D01*
X150893263Y-99626918D01*
X150733082Y-99466737D01*
X150544729Y-99340884D01*
X150335443Y-99254194D01*
X150113265Y-99210000D01*
X149886735Y-99210000D01*
X149664557Y-99254194D01*
X149455271Y-99340884D01*
X149266918Y-99466737D01*
X149106737Y-99626918D01*
X148980884Y-99815271D01*
X148925000Y-99950186D01*
X148925000Y-98229814D01*
X148980884Y-98364729D01*
X149106737Y-98553082D01*
X149266918Y-98713263D01*
X149455271Y-98839116D01*
X149664557Y-98925806D01*
X149886735Y-98970000D01*
X150113265Y-98970000D01*
X150335443Y-98925806D01*
X150544729Y-98839116D01*
X150733082Y-98713263D01*
X150893263Y-98553082D01*
X151019116Y-98364729D01*
X151091554Y-98189850D01*
X163333791Y-98189850D01*
X163339513Y-98198414D01*
X163426568Y-98285469D01*
X163528934Y-98353868D01*
X163642676Y-98400981D01*
X163763425Y-98425000D01*
X163886539Y-98425000D01*
X164007288Y-98400981D01*
X164121030Y-98353868D01*
X164223396Y-98285469D01*
X164310451Y-98198414D01*
X164378850Y-98096048D01*
X164425963Y-97982306D01*
X164448079Y-97871125D01*
X164645635Y-98068682D01*
G37*
X164645635Y-98068682D02*
X164657212Y-98082788D01*
X164671317Y-98094364D01*
X164671320Y-98094367D01*
X164684408Y-98105108D01*
X164713528Y-98129007D01*
X164777780Y-98163350D01*
X164821971Y-98176755D01*
X164847496Y-98184498D01*
X164854476Y-98185185D01*
X164901836Y-98189850D01*
X164901843Y-98189850D01*
X164919999Y-98191638D01*
X164938155Y-98189850D01*
X165808446Y-98189850D01*
X165880884Y-98364729D01*
X166006737Y-98553082D01*
X166166918Y-98713263D01*
X166355271Y-98839116D01*
X166564557Y-98925806D01*
X166696243Y-98952000D01*
X166695998Y-98952000D01*
X166695998Y-99106348D01*
X166480575Y-99015914D01*
X166226416Y-99123566D01*
X165998142Y-99278733D01*
X165804526Y-99475453D01*
X165653009Y-99706166D01*
X165555922Y-99940576D01*
X165648011Y-100156000D01*
X166696000Y-100156000D01*
X166696000Y-100136000D01*
X167104000Y-100136000D01*
X167104000Y-100156000D01*
X167124000Y-100156000D01*
X167124000Y-100564000D01*
X167104000Y-100564000D01*
X167104000Y-100584000D01*
X166696000Y-100584000D01*
X166696000Y-100564000D01*
X165648011Y-100564000D01*
X165555922Y-100779424D01*
X165653009Y-101013834D01*
X165804526Y-101244547D01*
X165982132Y-101425000D01*
X150433956Y-101425000D01*
X150544729Y-101379116D01*
X150733082Y-101253263D01*
X150893263Y-101093082D01*
X151019116Y-100904729D01*
X151105806Y-100695443D01*
X151150000Y-100473265D01*
X151150000Y-100246735D01*
X151105806Y-100024557D01*
X151019116Y-99815271D01*
X150893263Y-99626918D01*
X150733082Y-99466737D01*
X150544729Y-99340884D01*
X150335443Y-99254194D01*
X150113265Y-99210000D01*
X149886735Y-99210000D01*
X149664557Y-99254194D01*
X149455271Y-99340884D01*
X149266918Y-99466737D01*
X149106737Y-99626918D01*
X148980884Y-99815271D01*
X148925000Y-99950186D01*
X148925000Y-98229814D01*
X148980884Y-98364729D01*
X149106737Y-98553082D01*
X149266918Y-98713263D01*
X149455271Y-98839116D01*
X149664557Y-98925806D01*
X149886735Y-98970000D01*
X150113265Y-98970000D01*
X150335443Y-98925806D01*
X150544729Y-98839116D01*
X150733082Y-98713263D01*
X150893263Y-98553082D01*
X151019116Y-98364729D01*
X151091554Y-98189850D01*
X163333791Y-98189850D01*
X163339513Y-98198414D01*
X163426568Y-98285469D01*
X163528934Y-98353868D01*
X163642676Y-98400981D01*
X163763425Y-98425000D01*
X163886539Y-98425000D01*
X164007288Y-98400981D01*
X164121030Y-98353868D01*
X164223396Y-98285469D01*
X164310451Y-98198414D01*
X164378850Y-98096048D01*
X164425963Y-97982306D01*
X164448079Y-97871125D01*
X164645635Y-98068682D01*
G36*
X161773549Y-87810000D02*
G01*
X161782224Y-87898074D01*
X161807914Y-87982763D01*
X161849632Y-88060813D01*
X161905776Y-88129224D01*
X161974187Y-88185368D01*
X162052237Y-88227086D01*
X162136926Y-88252776D01*
X162225000Y-88261451D01*
X163975000Y-88261451D01*
X164063074Y-88252776D01*
X164147763Y-88227086D01*
X164225813Y-88185368D01*
X164294224Y-88129224D01*
X164299612Y-88122658D01*
X165866632Y-89689678D01*
X165794194Y-89864557D01*
X165750000Y-90086735D01*
X165750000Y-90313265D01*
X165794194Y-90535443D01*
X165880884Y-90744729D01*
X166006737Y-90933082D01*
X166166918Y-91093263D01*
X166355271Y-91219116D01*
X166564557Y-91305806D01*
X166786735Y-91350000D01*
X167013265Y-91350000D01*
X167235443Y-91305806D01*
X167444729Y-91219116D01*
X167633082Y-91093263D01*
X167793263Y-90933082D01*
X167919116Y-90744729D01*
X167957015Y-90653233D01*
X167959673Y-92293183D01*
X167919116Y-92195271D01*
X167793263Y-92006918D01*
X167633082Y-91846737D01*
X167444729Y-91720884D01*
X167235443Y-91634194D01*
X167013265Y-91590000D01*
X166786735Y-91590000D01*
X166564557Y-91634194D01*
X166355271Y-91720884D01*
X166166918Y-91846737D01*
X166006737Y-92006918D01*
X165880884Y-92195271D01*
X165804304Y-92380150D01*
X161154555Y-92380150D01*
X161135469Y-92351586D01*
X161048414Y-92264531D01*
X160946048Y-92196132D01*
X160832306Y-92149019D01*
X160711557Y-92125000D01*
X160588443Y-92125000D01*
X160467694Y-92149019D01*
X160353952Y-92196132D01*
X160251586Y-92264531D01*
X160164531Y-92351586D01*
X160096132Y-92453952D01*
X160049019Y-92567694D01*
X160025000Y-92688443D01*
X160025000Y-92811557D01*
X160049019Y-92932306D01*
X160096132Y-93046048D01*
X160164531Y-93148414D01*
X160251586Y-93235469D01*
X160353952Y-93303868D01*
X160467694Y-93350981D01*
X160588443Y-93375000D01*
X160711557Y-93375000D01*
X160832306Y-93350981D01*
X160946048Y-93303868D01*
X161048414Y-93235469D01*
X161135469Y-93148414D01*
X161154555Y-93119850D01*
X165812588Y-93119850D01*
X165880884Y-93284729D01*
X166006737Y-93473082D01*
X166166918Y-93633263D01*
X166355271Y-93759116D01*
X166564557Y-93845806D01*
X166786735Y-93890000D01*
X167013265Y-93890000D01*
X167235443Y-93845806D01*
X167444729Y-93759116D01*
X167633082Y-93633263D01*
X167793263Y-93473082D01*
X167919116Y-93284729D01*
X167961116Y-93183334D01*
X167963806Y-94843161D01*
X167919116Y-94735271D01*
X167793263Y-94546918D01*
X167633082Y-94386737D01*
X167444729Y-94260884D01*
X167235443Y-94174194D01*
X167013265Y-94130000D01*
X166786735Y-94130000D01*
X166564557Y-94174194D01*
X166355271Y-94260884D01*
X166166918Y-94386737D01*
X166006737Y-94546918D01*
X165880884Y-94735271D01*
X165810517Y-94905150D01*
X160504555Y-94905150D01*
X160485469Y-94876586D01*
X160398414Y-94789531D01*
X160296048Y-94721132D01*
X160182306Y-94674019D01*
X160061557Y-94650000D01*
X159938443Y-94650000D01*
X159817694Y-94674019D01*
X159703952Y-94721132D01*
X159601586Y-94789531D01*
X159514531Y-94876586D01*
X159446132Y-94978952D01*
X159399019Y-95092694D01*
X159375000Y-95213443D01*
X159375000Y-95336557D01*
X159399019Y-95457306D01*
X159446132Y-95571048D01*
X159514531Y-95673414D01*
X159601586Y-95760469D01*
X159703952Y-95828868D01*
X159817694Y-95875981D01*
X159938443Y-95900000D01*
X160061557Y-95900000D01*
X160182306Y-95875981D01*
X160296048Y-95828868D01*
X160398414Y-95760469D01*
X160485469Y-95673414D01*
X160504555Y-95644850D01*
X165806375Y-95644850D01*
X165880884Y-95824729D01*
X166006737Y-96013082D01*
X166166918Y-96173263D01*
X166355271Y-96299116D01*
X166564557Y-96385806D01*
X166786735Y-96430000D01*
X167013265Y-96430000D01*
X167235443Y-96385806D01*
X167444729Y-96299116D01*
X167633082Y-96173263D01*
X167793263Y-96013082D01*
X167919116Y-95824729D01*
X167965216Y-95713434D01*
X167967939Y-97393139D01*
X167919116Y-97275271D01*
X167793263Y-97086918D01*
X167633082Y-96926737D01*
X167444729Y-96800884D01*
X167235443Y-96714194D01*
X167013265Y-96670000D01*
X166786735Y-96670000D01*
X166564557Y-96714194D01*
X166355271Y-96800884D01*
X166166918Y-96926737D01*
X166006737Y-97086918D01*
X165880884Y-97275271D01*
X165808446Y-97450150D01*
X165073197Y-97450150D01*
X164074369Y-96451323D01*
X164062788Y-96437212D01*
X164006472Y-96390993D01*
X163942220Y-96356650D01*
X163872503Y-96335502D01*
X163818164Y-96330150D01*
X163818156Y-96330150D01*
X163800000Y-96328362D01*
X163781844Y-96330150D01*
X159754555Y-96330150D01*
X159735469Y-96301586D01*
X159648414Y-96214531D01*
X159546048Y-96146132D01*
X159432306Y-96099019D01*
X159311557Y-96075000D01*
X159188443Y-96075000D01*
X159067694Y-96099019D01*
X158953952Y-96146132D01*
X158851586Y-96214531D01*
X158764531Y-96301586D01*
X158696132Y-96403952D01*
X158649019Y-96517694D01*
X158625000Y-96638443D01*
X158625000Y-96761557D01*
X158649019Y-96882306D01*
X158696132Y-96996048D01*
X158764531Y-97098414D01*
X158851586Y-97185469D01*
X158953952Y-97253868D01*
X159067694Y-97300981D01*
X159188443Y-97325000D01*
X159311557Y-97325000D01*
X159432306Y-97300981D01*
X159546048Y-97253868D01*
X159648414Y-97185469D01*
X159735469Y-97098414D01*
X159754555Y-97069850D01*
X163646804Y-97069850D01*
X163753857Y-97176903D01*
X163642676Y-97199019D01*
X163528934Y-97246132D01*
X163426568Y-97314531D01*
X163339513Y-97401586D01*
X163307063Y-97450150D01*
X151091554Y-97450150D01*
X151019116Y-97275271D01*
X150893263Y-97086918D01*
X150733082Y-96926737D01*
X150544729Y-96800884D01*
X150335443Y-96714194D01*
X150113265Y-96670000D01*
X149886735Y-96670000D01*
X149664557Y-96714194D01*
X149455271Y-96800884D01*
X149266918Y-96926737D01*
X149106737Y-97086918D01*
X148980884Y-97275271D01*
X148925000Y-97410186D01*
X148925000Y-95689814D01*
X148980884Y-95824729D01*
X149106737Y-96013082D01*
X149266918Y-96173263D01*
X149455271Y-96299116D01*
X149664557Y-96385806D01*
X149886735Y-96430000D01*
X150113265Y-96430000D01*
X150335443Y-96385806D01*
X150544729Y-96299116D01*
X150733082Y-96173263D01*
X150893263Y-96013082D01*
X151019116Y-95824729D01*
X151091554Y-95649850D01*
X155105445Y-95649850D01*
X155124531Y-95678414D01*
X155211586Y-95765469D01*
X155313952Y-95833868D01*
X155427694Y-95880981D01*
X155548443Y-95905000D01*
X155671557Y-95905000D01*
X155792306Y-95880981D01*
X155906048Y-95833868D01*
X156008414Y-95765469D01*
X156095469Y-95678414D01*
X156163868Y-95576048D01*
X156210981Y-95462306D01*
X156235000Y-95341557D01*
X156235000Y-95218443D01*
X156210981Y-95097694D01*
X156163868Y-94983952D01*
X156095469Y-94881586D01*
X156008414Y-94794531D01*
X155906048Y-94726132D01*
X155792306Y-94679019D01*
X155671557Y-94655000D01*
X155548443Y-94655000D01*
X155427694Y-94679019D01*
X155313952Y-94726132D01*
X155211586Y-94794531D01*
X155124531Y-94881586D01*
X155105445Y-94910150D01*
X151091554Y-94910150D01*
X151019116Y-94735271D01*
X150893263Y-94546918D01*
X150733082Y-94386737D01*
X150544729Y-94260884D01*
X150335443Y-94174194D01*
X150113265Y-94130000D01*
X149886735Y-94130000D01*
X149664557Y-94174194D01*
X149455271Y-94260884D01*
X149266918Y-94386737D01*
X149106737Y-94546918D01*
X148980884Y-94735271D01*
X148925000Y-94870186D01*
X148925000Y-93149814D01*
X148980884Y-93284729D01*
X149106737Y-93473082D01*
X149266918Y-93633263D01*
X149455271Y-93759116D01*
X149664557Y-93845806D01*
X149886735Y-93890000D01*
X150113265Y-93890000D01*
X150335443Y-93845806D01*
X150544729Y-93759116D01*
X150733082Y-93633263D01*
X150893263Y-93473082D01*
X151019116Y-93284729D01*
X151091554Y-93109850D01*
X156938763Y-93109850D01*
X156964531Y-93148414D01*
X157051586Y-93235469D01*
X157153952Y-93303868D01*
X157267694Y-93350981D01*
X157388443Y-93375000D01*
X157511557Y-93375000D01*
X157632306Y-93350981D01*
X157746048Y-93303868D01*
X157848414Y-93235469D01*
X157935469Y-93148414D01*
X158003868Y-93046048D01*
X158050981Y-92932306D01*
X158075000Y-92811557D01*
X158075000Y-92688443D01*
X158050981Y-92567694D01*
X158003868Y-92453952D01*
X157935469Y-92351586D01*
X157848414Y-92264531D01*
X157746048Y-92196132D01*
X157632306Y-92149019D01*
X157511557Y-92125000D01*
X157388443Y-92125000D01*
X157267694Y-92149019D01*
X157153952Y-92196132D01*
X157051586Y-92264531D01*
X156964531Y-92351586D01*
X156952127Y-92370150D01*
X151091554Y-92370150D01*
X151019116Y-92195271D01*
X150893263Y-92006918D01*
X150733082Y-91846737D01*
X150544729Y-91720884D01*
X150335443Y-91634194D01*
X150113265Y-91590000D01*
X149886735Y-91590000D01*
X149664557Y-91634194D01*
X149455271Y-91720884D01*
X149266918Y-91846737D01*
X149106737Y-92006918D01*
X148980884Y-92195271D01*
X148925000Y-92330186D01*
X148925000Y-90609814D01*
X148980884Y-90744729D01*
X149106737Y-90933082D01*
X149266918Y-91093263D01*
X149455271Y-91219116D01*
X149664557Y-91305806D01*
X149886735Y-91350000D01*
X150113265Y-91350000D01*
X150335443Y-91305806D01*
X150544729Y-91219116D01*
X150733082Y-91093263D01*
X150893263Y-90933082D01*
X151019116Y-90744729D01*
X151091554Y-90569850D01*
X156245445Y-90569850D01*
X156264531Y-90598414D01*
X156351586Y-90685469D01*
X156453952Y-90753868D01*
X156567694Y-90800981D01*
X156688443Y-90825000D01*
X156811557Y-90825000D01*
X156932306Y-90800981D01*
X157046048Y-90753868D01*
X157148414Y-90685469D01*
X157235469Y-90598414D01*
X157303868Y-90496048D01*
X157350981Y-90382306D01*
X157375000Y-90261557D01*
X157375000Y-90138443D01*
X157350981Y-90017694D01*
X157303868Y-89903952D01*
X157235469Y-89801586D01*
X157148414Y-89714531D01*
X157046048Y-89646132D01*
X156932306Y-89599019D01*
X156811557Y-89575000D01*
X156688443Y-89575000D01*
X156567694Y-89599019D01*
X156453952Y-89646132D01*
X156351586Y-89714531D01*
X156264531Y-89801586D01*
X156245445Y-89830150D01*
X151091554Y-89830150D01*
X151019116Y-89655271D01*
X150893263Y-89466918D01*
X150733082Y-89306737D01*
X150544729Y-89180884D01*
X150335443Y-89094194D01*
X150113265Y-89050000D01*
X149886735Y-89050000D01*
X149664557Y-89094194D01*
X149455271Y-89180884D01*
X149266918Y-89306737D01*
X149106737Y-89466918D01*
X148980884Y-89655271D01*
X148925000Y-89790186D01*
X148925000Y-88069814D01*
X148980884Y-88204729D01*
X149106737Y-88393082D01*
X149266918Y-88553263D01*
X149455271Y-88679116D01*
X149664557Y-88765806D01*
X149886735Y-88810000D01*
X150113265Y-88810000D01*
X150264085Y-88780000D01*
X161773549Y-88780000D01*
X161773549Y-89080000D01*
X161782224Y-89168074D01*
X161807914Y-89252763D01*
X161849632Y-89330813D01*
X161905776Y-89399224D01*
X161974187Y-89455368D01*
X162052237Y-89497086D01*
X162136926Y-89522776D01*
X162225000Y-89531451D01*
X163975000Y-89531451D01*
X164063074Y-89522776D01*
X164147763Y-89497086D01*
X164225813Y-89455368D01*
X164294224Y-89399224D01*
X164350368Y-89330813D01*
X164392086Y-89252763D01*
X164417776Y-89168074D01*
X164426451Y-89080000D01*
X164426451Y-88780000D01*
X164417776Y-88691926D01*
X164392086Y-88607237D01*
X164350368Y-88529187D01*
X164294224Y-88460776D01*
X164225813Y-88404632D01*
X164147763Y-88362914D01*
X164063074Y-88337224D01*
X163975000Y-88328549D01*
X163901937Y-88328549D01*
X163884095Y-88325000D01*
X163765905Y-88325000D01*
X163748063Y-88328549D01*
X162225000Y-88328549D01*
X162136926Y-88337224D01*
X162052237Y-88362914D01*
X161974187Y-88404632D01*
X161905776Y-88460776D01*
X161849632Y-88529187D01*
X161807914Y-88607237D01*
X161782224Y-88691926D01*
X161773549Y-88780000D01*
X150264085Y-88780000D01*
X150335443Y-88765806D01*
X150544729Y-88679116D01*
X150733082Y-88553263D01*
X150893263Y-88393082D01*
X151019116Y-88204729D01*
X151091554Y-88029850D01*
X151821844Y-88029850D01*
X151840000Y-88031638D01*
X151858156Y-88029850D01*
X151858164Y-88029850D01*
X151912503Y-88024498D01*
X151982220Y-88003350D01*
X152046472Y-87969007D01*
X152102788Y-87922788D01*
X152114369Y-87908677D01*
X152473549Y-87549498D01*
X152473549Y-87810000D01*
X152482224Y-87898074D01*
X152507914Y-87982763D01*
X152549632Y-88060813D01*
X152605776Y-88129224D01*
X152674187Y-88185368D01*
X152752237Y-88227086D01*
X152836926Y-88252776D01*
X152925000Y-88261451D01*
X154675000Y-88261451D01*
X154763074Y-88252776D01*
X154847763Y-88227086D01*
X154925813Y-88185368D01*
X154994224Y-88129224D01*
X155050368Y-88060813D01*
X155072263Y-88019850D01*
X161131844Y-88019850D01*
X161150000Y-88021638D01*
X161168156Y-88019850D01*
X161168164Y-88019850D01*
X161222503Y-88014498D01*
X161292220Y-87993350D01*
X161356472Y-87959007D01*
X161412788Y-87912788D01*
X161424369Y-87898677D01*
X161773549Y-87549498D01*
X161773549Y-87810000D01*
G37*
X161773549Y-87810000D02*
X161782224Y-87898074D01*
X161807914Y-87982763D01*
X161849632Y-88060813D01*
X161905776Y-88129224D01*
X161974187Y-88185368D01*
X162052237Y-88227086D01*
X162136926Y-88252776D01*
X162225000Y-88261451D01*
X163975000Y-88261451D01*
X164063074Y-88252776D01*
X164147763Y-88227086D01*
X164225813Y-88185368D01*
X164294224Y-88129224D01*
X164299612Y-88122658D01*
X165866632Y-89689678D01*
X165794194Y-89864557D01*
X165750000Y-90086735D01*
X165750000Y-90313265D01*
X165794194Y-90535443D01*
X165880884Y-90744729D01*
X166006737Y-90933082D01*
X166166918Y-91093263D01*
X166355271Y-91219116D01*
X166564557Y-91305806D01*
X166786735Y-91350000D01*
X167013265Y-91350000D01*
X167235443Y-91305806D01*
X167444729Y-91219116D01*
X167633082Y-91093263D01*
X167793263Y-90933082D01*
X167919116Y-90744729D01*
X167957015Y-90653233D01*
X167959673Y-92293183D01*
X167919116Y-92195271D01*
X167793263Y-92006918D01*
X167633082Y-91846737D01*
X167444729Y-91720884D01*
X167235443Y-91634194D01*
X167013265Y-91590000D01*
X166786735Y-91590000D01*
X166564557Y-91634194D01*
X166355271Y-91720884D01*
X166166918Y-91846737D01*
X166006737Y-92006918D01*
X165880884Y-92195271D01*
X165804304Y-92380150D01*
X161154555Y-92380150D01*
X161135469Y-92351586D01*
X161048414Y-92264531D01*
X160946048Y-92196132D01*
X160832306Y-92149019D01*
X160711557Y-92125000D01*
X160588443Y-92125000D01*
X160467694Y-92149019D01*
X160353952Y-92196132D01*
X160251586Y-92264531D01*
X160164531Y-92351586D01*
X160096132Y-92453952D01*
X160049019Y-92567694D01*
X160025000Y-92688443D01*
X160025000Y-92811557D01*
X160049019Y-92932306D01*
X160096132Y-93046048D01*
X160164531Y-93148414D01*
X160251586Y-93235469D01*
X160353952Y-93303868D01*
X160467694Y-93350981D01*
X160588443Y-93375000D01*
X160711557Y-93375000D01*
X160832306Y-93350981D01*
X160946048Y-93303868D01*
X161048414Y-93235469D01*
X161135469Y-93148414D01*
X161154555Y-93119850D01*
X165812588Y-93119850D01*
X165880884Y-93284729D01*
X166006737Y-93473082D01*
X166166918Y-93633263D01*
X166355271Y-93759116D01*
X166564557Y-93845806D01*
X166786735Y-93890000D01*
X167013265Y-93890000D01*
X167235443Y-93845806D01*
X167444729Y-93759116D01*
X167633082Y-93633263D01*
X167793263Y-93473082D01*
X167919116Y-93284729D01*
X167961116Y-93183334D01*
X167963806Y-94843161D01*
X167919116Y-94735271D01*
X167793263Y-94546918D01*
X167633082Y-94386737D01*
X167444729Y-94260884D01*
X167235443Y-94174194D01*
X167013265Y-94130000D01*
X166786735Y-94130000D01*
X166564557Y-94174194D01*
X166355271Y-94260884D01*
X166166918Y-94386737D01*
X166006737Y-94546918D01*
X165880884Y-94735271D01*
X165810517Y-94905150D01*
X160504555Y-94905150D01*
X160485469Y-94876586D01*
X160398414Y-94789531D01*
X160296048Y-94721132D01*
X160182306Y-94674019D01*
X160061557Y-94650000D01*
X159938443Y-94650000D01*
X159817694Y-94674019D01*
X159703952Y-94721132D01*
X159601586Y-94789531D01*
X159514531Y-94876586D01*
X159446132Y-94978952D01*
X159399019Y-95092694D01*
X159375000Y-95213443D01*
X159375000Y-95336557D01*
X159399019Y-95457306D01*
X159446132Y-95571048D01*
X159514531Y-95673414D01*
X159601586Y-95760469D01*
X159703952Y-95828868D01*
X159817694Y-95875981D01*
X159938443Y-95900000D01*
X160061557Y-95900000D01*
X160182306Y-95875981D01*
X160296048Y-95828868D01*
X160398414Y-95760469D01*
X160485469Y-95673414D01*
X160504555Y-95644850D01*
X165806375Y-95644850D01*
X165880884Y-95824729D01*
X166006737Y-96013082D01*
X166166918Y-96173263D01*
X166355271Y-96299116D01*
X166564557Y-96385806D01*
X166786735Y-96430000D01*
X167013265Y-96430000D01*
X167235443Y-96385806D01*
X167444729Y-96299116D01*
X167633082Y-96173263D01*
X167793263Y-96013082D01*
X167919116Y-95824729D01*
X167965216Y-95713434D01*
X167967939Y-97393139D01*
X167919116Y-97275271D01*
X167793263Y-97086918D01*
X167633082Y-96926737D01*
X167444729Y-96800884D01*
X167235443Y-96714194D01*
X167013265Y-96670000D01*
X166786735Y-96670000D01*
X166564557Y-96714194D01*
X166355271Y-96800884D01*
X166166918Y-96926737D01*
X166006737Y-97086918D01*
X165880884Y-97275271D01*
X165808446Y-97450150D01*
X165073197Y-97450150D01*
X164074369Y-96451323D01*
X164062788Y-96437212D01*
X164006472Y-96390993D01*
X163942220Y-96356650D01*
X163872503Y-96335502D01*
X163818164Y-96330150D01*
X163818156Y-96330150D01*
X163800000Y-96328362D01*
X163781844Y-96330150D01*
X159754555Y-96330150D01*
X159735469Y-96301586D01*
X159648414Y-96214531D01*
X159546048Y-96146132D01*
X159432306Y-96099019D01*
X159311557Y-96075000D01*
X159188443Y-96075000D01*
X159067694Y-96099019D01*
X158953952Y-96146132D01*
X158851586Y-96214531D01*
X158764531Y-96301586D01*
X158696132Y-96403952D01*
X158649019Y-96517694D01*
X158625000Y-96638443D01*
X158625000Y-96761557D01*
X158649019Y-96882306D01*
X158696132Y-96996048D01*
X158764531Y-97098414D01*
X158851586Y-97185469D01*
X158953952Y-97253868D01*
X159067694Y-97300981D01*
X159188443Y-97325000D01*
X159311557Y-97325000D01*
X159432306Y-97300981D01*
X159546048Y-97253868D01*
X159648414Y-97185469D01*
X159735469Y-97098414D01*
X159754555Y-97069850D01*
X163646804Y-97069850D01*
X163753857Y-97176903D01*
X163642676Y-97199019D01*
X163528934Y-97246132D01*
X163426568Y-97314531D01*
X163339513Y-97401586D01*
X163307063Y-97450150D01*
X151091554Y-97450150D01*
X151019116Y-97275271D01*
X150893263Y-97086918D01*
X150733082Y-96926737D01*
X150544729Y-96800884D01*
X150335443Y-96714194D01*
X150113265Y-96670000D01*
X149886735Y-96670000D01*
X149664557Y-96714194D01*
X149455271Y-96800884D01*
X149266918Y-96926737D01*
X149106737Y-97086918D01*
X148980884Y-97275271D01*
X148925000Y-97410186D01*
X148925000Y-95689814D01*
X148980884Y-95824729D01*
X149106737Y-96013082D01*
X149266918Y-96173263D01*
X149455271Y-96299116D01*
X149664557Y-96385806D01*
X149886735Y-96430000D01*
X150113265Y-96430000D01*
X150335443Y-96385806D01*
X150544729Y-96299116D01*
X150733082Y-96173263D01*
X150893263Y-96013082D01*
X151019116Y-95824729D01*
X151091554Y-95649850D01*
X155105445Y-95649850D01*
X155124531Y-95678414D01*
X155211586Y-95765469D01*
X155313952Y-95833868D01*
X155427694Y-95880981D01*
X155548443Y-95905000D01*
X155671557Y-95905000D01*
X155792306Y-95880981D01*
X155906048Y-95833868D01*
X156008414Y-95765469D01*
X156095469Y-95678414D01*
X156163868Y-95576048D01*
X156210981Y-95462306D01*
X156235000Y-95341557D01*
X156235000Y-95218443D01*
X156210981Y-95097694D01*
X156163868Y-94983952D01*
X156095469Y-94881586D01*
X156008414Y-94794531D01*
X155906048Y-94726132D01*
X155792306Y-94679019D01*
X155671557Y-94655000D01*
X155548443Y-94655000D01*
X155427694Y-94679019D01*
X155313952Y-94726132D01*
X155211586Y-94794531D01*
X155124531Y-94881586D01*
X155105445Y-94910150D01*
X151091554Y-94910150D01*
X151019116Y-94735271D01*
X150893263Y-94546918D01*
X150733082Y-94386737D01*
X150544729Y-94260884D01*
X150335443Y-94174194D01*
X150113265Y-94130000D01*
X149886735Y-94130000D01*
X149664557Y-94174194D01*
X149455271Y-94260884D01*
X149266918Y-94386737D01*
X149106737Y-94546918D01*
X148980884Y-94735271D01*
X148925000Y-94870186D01*
X148925000Y-93149814D01*
X148980884Y-93284729D01*
X149106737Y-93473082D01*
X149266918Y-93633263D01*
X149455271Y-93759116D01*
X149664557Y-93845806D01*
X149886735Y-93890000D01*
X150113265Y-93890000D01*
X150335443Y-93845806D01*
X150544729Y-93759116D01*
X150733082Y-93633263D01*
X150893263Y-93473082D01*
X151019116Y-93284729D01*
X151091554Y-93109850D01*
X156938763Y-93109850D01*
X156964531Y-93148414D01*
X157051586Y-93235469D01*
X157153952Y-93303868D01*
X157267694Y-93350981D01*
X157388443Y-93375000D01*
X157511557Y-93375000D01*
X157632306Y-93350981D01*
X157746048Y-93303868D01*
X157848414Y-93235469D01*
X157935469Y-93148414D01*
X158003868Y-93046048D01*
X158050981Y-92932306D01*
X158075000Y-92811557D01*
X158075000Y-92688443D01*
X158050981Y-92567694D01*
X158003868Y-92453952D01*
X157935469Y-92351586D01*
X157848414Y-92264531D01*
X157746048Y-92196132D01*
X157632306Y-92149019D01*
X157511557Y-92125000D01*
X157388443Y-92125000D01*
X157267694Y-92149019D01*
X157153952Y-92196132D01*
X157051586Y-92264531D01*
X156964531Y-92351586D01*
X156952127Y-92370150D01*
X151091554Y-92370150D01*
X151019116Y-92195271D01*
X150893263Y-92006918D01*
X150733082Y-91846737D01*
X150544729Y-91720884D01*
X150335443Y-91634194D01*
X150113265Y-91590000D01*
X149886735Y-91590000D01*
X149664557Y-91634194D01*
X149455271Y-91720884D01*
X149266918Y-91846737D01*
X149106737Y-92006918D01*
X148980884Y-92195271D01*
X148925000Y-92330186D01*
X148925000Y-90609814D01*
X148980884Y-90744729D01*
X149106737Y-90933082D01*
X149266918Y-91093263D01*
X149455271Y-91219116D01*
X149664557Y-91305806D01*
X149886735Y-91350000D01*
X150113265Y-91350000D01*
X150335443Y-91305806D01*
X150544729Y-91219116D01*
X150733082Y-91093263D01*
X150893263Y-90933082D01*
X151019116Y-90744729D01*
X151091554Y-90569850D01*
X156245445Y-90569850D01*
X156264531Y-90598414D01*
X156351586Y-90685469D01*
X156453952Y-90753868D01*
X156567694Y-90800981D01*
X156688443Y-90825000D01*
X156811557Y-90825000D01*
X156932306Y-90800981D01*
X157046048Y-90753868D01*
X157148414Y-90685469D01*
X157235469Y-90598414D01*
X157303868Y-90496048D01*
X157350981Y-90382306D01*
X157375000Y-90261557D01*
X157375000Y-90138443D01*
X157350981Y-90017694D01*
X157303868Y-89903952D01*
X157235469Y-89801586D01*
X157148414Y-89714531D01*
X157046048Y-89646132D01*
X156932306Y-89599019D01*
X156811557Y-89575000D01*
X156688443Y-89575000D01*
X156567694Y-89599019D01*
X156453952Y-89646132D01*
X156351586Y-89714531D01*
X156264531Y-89801586D01*
X156245445Y-89830150D01*
X151091554Y-89830150D01*
X151019116Y-89655271D01*
X150893263Y-89466918D01*
X150733082Y-89306737D01*
X150544729Y-89180884D01*
X150335443Y-89094194D01*
X150113265Y-89050000D01*
X149886735Y-89050000D01*
X149664557Y-89094194D01*
X149455271Y-89180884D01*
X149266918Y-89306737D01*
X149106737Y-89466918D01*
X148980884Y-89655271D01*
X148925000Y-89790186D01*
X148925000Y-88069814D01*
X148980884Y-88204729D01*
X149106737Y-88393082D01*
X149266918Y-88553263D01*
X149455271Y-88679116D01*
X149664557Y-88765806D01*
X149886735Y-88810000D01*
X150113265Y-88810000D01*
X150264085Y-88780000D01*
X161773549Y-88780000D01*
X161773549Y-89080000D01*
X161782224Y-89168074D01*
X161807914Y-89252763D01*
X161849632Y-89330813D01*
X161905776Y-89399224D01*
X161974187Y-89455368D01*
X162052237Y-89497086D01*
X162136926Y-89522776D01*
X162225000Y-89531451D01*
X163975000Y-89531451D01*
X164063074Y-89522776D01*
X164147763Y-89497086D01*
X164225813Y-89455368D01*
X164294224Y-89399224D01*
X164350368Y-89330813D01*
X164392086Y-89252763D01*
X164417776Y-89168074D01*
X164426451Y-89080000D01*
X164426451Y-88780000D01*
X164417776Y-88691926D01*
X164392086Y-88607237D01*
X164350368Y-88529187D01*
X164294224Y-88460776D01*
X164225813Y-88404632D01*
X164147763Y-88362914D01*
X164063074Y-88337224D01*
X163975000Y-88328549D01*
X163901937Y-88328549D01*
X163884095Y-88325000D01*
X163765905Y-88325000D01*
X163748063Y-88328549D01*
X162225000Y-88328549D01*
X162136926Y-88337224D01*
X162052237Y-88362914D01*
X161974187Y-88404632D01*
X161905776Y-88460776D01*
X161849632Y-88529187D01*
X161807914Y-88607237D01*
X161782224Y-88691926D01*
X161773549Y-88780000D01*
X150264085Y-88780000D01*
X150335443Y-88765806D01*
X150544729Y-88679116D01*
X150733082Y-88553263D01*
X150893263Y-88393082D01*
X151019116Y-88204729D01*
X151091554Y-88029850D01*
X151821844Y-88029850D01*
X151840000Y-88031638D01*
X151858156Y-88029850D01*
X151858164Y-88029850D01*
X151912503Y-88024498D01*
X151982220Y-88003350D01*
X152046472Y-87969007D01*
X152102788Y-87922788D01*
X152114369Y-87908677D01*
X152473549Y-87549498D01*
X152473549Y-87810000D01*
X152482224Y-87898074D01*
X152507914Y-87982763D01*
X152549632Y-88060813D01*
X152605776Y-88129224D01*
X152674187Y-88185368D01*
X152752237Y-88227086D01*
X152836926Y-88252776D01*
X152925000Y-88261451D01*
X154675000Y-88261451D01*
X154763074Y-88252776D01*
X154847763Y-88227086D01*
X154925813Y-88185368D01*
X154994224Y-88129224D01*
X155050368Y-88060813D01*
X155072263Y-88019850D01*
X161131844Y-88019850D01*
X161150000Y-88021638D01*
X161168156Y-88019850D01*
X161168164Y-88019850D01*
X161222503Y-88014498D01*
X161292220Y-87993350D01*
X161356472Y-87959007D01*
X161412788Y-87912788D01*
X161424369Y-87898677D01*
X161773549Y-87549498D01*
X161773549Y-87810000D01*
G36*
X167933935Y-76412860D02*
G01*
X167917477Y-76399353D01*
X167865360Y-76371496D01*
X167808810Y-76354341D01*
X167750000Y-76348549D01*
X166050000Y-76348549D01*
X165991190Y-76354341D01*
X165934640Y-76371496D01*
X165882523Y-76399353D01*
X165836842Y-76436842D01*
X165799353Y-76482523D01*
X165771496Y-76534640D01*
X165754341Y-76591190D01*
X165748549Y-76650000D01*
X165748549Y-77073000D01*
X165527000Y-77073000D01*
X165527000Y-75976451D01*
X165550001Y-75976451D01*
X165657584Y-75965855D01*
X165761032Y-75934474D01*
X165856370Y-75883515D01*
X165939935Y-75814935D01*
X166008515Y-75731370D01*
X166059474Y-75636032D01*
X166090855Y-75532584D01*
X166101451Y-75425001D01*
X166101451Y-74774999D01*
X166090855Y-74667416D01*
X166059474Y-74563968D01*
X166008515Y-74468630D01*
X165939935Y-74385065D01*
X165856370Y-74316485D01*
X165761032Y-74265526D01*
X165657584Y-74234145D01*
X165550001Y-74223549D01*
X164649999Y-74223549D01*
X164542416Y-74234145D01*
X164438968Y-74265526D01*
X164343630Y-74316485D01*
X164260065Y-74385065D01*
X164191485Y-74468630D01*
X164140526Y-74563968D01*
X164109145Y-74667416D01*
X164100000Y-74760267D01*
X164090855Y-74667416D01*
X164059474Y-74563968D01*
X164008515Y-74468630D01*
X163939935Y-74385065D01*
X163856370Y-74316485D01*
X163761032Y-74265526D01*
X163657584Y-74234145D01*
X163550001Y-74223549D01*
X162649999Y-74223549D01*
X162542416Y-74234145D01*
X162438968Y-74265526D01*
X162343630Y-74316485D01*
X162260065Y-74385065D01*
X162191485Y-74468630D01*
X162140526Y-74563968D01*
X162109145Y-74667416D01*
X162100000Y-74760267D01*
X162090855Y-74667416D01*
X162059474Y-74563968D01*
X162008515Y-74468630D01*
X161939935Y-74385065D01*
X161856370Y-74316485D01*
X161761032Y-74265526D01*
X161657584Y-74234145D01*
X161550001Y-74223549D01*
X160649999Y-74223549D01*
X160542416Y-74234145D01*
X160438968Y-74265526D01*
X160343630Y-74316485D01*
X160260065Y-74385065D01*
X160191485Y-74468630D01*
X160140526Y-74563968D01*
X160109145Y-74667416D01*
X160098549Y-74774999D01*
X160098549Y-75425001D01*
X160109145Y-75532584D01*
X160140526Y-75636032D01*
X160191485Y-75731370D01*
X160260065Y-75814935D01*
X160343630Y-75883515D01*
X160438968Y-75934474D01*
X160542416Y-75965855D01*
X160649999Y-75976451D01*
X160673001Y-75976451D01*
X160673000Y-76979033D01*
X160670935Y-77000000D01*
X160673000Y-77020967D01*
X160673000Y-77020977D01*
X160679178Y-77083706D01*
X160703595Y-77164195D01*
X160722052Y-77198726D01*
X160743245Y-77238376D01*
X160783232Y-77287100D01*
X160796605Y-77303395D01*
X160812900Y-77316768D01*
X161283236Y-77787105D01*
X161296605Y-77803395D01*
X161312895Y-77816764D01*
X161312899Y-77816768D01*
X161361623Y-77856756D01*
X161418538Y-77887176D01*
X161435804Y-77896405D01*
X161473135Y-77907730D01*
X161451320Y-77925633D01*
X161451317Y-77925636D01*
X161437212Y-77937212D01*
X161425635Y-77951318D01*
X160976804Y-78400150D01*
X155066918Y-78400150D01*
X155050368Y-78369187D01*
X154994224Y-78300776D01*
X154925813Y-78244632D01*
X154847763Y-78202914D01*
X154763074Y-78177224D01*
X154675000Y-78168549D01*
X152925000Y-78168549D01*
X152844850Y-78176444D01*
X152844850Y-78093556D01*
X152925000Y-78101451D01*
X154675000Y-78101451D01*
X154763074Y-78092776D01*
X154847763Y-78067086D01*
X154925813Y-78025368D01*
X154994224Y-77969224D01*
X155050368Y-77900813D01*
X155092086Y-77822763D01*
X155117776Y-77738074D01*
X155126451Y-77650000D01*
X155126451Y-77350000D01*
X155117776Y-77261926D01*
X155092086Y-77177237D01*
X155050368Y-77099187D01*
X154994224Y-77030776D01*
X154925813Y-76974632D01*
X154847763Y-76932914D01*
X154763074Y-76907224D01*
X154675000Y-76898549D01*
X154169850Y-76898549D01*
X154169850Y-76618155D01*
X154171638Y-76599999D01*
X154169850Y-76581843D01*
X154169850Y-76581836D01*
X154164498Y-76527497D01*
X154143350Y-76457780D01*
X154109007Y-76393528D01*
X154085108Y-76364408D01*
X154074367Y-76351320D01*
X154074364Y-76351317D01*
X154062788Y-76337212D01*
X154048683Y-76325636D01*
X153524369Y-75801323D01*
X153512788Y-75787212D01*
X153456472Y-75740993D01*
X153392220Y-75706650D01*
X153322503Y-75685502D01*
X153268164Y-75680150D01*
X153268156Y-75680150D01*
X153250000Y-75678362D01*
X153231844Y-75680150D01*
X152768155Y-75680150D01*
X152749999Y-75678362D01*
X152731843Y-75680150D01*
X152731836Y-75680150D01*
X152684476Y-75684815D01*
X152677496Y-75685502D01*
X152656348Y-75691917D01*
X152607780Y-75706650D01*
X152543528Y-75740993D01*
X152514408Y-75764892D01*
X152501320Y-75775633D01*
X152501317Y-75775636D01*
X152487212Y-75787212D01*
X152475635Y-75801318D01*
X152245251Y-76031702D01*
X152211557Y-76025000D01*
X152088443Y-76025000D01*
X151967694Y-76049019D01*
X151853952Y-76096132D01*
X151751586Y-76164531D01*
X151664531Y-76251586D01*
X151596132Y-76353952D01*
X151549019Y-76467694D01*
X151525000Y-76588443D01*
X151525000Y-76711557D01*
X151549019Y-76832306D01*
X151596132Y-76946048D01*
X151664531Y-77048414D01*
X151746267Y-77130150D01*
X151151451Y-77130150D01*
X151151451Y-76650000D01*
X151145659Y-76591190D01*
X151128504Y-76534640D01*
X151100647Y-76482523D01*
X151063158Y-76436842D01*
X151017477Y-76399353D01*
X150965360Y-76371496D01*
X150908810Y-76354341D01*
X150850000Y-76348549D01*
X149150000Y-76348549D01*
X149091190Y-76354341D01*
X149034640Y-76371496D01*
X148982523Y-76399353D01*
X148936842Y-76436842D01*
X148925000Y-76451272D01*
X148925000Y-71225000D01*
X167925527Y-71225000D01*
X167933935Y-76412860D01*
G37*
X167933935Y-76412860D02*
X167917477Y-76399353D01*
X167865360Y-76371496D01*
X167808810Y-76354341D01*
X167750000Y-76348549D01*
X166050000Y-76348549D01*
X165991190Y-76354341D01*
X165934640Y-76371496D01*
X165882523Y-76399353D01*
X165836842Y-76436842D01*
X165799353Y-76482523D01*
X165771496Y-76534640D01*
X165754341Y-76591190D01*
X165748549Y-76650000D01*
X165748549Y-77073000D01*
X165527000Y-77073000D01*
X165527000Y-75976451D01*
X165550001Y-75976451D01*
X165657584Y-75965855D01*
X165761032Y-75934474D01*
X165856370Y-75883515D01*
X165939935Y-75814935D01*
X166008515Y-75731370D01*
X166059474Y-75636032D01*
X166090855Y-75532584D01*
X166101451Y-75425001D01*
X166101451Y-74774999D01*
X166090855Y-74667416D01*
X166059474Y-74563968D01*
X166008515Y-74468630D01*
X165939935Y-74385065D01*
X165856370Y-74316485D01*
X165761032Y-74265526D01*
X165657584Y-74234145D01*
X165550001Y-74223549D01*
X164649999Y-74223549D01*
X164542416Y-74234145D01*
X164438968Y-74265526D01*
X164343630Y-74316485D01*
X164260065Y-74385065D01*
X164191485Y-74468630D01*
X164140526Y-74563968D01*
X164109145Y-74667416D01*
X164100000Y-74760267D01*
X164090855Y-74667416D01*
X164059474Y-74563968D01*
X164008515Y-74468630D01*
X163939935Y-74385065D01*
X163856370Y-74316485D01*
X163761032Y-74265526D01*
X163657584Y-74234145D01*
X163550001Y-74223549D01*
X162649999Y-74223549D01*
X162542416Y-74234145D01*
X162438968Y-74265526D01*
X162343630Y-74316485D01*
X162260065Y-74385065D01*
X162191485Y-74468630D01*
X162140526Y-74563968D01*
X162109145Y-74667416D01*
X162100000Y-74760267D01*
X162090855Y-74667416D01*
X162059474Y-74563968D01*
X162008515Y-74468630D01*
X161939935Y-74385065D01*
X161856370Y-74316485D01*
X161761032Y-74265526D01*
X161657584Y-74234145D01*
X161550001Y-74223549D01*
X160649999Y-74223549D01*
X160542416Y-74234145D01*
X160438968Y-74265526D01*
X160343630Y-74316485D01*
X160260065Y-74385065D01*
X160191485Y-74468630D01*
X160140526Y-74563968D01*
X160109145Y-74667416D01*
X160098549Y-74774999D01*
X160098549Y-75425001D01*
X160109145Y-75532584D01*
X160140526Y-75636032D01*
X160191485Y-75731370D01*
X160260065Y-75814935D01*
X160343630Y-75883515D01*
X160438968Y-75934474D01*
X160542416Y-75965855D01*
X160649999Y-75976451D01*
X160673001Y-75976451D01*
X160673000Y-76979033D01*
X160670935Y-77000000D01*
X160673000Y-77020967D01*
X160673000Y-77020977D01*
X160679178Y-77083706D01*
X160703595Y-77164195D01*
X160722052Y-77198726D01*
X160743245Y-77238376D01*
X160783232Y-77287100D01*
X160796605Y-77303395D01*
X160812900Y-77316768D01*
X161283236Y-77787105D01*
X161296605Y-77803395D01*
X161312895Y-77816764D01*
X161312899Y-77816768D01*
X161361623Y-77856756D01*
X161418538Y-77887176D01*
X161435804Y-77896405D01*
X161473135Y-77907730D01*
X161451320Y-77925633D01*
X161451317Y-77925636D01*
X161437212Y-77937212D01*
X161425635Y-77951318D01*
X160976804Y-78400150D01*
X155066918Y-78400150D01*
X155050368Y-78369187D01*
X154994224Y-78300776D01*
X154925813Y-78244632D01*
X154847763Y-78202914D01*
X154763074Y-78177224D01*
X154675000Y-78168549D01*
X152925000Y-78168549D01*
X152844850Y-78176444D01*
X152844850Y-78093556D01*
X152925000Y-78101451D01*
X154675000Y-78101451D01*
X154763074Y-78092776D01*
X154847763Y-78067086D01*
X154925813Y-78025368D01*
X154994224Y-77969224D01*
X155050368Y-77900813D01*
X155092086Y-77822763D01*
X155117776Y-77738074D01*
X155126451Y-77650000D01*
X155126451Y-77350000D01*
X155117776Y-77261926D01*
X155092086Y-77177237D01*
X155050368Y-77099187D01*
X154994224Y-77030776D01*
X154925813Y-76974632D01*
X154847763Y-76932914D01*
X154763074Y-76907224D01*
X154675000Y-76898549D01*
X154169850Y-76898549D01*
X154169850Y-76618155D01*
X154171638Y-76599999D01*
X154169850Y-76581843D01*
X154169850Y-76581836D01*
X154164498Y-76527497D01*
X154143350Y-76457780D01*
X154109007Y-76393528D01*
X154085108Y-76364408D01*
X154074367Y-76351320D01*
X154074364Y-76351317D01*
X154062788Y-76337212D01*
X154048683Y-76325636D01*
X153524369Y-75801323D01*
X153512788Y-75787212D01*
X153456472Y-75740993D01*
X153392220Y-75706650D01*
X153322503Y-75685502D01*
X153268164Y-75680150D01*
X153268156Y-75680150D01*
X153250000Y-75678362D01*
X153231844Y-75680150D01*
X152768155Y-75680150D01*
X152749999Y-75678362D01*
X152731843Y-75680150D01*
X152731836Y-75680150D01*
X152684476Y-75684815D01*
X152677496Y-75685502D01*
X152656348Y-75691917D01*
X152607780Y-75706650D01*
X152543528Y-75740993D01*
X152514408Y-75764892D01*
X152501320Y-75775633D01*
X152501317Y-75775636D01*
X152487212Y-75787212D01*
X152475635Y-75801318D01*
X152245251Y-76031702D01*
X152211557Y-76025000D01*
X152088443Y-76025000D01*
X151967694Y-76049019D01*
X151853952Y-76096132D01*
X151751586Y-76164531D01*
X151664531Y-76251586D01*
X151596132Y-76353952D01*
X151549019Y-76467694D01*
X151525000Y-76588443D01*
X151525000Y-76711557D01*
X151549019Y-76832306D01*
X151596132Y-76946048D01*
X151664531Y-77048414D01*
X151746267Y-77130150D01*
X151151451Y-77130150D01*
X151151451Y-76650000D01*
X151145659Y-76591190D01*
X151128504Y-76534640D01*
X151100647Y-76482523D01*
X151063158Y-76436842D01*
X151017477Y-76399353D01*
X150965360Y-76371496D01*
X150908810Y-76354341D01*
X150850000Y-76348549D01*
X149150000Y-76348549D01*
X149091190Y-76354341D01*
X149034640Y-76371496D01*
X148982523Y-76399353D01*
X148936842Y-76436842D01*
X148925000Y-76451272D01*
X148925000Y-71225000D01*
X167925527Y-71225000D01*
X167933935Y-76412860D01*
M02*
