G04 #@! TF.GenerationSoftware,KiCad,Pcbnew,(5.1.5)-3*
G04 #@! TF.CreationDate,2020-06-22T22:14:50-04:00*
G04 #@! TF.ProjectId,74X273 Simplified pinout,37345832-3733-4205-9369-6d706c696669,rev?*
G04 #@! TF.SameCoordinates,Original*
G04 #@! TF.FileFunction,Copper,L2,Bot*
G04 #@! TF.FilePolarity,Positive*
%FSLAX46Y46*%
G04 Gerber Fmt 4.6, Leading zero omitted, Abs format (unit mm)*
G04 Created by KiCad (PCBNEW (5.1.5)-3) date 2020-06-22 22:14:50*
%MOMM*%
%LPD*%
G04 APERTURE LIST*
%ADD10O,1.700000X1.700000*%
%ADD11R,1.700000X1.700000*%
%ADD12C,1.000000*%
%ADD13C,0.650000*%
%ADD14C,0.600000*%
%ADD15C,0.139700*%
%ADD16C,0.254000*%
%ADD17C,0.100000*%
G04 APERTURE END LIST*
D10*
X166900000Y-100360000D03*
X166900000Y-97820000D03*
X166900000Y-95280000D03*
X166900000Y-92740000D03*
X166900000Y-90200000D03*
X166900000Y-87660000D03*
X166900000Y-85120000D03*
X166900000Y-82580000D03*
X166900000Y-80040000D03*
D11*
X166900000Y-77500000D03*
D10*
X150000000Y-100360000D03*
X150000000Y-97820000D03*
X150000000Y-95280000D03*
X150000000Y-92740000D03*
X150000000Y-90200000D03*
X150000000Y-87660000D03*
X150000000Y-85120000D03*
X150000000Y-82580000D03*
X150000000Y-80040000D03*
D11*
X150000000Y-77500000D03*
D12*
X150500000Y-72500000D03*
X167000000Y-72500000D03*
X163500000Y-100500000D03*
X153500000Y-100500000D03*
D13*
X153800000Y-91200000D03*
X152150000Y-76650000D03*
D14*
X163825000Y-88925000D03*
D13*
X163824982Y-97800000D03*
X155610000Y-80040000D03*
X155610000Y-95280000D03*
X157450000Y-92750000D03*
X157450000Y-81300000D03*
X156750000Y-85100000D03*
X156750000Y-90200000D03*
X159250000Y-79400000D03*
X159250000Y-96700000D03*
X160000000Y-83225000D03*
X160000000Y-95275000D03*
X160650000Y-84475000D03*
X160650000Y-92750000D03*
X161300000Y-83850000D03*
D15*
X152150000Y-76650000D02*
X152150000Y-100050000D01*
X151840000Y-100360000D02*
X150000000Y-100360000D01*
X152150000Y-100050000D02*
X151840000Y-100360000D01*
X163825000Y-88925000D02*
X163825000Y-97799982D01*
D16*
X163825000Y-97799982D02*
X163824982Y-97800000D01*
D15*
X155610000Y-80040000D02*
X155610000Y-95280000D01*
X157450000Y-92750000D02*
X157450000Y-81300000D01*
X156750000Y-85100000D02*
X156750000Y-90200000D01*
X159250000Y-79400000D02*
X159250000Y-96700000D01*
X160000000Y-83225000D02*
X160000000Y-83684619D01*
X160000000Y-83684619D02*
X160000000Y-95275000D01*
X160650000Y-84475000D02*
X160650000Y-84934619D01*
X160650000Y-84934619D02*
X160650000Y-92750000D01*
X162110381Y-85120000D02*
X166900000Y-85120000D01*
X161300000Y-83850000D02*
X161300000Y-84309619D01*
X161300000Y-84309619D02*
X162110381Y-85120000D01*
D17*
G36*
X167933935Y-76412860D02*
G01*
X167917477Y-76399353D01*
X167865360Y-76371496D01*
X167808810Y-76354341D01*
X167750000Y-76348549D01*
X166050000Y-76348549D01*
X165991190Y-76354341D01*
X165934640Y-76371496D01*
X165882523Y-76399353D01*
X165836842Y-76436842D01*
X165799353Y-76482523D01*
X165771496Y-76534640D01*
X165754341Y-76591190D01*
X165748549Y-76650000D01*
X165748549Y-78350000D01*
X165754341Y-78408810D01*
X165771496Y-78465360D01*
X165799353Y-78517477D01*
X165836842Y-78563158D01*
X165882523Y-78600647D01*
X165934640Y-78628504D01*
X165991190Y-78645659D01*
X166050000Y-78651451D01*
X167750000Y-78651451D01*
X167808810Y-78645659D01*
X167865360Y-78628504D01*
X167917477Y-78600647D01*
X167937454Y-78584252D01*
X167939009Y-79543296D01*
X167919116Y-79495271D01*
X167793263Y-79306918D01*
X167633082Y-79146737D01*
X167444729Y-79020884D01*
X167235443Y-78934194D01*
X167013265Y-78890000D01*
X166786735Y-78890000D01*
X166564557Y-78934194D01*
X166355271Y-79020884D01*
X166166918Y-79146737D01*
X166006737Y-79306918D01*
X165880884Y-79495271D01*
X165794194Y-79704557D01*
X165750000Y-79926735D01*
X165750000Y-80153265D01*
X165794194Y-80375443D01*
X165880884Y-80584729D01*
X166006737Y-80773082D01*
X166166918Y-80933263D01*
X166355271Y-81059116D01*
X166564557Y-81145806D01*
X166786735Y-81190000D01*
X167013265Y-81190000D01*
X167235443Y-81145806D01*
X167444729Y-81059116D01*
X167633082Y-80933263D01*
X167793263Y-80773082D01*
X167919116Y-80584729D01*
X167940612Y-80532832D01*
X167943142Y-82093273D01*
X167919116Y-82035271D01*
X167793263Y-81846918D01*
X167633082Y-81686737D01*
X167444729Y-81560884D01*
X167235443Y-81474194D01*
X167013265Y-81430000D01*
X166786735Y-81430000D01*
X166564557Y-81474194D01*
X166355271Y-81560884D01*
X166166918Y-81686737D01*
X166006737Y-81846918D01*
X165880884Y-82035271D01*
X165794194Y-82244557D01*
X165750000Y-82466735D01*
X165750000Y-82693265D01*
X165794194Y-82915443D01*
X165880884Y-83124729D01*
X166006737Y-83313082D01*
X166166918Y-83473263D01*
X166355271Y-83599116D01*
X166564557Y-83685806D01*
X166786735Y-83730000D01*
X167013265Y-83730000D01*
X167235443Y-83685806D01*
X167444729Y-83599116D01*
X167633082Y-83473263D01*
X167793263Y-83313082D01*
X167919116Y-83124729D01*
X167944713Y-83062933D01*
X167947274Y-84643251D01*
X167919116Y-84575271D01*
X167793263Y-84386918D01*
X167633082Y-84226737D01*
X167444729Y-84100884D01*
X167235443Y-84014194D01*
X167013265Y-83970000D01*
X166786735Y-83970000D01*
X166564557Y-84014194D01*
X166355271Y-84100884D01*
X166166918Y-84226737D01*
X166006737Y-84386918D01*
X165880884Y-84575271D01*
X165808446Y-84750150D01*
X162263578Y-84750150D01*
X161773655Y-84260228D01*
X161785469Y-84248414D01*
X161853868Y-84146048D01*
X161900981Y-84032306D01*
X161925000Y-83911557D01*
X161925000Y-83788443D01*
X161900981Y-83667694D01*
X161853868Y-83553952D01*
X161785469Y-83451586D01*
X161698414Y-83364531D01*
X161596048Y-83296132D01*
X161482306Y-83249019D01*
X161361557Y-83225000D01*
X161238443Y-83225000D01*
X161117694Y-83249019D01*
X161003952Y-83296132D01*
X160901586Y-83364531D01*
X160814531Y-83451586D01*
X160746132Y-83553952D01*
X160699019Y-83667694D01*
X160675000Y-83788443D01*
X160675000Y-83850000D01*
X160588443Y-83850000D01*
X160467694Y-83874019D01*
X160369850Y-83914547D01*
X160369850Y-83729555D01*
X160398414Y-83710469D01*
X160485469Y-83623414D01*
X160553868Y-83521048D01*
X160600981Y-83407306D01*
X160625000Y-83286557D01*
X160625000Y-83163443D01*
X160600981Y-83042694D01*
X160553868Y-82928952D01*
X160485469Y-82826586D01*
X160398414Y-82739531D01*
X160296048Y-82671132D01*
X160182306Y-82624019D01*
X160061557Y-82600000D01*
X159938443Y-82600000D01*
X159817694Y-82624019D01*
X159703952Y-82671132D01*
X159619850Y-82727327D01*
X159619850Y-79904555D01*
X159648414Y-79885469D01*
X159735469Y-79798414D01*
X159803868Y-79696048D01*
X159850981Y-79582306D01*
X159875000Y-79461557D01*
X159875000Y-79338443D01*
X159850981Y-79217694D01*
X159803868Y-79103952D01*
X159735469Y-79001586D01*
X159648414Y-78914531D01*
X159546048Y-78846132D01*
X159432306Y-78799019D01*
X159311557Y-78775000D01*
X159188443Y-78775000D01*
X159067694Y-78799019D01*
X158953952Y-78846132D01*
X158851586Y-78914531D01*
X158764531Y-79001586D01*
X158696132Y-79103952D01*
X158649019Y-79217694D01*
X158625000Y-79338443D01*
X158625000Y-79461557D01*
X158649019Y-79582306D01*
X158696132Y-79696048D01*
X158764531Y-79798414D01*
X158851586Y-79885469D01*
X158880150Y-79904555D01*
X158880151Y-96195444D01*
X158851586Y-96214531D01*
X158764531Y-96301586D01*
X158696132Y-96403952D01*
X158649019Y-96517694D01*
X158625000Y-96638443D01*
X158625000Y-96761557D01*
X158649019Y-96882306D01*
X158696132Y-96996048D01*
X158764531Y-97098414D01*
X158851586Y-97185469D01*
X158953952Y-97253868D01*
X159067694Y-97300981D01*
X159188443Y-97325000D01*
X159311557Y-97325000D01*
X159432306Y-97300981D01*
X159546048Y-97253868D01*
X159648414Y-97185469D01*
X159735469Y-97098414D01*
X159803868Y-96996048D01*
X159850981Y-96882306D01*
X159875000Y-96761557D01*
X159875000Y-96638443D01*
X159850981Y-96517694D01*
X159803868Y-96403952D01*
X159735469Y-96301586D01*
X159648414Y-96214531D01*
X159619850Y-96195445D01*
X159619850Y-95772673D01*
X159703952Y-95828868D01*
X159817694Y-95875981D01*
X159938443Y-95900000D01*
X160061557Y-95900000D01*
X160182306Y-95875981D01*
X160296048Y-95828868D01*
X160398414Y-95760469D01*
X160485469Y-95673414D01*
X160553868Y-95571048D01*
X160600981Y-95457306D01*
X160625000Y-95336557D01*
X160625000Y-95213443D01*
X160600981Y-95092694D01*
X160553868Y-94978952D01*
X160485469Y-94876586D01*
X160398414Y-94789531D01*
X160369850Y-94770445D01*
X160369850Y-93310453D01*
X160467694Y-93350981D01*
X160588443Y-93375000D01*
X160711557Y-93375000D01*
X160832306Y-93350981D01*
X160946048Y-93303868D01*
X161048414Y-93235469D01*
X161135469Y-93148414D01*
X161203868Y-93046048D01*
X161250981Y-92932306D01*
X161275000Y-92811557D01*
X161275000Y-92688443D01*
X161250981Y-92567694D01*
X161203868Y-92453952D01*
X161135469Y-92351586D01*
X161048414Y-92264531D01*
X161019850Y-92245445D01*
X161019850Y-84979555D01*
X161048414Y-84960469D01*
X161135469Y-84873414D01*
X161203868Y-84771048D01*
X161213977Y-84746642D01*
X161836016Y-85368682D01*
X161847593Y-85382788D01*
X161861698Y-85394364D01*
X161861701Y-85394367D01*
X161874789Y-85405108D01*
X161903909Y-85429007D01*
X161968161Y-85463350D01*
X162016729Y-85478083D01*
X162037877Y-85484498D01*
X162044244Y-85485125D01*
X162092217Y-85489850D01*
X162092225Y-85489850D01*
X162110381Y-85491638D01*
X162128537Y-85489850D01*
X165808446Y-85489850D01*
X165880884Y-85664729D01*
X166006737Y-85853082D01*
X166166918Y-86013263D01*
X166355271Y-86139116D01*
X166564557Y-86225806D01*
X166786735Y-86270000D01*
X167013265Y-86270000D01*
X167235443Y-86225806D01*
X167444729Y-86139116D01*
X167633082Y-86013263D01*
X167793263Y-85853082D01*
X167919116Y-85664729D01*
X167948814Y-85593033D01*
X167951407Y-87193228D01*
X167919116Y-87115271D01*
X167793263Y-86926918D01*
X167633082Y-86766737D01*
X167444729Y-86640884D01*
X167235443Y-86554194D01*
X167013265Y-86510000D01*
X166786735Y-86510000D01*
X166564557Y-86554194D01*
X166355271Y-86640884D01*
X166166918Y-86766737D01*
X166006737Y-86926918D01*
X165880884Y-87115271D01*
X165794194Y-87324557D01*
X165750000Y-87546735D01*
X165750000Y-87773265D01*
X165794194Y-87995443D01*
X165880884Y-88204729D01*
X166006737Y-88393082D01*
X166166918Y-88553263D01*
X166355271Y-88679116D01*
X166564557Y-88765806D01*
X166786735Y-88810000D01*
X167013265Y-88810000D01*
X167235443Y-88765806D01*
X167444729Y-88679116D01*
X167633082Y-88553263D01*
X167793263Y-88393082D01*
X167919116Y-88204729D01*
X167952914Y-88123133D01*
X167955540Y-89743206D01*
X167919116Y-89655271D01*
X167793263Y-89466918D01*
X167633082Y-89306737D01*
X167444729Y-89180884D01*
X167235443Y-89094194D01*
X167013265Y-89050000D01*
X166786735Y-89050000D01*
X166564557Y-89094194D01*
X166355271Y-89180884D01*
X166166918Y-89306737D01*
X166006737Y-89466918D01*
X165880884Y-89655271D01*
X165794194Y-89864557D01*
X165750000Y-90086735D01*
X165750000Y-90313265D01*
X165794194Y-90535443D01*
X165880884Y-90744729D01*
X166006737Y-90933082D01*
X166166918Y-91093263D01*
X166355271Y-91219116D01*
X166564557Y-91305806D01*
X166786735Y-91350000D01*
X167013265Y-91350000D01*
X167235443Y-91305806D01*
X167444729Y-91219116D01*
X167633082Y-91093263D01*
X167793263Y-90933082D01*
X167919116Y-90744729D01*
X167957015Y-90653233D01*
X167959673Y-92293183D01*
X167919116Y-92195271D01*
X167793263Y-92006918D01*
X167633082Y-91846737D01*
X167444729Y-91720884D01*
X167235443Y-91634194D01*
X167013265Y-91590000D01*
X166786735Y-91590000D01*
X166564557Y-91634194D01*
X166355271Y-91720884D01*
X166166918Y-91846737D01*
X166006737Y-92006918D01*
X165880884Y-92195271D01*
X165794194Y-92404557D01*
X165750000Y-92626735D01*
X165750000Y-92853265D01*
X165794194Y-93075443D01*
X165880884Y-93284729D01*
X166006737Y-93473082D01*
X166166918Y-93633263D01*
X166355271Y-93759116D01*
X166564557Y-93845806D01*
X166786735Y-93890000D01*
X167013265Y-93890000D01*
X167235443Y-93845806D01*
X167444729Y-93759116D01*
X167633082Y-93633263D01*
X167793263Y-93473082D01*
X167919116Y-93284729D01*
X167961116Y-93183334D01*
X167963806Y-94843161D01*
X167919116Y-94735271D01*
X167793263Y-94546918D01*
X167633082Y-94386737D01*
X167444729Y-94260884D01*
X167235443Y-94174194D01*
X167013265Y-94130000D01*
X166786735Y-94130000D01*
X166564557Y-94174194D01*
X166355271Y-94260884D01*
X166166918Y-94386737D01*
X166006737Y-94546918D01*
X165880884Y-94735271D01*
X165794194Y-94944557D01*
X165750000Y-95166735D01*
X165750000Y-95393265D01*
X165794194Y-95615443D01*
X165880884Y-95824729D01*
X166006737Y-96013082D01*
X166166918Y-96173263D01*
X166355271Y-96299116D01*
X166564557Y-96385806D01*
X166786735Y-96430000D01*
X167013265Y-96430000D01*
X167235443Y-96385806D01*
X167444729Y-96299116D01*
X167633082Y-96173263D01*
X167793263Y-96013082D01*
X167919116Y-95824729D01*
X167965216Y-95713434D01*
X167967939Y-97393139D01*
X167919116Y-97275271D01*
X167793263Y-97086918D01*
X167633082Y-96926737D01*
X167444729Y-96800884D01*
X167235443Y-96714194D01*
X167013265Y-96670000D01*
X166786735Y-96670000D01*
X166564557Y-96714194D01*
X166355271Y-96800884D01*
X166166918Y-96926737D01*
X166006737Y-97086918D01*
X165880884Y-97275271D01*
X165794194Y-97484557D01*
X165750000Y-97706735D01*
X165750000Y-97933265D01*
X165794194Y-98155443D01*
X165880884Y-98364729D01*
X166006737Y-98553082D01*
X166166918Y-98713263D01*
X166355271Y-98839116D01*
X166564557Y-98925806D01*
X166696243Y-98952000D01*
X166695998Y-98952000D01*
X166695998Y-99106348D01*
X166480575Y-99015914D01*
X166226416Y-99123566D01*
X165998142Y-99278733D01*
X165804526Y-99475453D01*
X165653009Y-99706166D01*
X165555922Y-99940576D01*
X165648011Y-100156000D01*
X166696000Y-100156000D01*
X166696000Y-100136000D01*
X167104000Y-100136000D01*
X167104000Y-100156000D01*
X167124000Y-100156000D01*
X167124000Y-100564000D01*
X167104000Y-100564000D01*
X167104000Y-100584000D01*
X166696000Y-100584000D01*
X166696000Y-100564000D01*
X165648011Y-100564000D01*
X165555922Y-100779424D01*
X165653009Y-101013834D01*
X165804526Y-101244547D01*
X165982132Y-101425000D01*
X150433956Y-101425000D01*
X150544729Y-101379116D01*
X150733082Y-101253263D01*
X150893263Y-101093082D01*
X151019116Y-100904729D01*
X151091554Y-100729850D01*
X151821844Y-100729850D01*
X151840000Y-100731638D01*
X151858156Y-100729850D01*
X151858164Y-100729850D01*
X151912503Y-100724498D01*
X151982220Y-100703350D01*
X152046472Y-100669007D01*
X152102788Y-100622788D01*
X152114369Y-100608677D01*
X152398682Y-100324365D01*
X152412788Y-100312788D01*
X152459007Y-100256472D01*
X152493350Y-100192220D01*
X152514498Y-100122503D01*
X152519850Y-100068164D01*
X152519850Y-100068157D01*
X152521638Y-100050001D01*
X152519850Y-100031845D01*
X152519850Y-97738443D01*
X163199982Y-97738443D01*
X163199982Y-97861557D01*
X163224001Y-97982306D01*
X163271114Y-98096048D01*
X163339513Y-98198414D01*
X163426568Y-98285469D01*
X163528934Y-98353868D01*
X163642676Y-98400981D01*
X163763425Y-98425000D01*
X163886539Y-98425000D01*
X164007288Y-98400981D01*
X164121030Y-98353868D01*
X164223396Y-98285469D01*
X164310451Y-98198414D01*
X164378850Y-98096048D01*
X164425963Y-97982306D01*
X164449982Y-97861557D01*
X164449982Y-97738443D01*
X164425963Y-97617694D01*
X164378850Y-97503952D01*
X164310451Y-97401586D01*
X164223396Y-97314531D01*
X164194850Y-97295457D01*
X164194850Y-89399488D01*
X164207478Y-89391050D01*
X164291050Y-89307478D01*
X164356713Y-89209207D01*
X164401942Y-89100014D01*
X164425000Y-88984095D01*
X164425000Y-88865905D01*
X164401942Y-88749986D01*
X164356713Y-88640793D01*
X164291050Y-88542522D01*
X164207478Y-88458950D01*
X164109207Y-88393287D01*
X164000014Y-88348058D01*
X163884095Y-88325000D01*
X163765905Y-88325000D01*
X163649986Y-88348058D01*
X163540793Y-88393287D01*
X163442522Y-88458950D01*
X163358950Y-88542522D01*
X163293287Y-88640793D01*
X163248058Y-88749986D01*
X163225000Y-88865905D01*
X163225000Y-88984095D01*
X163248058Y-89100014D01*
X163293287Y-89209207D01*
X163358950Y-89307478D01*
X163442522Y-89391050D01*
X163455150Y-89399488D01*
X163455151Y-97295432D01*
X163426568Y-97314531D01*
X163339513Y-97401586D01*
X163271114Y-97503952D01*
X163224001Y-97617694D01*
X163199982Y-97738443D01*
X152519850Y-97738443D01*
X152519850Y-79978443D01*
X154985000Y-79978443D01*
X154985000Y-80101557D01*
X155009019Y-80222306D01*
X155056132Y-80336048D01*
X155124531Y-80438414D01*
X155211586Y-80525469D01*
X155240150Y-80544555D01*
X155240151Y-94775444D01*
X155211586Y-94794531D01*
X155124531Y-94881586D01*
X155056132Y-94983952D01*
X155009019Y-95097694D01*
X154985000Y-95218443D01*
X154985000Y-95341557D01*
X155009019Y-95462306D01*
X155056132Y-95576048D01*
X155124531Y-95678414D01*
X155211586Y-95765469D01*
X155313952Y-95833868D01*
X155427694Y-95880981D01*
X155548443Y-95905000D01*
X155671557Y-95905000D01*
X155792306Y-95880981D01*
X155906048Y-95833868D01*
X156008414Y-95765469D01*
X156095469Y-95678414D01*
X156163868Y-95576048D01*
X156210981Y-95462306D01*
X156235000Y-95341557D01*
X156235000Y-95218443D01*
X156210981Y-95097694D01*
X156163868Y-94983952D01*
X156095469Y-94881586D01*
X156008414Y-94794531D01*
X155979850Y-94775445D01*
X155979850Y-85038443D01*
X156125000Y-85038443D01*
X156125000Y-85161557D01*
X156149019Y-85282306D01*
X156196132Y-85396048D01*
X156264531Y-85498414D01*
X156351586Y-85585469D01*
X156380150Y-85604555D01*
X156380151Y-89695444D01*
X156351586Y-89714531D01*
X156264531Y-89801586D01*
X156196132Y-89903952D01*
X156149019Y-90017694D01*
X156125000Y-90138443D01*
X156125000Y-90261557D01*
X156149019Y-90382306D01*
X156196132Y-90496048D01*
X156264531Y-90598414D01*
X156351586Y-90685469D01*
X156453952Y-90753868D01*
X156567694Y-90800981D01*
X156688443Y-90825000D01*
X156811557Y-90825000D01*
X156932306Y-90800981D01*
X157046048Y-90753868D01*
X157080150Y-90731082D01*
X157080150Y-92245445D01*
X157051586Y-92264531D01*
X156964531Y-92351586D01*
X156896132Y-92453952D01*
X156849019Y-92567694D01*
X156825000Y-92688443D01*
X156825000Y-92811557D01*
X156849019Y-92932306D01*
X156896132Y-93046048D01*
X156964531Y-93148414D01*
X157051586Y-93235469D01*
X157153952Y-93303868D01*
X157267694Y-93350981D01*
X157388443Y-93375000D01*
X157511557Y-93375000D01*
X157632306Y-93350981D01*
X157746048Y-93303868D01*
X157848414Y-93235469D01*
X157935469Y-93148414D01*
X158003868Y-93046048D01*
X158050981Y-92932306D01*
X158075000Y-92811557D01*
X158075000Y-92688443D01*
X158050981Y-92567694D01*
X158003868Y-92453952D01*
X157935469Y-92351586D01*
X157848414Y-92264531D01*
X157819850Y-92245445D01*
X157819850Y-81804555D01*
X157848414Y-81785469D01*
X157935469Y-81698414D01*
X158003868Y-81596048D01*
X158050981Y-81482306D01*
X158075000Y-81361557D01*
X158075000Y-81238443D01*
X158050981Y-81117694D01*
X158003868Y-81003952D01*
X157935469Y-80901586D01*
X157848414Y-80814531D01*
X157746048Y-80746132D01*
X157632306Y-80699019D01*
X157511557Y-80675000D01*
X157388443Y-80675000D01*
X157267694Y-80699019D01*
X157153952Y-80746132D01*
X157051586Y-80814531D01*
X156964531Y-80901586D01*
X156896132Y-81003952D01*
X156849019Y-81117694D01*
X156825000Y-81238443D01*
X156825000Y-81361557D01*
X156849019Y-81482306D01*
X156896132Y-81596048D01*
X156964531Y-81698414D01*
X157051586Y-81785469D01*
X157080151Y-81804556D01*
X157080151Y-84568919D01*
X157046048Y-84546132D01*
X156932306Y-84499019D01*
X156811557Y-84475000D01*
X156688443Y-84475000D01*
X156567694Y-84499019D01*
X156453952Y-84546132D01*
X156351586Y-84614531D01*
X156264531Y-84701586D01*
X156196132Y-84803952D01*
X156149019Y-84917694D01*
X156125000Y-85038443D01*
X155979850Y-85038443D01*
X155979850Y-80544555D01*
X156008414Y-80525469D01*
X156095469Y-80438414D01*
X156163868Y-80336048D01*
X156210981Y-80222306D01*
X156235000Y-80101557D01*
X156235000Y-79978443D01*
X156210981Y-79857694D01*
X156163868Y-79743952D01*
X156095469Y-79641586D01*
X156008414Y-79554531D01*
X155906048Y-79486132D01*
X155792306Y-79439019D01*
X155671557Y-79415000D01*
X155548443Y-79415000D01*
X155427694Y-79439019D01*
X155313952Y-79486132D01*
X155211586Y-79554531D01*
X155124531Y-79641586D01*
X155056132Y-79743952D01*
X155009019Y-79857694D01*
X154985000Y-79978443D01*
X152519850Y-79978443D01*
X152519850Y-77154555D01*
X152548414Y-77135469D01*
X152635469Y-77048414D01*
X152703868Y-76946048D01*
X152750981Y-76832306D01*
X152775000Y-76711557D01*
X152775000Y-76588443D01*
X152750981Y-76467694D01*
X152703868Y-76353952D01*
X152635469Y-76251586D01*
X152548414Y-76164531D01*
X152446048Y-76096132D01*
X152332306Y-76049019D01*
X152211557Y-76025000D01*
X152088443Y-76025000D01*
X151967694Y-76049019D01*
X151853952Y-76096132D01*
X151751586Y-76164531D01*
X151664531Y-76251586D01*
X151596132Y-76353952D01*
X151549019Y-76467694D01*
X151525000Y-76588443D01*
X151525000Y-76711557D01*
X151549019Y-76832306D01*
X151596132Y-76946048D01*
X151664531Y-77048414D01*
X151751586Y-77135469D01*
X151780150Y-77154555D01*
X151780151Y-99896802D01*
X151686804Y-99990150D01*
X151091554Y-99990150D01*
X151019116Y-99815271D01*
X150893263Y-99626918D01*
X150733082Y-99466737D01*
X150544729Y-99340884D01*
X150335443Y-99254194D01*
X150113265Y-99210000D01*
X149886735Y-99210000D01*
X149664557Y-99254194D01*
X149455271Y-99340884D01*
X149266918Y-99466737D01*
X149106737Y-99626918D01*
X148980884Y-99815271D01*
X148925000Y-99950186D01*
X148925000Y-98229814D01*
X148980884Y-98364729D01*
X149106737Y-98553082D01*
X149266918Y-98713263D01*
X149455271Y-98839116D01*
X149664557Y-98925806D01*
X149886735Y-98970000D01*
X150113265Y-98970000D01*
X150335443Y-98925806D01*
X150544729Y-98839116D01*
X150733082Y-98713263D01*
X150893263Y-98553082D01*
X151019116Y-98364729D01*
X151105806Y-98155443D01*
X151150000Y-97933265D01*
X151150000Y-97706735D01*
X151105806Y-97484557D01*
X151019116Y-97275271D01*
X150893263Y-97086918D01*
X150733082Y-96926737D01*
X150544729Y-96800884D01*
X150335443Y-96714194D01*
X150113265Y-96670000D01*
X149886735Y-96670000D01*
X149664557Y-96714194D01*
X149455271Y-96800884D01*
X149266918Y-96926737D01*
X149106737Y-97086918D01*
X148980884Y-97275271D01*
X148925000Y-97410186D01*
X148925000Y-95689814D01*
X148980884Y-95824729D01*
X149106737Y-96013082D01*
X149266918Y-96173263D01*
X149455271Y-96299116D01*
X149664557Y-96385806D01*
X149886735Y-96430000D01*
X150113265Y-96430000D01*
X150335443Y-96385806D01*
X150544729Y-96299116D01*
X150733082Y-96173263D01*
X150893263Y-96013082D01*
X151019116Y-95824729D01*
X151105806Y-95615443D01*
X151150000Y-95393265D01*
X151150000Y-95166735D01*
X151105806Y-94944557D01*
X151019116Y-94735271D01*
X150893263Y-94546918D01*
X150733082Y-94386737D01*
X150544729Y-94260884D01*
X150335443Y-94174194D01*
X150113265Y-94130000D01*
X149886735Y-94130000D01*
X149664557Y-94174194D01*
X149455271Y-94260884D01*
X149266918Y-94386737D01*
X149106737Y-94546918D01*
X148980884Y-94735271D01*
X148925000Y-94870186D01*
X148925000Y-93149814D01*
X148980884Y-93284729D01*
X149106737Y-93473082D01*
X149266918Y-93633263D01*
X149455271Y-93759116D01*
X149664557Y-93845806D01*
X149886735Y-93890000D01*
X150113265Y-93890000D01*
X150335443Y-93845806D01*
X150544729Y-93759116D01*
X150733082Y-93633263D01*
X150893263Y-93473082D01*
X151019116Y-93284729D01*
X151105806Y-93075443D01*
X151150000Y-92853265D01*
X151150000Y-92626735D01*
X151105806Y-92404557D01*
X151019116Y-92195271D01*
X150893263Y-92006918D01*
X150733082Y-91846737D01*
X150544729Y-91720884D01*
X150335443Y-91634194D01*
X150113265Y-91590000D01*
X149886735Y-91590000D01*
X149664557Y-91634194D01*
X149455271Y-91720884D01*
X149266918Y-91846737D01*
X149106737Y-92006918D01*
X148980884Y-92195271D01*
X148925000Y-92330186D01*
X148925000Y-90609814D01*
X148980884Y-90744729D01*
X149106737Y-90933082D01*
X149266918Y-91093263D01*
X149455271Y-91219116D01*
X149664557Y-91305806D01*
X149886735Y-91350000D01*
X150113265Y-91350000D01*
X150335443Y-91305806D01*
X150544729Y-91219116D01*
X150733082Y-91093263D01*
X150893263Y-90933082D01*
X151019116Y-90744729D01*
X151105806Y-90535443D01*
X151150000Y-90313265D01*
X151150000Y-90086735D01*
X151105806Y-89864557D01*
X151019116Y-89655271D01*
X150893263Y-89466918D01*
X150733082Y-89306737D01*
X150544729Y-89180884D01*
X150335443Y-89094194D01*
X150113265Y-89050000D01*
X149886735Y-89050000D01*
X149664557Y-89094194D01*
X149455271Y-89180884D01*
X149266918Y-89306737D01*
X149106737Y-89466918D01*
X148980884Y-89655271D01*
X148925000Y-89790186D01*
X148925000Y-88069814D01*
X148980884Y-88204729D01*
X149106737Y-88393082D01*
X149266918Y-88553263D01*
X149455271Y-88679116D01*
X149664557Y-88765806D01*
X149886735Y-88810000D01*
X150113265Y-88810000D01*
X150335443Y-88765806D01*
X150544729Y-88679116D01*
X150733082Y-88553263D01*
X150893263Y-88393082D01*
X151019116Y-88204729D01*
X151105806Y-87995443D01*
X151150000Y-87773265D01*
X151150000Y-87546735D01*
X151105806Y-87324557D01*
X151019116Y-87115271D01*
X150893263Y-86926918D01*
X150733082Y-86766737D01*
X150544729Y-86640884D01*
X150335443Y-86554194D01*
X150113265Y-86510000D01*
X149886735Y-86510000D01*
X149664557Y-86554194D01*
X149455271Y-86640884D01*
X149266918Y-86766737D01*
X149106737Y-86926918D01*
X148980884Y-87115271D01*
X148925000Y-87250186D01*
X148925000Y-85529814D01*
X148980884Y-85664729D01*
X149106737Y-85853082D01*
X149266918Y-86013263D01*
X149455271Y-86139116D01*
X149664557Y-86225806D01*
X149886735Y-86270000D01*
X150113265Y-86270000D01*
X150335443Y-86225806D01*
X150544729Y-86139116D01*
X150733082Y-86013263D01*
X150893263Y-85853082D01*
X151019116Y-85664729D01*
X151105806Y-85455443D01*
X151150000Y-85233265D01*
X151150000Y-85006735D01*
X151105806Y-84784557D01*
X151019116Y-84575271D01*
X150893263Y-84386918D01*
X150733082Y-84226737D01*
X150544729Y-84100884D01*
X150335443Y-84014194D01*
X150113265Y-83970000D01*
X149886735Y-83970000D01*
X149664557Y-84014194D01*
X149455271Y-84100884D01*
X149266918Y-84226737D01*
X149106737Y-84386918D01*
X148980884Y-84575271D01*
X148925000Y-84710186D01*
X148925000Y-82989814D01*
X148980884Y-83124729D01*
X149106737Y-83313082D01*
X149266918Y-83473263D01*
X149455271Y-83599116D01*
X149664557Y-83685806D01*
X149886735Y-83730000D01*
X150113265Y-83730000D01*
X150335443Y-83685806D01*
X150544729Y-83599116D01*
X150733082Y-83473263D01*
X150893263Y-83313082D01*
X151019116Y-83124729D01*
X151105806Y-82915443D01*
X151150000Y-82693265D01*
X151150000Y-82466735D01*
X151105806Y-82244557D01*
X151019116Y-82035271D01*
X150893263Y-81846918D01*
X150733082Y-81686737D01*
X150544729Y-81560884D01*
X150335443Y-81474194D01*
X150113265Y-81430000D01*
X149886735Y-81430000D01*
X149664557Y-81474194D01*
X149455271Y-81560884D01*
X149266918Y-81686737D01*
X149106737Y-81846918D01*
X148980884Y-82035271D01*
X148925000Y-82170186D01*
X148925000Y-80449814D01*
X148980884Y-80584729D01*
X149106737Y-80773082D01*
X149266918Y-80933263D01*
X149455271Y-81059116D01*
X149664557Y-81145806D01*
X149886735Y-81190000D01*
X150113265Y-81190000D01*
X150335443Y-81145806D01*
X150544729Y-81059116D01*
X150733082Y-80933263D01*
X150893263Y-80773082D01*
X151019116Y-80584729D01*
X151105806Y-80375443D01*
X151150000Y-80153265D01*
X151150000Y-79926735D01*
X151105806Y-79704557D01*
X151019116Y-79495271D01*
X150893263Y-79306918D01*
X150733082Y-79146737D01*
X150544729Y-79020884D01*
X150335443Y-78934194D01*
X150113265Y-78890000D01*
X149886735Y-78890000D01*
X149664557Y-78934194D01*
X149455271Y-79020884D01*
X149266918Y-79146737D01*
X149106737Y-79306918D01*
X148980884Y-79495271D01*
X148925000Y-79630186D01*
X148925000Y-78548728D01*
X148936842Y-78563158D01*
X148982523Y-78600647D01*
X149034640Y-78628504D01*
X149091190Y-78645659D01*
X149150000Y-78651451D01*
X150850000Y-78651451D01*
X150908810Y-78645659D01*
X150965360Y-78628504D01*
X151017477Y-78600647D01*
X151063158Y-78563158D01*
X151100647Y-78517477D01*
X151128504Y-78465360D01*
X151145659Y-78408810D01*
X151151451Y-78350000D01*
X151151451Y-76650000D01*
X151145659Y-76591190D01*
X151128504Y-76534640D01*
X151100647Y-76482523D01*
X151063158Y-76436842D01*
X151017477Y-76399353D01*
X150965360Y-76371496D01*
X150908810Y-76354341D01*
X150850000Y-76348549D01*
X149150000Y-76348549D01*
X149091190Y-76354341D01*
X149034640Y-76371496D01*
X148982523Y-76399353D01*
X148936842Y-76436842D01*
X148925000Y-76451272D01*
X148925000Y-71225000D01*
X167925527Y-71225000D01*
X167933935Y-76412860D01*
G37*
X167933935Y-76412860D02*
X167917477Y-76399353D01*
X167865360Y-76371496D01*
X167808810Y-76354341D01*
X167750000Y-76348549D01*
X166050000Y-76348549D01*
X165991190Y-76354341D01*
X165934640Y-76371496D01*
X165882523Y-76399353D01*
X165836842Y-76436842D01*
X165799353Y-76482523D01*
X165771496Y-76534640D01*
X165754341Y-76591190D01*
X165748549Y-76650000D01*
X165748549Y-78350000D01*
X165754341Y-78408810D01*
X165771496Y-78465360D01*
X165799353Y-78517477D01*
X165836842Y-78563158D01*
X165882523Y-78600647D01*
X165934640Y-78628504D01*
X165991190Y-78645659D01*
X166050000Y-78651451D01*
X167750000Y-78651451D01*
X167808810Y-78645659D01*
X167865360Y-78628504D01*
X167917477Y-78600647D01*
X167937454Y-78584252D01*
X167939009Y-79543296D01*
X167919116Y-79495271D01*
X167793263Y-79306918D01*
X167633082Y-79146737D01*
X167444729Y-79020884D01*
X167235443Y-78934194D01*
X167013265Y-78890000D01*
X166786735Y-78890000D01*
X166564557Y-78934194D01*
X166355271Y-79020884D01*
X166166918Y-79146737D01*
X166006737Y-79306918D01*
X165880884Y-79495271D01*
X165794194Y-79704557D01*
X165750000Y-79926735D01*
X165750000Y-80153265D01*
X165794194Y-80375443D01*
X165880884Y-80584729D01*
X166006737Y-80773082D01*
X166166918Y-80933263D01*
X166355271Y-81059116D01*
X166564557Y-81145806D01*
X166786735Y-81190000D01*
X167013265Y-81190000D01*
X167235443Y-81145806D01*
X167444729Y-81059116D01*
X167633082Y-80933263D01*
X167793263Y-80773082D01*
X167919116Y-80584729D01*
X167940612Y-80532832D01*
X167943142Y-82093273D01*
X167919116Y-82035271D01*
X167793263Y-81846918D01*
X167633082Y-81686737D01*
X167444729Y-81560884D01*
X167235443Y-81474194D01*
X167013265Y-81430000D01*
X166786735Y-81430000D01*
X166564557Y-81474194D01*
X166355271Y-81560884D01*
X166166918Y-81686737D01*
X166006737Y-81846918D01*
X165880884Y-82035271D01*
X165794194Y-82244557D01*
X165750000Y-82466735D01*
X165750000Y-82693265D01*
X165794194Y-82915443D01*
X165880884Y-83124729D01*
X166006737Y-83313082D01*
X166166918Y-83473263D01*
X166355271Y-83599116D01*
X166564557Y-83685806D01*
X166786735Y-83730000D01*
X167013265Y-83730000D01*
X167235443Y-83685806D01*
X167444729Y-83599116D01*
X167633082Y-83473263D01*
X167793263Y-83313082D01*
X167919116Y-83124729D01*
X167944713Y-83062933D01*
X167947274Y-84643251D01*
X167919116Y-84575271D01*
X167793263Y-84386918D01*
X167633082Y-84226737D01*
X167444729Y-84100884D01*
X167235443Y-84014194D01*
X167013265Y-83970000D01*
X166786735Y-83970000D01*
X166564557Y-84014194D01*
X166355271Y-84100884D01*
X166166918Y-84226737D01*
X166006737Y-84386918D01*
X165880884Y-84575271D01*
X165808446Y-84750150D01*
X162263578Y-84750150D01*
X161773655Y-84260228D01*
X161785469Y-84248414D01*
X161853868Y-84146048D01*
X161900981Y-84032306D01*
X161925000Y-83911557D01*
X161925000Y-83788443D01*
X161900981Y-83667694D01*
X161853868Y-83553952D01*
X161785469Y-83451586D01*
X161698414Y-83364531D01*
X161596048Y-83296132D01*
X161482306Y-83249019D01*
X161361557Y-83225000D01*
X161238443Y-83225000D01*
X161117694Y-83249019D01*
X161003952Y-83296132D01*
X160901586Y-83364531D01*
X160814531Y-83451586D01*
X160746132Y-83553952D01*
X160699019Y-83667694D01*
X160675000Y-83788443D01*
X160675000Y-83850000D01*
X160588443Y-83850000D01*
X160467694Y-83874019D01*
X160369850Y-83914547D01*
X160369850Y-83729555D01*
X160398414Y-83710469D01*
X160485469Y-83623414D01*
X160553868Y-83521048D01*
X160600981Y-83407306D01*
X160625000Y-83286557D01*
X160625000Y-83163443D01*
X160600981Y-83042694D01*
X160553868Y-82928952D01*
X160485469Y-82826586D01*
X160398414Y-82739531D01*
X160296048Y-82671132D01*
X160182306Y-82624019D01*
X160061557Y-82600000D01*
X159938443Y-82600000D01*
X159817694Y-82624019D01*
X159703952Y-82671132D01*
X159619850Y-82727327D01*
X159619850Y-79904555D01*
X159648414Y-79885469D01*
X159735469Y-79798414D01*
X159803868Y-79696048D01*
X159850981Y-79582306D01*
X159875000Y-79461557D01*
X159875000Y-79338443D01*
X159850981Y-79217694D01*
X159803868Y-79103952D01*
X159735469Y-79001586D01*
X159648414Y-78914531D01*
X159546048Y-78846132D01*
X159432306Y-78799019D01*
X159311557Y-78775000D01*
X159188443Y-78775000D01*
X159067694Y-78799019D01*
X158953952Y-78846132D01*
X158851586Y-78914531D01*
X158764531Y-79001586D01*
X158696132Y-79103952D01*
X158649019Y-79217694D01*
X158625000Y-79338443D01*
X158625000Y-79461557D01*
X158649019Y-79582306D01*
X158696132Y-79696048D01*
X158764531Y-79798414D01*
X158851586Y-79885469D01*
X158880150Y-79904555D01*
X158880151Y-96195444D01*
X158851586Y-96214531D01*
X158764531Y-96301586D01*
X158696132Y-96403952D01*
X158649019Y-96517694D01*
X158625000Y-96638443D01*
X158625000Y-96761557D01*
X158649019Y-96882306D01*
X158696132Y-96996048D01*
X158764531Y-97098414D01*
X158851586Y-97185469D01*
X158953952Y-97253868D01*
X159067694Y-97300981D01*
X159188443Y-97325000D01*
X159311557Y-97325000D01*
X159432306Y-97300981D01*
X159546048Y-97253868D01*
X159648414Y-97185469D01*
X159735469Y-97098414D01*
X159803868Y-96996048D01*
X159850981Y-96882306D01*
X159875000Y-96761557D01*
X159875000Y-96638443D01*
X159850981Y-96517694D01*
X159803868Y-96403952D01*
X159735469Y-96301586D01*
X159648414Y-96214531D01*
X159619850Y-96195445D01*
X159619850Y-95772673D01*
X159703952Y-95828868D01*
X159817694Y-95875981D01*
X159938443Y-95900000D01*
X160061557Y-95900000D01*
X160182306Y-95875981D01*
X160296048Y-95828868D01*
X160398414Y-95760469D01*
X160485469Y-95673414D01*
X160553868Y-95571048D01*
X160600981Y-95457306D01*
X160625000Y-95336557D01*
X160625000Y-95213443D01*
X160600981Y-95092694D01*
X160553868Y-94978952D01*
X160485469Y-94876586D01*
X160398414Y-94789531D01*
X160369850Y-94770445D01*
X160369850Y-93310453D01*
X160467694Y-93350981D01*
X160588443Y-93375000D01*
X160711557Y-93375000D01*
X160832306Y-93350981D01*
X160946048Y-93303868D01*
X161048414Y-93235469D01*
X161135469Y-93148414D01*
X161203868Y-93046048D01*
X161250981Y-92932306D01*
X161275000Y-92811557D01*
X161275000Y-92688443D01*
X161250981Y-92567694D01*
X161203868Y-92453952D01*
X161135469Y-92351586D01*
X161048414Y-92264531D01*
X161019850Y-92245445D01*
X161019850Y-84979555D01*
X161048414Y-84960469D01*
X161135469Y-84873414D01*
X161203868Y-84771048D01*
X161213977Y-84746642D01*
X161836016Y-85368682D01*
X161847593Y-85382788D01*
X161861698Y-85394364D01*
X161861701Y-85394367D01*
X161874789Y-85405108D01*
X161903909Y-85429007D01*
X161968161Y-85463350D01*
X162016729Y-85478083D01*
X162037877Y-85484498D01*
X162044244Y-85485125D01*
X162092217Y-85489850D01*
X162092225Y-85489850D01*
X162110381Y-85491638D01*
X162128537Y-85489850D01*
X165808446Y-85489850D01*
X165880884Y-85664729D01*
X166006737Y-85853082D01*
X166166918Y-86013263D01*
X166355271Y-86139116D01*
X166564557Y-86225806D01*
X166786735Y-86270000D01*
X167013265Y-86270000D01*
X167235443Y-86225806D01*
X167444729Y-86139116D01*
X167633082Y-86013263D01*
X167793263Y-85853082D01*
X167919116Y-85664729D01*
X167948814Y-85593033D01*
X167951407Y-87193228D01*
X167919116Y-87115271D01*
X167793263Y-86926918D01*
X167633082Y-86766737D01*
X167444729Y-86640884D01*
X167235443Y-86554194D01*
X167013265Y-86510000D01*
X166786735Y-86510000D01*
X166564557Y-86554194D01*
X166355271Y-86640884D01*
X166166918Y-86766737D01*
X166006737Y-86926918D01*
X165880884Y-87115271D01*
X165794194Y-87324557D01*
X165750000Y-87546735D01*
X165750000Y-87773265D01*
X165794194Y-87995443D01*
X165880884Y-88204729D01*
X166006737Y-88393082D01*
X166166918Y-88553263D01*
X166355271Y-88679116D01*
X166564557Y-88765806D01*
X166786735Y-88810000D01*
X167013265Y-88810000D01*
X167235443Y-88765806D01*
X167444729Y-88679116D01*
X167633082Y-88553263D01*
X167793263Y-88393082D01*
X167919116Y-88204729D01*
X167952914Y-88123133D01*
X167955540Y-89743206D01*
X167919116Y-89655271D01*
X167793263Y-89466918D01*
X167633082Y-89306737D01*
X167444729Y-89180884D01*
X167235443Y-89094194D01*
X167013265Y-89050000D01*
X166786735Y-89050000D01*
X166564557Y-89094194D01*
X166355271Y-89180884D01*
X166166918Y-89306737D01*
X166006737Y-89466918D01*
X165880884Y-89655271D01*
X165794194Y-89864557D01*
X165750000Y-90086735D01*
X165750000Y-90313265D01*
X165794194Y-90535443D01*
X165880884Y-90744729D01*
X166006737Y-90933082D01*
X166166918Y-91093263D01*
X166355271Y-91219116D01*
X166564557Y-91305806D01*
X166786735Y-91350000D01*
X167013265Y-91350000D01*
X167235443Y-91305806D01*
X167444729Y-91219116D01*
X167633082Y-91093263D01*
X167793263Y-90933082D01*
X167919116Y-90744729D01*
X167957015Y-90653233D01*
X167959673Y-92293183D01*
X167919116Y-92195271D01*
X167793263Y-92006918D01*
X167633082Y-91846737D01*
X167444729Y-91720884D01*
X167235443Y-91634194D01*
X167013265Y-91590000D01*
X166786735Y-91590000D01*
X166564557Y-91634194D01*
X166355271Y-91720884D01*
X166166918Y-91846737D01*
X166006737Y-92006918D01*
X165880884Y-92195271D01*
X165794194Y-92404557D01*
X165750000Y-92626735D01*
X165750000Y-92853265D01*
X165794194Y-93075443D01*
X165880884Y-93284729D01*
X166006737Y-93473082D01*
X166166918Y-93633263D01*
X166355271Y-93759116D01*
X166564557Y-93845806D01*
X166786735Y-93890000D01*
X167013265Y-93890000D01*
X167235443Y-93845806D01*
X167444729Y-93759116D01*
X167633082Y-93633263D01*
X167793263Y-93473082D01*
X167919116Y-93284729D01*
X167961116Y-93183334D01*
X167963806Y-94843161D01*
X167919116Y-94735271D01*
X167793263Y-94546918D01*
X167633082Y-94386737D01*
X167444729Y-94260884D01*
X167235443Y-94174194D01*
X167013265Y-94130000D01*
X166786735Y-94130000D01*
X166564557Y-94174194D01*
X166355271Y-94260884D01*
X166166918Y-94386737D01*
X166006737Y-94546918D01*
X165880884Y-94735271D01*
X165794194Y-94944557D01*
X165750000Y-95166735D01*
X165750000Y-95393265D01*
X165794194Y-95615443D01*
X165880884Y-95824729D01*
X166006737Y-96013082D01*
X166166918Y-96173263D01*
X166355271Y-96299116D01*
X166564557Y-96385806D01*
X166786735Y-96430000D01*
X167013265Y-96430000D01*
X167235443Y-96385806D01*
X167444729Y-96299116D01*
X167633082Y-96173263D01*
X167793263Y-96013082D01*
X167919116Y-95824729D01*
X167965216Y-95713434D01*
X167967939Y-97393139D01*
X167919116Y-97275271D01*
X167793263Y-97086918D01*
X167633082Y-96926737D01*
X167444729Y-96800884D01*
X167235443Y-96714194D01*
X167013265Y-96670000D01*
X166786735Y-96670000D01*
X166564557Y-96714194D01*
X166355271Y-96800884D01*
X166166918Y-96926737D01*
X166006737Y-97086918D01*
X165880884Y-97275271D01*
X165794194Y-97484557D01*
X165750000Y-97706735D01*
X165750000Y-97933265D01*
X165794194Y-98155443D01*
X165880884Y-98364729D01*
X166006737Y-98553082D01*
X166166918Y-98713263D01*
X166355271Y-98839116D01*
X166564557Y-98925806D01*
X166696243Y-98952000D01*
X166695998Y-98952000D01*
X166695998Y-99106348D01*
X166480575Y-99015914D01*
X166226416Y-99123566D01*
X165998142Y-99278733D01*
X165804526Y-99475453D01*
X165653009Y-99706166D01*
X165555922Y-99940576D01*
X165648011Y-100156000D01*
X166696000Y-100156000D01*
X166696000Y-100136000D01*
X167104000Y-100136000D01*
X167104000Y-100156000D01*
X167124000Y-100156000D01*
X167124000Y-100564000D01*
X167104000Y-100564000D01*
X167104000Y-100584000D01*
X166696000Y-100584000D01*
X166696000Y-100564000D01*
X165648011Y-100564000D01*
X165555922Y-100779424D01*
X165653009Y-101013834D01*
X165804526Y-101244547D01*
X165982132Y-101425000D01*
X150433956Y-101425000D01*
X150544729Y-101379116D01*
X150733082Y-101253263D01*
X150893263Y-101093082D01*
X151019116Y-100904729D01*
X151091554Y-100729850D01*
X151821844Y-100729850D01*
X151840000Y-100731638D01*
X151858156Y-100729850D01*
X151858164Y-100729850D01*
X151912503Y-100724498D01*
X151982220Y-100703350D01*
X152046472Y-100669007D01*
X152102788Y-100622788D01*
X152114369Y-100608677D01*
X152398682Y-100324365D01*
X152412788Y-100312788D01*
X152459007Y-100256472D01*
X152493350Y-100192220D01*
X152514498Y-100122503D01*
X152519850Y-100068164D01*
X152519850Y-100068157D01*
X152521638Y-100050001D01*
X152519850Y-100031845D01*
X152519850Y-97738443D01*
X163199982Y-97738443D01*
X163199982Y-97861557D01*
X163224001Y-97982306D01*
X163271114Y-98096048D01*
X163339513Y-98198414D01*
X163426568Y-98285469D01*
X163528934Y-98353868D01*
X163642676Y-98400981D01*
X163763425Y-98425000D01*
X163886539Y-98425000D01*
X164007288Y-98400981D01*
X164121030Y-98353868D01*
X164223396Y-98285469D01*
X164310451Y-98198414D01*
X164378850Y-98096048D01*
X164425963Y-97982306D01*
X164449982Y-97861557D01*
X164449982Y-97738443D01*
X164425963Y-97617694D01*
X164378850Y-97503952D01*
X164310451Y-97401586D01*
X164223396Y-97314531D01*
X164194850Y-97295457D01*
X164194850Y-89399488D01*
X164207478Y-89391050D01*
X164291050Y-89307478D01*
X164356713Y-89209207D01*
X164401942Y-89100014D01*
X164425000Y-88984095D01*
X164425000Y-88865905D01*
X164401942Y-88749986D01*
X164356713Y-88640793D01*
X164291050Y-88542522D01*
X164207478Y-88458950D01*
X164109207Y-88393287D01*
X164000014Y-88348058D01*
X163884095Y-88325000D01*
X163765905Y-88325000D01*
X163649986Y-88348058D01*
X163540793Y-88393287D01*
X163442522Y-88458950D01*
X163358950Y-88542522D01*
X163293287Y-88640793D01*
X163248058Y-88749986D01*
X163225000Y-88865905D01*
X163225000Y-88984095D01*
X163248058Y-89100014D01*
X163293287Y-89209207D01*
X163358950Y-89307478D01*
X163442522Y-89391050D01*
X163455150Y-89399488D01*
X163455151Y-97295432D01*
X163426568Y-97314531D01*
X163339513Y-97401586D01*
X163271114Y-97503952D01*
X163224001Y-97617694D01*
X163199982Y-97738443D01*
X152519850Y-97738443D01*
X152519850Y-79978443D01*
X154985000Y-79978443D01*
X154985000Y-80101557D01*
X155009019Y-80222306D01*
X155056132Y-80336048D01*
X155124531Y-80438414D01*
X155211586Y-80525469D01*
X155240150Y-80544555D01*
X155240151Y-94775444D01*
X155211586Y-94794531D01*
X155124531Y-94881586D01*
X155056132Y-94983952D01*
X155009019Y-95097694D01*
X154985000Y-95218443D01*
X154985000Y-95341557D01*
X155009019Y-95462306D01*
X155056132Y-95576048D01*
X155124531Y-95678414D01*
X155211586Y-95765469D01*
X155313952Y-95833868D01*
X155427694Y-95880981D01*
X155548443Y-95905000D01*
X155671557Y-95905000D01*
X155792306Y-95880981D01*
X155906048Y-95833868D01*
X156008414Y-95765469D01*
X156095469Y-95678414D01*
X156163868Y-95576048D01*
X156210981Y-95462306D01*
X156235000Y-95341557D01*
X156235000Y-95218443D01*
X156210981Y-95097694D01*
X156163868Y-94983952D01*
X156095469Y-94881586D01*
X156008414Y-94794531D01*
X155979850Y-94775445D01*
X155979850Y-85038443D01*
X156125000Y-85038443D01*
X156125000Y-85161557D01*
X156149019Y-85282306D01*
X156196132Y-85396048D01*
X156264531Y-85498414D01*
X156351586Y-85585469D01*
X156380150Y-85604555D01*
X156380151Y-89695444D01*
X156351586Y-89714531D01*
X156264531Y-89801586D01*
X156196132Y-89903952D01*
X156149019Y-90017694D01*
X156125000Y-90138443D01*
X156125000Y-90261557D01*
X156149019Y-90382306D01*
X156196132Y-90496048D01*
X156264531Y-90598414D01*
X156351586Y-90685469D01*
X156453952Y-90753868D01*
X156567694Y-90800981D01*
X156688443Y-90825000D01*
X156811557Y-90825000D01*
X156932306Y-90800981D01*
X157046048Y-90753868D01*
X157080150Y-90731082D01*
X157080150Y-92245445D01*
X157051586Y-92264531D01*
X156964531Y-92351586D01*
X156896132Y-92453952D01*
X156849019Y-92567694D01*
X156825000Y-92688443D01*
X156825000Y-92811557D01*
X156849019Y-92932306D01*
X156896132Y-93046048D01*
X156964531Y-93148414D01*
X157051586Y-93235469D01*
X157153952Y-93303868D01*
X157267694Y-93350981D01*
X157388443Y-93375000D01*
X157511557Y-93375000D01*
X157632306Y-93350981D01*
X157746048Y-93303868D01*
X157848414Y-93235469D01*
X157935469Y-93148414D01*
X158003868Y-93046048D01*
X158050981Y-92932306D01*
X158075000Y-92811557D01*
X158075000Y-92688443D01*
X158050981Y-92567694D01*
X158003868Y-92453952D01*
X157935469Y-92351586D01*
X157848414Y-92264531D01*
X157819850Y-92245445D01*
X157819850Y-81804555D01*
X157848414Y-81785469D01*
X157935469Y-81698414D01*
X158003868Y-81596048D01*
X158050981Y-81482306D01*
X158075000Y-81361557D01*
X158075000Y-81238443D01*
X158050981Y-81117694D01*
X158003868Y-81003952D01*
X157935469Y-80901586D01*
X157848414Y-80814531D01*
X157746048Y-80746132D01*
X157632306Y-80699019D01*
X157511557Y-80675000D01*
X157388443Y-80675000D01*
X157267694Y-80699019D01*
X157153952Y-80746132D01*
X157051586Y-80814531D01*
X156964531Y-80901586D01*
X156896132Y-81003952D01*
X156849019Y-81117694D01*
X156825000Y-81238443D01*
X156825000Y-81361557D01*
X156849019Y-81482306D01*
X156896132Y-81596048D01*
X156964531Y-81698414D01*
X157051586Y-81785469D01*
X157080151Y-81804556D01*
X157080151Y-84568919D01*
X157046048Y-84546132D01*
X156932306Y-84499019D01*
X156811557Y-84475000D01*
X156688443Y-84475000D01*
X156567694Y-84499019D01*
X156453952Y-84546132D01*
X156351586Y-84614531D01*
X156264531Y-84701586D01*
X156196132Y-84803952D01*
X156149019Y-84917694D01*
X156125000Y-85038443D01*
X155979850Y-85038443D01*
X155979850Y-80544555D01*
X156008414Y-80525469D01*
X156095469Y-80438414D01*
X156163868Y-80336048D01*
X156210981Y-80222306D01*
X156235000Y-80101557D01*
X156235000Y-79978443D01*
X156210981Y-79857694D01*
X156163868Y-79743952D01*
X156095469Y-79641586D01*
X156008414Y-79554531D01*
X155906048Y-79486132D01*
X155792306Y-79439019D01*
X155671557Y-79415000D01*
X155548443Y-79415000D01*
X155427694Y-79439019D01*
X155313952Y-79486132D01*
X155211586Y-79554531D01*
X155124531Y-79641586D01*
X155056132Y-79743952D01*
X155009019Y-79857694D01*
X154985000Y-79978443D01*
X152519850Y-79978443D01*
X152519850Y-77154555D01*
X152548414Y-77135469D01*
X152635469Y-77048414D01*
X152703868Y-76946048D01*
X152750981Y-76832306D01*
X152775000Y-76711557D01*
X152775000Y-76588443D01*
X152750981Y-76467694D01*
X152703868Y-76353952D01*
X152635469Y-76251586D01*
X152548414Y-76164531D01*
X152446048Y-76096132D01*
X152332306Y-76049019D01*
X152211557Y-76025000D01*
X152088443Y-76025000D01*
X151967694Y-76049019D01*
X151853952Y-76096132D01*
X151751586Y-76164531D01*
X151664531Y-76251586D01*
X151596132Y-76353952D01*
X151549019Y-76467694D01*
X151525000Y-76588443D01*
X151525000Y-76711557D01*
X151549019Y-76832306D01*
X151596132Y-76946048D01*
X151664531Y-77048414D01*
X151751586Y-77135469D01*
X151780150Y-77154555D01*
X151780151Y-99896802D01*
X151686804Y-99990150D01*
X151091554Y-99990150D01*
X151019116Y-99815271D01*
X150893263Y-99626918D01*
X150733082Y-99466737D01*
X150544729Y-99340884D01*
X150335443Y-99254194D01*
X150113265Y-99210000D01*
X149886735Y-99210000D01*
X149664557Y-99254194D01*
X149455271Y-99340884D01*
X149266918Y-99466737D01*
X149106737Y-99626918D01*
X148980884Y-99815271D01*
X148925000Y-99950186D01*
X148925000Y-98229814D01*
X148980884Y-98364729D01*
X149106737Y-98553082D01*
X149266918Y-98713263D01*
X149455271Y-98839116D01*
X149664557Y-98925806D01*
X149886735Y-98970000D01*
X150113265Y-98970000D01*
X150335443Y-98925806D01*
X150544729Y-98839116D01*
X150733082Y-98713263D01*
X150893263Y-98553082D01*
X151019116Y-98364729D01*
X151105806Y-98155443D01*
X151150000Y-97933265D01*
X151150000Y-97706735D01*
X151105806Y-97484557D01*
X151019116Y-97275271D01*
X150893263Y-97086918D01*
X150733082Y-96926737D01*
X150544729Y-96800884D01*
X150335443Y-96714194D01*
X150113265Y-96670000D01*
X149886735Y-96670000D01*
X149664557Y-96714194D01*
X149455271Y-96800884D01*
X149266918Y-96926737D01*
X149106737Y-97086918D01*
X148980884Y-97275271D01*
X148925000Y-97410186D01*
X148925000Y-95689814D01*
X148980884Y-95824729D01*
X149106737Y-96013082D01*
X149266918Y-96173263D01*
X149455271Y-96299116D01*
X149664557Y-96385806D01*
X149886735Y-96430000D01*
X150113265Y-96430000D01*
X150335443Y-96385806D01*
X150544729Y-96299116D01*
X150733082Y-96173263D01*
X150893263Y-96013082D01*
X151019116Y-95824729D01*
X151105806Y-95615443D01*
X151150000Y-95393265D01*
X151150000Y-95166735D01*
X151105806Y-94944557D01*
X151019116Y-94735271D01*
X150893263Y-94546918D01*
X150733082Y-94386737D01*
X150544729Y-94260884D01*
X150335443Y-94174194D01*
X150113265Y-94130000D01*
X149886735Y-94130000D01*
X149664557Y-94174194D01*
X149455271Y-94260884D01*
X149266918Y-94386737D01*
X149106737Y-94546918D01*
X148980884Y-94735271D01*
X148925000Y-94870186D01*
X148925000Y-93149814D01*
X148980884Y-93284729D01*
X149106737Y-93473082D01*
X149266918Y-93633263D01*
X149455271Y-93759116D01*
X149664557Y-93845806D01*
X149886735Y-93890000D01*
X150113265Y-93890000D01*
X150335443Y-93845806D01*
X150544729Y-93759116D01*
X150733082Y-93633263D01*
X150893263Y-93473082D01*
X151019116Y-93284729D01*
X151105806Y-93075443D01*
X151150000Y-92853265D01*
X151150000Y-92626735D01*
X151105806Y-92404557D01*
X151019116Y-92195271D01*
X150893263Y-92006918D01*
X150733082Y-91846737D01*
X150544729Y-91720884D01*
X150335443Y-91634194D01*
X150113265Y-91590000D01*
X149886735Y-91590000D01*
X149664557Y-91634194D01*
X149455271Y-91720884D01*
X149266918Y-91846737D01*
X149106737Y-92006918D01*
X148980884Y-92195271D01*
X148925000Y-92330186D01*
X148925000Y-90609814D01*
X148980884Y-90744729D01*
X149106737Y-90933082D01*
X149266918Y-91093263D01*
X149455271Y-91219116D01*
X149664557Y-91305806D01*
X149886735Y-91350000D01*
X150113265Y-91350000D01*
X150335443Y-91305806D01*
X150544729Y-91219116D01*
X150733082Y-91093263D01*
X150893263Y-90933082D01*
X151019116Y-90744729D01*
X151105806Y-90535443D01*
X151150000Y-90313265D01*
X151150000Y-90086735D01*
X151105806Y-89864557D01*
X151019116Y-89655271D01*
X150893263Y-89466918D01*
X150733082Y-89306737D01*
X150544729Y-89180884D01*
X150335443Y-89094194D01*
X150113265Y-89050000D01*
X149886735Y-89050000D01*
X149664557Y-89094194D01*
X149455271Y-89180884D01*
X149266918Y-89306737D01*
X149106737Y-89466918D01*
X148980884Y-89655271D01*
X148925000Y-89790186D01*
X148925000Y-88069814D01*
X148980884Y-88204729D01*
X149106737Y-88393082D01*
X149266918Y-88553263D01*
X149455271Y-88679116D01*
X149664557Y-88765806D01*
X149886735Y-88810000D01*
X150113265Y-88810000D01*
X150335443Y-88765806D01*
X150544729Y-88679116D01*
X150733082Y-88553263D01*
X150893263Y-88393082D01*
X151019116Y-88204729D01*
X151105806Y-87995443D01*
X151150000Y-87773265D01*
X151150000Y-87546735D01*
X151105806Y-87324557D01*
X151019116Y-87115271D01*
X150893263Y-86926918D01*
X150733082Y-86766737D01*
X150544729Y-86640884D01*
X150335443Y-86554194D01*
X150113265Y-86510000D01*
X149886735Y-86510000D01*
X149664557Y-86554194D01*
X149455271Y-86640884D01*
X149266918Y-86766737D01*
X149106737Y-86926918D01*
X148980884Y-87115271D01*
X148925000Y-87250186D01*
X148925000Y-85529814D01*
X148980884Y-85664729D01*
X149106737Y-85853082D01*
X149266918Y-86013263D01*
X149455271Y-86139116D01*
X149664557Y-86225806D01*
X149886735Y-86270000D01*
X150113265Y-86270000D01*
X150335443Y-86225806D01*
X150544729Y-86139116D01*
X150733082Y-86013263D01*
X150893263Y-85853082D01*
X151019116Y-85664729D01*
X151105806Y-85455443D01*
X151150000Y-85233265D01*
X151150000Y-85006735D01*
X151105806Y-84784557D01*
X151019116Y-84575271D01*
X150893263Y-84386918D01*
X150733082Y-84226737D01*
X150544729Y-84100884D01*
X150335443Y-84014194D01*
X150113265Y-83970000D01*
X149886735Y-83970000D01*
X149664557Y-84014194D01*
X149455271Y-84100884D01*
X149266918Y-84226737D01*
X149106737Y-84386918D01*
X148980884Y-84575271D01*
X148925000Y-84710186D01*
X148925000Y-82989814D01*
X148980884Y-83124729D01*
X149106737Y-83313082D01*
X149266918Y-83473263D01*
X149455271Y-83599116D01*
X149664557Y-83685806D01*
X149886735Y-83730000D01*
X150113265Y-83730000D01*
X150335443Y-83685806D01*
X150544729Y-83599116D01*
X150733082Y-83473263D01*
X150893263Y-83313082D01*
X151019116Y-83124729D01*
X151105806Y-82915443D01*
X151150000Y-82693265D01*
X151150000Y-82466735D01*
X151105806Y-82244557D01*
X151019116Y-82035271D01*
X150893263Y-81846918D01*
X150733082Y-81686737D01*
X150544729Y-81560884D01*
X150335443Y-81474194D01*
X150113265Y-81430000D01*
X149886735Y-81430000D01*
X149664557Y-81474194D01*
X149455271Y-81560884D01*
X149266918Y-81686737D01*
X149106737Y-81846918D01*
X148980884Y-82035271D01*
X148925000Y-82170186D01*
X148925000Y-80449814D01*
X148980884Y-80584729D01*
X149106737Y-80773082D01*
X149266918Y-80933263D01*
X149455271Y-81059116D01*
X149664557Y-81145806D01*
X149886735Y-81190000D01*
X150113265Y-81190000D01*
X150335443Y-81145806D01*
X150544729Y-81059116D01*
X150733082Y-80933263D01*
X150893263Y-80773082D01*
X151019116Y-80584729D01*
X151105806Y-80375443D01*
X151150000Y-80153265D01*
X151150000Y-79926735D01*
X151105806Y-79704557D01*
X151019116Y-79495271D01*
X150893263Y-79306918D01*
X150733082Y-79146737D01*
X150544729Y-79020884D01*
X150335443Y-78934194D01*
X150113265Y-78890000D01*
X149886735Y-78890000D01*
X149664557Y-78934194D01*
X149455271Y-79020884D01*
X149266918Y-79146737D01*
X149106737Y-79306918D01*
X148980884Y-79495271D01*
X148925000Y-79630186D01*
X148925000Y-78548728D01*
X148936842Y-78563158D01*
X148982523Y-78600647D01*
X149034640Y-78628504D01*
X149091190Y-78645659D01*
X149150000Y-78651451D01*
X150850000Y-78651451D01*
X150908810Y-78645659D01*
X150965360Y-78628504D01*
X151017477Y-78600647D01*
X151063158Y-78563158D01*
X151100647Y-78517477D01*
X151128504Y-78465360D01*
X151145659Y-78408810D01*
X151151451Y-78350000D01*
X151151451Y-76650000D01*
X151145659Y-76591190D01*
X151128504Y-76534640D01*
X151100647Y-76482523D01*
X151063158Y-76436842D01*
X151017477Y-76399353D01*
X150965360Y-76371496D01*
X150908810Y-76354341D01*
X150850000Y-76348549D01*
X149150000Y-76348549D01*
X149091190Y-76354341D01*
X149034640Y-76371496D01*
X148982523Y-76399353D01*
X148936842Y-76436842D01*
X148925000Y-76451272D01*
X148925000Y-71225000D01*
X167925527Y-71225000D01*
X167933935Y-76412860D01*
M02*
