G04 #@! TF.GenerationSoftware,KiCad,Pcbnew,(5.1.5)-3*
G04 #@! TF.CreationDate,2020-02-07T13:22:38-05:00*
G04 #@! TF.ProjectId,Flash Memory BoB,466c6173-6820-44d6-956d-6f727920426f,rev?*
G04 #@! TF.SameCoordinates,Original*
G04 #@! TF.FileFunction,Paste,Top*
G04 #@! TF.FilePolarity,Positive*
%FSLAX46Y46*%
G04 Gerber Fmt 4.6, Leading zero omitted, Abs format (unit mm)*
G04 Created by KiCad (PCBNEW (5.1.5)-3) date 2020-02-07 13:22:38*
%MOMM*%
%LPD*%
G04 APERTURE LIST*
%ADD10R,1.200899X0.239400*%
G04 APERTURE END LIST*
D10*
X120646048Y-58249999D03*
X120646048Y-58750000D03*
X120646048Y-59249999D03*
X120646048Y-59750001D03*
X120646048Y-60250000D03*
X120646048Y-60749999D03*
X120646048Y-61250000D03*
X120646048Y-61749999D03*
X120646048Y-62250001D03*
X120646048Y-62750000D03*
X120646048Y-63249999D03*
X120646048Y-63750000D03*
X120646048Y-64250000D03*
X120646048Y-64749998D03*
X120646048Y-65250000D03*
X120646048Y-65749999D03*
X120646048Y-66250001D03*
X120646048Y-66750000D03*
X120646048Y-67249999D03*
X120646048Y-67750000D03*
X120646048Y-68249999D03*
X120646048Y-68750001D03*
X120646048Y-69250000D03*
X120646048Y-69749999D03*
X100953952Y-69750001D03*
X100953952Y-69250000D03*
X100953952Y-68750001D03*
X100953952Y-68249999D03*
X100953952Y-67750000D03*
X100953952Y-67250001D03*
X100953952Y-66750000D03*
X100953952Y-66250001D03*
X100953952Y-65749999D03*
X100953952Y-65250000D03*
X100953952Y-64750001D03*
X100953952Y-64250000D03*
X100953952Y-63750000D03*
X100953952Y-63249999D03*
X100953952Y-62750000D03*
X100953952Y-62250001D03*
X100953952Y-61749999D03*
X100953952Y-61250000D03*
X100953952Y-60749999D03*
X100953952Y-60250000D03*
X100953952Y-59750001D03*
X100953952Y-59249999D03*
X100953952Y-58750000D03*
X100953952Y-58250001D03*
M02*
