G04 #@! TF.GenerationSoftware,KiCad,Pcbnew,(5.1.5)-3*
G04 #@! TF.CreationDate,2020-03-06T02:38:52-05:00*
G04 #@! TF.ProjectId,SingleBoard,53696e67-6c65-4426-9f61-72642e6b6963,rev?*
G04 #@! TF.SameCoordinates,Original*
G04 #@! TF.FileFunction,Copper,L1,Top*
G04 #@! TF.FilePolarity,Positive*
%FSLAX46Y46*%
G04 Gerber Fmt 4.6, Leading zero omitted, Abs format (unit mm)*
G04 Created by KiCad (PCBNEW (5.1.5)-3) date 2020-03-06 02:38:52*
%MOMM*%
%LPD*%
G04 APERTURE LIST*
%ADD10C,0.304800*%
%ADD11R,1.200899X0.239400*%
%ADD12O,1.700000X1.700000*%
%ADD13R,1.700000X1.700000*%
%ADD14C,0.250000*%
%ADD15C,0.100000*%
G04 APERTURE END LIST*
D10*
X114778760Y-84742700D02*
X115108960Y-84610620D01*
X114499360Y-85171960D02*
X114778760Y-84742700D01*
X114169160Y-85710440D02*
X114499360Y-85171960D01*
X113658620Y-86541020D02*
X114169160Y-85710440D01*
X112190500Y-87511300D02*
X112800100Y-86980440D01*
X111679960Y-88021840D02*
X112190500Y-87511300D01*
X111370080Y-88682240D02*
X111679960Y-88021840D01*
X111138940Y-88372360D02*
X111370080Y-88682240D01*
X111298960Y-87592580D02*
X111138940Y-88372360D01*
X112309880Y-86322580D02*
X111298960Y-87592580D01*
X112459740Y-85812040D02*
X112309880Y-86322580D01*
X111598680Y-84722380D02*
X112459740Y-85812040D01*
X111370080Y-84872240D02*
X111598680Y-84722380D01*
X110529340Y-85502160D02*
X111370080Y-84872240D01*
X110280420Y-85832360D02*
X110529340Y-85502160D01*
X110229620Y-85880620D02*
X110280420Y-85832360D01*
X110150880Y-86421640D02*
X110229620Y-85880620D01*
X110150880Y-87480820D02*
X110150880Y-86421640D01*
X110379480Y-88352040D02*
X110150880Y-87480820D01*
X110008640Y-88771140D02*
X110379480Y-88352040D01*
X109510800Y-87102360D02*
X110008640Y-88771140D01*
X109620020Y-85420880D02*
X109510800Y-87102360D01*
X111349760Y-83350780D02*
X110120400Y-84862080D01*
X113249680Y-82682760D02*
X111349760Y-83350780D01*
X114199640Y-82400820D02*
X113249680Y-82682760D01*
X112309880Y-87460500D02*
X112568960Y-87811020D01*
X112078740Y-88171700D02*
X112109220Y-88171700D01*
X111779020Y-87991360D02*
X112078740Y-88171700D01*
X113610360Y-86652780D02*
X113678940Y-86622300D01*
X116960620Y-88471420D02*
X113610360Y-86652780D01*
X115159760Y-84691900D02*
X116960620Y-88471420D01*
X110100080Y-84841760D02*
X110130560Y-84841760D01*
X109239020Y-84412500D02*
X110100080Y-84841760D01*
X112210820Y-78621300D02*
X109239020Y-84412500D01*
X114090420Y-82352560D02*
X112210820Y-78621300D01*
X116909820Y-89390900D02*
X112868680Y-87181100D01*
X106848880Y-89312160D02*
X116909820Y-89390900D01*
X108908820Y-85151640D02*
X106848880Y-89312160D01*
X109538740Y-85431040D02*
X108908820Y-85151640D01*
X111700280Y-86441960D02*
X111928880Y-86571500D01*
X111271020Y-86980440D02*
X111700280Y-86441960D01*
X111298960Y-86370840D02*
X111271020Y-86980440D01*
X110859540Y-86162560D02*
X111298960Y-86370840D01*
X110989080Y-87562100D02*
X110859540Y-86162560D01*
X110890020Y-87871980D02*
X110989080Y-87562100D01*
X110610620Y-87640840D02*
X110890020Y-87871980D01*
X110481080Y-86802640D02*
X110610620Y-87640840D01*
X110481080Y-85860300D02*
X110481080Y-86802640D01*
X112060960Y-85911100D02*
X112238760Y-86142240D01*
X111580900Y-85382780D02*
X112060960Y-85911100D01*
X111220220Y-85502160D02*
X111580900Y-85382780D01*
X110890020Y-85352300D02*
X111220220Y-85502160D01*
X111911100Y-79332500D02*
X112949960Y-80071640D01*
X111649480Y-79942100D02*
X113579880Y-81341640D01*
X111250700Y-80602500D02*
X113859280Y-82352560D01*
X110989080Y-81130820D02*
X113198880Y-82581160D01*
X110641100Y-81770900D02*
X112459740Y-82911360D01*
X111550420Y-83190760D02*
X111580900Y-83190760D01*
X110280420Y-82400820D02*
X111550420Y-83190760D01*
X109950220Y-83040900D02*
X110968760Y-83731780D01*
X110689360Y-84181360D02*
X110689360Y-84161040D01*
X109769880Y-83551440D02*
X110689360Y-84181360D01*
X109490480Y-84031500D02*
X110310900Y-84511560D01*
X114700020Y-84971300D02*
X115540760Y-85601220D01*
X114451100Y-85431040D02*
X116099560Y-86721360D01*
X114120900Y-86040640D02*
X116378960Y-87381760D01*
X108629420Y-85662180D02*
X109371100Y-86060960D01*
X108449080Y-86162560D02*
X109520960Y-86751840D01*
X108250960Y-86652780D02*
X109538740Y-87381760D01*
X109589540Y-87991360D02*
X109620020Y-87991360D01*
X107969020Y-87201420D02*
X109589540Y-87991360D01*
X107659140Y-87661160D02*
X110859540Y-89312160D01*
X107440700Y-88222500D02*
X109820680Y-89360420D01*
X107229880Y-88750820D02*
X108350020Y-89342640D01*
X110460760Y-88372360D02*
X111979680Y-89390900D01*
X113021080Y-89312160D02*
X113049020Y-89312160D01*
X111649480Y-88301240D02*
X113021080Y-89312160D01*
X112238760Y-87841500D02*
X114169160Y-89291840D01*
X115258820Y-89312160D02*
X115279140Y-89312160D01*
X112520700Y-87460500D02*
X115258820Y-89312160D01*
X111349760Y-85070360D02*
X112060960Y-85580900D01*
X107539760Y-90041140D02*
X107969020Y-91311140D01*
X107130820Y-91311140D02*
X107539760Y-90041140D01*
X107250200Y-90960620D02*
X107849640Y-90970780D01*
X108210320Y-90048760D02*
X108891040Y-90041140D01*
X109221240Y-90041140D02*
X109858780Y-90030980D01*
X108550680Y-90048760D02*
X108581160Y-91280660D01*
X109538740Y-91311140D02*
X109531120Y-90058920D01*
X110338840Y-91280660D02*
X110349000Y-91280660D01*
X110338840Y-90048760D02*
X110338840Y-91280660D01*
X110349000Y-90048760D02*
X110859540Y-90048760D01*
X110379480Y-90650740D02*
X110399800Y-90650740D01*
X110801120Y-90640580D02*
X110379480Y-90650740D01*
X110359160Y-91300980D02*
X110369320Y-91300980D01*
X110900180Y-91318760D02*
X110359160Y-91300980D01*
X112190500Y-91290820D02*
X112190500Y-90058920D01*
X111479300Y-90089400D02*
X112190500Y-91290820D01*
X111489460Y-91328920D02*
X111479300Y-90089400D01*
X112609600Y-90041140D02*
X113310640Y-90041140D01*
X112970280Y-90069080D02*
X112990600Y-91280660D01*
X113780540Y-90030980D02*
X113770380Y-91290820D01*
X114430780Y-90180840D02*
X114639060Y-90058920D01*
X114319020Y-90389120D02*
X114430780Y-90180840D01*
X114319020Y-90709160D02*
X114319020Y-90389120D01*
X114430780Y-91140960D02*
X114319020Y-90709160D01*
X114600960Y-91280660D02*
X114430780Y-91140960D01*
X114809240Y-91300980D02*
X114600960Y-91280660D01*
X115040380Y-91189220D02*
X114809240Y-91300980D01*
X115149600Y-90970780D02*
X115040380Y-91189220D01*
X115159760Y-90671060D02*
X115149600Y-90970780D01*
X115149600Y-90330700D02*
X115159760Y-90671060D01*
X114979420Y-90119880D02*
X115149600Y-90330700D01*
X114750820Y-90048760D02*
X114979420Y-90119880D01*
X116439920Y-91300980D02*
X116429760Y-90069080D01*
X115721100Y-90099560D02*
X116439920Y-91300980D01*
X115710940Y-91290820D02*
X115721100Y-90099560D01*
X105850660Y-92111240D02*
X105210580Y-92111240D01*
X105200420Y-93371080D02*
X105789700Y-93371080D01*
X105210580Y-92111240D02*
X105200420Y-93371080D01*
X105629680Y-92731000D02*
X105251220Y-92720840D01*
X106361200Y-93371080D02*
X106950480Y-93371080D01*
X106368820Y-92101080D02*
X106361200Y-93371080D01*
X107389900Y-93381240D02*
X107958860Y-93381240D01*
X107389900Y-92118860D02*
X107389900Y-93381240D01*
X107440700Y-92731000D02*
X107791220Y-92731000D01*
X107389900Y-92118860D02*
X107958860Y-92118860D01*
X107400060Y-92129020D02*
X107389900Y-92118860D01*
X108880880Y-93371080D02*
X109228860Y-93289800D01*
X108670060Y-93269480D02*
X108880880Y-93371080D01*
X108510040Y-93020560D02*
X108670060Y-93269480D01*
X108489720Y-92659880D02*
X108510040Y-93020560D01*
X108588780Y-92289040D02*
X108489720Y-92659880D01*
X108840240Y-92139180D02*
X108588780Y-92289040D01*
X109061220Y-92139180D02*
X108840240Y-92139180D01*
X109299980Y-92250940D02*
X109061220Y-92139180D01*
X109650500Y-92118860D02*
X110321060Y-92118860D01*
X109950220Y-92499860D02*
X109970540Y-93371080D01*
X109970540Y-92129020D02*
X109990860Y-92129020D01*
X109960380Y-92520180D02*
X109970540Y-92129020D01*
X110829060Y-92779260D02*
X110839220Y-92779260D01*
X111230380Y-92779260D02*
X110829060Y-92779260D01*
X111400560Y-92690360D02*
X111230380Y-92779260D01*
X111489460Y-92499860D02*
X111400560Y-92690360D01*
X111400560Y-92240780D02*
X111489460Y-92499860D01*
X111210060Y-92129020D02*
X111400560Y-92240780D01*
X110770640Y-92139180D02*
X111210060Y-92129020D01*
X110770640Y-93360920D02*
X110770640Y-92139180D01*
X111121160Y-92819900D02*
X111479300Y-93360920D01*
X112180340Y-92179820D02*
X112360680Y-92169660D01*
X112030480Y-92370320D02*
X112180340Y-92179820D01*
X111959360Y-92789420D02*
X112030480Y-92370320D01*
X112030480Y-93109460D02*
X111959360Y-92789420D01*
X112238760Y-93371080D02*
X112030480Y-93109460D01*
X112459740Y-93381240D02*
X112238760Y-93371080D01*
X112650240Y-93330440D02*
X112459740Y-93381240D01*
X112769620Y-93170420D02*
X112650240Y-93330440D01*
X112840740Y-92789420D02*
X112769620Y-93170420D01*
X112779780Y-92421120D02*
X112840740Y-92789420D01*
X112640080Y-92200140D02*
X112779780Y-92421120D01*
X112391160Y-92129020D02*
X112640080Y-92200140D01*
X113630680Y-93399020D02*
X113320800Y-93360920D01*
X113879600Y-93320280D02*
X113630680Y-93399020D01*
X114029460Y-93150100D02*
X113879600Y-93320280D01*
X113920240Y-92880860D02*
X114029460Y-93150100D01*
X113668780Y-92769100D02*
X113920240Y-92880860D01*
X113369060Y-92609080D02*
X113668780Y-92769100D01*
X113310640Y-92421120D02*
X113369060Y-92609080D01*
X113450340Y-92169660D02*
X113310640Y-92421120D01*
X113811020Y-92111240D02*
X113450340Y-92169660D01*
X114039620Y-92179820D02*
X113811020Y-92111240D01*
X114430780Y-92118860D02*
X115081020Y-92118860D01*
X114740660Y-92129020D02*
X114760980Y-93371080D01*
X115799840Y-92149340D02*
X116201160Y-93371080D01*
X115380740Y-93381240D02*
X115799840Y-92149340D01*
X115510280Y-93020560D02*
X116041140Y-93020560D01*
X116460240Y-92149340D02*
X117151120Y-92139180D01*
X116800600Y-92149340D02*
X116831080Y-93371080D01*
X117631180Y-92111240D02*
X117631180Y-93340600D01*
X118741160Y-93360920D02*
X118918960Y-93249160D01*
X118449060Y-93360920D02*
X118741160Y-93360920D01*
X118200140Y-93160260D02*
X118449060Y-93360920D01*
X118149340Y-92758940D02*
X118200140Y-93160260D01*
X118240780Y-92339840D02*
X118149340Y-92758940D01*
X118479540Y-92139180D02*
X118240780Y-92339840D01*
X118710680Y-92118860D02*
X118479540Y-92139180D01*
X118979920Y-92271260D02*
X118710680Y-92118860D01*
X107638820Y-95489440D02*
X107570240Y-95469120D01*
X107979180Y-95550400D02*
X107638820Y-95489440D01*
X108210320Y-95441180D02*
X107979180Y-95550400D01*
X108261120Y-95169400D02*
X108210320Y-95441180D01*
X108129040Y-94961120D02*
X108261120Y-95169400D01*
X107798840Y-94829040D02*
X108129040Y-94961120D01*
X107570240Y-94709660D02*
X107798840Y-94829040D01*
X107549920Y-94498840D02*
X107570240Y-94709660D01*
X107781060Y-94270240D02*
X107549920Y-94498840D01*
X108090940Y-94260080D02*
X107781060Y-94270240D01*
X108299220Y-94321040D02*
X108090940Y-94260080D01*
X109399040Y-94260080D02*
X108850400Y-94260080D01*
X109228860Y-94839200D02*
X108830080Y-94829040D01*
X108840240Y-95499600D02*
X108819920Y-94270240D01*
X109439680Y-95530080D02*
X108840240Y-95499600D01*
X110679200Y-95509760D02*
X110679200Y-94270240D01*
X109990860Y-94331200D02*
X110679200Y-95509760D01*
X109990860Y-95499600D02*
X109990860Y-94331200D01*
X111550420Y-95509760D02*
X111281180Y-95469120D01*
X111789180Y-95489440D02*
X111550420Y-95509760D01*
X111959360Y-95288780D02*
X111789180Y-95489440D01*
X111928880Y-95090660D02*
X111959360Y-95288780D01*
X111761240Y-94940800D02*
X111928880Y-95090660D01*
X111540260Y-94869680D02*
X111761240Y-94940800D01*
X111339600Y-94780780D02*
X111540260Y-94869680D01*
X111240540Y-94590280D02*
X111339600Y-94780780D01*
X111309120Y-94379460D02*
X111240540Y-94590280D01*
X111519940Y-94260080D02*
X111309120Y-94379460D01*
X111789180Y-94229600D02*
X111519940Y-94260080D01*
X112000000Y-94321040D02*
X111789180Y-94229600D01*
X112510540Y-94219440D02*
X112510540Y-95479280D01*
X112960120Y-94270240D02*
X113630680Y-94280400D01*
X113300480Y-95479280D02*
X113310640Y-95479280D01*
X113290320Y-94290560D02*
X113300480Y-95479280D01*
X114100580Y-94290560D02*
X114090420Y-95489440D01*
X114921000Y-95489440D02*
X115360420Y-94270240D01*
X114509520Y-94270240D02*
X114921000Y-95489440D01*
X116399280Y-94260080D02*
X115799840Y-94270240D01*
X115799840Y-95509760D02*
X115779520Y-94290560D01*
X116409440Y-95530080D02*
X115799840Y-95509760D01*
X116208780Y-94829040D02*
X115850640Y-94839200D01*
X108870720Y-96439400D02*
X108571000Y-96429240D01*
X109040900Y-96530840D02*
X108870720Y-96439400D01*
X109160280Y-96769600D02*
X109040900Y-96530840D01*
X109200920Y-97099800D02*
X109160280Y-96769600D01*
X109089160Y-97501120D02*
X109200920Y-97099800D01*
X108819920Y-97678920D02*
X109089160Y-97501120D01*
X108499880Y-97678920D02*
X108819920Y-97678920D01*
X108499880Y-96439400D02*
X108499880Y-97678920D01*
X109739400Y-97661140D02*
X110359160Y-97678920D01*
X109769880Y-96419080D02*
X109739400Y-97661140D01*
X110369320Y-96419080D02*
X109769880Y-96419080D01*
X109841000Y-97038840D02*
X109841000Y-97021060D01*
X110178820Y-97010900D02*
X109841000Y-97038840D01*
X111138940Y-97678920D02*
X111560580Y-96419080D01*
X110719840Y-96408920D02*
X111138940Y-97678920D01*
X112000000Y-96419080D02*
X112000000Y-97661140D01*
X113310640Y-97569700D02*
X113320800Y-97559540D01*
X113160780Y-97689080D02*
X113310640Y-97569700D01*
X112899160Y-97650980D02*
X113160780Y-97689080D01*
X112619760Y-97480800D02*
X112899160Y-97650980D01*
X112520700Y-97181080D02*
X112619760Y-97480800D01*
X112599440Y-96779760D02*
X112520700Y-97181080D01*
X112850900Y-96490200D02*
X112599440Y-96779760D01*
X113099820Y-96439400D02*
X112850900Y-96490200D01*
X113310640Y-96530840D02*
X113099820Y-96439400D01*
X113879600Y-97661140D02*
X114451100Y-97678920D01*
X113869440Y-96439400D02*
X113879600Y-97661140D01*
X114479040Y-96419080D02*
X113869440Y-96439400D01*
X114199640Y-97010900D02*
X113889760Y-97021060D01*
X114979420Y-97650980D02*
X114989580Y-97640820D01*
X115210560Y-97689080D02*
X114979420Y-97650980D01*
X115520440Y-97640820D02*
X115210560Y-97689080D01*
X115660140Y-97450320D02*
X115520440Y-97640820D01*
X115540760Y-97160760D02*
X115660140Y-97450320D01*
X115279140Y-97059160D02*
X115540760Y-97160760D01*
X114999740Y-96840720D02*
X115279140Y-97059160D01*
X114999740Y-96599420D02*
X114999740Y-96840720D01*
X115230880Y-96429240D02*
X114999740Y-96599420D01*
X115500120Y-96429240D02*
X115230880Y-96429240D01*
X115721100Y-96520680D02*
X115500120Y-96429240D01*
D11*
X122096048Y-65249999D03*
X122096048Y-65750000D03*
X122096048Y-66249999D03*
X122096048Y-66750001D03*
X122096048Y-67250000D03*
X122096048Y-67749999D03*
X122096048Y-68250000D03*
X122096048Y-68749999D03*
X122096048Y-69250001D03*
X122096048Y-69750000D03*
X122096048Y-70249999D03*
X122096048Y-70750000D03*
X122096048Y-71250000D03*
X122096048Y-71749998D03*
X122096048Y-72250000D03*
X122096048Y-72749999D03*
X122096048Y-73250001D03*
X122096048Y-73750000D03*
X122096048Y-74249999D03*
X122096048Y-74750000D03*
X122096048Y-75249999D03*
X122096048Y-75750001D03*
X122096048Y-76250000D03*
X122096048Y-76749999D03*
X102403952Y-76750001D03*
X102403952Y-76250000D03*
X102403952Y-75750001D03*
X102403952Y-75249999D03*
X102403952Y-74750000D03*
X102403952Y-74250001D03*
X102403952Y-73750000D03*
X102403952Y-73250001D03*
X102403952Y-72749999D03*
X102403952Y-72250000D03*
X102403952Y-71750001D03*
X102403952Y-71250000D03*
X102403952Y-70750000D03*
X102403952Y-70249999D03*
X102403952Y-69750000D03*
X102403952Y-69250001D03*
X102403952Y-68749999D03*
X102403952Y-68250000D03*
X102403952Y-67749999D03*
X102403952Y-67250000D03*
X102403952Y-66750001D03*
X102403952Y-66249999D03*
X102403952Y-65750000D03*
X102403952Y-65250001D03*
D12*
X131000000Y-102420000D03*
X131000000Y-99880000D03*
X131000000Y-97340000D03*
X131000000Y-94800000D03*
X131000000Y-92260000D03*
X131000000Y-89720000D03*
X131000000Y-87180000D03*
X131000000Y-84640000D03*
X131000000Y-82100000D03*
X131000000Y-79560000D03*
X131000000Y-77020000D03*
X131000000Y-74480000D03*
X131000000Y-71940000D03*
X131000000Y-69400000D03*
X131000000Y-66860000D03*
X131000000Y-64320000D03*
X131000000Y-61780000D03*
X131000000Y-59240000D03*
X131000000Y-56700000D03*
X131000000Y-54160000D03*
X131000000Y-51620000D03*
X131000000Y-49080000D03*
X131000000Y-46540000D03*
D13*
X131000000Y-44000000D03*
D12*
X94000000Y-44000000D03*
X94000000Y-46540000D03*
X94000000Y-49080000D03*
X94000000Y-51620000D03*
X94000000Y-54160000D03*
X94000000Y-56700000D03*
X94000000Y-59240000D03*
X94000000Y-61780000D03*
X94000000Y-64320000D03*
X94000000Y-66860000D03*
X94000000Y-69400000D03*
X94000000Y-71940000D03*
X94000000Y-74480000D03*
X94000000Y-77020000D03*
X94000000Y-79560000D03*
X94000000Y-82100000D03*
X94000000Y-84640000D03*
X94000000Y-87180000D03*
X94000000Y-89720000D03*
X94000000Y-92260000D03*
X94000000Y-94800000D03*
X94000000Y-97340000D03*
X94000000Y-99880000D03*
D13*
X94000000Y-102420000D03*
D14*
X96200000Y-44000000D02*
X94000000Y-44000000D01*
X102403952Y-65250001D02*
X100150001Y-65250001D01*
X100050000Y-47850000D02*
X96200000Y-44000000D01*
X100050000Y-65150000D02*
X100050000Y-47850000D01*
X100150001Y-65250001D02*
X100050000Y-65150000D01*
X96190000Y-46540000D02*
X94000000Y-46540000D01*
X99600000Y-49950000D02*
X96190000Y-46540000D01*
X99600000Y-65350000D02*
X99600000Y-49950000D01*
X102403952Y-65750000D02*
X100000000Y-65750000D01*
X100000000Y-65750000D02*
X99600000Y-65350000D01*
X96130000Y-49080000D02*
X94000000Y-49080000D01*
X99150000Y-52100000D02*
X96130000Y-49080000D01*
X99150000Y-65550000D02*
X99150000Y-52100000D01*
X102403952Y-66249999D02*
X99850000Y-66250000D01*
X99850000Y-66250000D02*
X99150000Y-65550000D01*
X96120000Y-51620000D02*
X94000000Y-51620000D01*
X98700000Y-54200000D02*
X96120000Y-51620000D01*
X102403952Y-66750001D02*
X99700000Y-66750000D01*
X98700000Y-65750000D02*
X98700000Y-54200000D01*
X99700000Y-66750000D02*
X98700000Y-65750000D01*
X98250000Y-65950000D02*
X98250000Y-56250000D01*
X96160000Y-54160000D02*
X94000000Y-54160000D01*
X102403952Y-67250000D02*
X99550000Y-67250000D01*
X98250000Y-56250000D02*
X96160000Y-54160000D01*
X99550000Y-67250000D02*
X98250000Y-65950000D01*
X96200000Y-56700000D02*
X94000000Y-56700000D01*
X97800000Y-66150000D02*
X97800000Y-58300000D01*
X97800000Y-58300000D02*
X96200000Y-56700000D01*
X102403952Y-67749999D02*
X99400000Y-67750000D01*
X99400000Y-67750000D02*
X97800000Y-66150000D01*
X97350000Y-60400000D02*
X96190000Y-59240000D01*
X97350000Y-66350000D02*
X97350000Y-60400000D01*
X96190000Y-59240000D02*
X94000000Y-59240000D01*
X102403952Y-68250000D02*
X99250000Y-68250000D01*
X99250000Y-68250000D02*
X97350000Y-66350000D01*
X96130000Y-61780000D02*
X94000000Y-61780000D01*
X96900000Y-66550000D02*
X96900000Y-62550000D01*
X102403952Y-68749999D02*
X99100000Y-68750000D01*
X96900000Y-62550000D02*
X96130000Y-61780000D01*
X99100000Y-68750000D02*
X96900000Y-66550000D01*
X96150000Y-69400000D02*
X94000000Y-69400000D01*
X102403952Y-70249999D02*
X97000000Y-70250000D01*
X97000000Y-70250000D02*
X96150000Y-69400000D01*
X96210000Y-71940000D02*
X94000000Y-71940000D01*
X102403952Y-70750000D02*
X97400000Y-70750000D01*
X97400000Y-70750000D02*
X96210000Y-71940000D01*
X96300000Y-76500000D02*
X95780000Y-77020000D01*
X96300000Y-73200000D02*
X96300000Y-76500000D01*
X95780000Y-77020000D02*
X94000000Y-77020000D01*
X102403952Y-71750001D02*
X97749999Y-71750001D01*
X97749999Y-71750001D02*
X96300000Y-73200000D01*
X96140000Y-79560000D02*
X94000000Y-79560000D01*
X96750000Y-73400000D02*
X96750000Y-78950000D01*
X96750000Y-78950000D02*
X96140000Y-79560000D01*
X102403952Y-72250000D02*
X97900000Y-72250000D01*
X97900000Y-72250000D02*
X96750000Y-73400000D01*
X101153952Y-72749999D02*
X98050001Y-72749999D01*
X98050001Y-72749999D02*
X97200000Y-73600000D01*
X97200000Y-73600000D02*
X97200000Y-81050000D01*
X96150000Y-82100000D02*
X94000000Y-82100000D01*
X97200000Y-81050000D02*
X96150000Y-82100000D01*
X101153952Y-72749999D02*
X102403952Y-72749999D01*
X97650000Y-83050000D02*
X96060000Y-84640000D01*
X97650000Y-73800000D02*
X97650000Y-83050000D01*
X102403952Y-73250001D02*
X98199999Y-73250001D01*
X96060000Y-84640000D02*
X94000000Y-84640000D01*
X98199999Y-73250001D02*
X97650000Y-73800000D01*
X98100000Y-85150000D02*
X96070000Y-87180000D01*
X98100000Y-74000000D02*
X98100000Y-85150000D01*
X96070000Y-87180000D02*
X94000000Y-87180000D01*
X102403952Y-73750000D02*
X98350000Y-73750000D01*
X98350000Y-73750000D02*
X98100000Y-74000000D01*
X98550000Y-87300000D02*
X96130000Y-89720000D01*
X96130000Y-89720000D02*
X94000000Y-89720000D01*
X98550000Y-74400000D02*
X98550000Y-87300000D01*
X102403952Y-74250001D02*
X98699999Y-74250001D01*
X98699999Y-74250001D02*
X98550000Y-74400000D01*
X96040000Y-92260000D02*
X94000000Y-92260000D01*
X99000000Y-89300000D02*
X96040000Y-92260000D01*
X99000000Y-74950000D02*
X99000000Y-89300000D01*
X102403952Y-74750000D02*
X99200000Y-74750000D01*
X99200000Y-74750000D02*
X99000000Y-74950000D01*
X96150000Y-94800000D02*
X94000000Y-94800000D01*
X99450000Y-75400000D02*
X99450000Y-91500000D01*
X99450000Y-91500000D02*
X96150000Y-94800000D01*
X102403952Y-75249999D02*
X99600000Y-75250000D01*
X99600000Y-75250000D02*
X99450000Y-75400000D01*
X96360000Y-97340000D02*
X94000000Y-97340000D01*
X99900000Y-75850000D02*
X99900000Y-93800000D01*
X99900000Y-93800000D02*
X96360000Y-97340000D01*
X102403952Y-75750001D02*
X100000000Y-75750000D01*
X100000000Y-75750000D02*
X99900000Y-75850000D01*
X102403952Y-76250000D02*
X100450000Y-76250000D01*
X100450000Y-76250000D02*
X100350000Y-76350000D01*
X100350000Y-76350000D02*
X100350000Y-95950000D01*
X96420000Y-99880000D02*
X94000000Y-99880000D01*
X100350000Y-95950000D02*
X96420000Y-99880000D01*
X96430000Y-102420000D02*
X94000000Y-102420000D01*
X100800000Y-98050000D02*
X96430000Y-102420000D01*
X100800000Y-76950000D02*
X100800000Y-98050000D01*
X102403952Y-76750001D02*
X101000000Y-76750000D01*
X101000000Y-76750000D02*
X100800000Y-76950000D01*
X123700000Y-76900000D02*
X123700000Y-97250000D01*
X122096048Y-76749999D02*
X123550000Y-76750000D01*
X128870000Y-102420000D02*
X131000000Y-102420000D01*
X123700000Y-97250000D02*
X128870000Y-102420000D01*
X123550000Y-76750000D02*
X123700000Y-76900000D01*
X122096048Y-76250000D02*
X124050000Y-76250000D01*
X124050000Y-76250000D02*
X124150000Y-76350000D01*
X124150000Y-76350000D02*
X124150000Y-95150000D01*
X128880000Y-99880000D02*
X131000000Y-99880000D01*
X124150000Y-95150000D02*
X128880000Y-99880000D01*
X122096048Y-75249999D02*
X122946498Y-75250000D01*
X122946498Y-75250000D02*
X124950000Y-75250000D01*
X124950000Y-75250000D02*
X125050000Y-75350000D01*
X125050000Y-75350000D02*
X125050000Y-91000000D01*
X128850000Y-94800000D02*
X131000000Y-94800000D01*
X125050000Y-91000000D02*
X128850000Y-94800000D01*
X122096048Y-74750000D02*
X125400000Y-74750000D01*
X125400000Y-74750000D02*
X125500000Y-74850000D01*
X125500000Y-74850000D02*
X125500000Y-88900000D01*
X128860000Y-92260000D02*
X131000000Y-92260000D01*
X125500000Y-88900000D02*
X128860000Y-92260000D01*
X122096048Y-74249999D02*
X122946498Y-74250000D01*
X122946498Y-74250000D02*
X125850000Y-74250000D01*
X125850000Y-74250000D02*
X125950000Y-74350000D01*
X125950000Y-74350000D02*
X125950000Y-86750000D01*
X128920000Y-89720000D02*
X131000000Y-89720000D01*
X125950000Y-86750000D02*
X128920000Y-89720000D01*
X126400000Y-84750000D02*
X128830000Y-87180000D01*
X126400000Y-73950000D02*
X126400000Y-84750000D01*
X128830000Y-87180000D02*
X131000000Y-87180000D01*
X122096048Y-73750000D02*
X126200000Y-73750000D01*
X126200000Y-73750000D02*
X126400000Y-73950000D01*
X122096048Y-73250001D02*
X126750001Y-73250001D01*
X126750001Y-73250001D02*
X126850000Y-73350000D01*
X126850000Y-73350000D02*
X126850000Y-82700000D01*
X128790000Y-84640000D02*
X131000000Y-84640000D01*
X126850000Y-82700000D02*
X128790000Y-84640000D01*
X122096048Y-72749999D02*
X122946498Y-72750000D01*
X122946498Y-72750000D02*
X126900000Y-72750000D01*
X126900000Y-72750000D02*
X127300000Y-73150000D01*
X127300000Y-73150000D02*
X127300000Y-80600000D01*
X128800000Y-82100000D02*
X131000000Y-82100000D01*
X127300000Y-80600000D02*
X128800000Y-82100000D01*
X127750000Y-78500000D02*
X128810000Y-79560000D01*
X128810000Y-79560000D02*
X131000000Y-79560000D01*
X127750000Y-72950000D02*
X127750000Y-78500000D01*
X122096048Y-72250000D02*
X127050000Y-72250000D01*
X127050000Y-72250000D02*
X127750000Y-72950000D01*
X122096048Y-71749998D02*
X127199998Y-71749998D01*
X127199998Y-71749998D02*
X128200000Y-72750000D01*
X128200000Y-72750000D02*
X128200000Y-76400000D01*
X128820000Y-77020000D02*
X131000000Y-77020000D01*
X128200000Y-76400000D02*
X128820000Y-77020000D01*
X128830000Y-74480000D02*
X131000000Y-74480000D01*
X128650000Y-74300000D02*
X128830000Y-74480000D01*
X128650000Y-72550000D02*
X128650000Y-74300000D01*
X122096048Y-71250000D02*
X127350000Y-71250000D01*
X127350000Y-71250000D02*
X128650000Y-72550000D01*
X128690000Y-71940000D02*
X131000000Y-71940000D01*
X122096048Y-70750000D02*
X127500000Y-70750000D01*
X127500000Y-70750000D02*
X128690000Y-71940000D01*
X125400000Y-69400000D02*
X131000000Y-69400000D01*
X122096048Y-70249999D02*
X124550000Y-70250000D01*
X124550000Y-70250000D02*
X125400000Y-69400000D01*
X127310000Y-66860000D02*
X131000000Y-66860000D01*
X127300000Y-66850000D02*
X127310000Y-66860000D01*
X122096048Y-69750000D02*
X124400000Y-69750000D01*
X124400000Y-69750000D02*
X127300000Y-66850000D01*
X122096048Y-69250001D02*
X124249999Y-69250001D01*
X124249999Y-69250001D02*
X126800000Y-66700000D01*
X126800000Y-66700000D02*
X126800000Y-66150000D01*
X128630000Y-64320000D02*
X131000000Y-64320000D01*
X126800000Y-66150000D02*
X128630000Y-64320000D01*
X122096048Y-68749999D02*
X124100001Y-68749999D01*
X124100001Y-68749999D02*
X126350000Y-66500000D01*
X126350000Y-66500000D02*
X126350000Y-63950000D01*
X128520000Y-61780000D02*
X131000000Y-61780000D01*
X126350000Y-63950000D02*
X128520000Y-61780000D01*
X128460000Y-59240000D02*
X131000000Y-59240000D01*
X125900000Y-61800000D02*
X128460000Y-59240000D01*
X122096048Y-68250000D02*
X123950000Y-68250000D01*
X125900000Y-66300000D02*
X125900000Y-61800000D01*
X123950000Y-68250000D02*
X125900000Y-66300000D01*
X122096048Y-67749999D02*
X123800001Y-67749999D01*
X123800001Y-67749999D02*
X125450000Y-66100000D01*
X125450000Y-66100000D02*
X125450000Y-59700000D01*
X128450000Y-56700000D02*
X131000000Y-56700000D01*
X125450000Y-59700000D02*
X128450000Y-56700000D01*
X125000000Y-57600000D02*
X128440000Y-54160000D01*
X125000000Y-65900000D02*
X125000000Y-57600000D01*
X122096048Y-67250000D02*
X123650000Y-67250000D01*
X128440000Y-54160000D02*
X131000000Y-54160000D01*
X123650000Y-67250000D02*
X125000000Y-65900000D01*
X128430000Y-51620000D02*
X131000000Y-51620000D01*
X124550000Y-65700000D02*
X124550000Y-55500000D01*
X122096048Y-66750001D02*
X123500000Y-66750000D01*
X124550000Y-55500000D02*
X128430000Y-51620000D01*
X123500000Y-66750000D02*
X124550000Y-65700000D01*
X123650000Y-51250000D02*
X128360000Y-46540000D01*
X128360000Y-46540000D02*
X131000000Y-46540000D01*
X123650000Y-65300000D02*
X123650000Y-51250000D01*
X122096048Y-65750000D02*
X123200000Y-65750000D01*
X123200000Y-65750000D02*
X123650000Y-65300000D01*
X122096048Y-65249999D02*
X123050001Y-65249999D01*
X123050001Y-65249999D02*
X123200000Y-65100000D01*
X123200000Y-65100000D02*
X123200000Y-49150000D01*
X128350000Y-44000000D02*
X131000000Y-44000000D01*
X123200000Y-49150000D02*
X128350000Y-44000000D01*
X122096048Y-66249999D02*
X123350001Y-66249999D01*
X123350001Y-66249999D02*
X124100000Y-65500000D01*
X124100000Y-65500000D02*
X124100000Y-53400000D01*
X128420000Y-49080000D02*
X131000000Y-49080000D01*
X124100000Y-53400000D02*
X128420000Y-49080000D01*
X122096048Y-75750001D02*
X124450001Y-75750001D01*
X124450001Y-75750001D02*
X124600000Y-75900000D01*
X124600000Y-75900000D02*
X124600000Y-93100000D01*
X128840000Y-97340000D02*
X131000000Y-97340000D01*
X124600000Y-93100000D02*
X128840000Y-97340000D01*
D15*
G36*
X133276249Y-40604844D02*
G01*
X133541973Y-40685071D01*
X133787055Y-40815383D01*
X134002158Y-40990817D01*
X134179092Y-41204692D01*
X134311113Y-41448860D01*
X134393193Y-41714018D01*
X134425000Y-42016637D01*
X134425001Y-104971864D01*
X134395156Y-105276249D01*
X134314928Y-105541975D01*
X134184615Y-105787058D01*
X134009181Y-106002161D01*
X133795304Y-106179095D01*
X133551141Y-106311113D01*
X133285982Y-106393193D01*
X132983363Y-106425000D01*
X92028126Y-106425000D01*
X91723751Y-106395156D01*
X91458025Y-106314928D01*
X91212942Y-106184615D01*
X90997839Y-106009181D01*
X90820905Y-105795304D01*
X90688887Y-105551141D01*
X90606807Y-105285982D01*
X90575000Y-104983363D01*
X90575000Y-101570000D01*
X92597339Y-101570000D01*
X92597339Y-103270000D01*
X92607958Y-103377819D01*
X92639408Y-103481494D01*
X92690479Y-103577042D01*
X92759210Y-103660790D01*
X92842958Y-103729521D01*
X92938506Y-103780592D01*
X93042181Y-103812042D01*
X93150000Y-103822661D01*
X94850000Y-103822661D01*
X94957819Y-103812042D01*
X95061494Y-103780592D01*
X95157042Y-103729521D01*
X95240790Y-103660790D01*
X95309521Y-103577042D01*
X95360592Y-103481494D01*
X95392042Y-103377819D01*
X95402661Y-103270000D01*
X95402661Y-103095000D01*
X96396848Y-103095000D01*
X96430000Y-103098265D01*
X96463152Y-103095000D01*
X96463159Y-103095000D01*
X96562323Y-103085233D01*
X96689561Y-103046636D01*
X96806824Y-102983958D01*
X96909606Y-102899606D01*
X96930742Y-102873852D01*
X101253852Y-98550742D01*
X101279606Y-98529606D01*
X101363958Y-98426824D01*
X101426636Y-98309561D01*
X101462267Y-98192101D01*
X101465233Y-98182324D01*
X101466817Y-98166241D01*
X101475000Y-98083159D01*
X101475000Y-98083153D01*
X101478265Y-98050001D01*
X101475000Y-98016849D01*
X101475000Y-93371080D01*
X104494622Y-93371080D01*
X104501133Y-93437181D01*
X104507097Y-93503187D01*
X104507903Y-93505924D01*
X104508184Y-93508774D01*
X104527462Y-93572324D01*
X104546192Y-93635909D01*
X104547516Y-93638436D01*
X104548348Y-93641177D01*
X104579668Y-93699773D01*
X104610427Y-93758454D01*
X104612221Y-93760677D01*
X104613570Y-93763200D01*
X104655696Y-93814531D01*
X104697337Y-93866114D01*
X104699530Y-93867944D01*
X104701345Y-93870155D01*
X104752699Y-93912300D01*
X104803581Y-93954748D01*
X104806086Y-93956113D01*
X104808300Y-93957930D01*
X104866922Y-93989264D01*
X104925074Y-94020952D01*
X104927798Y-94021802D01*
X104930323Y-94023152D01*
X104993884Y-94042433D01*
X105057149Y-94062183D01*
X105059990Y-94062486D01*
X105062726Y-94063316D01*
X105128775Y-94069821D01*
X105194729Y-94076855D01*
X105232078Y-94073480D01*
X105824200Y-94073480D01*
X105927394Y-94063316D01*
X106059797Y-94023152D01*
X106075112Y-94014966D01*
X106087196Y-94021519D01*
X106089223Y-94022147D01*
X106091103Y-94023152D01*
X106155403Y-94042657D01*
X106219356Y-94062477D01*
X106221468Y-94062698D01*
X106223506Y-94063316D01*
X106290328Y-94069898D01*
X106356966Y-94076865D01*
X106393583Y-94073480D01*
X106984980Y-94073480D01*
X106989790Y-94073006D01*
X106986610Y-94077744D01*
X106965247Y-94103484D01*
X106948163Y-94135026D01*
X106928157Y-94164832D01*
X106915283Y-94195730D01*
X106899351Y-94225145D01*
X106888745Y-94259424D01*
X106874943Y-94292550D01*
X106868347Y-94325350D01*
X106858455Y-94357323D01*
X106854740Y-94393021D01*
X106847667Y-94428195D01*
X106847597Y-94461653D01*
X106844133Y-94494941D01*
X106847454Y-94530677D01*
X106847451Y-94531888D01*
X106850648Y-94565055D01*
X106856934Y-94632708D01*
X106857281Y-94633876D01*
X106868165Y-94746799D01*
X106868538Y-94785584D01*
X106881851Y-94849308D01*
X106894408Y-94913132D01*
X106895985Y-94916962D01*
X106896833Y-94921021D01*
X106922335Y-94980952D01*
X106947090Y-95041071D01*
X106949383Y-95044518D01*
X106951007Y-95048335D01*
X106979149Y-95089589D01*
X106945643Y-95140444D01*
X106893523Y-95268612D01*
X106867409Y-95404485D01*
X106868304Y-95542842D01*
X106896173Y-95678366D01*
X106949947Y-95805850D01*
X107027559Y-95920393D01*
X107126026Y-96017593D01*
X107241564Y-96093717D01*
X107337618Y-96132778D01*
X107377254Y-96144522D01*
X107381243Y-96146557D01*
X107443476Y-96164143D01*
X107472355Y-96172700D01*
X107476735Y-96173542D01*
X107481028Y-96174755D01*
X107510678Y-96180065D01*
X107574184Y-96192271D01*
X107578663Y-96192242D01*
X107827339Y-96236781D01*
X107807644Y-96301707D01*
X107797480Y-96404901D01*
X107797481Y-97644411D01*
X107794082Y-97678920D01*
X107807644Y-97816614D01*
X107847808Y-97949017D01*
X107913030Y-98071040D01*
X108000805Y-98177995D01*
X108107760Y-98265770D01*
X108229783Y-98330992D01*
X108362186Y-98371156D01*
X108465380Y-98381320D01*
X108465381Y-98381320D01*
X108499880Y-98384718D01*
X108534380Y-98381320D01*
X108783519Y-98381320D01*
X108816101Y-98384707D01*
X108852509Y-98381320D01*
X108854420Y-98381320D01*
X108886945Y-98378116D01*
X108953865Y-98371891D01*
X108955703Y-98371344D01*
X108957614Y-98371156D01*
X109022062Y-98351606D01*
X109086483Y-98332444D01*
X109088178Y-98331550D01*
X109090017Y-98330992D01*
X109149479Y-98299209D01*
X109178196Y-98284059D01*
X109179778Y-98283014D01*
X109212040Y-98265770D01*
X109237373Y-98244980D01*
X109295914Y-98206321D01*
X109330613Y-98236503D01*
X109331889Y-98237233D01*
X109333002Y-98238193D01*
X109391892Y-98271553D01*
X109450715Y-98305198D01*
X109452111Y-98305666D01*
X109453388Y-98306389D01*
X109517637Y-98327613D01*
X109581912Y-98349142D01*
X109583371Y-98349328D01*
X109584766Y-98349789D01*
X109651987Y-98358079D01*
X109684772Y-98362261D01*
X109686230Y-98362303D01*
X109722086Y-98366725D01*
X109755204Y-98364282D01*
X110373503Y-98382020D01*
X110476946Y-98374819D01*
X110610446Y-98338469D01*
X110734289Y-98276773D01*
X110750275Y-98264404D01*
X110788667Y-98291666D01*
X110805658Y-98299277D01*
X110821402Y-98309254D01*
X110868701Y-98327517D01*
X110914938Y-98348228D01*
X110933094Y-98352379D01*
X110950477Y-98359091D01*
X111000417Y-98367773D01*
X111049818Y-98379068D01*
X111068439Y-98379598D01*
X111086792Y-98382788D01*
X111137463Y-98381560D01*
X111188121Y-98383001D01*
X111206484Y-98379888D01*
X111225113Y-98379437D01*
X111274578Y-98368346D01*
X111324536Y-98359878D01*
X111341939Y-98353243D01*
X111360121Y-98349166D01*
X111406465Y-98328641D01*
X111453819Y-98310586D01*
X111469598Y-98300680D01*
X111486629Y-98293137D01*
X111528074Y-98263968D01*
X111571001Y-98237018D01*
X111581930Y-98226693D01*
X111607881Y-98247990D01*
X111729904Y-98313212D01*
X111862307Y-98353376D01*
X112000000Y-98366938D01*
X112137694Y-98353376D01*
X112270097Y-98313212D01*
X112392120Y-98247990D01*
X112450457Y-98200114D01*
X112507247Y-98234704D01*
X112537912Y-98257321D01*
X112597403Y-98285265D01*
X112656661Y-98313810D01*
X112660014Y-98314675D01*
X112663145Y-98316146D01*
X112727002Y-98331962D01*
X112790632Y-98348383D01*
X112828669Y-98350523D01*
X113036516Y-98380792D01*
X113081386Y-98390398D01*
X113139370Y-98391242D01*
X113197278Y-98393933D01*
X113208442Y-98392247D01*
X113219731Y-98392411D01*
X113276753Y-98381929D01*
X113334087Y-98373269D01*
X113344708Y-98369437D01*
X113355811Y-98367396D01*
X113409673Y-98345998D01*
X113464235Y-98326313D01*
X113473910Y-98320479D01*
X113484397Y-98316313D01*
X113533042Y-98284824D01*
X113543837Y-98278315D01*
X113589357Y-98304497D01*
X113602575Y-98308960D01*
X113614935Y-98315435D01*
X113668014Y-98331055D01*
X113720447Y-98348759D01*
X113734287Y-98350558D01*
X113747668Y-98354496D01*
X113802767Y-98359461D01*
X113823275Y-98362127D01*
X113837143Y-98362558D01*
X113885469Y-98366913D01*
X113906127Y-98364705D01*
X114463741Y-98382053D01*
X114567202Y-98375102D01*
X114700789Y-98339075D01*
X114747393Y-98315999D01*
X114786608Y-98326496D01*
X114841726Y-98343216D01*
X114887779Y-98347752D01*
X115036224Y-98372221D01*
X115044023Y-98374948D01*
X115104373Y-98383454D01*
X115130361Y-98387738D01*
X115138565Y-98388274D01*
X115181030Y-98394259D01*
X115207441Y-98392770D01*
X115233835Y-98394493D01*
X115276348Y-98388885D01*
X115284558Y-98388422D01*
X115310587Y-98384368D01*
X115371007Y-98376398D01*
X115378830Y-98373740D01*
X115593784Y-98340264D01*
X115627761Y-98338411D01*
X115661984Y-98329642D01*
X115662615Y-98329544D01*
X115694912Y-98321205D01*
X115761793Y-98304069D01*
X115762386Y-98303785D01*
X115763016Y-98303622D01*
X115824628Y-98273935D01*
X115886548Y-98244239D01*
X115887071Y-98243847D01*
X115887662Y-98243562D01*
X115942508Y-98202267D01*
X115997235Y-98161220D01*
X115997671Y-98160733D01*
X115998195Y-98160339D01*
X116044068Y-98108985D01*
X116066456Y-98084014D01*
X116066835Y-98083497D01*
X116090369Y-98057151D01*
X116107649Y-98027842D01*
X116214905Y-97881585D01*
X116246341Y-97843409D01*
X116272075Y-97795455D01*
X116299790Y-97748645D01*
X116304726Y-97734611D01*
X116311766Y-97721493D01*
X116327653Y-97669431D01*
X116345699Y-97618124D01*
X116347803Y-97603396D01*
X116352148Y-97589156D01*
X116357570Y-97535017D01*
X116365264Y-97481154D01*
X116364453Y-97466288D01*
X116365936Y-97451485D01*
X116360695Y-97397350D01*
X116357731Y-97342998D01*
X116354036Y-97328576D01*
X116352602Y-97313768D01*
X116336897Y-97261688D01*
X116323389Y-97208967D01*
X116302003Y-97164373D01*
X116234960Y-97001761D01*
X116308089Y-96912589D01*
X116373268Y-96790542D01*
X116413384Y-96658125D01*
X116426897Y-96520426D01*
X116413286Y-96382738D01*
X116373075Y-96250349D01*
X116362894Y-96231318D01*
X116420520Y-96233239D01*
X116523996Y-96226519D01*
X116657663Y-96190788D01*
X116781791Y-96129667D01*
X116891611Y-96045504D01*
X116982901Y-95941533D01*
X117052152Y-95821750D01*
X117096704Y-95690759D01*
X117114846Y-95553593D01*
X117105879Y-95415525D01*
X117070148Y-95281857D01*
X117009028Y-95157729D01*
X116924864Y-95047909D01*
X116886361Y-95014102D01*
X116904642Y-94947048D01*
X116914294Y-94809026D01*
X116906847Y-94750490D01*
X116992690Y-94642198D01*
X117055835Y-94519087D01*
X117093749Y-94386023D01*
X117104976Y-94248120D01*
X117089083Y-94110675D01*
X117064319Y-94033756D01*
X117117355Y-94016212D01*
X117237714Y-93947967D01*
X117252907Y-93934851D01*
X117361084Y-93992672D01*
X117493487Y-94032836D01*
X117631180Y-94046398D01*
X117768874Y-94032836D01*
X117901277Y-93992672D01*
X118023300Y-93927450D01*
X118027740Y-93923806D01*
X118056940Y-93947770D01*
X118090247Y-93965573D01*
X118121815Y-93986268D01*
X118151097Y-93998098D01*
X118178963Y-94012992D01*
X118215103Y-94023955D01*
X118250102Y-94038094D01*
X118281130Y-94043984D01*
X118311366Y-94053156D01*
X118348944Y-94056857D01*
X118386034Y-94063898D01*
X118452016Y-94063320D01*
X118696839Y-94063320D01*
X118721482Y-94066443D01*
X118765836Y-94063320D01*
X118775660Y-94063320D01*
X118800292Y-94060894D01*
X118859500Y-94056725D01*
X118869021Y-94054125D01*
X118878854Y-94053156D01*
X118935702Y-94035911D01*
X118992971Y-94020269D01*
X119001805Y-94015859D01*
X119011257Y-94012992D01*
X119063646Y-93984990D01*
X119085748Y-93973957D01*
X119094049Y-93968739D01*
X119133280Y-93947770D01*
X119152491Y-93932004D01*
X119321965Y-93825477D01*
X119403924Y-93761955D01*
X119494647Y-93657490D01*
X119563247Y-93537333D01*
X119607088Y-93406101D01*
X119624483Y-93268839D01*
X119614765Y-93130821D01*
X119578308Y-92997349D01*
X119516513Y-92873555D01*
X119452591Y-92791080D01*
X119514515Y-92732083D01*
X119594145Y-92618934D01*
X119650171Y-92492425D01*
X119680439Y-92357415D01*
X119683787Y-92219096D01*
X119660086Y-92082781D01*
X119610246Y-91953708D01*
X119536183Y-91836840D01*
X119440743Y-91736665D01*
X119355944Y-91676987D01*
X119082498Y-91522206D01*
X119049900Y-91499926D01*
X118990718Y-91474682D01*
X118931845Y-91448610D01*
X118927106Y-91447547D01*
X118922634Y-91445640D01*
X118859638Y-91432421D01*
X118796835Y-91418341D01*
X118791975Y-91418223D01*
X118787222Y-91417226D01*
X118722876Y-91416551D01*
X118658517Y-91414993D01*
X118619611Y-91421758D01*
X118444625Y-91437141D01*
X118402156Y-91437637D01*
X118342062Y-91450322D01*
X118281753Y-91461663D01*
X118274470Y-91464590D01*
X118266779Y-91466214D01*
X118210328Y-91490374D01*
X118153376Y-91513267D01*
X118146797Y-91517564D01*
X118139579Y-91520653D01*
X118088949Y-91555345D01*
X118073396Y-91565503D01*
X118023299Y-91524390D01*
X117901276Y-91459168D01*
X117768873Y-91419004D01*
X117631180Y-91405442D01*
X117493486Y-91419004D01*
X117361083Y-91459168D01*
X117349496Y-91465361D01*
X117278620Y-91444995D01*
X117175288Y-91436349D01*
X117132083Y-91436984D01*
X117133268Y-91432960D01*
X117137647Y-91384398D01*
X117144840Y-91336165D01*
X117142180Y-91281133D01*
X117132097Y-90058618D01*
X117140981Y-90055037D01*
X117174805Y-90045065D01*
X117204974Y-90029242D01*
X117236584Y-90016500D01*
X117266099Y-89997183D01*
X117297335Y-89980800D01*
X117323846Y-89959388D01*
X117352354Y-89940730D01*
X117377527Y-89916032D01*
X117404973Y-89893865D01*
X117426800Y-89867689D01*
X117451117Y-89843831D01*
X117470989Y-89814696D01*
X117493583Y-89787600D01*
X117509881Y-89757675D01*
X117529079Y-89729527D01*
X117542888Y-89697066D01*
X117559758Y-89666091D01*
X117569903Y-89633566D01*
X117583243Y-89602209D01*
X117590454Y-89567681D01*
X117600957Y-89534007D01*
X117604563Y-89500119D01*
X117611527Y-89466770D01*
X117611863Y-89431506D01*
X117615596Y-89396423D01*
X117612521Y-89362484D01*
X117612846Y-89328416D01*
X117606295Y-89293756D01*
X117603112Y-89258628D01*
X117593478Y-89225952D01*
X117587148Y-89192462D01*
X117573956Y-89159735D01*
X117563985Y-89125915D01*
X117548164Y-89095749D01*
X117535420Y-89064135D01*
X117516100Y-89034616D01*
X117499720Y-89003385D01*
X117478312Y-88976878D01*
X117467270Y-88960008D01*
X117484938Y-88943903D01*
X117493292Y-88932572D01*
X117503308Y-88922684D01*
X117534269Y-88876989D01*
X117567041Y-88832536D01*
X117573025Y-88819789D01*
X117580918Y-88808140D01*
X117602368Y-88757285D01*
X117625839Y-88707290D01*
X117629221Y-88693622D01*
X117634690Y-88680656D01*
X117645808Y-88626589D01*
X117659073Y-88572979D01*
X117659723Y-88558915D01*
X117662558Y-88545130D01*
X117662914Y-88489919D01*
X117665465Y-88434767D01*
X117663360Y-88420852D01*
X117663451Y-88406773D01*
X117653026Y-88352535D01*
X117644771Y-88297962D01*
X117639993Y-88284729D01*
X117637335Y-88270899D01*
X117616526Y-88219731D01*
X117609558Y-88200431D01*
X117603546Y-88187813D01*
X117585212Y-88142731D01*
X117573846Y-88125481D01*
X115779018Y-84358621D01*
X115725454Y-84269834D01*
X115720817Y-84264747D01*
X115700546Y-84225685D01*
X115614081Y-84117668D01*
X115508206Y-84028596D01*
X115386987Y-83961889D01*
X115255083Y-83920114D01*
X115117565Y-83904875D01*
X114979715Y-83916757D01*
X114880127Y-83945646D01*
X114542010Y-84080892D01*
X114500824Y-84093930D01*
X114447660Y-84123176D01*
X114393825Y-84151114D01*
X114387123Y-84156479D01*
X114379597Y-84160619D01*
X114333172Y-84199665D01*
X114285808Y-84237578D01*
X114280278Y-84244151D01*
X114273709Y-84249676D01*
X114235797Y-84297024D01*
X114196736Y-84343454D01*
X114175909Y-84381300D01*
X113924325Y-84767824D01*
X113918610Y-84775369D01*
X113905526Y-84796706D01*
X113891856Y-84817708D01*
X113887490Y-84826119D01*
X113570728Y-85342684D01*
X113109101Y-86093690D01*
X113121261Y-86052263D01*
X113131244Y-86029368D01*
X113140696Y-85986053D01*
X113143421Y-85976768D01*
X113148049Y-85952354D01*
X113160741Y-85894188D01*
X113160921Y-85884448D01*
X113162733Y-85874889D01*
X113162197Y-85815381D01*
X113163297Y-85755850D01*
X113161575Y-85746270D01*
X113161487Y-85736533D01*
X113149344Y-85678235D01*
X113138816Y-85619673D01*
X113135260Y-85610617D01*
X113133273Y-85601080D01*
X113109986Y-85546262D01*
X113088239Y-85490888D01*
X113082983Y-85482698D01*
X113079175Y-85473734D01*
X113045668Y-85424553D01*
X113032234Y-85403620D01*
X113026228Y-85396020D01*
X113001271Y-85359388D01*
X112983453Y-85341889D01*
X112190539Y-84338468D01*
X112188948Y-84335427D01*
X112147748Y-84284316D01*
X112128394Y-84259824D01*
X112126016Y-84257356D01*
X112102115Y-84227706D01*
X112078131Y-84207668D01*
X112056439Y-84185159D01*
X112025163Y-84163415D01*
X111995936Y-84138996D01*
X111968501Y-84124020D01*
X111942836Y-84106177D01*
X111907922Y-84090953D01*
X111874490Y-84072704D01*
X111844662Y-84063369D01*
X111816009Y-84050875D01*
X111778794Y-84042755D01*
X111742445Y-84031379D01*
X111711368Y-84028043D01*
X111705352Y-84026730D01*
X111769638Y-83947701D01*
X113466238Y-83351170D01*
X114432564Y-83064372D01*
X114528601Y-83025267D01*
X114644104Y-82949091D01*
X114742526Y-82851846D01*
X114820086Y-82737268D01*
X114873802Y-82609760D01*
X114901610Y-82474223D01*
X114902442Y-82335865D01*
X114876266Y-82200004D01*
X114824087Y-82071859D01*
X114747911Y-81956356D01*
X114650667Y-81857934D01*
X114615879Y-81834386D01*
X113619191Y-79855826D01*
X113609677Y-79820793D01*
X113548063Y-79696909D01*
X113522421Y-79663725D01*
X112847158Y-78323236D01*
X112827616Y-78278207D01*
X112796421Y-78233173D01*
X112767099Y-78186900D01*
X112757091Y-78176394D01*
X112748830Y-78164469D01*
X112709454Y-78126391D01*
X112671663Y-78086722D01*
X112659798Y-78078371D01*
X112649369Y-78068286D01*
X112603312Y-78038616D01*
X112558517Y-78007088D01*
X112545254Y-78001214D01*
X112533055Y-77993355D01*
X112482095Y-77973240D01*
X112432009Y-77951057D01*
X112417851Y-77947882D01*
X112404357Y-77942556D01*
X112350456Y-77932770D01*
X112297000Y-77920784D01*
X112282496Y-77920432D01*
X112268222Y-77917841D01*
X112213452Y-77918759D01*
X112158682Y-77917431D01*
X112144387Y-77919916D01*
X112129881Y-77920159D01*
X112076325Y-77931748D01*
X112022365Y-77941128D01*
X112008836Y-77946351D01*
X111994650Y-77949421D01*
X111944385Y-77971235D01*
X111893291Y-77990962D01*
X111881036Y-77998727D01*
X111867726Y-78004504D01*
X111822686Y-78035703D01*
X111776420Y-78065021D01*
X111765917Y-78075027D01*
X111753988Y-78083290D01*
X111715898Y-78122678D01*
X111676242Y-78160457D01*
X111667894Y-78172318D01*
X111657805Y-78182751D01*
X111628122Y-78228827D01*
X111596608Y-78273603D01*
X111576742Y-78318456D01*
X108627975Y-84064774D01*
X108607363Y-84097604D01*
X108584185Y-84158390D01*
X108560276Y-84218963D01*
X108559538Y-84223030D01*
X108558068Y-84226884D01*
X108547194Y-84291021D01*
X108535561Y-84355098D01*
X108535630Y-84359227D01*
X108534940Y-84363298D01*
X108536789Y-84428382D01*
X108537879Y-84493438D01*
X108538752Y-84497471D01*
X108538869Y-84501602D01*
X108548914Y-84545539D01*
X108544714Y-84548539D01*
X108531359Y-84555257D01*
X108488532Y-84588664D01*
X108444296Y-84620257D01*
X108434052Y-84631160D01*
X108422264Y-84640355D01*
X108386775Y-84681478D01*
X108349554Y-84721092D01*
X108341634Y-84733784D01*
X108331866Y-84745102D01*
X108305083Y-84792355D01*
X108294657Y-84809062D01*
X108288052Y-84822402D01*
X108263640Y-84865472D01*
X108257435Y-84884241D01*
X108104022Y-85194094D01*
X108084932Y-85213090D01*
X108007781Y-85327943D01*
X107954519Y-85455641D01*
X107940793Y-85523772D01*
X107078092Y-87266194D01*
X107031888Y-87337578D01*
X106987832Y-87448494D01*
X106225473Y-88988254D01*
X106198942Y-89036969D01*
X106184535Y-89083158D01*
X106167423Y-89128407D01*
X106163980Y-89149057D01*
X106157743Y-89169053D01*
X106152623Y-89217172D01*
X106144668Y-89264884D01*
X106145320Y-89285812D01*
X106143104Y-89306637D01*
X106147469Y-89354815D01*
X106148975Y-89403176D01*
X106153699Y-89423583D01*
X106155588Y-89444432D01*
X106169265Y-89490822D01*
X106180180Y-89537972D01*
X106188796Y-89557067D01*
X106194715Y-89577145D01*
X106217180Y-89619977D01*
X106237083Y-89664090D01*
X106249255Y-89681132D01*
X106258980Y-89699675D01*
X106289380Y-89737315D01*
X106317497Y-89776683D01*
X106332755Y-89791019D01*
X106345915Y-89807313D01*
X106383082Y-89838305D01*
X106418332Y-89871425D01*
X106436092Y-89882508D01*
X106452180Y-89895923D01*
X106494675Y-89919066D01*
X106535712Y-89944675D01*
X106555298Y-89952082D01*
X106573689Y-89962098D01*
X106619882Y-89976506D01*
X106665127Y-89993617D01*
X106685777Y-89997060D01*
X106705773Y-90003297D01*
X106753890Y-90008417D01*
X106801604Y-90016372D01*
X106809903Y-90016114D01*
X106451653Y-91128693D01*
X106429698Y-91230035D01*
X106427347Y-91368375D01*
X106433371Y-91401602D01*
X106373054Y-91395295D01*
X106235282Y-91408031D01*
X106102641Y-91447400D01*
X106095085Y-91451381D01*
X105988354Y-91419004D01*
X105885160Y-91408840D01*
X105247919Y-91408840D01*
X105216271Y-91405465D01*
X105178922Y-91408840D01*
X105176080Y-91408840D01*
X105144490Y-91411951D01*
X105078473Y-91417917D01*
X105075736Y-91418723D01*
X105072886Y-91419004D01*
X105009276Y-91438300D01*
X104945751Y-91457012D01*
X104943224Y-91458336D01*
X104940483Y-91459168D01*
X104881887Y-91490488D01*
X104823206Y-91521247D01*
X104820983Y-91523041D01*
X104818460Y-91524390D01*
X104767129Y-91566516D01*
X104715546Y-91608157D01*
X104713716Y-91610350D01*
X104711505Y-91612165D01*
X104669355Y-91663525D01*
X104626912Y-91714401D01*
X104625547Y-91716906D01*
X104623730Y-91719120D01*
X104592396Y-91777742D01*
X104560708Y-91835894D01*
X104559858Y-91838618D01*
X104558508Y-91841143D01*
X104539227Y-91904704D01*
X104519477Y-91967969D01*
X104519174Y-91970810D01*
X104518344Y-91973546D01*
X104511832Y-92039659D01*
X104508482Y-92071077D01*
X104508459Y-92073906D01*
X104504782Y-92111240D01*
X104507903Y-92142923D01*
X104498299Y-93333752D01*
X104494622Y-93371080D01*
X101475000Y-93371080D01*
X101475000Y-77425000D01*
X102437110Y-77425001D01*
X102463904Y-77422362D01*
X103004401Y-77422362D01*
X103112220Y-77411743D01*
X103215895Y-77380293D01*
X103311443Y-77329222D01*
X103395191Y-77260491D01*
X103463922Y-77176743D01*
X103514993Y-77081195D01*
X103546443Y-76977520D01*
X103557062Y-76869701D01*
X103557062Y-76630301D01*
X103546443Y-76522482D01*
X103539623Y-76500001D01*
X103546443Y-76477519D01*
X103557062Y-76369700D01*
X103557062Y-76130300D01*
X103546443Y-76022481D01*
X103539623Y-76000001D01*
X103546443Y-75977520D01*
X103557062Y-75869701D01*
X103557062Y-75630301D01*
X103546443Y-75522482D01*
X103539623Y-75500000D01*
X103546443Y-75477518D01*
X103557062Y-75369699D01*
X103557062Y-75130299D01*
X103546443Y-75022480D01*
X103539623Y-75000000D01*
X103546443Y-74977519D01*
X103557062Y-74869700D01*
X103557062Y-74630300D01*
X103546443Y-74522481D01*
X103539623Y-74500000D01*
X103546443Y-74477520D01*
X103557062Y-74369701D01*
X103557062Y-74130301D01*
X103546443Y-74022482D01*
X103539623Y-74000000D01*
X103546443Y-73977519D01*
X103557062Y-73869700D01*
X103557062Y-73630300D01*
X103546443Y-73522481D01*
X103539623Y-73500000D01*
X103546443Y-73477520D01*
X103557062Y-73369701D01*
X103557062Y-73130301D01*
X103546443Y-73022482D01*
X103539623Y-73000000D01*
X103546443Y-72977518D01*
X103557062Y-72869699D01*
X103557062Y-72630299D01*
X103546443Y-72522480D01*
X103539623Y-72500000D01*
X103546443Y-72477519D01*
X103557062Y-72369700D01*
X103557062Y-72130300D01*
X103546443Y-72022481D01*
X103539623Y-72000000D01*
X103546443Y-71977520D01*
X103557062Y-71869701D01*
X103557062Y-71630301D01*
X103546443Y-71522482D01*
X103539623Y-71500001D01*
X103546443Y-71477519D01*
X103557062Y-71369700D01*
X103557062Y-71130300D01*
X103546443Y-71022481D01*
X103539623Y-71000000D01*
X103546443Y-70977519D01*
X103557062Y-70869700D01*
X103557062Y-70630300D01*
X103546443Y-70522481D01*
X103539623Y-70500000D01*
X103546443Y-70477518D01*
X103557062Y-70369699D01*
X103557062Y-70130299D01*
X103546443Y-70022480D01*
X103539623Y-70000000D01*
X103546443Y-69977519D01*
X103557062Y-69869700D01*
X103557062Y-69630300D01*
X103546443Y-69522481D01*
X103539623Y-69500001D01*
X103546443Y-69477520D01*
X103557062Y-69369701D01*
X103557062Y-69130301D01*
X103546443Y-69022482D01*
X103539623Y-69000000D01*
X103546443Y-68977518D01*
X103557062Y-68869699D01*
X103557062Y-68630299D01*
X103546443Y-68522480D01*
X103539623Y-68500000D01*
X103546443Y-68477519D01*
X103557062Y-68369700D01*
X103557062Y-68130300D01*
X103546443Y-68022481D01*
X103539623Y-67999999D01*
X103546443Y-67977518D01*
X103557062Y-67869699D01*
X103557062Y-67630299D01*
X103546443Y-67522480D01*
X103539623Y-67500000D01*
X103546443Y-67477519D01*
X103557062Y-67369700D01*
X103557062Y-67130300D01*
X103546443Y-67022481D01*
X103539623Y-67000001D01*
X103546443Y-66977520D01*
X103557062Y-66869701D01*
X103557062Y-66630301D01*
X103546443Y-66522482D01*
X103539623Y-66500000D01*
X103546443Y-66477518D01*
X103557062Y-66369699D01*
X103557062Y-66130299D01*
X103548248Y-66040799D01*
X120937599Y-66040799D01*
X120993060Y-66096260D01*
X121036078Y-66176742D01*
X121096200Y-66250001D01*
X121036078Y-66323259D01*
X120993063Y-66403735D01*
X120937599Y-66459199D01*
X120951942Y-66506891D01*
X120955384Y-66516459D01*
X120953557Y-66522482D01*
X120942938Y-66630301D01*
X120942938Y-66869701D01*
X120953557Y-66977520D01*
X120960377Y-67000001D01*
X120953557Y-67022481D01*
X120942938Y-67130300D01*
X120942938Y-67369700D01*
X120953557Y-67477519D01*
X120960377Y-67500000D01*
X120953557Y-67522480D01*
X120942938Y-67630299D01*
X120942938Y-67869699D01*
X120953557Y-67977518D01*
X120960377Y-68000000D01*
X120953557Y-68022481D01*
X120942938Y-68130300D01*
X120942938Y-68369700D01*
X120953557Y-68477519D01*
X120960377Y-68500000D01*
X120953557Y-68522480D01*
X120942938Y-68630299D01*
X120942938Y-68869699D01*
X120953557Y-68977518D01*
X120960377Y-69000000D01*
X120953557Y-69022482D01*
X120942938Y-69130301D01*
X120942938Y-69369701D01*
X120953557Y-69477520D01*
X120960377Y-69500001D01*
X120953557Y-69522481D01*
X120942938Y-69630300D01*
X120942938Y-69869700D01*
X120953557Y-69977519D01*
X120960377Y-70000000D01*
X120953557Y-70022480D01*
X120942938Y-70130299D01*
X120942938Y-70369699D01*
X120953557Y-70477518D01*
X120960377Y-70499999D01*
X120953557Y-70522481D01*
X120942938Y-70630300D01*
X120942938Y-70869700D01*
X120953557Y-70977519D01*
X120960377Y-71000000D01*
X120953557Y-71022481D01*
X120942938Y-71130300D01*
X120942938Y-71369700D01*
X120953557Y-71477519D01*
X120960376Y-71499999D01*
X120953557Y-71522479D01*
X120942938Y-71630298D01*
X120942938Y-71869698D01*
X120953557Y-71977517D01*
X120960377Y-71999999D01*
X120953557Y-72022481D01*
X120942938Y-72130300D01*
X120942938Y-72369700D01*
X120953557Y-72477519D01*
X120960377Y-72500000D01*
X120953557Y-72522480D01*
X120942938Y-72630299D01*
X120942938Y-72869699D01*
X120953557Y-72977518D01*
X120960377Y-73000000D01*
X120953557Y-73022482D01*
X120942938Y-73130301D01*
X120942938Y-73369701D01*
X120953557Y-73477520D01*
X120960377Y-73500001D01*
X120953557Y-73522481D01*
X120942938Y-73630300D01*
X120942938Y-73869700D01*
X120953557Y-73977519D01*
X120960377Y-74000000D01*
X120953557Y-74022480D01*
X120942938Y-74130299D01*
X120942938Y-74369699D01*
X120953557Y-74477518D01*
X120960377Y-74499999D01*
X120953557Y-74522481D01*
X120942938Y-74630300D01*
X120942938Y-74869700D01*
X120953557Y-74977519D01*
X120960377Y-75000000D01*
X120953557Y-75022480D01*
X120942938Y-75130299D01*
X120942938Y-75369699D01*
X120953557Y-75477518D01*
X120955384Y-75483541D01*
X120951942Y-75493109D01*
X120937599Y-75540801D01*
X120993063Y-75596265D01*
X121036078Y-75676741D01*
X121096200Y-75750000D01*
X121036078Y-75823258D01*
X120993060Y-75903740D01*
X120937599Y-75959201D01*
X120951942Y-76006893D01*
X120955384Y-76016459D01*
X120953557Y-76022481D01*
X120942938Y-76130300D01*
X120942938Y-76369700D01*
X120953557Y-76477519D01*
X120960377Y-76500000D01*
X120953557Y-76522480D01*
X120942938Y-76630299D01*
X120942938Y-76869699D01*
X120953557Y-76977518D01*
X120985007Y-77081193D01*
X121036078Y-77176741D01*
X121104809Y-77260489D01*
X121188557Y-77329220D01*
X121284105Y-77380291D01*
X121387780Y-77411741D01*
X121495599Y-77422360D01*
X122036105Y-77422360D01*
X122062889Y-77424998D01*
X123025000Y-77424999D01*
X123025001Y-97216838D01*
X123021735Y-97250000D01*
X123034767Y-97382323D01*
X123073365Y-97509561D01*
X123136043Y-97626824D01*
X123199256Y-97703850D01*
X123199264Y-97703858D01*
X123220395Y-97729606D01*
X123246143Y-97750737D01*
X128369258Y-102873852D01*
X128390394Y-102899606D01*
X128493176Y-102983958D01*
X128610439Y-103046636D01*
X128699079Y-103073524D01*
X128737676Y-103085233D01*
X128751499Y-103086594D01*
X128836841Y-103095000D01*
X128836847Y-103095000D01*
X128869999Y-103098265D01*
X128903151Y-103095000D01*
X129767255Y-103095000D01*
X129912549Y-103312448D01*
X130107552Y-103507451D01*
X130336851Y-103660664D01*
X130591635Y-103766199D01*
X130862112Y-103820000D01*
X131137888Y-103820000D01*
X131408365Y-103766199D01*
X131663149Y-103660664D01*
X131892448Y-103507451D01*
X132087451Y-103312448D01*
X132240664Y-103083149D01*
X132346199Y-102828365D01*
X132400000Y-102557888D01*
X132400000Y-102282112D01*
X132346199Y-102011635D01*
X132240664Y-101756851D01*
X132087451Y-101527552D01*
X131892448Y-101332549D01*
X131663149Y-101179336D01*
X131592326Y-101150000D01*
X131663149Y-101120664D01*
X131892448Y-100967451D01*
X132087451Y-100772448D01*
X132240664Y-100543149D01*
X132346199Y-100288365D01*
X132400000Y-100017888D01*
X132400000Y-99742112D01*
X132346199Y-99471635D01*
X132240664Y-99216851D01*
X132087451Y-98987552D01*
X131892448Y-98792549D01*
X131663149Y-98639336D01*
X131593343Y-98610421D01*
X131673584Y-98576434D01*
X131901858Y-98421267D01*
X132095474Y-98224547D01*
X132246991Y-97993834D01*
X132344078Y-97759424D01*
X132251989Y-97544000D01*
X131204000Y-97544000D01*
X131204000Y-97564000D01*
X130796000Y-97564000D01*
X130796000Y-97544000D01*
X129748011Y-97544000D01*
X129655922Y-97759424D01*
X129753009Y-97993834D01*
X129904526Y-98224547D01*
X130098142Y-98421267D01*
X130326416Y-98576434D01*
X130406657Y-98610421D01*
X130336851Y-98639336D01*
X130107552Y-98792549D01*
X129912549Y-98987552D01*
X129767255Y-99205000D01*
X129159594Y-99205000D01*
X124825000Y-94870406D01*
X124825000Y-91729594D01*
X128349258Y-95253852D01*
X128370394Y-95279606D01*
X128473176Y-95363958D01*
X128558494Y-95409561D01*
X128590439Y-95426636D01*
X128717676Y-95465233D01*
X128724469Y-95465902D01*
X128816841Y-95475000D01*
X128816848Y-95475000D01*
X128850000Y-95478265D01*
X128883152Y-95475000D01*
X129767255Y-95475000D01*
X129912549Y-95692448D01*
X130107552Y-95887451D01*
X130336851Y-96040664D01*
X130406657Y-96069579D01*
X130326416Y-96103566D01*
X130098142Y-96258733D01*
X129904526Y-96455453D01*
X129753009Y-96686166D01*
X129655922Y-96920576D01*
X129748011Y-97136000D01*
X130796000Y-97136000D01*
X130796000Y-97116000D01*
X131204000Y-97116000D01*
X131204000Y-97136000D01*
X132251989Y-97136000D01*
X132344078Y-96920576D01*
X132246991Y-96686166D01*
X132095474Y-96455453D01*
X131901858Y-96258733D01*
X131673584Y-96103566D01*
X131593343Y-96069579D01*
X131663149Y-96040664D01*
X131892448Y-95887451D01*
X132087451Y-95692448D01*
X132240664Y-95463149D01*
X132346199Y-95208365D01*
X132400000Y-94937888D01*
X132400000Y-94662112D01*
X132346199Y-94391635D01*
X132240664Y-94136851D01*
X132087451Y-93907552D01*
X131892448Y-93712549D01*
X131663149Y-93559336D01*
X131592326Y-93530000D01*
X131663149Y-93500664D01*
X131892448Y-93347451D01*
X132087451Y-93152448D01*
X132240664Y-92923149D01*
X132346199Y-92668365D01*
X132400000Y-92397888D01*
X132400000Y-92122112D01*
X132346199Y-91851635D01*
X132240664Y-91596851D01*
X132087451Y-91367552D01*
X131892448Y-91172549D01*
X131663149Y-91019336D01*
X131592326Y-90990000D01*
X131663149Y-90960664D01*
X131892448Y-90807451D01*
X132087451Y-90612448D01*
X132240664Y-90383149D01*
X132346199Y-90128365D01*
X132400000Y-89857888D01*
X132400000Y-89582112D01*
X132346199Y-89311635D01*
X132240664Y-89056851D01*
X132087451Y-88827552D01*
X131892448Y-88632549D01*
X131663149Y-88479336D01*
X131592326Y-88450000D01*
X131663149Y-88420664D01*
X131892448Y-88267451D01*
X132087451Y-88072448D01*
X132240664Y-87843149D01*
X132346199Y-87588365D01*
X132400000Y-87317888D01*
X132400000Y-87042112D01*
X132346199Y-86771635D01*
X132240664Y-86516851D01*
X132087451Y-86287552D01*
X131892448Y-86092549D01*
X131663149Y-85939336D01*
X131592326Y-85910000D01*
X131663149Y-85880664D01*
X131892448Y-85727451D01*
X132087451Y-85532448D01*
X132240664Y-85303149D01*
X132346199Y-85048365D01*
X132400000Y-84777888D01*
X132400000Y-84502112D01*
X132346199Y-84231635D01*
X132240664Y-83976851D01*
X132087451Y-83747552D01*
X131892448Y-83552549D01*
X131663149Y-83399336D01*
X131592326Y-83370000D01*
X131663149Y-83340664D01*
X131892448Y-83187451D01*
X132087451Y-82992448D01*
X132240664Y-82763149D01*
X132346199Y-82508365D01*
X132400000Y-82237888D01*
X132400000Y-81962112D01*
X132346199Y-81691635D01*
X132240664Y-81436851D01*
X132087451Y-81207552D01*
X131892448Y-81012549D01*
X131663149Y-80859336D01*
X131592326Y-80830000D01*
X131663149Y-80800664D01*
X131892448Y-80647451D01*
X132087451Y-80452448D01*
X132240664Y-80223149D01*
X132346199Y-79968365D01*
X132400000Y-79697888D01*
X132400000Y-79422112D01*
X132346199Y-79151635D01*
X132240664Y-78896851D01*
X132087451Y-78667552D01*
X131892448Y-78472549D01*
X131663149Y-78319336D01*
X131592326Y-78290000D01*
X131663149Y-78260664D01*
X131892448Y-78107451D01*
X132087451Y-77912448D01*
X132240664Y-77683149D01*
X132346199Y-77428365D01*
X132400000Y-77157888D01*
X132400000Y-76882112D01*
X132346199Y-76611635D01*
X132240664Y-76356851D01*
X132087451Y-76127552D01*
X131892448Y-75932549D01*
X131663149Y-75779336D01*
X131592326Y-75750000D01*
X131663149Y-75720664D01*
X131892448Y-75567451D01*
X132087451Y-75372448D01*
X132240664Y-75143149D01*
X132346199Y-74888365D01*
X132400000Y-74617888D01*
X132400000Y-74342112D01*
X132346199Y-74071635D01*
X132240664Y-73816851D01*
X132087451Y-73587552D01*
X131892448Y-73392549D01*
X131663149Y-73239336D01*
X131592326Y-73210000D01*
X131663149Y-73180664D01*
X131892448Y-73027451D01*
X132087451Y-72832448D01*
X132240664Y-72603149D01*
X132346199Y-72348365D01*
X132400000Y-72077888D01*
X132400000Y-71802112D01*
X132346199Y-71531635D01*
X132240664Y-71276851D01*
X132087451Y-71047552D01*
X131892448Y-70852549D01*
X131663149Y-70699336D01*
X131592326Y-70670000D01*
X131663149Y-70640664D01*
X131892448Y-70487451D01*
X132087451Y-70292448D01*
X132240664Y-70063149D01*
X132346199Y-69808365D01*
X132400000Y-69537888D01*
X132400000Y-69262112D01*
X132346199Y-68991635D01*
X132240664Y-68736851D01*
X132087451Y-68507552D01*
X131892448Y-68312549D01*
X131663149Y-68159336D01*
X131592326Y-68130000D01*
X131663149Y-68100664D01*
X131892448Y-67947451D01*
X132087451Y-67752448D01*
X132240664Y-67523149D01*
X132346199Y-67268365D01*
X132400000Y-66997888D01*
X132400000Y-66722112D01*
X132346199Y-66451635D01*
X132240664Y-66196851D01*
X132087451Y-65967552D01*
X131892448Y-65772549D01*
X131663149Y-65619336D01*
X131592326Y-65590000D01*
X131663149Y-65560664D01*
X131892448Y-65407451D01*
X132087451Y-65212448D01*
X132240664Y-64983149D01*
X132346199Y-64728365D01*
X132400000Y-64457888D01*
X132400000Y-64182112D01*
X132346199Y-63911635D01*
X132240664Y-63656851D01*
X132087451Y-63427552D01*
X131892448Y-63232549D01*
X131663149Y-63079336D01*
X131592326Y-63050000D01*
X131663149Y-63020664D01*
X131892448Y-62867451D01*
X132087451Y-62672448D01*
X132240664Y-62443149D01*
X132346199Y-62188365D01*
X132400000Y-61917888D01*
X132400000Y-61642112D01*
X132346199Y-61371635D01*
X132240664Y-61116851D01*
X132087451Y-60887552D01*
X131892448Y-60692549D01*
X131663149Y-60539336D01*
X131592326Y-60510000D01*
X131663149Y-60480664D01*
X131892448Y-60327451D01*
X132087451Y-60132448D01*
X132240664Y-59903149D01*
X132346199Y-59648365D01*
X132400000Y-59377888D01*
X132400000Y-59102112D01*
X132346199Y-58831635D01*
X132240664Y-58576851D01*
X132087451Y-58347552D01*
X131892448Y-58152549D01*
X131663149Y-57999336D01*
X131592326Y-57970000D01*
X131663149Y-57940664D01*
X131892448Y-57787451D01*
X132087451Y-57592448D01*
X132240664Y-57363149D01*
X132346199Y-57108365D01*
X132400000Y-56837888D01*
X132400000Y-56562112D01*
X132346199Y-56291635D01*
X132240664Y-56036851D01*
X132087451Y-55807552D01*
X131892448Y-55612549D01*
X131663149Y-55459336D01*
X131592326Y-55430000D01*
X131663149Y-55400664D01*
X131892448Y-55247451D01*
X132087451Y-55052448D01*
X132240664Y-54823149D01*
X132346199Y-54568365D01*
X132400000Y-54297888D01*
X132400000Y-54022112D01*
X132346199Y-53751635D01*
X132240664Y-53496851D01*
X132087451Y-53267552D01*
X131892448Y-53072549D01*
X131663149Y-52919336D01*
X131592326Y-52890000D01*
X131663149Y-52860664D01*
X131892448Y-52707451D01*
X132087451Y-52512448D01*
X132240664Y-52283149D01*
X132346199Y-52028365D01*
X132400000Y-51757888D01*
X132400000Y-51482112D01*
X132346199Y-51211635D01*
X132240664Y-50956851D01*
X132087451Y-50727552D01*
X131892448Y-50532549D01*
X131663149Y-50379336D01*
X131593343Y-50350421D01*
X131673584Y-50316434D01*
X131901858Y-50161267D01*
X132095474Y-49964547D01*
X132246991Y-49733834D01*
X132344078Y-49499424D01*
X132251989Y-49284000D01*
X131204000Y-49284000D01*
X131204000Y-49304000D01*
X130796000Y-49304000D01*
X130796000Y-49284000D01*
X129748011Y-49284000D01*
X129655922Y-49499424D01*
X129753009Y-49733834D01*
X129904526Y-49964547D01*
X130098142Y-50161267D01*
X130326416Y-50316434D01*
X130406657Y-50350421D01*
X130336851Y-50379336D01*
X130107552Y-50532549D01*
X129912549Y-50727552D01*
X129767255Y-50945000D01*
X128463152Y-50945000D01*
X128430000Y-50941735D01*
X128396848Y-50945000D01*
X128396841Y-50945000D01*
X128310192Y-50953534D01*
X128297676Y-50954767D01*
X128180081Y-50990439D01*
X128170439Y-50993364D01*
X128053176Y-51056042D01*
X127950394Y-51140394D01*
X127929258Y-51166148D01*
X124325000Y-54770406D01*
X124325000Y-51529594D01*
X128639595Y-47215000D01*
X129767255Y-47215000D01*
X129912549Y-47432448D01*
X130107552Y-47627451D01*
X130336851Y-47780664D01*
X130406657Y-47809579D01*
X130326416Y-47843566D01*
X130098142Y-47998733D01*
X129904526Y-48195453D01*
X129753009Y-48426166D01*
X129655922Y-48660576D01*
X129748011Y-48876000D01*
X130796000Y-48876000D01*
X130796000Y-48856000D01*
X131204000Y-48856000D01*
X131204000Y-48876000D01*
X132251989Y-48876000D01*
X132344078Y-48660576D01*
X132246991Y-48426166D01*
X132095474Y-48195453D01*
X131901858Y-47998733D01*
X131673584Y-47843566D01*
X131593343Y-47809579D01*
X131663149Y-47780664D01*
X131892448Y-47627451D01*
X132087451Y-47432448D01*
X132240664Y-47203149D01*
X132346199Y-46948365D01*
X132400000Y-46677888D01*
X132400000Y-46402112D01*
X132346199Y-46131635D01*
X132240664Y-45876851D01*
X132087451Y-45647552D01*
X131892448Y-45452549D01*
X131817785Y-45402661D01*
X131850000Y-45402661D01*
X131957819Y-45392042D01*
X132061494Y-45360592D01*
X132157042Y-45309521D01*
X132240790Y-45240790D01*
X132309521Y-45157042D01*
X132360592Y-45061494D01*
X132392042Y-44957819D01*
X132402661Y-44850000D01*
X132402661Y-43150000D01*
X132392042Y-43042181D01*
X132360592Y-42938506D01*
X132309521Y-42842958D01*
X132240790Y-42759210D01*
X132157042Y-42690479D01*
X132061494Y-42639408D01*
X131957819Y-42607958D01*
X131850000Y-42597339D01*
X130150000Y-42597339D01*
X130042181Y-42607958D01*
X129938506Y-42639408D01*
X129842958Y-42690479D01*
X129759210Y-42759210D01*
X129690479Y-42842958D01*
X129639408Y-42938506D01*
X129607958Y-43042181D01*
X129597339Y-43150000D01*
X129597339Y-43325000D01*
X128383152Y-43325000D01*
X128350000Y-43321735D01*
X128316848Y-43325000D01*
X128316841Y-43325000D01*
X128230192Y-43333534D01*
X128217676Y-43334767D01*
X128090438Y-43373364D01*
X128027760Y-43406866D01*
X127973176Y-43436042D01*
X127973174Y-43436043D01*
X127973175Y-43436043D01*
X127896149Y-43499256D01*
X127896142Y-43499263D01*
X127870394Y-43520394D01*
X127849262Y-43546143D01*
X122746143Y-48649263D01*
X122720395Y-48670394D01*
X122699264Y-48696142D01*
X122699256Y-48696150D01*
X122636043Y-48773176D01*
X122573365Y-48890439D01*
X122534767Y-49017677D01*
X122521735Y-49150000D01*
X122525001Y-49183162D01*
X122525000Y-64574999D01*
X122062889Y-64574999D01*
X122036095Y-64577638D01*
X121495599Y-64577638D01*
X121387780Y-64588257D01*
X121284105Y-64619707D01*
X121188557Y-64670778D01*
X121104809Y-64739509D01*
X121036078Y-64823257D01*
X120985007Y-64918805D01*
X120953557Y-65022480D01*
X120942938Y-65130299D01*
X120942938Y-65369699D01*
X120953557Y-65477518D01*
X120960377Y-65500000D01*
X120953557Y-65522481D01*
X120942938Y-65630300D01*
X120942938Y-65869700D01*
X120953557Y-65977519D01*
X120955384Y-65983541D01*
X120951942Y-65993107D01*
X120937599Y-66040799D01*
X103548248Y-66040799D01*
X103546443Y-66022480D01*
X103539623Y-66000000D01*
X103546443Y-65977519D01*
X103557062Y-65869700D01*
X103557062Y-65630300D01*
X103546443Y-65522481D01*
X103539623Y-65500001D01*
X103546443Y-65477520D01*
X103557062Y-65369701D01*
X103557062Y-65130301D01*
X103546443Y-65022482D01*
X103514993Y-64918807D01*
X103463922Y-64823259D01*
X103395191Y-64739511D01*
X103311443Y-64670780D01*
X103215895Y-64619709D01*
X103112220Y-64588259D01*
X103004401Y-64577640D01*
X102463905Y-64577640D01*
X102437111Y-64575001D01*
X100725000Y-64575001D01*
X100725000Y-47883151D01*
X100728265Y-47849999D01*
X100725000Y-47816847D01*
X100725000Y-47816841D01*
X100715233Y-47717677D01*
X100676636Y-47590439D01*
X100613958Y-47473176D01*
X100529606Y-47370394D01*
X100503852Y-47349258D01*
X96700742Y-43546148D01*
X96679606Y-43520394D01*
X96576824Y-43436042D01*
X96459561Y-43373364D01*
X96332323Y-43334767D01*
X96233159Y-43325000D01*
X96233152Y-43325000D01*
X96200000Y-43321735D01*
X96166848Y-43325000D01*
X95232745Y-43325000D01*
X95087451Y-43107552D01*
X94892448Y-42912549D01*
X94663149Y-42759336D01*
X94408365Y-42653801D01*
X94137888Y-42600000D01*
X93862112Y-42600000D01*
X93591635Y-42653801D01*
X93336851Y-42759336D01*
X93107552Y-42912549D01*
X92912549Y-43107552D01*
X92759336Y-43336851D01*
X92653801Y-43591635D01*
X92600000Y-43862112D01*
X92600000Y-44137888D01*
X92653801Y-44408365D01*
X92759336Y-44663149D01*
X92912549Y-44892448D01*
X93107552Y-45087451D01*
X93336851Y-45240664D01*
X93407674Y-45270000D01*
X93336851Y-45299336D01*
X93107552Y-45452549D01*
X92912549Y-45647552D01*
X92759336Y-45876851D01*
X92653801Y-46131635D01*
X92600000Y-46402112D01*
X92600000Y-46677888D01*
X92653801Y-46948365D01*
X92759336Y-47203149D01*
X92912549Y-47432448D01*
X93107552Y-47627451D01*
X93336851Y-47780664D01*
X93407674Y-47810000D01*
X93336851Y-47839336D01*
X93107552Y-47992549D01*
X92912549Y-48187552D01*
X92759336Y-48416851D01*
X92653801Y-48671635D01*
X92600000Y-48942112D01*
X92600000Y-49217888D01*
X92653801Y-49488365D01*
X92759336Y-49743149D01*
X92912549Y-49972448D01*
X93107552Y-50167451D01*
X93336851Y-50320664D01*
X93407674Y-50350000D01*
X93336851Y-50379336D01*
X93107552Y-50532549D01*
X92912549Y-50727552D01*
X92759336Y-50956851D01*
X92653801Y-51211635D01*
X92600000Y-51482112D01*
X92600000Y-51757888D01*
X92653801Y-52028365D01*
X92759336Y-52283149D01*
X92912549Y-52512448D01*
X93107552Y-52707451D01*
X93336851Y-52860664D01*
X93407674Y-52890000D01*
X93336851Y-52919336D01*
X93107552Y-53072549D01*
X92912549Y-53267552D01*
X92759336Y-53496851D01*
X92653801Y-53751635D01*
X92600000Y-54022112D01*
X92600000Y-54297888D01*
X92653801Y-54568365D01*
X92759336Y-54823149D01*
X92912549Y-55052448D01*
X93107552Y-55247451D01*
X93336851Y-55400664D01*
X93407674Y-55430000D01*
X93336851Y-55459336D01*
X93107552Y-55612549D01*
X92912549Y-55807552D01*
X92759336Y-56036851D01*
X92653801Y-56291635D01*
X92600000Y-56562112D01*
X92600000Y-56837888D01*
X92653801Y-57108365D01*
X92759336Y-57363149D01*
X92912549Y-57592448D01*
X93107552Y-57787451D01*
X93336851Y-57940664D01*
X93407674Y-57970000D01*
X93336851Y-57999336D01*
X93107552Y-58152549D01*
X92912549Y-58347552D01*
X92759336Y-58576851D01*
X92653801Y-58831635D01*
X92600000Y-59102112D01*
X92600000Y-59377888D01*
X92653801Y-59648365D01*
X92759336Y-59903149D01*
X92912549Y-60132448D01*
X93107552Y-60327451D01*
X93336851Y-60480664D01*
X93407674Y-60510000D01*
X93336851Y-60539336D01*
X93107552Y-60692549D01*
X92912549Y-60887552D01*
X92759336Y-61116851D01*
X92653801Y-61371635D01*
X92600000Y-61642112D01*
X92600000Y-61917888D01*
X92653801Y-62188365D01*
X92759336Y-62443149D01*
X92912549Y-62672448D01*
X93107552Y-62867451D01*
X93336851Y-63020664D01*
X93407674Y-63050000D01*
X93336851Y-63079336D01*
X93107552Y-63232549D01*
X92912549Y-63427552D01*
X92759336Y-63656851D01*
X92653801Y-63911635D01*
X92600000Y-64182112D01*
X92600000Y-64457888D01*
X92653801Y-64728365D01*
X92759336Y-64983149D01*
X92912549Y-65212448D01*
X93107552Y-65407451D01*
X93336851Y-65560664D01*
X93407674Y-65590000D01*
X93336851Y-65619336D01*
X93107552Y-65772549D01*
X92912549Y-65967552D01*
X92759336Y-66196851D01*
X92653801Y-66451635D01*
X92600000Y-66722112D01*
X92600000Y-66997888D01*
X92653801Y-67268365D01*
X92759336Y-67523149D01*
X92912549Y-67752448D01*
X93107552Y-67947451D01*
X93336851Y-68100664D01*
X93407674Y-68130000D01*
X93336851Y-68159336D01*
X93107552Y-68312549D01*
X92912549Y-68507552D01*
X92759336Y-68736851D01*
X92653801Y-68991635D01*
X92600000Y-69262112D01*
X92600000Y-69537888D01*
X92653801Y-69808365D01*
X92759336Y-70063149D01*
X92912549Y-70292448D01*
X93107552Y-70487451D01*
X93336851Y-70640664D01*
X93407674Y-70670000D01*
X93336851Y-70699336D01*
X93107552Y-70852549D01*
X92912549Y-71047552D01*
X92759336Y-71276851D01*
X92653801Y-71531635D01*
X92600000Y-71802112D01*
X92600000Y-72077888D01*
X92653801Y-72348365D01*
X92759336Y-72603149D01*
X92912549Y-72832448D01*
X93107552Y-73027451D01*
X93336851Y-73180664D01*
X93407674Y-73210000D01*
X93336851Y-73239336D01*
X93107552Y-73392549D01*
X92912549Y-73587552D01*
X92759336Y-73816851D01*
X92653801Y-74071635D01*
X92600000Y-74342112D01*
X92600000Y-74617888D01*
X92653801Y-74888365D01*
X92759336Y-75143149D01*
X92912549Y-75372448D01*
X93107552Y-75567451D01*
X93336851Y-75720664D01*
X93407674Y-75750000D01*
X93336851Y-75779336D01*
X93107552Y-75932549D01*
X92912549Y-76127552D01*
X92759336Y-76356851D01*
X92653801Y-76611635D01*
X92600000Y-76882112D01*
X92600000Y-77157888D01*
X92653801Y-77428365D01*
X92759336Y-77683149D01*
X92912549Y-77912448D01*
X93107552Y-78107451D01*
X93336851Y-78260664D01*
X93407674Y-78290000D01*
X93336851Y-78319336D01*
X93107552Y-78472549D01*
X92912549Y-78667552D01*
X92759336Y-78896851D01*
X92653801Y-79151635D01*
X92600000Y-79422112D01*
X92600000Y-79697888D01*
X92653801Y-79968365D01*
X92759336Y-80223149D01*
X92912549Y-80452448D01*
X93107552Y-80647451D01*
X93336851Y-80800664D01*
X93407674Y-80830000D01*
X93336851Y-80859336D01*
X93107552Y-81012549D01*
X92912549Y-81207552D01*
X92759336Y-81436851D01*
X92653801Y-81691635D01*
X92600000Y-81962112D01*
X92600000Y-82237888D01*
X92653801Y-82508365D01*
X92759336Y-82763149D01*
X92912549Y-82992448D01*
X93107552Y-83187451D01*
X93336851Y-83340664D01*
X93407674Y-83370000D01*
X93336851Y-83399336D01*
X93107552Y-83552549D01*
X92912549Y-83747552D01*
X92759336Y-83976851D01*
X92653801Y-84231635D01*
X92600000Y-84502112D01*
X92600000Y-84777888D01*
X92653801Y-85048365D01*
X92759336Y-85303149D01*
X92912549Y-85532448D01*
X93107552Y-85727451D01*
X93336851Y-85880664D01*
X93407674Y-85910000D01*
X93336851Y-85939336D01*
X93107552Y-86092549D01*
X92912549Y-86287552D01*
X92759336Y-86516851D01*
X92653801Y-86771635D01*
X92600000Y-87042112D01*
X92600000Y-87317888D01*
X92653801Y-87588365D01*
X92759336Y-87843149D01*
X92912549Y-88072448D01*
X93107552Y-88267451D01*
X93336851Y-88420664D01*
X93407674Y-88450000D01*
X93336851Y-88479336D01*
X93107552Y-88632549D01*
X92912549Y-88827552D01*
X92759336Y-89056851D01*
X92653801Y-89311635D01*
X92600000Y-89582112D01*
X92600000Y-89857888D01*
X92653801Y-90128365D01*
X92759336Y-90383149D01*
X92912549Y-90612448D01*
X93107552Y-90807451D01*
X93336851Y-90960664D01*
X93407674Y-90990000D01*
X93336851Y-91019336D01*
X93107552Y-91172549D01*
X92912549Y-91367552D01*
X92759336Y-91596851D01*
X92653801Y-91851635D01*
X92600000Y-92122112D01*
X92600000Y-92397888D01*
X92653801Y-92668365D01*
X92759336Y-92923149D01*
X92912549Y-93152448D01*
X93107552Y-93347451D01*
X93336851Y-93500664D01*
X93407674Y-93530000D01*
X93336851Y-93559336D01*
X93107552Y-93712549D01*
X92912549Y-93907552D01*
X92759336Y-94136851D01*
X92653801Y-94391635D01*
X92600000Y-94662112D01*
X92600000Y-94937888D01*
X92653801Y-95208365D01*
X92759336Y-95463149D01*
X92912549Y-95692448D01*
X93107552Y-95887451D01*
X93336851Y-96040664D01*
X93407674Y-96070000D01*
X93336851Y-96099336D01*
X93107552Y-96252549D01*
X92912549Y-96447552D01*
X92759336Y-96676851D01*
X92653801Y-96931635D01*
X92600000Y-97202112D01*
X92600000Y-97477888D01*
X92653801Y-97748365D01*
X92759336Y-98003149D01*
X92912549Y-98232448D01*
X93107552Y-98427451D01*
X93336851Y-98580664D01*
X93407674Y-98610000D01*
X93336851Y-98639336D01*
X93107552Y-98792549D01*
X92912549Y-98987552D01*
X92759336Y-99216851D01*
X92653801Y-99471635D01*
X92600000Y-99742112D01*
X92600000Y-100017888D01*
X92653801Y-100288365D01*
X92759336Y-100543149D01*
X92912549Y-100772448D01*
X93107552Y-100967451D01*
X93182215Y-101017339D01*
X93150000Y-101017339D01*
X93042181Y-101027958D01*
X92938506Y-101059408D01*
X92842958Y-101110479D01*
X92759210Y-101179210D01*
X92690479Y-101262958D01*
X92639408Y-101358506D01*
X92607958Y-101462181D01*
X92597339Y-101570000D01*
X90575000Y-101570000D01*
X90575000Y-42028126D01*
X90604844Y-41723751D01*
X90685071Y-41458027D01*
X90815383Y-41212945D01*
X90990817Y-40997842D01*
X91204692Y-40820908D01*
X91448860Y-40688887D01*
X91714018Y-40606807D01*
X92016637Y-40575000D01*
X132971874Y-40575000D01*
X133276249Y-40604844D01*
G37*
X133276249Y-40604844D02*
X133541973Y-40685071D01*
X133787055Y-40815383D01*
X134002158Y-40990817D01*
X134179092Y-41204692D01*
X134311113Y-41448860D01*
X134393193Y-41714018D01*
X134425000Y-42016637D01*
X134425001Y-104971864D01*
X134395156Y-105276249D01*
X134314928Y-105541975D01*
X134184615Y-105787058D01*
X134009181Y-106002161D01*
X133795304Y-106179095D01*
X133551141Y-106311113D01*
X133285982Y-106393193D01*
X132983363Y-106425000D01*
X92028126Y-106425000D01*
X91723751Y-106395156D01*
X91458025Y-106314928D01*
X91212942Y-106184615D01*
X90997839Y-106009181D01*
X90820905Y-105795304D01*
X90688887Y-105551141D01*
X90606807Y-105285982D01*
X90575000Y-104983363D01*
X90575000Y-101570000D01*
X92597339Y-101570000D01*
X92597339Y-103270000D01*
X92607958Y-103377819D01*
X92639408Y-103481494D01*
X92690479Y-103577042D01*
X92759210Y-103660790D01*
X92842958Y-103729521D01*
X92938506Y-103780592D01*
X93042181Y-103812042D01*
X93150000Y-103822661D01*
X94850000Y-103822661D01*
X94957819Y-103812042D01*
X95061494Y-103780592D01*
X95157042Y-103729521D01*
X95240790Y-103660790D01*
X95309521Y-103577042D01*
X95360592Y-103481494D01*
X95392042Y-103377819D01*
X95402661Y-103270000D01*
X95402661Y-103095000D01*
X96396848Y-103095000D01*
X96430000Y-103098265D01*
X96463152Y-103095000D01*
X96463159Y-103095000D01*
X96562323Y-103085233D01*
X96689561Y-103046636D01*
X96806824Y-102983958D01*
X96909606Y-102899606D01*
X96930742Y-102873852D01*
X101253852Y-98550742D01*
X101279606Y-98529606D01*
X101363958Y-98426824D01*
X101426636Y-98309561D01*
X101462267Y-98192101D01*
X101465233Y-98182324D01*
X101466817Y-98166241D01*
X101475000Y-98083159D01*
X101475000Y-98083153D01*
X101478265Y-98050001D01*
X101475000Y-98016849D01*
X101475000Y-93371080D01*
X104494622Y-93371080D01*
X104501133Y-93437181D01*
X104507097Y-93503187D01*
X104507903Y-93505924D01*
X104508184Y-93508774D01*
X104527462Y-93572324D01*
X104546192Y-93635909D01*
X104547516Y-93638436D01*
X104548348Y-93641177D01*
X104579668Y-93699773D01*
X104610427Y-93758454D01*
X104612221Y-93760677D01*
X104613570Y-93763200D01*
X104655696Y-93814531D01*
X104697337Y-93866114D01*
X104699530Y-93867944D01*
X104701345Y-93870155D01*
X104752699Y-93912300D01*
X104803581Y-93954748D01*
X104806086Y-93956113D01*
X104808300Y-93957930D01*
X104866922Y-93989264D01*
X104925074Y-94020952D01*
X104927798Y-94021802D01*
X104930323Y-94023152D01*
X104993884Y-94042433D01*
X105057149Y-94062183D01*
X105059990Y-94062486D01*
X105062726Y-94063316D01*
X105128775Y-94069821D01*
X105194729Y-94076855D01*
X105232078Y-94073480D01*
X105824200Y-94073480D01*
X105927394Y-94063316D01*
X106059797Y-94023152D01*
X106075112Y-94014966D01*
X106087196Y-94021519D01*
X106089223Y-94022147D01*
X106091103Y-94023152D01*
X106155403Y-94042657D01*
X106219356Y-94062477D01*
X106221468Y-94062698D01*
X106223506Y-94063316D01*
X106290328Y-94069898D01*
X106356966Y-94076865D01*
X106393583Y-94073480D01*
X106984980Y-94073480D01*
X106989790Y-94073006D01*
X106986610Y-94077744D01*
X106965247Y-94103484D01*
X106948163Y-94135026D01*
X106928157Y-94164832D01*
X106915283Y-94195730D01*
X106899351Y-94225145D01*
X106888745Y-94259424D01*
X106874943Y-94292550D01*
X106868347Y-94325350D01*
X106858455Y-94357323D01*
X106854740Y-94393021D01*
X106847667Y-94428195D01*
X106847597Y-94461653D01*
X106844133Y-94494941D01*
X106847454Y-94530677D01*
X106847451Y-94531888D01*
X106850648Y-94565055D01*
X106856934Y-94632708D01*
X106857281Y-94633876D01*
X106868165Y-94746799D01*
X106868538Y-94785584D01*
X106881851Y-94849308D01*
X106894408Y-94913132D01*
X106895985Y-94916962D01*
X106896833Y-94921021D01*
X106922335Y-94980952D01*
X106947090Y-95041071D01*
X106949383Y-95044518D01*
X106951007Y-95048335D01*
X106979149Y-95089589D01*
X106945643Y-95140444D01*
X106893523Y-95268612D01*
X106867409Y-95404485D01*
X106868304Y-95542842D01*
X106896173Y-95678366D01*
X106949947Y-95805850D01*
X107027559Y-95920393D01*
X107126026Y-96017593D01*
X107241564Y-96093717D01*
X107337618Y-96132778D01*
X107377254Y-96144522D01*
X107381243Y-96146557D01*
X107443476Y-96164143D01*
X107472355Y-96172700D01*
X107476735Y-96173542D01*
X107481028Y-96174755D01*
X107510678Y-96180065D01*
X107574184Y-96192271D01*
X107578663Y-96192242D01*
X107827339Y-96236781D01*
X107807644Y-96301707D01*
X107797480Y-96404901D01*
X107797481Y-97644411D01*
X107794082Y-97678920D01*
X107807644Y-97816614D01*
X107847808Y-97949017D01*
X107913030Y-98071040D01*
X108000805Y-98177995D01*
X108107760Y-98265770D01*
X108229783Y-98330992D01*
X108362186Y-98371156D01*
X108465380Y-98381320D01*
X108465381Y-98381320D01*
X108499880Y-98384718D01*
X108534380Y-98381320D01*
X108783519Y-98381320D01*
X108816101Y-98384707D01*
X108852509Y-98381320D01*
X108854420Y-98381320D01*
X108886945Y-98378116D01*
X108953865Y-98371891D01*
X108955703Y-98371344D01*
X108957614Y-98371156D01*
X109022062Y-98351606D01*
X109086483Y-98332444D01*
X109088178Y-98331550D01*
X109090017Y-98330992D01*
X109149479Y-98299209D01*
X109178196Y-98284059D01*
X109179778Y-98283014D01*
X109212040Y-98265770D01*
X109237373Y-98244980D01*
X109295914Y-98206321D01*
X109330613Y-98236503D01*
X109331889Y-98237233D01*
X109333002Y-98238193D01*
X109391892Y-98271553D01*
X109450715Y-98305198D01*
X109452111Y-98305666D01*
X109453388Y-98306389D01*
X109517637Y-98327613D01*
X109581912Y-98349142D01*
X109583371Y-98349328D01*
X109584766Y-98349789D01*
X109651987Y-98358079D01*
X109684772Y-98362261D01*
X109686230Y-98362303D01*
X109722086Y-98366725D01*
X109755204Y-98364282D01*
X110373503Y-98382020D01*
X110476946Y-98374819D01*
X110610446Y-98338469D01*
X110734289Y-98276773D01*
X110750275Y-98264404D01*
X110788667Y-98291666D01*
X110805658Y-98299277D01*
X110821402Y-98309254D01*
X110868701Y-98327517D01*
X110914938Y-98348228D01*
X110933094Y-98352379D01*
X110950477Y-98359091D01*
X111000417Y-98367773D01*
X111049818Y-98379068D01*
X111068439Y-98379598D01*
X111086792Y-98382788D01*
X111137463Y-98381560D01*
X111188121Y-98383001D01*
X111206484Y-98379888D01*
X111225113Y-98379437D01*
X111274578Y-98368346D01*
X111324536Y-98359878D01*
X111341939Y-98353243D01*
X111360121Y-98349166D01*
X111406465Y-98328641D01*
X111453819Y-98310586D01*
X111469598Y-98300680D01*
X111486629Y-98293137D01*
X111528074Y-98263968D01*
X111571001Y-98237018D01*
X111581930Y-98226693D01*
X111607881Y-98247990D01*
X111729904Y-98313212D01*
X111862307Y-98353376D01*
X112000000Y-98366938D01*
X112137694Y-98353376D01*
X112270097Y-98313212D01*
X112392120Y-98247990D01*
X112450457Y-98200114D01*
X112507247Y-98234704D01*
X112537912Y-98257321D01*
X112597403Y-98285265D01*
X112656661Y-98313810D01*
X112660014Y-98314675D01*
X112663145Y-98316146D01*
X112727002Y-98331962D01*
X112790632Y-98348383D01*
X112828669Y-98350523D01*
X113036516Y-98380792D01*
X113081386Y-98390398D01*
X113139370Y-98391242D01*
X113197278Y-98393933D01*
X113208442Y-98392247D01*
X113219731Y-98392411D01*
X113276753Y-98381929D01*
X113334087Y-98373269D01*
X113344708Y-98369437D01*
X113355811Y-98367396D01*
X113409673Y-98345998D01*
X113464235Y-98326313D01*
X113473910Y-98320479D01*
X113484397Y-98316313D01*
X113533042Y-98284824D01*
X113543837Y-98278315D01*
X113589357Y-98304497D01*
X113602575Y-98308960D01*
X113614935Y-98315435D01*
X113668014Y-98331055D01*
X113720447Y-98348759D01*
X113734287Y-98350558D01*
X113747668Y-98354496D01*
X113802767Y-98359461D01*
X113823275Y-98362127D01*
X113837143Y-98362558D01*
X113885469Y-98366913D01*
X113906127Y-98364705D01*
X114463741Y-98382053D01*
X114567202Y-98375102D01*
X114700789Y-98339075D01*
X114747393Y-98315999D01*
X114786608Y-98326496D01*
X114841726Y-98343216D01*
X114887779Y-98347752D01*
X115036224Y-98372221D01*
X115044023Y-98374948D01*
X115104373Y-98383454D01*
X115130361Y-98387738D01*
X115138565Y-98388274D01*
X115181030Y-98394259D01*
X115207441Y-98392770D01*
X115233835Y-98394493D01*
X115276348Y-98388885D01*
X115284558Y-98388422D01*
X115310587Y-98384368D01*
X115371007Y-98376398D01*
X115378830Y-98373740D01*
X115593784Y-98340264D01*
X115627761Y-98338411D01*
X115661984Y-98329642D01*
X115662615Y-98329544D01*
X115694912Y-98321205D01*
X115761793Y-98304069D01*
X115762386Y-98303785D01*
X115763016Y-98303622D01*
X115824628Y-98273935D01*
X115886548Y-98244239D01*
X115887071Y-98243847D01*
X115887662Y-98243562D01*
X115942508Y-98202267D01*
X115997235Y-98161220D01*
X115997671Y-98160733D01*
X115998195Y-98160339D01*
X116044068Y-98108985D01*
X116066456Y-98084014D01*
X116066835Y-98083497D01*
X116090369Y-98057151D01*
X116107649Y-98027842D01*
X116214905Y-97881585D01*
X116246341Y-97843409D01*
X116272075Y-97795455D01*
X116299790Y-97748645D01*
X116304726Y-97734611D01*
X116311766Y-97721493D01*
X116327653Y-97669431D01*
X116345699Y-97618124D01*
X116347803Y-97603396D01*
X116352148Y-97589156D01*
X116357570Y-97535017D01*
X116365264Y-97481154D01*
X116364453Y-97466288D01*
X116365936Y-97451485D01*
X116360695Y-97397350D01*
X116357731Y-97342998D01*
X116354036Y-97328576D01*
X116352602Y-97313768D01*
X116336897Y-97261688D01*
X116323389Y-97208967D01*
X116302003Y-97164373D01*
X116234960Y-97001761D01*
X116308089Y-96912589D01*
X116373268Y-96790542D01*
X116413384Y-96658125D01*
X116426897Y-96520426D01*
X116413286Y-96382738D01*
X116373075Y-96250349D01*
X116362894Y-96231318D01*
X116420520Y-96233239D01*
X116523996Y-96226519D01*
X116657663Y-96190788D01*
X116781791Y-96129667D01*
X116891611Y-96045504D01*
X116982901Y-95941533D01*
X117052152Y-95821750D01*
X117096704Y-95690759D01*
X117114846Y-95553593D01*
X117105879Y-95415525D01*
X117070148Y-95281857D01*
X117009028Y-95157729D01*
X116924864Y-95047909D01*
X116886361Y-95014102D01*
X116904642Y-94947048D01*
X116914294Y-94809026D01*
X116906847Y-94750490D01*
X116992690Y-94642198D01*
X117055835Y-94519087D01*
X117093749Y-94386023D01*
X117104976Y-94248120D01*
X117089083Y-94110675D01*
X117064319Y-94033756D01*
X117117355Y-94016212D01*
X117237714Y-93947967D01*
X117252907Y-93934851D01*
X117361084Y-93992672D01*
X117493487Y-94032836D01*
X117631180Y-94046398D01*
X117768874Y-94032836D01*
X117901277Y-93992672D01*
X118023300Y-93927450D01*
X118027740Y-93923806D01*
X118056940Y-93947770D01*
X118090247Y-93965573D01*
X118121815Y-93986268D01*
X118151097Y-93998098D01*
X118178963Y-94012992D01*
X118215103Y-94023955D01*
X118250102Y-94038094D01*
X118281130Y-94043984D01*
X118311366Y-94053156D01*
X118348944Y-94056857D01*
X118386034Y-94063898D01*
X118452016Y-94063320D01*
X118696839Y-94063320D01*
X118721482Y-94066443D01*
X118765836Y-94063320D01*
X118775660Y-94063320D01*
X118800292Y-94060894D01*
X118859500Y-94056725D01*
X118869021Y-94054125D01*
X118878854Y-94053156D01*
X118935702Y-94035911D01*
X118992971Y-94020269D01*
X119001805Y-94015859D01*
X119011257Y-94012992D01*
X119063646Y-93984990D01*
X119085748Y-93973957D01*
X119094049Y-93968739D01*
X119133280Y-93947770D01*
X119152491Y-93932004D01*
X119321965Y-93825477D01*
X119403924Y-93761955D01*
X119494647Y-93657490D01*
X119563247Y-93537333D01*
X119607088Y-93406101D01*
X119624483Y-93268839D01*
X119614765Y-93130821D01*
X119578308Y-92997349D01*
X119516513Y-92873555D01*
X119452591Y-92791080D01*
X119514515Y-92732083D01*
X119594145Y-92618934D01*
X119650171Y-92492425D01*
X119680439Y-92357415D01*
X119683787Y-92219096D01*
X119660086Y-92082781D01*
X119610246Y-91953708D01*
X119536183Y-91836840D01*
X119440743Y-91736665D01*
X119355944Y-91676987D01*
X119082498Y-91522206D01*
X119049900Y-91499926D01*
X118990718Y-91474682D01*
X118931845Y-91448610D01*
X118927106Y-91447547D01*
X118922634Y-91445640D01*
X118859638Y-91432421D01*
X118796835Y-91418341D01*
X118791975Y-91418223D01*
X118787222Y-91417226D01*
X118722876Y-91416551D01*
X118658517Y-91414993D01*
X118619611Y-91421758D01*
X118444625Y-91437141D01*
X118402156Y-91437637D01*
X118342062Y-91450322D01*
X118281753Y-91461663D01*
X118274470Y-91464590D01*
X118266779Y-91466214D01*
X118210328Y-91490374D01*
X118153376Y-91513267D01*
X118146797Y-91517564D01*
X118139579Y-91520653D01*
X118088949Y-91555345D01*
X118073396Y-91565503D01*
X118023299Y-91524390D01*
X117901276Y-91459168D01*
X117768873Y-91419004D01*
X117631180Y-91405442D01*
X117493486Y-91419004D01*
X117361083Y-91459168D01*
X117349496Y-91465361D01*
X117278620Y-91444995D01*
X117175288Y-91436349D01*
X117132083Y-91436984D01*
X117133268Y-91432960D01*
X117137647Y-91384398D01*
X117144840Y-91336165D01*
X117142180Y-91281133D01*
X117132097Y-90058618D01*
X117140981Y-90055037D01*
X117174805Y-90045065D01*
X117204974Y-90029242D01*
X117236584Y-90016500D01*
X117266099Y-89997183D01*
X117297335Y-89980800D01*
X117323846Y-89959388D01*
X117352354Y-89940730D01*
X117377527Y-89916032D01*
X117404973Y-89893865D01*
X117426800Y-89867689D01*
X117451117Y-89843831D01*
X117470989Y-89814696D01*
X117493583Y-89787600D01*
X117509881Y-89757675D01*
X117529079Y-89729527D01*
X117542888Y-89697066D01*
X117559758Y-89666091D01*
X117569903Y-89633566D01*
X117583243Y-89602209D01*
X117590454Y-89567681D01*
X117600957Y-89534007D01*
X117604563Y-89500119D01*
X117611527Y-89466770D01*
X117611863Y-89431506D01*
X117615596Y-89396423D01*
X117612521Y-89362484D01*
X117612846Y-89328416D01*
X117606295Y-89293756D01*
X117603112Y-89258628D01*
X117593478Y-89225952D01*
X117587148Y-89192462D01*
X117573956Y-89159735D01*
X117563985Y-89125915D01*
X117548164Y-89095749D01*
X117535420Y-89064135D01*
X117516100Y-89034616D01*
X117499720Y-89003385D01*
X117478312Y-88976878D01*
X117467270Y-88960008D01*
X117484938Y-88943903D01*
X117493292Y-88932572D01*
X117503308Y-88922684D01*
X117534269Y-88876989D01*
X117567041Y-88832536D01*
X117573025Y-88819789D01*
X117580918Y-88808140D01*
X117602368Y-88757285D01*
X117625839Y-88707290D01*
X117629221Y-88693622D01*
X117634690Y-88680656D01*
X117645808Y-88626589D01*
X117659073Y-88572979D01*
X117659723Y-88558915D01*
X117662558Y-88545130D01*
X117662914Y-88489919D01*
X117665465Y-88434767D01*
X117663360Y-88420852D01*
X117663451Y-88406773D01*
X117653026Y-88352535D01*
X117644771Y-88297962D01*
X117639993Y-88284729D01*
X117637335Y-88270899D01*
X117616526Y-88219731D01*
X117609558Y-88200431D01*
X117603546Y-88187813D01*
X117585212Y-88142731D01*
X117573846Y-88125481D01*
X115779018Y-84358621D01*
X115725454Y-84269834D01*
X115720817Y-84264747D01*
X115700546Y-84225685D01*
X115614081Y-84117668D01*
X115508206Y-84028596D01*
X115386987Y-83961889D01*
X115255083Y-83920114D01*
X115117565Y-83904875D01*
X114979715Y-83916757D01*
X114880127Y-83945646D01*
X114542010Y-84080892D01*
X114500824Y-84093930D01*
X114447660Y-84123176D01*
X114393825Y-84151114D01*
X114387123Y-84156479D01*
X114379597Y-84160619D01*
X114333172Y-84199665D01*
X114285808Y-84237578D01*
X114280278Y-84244151D01*
X114273709Y-84249676D01*
X114235797Y-84297024D01*
X114196736Y-84343454D01*
X114175909Y-84381300D01*
X113924325Y-84767824D01*
X113918610Y-84775369D01*
X113905526Y-84796706D01*
X113891856Y-84817708D01*
X113887490Y-84826119D01*
X113570728Y-85342684D01*
X113109101Y-86093690D01*
X113121261Y-86052263D01*
X113131244Y-86029368D01*
X113140696Y-85986053D01*
X113143421Y-85976768D01*
X113148049Y-85952354D01*
X113160741Y-85894188D01*
X113160921Y-85884448D01*
X113162733Y-85874889D01*
X113162197Y-85815381D01*
X113163297Y-85755850D01*
X113161575Y-85746270D01*
X113161487Y-85736533D01*
X113149344Y-85678235D01*
X113138816Y-85619673D01*
X113135260Y-85610617D01*
X113133273Y-85601080D01*
X113109986Y-85546262D01*
X113088239Y-85490888D01*
X113082983Y-85482698D01*
X113079175Y-85473734D01*
X113045668Y-85424553D01*
X113032234Y-85403620D01*
X113026228Y-85396020D01*
X113001271Y-85359388D01*
X112983453Y-85341889D01*
X112190539Y-84338468D01*
X112188948Y-84335427D01*
X112147748Y-84284316D01*
X112128394Y-84259824D01*
X112126016Y-84257356D01*
X112102115Y-84227706D01*
X112078131Y-84207668D01*
X112056439Y-84185159D01*
X112025163Y-84163415D01*
X111995936Y-84138996D01*
X111968501Y-84124020D01*
X111942836Y-84106177D01*
X111907922Y-84090953D01*
X111874490Y-84072704D01*
X111844662Y-84063369D01*
X111816009Y-84050875D01*
X111778794Y-84042755D01*
X111742445Y-84031379D01*
X111711368Y-84028043D01*
X111705352Y-84026730D01*
X111769638Y-83947701D01*
X113466238Y-83351170D01*
X114432564Y-83064372D01*
X114528601Y-83025267D01*
X114644104Y-82949091D01*
X114742526Y-82851846D01*
X114820086Y-82737268D01*
X114873802Y-82609760D01*
X114901610Y-82474223D01*
X114902442Y-82335865D01*
X114876266Y-82200004D01*
X114824087Y-82071859D01*
X114747911Y-81956356D01*
X114650667Y-81857934D01*
X114615879Y-81834386D01*
X113619191Y-79855826D01*
X113609677Y-79820793D01*
X113548063Y-79696909D01*
X113522421Y-79663725D01*
X112847158Y-78323236D01*
X112827616Y-78278207D01*
X112796421Y-78233173D01*
X112767099Y-78186900D01*
X112757091Y-78176394D01*
X112748830Y-78164469D01*
X112709454Y-78126391D01*
X112671663Y-78086722D01*
X112659798Y-78078371D01*
X112649369Y-78068286D01*
X112603312Y-78038616D01*
X112558517Y-78007088D01*
X112545254Y-78001214D01*
X112533055Y-77993355D01*
X112482095Y-77973240D01*
X112432009Y-77951057D01*
X112417851Y-77947882D01*
X112404357Y-77942556D01*
X112350456Y-77932770D01*
X112297000Y-77920784D01*
X112282496Y-77920432D01*
X112268222Y-77917841D01*
X112213452Y-77918759D01*
X112158682Y-77917431D01*
X112144387Y-77919916D01*
X112129881Y-77920159D01*
X112076325Y-77931748D01*
X112022365Y-77941128D01*
X112008836Y-77946351D01*
X111994650Y-77949421D01*
X111944385Y-77971235D01*
X111893291Y-77990962D01*
X111881036Y-77998727D01*
X111867726Y-78004504D01*
X111822686Y-78035703D01*
X111776420Y-78065021D01*
X111765917Y-78075027D01*
X111753988Y-78083290D01*
X111715898Y-78122678D01*
X111676242Y-78160457D01*
X111667894Y-78172318D01*
X111657805Y-78182751D01*
X111628122Y-78228827D01*
X111596608Y-78273603D01*
X111576742Y-78318456D01*
X108627975Y-84064774D01*
X108607363Y-84097604D01*
X108584185Y-84158390D01*
X108560276Y-84218963D01*
X108559538Y-84223030D01*
X108558068Y-84226884D01*
X108547194Y-84291021D01*
X108535561Y-84355098D01*
X108535630Y-84359227D01*
X108534940Y-84363298D01*
X108536789Y-84428382D01*
X108537879Y-84493438D01*
X108538752Y-84497471D01*
X108538869Y-84501602D01*
X108548914Y-84545539D01*
X108544714Y-84548539D01*
X108531359Y-84555257D01*
X108488532Y-84588664D01*
X108444296Y-84620257D01*
X108434052Y-84631160D01*
X108422264Y-84640355D01*
X108386775Y-84681478D01*
X108349554Y-84721092D01*
X108341634Y-84733784D01*
X108331866Y-84745102D01*
X108305083Y-84792355D01*
X108294657Y-84809062D01*
X108288052Y-84822402D01*
X108263640Y-84865472D01*
X108257435Y-84884241D01*
X108104022Y-85194094D01*
X108084932Y-85213090D01*
X108007781Y-85327943D01*
X107954519Y-85455641D01*
X107940793Y-85523772D01*
X107078092Y-87266194D01*
X107031888Y-87337578D01*
X106987832Y-87448494D01*
X106225473Y-88988254D01*
X106198942Y-89036969D01*
X106184535Y-89083158D01*
X106167423Y-89128407D01*
X106163980Y-89149057D01*
X106157743Y-89169053D01*
X106152623Y-89217172D01*
X106144668Y-89264884D01*
X106145320Y-89285812D01*
X106143104Y-89306637D01*
X106147469Y-89354815D01*
X106148975Y-89403176D01*
X106153699Y-89423583D01*
X106155588Y-89444432D01*
X106169265Y-89490822D01*
X106180180Y-89537972D01*
X106188796Y-89557067D01*
X106194715Y-89577145D01*
X106217180Y-89619977D01*
X106237083Y-89664090D01*
X106249255Y-89681132D01*
X106258980Y-89699675D01*
X106289380Y-89737315D01*
X106317497Y-89776683D01*
X106332755Y-89791019D01*
X106345915Y-89807313D01*
X106383082Y-89838305D01*
X106418332Y-89871425D01*
X106436092Y-89882508D01*
X106452180Y-89895923D01*
X106494675Y-89919066D01*
X106535712Y-89944675D01*
X106555298Y-89952082D01*
X106573689Y-89962098D01*
X106619882Y-89976506D01*
X106665127Y-89993617D01*
X106685777Y-89997060D01*
X106705773Y-90003297D01*
X106753890Y-90008417D01*
X106801604Y-90016372D01*
X106809903Y-90016114D01*
X106451653Y-91128693D01*
X106429698Y-91230035D01*
X106427347Y-91368375D01*
X106433371Y-91401602D01*
X106373054Y-91395295D01*
X106235282Y-91408031D01*
X106102641Y-91447400D01*
X106095085Y-91451381D01*
X105988354Y-91419004D01*
X105885160Y-91408840D01*
X105247919Y-91408840D01*
X105216271Y-91405465D01*
X105178922Y-91408840D01*
X105176080Y-91408840D01*
X105144490Y-91411951D01*
X105078473Y-91417917D01*
X105075736Y-91418723D01*
X105072886Y-91419004D01*
X105009276Y-91438300D01*
X104945751Y-91457012D01*
X104943224Y-91458336D01*
X104940483Y-91459168D01*
X104881887Y-91490488D01*
X104823206Y-91521247D01*
X104820983Y-91523041D01*
X104818460Y-91524390D01*
X104767129Y-91566516D01*
X104715546Y-91608157D01*
X104713716Y-91610350D01*
X104711505Y-91612165D01*
X104669355Y-91663525D01*
X104626912Y-91714401D01*
X104625547Y-91716906D01*
X104623730Y-91719120D01*
X104592396Y-91777742D01*
X104560708Y-91835894D01*
X104559858Y-91838618D01*
X104558508Y-91841143D01*
X104539227Y-91904704D01*
X104519477Y-91967969D01*
X104519174Y-91970810D01*
X104518344Y-91973546D01*
X104511832Y-92039659D01*
X104508482Y-92071077D01*
X104508459Y-92073906D01*
X104504782Y-92111240D01*
X104507903Y-92142923D01*
X104498299Y-93333752D01*
X104494622Y-93371080D01*
X101475000Y-93371080D01*
X101475000Y-77425000D01*
X102437110Y-77425001D01*
X102463904Y-77422362D01*
X103004401Y-77422362D01*
X103112220Y-77411743D01*
X103215895Y-77380293D01*
X103311443Y-77329222D01*
X103395191Y-77260491D01*
X103463922Y-77176743D01*
X103514993Y-77081195D01*
X103546443Y-76977520D01*
X103557062Y-76869701D01*
X103557062Y-76630301D01*
X103546443Y-76522482D01*
X103539623Y-76500001D01*
X103546443Y-76477519D01*
X103557062Y-76369700D01*
X103557062Y-76130300D01*
X103546443Y-76022481D01*
X103539623Y-76000001D01*
X103546443Y-75977520D01*
X103557062Y-75869701D01*
X103557062Y-75630301D01*
X103546443Y-75522482D01*
X103539623Y-75500000D01*
X103546443Y-75477518D01*
X103557062Y-75369699D01*
X103557062Y-75130299D01*
X103546443Y-75022480D01*
X103539623Y-75000000D01*
X103546443Y-74977519D01*
X103557062Y-74869700D01*
X103557062Y-74630300D01*
X103546443Y-74522481D01*
X103539623Y-74500000D01*
X103546443Y-74477520D01*
X103557062Y-74369701D01*
X103557062Y-74130301D01*
X103546443Y-74022482D01*
X103539623Y-74000000D01*
X103546443Y-73977519D01*
X103557062Y-73869700D01*
X103557062Y-73630300D01*
X103546443Y-73522481D01*
X103539623Y-73500000D01*
X103546443Y-73477520D01*
X103557062Y-73369701D01*
X103557062Y-73130301D01*
X103546443Y-73022482D01*
X103539623Y-73000000D01*
X103546443Y-72977518D01*
X103557062Y-72869699D01*
X103557062Y-72630299D01*
X103546443Y-72522480D01*
X103539623Y-72500000D01*
X103546443Y-72477519D01*
X103557062Y-72369700D01*
X103557062Y-72130300D01*
X103546443Y-72022481D01*
X103539623Y-72000000D01*
X103546443Y-71977520D01*
X103557062Y-71869701D01*
X103557062Y-71630301D01*
X103546443Y-71522482D01*
X103539623Y-71500001D01*
X103546443Y-71477519D01*
X103557062Y-71369700D01*
X103557062Y-71130300D01*
X103546443Y-71022481D01*
X103539623Y-71000000D01*
X103546443Y-70977519D01*
X103557062Y-70869700D01*
X103557062Y-70630300D01*
X103546443Y-70522481D01*
X103539623Y-70500000D01*
X103546443Y-70477518D01*
X103557062Y-70369699D01*
X103557062Y-70130299D01*
X103546443Y-70022480D01*
X103539623Y-70000000D01*
X103546443Y-69977519D01*
X103557062Y-69869700D01*
X103557062Y-69630300D01*
X103546443Y-69522481D01*
X103539623Y-69500001D01*
X103546443Y-69477520D01*
X103557062Y-69369701D01*
X103557062Y-69130301D01*
X103546443Y-69022482D01*
X103539623Y-69000000D01*
X103546443Y-68977518D01*
X103557062Y-68869699D01*
X103557062Y-68630299D01*
X103546443Y-68522480D01*
X103539623Y-68500000D01*
X103546443Y-68477519D01*
X103557062Y-68369700D01*
X103557062Y-68130300D01*
X103546443Y-68022481D01*
X103539623Y-67999999D01*
X103546443Y-67977518D01*
X103557062Y-67869699D01*
X103557062Y-67630299D01*
X103546443Y-67522480D01*
X103539623Y-67500000D01*
X103546443Y-67477519D01*
X103557062Y-67369700D01*
X103557062Y-67130300D01*
X103546443Y-67022481D01*
X103539623Y-67000001D01*
X103546443Y-66977520D01*
X103557062Y-66869701D01*
X103557062Y-66630301D01*
X103546443Y-66522482D01*
X103539623Y-66500000D01*
X103546443Y-66477518D01*
X103557062Y-66369699D01*
X103557062Y-66130299D01*
X103548248Y-66040799D01*
X120937599Y-66040799D01*
X120993060Y-66096260D01*
X121036078Y-66176742D01*
X121096200Y-66250001D01*
X121036078Y-66323259D01*
X120993063Y-66403735D01*
X120937599Y-66459199D01*
X120951942Y-66506891D01*
X120955384Y-66516459D01*
X120953557Y-66522482D01*
X120942938Y-66630301D01*
X120942938Y-66869701D01*
X120953557Y-66977520D01*
X120960377Y-67000001D01*
X120953557Y-67022481D01*
X120942938Y-67130300D01*
X120942938Y-67369700D01*
X120953557Y-67477519D01*
X120960377Y-67500000D01*
X120953557Y-67522480D01*
X120942938Y-67630299D01*
X120942938Y-67869699D01*
X120953557Y-67977518D01*
X120960377Y-68000000D01*
X120953557Y-68022481D01*
X120942938Y-68130300D01*
X120942938Y-68369700D01*
X120953557Y-68477519D01*
X120960377Y-68500000D01*
X120953557Y-68522480D01*
X120942938Y-68630299D01*
X120942938Y-68869699D01*
X120953557Y-68977518D01*
X120960377Y-69000000D01*
X120953557Y-69022482D01*
X120942938Y-69130301D01*
X120942938Y-69369701D01*
X120953557Y-69477520D01*
X120960377Y-69500001D01*
X120953557Y-69522481D01*
X120942938Y-69630300D01*
X120942938Y-69869700D01*
X120953557Y-69977519D01*
X120960377Y-70000000D01*
X120953557Y-70022480D01*
X120942938Y-70130299D01*
X120942938Y-70369699D01*
X120953557Y-70477518D01*
X120960377Y-70499999D01*
X120953557Y-70522481D01*
X120942938Y-70630300D01*
X120942938Y-70869700D01*
X120953557Y-70977519D01*
X120960377Y-71000000D01*
X120953557Y-71022481D01*
X120942938Y-71130300D01*
X120942938Y-71369700D01*
X120953557Y-71477519D01*
X120960376Y-71499999D01*
X120953557Y-71522479D01*
X120942938Y-71630298D01*
X120942938Y-71869698D01*
X120953557Y-71977517D01*
X120960377Y-71999999D01*
X120953557Y-72022481D01*
X120942938Y-72130300D01*
X120942938Y-72369700D01*
X120953557Y-72477519D01*
X120960377Y-72500000D01*
X120953557Y-72522480D01*
X120942938Y-72630299D01*
X120942938Y-72869699D01*
X120953557Y-72977518D01*
X120960377Y-73000000D01*
X120953557Y-73022482D01*
X120942938Y-73130301D01*
X120942938Y-73369701D01*
X120953557Y-73477520D01*
X120960377Y-73500001D01*
X120953557Y-73522481D01*
X120942938Y-73630300D01*
X120942938Y-73869700D01*
X120953557Y-73977519D01*
X120960377Y-74000000D01*
X120953557Y-74022480D01*
X120942938Y-74130299D01*
X120942938Y-74369699D01*
X120953557Y-74477518D01*
X120960377Y-74499999D01*
X120953557Y-74522481D01*
X120942938Y-74630300D01*
X120942938Y-74869700D01*
X120953557Y-74977519D01*
X120960377Y-75000000D01*
X120953557Y-75022480D01*
X120942938Y-75130299D01*
X120942938Y-75369699D01*
X120953557Y-75477518D01*
X120955384Y-75483541D01*
X120951942Y-75493109D01*
X120937599Y-75540801D01*
X120993063Y-75596265D01*
X121036078Y-75676741D01*
X121096200Y-75750000D01*
X121036078Y-75823258D01*
X120993060Y-75903740D01*
X120937599Y-75959201D01*
X120951942Y-76006893D01*
X120955384Y-76016459D01*
X120953557Y-76022481D01*
X120942938Y-76130300D01*
X120942938Y-76369700D01*
X120953557Y-76477519D01*
X120960377Y-76500000D01*
X120953557Y-76522480D01*
X120942938Y-76630299D01*
X120942938Y-76869699D01*
X120953557Y-76977518D01*
X120985007Y-77081193D01*
X121036078Y-77176741D01*
X121104809Y-77260489D01*
X121188557Y-77329220D01*
X121284105Y-77380291D01*
X121387780Y-77411741D01*
X121495599Y-77422360D01*
X122036105Y-77422360D01*
X122062889Y-77424998D01*
X123025000Y-77424999D01*
X123025001Y-97216838D01*
X123021735Y-97250000D01*
X123034767Y-97382323D01*
X123073365Y-97509561D01*
X123136043Y-97626824D01*
X123199256Y-97703850D01*
X123199264Y-97703858D01*
X123220395Y-97729606D01*
X123246143Y-97750737D01*
X128369258Y-102873852D01*
X128390394Y-102899606D01*
X128493176Y-102983958D01*
X128610439Y-103046636D01*
X128699079Y-103073524D01*
X128737676Y-103085233D01*
X128751499Y-103086594D01*
X128836841Y-103095000D01*
X128836847Y-103095000D01*
X128869999Y-103098265D01*
X128903151Y-103095000D01*
X129767255Y-103095000D01*
X129912549Y-103312448D01*
X130107552Y-103507451D01*
X130336851Y-103660664D01*
X130591635Y-103766199D01*
X130862112Y-103820000D01*
X131137888Y-103820000D01*
X131408365Y-103766199D01*
X131663149Y-103660664D01*
X131892448Y-103507451D01*
X132087451Y-103312448D01*
X132240664Y-103083149D01*
X132346199Y-102828365D01*
X132400000Y-102557888D01*
X132400000Y-102282112D01*
X132346199Y-102011635D01*
X132240664Y-101756851D01*
X132087451Y-101527552D01*
X131892448Y-101332549D01*
X131663149Y-101179336D01*
X131592326Y-101150000D01*
X131663149Y-101120664D01*
X131892448Y-100967451D01*
X132087451Y-100772448D01*
X132240664Y-100543149D01*
X132346199Y-100288365D01*
X132400000Y-100017888D01*
X132400000Y-99742112D01*
X132346199Y-99471635D01*
X132240664Y-99216851D01*
X132087451Y-98987552D01*
X131892448Y-98792549D01*
X131663149Y-98639336D01*
X131593343Y-98610421D01*
X131673584Y-98576434D01*
X131901858Y-98421267D01*
X132095474Y-98224547D01*
X132246991Y-97993834D01*
X132344078Y-97759424D01*
X132251989Y-97544000D01*
X131204000Y-97544000D01*
X131204000Y-97564000D01*
X130796000Y-97564000D01*
X130796000Y-97544000D01*
X129748011Y-97544000D01*
X129655922Y-97759424D01*
X129753009Y-97993834D01*
X129904526Y-98224547D01*
X130098142Y-98421267D01*
X130326416Y-98576434D01*
X130406657Y-98610421D01*
X130336851Y-98639336D01*
X130107552Y-98792549D01*
X129912549Y-98987552D01*
X129767255Y-99205000D01*
X129159594Y-99205000D01*
X124825000Y-94870406D01*
X124825000Y-91729594D01*
X128349258Y-95253852D01*
X128370394Y-95279606D01*
X128473176Y-95363958D01*
X128558494Y-95409561D01*
X128590439Y-95426636D01*
X128717676Y-95465233D01*
X128724469Y-95465902D01*
X128816841Y-95475000D01*
X128816848Y-95475000D01*
X128850000Y-95478265D01*
X128883152Y-95475000D01*
X129767255Y-95475000D01*
X129912549Y-95692448D01*
X130107552Y-95887451D01*
X130336851Y-96040664D01*
X130406657Y-96069579D01*
X130326416Y-96103566D01*
X130098142Y-96258733D01*
X129904526Y-96455453D01*
X129753009Y-96686166D01*
X129655922Y-96920576D01*
X129748011Y-97136000D01*
X130796000Y-97136000D01*
X130796000Y-97116000D01*
X131204000Y-97116000D01*
X131204000Y-97136000D01*
X132251989Y-97136000D01*
X132344078Y-96920576D01*
X132246991Y-96686166D01*
X132095474Y-96455453D01*
X131901858Y-96258733D01*
X131673584Y-96103566D01*
X131593343Y-96069579D01*
X131663149Y-96040664D01*
X131892448Y-95887451D01*
X132087451Y-95692448D01*
X132240664Y-95463149D01*
X132346199Y-95208365D01*
X132400000Y-94937888D01*
X132400000Y-94662112D01*
X132346199Y-94391635D01*
X132240664Y-94136851D01*
X132087451Y-93907552D01*
X131892448Y-93712549D01*
X131663149Y-93559336D01*
X131592326Y-93530000D01*
X131663149Y-93500664D01*
X131892448Y-93347451D01*
X132087451Y-93152448D01*
X132240664Y-92923149D01*
X132346199Y-92668365D01*
X132400000Y-92397888D01*
X132400000Y-92122112D01*
X132346199Y-91851635D01*
X132240664Y-91596851D01*
X132087451Y-91367552D01*
X131892448Y-91172549D01*
X131663149Y-91019336D01*
X131592326Y-90990000D01*
X131663149Y-90960664D01*
X131892448Y-90807451D01*
X132087451Y-90612448D01*
X132240664Y-90383149D01*
X132346199Y-90128365D01*
X132400000Y-89857888D01*
X132400000Y-89582112D01*
X132346199Y-89311635D01*
X132240664Y-89056851D01*
X132087451Y-88827552D01*
X131892448Y-88632549D01*
X131663149Y-88479336D01*
X131592326Y-88450000D01*
X131663149Y-88420664D01*
X131892448Y-88267451D01*
X132087451Y-88072448D01*
X132240664Y-87843149D01*
X132346199Y-87588365D01*
X132400000Y-87317888D01*
X132400000Y-87042112D01*
X132346199Y-86771635D01*
X132240664Y-86516851D01*
X132087451Y-86287552D01*
X131892448Y-86092549D01*
X131663149Y-85939336D01*
X131592326Y-85910000D01*
X131663149Y-85880664D01*
X131892448Y-85727451D01*
X132087451Y-85532448D01*
X132240664Y-85303149D01*
X132346199Y-85048365D01*
X132400000Y-84777888D01*
X132400000Y-84502112D01*
X132346199Y-84231635D01*
X132240664Y-83976851D01*
X132087451Y-83747552D01*
X131892448Y-83552549D01*
X131663149Y-83399336D01*
X131592326Y-83370000D01*
X131663149Y-83340664D01*
X131892448Y-83187451D01*
X132087451Y-82992448D01*
X132240664Y-82763149D01*
X132346199Y-82508365D01*
X132400000Y-82237888D01*
X132400000Y-81962112D01*
X132346199Y-81691635D01*
X132240664Y-81436851D01*
X132087451Y-81207552D01*
X131892448Y-81012549D01*
X131663149Y-80859336D01*
X131592326Y-80830000D01*
X131663149Y-80800664D01*
X131892448Y-80647451D01*
X132087451Y-80452448D01*
X132240664Y-80223149D01*
X132346199Y-79968365D01*
X132400000Y-79697888D01*
X132400000Y-79422112D01*
X132346199Y-79151635D01*
X132240664Y-78896851D01*
X132087451Y-78667552D01*
X131892448Y-78472549D01*
X131663149Y-78319336D01*
X131592326Y-78290000D01*
X131663149Y-78260664D01*
X131892448Y-78107451D01*
X132087451Y-77912448D01*
X132240664Y-77683149D01*
X132346199Y-77428365D01*
X132400000Y-77157888D01*
X132400000Y-76882112D01*
X132346199Y-76611635D01*
X132240664Y-76356851D01*
X132087451Y-76127552D01*
X131892448Y-75932549D01*
X131663149Y-75779336D01*
X131592326Y-75750000D01*
X131663149Y-75720664D01*
X131892448Y-75567451D01*
X132087451Y-75372448D01*
X132240664Y-75143149D01*
X132346199Y-74888365D01*
X132400000Y-74617888D01*
X132400000Y-74342112D01*
X132346199Y-74071635D01*
X132240664Y-73816851D01*
X132087451Y-73587552D01*
X131892448Y-73392549D01*
X131663149Y-73239336D01*
X131592326Y-73210000D01*
X131663149Y-73180664D01*
X131892448Y-73027451D01*
X132087451Y-72832448D01*
X132240664Y-72603149D01*
X132346199Y-72348365D01*
X132400000Y-72077888D01*
X132400000Y-71802112D01*
X132346199Y-71531635D01*
X132240664Y-71276851D01*
X132087451Y-71047552D01*
X131892448Y-70852549D01*
X131663149Y-70699336D01*
X131592326Y-70670000D01*
X131663149Y-70640664D01*
X131892448Y-70487451D01*
X132087451Y-70292448D01*
X132240664Y-70063149D01*
X132346199Y-69808365D01*
X132400000Y-69537888D01*
X132400000Y-69262112D01*
X132346199Y-68991635D01*
X132240664Y-68736851D01*
X132087451Y-68507552D01*
X131892448Y-68312549D01*
X131663149Y-68159336D01*
X131592326Y-68130000D01*
X131663149Y-68100664D01*
X131892448Y-67947451D01*
X132087451Y-67752448D01*
X132240664Y-67523149D01*
X132346199Y-67268365D01*
X132400000Y-66997888D01*
X132400000Y-66722112D01*
X132346199Y-66451635D01*
X132240664Y-66196851D01*
X132087451Y-65967552D01*
X131892448Y-65772549D01*
X131663149Y-65619336D01*
X131592326Y-65590000D01*
X131663149Y-65560664D01*
X131892448Y-65407451D01*
X132087451Y-65212448D01*
X132240664Y-64983149D01*
X132346199Y-64728365D01*
X132400000Y-64457888D01*
X132400000Y-64182112D01*
X132346199Y-63911635D01*
X132240664Y-63656851D01*
X132087451Y-63427552D01*
X131892448Y-63232549D01*
X131663149Y-63079336D01*
X131592326Y-63050000D01*
X131663149Y-63020664D01*
X131892448Y-62867451D01*
X132087451Y-62672448D01*
X132240664Y-62443149D01*
X132346199Y-62188365D01*
X132400000Y-61917888D01*
X132400000Y-61642112D01*
X132346199Y-61371635D01*
X132240664Y-61116851D01*
X132087451Y-60887552D01*
X131892448Y-60692549D01*
X131663149Y-60539336D01*
X131592326Y-60510000D01*
X131663149Y-60480664D01*
X131892448Y-60327451D01*
X132087451Y-60132448D01*
X132240664Y-59903149D01*
X132346199Y-59648365D01*
X132400000Y-59377888D01*
X132400000Y-59102112D01*
X132346199Y-58831635D01*
X132240664Y-58576851D01*
X132087451Y-58347552D01*
X131892448Y-58152549D01*
X131663149Y-57999336D01*
X131592326Y-57970000D01*
X131663149Y-57940664D01*
X131892448Y-57787451D01*
X132087451Y-57592448D01*
X132240664Y-57363149D01*
X132346199Y-57108365D01*
X132400000Y-56837888D01*
X132400000Y-56562112D01*
X132346199Y-56291635D01*
X132240664Y-56036851D01*
X132087451Y-55807552D01*
X131892448Y-55612549D01*
X131663149Y-55459336D01*
X131592326Y-55430000D01*
X131663149Y-55400664D01*
X131892448Y-55247451D01*
X132087451Y-55052448D01*
X132240664Y-54823149D01*
X132346199Y-54568365D01*
X132400000Y-54297888D01*
X132400000Y-54022112D01*
X132346199Y-53751635D01*
X132240664Y-53496851D01*
X132087451Y-53267552D01*
X131892448Y-53072549D01*
X131663149Y-52919336D01*
X131592326Y-52890000D01*
X131663149Y-52860664D01*
X131892448Y-52707451D01*
X132087451Y-52512448D01*
X132240664Y-52283149D01*
X132346199Y-52028365D01*
X132400000Y-51757888D01*
X132400000Y-51482112D01*
X132346199Y-51211635D01*
X132240664Y-50956851D01*
X132087451Y-50727552D01*
X131892448Y-50532549D01*
X131663149Y-50379336D01*
X131593343Y-50350421D01*
X131673584Y-50316434D01*
X131901858Y-50161267D01*
X132095474Y-49964547D01*
X132246991Y-49733834D01*
X132344078Y-49499424D01*
X132251989Y-49284000D01*
X131204000Y-49284000D01*
X131204000Y-49304000D01*
X130796000Y-49304000D01*
X130796000Y-49284000D01*
X129748011Y-49284000D01*
X129655922Y-49499424D01*
X129753009Y-49733834D01*
X129904526Y-49964547D01*
X130098142Y-50161267D01*
X130326416Y-50316434D01*
X130406657Y-50350421D01*
X130336851Y-50379336D01*
X130107552Y-50532549D01*
X129912549Y-50727552D01*
X129767255Y-50945000D01*
X128463152Y-50945000D01*
X128430000Y-50941735D01*
X128396848Y-50945000D01*
X128396841Y-50945000D01*
X128310192Y-50953534D01*
X128297676Y-50954767D01*
X128180081Y-50990439D01*
X128170439Y-50993364D01*
X128053176Y-51056042D01*
X127950394Y-51140394D01*
X127929258Y-51166148D01*
X124325000Y-54770406D01*
X124325000Y-51529594D01*
X128639595Y-47215000D01*
X129767255Y-47215000D01*
X129912549Y-47432448D01*
X130107552Y-47627451D01*
X130336851Y-47780664D01*
X130406657Y-47809579D01*
X130326416Y-47843566D01*
X130098142Y-47998733D01*
X129904526Y-48195453D01*
X129753009Y-48426166D01*
X129655922Y-48660576D01*
X129748011Y-48876000D01*
X130796000Y-48876000D01*
X130796000Y-48856000D01*
X131204000Y-48856000D01*
X131204000Y-48876000D01*
X132251989Y-48876000D01*
X132344078Y-48660576D01*
X132246991Y-48426166D01*
X132095474Y-48195453D01*
X131901858Y-47998733D01*
X131673584Y-47843566D01*
X131593343Y-47809579D01*
X131663149Y-47780664D01*
X131892448Y-47627451D01*
X132087451Y-47432448D01*
X132240664Y-47203149D01*
X132346199Y-46948365D01*
X132400000Y-46677888D01*
X132400000Y-46402112D01*
X132346199Y-46131635D01*
X132240664Y-45876851D01*
X132087451Y-45647552D01*
X131892448Y-45452549D01*
X131817785Y-45402661D01*
X131850000Y-45402661D01*
X131957819Y-45392042D01*
X132061494Y-45360592D01*
X132157042Y-45309521D01*
X132240790Y-45240790D01*
X132309521Y-45157042D01*
X132360592Y-45061494D01*
X132392042Y-44957819D01*
X132402661Y-44850000D01*
X132402661Y-43150000D01*
X132392042Y-43042181D01*
X132360592Y-42938506D01*
X132309521Y-42842958D01*
X132240790Y-42759210D01*
X132157042Y-42690479D01*
X132061494Y-42639408D01*
X131957819Y-42607958D01*
X131850000Y-42597339D01*
X130150000Y-42597339D01*
X130042181Y-42607958D01*
X129938506Y-42639408D01*
X129842958Y-42690479D01*
X129759210Y-42759210D01*
X129690479Y-42842958D01*
X129639408Y-42938506D01*
X129607958Y-43042181D01*
X129597339Y-43150000D01*
X129597339Y-43325000D01*
X128383152Y-43325000D01*
X128350000Y-43321735D01*
X128316848Y-43325000D01*
X128316841Y-43325000D01*
X128230192Y-43333534D01*
X128217676Y-43334767D01*
X128090438Y-43373364D01*
X128027760Y-43406866D01*
X127973176Y-43436042D01*
X127973174Y-43436043D01*
X127973175Y-43436043D01*
X127896149Y-43499256D01*
X127896142Y-43499263D01*
X127870394Y-43520394D01*
X127849262Y-43546143D01*
X122746143Y-48649263D01*
X122720395Y-48670394D01*
X122699264Y-48696142D01*
X122699256Y-48696150D01*
X122636043Y-48773176D01*
X122573365Y-48890439D01*
X122534767Y-49017677D01*
X122521735Y-49150000D01*
X122525001Y-49183162D01*
X122525000Y-64574999D01*
X122062889Y-64574999D01*
X122036095Y-64577638D01*
X121495599Y-64577638D01*
X121387780Y-64588257D01*
X121284105Y-64619707D01*
X121188557Y-64670778D01*
X121104809Y-64739509D01*
X121036078Y-64823257D01*
X120985007Y-64918805D01*
X120953557Y-65022480D01*
X120942938Y-65130299D01*
X120942938Y-65369699D01*
X120953557Y-65477518D01*
X120960377Y-65500000D01*
X120953557Y-65522481D01*
X120942938Y-65630300D01*
X120942938Y-65869700D01*
X120953557Y-65977519D01*
X120955384Y-65983541D01*
X120951942Y-65993107D01*
X120937599Y-66040799D01*
X103548248Y-66040799D01*
X103546443Y-66022480D01*
X103539623Y-66000000D01*
X103546443Y-65977519D01*
X103557062Y-65869700D01*
X103557062Y-65630300D01*
X103546443Y-65522481D01*
X103539623Y-65500001D01*
X103546443Y-65477520D01*
X103557062Y-65369701D01*
X103557062Y-65130301D01*
X103546443Y-65022482D01*
X103514993Y-64918807D01*
X103463922Y-64823259D01*
X103395191Y-64739511D01*
X103311443Y-64670780D01*
X103215895Y-64619709D01*
X103112220Y-64588259D01*
X103004401Y-64577640D01*
X102463905Y-64577640D01*
X102437111Y-64575001D01*
X100725000Y-64575001D01*
X100725000Y-47883151D01*
X100728265Y-47849999D01*
X100725000Y-47816847D01*
X100725000Y-47816841D01*
X100715233Y-47717677D01*
X100676636Y-47590439D01*
X100613958Y-47473176D01*
X100529606Y-47370394D01*
X100503852Y-47349258D01*
X96700742Y-43546148D01*
X96679606Y-43520394D01*
X96576824Y-43436042D01*
X96459561Y-43373364D01*
X96332323Y-43334767D01*
X96233159Y-43325000D01*
X96233152Y-43325000D01*
X96200000Y-43321735D01*
X96166848Y-43325000D01*
X95232745Y-43325000D01*
X95087451Y-43107552D01*
X94892448Y-42912549D01*
X94663149Y-42759336D01*
X94408365Y-42653801D01*
X94137888Y-42600000D01*
X93862112Y-42600000D01*
X93591635Y-42653801D01*
X93336851Y-42759336D01*
X93107552Y-42912549D01*
X92912549Y-43107552D01*
X92759336Y-43336851D01*
X92653801Y-43591635D01*
X92600000Y-43862112D01*
X92600000Y-44137888D01*
X92653801Y-44408365D01*
X92759336Y-44663149D01*
X92912549Y-44892448D01*
X93107552Y-45087451D01*
X93336851Y-45240664D01*
X93407674Y-45270000D01*
X93336851Y-45299336D01*
X93107552Y-45452549D01*
X92912549Y-45647552D01*
X92759336Y-45876851D01*
X92653801Y-46131635D01*
X92600000Y-46402112D01*
X92600000Y-46677888D01*
X92653801Y-46948365D01*
X92759336Y-47203149D01*
X92912549Y-47432448D01*
X93107552Y-47627451D01*
X93336851Y-47780664D01*
X93407674Y-47810000D01*
X93336851Y-47839336D01*
X93107552Y-47992549D01*
X92912549Y-48187552D01*
X92759336Y-48416851D01*
X92653801Y-48671635D01*
X92600000Y-48942112D01*
X92600000Y-49217888D01*
X92653801Y-49488365D01*
X92759336Y-49743149D01*
X92912549Y-49972448D01*
X93107552Y-50167451D01*
X93336851Y-50320664D01*
X93407674Y-50350000D01*
X93336851Y-50379336D01*
X93107552Y-50532549D01*
X92912549Y-50727552D01*
X92759336Y-50956851D01*
X92653801Y-51211635D01*
X92600000Y-51482112D01*
X92600000Y-51757888D01*
X92653801Y-52028365D01*
X92759336Y-52283149D01*
X92912549Y-52512448D01*
X93107552Y-52707451D01*
X93336851Y-52860664D01*
X93407674Y-52890000D01*
X93336851Y-52919336D01*
X93107552Y-53072549D01*
X92912549Y-53267552D01*
X92759336Y-53496851D01*
X92653801Y-53751635D01*
X92600000Y-54022112D01*
X92600000Y-54297888D01*
X92653801Y-54568365D01*
X92759336Y-54823149D01*
X92912549Y-55052448D01*
X93107552Y-55247451D01*
X93336851Y-55400664D01*
X93407674Y-55430000D01*
X93336851Y-55459336D01*
X93107552Y-55612549D01*
X92912549Y-55807552D01*
X92759336Y-56036851D01*
X92653801Y-56291635D01*
X92600000Y-56562112D01*
X92600000Y-56837888D01*
X92653801Y-57108365D01*
X92759336Y-57363149D01*
X92912549Y-57592448D01*
X93107552Y-57787451D01*
X93336851Y-57940664D01*
X93407674Y-57970000D01*
X93336851Y-57999336D01*
X93107552Y-58152549D01*
X92912549Y-58347552D01*
X92759336Y-58576851D01*
X92653801Y-58831635D01*
X92600000Y-59102112D01*
X92600000Y-59377888D01*
X92653801Y-59648365D01*
X92759336Y-59903149D01*
X92912549Y-60132448D01*
X93107552Y-60327451D01*
X93336851Y-60480664D01*
X93407674Y-60510000D01*
X93336851Y-60539336D01*
X93107552Y-60692549D01*
X92912549Y-60887552D01*
X92759336Y-61116851D01*
X92653801Y-61371635D01*
X92600000Y-61642112D01*
X92600000Y-61917888D01*
X92653801Y-62188365D01*
X92759336Y-62443149D01*
X92912549Y-62672448D01*
X93107552Y-62867451D01*
X93336851Y-63020664D01*
X93407674Y-63050000D01*
X93336851Y-63079336D01*
X93107552Y-63232549D01*
X92912549Y-63427552D01*
X92759336Y-63656851D01*
X92653801Y-63911635D01*
X92600000Y-64182112D01*
X92600000Y-64457888D01*
X92653801Y-64728365D01*
X92759336Y-64983149D01*
X92912549Y-65212448D01*
X93107552Y-65407451D01*
X93336851Y-65560664D01*
X93407674Y-65590000D01*
X93336851Y-65619336D01*
X93107552Y-65772549D01*
X92912549Y-65967552D01*
X92759336Y-66196851D01*
X92653801Y-66451635D01*
X92600000Y-66722112D01*
X92600000Y-66997888D01*
X92653801Y-67268365D01*
X92759336Y-67523149D01*
X92912549Y-67752448D01*
X93107552Y-67947451D01*
X93336851Y-68100664D01*
X93407674Y-68130000D01*
X93336851Y-68159336D01*
X93107552Y-68312549D01*
X92912549Y-68507552D01*
X92759336Y-68736851D01*
X92653801Y-68991635D01*
X92600000Y-69262112D01*
X92600000Y-69537888D01*
X92653801Y-69808365D01*
X92759336Y-70063149D01*
X92912549Y-70292448D01*
X93107552Y-70487451D01*
X93336851Y-70640664D01*
X93407674Y-70670000D01*
X93336851Y-70699336D01*
X93107552Y-70852549D01*
X92912549Y-71047552D01*
X92759336Y-71276851D01*
X92653801Y-71531635D01*
X92600000Y-71802112D01*
X92600000Y-72077888D01*
X92653801Y-72348365D01*
X92759336Y-72603149D01*
X92912549Y-72832448D01*
X93107552Y-73027451D01*
X93336851Y-73180664D01*
X93407674Y-73210000D01*
X93336851Y-73239336D01*
X93107552Y-73392549D01*
X92912549Y-73587552D01*
X92759336Y-73816851D01*
X92653801Y-74071635D01*
X92600000Y-74342112D01*
X92600000Y-74617888D01*
X92653801Y-74888365D01*
X92759336Y-75143149D01*
X92912549Y-75372448D01*
X93107552Y-75567451D01*
X93336851Y-75720664D01*
X93407674Y-75750000D01*
X93336851Y-75779336D01*
X93107552Y-75932549D01*
X92912549Y-76127552D01*
X92759336Y-76356851D01*
X92653801Y-76611635D01*
X92600000Y-76882112D01*
X92600000Y-77157888D01*
X92653801Y-77428365D01*
X92759336Y-77683149D01*
X92912549Y-77912448D01*
X93107552Y-78107451D01*
X93336851Y-78260664D01*
X93407674Y-78290000D01*
X93336851Y-78319336D01*
X93107552Y-78472549D01*
X92912549Y-78667552D01*
X92759336Y-78896851D01*
X92653801Y-79151635D01*
X92600000Y-79422112D01*
X92600000Y-79697888D01*
X92653801Y-79968365D01*
X92759336Y-80223149D01*
X92912549Y-80452448D01*
X93107552Y-80647451D01*
X93336851Y-80800664D01*
X93407674Y-80830000D01*
X93336851Y-80859336D01*
X93107552Y-81012549D01*
X92912549Y-81207552D01*
X92759336Y-81436851D01*
X92653801Y-81691635D01*
X92600000Y-81962112D01*
X92600000Y-82237888D01*
X92653801Y-82508365D01*
X92759336Y-82763149D01*
X92912549Y-82992448D01*
X93107552Y-83187451D01*
X93336851Y-83340664D01*
X93407674Y-83370000D01*
X93336851Y-83399336D01*
X93107552Y-83552549D01*
X92912549Y-83747552D01*
X92759336Y-83976851D01*
X92653801Y-84231635D01*
X92600000Y-84502112D01*
X92600000Y-84777888D01*
X92653801Y-85048365D01*
X92759336Y-85303149D01*
X92912549Y-85532448D01*
X93107552Y-85727451D01*
X93336851Y-85880664D01*
X93407674Y-85910000D01*
X93336851Y-85939336D01*
X93107552Y-86092549D01*
X92912549Y-86287552D01*
X92759336Y-86516851D01*
X92653801Y-86771635D01*
X92600000Y-87042112D01*
X92600000Y-87317888D01*
X92653801Y-87588365D01*
X92759336Y-87843149D01*
X92912549Y-88072448D01*
X93107552Y-88267451D01*
X93336851Y-88420664D01*
X93407674Y-88450000D01*
X93336851Y-88479336D01*
X93107552Y-88632549D01*
X92912549Y-88827552D01*
X92759336Y-89056851D01*
X92653801Y-89311635D01*
X92600000Y-89582112D01*
X92600000Y-89857888D01*
X92653801Y-90128365D01*
X92759336Y-90383149D01*
X92912549Y-90612448D01*
X93107552Y-90807451D01*
X93336851Y-90960664D01*
X93407674Y-90990000D01*
X93336851Y-91019336D01*
X93107552Y-91172549D01*
X92912549Y-91367552D01*
X92759336Y-91596851D01*
X92653801Y-91851635D01*
X92600000Y-92122112D01*
X92600000Y-92397888D01*
X92653801Y-92668365D01*
X92759336Y-92923149D01*
X92912549Y-93152448D01*
X93107552Y-93347451D01*
X93336851Y-93500664D01*
X93407674Y-93530000D01*
X93336851Y-93559336D01*
X93107552Y-93712549D01*
X92912549Y-93907552D01*
X92759336Y-94136851D01*
X92653801Y-94391635D01*
X92600000Y-94662112D01*
X92600000Y-94937888D01*
X92653801Y-95208365D01*
X92759336Y-95463149D01*
X92912549Y-95692448D01*
X93107552Y-95887451D01*
X93336851Y-96040664D01*
X93407674Y-96070000D01*
X93336851Y-96099336D01*
X93107552Y-96252549D01*
X92912549Y-96447552D01*
X92759336Y-96676851D01*
X92653801Y-96931635D01*
X92600000Y-97202112D01*
X92600000Y-97477888D01*
X92653801Y-97748365D01*
X92759336Y-98003149D01*
X92912549Y-98232448D01*
X93107552Y-98427451D01*
X93336851Y-98580664D01*
X93407674Y-98610000D01*
X93336851Y-98639336D01*
X93107552Y-98792549D01*
X92912549Y-98987552D01*
X92759336Y-99216851D01*
X92653801Y-99471635D01*
X92600000Y-99742112D01*
X92600000Y-100017888D01*
X92653801Y-100288365D01*
X92759336Y-100543149D01*
X92912549Y-100772448D01*
X93107552Y-100967451D01*
X93182215Y-101017339D01*
X93150000Y-101017339D01*
X93042181Y-101027958D01*
X92938506Y-101059408D01*
X92842958Y-101110479D01*
X92759210Y-101179210D01*
X92690479Y-101262958D01*
X92639408Y-101358506D01*
X92607958Y-101462181D01*
X92597339Y-101570000D01*
X90575000Y-101570000D01*
X90575000Y-42028126D01*
X90604844Y-41723751D01*
X90685071Y-41458027D01*
X90815383Y-41212945D01*
X90990817Y-40997842D01*
X91204692Y-40820908D01*
X91448860Y-40688887D01*
X91714018Y-40606807D01*
X92016637Y-40575000D01*
X132971874Y-40575000D01*
X133276249Y-40604844D01*
M02*
