G04 #@! TF.GenerationSoftware,KiCad,Pcbnew,(5.1.5)-3*
G04 #@! TF.CreationDate,2020-03-06T02:38:52-05:00*
G04 #@! TF.ProjectId,SingleBoard,53696e67-6c65-4426-9f61-72642e6b6963,rev?*
G04 #@! TF.SameCoordinates,Original*
G04 #@! TF.FileFunction,Other,Comment*
%FSLAX46Y46*%
G04 Gerber Fmt 4.6, Leading zero omitted, Abs format (unit mm)*
G04 Created by KiCad (PCBNEW (5.1.5)-3) date 2020-03-06 02:38:52*
%MOMM*%
%LPD*%
G04 APERTURE LIST*
%ADD10C,0.002000*%
G04 APERTURE END LIST*
D10*
X109604166Y-71045357D02*
X109598119Y-71051404D01*
X109579976Y-71057452D01*
X109567880Y-71057452D01*
X109549738Y-71051404D01*
X109537642Y-71039309D01*
X109531595Y-71027214D01*
X109525547Y-71003023D01*
X109525547Y-70984880D01*
X109531595Y-70960690D01*
X109537642Y-70948595D01*
X109549738Y-70936500D01*
X109567880Y-70930452D01*
X109579976Y-70930452D01*
X109598119Y-70936500D01*
X109604166Y-70942547D01*
X109676738Y-71057452D02*
X109664642Y-71051404D01*
X109658595Y-71045357D01*
X109652547Y-71033261D01*
X109652547Y-70996976D01*
X109658595Y-70984880D01*
X109664642Y-70978833D01*
X109676738Y-70972785D01*
X109694880Y-70972785D01*
X109706976Y-70978833D01*
X109713023Y-70984880D01*
X109719071Y-70996976D01*
X109719071Y-71033261D01*
X109713023Y-71045357D01*
X109706976Y-71051404D01*
X109694880Y-71057452D01*
X109676738Y-71057452D01*
X109773500Y-70972785D02*
X109773500Y-71099785D01*
X109773500Y-70978833D02*
X109785595Y-70972785D01*
X109809785Y-70972785D01*
X109821880Y-70978833D01*
X109827928Y-70984880D01*
X109833976Y-70996976D01*
X109833976Y-71033261D01*
X109827928Y-71045357D01*
X109821880Y-71051404D01*
X109809785Y-71057452D01*
X109785595Y-71057452D01*
X109773500Y-71051404D01*
X109876309Y-70972785D02*
X109906547Y-71057452D01*
X109936785Y-70972785D02*
X109906547Y-71057452D01*
X109894452Y-71087690D01*
X109888404Y-71093738D01*
X109876309Y-71099785D01*
X109985166Y-71057452D02*
X109985166Y-70972785D01*
X109985166Y-70996976D02*
X109991214Y-70984880D01*
X109997261Y-70978833D01*
X110009357Y-70972785D01*
X110021452Y-70972785D01*
X110063785Y-71057452D02*
X110063785Y-70972785D01*
X110063785Y-70930452D02*
X110057738Y-70936500D01*
X110063785Y-70942547D01*
X110069833Y-70936500D01*
X110063785Y-70930452D01*
X110063785Y-70942547D01*
X110178690Y-70972785D02*
X110178690Y-71075595D01*
X110172642Y-71087690D01*
X110166595Y-71093738D01*
X110154500Y-71099785D01*
X110136357Y-71099785D01*
X110124261Y-71093738D01*
X110178690Y-71051404D02*
X110166595Y-71057452D01*
X110142404Y-71057452D01*
X110130309Y-71051404D01*
X110124261Y-71045357D01*
X110118214Y-71033261D01*
X110118214Y-70996976D01*
X110124261Y-70984880D01*
X110130309Y-70978833D01*
X110142404Y-70972785D01*
X110166595Y-70972785D01*
X110178690Y-70978833D01*
X110239166Y-71057452D02*
X110239166Y-70930452D01*
X110293595Y-71057452D02*
X110293595Y-70990928D01*
X110287547Y-70978833D01*
X110275452Y-70972785D01*
X110257309Y-70972785D01*
X110245214Y-70978833D01*
X110239166Y-70984880D01*
X110335928Y-70972785D02*
X110384309Y-70972785D01*
X110354071Y-70930452D02*
X110354071Y-71039309D01*
X110360119Y-71051404D01*
X110372214Y-71057452D01*
X110384309Y-71057452D01*
X110517357Y-70942547D02*
X110523404Y-70936500D01*
X110535500Y-70930452D01*
X110565738Y-70930452D01*
X110577833Y-70936500D01*
X110583880Y-70942547D01*
X110589928Y-70954642D01*
X110589928Y-70966738D01*
X110583880Y-70984880D01*
X110511309Y-71057452D01*
X110589928Y-71057452D01*
X110668547Y-70930452D02*
X110680642Y-70930452D01*
X110692738Y-70936500D01*
X110698785Y-70942547D01*
X110704833Y-70954642D01*
X110710880Y-70978833D01*
X110710880Y-71009071D01*
X110704833Y-71033261D01*
X110698785Y-71045357D01*
X110692738Y-71051404D01*
X110680642Y-71057452D01*
X110668547Y-71057452D01*
X110656452Y-71051404D01*
X110650404Y-71045357D01*
X110644357Y-71033261D01*
X110638309Y-71009071D01*
X110638309Y-70978833D01*
X110644357Y-70954642D01*
X110650404Y-70942547D01*
X110656452Y-70936500D01*
X110668547Y-70930452D01*
X110831833Y-71057452D02*
X110759261Y-71057452D01*
X110795547Y-71057452D02*
X110795547Y-70930452D01*
X110783452Y-70948595D01*
X110771357Y-70960690D01*
X110759261Y-70966738D01*
X110940690Y-70930452D02*
X110916500Y-70930452D01*
X110904404Y-70936500D01*
X110898357Y-70942547D01*
X110886261Y-70960690D01*
X110880214Y-70984880D01*
X110880214Y-71033261D01*
X110886261Y-71045357D01*
X110892309Y-71051404D01*
X110904404Y-71057452D01*
X110928595Y-71057452D01*
X110940690Y-71051404D01*
X110946738Y-71045357D01*
X110952785Y-71033261D01*
X110952785Y-71003023D01*
X110946738Y-70990928D01*
X110940690Y-70984880D01*
X110928595Y-70978833D01*
X110904404Y-70978833D01*
X110892309Y-70984880D01*
X110886261Y-70990928D01*
X110880214Y-71003023D01*
X111097928Y-71021166D02*
X111158404Y-71021166D01*
X111085833Y-71057452D02*
X111128166Y-70930452D01*
X111170500Y-71057452D01*
X111267261Y-71051404D02*
X111255166Y-71057452D01*
X111230976Y-71057452D01*
X111218880Y-71051404D01*
X111212833Y-71045357D01*
X111206785Y-71033261D01*
X111206785Y-70996976D01*
X111212833Y-70984880D01*
X111218880Y-70978833D01*
X111230976Y-70972785D01*
X111255166Y-70972785D01*
X111267261Y-70978833D01*
X111376119Y-71051404D02*
X111364023Y-71057452D01*
X111339833Y-71057452D01*
X111327738Y-71051404D01*
X111321690Y-71045357D01*
X111315642Y-71033261D01*
X111315642Y-70996976D01*
X111321690Y-70984880D01*
X111327738Y-70978833D01*
X111339833Y-70972785D01*
X111364023Y-70972785D01*
X111376119Y-70978833D01*
X111478928Y-71051404D02*
X111466833Y-71057452D01*
X111442642Y-71057452D01*
X111430547Y-71051404D01*
X111424500Y-71039309D01*
X111424500Y-70990928D01*
X111430547Y-70978833D01*
X111442642Y-70972785D01*
X111466833Y-70972785D01*
X111478928Y-70978833D01*
X111484976Y-70990928D01*
X111484976Y-71003023D01*
X111424500Y-71015119D01*
X111557547Y-71057452D02*
X111545452Y-71051404D01*
X111539404Y-71039309D01*
X111539404Y-70930452D01*
X111654309Y-71051404D02*
X111642214Y-71057452D01*
X111618023Y-71057452D01*
X111605928Y-71051404D01*
X111599880Y-71039309D01*
X111599880Y-70990928D01*
X111605928Y-70978833D01*
X111618023Y-70972785D01*
X111642214Y-70972785D01*
X111654309Y-70978833D01*
X111660357Y-70990928D01*
X111660357Y-71003023D01*
X111599880Y-71015119D01*
X111714785Y-71057452D02*
X111714785Y-70972785D01*
X111714785Y-70996976D02*
X111720833Y-70984880D01*
X111726880Y-70978833D01*
X111738976Y-70972785D01*
X111751071Y-70972785D01*
X111847833Y-71057452D02*
X111847833Y-70990928D01*
X111841785Y-70978833D01*
X111829690Y-70972785D01*
X111805500Y-70972785D01*
X111793404Y-70978833D01*
X111847833Y-71051404D02*
X111835738Y-71057452D01*
X111805500Y-71057452D01*
X111793404Y-71051404D01*
X111787357Y-71039309D01*
X111787357Y-71027214D01*
X111793404Y-71015119D01*
X111805500Y-71009071D01*
X111835738Y-71009071D01*
X111847833Y-71003023D01*
X111890166Y-70972785D02*
X111938547Y-70972785D01*
X111908309Y-70930452D02*
X111908309Y-71039309D01*
X111914357Y-71051404D01*
X111926452Y-71057452D01*
X111938547Y-71057452D01*
X112029261Y-71051404D02*
X112017166Y-71057452D01*
X111992976Y-71057452D01*
X111980880Y-71051404D01*
X111974833Y-71039309D01*
X111974833Y-70990928D01*
X111980880Y-70978833D01*
X111992976Y-70972785D01*
X112017166Y-70972785D01*
X112029261Y-70978833D01*
X112035309Y-70990928D01*
X112035309Y-71003023D01*
X111974833Y-71015119D01*
X112144166Y-71057452D02*
X112144166Y-70930452D01*
X112144166Y-71051404D02*
X112132071Y-71057452D01*
X112107880Y-71057452D01*
X112095785Y-71051404D01*
X112089738Y-71045357D01*
X112083690Y-71033261D01*
X112083690Y-70996976D01*
X112089738Y-70984880D01*
X112095785Y-70978833D01*
X112107880Y-70972785D01*
X112132071Y-70972785D01*
X112144166Y-70978833D01*
X112301404Y-71057452D02*
X112301404Y-70930452D01*
X112331642Y-70930452D01*
X112349785Y-70936500D01*
X112361880Y-70948595D01*
X112367928Y-70960690D01*
X112373976Y-70984880D01*
X112373976Y-71003023D01*
X112367928Y-71027214D01*
X112361880Y-71039309D01*
X112349785Y-71051404D01*
X112331642Y-71057452D01*
X112301404Y-71057452D01*
X112476785Y-71051404D02*
X112464690Y-71057452D01*
X112440500Y-71057452D01*
X112428404Y-71051404D01*
X112422357Y-71039309D01*
X112422357Y-70990928D01*
X112428404Y-70978833D01*
X112440500Y-70972785D01*
X112464690Y-70972785D01*
X112476785Y-70978833D01*
X112482833Y-70990928D01*
X112482833Y-71003023D01*
X112422357Y-71015119D01*
X112531214Y-71051404D02*
X112543309Y-71057452D01*
X112567500Y-71057452D01*
X112579595Y-71051404D01*
X112585642Y-71039309D01*
X112585642Y-71033261D01*
X112579595Y-71021166D01*
X112567500Y-71015119D01*
X112549357Y-71015119D01*
X112537261Y-71009071D01*
X112531214Y-70996976D01*
X112531214Y-70990928D01*
X112537261Y-70978833D01*
X112549357Y-70972785D01*
X112567500Y-70972785D01*
X112579595Y-70978833D01*
X112640071Y-71057452D02*
X112640071Y-70972785D01*
X112640071Y-70930452D02*
X112634023Y-70936500D01*
X112640071Y-70942547D01*
X112646119Y-70936500D01*
X112640071Y-70930452D01*
X112640071Y-70942547D01*
X112754976Y-70972785D02*
X112754976Y-71075595D01*
X112748928Y-71087690D01*
X112742880Y-71093738D01*
X112730785Y-71099785D01*
X112712642Y-71099785D01*
X112700547Y-71093738D01*
X112754976Y-71051404D02*
X112742880Y-71057452D01*
X112718690Y-71057452D01*
X112706595Y-71051404D01*
X112700547Y-71045357D01*
X112694500Y-71033261D01*
X112694500Y-70996976D01*
X112700547Y-70984880D01*
X112706595Y-70978833D01*
X112718690Y-70972785D01*
X112742880Y-70972785D01*
X112754976Y-70978833D01*
X112815452Y-70972785D02*
X112815452Y-71057452D01*
X112815452Y-70984880D02*
X112821500Y-70978833D01*
X112833595Y-70972785D01*
X112851738Y-70972785D01*
X112863833Y-70978833D01*
X112869880Y-70990928D01*
X112869880Y-71057452D01*
X112924309Y-71051404D02*
X112936404Y-71057452D01*
X112960595Y-71057452D01*
X112972690Y-71051404D01*
X112978738Y-71039309D01*
X112978738Y-71033261D01*
X112972690Y-71021166D01*
X112960595Y-71015119D01*
X112942452Y-71015119D01*
X112930357Y-71009071D01*
X112924309Y-70996976D01*
X112924309Y-70990928D01*
X112930357Y-70978833D01*
X112942452Y-70972785D01*
X112960595Y-70972785D01*
X112972690Y-70978833D01*
X113033166Y-71045357D02*
X113039214Y-71051404D01*
X113033166Y-71057452D01*
X113027119Y-71051404D01*
X113033166Y-71045357D01*
X113033166Y-71057452D01*
X113184357Y-71021166D02*
X113244833Y-71021166D01*
X113172261Y-71057452D02*
X113214595Y-70930452D01*
X113256928Y-71057452D01*
X113317404Y-71057452D02*
X113305309Y-71051404D01*
X113299261Y-71039309D01*
X113299261Y-70930452D01*
X113383928Y-71057452D02*
X113371833Y-71051404D01*
X113365785Y-71039309D01*
X113365785Y-70930452D01*
X113529071Y-71057452D02*
X113529071Y-70972785D01*
X113529071Y-70996976D02*
X113535119Y-70984880D01*
X113541166Y-70978833D01*
X113553261Y-70972785D01*
X113565357Y-70972785D01*
X113607690Y-71057452D02*
X113607690Y-70972785D01*
X113607690Y-70930452D02*
X113601642Y-70936500D01*
X113607690Y-70942547D01*
X113613738Y-70936500D01*
X113607690Y-70930452D01*
X113607690Y-70942547D01*
X113722595Y-70972785D02*
X113722595Y-71075595D01*
X113716547Y-71087690D01*
X113710500Y-71093738D01*
X113698404Y-71099785D01*
X113680261Y-71099785D01*
X113668166Y-71093738D01*
X113722595Y-71051404D02*
X113710500Y-71057452D01*
X113686309Y-71057452D01*
X113674214Y-71051404D01*
X113668166Y-71045357D01*
X113662119Y-71033261D01*
X113662119Y-70996976D01*
X113668166Y-70984880D01*
X113674214Y-70978833D01*
X113686309Y-70972785D01*
X113710500Y-70972785D01*
X113722595Y-70978833D01*
X113783071Y-71057452D02*
X113783071Y-70930452D01*
X113837500Y-71057452D02*
X113837500Y-70990928D01*
X113831452Y-70978833D01*
X113819357Y-70972785D01*
X113801214Y-70972785D01*
X113789119Y-70978833D01*
X113783071Y-70984880D01*
X113879833Y-70972785D02*
X113928214Y-70972785D01*
X113897976Y-70930452D02*
X113897976Y-71039309D01*
X113904023Y-71051404D01*
X113916119Y-71057452D01*
X113928214Y-71057452D01*
X113964500Y-71051404D02*
X113976595Y-71057452D01*
X114000785Y-71057452D01*
X114012880Y-71051404D01*
X114018928Y-71039309D01*
X114018928Y-71033261D01*
X114012880Y-71021166D01*
X114000785Y-71015119D01*
X113982642Y-71015119D01*
X113970547Y-71009071D01*
X113964500Y-70996976D01*
X113964500Y-70990928D01*
X113970547Y-70978833D01*
X113982642Y-70972785D01*
X114000785Y-70972785D01*
X114012880Y-70978833D01*
X114170119Y-71057452D02*
X114170119Y-70972785D01*
X114170119Y-70996976D02*
X114176166Y-70984880D01*
X114182214Y-70978833D01*
X114194309Y-70972785D01*
X114206404Y-70972785D01*
X114297119Y-71051404D02*
X114285023Y-71057452D01*
X114260833Y-71057452D01*
X114248738Y-71051404D01*
X114242690Y-71039309D01*
X114242690Y-70990928D01*
X114248738Y-70978833D01*
X114260833Y-70972785D01*
X114285023Y-70972785D01*
X114297119Y-70978833D01*
X114303166Y-70990928D01*
X114303166Y-71003023D01*
X114242690Y-71015119D01*
X114351547Y-71051404D02*
X114363642Y-71057452D01*
X114387833Y-71057452D01*
X114399928Y-71051404D01*
X114405976Y-71039309D01*
X114405976Y-71033261D01*
X114399928Y-71021166D01*
X114387833Y-71015119D01*
X114369690Y-71015119D01*
X114357595Y-71009071D01*
X114351547Y-70996976D01*
X114351547Y-70990928D01*
X114357595Y-70978833D01*
X114369690Y-70972785D01*
X114387833Y-70972785D01*
X114399928Y-70978833D01*
X114508785Y-71051404D02*
X114496690Y-71057452D01*
X114472500Y-71057452D01*
X114460404Y-71051404D01*
X114454357Y-71039309D01*
X114454357Y-70990928D01*
X114460404Y-70978833D01*
X114472500Y-70972785D01*
X114496690Y-70972785D01*
X114508785Y-70978833D01*
X114514833Y-70990928D01*
X114514833Y-71003023D01*
X114454357Y-71015119D01*
X114569261Y-71057452D02*
X114569261Y-70972785D01*
X114569261Y-70996976D02*
X114575309Y-70984880D01*
X114581357Y-70978833D01*
X114593452Y-70972785D01*
X114605547Y-70972785D01*
X114635785Y-70972785D02*
X114666023Y-71057452D01*
X114696261Y-70972785D01*
X114793023Y-71051404D02*
X114780928Y-71057452D01*
X114756738Y-71057452D01*
X114744642Y-71051404D01*
X114738595Y-71039309D01*
X114738595Y-70990928D01*
X114744642Y-70978833D01*
X114756738Y-70972785D01*
X114780928Y-70972785D01*
X114793023Y-70978833D01*
X114799071Y-70990928D01*
X114799071Y-71003023D01*
X114738595Y-71015119D01*
X114907928Y-71057452D02*
X114907928Y-70930452D01*
X114907928Y-71051404D02*
X114895833Y-71057452D01*
X114871642Y-71057452D01*
X114859547Y-71051404D01*
X114853500Y-71045357D01*
X114847452Y-71033261D01*
X114847452Y-70996976D01*
X114853500Y-70984880D01*
X114859547Y-70978833D01*
X114871642Y-70972785D01*
X114895833Y-70972785D01*
X114907928Y-70978833D01*
X114968404Y-71045357D02*
X114974452Y-71051404D01*
X114968404Y-71057452D01*
X114962357Y-71051404D01*
X114968404Y-71045357D01*
X114968404Y-71057452D01*
M02*
