G04 #@! TF.GenerationSoftware,KiCad,Pcbnew,(5.1.5)-3*
G04 #@! TF.CreationDate,2020-03-06T02:38:52-05:00*
G04 #@! TF.ProjectId,SingleBoard,53696e67-6c65-4426-9f61-72642e6b6963,rev?*
G04 #@! TF.SameCoordinates,Original*
G04 #@! TF.FileFunction,Other,User*
%FSLAX46Y46*%
G04 Gerber Fmt 4.6, Leading zero omitted, Abs format (unit mm)*
G04 Created by KiCad (PCBNEW (5.1.5)-3) date 2020-03-06 02:38:52*
%MOMM*%
%LPD*%
G04 APERTURE LIST*
%ADD10C,0.152400*%
%ADD11C,0.050000*%
G04 APERTURE END LIST*
D10*
X102750400Y-77123700D02*
X101549500Y-77123700D01*
X102750400Y-77299200D02*
X102750400Y-77123700D01*
X121749600Y-77299200D02*
X102750400Y-77299200D01*
X121749600Y-77123700D02*
X121749600Y-77299200D01*
X122950500Y-77123700D02*
X121749600Y-77123700D01*
X122950500Y-64876300D02*
X122950500Y-77123700D01*
X121749600Y-64876300D02*
X122950500Y-64876300D01*
X121749600Y-64700800D02*
X121749600Y-64876300D01*
X102750400Y-64700800D02*
X121749600Y-64700800D01*
X102750400Y-64876300D02*
X102750400Y-64700800D01*
X101549500Y-64876300D02*
X102750400Y-64876300D01*
X101549500Y-77123700D02*
X101549500Y-64876300D01*
D11*
X132800000Y-42200000D02*
X129200000Y-42200000D01*
X132800000Y-104200000D02*
X132800000Y-42200000D01*
X129200000Y-104200000D02*
X132800000Y-104200000D01*
X129200000Y-42200000D02*
X129200000Y-104200000D01*
X92200000Y-104220000D02*
X95800000Y-104220000D01*
X92200000Y-42220000D02*
X92200000Y-104220000D01*
X95800000Y-42220000D02*
X92200000Y-42220000D01*
X95800000Y-104220000D02*
X95800000Y-42220000D01*
M02*
