G04 #@! TF.GenerationSoftware,KiCad,Pcbnew,(5.1.5)-3*
G04 #@! TF.CreationDate,2020-03-06T02:38:52-05:00*
G04 #@! TF.ProjectId,SingleBoard,53696e67-6c65-4426-9f61-72642e6b6963,rev?*
G04 #@! TF.SameCoordinates,Original*
G04 #@! TF.FileFunction,Legend,Top*
G04 #@! TF.FilePolarity,Positive*
%FSLAX46Y46*%
G04 Gerber Fmt 4.6, Leading zero omitted, Abs format (unit mm)*
G04 Created by KiCad (PCBNEW (5.1.5)-3) date 2020-03-06 02:38:52*
%MOMM*%
%LPD*%
G04 APERTURE LIST*
%ADD10C,0.010000*%
%ADD11C,0.152400*%
%ADD12C,0.120000*%
%ADD13C,0.150000*%
G04 APERTURE END LIST*
D10*
G36*
X112103910Y-99242348D02*
G01*
X112182454Y-99242778D01*
X112239298Y-99243942D01*
X112278105Y-99246207D01*
X112302538Y-99249940D01*
X112316262Y-99255506D01*
X112322940Y-99263273D01*
X112326236Y-99273605D01*
X112326556Y-99274943D01*
X112331562Y-99299079D01*
X112340829Y-99346701D01*
X112353392Y-99412741D01*
X112368287Y-99492128D01*
X112384551Y-99579796D01*
X112385119Y-99582875D01*
X112401410Y-99668789D01*
X112416652Y-99744696D01*
X112429861Y-99806045D01*
X112440054Y-99848282D01*
X112446248Y-99866855D01*
X112446543Y-99867184D01*
X112464788Y-99876253D01*
X112502405Y-99891367D01*
X112551271Y-99909262D01*
X112551543Y-99909358D01*
X112613093Y-99932493D01*
X112685657Y-99961965D01*
X112754057Y-99991597D01*
X112757294Y-99993062D01*
X112868702Y-100043626D01*
X113115399Y-99875160D01*
X113191077Y-99823803D01*
X113259631Y-99777889D01*
X113317088Y-99740030D01*
X113359476Y-99712837D01*
X113382825Y-99698921D01*
X113385042Y-99697889D01*
X113402010Y-99702484D01*
X113433701Y-99724655D01*
X113481352Y-99765447D01*
X113546198Y-99825905D01*
X113612397Y-99890227D01*
X113676214Y-99953612D01*
X113733329Y-100011451D01*
X113780305Y-100060175D01*
X113813703Y-100096210D01*
X113830085Y-100115984D01*
X113830694Y-100117002D01*
X113832505Y-100130572D01*
X113825683Y-100152733D01*
X113808540Y-100186478D01*
X113779393Y-100234800D01*
X113736555Y-100300692D01*
X113679448Y-100385517D01*
X113628766Y-100460177D01*
X113583461Y-100527140D01*
X113546150Y-100582516D01*
X113519452Y-100622420D01*
X113505985Y-100642962D01*
X113505137Y-100644356D01*
X113506781Y-100664038D01*
X113519245Y-100702293D01*
X113540048Y-100751889D01*
X113547462Y-100767728D01*
X113579814Y-100838290D01*
X113614328Y-100918353D01*
X113642365Y-100987629D01*
X113662568Y-101039045D01*
X113678615Y-101078119D01*
X113687888Y-101098541D01*
X113689041Y-101100114D01*
X113706096Y-101102721D01*
X113746298Y-101109863D01*
X113804302Y-101120523D01*
X113874763Y-101133685D01*
X113952335Y-101148333D01*
X114031672Y-101163449D01*
X114107431Y-101178018D01*
X114174264Y-101191022D01*
X114226828Y-101201445D01*
X114259776Y-101208270D01*
X114267857Y-101210199D01*
X114276205Y-101214962D01*
X114282506Y-101225718D01*
X114287045Y-101246098D01*
X114290104Y-101279734D01*
X114291967Y-101330255D01*
X114292918Y-101401292D01*
X114293240Y-101496476D01*
X114293257Y-101535492D01*
X114293257Y-101852799D01*
X114217057Y-101867839D01*
X114174663Y-101875995D01*
X114111400Y-101887899D01*
X114034962Y-101902116D01*
X113953043Y-101917210D01*
X113930400Y-101921355D01*
X113854806Y-101936053D01*
X113788953Y-101950505D01*
X113738366Y-101963375D01*
X113708574Y-101973322D01*
X113703612Y-101976287D01*
X113691426Y-101997283D01*
X113673953Y-102037967D01*
X113654577Y-102090322D01*
X113650734Y-102101600D01*
X113625339Y-102171523D01*
X113593817Y-102250418D01*
X113562969Y-102321266D01*
X113562817Y-102321595D01*
X113511447Y-102432733D01*
X113680399Y-102681253D01*
X113849352Y-102929772D01*
X113632429Y-103147058D01*
X113566819Y-103211726D01*
X113506979Y-103268733D01*
X113456267Y-103315033D01*
X113418046Y-103347584D01*
X113395675Y-103363343D01*
X113392466Y-103364343D01*
X113373626Y-103356469D01*
X113335180Y-103334578D01*
X113281330Y-103301267D01*
X113216276Y-103259131D01*
X113145940Y-103211943D01*
X113074555Y-103163810D01*
X113010908Y-103121928D01*
X112959041Y-103088871D01*
X112922995Y-103067218D01*
X112906867Y-103059543D01*
X112887189Y-103066037D01*
X112849875Y-103083150D01*
X112802621Y-103107326D01*
X112797612Y-103110013D01*
X112733977Y-103141927D01*
X112690341Y-103157579D01*
X112663202Y-103157745D01*
X112649057Y-103143204D01*
X112648975Y-103143000D01*
X112641905Y-103125779D01*
X112625042Y-103084899D01*
X112599695Y-103023525D01*
X112567171Y-102944819D01*
X112528778Y-102851947D01*
X112485822Y-102748072D01*
X112444222Y-102647502D01*
X112398504Y-102536516D01*
X112356526Y-102433703D01*
X112319548Y-102342215D01*
X112288827Y-102265201D01*
X112265622Y-102205815D01*
X112251190Y-102167209D01*
X112246743Y-102152800D01*
X112257896Y-102136272D01*
X112287069Y-102109930D01*
X112325971Y-102080887D01*
X112436757Y-101989039D01*
X112523351Y-101883759D01*
X112584716Y-101767266D01*
X112619815Y-101641776D01*
X112627608Y-101509507D01*
X112621943Y-101448457D01*
X112591078Y-101321795D01*
X112537920Y-101209941D01*
X112465767Y-101114001D01*
X112377917Y-101035076D01*
X112277665Y-100974270D01*
X112168310Y-100932687D01*
X112053147Y-100911428D01*
X111935475Y-100911599D01*
X111818590Y-100934301D01*
X111705789Y-100980638D01*
X111600369Y-101051713D01*
X111556368Y-101091911D01*
X111471979Y-101195129D01*
X111413222Y-101307925D01*
X111379704Y-101427010D01*
X111371035Y-101549095D01*
X111386823Y-101670893D01*
X111426678Y-101789116D01*
X111490207Y-101900475D01*
X111577021Y-102001684D01*
X111674029Y-102080887D01*
X111714437Y-102111162D01*
X111742982Y-102137219D01*
X111753257Y-102152825D01*
X111747877Y-102169843D01*
X111732575Y-102210500D01*
X111708612Y-102271642D01*
X111677244Y-102350119D01*
X111639732Y-102442780D01*
X111597333Y-102546472D01*
X111555663Y-102647526D01*
X111509690Y-102758607D01*
X111467107Y-102861541D01*
X111429221Y-102953165D01*
X111397340Y-103030316D01*
X111372771Y-103089831D01*
X111356820Y-103128544D01*
X111350910Y-103143000D01*
X111336948Y-103157685D01*
X111309940Y-103157642D01*
X111266413Y-103142099D01*
X111202890Y-103110284D01*
X111202388Y-103110013D01*
X111154560Y-103085323D01*
X111115897Y-103067338D01*
X111094095Y-103059614D01*
X111093133Y-103059543D01*
X111076721Y-103067378D01*
X111040487Y-103089165D01*
X110988474Y-103122328D01*
X110924725Y-103164291D01*
X110854060Y-103211943D01*
X110782116Y-103260191D01*
X110717274Y-103302151D01*
X110663735Y-103335227D01*
X110625697Y-103356821D01*
X110607533Y-103364343D01*
X110590808Y-103354457D01*
X110557180Y-103326826D01*
X110510010Y-103284495D01*
X110452658Y-103230505D01*
X110388484Y-103167899D01*
X110367497Y-103146983D01*
X110150499Y-102929623D01*
X110315668Y-102687220D01*
X110365864Y-102612781D01*
X110409919Y-102545972D01*
X110445362Y-102490665D01*
X110469719Y-102450729D01*
X110480522Y-102430036D01*
X110480838Y-102428563D01*
X110475143Y-102409058D01*
X110459826Y-102369822D01*
X110437537Y-102317430D01*
X110421893Y-102282355D01*
X110392641Y-102215201D01*
X110365094Y-102147358D01*
X110343737Y-102090034D01*
X110337935Y-102072572D01*
X110321452Y-102025938D01*
X110305340Y-101989905D01*
X110296490Y-101976287D01*
X110276960Y-101967952D01*
X110234334Y-101956137D01*
X110174145Y-101942181D01*
X110101922Y-101927422D01*
X110069600Y-101921355D01*
X109987522Y-101906273D01*
X109908795Y-101891669D01*
X109841109Y-101878980D01*
X109792160Y-101869642D01*
X109782943Y-101867839D01*
X109706743Y-101852799D01*
X109706743Y-101535492D01*
X109706914Y-101431154D01*
X109707616Y-101352213D01*
X109709134Y-101295038D01*
X109711749Y-101255999D01*
X109715746Y-101231465D01*
X109721409Y-101217805D01*
X109729020Y-101211389D01*
X109732143Y-101210199D01*
X109750978Y-101205980D01*
X109792588Y-101197562D01*
X109851630Y-101185961D01*
X109922757Y-101172195D01*
X110000625Y-101157280D01*
X110079887Y-101142232D01*
X110155198Y-101128069D01*
X110221213Y-101115806D01*
X110272587Y-101106461D01*
X110303975Y-101101050D01*
X110310959Y-101100114D01*
X110317285Y-101087596D01*
X110331290Y-101054246D01*
X110350355Y-101006377D01*
X110357634Y-100987629D01*
X110386996Y-100915195D01*
X110421571Y-100835170D01*
X110452537Y-100767728D01*
X110475323Y-100716159D01*
X110490482Y-100673785D01*
X110495542Y-100647834D01*
X110494736Y-100644356D01*
X110484041Y-100627936D01*
X110459620Y-100591417D01*
X110424095Y-100538687D01*
X110380087Y-100473635D01*
X110330217Y-100400151D01*
X110320356Y-100385645D01*
X110262492Y-100299704D01*
X110219956Y-100234261D01*
X110191054Y-100186304D01*
X110174090Y-100152820D01*
X110167367Y-100130795D01*
X110169190Y-100117217D01*
X110169236Y-100117131D01*
X110183586Y-100099297D01*
X110215323Y-100064817D01*
X110261010Y-100017268D01*
X110317204Y-99960222D01*
X110380468Y-99897255D01*
X110387602Y-99890227D01*
X110467330Y-99813020D01*
X110528857Y-99756330D01*
X110573421Y-99719110D01*
X110602257Y-99700315D01*
X110614958Y-99697889D01*
X110633494Y-99708471D01*
X110671961Y-99732916D01*
X110726386Y-99768612D01*
X110792798Y-99812947D01*
X110867225Y-99863311D01*
X110884601Y-99875160D01*
X111131297Y-100043626D01*
X111242706Y-99993062D01*
X111310457Y-99963595D01*
X111383183Y-99933959D01*
X111445703Y-99910330D01*
X111448457Y-99909358D01*
X111497360Y-99891457D01*
X111535057Y-99876320D01*
X111553425Y-99867210D01*
X111553456Y-99867184D01*
X111559285Y-99850717D01*
X111569192Y-99810219D01*
X111582195Y-99750242D01*
X111597309Y-99675340D01*
X111613552Y-99590064D01*
X111614881Y-99582875D01*
X111631175Y-99495014D01*
X111646133Y-99415260D01*
X111658791Y-99348681D01*
X111668186Y-99300347D01*
X111673354Y-99275325D01*
X111673444Y-99274943D01*
X111676589Y-99264299D01*
X111682704Y-99256262D01*
X111695453Y-99250467D01*
X111718500Y-99246547D01*
X111755509Y-99244135D01*
X111810144Y-99242865D01*
X111886067Y-99242371D01*
X111986944Y-99242286D01*
X112000000Y-99242286D01*
X112103910Y-99242348D01*
G37*
X112103910Y-99242348D02*
X112182454Y-99242778D01*
X112239298Y-99243942D01*
X112278105Y-99246207D01*
X112302538Y-99249940D01*
X112316262Y-99255506D01*
X112322940Y-99263273D01*
X112326236Y-99273605D01*
X112326556Y-99274943D01*
X112331562Y-99299079D01*
X112340829Y-99346701D01*
X112353392Y-99412741D01*
X112368287Y-99492128D01*
X112384551Y-99579796D01*
X112385119Y-99582875D01*
X112401410Y-99668789D01*
X112416652Y-99744696D01*
X112429861Y-99806045D01*
X112440054Y-99848282D01*
X112446248Y-99866855D01*
X112446543Y-99867184D01*
X112464788Y-99876253D01*
X112502405Y-99891367D01*
X112551271Y-99909262D01*
X112551543Y-99909358D01*
X112613093Y-99932493D01*
X112685657Y-99961965D01*
X112754057Y-99991597D01*
X112757294Y-99993062D01*
X112868702Y-100043626D01*
X113115399Y-99875160D01*
X113191077Y-99823803D01*
X113259631Y-99777889D01*
X113317088Y-99740030D01*
X113359476Y-99712837D01*
X113382825Y-99698921D01*
X113385042Y-99697889D01*
X113402010Y-99702484D01*
X113433701Y-99724655D01*
X113481352Y-99765447D01*
X113546198Y-99825905D01*
X113612397Y-99890227D01*
X113676214Y-99953612D01*
X113733329Y-100011451D01*
X113780305Y-100060175D01*
X113813703Y-100096210D01*
X113830085Y-100115984D01*
X113830694Y-100117002D01*
X113832505Y-100130572D01*
X113825683Y-100152733D01*
X113808540Y-100186478D01*
X113779393Y-100234800D01*
X113736555Y-100300692D01*
X113679448Y-100385517D01*
X113628766Y-100460177D01*
X113583461Y-100527140D01*
X113546150Y-100582516D01*
X113519452Y-100622420D01*
X113505985Y-100642962D01*
X113505137Y-100644356D01*
X113506781Y-100664038D01*
X113519245Y-100702293D01*
X113540048Y-100751889D01*
X113547462Y-100767728D01*
X113579814Y-100838290D01*
X113614328Y-100918353D01*
X113642365Y-100987629D01*
X113662568Y-101039045D01*
X113678615Y-101078119D01*
X113687888Y-101098541D01*
X113689041Y-101100114D01*
X113706096Y-101102721D01*
X113746298Y-101109863D01*
X113804302Y-101120523D01*
X113874763Y-101133685D01*
X113952335Y-101148333D01*
X114031672Y-101163449D01*
X114107431Y-101178018D01*
X114174264Y-101191022D01*
X114226828Y-101201445D01*
X114259776Y-101208270D01*
X114267857Y-101210199D01*
X114276205Y-101214962D01*
X114282506Y-101225718D01*
X114287045Y-101246098D01*
X114290104Y-101279734D01*
X114291967Y-101330255D01*
X114292918Y-101401292D01*
X114293240Y-101496476D01*
X114293257Y-101535492D01*
X114293257Y-101852799D01*
X114217057Y-101867839D01*
X114174663Y-101875995D01*
X114111400Y-101887899D01*
X114034962Y-101902116D01*
X113953043Y-101917210D01*
X113930400Y-101921355D01*
X113854806Y-101936053D01*
X113788953Y-101950505D01*
X113738366Y-101963375D01*
X113708574Y-101973322D01*
X113703612Y-101976287D01*
X113691426Y-101997283D01*
X113673953Y-102037967D01*
X113654577Y-102090322D01*
X113650734Y-102101600D01*
X113625339Y-102171523D01*
X113593817Y-102250418D01*
X113562969Y-102321266D01*
X113562817Y-102321595D01*
X113511447Y-102432733D01*
X113680399Y-102681253D01*
X113849352Y-102929772D01*
X113632429Y-103147058D01*
X113566819Y-103211726D01*
X113506979Y-103268733D01*
X113456267Y-103315033D01*
X113418046Y-103347584D01*
X113395675Y-103363343D01*
X113392466Y-103364343D01*
X113373626Y-103356469D01*
X113335180Y-103334578D01*
X113281330Y-103301267D01*
X113216276Y-103259131D01*
X113145940Y-103211943D01*
X113074555Y-103163810D01*
X113010908Y-103121928D01*
X112959041Y-103088871D01*
X112922995Y-103067218D01*
X112906867Y-103059543D01*
X112887189Y-103066037D01*
X112849875Y-103083150D01*
X112802621Y-103107326D01*
X112797612Y-103110013D01*
X112733977Y-103141927D01*
X112690341Y-103157579D01*
X112663202Y-103157745D01*
X112649057Y-103143204D01*
X112648975Y-103143000D01*
X112641905Y-103125779D01*
X112625042Y-103084899D01*
X112599695Y-103023525D01*
X112567171Y-102944819D01*
X112528778Y-102851947D01*
X112485822Y-102748072D01*
X112444222Y-102647502D01*
X112398504Y-102536516D01*
X112356526Y-102433703D01*
X112319548Y-102342215D01*
X112288827Y-102265201D01*
X112265622Y-102205815D01*
X112251190Y-102167209D01*
X112246743Y-102152800D01*
X112257896Y-102136272D01*
X112287069Y-102109930D01*
X112325971Y-102080887D01*
X112436757Y-101989039D01*
X112523351Y-101883759D01*
X112584716Y-101767266D01*
X112619815Y-101641776D01*
X112627608Y-101509507D01*
X112621943Y-101448457D01*
X112591078Y-101321795D01*
X112537920Y-101209941D01*
X112465767Y-101114001D01*
X112377917Y-101035076D01*
X112277665Y-100974270D01*
X112168310Y-100932687D01*
X112053147Y-100911428D01*
X111935475Y-100911599D01*
X111818590Y-100934301D01*
X111705789Y-100980638D01*
X111600369Y-101051713D01*
X111556368Y-101091911D01*
X111471979Y-101195129D01*
X111413222Y-101307925D01*
X111379704Y-101427010D01*
X111371035Y-101549095D01*
X111386823Y-101670893D01*
X111426678Y-101789116D01*
X111490207Y-101900475D01*
X111577021Y-102001684D01*
X111674029Y-102080887D01*
X111714437Y-102111162D01*
X111742982Y-102137219D01*
X111753257Y-102152825D01*
X111747877Y-102169843D01*
X111732575Y-102210500D01*
X111708612Y-102271642D01*
X111677244Y-102350119D01*
X111639732Y-102442780D01*
X111597333Y-102546472D01*
X111555663Y-102647526D01*
X111509690Y-102758607D01*
X111467107Y-102861541D01*
X111429221Y-102953165D01*
X111397340Y-103030316D01*
X111372771Y-103089831D01*
X111356820Y-103128544D01*
X111350910Y-103143000D01*
X111336948Y-103157685D01*
X111309940Y-103157642D01*
X111266413Y-103142099D01*
X111202890Y-103110284D01*
X111202388Y-103110013D01*
X111154560Y-103085323D01*
X111115897Y-103067338D01*
X111094095Y-103059614D01*
X111093133Y-103059543D01*
X111076721Y-103067378D01*
X111040487Y-103089165D01*
X110988474Y-103122328D01*
X110924725Y-103164291D01*
X110854060Y-103211943D01*
X110782116Y-103260191D01*
X110717274Y-103302151D01*
X110663735Y-103335227D01*
X110625697Y-103356821D01*
X110607533Y-103364343D01*
X110590808Y-103354457D01*
X110557180Y-103326826D01*
X110510010Y-103284495D01*
X110452658Y-103230505D01*
X110388484Y-103167899D01*
X110367497Y-103146983D01*
X110150499Y-102929623D01*
X110315668Y-102687220D01*
X110365864Y-102612781D01*
X110409919Y-102545972D01*
X110445362Y-102490665D01*
X110469719Y-102450729D01*
X110480522Y-102430036D01*
X110480838Y-102428563D01*
X110475143Y-102409058D01*
X110459826Y-102369822D01*
X110437537Y-102317430D01*
X110421893Y-102282355D01*
X110392641Y-102215201D01*
X110365094Y-102147358D01*
X110343737Y-102090034D01*
X110337935Y-102072572D01*
X110321452Y-102025938D01*
X110305340Y-101989905D01*
X110296490Y-101976287D01*
X110276960Y-101967952D01*
X110234334Y-101956137D01*
X110174145Y-101942181D01*
X110101922Y-101927422D01*
X110069600Y-101921355D01*
X109987522Y-101906273D01*
X109908795Y-101891669D01*
X109841109Y-101878980D01*
X109792160Y-101869642D01*
X109782943Y-101867839D01*
X109706743Y-101852799D01*
X109706743Y-101535492D01*
X109706914Y-101431154D01*
X109707616Y-101352213D01*
X109709134Y-101295038D01*
X109711749Y-101255999D01*
X109715746Y-101231465D01*
X109721409Y-101217805D01*
X109729020Y-101211389D01*
X109732143Y-101210199D01*
X109750978Y-101205980D01*
X109792588Y-101197562D01*
X109851630Y-101185961D01*
X109922757Y-101172195D01*
X110000625Y-101157280D01*
X110079887Y-101142232D01*
X110155198Y-101128069D01*
X110221213Y-101115806D01*
X110272587Y-101106461D01*
X110303975Y-101101050D01*
X110310959Y-101100114D01*
X110317285Y-101087596D01*
X110331290Y-101054246D01*
X110350355Y-101006377D01*
X110357634Y-100987629D01*
X110386996Y-100915195D01*
X110421571Y-100835170D01*
X110452537Y-100767728D01*
X110475323Y-100716159D01*
X110490482Y-100673785D01*
X110495542Y-100647834D01*
X110494736Y-100644356D01*
X110484041Y-100627936D01*
X110459620Y-100591417D01*
X110424095Y-100538687D01*
X110380087Y-100473635D01*
X110330217Y-100400151D01*
X110320356Y-100385645D01*
X110262492Y-100299704D01*
X110219956Y-100234261D01*
X110191054Y-100186304D01*
X110174090Y-100152820D01*
X110167367Y-100130795D01*
X110169190Y-100117217D01*
X110169236Y-100117131D01*
X110183586Y-100099297D01*
X110215323Y-100064817D01*
X110261010Y-100017268D01*
X110317204Y-99960222D01*
X110380468Y-99897255D01*
X110387602Y-99890227D01*
X110467330Y-99813020D01*
X110528857Y-99756330D01*
X110573421Y-99719110D01*
X110602257Y-99700315D01*
X110614958Y-99697889D01*
X110633494Y-99708471D01*
X110671961Y-99732916D01*
X110726386Y-99768612D01*
X110792798Y-99812947D01*
X110867225Y-99863311D01*
X110884601Y-99875160D01*
X111131297Y-100043626D01*
X111242706Y-99993062D01*
X111310457Y-99963595D01*
X111383183Y-99933959D01*
X111445703Y-99910330D01*
X111448457Y-99909358D01*
X111497360Y-99891457D01*
X111535057Y-99876320D01*
X111553425Y-99867210D01*
X111553456Y-99867184D01*
X111559285Y-99850717D01*
X111569192Y-99810219D01*
X111582195Y-99750242D01*
X111597309Y-99675340D01*
X111613552Y-99590064D01*
X111614881Y-99582875D01*
X111631175Y-99495014D01*
X111646133Y-99415260D01*
X111658791Y-99348681D01*
X111668186Y-99300347D01*
X111673354Y-99275325D01*
X111673444Y-99274943D01*
X111676589Y-99264299D01*
X111682704Y-99256262D01*
X111695453Y-99250467D01*
X111718500Y-99246547D01*
X111755509Y-99244135D01*
X111810144Y-99242865D01*
X111886067Y-99242371D01*
X111986944Y-99242286D01*
X112000000Y-99242286D01*
X112103910Y-99242348D01*
G36*
X115153595Y-103966966D02*
G01*
X115211021Y-104004497D01*
X115238719Y-104038096D01*
X115260662Y-104099064D01*
X115262405Y-104147308D01*
X115258457Y-104211816D01*
X115109686Y-104276934D01*
X115037349Y-104310202D01*
X114990084Y-104336964D01*
X114965507Y-104360144D01*
X114961237Y-104382667D01*
X114974889Y-104407455D01*
X114989943Y-104423886D01*
X115033746Y-104450235D01*
X115081389Y-104452081D01*
X115125145Y-104431546D01*
X115157289Y-104390752D01*
X115163038Y-104376347D01*
X115190576Y-104331356D01*
X115222258Y-104312182D01*
X115265714Y-104295779D01*
X115265714Y-104357966D01*
X115261872Y-104400283D01*
X115246823Y-104435969D01*
X115215280Y-104476943D01*
X115210592Y-104482267D01*
X115175506Y-104518720D01*
X115145347Y-104538283D01*
X115107615Y-104547283D01*
X115076335Y-104550230D01*
X115020385Y-104550965D01*
X114980555Y-104541660D01*
X114955708Y-104527846D01*
X114916656Y-104497467D01*
X114889625Y-104464613D01*
X114872517Y-104423294D01*
X114863238Y-104367521D01*
X114859693Y-104291305D01*
X114859410Y-104252622D01*
X114860372Y-104206247D01*
X114948007Y-104206247D01*
X114949023Y-104231126D01*
X114951556Y-104235200D01*
X114968274Y-104229665D01*
X115004249Y-104215017D01*
X115052331Y-104194190D01*
X115062386Y-104189714D01*
X115123152Y-104158814D01*
X115156632Y-104131657D01*
X115163990Y-104106220D01*
X115146391Y-104080481D01*
X115131856Y-104069109D01*
X115079410Y-104046364D01*
X115030322Y-104050122D01*
X114989227Y-104077884D01*
X114960758Y-104127152D01*
X114951631Y-104166257D01*
X114948007Y-104206247D01*
X114860372Y-104206247D01*
X114861285Y-104162249D01*
X114868196Y-104095384D01*
X114881884Y-104046695D01*
X114904096Y-104010849D01*
X114936574Y-103982513D01*
X114950733Y-103973355D01*
X115015053Y-103949507D01*
X115085473Y-103948006D01*
X115153595Y-103966966D01*
G37*
X115153595Y-103966966D02*
X115211021Y-104004497D01*
X115238719Y-104038096D01*
X115260662Y-104099064D01*
X115262405Y-104147308D01*
X115258457Y-104211816D01*
X115109686Y-104276934D01*
X115037349Y-104310202D01*
X114990084Y-104336964D01*
X114965507Y-104360144D01*
X114961237Y-104382667D01*
X114974889Y-104407455D01*
X114989943Y-104423886D01*
X115033746Y-104450235D01*
X115081389Y-104452081D01*
X115125145Y-104431546D01*
X115157289Y-104390752D01*
X115163038Y-104376347D01*
X115190576Y-104331356D01*
X115222258Y-104312182D01*
X115265714Y-104295779D01*
X115265714Y-104357966D01*
X115261872Y-104400283D01*
X115246823Y-104435969D01*
X115215280Y-104476943D01*
X115210592Y-104482267D01*
X115175506Y-104518720D01*
X115145347Y-104538283D01*
X115107615Y-104547283D01*
X115076335Y-104550230D01*
X115020385Y-104550965D01*
X114980555Y-104541660D01*
X114955708Y-104527846D01*
X114916656Y-104497467D01*
X114889625Y-104464613D01*
X114872517Y-104423294D01*
X114863238Y-104367521D01*
X114859693Y-104291305D01*
X114859410Y-104252622D01*
X114860372Y-104206247D01*
X114948007Y-104206247D01*
X114949023Y-104231126D01*
X114951556Y-104235200D01*
X114968274Y-104229665D01*
X115004249Y-104215017D01*
X115052331Y-104194190D01*
X115062386Y-104189714D01*
X115123152Y-104158814D01*
X115156632Y-104131657D01*
X115163990Y-104106220D01*
X115146391Y-104080481D01*
X115131856Y-104069109D01*
X115079410Y-104046364D01*
X115030322Y-104050122D01*
X114989227Y-104077884D01*
X114960758Y-104127152D01*
X114951631Y-104166257D01*
X114948007Y-104206247D01*
X114860372Y-104206247D01*
X114861285Y-104162249D01*
X114868196Y-104095384D01*
X114881884Y-104046695D01*
X114904096Y-104010849D01*
X114936574Y-103982513D01*
X114950733Y-103973355D01*
X115015053Y-103949507D01*
X115085473Y-103948006D01*
X115153595Y-103966966D01*
G36*
X114652600Y-103958752D02*
G01*
X114669948Y-103966334D01*
X114711356Y-103999128D01*
X114746765Y-104046547D01*
X114768664Y-104097151D01*
X114772229Y-104122098D01*
X114760279Y-104156927D01*
X114734067Y-104175357D01*
X114705964Y-104186516D01*
X114693095Y-104188572D01*
X114686829Y-104173649D01*
X114674456Y-104141175D01*
X114669028Y-104126502D01*
X114638590Y-104075744D01*
X114594520Y-104050427D01*
X114538010Y-104051206D01*
X114533825Y-104052203D01*
X114503655Y-104066507D01*
X114481476Y-104094393D01*
X114466327Y-104139287D01*
X114457250Y-104204615D01*
X114453286Y-104293804D01*
X114452914Y-104341261D01*
X114452730Y-104416071D01*
X114451522Y-104467069D01*
X114448309Y-104499471D01*
X114442109Y-104518495D01*
X114431940Y-104529356D01*
X114416819Y-104537272D01*
X114415946Y-104537670D01*
X114386828Y-104549981D01*
X114372403Y-104554514D01*
X114370186Y-104540809D01*
X114368289Y-104502925D01*
X114366847Y-104445715D01*
X114365998Y-104374027D01*
X114365829Y-104321565D01*
X114366692Y-104220047D01*
X114370070Y-104143032D01*
X114377142Y-104086023D01*
X114389088Y-104044526D01*
X114407090Y-104014043D01*
X114432327Y-103990080D01*
X114457247Y-103973355D01*
X114517171Y-103951097D01*
X114586911Y-103946076D01*
X114652600Y-103958752D01*
G37*
X114652600Y-103958752D02*
X114669948Y-103966334D01*
X114711356Y-103999128D01*
X114746765Y-104046547D01*
X114768664Y-104097151D01*
X114772229Y-104122098D01*
X114760279Y-104156927D01*
X114734067Y-104175357D01*
X114705964Y-104186516D01*
X114693095Y-104188572D01*
X114686829Y-104173649D01*
X114674456Y-104141175D01*
X114669028Y-104126502D01*
X114638590Y-104075744D01*
X114594520Y-104050427D01*
X114538010Y-104051206D01*
X114533825Y-104052203D01*
X114503655Y-104066507D01*
X114481476Y-104094393D01*
X114466327Y-104139287D01*
X114457250Y-104204615D01*
X114453286Y-104293804D01*
X114452914Y-104341261D01*
X114452730Y-104416071D01*
X114451522Y-104467069D01*
X114448309Y-104499471D01*
X114442109Y-104518495D01*
X114431940Y-104529356D01*
X114416819Y-104537272D01*
X114415946Y-104537670D01*
X114386828Y-104549981D01*
X114372403Y-104554514D01*
X114370186Y-104540809D01*
X114368289Y-104502925D01*
X114366847Y-104445715D01*
X114365998Y-104374027D01*
X114365829Y-104321565D01*
X114366692Y-104220047D01*
X114370070Y-104143032D01*
X114377142Y-104086023D01*
X114389088Y-104044526D01*
X114407090Y-104014043D01*
X114432327Y-103990080D01*
X114457247Y-103973355D01*
X114517171Y-103951097D01*
X114586911Y-103946076D01*
X114652600Y-103958752D01*
G36*
X114144876Y-103956335D02*
G01*
X114186667Y-103975344D01*
X114219469Y-103998378D01*
X114243503Y-104024133D01*
X114260097Y-104057358D01*
X114270577Y-104102800D01*
X114276271Y-104165207D01*
X114278507Y-104249327D01*
X114278743Y-104304721D01*
X114278743Y-104520826D01*
X114241774Y-104537670D01*
X114212656Y-104549981D01*
X114198231Y-104554514D01*
X114195472Y-104541025D01*
X114193282Y-104504653D01*
X114191942Y-104451542D01*
X114191657Y-104409372D01*
X114190434Y-104348447D01*
X114187136Y-104300115D01*
X114182321Y-104270518D01*
X114178496Y-104264229D01*
X114152783Y-104270652D01*
X114112418Y-104287125D01*
X114065679Y-104309458D01*
X114020845Y-104333457D01*
X113986193Y-104354930D01*
X113970002Y-104369685D01*
X113969938Y-104369845D01*
X113971330Y-104397152D01*
X113983818Y-104423219D01*
X114005743Y-104444392D01*
X114037743Y-104451474D01*
X114065092Y-104450649D01*
X114103826Y-104450042D01*
X114124158Y-104459116D01*
X114136369Y-104483092D01*
X114137909Y-104487613D01*
X114143203Y-104521806D01*
X114129047Y-104542568D01*
X114092148Y-104552462D01*
X114052289Y-104554292D01*
X113980562Y-104540727D01*
X113943432Y-104521355D01*
X113897576Y-104475845D01*
X113873256Y-104419983D01*
X113871073Y-104360957D01*
X113891629Y-104305953D01*
X113922549Y-104271486D01*
X113953420Y-104252189D01*
X114001942Y-104227759D01*
X114058485Y-104202985D01*
X114067910Y-104199199D01*
X114130019Y-104171791D01*
X114165822Y-104147634D01*
X114177337Y-104123619D01*
X114166580Y-104096635D01*
X114148114Y-104075543D01*
X114104469Y-104049572D01*
X114056446Y-104047624D01*
X114012406Y-104067637D01*
X113980709Y-104107551D01*
X113976549Y-104117848D01*
X113952327Y-104155724D01*
X113916965Y-104183842D01*
X113872343Y-104206917D01*
X113872343Y-104141485D01*
X113874969Y-104101506D01*
X113886230Y-104069997D01*
X113911199Y-104036378D01*
X113935169Y-104010484D01*
X113972441Y-103973817D01*
X114001401Y-103954121D01*
X114032505Y-103946220D01*
X114067713Y-103944914D01*
X114144876Y-103956335D01*
G37*
X114144876Y-103956335D02*
X114186667Y-103975344D01*
X114219469Y-103998378D01*
X114243503Y-104024133D01*
X114260097Y-104057358D01*
X114270577Y-104102800D01*
X114276271Y-104165207D01*
X114278507Y-104249327D01*
X114278743Y-104304721D01*
X114278743Y-104520826D01*
X114241774Y-104537670D01*
X114212656Y-104549981D01*
X114198231Y-104554514D01*
X114195472Y-104541025D01*
X114193282Y-104504653D01*
X114191942Y-104451542D01*
X114191657Y-104409372D01*
X114190434Y-104348447D01*
X114187136Y-104300115D01*
X114182321Y-104270518D01*
X114178496Y-104264229D01*
X114152783Y-104270652D01*
X114112418Y-104287125D01*
X114065679Y-104309458D01*
X114020845Y-104333457D01*
X113986193Y-104354930D01*
X113970002Y-104369685D01*
X113969938Y-104369845D01*
X113971330Y-104397152D01*
X113983818Y-104423219D01*
X114005743Y-104444392D01*
X114037743Y-104451474D01*
X114065092Y-104450649D01*
X114103826Y-104450042D01*
X114124158Y-104459116D01*
X114136369Y-104483092D01*
X114137909Y-104487613D01*
X114143203Y-104521806D01*
X114129047Y-104542568D01*
X114092148Y-104552462D01*
X114052289Y-104554292D01*
X113980562Y-104540727D01*
X113943432Y-104521355D01*
X113897576Y-104475845D01*
X113873256Y-104419983D01*
X113871073Y-104360957D01*
X113891629Y-104305953D01*
X113922549Y-104271486D01*
X113953420Y-104252189D01*
X114001942Y-104227759D01*
X114058485Y-104202985D01*
X114067910Y-104199199D01*
X114130019Y-104171791D01*
X114165822Y-104147634D01*
X114177337Y-104123619D01*
X114166580Y-104096635D01*
X114148114Y-104075543D01*
X114104469Y-104049572D01*
X114056446Y-104047624D01*
X114012406Y-104067637D01*
X113980709Y-104107551D01*
X113976549Y-104117848D01*
X113952327Y-104155724D01*
X113916965Y-104183842D01*
X113872343Y-104206917D01*
X113872343Y-104141485D01*
X113874969Y-104101506D01*
X113886230Y-104069997D01*
X113911199Y-104036378D01*
X113935169Y-104010484D01*
X113972441Y-103973817D01*
X114001401Y-103954121D01*
X114032505Y-103946220D01*
X114067713Y-103944914D01*
X114144876Y-103956335D01*
G36*
X113779833Y-103958663D02*
G01*
X113782048Y-103996850D01*
X113783784Y-104054886D01*
X113784899Y-104128180D01*
X113785257Y-104205055D01*
X113785257Y-104465196D01*
X113739326Y-104511127D01*
X113707675Y-104539429D01*
X113679890Y-104550893D01*
X113641915Y-104550168D01*
X113626840Y-104548321D01*
X113579726Y-104542948D01*
X113540756Y-104539869D01*
X113531257Y-104539585D01*
X113499233Y-104541445D01*
X113453432Y-104546114D01*
X113435674Y-104548321D01*
X113392057Y-104551735D01*
X113362745Y-104544320D01*
X113333680Y-104521427D01*
X113323188Y-104511127D01*
X113277257Y-104465196D01*
X113277257Y-103978602D01*
X113314226Y-103961758D01*
X113346059Y-103949282D01*
X113364683Y-103944914D01*
X113369458Y-103958718D01*
X113373921Y-103997286D01*
X113377775Y-104056356D01*
X113380722Y-104131663D01*
X113382143Y-104195286D01*
X113386114Y-104445657D01*
X113420759Y-104450556D01*
X113452268Y-104447131D01*
X113467708Y-104436041D01*
X113472023Y-104415308D01*
X113475708Y-104371145D01*
X113478469Y-104309146D01*
X113480012Y-104234909D01*
X113480235Y-104196706D01*
X113480457Y-103976783D01*
X113526166Y-103960849D01*
X113558518Y-103950015D01*
X113576115Y-103944962D01*
X113576623Y-103944914D01*
X113578388Y-103958648D01*
X113580329Y-103996730D01*
X113582282Y-104054482D01*
X113584084Y-104127227D01*
X113585343Y-104195286D01*
X113589314Y-104445657D01*
X113676400Y-104445657D01*
X113680396Y-104217240D01*
X113684392Y-103988822D01*
X113726847Y-103966868D01*
X113758192Y-103951793D01*
X113776744Y-103944951D01*
X113777279Y-103944914D01*
X113779833Y-103958663D01*
G37*
X113779833Y-103958663D02*
X113782048Y-103996850D01*
X113783784Y-104054886D01*
X113784899Y-104128180D01*
X113785257Y-104205055D01*
X113785257Y-104465196D01*
X113739326Y-104511127D01*
X113707675Y-104539429D01*
X113679890Y-104550893D01*
X113641915Y-104550168D01*
X113626840Y-104548321D01*
X113579726Y-104542948D01*
X113540756Y-104539869D01*
X113531257Y-104539585D01*
X113499233Y-104541445D01*
X113453432Y-104546114D01*
X113435674Y-104548321D01*
X113392057Y-104551735D01*
X113362745Y-104544320D01*
X113333680Y-104521427D01*
X113323188Y-104511127D01*
X113277257Y-104465196D01*
X113277257Y-103978602D01*
X113314226Y-103961758D01*
X113346059Y-103949282D01*
X113364683Y-103944914D01*
X113369458Y-103958718D01*
X113373921Y-103997286D01*
X113377775Y-104056356D01*
X113380722Y-104131663D01*
X113382143Y-104195286D01*
X113386114Y-104445657D01*
X113420759Y-104450556D01*
X113452268Y-104447131D01*
X113467708Y-104436041D01*
X113472023Y-104415308D01*
X113475708Y-104371145D01*
X113478469Y-104309146D01*
X113480012Y-104234909D01*
X113480235Y-104196706D01*
X113480457Y-103976783D01*
X113526166Y-103960849D01*
X113558518Y-103950015D01*
X113576115Y-103944962D01*
X113576623Y-103944914D01*
X113578388Y-103958648D01*
X113580329Y-103996730D01*
X113582282Y-104054482D01*
X113584084Y-104127227D01*
X113585343Y-104195286D01*
X113589314Y-104445657D01*
X113676400Y-104445657D01*
X113680396Y-104217240D01*
X113684392Y-103988822D01*
X113726847Y-103966868D01*
X113758192Y-103951793D01*
X113776744Y-103944951D01*
X113777279Y-103944914D01*
X113779833Y-103958663D01*
G36*
X113190117Y-104065358D02*
G01*
X113189933Y-104173837D01*
X113189219Y-104257287D01*
X113187675Y-104319704D01*
X113185001Y-104365085D01*
X113180894Y-104397429D01*
X113175055Y-104420733D01*
X113167182Y-104438995D01*
X113161221Y-104449418D01*
X113111855Y-104505945D01*
X113049264Y-104541377D01*
X112980013Y-104554090D01*
X112910668Y-104542463D01*
X112869375Y-104521568D01*
X112826025Y-104485422D01*
X112796481Y-104441276D01*
X112778655Y-104383462D01*
X112770463Y-104306313D01*
X112769302Y-104249714D01*
X112769458Y-104245647D01*
X112870857Y-104245647D01*
X112871476Y-104310550D01*
X112874314Y-104353514D01*
X112880840Y-104381622D01*
X112892523Y-104401953D01*
X112906483Y-104417288D01*
X112953365Y-104446890D01*
X113003701Y-104449419D01*
X113051276Y-104424705D01*
X113054979Y-104421356D01*
X113070783Y-104403935D01*
X113080693Y-104383209D01*
X113086058Y-104352362D01*
X113088228Y-104304577D01*
X113088571Y-104251748D01*
X113087827Y-104185381D01*
X113084748Y-104141106D01*
X113078061Y-104112009D01*
X113066496Y-104091173D01*
X113057013Y-104080107D01*
X113012960Y-104052198D01*
X112962224Y-104048843D01*
X112913796Y-104070159D01*
X112904450Y-104078073D01*
X112888540Y-104095647D01*
X112878610Y-104116587D01*
X112873278Y-104147782D01*
X112871163Y-104196122D01*
X112870857Y-104245647D01*
X112769458Y-104245647D01*
X112772810Y-104158568D01*
X112784726Y-104090086D01*
X112807135Y-104038600D01*
X112842124Y-103998443D01*
X112869375Y-103977861D01*
X112918907Y-103955625D01*
X112976316Y-103945304D01*
X113029682Y-103948067D01*
X113059543Y-103959212D01*
X113071261Y-103962383D01*
X113079037Y-103950557D01*
X113084465Y-103918866D01*
X113088571Y-103870593D01*
X113093067Y-103816829D01*
X113099313Y-103784482D01*
X113110676Y-103765985D01*
X113130528Y-103753770D01*
X113143000Y-103748362D01*
X113190171Y-103728601D01*
X113190117Y-104065358D01*
G37*
X113190117Y-104065358D02*
X113189933Y-104173837D01*
X113189219Y-104257287D01*
X113187675Y-104319704D01*
X113185001Y-104365085D01*
X113180894Y-104397429D01*
X113175055Y-104420733D01*
X113167182Y-104438995D01*
X113161221Y-104449418D01*
X113111855Y-104505945D01*
X113049264Y-104541377D01*
X112980013Y-104554090D01*
X112910668Y-104542463D01*
X112869375Y-104521568D01*
X112826025Y-104485422D01*
X112796481Y-104441276D01*
X112778655Y-104383462D01*
X112770463Y-104306313D01*
X112769302Y-104249714D01*
X112769458Y-104245647D01*
X112870857Y-104245647D01*
X112871476Y-104310550D01*
X112874314Y-104353514D01*
X112880840Y-104381622D01*
X112892523Y-104401953D01*
X112906483Y-104417288D01*
X112953365Y-104446890D01*
X113003701Y-104449419D01*
X113051276Y-104424705D01*
X113054979Y-104421356D01*
X113070783Y-104403935D01*
X113080693Y-104383209D01*
X113086058Y-104352362D01*
X113088228Y-104304577D01*
X113088571Y-104251748D01*
X113087827Y-104185381D01*
X113084748Y-104141106D01*
X113078061Y-104112009D01*
X113066496Y-104091173D01*
X113057013Y-104080107D01*
X113012960Y-104052198D01*
X112962224Y-104048843D01*
X112913796Y-104070159D01*
X112904450Y-104078073D01*
X112888540Y-104095647D01*
X112878610Y-104116587D01*
X112873278Y-104147782D01*
X112871163Y-104196122D01*
X112870857Y-104245647D01*
X112769458Y-104245647D01*
X112772810Y-104158568D01*
X112784726Y-104090086D01*
X112807135Y-104038600D01*
X112842124Y-103998443D01*
X112869375Y-103977861D01*
X112918907Y-103955625D01*
X112976316Y-103945304D01*
X113029682Y-103948067D01*
X113059543Y-103959212D01*
X113071261Y-103962383D01*
X113079037Y-103950557D01*
X113084465Y-103918866D01*
X113088571Y-103870593D01*
X113093067Y-103816829D01*
X113099313Y-103784482D01*
X113110676Y-103765985D01*
X113130528Y-103753770D01*
X113143000Y-103748362D01*
X113190171Y-103728601D01*
X113190117Y-104065358D01*
G36*
X112529926Y-103949755D02*
G01*
X112595858Y-103974084D01*
X112649273Y-104017117D01*
X112670164Y-104047409D01*
X112692939Y-104102994D01*
X112692466Y-104143186D01*
X112668562Y-104170217D01*
X112659717Y-104174813D01*
X112621530Y-104189144D01*
X112602028Y-104185472D01*
X112595422Y-104161407D01*
X112595086Y-104148114D01*
X112582992Y-104099210D01*
X112551471Y-104064999D01*
X112507659Y-104048476D01*
X112458695Y-104052634D01*
X112418894Y-104074227D01*
X112405450Y-104086544D01*
X112395921Y-104101487D01*
X112389485Y-104124075D01*
X112385317Y-104159328D01*
X112382597Y-104212266D01*
X112380502Y-104287907D01*
X112379960Y-104311857D01*
X112377981Y-104393790D01*
X112375731Y-104451455D01*
X112372357Y-104489608D01*
X112367006Y-104513004D01*
X112358824Y-104526398D01*
X112346959Y-104534545D01*
X112339362Y-104538144D01*
X112307102Y-104550452D01*
X112288111Y-104554514D01*
X112281836Y-104540948D01*
X112278006Y-104499934D01*
X112276600Y-104430999D01*
X112277598Y-104333669D01*
X112277908Y-104318657D01*
X112280101Y-104229859D01*
X112282693Y-104165019D01*
X112286382Y-104119067D01*
X112291864Y-104086935D01*
X112299835Y-104063553D01*
X112310993Y-104043852D01*
X112316830Y-104035410D01*
X112350296Y-103998057D01*
X112387727Y-103969003D01*
X112392309Y-103966467D01*
X112459426Y-103946443D01*
X112529926Y-103949755D01*
G37*
X112529926Y-103949755D02*
X112595858Y-103974084D01*
X112649273Y-104017117D01*
X112670164Y-104047409D01*
X112692939Y-104102994D01*
X112692466Y-104143186D01*
X112668562Y-104170217D01*
X112659717Y-104174813D01*
X112621530Y-104189144D01*
X112602028Y-104185472D01*
X112595422Y-104161407D01*
X112595086Y-104148114D01*
X112582992Y-104099210D01*
X112551471Y-104064999D01*
X112507659Y-104048476D01*
X112458695Y-104052634D01*
X112418894Y-104074227D01*
X112405450Y-104086544D01*
X112395921Y-104101487D01*
X112389485Y-104124075D01*
X112385317Y-104159328D01*
X112382597Y-104212266D01*
X112380502Y-104287907D01*
X112379960Y-104311857D01*
X112377981Y-104393790D01*
X112375731Y-104451455D01*
X112372357Y-104489608D01*
X112367006Y-104513004D01*
X112358824Y-104526398D01*
X112346959Y-104534545D01*
X112339362Y-104538144D01*
X112307102Y-104550452D01*
X112288111Y-104554514D01*
X112281836Y-104540948D01*
X112278006Y-104499934D01*
X112276600Y-104430999D01*
X112277598Y-104333669D01*
X112277908Y-104318657D01*
X112280101Y-104229859D01*
X112282693Y-104165019D01*
X112286382Y-104119067D01*
X112291864Y-104086935D01*
X112299835Y-104063553D01*
X112310993Y-104043852D01*
X112316830Y-104035410D01*
X112350296Y-103998057D01*
X112387727Y-103969003D01*
X112392309Y-103966467D01*
X112459426Y-103946443D01*
X112529926Y-103949755D01*
G36*
X112039744Y-103950968D02*
G01*
X112096616Y-103972087D01*
X112097267Y-103972493D01*
X112132440Y-103998380D01*
X112158407Y-104028633D01*
X112176670Y-104068058D01*
X112188732Y-104121462D01*
X112196096Y-104193651D01*
X112200264Y-104289432D01*
X112200629Y-104303078D01*
X112205876Y-104508842D01*
X112161716Y-104531678D01*
X112129763Y-104547110D01*
X112110470Y-104554423D01*
X112109578Y-104554514D01*
X112106239Y-104541022D01*
X112103587Y-104504626D01*
X112101956Y-104451452D01*
X112101600Y-104408393D01*
X112101592Y-104338641D01*
X112098403Y-104294837D01*
X112087288Y-104273944D01*
X112063501Y-104272925D01*
X112022296Y-104288741D01*
X111960086Y-104317815D01*
X111914341Y-104341963D01*
X111890813Y-104362913D01*
X111883896Y-104385747D01*
X111883886Y-104386877D01*
X111895299Y-104426212D01*
X111929092Y-104447462D01*
X111980809Y-104450539D01*
X112018061Y-104450006D01*
X112037703Y-104460735D01*
X112049952Y-104486505D01*
X112057002Y-104519337D01*
X112046842Y-104537966D01*
X112043017Y-104540632D01*
X112007001Y-104551340D01*
X111956566Y-104552856D01*
X111904626Y-104545759D01*
X111867822Y-104532788D01*
X111816938Y-104489585D01*
X111788014Y-104429446D01*
X111782286Y-104382462D01*
X111786657Y-104340082D01*
X111802475Y-104305488D01*
X111833797Y-104274763D01*
X111884678Y-104243990D01*
X111959176Y-104209252D01*
X111963714Y-104207288D01*
X112030821Y-104176287D01*
X112072232Y-104150862D01*
X112089981Y-104128014D01*
X112086107Y-104104745D01*
X112062643Y-104078056D01*
X112055627Y-104071914D01*
X112008630Y-104048100D01*
X111959933Y-104049103D01*
X111917522Y-104072451D01*
X111889384Y-104115675D01*
X111886769Y-104124160D01*
X111861308Y-104165308D01*
X111829001Y-104185128D01*
X111782286Y-104204770D01*
X111782286Y-104153950D01*
X111796496Y-104080082D01*
X111838675Y-104012327D01*
X111860624Y-103989661D01*
X111910517Y-103960569D01*
X111973967Y-103947400D01*
X112039744Y-103950968D01*
G37*
X112039744Y-103950968D02*
X112096616Y-103972087D01*
X112097267Y-103972493D01*
X112132440Y-103998380D01*
X112158407Y-104028633D01*
X112176670Y-104068058D01*
X112188732Y-104121462D01*
X112196096Y-104193651D01*
X112200264Y-104289432D01*
X112200629Y-104303078D01*
X112205876Y-104508842D01*
X112161716Y-104531678D01*
X112129763Y-104547110D01*
X112110470Y-104554423D01*
X112109578Y-104554514D01*
X112106239Y-104541022D01*
X112103587Y-104504626D01*
X112101956Y-104451452D01*
X112101600Y-104408393D01*
X112101592Y-104338641D01*
X112098403Y-104294837D01*
X112087288Y-104273944D01*
X112063501Y-104272925D01*
X112022296Y-104288741D01*
X111960086Y-104317815D01*
X111914341Y-104341963D01*
X111890813Y-104362913D01*
X111883896Y-104385747D01*
X111883886Y-104386877D01*
X111895299Y-104426212D01*
X111929092Y-104447462D01*
X111980809Y-104450539D01*
X112018061Y-104450006D01*
X112037703Y-104460735D01*
X112049952Y-104486505D01*
X112057002Y-104519337D01*
X112046842Y-104537966D01*
X112043017Y-104540632D01*
X112007001Y-104551340D01*
X111956566Y-104552856D01*
X111904626Y-104545759D01*
X111867822Y-104532788D01*
X111816938Y-104489585D01*
X111788014Y-104429446D01*
X111782286Y-104382462D01*
X111786657Y-104340082D01*
X111802475Y-104305488D01*
X111833797Y-104274763D01*
X111884678Y-104243990D01*
X111959176Y-104209252D01*
X111963714Y-104207288D01*
X112030821Y-104176287D01*
X112072232Y-104150862D01*
X112089981Y-104128014D01*
X112086107Y-104104745D01*
X112062643Y-104078056D01*
X112055627Y-104071914D01*
X112008630Y-104048100D01*
X111959933Y-104049103D01*
X111917522Y-104072451D01*
X111889384Y-104115675D01*
X111886769Y-104124160D01*
X111861308Y-104165308D01*
X111829001Y-104185128D01*
X111782286Y-104204770D01*
X111782286Y-104153950D01*
X111796496Y-104080082D01*
X111838675Y-104012327D01*
X111860624Y-103989661D01*
X111910517Y-103960569D01*
X111973967Y-103947400D01*
X112039744Y-103950968D01*
G36*
X111375886Y-103851289D02*
G01*
X111380139Y-103910613D01*
X111385025Y-103945572D01*
X111391795Y-103960820D01*
X111401702Y-103961015D01*
X111404914Y-103959195D01*
X111447644Y-103946015D01*
X111503227Y-103946785D01*
X111559737Y-103960333D01*
X111595082Y-103977861D01*
X111631321Y-104005861D01*
X111657813Y-104037549D01*
X111675999Y-104077813D01*
X111687322Y-104131543D01*
X111693222Y-104203626D01*
X111695143Y-104298951D01*
X111695177Y-104317237D01*
X111695200Y-104522646D01*
X111649491Y-104538580D01*
X111617027Y-104549420D01*
X111599215Y-104554468D01*
X111598691Y-104554514D01*
X111596937Y-104540828D01*
X111595444Y-104503076D01*
X111594326Y-104446224D01*
X111593697Y-104375234D01*
X111593600Y-104332073D01*
X111593398Y-104246973D01*
X111592358Y-104185981D01*
X111589831Y-104144177D01*
X111585164Y-104116642D01*
X111577707Y-104098456D01*
X111566811Y-104084698D01*
X111560007Y-104078073D01*
X111513272Y-104051375D01*
X111462272Y-104049375D01*
X111416001Y-104071955D01*
X111407444Y-104080107D01*
X111394893Y-104095436D01*
X111386188Y-104113618D01*
X111380631Y-104139909D01*
X111377526Y-104179562D01*
X111376176Y-104237832D01*
X111375886Y-104318173D01*
X111375886Y-104522646D01*
X111330177Y-104538580D01*
X111297713Y-104549420D01*
X111279901Y-104554468D01*
X111279377Y-104554514D01*
X111278037Y-104540623D01*
X111276828Y-104501439D01*
X111275801Y-104440700D01*
X111275002Y-104362141D01*
X111274481Y-104269498D01*
X111274286Y-104166509D01*
X111274286Y-103769342D01*
X111321457Y-103749444D01*
X111368629Y-103729547D01*
X111375886Y-103851289D01*
G37*
X111375886Y-103851289D02*
X111380139Y-103910613D01*
X111385025Y-103945572D01*
X111391795Y-103960820D01*
X111401702Y-103961015D01*
X111404914Y-103959195D01*
X111447644Y-103946015D01*
X111503227Y-103946785D01*
X111559737Y-103960333D01*
X111595082Y-103977861D01*
X111631321Y-104005861D01*
X111657813Y-104037549D01*
X111675999Y-104077813D01*
X111687322Y-104131543D01*
X111693222Y-104203626D01*
X111695143Y-104298951D01*
X111695177Y-104317237D01*
X111695200Y-104522646D01*
X111649491Y-104538580D01*
X111617027Y-104549420D01*
X111599215Y-104554468D01*
X111598691Y-104554514D01*
X111596937Y-104540828D01*
X111595444Y-104503076D01*
X111594326Y-104446224D01*
X111593697Y-104375234D01*
X111593600Y-104332073D01*
X111593398Y-104246973D01*
X111592358Y-104185981D01*
X111589831Y-104144177D01*
X111585164Y-104116642D01*
X111577707Y-104098456D01*
X111566811Y-104084698D01*
X111560007Y-104078073D01*
X111513272Y-104051375D01*
X111462272Y-104049375D01*
X111416001Y-104071955D01*
X111407444Y-104080107D01*
X111394893Y-104095436D01*
X111386188Y-104113618D01*
X111380631Y-104139909D01*
X111377526Y-104179562D01*
X111376176Y-104237832D01*
X111375886Y-104318173D01*
X111375886Y-104522646D01*
X111330177Y-104538580D01*
X111297713Y-104549420D01*
X111279901Y-104554468D01*
X111279377Y-104554514D01*
X111278037Y-104540623D01*
X111276828Y-104501439D01*
X111275801Y-104440700D01*
X111275002Y-104362141D01*
X111274481Y-104269498D01*
X111274286Y-104166509D01*
X111274286Y-103769342D01*
X111321457Y-103749444D01*
X111368629Y-103729547D01*
X111375886Y-103851289D01*
G36*
X110168303Y-103931239D02*
G01*
X110225527Y-103969735D01*
X110269749Y-104025335D01*
X110296167Y-104096086D01*
X110301510Y-104148162D01*
X110300903Y-104169893D01*
X110295822Y-104186531D01*
X110281855Y-104201437D01*
X110254589Y-104217973D01*
X110209612Y-104239498D01*
X110142511Y-104269374D01*
X110142171Y-104269524D01*
X110080407Y-104297813D01*
X110029759Y-104322933D01*
X109995404Y-104342179D01*
X109982518Y-104352848D01*
X109982514Y-104352934D01*
X109993872Y-104376166D01*
X110020431Y-104401774D01*
X110050923Y-104420221D01*
X110066370Y-104423886D01*
X110108515Y-104411212D01*
X110144808Y-104379471D01*
X110162517Y-104344572D01*
X110179552Y-104318845D01*
X110212922Y-104289546D01*
X110252149Y-104264235D01*
X110286756Y-104250471D01*
X110293993Y-104249714D01*
X110302139Y-104262160D01*
X110302630Y-104293972D01*
X110296643Y-104336866D01*
X110285357Y-104382558D01*
X110269950Y-104422761D01*
X110269171Y-104424322D01*
X110222804Y-104489062D01*
X110162711Y-104533097D01*
X110094465Y-104554711D01*
X110023638Y-104552185D01*
X109955804Y-104523804D01*
X109952788Y-104521808D01*
X109899427Y-104473448D01*
X109864340Y-104410352D01*
X109844922Y-104327387D01*
X109842316Y-104304078D01*
X109837701Y-104194055D01*
X109843233Y-104142748D01*
X109982514Y-104142748D01*
X109984324Y-104174753D01*
X109994222Y-104184093D01*
X110018898Y-104177105D01*
X110057795Y-104160587D01*
X110101275Y-104139881D01*
X110102356Y-104139333D01*
X110139209Y-104119949D01*
X110154000Y-104107013D01*
X110150353Y-104093451D01*
X110134995Y-104075632D01*
X110095923Y-104049845D01*
X110053846Y-104047950D01*
X110016103Y-104066717D01*
X109990034Y-104102915D01*
X109982514Y-104142748D01*
X109843233Y-104142748D01*
X109847194Y-104106027D01*
X109871550Y-104036212D01*
X109905456Y-103987302D01*
X109966653Y-103937878D01*
X110034063Y-103913359D01*
X110102880Y-103911797D01*
X110168303Y-103931239D01*
G37*
X110168303Y-103931239D02*
X110225527Y-103969735D01*
X110269749Y-104025335D01*
X110296167Y-104096086D01*
X110301510Y-104148162D01*
X110300903Y-104169893D01*
X110295822Y-104186531D01*
X110281855Y-104201437D01*
X110254589Y-104217973D01*
X110209612Y-104239498D01*
X110142511Y-104269374D01*
X110142171Y-104269524D01*
X110080407Y-104297813D01*
X110029759Y-104322933D01*
X109995404Y-104342179D01*
X109982518Y-104352848D01*
X109982514Y-104352934D01*
X109993872Y-104376166D01*
X110020431Y-104401774D01*
X110050923Y-104420221D01*
X110066370Y-104423886D01*
X110108515Y-104411212D01*
X110144808Y-104379471D01*
X110162517Y-104344572D01*
X110179552Y-104318845D01*
X110212922Y-104289546D01*
X110252149Y-104264235D01*
X110286756Y-104250471D01*
X110293993Y-104249714D01*
X110302139Y-104262160D01*
X110302630Y-104293972D01*
X110296643Y-104336866D01*
X110285357Y-104382558D01*
X110269950Y-104422761D01*
X110269171Y-104424322D01*
X110222804Y-104489062D01*
X110162711Y-104533097D01*
X110094465Y-104554711D01*
X110023638Y-104552185D01*
X109955804Y-104523804D01*
X109952788Y-104521808D01*
X109899427Y-104473448D01*
X109864340Y-104410352D01*
X109844922Y-104327387D01*
X109842316Y-104304078D01*
X109837701Y-104194055D01*
X109843233Y-104142748D01*
X109982514Y-104142748D01*
X109984324Y-104174753D01*
X109994222Y-104184093D01*
X110018898Y-104177105D01*
X110057795Y-104160587D01*
X110101275Y-104139881D01*
X110102356Y-104139333D01*
X110139209Y-104119949D01*
X110154000Y-104107013D01*
X110150353Y-104093451D01*
X110134995Y-104075632D01*
X110095923Y-104049845D01*
X110053846Y-104047950D01*
X110016103Y-104066717D01*
X109990034Y-104102915D01*
X109982514Y-104142748D01*
X109843233Y-104142748D01*
X109847194Y-104106027D01*
X109871550Y-104036212D01*
X109905456Y-103987302D01*
X109966653Y-103937878D01*
X110034063Y-103913359D01*
X110102880Y-103911797D01*
X110168303Y-103931239D01*
G36*
X109041115Y-103921962D02*
G01*
X109109145Y-103957733D01*
X109159351Y-104015301D01*
X109177185Y-104052312D01*
X109191063Y-104107882D01*
X109198167Y-104178096D01*
X109198840Y-104254727D01*
X109193427Y-104329552D01*
X109182270Y-104394342D01*
X109165714Y-104440873D01*
X109160626Y-104448887D01*
X109100355Y-104508707D01*
X109028769Y-104544535D01*
X108951092Y-104555020D01*
X108872548Y-104538810D01*
X108850689Y-104529092D01*
X108808122Y-104499143D01*
X108770763Y-104459433D01*
X108767232Y-104454397D01*
X108752881Y-104430124D01*
X108743394Y-104404178D01*
X108737790Y-104370022D01*
X108735086Y-104321119D01*
X108734299Y-104250935D01*
X108734286Y-104235200D01*
X108734322Y-104230192D01*
X108879429Y-104230192D01*
X108880273Y-104296430D01*
X108883596Y-104340386D01*
X108890583Y-104368779D01*
X108902416Y-104388325D01*
X108908457Y-104394857D01*
X108943186Y-104419680D01*
X108976903Y-104418548D01*
X109010995Y-104397016D01*
X109031329Y-104374029D01*
X109043371Y-104340478D01*
X109050134Y-104287569D01*
X109050598Y-104281399D01*
X109051752Y-104185513D01*
X109039688Y-104114299D01*
X109014570Y-104068194D01*
X108976560Y-104047635D01*
X108962992Y-104046514D01*
X108927364Y-104052152D01*
X108902994Y-104071686D01*
X108888093Y-104109042D01*
X108880875Y-104168150D01*
X108879429Y-104230192D01*
X108734322Y-104230192D01*
X108734826Y-104160413D01*
X108737096Y-104108159D01*
X108742068Y-104071949D01*
X108750713Y-104045299D01*
X108764005Y-104021722D01*
X108766943Y-104017338D01*
X108816313Y-103958249D01*
X108870109Y-103923947D01*
X108935602Y-103910331D01*
X108957842Y-103909665D01*
X109041115Y-103921962D01*
G37*
X109041115Y-103921962D02*
X109109145Y-103957733D01*
X109159351Y-104015301D01*
X109177185Y-104052312D01*
X109191063Y-104107882D01*
X109198167Y-104178096D01*
X109198840Y-104254727D01*
X109193427Y-104329552D01*
X109182270Y-104394342D01*
X109165714Y-104440873D01*
X109160626Y-104448887D01*
X109100355Y-104508707D01*
X109028769Y-104544535D01*
X108951092Y-104555020D01*
X108872548Y-104538810D01*
X108850689Y-104529092D01*
X108808122Y-104499143D01*
X108770763Y-104459433D01*
X108767232Y-104454397D01*
X108752881Y-104430124D01*
X108743394Y-104404178D01*
X108737790Y-104370022D01*
X108735086Y-104321119D01*
X108734299Y-104250935D01*
X108734286Y-104235200D01*
X108734322Y-104230192D01*
X108879429Y-104230192D01*
X108880273Y-104296430D01*
X108883596Y-104340386D01*
X108890583Y-104368779D01*
X108902416Y-104388325D01*
X108908457Y-104394857D01*
X108943186Y-104419680D01*
X108976903Y-104418548D01*
X109010995Y-104397016D01*
X109031329Y-104374029D01*
X109043371Y-104340478D01*
X109050134Y-104287569D01*
X109050598Y-104281399D01*
X109051752Y-104185513D01*
X109039688Y-104114299D01*
X109014570Y-104068194D01*
X108976560Y-104047635D01*
X108962992Y-104046514D01*
X108927364Y-104052152D01*
X108902994Y-104071686D01*
X108888093Y-104109042D01*
X108880875Y-104168150D01*
X108879429Y-104230192D01*
X108734322Y-104230192D01*
X108734826Y-104160413D01*
X108737096Y-104108159D01*
X108742068Y-104071949D01*
X108750713Y-104045299D01*
X108764005Y-104021722D01*
X108766943Y-104017338D01*
X108816313Y-103958249D01*
X108870109Y-103923947D01*
X108935602Y-103910331D01*
X108957842Y-103909665D01*
X109041115Y-103921962D01*
G36*
X110716093Y-103927780D02*
G01*
X110762672Y-103954723D01*
X110795057Y-103981466D01*
X110818742Y-104009484D01*
X110835059Y-104043748D01*
X110845339Y-104089227D01*
X110850914Y-104150892D01*
X110853116Y-104233711D01*
X110853371Y-104293246D01*
X110853371Y-104512391D01*
X110791686Y-104540044D01*
X110730000Y-104567697D01*
X110722743Y-104327670D01*
X110719744Y-104238028D01*
X110716598Y-104172962D01*
X110712701Y-104128026D01*
X110707447Y-104098770D01*
X110700231Y-104080748D01*
X110690450Y-104069511D01*
X110687312Y-104067079D01*
X110639761Y-104048083D01*
X110591697Y-104055600D01*
X110563086Y-104075543D01*
X110551447Y-104089675D01*
X110543391Y-104108220D01*
X110538271Y-104136334D01*
X110535441Y-104179173D01*
X110534256Y-104241895D01*
X110534057Y-104307261D01*
X110534018Y-104389268D01*
X110532614Y-104447316D01*
X110527914Y-104486465D01*
X110517987Y-104511780D01*
X110500903Y-104528323D01*
X110474732Y-104541156D01*
X110439775Y-104554491D01*
X110401596Y-104569007D01*
X110406141Y-104311389D01*
X110407971Y-104218519D01*
X110410112Y-104149889D01*
X110413181Y-104100711D01*
X110417794Y-104066198D01*
X110424568Y-104041562D01*
X110434119Y-104022016D01*
X110445634Y-104004770D01*
X110501190Y-103949680D01*
X110568980Y-103917822D01*
X110642713Y-103910191D01*
X110716093Y-103927780D01*
G37*
X110716093Y-103927780D02*
X110762672Y-103954723D01*
X110795057Y-103981466D01*
X110818742Y-104009484D01*
X110835059Y-104043748D01*
X110845339Y-104089227D01*
X110850914Y-104150892D01*
X110853116Y-104233711D01*
X110853371Y-104293246D01*
X110853371Y-104512391D01*
X110791686Y-104540044D01*
X110730000Y-104567697D01*
X110722743Y-104327670D01*
X110719744Y-104238028D01*
X110716598Y-104172962D01*
X110712701Y-104128026D01*
X110707447Y-104098770D01*
X110700231Y-104080748D01*
X110690450Y-104069511D01*
X110687312Y-104067079D01*
X110639761Y-104048083D01*
X110591697Y-104055600D01*
X110563086Y-104075543D01*
X110551447Y-104089675D01*
X110543391Y-104108220D01*
X110538271Y-104136334D01*
X110535441Y-104179173D01*
X110534256Y-104241895D01*
X110534057Y-104307261D01*
X110534018Y-104389268D01*
X110532614Y-104447316D01*
X110527914Y-104486465D01*
X110517987Y-104511780D01*
X110500903Y-104528323D01*
X110474732Y-104541156D01*
X110439775Y-104554491D01*
X110401596Y-104569007D01*
X110406141Y-104311389D01*
X110407971Y-104218519D01*
X110410112Y-104149889D01*
X110413181Y-104100711D01*
X110417794Y-104066198D01*
X110424568Y-104041562D01*
X110434119Y-104022016D01*
X110445634Y-104004770D01*
X110501190Y-103949680D01*
X110568980Y-103917822D01*
X110642713Y-103910191D01*
X110716093Y-103927780D01*
G36*
X109599744Y-103919918D02*
G01*
X109655201Y-103947568D01*
X109704148Y-103998480D01*
X109717629Y-104017338D01*
X109732314Y-104042015D01*
X109741842Y-104068816D01*
X109747293Y-104104587D01*
X109749747Y-104156169D01*
X109750286Y-104224267D01*
X109747852Y-104317588D01*
X109739394Y-104387657D01*
X109723174Y-104439931D01*
X109697454Y-104479869D01*
X109660497Y-104512929D01*
X109657782Y-104514886D01*
X109621360Y-104534908D01*
X109577502Y-104544815D01*
X109521724Y-104547257D01*
X109431048Y-104547257D01*
X109431010Y-104635283D01*
X109430166Y-104684308D01*
X109425024Y-104713065D01*
X109411587Y-104730311D01*
X109385858Y-104744808D01*
X109379679Y-104747769D01*
X109350764Y-104761648D01*
X109328376Y-104770414D01*
X109311729Y-104771171D01*
X109300036Y-104761023D01*
X109292510Y-104737073D01*
X109288366Y-104696426D01*
X109286815Y-104636186D01*
X109287071Y-104553455D01*
X109288349Y-104445339D01*
X109288748Y-104413000D01*
X109290185Y-104301524D01*
X109291472Y-104228603D01*
X109430971Y-104228603D01*
X109431755Y-104290499D01*
X109435240Y-104330997D01*
X109443124Y-104357708D01*
X109457105Y-104378244D01*
X109466597Y-104388260D01*
X109505404Y-104417567D01*
X109539763Y-104419952D01*
X109575216Y-104395750D01*
X109576114Y-104394857D01*
X109590539Y-104376153D01*
X109599313Y-104350732D01*
X109603739Y-104311584D01*
X109605118Y-104251697D01*
X109605143Y-104238430D01*
X109601812Y-104155901D01*
X109590969Y-104098691D01*
X109571340Y-104063766D01*
X109541650Y-104048094D01*
X109524491Y-104046514D01*
X109483766Y-104053926D01*
X109455832Y-104078330D01*
X109439017Y-104122980D01*
X109431650Y-104191130D01*
X109430971Y-104228603D01*
X109291472Y-104228603D01*
X109291708Y-104215245D01*
X109293677Y-104150333D01*
X109296450Y-104102958D01*
X109300388Y-104069290D01*
X109305849Y-104045498D01*
X109313192Y-104027753D01*
X109322777Y-104012224D01*
X109326887Y-104006381D01*
X109381405Y-103951185D01*
X109450336Y-103919890D01*
X109530072Y-103911165D01*
X109599744Y-103919918D01*
G37*
X109599744Y-103919918D02*
X109655201Y-103947568D01*
X109704148Y-103998480D01*
X109717629Y-104017338D01*
X109732314Y-104042015D01*
X109741842Y-104068816D01*
X109747293Y-104104587D01*
X109749747Y-104156169D01*
X109750286Y-104224267D01*
X109747852Y-104317588D01*
X109739394Y-104387657D01*
X109723174Y-104439931D01*
X109697454Y-104479869D01*
X109660497Y-104512929D01*
X109657782Y-104514886D01*
X109621360Y-104534908D01*
X109577502Y-104544815D01*
X109521724Y-104547257D01*
X109431048Y-104547257D01*
X109431010Y-104635283D01*
X109430166Y-104684308D01*
X109425024Y-104713065D01*
X109411587Y-104730311D01*
X109385858Y-104744808D01*
X109379679Y-104747769D01*
X109350764Y-104761648D01*
X109328376Y-104770414D01*
X109311729Y-104771171D01*
X109300036Y-104761023D01*
X109292510Y-104737073D01*
X109288366Y-104696426D01*
X109286815Y-104636186D01*
X109287071Y-104553455D01*
X109288349Y-104445339D01*
X109288748Y-104413000D01*
X109290185Y-104301524D01*
X109291472Y-104228603D01*
X109430971Y-104228603D01*
X109431755Y-104290499D01*
X109435240Y-104330997D01*
X109443124Y-104357708D01*
X109457105Y-104378244D01*
X109466597Y-104388260D01*
X109505404Y-104417567D01*
X109539763Y-104419952D01*
X109575216Y-104395750D01*
X109576114Y-104394857D01*
X109590539Y-104376153D01*
X109599313Y-104350732D01*
X109603739Y-104311584D01*
X109605118Y-104251697D01*
X109605143Y-104238430D01*
X109601812Y-104155901D01*
X109590969Y-104098691D01*
X109571340Y-104063766D01*
X109541650Y-104048094D01*
X109524491Y-104046514D01*
X109483766Y-104053926D01*
X109455832Y-104078330D01*
X109439017Y-104122980D01*
X109431650Y-104191130D01*
X109430971Y-104228603D01*
X109291472Y-104228603D01*
X109291708Y-104215245D01*
X109293677Y-104150333D01*
X109296450Y-104102958D01*
X109300388Y-104069290D01*
X109305849Y-104045498D01*
X109313192Y-104027753D01*
X109322777Y-104012224D01*
X109326887Y-104006381D01*
X109381405Y-103951185D01*
X109450336Y-103919890D01*
X109530072Y-103911165D01*
X109599744Y-103919918D01*
D11*
X122950499Y-69059498D02*
X123204499Y-69059498D01*
X122950499Y-69440498D02*
X122950499Y-69059498D01*
X123204499Y-69440498D02*
X122950499Y-69440498D01*
X123204499Y-69059498D02*
X123204499Y-69440498D01*
X122950499Y-74059501D02*
X123204499Y-74059501D01*
X122950499Y-74440501D02*
X122950499Y-74059501D01*
X123204499Y-74440501D02*
X122950499Y-74440501D01*
X123204499Y-74059501D02*
X123204499Y-74440501D01*
X101549501Y-74559500D02*
X101295501Y-74559500D01*
X101549501Y-74940500D02*
X101549501Y-74559500D01*
X101295501Y-74940500D02*
X101549501Y-74940500D01*
X101295501Y-74559500D02*
X101295501Y-74940500D01*
X101549501Y-69559500D02*
X101295501Y-69559500D01*
X101549501Y-69940500D02*
X101549501Y-69559500D01*
X101295501Y-69940500D02*
X101549501Y-69940500D01*
X101295501Y-69559500D02*
X101295501Y-69940500D01*
X121356997Y-64827800D02*
X103142997Y-64827800D01*
X103143003Y-77172200D02*
X121357003Y-77172200D01*
D12*
X129670000Y-42670000D02*
X131000000Y-42670000D01*
X129670000Y-44000000D02*
X129670000Y-42670000D01*
X129670000Y-45270000D02*
X132330000Y-45270000D01*
X132330000Y-45270000D02*
X132330000Y-103750000D01*
X129670000Y-45270000D02*
X129670000Y-103750000D01*
X129670000Y-103750000D02*
X132330000Y-103750000D01*
X95330000Y-103750000D02*
X94000000Y-103750000D01*
X95330000Y-102420000D02*
X95330000Y-103750000D01*
X95330000Y-101150000D02*
X92670000Y-101150000D01*
X92670000Y-101150000D02*
X92670000Y-42670000D01*
X95330000Y-101150000D02*
X95330000Y-42670000D01*
X95330000Y-42670000D02*
X92670000Y-42670000D01*
D13*
X110666666Y-75652300D02*
X110333333Y-75176110D01*
X110095238Y-75652300D02*
X110095238Y-74652300D01*
X110476190Y-74652300D01*
X110571428Y-74699920D01*
X110619047Y-74747539D01*
X110666666Y-74842777D01*
X110666666Y-74985634D01*
X110619047Y-75080872D01*
X110571428Y-75128491D01*
X110476190Y-75176110D01*
X110095238Y-75176110D01*
X111095238Y-75128491D02*
X111428571Y-75128491D01*
X111571428Y-75652300D02*
X111095238Y-75652300D01*
X111095238Y-74652300D01*
X111571428Y-74652300D01*
X112333333Y-75128491D02*
X112000000Y-75128491D01*
X112000000Y-75652300D02*
X112000000Y-74652300D01*
X112476190Y-74652300D01*
X113000000Y-74652300D02*
X113000000Y-74890396D01*
X112761904Y-74795158D02*
X113000000Y-74890396D01*
X113238095Y-74795158D01*
X112857142Y-75080872D02*
X113000000Y-74890396D01*
X113142857Y-75080872D01*
X113761904Y-74652300D02*
X113761904Y-74890396D01*
X113523809Y-74795158D02*
X113761904Y-74890396D01*
X114000000Y-74795158D01*
X113619047Y-75080872D02*
X113761904Y-74890396D01*
X113904761Y-75080872D01*
X111238095Y-61452380D02*
X111238095Y-62261904D01*
X111285714Y-62357142D01*
X111333333Y-62404761D01*
X111428571Y-62452380D01*
X111619047Y-62452380D01*
X111714285Y-62404761D01*
X111761904Y-62357142D01*
X111809523Y-62261904D01*
X111809523Y-61452380D01*
X112809523Y-62452380D02*
X112238095Y-62452380D01*
X112523809Y-62452380D02*
X112523809Y-61452380D01*
X112428571Y-61595238D01*
X112333333Y-61690476D01*
X112238095Y-61738095D01*
X104916666Y-64354761D02*
X105059523Y-64402380D01*
X105297619Y-64402380D01*
X105392857Y-64354761D01*
X105440476Y-64307142D01*
X105488095Y-64211904D01*
X105488095Y-64116666D01*
X105440476Y-64021428D01*
X105392857Y-63973809D01*
X105297619Y-63926190D01*
X105107142Y-63878571D01*
X105011904Y-63830952D01*
X104964285Y-63783333D01*
X104916666Y-63688095D01*
X104916666Y-63592857D01*
X104964285Y-63497619D01*
X105011904Y-63450000D01*
X105107142Y-63402380D01*
X105345238Y-63402380D01*
X105488095Y-63450000D01*
X105869047Y-63497619D02*
X105916666Y-63450000D01*
X106011904Y-63402380D01*
X106250000Y-63402380D01*
X106345238Y-63450000D01*
X106392857Y-63497619D01*
X106440476Y-63592857D01*
X106440476Y-63688095D01*
X106392857Y-63830952D01*
X105821428Y-64402380D01*
X106440476Y-64402380D01*
X106916666Y-64402380D02*
X107107142Y-64402380D01*
X107202380Y-64354761D01*
X107250000Y-64307142D01*
X107345238Y-64164285D01*
X107392857Y-63973809D01*
X107392857Y-63592857D01*
X107345238Y-63497619D01*
X107297619Y-63450000D01*
X107202380Y-63402380D01*
X107011904Y-63402380D01*
X106916666Y-63450000D01*
X106869047Y-63497619D01*
X106821428Y-63592857D01*
X106821428Y-63830952D01*
X106869047Y-63926190D01*
X106916666Y-63973809D01*
X107011904Y-64021428D01*
X107202380Y-64021428D01*
X107297619Y-63973809D01*
X107345238Y-63926190D01*
X107392857Y-63830952D01*
X107773809Y-64116666D02*
X108250000Y-64116666D01*
X107678571Y-64402380D02*
X108011904Y-63402380D01*
X108345238Y-64402380D01*
X109154761Y-64402380D02*
X108678571Y-64402380D01*
X108678571Y-63402380D01*
X109678571Y-63402380D02*
X109773809Y-63402380D01*
X109869047Y-63450000D01*
X109916666Y-63497619D01*
X109964285Y-63592857D01*
X110011904Y-63783333D01*
X110011904Y-64021428D01*
X109964285Y-64211904D01*
X109916666Y-64307142D01*
X109869047Y-64354761D01*
X109773809Y-64402380D01*
X109678571Y-64402380D01*
X109583333Y-64354761D01*
X109535714Y-64307142D01*
X109488095Y-64211904D01*
X109440476Y-64021428D01*
X109440476Y-63783333D01*
X109488095Y-63592857D01*
X109535714Y-63497619D01*
X109583333Y-63450000D01*
X109678571Y-63402380D01*
X110630952Y-63402380D02*
X110726190Y-63402380D01*
X110821428Y-63450000D01*
X110869047Y-63497619D01*
X110916666Y-63592857D01*
X110964285Y-63783333D01*
X110964285Y-64021428D01*
X110916666Y-64211904D01*
X110869047Y-64307142D01*
X110821428Y-64354761D01*
X110726190Y-64402380D01*
X110630952Y-64402380D01*
X110535714Y-64354761D01*
X110488095Y-64307142D01*
X110440476Y-64211904D01*
X110392857Y-64021428D01*
X110392857Y-63783333D01*
X110440476Y-63592857D01*
X110488095Y-63497619D01*
X110535714Y-63450000D01*
X110630952Y-63402380D01*
X111535714Y-63830952D02*
X111440476Y-63783333D01*
X111392857Y-63735714D01*
X111345238Y-63640476D01*
X111345238Y-63592857D01*
X111392857Y-63497619D01*
X111440476Y-63450000D01*
X111535714Y-63402380D01*
X111726190Y-63402380D01*
X111821428Y-63450000D01*
X111869047Y-63497619D01*
X111916666Y-63592857D01*
X111916666Y-63640476D01*
X111869047Y-63735714D01*
X111821428Y-63783333D01*
X111726190Y-63830952D01*
X111535714Y-63830952D01*
X111440476Y-63878571D01*
X111392857Y-63926190D01*
X111345238Y-64021428D01*
X111345238Y-64211904D01*
X111392857Y-64307142D01*
X111440476Y-64354761D01*
X111535714Y-64402380D01*
X111726190Y-64402380D01*
X111821428Y-64354761D01*
X111869047Y-64307142D01*
X111916666Y-64211904D01*
X111916666Y-64021428D01*
X111869047Y-63926190D01*
X111821428Y-63878571D01*
X111726190Y-63830952D01*
X112630952Y-63402380D02*
X112630952Y-64116666D01*
X112583333Y-64259523D01*
X112488095Y-64354761D01*
X112345238Y-64402380D01*
X112250000Y-64402380D01*
X113583333Y-63402380D02*
X113107142Y-63402380D01*
X113059523Y-63878571D01*
X113107142Y-63830952D01*
X113202380Y-63783333D01*
X113440476Y-63783333D01*
X113535714Y-63830952D01*
X113583333Y-63878571D01*
X113630952Y-63973809D01*
X113630952Y-64211904D01*
X113583333Y-64307142D01*
X113535714Y-64354761D01*
X113440476Y-64402380D01*
X113202380Y-64402380D01*
X113107142Y-64354761D01*
X113059523Y-64307142D01*
X114535714Y-63402380D02*
X114059523Y-63402380D01*
X114011904Y-63878571D01*
X114059523Y-63830952D01*
X114154761Y-63783333D01*
X114392857Y-63783333D01*
X114488095Y-63830952D01*
X114535714Y-63878571D01*
X114583333Y-63973809D01*
X114583333Y-64211904D01*
X114535714Y-64307142D01*
X114488095Y-64354761D01*
X114392857Y-64402380D01*
X114154761Y-64402380D01*
X114059523Y-64354761D01*
X114011904Y-64307142D01*
X114869047Y-63402380D02*
X115440476Y-63402380D01*
X115154761Y-64402380D02*
X115154761Y-63402380D01*
X116107142Y-63878571D02*
X115773809Y-63878571D01*
X115773809Y-64402380D02*
X115773809Y-63402380D01*
X116250000Y-63402380D01*
X116630952Y-64402380D02*
X116630952Y-63402380D01*
X117678571Y-64402380D02*
X117345238Y-63926190D01*
X117107142Y-64402380D02*
X117107142Y-63402380D01*
X117488095Y-63402380D01*
X117583333Y-63450000D01*
X117630952Y-63497619D01*
X117678571Y-63592857D01*
X117678571Y-63735714D01*
X117630952Y-63830952D01*
X117583333Y-63878571D01*
X117488095Y-63926190D01*
X117107142Y-63926190D01*
X118630952Y-64402380D02*
X118059523Y-64402380D01*
X118345238Y-64402380D02*
X118345238Y-63402380D01*
X118250000Y-63545238D01*
X118154761Y-63640476D01*
X118059523Y-63688095D01*
X119250000Y-63402380D02*
X119345238Y-63402380D01*
X119440476Y-63450000D01*
X119488095Y-63497619D01*
X119535714Y-63592857D01*
X119583333Y-63783333D01*
X119583333Y-64021428D01*
X119535714Y-64211904D01*
X119488095Y-64307142D01*
X119440476Y-64354761D01*
X119345238Y-64402380D01*
X119250000Y-64402380D01*
X119154761Y-64354761D01*
X119107142Y-64307142D01*
X119059523Y-64211904D01*
X119011904Y-64021428D01*
X119011904Y-63783333D01*
X119059523Y-63592857D01*
X119107142Y-63497619D01*
X119154761Y-63450000D01*
X119250000Y-63402380D01*
X102149951Y-63319980D02*
X102149951Y-63558076D01*
X101911855Y-63462838D02*
X102149951Y-63558076D01*
X102388046Y-63462838D01*
X102007093Y-63748552D02*
X102149951Y-63558076D01*
X102292808Y-63748552D01*
X102149951Y-63319980D02*
X102149951Y-63558076D01*
X101911855Y-63462838D02*
X102149951Y-63558076D01*
X102388046Y-63462838D01*
X102007093Y-63748552D02*
X102149951Y-63558076D01*
X102292808Y-63748552D01*
X130666666Y-40452380D02*
X130666666Y-41166666D01*
X130619047Y-41309523D01*
X130523809Y-41404761D01*
X130380952Y-41452380D01*
X130285714Y-41452380D01*
X131095238Y-40547619D02*
X131142857Y-40500000D01*
X131238095Y-40452380D01*
X131476190Y-40452380D01*
X131571428Y-40500000D01*
X131619047Y-40547619D01*
X131666666Y-40642857D01*
X131666666Y-40738095D01*
X131619047Y-40880952D01*
X131047619Y-41452380D01*
X131666666Y-41452380D01*
X93666666Y-40452380D02*
X93666666Y-41166666D01*
X93619047Y-41309523D01*
X93523809Y-41404761D01*
X93380952Y-41452380D01*
X93285714Y-41452380D01*
X94666666Y-41452380D02*
X94095238Y-41452380D01*
X94380952Y-41452380D02*
X94380952Y-40452380D01*
X94285714Y-40595238D01*
X94190476Y-40690476D01*
X94095238Y-40738095D01*
M02*
