M48
; DRILL file {KiCad (5.1.4)-1} date 10/31/2019 10:59:52 PM
; FORMAT={-:-/ absolute / inch / decimal}
; #@! TF.CreationDate,2019-10-31T22:59:52-04:00
; #@! TF.GenerationSoftware,Kicad,Pcbnew,(5.1.4)-1
FMAT,2
INCH
T1C0.0236
T2C0.0315
T3C0.0354
T4C0.0394
T5C0.0433
T6C0.0728
T7C0.0630
T8C0.0866
%
G90
G05
T1
X4.4Y-2.15
X4.4Y-2.6
X4.4Y-3.0
X4.67Y-2.57
X4.7Y-1.8
X4.7Y-4.0
X5.0Y-1.8
X5.0Y-2.765
X5.0Y-4.0
X5.02Y-3.31
X5.055Y-2.14
X5.085Y-3.195
X5.14Y-2.015
X5.265Y-1.91
X5.3Y-1.8
X5.3Y-2.41
X5.3Y-4.0
X5.425Y-3.5
X5.47Y-2.27
X5.47Y-2.55
X5.525Y-3.5
X5.54Y-1.91
X5.6Y-1.8
X5.6Y-3.15
X5.6Y-4.0
X5.61Y-2.93
X5.62Y-2.41
X5.63Y-3.6
X5.63Y-3.77
X5.645Y-2.005
X5.72Y-2.005
X5.735Y-2.265
X5.735Y-3.5
X5.77Y-3.1
X5.835Y-3.5
X5.84Y-2.265
X5.88Y-2.005
X5.9Y-1.8
X5.9Y-4.0
X5.955Y-3.385
X6.03Y-1.935
X6.14Y-2.41
X6.2Y-1.8
X6.2Y-4.0
X6.235Y-3.5
X6.27Y-1.925
X6.27Y-2.28
X6.31Y-2.53
X6.33Y-3.5
X6.385Y-1.99
X6.4Y-2.41
X6.42Y-3.16
X6.425Y-3.605
X6.425Y-3.78
X6.43Y-2.96
X6.49Y-1.98
X6.49Y-2.27
X6.5Y-1.8
X6.5Y-4.0
X6.52Y-3.5
X6.58Y-3.11
X6.62Y-3.5
X6.65Y-1.98
X6.65Y-2.27
X6.8Y-1.8
X6.8Y-4.0
X6.805Y-1.93
X6.825Y-2.085
X7.05Y-2.44
X7.1Y-1.8
X7.1Y-4.0
X7.125Y-1.93
X7.15Y-3.51
X7.19Y-2.28
X7.24Y-2.0
X7.25Y-3.51
X7.25Y-3.605
X7.25Y-3.775
X7.28Y-2.52
X7.32Y-2.37
X7.34Y-3.17
X7.35Y-2.97
X7.4Y-1.8
X7.4Y-4.0
X7.455Y-3.51
X7.5Y-3.12
X7.555Y-3.51
X7.8Y-2.15
X7.8Y-2.6
X7.8Y-3.0
X7.8Y-3.3
X7.8Y-3.6
X7.15Y-2.41
X7.2287Y-2.41
X6.23Y-2.41
X6.3087Y-2.41
X5.795Y-2.0913
X5.795Y-2.17
T2
X5.25Y-3.285
X5.25Y-3.685
X6.865Y-3.29
X6.865Y-3.69
X5.12Y-2.355
X5.12Y-2.755
X5.41Y-2.41
X5.5084Y-2.41
X6.565Y-2.0716
X6.565Y-2.17
X4.56Y-2.17
X4.56Y-2.57
X4.47Y-2.735
X4.87Y-2.735
X7.43Y-2.0716
X7.43Y-2.17
X6.07Y-3.29
X6.07Y-3.69
T3
X5.41Y-3.685
X5.51Y-3.685
X7.025Y-3.69
X7.125Y-3.69
X6.23Y-3.69
X6.33Y-3.69
X4.87Y-2.91
X4.87Y-3.01
X5.12Y-2.91
X5.12Y-3.01
T4
X5.735Y-3.285
X5.735Y-3.385
X5.835Y-3.285
X5.835Y-3.385
X5.425Y-3.285
X5.425Y-3.385
X5.525Y-3.285
X5.525Y-3.385
X7.455Y-3.29
X7.455Y-3.39
X7.555Y-3.29
X7.555Y-3.39
X6.23Y-3.29
X6.23Y-3.39
X6.33Y-3.29
X6.33Y-3.39
X6.52Y-3.29
X6.52Y-3.39
X6.62Y-3.29
X6.62Y-3.39
X7.15Y-3.29
X7.15Y-3.39
X7.25Y-3.29
X7.25Y-3.39
T5
X6.145Y-2.17
X6.245Y-2.17
X6.345Y-2.17
X7.0025Y-2.17
X7.1025Y-2.17
X7.2025Y-2.17
X5.385Y-2.17
X5.485Y-2.17
X5.585Y-2.17
T6
X7.15Y-2.685
X7.15Y-2.87
X7.15Y-3.0551
X6.23Y-2.68
X6.23Y-2.865
X6.23Y-3.0501
X5.41Y-2.6549
X5.41Y-2.84
X5.41Y-3.025
X4.87Y-2.17
X4.87Y-2.355
X4.87Y-2.5401
T7
X4.5157Y-3.395
T8
X4.5142Y-3.8608
X7.6858Y-3.8608
X4.5142Y-1.9392
X7.68Y-1.94
T4
G00X4.6239Y-3.2178
M15
G01X4.5649Y-3.2178
M16
G05
G00X4.6239Y-3.5722
M15
G01X4.5649Y-3.5722
M16
G05
G00X4.6338Y-3.3694
M15
G01X4.6338Y-3.4206
M16
G05
G00X4.87Y-3.3556
M15
G01X4.87Y-3.4344
M16
G05
T0
M30
